<?xml version="1.0" encoding="UTF-8" standalone="no"?>
<!DOCTYPE svg PUBLIC "-//W3C//DTD SVG 1.1//EN"
 "http://www.w3.org/Graphics/SVG/1.1/DTD/svg11.dtd">
<!-- Generated by graphviz version 2.43.0 (0)
 -->
<!-- Title: oneDegreeRelationshipsDiagram Pages: 1 -->
<svg width="726pt" height="291pt"
 viewBox="0.00 0.00 726.00 291.00" xmlns="http://www.w3.org/2000/svg" xmlns:xlink="http://www.w3.org/1999/xlink">
<g id="graph0" class="graph" transform="scale(1 1) rotate(0) translate(4 287)">
<title>oneDegreeRelationshipsDiagram</title>
<polygon fill="#ffffff" stroke="transparent" points="-4,4 -4,-287 722,-287 722,4 -4,4"/>
<text text-anchor="middle" x="79.5" y="-7.2" font-family="Helvetica,sans-Serif" font-size="11.00">Generated by SchemaSpy</text>
<!-- artefact_position -->
<g id="node1" class="node">
<title>artefact_position</title>
<g id="a_node1"><a xlink:href="../../tables/artefact_position.html" xlink:title="artefact_position" target="_top">
<polygon fill="#ffffff" stroke="transparent" points="171,-37 171,-279 462,-279 462,-37 171,-37"/>
<polygon fill="#f5f5f5" stroke="transparent" points="173.5,-255 173.5,-277 460.5,-277 460.5,-255 173.5,-255"/>
<polygon fill="none" stroke="black" points="173.5,-255 173.5,-277 460.5,-277 460.5,-255 173.5,-255"/>
<text text-anchor="start" x="178.5" y="-264.2" font-family="Helvetica,sans-Serif" font-weight="bold" font-size="11.00">artefact_position</text>
<text text-anchor="start" x="418.5" y="-263.2" font-family="Helvetica,sans-Serif" font-size="11.00">[table]</text>
<polygon fill="none" stroke="black" points="173.5,-233 173.5,-255 331.5,-255 331.5,-233 173.5,-233"/>
<image xlink:href="../../images/primaryKeys.png" width="11px" height="12px" preserveAspectRatio="xMinYMin meet" x="178.5" y="-250"/>
<text text-anchor="start" x="193.5" y="-241.2" font-family="Helvetica,sans-Serif" font-size="11.00">artefact_position_id</text>
<polygon fill="none" stroke="black" points="331.5,-233 331.5,-255 460.5,-255 460.5,-233 331.5,-233"/>
<text text-anchor="start" x="334.5" y="-241.2" font-family="Helvetica,sans-Serif" font-size="11.00">int unsigned[10]</text>
<polygon fill="#ffffff" stroke="transparent" points="173.5,-211 173.5,-233 331.5,-233 331.5,-211 173.5,-211"/>
<polygon fill="none" stroke="black" points="173.5,-211 173.5,-233 331.5,-233 331.5,-211 173.5,-211"/>
<image xlink:href="../../images/foreignKeys.png" width="11px" height="12px" preserveAspectRatio="xMinYMin meet" x="178.5" y="-228"/>
<text text-anchor="start" x="193.5" y="-219.2" font-family="Helvetica,sans-Serif" font-size="11.00">artefact_id</text>
<polygon fill="none" stroke="black" points="331.5,-211 331.5,-233 460.5,-233 460.5,-211 331.5,-211"/>
<text text-anchor="start" x="334.5" y="-219.2" font-family="Helvetica,sans-Serif" font-size="11.00">int unsigned[10]</text>
<polygon fill="#ffffff" stroke="transparent" points="173.5,-189 173.5,-211 331.5,-211 331.5,-189 173.5,-189"/>
<polygon fill="none" stroke="black" points="173.5,-189 173.5,-211 331.5,-211 331.5,-189 173.5,-189"/>
<text text-anchor="start" x="193.5" y="-197.2" font-family="Helvetica,sans-Serif" font-size="11.00">z_index</text>
<polygon fill="none" stroke="black" points="331.5,-189 331.5,-211 460.5,-211 460.5,-189 331.5,-189"/>
<text text-anchor="start" x="334.5" y="-197.2" font-family="Helvetica,sans-Serif" font-size="11.00">int[10]</text>
<polygon fill="#ffffff" stroke="transparent" points="173.5,-167 173.5,-189 331.5,-189 331.5,-167 173.5,-167"/>
<polygon fill="none" stroke="black" points="173.5,-167 173.5,-189 331.5,-189 331.5,-167 173.5,-167"/>
<text text-anchor="start" x="193.5" y="-175.2" font-family="Helvetica,sans-Serif" font-size="11.00">scale</text>
<polygon fill="none" stroke="black" points="331.5,-167 331.5,-189 460.5,-189 460.5,-167 331.5,-167"/>
<text text-anchor="start" x="334.5" y="-175.2" font-family="Helvetica,sans-Serif" font-size="11.00">decimal unsigned[6,4]</text>
<polygon fill="#ffffff" stroke="transparent" points="173.5,-145 173.5,-167 331.5,-167 331.5,-145 173.5,-145"/>
<polygon fill="none" stroke="black" points="173.5,-145 173.5,-167 331.5,-167 331.5,-145 173.5,-145"/>
<text text-anchor="start" x="193.5" y="-153.2" font-family="Helvetica,sans-Serif" font-size="11.00">rotate</text>
<polygon fill="none" stroke="black" points="331.5,-145 331.5,-167 460.5,-167 460.5,-145 331.5,-145"/>
<text text-anchor="start" x="334.5" y="-153.2" font-family="Helvetica,sans-Serif" font-size="11.00">decimal unsigned[6,2]</text>
<polygon fill="none" stroke="black" points="173.5,-123 173.5,-145 331.5,-145 331.5,-123 173.5,-123"/>
<text text-anchor="start" x="193.5" y="-131.2" font-family="Helvetica,sans-Serif" font-size="11.00">translate_x</text>
<polygon fill="none" stroke="black" points="331.5,-123 331.5,-145 460.5,-145 460.5,-123 331.5,-123"/>
<text text-anchor="start" x="334.5" y="-131.2" font-family="Helvetica,sans-Serif" font-size="11.00">int[10]</text>
<polygon fill="none" stroke="black" points="173.5,-101 173.5,-123 331.5,-123 331.5,-101 173.5,-101"/>
<text text-anchor="start" x="193.5" y="-109.2" font-family="Helvetica,sans-Serif" font-size="11.00">translate_y</text>
<polygon fill="none" stroke="black" points="331.5,-101 331.5,-123 460.5,-123 460.5,-101 331.5,-101"/>
<text text-anchor="start" x="334.5" y="-109.2" font-family="Helvetica,sans-Serif" font-size="11.00">int[10]</text>
<polygon fill="#ffffff" stroke="transparent" points="173.5,-79 173.5,-101 331.5,-101 331.5,-79 173.5,-79"/>
<polygon fill="none" stroke="black" points="173.5,-79 173.5,-101 331.5,-101 331.5,-79 173.5,-79"/>
<text text-anchor="start" x="193.5" y="-87.2" font-family="Helvetica,sans-Serif" font-size="11.00">translate_x_non_null</text>
<polygon fill="none" stroke="black" points="331.5,-79 331.5,-101 460.5,-101 460.5,-79 331.5,-79"/>
<text text-anchor="start" x="334.5" y="-87.2" font-family="Helvetica,sans-Serif" font-size="11.00">int[10]</text>
<polygon fill="#ffffff" stroke="transparent" points="173.5,-57 173.5,-79 331.5,-79 331.5,-57 173.5,-57"/>
<polygon fill="none" stroke="black" points="173.5,-57 173.5,-79 331.5,-79 331.5,-57 173.5,-57"/>
<text text-anchor="start" x="193.5" y="-65.2" font-family="Helvetica,sans-Serif" font-size="11.00">translate_y_non_null</text>
<polygon fill="none" stroke="black" points="331.5,-57 331.5,-79 460.5,-79 460.5,-57 331.5,-57"/>
<text text-anchor="start" x="334.5" y="-65.2" font-family="Helvetica,sans-Serif" font-size="11.00">int[10]</text>
<polygon fill="#ffffff" stroke="transparent" points="173.5,-39 173.5,-57 243.5,-57 243.5,-39 173.5,-39"/>
<polygon fill="none" stroke="black" points="173.5,-39 173.5,-57 243.5,-57 243.5,-39 173.5,-39"/>
<text text-anchor="start" x="176.5" y="-45.2" font-family="Helvetica,sans-Serif" font-size="11.00">&lt; 1</text>
<polygon fill="#ffffff" stroke="transparent" points="243.5,-39 243.5,-57 331.5,-57 331.5,-39 243.5,-39"/>
<polygon fill="none" stroke="black" points="243.5,-39 243.5,-57 331.5,-57 331.5,-39 243.5,-39"/>
<text text-anchor="start" x="291.5" y="-45.2" font-family="Helvetica,sans-Serif" font-size="11.00">0 rows</text>
<polygon fill="#ffffff" stroke="transparent" points="331.5,-39 331.5,-57 460.5,-57 460.5,-39 331.5,-39"/>
<polygon fill="none" stroke="black" points="331.5,-39 331.5,-57 460.5,-57 460.5,-39 331.5,-39"/>
<text text-anchor="start" x="437.5" y="-45.2" font-family="Helvetica,sans-Serif" font-size="11.00">1 &gt;</text>
<polygon fill="none" stroke="black" stroke-width="2" points="172,-38 172,-278 461,-278 461,-38 172,-38"/>
</a>
</g>
</g>
<!-- artefact -->
<g id="node2" class="node">
<title>artefact</title>
<g id="a_node2"><a xlink:href="../../tables/artefact.html" xlink:title="artefact" target="_top">
<polygon fill="#ffffff" stroke="transparent" points="8,-193 8,-255 122,-255 122,-193 8,-193"/>
<polygon fill="#f5f5f5" stroke="transparent" points="8,-233 8,-255 122,-255 122,-233 8,-233"/>
<polygon fill="none" stroke="black" points="8,-233 8,-255 122,-255 122,-233 8,-233"/>
<text text-anchor="start" x="13" y="-242.2" font-family="Helvetica,sans-Serif" font-weight="bold" font-size="11.00">artefact</text>
<text text-anchor="start" x="80" y="-241.2" font-family="Helvetica,sans-Serif" font-size="11.00">[table]</text>
<polygon fill="none" stroke="black" points="8,-211 8,-233 122,-233 122,-211 8,-211"/>
<image xlink:href="../../images/primaryKeys.png" width="11px" height="12px" preserveAspectRatio="xMinYMin meet" x="13" y="-228"/>
<text text-anchor="start" x="39" y="-219.2" font-family="Helvetica,sans-Serif" font-size="11.00">artefact_id</text>
<polygon fill="#ffffff" stroke="transparent" points="8,-193 8,-211 22,-211 22,-193 8,-193"/>
<polygon fill="none" stroke="black" points="8,-193 8,-211 22,-211 22,-193 8,-193"/>
<text text-anchor="start" x="11" y="-199.2" font-family="Helvetica,sans-Serif" font-size="11.00"> &#160;</text>
<polygon fill="#ffffff" stroke="transparent" points="22,-193 22,-211 96,-211 96,-193 22,-193"/>
<polygon fill="none" stroke="black" points="22,-193 22,-211 96,-211 96,-193 22,-193"/>
<text text-anchor="start" x="25" y="-199.2" font-family="Helvetica,sans-Serif" font-size="11.00">26,982 rows</text>
<polygon fill="#ffffff" stroke="transparent" points="96,-193 96,-211 122,-211 122,-193 96,-193"/>
<polygon fill="none" stroke="black" points="96,-193 96,-211 122,-211 122,-193 96,-193"/>
<text text-anchor="start" x="99" y="-199.2" font-family="Helvetica,sans-Serif" font-size="11.00">8 &gt;</text>
</a>
</g>
</g>
<!-- artefact_position&#45;&gt;artefact -->
<g id="edge1" class="edge">
<title>artefact_position:w&#45;&gt;artefact:e</title>
<path fill="none" stroke="black" d="M157.84,-222C146.41,-222 139.16,-222 123,-222"/>
<polygon fill="black" stroke="black" points="164.5,-222 172.5,-225.6 168.5,-222 172.5,-222 172.5,-222 172.5,-222 168.5,-222 172.5,-218.4 164.5,-222 164.5,-222"/>
<ellipse fill="none" stroke="black" cx="161.3" cy="-222" rx="3.2" ry="3.2"/>
</g>
<!-- artefact_position_owner -->
<g id="node3" class="node">
<title>artefact_position_owner</title>
<g id="a_node3"><a xlink:href="../../tables/artefact_position_owner.html" xlink:title="artefact_position_owner" target="_top">
<polygon fill="#ffffff" stroke="transparent" points="511,-171 511,-277 710,-277 710,-171 511,-171"/>
<polygon fill="#f5f5f5" stroke="transparent" points="511.5,-255 511.5,-277 710.5,-277 710.5,-255 511.5,-255"/>
<polygon fill="none" stroke="black" points="511.5,-255 511.5,-277 710.5,-277 710.5,-255 511.5,-255"/>
<text text-anchor="start" x="516.5" y="-264.2" font-family="Helvetica,sans-Serif" font-weight="bold" font-size="11.00">artefact_position_owner</text>
<text text-anchor="start" x="668.5" y="-263.2" font-family="Helvetica,sans-Serif" font-size="11.00">[table]</text>
<polygon fill="none" stroke="black" points="511.5,-233 511.5,-255 710.5,-255 710.5,-233 511.5,-233"/>
<image xlink:href="../../images/primaryKeys.png" width="11px" height="12px" preserveAspectRatio="xMinYMin meet" x="516.5" y="-250"/>
<text text-anchor="start" x="539.5" y="-241.2" font-family="Helvetica,sans-Serif" font-size="11.00">artefact_position_id</text>
<polygon fill="#ffffff" stroke="transparent" points="511.5,-211 511.5,-233 710.5,-233 710.5,-211 511.5,-211"/>
<polygon fill="none" stroke="black" points="511.5,-211 511.5,-233 710.5,-233 710.5,-211 511.5,-211"/>
<image xlink:href="../../images/foreignKeys.png" width="11px" height="12px" preserveAspectRatio="xMinYMin meet" x="516.5" y="-228"/>
<text text-anchor="start" x="539.5" y="-219.2" font-family="Helvetica,sans-Serif" font-size="11.00">edition_editor_id</text>
<polygon fill="none" stroke="black" points="511.5,-189 511.5,-211 710.5,-211 710.5,-189 511.5,-189"/>
<image xlink:href="../../images/primaryKeys.png" width="11px" height="12px" preserveAspectRatio="xMinYMin meet" x="516.5" y="-206"/>
<text text-anchor="start" x="539.5" y="-197.2" font-family="Helvetica,sans-Serif" font-size="11.00">edition_id</text>
<polygon fill="#ffffff" stroke="transparent" points="511.5,-171 511.5,-189 595.5,-189 595.5,-171 511.5,-171"/>
<polygon fill="none" stroke="black" points="511.5,-171 511.5,-189 595.5,-189 595.5,-171 511.5,-171"/>
<text text-anchor="start" x="514.5" y="-177.2" font-family="Helvetica,sans-Serif" font-size="11.00">&lt; 3</text>
<polygon fill="#ffffff" stroke="transparent" points="595.5,-171 595.5,-189 667.5,-189 667.5,-171 595.5,-171"/>
<polygon fill="none" stroke="black" points="595.5,-171 595.5,-189 667.5,-189 667.5,-171 595.5,-171"/>
<text text-anchor="start" x="627.5" y="-177.2" font-family="Helvetica,sans-Serif" font-size="11.00">0 rows</text>
<polygon fill="#ffffff" stroke="transparent" points="667.5,-171 667.5,-189 710.5,-189 710.5,-171 667.5,-171"/>
<polygon fill="none" stroke="black" points="667.5,-171 667.5,-189 710.5,-189 710.5,-171 667.5,-171"/>
<text text-anchor="start" x="699.5" y="-177.2" font-family="Helvetica,sans-Serif" font-size="11.00"> &#160;</text>
</a>
</g>
</g>
<!-- artefact_position_owner&#45;&gt;artefact_position -->
<g id="edge2" class="edge">
<title>artefact_position_owner:w&#45;&gt;artefact_position:e</title>
<path fill="none" stroke="black" d="M495.99,-244C484.68,-244 477.49,-244 461.5,-244"/>
<polygon fill="black" stroke="black" points="502.5,-244 510.5,-247.6 506.5,-244 510.5,-244 510.5,-244 510.5,-244 506.5,-244 510.5,-240.4 502.5,-244 502.5,-244"/>
<ellipse fill="none" stroke="black" cx="499.3" cy="-244" rx="3.2" ry="3.2"/>
</g>
</g>
</svg>
