<?xml version="1.0" encoding="UTF-8" standalone="no"?>
<!DOCTYPE svg PUBLIC "-//W3C//DTD SVG 1.1//EN"
 "http://www.w3.org/Graphics/SVG/1.1/DTD/svg11.dtd">
<!-- Generated by graphviz version 2.40.1 (20161225.0304)
 -->
<!-- Title: oneDegreeRelationshipsDiagramImplied Pages: 1 -->
<svg width="684pt" height="486pt"
 viewBox="0.00 0.00 684.00 486.00" xmlns="http://www.w3.org/2000/svg" xmlns:xlink="http://www.w3.org/1999/xlink">
<g id="graph0" class="graph" transform="scale(1 1) rotate(0) translate(4 482)">
<title>oneDegreeRelationshipsDiagramImplied</title>
<polygon fill="#ffffff" stroke="transparent" points="-4,4 -4,-482 680,-482 680,4 -4,4"/>
<text text-anchor="middle" x="71.5" y="-7.2" font-family="Helvetica,sans-Serif" font-size="11.00" fill="#000000">Generated by SchemaSpy</text>
<!-- artefact_position_owner -->
<g id="node1" class="node">
<title>artefact_position_owner</title>
<g id="a_node1"><a xlink:href="../../tables/artefact_position_owner.html" xlink:title="artefact_position_owner" target="_top">
<polygon fill="#ffffff" stroke="transparent" points="399,-133 399,-243 668,-243 668,-133 399,-133"/>
<polygon fill="#f5f5f5" stroke="transparent" points="401.5,-219 401.5,-241 666.5,-241 666.5,-219 401.5,-219"/>
<polygon fill="none" stroke="#000000" points="401.5,-219 401.5,-241 666.5,-241 666.5,-219 401.5,-219"/>
<text text-anchor="start" x="406.5" y="-228.2" font-family="Helvetica,sans-Serif" font-weight="bold" font-size="11.00" fill="#000000">artefact_position_owner</text>
<text text-anchor="start" x="631.5" y="-227.2" font-family="Helvetica,sans-Serif" font-size="11.00" fill="#000000">[table]</text>
<polygon fill="none" stroke="#000000" points="401.5,-197 401.5,-219 584.5,-219 584.5,-197 401.5,-197"/>
<image xlink:href="../../images/primaryKeys.png" width="11px" height="12px" preserveAspectRatio="xMinYMin meet" x="406.5" y="-214"/>
<text text-anchor="start" x="421.5" y="-205.2" font-family="Helvetica,sans-Serif" font-size="11.00" fill="#000000">artefact_position_id</text>
<polygon fill="none" stroke="#000000" points="584.5,-197 584.5,-219 666.5,-219 666.5,-197 584.5,-197"/>
<text text-anchor="start" x="587.5" y="-205.2" font-family="Helvetica,sans-Serif" font-size="11.00" fill="#000000">int unsigned[10]</text>
<polygon fill="#ffffff" stroke="transparent" points="401.5,-175 401.5,-197 584.5,-197 584.5,-175 401.5,-175"/>
<polygon fill="none" stroke="#000000" points="401.5,-175 401.5,-197 584.5,-197 584.5,-175 401.5,-175"/>
<image xlink:href="../../images/foreignKeys.png" width="11px" height="12px" preserveAspectRatio="xMinYMin meet" x="406.5" y="-192"/>
<text text-anchor="start" x="421.5" y="-183.2" font-family="Helvetica,sans-Serif" font-size="11.00" fill="#000000">edition_editor_id</text>
<polygon fill="none" stroke="#000000" points="584.5,-175 584.5,-197 666.5,-197 666.5,-175 584.5,-175"/>
<text text-anchor="start" x="587.5" y="-183.2" font-family="Helvetica,sans-Serif" font-size="11.00" fill="#000000">int unsigned[10]</text>
<polygon fill="none" stroke="#000000" points="401.5,-153 401.5,-175 584.5,-175 584.5,-153 401.5,-153"/>
<image xlink:href="../../images/primaryKeys.png" width="11px" height="12px" preserveAspectRatio="xMinYMin meet" x="406.5" y="-170"/>
<text text-anchor="start" x="421.5" y="-161.2" font-family="Helvetica,sans-Serif" font-size="11.00" fill="#000000">edition_id</text>
<polygon fill="none" stroke="#000000" points="584.5,-153 584.5,-175 666.5,-175 666.5,-153 584.5,-153"/>
<text text-anchor="start" x="587.5" y="-161.2" font-family="Helvetica,sans-Serif" font-size="11.00" fill="#000000">int unsigned[10]</text>
<polygon fill="#ffffff" stroke="transparent" points="401.5,-135 401.5,-153 484.5,-153 484.5,-135 401.5,-135"/>
<polygon fill="none" stroke="#000000" points="401.5,-135 401.5,-153 484.5,-153 484.5,-135 401.5,-135"/>
<text text-anchor="start" x="404.5" y="-141.2" font-family="Helvetica,sans-Serif" font-size="11.00" fill="#000000">&lt; 3</text>
<polygon fill="#ffffff" stroke="transparent" points="484.5,-135 484.5,-153 584.5,-153 584.5,-135 484.5,-135"/>
<polygon fill="none" stroke="#000000" points="484.5,-135 484.5,-153 584.5,-153 584.5,-135 484.5,-135"/>
<text text-anchor="start" x="548.5" y="-141.2" font-family="Helvetica,sans-Serif" font-size="11.00" fill="#000000">0 rows</text>
<polygon fill="#ffffff" stroke="transparent" points="584.5,-135 584.5,-153 666.5,-153 666.5,-135 584.5,-135"/>
<polygon fill="none" stroke="#000000" points="584.5,-135 584.5,-153 666.5,-153 666.5,-135 584.5,-135"/>
<text text-anchor="start" x="647.5" y="-141.2" font-family="Helvetica,sans-Serif" font-size="11.00" fill="#000000">0 &gt;</text>
<polygon fill="none" stroke="#000000" stroke-width="2" points="400,-134 400,-242 667,-242 667,-134 400,-134"/>
</a>
</g>
</g>
<!-- artefact_position -->
<g id="node2" class="node">
<title>artefact_position</title>
<g id="a_node2"><a xlink:href="../../tables/artefact_position.html" xlink:title="artefact_position" target="_top">
<polygon fill="#ffffff" stroke="transparent" points="192,-240 192,-474 350,-474 350,-240 192,-240"/>
<polygon fill="#f5f5f5" stroke="transparent" points="192,-452 192,-474 350,-474 350,-452 192,-452"/>
<polygon fill="none" stroke="#000000" points="192,-452 192,-474 350,-474 350,-452 192,-452"/>
<text text-anchor="start" x="197" y="-461.2" font-family="Helvetica,sans-Serif" font-weight="bold" font-size="11.00" fill="#000000">artefact_position</text>
<text text-anchor="start" x="315" y="-460.2" font-family="Helvetica,sans-Serif" font-size="11.00" fill="#000000">[table]</text>
<polygon fill="none" stroke="#000000" points="192,-430 192,-452 350,-452 350,-430 192,-430"/>
<image xlink:href="../../images/primaryKeys.png" width="11px" height="12px" preserveAspectRatio="xMinYMin meet" x="197" y="-447"/>
<text text-anchor="start" x="212" y="-438.2" font-family="Helvetica,sans-Serif" font-size="11.00" fill="#000000">artefact_position_id</text>
<polygon fill="#ffffff" stroke="transparent" points="192,-408 192,-430 350,-430 350,-408 192,-408"/>
<polygon fill="none" stroke="#000000" points="192,-408 192,-430 350,-430 350,-408 192,-408"/>
<image xlink:href="../../images/foreignKeys.png" width="11px" height="12px" preserveAspectRatio="xMinYMin meet" x="197" y="-425"/>
<text text-anchor="start" x="212" y="-416.2" font-family="Helvetica,sans-Serif" font-size="11.00" fill="#000000">artefact_id</text>
<polygon fill="#ffffff" stroke="transparent" points="192,-386 192,-408 350,-408 350,-386 192,-386"/>
<polygon fill="none" stroke="#000000" points="192,-386 192,-408 350,-408 350,-386 192,-386"/>
<text text-anchor="start" x="212" y="-394.2" font-family="Helvetica,sans-Serif" font-size="11.00" fill="#000000">z_index</text>
<polygon fill="#ffffff" stroke="transparent" points="192,-364 192,-386 350,-386 350,-364 192,-364"/>
<polygon fill="none" stroke="#000000" points="192,-364 192,-386 350,-386 350,-364 192,-364"/>
<text text-anchor="start" x="212" y="-372.2" font-family="Helvetica,sans-Serif" font-size="11.00" fill="#000000">scale</text>
<polygon fill="#ffffff" stroke="transparent" points="192,-342 192,-364 350,-364 350,-342 192,-342"/>
<polygon fill="none" stroke="#000000" points="192,-342 192,-364 350,-364 350,-342 192,-342"/>
<text text-anchor="start" x="212" y="-350.2" font-family="Helvetica,sans-Serif" font-size="11.00" fill="#000000">rotate</text>
<polygon fill="#ffffff" stroke="transparent" points="192,-320 192,-342 350,-342 350,-320 192,-320"/>
<polygon fill="none" stroke="#000000" points="192,-320 192,-342 350,-342 350,-320 192,-320"/>
<text text-anchor="start" x="212" y="-328.2" font-family="Helvetica,sans-Serif" font-size="11.00" fill="#000000">translate_x_non_null</text>
<polygon fill="#ffffff" stroke="transparent" points="192,-298 192,-320 350,-320 350,-298 192,-298"/>
<polygon fill="none" stroke="#000000" points="192,-298 192,-320 350,-320 350,-298 192,-298"/>
<text text-anchor="start" x="212" y="-306.2" font-family="Helvetica,sans-Serif" font-size="11.00" fill="#000000">translate_y_non_null</text>
<polygon fill="#ffffff" stroke="transparent" points="192,-276 192,-298 350,-298 350,-276 192,-276"/>
<polygon fill="none" stroke="#000000" points="192,-276 192,-298 350,-298 350,-276 192,-276"/>
<image xlink:href="../../images/foreignKeys.png" width="11px" height="12px" preserveAspectRatio="xMinYMin meet" x="197" y="-293"/>
<text text-anchor="start" x="212" y="-284.2" font-family="Helvetica,sans-Serif" font-size="11.00" fill="#000000">creator_id</text>
<polygon fill="none" stroke="#000000" points="192,-258 192,-276 350,-276 350,-258 192,-258"/>
<text text-anchor="start" x="195" y="-264.2" font-family="Helvetica,sans-Serif" font-size="11.00" fill="#000000">...</text>
<polygon fill="#ffffff" stroke="transparent" points="192,-240 192,-258 251,-258 251,-240 192,-240"/>
<polygon fill="none" stroke="#000000" points="192,-240 192,-258 251,-258 251,-240 192,-240"/>
<text text-anchor="start" x="195" y="-246.2" font-family="Helvetica,sans-Serif" font-size="11.00" fill="#000000">&lt; 2</text>
<polygon fill="#ffffff" stroke="transparent" points="251,-240 251,-258 309,-258 309,-240 251,-240"/>
<polygon fill="none" stroke="#000000" points="251,-240 251,-258 309,-258 309,-240 251,-240"/>
<text text-anchor="start" x="273" y="-246.2" font-family="Helvetica,sans-Serif" font-size="11.00" fill="#000000">0 rows</text>
<polygon fill="#ffffff" stroke="transparent" points="309,-240 309,-258 350,-258 350,-240 309,-240"/>
<polygon fill="none" stroke="#000000" points="309,-240 309,-258 350,-258 350,-240 309,-240"/>
<text text-anchor="start" x="331" y="-246.2" font-family="Helvetica,sans-Serif" font-size="11.00" fill="#000000">1 &gt;</text>
</a>
</g>
</g>
<!-- artefact_position_owner&#45;&gt;artefact_position -->
<g id="edge1" class="edge">
<title>artefact_position_owner:w&#45;&gt;artefact_position:e</title>
<path fill="none" stroke="#000000" d="M386.8683,-209.8755C311.6428,-231.9263 450.4622,-441 350,-441"/>
<polygon fill="#000000" stroke="#000000" points="393.5649,-209.0172 401.9577,-211.5708 397.5325,-208.5086 401.5,-208 401.5,-208 401.5,-208 397.5325,-208.5086 401.0423,-204.4292 393.5649,-209.0172 393.5649,-209.0172"/>
<ellipse fill="none" stroke="#000000" cx="390.3909" cy="-209.4241" rx="3.2" ry="3.2"/>
</g>
<!-- edition_editor -->
<g id="node3" class="node">
<title>edition_editor</title>
<g id="a_node3"><a xlink:href="../../tables/edition_editor.html" xlink:title="edition_editor" target="_top">
<polygon fill="#ffffff" stroke="transparent" points="204.5,-95 204.5,-219 337.5,-219 337.5,-95 204.5,-95"/>
<polygon fill="#f5f5f5" stroke="transparent" points="205,-197 205,-219 338,-219 338,-197 205,-197"/>
<polygon fill="none" stroke="#000000" points="205,-197 205,-219 338,-219 338,-197 205,-197"/>
<text text-anchor="start" x="210" y="-206.2" font-family="Helvetica,sans-Serif" font-weight="bold" font-size="11.00" fill="#000000">edition_editor</text>
<text text-anchor="start" x="303" y="-205.2" font-family="Helvetica,sans-Serif" font-size="11.00" fill="#000000">[table]</text>
<polygon fill="none" stroke="#000000" points="205,-175 205,-197 338,-197 338,-175 205,-175"/>
<image xlink:href="../../images/primaryKeys.png" width="11px" height="12px" preserveAspectRatio="xMinYMin meet" x="210" y="-192"/>
<text text-anchor="start" x="225" y="-183.2" font-family="Helvetica,sans-Serif" font-size="11.00" fill="#000000">edition_editor_id</text>
<polygon fill="#ffffff" stroke="transparent" points="205,-153 205,-175 338,-175 338,-153 205,-153"/>
<polygon fill="none" stroke="#000000" points="205,-153 205,-175 338,-175 338,-153 205,-153"/>
<image xlink:href="../../images/foreignKeys.png" width="11px" height="12px" preserveAspectRatio="xMinYMin meet" x="210" y="-170"/>
<text text-anchor="start" x="225" y="-161.2" font-family="Helvetica,sans-Serif" font-size="11.00" fill="#000000">user_id</text>
<polygon fill="#ffffff" stroke="transparent" points="205,-131 205,-153 338,-153 338,-131 205,-131"/>
<polygon fill="none" stroke="#000000" points="205,-131 205,-153 338,-153 338,-131 205,-131"/>
<image xlink:href="../../images/foreignKeys.png" width="11px" height="12px" preserveAspectRatio="xMinYMin meet" x="210" y="-148"/>
<text text-anchor="start" x="225" y="-139.2" font-family="Helvetica,sans-Serif" font-size="11.00" fill="#000000">edition_id</text>
<polygon fill="none" stroke="#000000" points="205,-113 205,-131 338,-131 338,-113 205,-113"/>
<text text-anchor="start" x="208" y="-119.2" font-family="Helvetica,sans-Serif" font-size="11.00" fill="#000000">...</text>
<polygon fill="#ffffff" stroke="transparent" points="205,-95 205,-113 238,-113 238,-95 205,-95"/>
<polygon fill="none" stroke="#000000" points="205,-95 205,-113 238,-113 238,-95 205,-95"/>
<text text-anchor="start" x="208" y="-101.2" font-family="Helvetica,sans-Serif" font-size="11.00" fill="#000000">&lt; 2</text>
<polygon fill="#ffffff" stroke="transparent" points="238,-95 238,-113 304,-113 304,-95 238,-95"/>
<polygon fill="none" stroke="#000000" points="238,-95 238,-113 304,-113 304,-95 238,-95"/>
<text text-anchor="start" x="247" y="-101.2" font-family="Helvetica,sans-Serif" font-size="11.00" fill="#000000">1,645 rows</text>
<polygon fill="#ffffff" stroke="transparent" points="304,-95 304,-113 338,-113 338,-95 304,-95"/>
<polygon fill="none" stroke="#000000" points="304,-95 304,-113 338,-113 338,-95 304,-95"/>
<text text-anchor="start" x="313" y="-101.2" font-family="Helvetica,sans-Serif" font-size="11.00" fill="#000000">30 &gt;</text>
</a>
</g>
</g>
<!-- artefact_position_owner&#45;&gt;edition_editor -->
<g id="edge2" class="edge">
<title>artefact_position_owner:w&#45;&gt;edition_editor:e</title>
<path fill="none" stroke="#000000" d="M387.0705,-186C369.7143,-186 360.7101,-186 338,-186"/>
<polygon fill="#000000" stroke="#000000" points="393.5,-186.0001 401.5,-189.6 397.5,-186 401.5,-186 401.5,-186 401.5,-186 397.5,-186 401.5,-182.4 393.5,-186.0001 393.5,-186.0001"/>
<ellipse fill="none" stroke="#000000" cx="390.3" cy="-186.0001" rx="3.2" ry="3.2"/>
</g>
<!-- edition -->
<g id="node4" class="node">
<title>edition</title>
<g id="a_node4"><a xlink:href="../../tables/edition.html" xlink:title="edition" target="_top">
<polygon fill="#ffffff" stroke="transparent" points="8,-37 8,-139 143,-139 143,-37 8,-37"/>
<polygon fill="#f5f5f5" stroke="transparent" points="8.5,-117 8.5,-139 143.5,-139 143.5,-117 8.5,-117"/>
<polygon fill="none" stroke="#000000" points="8.5,-117 8.5,-139 143.5,-139 143.5,-117 8.5,-117"/>
<text text-anchor="start" x="13.5" y="-126.2" font-family="Helvetica,sans-Serif" font-weight="bold" font-size="11.00" fill="#000000">edition</text>
<text text-anchor="start" x="108.5" y="-125.2" font-family="Helvetica,sans-Serif" font-size="11.00" fill="#000000">[table]</text>
<polygon fill="none" stroke="#000000" points="8.5,-95 8.5,-117 143.5,-117 143.5,-95 8.5,-95"/>
<image xlink:href="../../images/primaryKeys.png" width="11px" height="12px" preserveAspectRatio="xMinYMin meet" x="13.5" y="-112"/>
<text text-anchor="start" x="28.5" y="-103.2" font-family="Helvetica,sans-Serif" font-size="11.00" fill="#000000">edition_id</text>
<polygon fill="#ffffff" stroke="transparent" points="8.5,-73 8.5,-95 143.5,-95 143.5,-73 8.5,-73"/>
<polygon fill="none" stroke="#000000" points="8.5,-73 8.5,-95 143.5,-95 143.5,-73 8.5,-73"/>
<image xlink:href="../../images/foreignKeys.png" width="11px" height="12px" preserveAspectRatio="xMinYMin meet" x="13.5" y="-90"/>
<text text-anchor="start" x="28.5" y="-81.2" font-family="Helvetica,sans-Serif" font-size="11.00" fill="#000000">manuscript_id</text>
<polygon fill="none" stroke="#000000" points="8.5,-55 8.5,-73 143.5,-73 143.5,-55 8.5,-55"/>
<text text-anchor="start" x="11.5" y="-61.2" font-family="Helvetica,sans-Serif" font-size="11.00" fill="#000000">...</text>
<polygon fill="#ffffff" stroke="transparent" points="8.5,-37 8.5,-55 42.5,-55 42.5,-37 8.5,-37"/>
<polygon fill="none" stroke="#000000" points="8.5,-37 8.5,-55 42.5,-55 42.5,-37 8.5,-37"/>
<text text-anchor="start" x="11.5" y="-43.2" font-family="Helvetica,sans-Serif" font-size="11.00" fill="#000000">&lt; 1</text>
<polygon fill="#ffffff" stroke="transparent" points="42.5,-37 42.5,-55 108.5,-55 108.5,-37 42.5,-37"/>
<polygon fill="none" stroke="#000000" points="42.5,-37 42.5,-55 108.5,-55 108.5,-37 42.5,-37"/>
<text text-anchor="start" x="51.5" y="-43.2" font-family="Helvetica,sans-Serif" font-size="11.00" fill="#000000">1,645 rows</text>
<polygon fill="#ffffff" stroke="transparent" points="108.5,-37 108.5,-55 143.5,-55 143.5,-37 108.5,-37"/>
<polygon fill="none" stroke="#000000" points="108.5,-37 108.5,-55 143.5,-55 143.5,-37 108.5,-37"/>
<text text-anchor="start" x="118.5" y="-43.2" font-family="Helvetica,sans-Serif" font-size="11.00" fill="#000000">32 &gt;</text>
</a>
</g>
</g>
<!-- artefact_position_owner&#45;&gt;edition -->
<g id="edge3" class="edge">
<title>artefact_position_owner:w&#45;&gt;edition:e</title>
<path fill="none" stroke="#000000" d="M387.4026,-160.0768C369.5319,-146.6179 387.1154,-102.2056 358,-85 291.4227,-45.6566 259.1319,-66.6795 184,-85 164.3013,-89.8034 163.7759,-106 143.5,-106"/>
<polygon fill="#000000" stroke="#000000" points="393.7929,-161.8551 400.5348,-167.4682 397.6464,-162.9276 401.5,-164 401.5,-164 401.5,-164 397.6464,-162.9276 402.4652,-160.5318 393.7929,-161.8551 393.7929,-161.8551"/>
<ellipse fill="none" stroke="#000000" cx="390.71" cy="-160.9972" rx="3.2" ry="3.2"/>
</g>
<!-- edition_editor&#45;&gt;edition -->
<g id="edge4" class="edge">
<title>edition_editor:w&#45;&gt;edition:e</title>
<path fill="none" stroke="#000000" d="M190.7844,-138.9307C172.9086,-130.2249 169.4809,-106 143.5,-106"/>
<polygon fill="#000000" stroke="#000000" points="197.1802,-140.3116 204.2402,-145.5189 201.0901,-141.1558 205,-142 205,-142 205,-142 201.0901,-141.1558 205.7598,-138.4811 197.1802,-140.3116 197.1802,-140.3116"/>
<ellipse fill="none" stroke="#000000" cx="194.0523" cy="-139.6362" rx="3.2" ry="3.2"/>
</g>
</g>
</svg>
