<?xml version="1.0" encoding="UTF-8" standalone="no"?>
<!DOCTYPE svg PUBLIC "-//W3C//DTD SVG 1.1//EN"
 "http://www.w3.org/Graphics/SVG/1.1/DTD/svg11.dtd">
<!-- Generated by graphviz version 2.40.1 (20161225.0304)
 -->
<!-- Title: oneDegreeRelationshipsDiagramImplied Pages: 1 -->
<svg width="752pt" height="238pt"
 viewBox="0.00 0.00 752.00 238.00" xmlns="http://www.w3.org/2000/svg" xmlns:xlink="http://www.w3.org/1999/xlink">
<g id="graph0" class="graph" transform="scale(1 1) rotate(0) translate(4 234)">
<title>oneDegreeRelationshipsDiagramImplied</title>
<polygon fill="#ffffff" stroke="transparent" points="-4,4 -4,-234 748,-234 748,4 -4,4"/>
<text text-anchor="middle" x="71.5" y="-7.2" font-family="Helvetica,sans-Serif" font-size="11.00" fill="#000000">Generated by SchemaSpy</text>
<!-- artefact_group_data -->
<g id="node1" class="node">
<title>artefact_group_data</title>
<g id="a_node1"><a xlink:href="../../tables/artefact_group_data.html" xlink:title="artefact_group_data" target="_top">
<polygon fill="#ffffff" stroke="transparent" points="220,-94 220,-226 482,-226 482,-94 220,-94"/>
<polygon fill="#f5f5f5" stroke="transparent" points="222,-202 222,-224 480,-224 480,-202 222,-202"/>
<polygon fill="none" stroke="#000000" points="222,-202 222,-224 480,-224 480,-202 222,-202"/>
<text text-anchor="start" x="227" y="-211.2" font-family="Helvetica,sans-Serif" font-weight="bold" font-size="11.00" fill="#000000">artefact_group_data</text>
<text text-anchor="start" x="445" y="-210.2" font-family="Helvetica,sans-Serif" font-size="11.00" fill="#000000">[table]</text>
<polygon fill="none" stroke="#000000" points="222,-180 222,-202 398,-202 398,-180 222,-180"/>
<image xlink:href="../../images/primaryKeys.png" width="11px" height="12px" preserveAspectRatio="xMinYMin meet" x="227" y="-197"/>
<text text-anchor="start" x="242" y="-188.2" font-family="Helvetica,sans-Serif" font-size="11.00" fill="#000000">artefact_group_data_id</text>
<polygon fill="none" stroke="#000000" points="398,-180 398,-202 480,-202 480,-180 398,-180"/>
<text text-anchor="start" x="401" y="-188.2" font-family="Helvetica,sans-Serif" font-size="11.00" fill="#000000">int unsigned[10]</text>
<polygon fill="#ffffff" stroke="transparent" points="222,-158 222,-180 398,-180 398,-158 222,-158"/>
<polygon fill="none" stroke="#000000" points="222,-158 222,-180 398,-180 398,-158 222,-158"/>
<image xlink:href="../../images/foreignKeys.png" width="11px" height="12px" preserveAspectRatio="xMinYMin meet" x="227" y="-175"/>
<text text-anchor="start" x="242" y="-166.2" font-family="Helvetica,sans-Serif" font-size="11.00" fill="#000000">artefact_group_id</text>
<polygon fill="none" stroke="#000000" points="398,-158 398,-180 480,-180 480,-158 398,-158"/>
<text text-anchor="start" x="401" y="-166.2" font-family="Helvetica,sans-Serif" font-size="11.00" fill="#000000">int unsigned[10]</text>
<polygon fill="none" stroke="#000000" points="222,-136 222,-158 398,-158 398,-136 222,-136"/>
<text text-anchor="start" x="242" y="-144.2" font-family="Helvetica,sans-Serif" font-size="11.00" fill="#000000">name</text>
<polygon fill="none" stroke="#000000" points="398,-136 398,-158 480,-158 480,-136 398,-136"/>
<text text-anchor="start" x="401" y="-144.2" font-family="Helvetica,sans-Serif" font-size="11.00" fill="#000000">varchar[255]</text>
<polygon fill="#ffffff" stroke="transparent" points="222,-114 222,-136 398,-136 398,-114 222,-114"/>
<polygon fill="none" stroke="#000000" points="222,-114 222,-136 398,-136 398,-114 222,-114"/>
<image xlink:href="../../images/foreignKeys.png" width="11px" height="12px" preserveAspectRatio="xMinYMin meet" x="227" y="-131"/>
<text text-anchor="start" x="242" y="-122.2" font-family="Helvetica,sans-Serif" font-size="11.00" fill="#000000">creator_id</text>
<polygon fill="none" stroke="#000000" points="398,-114 398,-136 480,-136 480,-114 398,-114"/>
<text text-anchor="start" x="401" y="-122.2" font-family="Helvetica,sans-Serif" font-size="11.00" fill="#000000">int unsigned[10]</text>
<polygon fill="#ffffff" stroke="transparent" points="222,-96 222,-114 301,-114 301,-96 222,-96"/>
<polygon fill="none" stroke="#000000" points="222,-96 222,-114 301,-114 301,-96 222,-96"/>
<text text-anchor="start" x="225" y="-102.2" font-family="Helvetica,sans-Serif" font-size="11.00" fill="#000000">&lt; 2</text>
<polygon fill="#ffffff" stroke="transparent" points="301,-96 301,-114 398,-114 398,-96 301,-96"/>
<polygon fill="none" stroke="#000000" points="301,-96 301,-114 398,-114 398,-96 301,-96"/>
<text text-anchor="start" x="362" y="-102.2" font-family="Helvetica,sans-Serif" font-size="11.00" fill="#000000">0 rows</text>
<polygon fill="#ffffff" stroke="transparent" points="398,-96 398,-114 480,-114 480,-96 398,-96"/>
<polygon fill="none" stroke="#000000" points="398,-96 398,-114 480,-114 480,-96 398,-96"/>
<text text-anchor="start" x="461" y="-102.2" font-family="Helvetica,sans-Serif" font-size="11.00" fill="#000000">1 &gt;</text>
<polygon fill="none" stroke="#000000" stroke-width="2" points="221,-95 221,-225 481,-225 481,-95 221,-95"/>
</a>
</g>
</g>
<!-- artefact_group -->
<g id="node2" class="node">
<title>artefact_group</title>
<g id="a_node2"><a xlink:href="../../tables/artefact_group.html" xlink:title="artefact_group" target="_top">
<polygon fill="#ffffff" stroke="transparent" points="20,-160 20,-222 159,-222 159,-160 20,-160"/>
<polygon fill="#f5f5f5" stroke="transparent" points="20.5,-200 20.5,-222 159.5,-222 159.5,-200 20.5,-200"/>
<polygon fill="none" stroke="#000000" points="20.5,-200 20.5,-222 159.5,-222 159.5,-200 20.5,-200"/>
<text text-anchor="start" x="25.5" y="-209.2" font-family="Helvetica,sans-Serif" font-weight="bold" font-size="11.00" fill="#000000">artefact_group</text>
<text text-anchor="start" x="124.5" y="-208.2" font-family="Helvetica,sans-Serif" font-size="11.00" fill="#000000">[table]</text>
<polygon fill="none" stroke="#000000" points="20.5,-178 20.5,-200 159.5,-200 159.5,-178 20.5,-178"/>
<image xlink:href="../../images/primaryKeys.png" width="11px" height="12px" preserveAspectRatio="xMinYMin meet" x="25.5" y="-195"/>
<text text-anchor="start" x="40.5" y="-186.2" font-family="Helvetica,sans-Serif" font-size="11.00" fill="#000000">artefact_group_id</text>
<polygon fill="#ffffff" stroke="transparent" points="20.5,-160 20.5,-178 65.5,-178 65.5,-160 20.5,-160"/>
<polygon fill="none" stroke="#000000" points="20.5,-160 20.5,-178 65.5,-178 65.5,-160 20.5,-160"/>
<text text-anchor="start" x="23.5" y="-166.2" font-family="Helvetica,sans-Serif" font-size="11.00" fill="#000000"> &#160;</text>
<polygon fill="#ffffff" stroke="transparent" points="65.5,-160 65.5,-178 120.5,-178 120.5,-160 65.5,-160"/>
<polygon fill="none" stroke="#000000" points="65.5,-160 65.5,-178 120.5,-178 120.5,-160 65.5,-160"/>
<text text-anchor="start" x="84.5" y="-166.2" font-family="Helvetica,sans-Serif" font-size="11.00" fill="#000000">0 rows</text>
<polygon fill="#ffffff" stroke="transparent" points="120.5,-160 120.5,-178 159.5,-178 159.5,-160 120.5,-160"/>
<polygon fill="none" stroke="#000000" points="120.5,-160 120.5,-178 159.5,-178 159.5,-160 120.5,-160"/>
<text text-anchor="start" x="140.5" y="-166.2" font-family="Helvetica,sans-Serif" font-size="11.00" fill="#000000">2 &gt;</text>
</a>
</g>
</g>
<!-- artefact_group_data&#45;&gt;artefact_group -->
<g id="edge1" class="edge">
<title>artefact_group_data:w&#45;&gt;artefact_group:e</title>
<path fill="none" stroke="#000000" d="M207.399,-170.9908C190.2525,-176.0496 182.969,-189 159.5,-189"/>
<polygon fill="#000000" stroke="#000000" points="214.0733,-170.0808 222.4864,-172.567 218.0367,-169.5404 222,-169 222,-169 222,-169 218.0367,-169.5404 221.5136,-165.433 214.0733,-170.0808 214.0733,-170.0808"/>
<ellipse fill="none" stroke="#000000" cx="210.9027" cy="-170.5131" rx="3.2" ry="3.2"/>
</g>
<!-- user -->
<g id="node3" class="node">
<title>user</title>
<g id="a_node3"><a xlink:href="../../tables/user.html" xlink:title="user" target="_top">
<polygon fill="#ffffff" stroke="transparent" points="8,-37 8,-139 171,-139 171,-37 8,-37"/>
<polygon fill="#f5f5f5" stroke="transparent" points="8.5,-117 8.5,-139 171.5,-139 171.5,-117 8.5,-117"/>
<polygon fill="none" stroke="#000000" points="8.5,-117 8.5,-139 171.5,-139 171.5,-117 8.5,-117"/>
<text text-anchor="start" x="13.5" y="-126.2" font-family="Helvetica,sans-Serif" font-weight="bold" font-size="11.00" fill="#000000">user</text>
<text text-anchor="start" x="136.5" y="-125.2" font-family="Helvetica,sans-Serif" font-size="11.00" fill="#000000">[table]</text>
<polygon fill="none" stroke="#000000" points="8.5,-95 8.5,-117 171.5,-117 171.5,-95 8.5,-95"/>
<image xlink:href="../../images/primaryKeys.png" width="11px" height="12px" preserveAspectRatio="xMinYMin meet" x="13.5" y="-112"/>
<text text-anchor="start" x="28.5" y="-103.2" font-family="Helvetica,sans-Serif" font-size="11.00" fill="#000000">user_id</text>
<polygon fill="#ffffff" stroke="transparent" points="8.5,-73 8.5,-95 171.5,-95 171.5,-73 8.5,-73"/>
<polygon fill="none" stroke="#000000" points="8.5,-73 8.5,-95 171.5,-95 171.5,-73 8.5,-73"/>
<text text-anchor="start" x="28.5" y="-81.2" font-family="Helvetica,sans-Serif" font-size="11.00" fill="#000000">email</text>
<polygon fill="none" stroke="#000000" points="8.5,-55 8.5,-73 171.5,-73 171.5,-55 8.5,-55"/>
<text text-anchor="start" x="11.5" y="-61.2" font-family="Helvetica,sans-Serif" font-size="11.00" fill="#000000">...</text>
<polygon fill="#ffffff" stroke="transparent" points="8.5,-37 8.5,-55 62.5,-55 62.5,-37 8.5,-37"/>
<polygon fill="none" stroke="#000000" points="8.5,-37 8.5,-55 62.5,-55 62.5,-37 8.5,-37"/>
<text text-anchor="start" x="11.5" y="-43.2" font-family="Helvetica,sans-Serif" font-size="11.00" fill="#000000"> &#160;</text>
<polygon fill="#ffffff" stroke="transparent" points="62.5,-37 62.5,-55 122.5,-55 122.5,-37 62.5,-37"/>
<polygon fill="none" stroke="#000000" points="62.5,-37 62.5,-55 122.5,-55 122.5,-37 62.5,-37"/>
<text text-anchor="start" x="86.5" y="-43.2" font-family="Helvetica,sans-Serif" font-size="11.00" fill="#000000">3 rows</text>
<polygon fill="#ffffff" stroke="transparent" points="122.5,-37 122.5,-55 171.5,-55 171.5,-37 122.5,-37"/>
<polygon fill="none" stroke="#000000" points="122.5,-37 122.5,-55 171.5,-55 171.5,-37 122.5,-37"/>
<text text-anchor="start" x="146.5" y="-43.2" font-family="Helvetica,sans-Serif" font-size="11.00" fill="#000000">40 &gt;</text>
</a>
</g>
</g>
<!-- artefact_group_data&#45;&gt;user -->
<g id="edge2" class="edge">
<title>artefact_group_data:w&#45;&gt;user:e</title>
<path fill="none" stroke="#000000" d="M207.7405,-122.1965C195.532,-116.9113 189.6727,-106 171.5,-106"/>
<polygon fill="#000000" stroke="#000000" points="214.1503,-123.4567 221.3055,-128.5324 218.0751,-124.2283 222,-125 222,-125 222,-125 218.0751,-124.2283 222.6945,-121.4676 214.1503,-123.4567 214.1503,-123.4567"/>
<ellipse fill="none" stroke="#000000" cx="211.0104" cy="-122.8393" rx="3.2" ry="3.2"/>
</g>
<!-- artefact_group_data_owner -->
<g id="node4" class="node">
<title>artefact_group_data_owner</title>
<g id="a_node4"><a xlink:href="../../tables/artefact_group_data_owner.html" xlink:title="artefact_group_data_owner" target="_top">
<polygon fill="#ffffff" stroke="transparent" points="531,-118 531,-224 736,-224 736,-118 531,-118"/>
<polygon fill="#f5f5f5" stroke="transparent" points="531.5,-202 531.5,-224 736.5,-224 736.5,-202 531.5,-202"/>
<polygon fill="none" stroke="#000000" points="531.5,-202 531.5,-224 736.5,-224 736.5,-202 531.5,-202"/>
<text text-anchor="start" x="536.5" y="-211.2" font-family="Helvetica,sans-Serif" font-weight="bold" font-size="11.00" fill="#000000">artefact_group_data_owner</text>
<text text-anchor="start" x="701.5" y="-210.2" font-family="Helvetica,sans-Serif" font-size="11.00" fill="#000000">[table]</text>
<polygon fill="none" stroke="#000000" points="531.5,-180 531.5,-202 736.5,-202 736.5,-180 531.5,-180"/>
<image xlink:href="../../images/primaryKeys.png" width="11px" height="12px" preserveAspectRatio="xMinYMin meet" x="536.5" y="-197"/>
<text text-anchor="start" x="551.5" y="-188.2" font-family="Helvetica,sans-Serif" font-size="11.00" fill="#000000">artefact_group_data_id</text>
<polygon fill="none" stroke="#000000" points="531.5,-158 531.5,-180 736.5,-180 736.5,-158 531.5,-158"/>
<image xlink:href="../../images/primaryKeys.png" width="11px" height="12px" preserveAspectRatio="xMinYMin meet" x="536.5" y="-175"/>
<text text-anchor="start" x="551.5" y="-166.2" font-family="Helvetica,sans-Serif" font-size="11.00" fill="#000000">edition_id</text>
<polygon fill="#ffffff" stroke="transparent" points="531.5,-136 531.5,-158 736.5,-158 736.5,-136 531.5,-136"/>
<polygon fill="none" stroke="#000000" points="531.5,-136 531.5,-158 736.5,-158 736.5,-136 531.5,-136"/>
<image xlink:href="../../images/foreignKeys.png" width="11px" height="12px" preserveAspectRatio="xMinYMin meet" x="536.5" y="-153"/>
<text text-anchor="start" x="551.5" y="-144.2" font-family="Helvetica,sans-Serif" font-size="11.00" fill="#000000">edition_editor_id</text>
<polygon fill="#ffffff" stroke="transparent" points="531.5,-118 531.5,-136 618.5,-136 618.5,-118 531.5,-118"/>
<polygon fill="none" stroke="#000000" points="531.5,-118 531.5,-136 618.5,-136 618.5,-118 531.5,-118"/>
<text text-anchor="start" x="534.5" y="-124.2" font-family="Helvetica,sans-Serif" font-size="11.00" fill="#000000">&lt; 3</text>
<polygon fill="#ffffff" stroke="transparent" points="618.5,-118 618.5,-136 690.5,-136 690.5,-118 618.5,-118"/>
<polygon fill="none" stroke="#000000" points="618.5,-118 618.5,-136 690.5,-136 690.5,-118 618.5,-118"/>
<text text-anchor="start" x="654.5" y="-124.2" font-family="Helvetica,sans-Serif" font-size="11.00" fill="#000000">0 rows</text>
<polygon fill="#ffffff" stroke="transparent" points="690.5,-118 690.5,-136 736.5,-136 736.5,-118 690.5,-118"/>
<polygon fill="none" stroke="#000000" points="690.5,-118 690.5,-136 736.5,-136 736.5,-118 690.5,-118"/>
<text text-anchor="start" x="726.5" y="-124.2" font-family="Helvetica,sans-Serif" font-size="11.00" fill="#000000"> &#160;</text>
</a>
</g>
</g>
<!-- artefact_group_data_owner&#45;&gt;artefact_group_data -->
<g id="edge3" class="edge">
<title>artefact_group_data_owner:w&#45;&gt;artefact_group_data:e</title>
<path fill="none" stroke="#000000" d="M517.0156,-191C504.6771,-191 497.1667,-191 480,-191"/>
<polygon fill="#000000" stroke="#000000" points="523.5,-191.0001 531.5,-194.6 527.5,-191 531.5,-191 531.5,-191 531.5,-191 527.5,-191 531.5,-187.4 523.5,-191.0001 523.5,-191.0001"/>
<ellipse fill="none" stroke="#000000" cx="520.3" cy="-191.0001" rx="3.2" ry="3.2"/>
</g>
</g>
</svg>
