<?xml version="1.0" encoding="UTF-8" standalone="no"?>
<!DOCTYPE svg PUBLIC "-//W3C//DTD SVG 1.1//EN"
 "http://www.w3.org/Graphics/SVG/1.1/DTD/svg11.dtd">
<!-- Generated by graphviz version 2.40.1 (20161225.0304)
 -->
<!-- Title: oneDegreeRelationshipsDiagram Pages: 1 -->
<svg width="635pt" height="380pt"
 viewBox="0.00 0.00 635.00 380.00" xmlns="http://www.w3.org/2000/svg" xmlns:xlink="http://www.w3.org/1999/xlink">
<g id="graph0" class="graph" transform="scale(1 1) rotate(0) translate(4 376)">
<title>oneDegreeRelationshipsDiagram</title>
<polygon fill="#ffffff" stroke="transparent" points="-4,4 -4,-376 631,-376 631,4 -4,4"/>
<text text-anchor="middle" x="71.5" y="-7.2" font-family="Helvetica,sans-Serif" font-size="11.00" fill="#000000">Generated by SchemaSpy</text>
<!-- artefact_data_owner -->
<g id="node1" class="node">
<title>artefact_data_owner</title>
<g id="a_node1"><a xlink:href="../../tables/artefact_data_owner.html" xlink:title="artefact_data_owner" target="_top">
<polygon fill="#ffffff" stroke="transparent" points="374,-133 374,-243 619,-243 619,-133 374,-133"/>
<polygon fill="#f5f5f5" stroke="transparent" points="376.5,-219 376.5,-241 617.5,-241 617.5,-219 376.5,-219"/>
<polygon fill="none" stroke="#000000" points="376.5,-219 376.5,-241 617.5,-241 617.5,-219 376.5,-219"/>
<text text-anchor="start" x="381.5" y="-228.2" font-family="Helvetica,sans-Serif" font-weight="bold" font-size="11.00" fill="#000000">artefact_data_owner</text>
<text text-anchor="start" x="582.5" y="-227.2" font-family="Helvetica,sans-Serif" font-size="11.00" fill="#000000">[table]</text>
<polygon fill="none" stroke="#000000" points="376.5,-197 376.5,-219 535.5,-219 535.5,-197 376.5,-197"/>
<image xlink:href="../../images/primaryKeys.png" width="11px" height="12px" preserveAspectRatio="xMinYMin meet" x="381.5" y="-214"/>
<text text-anchor="start" x="396.5" y="-205.2" font-family="Helvetica,sans-Serif" font-size="11.00" fill="#000000">artefact_data_id</text>
<polygon fill="none" stroke="#000000" points="535.5,-197 535.5,-219 617.5,-219 617.5,-197 535.5,-197"/>
<text text-anchor="start" x="538.5" y="-205.2" font-family="Helvetica,sans-Serif" font-size="11.00" fill="#000000">int unsigned[10]</text>
<polygon fill="#ffffff" stroke="transparent" points="376.5,-175 376.5,-197 535.5,-197 535.5,-175 376.5,-175"/>
<polygon fill="none" stroke="#000000" points="376.5,-175 376.5,-197 535.5,-197 535.5,-175 376.5,-175"/>
<image xlink:href="../../images/foreignKeys.png" width="11px" height="12px" preserveAspectRatio="xMinYMin meet" x="381.5" y="-192"/>
<text text-anchor="start" x="396.5" y="-183.2" font-family="Helvetica,sans-Serif" font-size="11.00" fill="#000000">edition_editor_id</text>
<polygon fill="none" stroke="#000000" points="535.5,-175 535.5,-197 617.5,-197 617.5,-175 535.5,-175"/>
<text text-anchor="start" x="538.5" y="-183.2" font-family="Helvetica,sans-Serif" font-size="11.00" fill="#000000">int unsigned[10]</text>
<polygon fill="none" stroke="#000000" points="376.5,-153 376.5,-175 535.5,-175 535.5,-153 376.5,-153"/>
<image xlink:href="../../images/primaryKeys.png" width="11px" height="12px" preserveAspectRatio="xMinYMin meet" x="381.5" y="-170"/>
<text text-anchor="start" x="396.5" y="-161.2" font-family="Helvetica,sans-Serif" font-size="11.00" fill="#000000">edition_id</text>
<polygon fill="none" stroke="#000000" points="535.5,-153 535.5,-175 617.5,-175 617.5,-153 535.5,-153"/>
<text text-anchor="start" x="538.5" y="-161.2" font-family="Helvetica,sans-Serif" font-size="11.00" fill="#000000">int unsigned[10]</text>
<polygon fill="#ffffff" stroke="transparent" points="376.5,-135 376.5,-153 433.5,-153 433.5,-135 376.5,-135"/>
<polygon fill="none" stroke="#000000" points="376.5,-135 376.5,-153 433.5,-153 433.5,-135 376.5,-135"/>
<text text-anchor="start" x="379.5" y="-141.2" font-family="Helvetica,sans-Serif" font-size="11.00" fill="#000000">&lt; 3</text>
<polygon fill="#ffffff" stroke="transparent" points="433.5,-135 433.5,-153 535.5,-153 535.5,-135 433.5,-135"/>
<polygon fill="none" stroke="#000000" points="433.5,-135 433.5,-153 535.5,-153 535.5,-135 433.5,-135"/>
<text text-anchor="start" x="472.5" y="-141.2" font-family="Helvetica,sans-Serif" font-size="11.00" fill="#000000">26,365 rows</text>
<polygon fill="#ffffff" stroke="transparent" points="535.5,-135 535.5,-153 617.5,-153 617.5,-135 535.5,-135"/>
<polygon fill="none" stroke="#000000" points="535.5,-135 535.5,-153 617.5,-153 617.5,-135 535.5,-135"/>
<text text-anchor="start" x="598.5" y="-141.2" font-family="Helvetica,sans-Serif" font-size="11.00" fill="#000000">0 &gt;</text>
<polygon fill="none" stroke="#000000" stroke-width="2" points="375,-134 375,-242 618,-242 618,-134 375,-134"/>
</a>
</g>
</g>
<!-- artefact_data -->
<g id="node2" class="node">
<title>artefact_data</title>
<g id="a_node2"><a xlink:href="../../tables/artefact_data.html" xlink:title="artefact_data" target="_top">
<polygon fill="#ffffff" stroke="transparent" points="193.5,-240 193.5,-368 323.5,-368 323.5,-240 193.5,-240"/>
<polygon fill="#f5f5f5" stroke="transparent" points="193.5,-346 193.5,-368 323.5,-368 323.5,-346 193.5,-346"/>
<polygon fill="none" stroke="#000000" points="193.5,-346 193.5,-368 323.5,-368 323.5,-346 193.5,-346"/>
<text text-anchor="start" x="198.5" y="-355.2" font-family="Helvetica,sans-Serif" font-weight="bold" font-size="11.00" fill="#000000">artefact_data</text>
<text text-anchor="start" x="288.5" y="-354.2" font-family="Helvetica,sans-Serif" font-size="11.00" fill="#000000">[table]</text>
<polygon fill="none" stroke="#000000" points="193.5,-324 193.5,-346 323.5,-346 323.5,-324 193.5,-324"/>
<image xlink:href="../../images/primaryKeys.png" width="11px" height="12px" preserveAspectRatio="xMinYMin meet" x="198.5" y="-341"/>
<text text-anchor="start" x="213.5" y="-332.2" font-family="Helvetica,sans-Serif" font-size="11.00" fill="#000000">artefact_data_id</text>
<polygon fill="#ffffff" stroke="transparent" points="193.5,-302 193.5,-324 323.5,-324 323.5,-302 193.5,-302"/>
<polygon fill="none" stroke="#000000" points="193.5,-302 193.5,-324 323.5,-324 323.5,-302 193.5,-302"/>
<image xlink:href="../../images/foreignKeys.png" width="11px" height="12px" preserveAspectRatio="xMinYMin meet" x="198.5" y="-319"/>
<text text-anchor="start" x="213.5" y="-310.2" font-family="Helvetica,sans-Serif" font-size="11.00" fill="#000000">artefact_id</text>
<polygon fill="#ffffff" stroke="transparent" points="193.5,-280 193.5,-302 323.5,-302 323.5,-280 193.5,-280"/>
<polygon fill="none" stroke="#000000" points="193.5,-280 193.5,-302 323.5,-302 323.5,-280 193.5,-280"/>
<text text-anchor="start" x="213.5" y="-288.2" font-family="Helvetica,sans-Serif" font-size="11.00" fill="#000000">name</text>
<polygon fill="#ffffff" stroke="transparent" points="193.5,-258 193.5,-280 323.5,-280 323.5,-258 193.5,-258"/>
<polygon fill="none" stroke="#000000" points="193.5,-258 193.5,-280 323.5,-280 323.5,-258 193.5,-258"/>
<image xlink:href="../../images/foreignKeys.png" width="11px" height="12px" preserveAspectRatio="xMinYMin meet" x="198.5" y="-275"/>
<text text-anchor="start" x="213.5" y="-266.2" font-family="Helvetica,sans-Serif" font-size="11.00" fill="#000000">creator_id</text>
<polygon fill="#ffffff" stroke="transparent" points="193.5,-240 193.5,-258 225.5,-258 225.5,-240 193.5,-240"/>
<polygon fill="none" stroke="#000000" points="193.5,-240 193.5,-258 225.5,-258 225.5,-240 193.5,-240"/>
<text text-anchor="start" x="196.5" y="-246.2" font-family="Helvetica,sans-Serif" font-size="11.00" fill="#000000">&lt; 2</text>
<polygon fill="#ffffff" stroke="transparent" points="225.5,-240 225.5,-258 296.5,-258 296.5,-240 225.5,-240"/>
<polygon fill="none" stroke="#000000" points="225.5,-240 225.5,-258 296.5,-258 296.5,-240 225.5,-240"/>
<text text-anchor="start" x="233.5" y="-246.2" font-family="Helvetica,sans-Serif" font-size="11.00" fill="#000000">25,575 rows</text>
<polygon fill="#ffffff" stroke="transparent" points="296.5,-240 296.5,-258 323.5,-258 323.5,-240 296.5,-240"/>
<polygon fill="none" stroke="#000000" points="296.5,-240 296.5,-258 323.5,-258 323.5,-240 296.5,-240"/>
<text text-anchor="start" x="304.5" y="-246.2" font-family="Helvetica,sans-Serif" font-size="11.00" fill="#000000">1 &gt;</text>
</a>
</g>
</g>
<!-- artefact_data_owner&#45;&gt;artefact_data -->
<g id="edge1" class="edge">
<title>artefact_data_owner:w&#45;&gt;artefact_data:e</title>
<path fill="none" stroke="#000000" d="M362.0715,-211.3969C327.6332,-231.5935 378.6895,-335 323.5,-335"/>
<polygon fill="#000000" stroke="#000000" points="368.7129,-209.8334 377.325,-211.5042 372.6065,-208.9167 376.5,-208 376.5,-208 376.5,-208 372.6065,-208.9167 375.675,-204.4958 368.7129,-209.8334 368.7129,-209.8334"/>
<ellipse fill="none" stroke="#000000" cx="365.5981" cy="-210.5667" rx="3.2" ry="3.2"/>
</g>
<!-- edition_editor -->
<g id="node3" class="node">
<title>edition_editor</title>
<g id="a_node3"><a xlink:href="../../tables/edition_editor.html" xlink:title="edition_editor" target="_top">
<polygon fill="#ffffff" stroke="transparent" points="192,-95 192,-219 325,-219 325,-95 192,-95"/>
<polygon fill="#f5f5f5" stroke="transparent" points="192.5,-197 192.5,-219 325.5,-219 325.5,-197 192.5,-197"/>
<polygon fill="none" stroke="#000000" points="192.5,-197 192.5,-219 325.5,-219 325.5,-197 192.5,-197"/>
<text text-anchor="start" x="197.5" y="-206.2" font-family="Helvetica,sans-Serif" font-weight="bold" font-size="11.00" fill="#000000">edition_editor</text>
<text text-anchor="start" x="290.5" y="-205.2" font-family="Helvetica,sans-Serif" font-size="11.00" fill="#000000">[table]</text>
<polygon fill="none" stroke="#000000" points="192.5,-175 192.5,-197 325.5,-197 325.5,-175 192.5,-175"/>
<image xlink:href="../../images/primaryKeys.png" width="11px" height="12px" preserveAspectRatio="xMinYMin meet" x="197.5" y="-192"/>
<text text-anchor="start" x="212.5" y="-183.2" font-family="Helvetica,sans-Serif" font-size="11.00" fill="#000000">edition_editor_id</text>
<polygon fill="#ffffff" stroke="transparent" points="192.5,-153 192.5,-175 325.5,-175 325.5,-153 192.5,-153"/>
<polygon fill="none" stroke="#000000" points="192.5,-153 192.5,-175 325.5,-175 325.5,-153 192.5,-153"/>
<image xlink:href="../../images/foreignKeys.png" width="11px" height="12px" preserveAspectRatio="xMinYMin meet" x="197.5" y="-170"/>
<text text-anchor="start" x="212.5" y="-161.2" font-family="Helvetica,sans-Serif" font-size="11.00" fill="#000000">user_id</text>
<polygon fill="#ffffff" stroke="transparent" points="192.5,-131 192.5,-153 325.5,-153 325.5,-131 192.5,-131"/>
<polygon fill="none" stroke="#000000" points="192.5,-131 192.5,-153 325.5,-153 325.5,-131 192.5,-131"/>
<image xlink:href="../../images/foreignKeys.png" width="11px" height="12px" preserveAspectRatio="xMinYMin meet" x="197.5" y="-148"/>
<text text-anchor="start" x="212.5" y="-139.2" font-family="Helvetica,sans-Serif" font-size="11.00" fill="#000000">edition_id</text>
<polygon fill="none" stroke="#000000" points="192.5,-113 192.5,-131 325.5,-131 325.5,-113 192.5,-113"/>
<text text-anchor="start" x="195.5" y="-119.2" font-family="Helvetica,sans-Serif" font-size="11.00" fill="#000000">...</text>
<polygon fill="#ffffff" stroke="transparent" points="192.5,-95 192.5,-113 225.5,-113 225.5,-95 192.5,-95"/>
<polygon fill="none" stroke="#000000" points="192.5,-95 192.5,-113 225.5,-113 225.5,-95 192.5,-95"/>
<text text-anchor="start" x="195.5" y="-101.2" font-family="Helvetica,sans-Serif" font-size="11.00" fill="#000000">&lt; 2</text>
<polygon fill="#ffffff" stroke="transparent" points="225.5,-95 225.5,-113 291.5,-113 291.5,-95 225.5,-95"/>
<polygon fill="none" stroke="#000000" points="225.5,-95 225.5,-113 291.5,-113 291.5,-95 225.5,-95"/>
<text text-anchor="start" x="234.5" y="-101.2" font-family="Helvetica,sans-Serif" font-size="11.00" fill="#000000">1,645 rows</text>
<polygon fill="#ffffff" stroke="transparent" points="291.5,-95 291.5,-113 325.5,-113 325.5,-95 291.5,-95"/>
<polygon fill="none" stroke="#000000" points="291.5,-95 291.5,-113 325.5,-113 325.5,-95 291.5,-95"/>
<text text-anchor="start" x="300.5" y="-101.2" font-family="Helvetica,sans-Serif" font-size="11.00" fill="#000000">30 &gt;</text>
</a>
</g>
</g>
<!-- artefact_data_owner&#45;&gt;edition_editor -->
<g id="edge2" class="edge">
<title>artefact_data_owner:w&#45;&gt;edition_editor:e</title>
<path fill="none" stroke="#000000" d="M361.776,-186C349.7815,-186 342.3229,-186 325.5,-186"/>
<polygon fill="#000000" stroke="#000000" points="368.5,-186.0001 376.5,-189.6 372.5,-186 376.5,-186 376.5,-186 376.5,-186 372.5,-186 376.5,-182.4 368.5,-186.0001 368.5,-186.0001"/>
<ellipse fill="none" stroke="#000000" cx="365.3" cy="-186.0001" rx="3.2" ry="3.2"/>
</g>
<!-- edition -->
<g id="node4" class="node">
<title>edition</title>
<g id="a_node4"><a xlink:href="../../tables/edition.html" xlink:title="edition" target="_top">
<polygon fill="#ffffff" stroke="transparent" points="8,-37 8,-139 143,-139 143,-37 8,-37"/>
<polygon fill="#f5f5f5" stroke="transparent" points="8.5,-117 8.5,-139 143.5,-139 143.5,-117 8.5,-117"/>
<polygon fill="none" stroke="#000000" points="8.5,-117 8.5,-139 143.5,-139 143.5,-117 8.5,-117"/>
<text text-anchor="start" x="13.5" y="-126.2" font-family="Helvetica,sans-Serif" font-weight="bold" font-size="11.00" fill="#000000">edition</text>
<text text-anchor="start" x="108.5" y="-125.2" font-family="Helvetica,sans-Serif" font-size="11.00" fill="#000000">[table]</text>
<polygon fill="none" stroke="#000000" points="8.5,-95 8.5,-117 143.5,-117 143.5,-95 8.5,-95"/>
<image xlink:href="../../images/primaryKeys.png" width="11px" height="12px" preserveAspectRatio="xMinYMin meet" x="13.5" y="-112"/>
<text text-anchor="start" x="28.5" y="-103.2" font-family="Helvetica,sans-Serif" font-size="11.00" fill="#000000">edition_id</text>
<polygon fill="#ffffff" stroke="transparent" points="8.5,-73 8.5,-95 143.5,-95 143.5,-73 8.5,-73"/>
<polygon fill="none" stroke="#000000" points="8.5,-73 8.5,-95 143.5,-95 143.5,-73 8.5,-73"/>
<image xlink:href="../../images/foreignKeys.png" width="11px" height="12px" preserveAspectRatio="xMinYMin meet" x="13.5" y="-90"/>
<text text-anchor="start" x="28.5" y="-81.2" font-family="Helvetica,sans-Serif" font-size="11.00" fill="#000000">manuscript_id</text>
<polygon fill="none" stroke="#000000" points="8.5,-55 8.5,-73 143.5,-73 143.5,-55 8.5,-55"/>
<text text-anchor="start" x="11.5" y="-61.2" font-family="Helvetica,sans-Serif" font-size="11.00" fill="#000000">...</text>
<polygon fill="#ffffff" stroke="transparent" points="8.5,-37 8.5,-55 42.5,-55 42.5,-37 8.5,-37"/>
<polygon fill="none" stroke="#000000" points="8.5,-37 8.5,-55 42.5,-55 42.5,-37 8.5,-37"/>
<text text-anchor="start" x="11.5" y="-43.2" font-family="Helvetica,sans-Serif" font-size="11.00" fill="#000000">&lt; 1</text>
<polygon fill="#ffffff" stroke="transparent" points="42.5,-37 42.5,-55 108.5,-55 108.5,-37 42.5,-37"/>
<polygon fill="none" stroke="#000000" points="42.5,-37 42.5,-55 108.5,-55 108.5,-37 42.5,-37"/>
<text text-anchor="start" x="51.5" y="-43.2" font-family="Helvetica,sans-Serif" font-size="11.00" fill="#000000">1,645 rows</text>
<polygon fill="#ffffff" stroke="transparent" points="108.5,-37 108.5,-55 143.5,-55 143.5,-37 108.5,-37"/>
<polygon fill="none" stroke="#000000" points="108.5,-37 108.5,-55 143.5,-55 143.5,-37 108.5,-37"/>
<text text-anchor="start" x="118.5" y="-43.2" font-family="Helvetica,sans-Serif" font-size="11.00" fill="#000000">32 &gt;</text>
</a>
</g>
</g>
<!-- artefact_data_owner&#45;&gt;edition -->
<g id="edge3" class="edge">
<title>artefact_data_owner:w&#45;&gt;edition:e</title>
<path fill="none" stroke="#000000" d="M362.4026,-160.0768C344.5319,-146.6179 362.1154,-102.2056 333,-85 275.9884,-51.3094 248.3371,-69.3118 184,-85 164.3013,-89.8034 163.7759,-106 143.5,-106"/>
<polygon fill="#000000" stroke="#000000" points="368.7929,-161.8551 375.5348,-167.4682 372.6464,-162.9276 376.5,-164 376.5,-164 376.5,-164 372.6464,-162.9276 377.4652,-160.5318 368.7929,-161.8551 368.7929,-161.8551"/>
<ellipse fill="none" stroke="#000000" cx="365.71" cy="-160.9972" rx="3.2" ry="3.2"/>
</g>
<!-- edition_editor&#45;&gt;edition -->
<g id="edge4" class="edge">
<title>edition_editor:w&#45;&gt;edition:e</title>
<path fill="none" stroke="#000000" d="M178.6983,-137.5857C166.1499,-127.9727 164.6121,-106 143.5,-106"/>
<polygon fill="#000000" stroke="#000000" points="184.8802,-139.5629 191.4033,-145.4289 188.6901,-140.7814 192.5,-142 192.5,-142 192.5,-142 188.6901,-140.7814 193.5967,-138.5711 184.8802,-139.5629 184.8802,-139.5629"/>
<ellipse fill="none" stroke="#000000" cx="181.8323" cy="-138.588" rx="3.2" ry="3.2"/>
</g>
</g>
</svg>
