<?xml version="1.0" encoding="UTF-8" standalone="no"?>
<!DOCTYPE svg PUBLIC "-//W3C//DTD SVG 1.1//EN"
 "http://www.w3.org/Graphics/SVG/1.1/DTD/svg11.dtd">
<!-- Generated by graphviz version 2.43.0 (0)
 -->
<!-- Title: twoDegreesRelationshipsDiagram Pages: 1 -->
<svg width="657pt" height="737pt"
 viewBox="0.00 0.00 657.00 737.00" xmlns="http://www.w3.org/2000/svg" xmlns:xlink="http://www.w3.org/1999/xlink">
<g id="graph0" class="graph" transform="scale(1 1) rotate(0) translate(4 733)">
<title>twoDegreesRelationshipsDiagram</title>
<polygon fill="#ffffff" stroke="transparent" points="-4,4 -4,-733 653,-733 653,4 -4,4"/>
<text text-anchor="middle" x="79.5" y="-7.2" font-family="Helvetica,sans-Serif" font-size="11.00">Generated by SchemaSpy</text>
<!-- artefact_data -->
<g id="node1" class="node">
<title>artefact_data</title>
<g id="a_node1"><a xlink:href="../../tables/artefact_data.html" xlink:title="artefact_data" target="_top">
<polygon fill="#ffffff" stroke="transparent" points="183,-141 183,-251 414,-251 414,-141 183,-141"/>
<polygon fill="#f5f5f5" stroke="transparent" points="185.5,-227 185.5,-249 412.5,-249 412.5,-227 185.5,-227"/>
<polygon fill="none" stroke="black" points="185.5,-227 185.5,-249 412.5,-249 412.5,-227 185.5,-227"/>
<text text-anchor="start" x="190.5" y="-236.2" font-family="Helvetica,sans-Serif" font-weight="bold" font-size="11.00">artefact_data</text>
<text text-anchor="start" x="370.5" y="-235.2" font-family="Helvetica,sans-Serif" font-size="11.00">[table]</text>
<polygon fill="none" stroke="black" points="185.5,-205 185.5,-227 315.5,-227 315.5,-205 185.5,-205"/>
<image xlink:href="../../images/primaryKeys.png" width="11px" height="12px" preserveAspectRatio="xMinYMin meet" x="190.5" y="-222"/>
<text text-anchor="start" x="205.5" y="-213.2" font-family="Helvetica,sans-Serif" font-size="11.00">artefact_data_id</text>
<polygon fill="none" stroke="black" points="315.5,-205 315.5,-227 412.5,-227 412.5,-205 315.5,-205"/>
<text text-anchor="start" x="318.5" y="-213.2" font-family="Helvetica,sans-Serif" font-size="11.00">int unsigned[10]</text>
<polygon fill="#ffffff" stroke="transparent" points="185.5,-183 185.5,-205 315.5,-205 315.5,-183 185.5,-183"/>
<polygon fill="none" stroke="black" points="185.5,-183 185.5,-205 315.5,-205 315.5,-183 185.5,-183"/>
<image xlink:href="../../images/foreignKeys.png" width="11px" height="12px" preserveAspectRatio="xMinYMin meet" x="190.5" y="-200"/>
<text text-anchor="start" x="205.5" y="-191.2" font-family="Helvetica,sans-Serif" font-size="11.00">artefact_id</text>
<polygon fill="none" stroke="black" points="315.5,-183 315.5,-205 412.5,-205 412.5,-183 315.5,-183"/>
<text text-anchor="start" x="318.5" y="-191.2" font-family="Helvetica,sans-Serif" font-size="11.00">int unsigned[10]</text>
<polygon fill="#ffffff" stroke="transparent" points="185.5,-161 185.5,-183 315.5,-183 315.5,-161 185.5,-161"/>
<polygon fill="none" stroke="black" points="185.5,-161 185.5,-183 315.5,-183 315.5,-161 185.5,-161"/>
<text text-anchor="start" x="205.5" y="-169.2" font-family="Helvetica,sans-Serif" font-size="11.00">name</text>
<polygon fill="none" stroke="black" points="315.5,-161 315.5,-183 412.5,-183 412.5,-161 315.5,-161"/>
<text text-anchor="start" x="318.5" y="-169.2" font-family="Helvetica,sans-Serif" font-size="11.00">varchar[255]</text>
<polygon fill="#ffffff" stroke="transparent" points="185.5,-143 185.5,-161 226.5,-161 226.5,-143 185.5,-143"/>
<polygon fill="none" stroke="black" points="185.5,-143 185.5,-161 226.5,-161 226.5,-143 185.5,-143"/>
<text text-anchor="start" x="188.5" y="-149.2" font-family="Helvetica,sans-Serif" font-size="11.00">&lt; 1</text>
<polygon fill="#ffffff" stroke="transparent" points="226.5,-143 226.5,-161 315.5,-161 315.5,-143 226.5,-143"/>
<polygon fill="none" stroke="black" points="226.5,-143 226.5,-161 315.5,-161 315.5,-143 226.5,-143"/>
<text text-anchor="start" x="244.5" y="-149.2" font-family="Helvetica,sans-Serif" font-size="11.00">26,649 rows</text>
<polygon fill="#ffffff" stroke="transparent" points="315.5,-143 315.5,-161 412.5,-161 412.5,-143 315.5,-143"/>
<polygon fill="none" stroke="black" points="315.5,-143 315.5,-161 412.5,-161 412.5,-143 315.5,-143"/>
<text text-anchor="start" x="389.5" y="-149.2" font-family="Helvetica,sans-Serif" font-size="11.00">1 &gt;</text>
<polygon fill="none" stroke="black" stroke-width="2" points="184,-142 184,-250 413,-250 413,-142 184,-142"/>
</a>
</g>
</g>
<!-- artefact -->
<g id="node2" class="node">
<title>artefact</title>
<g id="a_node2"><a xlink:href="../../tables/artefact.html" xlink:title="artefact" target="_top">
<polygon fill="#ffffff" stroke="transparent" points="14,-428 14,-490 128,-490 128,-428 14,-428"/>
<polygon fill="#f5f5f5" stroke="transparent" points="14,-468 14,-490 128,-490 128,-468 14,-468"/>
<polygon fill="none" stroke="black" points="14,-468 14,-490 128,-490 128,-468 14,-468"/>
<text text-anchor="start" x="19" y="-477.2" font-family="Helvetica,sans-Serif" font-weight="bold" font-size="11.00">artefact</text>
<text text-anchor="start" x="86" y="-476.2" font-family="Helvetica,sans-Serif" font-size="11.00">[table]</text>
<polygon fill="none" stroke="black" points="14,-446 14,-468 128,-468 128,-446 14,-446"/>
<image xlink:href="../../images/primaryKeys.png" width="11px" height="12px" preserveAspectRatio="xMinYMin meet" x="19" y="-463"/>
<text text-anchor="start" x="45" y="-454.2" font-family="Helvetica,sans-Serif" font-size="11.00">artefact_id</text>
<polygon fill="#ffffff" stroke="transparent" points="14,-428 14,-446 28,-446 28,-428 14,-428"/>
<polygon fill="none" stroke="black" points="14,-428 14,-446 28,-446 28,-428 14,-428"/>
<text text-anchor="start" x="17" y="-434.2" font-family="Helvetica,sans-Serif" font-size="11.00"> &#160;</text>
<polygon fill="#ffffff" stroke="transparent" points="28,-428 28,-446 102,-446 102,-428 28,-428"/>
<polygon fill="none" stroke="black" points="28,-428 28,-446 102,-446 102,-428 28,-428"/>
<text text-anchor="start" x="31" y="-434.2" font-family="Helvetica,sans-Serif" font-size="11.00">26,982 rows</text>
<polygon fill="#ffffff" stroke="transparent" points="102,-428 102,-446 128,-446 128,-428 102,-428"/>
<polygon fill="none" stroke="black" points="102,-428 102,-446 128,-446 128,-428 102,-428"/>
<text text-anchor="start" x="105" y="-434.2" font-family="Helvetica,sans-Serif" font-size="11.00">8 &gt;</text>
</a>
</g>
</g>
<!-- artefact_data&#45;&gt;artefact -->
<g id="edge1" class="edge">
<title>artefact_data:w&#45;&gt;artefact:e</title>
<path fill="none" stroke="black" d="M170.18,-195.54C80.91,-217.1 243.1,-457 129,-457"/>
<polygon fill="black" stroke="black" points="176.55,-194.86 184.89,-197.58 180.52,-194.43 184.5,-194 184.5,-194 184.5,-194 180.52,-194.43 184.11,-190.42 176.55,-194.86 176.55,-194.86"/>
<ellipse fill="none" stroke="black" cx="173.36" cy="-195.2" rx="3.2" ry="3.2"/>
</g>
<!-- artefact_data_owner -->
<g id="node3" class="node">
<title>artefact_data_owner</title>
<g id="a_node3"><a xlink:href="../../tables/artefact_data_owner.html" xlink:title="artefact_data_owner" target="_top">
<polygon fill="#ffffff" stroke="transparent" points="463,-38 463,-144 641,-144 641,-38 463,-38"/>
<polygon fill="#f5f5f5" stroke="transparent" points="463,-122 463,-144 641,-144 641,-122 463,-122"/>
<polygon fill="none" stroke="black" points="463,-122 463,-144 641,-144 641,-122 463,-122"/>
<text text-anchor="start" x="468" y="-131.2" font-family="Helvetica,sans-Serif" font-weight="bold" font-size="11.00">artefact_data_owner</text>
<text text-anchor="start" x="599" y="-130.2" font-family="Helvetica,sans-Serif" font-size="11.00">[table]</text>
<polygon fill="none" stroke="black" points="463,-100 463,-122 641,-122 641,-100 463,-100"/>
<image xlink:href="../../images/primaryKeys.png" width="11px" height="12px" preserveAspectRatio="xMinYMin meet" x="468" y="-117"/>
<text text-anchor="start" x="493" y="-108.2" font-family="Helvetica,sans-Serif" font-size="11.00">artefact_data_id</text>
<polygon fill="#ffffff" stroke="transparent" points="463,-78 463,-100 641,-100 641,-78 463,-78"/>
<polygon fill="none" stroke="black" points="463,-78 463,-100 641,-100 641,-78 463,-78"/>
<image xlink:href="../../images/foreignKeys.png" width="11px" height="12px" preserveAspectRatio="xMinYMin meet" x="468" y="-95"/>
<text text-anchor="start" x="493" y="-86.2" font-family="Helvetica,sans-Serif" font-size="11.00">edition_editor_id</text>
<polygon fill="none" stroke="black" points="463,-56 463,-78 641,-78 641,-56 463,-56"/>
<image xlink:href="../../images/primaryKeys.png" width="11px" height="12px" preserveAspectRatio="xMinYMin meet" x="468" y="-73"/>
<text text-anchor="start" x="493" y="-64.2" font-family="Helvetica,sans-Serif" font-size="11.00">edition_id</text>
<polygon fill="#ffffff" stroke="transparent" points="463,-38 463,-56 521,-56 521,-38 463,-38"/>
<polygon fill="none" stroke="black" points="463,-38 463,-56 521,-56 521,-38 463,-38"/>
<text text-anchor="start" x="466" y="-44.2" font-family="Helvetica,sans-Serif" font-size="11.00">&lt; 3</text>
<polygon fill="#ffffff" stroke="transparent" points="521,-38 521,-56 611,-56 611,-38 521,-38"/>
<polygon fill="none" stroke="black" points="521,-38 521,-56 611,-56 611,-38 521,-38"/>
<text text-anchor="start" x="540" y="-44.2" font-family="Helvetica,sans-Serif" font-size="11.00">28,192 rows</text>
<polygon fill="#ffffff" stroke="transparent" points="611,-38 611,-56 641,-56 641,-38 611,-38"/>
<polygon fill="none" stroke="black" points="611,-38 611,-56 641,-56 641,-38 611,-38"/>
<text text-anchor="start" x="630" y="-44.2" font-family="Helvetica,sans-Serif" font-size="11.00"> &#160;</text>
</a>
</g>
</g>
<!-- artefact_data_owner&#45;&gt;artefact_data -->
<g id="edge2" class="edge">
<title>artefact_data_owner:w&#45;&gt;artefact_data:e</title>
<path fill="none" stroke="black" d="M447.94,-114.99C421.87,-134.17 458.88,-216 413.5,-216"/>
<polygon fill="black" stroke="black" points="454.3,-113.18 462.98,-114.46 458.15,-112.09 462,-111 462,-111 462,-111 458.15,-112.09 461.02,-107.54 454.3,-113.18 454.3,-113.18"/>
<ellipse fill="none" stroke="black" cx="451.23" cy="-114.06" rx="3.2" ry="3.2"/>
</g>
<!-- edition_editor -->
<g id="node4" class="node">
<title>edition_editor</title>
<g id="a_node4"><a xlink:href="../../tables/edition_editor.html" xlink:title="edition_editor" target="_top">
<polygon fill="#ffffff" stroke="transparent" points="230.5,-62 230.5,-120 366.5,-120 366.5,-62 230.5,-62"/>
<polygon fill="#f5f5f5" stroke="transparent" points="230.5,-98 230.5,-120 366.5,-120 366.5,-98 230.5,-98"/>
<polygon fill="none" stroke="black" points="230.5,-98 230.5,-120 366.5,-120 366.5,-98 230.5,-98"/>
<text text-anchor="start" x="235.5" y="-107.2" font-family="Helvetica,sans-Serif" font-weight="bold" font-size="11.00">edition_editor</text>
<text text-anchor="start" x="324.5" y="-106.2" font-family="Helvetica,sans-Serif" font-size="11.00">[table]</text>
<polygon fill="none" stroke="black" points="230.5,-80 230.5,-98 366.5,-98 366.5,-80 230.5,-80"/>
<text text-anchor="start" x="233.5" y="-86.2" font-family="Helvetica,sans-Serif" font-size="11.00">...</text>
<polygon fill="#ffffff" stroke="transparent" points="230.5,-62 230.5,-80 261.5,-80 261.5,-62 230.5,-62"/>
<polygon fill="none" stroke="black" points="230.5,-62 230.5,-80 261.5,-80 261.5,-62 230.5,-62"/>
<text text-anchor="start" x="233.5" y="-68.2" font-family="Helvetica,sans-Serif" font-size="11.00">&lt; 2</text>
<polygon fill="#ffffff" stroke="transparent" points="261.5,-62 261.5,-80 330.5,-80 330.5,-62 261.5,-62"/>
<polygon fill="none" stroke="black" points="261.5,-62 261.5,-80 330.5,-80 330.5,-62 261.5,-62"/>
<text text-anchor="start" x="266.5" y="-68.2" font-family="Helvetica,sans-Serif" font-size="11.00">1,645 rows</text>
<polygon fill="#ffffff" stroke="transparent" points="330.5,-62 330.5,-80 366.5,-80 366.5,-62 330.5,-62"/>
<polygon fill="none" stroke="black" points="330.5,-62 330.5,-80 366.5,-80 366.5,-62 330.5,-62"/>
<text text-anchor="start" x="336.5" y="-68.2" font-family="Helvetica,sans-Serif" font-size="11.00">33 &gt;</text>
</a>
</g>
</g>
<!-- artefact_data_owner&#45;&gt;edition_editor -->
<g id="edge3" class="edge">
<title>artefact_data_owner:w&#45;&gt;edition_editor:e</title>
<path fill="none" stroke="black" d="M447.19,-89C416.77,-89 404.09,-89 367.5,-89"/>
<polygon fill="black" stroke="black" points="454,-89 462,-92.6 458,-89 462,-89 462,-89 462,-89 458,-89 462,-85.4 454,-89 454,-89"/>
<ellipse fill="none" stroke="black" cx="450.8" cy="-89" rx="3.2" ry="3.2"/>
</g>
<!-- edition -->
<g id="node5" class="node">
<title>edition</title>
<g id="a_node5"><a xlink:href="../../tables/edition.html" xlink:title="edition" target="_top">
<polygon fill="#ffffff" stroke="transparent" points="8,-37 8,-95 134,-95 134,-37 8,-37"/>
<polygon fill="#f5f5f5" stroke="transparent" points="8,-73 8,-95 134,-95 134,-73 8,-73"/>
<polygon fill="none" stroke="black" points="8,-73 8,-95 134,-95 134,-73 8,-73"/>
<text text-anchor="start" x="13" y="-82.2" font-family="Helvetica,sans-Serif" font-weight="bold" font-size="11.00">edition</text>
<text text-anchor="start" x="92" y="-81.2" font-family="Helvetica,sans-Serif" font-size="11.00">[table]</text>
<polygon fill="none" stroke="black" points="8,-55 8,-73 134,-73 134,-55 8,-55"/>
<text text-anchor="start" x="11" y="-61.2" font-family="Helvetica,sans-Serif" font-size="11.00">...</text>
<polygon fill="#ffffff" stroke="transparent" points="8,-37 8,-55 34,-55 34,-37 8,-37"/>
<polygon fill="none" stroke="black" points="8,-37 8,-55 34,-55 34,-37 8,-37"/>
<text text-anchor="start" x="11" y="-43.2" font-family="Helvetica,sans-Serif" font-size="11.00">&lt; 1</text>
<polygon fill="#ffffff" stroke="transparent" points="34,-37 34,-55 101,-55 101,-37 34,-37"/>
<polygon fill="none" stroke="black" points="34,-37 34,-55 101,-55 101,-37 34,-37"/>
<text text-anchor="start" x="37" y="-43.2" font-family="Helvetica,sans-Serif" font-size="11.00">1,645 rows</text>
<polygon fill="#ffffff" stroke="transparent" points="101,-37 101,-55 134,-55 134,-37 101,-37"/>
<polygon fill="none" stroke="black" points="101,-37 101,-55 134,-55 134,-37 101,-37"/>
<text text-anchor="start" x="104" y="-43.2" font-family="Helvetica,sans-Serif" font-size="11.00">35 &gt;</text>
</a>
</g>
</g>
<!-- artefact_data_owner&#45;&gt;edition -->
<g id="edge4" class="edge">
<title>artefact_data_owner:w&#45;&gt;edition:e</title>
<path fill="none" stroke="black" d="M447.75,-63.88C439.82,-59.97 434.78,-53.46 422,-51 314.2,-30.24 283.43,-33.82 175,-51 156.54,-53.92 153.69,-64 135,-64"/>
<polygon fill="black" stroke="black" points="454.18,-65.29 461.23,-70.52 458.09,-66.15 462,-67 462,-67 462,-67 458.09,-66.15 462.77,-63.48 454.18,-65.29 454.18,-65.29"/>
<ellipse fill="none" stroke="black" cx="451.06" cy="-64.61" rx="3.2" ry="3.2"/>
</g>
<!-- edition_editor&#45;&gt;edition -->
<g id="edge11" class="edge">
<title>edition_editor:w&#45;&gt;edition:e</title>
<path fill="none" stroke="black" d="M214.75,-87.93C183.59,-83.14 173.01,-64 135,-64"/>
<polygon fill="black" stroke="black" points="221.52,-88.42 229.24,-92.59 225.51,-88.71 229.5,-89 229.5,-89 229.5,-89 225.51,-88.71 229.76,-85.41 221.52,-88.42 221.52,-88.42"/>
<ellipse fill="none" stroke="black" cx="218.33" cy="-88.19" rx="3.2" ry="3.2"/>
</g>
<!-- artefact_group_member -->
<g id="node6" class="node">
<title>artefact_group_member</title>
<g id="a_node6"><a xlink:href="../../tables/artefact_group_member.html" xlink:title="artefact_group_member" target="_top">
<polygon fill="#ffffff" stroke="transparent" points="200,-667 200,-725 397,-725 397,-667 200,-667"/>
<polygon fill="#f5f5f5" stroke="transparent" points="200.5,-703 200.5,-725 397.5,-725 397.5,-703 200.5,-703"/>
<polygon fill="none" stroke="black" points="200.5,-703 200.5,-725 397.5,-725 397.5,-703 200.5,-703"/>
<text text-anchor="start" x="205.5" y="-712.2" font-family="Helvetica,sans-Serif" font-weight="bold" font-size="11.00">artefact_group_member</text>
<text text-anchor="start" x="355.5" y="-711.2" font-family="Helvetica,sans-Serif" font-size="11.00">[table]</text>
<polygon fill="none" stroke="black" points="200.5,-685 200.5,-703 397.5,-703 397.5,-685 200.5,-685"/>
<text text-anchor="start" x="203.5" y="-691.2" font-family="Helvetica,sans-Serif" font-size="11.00">...</text>
<polygon fill="#ffffff" stroke="transparent" points="200.5,-667 200.5,-685 277.5,-685 277.5,-667 200.5,-667"/>
<polygon fill="none" stroke="black" points="200.5,-667 200.5,-685 277.5,-685 277.5,-667 200.5,-667"/>
<text text-anchor="start" x="203.5" y="-673.2" font-family="Helvetica,sans-Serif" font-size="11.00">&lt; 2</text>
<polygon fill="#ffffff" stroke="transparent" points="277.5,-667 277.5,-685 345.5,-685 345.5,-667 277.5,-667"/>
<polygon fill="none" stroke="black" points="277.5,-667 277.5,-685 345.5,-685 345.5,-667 277.5,-667"/>
<text text-anchor="start" x="305.5" y="-673.2" font-family="Helvetica,sans-Serif" font-size="11.00">0 rows</text>
<polygon fill="#ffffff" stroke="transparent" points="345.5,-667 345.5,-685 397.5,-685 397.5,-667 345.5,-667"/>
<polygon fill="none" stroke="black" points="345.5,-667 345.5,-685 397.5,-685 397.5,-667 345.5,-667"/>
<text text-anchor="start" x="374.5" y="-673.2" font-family="Helvetica,sans-Serif" font-size="11.00">1 &gt;</text>
</a>
</g>
</g>
<!-- artefact_group_member&#45;&gt;artefact -->
<g id="edge5" class="edge">
<title>artefact_group_member:w&#45;&gt;artefact:e</title>
<path fill="none" stroke="black" d="M184.94,-692.29C103.83,-670.98 233.42,-457 129,-457"/>
<polygon fill="black" stroke="black" points="191.55,-693.07 199.08,-697.58 195.53,-693.53 199.5,-694 199.5,-694 199.5,-694 195.53,-693.53 199.92,-690.42 191.55,-693.07 191.55,-693.07"/>
<ellipse fill="none" stroke="black" cx="188.38" cy="-692.7" rx="3.2" ry="3.2"/>
</g>
<!-- artefact_position -->
<g id="node7" class="node">
<title>artefact_position</title>
<g id="a_node7"><a xlink:href="../../tables/artefact_position.html" xlink:title="artefact_position" target="_top">
<polygon fill="#ffffff" stroke="transparent" points="220.5,-588 220.5,-646 376.5,-646 376.5,-588 220.5,-588"/>
<polygon fill="#f5f5f5" stroke="transparent" points="220.5,-624 220.5,-646 376.5,-646 376.5,-624 220.5,-624"/>
<polygon fill="none" stroke="black" points="220.5,-624 220.5,-646 376.5,-646 376.5,-624 220.5,-624"/>
<text text-anchor="start" x="225.5" y="-633.2" font-family="Helvetica,sans-Serif" font-weight="bold" font-size="11.00">artefact_position</text>
<text text-anchor="start" x="334.5" y="-632.2" font-family="Helvetica,sans-Serif" font-size="11.00">[table]</text>
<polygon fill="none" stroke="black" points="220.5,-606 220.5,-624 376.5,-624 376.5,-606 220.5,-606"/>
<text text-anchor="start" x="223.5" y="-612.2" font-family="Helvetica,sans-Serif" font-size="11.00">...</text>
<polygon fill="#ffffff" stroke="transparent" points="220.5,-588 220.5,-606 276.5,-606 276.5,-588 220.5,-588"/>
<polygon fill="none" stroke="black" points="220.5,-588 220.5,-606 276.5,-606 276.5,-588 220.5,-588"/>
<text text-anchor="start" x="223.5" y="-594.2" font-family="Helvetica,sans-Serif" font-size="11.00">&lt; 1</text>
<polygon fill="#ffffff" stroke="transparent" points="276.5,-588 276.5,-606 334.5,-606 334.5,-588 276.5,-588"/>
<polygon fill="none" stroke="black" points="276.5,-588 276.5,-606 334.5,-606 334.5,-588 276.5,-588"/>
<text text-anchor="start" x="294.5" y="-594.2" font-family="Helvetica,sans-Serif" font-size="11.00">0 rows</text>
<polygon fill="#ffffff" stroke="transparent" points="334.5,-588 334.5,-606 376.5,-606 376.5,-588 334.5,-588"/>
<polygon fill="none" stroke="black" points="334.5,-588 334.5,-606 376.5,-606 376.5,-588 334.5,-588"/>
<text text-anchor="start" x="353.5" y="-594.2" font-family="Helvetica,sans-Serif" font-size="11.00">1 &gt;</text>
</a>
</g>
</g>
<!-- artefact_position&#45;&gt;artefact -->
<g id="edge6" class="edge">
<title>artefact_position:w&#45;&gt;artefact:e</title>
<path fill="none" stroke="black" d="M205,-612.66C191.47,-607.47 186.56,-594.19 175,-578 141.56,-531.18 186.53,-457 129,-457"/>
<polygon fill="black" stroke="black" points="211.6,-613.72 218.93,-618.55 215.55,-614.36 219.5,-615 219.5,-615 219.5,-615 215.55,-614.36 220.07,-611.45 211.6,-613.72 211.6,-613.72"/>
<ellipse fill="none" stroke="black" cx="208.44" cy="-613.21" rx="3.2" ry="3.2"/>
</g>
<!-- artefact_shape -->
<g id="node8" class="node">
<title>artefact_shape</title>
<g id="a_node8"><a xlink:href="../../tables/artefact_shape.html" xlink:title="artefact_shape" target="_top">
<polygon fill="#ffffff" stroke="transparent" points="227,-509 227,-567 370,-567 370,-509 227,-509"/>
<polygon fill="#f5f5f5" stroke="transparent" points="227.5,-545 227.5,-567 370.5,-567 370.5,-545 227.5,-545"/>
<polygon fill="none" stroke="black" points="227.5,-545 227.5,-567 370.5,-567 370.5,-545 227.5,-545"/>
<text text-anchor="start" x="232.5" y="-554.2" font-family="Helvetica,sans-Serif" font-weight="bold" font-size="11.00">artefact_shape</text>
<text text-anchor="start" x="328.5" y="-553.2" font-family="Helvetica,sans-Serif" font-size="11.00">[table]</text>
<polygon fill="none" stroke="black" points="227.5,-527 227.5,-545 370.5,-545 370.5,-527 227.5,-527"/>
<text text-anchor="start" x="230.5" y="-533.2" font-family="Helvetica,sans-Serif" font-size="11.00">...</text>
<polygon fill="#ffffff" stroke="transparent" points="227.5,-509 227.5,-527 261.5,-527 261.5,-509 227.5,-509"/>
<polygon fill="none" stroke="black" points="227.5,-509 227.5,-527 261.5,-527 261.5,-509 227.5,-509"/>
<text text-anchor="start" x="230.5" y="-515.2" font-family="Helvetica,sans-Serif" font-size="11.00">&lt; 2</text>
<polygon fill="#ffffff" stroke="transparent" points="261.5,-509 261.5,-527 339.5,-527 339.5,-509 261.5,-509"/>
<polygon fill="none" stroke="black" points="261.5,-509 261.5,-527 339.5,-527 339.5,-509 261.5,-509"/>
<text text-anchor="start" x="268.5" y="-515.2" font-family="Helvetica,sans-Serif" font-size="11.00">27,685 rows</text>
<polygon fill="#ffffff" stroke="transparent" points="339.5,-509 339.5,-527 370.5,-527 370.5,-509 339.5,-509"/>
<polygon fill="none" stroke="black" points="339.5,-509 339.5,-527 370.5,-527 370.5,-509 339.5,-509"/>
<text text-anchor="start" x="347.5" y="-515.2" font-family="Helvetica,sans-Serif" font-size="11.00">1 &gt;</text>
</a>
</g>
</g>
<!-- artefact_shape&#45;&gt;artefact -->
<g id="edge7" class="edge">
<title>artefact_shape:w&#45;&gt;artefact:e</title>
<path fill="none" stroke="black" d="M212.24,-533.79C196.89,-528.24 192.44,-513.15 175,-499 153.5,-481.56 156.68,-457 129,-457"/>
<polygon fill="black" stroke="black" points="218.59,-534.78 225.95,-539.56 222.55,-535.39 226.5,-536 226.5,-536 226.5,-536 222.55,-535.39 227.05,-532.44 218.59,-534.78 218.59,-534.78"/>
<ellipse fill="none" stroke="black" cx="215.43" cy="-534.29" rx="3.2" ry="3.2"/>
</g>
<!-- artefact_stack -->
<g id="node9" class="node">
<title>artefact_stack</title>
<g id="a_node9"><a xlink:href="../../tables/artefact_stack.html" xlink:title="artefact_stack" target="_top">
<polygon fill="#ffffff" stroke="transparent" points="228.5,-430 228.5,-488 368.5,-488 368.5,-430 228.5,-430"/>
<polygon fill="#f5f5f5" stroke="transparent" points="228.5,-466 228.5,-488 368.5,-488 368.5,-466 228.5,-466"/>
<polygon fill="none" stroke="black" points="228.5,-466 228.5,-488 368.5,-488 368.5,-466 228.5,-466"/>
<text text-anchor="start" x="233.5" y="-475.2" font-family="Helvetica,sans-Serif" font-weight="bold" font-size="11.00">artefact_stack</text>
<text text-anchor="start" x="326.5" y="-474.2" font-family="Helvetica,sans-Serif" font-size="11.00">[table]</text>
<polygon fill="none" stroke="black" points="228.5,-448 228.5,-466 368.5,-466 368.5,-448 228.5,-448"/>
<text text-anchor="start" x="231.5" y="-454.2" font-family="Helvetica,sans-Serif" font-size="11.00">...</text>
<polygon fill="#ffffff" stroke="transparent" points="228.5,-430 228.5,-448 261.5,-448 261.5,-430 228.5,-430"/>
<polygon fill="none" stroke="black" points="228.5,-430 228.5,-448 261.5,-448 261.5,-430 228.5,-430"/>
<text text-anchor="start" x="231.5" y="-436.2" font-family="Helvetica,sans-Serif" font-size="11.00">&lt; 2</text>
<polygon fill="#ffffff" stroke="transparent" points="261.5,-430 261.5,-448 338.5,-448 338.5,-430 261.5,-430"/>
<polygon fill="none" stroke="black" points="261.5,-430 261.5,-448 338.5,-448 338.5,-430 261.5,-430"/>
<text text-anchor="start" x="267.5" y="-436.2" font-family="Helvetica,sans-Serif" font-size="11.00">22,748 rows</text>
<polygon fill="#ffffff" stroke="transparent" points="338.5,-430 338.5,-448 368.5,-448 368.5,-430 338.5,-430"/>
<polygon fill="none" stroke="black" points="338.5,-430 338.5,-448 368.5,-448 368.5,-430 338.5,-430"/>
<text text-anchor="start" x="345.5" y="-436.2" font-family="Helvetica,sans-Serif" font-size="11.00">1 &gt;</text>
</a>
</g>
</g>
<!-- artefact_stack&#45;&gt;artefact -->
<g id="edge8" class="edge">
<title>artefact_stack:w&#45;&gt;artefact:e</title>
<path fill="none" stroke="black" d="M212.92,-455.08C180.59,-451.09 167.48,-451.73 129,-457"/>
<polygon fill="black" stroke="black" points="219.57,-455.96 227.03,-460.57 223.53,-456.48 227.5,-457 227.5,-457 227.5,-457 223.53,-456.48 227.97,-453.43 219.57,-455.96 219.57,-455.96"/>
<ellipse fill="none" stroke="black" cx="216.4" cy="-455.54" rx="3.2" ry="3.2"/>
</g>
<!-- artefact_stack&#45;&gt;artefact -->
<g id="edge9" class="edge">
<title>artefact_stack:w&#45;&gt;artefact:e</title>
<path fill="none" stroke="black" d="M212.92,-459.24C180.59,-463.9 167.48,-463.15 129,-457"/>
<polygon fill="black" stroke="black" points="219.59,-458.21 228.05,-460.56 223.55,-457.61 227.5,-457 227.5,-457 227.5,-457 223.55,-457.61 226.95,-453.44 219.59,-458.21 219.59,-458.21"/>
<ellipse fill="none" stroke="black" cx="216.43" cy="-458.7" rx="3.2" ry="3.2"/>
</g>
<!-- artefact_status -->
<g id="node10" class="node">
<title>artefact_status</title>
<g id="a_node10"><a xlink:href="../../tables/artefact_status.html" xlink:title="artefact_status" target="_top">
<polygon fill="#ffffff" stroke="transparent" points="226,-351 226,-409 371,-409 371,-351 226,-351"/>
<polygon fill="#f5f5f5" stroke="transparent" points="226.5,-387 226.5,-409 371.5,-409 371.5,-387 226.5,-387"/>
<polygon fill="none" stroke="black" points="226.5,-387 226.5,-409 371.5,-409 371.5,-387 226.5,-387"/>
<text text-anchor="start" x="231.5" y="-396.2" font-family="Helvetica,sans-Serif" font-weight="bold" font-size="11.00">artefact_status</text>
<text text-anchor="start" x="329.5" y="-395.2" font-family="Helvetica,sans-Serif" font-size="11.00">[table]</text>
<polygon fill="none" stroke="black" points="226.5,-369 226.5,-387 371.5,-387 371.5,-369 226.5,-369"/>
<text text-anchor="start" x="229.5" y="-375.2" font-family="Helvetica,sans-Serif" font-size="11.00">...</text>
<polygon fill="#ffffff" stroke="transparent" points="226.5,-351 226.5,-369 277.5,-369 277.5,-351 226.5,-351"/>
<polygon fill="none" stroke="black" points="226.5,-351 226.5,-369 277.5,-369 277.5,-351 226.5,-351"/>
<text text-anchor="start" x="229.5" y="-357.2" font-family="Helvetica,sans-Serif" font-size="11.00">&lt; 2</text>
<polygon fill="#ffffff" stroke="transparent" points="277.5,-351 277.5,-369 332.5,-369 332.5,-351 277.5,-351"/>
<polygon fill="none" stroke="black" points="277.5,-351 277.5,-369 332.5,-369 332.5,-351 277.5,-351"/>
<text text-anchor="start" x="292.5" y="-357.2" font-family="Helvetica,sans-Serif" font-size="11.00">0 rows</text>
<polygon fill="#ffffff" stroke="transparent" points="332.5,-351 332.5,-369 371.5,-369 371.5,-351 332.5,-351"/>
<polygon fill="none" stroke="black" points="332.5,-351 332.5,-369 371.5,-369 371.5,-351 332.5,-351"/>
<text text-anchor="start" x="348.5" y="-357.2" font-family="Helvetica,sans-Serif" font-size="11.00">1 &gt;</text>
</a>
</g>
</g>
<!-- artefact_status&#45;&gt;artefact -->
<g id="edge10" class="edge">
<title>artefact_status:w&#45;&gt;artefact:e</title>
<path fill="none" stroke="black" d="M212.64,-385.29C187.78,-404.85 140.26,-457 129,-457"/>
<polygon fill="black" stroke="black" points="218.54,-381.94 227.28,-381.13 222.02,-379.97 225.5,-378 225.5,-378 225.5,-378 222.02,-379.97 223.72,-374.87 218.54,-381.94 218.54,-381.94"/>
<ellipse fill="none" stroke="black" cx="215.76" cy="-383.52" rx="3.2" ry="3.2"/>
</g>
<!-- roi_position -->
<g id="node11" class="node">
<title>roi_position</title>
<g id="a_node11"><a xlink:href="../../tables/roi_position.html" xlink:title="roi_position" target="_top">
<polygon fill="#ffffff" stroke="transparent" points="237,-272 237,-330 360,-330 360,-272 237,-272"/>
<polygon fill="#f5f5f5" stroke="transparent" points="237.5,-308 237.5,-330 360.5,-330 360.5,-308 237.5,-308"/>
<polygon fill="none" stroke="black" points="237.5,-308 237.5,-330 360.5,-330 360.5,-308 237.5,-308"/>
<text text-anchor="start" x="242.5" y="-317.2" font-family="Helvetica,sans-Serif" font-weight="bold" font-size="11.00">roi_position</text>
<text text-anchor="start" x="318.5" y="-316.2" font-family="Helvetica,sans-Serif" font-size="11.00">[table]</text>
<polygon fill="none" stroke="black" points="237.5,-290 237.5,-308 360.5,-308 360.5,-290 237.5,-290"/>
<text text-anchor="start" x="240.5" y="-296.2" font-family="Helvetica,sans-Serif" font-size="11.00">...</text>
<polygon fill="#ffffff" stroke="transparent" points="237.5,-272 237.5,-290 277.5,-290 277.5,-272 237.5,-272"/>
<polygon fill="none" stroke="black" points="237.5,-272 237.5,-290 277.5,-290 277.5,-272 237.5,-272"/>
<text text-anchor="start" x="240.5" y="-278.2" font-family="Helvetica,sans-Serif" font-size="11.00">&lt; 1</text>
<polygon fill="#ffffff" stroke="transparent" points="277.5,-272 277.5,-290 327.5,-290 327.5,-272 277.5,-272"/>
<polygon fill="none" stroke="black" points="277.5,-272 277.5,-290 327.5,-290 327.5,-272 277.5,-272"/>
<text text-anchor="start" x="287.5" y="-278.2" font-family="Helvetica,sans-Serif" font-size="11.00">0 rows</text>
<polygon fill="#ffffff" stroke="transparent" points="327.5,-272 327.5,-290 360.5,-290 360.5,-272 327.5,-272"/>
<polygon fill="none" stroke="black" points="327.5,-272 327.5,-290 360.5,-290 360.5,-272 327.5,-272"/>
<text text-anchor="start" x="337.5" y="-278.2" font-family="Helvetica,sans-Serif" font-size="11.00">1 &gt;</text>
</a>
</g>
</g>
<!-- roi_position&#45;&gt;artefact -->
<g id="edge12" class="edge">
<title>roi_position:w&#45;&gt;artefact:e</title>
<path fill="none" stroke="black" d="M222.09,-300.28C200.52,-304.56 192.28,-319.39 175,-341 140.36,-384.31 184.46,-457 129,-457"/>
<polygon fill="black" stroke="black" points="228.53,-299.71 236.82,-302.59 232.52,-299.35 236.5,-299 236.5,-299 236.5,-299 232.52,-299.35 236.18,-295.41 228.53,-299.71 228.53,-299.71"/>
<ellipse fill="none" stroke="black" cx="225.34" cy="-299.99" rx="3.2" ry="3.2"/>
</g>
</g>
</svg>
