<?xml version="1.0" encoding="UTF-8" standalone="no"?>
<!DOCTYPE svg PUBLIC "-//W3C//DTD SVG 1.1//EN"
 "http://www.w3.org/Graphics/SVG/1.1/DTD/svg11.dtd">
<!-- Generated by graphviz version 2.43.0 (0)
 -->
<!-- Title: oneDegreeRelationshipsDiagram Pages: 1 -->
<svg width="663pt" height="512pt"
 viewBox="0.00 0.00 663.00 512.00" xmlns="http://www.w3.org/2000/svg" xmlns:xlink="http://www.w3.org/1999/xlink">
<g id="graph0" class="graph" transform="scale(1 1) rotate(0) translate(4 508)">
<title>oneDegreeRelationshipsDiagram</title>
<polygon fill="#ffffff" stroke="transparent" points="-4,4 -4,-508 659,-508 659,4 -4,4"/>
<text text-anchor="middle" x="79.5" y="-7.2" font-family="Helvetica,sans-Serif" font-size="11.00">Generated by SchemaSpy</text>
<!-- artefact_stack_owner -->
<g id="node1" class="node">
<title>artefact_stack_owner</title>
<g id="a_node1"><a xlink:href="../../tables/artefact_stack_owner.html" xlink:title="artefact_stack_owner" target="_top">
<polygon fill="#ffffff" stroke="transparent" points="381,-133 381,-243 647,-243 647,-133 381,-133"/>
<polygon fill="#f5f5f5" stroke="transparent" points="383,-219 383,-241 645,-241 645,-219 383,-219"/>
<polygon fill="none" stroke="black" points="383,-219 383,-241 645,-241 645,-219 383,-219"/>
<text text-anchor="start" x="388" y="-228.2" font-family="Helvetica,sans-Serif" font-weight="bold" font-size="11.00">artefact_stack_owner</text>
<text text-anchor="start" x="603" y="-227.2" font-family="Helvetica,sans-Serif" font-size="11.00">[table]</text>
<polygon fill="none" stroke="black" points="383,-197 383,-219 548,-219 548,-197 383,-197"/>
<image xlink:href="../../images/primaryKeys.png" width="11px" height="12px" preserveAspectRatio="xMinYMin meet" x="388" y="-214"/>
<text text-anchor="start" x="403" y="-205.2" font-family="Helvetica,sans-Serif" font-size="11.00">artefact_stack_id</text>
<polygon fill="none" stroke="black" points="548,-197 548,-219 645,-219 645,-197 548,-197"/>
<text text-anchor="start" x="551" y="-205.2" font-family="Helvetica,sans-Serif" font-size="11.00">int unsigned[10]</text>
<polygon fill="#ffffff" stroke="transparent" points="383,-175 383,-197 548,-197 548,-175 383,-175"/>
<polygon fill="none" stroke="black" points="383,-175 383,-197 548,-197 548,-175 383,-175"/>
<image xlink:href="../../images/foreignKeys.png" width="11px" height="12px" preserveAspectRatio="xMinYMin meet" x="388" y="-192"/>
<text text-anchor="start" x="403" y="-183.2" font-family="Helvetica,sans-Serif" font-size="11.00">edition_editor_id</text>
<polygon fill="none" stroke="black" points="548,-175 548,-197 645,-197 645,-175 548,-175"/>
<text text-anchor="start" x="551" y="-183.2" font-family="Helvetica,sans-Serif" font-size="11.00">int unsigned[10]</text>
<polygon fill="none" stroke="black" points="383,-153 383,-175 548,-175 548,-153 383,-153"/>
<image xlink:href="../../images/primaryKeys.png" width="11px" height="12px" preserveAspectRatio="xMinYMin meet" x="388" y="-170"/>
<text text-anchor="start" x="403" y="-161.2" font-family="Helvetica,sans-Serif" font-size="11.00">edition_id</text>
<polygon fill="none" stroke="black" points="548,-153 548,-175 645,-175 645,-153 548,-153"/>
<text text-anchor="start" x="551" y="-161.2" font-family="Helvetica,sans-Serif" font-size="11.00">int unsigned[10]</text>
<polygon fill="#ffffff" stroke="transparent" points="383,-135 383,-153 441,-153 441,-135 383,-135"/>
<polygon fill="none" stroke="black" points="383,-135 383,-153 441,-153 441,-135 383,-135"/>
<text text-anchor="start" x="386" y="-141.2" font-family="Helvetica,sans-Serif" font-size="11.00">&lt; 3</text>
<polygon fill="#ffffff" stroke="transparent" points="441,-135 441,-153 548,-153 548,-135 441,-135"/>
<polygon fill="none" stroke="black" points="441,-135 441,-153 548,-153 548,-135 441,-135"/>
<text text-anchor="start" x="477" y="-141.2" font-family="Helvetica,sans-Serif" font-size="11.00">22,671 rows</text>
<polygon fill="#ffffff" stroke="transparent" points="548,-135 548,-153 645,-153 645,-135 548,-135"/>
<polygon fill="none" stroke="black" points="548,-135 548,-153 645,-153 645,-135 548,-135"/>
<text text-anchor="start" x="622" y="-141.2" font-family="Helvetica,sans-Serif" font-size="11.00">0 &gt;</text>
<polygon fill="none" stroke="black" stroke-width="2" points="382,-134 382,-242 646,-242 646,-134 382,-134"/>
</a>
</g>
</g>
<!-- artefact_stack -->
<g id="node2" class="node">
<title>artefact_stack</title>
<g id="a_node2"><a xlink:href="../../tables/artefact_stack.html" xlink:title="artefact_stack" target="_top">
<polygon fill="#ffffff" stroke="transparent" points="192,-240 192,-500 332,-500 332,-240 192,-240"/>
<polygon fill="#f5f5f5" stroke="transparent" points="192,-478 192,-500 332,-500 332,-478 192,-478"/>
<polygon fill="none" stroke="black" points="192,-478 192,-500 332,-500 332,-478 192,-478"/>
<text text-anchor="start" x="197" y="-487.2" font-family="Helvetica,sans-Serif" font-weight="bold" font-size="11.00">artefact_stack</text>
<text text-anchor="start" x="290" y="-486.2" font-family="Helvetica,sans-Serif" font-size="11.00">[table]</text>
<polygon fill="none" stroke="black" points="192,-456 192,-478 332,-478 332,-456 192,-456"/>
<image xlink:href="../../images/primaryKeys.png" width="11px" height="12px" preserveAspectRatio="xMinYMin meet" x="197" y="-473"/>
<text text-anchor="start" x="215" y="-464.2" font-family="Helvetica,sans-Serif" font-size="11.00">artefact_stack_id</text>
<polygon fill="#ffffff" stroke="transparent" points="192,-434 192,-456 332,-456 332,-434 192,-434"/>
<polygon fill="none" stroke="black" points="192,-434 192,-456 332,-456 332,-434 192,-434"/>
<image xlink:href="../../images/foreignKeys.png" width="11px" height="12px" preserveAspectRatio="xMinYMin meet" x="197" y="-451"/>
<text text-anchor="start" x="215" y="-442.2" font-family="Helvetica,sans-Serif" font-size="11.00">artefact_A_id</text>
<polygon fill="#ffffff" stroke="transparent" points="192,-412 192,-434 332,-434 332,-412 192,-412"/>
<polygon fill="none" stroke="black" points="192,-412 192,-434 332,-434 332,-412 192,-412"/>
<image xlink:href="../../images/foreignKeys.png" width="11px" height="12px" preserveAspectRatio="xMinYMin meet" x="197" y="-429"/>
<text text-anchor="start" x="215" y="-420.2" font-family="Helvetica,sans-Serif" font-size="11.00">artefact_B_id</text>
<polygon fill="#ffffff" stroke="transparent" points="192,-390 192,-412 332,-412 332,-390 192,-390"/>
<polygon fill="none" stroke="black" points="192,-390 192,-412 332,-412 332,-390 192,-390"/>
<text text-anchor="start" x="215" y="-398.2" font-family="Helvetica,sans-Serif" font-size="11.00">artefact_B_offset</text>
<polygon fill="#ffffff" stroke="transparent" points="192,-368 192,-390 332,-390 332,-368 192,-368"/>
<polygon fill="none" stroke="black" points="192,-368 192,-390 332,-390 332,-368 192,-368"/>
<text text-anchor="start" x="215" y="-376.2" font-family="Helvetica,sans-Serif" font-size="11.00">layer_A</text>
<polygon fill="#ffffff" stroke="transparent" points="192,-346 192,-368 332,-368 332,-346 192,-346"/>
<polygon fill="none" stroke="black" points="192,-346 192,-368 332,-368 332,-346 192,-346"/>
<text text-anchor="start" x="215" y="-354.2" font-family="Helvetica,sans-Serif" font-size="11.00">layer_B</text>
<polygon fill="#ffffff" stroke="transparent" points="192,-324 192,-346 332,-346 332,-324 192,-324"/>
<polygon fill="none" stroke="black" points="192,-324 192,-346 332,-346 332,-324 192,-324"/>
<text text-anchor="start" x="215" y="-332.2" font-family="Helvetica,sans-Serif" font-size="11.00">A_is_verso</text>
<polygon fill="#ffffff" stroke="transparent" points="192,-302 192,-324 332,-324 332,-302 192,-302"/>
<polygon fill="none" stroke="black" points="192,-302 192,-324 332,-324 332,-302 192,-302"/>
<text text-anchor="start" x="215" y="-310.2" font-family="Helvetica,sans-Serif" font-size="11.00">B_is_verso</text>
<polygon fill="#ffffff" stroke="transparent" points="192,-280 192,-302 332,-302 332,-280 192,-280"/>
<polygon fill="none" stroke="black" points="192,-280 192,-302 332,-302 332,-280 192,-280"/>
<text text-anchor="start" x="215" y="-288.2" font-family="Helvetica,sans-Serif" font-size="11.00">reason</text>
<polygon fill="#ffffff" stroke="transparent" points="192,-258 192,-280 332,-280 332,-258 192,-258"/>
<polygon fill="none" stroke="black" points="192,-258 192,-280 332,-280 332,-258 192,-258"/>
<text text-anchor="start" x="215" y="-266.2" font-family="Helvetica,sans-Serif" font-size="11.00">shared</text>
<polygon fill="#ffffff" stroke="transparent" points="192,-240 192,-258 225,-258 225,-240 192,-240"/>
<polygon fill="none" stroke="black" points="192,-240 192,-258 225,-258 225,-240 192,-240"/>
<text text-anchor="start" x="195" y="-246.2" font-family="Helvetica,sans-Serif" font-size="11.00">&lt; 2</text>
<polygon fill="#ffffff" stroke="transparent" points="225,-240 225,-258 302,-258 302,-240 225,-240"/>
<polygon fill="none" stroke="black" points="225,-240 225,-258 302,-258 302,-240 225,-240"/>
<text text-anchor="start" x="231" y="-246.2" font-family="Helvetica,sans-Serif" font-size="11.00">22,748 rows</text>
<polygon fill="#ffffff" stroke="transparent" points="302,-240 302,-258 332,-258 332,-240 302,-240"/>
<polygon fill="none" stroke="black" points="302,-240 302,-258 332,-258 332,-240 302,-240"/>
<text text-anchor="start" x="309" y="-246.2" font-family="Helvetica,sans-Serif" font-size="11.00">1 &gt;</text>
</a>
</g>
</g>
<!-- artefact_stack_owner&#45;&gt;artefact_stack -->
<g id="edge1" class="edge">
<title>artefact_stack_owner:w&#45;&gt;artefact_stack:e</title>
<path fill="none" stroke="black" d="M367.46,-209.65C281.55,-231.71 444.66,-467 333,-467"/>
<polygon fill="black" stroke="black" points="374.05,-208.9 382.41,-211.58 378.03,-208.45 382,-208 382,-208 382,-208 378.03,-208.45 381.59,-204.42 374.05,-208.9 374.05,-208.9"/>
<ellipse fill="none" stroke="black" cx="370.87" cy="-209.27" rx="3.2" ry="3.2"/>
</g>
<!-- edition_editor -->
<g id="node3" class="node">
<title>edition_editor</title>
<g id="a_node3"><a xlink:href="../../tables/edition_editor.html" xlink:title="edition_editor" target="_top">
<polygon fill="#ffffff" stroke="transparent" points="194,-95 194,-219 330,-219 330,-95 194,-95"/>
<polygon fill="#f5f5f5" stroke="transparent" points="194,-197 194,-219 330,-219 330,-197 194,-197"/>
<polygon fill="none" stroke="black" points="194,-197 194,-219 330,-219 330,-197 194,-197"/>
<text text-anchor="start" x="199" y="-206.2" font-family="Helvetica,sans-Serif" font-weight="bold" font-size="11.00">edition_editor</text>
<text text-anchor="start" x="288" y="-205.2" font-family="Helvetica,sans-Serif" font-size="11.00">[table]</text>
<polygon fill="none" stroke="black" points="194,-175 194,-197 330,-197 330,-175 194,-175"/>
<image xlink:href="../../images/primaryKeys.png" width="11px" height="12px" preserveAspectRatio="xMinYMin meet" x="199" y="-192"/>
<text text-anchor="start" x="216" y="-183.2" font-family="Helvetica,sans-Serif" font-size="11.00">edition_editor_id</text>
<polygon fill="#ffffff" stroke="transparent" points="194,-153 194,-175 330,-175 330,-153 194,-153"/>
<polygon fill="none" stroke="black" points="194,-153 194,-175 330,-175 330,-153 194,-153"/>
<image xlink:href="../../images/foreignKeys.png" width="11px" height="12px" preserveAspectRatio="xMinYMin meet" x="199" y="-170"/>
<text text-anchor="start" x="216" y="-161.2" font-family="Helvetica,sans-Serif" font-size="11.00">user_id</text>
<polygon fill="#ffffff" stroke="transparent" points="194,-131 194,-153 330,-153 330,-131 194,-131"/>
<polygon fill="none" stroke="black" points="194,-131 194,-153 330,-153 330,-131 194,-131"/>
<image xlink:href="../../images/foreignKeys.png" width="11px" height="12px" preserveAspectRatio="xMinYMin meet" x="199" y="-148"/>
<text text-anchor="start" x="216" y="-139.2" font-family="Helvetica,sans-Serif" font-size="11.00">edition_id</text>
<polygon fill="none" stroke="black" points="194,-113 194,-131 330,-131 330,-113 194,-113"/>
<text text-anchor="start" x="197" y="-119.2" font-family="Helvetica,sans-Serif" font-size="11.00">...</text>
<polygon fill="#ffffff" stroke="transparent" points="194,-95 194,-113 225,-113 225,-95 194,-95"/>
<polygon fill="none" stroke="black" points="194,-95 194,-113 225,-113 225,-95 194,-95"/>
<text text-anchor="start" x="197" y="-101.2" font-family="Helvetica,sans-Serif" font-size="11.00">&lt; 2</text>
<polygon fill="#ffffff" stroke="transparent" points="225,-95 225,-113 294,-113 294,-95 225,-95"/>
<polygon fill="none" stroke="black" points="225,-95 225,-113 294,-113 294,-95 225,-95"/>
<text text-anchor="start" x="230" y="-101.2" font-family="Helvetica,sans-Serif" font-size="11.00">1,645 rows</text>
<polygon fill="#ffffff" stroke="transparent" points="294,-95 294,-113 330,-113 330,-95 294,-95"/>
<polygon fill="none" stroke="black" points="294,-95 294,-113 330,-113 330,-95 294,-95"/>
<text text-anchor="start" x="300" y="-101.2" font-family="Helvetica,sans-Serif" font-size="11.00">33 &gt;</text>
</a>
</g>
</g>
<!-- artefact_stack_owner&#45;&gt;edition_editor -->
<g id="edge2" class="edge">
<title>artefact_stack_owner:w&#45;&gt;edition_editor:e</title>
<path fill="none" stroke="black" d="M367.28,-186C355.28,-186 347.82,-186 331,-186"/>
<polygon fill="black" stroke="black" points="374,-186 382,-189.6 378,-186 382,-186 382,-186 382,-186 378,-186 382,-182.4 374,-186 374,-186"/>
<ellipse fill="none" stroke="black" cx="370.8" cy="-186" rx="3.2" ry="3.2"/>
</g>
<!-- edition -->
<g id="node4" class="node">
<title>edition</title>
<g id="a_node4"><a xlink:href="../../tables/edition.html" xlink:title="edition" target="_top">
<polygon fill="#ffffff" stroke="transparent" points="8,-37 8,-139 143,-139 143,-37 8,-37"/>
<polygon fill="#f5f5f5" stroke="transparent" points="8.5,-117 8.5,-139 143.5,-139 143.5,-117 8.5,-117"/>
<polygon fill="none" stroke="black" points="8.5,-117 8.5,-139 143.5,-139 143.5,-117 8.5,-117"/>
<text text-anchor="start" x="13.5" y="-126.2" font-family="Helvetica,sans-Serif" font-weight="bold" font-size="11.00">edition</text>
<text text-anchor="start" x="101.5" y="-125.2" font-family="Helvetica,sans-Serif" font-size="11.00">[table]</text>
<polygon fill="none" stroke="black" points="8.5,-95 8.5,-117 143.5,-117 143.5,-95 8.5,-95"/>
<image xlink:href="../../images/primaryKeys.png" width="11px" height="12px" preserveAspectRatio="xMinYMin meet" x="13.5" y="-112"/>
<text text-anchor="start" x="28.5" y="-103.2" font-family="Helvetica,sans-Serif" font-size="11.00">edition_id</text>
<polygon fill="#ffffff" stroke="transparent" points="8.5,-73 8.5,-95 143.5,-95 143.5,-73 8.5,-73"/>
<polygon fill="none" stroke="black" points="8.5,-73 8.5,-95 143.5,-95 143.5,-73 8.5,-73"/>
<image xlink:href="../../images/foreignKeys.png" width="11px" height="12px" preserveAspectRatio="xMinYMin meet" x="13.5" y="-90"/>
<text text-anchor="start" x="28.5" y="-81.2" font-family="Helvetica,sans-Serif" font-size="11.00">manuscript_id</text>
<polygon fill="none" stroke="black" points="8.5,-55 8.5,-73 143.5,-73 143.5,-55 8.5,-55"/>
<text text-anchor="start" x="11.5" y="-61.2" font-family="Helvetica,sans-Serif" font-size="11.00">...</text>
<polygon fill="#ffffff" stroke="transparent" points="8.5,-37 8.5,-55 38.5,-55 38.5,-37 8.5,-37"/>
<polygon fill="none" stroke="black" points="8.5,-37 8.5,-55 38.5,-55 38.5,-37 8.5,-37"/>
<text text-anchor="start" x="11.5" y="-43.2" font-family="Helvetica,sans-Serif" font-size="11.00">&lt; 1</text>
<polygon fill="#ffffff" stroke="transparent" points="38.5,-37 38.5,-55 107.5,-55 107.5,-37 38.5,-37"/>
<polygon fill="none" stroke="black" points="38.5,-37 38.5,-55 107.5,-55 107.5,-37 38.5,-37"/>
<text text-anchor="start" x="43.5" y="-43.2" font-family="Helvetica,sans-Serif" font-size="11.00">1,645 rows</text>
<polygon fill="#ffffff" stroke="transparent" points="107.5,-37 107.5,-55 143.5,-55 143.5,-37 107.5,-37"/>
<polygon fill="none" stroke="black" points="107.5,-37 107.5,-55 143.5,-55 143.5,-37 107.5,-37"/>
<text text-anchor="start" x="113.5" y="-43.2" font-family="Helvetica,sans-Serif" font-size="11.00">35 &gt;</text>
</a>
</g>
</g>
<!-- artefact_stack_owner&#45;&gt;edition -->
<g id="edge3" class="edge">
<title>artefact_stack_owner:w&#45;&gt;edition:e</title>
<path fill="none" stroke="black" d="M368.08,-160.08C350.58,-146.64 368.76,-102.28 340,-85 280.57,-49.29 251.27,-68.23 184,-85 164.71,-89.81 164.38,-106 144.5,-106"/>
<polygon fill="black" stroke="black" points="374.3,-161.83 381.02,-167.47 378.15,-162.92 382,-164 382,-164 382,-164 378.15,-162.92 382.98,-160.53 374.3,-161.83 374.3,-161.83"/>
<ellipse fill="none" stroke="black" cx="371.22" cy="-160.97" rx="3.2" ry="3.2"/>
</g>
<!-- edition_editor&#45;&gt;edition -->
<g id="edge4" class="edge">
<title>edition_editor:w&#45;&gt;edition:e</title>
<path fill="none" stroke="black" d="M178.94,-137.29C166.86,-127.54 165.26,-106 144.5,-106"/>
<polygon fill="black" stroke="black" points="185.41,-139.46 191.86,-145.41 189.21,-140.73 193,-142 193,-142 193,-142 189.21,-140.73 194.14,-138.59 185.41,-139.46 185.41,-139.46"/>
<ellipse fill="none" stroke="black" cx="182.38" cy="-138.44" rx="3.2" ry="3.2"/>
</g>
</g>
</svg>
