<?xml version="1.0" encoding="UTF-8" standalone="no"?>
<!DOCTYPE svg PUBLIC "-//W3C//DTD SVG 1.1//EN"
 "http://www.w3.org/Graphics/SVG/1.1/DTD/svg11.dtd">
<!-- Generated by graphviz version 2.43.0 (0)
 -->
<!-- Title: twoDegreesRelationshipsDiagram Pages: 1 -->
<svg width="935pt" height="943pt"
 viewBox="0.00 0.00 935.00 943.00" xmlns="http://www.w3.org/2000/svg" xmlns:xlink="http://www.w3.org/1999/xlink">
<g id="graph0" class="graph" transform="scale(1 1) rotate(0) translate(4 939)">
<title>twoDegreesRelationshipsDiagram</title>
<polygon fill="#ffffff" stroke="transparent" points="-4,4 -4,-939 931,-939 931,4 -4,4"/>
<text text-anchor="middle" x="79.5" y="-7.2" font-family="Helvetica,sans-Serif" font-size="11.00">Generated by SchemaSpy</text>
<!-- artefact_data -->
<g id="node1" class="node">
<title>artefact_data</title>
<g id="a_node1"><a xlink:href="../../tables/artefact_data.html" xlink:title="artefact_data" target="_top">
<polygon fill="#ffffff" stroke="transparent" points="466.5,-873 466.5,-931 600.5,-931 600.5,-873 466.5,-873"/>
<polygon fill="#f5f5f5" stroke="transparent" points="466.5,-909 466.5,-931 600.5,-931 600.5,-909 466.5,-909"/>
<polygon fill="none" stroke="black" points="466.5,-909 466.5,-931 600.5,-931 600.5,-909 466.5,-909"/>
<text text-anchor="start" x="471.5" y="-918.2" font-family="Helvetica,sans-Serif" font-weight="bold" font-size="11.00">artefact_data</text>
<text text-anchor="start" x="558.5" y="-917.2" font-family="Helvetica,sans-Serif" font-size="11.00">[table]</text>
<polygon fill="none" stroke="black" points="466.5,-891 466.5,-909 600.5,-909 600.5,-891 466.5,-891"/>
<text text-anchor="start" x="469.5" y="-897.2" font-family="Helvetica,sans-Serif" font-size="11.00">...</text>
<polygon fill="#ffffff" stroke="transparent" points="466.5,-873 466.5,-891 496.5,-891 496.5,-873 466.5,-873"/>
<polygon fill="none" stroke="black" points="466.5,-873 466.5,-891 496.5,-891 496.5,-873 466.5,-873"/>
<text text-anchor="start" x="469.5" y="-879.2" font-family="Helvetica,sans-Serif" font-size="11.00">&lt; 1</text>
<polygon fill="#ffffff" stroke="transparent" points="496.5,-873 496.5,-891 572.5,-891 572.5,-873 496.5,-873"/>
<polygon fill="none" stroke="black" points="496.5,-873 496.5,-891 572.5,-891 572.5,-873 496.5,-873"/>
<text text-anchor="start" x="501.5" y="-879.2" font-family="Helvetica,sans-Serif" font-size="11.00">26,649 rows</text>
<polygon fill="#ffffff" stroke="transparent" points="572.5,-873 572.5,-891 600.5,-891 600.5,-873 572.5,-873"/>
<polygon fill="none" stroke="black" points="572.5,-873 572.5,-891 600.5,-891 600.5,-873 572.5,-873"/>
<text text-anchor="start" x="577.5" y="-879.2" font-family="Helvetica,sans-Serif" font-size="11.00">1 &gt;</text>
</a>
</g>
</g>
<!-- artefact -->
<g id="node2" class="node">
<title>artefact</title>
<g id="a_node2"><a xlink:href="../../tables/artefact.html" xlink:title="artefact" target="_top">
<polygon fill="#ffffff" stroke="transparent" points="209,-634 209,-696 323,-696 323,-634 209,-634"/>
<polygon fill="#f5f5f5" stroke="transparent" points="209,-674 209,-696 323,-696 323,-674 209,-674"/>
<polygon fill="none" stroke="black" points="209,-674 209,-696 323,-696 323,-674 209,-674"/>
<text text-anchor="start" x="214" y="-683.2" font-family="Helvetica,sans-Serif" font-weight="bold" font-size="11.00">artefact</text>
<text text-anchor="start" x="281" y="-682.2" font-family="Helvetica,sans-Serif" font-size="11.00">[table]</text>
<polygon fill="none" stroke="black" points="209,-652 209,-674 323,-674 323,-652 209,-652"/>
<image xlink:href="../../images/primaryKeys.png" width="11px" height="12px" preserveAspectRatio="xMinYMin meet" x="214" y="-669"/>
<text text-anchor="start" x="240" y="-660.2" font-family="Helvetica,sans-Serif" font-size="11.00">artefact_id</text>
<polygon fill="#ffffff" stroke="transparent" points="209,-634 209,-652 223,-652 223,-634 209,-634"/>
<polygon fill="none" stroke="black" points="209,-634 209,-652 223,-652 223,-634 209,-634"/>
<text text-anchor="start" x="212" y="-640.2" font-family="Helvetica,sans-Serif" font-size="11.00"> &#160;</text>
<polygon fill="#ffffff" stroke="transparent" points="223,-634 223,-652 297,-652 297,-634 223,-634"/>
<polygon fill="none" stroke="black" points="223,-634 223,-652 297,-652 297,-634 223,-634"/>
<text text-anchor="start" x="226" y="-640.2" font-family="Helvetica,sans-Serif" font-size="11.00">26,982 rows</text>
<polygon fill="#ffffff" stroke="transparent" points="297,-634 297,-652 323,-652 323,-634 297,-634"/>
<polygon fill="none" stroke="black" points="297,-634 297,-652 323,-652 323,-634 297,-634"/>
<text text-anchor="start" x="300" y="-640.2" font-family="Helvetica,sans-Serif" font-size="11.00">8 &gt;</text>
</a>
</g>
</g>
<!-- artefact_data&#45;&gt;artefact -->
<g id="edge1" class="edge">
<title>artefact_data:w&#45;&gt;artefact:e</title>
<path fill="none" stroke="black" d="M450.89,-899.76C417.9,-898.49 400.85,-891.53 376,-863 315.68,-793.74 415.84,-663 324,-663"/>
<polygon fill="black" stroke="black" points="457.5,-899.87 465.44,-903.6 461.5,-899.93 465.5,-900 465.5,-900 465.5,-900 461.5,-899.93 465.56,-896.4 457.5,-899.87 457.5,-899.87"/>
<ellipse fill="none" stroke="black" cx="454.3" cy="-899.81" rx="3.2" ry="3.2"/>
</g>
<!-- artefact_group_member -->
<g id="node3" class="node">
<title>artefact_group_member</title>
<g id="a_node3"><a xlink:href="../../tables/artefact_group_member.html" xlink:title="artefact_group_member" target="_top">
<polygon fill="#ffffff" stroke="transparent" points="435,-794 435,-852 632,-852 632,-794 435,-794"/>
<polygon fill="#f5f5f5" stroke="transparent" points="435.5,-830 435.5,-852 632.5,-852 632.5,-830 435.5,-830"/>
<polygon fill="none" stroke="black" points="435.5,-830 435.5,-852 632.5,-852 632.5,-830 435.5,-830"/>
<text text-anchor="start" x="440.5" y="-839.2" font-family="Helvetica,sans-Serif" font-weight="bold" font-size="11.00">artefact_group_member</text>
<text text-anchor="start" x="590.5" y="-838.2" font-family="Helvetica,sans-Serif" font-size="11.00">[table]</text>
<polygon fill="none" stroke="black" points="435.5,-812 435.5,-830 632.5,-830 632.5,-812 435.5,-812"/>
<text text-anchor="start" x="438.5" y="-818.2" font-family="Helvetica,sans-Serif" font-size="11.00">...</text>
<polygon fill="#ffffff" stroke="transparent" points="435.5,-794 435.5,-812 512.5,-812 512.5,-794 435.5,-794"/>
<polygon fill="none" stroke="black" points="435.5,-794 435.5,-812 512.5,-812 512.5,-794 435.5,-794"/>
<text text-anchor="start" x="438.5" y="-800.2" font-family="Helvetica,sans-Serif" font-size="11.00">&lt; 2</text>
<polygon fill="#ffffff" stroke="transparent" points="512.5,-794 512.5,-812 580.5,-812 580.5,-794 512.5,-794"/>
<polygon fill="none" stroke="black" points="512.5,-794 512.5,-812 580.5,-812 580.5,-794 512.5,-794"/>
<text text-anchor="start" x="540.5" y="-800.2" font-family="Helvetica,sans-Serif" font-size="11.00">0 rows</text>
<polygon fill="#ffffff" stroke="transparent" points="580.5,-794 580.5,-812 632.5,-812 632.5,-794 580.5,-794"/>
<polygon fill="none" stroke="black" points="580.5,-794 580.5,-812 632.5,-812 632.5,-794 580.5,-794"/>
<text text-anchor="start" x="609.5" y="-800.2" font-family="Helvetica,sans-Serif" font-size="11.00">1 &gt;</text>
</a>
</g>
</g>
<!-- artefact_group_member&#45;&gt;artefact -->
<g id="edge2" class="edge">
<title>artefact_group_member:w&#45;&gt;artefact:e</title>
<path fill="none" stroke="black" d="M419.94,-819.7C400.55,-815.8 392.38,-803.2 376,-784 338.01,-739.47 382.53,-663 324,-663"/>
<polygon fill="black" stroke="black" points="426.53,-820.29 434.18,-824.59 430.52,-820.65 434.5,-821 434.5,-821 434.5,-821 430.52,-820.65 434.82,-817.41 426.53,-820.29 426.53,-820.29"/>
<ellipse fill="none" stroke="black" cx="423.34" cy="-820.01" rx="3.2" ry="3.2"/>
</g>
<!-- artefact_position -->
<g id="node4" class="node">
<title>artefact_position</title>
<g id="a_node4"><a xlink:href="../../tables/artefact_position.html" xlink:title="artefact_position" target="_top">
<polygon fill="#ffffff" stroke="transparent" points="455.5,-715 455.5,-773 611.5,-773 611.5,-715 455.5,-715"/>
<polygon fill="#f5f5f5" stroke="transparent" points="455.5,-751 455.5,-773 611.5,-773 611.5,-751 455.5,-751"/>
<polygon fill="none" stroke="black" points="455.5,-751 455.5,-773 611.5,-773 611.5,-751 455.5,-751"/>
<text text-anchor="start" x="460.5" y="-760.2" font-family="Helvetica,sans-Serif" font-weight="bold" font-size="11.00">artefact_position</text>
<text text-anchor="start" x="569.5" y="-759.2" font-family="Helvetica,sans-Serif" font-size="11.00">[table]</text>
<polygon fill="none" stroke="black" points="455.5,-733 455.5,-751 611.5,-751 611.5,-733 455.5,-733"/>
<text text-anchor="start" x="458.5" y="-739.2" font-family="Helvetica,sans-Serif" font-size="11.00">...</text>
<polygon fill="#ffffff" stroke="transparent" points="455.5,-715 455.5,-733 511.5,-733 511.5,-715 455.5,-715"/>
<polygon fill="none" stroke="black" points="455.5,-715 455.5,-733 511.5,-733 511.5,-715 455.5,-715"/>
<text text-anchor="start" x="458.5" y="-721.2" font-family="Helvetica,sans-Serif" font-size="11.00">&lt; 1</text>
<polygon fill="#ffffff" stroke="transparent" points="511.5,-715 511.5,-733 569.5,-733 569.5,-715 511.5,-715"/>
<polygon fill="none" stroke="black" points="511.5,-715 511.5,-733 569.5,-733 569.5,-715 511.5,-715"/>
<text text-anchor="start" x="529.5" y="-721.2" font-family="Helvetica,sans-Serif" font-size="11.00">0 rows</text>
<polygon fill="#ffffff" stroke="transparent" points="569.5,-715 569.5,-733 611.5,-733 611.5,-715 569.5,-715"/>
<polygon fill="none" stroke="black" points="569.5,-715 569.5,-733 611.5,-733 611.5,-715 569.5,-715"/>
<text text-anchor="start" x="588.5" y="-721.2" font-family="Helvetica,sans-Serif" font-size="11.00">1 &gt;</text>
</a>
</g>
</g>
<!-- artefact_position&#45;&gt;artefact -->
<g id="edge3" class="edge">
<title>artefact_position:w&#45;&gt;artefact:e</title>
<path fill="none" stroke="black" d="M439.93,-741.06C413.39,-737.28 404.08,-722.6 376,-705 350.83,-689.22 353.71,-663 324,-663"/>
<polygon fill="black" stroke="black" points="446.52,-741.48 454.27,-745.59 450.51,-741.74 454.5,-742 454.5,-742 454.5,-742 450.51,-741.74 454.73,-738.41 446.52,-741.48 446.52,-741.48"/>
<ellipse fill="none" stroke="black" cx="443.32" cy="-741.28" rx="3.2" ry="3.2"/>
</g>
<!-- artefact_shape -->
<g id="node5" class="node">
<title>artefact_shape</title>
<g id="a_node5"><a xlink:href="../../tables/artefact_shape.html" xlink:title="artefact_shape" target="_top">
<polygon fill="#ffffff" stroke="transparent" points="384,-303 384,-457 683,-457 683,-303 384,-303"/>
<polygon fill="#f5f5f5" stroke="transparent" points="386.5,-433 386.5,-455 681.5,-455 681.5,-433 386.5,-433"/>
<polygon fill="none" stroke="black" points="386.5,-433 386.5,-455 681.5,-455 681.5,-433 386.5,-433"/>
<text text-anchor="start" x="391.5" y="-442.2" font-family="Helvetica,sans-Serif" font-weight="bold" font-size="11.00">artefact_shape</text>
<text text-anchor="start" x="639.5" y="-441.2" font-family="Helvetica,sans-Serif" font-size="11.00">[table]</text>
<polygon fill="none" stroke="black" points="386.5,-411 386.5,-433 584.5,-433 584.5,-411 386.5,-411"/>
<image xlink:href="../../images/primaryKeys.png" width="11px" height="12px" preserveAspectRatio="xMinYMin meet" x="391.5" y="-428"/>
<text text-anchor="start" x="406.5" y="-419.2" font-family="Helvetica,sans-Serif" font-size="11.00">artefact_shape_id</text>
<polygon fill="none" stroke="black" points="584.5,-411 584.5,-433 681.5,-433 681.5,-411 584.5,-411"/>
<text text-anchor="start" x="587.5" y="-419.2" font-family="Helvetica,sans-Serif" font-size="11.00">int unsigned[10]</text>
<polygon fill="#ffffff" stroke="transparent" points="386.5,-389 386.5,-411 584.5,-411 584.5,-389 386.5,-389"/>
<polygon fill="none" stroke="black" points="386.5,-389 386.5,-411 584.5,-411 584.5,-389 386.5,-389"/>
<image xlink:href="../../images/foreignKeys.png" width="11px" height="12px" preserveAspectRatio="xMinYMin meet" x="391.5" y="-406"/>
<text text-anchor="start" x="406.5" y="-397.2" font-family="Helvetica,sans-Serif" font-size="11.00">artefact_id</text>
<polygon fill="none" stroke="black" points="584.5,-389 584.5,-411 681.5,-411 681.5,-389 584.5,-389"/>
<text text-anchor="start" x="587.5" y="-397.2" font-family="Helvetica,sans-Serif" font-size="11.00">int unsigned[10]</text>
<polygon fill="#ffffff" stroke="transparent" points="386.5,-367 386.5,-389 584.5,-389 584.5,-367 386.5,-367"/>
<polygon fill="none" stroke="black" points="386.5,-367 386.5,-389 584.5,-389 584.5,-367 386.5,-367"/>
<image xlink:href="../../images/foreignKeys.png" width="11px" height="12px" preserveAspectRatio="xMinYMin meet" x="391.5" y="-384"/>
<text text-anchor="start" x="406.5" y="-375.2" font-family="Helvetica,sans-Serif" font-size="11.00">sqe_image_id</text>
<polygon fill="none" stroke="black" points="584.5,-367 584.5,-389 681.5,-389 681.5,-367 584.5,-367"/>
<text text-anchor="start" x="587.5" y="-375.2" font-family="Helvetica,sans-Serif" font-size="11.00">int unsigned[10]</text>
<polygon fill="none" stroke="black" points="386.5,-345 386.5,-367 584.5,-367 584.5,-345 386.5,-345"/>
<text text-anchor="start" x="406.5" y="-353.2" font-family="Helvetica,sans-Serif" font-size="11.00">region_in_sqe_image</text>
<polygon fill="none" stroke="black" points="584.5,-345 584.5,-367 681.5,-367 681.5,-345 584.5,-345"/>
<text text-anchor="start" x="587.5" y="-353.2" font-family="Helvetica,sans-Serif" font-size="11.00">geometry[0]</text>
<polygon fill="#ffffff" stroke="transparent" points="386.5,-323 386.5,-345 584.5,-345 584.5,-323 386.5,-323"/>
<polygon fill="none" stroke="black" points="386.5,-323 386.5,-345 584.5,-345 584.5,-323 386.5,-323"/>
<text text-anchor="start" x="406.5" y="-331.2" font-family="Helvetica,sans-Serif" font-size="11.00">region_in_sqe_image_hash</text>
<polygon fill="none" stroke="black" points="584.5,-323 584.5,-345 681.5,-345 681.5,-323 584.5,-323"/>
<text text-anchor="start" x="587.5" y="-331.2" font-family="Helvetica,sans-Serif" font-size="11.00">binary[128]</text>
<polygon fill="#ffffff" stroke="transparent" points="386.5,-305 386.5,-323 461.5,-323 461.5,-305 386.5,-305"/>
<polygon fill="none" stroke="black" points="386.5,-305 386.5,-323 461.5,-323 461.5,-305 386.5,-305"/>
<text text-anchor="start" x="389.5" y="-311.2" font-family="Helvetica,sans-Serif" font-size="11.00">&lt; 2</text>
<polygon fill="#ffffff" stroke="transparent" points="461.5,-305 461.5,-323 584.5,-323 584.5,-305 461.5,-305"/>
<polygon fill="none" stroke="black" points="461.5,-305 461.5,-323 584.5,-323 584.5,-305 461.5,-305"/>
<text text-anchor="start" x="513.5" y="-311.2" font-family="Helvetica,sans-Serif" font-size="11.00">27,685 rows</text>
<polygon fill="#ffffff" stroke="transparent" points="584.5,-305 584.5,-323 681.5,-323 681.5,-305 584.5,-305"/>
<polygon fill="none" stroke="black" points="584.5,-305 584.5,-323 681.5,-323 681.5,-305 584.5,-305"/>
<text text-anchor="start" x="658.5" y="-311.2" font-family="Helvetica,sans-Serif" font-size="11.00">1 &gt;</text>
<polygon fill="none" stroke="black" stroke-width="2" points="385,-304 385,-456 682,-456 682,-304 385,-304"/>
</a>
</g>
</g>
<!-- artefact_shape&#45;&gt;artefact -->
<g id="edge4" class="edge">
<title>artefact_shape:w&#45;&gt;artefact:e</title>
<path fill="none" stroke="black" d="M371.08,-401.54C280.9,-423.1 438.65,-663 324,-663"/>
<polygon fill="black" stroke="black" points="377.55,-400.85 385.88,-403.58 381.52,-400.43 385.5,-400 385.5,-400 385.5,-400 381.52,-400.43 385.12,-396.42 377.55,-400.85 377.55,-400.85"/>
<ellipse fill="none" stroke="black" cx="374.36" cy="-401.19" rx="3.2" ry="3.2"/>
</g>
<!-- SQE_image -->
<g id="node6" class="node">
<title>SQE_image</title>
<g id="a_node6"><a xlink:href="../../tables/SQE_image.html" xlink:title="SQE_image" target="_top">
<polygon fill="#ffffff" stroke="transparent" points="197,-138 197,-284 335,-284 335,-138 197,-138"/>
<polygon fill="#f5f5f5" stroke="transparent" points="197,-262 197,-284 335,-284 335,-262 197,-262"/>
<polygon fill="none" stroke="black" points="197,-262 197,-284 335,-284 335,-262 197,-262"/>
<text text-anchor="start" x="202" y="-271.2" font-family="Helvetica,sans-Serif" font-weight="bold" font-size="11.00">SQE_image</text>
<text text-anchor="start" x="293" y="-270.2" font-family="Helvetica,sans-Serif" font-size="11.00">[table]</text>
<polygon fill="none" stroke="black" points="197,-240 197,-262 335,-262 335,-240 197,-240"/>
<image xlink:href="../../images/primaryKeys.png" width="11px" height="12px" preserveAspectRatio="xMinYMin meet" x="202" y="-257"/>
<text text-anchor="start" x="217" y="-248.2" font-family="Helvetica,sans-Serif" font-size="11.00">sqe_image_id</text>
<polygon fill="#ffffff" stroke="transparent" points="197,-218 197,-240 335,-240 335,-218 197,-218"/>
<polygon fill="none" stroke="black" points="197,-218 197,-240 335,-240 335,-218 197,-218"/>
<image xlink:href="../../images/foreignKeys.png" width="11px" height="12px" preserveAspectRatio="xMinYMin meet" x="202" y="-235"/>
<text text-anchor="start" x="217" y="-226.2" font-family="Helvetica,sans-Serif" font-size="11.00">image_urls_id</text>
<polygon fill="#ffffff" stroke="transparent" points="197,-196 197,-218 335,-218 335,-196 197,-196"/>
<polygon fill="none" stroke="black" points="197,-196 197,-218 335,-218 335,-196 197,-196"/>
<text text-anchor="start" x="217" y="-204.2" font-family="Helvetica,sans-Serif" font-size="11.00">filename</text>
<polygon fill="#ffffff" stroke="transparent" points="197,-174 197,-196 335,-196 335,-174 197,-174"/>
<polygon fill="none" stroke="black" points="197,-174 197,-196 335,-196 335,-174 197,-174"/>
<image xlink:href="../../images/foreignKeys.png" width="11px" height="12px" preserveAspectRatio="xMinYMin meet" x="202" y="-191"/>
<text text-anchor="start" x="217" y="-182.2" font-family="Helvetica,sans-Serif" font-size="11.00">image_catalog_id</text>
<polygon fill="none" stroke="black" points="197,-156 197,-174 335,-174 335,-156 197,-156"/>
<text text-anchor="start" x="200" y="-162.2" font-family="Helvetica,sans-Serif" font-size="11.00">...</text>
<polygon fill="#ffffff" stroke="transparent" points="197,-138 197,-156 225,-156 225,-138 197,-138"/>
<polygon fill="none" stroke="black" points="197,-138 197,-156 225,-156 225,-138 197,-138"/>
<text text-anchor="start" x="200" y="-144.2" font-family="Helvetica,sans-Serif" font-size="11.00">&lt; 2</text>
<polygon fill="#ffffff" stroke="transparent" points="225,-138 225,-156 307,-156 307,-138 225,-138"/>
<polygon fill="none" stroke="black" points="225,-138 225,-156 307,-156 307,-138 225,-138"/>
<text text-anchor="start" x="229" y="-144.2" font-family="Helvetica,sans-Serif" font-size="11.00">101,504 rows</text>
<polygon fill="#ffffff" stroke="transparent" points="307,-138 307,-156 335,-156 335,-138 307,-138"/>
<polygon fill="none" stroke="black" points="307,-138 307,-156 335,-156 335,-138 307,-138"/>
<text text-anchor="start" x="312" y="-144.2" font-family="Helvetica,sans-Serif" font-size="11.00">4 &gt;</text>
</a>
</g>
</g>
<!-- artefact_shape&#45;&gt;SQE_image -->
<g id="edge5" class="edge">
<title>artefact_shape:w&#45;&gt;SQE_image:e</title>
<path fill="none" stroke="black" d="M371.29,-374.6C337.65,-354.41 390.66,-251 336,-251"/>
<polygon fill="black" stroke="black" points="377.72,-376.14 384.66,-381.5 381.61,-377.07 385.5,-378 385.5,-378 385.5,-378 381.61,-377.07 386.34,-374.5 377.72,-376.14 377.72,-376.14"/>
<ellipse fill="none" stroke="black" cx="374.61" cy="-375.4" rx="3.2" ry="3.2"/>
</g>
<!-- image_catalog -->
<g id="node14" class="node">
<title>image_catalog</title>
<g id="a_node14"><a xlink:href="../../tables/image_catalog.html" xlink:title="image_catalog" target="_top">
<polygon fill="#ffffff" stroke="transparent" points="8,-140 8,-198 148,-198 148,-140 8,-140"/>
<polygon fill="#f5f5f5" stroke="transparent" points="8,-176 8,-198 148,-198 148,-176 8,-176"/>
<polygon fill="none" stroke="black" points="8,-176 8,-198 148,-198 148,-176 8,-176"/>
<text text-anchor="start" x="13" y="-185.2" font-family="Helvetica,sans-Serif" font-weight="bold" font-size="11.00">image_catalog</text>
<text text-anchor="start" x="106" y="-184.2" font-family="Helvetica,sans-Serif" font-size="11.00">[table]</text>
<polygon fill="none" stroke="black" points="8,-158 8,-176 148,-176 148,-158 8,-158"/>
<text text-anchor="start" x="11" y="-164.2" font-family="Helvetica,sans-Serif" font-size="11.00">...</text>
<polygon fill="#ffffff" stroke="transparent" points="8,-140 8,-158 35,-158 35,-140 8,-140"/>
<polygon fill="none" stroke="black" points="8,-140 8,-158 35,-158 35,-140 8,-140"/>
<text text-anchor="start" x="11" y="-146.2" font-family="Helvetica,sans-Serif" font-size="11.00"> &#160;</text>
<polygon fill="#ffffff" stroke="transparent" points="35,-140 35,-158 115,-158 115,-140 35,-140"/>
<polygon fill="none" stroke="black" points="35,-140 35,-158 115,-158 115,-140 35,-140"/>
<text text-anchor="start" x="44" y="-146.2" font-family="Helvetica,sans-Serif" font-size="11.00">41,950 rows</text>
<polygon fill="#ffffff" stroke="transparent" points="115,-140 115,-158 148,-158 148,-140 115,-140"/>
<polygon fill="none" stroke="black" points="115,-140 115,-158 148,-158 148,-140 115,-140"/>
<text text-anchor="start" x="125" y="-146.2" font-family="Helvetica,sans-Serif" font-size="11.00">3 &gt;</text>
</a>
</g>
</g>
<!-- SQE_image&#45;&gt;image_catalog -->
<g id="edge16" class="edge">
<title>SQE_image:w&#45;&gt;image_catalog:e</title>
<path fill="none" stroke="black" d="M181.68,-181.86C171.01,-176.71 165.43,-167 149,-167"/>
<polygon fill="black" stroke="black" points="188.19,-183.29 195.23,-188.52 192.09,-184.14 196,-185 196,-185 196,-185 192.09,-184.14 196.77,-181.48 188.19,-183.29 188.19,-183.29"/>
<ellipse fill="none" stroke="black" cx="185.06" cy="-182.6" rx="3.2" ry="3.2"/>
</g>
<!-- image_urls -->
<g id="node15" class="node">
<title>image_urls</title>
<g id="a_node15"><a xlink:href="../../tables/image_urls.html" xlink:title="image_urls" target="_top">
<polygon fill="#ffffff" stroke="transparent" points="19,-219 19,-277 137,-277 137,-219 19,-219"/>
<polygon fill="#f5f5f5" stroke="transparent" points="19,-255 19,-277 137,-277 137,-255 19,-255"/>
<polygon fill="none" stroke="black" points="19,-255 19,-277 137,-277 137,-255 19,-255"/>
<text text-anchor="start" x="24" y="-264.2" font-family="Helvetica,sans-Serif" font-weight="bold" font-size="11.00">image_urls</text>
<text text-anchor="start" x="95" y="-263.2" font-family="Helvetica,sans-Serif" font-size="11.00">[table]</text>
<polygon fill="none" stroke="black" points="19,-237 19,-255 137,-255 137,-237 19,-237"/>
<text text-anchor="start" x="22" y="-243.2" font-family="Helvetica,sans-Serif" font-size="11.00">...</text>
<polygon fill="#ffffff" stroke="transparent" points="19,-219 19,-237 50,-237 50,-219 19,-219"/>
<polygon fill="none" stroke="black" points="19,-219 19,-237 50,-237 50,-219 19,-219"/>
<text text-anchor="start" x="22" y="-225.2" font-family="Helvetica,sans-Serif" font-size="11.00"> &#160;</text>
<polygon fill="#ffffff" stroke="transparent" points="50,-219 50,-237 102,-237 102,-219 50,-219"/>
<polygon fill="none" stroke="black" points="50,-219 50,-237 102,-237 102,-219 50,-219"/>
<text text-anchor="start" x="62" y="-225.2" font-family="Helvetica,sans-Serif" font-size="11.00">3 rows</text>
<polygon fill="#ffffff" stroke="transparent" points="102,-219 102,-237 137,-237 137,-219 102,-219"/>
<polygon fill="none" stroke="black" points="102,-219 102,-237 137,-237 137,-219 102,-219"/>
<text text-anchor="start" x="114" y="-225.2" font-family="Helvetica,sans-Serif" font-size="11.00">1 &gt;</text>
</a>
</g>
</g>
<!-- SQE_image&#45;&gt;image_urls -->
<g id="edge17" class="edge">
<title>SQE_image:w&#45;&gt;image_urls:e</title>
<path fill="none" stroke="black" d="M181.59,-230.95C166.33,-235.42 159.2,-246 138,-246"/>
<polygon fill="black" stroke="black" points="188.07,-230.07 196.48,-232.57 192.04,-229.54 196,-229 196,-229 196,-229 192.04,-229.54 195.52,-225.43 188.07,-230.07 188.07,-230.07"/>
<ellipse fill="none" stroke="black" cx="184.9" cy="-230.5" rx="3.2" ry="3.2"/>
</g>
<!-- artefact_shape_owner -->
<g id="node7" class="node">
<title>artefact_shape_owner</title>
<g id="a_node7"><a xlink:href="../../tables/artefact_shape_owner.html" xlink:title="artefact_shape_owner" target="_top">
<polygon fill="#ffffff" stroke="transparent" points="732,-42 732,-148 919,-148 919,-42 732,-42"/>
<polygon fill="#f5f5f5" stroke="transparent" points="732.5,-126 732.5,-148 919.5,-148 919.5,-126 732.5,-126"/>
<polygon fill="none" stroke="black" points="732.5,-126 732.5,-148 919.5,-148 919.5,-126 732.5,-126"/>
<text text-anchor="start" x="737.5" y="-135.2" font-family="Helvetica,sans-Serif" font-weight="bold" font-size="11.00">artefact_shape_owner</text>
<text text-anchor="start" x="877.5" y="-134.2" font-family="Helvetica,sans-Serif" font-size="11.00">[table]</text>
<polygon fill="none" stroke="black" points="732.5,-104 732.5,-126 919.5,-126 919.5,-104 732.5,-104"/>
<image xlink:href="../../images/primaryKeys.png" width="11px" height="12px" preserveAspectRatio="xMinYMin meet" x="737.5" y="-121"/>
<text text-anchor="start" x="761.5" y="-112.2" font-family="Helvetica,sans-Serif" font-size="11.00">artefact_shape_id</text>
<polygon fill="#ffffff" stroke="transparent" points="732.5,-82 732.5,-104 919.5,-104 919.5,-82 732.5,-82"/>
<polygon fill="none" stroke="black" points="732.5,-82 732.5,-104 919.5,-104 919.5,-82 732.5,-82"/>
<image xlink:href="../../images/foreignKeys.png" width="11px" height="12px" preserveAspectRatio="xMinYMin meet" x="737.5" y="-99"/>
<text text-anchor="start" x="761.5" y="-90.2" font-family="Helvetica,sans-Serif" font-size="11.00">edition_editor_id</text>
<polygon fill="none" stroke="black" points="732.5,-60 732.5,-82 919.5,-82 919.5,-60 732.5,-60"/>
<image xlink:href="../../images/primaryKeys.png" width="11px" height="12px" preserveAspectRatio="xMinYMin meet" x="737.5" y="-77"/>
<text text-anchor="start" x="761.5" y="-68.2" font-family="Helvetica,sans-Serif" font-size="11.00">edition_id</text>
<polygon fill="#ffffff" stroke="transparent" points="732.5,-42 732.5,-60 794.5,-60 794.5,-42 732.5,-42"/>
<polygon fill="none" stroke="black" points="732.5,-42 732.5,-60 794.5,-60 794.5,-42 732.5,-42"/>
<text text-anchor="start" x="735.5" y="-48.2" font-family="Helvetica,sans-Serif" font-size="11.00">&lt; 3</text>
<polygon fill="#ffffff" stroke="transparent" points="794.5,-42 794.5,-60 886.5,-60 886.5,-42 794.5,-42"/>
<polygon fill="none" stroke="black" points="794.5,-42 794.5,-60 886.5,-60 886.5,-42 794.5,-42"/>
<text text-anchor="start" x="815.5" y="-48.2" font-family="Helvetica,sans-Serif" font-size="11.00">27,810 rows</text>
<polygon fill="#ffffff" stroke="transparent" points="886.5,-42 886.5,-60 919.5,-60 919.5,-42 886.5,-42"/>
<polygon fill="none" stroke="black" points="886.5,-42 886.5,-60 919.5,-60 919.5,-42 886.5,-42"/>
<text text-anchor="start" x="908.5" y="-48.2" font-family="Helvetica,sans-Serif" font-size="11.00"> &#160;</text>
</a>
</g>
</g>
<!-- artefact_shape_owner&#45;&gt;artefact_shape -->
<g id="edge6" class="edge">
<title>artefact_shape_owner:w&#45;&gt;artefact_shape:e</title>
<path fill="none" stroke="black" d="M718.05,-120.33C675.38,-161.09 746.19,-422 682.5,-422"/>
<polygon fill="black" stroke="black" points="724.06,-117.95 732.83,-118.35 727.78,-116.47 731.5,-115 731.5,-115 731.5,-115 727.78,-116.47 730.17,-111.65 724.06,-117.95 724.06,-117.95"/>
<ellipse fill="none" stroke="black" cx="721.09" cy="-119.13" rx="3.2" ry="3.2"/>
</g>
<!-- edition_editor -->
<g id="node8" class="node">
<title>edition_editor</title>
<g id="a_node8"><a xlink:href="../../tables/edition_editor.html" xlink:title="edition_editor" target="_top">
<polygon fill="#ffffff" stroke="transparent" points="465.5,-66 465.5,-124 601.5,-124 601.5,-66 465.5,-66"/>
<polygon fill="#f5f5f5" stroke="transparent" points="465.5,-102 465.5,-124 601.5,-124 601.5,-102 465.5,-102"/>
<polygon fill="none" stroke="black" points="465.5,-102 465.5,-124 601.5,-124 601.5,-102 465.5,-102"/>
<text text-anchor="start" x="470.5" y="-111.2" font-family="Helvetica,sans-Serif" font-weight="bold" font-size="11.00">edition_editor</text>
<text text-anchor="start" x="559.5" y="-110.2" font-family="Helvetica,sans-Serif" font-size="11.00">[table]</text>
<polygon fill="none" stroke="black" points="465.5,-84 465.5,-102 601.5,-102 601.5,-84 465.5,-84"/>
<text text-anchor="start" x="468.5" y="-90.2" font-family="Helvetica,sans-Serif" font-size="11.00">...</text>
<polygon fill="#ffffff" stroke="transparent" points="465.5,-66 465.5,-84 496.5,-84 496.5,-66 465.5,-66"/>
<polygon fill="none" stroke="black" points="465.5,-66 465.5,-84 496.5,-84 496.5,-66 465.5,-66"/>
<text text-anchor="start" x="468.5" y="-72.2" font-family="Helvetica,sans-Serif" font-size="11.00">&lt; 2</text>
<polygon fill="#ffffff" stroke="transparent" points="496.5,-66 496.5,-84 565.5,-84 565.5,-66 496.5,-66"/>
<polygon fill="none" stroke="black" points="496.5,-66 496.5,-84 565.5,-84 565.5,-66 496.5,-66"/>
<text text-anchor="start" x="501.5" y="-72.2" font-family="Helvetica,sans-Serif" font-size="11.00">1,645 rows</text>
<polygon fill="#ffffff" stroke="transparent" points="565.5,-66 565.5,-84 601.5,-84 601.5,-66 565.5,-66"/>
<polygon fill="none" stroke="black" points="565.5,-66 565.5,-84 601.5,-84 601.5,-66 565.5,-66"/>
<text text-anchor="start" x="571.5" y="-72.2" font-family="Helvetica,sans-Serif" font-size="11.00">33 &gt;</text>
</a>
</g>
</g>
<!-- artefact_shape_owner&#45;&gt;edition_editor -->
<g id="edge7" class="edge">
<title>artefact_shape_owner:w&#45;&gt;edition_editor:e</title>
<path fill="none" stroke="black" d="M717.03,-93C671.24,-93 654.68,-93 602.5,-93"/>
<polygon fill="black" stroke="black" points="723.5,-93 731.5,-96.6 727.5,-93 731.5,-93 731.5,-93 731.5,-93 727.5,-93 731.5,-89.4 723.5,-93 723.5,-93"/>
<ellipse fill="none" stroke="black" cx="720.3" cy="-93" rx="3.2" ry="3.2"/>
</g>
<!-- edition -->
<g id="node9" class="node">
<title>edition</title>
<g id="a_node9"><a xlink:href="../../tables/edition.html" xlink:title="edition" target="_top">
<polygon fill="#ffffff" stroke="transparent" points="203,-37 203,-95 329,-95 329,-37 203,-37"/>
<polygon fill="#f5f5f5" stroke="transparent" points="203,-73 203,-95 329,-95 329,-73 203,-73"/>
<polygon fill="none" stroke="black" points="203,-73 203,-95 329,-95 329,-73 203,-73"/>
<text text-anchor="start" x="208" y="-82.2" font-family="Helvetica,sans-Serif" font-weight="bold" font-size="11.00">edition</text>
<text text-anchor="start" x="287" y="-81.2" font-family="Helvetica,sans-Serif" font-size="11.00">[table]</text>
<polygon fill="none" stroke="black" points="203,-55 203,-73 329,-73 329,-55 203,-55"/>
<text text-anchor="start" x="206" y="-61.2" font-family="Helvetica,sans-Serif" font-size="11.00">...</text>
<polygon fill="#ffffff" stroke="transparent" points="203,-37 203,-55 229,-55 229,-37 203,-37"/>
<polygon fill="none" stroke="black" points="203,-37 203,-55 229,-55 229,-37 203,-37"/>
<text text-anchor="start" x="206" y="-43.2" font-family="Helvetica,sans-Serif" font-size="11.00">&lt; 1</text>
<polygon fill="#ffffff" stroke="transparent" points="229,-37 229,-55 296,-55 296,-37 229,-37"/>
<polygon fill="none" stroke="black" points="229,-37 229,-55 296,-55 296,-37 229,-37"/>
<text text-anchor="start" x="232" y="-43.2" font-family="Helvetica,sans-Serif" font-size="11.00">1,645 rows</text>
<polygon fill="#ffffff" stroke="transparent" points="296,-37 296,-55 329,-55 329,-37 296,-37"/>
<polygon fill="none" stroke="black" points="296,-37 296,-55 329,-55 329,-37 296,-37"/>
<text text-anchor="start" x="299" y="-43.2" font-family="Helvetica,sans-Serif" font-size="11.00">35 &gt;</text>
</a>
</g>
</g>
<!-- artefact_shape_owner&#45;&gt;edition -->
<g id="edge8" class="edge">
<title>artefact_shape_owner:w&#45;&gt;edition:e</title>
<path fill="none" stroke="black" d="M717.36,-68.02C709.16,-64.12 704.07,-57.49 691,-55 553.47,-28.82 515.35,-41.5 376,-55 355.27,-57.01 350.83,-64 330,-64"/>
<polygon fill="black" stroke="black" points="723.67,-69.35 730.76,-74.52 727.59,-70.17 731.5,-71 731.5,-71 731.5,-71 727.59,-70.17 732.24,-67.48 723.67,-69.35 723.67,-69.35"/>
<ellipse fill="none" stroke="black" cx="720.54" cy="-68.69" rx="3.2" ry="3.2"/>
</g>
<!-- edition_editor&#45;&gt;edition -->
<g id="edge12" class="edge">
<title>edition_editor:w&#45;&gt;edition:e</title>
<path fill="none" stroke="black" d="M450.07,-92.42C400.95,-88.33 386.02,-64 330,-64"/>
<polygon fill="black" stroke="black" points="456.51,-92.68 464.36,-96.6 460.5,-92.84 464.5,-93 464.5,-93 464.5,-93 460.5,-92.84 464.64,-89.4 456.51,-92.68 456.51,-92.68"/>
<ellipse fill="none" stroke="black" cx="453.31" cy="-92.55" rx="3.2" ry="3.2"/>
</g>
<!-- artefact_stack -->
<g id="node10" class="node">
<title>artefact_stack</title>
<g id="a_node10"><a xlink:href="../../tables/artefact_stack.html" xlink:title="artefact_stack" target="_top">
<polygon fill="#ffffff" stroke="transparent" points="463.5,-636 463.5,-694 603.5,-694 603.5,-636 463.5,-636"/>
<polygon fill="#f5f5f5" stroke="transparent" points="463.5,-672 463.5,-694 603.5,-694 603.5,-672 463.5,-672"/>
<polygon fill="none" stroke="black" points="463.5,-672 463.5,-694 603.5,-694 603.5,-672 463.5,-672"/>
<text text-anchor="start" x="468.5" y="-681.2" font-family="Helvetica,sans-Serif" font-weight="bold" font-size="11.00">artefact_stack</text>
<text text-anchor="start" x="561.5" y="-680.2" font-family="Helvetica,sans-Serif" font-size="11.00">[table]</text>
<polygon fill="none" stroke="black" points="463.5,-654 463.5,-672 603.5,-672 603.5,-654 463.5,-654"/>
<text text-anchor="start" x="466.5" y="-660.2" font-family="Helvetica,sans-Serif" font-size="11.00">...</text>
<polygon fill="#ffffff" stroke="transparent" points="463.5,-636 463.5,-654 496.5,-654 496.5,-636 463.5,-636"/>
<polygon fill="none" stroke="black" points="463.5,-636 463.5,-654 496.5,-654 496.5,-636 463.5,-636"/>
<text text-anchor="start" x="466.5" y="-642.2" font-family="Helvetica,sans-Serif" font-size="11.00">&lt; 2</text>
<polygon fill="#ffffff" stroke="transparent" points="496.5,-636 496.5,-654 573.5,-654 573.5,-636 496.5,-636"/>
<polygon fill="none" stroke="black" points="496.5,-636 496.5,-654 573.5,-654 573.5,-636 496.5,-636"/>
<text text-anchor="start" x="502.5" y="-642.2" font-family="Helvetica,sans-Serif" font-size="11.00">22,748 rows</text>
<polygon fill="#ffffff" stroke="transparent" points="573.5,-636 573.5,-654 603.5,-654 603.5,-636 573.5,-636"/>
<polygon fill="none" stroke="black" points="573.5,-636 573.5,-654 603.5,-654 603.5,-636 573.5,-636"/>
<text text-anchor="start" x="580.5" y="-642.2" font-family="Helvetica,sans-Serif" font-size="11.00">1 &gt;</text>
</a>
</g>
</g>
<!-- artefact_stack&#45;&gt;artefact -->
<g id="edge9" class="edge">
<title>artefact_stack:w&#45;&gt;artefact:e</title>
<path fill="none" stroke="black" d="M447.91,-661.62C398.03,-657.04 380.39,-657.5 324,-663"/>
<polygon fill="black" stroke="black" points="454.54,-662.24 462.16,-666.58 458.52,-662.62 462.5,-663 462.5,-663 462.5,-663 458.52,-662.62 462.84,-659.42 454.54,-662.24 454.54,-662.24"/>
<ellipse fill="none" stroke="black" cx="451.35" cy="-661.94" rx="3.2" ry="3.2"/>
</g>
<!-- artefact_stack&#45;&gt;artefact -->
<g id="edge10" class="edge">
<title>artefact_stack:w&#45;&gt;artefact:e</title>
<path fill="none" stroke="black" d="M447.91,-664.62C398.03,-669.95 380.39,-669.41 324,-663"/>
<polygon fill="black" stroke="black" points="454.55,-663.88 462.9,-666.58 458.52,-663.44 462.5,-663 462.5,-663 462.5,-663 458.52,-663.44 462.1,-659.42 454.55,-663.88 454.55,-663.88"/>
<ellipse fill="none" stroke="black" cx="451.37" cy="-664.23" rx="3.2" ry="3.2"/>
</g>
<!-- artefact_status -->
<g id="node11" class="node">
<title>artefact_status</title>
<g id="a_node11"><a xlink:href="../../tables/artefact_status.html" xlink:title="artefact_status" target="_top">
<polygon fill="#ffffff" stroke="transparent" points="461,-557 461,-615 606,-615 606,-557 461,-557"/>
<polygon fill="#f5f5f5" stroke="transparent" points="461.5,-593 461.5,-615 606.5,-615 606.5,-593 461.5,-593"/>
<polygon fill="none" stroke="black" points="461.5,-593 461.5,-615 606.5,-615 606.5,-593 461.5,-593"/>
<text text-anchor="start" x="466.5" y="-602.2" font-family="Helvetica,sans-Serif" font-weight="bold" font-size="11.00">artefact_status</text>
<text text-anchor="start" x="564.5" y="-601.2" font-family="Helvetica,sans-Serif" font-size="11.00">[table]</text>
<polygon fill="none" stroke="black" points="461.5,-575 461.5,-593 606.5,-593 606.5,-575 461.5,-575"/>
<text text-anchor="start" x="464.5" y="-581.2" font-family="Helvetica,sans-Serif" font-size="11.00">...</text>
<polygon fill="#ffffff" stroke="transparent" points="461.5,-557 461.5,-575 512.5,-575 512.5,-557 461.5,-557"/>
<polygon fill="none" stroke="black" points="461.5,-557 461.5,-575 512.5,-575 512.5,-557 461.5,-557"/>
<text text-anchor="start" x="464.5" y="-563.2" font-family="Helvetica,sans-Serif" font-size="11.00">&lt; 2</text>
<polygon fill="#ffffff" stroke="transparent" points="512.5,-557 512.5,-575 567.5,-575 567.5,-557 512.5,-557"/>
<polygon fill="none" stroke="black" points="512.5,-557 512.5,-575 567.5,-575 567.5,-557 512.5,-557"/>
<text text-anchor="start" x="527.5" y="-563.2" font-family="Helvetica,sans-Serif" font-size="11.00">0 rows</text>
<polygon fill="#ffffff" stroke="transparent" points="567.5,-557 567.5,-575 606.5,-575 606.5,-557 567.5,-557"/>
<polygon fill="none" stroke="black" points="567.5,-557 567.5,-575 606.5,-575 606.5,-557 567.5,-557"/>
<text text-anchor="start" x="583.5" y="-563.2" font-family="Helvetica,sans-Serif" font-size="11.00">1 &gt;</text>
</a>
</g>
</g>
<!-- artefact_status&#45;&gt;artefact -->
<g id="edge11" class="edge">
<title>artefact_status:w&#45;&gt;artefact:e</title>
<path fill="none" stroke="black" d="M445.91,-584.98C416.37,-589.29 407.34,-607.22 376,-626 351.67,-640.58 352.36,-663 324,-663"/>
<polygon fill="black" stroke="black" points="452.52,-584.53 460.74,-587.59 456.51,-584.27 460.5,-584 460.5,-584 460.5,-584 456.51,-584.27 460.26,-580.41 452.52,-584.53 452.52,-584.53"/>
<ellipse fill="none" stroke="black" cx="449.33" cy="-584.75" rx="3.2" ry="3.2"/>
</g>
<!-- image_to_image_map -->
<g id="node12" class="node">
<title>image_to_image_map</title>
<g id="a_node12"><a xlink:href="../../tables/image_to_image_map.html" xlink:title="image_to_image_map" target="_top">
<polygon fill="#ffffff" stroke="transparent" points="443,-224 443,-282 624,-282 624,-224 443,-224"/>
<polygon fill="#f5f5f5" stroke="transparent" points="443.5,-260 443.5,-282 624.5,-282 624.5,-260 443.5,-260"/>
<polygon fill="none" stroke="black" points="443.5,-260 443.5,-282 624.5,-282 624.5,-260 443.5,-260"/>
<text text-anchor="start" x="448.5" y="-269.2" font-family="Helvetica,sans-Serif" font-weight="bold" font-size="11.00">image_to_image_map</text>
<text text-anchor="start" x="582.5" y="-268.2" font-family="Helvetica,sans-Serif" font-size="11.00">[table]</text>
<polygon fill="none" stroke="black" points="443.5,-242 443.5,-260 624.5,-260 624.5,-242 443.5,-242"/>
<text text-anchor="start" x="446.5" y="-248.2" font-family="Helvetica,sans-Serif" font-size="11.00">...</text>
<polygon fill="#ffffff" stroke="transparent" points="443.5,-224 443.5,-242 496.5,-242 496.5,-224 443.5,-224"/>
<polygon fill="none" stroke="black" points="443.5,-224 443.5,-242 496.5,-242 496.5,-224 443.5,-224"/>
<text text-anchor="start" x="446.5" y="-230.2" font-family="Helvetica,sans-Serif" font-size="11.00">&lt; 2</text>
<polygon fill="#ffffff" stroke="transparent" points="496.5,-224 496.5,-242 584.5,-242 584.5,-224 496.5,-224"/>
<polygon fill="none" stroke="black" points="496.5,-224 496.5,-242 584.5,-242 584.5,-224 496.5,-224"/>
<text text-anchor="start" x="513.5" y="-230.2" font-family="Helvetica,sans-Serif" font-size="11.00">69,272 rows</text>
<polygon fill="#ffffff" stroke="transparent" points="584.5,-224 584.5,-242 624.5,-242 624.5,-224 584.5,-224"/>
<polygon fill="none" stroke="black" points="584.5,-224 584.5,-242 624.5,-242 624.5,-224 584.5,-224"/>
<text text-anchor="start" x="601.5" y="-230.2" font-family="Helvetica,sans-Serif" font-size="11.00">2 &gt;</text>
</a>
</g>
</g>
<!-- image_to_image_map&#45;&gt;SQE_image -->
<g id="edge13" class="edge">
<title>image_to_image_map:w&#45;&gt;SQE_image:e</title>
<path fill="none" stroke="black" d="M428.15,-249.25C392.15,-245.07 378.16,-245.66 336,-251"/>
<polygon fill="black" stroke="black" points="434.56,-250.03 442.06,-254.57 438.53,-250.51 442.5,-251 442.5,-251 442.5,-251 438.53,-250.51 442.94,-247.43 434.56,-250.03 434.56,-250.03"/>
<ellipse fill="none" stroke="black" cx="431.38" cy="-249.64" rx="3.2" ry="3.2"/>
</g>
<!-- image_to_image_map&#45;&gt;SQE_image -->
<g id="edge14" class="edge">
<title>image_to_image_map:w&#45;&gt;SQE_image:e</title>
<path fill="none" stroke="black" d="M428.15,-253.05C392.15,-257.92 378.16,-257.23 336,-251"/>
<polygon fill="black" stroke="black" points="434.58,-252.13 443.01,-254.56 438.54,-251.56 442.5,-251 442.5,-251 442.5,-251 438.54,-251.56 441.99,-247.44 434.58,-252.13 434.58,-252.13"/>
<ellipse fill="none" stroke="black" cx="431.41" cy="-252.58" rx="3.2" ry="3.2"/>
</g>
<!-- roi_position -->
<g id="node13" class="node">
<title>roi_position</title>
<g id="a_node13"><a xlink:href="../../tables/roi_position.html" xlink:title="roi_position" target="_top">
<polygon fill="#ffffff" stroke="transparent" points="472,-478 472,-536 595,-536 595,-478 472,-478"/>
<polygon fill="#f5f5f5" stroke="transparent" points="472.5,-514 472.5,-536 595.5,-536 595.5,-514 472.5,-514"/>
<polygon fill="none" stroke="black" points="472.5,-514 472.5,-536 595.5,-536 595.5,-514 472.5,-514"/>
<text text-anchor="start" x="477.5" y="-523.2" font-family="Helvetica,sans-Serif" font-weight="bold" font-size="11.00">roi_position</text>
<text text-anchor="start" x="553.5" y="-522.2" font-family="Helvetica,sans-Serif" font-size="11.00">[table]</text>
<polygon fill="none" stroke="black" points="472.5,-496 472.5,-514 595.5,-514 595.5,-496 472.5,-496"/>
<text text-anchor="start" x="475.5" y="-502.2" font-family="Helvetica,sans-Serif" font-size="11.00">...</text>
<polygon fill="#ffffff" stroke="transparent" points="472.5,-478 472.5,-496 512.5,-496 512.5,-478 472.5,-478"/>
<polygon fill="none" stroke="black" points="472.5,-478 472.5,-496 512.5,-496 512.5,-478 472.5,-478"/>
<text text-anchor="start" x="475.5" y="-484.2" font-family="Helvetica,sans-Serif" font-size="11.00">&lt; 1</text>
<polygon fill="#ffffff" stroke="transparent" points="512.5,-478 512.5,-496 562.5,-496 562.5,-478 512.5,-478"/>
<polygon fill="none" stroke="black" points="512.5,-478 512.5,-496 562.5,-496 562.5,-478 512.5,-478"/>
<text text-anchor="start" x="522.5" y="-484.2" font-family="Helvetica,sans-Serif" font-size="11.00">0 rows</text>
<polygon fill="#ffffff" stroke="transparent" points="562.5,-478 562.5,-496 595.5,-496 595.5,-478 562.5,-478"/>
<polygon fill="none" stroke="black" points="562.5,-478 562.5,-496 595.5,-496 595.5,-478 562.5,-478"/>
<text text-anchor="start" x="572.5" y="-484.2" font-family="Helvetica,sans-Serif" font-size="11.00">1 &gt;</text>
</a>
</g>
</g>
<!-- roi_position&#45;&gt;artefact -->
<g id="edge15" class="edge">
<title>roi_position:w&#45;&gt;artefact:e</title>
<path fill="none" stroke="black" d="M456.83,-505.38C421.24,-507.41 405.18,-518.03 376,-547 335.91,-586.81 380.5,-663 324,-663"/>
<polygon fill="black" stroke="black" points="463.5,-505.21 471.59,-508.6 467.5,-505.1 471.5,-505 471.5,-505 471.5,-505 467.5,-505.1 471.41,-501.4 463.5,-505.21 463.5,-505.21"/>
<ellipse fill="none" stroke="black" cx="460.3" cy="-505.29" rx="3.2" ry="3.2"/>
</g>
<!-- SQE_image_author -->
<g id="node16" class="node">
<title>SQE_image_author</title>
<g id="a_node16"><a xlink:href="../../tables/SQE_image_author.html" xlink:title="SQE_image_author" target="_top">
<polygon fill="#ffffff" stroke="transparent" points="451,-145 451,-203 616,-203 616,-145 451,-145"/>
<polygon fill="#f5f5f5" stroke="transparent" points="451.5,-181 451.5,-203 616.5,-203 616.5,-181 451.5,-181"/>
<polygon fill="none" stroke="black" points="451.5,-181 451.5,-203 616.5,-203 616.5,-181 451.5,-181"/>
<text text-anchor="start" x="456.5" y="-190.2" font-family="Helvetica,sans-Serif" font-weight="bold" font-size="11.00">SQE_image_author</text>
<text text-anchor="start" x="574.5" y="-189.2" font-family="Helvetica,sans-Serif" font-size="11.00">[table]</text>
<polygon fill="none" stroke="black" points="451.5,-163 451.5,-181 616.5,-181 616.5,-163 451.5,-163"/>
<text text-anchor="start" x="454.5" y="-169.2" font-family="Helvetica,sans-Serif" font-size="11.00">...</text>
<polygon fill="#ffffff" stroke="transparent" points="451.5,-145 451.5,-163 502.5,-163 502.5,-145 451.5,-145"/>
<polygon fill="none" stroke="black" points="451.5,-145 451.5,-163 502.5,-163 502.5,-145 451.5,-145"/>
<text text-anchor="start" x="454.5" y="-151.2" font-family="Helvetica,sans-Serif" font-size="11.00">&lt; 2</text>
<polygon fill="#ffffff" stroke="transparent" points="502.5,-145 502.5,-163 589.5,-163 589.5,-145 502.5,-145"/>
<polygon fill="none" stroke="black" points="502.5,-145 502.5,-163 589.5,-163 589.5,-145 502.5,-145"/>
<text text-anchor="start" x="518.5" y="-151.2" font-family="Helvetica,sans-Serif" font-size="11.00">97,205 rows</text>
<polygon fill="#ffffff" stroke="transparent" points="589.5,-145 589.5,-163 616.5,-163 616.5,-145 589.5,-145"/>
<polygon fill="none" stroke="black" points="589.5,-145 589.5,-163 616.5,-163 616.5,-145 589.5,-145"/>
<text text-anchor="start" x="605.5" y="-151.2" font-family="Helvetica,sans-Serif" font-size="11.00"> &#160;</text>
</a>
</g>
</g>
<!-- SQE_image_author&#45;&gt;SQE_image -->
<g id="edge18" class="edge">
<title>SQE_image_author:w&#45;&gt;SQE_image:e</title>
<path fill="none" stroke="black" d="M439.9,-172.56C411.2,-175.83 403.41,-192.96 376,-213 356.21,-227.47 360.52,-251 336,-251"/>
<polygon fill="black" stroke="black" points="449.49,-168.05 449.91,-176.04 448.32,-176.12 447.89,-168.13 449.49,-168.05"/>
<polyline fill="none" stroke="black" points="450.5,-172 446.51,-172.21 "/>
<ellipse fill="none" stroke="black" cx="443.31" cy="-172.38" rx="3.2" ry="3.2"/>
</g>
</g>
</svg>
