<?xml version="1.0" encoding="UTF-8" standalone="no"?>
<!DOCTYPE svg PUBLIC "-//W3C//DTD SVG 1.1//EN"
 "http://www.w3.org/Graphics/SVG/1.1/DTD/svg11.dtd">
<!-- Generated by graphviz version 2.43.0 (0)
 -->
<!-- Title: oneDegreeRelationshipsDiagram Pages: 1 -->
<svg width="475pt" height="1213pt"
 viewBox="0.00 0.00 475.00 1213.00" xmlns="http://www.w3.org/2000/svg" xmlns:xlink="http://www.w3.org/1999/xlink">
<g id="graph0" class="graph" transform="scale(1 1) rotate(0) translate(4 1209)">
<title>oneDegreeRelationshipsDiagram</title>
<polygon fill="#ffffff" stroke="transparent" points="-4,4 -4,-1209 471,-1209 471,4 -4,4"/>
<text text-anchor="middle" x="79.5" y="-7.2" font-family="Helvetica,sans-Serif" font-size="11.00">Generated by SchemaSpy</text>
<!-- artefact_data -->
<g id="node1" class="node">
<title>artefact_data</title>
<g id="a_node1"><a xlink:href="../../tables/artefact_data.html" xlink:title="artefact_data" target="_top">
<polygon fill="#ffffff" stroke="transparent" points="291.5,-1095 291.5,-1201 425.5,-1201 425.5,-1095 291.5,-1095"/>
<polygon fill="#f5f5f5" stroke="transparent" points="291.5,-1179 291.5,-1201 425.5,-1201 425.5,-1179 291.5,-1179"/>
<polygon fill="none" stroke="black" points="291.5,-1179 291.5,-1201 425.5,-1201 425.5,-1179 291.5,-1179"/>
<text text-anchor="start" x="296.5" y="-1188.2" font-family="Helvetica,sans-Serif" font-weight="bold" font-size="11.00">artefact_data</text>
<text text-anchor="start" x="383.5" y="-1187.2" font-family="Helvetica,sans-Serif" font-size="11.00">[table]</text>
<polygon fill="none" stroke="black" points="291.5,-1157 291.5,-1179 425.5,-1179 425.5,-1157 291.5,-1157"/>
<image xlink:href="../../images/primaryKeys.png" width="11px" height="12px" preserveAspectRatio="xMinYMin meet" x="296.5" y="-1174"/>
<text text-anchor="start" x="313.5" y="-1165.2" font-family="Helvetica,sans-Serif" font-size="11.00">artefact_data_id</text>
<polygon fill="#ffffff" stroke="transparent" points="291.5,-1135 291.5,-1157 425.5,-1157 425.5,-1135 291.5,-1135"/>
<polygon fill="none" stroke="black" points="291.5,-1135 291.5,-1157 425.5,-1157 425.5,-1135 291.5,-1135"/>
<image xlink:href="../../images/foreignKeys.png" width="11px" height="12px" preserveAspectRatio="xMinYMin meet" x="296.5" y="-1152"/>
<text text-anchor="start" x="313.5" y="-1143.2" font-family="Helvetica,sans-Serif" font-size="11.00">artefact_id</text>
<polygon fill="#ffffff" stroke="transparent" points="291.5,-1113 291.5,-1135 425.5,-1135 425.5,-1113 291.5,-1113"/>
<polygon fill="none" stroke="black" points="291.5,-1113 291.5,-1135 425.5,-1135 425.5,-1113 291.5,-1113"/>
<text text-anchor="start" x="313.5" y="-1121.2" font-family="Helvetica,sans-Serif" font-size="11.00">name</text>
<polygon fill="#ffffff" stroke="transparent" points="291.5,-1095 291.5,-1113 321.5,-1113 321.5,-1095 291.5,-1095"/>
<polygon fill="none" stroke="black" points="291.5,-1095 291.5,-1113 321.5,-1113 321.5,-1095 291.5,-1095"/>
<text text-anchor="start" x="294.5" y="-1101.2" font-family="Helvetica,sans-Serif" font-size="11.00">&lt; 1</text>
<polygon fill="#ffffff" stroke="transparent" points="321.5,-1095 321.5,-1113 397.5,-1113 397.5,-1095 321.5,-1095"/>
<polygon fill="none" stroke="black" points="321.5,-1095 321.5,-1113 397.5,-1113 397.5,-1095 321.5,-1095"/>
<text text-anchor="start" x="326.5" y="-1101.2" font-family="Helvetica,sans-Serif" font-size="11.00">26,649 rows</text>
<polygon fill="#ffffff" stroke="transparent" points="397.5,-1095 397.5,-1113 425.5,-1113 425.5,-1095 397.5,-1095"/>
<polygon fill="none" stroke="black" points="397.5,-1095 397.5,-1113 425.5,-1113 425.5,-1095 397.5,-1095"/>
<text text-anchor="start" x="402.5" y="-1101.2" font-family="Helvetica,sans-Serif" font-size="11.00">1 &gt;</text>
</a>
</g>
</g>
<!-- artefact -->
<g id="node2" class="node">
<title>artefact</title>
<g id="a_node2"><a xlink:href="../../tables/artefact.html" xlink:title="artefact" target="_top">
<polygon fill="#ffffff" stroke="transparent" points="8,-544 8,-610 209,-610 209,-544 8,-544"/>
<polygon fill="#f5f5f5" stroke="transparent" points="10.5,-586 10.5,-608 207.5,-608 207.5,-586 10.5,-586"/>
<polygon fill="none" stroke="black" points="10.5,-586 10.5,-608 207.5,-608 207.5,-586 10.5,-586"/>
<text text-anchor="start" x="15.5" y="-595.2" font-family="Helvetica,sans-Serif" font-weight="bold" font-size="11.00">artefact</text>
<text text-anchor="start" x="165.5" y="-594.2" font-family="Helvetica,sans-Serif" font-size="11.00">[table]</text>
<polygon fill="none" stroke="black" points="10.5,-564 10.5,-586 110.5,-586 110.5,-564 10.5,-564"/>
<image xlink:href="../../images/primaryKeys.png" width="11px" height="12px" preserveAspectRatio="xMinYMin meet" x="15.5" y="-581"/>
<text text-anchor="start" x="34.5" y="-572.2" font-family="Helvetica,sans-Serif" font-size="11.00">artefact_id</text>
<polygon fill="none" stroke="black" points="110.5,-564 110.5,-586 207.5,-586 207.5,-564 110.5,-564"/>
<text text-anchor="start" x="113.5" y="-572.2" font-family="Helvetica,sans-Serif" font-size="11.00">int unsigned[10]</text>
<polygon fill="#ffffff" stroke="transparent" points="10.5,-546 10.5,-564 36.5,-564 36.5,-546 10.5,-546"/>
<polygon fill="none" stroke="black" points="10.5,-546 10.5,-564 36.5,-564 36.5,-546 10.5,-546"/>
<text text-anchor="start" x="13.5" y="-552.2" font-family="Helvetica,sans-Serif" font-size="11.00">&lt; 0</text>
<polygon fill="#ffffff" stroke="transparent" points="36.5,-546 36.5,-564 110.5,-564 110.5,-546 36.5,-546"/>
<polygon fill="none" stroke="black" points="36.5,-546 36.5,-564 110.5,-564 110.5,-546 36.5,-546"/>
<text text-anchor="start" x="39.5" y="-552.2" font-family="Helvetica,sans-Serif" font-size="11.00">26,982 rows</text>
<polygon fill="#ffffff" stroke="transparent" points="110.5,-546 110.5,-564 207.5,-564 207.5,-546 110.5,-546"/>
<polygon fill="none" stroke="black" points="110.5,-546 110.5,-564 207.5,-564 207.5,-546 110.5,-546"/>
<text text-anchor="start" x="184.5" y="-552.2" font-family="Helvetica,sans-Serif" font-size="11.00">8 &gt;</text>
<polygon fill="none" stroke="black" stroke-width="2" points="9,-545 9,-609 208,-609 208,-545 9,-545"/>
</a>
</g>
</g>
<!-- artefact_data&#45;&gt;artefact -->
<g id="edge1" class="edge">
<title>artefact_data:w&#45;&gt;artefact:e</title>
<path fill="none" stroke="black" d="M276.34,-1143.36C258.49,-1135.35 258.78,-1110.34 250,-1085 231.38,-1031.28 265.35,-575 208.5,-575"/>
<polygon fill="black" stroke="black" points="282.64,-1144.53 289.84,-1149.54 286.57,-1145.27 290.5,-1146 290.5,-1146 290.5,-1146 286.57,-1145.27 291.16,-1142.46 282.64,-1144.53 282.64,-1144.53"/>
<ellipse fill="none" stroke="black" cx="279.49" cy="-1143.94" rx="3.2" ry="3.2"/>
</g>
<!-- artefact_group_member -->
<g id="node3" class="node">
<title>artefact_group_member</title>
<g id="a_node3"><a xlink:href="../../tables/artefact_group_member.html" xlink:title="artefact_group_member" target="_top">
<polygon fill="#ffffff" stroke="transparent" points="258,-968 258,-1074 459,-1074 459,-968 258,-968"/>
<polygon fill="#f5f5f5" stroke="transparent" points="258.5,-1052 258.5,-1074 459.5,-1074 459.5,-1052 258.5,-1052"/>
<polygon fill="none" stroke="black" points="258.5,-1052 258.5,-1074 459.5,-1074 459.5,-1052 258.5,-1052"/>
<text text-anchor="start" x="263.5" y="-1061.2" font-family="Helvetica,sans-Serif" font-weight="bold" font-size="11.00">artefact_group_member</text>
<text text-anchor="start" x="417.5" y="-1060.2" font-family="Helvetica,sans-Serif" font-size="11.00">[table]</text>
<polygon fill="none" stroke="black" points="258.5,-1030 258.5,-1052 459.5,-1052 459.5,-1030 258.5,-1030"/>
<image xlink:href="../../images/primaryKeys.png" width="11px" height="12px" preserveAspectRatio="xMinYMin meet" x="263.5" y="-1047"/>
<text text-anchor="start" x="278.5" y="-1038.2" font-family="Helvetica,sans-Serif" font-size="11.00">artefact_group_member_id</text>
<polygon fill="#ffffff" stroke="transparent" points="258.5,-1008 258.5,-1030 459.5,-1030 459.5,-1008 258.5,-1008"/>
<polygon fill="none" stroke="black" points="258.5,-1008 258.5,-1030 459.5,-1030 459.5,-1008 258.5,-1008"/>
<image xlink:href="../../images/foreignKeys.png" width="11px" height="12px" preserveAspectRatio="xMinYMin meet" x="263.5" y="-1025"/>
<text text-anchor="start" x="278.5" y="-1016.2" font-family="Helvetica,sans-Serif" font-size="11.00">artefact_group_id</text>
<polygon fill="#ffffff" stroke="transparent" points="258.5,-986 258.5,-1008 459.5,-1008 459.5,-986 258.5,-986"/>
<polygon fill="none" stroke="black" points="258.5,-986 258.5,-1008 459.5,-1008 459.5,-986 258.5,-986"/>
<image xlink:href="../../images/foreignKeys.png" width="11px" height="12px" preserveAspectRatio="xMinYMin meet" x="263.5" y="-1003"/>
<text text-anchor="start" x="278.5" y="-994.2" font-family="Helvetica,sans-Serif" font-size="11.00">artefact_id</text>
<polygon fill="#ffffff" stroke="transparent" points="258.5,-968 258.5,-986 337.5,-986 337.5,-968 258.5,-968"/>
<polygon fill="none" stroke="black" points="258.5,-968 258.5,-986 337.5,-986 337.5,-968 258.5,-968"/>
<text text-anchor="start" x="261.5" y="-974.2" font-family="Helvetica,sans-Serif" font-size="11.00">&lt; 2</text>
<polygon fill="#ffffff" stroke="transparent" points="337.5,-968 337.5,-986 406.5,-986 406.5,-968 337.5,-968"/>
<polygon fill="none" stroke="black" points="337.5,-968 337.5,-986 406.5,-986 406.5,-968 337.5,-968"/>
<text text-anchor="start" x="366.5" y="-974.2" font-family="Helvetica,sans-Serif" font-size="11.00">0 rows</text>
<polygon fill="#ffffff" stroke="transparent" points="406.5,-968 406.5,-986 459.5,-986 459.5,-968 406.5,-968"/>
<polygon fill="none" stroke="black" points="406.5,-968 406.5,-986 459.5,-986 459.5,-968 406.5,-968"/>
<text text-anchor="start" x="436.5" y="-974.2" font-family="Helvetica,sans-Serif" font-size="11.00">1 &gt;</text>
</a>
</g>
</g>
<!-- artefact_group_member&#45;&gt;artefact -->
<g id="edge2" class="edge">
<title>artefact_group_member:w&#45;&gt;artefact:e</title>
<path fill="none" stroke="black" d="M243.63,-993.09C178.18,-950.55 297.56,-575 208.5,-575"/>
<polygon fill="black" stroke="black" points="249.8,-994.83 256.52,-1000.47 253.65,-995.92 257.5,-997 257.5,-997 257.5,-997 253.65,-995.92 258.48,-993.53 249.8,-994.83 249.8,-994.83"/>
<ellipse fill="none" stroke="black" cx="246.72" cy="-993.96" rx="3.2" ry="3.2"/>
</g>
<!-- artefact_position -->
<g id="node4" class="node">
<title>artefact_position</title>
<g id="a_node4"><a xlink:href="../../tables/artefact_position.html" xlink:title="artefact_position" target="_top">
<polygon fill="#ffffff" stroke="transparent" points="279.5,-735 279.5,-947 437.5,-947 437.5,-735 279.5,-735"/>
<polygon fill="#f5f5f5" stroke="transparent" points="279.5,-925 279.5,-947 437.5,-947 437.5,-925 279.5,-925"/>
<polygon fill="none" stroke="black" points="279.5,-925 279.5,-947 437.5,-947 437.5,-925 279.5,-925"/>
<text text-anchor="start" x="284.5" y="-934.2" font-family="Helvetica,sans-Serif" font-weight="bold" font-size="11.00">artefact_position</text>
<text text-anchor="start" x="395.5" y="-933.2" font-family="Helvetica,sans-Serif" font-size="11.00">[table]</text>
<polygon fill="none" stroke="black" points="279.5,-903 279.5,-925 437.5,-925 437.5,-903 279.5,-903"/>
<image xlink:href="../../images/primaryKeys.png" width="11px" height="12px" preserveAspectRatio="xMinYMin meet" x="284.5" y="-920"/>
<text text-anchor="start" x="299.5" y="-911.2" font-family="Helvetica,sans-Serif" font-size="11.00">artefact_position_id</text>
<polygon fill="#ffffff" stroke="transparent" points="279.5,-881 279.5,-903 437.5,-903 437.5,-881 279.5,-881"/>
<polygon fill="none" stroke="black" points="279.5,-881 279.5,-903 437.5,-903 437.5,-881 279.5,-881"/>
<image xlink:href="../../images/foreignKeys.png" width="11px" height="12px" preserveAspectRatio="xMinYMin meet" x="284.5" y="-898"/>
<text text-anchor="start" x="299.5" y="-889.2" font-family="Helvetica,sans-Serif" font-size="11.00">artefact_id</text>
<polygon fill="#ffffff" stroke="transparent" points="279.5,-859 279.5,-881 437.5,-881 437.5,-859 279.5,-859"/>
<polygon fill="none" stroke="black" points="279.5,-859 279.5,-881 437.5,-881 437.5,-859 279.5,-859"/>
<text text-anchor="start" x="299.5" y="-867.2" font-family="Helvetica,sans-Serif" font-size="11.00">z_index</text>
<polygon fill="#ffffff" stroke="transparent" points="279.5,-837 279.5,-859 437.5,-859 437.5,-837 279.5,-837"/>
<polygon fill="none" stroke="black" points="279.5,-837 279.5,-859 437.5,-859 437.5,-837 279.5,-837"/>
<text text-anchor="start" x="299.5" y="-845.2" font-family="Helvetica,sans-Serif" font-size="11.00">scale</text>
<polygon fill="#ffffff" stroke="transparent" points="279.5,-815 279.5,-837 437.5,-837 437.5,-815 279.5,-815"/>
<polygon fill="none" stroke="black" points="279.5,-815 279.5,-837 437.5,-837 437.5,-815 279.5,-815"/>
<text text-anchor="start" x="299.5" y="-823.2" font-family="Helvetica,sans-Serif" font-size="11.00">rotate</text>
<polygon fill="#ffffff" stroke="transparent" points="279.5,-793 279.5,-815 437.5,-815 437.5,-793 279.5,-793"/>
<polygon fill="none" stroke="black" points="279.5,-793 279.5,-815 437.5,-815 437.5,-793 279.5,-793"/>
<text text-anchor="start" x="299.5" y="-801.2" font-family="Helvetica,sans-Serif" font-size="11.00">translate_x_non_null</text>
<polygon fill="#ffffff" stroke="transparent" points="279.5,-771 279.5,-793 437.5,-793 437.5,-771 279.5,-771"/>
<polygon fill="none" stroke="black" points="279.5,-771 279.5,-793 437.5,-793 437.5,-771 279.5,-771"/>
<text text-anchor="start" x="299.5" y="-779.2" font-family="Helvetica,sans-Serif" font-size="11.00">translate_y_non_null</text>
<polygon fill="none" stroke="black" points="279.5,-753 279.5,-771 437.5,-771 437.5,-753 279.5,-753"/>
<text text-anchor="start" x="282.5" y="-759.2" font-family="Helvetica,sans-Serif" font-size="11.00">...</text>
<polygon fill="#ffffff" stroke="transparent" points="279.5,-735 279.5,-753 336.5,-753 336.5,-735 279.5,-735"/>
<polygon fill="none" stroke="black" points="279.5,-735 279.5,-753 336.5,-753 336.5,-735 279.5,-735"/>
<text text-anchor="start" x="282.5" y="-741.2" font-family="Helvetica,sans-Serif" font-size="11.00">&lt; 1</text>
<polygon fill="#ffffff" stroke="transparent" points="336.5,-735 336.5,-753 395.5,-753 395.5,-735 336.5,-735"/>
<polygon fill="none" stroke="black" points="336.5,-735 336.5,-753 395.5,-753 395.5,-735 336.5,-735"/>
<text text-anchor="start" x="355.5" y="-741.2" font-family="Helvetica,sans-Serif" font-size="11.00">0 rows</text>
<polygon fill="#ffffff" stroke="transparent" points="395.5,-735 395.5,-753 437.5,-753 437.5,-735 395.5,-735"/>
<polygon fill="none" stroke="black" points="395.5,-735 395.5,-753 437.5,-753 437.5,-735 395.5,-735"/>
<text text-anchor="start" x="414.5" y="-741.2" font-family="Helvetica,sans-Serif" font-size="11.00">1 &gt;</text>
</a>
</g>
</g>
<!-- artefact_position&#45;&gt;artefact -->
<g id="edge3" class="edge">
<title>artefact_position:w&#45;&gt;artefact:e</title>
<path fill="none" stroke="black" d="M264.74,-887.02C216.58,-846.69 275.29,-575 208.5,-575"/>
<polygon fill="black" stroke="black" points="270.98,-889.28 277.28,-895.39 274.74,-890.64 278.5,-892 278.5,-892 278.5,-892 274.74,-890.64 279.72,-888.61 270.98,-889.28 270.98,-889.28"/>
<ellipse fill="none" stroke="black" cx="267.97" cy="-888.19" rx="3.2" ry="3.2"/>
</g>
<!-- artefact_shape -->
<g id="node5" class="node">
<title>artefact_shape</title>
<g id="a_node5"><a xlink:href="../../tables/artefact_shape.html" xlink:title="artefact_shape" target="_top">
<polygon fill="#ffffff" stroke="transparent" points="259.5,-568 259.5,-714 457.5,-714 457.5,-568 259.5,-568"/>
<polygon fill="#f5f5f5" stroke="transparent" points="259.5,-692 259.5,-714 457.5,-714 457.5,-692 259.5,-692"/>
<polygon fill="none" stroke="black" points="259.5,-692 259.5,-714 457.5,-714 457.5,-692 259.5,-692"/>
<text text-anchor="start" x="264.5" y="-701.2" font-family="Helvetica,sans-Serif" font-weight="bold" font-size="11.00">artefact_shape</text>
<text text-anchor="start" x="415.5" y="-700.2" font-family="Helvetica,sans-Serif" font-size="11.00">[table]</text>
<polygon fill="none" stroke="black" points="259.5,-670 259.5,-692 457.5,-692 457.5,-670 259.5,-670"/>
<image xlink:href="../../images/primaryKeys.png" width="11px" height="12px" preserveAspectRatio="xMinYMin meet" x="264.5" y="-687"/>
<text text-anchor="start" x="279.5" y="-678.2" font-family="Helvetica,sans-Serif" font-size="11.00">artefact_shape_id</text>
<polygon fill="#ffffff" stroke="transparent" points="259.5,-648 259.5,-670 457.5,-670 457.5,-648 259.5,-648"/>
<polygon fill="none" stroke="black" points="259.5,-648 259.5,-670 457.5,-670 457.5,-648 259.5,-648"/>
<image xlink:href="../../images/foreignKeys.png" width="11px" height="12px" preserveAspectRatio="xMinYMin meet" x="264.5" y="-665"/>
<text text-anchor="start" x="279.5" y="-656.2" font-family="Helvetica,sans-Serif" font-size="11.00">artefact_id</text>
<polygon fill="#ffffff" stroke="transparent" points="259.5,-626 259.5,-648 457.5,-648 457.5,-626 259.5,-626"/>
<polygon fill="none" stroke="black" points="259.5,-626 259.5,-648 457.5,-648 457.5,-626 259.5,-626"/>
<image xlink:href="../../images/foreignKeys.png" width="11px" height="12px" preserveAspectRatio="xMinYMin meet" x="264.5" y="-643"/>
<text text-anchor="start" x="279.5" y="-634.2" font-family="Helvetica,sans-Serif" font-size="11.00">sqe_image_id</text>
<polygon fill="#ffffff" stroke="transparent" points="259.5,-604 259.5,-626 457.5,-626 457.5,-604 259.5,-604"/>
<polygon fill="none" stroke="black" points="259.5,-604 259.5,-626 457.5,-626 457.5,-604 259.5,-604"/>
<text text-anchor="start" x="279.5" y="-612.2" font-family="Helvetica,sans-Serif" font-size="11.00">region_in_sqe_image_hash</text>
<polygon fill="none" stroke="black" points="259.5,-586 259.5,-604 457.5,-604 457.5,-586 259.5,-586"/>
<text text-anchor="start" x="262.5" y="-592.2" font-family="Helvetica,sans-Serif" font-size="11.00">...</text>
<polygon fill="#ffffff" stroke="transparent" points="259.5,-568 259.5,-586 321.5,-586 321.5,-568 259.5,-568"/>
<polygon fill="none" stroke="black" points="259.5,-568 259.5,-586 321.5,-586 321.5,-568 259.5,-568"/>
<text text-anchor="start" x="262.5" y="-574.2" font-family="Helvetica,sans-Serif" font-size="11.00">&lt; 2</text>
<polygon fill="#ffffff" stroke="transparent" points="321.5,-568 321.5,-586 413.5,-586 413.5,-568 321.5,-568"/>
<polygon fill="none" stroke="black" points="321.5,-568 321.5,-586 413.5,-586 413.5,-568 321.5,-568"/>
<text text-anchor="start" x="342.5" y="-574.2" font-family="Helvetica,sans-Serif" font-size="11.00">27,685 rows</text>
<polygon fill="#ffffff" stroke="transparent" points="413.5,-568 413.5,-586 457.5,-586 457.5,-568 413.5,-568"/>
<polygon fill="none" stroke="black" points="413.5,-568 413.5,-586 457.5,-586 457.5,-568 413.5,-568"/>
<text text-anchor="start" x="434.5" y="-574.2" font-family="Helvetica,sans-Serif" font-size="11.00">1 &gt;</text>
</a>
</g>
</g>
<!-- artefact_shape&#45;&gt;artefact -->
<g id="edge4" class="edge">
<title>artefact_shape:w&#45;&gt;artefact:e</title>
<path fill="none" stroke="black" d="M244.49,-654.48C223.84,-637.04 245.84,-575 208.5,-575"/>
<polygon fill="black" stroke="black" points="250.89,-656.55 257.4,-662.43 254.69,-657.77 258.5,-659 258.5,-659 258.5,-659 254.69,-657.77 259.6,-655.57 250.89,-656.55 250.89,-656.55"/>
<ellipse fill="none" stroke="black" cx="247.84" cy="-655.56" rx="3.2" ry="3.2"/>
</g>
<!-- artefact_stack -->
<g id="node6" class="node">
<title>artefact_stack</title>
<g id="a_node6"><a xlink:href="../../tables/artefact_stack.html" xlink:title="artefact_stack" target="_top">
<polygon fill="#ffffff" stroke="transparent" points="288.5,-287 288.5,-547 428.5,-547 428.5,-287 288.5,-287"/>
<polygon fill="#f5f5f5" stroke="transparent" points="288.5,-525 288.5,-547 428.5,-547 428.5,-525 288.5,-525"/>
<polygon fill="none" stroke="black" points="288.5,-525 288.5,-547 428.5,-547 428.5,-525 288.5,-525"/>
<text text-anchor="start" x="293.5" y="-534.2" font-family="Helvetica,sans-Serif" font-weight="bold" font-size="11.00">artefact_stack</text>
<text text-anchor="start" x="386.5" y="-533.2" font-family="Helvetica,sans-Serif" font-size="11.00">[table]</text>
<polygon fill="none" stroke="black" points="288.5,-503 288.5,-525 428.5,-525 428.5,-503 288.5,-503"/>
<image xlink:href="../../images/primaryKeys.png" width="11px" height="12px" preserveAspectRatio="xMinYMin meet" x="293.5" y="-520"/>
<text text-anchor="start" x="311.5" y="-511.2" font-family="Helvetica,sans-Serif" font-size="11.00">artefact_stack_id</text>
<polygon fill="#ffffff" stroke="transparent" points="288.5,-481 288.5,-503 428.5,-503 428.5,-481 288.5,-481"/>
<polygon fill="none" stroke="black" points="288.5,-481 288.5,-503 428.5,-503 428.5,-481 288.5,-481"/>
<image xlink:href="../../images/foreignKeys.png" width="11px" height="12px" preserveAspectRatio="xMinYMin meet" x="293.5" y="-498"/>
<text text-anchor="start" x="311.5" y="-489.2" font-family="Helvetica,sans-Serif" font-size="11.00">artefact_A_id</text>
<polygon fill="#ffffff" stroke="transparent" points="288.5,-459 288.5,-481 428.5,-481 428.5,-459 288.5,-459"/>
<polygon fill="none" stroke="black" points="288.5,-459 288.5,-481 428.5,-481 428.5,-459 288.5,-459"/>
<image xlink:href="../../images/foreignKeys.png" width="11px" height="12px" preserveAspectRatio="xMinYMin meet" x="293.5" y="-476"/>
<text text-anchor="start" x="311.5" y="-467.2" font-family="Helvetica,sans-Serif" font-size="11.00">artefact_B_id</text>
<polygon fill="#ffffff" stroke="transparent" points="288.5,-437 288.5,-459 428.5,-459 428.5,-437 288.5,-437"/>
<polygon fill="none" stroke="black" points="288.5,-437 288.5,-459 428.5,-459 428.5,-437 288.5,-437"/>
<text text-anchor="start" x="311.5" y="-445.2" font-family="Helvetica,sans-Serif" font-size="11.00">artefact_B_offset</text>
<polygon fill="#ffffff" stroke="transparent" points="288.5,-415 288.5,-437 428.5,-437 428.5,-415 288.5,-415"/>
<polygon fill="none" stroke="black" points="288.5,-415 288.5,-437 428.5,-437 428.5,-415 288.5,-415"/>
<text text-anchor="start" x="311.5" y="-423.2" font-family="Helvetica,sans-Serif" font-size="11.00">layer_A</text>
<polygon fill="#ffffff" stroke="transparent" points="288.5,-393 288.5,-415 428.5,-415 428.5,-393 288.5,-393"/>
<polygon fill="none" stroke="black" points="288.5,-393 288.5,-415 428.5,-415 428.5,-393 288.5,-393"/>
<text text-anchor="start" x="311.5" y="-401.2" font-family="Helvetica,sans-Serif" font-size="11.00">layer_B</text>
<polygon fill="#ffffff" stroke="transparent" points="288.5,-371 288.5,-393 428.5,-393 428.5,-371 288.5,-371"/>
<polygon fill="none" stroke="black" points="288.5,-371 288.5,-393 428.5,-393 428.5,-371 288.5,-371"/>
<text text-anchor="start" x="311.5" y="-379.2" font-family="Helvetica,sans-Serif" font-size="11.00">A_is_verso</text>
<polygon fill="#ffffff" stroke="transparent" points="288.5,-349 288.5,-371 428.5,-371 428.5,-349 288.5,-349"/>
<polygon fill="none" stroke="black" points="288.5,-349 288.5,-371 428.5,-371 428.5,-349 288.5,-349"/>
<text text-anchor="start" x="311.5" y="-357.2" font-family="Helvetica,sans-Serif" font-size="11.00">B_is_verso</text>
<polygon fill="#ffffff" stroke="transparent" points="288.5,-327 288.5,-349 428.5,-349 428.5,-327 288.5,-327"/>
<polygon fill="none" stroke="black" points="288.5,-327 288.5,-349 428.5,-349 428.5,-327 288.5,-327"/>
<text text-anchor="start" x="311.5" y="-335.2" font-family="Helvetica,sans-Serif" font-size="11.00">reason</text>
<polygon fill="#ffffff" stroke="transparent" points="288.5,-305 288.5,-327 428.5,-327 428.5,-305 288.5,-305"/>
<polygon fill="none" stroke="black" points="288.5,-305 288.5,-327 428.5,-327 428.5,-305 288.5,-305"/>
<text text-anchor="start" x="311.5" y="-313.2" font-family="Helvetica,sans-Serif" font-size="11.00">shared</text>
<polygon fill="#ffffff" stroke="transparent" points="288.5,-287 288.5,-305 321.5,-305 321.5,-287 288.5,-287"/>
<polygon fill="none" stroke="black" points="288.5,-287 288.5,-305 321.5,-305 321.5,-287 288.5,-287"/>
<text text-anchor="start" x="291.5" y="-293.2" font-family="Helvetica,sans-Serif" font-size="11.00">&lt; 2</text>
<polygon fill="#ffffff" stroke="transparent" points="321.5,-287 321.5,-305 398.5,-305 398.5,-287 321.5,-287"/>
<polygon fill="none" stroke="black" points="321.5,-287 321.5,-305 398.5,-305 398.5,-287 321.5,-287"/>
<text text-anchor="start" x="327.5" y="-293.2" font-family="Helvetica,sans-Serif" font-size="11.00">22,748 rows</text>
<polygon fill="#ffffff" stroke="transparent" points="398.5,-287 398.5,-305 428.5,-305 428.5,-287 398.5,-287"/>
<polygon fill="none" stroke="black" points="398.5,-287 398.5,-305 428.5,-305 428.5,-287 398.5,-287"/>
<text text-anchor="start" x="405.5" y="-293.2" font-family="Helvetica,sans-Serif" font-size="11.00">1 &gt;</text>
</a>
</g>
</g>
<!-- artefact_stack&#45;&gt;artefact -->
<g id="edge5" class="edge">
<title>artefact_stack:w&#45;&gt;artefact:e</title>
<path fill="none" stroke="black" d="M273.24,-494.76C240.69,-509.16 253.86,-575 208.5,-575"/>
<polygon fill="black" stroke="black" points="279.65,-493.52 288.18,-495.53 283.57,-492.76 287.5,-492 287.5,-492 287.5,-492 283.57,-492.76 286.82,-488.47 279.65,-493.52 279.65,-493.52"/>
<ellipse fill="none" stroke="black" cx="276.5" cy="-494.13" rx="3.2" ry="3.2"/>
</g>
<!-- artefact_stack&#45;&gt;artefact -->
<g id="edge6" class="edge">
<title>artefact_stack:w&#45;&gt;artefact:e</title>
<path fill="none" stroke="black" d="M272.96,-472.81C235.57,-489.51 261.2,-575 208.5,-575"/>
<polygon fill="black" stroke="black" points="279.65,-471.52 288.18,-473.53 283.57,-470.76 287.5,-470 287.5,-470 287.5,-470 283.57,-470.76 286.82,-466.47 279.65,-471.52 279.65,-471.52"/>
<ellipse fill="none" stroke="black" cx="276.5" cy="-472.12" rx="3.2" ry="3.2"/>
</g>
<!-- artefact_status -->
<g id="node7" class="node">
<title>artefact_status</title>
<g id="a_node7"><a xlink:href="../../tables/artefact_status.html" xlink:title="artefact_status" target="_top">
<polygon fill="#ffffff" stroke="transparent" points="286,-160 286,-266 431,-266 431,-160 286,-160"/>
<polygon fill="#f5f5f5" stroke="transparent" points="286.5,-244 286.5,-266 431.5,-266 431.5,-244 286.5,-244"/>
<polygon fill="none" stroke="black" points="286.5,-244 286.5,-266 431.5,-266 431.5,-244 286.5,-244"/>
<text text-anchor="start" x="291.5" y="-253.2" font-family="Helvetica,sans-Serif" font-weight="bold" font-size="11.00">artefact_status</text>
<text text-anchor="start" x="389.5" y="-252.2" font-family="Helvetica,sans-Serif" font-size="11.00">[table]</text>
<polygon fill="none" stroke="black" points="286.5,-222 286.5,-244 431.5,-244 431.5,-222 286.5,-222"/>
<image xlink:href="../../images/primaryKeys.png" width="11px" height="12px" preserveAspectRatio="xMinYMin meet" x="291.5" y="-239"/>
<text text-anchor="start" x="308.5" y="-230.2" font-family="Helvetica,sans-Serif" font-size="11.00">artefact_status_id</text>
<polygon fill="#ffffff" stroke="transparent" points="286.5,-200 286.5,-222 431.5,-222 431.5,-200 286.5,-200"/>
<polygon fill="none" stroke="black" points="286.5,-200 286.5,-222 431.5,-222 431.5,-200 286.5,-200"/>
<image xlink:href="../../images/foreignKeys.png" width="11px" height="12px" preserveAspectRatio="xMinYMin meet" x="291.5" y="-217"/>
<text text-anchor="start" x="308.5" y="-208.2" font-family="Helvetica,sans-Serif" font-size="11.00">work_status_id</text>
<polygon fill="#ffffff" stroke="transparent" points="286.5,-178 286.5,-200 431.5,-200 431.5,-178 286.5,-178"/>
<polygon fill="none" stroke="black" points="286.5,-178 286.5,-200 431.5,-200 431.5,-178 286.5,-178"/>
<image xlink:href="../../images/foreignKeys.png" width="11px" height="12px" preserveAspectRatio="xMinYMin meet" x="291.5" y="-195"/>
<text text-anchor="start" x="308.5" y="-186.2" font-family="Helvetica,sans-Serif" font-size="11.00">artefact_id</text>
<polygon fill="#ffffff" stroke="transparent" points="286.5,-160 286.5,-178 337.5,-178 337.5,-160 286.5,-160"/>
<polygon fill="none" stroke="black" points="286.5,-160 286.5,-178 337.5,-178 337.5,-160 286.5,-160"/>
<text text-anchor="start" x="289.5" y="-166.2" font-family="Helvetica,sans-Serif" font-size="11.00">&lt; 2</text>
<polygon fill="#ffffff" stroke="transparent" points="337.5,-160 337.5,-178 392.5,-178 392.5,-160 337.5,-160"/>
<polygon fill="none" stroke="black" points="337.5,-160 337.5,-178 392.5,-178 392.5,-160 337.5,-160"/>
<text text-anchor="start" x="352.5" y="-166.2" font-family="Helvetica,sans-Serif" font-size="11.00">0 rows</text>
<polygon fill="#ffffff" stroke="transparent" points="392.5,-160 392.5,-178 431.5,-178 431.5,-160 392.5,-160"/>
<polygon fill="none" stroke="black" points="392.5,-160 392.5,-178 431.5,-178 431.5,-160 392.5,-160"/>
<text text-anchor="start" x="408.5" y="-166.2" font-family="Helvetica,sans-Serif" font-size="11.00">1 &gt;</text>
</a>
</g>
</g>
<!-- artefact_status&#45;&gt;artefact -->
<g id="edge7" class="edge">
<title>artefact_status:w&#45;&gt;artefact:e</title>
<path fill="none" stroke="black" d="M271.57,-193.07C209.21,-234.33 290.67,-575 208.5,-575"/>
<polygon fill="black" stroke="black" points="277.82,-191.25 286.51,-192.46 281.66,-190.12 285.5,-189 285.5,-189 285.5,-189 281.66,-190.12 284.49,-185.54 277.82,-191.25 277.82,-191.25"/>
<ellipse fill="none" stroke="black" cx="274.75" cy="-192.14" rx="3.2" ry="3.2"/>
</g>
<!-- roi_position -->
<g id="node8" class="node">
<title>roi_position</title>
<g id="a_node8"><a xlink:href="../../tables/roi_position.html" xlink:title="roi_position" target="_top">
<polygon fill="#ffffff" stroke="transparent" points="295.5,-37 295.5,-139 421.5,-139 421.5,-37 295.5,-37"/>
<polygon fill="#f5f5f5" stroke="transparent" points="295.5,-117 295.5,-139 421.5,-139 421.5,-117 295.5,-117"/>
<polygon fill="none" stroke="black" points="295.5,-117 295.5,-139 421.5,-139 421.5,-117 295.5,-117"/>
<text text-anchor="start" x="300.5" y="-126.2" font-family="Helvetica,sans-Serif" font-weight="bold" font-size="11.00">roi_position</text>
<text text-anchor="start" x="379.5" y="-125.2" font-family="Helvetica,sans-Serif" font-size="11.00">[table]</text>
<polygon fill="none" stroke="black" points="295.5,-95 295.5,-117 421.5,-117 421.5,-95 295.5,-95"/>
<image xlink:href="../../images/primaryKeys.png" width="11px" height="12px" preserveAspectRatio="xMinYMin meet" x="300.5" y="-112"/>
<text text-anchor="start" x="315.5" y="-103.2" font-family="Helvetica,sans-Serif" font-size="11.00">roi_position_id</text>
<polygon fill="#ffffff" stroke="transparent" points="295.5,-73 295.5,-95 421.5,-95 421.5,-73 295.5,-73"/>
<polygon fill="none" stroke="black" points="295.5,-73 295.5,-95 421.5,-95 421.5,-73 295.5,-73"/>
<image xlink:href="../../images/foreignKeys.png" width="11px" height="12px" preserveAspectRatio="xMinYMin meet" x="300.5" y="-90"/>
<text text-anchor="start" x="315.5" y="-81.2" font-family="Helvetica,sans-Serif" font-size="11.00">artefact_id</text>
<polygon fill="none" stroke="black" points="295.5,-55 295.5,-73 421.5,-73 421.5,-55 295.5,-55"/>
<text text-anchor="start" x="298.5" y="-61.2" font-family="Helvetica,sans-Serif" font-size="11.00">...</text>
<polygon fill="#ffffff" stroke="transparent" points="295.5,-37 295.5,-55 336.5,-55 336.5,-37 295.5,-37"/>
<polygon fill="none" stroke="black" points="295.5,-37 295.5,-55 336.5,-55 336.5,-37 295.5,-37"/>
<text text-anchor="start" x="298.5" y="-43.2" font-family="Helvetica,sans-Serif" font-size="11.00">&lt; 1</text>
<polygon fill="#ffffff" stroke="transparent" points="336.5,-37 336.5,-55 387.5,-55 387.5,-37 336.5,-37"/>
<polygon fill="none" stroke="black" points="336.5,-37 336.5,-55 387.5,-55 387.5,-37 336.5,-37"/>
<text text-anchor="start" x="347.5" y="-43.2" font-family="Helvetica,sans-Serif" font-size="11.00">0 rows</text>
<polygon fill="#ffffff" stroke="transparent" points="387.5,-37 387.5,-55 421.5,-55 421.5,-37 387.5,-37"/>
<polygon fill="none" stroke="black" points="387.5,-37 387.5,-55 421.5,-55 421.5,-37 387.5,-37"/>
<text text-anchor="start" x="398.5" y="-43.2" font-family="Helvetica,sans-Serif" font-size="11.00">1 &gt;</text>
</a>
</g>
</g>
<!-- roi_position&#45;&gt;artefact -->
<g id="edge8" class="edge">
<title>roi_position:w&#45;&gt;artefact:e</title>
<path fill="none" stroke="black" d="M280.23,-86.39C259.66,-94.49 260.06,-122.04 250,-150 233.94,-194.65 255.95,-575 208.5,-575"/>
<polygon fill="black" stroke="black" points="286.61,-85.32 295.09,-87.55 290.55,-84.66 294.5,-84 294.5,-84 294.5,-84 290.55,-84.66 293.91,-80.45 286.61,-85.32 286.61,-85.32"/>
<ellipse fill="none" stroke="black" cx="283.45" cy="-85.85" rx="3.2" ry="3.2"/>
</g>
</g>
</svg>
