<?xml version="1.0" encoding="UTF-8" standalone="no"?>
<!DOCTYPE svg PUBLIC "-//W3C//DTD SVG 1.1//EN"
 "http://www.w3.org/Graphics/SVG/1.1/DTD/svg11.dtd">
<!-- Generated by graphviz version 2.43.0 (0)
 -->
<!-- Title: oneDegreeRelationshipsDiagram Pages: 1 -->
<svg width="789pt" height="327pt"
 viewBox="0.00 0.00 789.00 327.00" xmlns="http://www.w3.org/2000/svg" xmlns:xlink="http://www.w3.org/1999/xlink">
<g id="graph0" class="graph" transform="scale(1 1) rotate(0) translate(4 323)">
<title>oneDegreeRelationshipsDiagram</title>
<polygon fill="#ffffff" stroke="transparent" points="-4,4 -4,-323 785,-323 785,4 -4,4"/>
<text text-anchor="middle" x="79.5" y="-7.2" font-family="Helvetica,sans-Serif" font-size="11.00">Generated by SchemaSpy</text>
<!-- artefact_group_member_owner -->
<g id="node1" class="node">
<title>artefact_group_member_owner</title>
<g id="a_node1"><a xlink:href="../../tables/artefact_group_member_owner.html" xlink:title="artefact_group_member_owner" target="_top">
<polygon fill="#ffffff" stroke="transparent" points="442,-132 442,-242 773,-242 773,-132 442,-132"/>
<polygon fill="#f5f5f5" stroke="transparent" points="444.5,-218 444.5,-240 771.5,-240 771.5,-218 444.5,-218"/>
<polygon fill="none" stroke="black" points="444.5,-218 444.5,-240 771.5,-240 771.5,-218 444.5,-218"/>
<text text-anchor="start" x="449.5" y="-227.2" font-family="Helvetica,sans-Serif" font-weight="bold" font-size="11.00">artefact_group_member_owner</text>
<text text-anchor="start" x="729.5" y="-226.2" font-family="Helvetica,sans-Serif" font-size="11.00">[table]</text>
<polygon fill="none" stroke="black" points="444.5,-196 444.5,-218 674.5,-218 674.5,-196 444.5,-196"/>
<image xlink:href="../../images/primaryKeys.png" width="11px" height="12px" preserveAspectRatio="xMinYMin meet" x="449.5" y="-213"/>
<text text-anchor="start" x="464.5" y="-204.2" font-family="Helvetica,sans-Serif" font-size="11.00">artefact_group_member_id</text>
<polygon fill="none" stroke="black" points="674.5,-196 674.5,-218 771.5,-218 771.5,-196 674.5,-196"/>
<text text-anchor="start" x="677.5" y="-204.2" font-family="Helvetica,sans-Serif" font-size="11.00">int unsigned[10]</text>
<polygon fill="none" stroke="black" points="444.5,-174 444.5,-196 674.5,-196 674.5,-174 444.5,-174"/>
<image xlink:href="../../images/primaryKeys.png" width="11px" height="12px" preserveAspectRatio="xMinYMin meet" x="449.5" y="-191"/>
<text text-anchor="start" x="464.5" y="-182.2" font-family="Helvetica,sans-Serif" font-size="11.00">edition_id</text>
<polygon fill="none" stroke="black" points="674.5,-174 674.5,-196 771.5,-196 771.5,-174 674.5,-174"/>
<text text-anchor="start" x="677.5" y="-182.2" font-family="Helvetica,sans-Serif" font-size="11.00">int unsigned[10]</text>
<polygon fill="#ffffff" stroke="transparent" points="444.5,-152 444.5,-174 674.5,-174 674.5,-152 444.5,-152"/>
<polygon fill="none" stroke="black" points="444.5,-152 444.5,-174 674.5,-174 674.5,-152 444.5,-152"/>
<image xlink:href="../../images/foreignKeys.png" width="11px" height="12px" preserveAspectRatio="xMinYMin meet" x="449.5" y="-169"/>
<text text-anchor="start" x="464.5" y="-160.2" font-family="Helvetica,sans-Serif" font-size="11.00">edition_editor_id</text>
<polygon fill="none" stroke="black" points="674.5,-152 674.5,-174 771.5,-174 771.5,-152 674.5,-152"/>
<text text-anchor="start" x="677.5" y="-160.2" font-family="Helvetica,sans-Serif" font-size="11.00">int unsigned[10]</text>
<polygon fill="#ffffff" stroke="transparent" points="444.5,-134 444.5,-152 550.5,-152 550.5,-134 444.5,-134"/>
<polygon fill="none" stroke="black" points="444.5,-134 444.5,-152 550.5,-152 550.5,-134 444.5,-134"/>
<text text-anchor="start" x="447.5" y="-140.2" font-family="Helvetica,sans-Serif" font-size="11.00">&lt; 3</text>
<polygon fill="#ffffff" stroke="transparent" points="550.5,-134 550.5,-152 674.5,-152 674.5,-134 550.5,-134"/>
<polygon fill="none" stroke="black" points="550.5,-134 550.5,-152 674.5,-152 674.5,-134 550.5,-134"/>
<text text-anchor="start" x="634.5" y="-140.2" font-family="Helvetica,sans-Serif" font-size="11.00">0 rows</text>
<polygon fill="#ffffff" stroke="transparent" points="674.5,-134 674.5,-152 771.5,-152 771.5,-134 674.5,-134"/>
<polygon fill="none" stroke="black" points="674.5,-134 674.5,-152 771.5,-152 771.5,-134 674.5,-134"/>
<text text-anchor="start" x="748.5" y="-140.2" font-family="Helvetica,sans-Serif" font-size="11.00">0 &gt;</text>
<polygon fill="none" stroke="black" stroke-width="2" points="443,-133 443,-241 772,-241 772,-133 443,-133"/>
</a>
</g>
</g>
<!-- artefact_group_member -->
<g id="node2" class="node">
<title>artefact_group_member</title>
<g id="a_node2"><a xlink:href="../../tables/artefact_group_member.html" xlink:title="artefact_group_member" target="_top">
<polygon fill="#ffffff" stroke="transparent" points="192,-209 192,-315 393,-315 393,-209 192,-209"/>
<polygon fill="#f5f5f5" stroke="transparent" points="192.5,-293 192.5,-315 393.5,-315 393.5,-293 192.5,-293"/>
<polygon fill="none" stroke="black" points="192.5,-293 192.5,-315 393.5,-315 393.5,-293 192.5,-293"/>
<text text-anchor="start" x="197.5" y="-302.2" font-family="Helvetica,sans-Serif" font-weight="bold" font-size="11.00">artefact_group_member</text>
<text text-anchor="start" x="351.5" y="-301.2" font-family="Helvetica,sans-Serif" font-size="11.00">[table]</text>
<polygon fill="none" stroke="black" points="192.5,-271 192.5,-293 393.5,-293 393.5,-271 192.5,-271"/>
<image xlink:href="../../images/primaryKeys.png" width="11px" height="12px" preserveAspectRatio="xMinYMin meet" x="197.5" y="-288"/>
<text text-anchor="start" x="212.5" y="-279.2" font-family="Helvetica,sans-Serif" font-size="11.00">artefact_group_member_id</text>
<polygon fill="#ffffff" stroke="transparent" points="192.5,-249 192.5,-271 393.5,-271 393.5,-249 192.5,-249"/>
<polygon fill="none" stroke="black" points="192.5,-249 192.5,-271 393.5,-271 393.5,-249 192.5,-249"/>
<image xlink:href="../../images/foreignKeys.png" width="11px" height="12px" preserveAspectRatio="xMinYMin meet" x="197.5" y="-266"/>
<text text-anchor="start" x="212.5" y="-257.2" font-family="Helvetica,sans-Serif" font-size="11.00">artefact_group_id</text>
<polygon fill="#ffffff" stroke="transparent" points="192.5,-227 192.5,-249 393.5,-249 393.5,-227 192.5,-227"/>
<polygon fill="none" stroke="black" points="192.5,-227 192.5,-249 393.5,-249 393.5,-227 192.5,-227"/>
<image xlink:href="../../images/foreignKeys.png" width="11px" height="12px" preserveAspectRatio="xMinYMin meet" x="197.5" y="-244"/>
<text text-anchor="start" x="212.5" y="-235.2" font-family="Helvetica,sans-Serif" font-size="11.00">artefact_id</text>
<polygon fill="#ffffff" stroke="transparent" points="192.5,-209 192.5,-227 271.5,-227 271.5,-209 192.5,-209"/>
<polygon fill="none" stroke="black" points="192.5,-209 192.5,-227 271.5,-227 271.5,-209 192.5,-209"/>
<text text-anchor="start" x="195.5" y="-215.2" font-family="Helvetica,sans-Serif" font-size="11.00">&lt; 2</text>
<polygon fill="#ffffff" stroke="transparent" points="271.5,-209 271.5,-227 340.5,-227 340.5,-209 271.5,-209"/>
<polygon fill="none" stroke="black" points="271.5,-209 271.5,-227 340.5,-227 340.5,-209 271.5,-209"/>
<text text-anchor="start" x="300.5" y="-215.2" font-family="Helvetica,sans-Serif" font-size="11.00">0 rows</text>
<polygon fill="#ffffff" stroke="transparent" points="340.5,-209 340.5,-227 393.5,-227 393.5,-209 340.5,-209"/>
<polygon fill="none" stroke="black" points="340.5,-209 340.5,-227 393.5,-227 393.5,-209 340.5,-209"/>
<text text-anchor="start" x="370.5" y="-215.2" font-family="Helvetica,sans-Serif" font-size="11.00">1 &gt;</text>
</a>
</g>
</g>
<!-- artefact_group_member_owner&#45;&gt;artefact_group_member -->
<g id="edge1" class="edge">
<title>artefact_group_member_owner:w&#45;&gt;artefact_group_member:e</title>
<path fill="none" stroke="black" d="M429.71,-211.69C411.38,-228.11 428.25,-282 394.5,-282"/>
<polygon fill="black" stroke="black" points="435.93,-209.58 444.66,-210.41 439.71,-208.29 443.5,-207 443.5,-207 443.5,-207 439.71,-208.29 442.34,-203.59 435.93,-209.58 435.93,-209.58"/>
<ellipse fill="none" stroke="black" cx="432.9" cy="-210.61" rx="3.2" ry="3.2"/>
</g>
<!-- edition_editor -->
<g id="node3" class="node">
<title>edition_editor</title>
<g id="a_node3"><a xlink:href="../../tables/edition_editor.html" xlink:title="edition_editor" target="_top">
<polygon fill="#ffffff" stroke="transparent" points="224.5,-37 224.5,-161 360.5,-161 360.5,-37 224.5,-37"/>
<polygon fill="#f5f5f5" stroke="transparent" points="224.5,-139 224.5,-161 360.5,-161 360.5,-139 224.5,-139"/>
<polygon fill="none" stroke="black" points="224.5,-139 224.5,-161 360.5,-161 360.5,-139 224.5,-139"/>
<text text-anchor="start" x="229.5" y="-148.2" font-family="Helvetica,sans-Serif" font-weight="bold" font-size="11.00">edition_editor</text>
<text text-anchor="start" x="318.5" y="-147.2" font-family="Helvetica,sans-Serif" font-size="11.00">[table]</text>
<polygon fill="none" stroke="black" points="224.5,-117 224.5,-139 360.5,-139 360.5,-117 224.5,-117"/>
<image xlink:href="../../images/primaryKeys.png" width="11px" height="12px" preserveAspectRatio="xMinYMin meet" x="229.5" y="-134"/>
<text text-anchor="start" x="246.5" y="-125.2" font-family="Helvetica,sans-Serif" font-size="11.00">edition_editor_id</text>
<polygon fill="#ffffff" stroke="transparent" points="224.5,-95 224.5,-117 360.5,-117 360.5,-95 224.5,-95"/>
<polygon fill="none" stroke="black" points="224.5,-95 224.5,-117 360.5,-117 360.5,-95 224.5,-95"/>
<image xlink:href="../../images/foreignKeys.png" width="11px" height="12px" preserveAspectRatio="xMinYMin meet" x="229.5" y="-112"/>
<text text-anchor="start" x="246.5" y="-103.2" font-family="Helvetica,sans-Serif" font-size="11.00">user_id</text>
<polygon fill="#ffffff" stroke="transparent" points="224.5,-73 224.5,-95 360.5,-95 360.5,-73 224.5,-73"/>
<polygon fill="none" stroke="black" points="224.5,-73 224.5,-95 360.5,-95 360.5,-73 224.5,-73"/>
<image xlink:href="../../images/foreignKeys.png" width="11px" height="12px" preserveAspectRatio="xMinYMin meet" x="229.5" y="-90"/>
<text text-anchor="start" x="246.5" y="-81.2" font-family="Helvetica,sans-Serif" font-size="11.00">edition_id</text>
<polygon fill="none" stroke="black" points="224.5,-55 224.5,-73 360.5,-73 360.5,-55 224.5,-55"/>
<text text-anchor="start" x="227.5" y="-61.2" font-family="Helvetica,sans-Serif" font-size="11.00">...</text>
<polygon fill="#ffffff" stroke="transparent" points="224.5,-37 224.5,-55 255.5,-55 255.5,-37 224.5,-37"/>
<polygon fill="none" stroke="black" points="224.5,-37 224.5,-55 255.5,-55 255.5,-37 224.5,-37"/>
<text text-anchor="start" x="227.5" y="-43.2" font-family="Helvetica,sans-Serif" font-size="11.00">&lt; 2</text>
<polygon fill="#ffffff" stroke="transparent" points="255.5,-37 255.5,-55 324.5,-55 324.5,-37 255.5,-37"/>
<polygon fill="none" stroke="black" points="255.5,-37 255.5,-55 324.5,-55 324.5,-37 255.5,-37"/>
<text text-anchor="start" x="260.5" y="-43.2" font-family="Helvetica,sans-Serif" font-size="11.00">1,645 rows</text>
<polygon fill="#ffffff" stroke="transparent" points="324.5,-37 324.5,-55 360.5,-55 360.5,-37 324.5,-37"/>
<polygon fill="none" stroke="black" points="324.5,-37 324.5,-55 360.5,-55 360.5,-37 324.5,-37"/>
<text text-anchor="start" x="330.5" y="-43.2" font-family="Helvetica,sans-Serif" font-size="11.00">33 &gt;</text>
</a>
</g>
</g>
<!-- artefact_group_member_owner&#45;&gt;edition_editor -->
<g id="edge2" class="edge">
<title>artefact_group_member_owner:w&#45;&gt;edition_editor:e</title>
<path fill="none" stroke="black" d="M429.13,-161.22C402.43,-154.08 395.71,-128 361.5,-128"/>
<polygon fill="black" stroke="black" points="435.56,-162.01 443.06,-166.57 439.53,-162.51 443.5,-163 443.5,-163 443.5,-163 439.53,-162.51 443.94,-159.43 435.56,-162.01 435.56,-162.01"/>
<ellipse fill="none" stroke="black" cx="432.39" cy="-161.62" rx="3.2" ry="3.2"/>
</g>
<!-- edition -->
<g id="node4" class="node">
<title>edition</title>
<g id="a_node4"><a xlink:href="../../tables/edition.html" xlink:title="edition" target="_top">
<polygon fill="#ffffff" stroke="transparent" points="8,-65 8,-167 143,-167 143,-65 8,-65"/>
<polygon fill="#f5f5f5" stroke="transparent" points="8.5,-145 8.5,-167 143.5,-167 143.5,-145 8.5,-145"/>
<polygon fill="none" stroke="black" points="8.5,-145 8.5,-167 143.5,-167 143.5,-145 8.5,-145"/>
<text text-anchor="start" x="13.5" y="-154.2" font-family="Helvetica,sans-Serif" font-weight="bold" font-size="11.00">edition</text>
<text text-anchor="start" x="101.5" y="-153.2" font-family="Helvetica,sans-Serif" font-size="11.00">[table]</text>
<polygon fill="none" stroke="black" points="8.5,-123 8.5,-145 143.5,-145 143.5,-123 8.5,-123"/>
<image xlink:href="../../images/primaryKeys.png" width="11px" height="12px" preserveAspectRatio="xMinYMin meet" x="13.5" y="-140"/>
<text text-anchor="start" x="28.5" y="-131.2" font-family="Helvetica,sans-Serif" font-size="11.00">edition_id</text>
<polygon fill="#ffffff" stroke="transparent" points="8.5,-101 8.5,-123 143.5,-123 143.5,-101 8.5,-101"/>
<polygon fill="none" stroke="black" points="8.5,-101 8.5,-123 143.5,-123 143.5,-101 8.5,-101"/>
<image xlink:href="../../images/foreignKeys.png" width="11px" height="12px" preserveAspectRatio="xMinYMin meet" x="13.5" y="-118"/>
<text text-anchor="start" x="28.5" y="-109.2" font-family="Helvetica,sans-Serif" font-size="11.00">manuscript_id</text>
<polygon fill="none" stroke="black" points="8.5,-83 8.5,-101 143.5,-101 143.5,-83 8.5,-83"/>
<text text-anchor="start" x="11.5" y="-89.2" font-family="Helvetica,sans-Serif" font-size="11.00">...</text>
<polygon fill="#ffffff" stroke="transparent" points="8.5,-65 8.5,-83 38.5,-83 38.5,-65 8.5,-65"/>
<polygon fill="none" stroke="black" points="8.5,-65 8.5,-83 38.5,-83 38.5,-65 8.5,-65"/>
<text text-anchor="start" x="11.5" y="-71.2" font-family="Helvetica,sans-Serif" font-size="11.00">&lt; 1</text>
<polygon fill="#ffffff" stroke="transparent" points="38.5,-65 38.5,-83 107.5,-83 107.5,-65 38.5,-65"/>
<polygon fill="none" stroke="black" points="38.5,-65 38.5,-83 107.5,-83 107.5,-65 38.5,-65"/>
<text text-anchor="start" x="43.5" y="-71.2" font-family="Helvetica,sans-Serif" font-size="11.00">1,645 rows</text>
<polygon fill="#ffffff" stroke="transparent" points="107.5,-65 107.5,-83 143.5,-83 143.5,-65 107.5,-65"/>
<polygon fill="none" stroke="black" points="107.5,-65 107.5,-83 143.5,-83 143.5,-65 107.5,-65"/>
<text text-anchor="start" x="113.5" y="-71.2" font-family="Helvetica,sans-Serif" font-size="11.00">35 &gt;</text>
</a>
</g>
</g>
<!-- artefact_group_member_owner&#45;&gt;edition -->
<g id="edge3" class="edge">
<title>artefact_group_member_owner:w&#45;&gt;edition:e</title>
<path fill="none" stroke="black" d="M429.03,-185.17C324.63,-187.68 285.44,-215.86 184,-172 161.64,-162.33 168.86,-134 144.5,-134"/>
<polygon fill="black" stroke="black" points="435.5,-185.1 443.54,-188.6 439.5,-185.05 443.5,-185 443.5,-185 443.5,-185 439.5,-185.05 443.46,-181.4 435.5,-185.1 435.5,-185.1"/>
<ellipse fill="none" stroke="black" cx="432.3" cy="-185.13" rx="3.2" ry="3.2"/>
</g>
<!-- edition_editor&#45;&gt;edition -->
<g id="edge4" class="edge">
<title>edition_editor:w&#45;&gt;edition:e</title>
<path fill="none" stroke="black" d="M209.15,-86.41C182.23,-96.4 180.53,-134 144.5,-134"/>
<polygon fill="black" stroke="black" points="215.61,-85.33 224.1,-87.55 219.56,-84.66 223.5,-84 223.5,-84 223.5,-84 219.56,-84.66 222.9,-80.45 215.61,-85.33 215.61,-85.33"/>
<ellipse fill="none" stroke="black" cx="212.45" cy="-85.86" rx="3.2" ry="3.2"/>
</g>
</g>
</svg>
