<?xml version="1.0" encoding="UTF-8" standalone="no"?>
<!DOCTYPE svg PUBLIC "-//W3C//DTD SVG 1.1//EN"
 "http://www.w3.org/Graphics/SVG/1.1/DTD/svg11.dtd">
<!-- Generated by graphviz version 2.43.0 (0)
 -->
<!-- Title: twoDegreesRelationshipsDiagram Pages: 1 -->
<svg width="759pt" height="344pt"
 viewBox="0.00 0.00 759.00 344.00" xmlns="http://www.w3.org/2000/svg" xmlns:xlink="http://www.w3.org/1999/xlink">
<g id="graph0" class="graph" transform="scale(1 1) rotate(0) translate(4 340)">
<title>twoDegreesRelationshipsDiagram</title>
<polygon fill="#ffffff" stroke="transparent" points="-4,4 -4,-340 755,-340 755,4 -4,4"/>
<text text-anchor="middle" x="79.5" y="-7.2" font-family="Helvetica,sans-Serif" font-size="11.00">Generated by SchemaSpy</text>
<!-- artefact_group_data -->
<g id="node1" class="node">
<title>artefact_group_data</title>
<g id="a_node1"><a xlink:href="../../tables/artefact_group_data.html" xlink:title="artefact_group_data" target="_top">
<polygon fill="#ffffff" stroke="transparent" points="199,-143 199,-253 476,-253 476,-143 199,-143"/>
<polygon fill="#f5f5f5" stroke="transparent" points="201.5,-229 201.5,-251 474.5,-251 474.5,-229 201.5,-229"/>
<polygon fill="none" stroke="black" points="201.5,-229 201.5,-251 474.5,-251 474.5,-229 201.5,-229"/>
<text text-anchor="start" x="206.5" y="-238.2" font-family="Helvetica,sans-Serif" font-weight="bold" font-size="11.00">artefact_group_data</text>
<text text-anchor="start" x="432.5" y="-237.2" font-family="Helvetica,sans-Serif" font-size="11.00">[table]</text>
<polygon fill="none" stroke="black" points="201.5,-207 201.5,-229 377.5,-229 377.5,-207 201.5,-207"/>
<image xlink:href="../../images/primaryKeys.png" width="11px" height="12px" preserveAspectRatio="xMinYMin meet" x="206.5" y="-224"/>
<text text-anchor="start" x="221.5" y="-215.2" font-family="Helvetica,sans-Serif" font-size="11.00">artefact_group_data_id</text>
<polygon fill="none" stroke="black" points="377.5,-207 377.5,-229 474.5,-229 474.5,-207 377.5,-207"/>
<text text-anchor="start" x="380.5" y="-215.2" font-family="Helvetica,sans-Serif" font-size="11.00">int unsigned[10]</text>
<polygon fill="#ffffff" stroke="transparent" points="201.5,-185 201.5,-207 377.5,-207 377.5,-185 201.5,-185"/>
<polygon fill="none" stroke="black" points="201.5,-185 201.5,-207 377.5,-207 377.5,-185 201.5,-185"/>
<image xlink:href="../../images/foreignKeys.png" width="11px" height="12px" preserveAspectRatio="xMinYMin meet" x="206.5" y="-202"/>
<text text-anchor="start" x="221.5" y="-193.2" font-family="Helvetica,sans-Serif" font-size="11.00">artefact_group_id</text>
<polygon fill="none" stroke="black" points="377.5,-185 377.5,-207 474.5,-207 474.5,-185 377.5,-185"/>
<text text-anchor="start" x="380.5" y="-193.2" font-family="Helvetica,sans-Serif" font-size="11.00">int unsigned[10]</text>
<polygon fill="none" stroke="black" points="201.5,-163 201.5,-185 377.5,-185 377.5,-163 201.5,-163"/>
<text text-anchor="start" x="221.5" y="-171.2" font-family="Helvetica,sans-Serif" font-size="11.00">name</text>
<polygon fill="none" stroke="black" points="377.5,-163 377.5,-185 474.5,-185 474.5,-163 377.5,-163"/>
<text text-anchor="start" x="380.5" y="-171.2" font-family="Helvetica,sans-Serif" font-size="11.00">varchar[255]</text>
<polygon fill="#ffffff" stroke="transparent" points="201.5,-145 201.5,-163 280.5,-163 280.5,-145 201.5,-145"/>
<polygon fill="none" stroke="black" points="201.5,-145 201.5,-163 280.5,-163 280.5,-145 201.5,-145"/>
<text text-anchor="start" x="204.5" y="-151.2" font-family="Helvetica,sans-Serif" font-size="11.00">&lt; 1</text>
<polygon fill="#ffffff" stroke="transparent" points="280.5,-145 280.5,-163 377.5,-163 377.5,-145 280.5,-145"/>
<polygon fill="none" stroke="black" points="280.5,-145 280.5,-163 377.5,-163 377.5,-145 280.5,-145"/>
<text text-anchor="start" x="337.5" y="-151.2" font-family="Helvetica,sans-Serif" font-size="11.00">0 rows</text>
<polygon fill="#ffffff" stroke="transparent" points="377.5,-145 377.5,-163 474.5,-163 474.5,-145 377.5,-145"/>
<polygon fill="none" stroke="black" points="377.5,-145 377.5,-163 474.5,-163 474.5,-145 377.5,-145"/>
<text text-anchor="start" x="451.5" y="-151.2" font-family="Helvetica,sans-Serif" font-size="11.00">1 &gt;</text>
<polygon fill="none" stroke="black" stroke-width="2" points="200,-144 200,-252 475,-252 475,-144 200,-144"/>
</a>
</g>
</g>
<!-- artefact_group -->
<g id="node2" class="node">
<title>artefact_group</title>
<g id="a_node2"><a xlink:href="../../tables/artefact_group.html" xlink:title="artefact_group" target="_top">
<polygon fill="#ffffff" stroke="transparent" points="8,-181 8,-243 150,-243 150,-181 8,-181"/>
<polygon fill="#f5f5f5" stroke="transparent" points="8,-221 8,-243 150,-243 150,-221 8,-221"/>
<polygon fill="none" stroke="black" points="8,-221 8,-243 150,-243 150,-221 8,-221"/>
<text text-anchor="start" x="13" y="-230.2" font-family="Helvetica,sans-Serif" font-weight="bold" font-size="11.00">artefact_group</text>
<text text-anchor="start" x="108" y="-229.2" font-family="Helvetica,sans-Serif" font-size="11.00">[table]</text>
<polygon fill="none" stroke="black" points="8,-199 8,-221 150,-221 150,-199 8,-199"/>
<image xlink:href="../../images/primaryKeys.png" width="11px" height="12px" preserveAspectRatio="xMinYMin meet" x="13" y="-216"/>
<text text-anchor="start" x="30" y="-207.2" font-family="Helvetica,sans-Serif" font-size="11.00">artefact_group_id</text>
<polygon fill="#ffffff" stroke="transparent" points="8,-181 8,-199 51,-199 51,-181 8,-181"/>
<polygon fill="none" stroke="black" points="8,-181 8,-199 51,-199 51,-181 8,-181"/>
<text text-anchor="start" x="11" y="-187.2" font-family="Helvetica,sans-Serif" font-size="11.00"> &#160;</text>
<polygon fill="#ffffff" stroke="transparent" points="51,-181 51,-199 109,-199 109,-181 51,-181"/>
<polygon fill="none" stroke="black" points="51,-181 51,-199 109,-199 109,-181 51,-181"/>
<text text-anchor="start" x="69" y="-187.2" font-family="Helvetica,sans-Serif" font-size="11.00">0 rows</text>
<polygon fill="#ffffff" stroke="transparent" points="109,-181 109,-199 150,-199 150,-181 109,-181"/>
<polygon fill="none" stroke="black" points="109,-181 109,-199 150,-199 150,-181 109,-181"/>
<text text-anchor="start" x="127" y="-187.2" font-family="Helvetica,sans-Serif" font-size="11.00">2 &gt;</text>
</a>
</g>
</g>
<!-- artefact_group_data&#45;&gt;artefact_group -->
<g id="edge1" class="edge">
<title>artefact_group_data:w&#45;&gt;artefact_group:e</title>
<path fill="none" stroke="black" d="M185.97,-198.31C174.42,-202.29 167.97,-210 151,-210"/>
<polygon fill="black" stroke="black" points="192.6,-197.26 201.07,-199.56 196.55,-196.63 200.5,-196 200.5,-196 200.5,-196 196.55,-196.63 199.93,-192.44 192.6,-197.26 192.6,-197.26"/>
<ellipse fill="none" stroke="black" cx="189.44" cy="-197.76" rx="3.2" ry="3.2"/>
</g>
<!-- artefact_group_data_owner -->
<g id="node3" class="node">
<title>artefact_group_data_owner</title>
<g id="a_node3"><a xlink:href="../../tables/artefact_group_data_owner.html" xlink:title="artefact_group_data_owner" target="_top">
<polygon fill="#ffffff" stroke="transparent" points="525,-68 525,-174 743,-174 743,-68 525,-68"/>
<polygon fill="#f5f5f5" stroke="transparent" points="525,-152 525,-174 743,-174 743,-152 525,-152"/>
<polygon fill="none" stroke="black" points="525,-152 525,-174 743,-174 743,-152 525,-152"/>
<text text-anchor="start" x="530" y="-161.2" font-family="Helvetica,sans-Serif" font-weight="bold" font-size="11.00">artefact_group_data_owner</text>
<text text-anchor="start" x="701" y="-160.2" font-family="Helvetica,sans-Serif" font-size="11.00">[table]</text>
<polygon fill="none" stroke="black" points="525,-130 525,-152 743,-152 743,-130 525,-130"/>
<image xlink:href="../../images/primaryKeys.png" width="11px" height="12px" preserveAspectRatio="xMinYMin meet" x="530" y="-147"/>
<text text-anchor="start" x="552" y="-138.2" font-family="Helvetica,sans-Serif" font-size="11.00">artefact_group_data_id</text>
<polygon fill="none" stroke="black" points="525,-108 525,-130 743,-130 743,-108 525,-108"/>
<image xlink:href="../../images/primaryKeys.png" width="11px" height="12px" preserveAspectRatio="xMinYMin meet" x="530" y="-125"/>
<text text-anchor="start" x="552" y="-116.2" font-family="Helvetica,sans-Serif" font-size="11.00">edition_id</text>
<polygon fill="#ffffff" stroke="transparent" points="525,-86 525,-108 743,-108 743,-86 525,-86"/>
<polygon fill="none" stroke="black" points="525,-86 525,-108 743,-108 743,-86 525,-86"/>
<image xlink:href="../../images/foreignKeys.png" width="11px" height="12px" preserveAspectRatio="xMinYMin meet" x="530" y="-103"/>
<text text-anchor="start" x="552" y="-94.2" font-family="Helvetica,sans-Serif" font-size="11.00">edition_editor_id</text>
<polygon fill="#ffffff" stroke="transparent" points="525,-68 525,-86 618,-86 618,-68 525,-68"/>
<polygon fill="none" stroke="black" points="525,-68 525,-86 618,-86 618,-68 525,-68"/>
<text text-anchor="start" x="528" y="-74.2" font-family="Helvetica,sans-Serif" font-size="11.00">&lt; 3</text>
<polygon fill="#ffffff" stroke="transparent" points="618,-68 618,-86 695,-86 695,-68 618,-68"/>
<polygon fill="none" stroke="black" points="618,-68 618,-86 695,-86 695,-68 618,-68"/>
<text text-anchor="start" x="655" y="-74.2" font-family="Helvetica,sans-Serif" font-size="11.00">0 rows</text>
<polygon fill="#ffffff" stroke="transparent" points="695,-68 695,-86 743,-86 743,-68 695,-68"/>
<polygon fill="none" stroke="black" points="695,-68 695,-86 743,-86 743,-68 695,-68"/>
<text text-anchor="start" x="732" y="-74.2" font-family="Helvetica,sans-Serif" font-size="11.00"> &#160;</text>
</a>
</g>
</g>
<!-- artefact_group_data_owner&#45;&gt;artefact_group_data -->
<g id="edge2" class="edge">
<title>artefact_group_data_owner:w&#45;&gt;artefact_group_data:e</title>
<path fill="none" stroke="black" d="M510.33,-145.59C491.57,-162.16 509.94,-218 475.5,-218"/>
<polygon fill="black" stroke="black" points="516.42,-143.54 525.14,-144.41 520.21,-142.27 524,-141 524,-141 524,-141 520.21,-142.27 522.86,-137.59 516.42,-143.54 516.42,-143.54"/>
<ellipse fill="none" stroke="black" cx="513.38" cy="-144.56" rx="3.2" ry="3.2"/>
</g>
<!-- edition_editor -->
<g id="node4" class="node">
<title>edition_editor</title>
<g id="a_node4"><a xlink:href="../../tables/edition_editor.html" xlink:title="edition_editor" target="_top">
<polygon fill="#ffffff" stroke="transparent" points="269.5,-37 269.5,-95 405.5,-95 405.5,-37 269.5,-37"/>
<polygon fill="#f5f5f5" stroke="transparent" points="269.5,-73 269.5,-95 405.5,-95 405.5,-73 269.5,-73"/>
<polygon fill="none" stroke="black" points="269.5,-73 269.5,-95 405.5,-95 405.5,-73 269.5,-73"/>
<text text-anchor="start" x="274.5" y="-82.2" font-family="Helvetica,sans-Serif" font-weight="bold" font-size="11.00">edition_editor</text>
<text text-anchor="start" x="363.5" y="-81.2" font-family="Helvetica,sans-Serif" font-size="11.00">[table]</text>
<polygon fill="none" stroke="black" points="269.5,-55 269.5,-73 405.5,-73 405.5,-55 269.5,-55"/>
<text text-anchor="start" x="272.5" y="-61.2" font-family="Helvetica,sans-Serif" font-size="11.00">...</text>
<polygon fill="#ffffff" stroke="transparent" points="269.5,-37 269.5,-55 300.5,-55 300.5,-37 269.5,-37"/>
<polygon fill="none" stroke="black" points="269.5,-37 269.5,-55 300.5,-55 300.5,-37 269.5,-37"/>
<text text-anchor="start" x="272.5" y="-43.2" font-family="Helvetica,sans-Serif" font-size="11.00">&lt; 2</text>
<polygon fill="#ffffff" stroke="transparent" points="300.5,-37 300.5,-55 369.5,-55 369.5,-37 300.5,-37"/>
<polygon fill="none" stroke="black" points="300.5,-37 300.5,-55 369.5,-55 369.5,-37 300.5,-37"/>
<text text-anchor="start" x="305.5" y="-43.2" font-family="Helvetica,sans-Serif" font-size="11.00">1,645 rows</text>
<polygon fill="#ffffff" stroke="transparent" points="369.5,-37 369.5,-55 405.5,-55 405.5,-37 369.5,-37"/>
<polygon fill="none" stroke="black" points="369.5,-37 369.5,-55 405.5,-55 405.5,-37 369.5,-37"/>
<text text-anchor="start" x="375.5" y="-43.2" font-family="Helvetica,sans-Serif" font-size="11.00">33 &gt;</text>
</a>
</g>
</g>
<!-- artefact_group_data_owner&#45;&gt;edition_editor -->
<g id="edge3" class="edge">
<title>artefact_group_data_owner:w&#45;&gt;edition_editor:e</title>
<path fill="none" stroke="black" d="M509.59,-96.15C467.62,-90.99 455.55,-64 406.5,-64"/>
<polygon fill="black" stroke="black" points="516.01,-96.53 523.79,-100.59 520.01,-96.76 524,-97 524,-97 524,-97 520.01,-96.76 524.21,-93.41 516.01,-96.53 516.01,-96.53"/>
<ellipse fill="none" stroke="black" cx="512.82" cy="-96.34" rx="3.2" ry="3.2"/>
</g>
<!-- edition -->
<g id="node5" class="node">
<title>edition</title>
<g id="a_node5"><a xlink:href="../../tables/edition.html" xlink:title="edition" target="_top">
<polygon fill="#ffffff" stroke="transparent" points="16,-77 16,-135 142,-135 142,-77 16,-77"/>
<polygon fill="#f5f5f5" stroke="transparent" points="16,-113 16,-135 142,-135 142,-113 16,-113"/>
<polygon fill="none" stroke="black" points="16,-113 16,-135 142,-135 142,-113 16,-113"/>
<text text-anchor="start" x="21" y="-122.2" font-family="Helvetica,sans-Serif" font-weight="bold" font-size="11.00">edition</text>
<text text-anchor="start" x="100" y="-121.2" font-family="Helvetica,sans-Serif" font-size="11.00">[table]</text>
<polygon fill="none" stroke="black" points="16,-95 16,-113 142,-113 142,-95 16,-95"/>
<text text-anchor="start" x="19" y="-101.2" font-family="Helvetica,sans-Serif" font-size="11.00">...</text>
<polygon fill="#ffffff" stroke="transparent" points="16,-77 16,-95 42,-95 42,-77 16,-77"/>
<polygon fill="none" stroke="black" points="16,-77 16,-95 42,-95 42,-77 16,-77"/>
<text text-anchor="start" x="19" y="-83.2" font-family="Helvetica,sans-Serif" font-size="11.00">&lt; 1</text>
<polygon fill="#ffffff" stroke="transparent" points="42,-77 42,-95 109,-95 109,-77 42,-77"/>
<polygon fill="none" stroke="black" points="42,-77 42,-95 109,-95 109,-77 42,-77"/>
<text text-anchor="start" x="45" y="-83.2" font-family="Helvetica,sans-Serif" font-size="11.00">1,645 rows</text>
<polygon fill="#ffffff" stroke="transparent" points="109,-77 109,-95 142,-95 142,-77 109,-77"/>
<polygon fill="none" stroke="black" points="109,-77 109,-95 142,-95 142,-77 109,-77"/>
<text text-anchor="start" x="112" y="-83.2" font-family="Helvetica,sans-Serif" font-size="11.00">35 &gt;</text>
</a>
</g>
</g>
<!-- artefact_group_data_owner&#45;&gt;edition -->
<g id="edge4" class="edge">
<title>artefact_group_data_owner:w&#45;&gt;edition:e</title>
<path fill="none" stroke="black" d="M509.2,-118.73C435.81,-116.69 181.97,-104 143,-104"/>
<polygon fill="black" stroke="black" points="516,-118.85 523.93,-122.6 520,-118.93 524,-119 524,-119 524,-119 520,-118.93 524.07,-115.4 516,-118.85 516,-118.85"/>
<ellipse fill="none" stroke="black" cx="512.8" cy="-118.79" rx="3.2" ry="3.2"/>
</g>
<!-- edition_editor&#45;&gt;edition -->
<g id="edge6" class="edge">
<title>edition_editor:w&#45;&gt;edition:e</title>
<path fill="none" stroke="black" d="M253.86,-64.91C208.04,-70.86 196.28,-104 143,-104"/>
<polygon fill="black" stroke="black" points="260.52,-64.5 268.72,-67.59 264.51,-64.25 268.5,-64 268.5,-64 268.5,-64 264.51,-64.25 268.28,-60.41 260.52,-64.5 260.52,-64.5"/>
<ellipse fill="none" stroke="black" cx="257.32" cy="-64.7" rx="3.2" ry="3.2"/>
</g>
<!-- artefact_group_member -->
<g id="node6" class="node">
<title>artefact_group_member</title>
<g id="a_node6"><a xlink:href="../../tables/artefact_group_member.html" xlink:title="artefact_group_member" target="_top">
<polygon fill="#ffffff" stroke="transparent" points="239,-274 239,-332 436,-332 436,-274 239,-274"/>
<polygon fill="#f5f5f5" stroke="transparent" points="239.5,-310 239.5,-332 436.5,-332 436.5,-310 239.5,-310"/>
<polygon fill="none" stroke="black" points="239.5,-310 239.5,-332 436.5,-332 436.5,-310 239.5,-310"/>
<text text-anchor="start" x="244.5" y="-319.2" font-family="Helvetica,sans-Serif" font-weight="bold" font-size="11.00">artefact_group_member</text>
<text text-anchor="start" x="394.5" y="-318.2" font-family="Helvetica,sans-Serif" font-size="11.00">[table]</text>
<polygon fill="none" stroke="black" points="239.5,-292 239.5,-310 436.5,-310 436.5,-292 239.5,-292"/>
<text text-anchor="start" x="242.5" y="-298.2" font-family="Helvetica,sans-Serif" font-size="11.00">...</text>
<polygon fill="#ffffff" stroke="transparent" points="239.5,-274 239.5,-292 316.5,-292 316.5,-274 239.5,-274"/>
<polygon fill="none" stroke="black" points="239.5,-274 239.5,-292 316.5,-292 316.5,-274 239.5,-274"/>
<text text-anchor="start" x="242.5" y="-280.2" font-family="Helvetica,sans-Serif" font-size="11.00">&lt; 2</text>
<polygon fill="#ffffff" stroke="transparent" points="316.5,-274 316.5,-292 384.5,-292 384.5,-274 316.5,-274"/>
<polygon fill="none" stroke="black" points="316.5,-274 316.5,-292 384.5,-292 384.5,-274 316.5,-274"/>
<text text-anchor="start" x="344.5" y="-280.2" font-family="Helvetica,sans-Serif" font-size="11.00">0 rows</text>
<polygon fill="#ffffff" stroke="transparent" points="384.5,-274 384.5,-292 436.5,-292 436.5,-274 384.5,-274"/>
<polygon fill="none" stroke="black" points="384.5,-274 384.5,-292 436.5,-292 436.5,-274 384.5,-274"/>
<text text-anchor="start" x="413.5" y="-280.2" font-family="Helvetica,sans-Serif" font-size="11.00">1 &gt;</text>
</a>
</g>
</g>
<!-- artefact_group_member&#45;&gt;artefact_group -->
<g id="edge5" class="edge">
<title>artefact_group_member:w&#45;&gt;artefact_group:e</title>
<path fill="none" stroke="black" d="M224.05,-298.61C210.05,-293.13 205.6,-278.96 191,-264 170.14,-242.63 180.87,-210 151,-210"/>
<polygon fill="black" stroke="black" points="230.61,-299.69 237.91,-304.55 234.55,-300.35 238.5,-301 238.5,-301 238.5,-301 234.55,-300.35 239.09,-297.45 230.61,-299.69 230.61,-299.69"/>
<ellipse fill="none" stroke="black" cx="227.45" cy="-299.17" rx="3.2" ry="3.2"/>
</g>
</g>
</svg>
