<?xml version="1.0" encoding="UTF-8" standalone="no"?>
<!DOCTYPE svg PUBLIC "-//W3C//DTD SVG 1.1//EN"
 "http://www.w3.org/Graphics/SVG/1.1/DTD/svg11.dtd">
<!-- Generated by graphviz version 2.43.0 (0)
 -->
<!-- Title: twoDegreesRelationshipsDiagram Pages: 1 -->
<svg width="722pt" height="739pt"
 viewBox="0.00 0.00 722.00 739.00" xmlns="http://www.w3.org/2000/svg" xmlns:xlink="http://www.w3.org/1999/xlink">
<g id="graph0" class="graph" transform="scale(1 1) rotate(0) translate(4 735)">
<title>twoDegreesRelationshipsDiagram</title>
<polygon fill="#ffffff" stroke="transparent" points="-4,4 -4,-735 718,-735 718,4 -4,4"/>
<text text-anchor="middle" x="79.5" y="-7.2" font-family="Helvetica,sans-Serif" font-size="11.00">Generated by SchemaSpy</text>
<!-- artefact_data -->
<g id="node1" class="node">
<title>artefact_data</title>
<g id="a_node1"><a xlink:href="../../tables/artefact_data.html" xlink:title="artefact_data" target="_top">
<polygon fill="#ffffff" stroke="transparent" points="279.5,-432 279.5,-490 413.5,-490 413.5,-432 279.5,-432"/>
<polygon fill="#f5f5f5" stroke="transparent" points="279.5,-468 279.5,-490 413.5,-490 413.5,-468 279.5,-468"/>
<polygon fill="none" stroke="black" points="279.5,-468 279.5,-490 413.5,-490 413.5,-468 279.5,-468"/>
<text text-anchor="start" x="284.5" y="-477.2" font-family="Helvetica,sans-Serif" font-weight="bold" font-size="11.00">artefact_data</text>
<text text-anchor="start" x="371.5" y="-476.2" font-family="Helvetica,sans-Serif" font-size="11.00">[table]</text>
<polygon fill="none" stroke="black" points="279.5,-450 279.5,-468 413.5,-468 413.5,-450 279.5,-450"/>
<text text-anchor="start" x="282.5" y="-456.2" font-family="Helvetica,sans-Serif" font-size="11.00">...</text>
<polygon fill="#ffffff" stroke="transparent" points="279.5,-432 279.5,-450 309.5,-450 309.5,-432 279.5,-432"/>
<polygon fill="none" stroke="black" points="279.5,-432 279.5,-450 309.5,-450 309.5,-432 279.5,-432"/>
<text text-anchor="start" x="282.5" y="-438.2" font-family="Helvetica,sans-Serif" font-size="11.00">&lt; 1</text>
<polygon fill="#ffffff" stroke="transparent" points="309.5,-432 309.5,-450 385.5,-450 385.5,-432 309.5,-432"/>
<polygon fill="none" stroke="black" points="309.5,-432 309.5,-450 385.5,-450 385.5,-432 309.5,-432"/>
<text text-anchor="start" x="314.5" y="-438.2" font-family="Helvetica,sans-Serif" font-size="11.00">26,649 rows</text>
<polygon fill="#ffffff" stroke="transparent" points="385.5,-432 385.5,-450 413.5,-450 413.5,-432 385.5,-432"/>
<polygon fill="none" stroke="black" points="385.5,-432 385.5,-450 413.5,-450 413.5,-432 385.5,-432"/>
<text text-anchor="start" x="390.5" y="-438.2" font-family="Helvetica,sans-Serif" font-size="11.00">1 &gt;</text>
</a>
</g>
</g>
<!-- artefact -->
<g id="node2" class="node">
<title>artefact</title>
<g id="a_node2"><a xlink:href="../../tables/artefact.html" xlink:title="artefact" target="_top">
<polygon fill="#ffffff" stroke="transparent" points="35,-469 35,-531 149,-531 149,-469 35,-469"/>
<polygon fill="#f5f5f5" stroke="transparent" points="35,-509 35,-531 149,-531 149,-509 35,-509"/>
<polygon fill="none" stroke="black" points="35,-509 35,-531 149,-531 149,-509 35,-509"/>
<text text-anchor="start" x="40" y="-518.2" font-family="Helvetica,sans-Serif" font-weight="bold" font-size="11.00">artefact</text>
<text text-anchor="start" x="107" y="-517.2" font-family="Helvetica,sans-Serif" font-size="11.00">[table]</text>
<polygon fill="none" stroke="black" points="35,-487 35,-509 149,-509 149,-487 35,-487"/>
<image xlink:href="../../images/primaryKeys.png" width="11px" height="12px" preserveAspectRatio="xMinYMin meet" x="40" y="-504"/>
<text text-anchor="start" x="66" y="-495.2" font-family="Helvetica,sans-Serif" font-size="11.00">artefact_id</text>
<polygon fill="#ffffff" stroke="transparent" points="35,-469 35,-487 49,-487 49,-469 35,-469"/>
<polygon fill="none" stroke="black" points="35,-469 35,-487 49,-487 49,-469 35,-469"/>
<text text-anchor="start" x="38" y="-475.2" font-family="Helvetica,sans-Serif" font-size="11.00"> &#160;</text>
<polygon fill="#ffffff" stroke="transparent" points="49,-469 49,-487 123,-487 123,-469 49,-469"/>
<polygon fill="none" stroke="black" points="49,-469 49,-487 123,-487 123,-469 49,-469"/>
<text text-anchor="start" x="52" y="-475.2" font-family="Helvetica,sans-Serif" font-size="11.00">26,982 rows</text>
<polygon fill="#ffffff" stroke="transparent" points="123,-469 123,-487 149,-487 149,-469 123,-469"/>
<polygon fill="none" stroke="black" points="123,-469 123,-487 149,-487 149,-469 123,-469"/>
<text text-anchor="start" x="126" y="-475.2" font-family="Helvetica,sans-Serif" font-size="11.00">8 &gt;</text>
</a>
</g>
</g>
<!-- artefact_data&#45;&gt;artefact -->
<g id="edge1" class="edge">
<title>artefact_data:w&#45;&gt;artefact:e</title>
<path fill="none" stroke="black" d="M263.87,-459.85C216.82,-465.55 204.44,-498 150,-498"/>
<polygon fill="black" stroke="black" points="270.51,-459.46 278.71,-462.59 274.51,-459.23 278.5,-459 278.5,-459 278.5,-459 274.51,-459.23 278.29,-455.41 270.51,-459.46 270.51,-459.46"/>
<ellipse fill="none" stroke="black" cx="267.32" cy="-459.65" rx="3.2" ry="3.2"/>
</g>
<!-- artefact_group_member -->
<g id="node3" class="node">
<title>artefact_group_member</title>
<g id="a_node3"><a xlink:href="../../tables/artefact_group_member.html" xlink:title="artefact_group_member" target="_top">
<polygon fill="#ffffff" stroke="transparent" points="248,-353 248,-411 445,-411 445,-353 248,-353"/>
<polygon fill="#f5f5f5" stroke="transparent" points="248.5,-389 248.5,-411 445.5,-411 445.5,-389 248.5,-389"/>
<polygon fill="none" stroke="black" points="248.5,-389 248.5,-411 445.5,-411 445.5,-389 248.5,-389"/>
<text text-anchor="start" x="253.5" y="-398.2" font-family="Helvetica,sans-Serif" font-weight="bold" font-size="11.00">artefact_group_member</text>
<text text-anchor="start" x="403.5" y="-397.2" font-family="Helvetica,sans-Serif" font-size="11.00">[table]</text>
<polygon fill="none" stroke="black" points="248.5,-371 248.5,-389 445.5,-389 445.5,-371 248.5,-371"/>
<text text-anchor="start" x="251.5" y="-377.2" font-family="Helvetica,sans-Serif" font-size="11.00">...</text>
<polygon fill="#ffffff" stroke="transparent" points="248.5,-353 248.5,-371 325.5,-371 325.5,-353 248.5,-353"/>
<polygon fill="none" stroke="black" points="248.5,-353 248.5,-371 325.5,-371 325.5,-353 248.5,-353"/>
<text text-anchor="start" x="251.5" y="-359.2" font-family="Helvetica,sans-Serif" font-size="11.00">&lt; 2</text>
<polygon fill="#ffffff" stroke="transparent" points="325.5,-353 325.5,-371 393.5,-371 393.5,-353 325.5,-353"/>
<polygon fill="none" stroke="black" points="325.5,-353 325.5,-371 393.5,-371 393.5,-353 325.5,-353"/>
<text text-anchor="start" x="353.5" y="-359.2" font-family="Helvetica,sans-Serif" font-size="11.00">0 rows</text>
<polygon fill="#ffffff" stroke="transparent" points="393.5,-353 393.5,-371 445.5,-371 445.5,-353 393.5,-353"/>
<polygon fill="none" stroke="black" points="393.5,-353 393.5,-371 445.5,-371 445.5,-353 393.5,-353"/>
<text text-anchor="start" x="422.5" y="-359.2" font-family="Helvetica,sans-Serif" font-size="11.00">1 &gt;</text>
</a>
</g>
</g>
<!-- artefact_group_member&#45;&gt;artefact -->
<g id="edge2" class="edge">
<title>artefact_group_member:w&#45;&gt;artefact:e</title>
<path fill="none" stroke="black" d="M233.1,-382.15C184.96,-398.14 212.58,-498 150,-498"/>
<polygon fill="black" stroke="black" points="239.59,-381.18 248.03,-383.56 243.54,-380.59 247.5,-380 247.5,-380 247.5,-380 243.54,-380.59 246.97,-376.44 239.59,-381.18 239.59,-381.18"/>
<ellipse fill="none" stroke="black" cx="236.42" cy="-381.65" rx="3.2" ry="3.2"/>
</g>
<!-- artefact_position -->
<g id="node4" class="node">
<title>artefact_position</title>
<g id="a_node4"><a xlink:href="../../tables/artefact_position.html" xlink:title="artefact_position" target="_top">
<polygon fill="#ffffff" stroke="transparent" points="268.5,-274 268.5,-332 424.5,-332 424.5,-274 268.5,-274"/>
<polygon fill="#f5f5f5" stroke="transparent" points="268.5,-310 268.5,-332 424.5,-332 424.5,-310 268.5,-310"/>
<polygon fill="none" stroke="black" points="268.5,-310 268.5,-332 424.5,-332 424.5,-310 268.5,-310"/>
<text text-anchor="start" x="273.5" y="-319.2" font-family="Helvetica,sans-Serif" font-weight="bold" font-size="11.00">artefact_position</text>
<text text-anchor="start" x="382.5" y="-318.2" font-family="Helvetica,sans-Serif" font-size="11.00">[table]</text>
<polygon fill="none" stroke="black" points="268.5,-292 268.5,-310 424.5,-310 424.5,-292 268.5,-292"/>
<text text-anchor="start" x="271.5" y="-298.2" font-family="Helvetica,sans-Serif" font-size="11.00">...</text>
<polygon fill="#ffffff" stroke="transparent" points="268.5,-274 268.5,-292 324.5,-292 324.5,-274 268.5,-274"/>
<polygon fill="none" stroke="black" points="268.5,-274 268.5,-292 324.5,-292 324.5,-274 268.5,-274"/>
<text text-anchor="start" x="271.5" y="-280.2" font-family="Helvetica,sans-Serif" font-size="11.00">&lt; 1</text>
<polygon fill="#ffffff" stroke="transparent" points="324.5,-274 324.5,-292 382.5,-292 382.5,-274 324.5,-274"/>
<polygon fill="none" stroke="black" points="324.5,-274 324.5,-292 382.5,-292 382.5,-274 324.5,-274"/>
<text text-anchor="start" x="342.5" y="-280.2" font-family="Helvetica,sans-Serif" font-size="11.00">0 rows</text>
<polygon fill="#ffffff" stroke="transparent" points="382.5,-274 382.5,-292 424.5,-292 424.5,-274 382.5,-274"/>
<polygon fill="none" stroke="black" points="382.5,-274 382.5,-292 424.5,-292 424.5,-274 382.5,-274"/>
<text text-anchor="start" x="401.5" y="-280.2" font-family="Helvetica,sans-Serif" font-size="11.00">1 &gt;</text>
</a>
</g>
</g>
<!-- artefact_position&#45;&gt;artefact -->
<g id="edge3" class="edge">
<title>artefact_position:w&#45;&gt;artefact:e</title>
<path fill="none" stroke="black" d="M252.89,-302.59C174.14,-321.23 246.57,-498 150,-498"/>
<polygon fill="black" stroke="black" points="259.55,-301.86 267.89,-304.58 263.52,-301.43 267.5,-301 267.5,-301 267.5,-301 263.52,-301.43 267.11,-297.42 259.55,-301.86 259.55,-301.86"/>
<ellipse fill="none" stroke="black" cx="256.37" cy="-302.21" rx="3.2" ry="3.2"/>
</g>
<!-- artefact_shape -->
<g id="node5" class="node">
<title>artefact_shape</title>
<g id="a_node5"><a xlink:href="../../tables/artefact_shape.html" xlink:title="artefact_shape" target="_top">
<polygon fill="#ffffff" stroke="transparent" points="275,-669 275,-727 418,-727 418,-669 275,-669"/>
<polygon fill="#f5f5f5" stroke="transparent" points="275.5,-705 275.5,-727 418.5,-727 418.5,-705 275.5,-705"/>
<polygon fill="none" stroke="black" points="275.5,-705 275.5,-727 418.5,-727 418.5,-705 275.5,-705"/>
<text text-anchor="start" x="280.5" y="-714.2" font-family="Helvetica,sans-Serif" font-weight="bold" font-size="11.00">artefact_shape</text>
<text text-anchor="start" x="376.5" y="-713.2" font-family="Helvetica,sans-Serif" font-size="11.00">[table]</text>
<polygon fill="none" stroke="black" points="275.5,-687 275.5,-705 418.5,-705 418.5,-687 275.5,-687"/>
<text text-anchor="start" x="278.5" y="-693.2" font-family="Helvetica,sans-Serif" font-size="11.00">...</text>
<polygon fill="#ffffff" stroke="transparent" points="275.5,-669 275.5,-687 309.5,-687 309.5,-669 275.5,-669"/>
<polygon fill="none" stroke="black" points="275.5,-669 275.5,-687 309.5,-687 309.5,-669 275.5,-669"/>
<text text-anchor="start" x="278.5" y="-675.2" font-family="Helvetica,sans-Serif" font-size="11.00">&lt; 2</text>
<polygon fill="#ffffff" stroke="transparent" points="309.5,-669 309.5,-687 387.5,-687 387.5,-669 309.5,-669"/>
<polygon fill="none" stroke="black" points="309.5,-669 309.5,-687 387.5,-687 387.5,-669 309.5,-669"/>
<text text-anchor="start" x="316.5" y="-675.2" font-family="Helvetica,sans-Serif" font-size="11.00">27,685 rows</text>
<polygon fill="#ffffff" stroke="transparent" points="387.5,-669 387.5,-687 418.5,-687 418.5,-669 387.5,-669"/>
<polygon fill="none" stroke="black" points="387.5,-669 387.5,-687 418.5,-687 418.5,-669 387.5,-669"/>
<text text-anchor="start" x="395.5" y="-675.2" font-family="Helvetica,sans-Serif" font-size="11.00">1 &gt;</text>
</a>
</g>
</g>
<!-- artefact_shape&#45;&gt;artefact -->
<g id="edge4" class="edge">
<title>artefact_shape:w&#45;&gt;artefact:e</title>
<path fill="none" stroke="black" d="M260.12,-694.7C240.99,-690.77 233,-678.12 217,-659 167.27,-599.56 227.5,-498 150,-498"/>
<polygon fill="black" stroke="black" points="266.53,-695.28 274.18,-699.59 270.52,-695.64 274.5,-696 274.5,-696 274.5,-696 270.52,-695.64 274.82,-692.41 266.53,-695.28 266.53,-695.28"/>
<ellipse fill="none" stroke="black" cx="263.35" cy="-694.99" rx="3.2" ry="3.2"/>
</g>
<!-- artefact_stack -->
<g id="node6" class="node">
<title>artefact_stack</title>
<g id="a_node6"><a xlink:href="../../tables/artefact_stack.html" xlink:title="artefact_stack" target="_top">
<polygon fill="#ffffff" stroke="transparent" points="276.5,-590 276.5,-648 416.5,-648 416.5,-590 276.5,-590"/>
<polygon fill="#f5f5f5" stroke="transparent" points="276.5,-626 276.5,-648 416.5,-648 416.5,-626 276.5,-626"/>
<polygon fill="none" stroke="black" points="276.5,-626 276.5,-648 416.5,-648 416.5,-626 276.5,-626"/>
<text text-anchor="start" x="281.5" y="-635.2" font-family="Helvetica,sans-Serif" font-weight="bold" font-size="11.00">artefact_stack</text>
<text text-anchor="start" x="374.5" y="-634.2" font-family="Helvetica,sans-Serif" font-size="11.00">[table]</text>
<polygon fill="none" stroke="black" points="276.5,-608 276.5,-626 416.5,-626 416.5,-608 276.5,-608"/>
<text text-anchor="start" x="279.5" y="-614.2" font-family="Helvetica,sans-Serif" font-size="11.00">...</text>
<polygon fill="#ffffff" stroke="transparent" points="276.5,-590 276.5,-608 309.5,-608 309.5,-590 276.5,-590"/>
<polygon fill="none" stroke="black" points="276.5,-590 276.5,-608 309.5,-608 309.5,-590 276.5,-590"/>
<text text-anchor="start" x="279.5" y="-596.2" font-family="Helvetica,sans-Serif" font-size="11.00">&lt; 2</text>
<polygon fill="#ffffff" stroke="transparent" points="309.5,-590 309.5,-608 386.5,-608 386.5,-590 309.5,-590"/>
<polygon fill="none" stroke="black" points="309.5,-590 309.5,-608 386.5,-608 386.5,-590 309.5,-590"/>
<text text-anchor="start" x="315.5" y="-596.2" font-family="Helvetica,sans-Serif" font-size="11.00">22,748 rows</text>
<polygon fill="#ffffff" stroke="transparent" points="386.5,-590 386.5,-608 416.5,-608 416.5,-590 386.5,-590"/>
<polygon fill="none" stroke="black" points="386.5,-590 386.5,-608 416.5,-608 416.5,-590 386.5,-590"/>
<text text-anchor="start" x="393.5" y="-596.2" font-family="Helvetica,sans-Serif" font-size="11.00">1 &gt;</text>
</a>
</g>
</g>
<!-- artefact_stack&#45;&gt;artefact -->
<g id="edge5" class="edge">
<title>artefact_stack:w&#45;&gt;artefact:e</title>
<path fill="none" stroke="black" d="M261.45,-612.89C242.52,-605.05 235.98,-590.81 217,-574 181.77,-542.8 197.06,-492 150,-498"/>
<polygon fill="black" stroke="black" points="267.82,-614.75 274.49,-620.46 271.66,-615.88 275.5,-617 275.5,-617 275.5,-617 271.66,-615.88 276.51,-613.54 267.82,-614.75 267.82,-614.75"/>
<ellipse fill="none" stroke="black" cx="264.75" cy="-613.86" rx="3.2" ry="3.2"/>
</g>
<!-- artefact_stack&#45;&gt;artefact -->
<g id="edge6" class="edge">
<title>artefact_stack:w&#45;&gt;artefact:e</title>
<path fill="none" stroke="black" d="M261.18,-618.6C242.45,-617.91 235.89,-603.73 217,-587 181.77,-555.8 197.06,-505 150,-498"/>
<polygon fill="black" stroke="black" points="267.55,-617.89 275.9,-620.58 271.52,-617.44 275.5,-617 275.5,-617 275.5,-617 271.52,-617.44 275.1,-613.42 267.55,-617.89 267.55,-617.89"/>
<ellipse fill="none" stroke="black" cx="264.37" cy="-618.25" rx="3.2" ry="3.2"/>
</g>
<!-- artefact_status -->
<g id="node7" class="node">
<title>artefact_status</title>
<g id="a_node7"><a xlink:href="../../tables/artefact_status.html" xlink:title="artefact_status" target="_top">
<polygon fill="#ffffff" stroke="transparent" points="225,-143 225,-253 468,-253 468,-143 225,-143"/>
<polygon fill="#f5f5f5" stroke="transparent" points="227.5,-229 227.5,-251 466.5,-251 466.5,-229 227.5,-229"/>
<polygon fill="none" stroke="black" points="227.5,-229 227.5,-251 466.5,-251 466.5,-229 227.5,-229"/>
<text text-anchor="start" x="232.5" y="-238.2" font-family="Helvetica,sans-Serif" font-weight="bold" font-size="11.00">artefact_status</text>
<text text-anchor="start" x="424.5" y="-237.2" font-family="Helvetica,sans-Serif" font-size="11.00">[table]</text>
<polygon fill="none" stroke="black" points="227.5,-207 227.5,-229 369.5,-229 369.5,-207 227.5,-207"/>
<image xlink:href="../../images/primaryKeys.png" width="11px" height="12px" preserveAspectRatio="xMinYMin meet" x="232.5" y="-224"/>
<text text-anchor="start" x="247.5" y="-215.2" font-family="Helvetica,sans-Serif" font-size="11.00">artefact_status_id</text>
<polygon fill="none" stroke="black" points="369.5,-207 369.5,-229 466.5,-229 466.5,-207 369.5,-207"/>
<text text-anchor="start" x="372.5" y="-215.2" font-family="Helvetica,sans-Serif" font-size="11.00">int unsigned[10]</text>
<polygon fill="#ffffff" stroke="transparent" points="227.5,-185 227.5,-207 369.5,-207 369.5,-185 227.5,-185"/>
<polygon fill="none" stroke="black" points="227.5,-185 227.5,-207 369.5,-207 369.5,-185 227.5,-185"/>
<image xlink:href="../../images/foreignKeys.png" width="11px" height="12px" preserveAspectRatio="xMinYMin meet" x="232.5" y="-202"/>
<text text-anchor="start" x="247.5" y="-193.2" font-family="Helvetica,sans-Serif" font-size="11.00">work_status_id</text>
<polygon fill="none" stroke="black" points="369.5,-185 369.5,-207 466.5,-207 466.5,-185 369.5,-185"/>
<text text-anchor="start" x="372.5" y="-193.2" font-family="Helvetica,sans-Serif" font-size="11.00">int unsigned[10]</text>
<polygon fill="#ffffff" stroke="transparent" points="227.5,-163 227.5,-185 369.5,-185 369.5,-163 227.5,-163"/>
<polygon fill="none" stroke="black" points="227.5,-163 227.5,-185 369.5,-185 369.5,-163 227.5,-163"/>
<image xlink:href="../../images/foreignKeys.png" width="11px" height="12px" preserveAspectRatio="xMinYMin meet" x="232.5" y="-180"/>
<text text-anchor="start" x="247.5" y="-171.2" font-family="Helvetica,sans-Serif" font-size="11.00">artefact_id</text>
<polygon fill="none" stroke="black" points="369.5,-163 369.5,-185 466.5,-185 466.5,-163 369.5,-163"/>
<text text-anchor="start" x="372.5" y="-171.2" font-family="Helvetica,sans-Serif" font-size="11.00">int unsigned[10]</text>
<polygon fill="#ffffff" stroke="transparent" points="227.5,-145 227.5,-163 289.5,-163 289.5,-145 227.5,-145"/>
<polygon fill="none" stroke="black" points="227.5,-145 227.5,-163 289.5,-163 289.5,-145 227.5,-145"/>
<text text-anchor="start" x="230.5" y="-151.2" font-family="Helvetica,sans-Serif" font-size="11.00">&lt; 2</text>
<polygon fill="#ffffff" stroke="transparent" points="289.5,-145 289.5,-163 369.5,-163 369.5,-145 289.5,-145"/>
<polygon fill="none" stroke="black" points="289.5,-145 289.5,-163 369.5,-163 369.5,-145 289.5,-145"/>
<text text-anchor="start" x="329.5" y="-151.2" font-family="Helvetica,sans-Serif" font-size="11.00">0 rows</text>
<polygon fill="#ffffff" stroke="transparent" points="369.5,-145 369.5,-163 466.5,-163 466.5,-145 369.5,-145"/>
<polygon fill="none" stroke="black" points="369.5,-145 369.5,-163 466.5,-163 466.5,-145 369.5,-145"/>
<text text-anchor="start" x="443.5" y="-151.2" font-family="Helvetica,sans-Serif" font-size="11.00">1 &gt;</text>
<polygon fill="none" stroke="black" stroke-width="2" points="226,-144 226,-252 467,-252 467,-144 226,-144"/>
</a>
</g>
</g>
<!-- artefact_status&#45;&gt;artefact -->
<g id="edge7" class="edge">
<title>artefact_status:w&#45;&gt;artefact:e</title>
<path fill="none" stroke="black" d="M212.63,-178.83C162.09,-219.14 218.63,-498 150,-498"/>
<polygon fill="black" stroke="black" points="218.95,-176.63 227.68,-177.4 222.72,-175.32 226.5,-174 226.5,-174 226.5,-174 222.72,-175.32 225.32,-170.6 218.95,-176.63 218.95,-176.63"/>
<ellipse fill="none" stroke="black" cx="215.92" cy="-177.68" rx="3.2" ry="3.2"/>
</g>
<!-- work_status -->
<g id="node8" class="node">
<title>work_status</title>
<g id="a_node8"><a xlink:href="../../tables/work_status.html" xlink:title="work_status" target="_top">
<polygon fill="#ffffff" stroke="transparent" points="8,-145 8,-229 176,-229 176,-145 8,-145"/>
<polygon fill="#f5f5f5" stroke="transparent" points="8,-207 8,-229 176,-229 176,-207 8,-207"/>
<polygon fill="none" stroke="black" points="8,-207 8,-229 176,-229 176,-207 8,-207"/>
<text text-anchor="start" x="13" y="-216.2" font-family="Helvetica,sans-Serif" font-weight="bold" font-size="11.00">work_status</text>
<text text-anchor="start" x="134" y="-215.2" font-family="Helvetica,sans-Serif" font-size="11.00">[table]</text>
<polygon fill="none" stroke="black" points="8,-185 8,-207 176,-207 176,-185 8,-185"/>
<image xlink:href="../../images/primaryKeys.png" width="11px" height="12px" preserveAspectRatio="xMinYMin meet" x="13" y="-202"/>
<text text-anchor="start" x="28" y="-193.2" font-family="Helvetica,sans-Serif" font-size="11.00">work_status_id</text>
<polygon fill="#ffffff" stroke="transparent" points="8,-163 8,-185 176,-185 176,-163 8,-163"/>
<polygon fill="none" stroke="black" points="8,-163 8,-185 176,-185 176,-163 8,-163"/>
<text text-anchor="start" x="28" y="-171.2" font-family="Helvetica,sans-Serif" font-size="11.00">work_status_message</text>
<polygon fill="#ffffff" stroke="transparent" points="8,-145 8,-163 64,-163 64,-145 8,-145"/>
<polygon fill="none" stroke="black" points="8,-145 8,-163 64,-163 64,-145 8,-145"/>
<text text-anchor="start" x="11" y="-151.2" font-family="Helvetica,sans-Serif" font-size="11.00"> &#160;</text>
<polygon fill="#ffffff" stroke="transparent" points="64,-145 64,-163 128,-163 128,-145 64,-145"/>
<polygon fill="none" stroke="black" points="64,-145 64,-163 128,-163 128,-145 64,-145"/>
<text text-anchor="start" x="88" y="-151.2" font-family="Helvetica,sans-Serif" font-size="11.00">0 rows</text>
<polygon fill="#ffffff" stroke="transparent" points="128,-145 128,-163 176,-163 176,-145 128,-145"/>
<polygon fill="none" stroke="black" points="128,-145 128,-163 176,-163 176,-145 128,-145"/>
<text text-anchor="start" x="153" y="-151.2" font-family="Helvetica,sans-Serif" font-size="11.00">1 &gt;</text>
</a>
</g>
</g>
<!-- artefact_status&#45;&gt;work_status -->
<g id="edge8" class="edge">
<title>artefact_status:w&#45;&gt;work_status:e</title>
<path fill="none" stroke="black" d="M211.84,-196C200.41,-196 193.16,-196 177,-196"/>
<polygon fill="black" stroke="black" points="218.5,-196 226.5,-199.6 222.5,-196 226.5,-196 226.5,-196 226.5,-196 222.5,-196 226.5,-192.4 218.5,-196 218.5,-196"/>
<ellipse fill="none" stroke="black" cx="215.3" cy="-196" rx="3.2" ry="3.2"/>
</g>
<!-- artefact_status_owner -->
<g id="node9" class="node">
<title>artefact_status_owner</title>
<g id="a_node9"><a xlink:href="../../tables/artefact_status_owner.html" xlink:title="artefact_status_owner" target="_top">
<polygon fill="#ffffff" stroke="transparent" points="517,-68 517,-174 706,-174 706,-68 517,-68"/>
<polygon fill="#f5f5f5" stroke="transparent" points="517.5,-152 517.5,-174 706.5,-174 706.5,-152 517.5,-152"/>
<polygon fill="none" stroke="black" points="517.5,-152 517.5,-174 706.5,-174 706.5,-152 517.5,-152"/>
<text text-anchor="start" x="522.5" y="-161.2" font-family="Helvetica,sans-Serif" font-weight="bold" font-size="11.00">artefact_status_owner</text>
<text text-anchor="start" x="664.5" y="-160.2" font-family="Helvetica,sans-Serif" font-size="11.00">[table]</text>
<polygon fill="none" stroke="black" points="517.5,-130 517.5,-152 706.5,-152 706.5,-130 517.5,-130"/>
<image xlink:href="../../images/primaryKeys.png" width="11px" height="12px" preserveAspectRatio="xMinYMin meet" x="522.5" y="-147"/>
<text text-anchor="start" x="546.5" y="-138.2" font-family="Helvetica,sans-Serif" font-size="11.00">artefact_status_id</text>
<polygon fill="none" stroke="black" points="517.5,-108 517.5,-130 706.5,-130 706.5,-108 517.5,-108"/>
<image xlink:href="../../images/primaryKeys.png" width="11px" height="12px" preserveAspectRatio="xMinYMin meet" x="522.5" y="-125"/>
<text text-anchor="start" x="546.5" y="-116.2" font-family="Helvetica,sans-Serif" font-size="11.00">edition_id</text>
<polygon fill="#ffffff" stroke="transparent" points="517.5,-86 517.5,-108 706.5,-108 706.5,-86 517.5,-86"/>
<polygon fill="none" stroke="black" points="517.5,-86 517.5,-108 706.5,-108 706.5,-86 517.5,-86"/>
<image xlink:href="../../images/foreignKeys.png" width="11px" height="12px" preserveAspectRatio="xMinYMin meet" x="522.5" y="-103"/>
<text text-anchor="start" x="546.5" y="-94.2" font-family="Helvetica,sans-Serif" font-size="11.00">edition_editor_id</text>
<polygon fill="#ffffff" stroke="transparent" points="517.5,-68 517.5,-86 596.5,-86 596.5,-68 517.5,-68"/>
<polygon fill="none" stroke="black" points="517.5,-68 517.5,-86 596.5,-86 596.5,-68 517.5,-68"/>
<text text-anchor="start" x="520.5" y="-74.2" font-family="Helvetica,sans-Serif" font-size="11.00">&lt; 3</text>
<polygon fill="#ffffff" stroke="transparent" points="596.5,-68 596.5,-86 665.5,-86 665.5,-68 596.5,-68"/>
<polygon fill="none" stroke="black" points="596.5,-68 596.5,-86 665.5,-86 665.5,-68 596.5,-68"/>
<text text-anchor="start" x="625.5" y="-74.2" font-family="Helvetica,sans-Serif" font-size="11.00">0 rows</text>
<polygon fill="#ffffff" stroke="transparent" points="665.5,-68 665.5,-86 706.5,-86 706.5,-68 665.5,-68"/>
<polygon fill="none" stroke="black" points="665.5,-68 665.5,-86 706.5,-86 706.5,-68 665.5,-68"/>
<text text-anchor="start" x="695.5" y="-74.2" font-family="Helvetica,sans-Serif" font-size="11.00"> &#160;</text>
</a>
</g>
</g>
<!-- artefact_status_owner&#45;&gt;artefact_status -->
<g id="edge9" class="edge">
<title>artefact_status_owner:w&#45;&gt;artefact_status:e</title>
<path fill="none" stroke="black" d="M502.77,-145.59C483.87,-162.16 502.04,-218 467.5,-218"/>
<polygon fill="black" stroke="black" points="508.91,-143.53 517.64,-144.41 512.71,-142.27 516.5,-141 516.5,-141 516.5,-141 512.71,-142.27 515.36,-137.59 508.91,-143.53 508.91,-143.53"/>
<ellipse fill="none" stroke="black" cx="505.88" cy="-144.55" rx="3.2" ry="3.2"/>
</g>
<!-- edition_editor -->
<g id="node10" class="node">
<title>edition_editor</title>
<g id="a_node10"><a xlink:href="../../tables/edition_editor.html" xlink:title="edition_editor" target="_top">
<polygon fill="#ffffff" stroke="transparent" points="278.5,-37 278.5,-95 414.5,-95 414.5,-37 278.5,-37"/>
<polygon fill="#f5f5f5" stroke="transparent" points="278.5,-73 278.5,-95 414.5,-95 414.5,-73 278.5,-73"/>
<polygon fill="none" stroke="black" points="278.5,-73 278.5,-95 414.5,-95 414.5,-73 278.5,-73"/>
<text text-anchor="start" x="283.5" y="-82.2" font-family="Helvetica,sans-Serif" font-weight="bold" font-size="11.00">edition_editor</text>
<text text-anchor="start" x="372.5" y="-81.2" font-family="Helvetica,sans-Serif" font-size="11.00">[table]</text>
<polygon fill="none" stroke="black" points="278.5,-55 278.5,-73 414.5,-73 414.5,-55 278.5,-55"/>
<text text-anchor="start" x="281.5" y="-61.2" font-family="Helvetica,sans-Serif" font-size="11.00">...</text>
<polygon fill="#ffffff" stroke="transparent" points="278.5,-37 278.5,-55 309.5,-55 309.5,-37 278.5,-37"/>
<polygon fill="none" stroke="black" points="278.5,-37 278.5,-55 309.5,-55 309.5,-37 278.5,-37"/>
<text text-anchor="start" x="281.5" y="-43.2" font-family="Helvetica,sans-Serif" font-size="11.00">&lt; 2</text>
<polygon fill="#ffffff" stroke="transparent" points="309.5,-37 309.5,-55 378.5,-55 378.5,-37 309.5,-37"/>
<polygon fill="none" stroke="black" points="309.5,-37 309.5,-55 378.5,-55 378.5,-37 309.5,-37"/>
<text text-anchor="start" x="314.5" y="-43.2" font-family="Helvetica,sans-Serif" font-size="11.00">1,645 rows</text>
<polygon fill="#ffffff" stroke="transparent" points="378.5,-37 378.5,-55 414.5,-55 414.5,-37 378.5,-37"/>
<polygon fill="none" stroke="black" points="378.5,-37 378.5,-55 414.5,-55 414.5,-37 378.5,-37"/>
<text text-anchor="start" x="384.5" y="-43.2" font-family="Helvetica,sans-Serif" font-size="11.00">33 &gt;</text>
</a>
</g>
</g>
<!-- artefact_status_owner&#45;&gt;edition_editor -->
<g id="edge10" class="edge">
<title>artefact_status_owner:w&#45;&gt;edition_editor:e</title>
<path fill="none" stroke="black" d="M501.9,-95.83C467.27,-89.95 457.37,-64 415.5,-64"/>
<polygon fill="black" stroke="black" points="508.53,-96.36 516.21,-100.59 512.51,-96.68 516.5,-97 516.5,-97 516.5,-97 512.51,-96.68 516.79,-93.41 508.53,-96.36 508.53,-96.36"/>
<ellipse fill="none" stroke="black" cx="505.34" cy="-96.1" rx="3.2" ry="3.2"/>
</g>
<!-- edition -->
<g id="node11" class="node">
<title>edition</title>
<g id="a_node11"><a xlink:href="../../tables/edition.html" xlink:title="edition" target="_top">
<polygon fill="#ffffff" stroke="transparent" points="29,-51 29,-109 155,-109 155,-51 29,-51"/>
<polygon fill="#f5f5f5" stroke="transparent" points="29,-87 29,-109 155,-109 155,-87 29,-87"/>
<polygon fill="none" stroke="black" points="29,-87 29,-109 155,-109 155,-87 29,-87"/>
<text text-anchor="start" x="34" y="-96.2" font-family="Helvetica,sans-Serif" font-weight="bold" font-size="11.00">edition</text>
<text text-anchor="start" x="113" y="-95.2" font-family="Helvetica,sans-Serif" font-size="11.00">[table]</text>
<polygon fill="none" stroke="black" points="29,-69 29,-87 155,-87 155,-69 29,-69"/>
<text text-anchor="start" x="32" y="-75.2" font-family="Helvetica,sans-Serif" font-size="11.00">...</text>
<polygon fill="#ffffff" stroke="transparent" points="29,-51 29,-69 55,-69 55,-51 29,-51"/>
<polygon fill="none" stroke="black" points="29,-51 29,-69 55,-69 55,-51 29,-51"/>
<text text-anchor="start" x="32" y="-57.2" font-family="Helvetica,sans-Serif" font-size="11.00">&lt; 1</text>
<polygon fill="#ffffff" stroke="transparent" points="55,-51 55,-69 122,-69 122,-51 55,-51"/>
<polygon fill="none" stroke="black" points="55,-51 55,-69 122,-69 122,-51 55,-51"/>
<text text-anchor="start" x="58" y="-57.2" font-family="Helvetica,sans-Serif" font-size="11.00">1,645 rows</text>
<polygon fill="#ffffff" stroke="transparent" points="122,-51 122,-69 155,-69 155,-51 122,-51"/>
<polygon fill="none" stroke="black" points="122,-51 122,-69 155,-69 155,-51 122,-51"/>
<text text-anchor="start" x="125" y="-57.2" font-family="Helvetica,sans-Serif" font-size="11.00">35 &gt;</text>
</a>
</g>
</g>
<!-- artefact_status_owner&#45;&gt;edition -->
<g id="edge11" class="edge">
<title>artefact_status_owner:w&#45;&gt;edition:e</title>
<path fill="none" stroke="black" d="M502.05,-119.07C380.4,-120.17 341.88,-134.47 217,-105 188.14,-98.19 185.65,-78 156,-78"/>
<polygon fill="black" stroke="black" points="508.5,-119.04 516.52,-122.6 512.5,-119.02 516.5,-119 516.5,-119 516.5,-119 512.5,-119.02 516.48,-115.4 508.5,-119.04 508.5,-119.04"/>
<ellipse fill="none" stroke="black" cx="505.3" cy="-119.05" rx="3.2" ry="3.2"/>
</g>
<!-- edition_editor&#45;&gt;edition -->
<g id="edge12" class="edge">
<title>edition_editor:w&#45;&gt;edition:e</title>
<path fill="none" stroke="black" d="M262.96,-64.36C220.31,-66.55 205.16,-78 156,-78"/>
<polygon fill="black" stroke="black" points="269.5,-64.2 277.59,-67.6 273.5,-64.1 277.5,-64 277.5,-64 277.5,-64 273.5,-64.1 277.41,-60.4 269.5,-64.2 269.5,-64.2"/>
<ellipse fill="none" stroke="black" cx="266.3" cy="-64.28" rx="3.2" ry="3.2"/>
</g>
<!-- roi_position -->
<g id="node12" class="node">
<title>roi_position</title>
<g id="a_node12"><a xlink:href="../../tables/roi_position.html" xlink:title="roi_position" target="_top">
<polygon fill="#ffffff" stroke="transparent" points="285,-511 285,-569 408,-569 408,-511 285,-511"/>
<polygon fill="#f5f5f5" stroke="transparent" points="285.5,-547 285.5,-569 408.5,-569 408.5,-547 285.5,-547"/>
<polygon fill="none" stroke="black" points="285.5,-547 285.5,-569 408.5,-569 408.5,-547 285.5,-547"/>
<text text-anchor="start" x="290.5" y="-556.2" font-family="Helvetica,sans-Serif" font-weight="bold" font-size="11.00">roi_position</text>
<text text-anchor="start" x="366.5" y="-555.2" font-family="Helvetica,sans-Serif" font-size="11.00">[table]</text>
<polygon fill="none" stroke="black" points="285.5,-529 285.5,-547 408.5,-547 408.5,-529 285.5,-529"/>
<text text-anchor="start" x="288.5" y="-535.2" font-family="Helvetica,sans-Serif" font-size="11.00">...</text>
<polygon fill="#ffffff" stroke="transparent" points="285.5,-511 285.5,-529 325.5,-529 325.5,-511 285.5,-511"/>
<polygon fill="none" stroke="black" points="285.5,-511 285.5,-529 325.5,-529 325.5,-511 285.5,-511"/>
<text text-anchor="start" x="288.5" y="-517.2" font-family="Helvetica,sans-Serif" font-size="11.00">&lt; 1</text>
<polygon fill="#ffffff" stroke="transparent" points="325.5,-511 325.5,-529 375.5,-529 375.5,-511 325.5,-511"/>
<polygon fill="none" stroke="black" points="325.5,-511 325.5,-529 375.5,-529 375.5,-511 325.5,-511"/>
<text text-anchor="start" x="335.5" y="-517.2" font-family="Helvetica,sans-Serif" font-size="11.00">0 rows</text>
<polygon fill="#ffffff" stroke="transparent" points="375.5,-511 375.5,-529 408.5,-529 408.5,-511 375.5,-511"/>
<polygon fill="none" stroke="black" points="375.5,-511 375.5,-529 408.5,-529 408.5,-511 375.5,-511"/>
<text text-anchor="start" x="385.5" y="-517.2" font-family="Helvetica,sans-Serif" font-size="11.00">1 &gt;</text>
</a>
</g>
</g>
<!-- roi_position&#45;&gt;artefact -->
<g id="edge13" class="edge">
<title>roi_position:w&#45;&gt;artefact:e</title>
<path fill="none" stroke="black" d="M269.84,-537.2C220.12,-531.56 207.13,-498 150,-498"/>
<polygon fill="black" stroke="black" points="276.51,-537.56 284.3,-541.59 280.51,-537.78 284.5,-538 284.5,-538 284.5,-538 280.51,-537.78 284.7,-534.41 276.51,-537.56 276.51,-537.56"/>
<ellipse fill="none" stroke="black" cx="273.32" cy="-537.39" rx="3.2" ry="3.2"/>
</g>
</g>
</svg>
