<?xml version="1.0" encoding="UTF-8" standalone="no"?>
<!DOCTYPE svg PUBLIC "-//W3C//DTD SVG 1.1//EN"
 "http://www.w3.org/Graphics/SVG/1.1/DTD/svg11.dtd">
<!-- Generated by graphviz version 2.43.0 (0)
 -->
<!-- Title: oneDegreeRelationshipsDiagram Pages: 1 -->
<svg width="514pt" height="278pt"
 viewBox="0.00 0.00 514.00 278.00" xmlns="http://www.w3.org/2000/svg" xmlns:xlink="http://www.w3.org/1999/xlink">
<g id="graph0" class="graph" transform="scale(1 1) rotate(0) translate(4 274)">
<title>oneDegreeRelationshipsDiagram</title>
<polygon fill="#ffffff" stroke="transparent" points="-4,4 -4,-274 510,-274 510,4 -4,4"/>
<text text-anchor="middle" x="79.5" y="-7.2" font-family="Helvetica,sans-Serif" font-size="11.00">Generated by SchemaSpy</text>
<!-- artefact_group_data -->
<g id="node1" class="node">
<title>artefact_group_data</title>
<g id="a_node1"><a xlink:href="../../tables/artefact_group_data.html" xlink:title="artefact_group_data" target="_top">
<polygon fill="#ffffff" stroke="transparent" points="309.5,-164 309.5,-266 485.5,-266 485.5,-164 309.5,-164"/>
<polygon fill="#f5f5f5" stroke="transparent" points="309.5,-244 309.5,-266 485.5,-266 485.5,-244 309.5,-244"/>
<polygon fill="none" stroke="black" points="309.5,-244 309.5,-266 485.5,-266 485.5,-244 309.5,-244"/>
<text text-anchor="start" x="314.5" y="-253.2" font-family="Helvetica,sans-Serif" font-weight="bold" font-size="11.00">artefact_group_data</text>
<text text-anchor="start" x="443.5" y="-252.2" font-family="Helvetica,sans-Serif" font-size="11.00">[table]</text>
<polygon fill="none" stroke="black" points="309.5,-222 309.5,-244 485.5,-244 485.5,-222 309.5,-222"/>
<image xlink:href="../../images/primaryKeys.png" width="11px" height="12px" preserveAspectRatio="xMinYMin meet" x="314.5" y="-239"/>
<text text-anchor="start" x="329.5" y="-230.2" font-family="Helvetica,sans-Serif" font-size="11.00">artefact_group_data_id</text>
<polygon fill="#ffffff" stroke="transparent" points="309.5,-200 309.5,-222 485.5,-222 485.5,-200 309.5,-200"/>
<polygon fill="none" stroke="black" points="309.5,-200 309.5,-222 485.5,-222 485.5,-200 309.5,-200"/>
<image xlink:href="../../images/foreignKeys.png" width="11px" height="12px" preserveAspectRatio="xMinYMin meet" x="314.5" y="-217"/>
<text text-anchor="start" x="329.5" y="-208.2" font-family="Helvetica,sans-Serif" font-size="11.00">artefact_group_id</text>
<polygon fill="none" stroke="black" points="309.5,-182 309.5,-200 485.5,-200 485.5,-182 309.5,-182"/>
<text text-anchor="start" x="312.5" y="-188.2" font-family="Helvetica,sans-Serif" font-size="11.00">...</text>
<polygon fill="#ffffff" stroke="transparent" points="309.5,-164 309.5,-182 375.5,-182 375.5,-164 309.5,-164"/>
<polygon fill="none" stroke="black" points="309.5,-164 309.5,-182 375.5,-182 375.5,-164 309.5,-164"/>
<text text-anchor="start" x="312.5" y="-170.2" font-family="Helvetica,sans-Serif" font-size="11.00">&lt; 1</text>
<polygon fill="#ffffff" stroke="transparent" points="375.5,-164 375.5,-182 438.5,-182 438.5,-164 375.5,-164"/>
<polygon fill="none" stroke="black" points="375.5,-164 375.5,-182 438.5,-182 438.5,-164 375.5,-164"/>
<text text-anchor="start" x="398.5" y="-170.2" font-family="Helvetica,sans-Serif" font-size="11.00">0 rows</text>
<polygon fill="#ffffff" stroke="transparent" points="438.5,-164 438.5,-182 485.5,-182 485.5,-164 438.5,-164"/>
<polygon fill="none" stroke="black" points="438.5,-164 438.5,-182 485.5,-182 485.5,-164 438.5,-164"/>
<text text-anchor="start" x="462.5" y="-170.2" font-family="Helvetica,sans-Serif" font-size="11.00">1 &gt;</text>
</a>
</g>
</g>
<!-- artefact_group -->
<g id="node2" class="node">
<title>artefact_group</title>
<g id="a_node2"><a xlink:href="../../tables/artefact_group.html" xlink:title="artefact_group" target="_top">
<polygon fill="#ffffff" stroke="transparent" points="8,-118 8,-184 248,-184 248,-118 8,-118"/>
<polygon fill="#f5f5f5" stroke="transparent" points="10,-160 10,-182 246,-182 246,-160 10,-160"/>
<polygon fill="none" stroke="black" points="10,-160 10,-182 246,-182 246,-160 10,-160"/>
<text text-anchor="start" x="15" y="-169.2" font-family="Helvetica,sans-Serif" font-weight="bold" font-size="11.00">artefact_group</text>
<text text-anchor="start" x="204" y="-168.2" font-family="Helvetica,sans-Serif" font-size="11.00">[table]</text>
<polygon fill="none" stroke="black" points="10,-138 10,-160 149,-160 149,-138 10,-138"/>
<image xlink:href="../../images/primaryKeys.png" width="11px" height="12px" preserveAspectRatio="xMinYMin meet" x="15" y="-155"/>
<text text-anchor="start" x="30" y="-146.2" font-family="Helvetica,sans-Serif" font-size="11.00">artefact_group_id</text>
<polygon fill="none" stroke="black" points="149,-138 149,-160 246,-160 246,-138 149,-138"/>
<text text-anchor="start" x="152" y="-146.2" font-family="Helvetica,sans-Serif" font-size="11.00">int unsigned[10]</text>
<polygon fill="#ffffff" stroke="transparent" points="10,-120 10,-138 71,-138 71,-120 10,-120"/>
<polygon fill="none" stroke="black" points="10,-120 10,-138 71,-138 71,-120 10,-120"/>
<text text-anchor="start" x="13" y="-126.2" font-family="Helvetica,sans-Serif" font-size="11.00">&lt; 0</text>
<polygon fill="#ffffff" stroke="transparent" points="71,-120 71,-138 149,-138 149,-120 71,-120"/>
<polygon fill="none" stroke="black" points="71,-120 71,-138 149,-138 149,-120 71,-120"/>
<text text-anchor="start" x="109" y="-126.2" font-family="Helvetica,sans-Serif" font-size="11.00">0 rows</text>
<polygon fill="#ffffff" stroke="transparent" points="149,-120 149,-138 246,-138 246,-120 149,-120"/>
<polygon fill="none" stroke="black" points="149,-120 149,-138 246,-138 246,-120 149,-120"/>
<text text-anchor="start" x="223" y="-126.2" font-family="Helvetica,sans-Serif" font-size="11.00">2 &gt;</text>
<polygon fill="none" stroke="black" stroke-width="2" points="9,-119 9,-183 247,-183 247,-119 9,-119"/>
</a>
</g>
</g>
<!-- artefact_group_data&#45;&gt;artefact_group -->
<g id="edge1" class="edge">
<title>artefact_group_data:w&#45;&gt;artefact_group:e</title>
<path fill="none" stroke="black" d="M294.49,-207.31C273.26,-193.96 280.05,-149 247,-149"/>
<polygon fill="black" stroke="black" points="300.76,-208.96 307.58,-214.48 304.63,-209.98 308.5,-211 308.5,-211 308.5,-211 304.63,-209.98 309.42,-207.52 300.76,-208.96 300.76,-208.96"/>
<ellipse fill="none" stroke="black" cx="297.67" cy="-208.15" rx="3.2" ry="3.2"/>
</g>
<!-- artefact_group_member -->
<g id="node3" class="node">
<title>artefact_group_member</title>
<g id="a_node3"><a xlink:href="../../tables/artefact_group_member.html" xlink:title="artefact_group_member" target="_top">
<polygon fill="#ffffff" stroke="transparent" points="297,-37 297,-143 498,-143 498,-37 297,-37"/>
<polygon fill="#f5f5f5" stroke="transparent" points="297.5,-121 297.5,-143 498.5,-143 498.5,-121 297.5,-121"/>
<polygon fill="none" stroke="black" points="297.5,-121 297.5,-143 498.5,-143 498.5,-121 297.5,-121"/>
<text text-anchor="start" x="302.5" y="-130.2" font-family="Helvetica,sans-Serif" font-weight="bold" font-size="11.00">artefact_group_member</text>
<text text-anchor="start" x="456.5" y="-129.2" font-family="Helvetica,sans-Serif" font-size="11.00">[table]</text>
<polygon fill="none" stroke="black" points="297.5,-99 297.5,-121 498.5,-121 498.5,-99 297.5,-99"/>
<image xlink:href="../../images/primaryKeys.png" width="11px" height="12px" preserveAspectRatio="xMinYMin meet" x="302.5" y="-116"/>
<text text-anchor="start" x="317.5" y="-107.2" font-family="Helvetica,sans-Serif" font-size="11.00">artefact_group_member_id</text>
<polygon fill="#ffffff" stroke="transparent" points="297.5,-77 297.5,-99 498.5,-99 498.5,-77 297.5,-77"/>
<polygon fill="none" stroke="black" points="297.5,-77 297.5,-99 498.5,-99 498.5,-77 297.5,-77"/>
<image xlink:href="../../images/foreignKeys.png" width="11px" height="12px" preserveAspectRatio="xMinYMin meet" x="302.5" y="-94"/>
<text text-anchor="start" x="317.5" y="-85.2" font-family="Helvetica,sans-Serif" font-size="11.00">artefact_group_id</text>
<polygon fill="#ffffff" stroke="transparent" points="297.5,-55 297.5,-77 498.5,-77 498.5,-55 297.5,-55"/>
<polygon fill="none" stroke="black" points="297.5,-55 297.5,-77 498.5,-77 498.5,-55 297.5,-55"/>
<image xlink:href="../../images/foreignKeys.png" width="11px" height="12px" preserveAspectRatio="xMinYMin meet" x="302.5" y="-72"/>
<text text-anchor="start" x="317.5" y="-63.2" font-family="Helvetica,sans-Serif" font-size="11.00">artefact_id</text>
<polygon fill="#ffffff" stroke="transparent" points="297.5,-37 297.5,-55 376.5,-55 376.5,-37 297.5,-37"/>
<polygon fill="none" stroke="black" points="297.5,-37 297.5,-55 376.5,-55 376.5,-37 297.5,-37"/>
<text text-anchor="start" x="300.5" y="-43.2" font-family="Helvetica,sans-Serif" font-size="11.00">&lt; 2</text>
<polygon fill="#ffffff" stroke="transparent" points="376.5,-37 376.5,-55 445.5,-55 445.5,-37 376.5,-37"/>
<polygon fill="none" stroke="black" points="376.5,-37 376.5,-55 445.5,-55 445.5,-37 376.5,-37"/>
<text text-anchor="start" x="405.5" y="-43.2" font-family="Helvetica,sans-Serif" font-size="11.00">0 rows</text>
<polygon fill="#ffffff" stroke="transparent" points="445.5,-37 445.5,-55 498.5,-55 498.5,-37 445.5,-37"/>
<polygon fill="none" stroke="black" points="445.5,-37 445.5,-55 498.5,-55 498.5,-37 445.5,-37"/>
<text text-anchor="start" x="475.5" y="-43.2" font-family="Helvetica,sans-Serif" font-size="11.00">1 &gt;</text>
</a>
</g>
</g>
<!-- artefact_group_member&#45;&gt;artefact_group -->
<g id="edge2" class="edge">
<title>artefact_group_member:w&#45;&gt;artefact_group:e</title>
<path fill="none" stroke="black" d="M282.83,-92.79C266.94,-107.17 275.91,-149 247,-149"/>
<polygon fill="black" stroke="black" points="288.95,-90.64 297.69,-91.4 292.72,-89.32 296.5,-88 296.5,-88 296.5,-88 292.72,-89.32 295.31,-84.6 288.95,-90.64 288.95,-90.64"/>
<ellipse fill="none" stroke="black" cx="285.93" cy="-91.7" rx="3.2" ry="3.2"/>
</g>
</g>
</svg>
