<?xml version="1.0" encoding="UTF-8" standalone="no"?>
<!DOCTYPE svg PUBLIC "-//W3C//DTD SVG 1.1//EN"
 "http://www.w3.org/Graphics/SVG/1.1/DTD/svg11.dtd">
<!-- Generated by graphviz version 2.43.0 (0)
 -->
<!-- Title: twoDegreesRelationshipsDiagram Pages: 1 -->
<svg width="804pt" height="278pt"
 viewBox="0.00 0.00 804.00 278.00" xmlns="http://www.w3.org/2000/svg" xmlns:xlink="http://www.w3.org/1999/xlink">
<g id="graph0" class="graph" transform="scale(1 1) rotate(0) translate(4 274)">
<title>twoDegreesRelationshipsDiagram</title>
<polygon fill="#ffffff" stroke="transparent" points="-4,4 -4,-274 800,-274 800,4 -4,4"/>
<text text-anchor="middle" x="79.5" y="-7.2" font-family="Helvetica,sans-Serif" font-size="11.00">Generated by SchemaSpy</text>
<!-- artefact_group_data -->
<g id="node1" class="node">
<title>artefact_group_data</title>
<g id="a_node1"><a xlink:href="../../tables/artefact_group_data.html" xlink:title="artefact_group_data" target="_top">
<polygon fill="#ffffff" stroke="transparent" points="309.5,-164 309.5,-266 485.5,-266 485.5,-164 309.5,-164"/>
<polygon fill="#f5f5f5" stroke="transparent" points="309.5,-244 309.5,-266 485.5,-266 485.5,-244 309.5,-244"/>
<polygon fill="none" stroke="black" points="309.5,-244 309.5,-266 485.5,-266 485.5,-244 309.5,-244"/>
<text text-anchor="start" x="314.5" y="-253.2" font-family="Helvetica,sans-Serif" font-weight="bold" font-size="11.00">artefact_group_data</text>
<text text-anchor="start" x="443.5" y="-252.2" font-family="Helvetica,sans-Serif" font-size="11.00">[table]</text>
<polygon fill="none" stroke="black" points="309.5,-222 309.5,-244 485.5,-244 485.5,-222 309.5,-222"/>
<image xlink:href="../../images/primaryKeys.png" width="11px" height="12px" preserveAspectRatio="xMinYMin meet" x="314.5" y="-239"/>
<text text-anchor="start" x="329.5" y="-230.2" font-family="Helvetica,sans-Serif" font-size="11.00">artefact_group_data_id</text>
<polygon fill="#ffffff" stroke="transparent" points="309.5,-200 309.5,-222 485.5,-222 485.5,-200 309.5,-200"/>
<polygon fill="none" stroke="black" points="309.5,-200 309.5,-222 485.5,-222 485.5,-200 309.5,-200"/>
<image xlink:href="../../images/foreignKeys.png" width="11px" height="12px" preserveAspectRatio="xMinYMin meet" x="314.5" y="-217"/>
<text text-anchor="start" x="329.5" y="-208.2" font-family="Helvetica,sans-Serif" font-size="11.00">artefact_group_id</text>
<polygon fill="none" stroke="black" points="309.5,-182 309.5,-200 485.5,-200 485.5,-182 309.5,-182"/>
<text text-anchor="start" x="312.5" y="-188.2" font-family="Helvetica,sans-Serif" font-size="11.00">...</text>
<polygon fill="#ffffff" stroke="transparent" points="309.5,-164 309.5,-182 375.5,-182 375.5,-164 309.5,-164"/>
<polygon fill="none" stroke="black" points="309.5,-164 309.5,-182 375.5,-182 375.5,-164 309.5,-164"/>
<text text-anchor="start" x="312.5" y="-170.2" font-family="Helvetica,sans-Serif" font-size="11.00">&lt; 1</text>
<polygon fill="#ffffff" stroke="transparent" points="375.5,-164 375.5,-182 438.5,-182 438.5,-164 375.5,-164"/>
<polygon fill="none" stroke="black" points="375.5,-164 375.5,-182 438.5,-182 438.5,-164 375.5,-164"/>
<text text-anchor="start" x="398.5" y="-170.2" font-family="Helvetica,sans-Serif" font-size="11.00">0 rows</text>
<polygon fill="#ffffff" stroke="transparent" points="438.5,-164 438.5,-182 485.5,-182 485.5,-164 438.5,-164"/>
<polygon fill="none" stroke="black" points="438.5,-164 438.5,-182 485.5,-182 485.5,-164 438.5,-164"/>
<text text-anchor="start" x="462.5" y="-170.2" font-family="Helvetica,sans-Serif" font-size="11.00">1 &gt;</text>
</a>
</g>
</g>
<!-- artefact_group -->
<g id="node2" class="node">
<title>artefact_group</title>
<g id="a_node2"><a xlink:href="../../tables/artefact_group.html" xlink:title="artefact_group" target="_top">
<polygon fill="#ffffff" stroke="transparent" points="8,-149 8,-215 248,-215 248,-149 8,-149"/>
<polygon fill="#f5f5f5" stroke="transparent" points="10,-191 10,-213 246,-213 246,-191 10,-191"/>
<polygon fill="none" stroke="black" points="10,-191 10,-213 246,-213 246,-191 10,-191"/>
<text text-anchor="start" x="15" y="-200.2" font-family="Helvetica,sans-Serif" font-weight="bold" font-size="11.00">artefact_group</text>
<text text-anchor="start" x="204" y="-199.2" font-family="Helvetica,sans-Serif" font-size="11.00">[table]</text>
<polygon fill="none" stroke="black" points="10,-169 10,-191 149,-191 149,-169 10,-169"/>
<image xlink:href="../../images/primaryKeys.png" width="11px" height="12px" preserveAspectRatio="xMinYMin meet" x="15" y="-186"/>
<text text-anchor="start" x="30" y="-177.2" font-family="Helvetica,sans-Serif" font-size="11.00">artefact_group_id</text>
<polygon fill="none" stroke="black" points="149,-169 149,-191 246,-191 246,-169 149,-169"/>
<text text-anchor="start" x="152" y="-177.2" font-family="Helvetica,sans-Serif" font-size="11.00">int unsigned[10]</text>
<polygon fill="#ffffff" stroke="transparent" points="10,-151 10,-169 71,-169 71,-151 10,-151"/>
<polygon fill="none" stroke="black" points="10,-151 10,-169 71,-169 71,-151 10,-151"/>
<text text-anchor="start" x="13" y="-157.2" font-family="Helvetica,sans-Serif" font-size="11.00">&lt; 0</text>
<polygon fill="#ffffff" stroke="transparent" points="71,-151 71,-169 149,-169 149,-151 71,-151"/>
<polygon fill="none" stroke="black" points="71,-151 71,-169 149,-169 149,-151 71,-151"/>
<text text-anchor="start" x="109" y="-157.2" font-family="Helvetica,sans-Serif" font-size="11.00">0 rows</text>
<polygon fill="#ffffff" stroke="transparent" points="149,-151 149,-169 246,-169 246,-151 149,-151"/>
<polygon fill="none" stroke="black" points="149,-151 149,-169 246,-169 246,-151 149,-151"/>
<text text-anchor="start" x="223" y="-157.2" font-family="Helvetica,sans-Serif" font-size="11.00">2 &gt;</text>
<polygon fill="none" stroke="black" stroke-width="2" points="9,-150 9,-214 247,-214 247,-150 9,-150"/>
</a>
</g>
</g>
<!-- artefact_group_data&#45;&gt;artefact_group -->
<g id="edge1" class="edge">
<title>artefact_group_data:w&#45;&gt;artefact_group:e</title>
<path fill="none" stroke="black" d="M294.33,-208.25C276.77,-200.66 271.99,-180 247,-180"/>
<polygon fill="black" stroke="black" points="300.65,-209.48 307.81,-214.53 304.57,-210.24 308.5,-211 308.5,-211 308.5,-211 304.57,-210.24 309.19,-207.47 300.65,-209.48 300.65,-209.48"/>
<ellipse fill="none" stroke="black" cx="297.51" cy="-208.87" rx="3.2" ry="3.2"/>
</g>
<!-- artefact_group_data_owner -->
<g id="node3" class="node">
<title>artefact_group_data_owner</title>
<g id="a_node3"><a xlink:href="../../tables/artefact_group_data_owner.html" xlink:title="artefact_group_data_owner" target="_top">
<polygon fill="#ffffff" stroke="transparent" points="558.5,-206 558.5,-264 776.5,-264 776.5,-206 558.5,-206"/>
<polygon fill="#f5f5f5" stroke="transparent" points="558.5,-242 558.5,-264 776.5,-264 776.5,-242 558.5,-242"/>
<polygon fill="none" stroke="black" points="558.5,-242 558.5,-264 776.5,-264 776.5,-242 558.5,-242"/>
<text text-anchor="start" x="563.5" y="-251.2" font-family="Helvetica,sans-Serif" font-weight="bold" font-size="11.00">artefact_group_data_owner</text>
<text text-anchor="start" x="734.5" y="-250.2" font-family="Helvetica,sans-Serif" font-size="11.00">[table]</text>
<polygon fill="none" stroke="black" points="558.5,-224 558.5,-242 776.5,-242 776.5,-224 558.5,-224"/>
<text text-anchor="start" x="561.5" y="-230.2" font-family="Helvetica,sans-Serif" font-size="11.00">...</text>
<polygon fill="#ffffff" stroke="transparent" points="558.5,-206 558.5,-224 651.5,-224 651.5,-206 558.5,-206"/>
<polygon fill="none" stroke="black" points="558.5,-206 558.5,-224 651.5,-224 651.5,-206 558.5,-206"/>
<text text-anchor="start" x="561.5" y="-212.2" font-family="Helvetica,sans-Serif" font-size="11.00">&lt; 3</text>
<polygon fill="#ffffff" stroke="transparent" points="651.5,-206 651.5,-224 728.5,-224 728.5,-206 651.5,-206"/>
<polygon fill="none" stroke="black" points="651.5,-206 651.5,-224 728.5,-224 728.5,-206 651.5,-206"/>
<text text-anchor="start" x="688.5" y="-212.2" font-family="Helvetica,sans-Serif" font-size="11.00">0 rows</text>
<polygon fill="#ffffff" stroke="transparent" points="728.5,-206 728.5,-224 776.5,-224 776.5,-206 728.5,-206"/>
<polygon fill="none" stroke="black" points="728.5,-206 728.5,-224 776.5,-224 776.5,-206 728.5,-206"/>
<text text-anchor="start" x="765.5" y="-212.2" font-family="Helvetica,sans-Serif" font-size="11.00"> &#160;</text>
</a>
</g>
</g>
<!-- artefact_group_data_owner&#45;&gt;artefact_group_data -->
<g id="edge2" class="edge">
<title>artefact_group_data_owner:w&#45;&gt;artefact_group_data:e</title>
<path fill="none" stroke="black" d="M543.09,-233C522.53,-233 512.63,-233 486.5,-233"/>
<polygon fill="black" stroke="black" points="549.5,-233 557.5,-236.6 553.5,-233 557.5,-233 557.5,-233 557.5,-233 553.5,-233 557.5,-229.4 549.5,-233 549.5,-233"/>
<ellipse fill="none" stroke="black" cx="546.3" cy="-233" rx="3.2" ry="3.2"/>
</g>
<!-- artefact_group_member -->
<g id="node4" class="node">
<title>artefact_group_member</title>
<g id="a_node4"><a xlink:href="../../tables/artefact_group_member.html" xlink:title="artefact_group_member" target="_top">
<polygon fill="#ffffff" stroke="transparent" points="297,-37 297,-143 498,-143 498,-37 297,-37"/>
<polygon fill="#f5f5f5" stroke="transparent" points="297.5,-121 297.5,-143 498.5,-143 498.5,-121 297.5,-121"/>
<polygon fill="none" stroke="black" points="297.5,-121 297.5,-143 498.5,-143 498.5,-121 297.5,-121"/>
<text text-anchor="start" x="302.5" y="-130.2" font-family="Helvetica,sans-Serif" font-weight="bold" font-size="11.00">artefact_group_member</text>
<text text-anchor="start" x="456.5" y="-129.2" font-family="Helvetica,sans-Serif" font-size="11.00">[table]</text>
<polygon fill="none" stroke="black" points="297.5,-99 297.5,-121 498.5,-121 498.5,-99 297.5,-99"/>
<image xlink:href="../../images/primaryKeys.png" width="11px" height="12px" preserveAspectRatio="xMinYMin meet" x="302.5" y="-116"/>
<text text-anchor="start" x="317.5" y="-107.2" font-family="Helvetica,sans-Serif" font-size="11.00">artefact_group_member_id</text>
<polygon fill="#ffffff" stroke="transparent" points="297.5,-77 297.5,-99 498.5,-99 498.5,-77 297.5,-77"/>
<polygon fill="none" stroke="black" points="297.5,-77 297.5,-99 498.5,-99 498.5,-77 297.5,-77"/>
<image xlink:href="../../images/foreignKeys.png" width="11px" height="12px" preserveAspectRatio="xMinYMin meet" x="302.5" y="-94"/>
<text text-anchor="start" x="317.5" y="-85.2" font-family="Helvetica,sans-Serif" font-size="11.00">artefact_group_id</text>
<polygon fill="#ffffff" stroke="transparent" points="297.5,-55 297.5,-77 498.5,-77 498.5,-55 297.5,-55"/>
<polygon fill="none" stroke="black" points="297.5,-55 297.5,-77 498.5,-77 498.5,-55 297.5,-55"/>
<image xlink:href="../../images/foreignKeys.png" width="11px" height="12px" preserveAspectRatio="xMinYMin meet" x="302.5" y="-72"/>
<text text-anchor="start" x="317.5" y="-63.2" font-family="Helvetica,sans-Serif" font-size="11.00">artefact_id</text>
<polygon fill="#ffffff" stroke="transparent" points="297.5,-37 297.5,-55 376.5,-55 376.5,-37 297.5,-37"/>
<polygon fill="none" stroke="black" points="297.5,-37 297.5,-55 376.5,-55 376.5,-37 297.5,-37"/>
<text text-anchor="start" x="300.5" y="-43.2" font-family="Helvetica,sans-Serif" font-size="11.00">&lt; 2</text>
<polygon fill="#ffffff" stroke="transparent" points="376.5,-37 376.5,-55 445.5,-55 445.5,-37 376.5,-37"/>
<polygon fill="none" stroke="black" points="376.5,-37 376.5,-55 445.5,-55 445.5,-37 376.5,-37"/>
<text text-anchor="start" x="405.5" y="-43.2" font-family="Helvetica,sans-Serif" font-size="11.00">0 rows</text>
<polygon fill="#ffffff" stroke="transparent" points="445.5,-37 445.5,-55 498.5,-55 498.5,-37 445.5,-37"/>
<polygon fill="none" stroke="black" points="445.5,-37 445.5,-55 498.5,-55 498.5,-37 445.5,-37"/>
<text text-anchor="start" x="475.5" y="-43.2" font-family="Helvetica,sans-Serif" font-size="11.00">1 &gt;</text>
</a>
</g>
</g>
<!-- artefact_group_member&#45;&gt;artefact_group -->
<g id="edge3" class="edge">
<title>artefact_group_member:w&#45;&gt;artefact_group:e</title>
<path fill="none" stroke="black" d="M282.64,-92.19C259.76,-110.19 287.45,-180 247,-180"/>
<polygon fill="black" stroke="black" points="288.84,-90.32 297.54,-91.45 292.67,-89.16 296.5,-88 296.5,-88 296.5,-88 292.67,-89.16 295.46,-84.55 288.84,-90.32 288.84,-90.32"/>
<ellipse fill="none" stroke="black" cx="285.78" cy="-91.24" rx="3.2" ry="3.2"/>
</g>
<!-- artefact -->
<g id="node5" class="node">
<title>artefact</title>
<g id="a_node5"><a xlink:href="../../tables/artefact.html" xlink:title="artefact" target="_top">
<polygon fill="#ffffff" stroke="transparent" points="71,-39 71,-97 185,-97 185,-39 71,-39"/>
<polygon fill="#f5f5f5" stroke="transparent" points="71,-75 71,-97 185,-97 185,-75 71,-75"/>
<polygon fill="none" stroke="black" points="71,-75 71,-97 185,-97 185,-75 71,-75"/>
<text text-anchor="start" x="76" y="-84.2" font-family="Helvetica,sans-Serif" font-weight="bold" font-size="11.00">artefact</text>
<text text-anchor="start" x="143" y="-83.2" font-family="Helvetica,sans-Serif" font-size="11.00">[table]</text>
<polygon fill="none" stroke="black" points="71,-57 71,-75 185,-75 185,-57 71,-57"/>
<text text-anchor="start" x="74" y="-63.2" font-family="Helvetica,sans-Serif" font-size="11.00">...</text>
<polygon fill="#ffffff" stroke="transparent" points="71,-39 71,-57 85,-57 85,-39 71,-39"/>
<polygon fill="none" stroke="black" points="71,-39 71,-57 85,-57 85,-39 71,-39"/>
<text text-anchor="start" x="74" y="-45.2" font-family="Helvetica,sans-Serif" font-size="11.00"> &#160;</text>
<polygon fill="#ffffff" stroke="transparent" points="85,-39 85,-57 159,-57 159,-39 85,-39"/>
<polygon fill="none" stroke="black" points="85,-39 85,-57 159,-57 159,-39 85,-39"/>
<text text-anchor="start" x="88" y="-45.2" font-family="Helvetica,sans-Serif" font-size="11.00">26,982 rows</text>
<polygon fill="#ffffff" stroke="transparent" points="159,-39 159,-57 185,-57 185,-39 159,-39"/>
<polygon fill="none" stroke="black" points="159,-39 159,-57 185,-57 185,-39 159,-39"/>
<text text-anchor="start" x="162" y="-45.2" font-family="Helvetica,sans-Serif" font-size="11.00">8 &gt;</text>
</a>
</g>
</g>
<!-- artefact_group_member&#45;&gt;artefact -->
<g id="edge4" class="edge">
<title>artefact_group_member:w&#45;&gt;artefact:e</title>
<path fill="none" stroke="black" d="M281.61,-66C244.26,-66 229.74,-66 186,-66"/>
<polygon fill="black" stroke="black" points="288.5,-66 296.5,-69.6 292.5,-66 296.5,-66 296.5,-66 296.5,-66 292.5,-66 296.5,-62.4 288.5,-66 288.5,-66"/>
<ellipse fill="none" stroke="black" cx="285.3" cy="-66" rx="3.2" ry="3.2"/>
</g>
<!-- artefact_group_member_owner -->
<g id="node6" class="node">
<title>artefact_group_member_owner</title>
<g id="a_node6"><a xlink:href="../../tables/artefact_group_member_owner.html" xlink:title="artefact_group_member_owner" target="_top">
<polygon fill="#ffffff" stroke="transparent" points="547,-83 547,-141 788,-141 788,-83 547,-83"/>
<polygon fill="#f5f5f5" stroke="transparent" points="547.5,-119 547.5,-141 788.5,-141 788.5,-119 547.5,-119"/>
<polygon fill="none" stroke="black" points="547.5,-119 547.5,-141 788.5,-141 788.5,-119 547.5,-119"/>
<text text-anchor="start" x="552.5" y="-128.2" font-family="Helvetica,sans-Serif" font-weight="bold" font-size="11.00">artefact_group_member_owner</text>
<text text-anchor="start" x="746.5" y="-127.2" font-family="Helvetica,sans-Serif" font-size="11.00">[table]</text>
<polygon fill="none" stroke="black" points="547.5,-101 547.5,-119 788.5,-119 788.5,-101 547.5,-101"/>
<text text-anchor="start" x="550.5" y="-107.2" font-family="Helvetica,sans-Serif" font-size="11.00">...</text>
<polygon fill="#ffffff" stroke="transparent" points="547.5,-83 547.5,-101 652.5,-101 652.5,-83 547.5,-83"/>
<polygon fill="none" stroke="black" points="547.5,-83 547.5,-101 652.5,-101 652.5,-83 547.5,-83"/>
<text text-anchor="start" x="550.5" y="-89.2" font-family="Helvetica,sans-Serif" font-size="11.00">&lt; 3</text>
<polygon fill="#ffffff" stroke="transparent" points="652.5,-83 652.5,-101 734.5,-101 734.5,-83 652.5,-83"/>
<polygon fill="none" stroke="black" points="652.5,-83 652.5,-101 734.5,-101 734.5,-83 652.5,-83"/>
<text text-anchor="start" x="694.5" y="-89.2" font-family="Helvetica,sans-Serif" font-size="11.00">0 rows</text>
<polygon fill="#ffffff" stroke="transparent" points="734.5,-83 734.5,-101 788.5,-101 788.5,-83 734.5,-83"/>
<polygon fill="none" stroke="black" points="734.5,-83 734.5,-101 788.5,-101 788.5,-83 734.5,-83"/>
<text text-anchor="start" x="777.5" y="-89.2" font-family="Helvetica,sans-Serif" font-size="11.00"> &#160;</text>
</a>
</g>
</g>
<!-- artefact_group_member_owner&#45;&gt;artefact_group_member -->
<g id="edge5" class="edge">
<title>artefact_group_member_owner:w&#45;&gt;artefact_group_member:e</title>
<path fill="none" stroke="black" d="M531.9,-110C521.43,-110 514.51,-110 499.5,-110"/>
<polygon fill="black" stroke="black" points="538.5,-110 546.5,-113.6 542.5,-110 546.5,-110 546.5,-110 546.5,-110 542.5,-110 546.5,-106.4 538.5,-110 538.5,-110"/>
<ellipse fill="none" stroke="black" cx="535.3" cy="-110" rx="3.2" ry="3.2"/>
</g>
</g>
</svg>
