<?xml version="1.0" encoding="UTF-8" standalone="no"?>
<!DOCTYPE svg PUBLIC "-//W3C//DTD SVG 1.1//EN"
 "http://www.w3.org/Graphics/SVG/1.1/DTD/svg11.dtd">
<!-- Generated by graphviz version 2.40.1 (20161225.0304)
 -->
<!-- Title: twoDegreesRelationshipsDiagram Pages: 1 -->
<svg width="757pt" height="322pt"
 viewBox="0.00 0.00 757.00 322.00" xmlns="http://www.w3.org/2000/svg" xmlns:xlink="http://www.w3.org/1999/xlink">
<g id="graph0" class="graph" transform="scale(1 1) rotate(0) translate(4 318)">
<title>twoDegreesRelationshipsDiagram</title>
<polygon fill="#ffffff" stroke="transparent" points="-4,4 -4,-318 753,-318 753,4 -4,4"/>
<text text-anchor="middle" x="71.5" y="-7.2" font-family="Helvetica,sans-Serif" font-size="11.00" fill="#000000">Generated by SchemaSpy</text>
<!-- artefact_group_data -->
<g id="node1" class="node">
<title>artefact_group_data</title>
<g id="a_node1"><a xlink:href="../../tables/artefact_group_data.html" xlink:title="artefact_group_data" target="_top">
<polygon fill="#ffffff" stroke="transparent" points="294.5,-186 294.5,-310 470.5,-310 470.5,-186 294.5,-186"/>
<polygon fill="#f5f5f5" stroke="transparent" points="294.5,-288 294.5,-310 470.5,-310 470.5,-288 294.5,-288"/>
<polygon fill="none" stroke="#000000" points="294.5,-288 294.5,-310 470.5,-310 470.5,-288 294.5,-288"/>
<text text-anchor="start" x="299.5" y="-297.2" font-family="Helvetica,sans-Serif" font-weight="bold" font-size="11.00" fill="#000000">artefact_group_data</text>
<text text-anchor="start" x="435.5" y="-296.2" font-family="Helvetica,sans-Serif" font-size="11.00" fill="#000000">[table]</text>
<polygon fill="none" stroke="#000000" points="294.5,-266 294.5,-288 470.5,-288 470.5,-266 294.5,-266"/>
<image xlink:href="../../images/primaryKeys.png" width="11px" height="12px" preserveAspectRatio="xMinYMin meet" x="299.5" y="-283"/>
<text text-anchor="start" x="314.5" y="-274.2" font-family="Helvetica,sans-Serif" font-size="11.00" fill="#000000">artefact_group_data_id</text>
<polygon fill="#ffffff" stroke="transparent" points="294.5,-244 294.5,-266 470.5,-266 470.5,-244 294.5,-244"/>
<polygon fill="none" stroke="#000000" points="294.5,-244 294.5,-266 470.5,-266 470.5,-244 294.5,-244"/>
<image xlink:href="../../images/foreignKeys.png" width="11px" height="12px" preserveAspectRatio="xMinYMin meet" x="299.5" y="-261"/>
<text text-anchor="start" x="314.5" y="-252.2" font-family="Helvetica,sans-Serif" font-size="11.00" fill="#000000">artefact_group_id</text>
<polygon fill="#ffffff" stroke="transparent" points="294.5,-222 294.5,-244 470.5,-244 470.5,-222 294.5,-222"/>
<polygon fill="none" stroke="#000000" points="294.5,-222 294.5,-244 470.5,-244 470.5,-222 294.5,-222"/>
<image xlink:href="../../images/foreignKeys.png" width="11px" height="12px" preserveAspectRatio="xMinYMin meet" x="299.5" y="-239"/>
<text text-anchor="start" x="314.5" y="-230.2" font-family="Helvetica,sans-Serif" font-size="11.00" fill="#000000">creator_id</text>
<polygon fill="none" stroke="#000000" points="294.5,-204 294.5,-222 470.5,-222 470.5,-204 294.5,-204"/>
<text text-anchor="start" x="297.5" y="-210.2" font-family="Helvetica,sans-Serif" font-size="11.00" fill="#000000">...</text>
<polygon fill="#ffffff" stroke="transparent" points="294.5,-186 294.5,-204 362.5,-204 362.5,-186 294.5,-186"/>
<polygon fill="none" stroke="#000000" points="294.5,-186 294.5,-204 362.5,-204 362.5,-186 294.5,-186"/>
<text text-anchor="start" x="297.5" y="-192.2" font-family="Helvetica,sans-Serif" font-size="11.00" fill="#000000">&lt; 2</text>
<polygon fill="#ffffff" stroke="transparent" points="362.5,-186 362.5,-204 424.5,-204 424.5,-186 362.5,-186"/>
<polygon fill="none" stroke="#000000" points="362.5,-186 362.5,-204 424.5,-204 424.5,-186 362.5,-186"/>
<text text-anchor="start" x="388.5" y="-192.2" font-family="Helvetica,sans-Serif" font-size="11.00" fill="#000000">0 rows</text>
<polygon fill="#ffffff" stroke="transparent" points="424.5,-186 424.5,-204 470.5,-204 470.5,-186 424.5,-186"/>
<polygon fill="none" stroke="#000000" points="424.5,-186 424.5,-204 470.5,-204 470.5,-186 424.5,-186"/>
<text text-anchor="start" x="451.5" y="-192.2" font-family="Helvetica,sans-Serif" font-size="11.00" fill="#000000">1 &gt;</text>
</a>
</g>
</g>
<!-- artefact_group -->
<g id="node2" class="node">
<title>artefact_group</title>
<g id="a_node2"><a xlink:href="../../tables/artefact_group.html" xlink:title="artefact_group" target="_top">
<polygon fill="#ffffff" stroke="transparent" points="8,-222 8,-288 233,-288 233,-222 8,-222"/>
<polygon fill="#f5f5f5" stroke="transparent" points="10.5,-264 10.5,-286 231.5,-286 231.5,-264 10.5,-264"/>
<polygon fill="none" stroke="#000000" points="10.5,-264 10.5,-286 231.5,-286 231.5,-264 10.5,-264"/>
<text text-anchor="start" x="15.5" y="-273.2" font-family="Helvetica,sans-Serif" font-weight="bold" font-size="11.00" fill="#000000">artefact_group</text>
<text text-anchor="start" x="196.5" y="-272.2" font-family="Helvetica,sans-Serif" font-size="11.00" fill="#000000">[table]</text>
<polygon fill="none" stroke="#000000" points="10.5,-242 10.5,-264 149.5,-264 149.5,-242 10.5,-242"/>
<image xlink:href="../../images/primaryKeys.png" width="11px" height="12px" preserveAspectRatio="xMinYMin meet" x="15.5" y="-259"/>
<text text-anchor="start" x="30.5" y="-250.2" font-family="Helvetica,sans-Serif" font-size="11.00" fill="#000000">artefact_group_id</text>
<polygon fill="none" stroke="#000000" points="149.5,-242 149.5,-264 231.5,-264 231.5,-242 149.5,-242"/>
<text text-anchor="start" x="152.5" y="-250.2" font-family="Helvetica,sans-Serif" font-size="11.00" fill="#000000">int unsigned[10]</text>
<polygon fill="#ffffff" stroke="transparent" points="10.5,-224 10.5,-242 71.5,-242 71.5,-224 10.5,-224"/>
<polygon fill="none" stroke="#000000" points="10.5,-224 10.5,-242 71.5,-242 71.5,-224 10.5,-224"/>
<text text-anchor="start" x="13.5" y="-230.2" font-family="Helvetica,sans-Serif" font-size="11.00" fill="#000000">&lt; 0</text>
<polygon fill="#ffffff" stroke="transparent" points="71.5,-224 71.5,-242 149.5,-242 149.5,-224 71.5,-224"/>
<polygon fill="none" stroke="#000000" points="71.5,-224 71.5,-242 149.5,-242 149.5,-224 71.5,-224"/>
<text text-anchor="start" x="113.5" y="-230.2" font-family="Helvetica,sans-Serif" font-size="11.00" fill="#000000">0 rows</text>
<polygon fill="#ffffff" stroke="transparent" points="149.5,-224 149.5,-242 231.5,-242 231.5,-224 149.5,-224"/>
<polygon fill="none" stroke="#000000" points="149.5,-224 149.5,-242 231.5,-242 231.5,-224 149.5,-224"/>
<text text-anchor="start" x="212.5" y="-230.2" font-family="Helvetica,sans-Serif" font-size="11.00" fill="#000000">2 &gt;</text>
<polygon fill="none" stroke="#000000" stroke-width="2" points="9,-223 9,-287 232,-287 232,-223 9,-223"/>
</a>
</g>
</g>
<!-- artefact_group_data&#45;&gt;artefact_group -->
<g id="edge1" class="edge">
<title>artefact_group_data:w&#45;&gt;artefact_group:e</title>
<path fill="none" stroke="#000000" d="M279.6808,-254.786C262.7854,-254.27 253.8237,-253 231.5,-253"/>
<polygon fill="#000000" stroke="#000000" points="286.5008,-254.8844 294.448,-258.5996 290.5004,-254.9422 294.5,-255 294.5,-255 294.5,-255 290.5004,-254.9422 294.552,-251.4004 286.5008,-254.8844 286.5008,-254.8844"/>
<ellipse fill="none" stroke="#000000" cx="283.3012" cy="-254.8382" rx="3.2" ry="3.2"/>
</g>
<!-- user -->
<g id="node3" class="node">
<title>user</title>
<g id="a_node3"><a xlink:href="../../tables/user.html" xlink:title="user" target="_top">
<polygon fill="#ffffff" stroke="transparent" points="80.5,-142 80.5,-200 160.5,-200 160.5,-142 80.5,-142"/>
<polygon fill="#f5f5f5" stroke="transparent" points="80.5,-178 80.5,-200 160.5,-200 160.5,-178 80.5,-178"/>
<polygon fill="none" stroke="#000000" points="80.5,-178 80.5,-200 160.5,-200 160.5,-178 80.5,-178"/>
<text text-anchor="start" x="85.5" y="-187.2" font-family="Helvetica,sans-Serif" font-weight="bold" font-size="11.00" fill="#000000">user</text>
<text text-anchor="start" x="125.5" y="-186.2" font-family="Helvetica,sans-Serif" font-size="11.00" fill="#000000">[table]</text>
<polygon fill="none" stroke="#000000" points="80.5,-160 80.5,-178 160.5,-178 160.5,-160 80.5,-160"/>
<text text-anchor="start" x="83.5" y="-166.2" font-family="Helvetica,sans-Serif" font-size="11.00" fill="#000000">...</text>
<polygon fill="#ffffff" stroke="transparent" points="80.5,-142 80.5,-160 93.5,-160 93.5,-142 80.5,-142"/>
<polygon fill="none" stroke="#000000" points="80.5,-142 80.5,-160 93.5,-160 93.5,-142 80.5,-142"/>
<text text-anchor="start" x="83.5" y="-148.2" font-family="Helvetica,sans-Serif" font-size="11.00" fill="#000000"> &#160;</text>
<polygon fill="#ffffff" stroke="transparent" points="93.5,-142 93.5,-160 132.5,-160 132.5,-142 93.5,-142"/>
<polygon fill="none" stroke="#000000" points="93.5,-142 93.5,-160 132.5,-160 132.5,-142 93.5,-142"/>
<text text-anchor="start" x="96.5" y="-148.2" font-family="Helvetica,sans-Serif" font-size="11.00" fill="#000000">3 rows</text>
<polygon fill="#ffffff" stroke="transparent" points="132.5,-142 132.5,-160 160.5,-160 160.5,-142 132.5,-142"/>
<polygon fill="none" stroke="#000000" points="132.5,-142 132.5,-160 160.5,-160 160.5,-142 132.5,-142"/>
<text text-anchor="start" x="135.5" y="-148.2" font-family="Helvetica,sans-Serif" font-size="11.00" fill="#000000">40 &gt;</text>
</a>
</g>
</g>
<!-- artefact_group_data&#45;&gt;user -->
<g id="edge2" class="edge">
<title>artefact_group_data:w&#45;&gt;user:e</title>
<path fill="none" stroke="#000000" d="M280.1435,-230.0837C244.5504,-217.5635 189.2459,-169 160.5,-169"/>
<polygon fill="#000000" stroke="#000000" points="286.6601,-231.4074 293.7833,-236.528 290.5801,-232.2037 294.5,-233 294.5,-233 294.5,-233 290.5801,-232.2037 295.2167,-229.472 286.6601,-231.4074 286.6601,-231.4074"/>
<ellipse fill="none" stroke="#000000" cx="283.5242" cy="-230.7704" rx="3.2" ry="3.2"/>
</g>
<!-- artefact_group_data_owner -->
<g id="node4" class="node">
<title>artefact_group_data_owner</title>
<g id="a_node4"><a xlink:href="../../tables/artefact_group_data_owner.html" xlink:title="artefact_group_data_owner" target="_top">
<polygon fill="#ffffff" stroke="transparent" points="542,-250 542,-308 731,-308 731,-250 542,-250"/>
<polygon fill="#f5f5f5" stroke="transparent" points="542.5,-286 542.5,-308 731.5,-308 731.5,-286 542.5,-286"/>
<polygon fill="none" stroke="#000000" points="542.5,-286 542.5,-308 731.5,-308 731.5,-286 542.5,-286"/>
<text text-anchor="start" x="547.5" y="-295.2" font-family="Helvetica,sans-Serif" font-weight="bold" font-size="11.00" fill="#000000">artefact_group_data_owner</text>
<text text-anchor="start" x="696.5" y="-294.2" font-family="Helvetica,sans-Serif" font-size="11.00" fill="#000000">[table]</text>
<polygon fill="none" stroke="#000000" points="542.5,-268 542.5,-286 731.5,-286 731.5,-268 542.5,-268"/>
<text text-anchor="start" x="545.5" y="-274.2" font-family="Helvetica,sans-Serif" font-size="11.00" fill="#000000">...</text>
<polygon fill="#ffffff" stroke="transparent" points="542.5,-250 542.5,-268 621.5,-268 621.5,-250 542.5,-250"/>
<polygon fill="none" stroke="#000000" points="542.5,-250 542.5,-268 621.5,-268 621.5,-250 542.5,-250"/>
<text text-anchor="start" x="545.5" y="-256.2" font-family="Helvetica,sans-Serif" font-size="11.00" fill="#000000">&lt; 3</text>
<polygon fill="#ffffff" stroke="transparent" points="621.5,-250 621.5,-268 689.5,-268 689.5,-250 621.5,-250"/>
<polygon fill="none" stroke="#000000" points="621.5,-250 621.5,-268 689.5,-268 689.5,-250 621.5,-250"/>
<text text-anchor="start" x="653.5" y="-256.2" font-family="Helvetica,sans-Serif" font-size="11.00" fill="#000000">0 rows</text>
<polygon fill="#ffffff" stroke="transparent" points="689.5,-250 689.5,-268 731.5,-268 731.5,-250 689.5,-250"/>
<polygon fill="none" stroke="#000000" points="689.5,-250 689.5,-268 731.5,-268 731.5,-250 689.5,-250"/>
<text text-anchor="start" x="721.5" y="-256.2" font-family="Helvetica,sans-Serif" font-size="11.00" fill="#000000"> &#160;</text>
</a>
</g>
</g>
<!-- artefact_group_data_owner&#45;&gt;artefact_group_data -->
<g id="edge3" class="edge">
<title>artefact_group_data_owner:w&#45;&gt;artefact_group_data:e</title>
<path fill="none" stroke="#000000" d="M527.8832,-277C507.041,-277 497,-277 470.5,-277"/>
<polygon fill="#000000" stroke="#000000" points="534.5,-277.0001 542.5,-280.6 538.5,-277 542.5,-277 542.5,-277 542.5,-277 538.5,-277 542.5,-273.4 534.5,-277.0001 534.5,-277.0001"/>
<ellipse fill="none" stroke="#000000" cx="531.3" cy="-277.0001" rx="3.2" ry="3.2"/>
</g>
<!-- artefact_group_member -->
<g id="node5" class="node">
<title>artefact_group_member</title>
<g id="a_node5"><a xlink:href="../../tables/artefact_group_member.html" xlink:title="artefact_group_member" target="_top">
<polygon fill="#ffffff" stroke="transparent" points="282,-37 282,-165 483,-165 483,-37 282,-37"/>
<polygon fill="#f5f5f5" stroke="transparent" points="282.5,-143 282.5,-165 483.5,-165 483.5,-143 282.5,-143"/>
<polygon fill="none" stroke="#000000" points="282.5,-143 282.5,-165 483.5,-165 483.5,-143 282.5,-143"/>
<text text-anchor="start" x="287.5" y="-152.2" font-family="Helvetica,sans-Serif" font-weight="bold" font-size="11.00" fill="#000000">artefact_group_member</text>
<text text-anchor="start" x="448.5" y="-151.2" font-family="Helvetica,sans-Serif" font-size="11.00" fill="#000000">[table]</text>
<polygon fill="none" stroke="#000000" points="282.5,-121 282.5,-143 483.5,-143 483.5,-121 282.5,-121"/>
<image xlink:href="../../images/primaryKeys.png" width="11px" height="12px" preserveAspectRatio="xMinYMin meet" x="287.5" y="-138"/>
<text text-anchor="start" x="302.5" y="-129.2" font-family="Helvetica,sans-Serif" font-size="11.00" fill="#000000">artefact_group_member_id</text>
<polygon fill="#ffffff" stroke="transparent" points="282.5,-99 282.5,-121 483.5,-121 483.5,-99 282.5,-99"/>
<polygon fill="none" stroke="#000000" points="282.5,-99 282.5,-121 483.5,-121 483.5,-99 282.5,-99"/>
<image xlink:href="../../images/foreignKeys.png" width="11px" height="12px" preserveAspectRatio="xMinYMin meet" x="287.5" y="-116"/>
<text text-anchor="start" x="302.5" y="-107.2" font-family="Helvetica,sans-Serif" font-size="11.00" fill="#000000">artefact_group_id</text>
<polygon fill="#ffffff" stroke="transparent" points="282.5,-77 282.5,-99 483.5,-99 483.5,-77 282.5,-77"/>
<polygon fill="none" stroke="#000000" points="282.5,-77 282.5,-99 483.5,-99 483.5,-77 282.5,-77"/>
<image xlink:href="../../images/foreignKeys.png" width="11px" height="12px" preserveAspectRatio="xMinYMin meet" x="287.5" y="-94"/>
<text text-anchor="start" x="302.5" y="-85.2" font-family="Helvetica,sans-Serif" font-size="11.00" fill="#000000">artefact_id</text>
<polygon fill="#ffffff" stroke="transparent" points="282.5,-55 282.5,-77 483.5,-77 483.5,-55 282.5,-55"/>
<polygon fill="none" stroke="#000000" points="282.5,-55 282.5,-77 483.5,-77 483.5,-55 282.5,-55"/>
<image xlink:href="../../images/foreignKeys.png" width="11px" height="12px" preserveAspectRatio="xMinYMin meet" x="287.5" y="-72"/>
<text text-anchor="start" x="302.5" y="-63.2" font-family="Helvetica,sans-Serif" font-size="11.00" fill="#000000">creator_id</text>
<polygon fill="#ffffff" stroke="transparent" points="282.5,-37 282.5,-55 363.5,-55 363.5,-37 282.5,-37"/>
<polygon fill="none" stroke="#000000" points="282.5,-37 282.5,-55 363.5,-55 363.5,-37 282.5,-37"/>
<text text-anchor="start" x="285.5" y="-43.2" font-family="Helvetica,sans-Serif" font-size="11.00" fill="#000000">&lt; 3</text>
<polygon fill="#ffffff" stroke="transparent" points="363.5,-37 363.5,-55 431.5,-55 431.5,-37 363.5,-37"/>
<polygon fill="none" stroke="#000000" points="363.5,-37 363.5,-55 431.5,-55 431.5,-37 363.5,-37"/>
<text text-anchor="start" x="395.5" y="-43.2" font-family="Helvetica,sans-Serif" font-size="11.00" fill="#000000">0 rows</text>
<polygon fill="#ffffff" stroke="transparent" points="431.5,-37 431.5,-55 483.5,-55 483.5,-37 431.5,-37"/>
<polygon fill="none" stroke="#000000" points="431.5,-37 431.5,-55 483.5,-55 483.5,-37 431.5,-37"/>
<text text-anchor="start" x="464.5" y="-43.2" font-family="Helvetica,sans-Serif" font-size="11.00" fill="#000000">1 &gt;</text>
</a>
</g>
</g>
<!-- artefact_group_member&#45;&gt;artefact_group -->
<g id="edge4" class="edge">
<title>artefact_group_member:w&#45;&gt;artefact_group:e</title>
<path fill="none" stroke="#000000" d="M268.2665,-112.9868C228.3345,-133.522 293.1778,-253 231.5,-253"/>
<polygon fill="#000000" stroke="#000000" points="274.6705,-111.643 283.2393,-113.5233 278.5853,-110.8215 282.5,-110 282.5,-110 282.5,-110 278.5853,-110.8215 281.7607,-106.4767 274.6705,-111.643 274.6705,-111.643"/>
<ellipse fill="none" stroke="#000000" cx="271.5387" cy="-112.3002" rx="3.2" ry="3.2"/>
</g>
<!-- artefact_group_member&#45;&gt;user -->
<g id="edge6" class="edge">
<title>artefact_group_member:w&#45;&gt;user:e</title>
<path fill="none" stroke="#000000" d="M268.3707,-69.9092C253.9105,-80.6377 261.3957,-110.94 241,-129 211.0895,-155.4851 200.4512,-169 160.5,-169"/>
<polygon fill="#000000" stroke="#000000" points="274.7897,-68.1333 283.46,-69.4697 278.6448,-67.0666 282.5,-66 282.5,-66 282.5,-66 278.6448,-67.0666 281.54,-62.5303 274.7897,-68.1333 274.7897,-68.1333"/>
<ellipse fill="none" stroke="#000000" cx="271.7055" cy="-68.9866" rx="3.2" ry="3.2"/>
</g>
<!-- artefact -->
<g id="node6" class="node">
<title>artefact</title>
<g id="a_node6"><a xlink:href="../../tables/artefact.html" xlink:title="artefact" target="_top">
<polygon fill="#ffffff" stroke="transparent" points="70,-61 70,-119 171,-119 171,-61 70,-61"/>
<polygon fill="#f5f5f5" stroke="transparent" points="70.5,-97 70.5,-119 171.5,-119 171.5,-97 70.5,-97"/>
<polygon fill="none" stroke="#000000" points="70.5,-97 70.5,-119 171.5,-119 171.5,-97 70.5,-97"/>
<text text-anchor="start" x="75.5" y="-106.2" font-family="Helvetica,sans-Serif" font-weight="bold" font-size="11.00" fill="#000000">artefact</text>
<text text-anchor="start" x="136.5" y="-105.2" font-family="Helvetica,sans-Serif" font-size="11.00" fill="#000000">[table]</text>
<polygon fill="none" stroke="#000000" points="70.5,-79 70.5,-97 171.5,-97 171.5,-79 70.5,-79"/>
<text text-anchor="start" x="73.5" y="-85.2" font-family="Helvetica,sans-Serif" font-size="11.00" fill="#000000">...</text>
<polygon fill="#ffffff" stroke="transparent" points="70.5,-61 70.5,-79 83.5,-79 83.5,-61 70.5,-61"/>
<polygon fill="none" stroke="#000000" points="70.5,-61 70.5,-79 83.5,-79 83.5,-61 70.5,-61"/>
<text text-anchor="start" x="73.5" y="-67.2" font-family="Helvetica,sans-Serif" font-size="11.00" fill="#000000"> &#160;</text>
<polygon fill="#ffffff" stroke="transparent" points="83.5,-61 83.5,-79 149.5,-79 149.5,-61 83.5,-61"/>
<polygon fill="none" stroke="#000000" points="83.5,-61 83.5,-79 149.5,-79 149.5,-61 83.5,-61"/>
<text text-anchor="start" x="86.5" y="-67.2" font-family="Helvetica,sans-Serif" font-size="11.00" fill="#000000">26,982 rows</text>
<polygon fill="#ffffff" stroke="transparent" points="149.5,-61 149.5,-79 171.5,-79 171.5,-61 149.5,-61"/>
<polygon fill="none" stroke="#000000" points="149.5,-61 149.5,-79 171.5,-79 171.5,-61 149.5,-61"/>
<text text-anchor="start" x="152.5" y="-67.2" font-family="Helvetica,sans-Serif" font-size="11.00" fill="#000000">8 &gt;</text>
</a>
</g>
</g>
<!-- artefact_group_member&#45;&gt;artefact -->
<g id="edge5" class="edge">
<title>artefact_group_member:w&#45;&gt;artefact:e</title>
<path fill="none" stroke="#000000" d="M268.0385,-88C230.1535,-88 215.6302,-88 171.5,-88"/>
<polygon fill="#000000" stroke="#000000" points="274.5,-88.0001 282.5,-91.6 278.5,-88 282.5,-88 282.5,-88 282.5,-88 278.5,-88 282.5,-84.4 274.5,-88.0001 274.5,-88.0001"/>
<ellipse fill="none" stroke="#000000" cx="271.3" cy="-88.0001" rx="3.2" ry="3.2"/>
</g>
<!-- artefact_group_member_owner -->
<g id="node7" class="node">
<title>artefact_group_member_owner</title>
<g id="a_node7"><a xlink:href="../../tables/artefact_group_member_owner.html" xlink:title="artefact_group_member_owner" target="_top">
<polygon fill="#ffffff" stroke="transparent" points="532,-105 532,-163 741,-163 741,-105 532,-105"/>
<polygon fill="#f5f5f5" stroke="transparent" points="532.5,-141 532.5,-163 741.5,-163 741.5,-141 532.5,-141"/>
<polygon fill="none" stroke="#000000" points="532.5,-141 532.5,-163 741.5,-163 741.5,-141 532.5,-141"/>
<text text-anchor="start" x="537.5" y="-150.2" font-family="Helvetica,sans-Serif" font-weight="bold" font-size="11.00" fill="#000000">artefact_group_member_owner</text>
<text text-anchor="start" x="706.5" y="-149.2" font-family="Helvetica,sans-Serif" font-size="11.00" fill="#000000">[table]</text>
<polygon fill="none" stroke="#000000" points="532.5,-123 532.5,-141 741.5,-141 741.5,-123 532.5,-123"/>
<text text-anchor="start" x="535.5" y="-129.2" font-family="Helvetica,sans-Serif" font-size="11.00" fill="#000000">...</text>
<polygon fill="#ffffff" stroke="transparent" points="532.5,-105 532.5,-123 621.5,-123 621.5,-105 532.5,-105"/>
<polygon fill="none" stroke="#000000" points="532.5,-105 532.5,-123 621.5,-123 621.5,-105 532.5,-105"/>
<text text-anchor="start" x="535.5" y="-111.2" font-family="Helvetica,sans-Serif" font-size="11.00" fill="#000000">&lt; 3</text>
<polygon fill="#ffffff" stroke="transparent" points="621.5,-105 621.5,-123 694.5,-123 694.5,-105 621.5,-105"/>
<polygon fill="none" stroke="#000000" points="621.5,-105 621.5,-123 694.5,-123 694.5,-105 621.5,-105"/>
<text text-anchor="start" x="658.5" y="-111.2" font-family="Helvetica,sans-Serif" font-size="11.00" fill="#000000">0 rows</text>
<polygon fill="#ffffff" stroke="transparent" points="694.5,-105 694.5,-123 741.5,-123 741.5,-105 694.5,-105"/>
<polygon fill="none" stroke="#000000" points="694.5,-105 694.5,-123 741.5,-123 741.5,-105 694.5,-105"/>
<text text-anchor="start" x="731.5" y="-111.2" font-family="Helvetica,sans-Serif" font-size="11.00" fill="#000000"> &#160;</text>
</a>
</g>
</g>
<!-- artefact_group_member_owner&#45;&gt;artefact_group_member -->
<g id="edge7" class="edge">
<title>artefact_group_member_owner:w&#45;&gt;artefact_group_member:e</title>
<path fill="none" stroke="#000000" d="M517.9909,-132C506.6774,-132 499.4931,-132 483.5,-132"/>
<polygon fill="#000000" stroke="#000000" points="524.5,-132.0001 532.5,-135.6 528.5,-132 532.5,-132 532.5,-132 532.5,-132 528.5,-132 532.5,-128.4 524.5,-132.0001 524.5,-132.0001"/>
<ellipse fill="none" stroke="#000000" cx="521.3" cy="-132.0001" rx="3.2" ry="3.2"/>
</g>
</g>
</svg>
