<?xml version="1.0" encoding="UTF-8" standalone="no"?>
<!DOCTYPE svg PUBLIC "-//W3C//DTD SVG 1.1//EN"
 "http://www.w3.org/Graphics/SVG/1.1/DTD/svg11.dtd">
<!-- Generated by graphviz version 2.43.0 (0)
 -->
<!-- Title: oneDegreeRelationshipsDiagram Pages: 1 -->
<svg width="739pt" height="323pt"
 viewBox="0.00 0.00 739.00 323.00" xmlns="http://www.w3.org/2000/svg" xmlns:xlink="http://www.w3.org/1999/xlink">
<g id="graph0" class="graph" transform="scale(1 1) rotate(0) translate(4 319)">
<title>oneDegreeRelationshipsDiagram</title>
<polygon fill="#ffffff" stroke="transparent" points="-4,4 -4,-319 735,-319 735,4 -4,4"/>
<text text-anchor="middle" x="79.5" y="-7.2" font-family="Helvetica,sans-Serif" font-size="11.00">Generated by SchemaSpy</text>
<!-- artefact_group_data_owner -->
<g id="node1" class="node">
<title>artefact_group_data_owner</title>
<g id="a_node1"><a xlink:href="../../tables/artefact_group_data_owner.html" xlink:title="artefact_group_data_owner" target="_top">
<polygon fill="#ffffff" stroke="transparent" points="417,-132 417,-242 723,-242 723,-132 417,-132"/>
<polygon fill="#f5f5f5" stroke="transparent" points="419,-218 419,-240 721,-240 721,-218 419,-218"/>
<polygon fill="none" stroke="black" points="419,-218 419,-240 721,-240 721,-218 419,-218"/>
<text text-anchor="start" x="424" y="-227.2" font-family="Helvetica,sans-Serif" font-weight="bold" font-size="11.00">artefact_group_data_owner</text>
<text text-anchor="start" x="679" y="-226.2" font-family="Helvetica,sans-Serif" font-size="11.00">[table]</text>
<polygon fill="none" stroke="black" points="419,-196 419,-218 624,-218 624,-196 419,-196"/>
<image xlink:href="../../images/primaryKeys.png" width="11px" height="12px" preserveAspectRatio="xMinYMin meet" x="424" y="-213"/>
<text text-anchor="start" x="439" y="-204.2" font-family="Helvetica,sans-Serif" font-size="11.00">artefact_group_data_id</text>
<polygon fill="none" stroke="black" points="624,-196 624,-218 721,-218 721,-196 624,-196"/>
<text text-anchor="start" x="627" y="-204.2" font-family="Helvetica,sans-Serif" font-size="11.00">int unsigned[10]</text>
<polygon fill="none" stroke="black" points="419,-174 419,-196 624,-196 624,-174 419,-174"/>
<image xlink:href="../../images/primaryKeys.png" width="11px" height="12px" preserveAspectRatio="xMinYMin meet" x="424" y="-191"/>
<text text-anchor="start" x="439" y="-182.2" font-family="Helvetica,sans-Serif" font-size="11.00">edition_id</text>
<polygon fill="none" stroke="black" points="624,-174 624,-196 721,-196 721,-174 624,-174"/>
<text text-anchor="start" x="627" y="-182.2" font-family="Helvetica,sans-Serif" font-size="11.00">int unsigned[10]</text>
<polygon fill="#ffffff" stroke="transparent" points="419,-152 419,-174 624,-174 624,-152 419,-152"/>
<polygon fill="none" stroke="black" points="419,-152 419,-174 624,-174 624,-152 419,-152"/>
<image xlink:href="../../images/foreignKeys.png" width="11px" height="12px" preserveAspectRatio="xMinYMin meet" x="424" y="-169"/>
<text text-anchor="start" x="439" y="-160.2" font-family="Helvetica,sans-Serif" font-size="11.00">edition_editor_id</text>
<polygon fill="none" stroke="black" points="624,-152 624,-174 721,-174 721,-152 624,-152"/>
<text text-anchor="start" x="627" y="-160.2" font-family="Helvetica,sans-Serif" font-size="11.00">int unsigned[10]</text>
<polygon fill="#ffffff" stroke="transparent" points="419,-134 419,-152 513,-152 513,-134 419,-134"/>
<polygon fill="none" stroke="black" points="419,-134 419,-152 513,-152 513,-134 419,-134"/>
<text text-anchor="start" x="422" y="-140.2" font-family="Helvetica,sans-Serif" font-size="11.00">&lt; 3</text>
<polygon fill="#ffffff" stroke="transparent" points="513,-134 513,-152 624,-152 624,-134 513,-134"/>
<polygon fill="none" stroke="black" points="513,-134 513,-152 624,-152 624,-134 513,-134"/>
<text text-anchor="start" x="584" y="-140.2" font-family="Helvetica,sans-Serif" font-size="11.00">0 rows</text>
<polygon fill="#ffffff" stroke="transparent" points="624,-134 624,-152 721,-152 721,-134 624,-134"/>
<polygon fill="none" stroke="black" points="624,-134 624,-152 721,-152 721,-134 624,-134"/>
<text text-anchor="start" x="698" y="-140.2" font-family="Helvetica,sans-Serif" font-size="11.00">0 &gt;</text>
<polygon fill="none" stroke="black" stroke-width="2" points="418,-133 418,-241 722,-241 722,-133 418,-133"/>
</a>
</g>
</g>
<!-- artefact_group_data -->
<g id="node2" class="node">
<title>artefact_group_data</title>
<g id="a_node2"><a xlink:href="../../tables/artefact_group_data.html" xlink:title="artefact_group_data" target="_top">
<polygon fill="#ffffff" stroke="transparent" points="192,-209 192,-311 368,-311 368,-209 192,-209"/>
<polygon fill="#f5f5f5" stroke="transparent" points="192,-289 192,-311 368,-311 368,-289 192,-289"/>
<polygon fill="none" stroke="black" points="192,-289 192,-311 368,-311 368,-289 192,-289"/>
<text text-anchor="start" x="197" y="-298.2" font-family="Helvetica,sans-Serif" font-weight="bold" font-size="11.00">artefact_group_data</text>
<text text-anchor="start" x="326" y="-297.2" font-family="Helvetica,sans-Serif" font-size="11.00">[table]</text>
<polygon fill="none" stroke="black" points="192,-267 192,-289 368,-289 368,-267 192,-267"/>
<image xlink:href="../../images/primaryKeys.png" width="11px" height="12px" preserveAspectRatio="xMinYMin meet" x="197" y="-284"/>
<text text-anchor="start" x="212" y="-275.2" font-family="Helvetica,sans-Serif" font-size="11.00">artefact_group_data_id</text>
<polygon fill="#ffffff" stroke="transparent" points="192,-245 192,-267 368,-267 368,-245 192,-245"/>
<polygon fill="none" stroke="black" points="192,-245 192,-267 368,-267 368,-245 192,-245"/>
<image xlink:href="../../images/foreignKeys.png" width="11px" height="12px" preserveAspectRatio="xMinYMin meet" x="197" y="-262"/>
<text text-anchor="start" x="212" y="-253.2" font-family="Helvetica,sans-Serif" font-size="11.00">artefact_group_id</text>
<polygon fill="none" stroke="black" points="192,-227 192,-245 368,-245 368,-227 192,-227"/>
<text text-anchor="start" x="195" y="-233.2" font-family="Helvetica,sans-Serif" font-size="11.00">...</text>
<polygon fill="#ffffff" stroke="transparent" points="192,-209 192,-227 258,-227 258,-209 192,-209"/>
<polygon fill="none" stroke="black" points="192,-209 192,-227 258,-227 258,-209 192,-209"/>
<text text-anchor="start" x="195" y="-215.2" font-family="Helvetica,sans-Serif" font-size="11.00">&lt; 1</text>
<polygon fill="#ffffff" stroke="transparent" points="258,-209 258,-227 321,-227 321,-209 258,-209"/>
<polygon fill="none" stroke="black" points="258,-209 258,-227 321,-227 321,-209 258,-209"/>
<text text-anchor="start" x="281" y="-215.2" font-family="Helvetica,sans-Serif" font-size="11.00">0 rows</text>
<polygon fill="#ffffff" stroke="transparent" points="321,-209 321,-227 368,-227 368,-209 321,-209"/>
<polygon fill="none" stroke="black" points="321,-209 321,-227 368,-227 368,-209 321,-209"/>
<text text-anchor="start" x="345" y="-215.2" font-family="Helvetica,sans-Serif" font-size="11.00">1 &gt;</text>
</a>
</g>
</g>
<!-- artefact_group_data_owner&#45;&gt;artefact_group_data -->
<g id="edge1" class="edge">
<title>artefact_group_data_owner:w&#45;&gt;artefact_group_data:e</title>
<path fill="none" stroke="black" d="M404.36,-211.66C386.7,-227.45 401.35,-278 369,-278"/>
<polygon fill="black" stroke="black" points="410.43,-209.59 419.16,-210.41 414.21,-208.29 418,-207 418,-207 418,-207 414.21,-208.29 416.84,-203.59 410.43,-209.59 410.43,-209.59"/>
<ellipse fill="none" stroke="black" cx="407.4" cy="-210.62" rx="3.2" ry="3.2"/>
</g>
<!-- edition_editor -->
<g id="node3" class="node">
<title>edition_editor</title>
<g id="a_node3"><a xlink:href="../../tables/edition_editor.html" xlink:title="edition_editor" target="_top">
<polygon fill="#ffffff" stroke="transparent" points="212,-37 212,-161 348,-161 348,-37 212,-37"/>
<polygon fill="#f5f5f5" stroke="transparent" points="212,-139 212,-161 348,-161 348,-139 212,-139"/>
<polygon fill="none" stroke="black" points="212,-139 212,-161 348,-161 348,-139 212,-139"/>
<text text-anchor="start" x="217" y="-148.2" font-family="Helvetica,sans-Serif" font-weight="bold" font-size="11.00">edition_editor</text>
<text text-anchor="start" x="306" y="-147.2" font-family="Helvetica,sans-Serif" font-size="11.00">[table]</text>
<polygon fill="none" stroke="black" points="212,-117 212,-139 348,-139 348,-117 212,-117"/>
<image xlink:href="../../images/primaryKeys.png" width="11px" height="12px" preserveAspectRatio="xMinYMin meet" x="217" y="-134"/>
<text text-anchor="start" x="234" y="-125.2" font-family="Helvetica,sans-Serif" font-size="11.00">edition_editor_id</text>
<polygon fill="#ffffff" stroke="transparent" points="212,-95 212,-117 348,-117 348,-95 212,-95"/>
<polygon fill="none" stroke="black" points="212,-95 212,-117 348,-117 348,-95 212,-95"/>
<image xlink:href="../../images/foreignKeys.png" width="11px" height="12px" preserveAspectRatio="xMinYMin meet" x="217" y="-112"/>
<text text-anchor="start" x="234" y="-103.2" font-family="Helvetica,sans-Serif" font-size="11.00">user_id</text>
<polygon fill="#ffffff" stroke="transparent" points="212,-73 212,-95 348,-95 348,-73 212,-73"/>
<polygon fill="none" stroke="black" points="212,-73 212,-95 348,-95 348,-73 212,-73"/>
<image xlink:href="../../images/foreignKeys.png" width="11px" height="12px" preserveAspectRatio="xMinYMin meet" x="217" y="-90"/>
<text text-anchor="start" x="234" y="-81.2" font-family="Helvetica,sans-Serif" font-size="11.00">edition_id</text>
<polygon fill="none" stroke="black" points="212,-55 212,-73 348,-73 348,-55 212,-55"/>
<text text-anchor="start" x="215" y="-61.2" font-family="Helvetica,sans-Serif" font-size="11.00">...</text>
<polygon fill="#ffffff" stroke="transparent" points="212,-37 212,-55 243,-55 243,-37 212,-37"/>
<polygon fill="none" stroke="black" points="212,-37 212,-55 243,-55 243,-37 212,-37"/>
<text text-anchor="start" x="215" y="-43.2" font-family="Helvetica,sans-Serif" font-size="11.00">&lt; 2</text>
<polygon fill="#ffffff" stroke="transparent" points="243,-37 243,-55 312,-55 312,-37 243,-37"/>
<polygon fill="none" stroke="black" points="243,-37 243,-55 312,-55 312,-37 243,-37"/>
<text text-anchor="start" x="248" y="-43.2" font-family="Helvetica,sans-Serif" font-size="11.00">1,645 rows</text>
<polygon fill="#ffffff" stroke="transparent" points="312,-37 312,-55 348,-55 348,-37 312,-37"/>
<polygon fill="none" stroke="black" points="312,-37 312,-55 348,-55 348,-37 312,-37"/>
<text text-anchor="start" x="318" y="-43.2" font-family="Helvetica,sans-Serif" font-size="11.00">33 &gt;</text>
</a>
</g>
</g>
<!-- artefact_group_data_owner&#45;&gt;edition_editor -->
<g id="edge2" class="edge">
<title>artefact_group_data_owner:w&#45;&gt;edition_editor:e</title>
<path fill="none" stroke="black" d="M403.53,-160.48C382.62,-152.46 377.74,-128 349,-128"/>
<polygon fill="black" stroke="black" points="410.12,-161.63 417.38,-166.55 414.06,-162.31 418,-163 418,-163 418,-163 414.06,-162.31 418.62,-159.45 410.12,-161.63 410.12,-161.63"/>
<ellipse fill="none" stroke="black" cx="406.97" cy="-161.08" rx="3.2" ry="3.2"/>
</g>
<!-- edition -->
<g id="node4" class="node">
<title>edition</title>
<g id="a_node4"><a xlink:href="../../tables/edition.html" xlink:title="edition" target="_top">
<polygon fill="#ffffff" stroke="transparent" points="8,-65 8,-167 143,-167 143,-65 8,-65"/>
<polygon fill="#f5f5f5" stroke="transparent" points="8.5,-145 8.5,-167 143.5,-167 143.5,-145 8.5,-145"/>
<polygon fill="none" stroke="black" points="8.5,-145 8.5,-167 143.5,-167 143.5,-145 8.5,-145"/>
<text text-anchor="start" x="13.5" y="-154.2" font-family="Helvetica,sans-Serif" font-weight="bold" font-size="11.00">edition</text>
<text text-anchor="start" x="101.5" y="-153.2" font-family="Helvetica,sans-Serif" font-size="11.00">[table]</text>
<polygon fill="none" stroke="black" points="8.5,-123 8.5,-145 143.5,-145 143.5,-123 8.5,-123"/>
<image xlink:href="../../images/primaryKeys.png" width="11px" height="12px" preserveAspectRatio="xMinYMin meet" x="13.5" y="-140"/>
<text text-anchor="start" x="28.5" y="-131.2" font-family="Helvetica,sans-Serif" font-size="11.00">edition_id</text>
<polygon fill="#ffffff" stroke="transparent" points="8.5,-101 8.5,-123 143.5,-123 143.5,-101 8.5,-101"/>
<polygon fill="none" stroke="black" points="8.5,-101 8.5,-123 143.5,-123 143.5,-101 8.5,-101"/>
<image xlink:href="../../images/foreignKeys.png" width="11px" height="12px" preserveAspectRatio="xMinYMin meet" x="13.5" y="-118"/>
<text text-anchor="start" x="28.5" y="-109.2" font-family="Helvetica,sans-Serif" font-size="11.00">manuscript_id</text>
<polygon fill="none" stroke="black" points="8.5,-83 8.5,-101 143.5,-101 143.5,-83 8.5,-83"/>
<text text-anchor="start" x="11.5" y="-89.2" font-family="Helvetica,sans-Serif" font-size="11.00">...</text>
<polygon fill="#ffffff" stroke="transparent" points="8.5,-65 8.5,-83 38.5,-83 38.5,-65 8.5,-65"/>
<polygon fill="none" stroke="black" points="8.5,-65 8.5,-83 38.5,-83 38.5,-65 8.5,-65"/>
<text text-anchor="start" x="11.5" y="-71.2" font-family="Helvetica,sans-Serif" font-size="11.00">&lt; 1</text>
<polygon fill="#ffffff" stroke="transparent" points="38.5,-65 38.5,-83 107.5,-83 107.5,-65 38.5,-65"/>
<polygon fill="none" stroke="black" points="38.5,-65 38.5,-83 107.5,-83 107.5,-65 38.5,-65"/>
<text text-anchor="start" x="43.5" y="-71.2" font-family="Helvetica,sans-Serif" font-size="11.00">1,645 rows</text>
<polygon fill="#ffffff" stroke="transparent" points="107.5,-65 107.5,-83 143.5,-83 143.5,-65 107.5,-65"/>
<polygon fill="none" stroke="black" points="107.5,-65 107.5,-83 143.5,-83 143.5,-65 107.5,-65"/>
<text text-anchor="start" x="113.5" y="-71.2" font-family="Helvetica,sans-Serif" font-size="11.00">35 &gt;</text>
</a>
</g>
</g>
<!-- artefact_group_data_owner&#45;&gt;edition -->
<g id="edge3" class="edge">
<title>artefact_group_data_owner:w&#45;&gt;edition:e</title>
<path fill="none" stroke="black" d="M403.51,-185.19C310.41,-187.58 274.93,-211.6 184,-172 161.67,-162.27 168.86,-134 144.5,-134"/>
<polygon fill="black" stroke="black" points="410,-185.1 418.05,-188.6 414,-185.05 418,-185 418,-185 418,-185 414,-185.05 417.95,-181.4 410,-185.1 410,-185.1"/>
<ellipse fill="none" stroke="black" cx="406.8" cy="-185.14" rx="3.2" ry="3.2"/>
</g>
<!-- edition_editor&#45;&gt;edition -->
<g id="edge4" class="edge">
<title>edition_editor:w&#45;&gt;edition:e</title>
<path fill="none" stroke="black" d="M196.88,-87.13C175.26,-98.07 175.84,-134 144.5,-134"/>
<polygon fill="black" stroke="black" points="203.19,-85.73 211.78,-87.51 207.09,-84.87 211,-84 211,-84 211,-84 207.09,-84.87 210.22,-80.49 203.19,-85.73 203.19,-85.73"/>
<ellipse fill="none" stroke="black" cx="200.07" cy="-86.42" rx="3.2" ry="3.2"/>
</g>
</g>
</svg>
