<?xml version="1.0" encoding="UTF-8" standalone="no"?>
<!DOCTYPE svg PUBLIC "-//W3C//DTD SVG 1.1//EN"
 "http://www.w3.org/Graphics/SVG/1.1/DTD/svg11.dtd">
<!-- Generated by graphviz version 2.40.1 (20161225.0304)
 -->
<!-- Title: oneDegreeRelationshipsDiagramImplied Pages: 1 -->
<svg width="774pt" height="349pt"
 viewBox="0.00 0.00 774.00 349.00" xmlns="http://www.w3.org/2000/svg" xmlns:xlink="http://www.w3.org/1999/xlink">
<g id="graph0" class="graph" transform="scale(1 1) rotate(0) translate(4 345)">
<title>oneDegreeRelationshipsDiagramImplied</title>
<polygon fill="#ffffff" stroke="transparent" points="-4,4 -4,-345 770,-345 770,4 -4,4"/>
<text text-anchor="middle" x="71.5" y="-7.2" font-family="Helvetica,sans-Serif" font-size="11.00" fill="#000000">Generated by SchemaSpy</text>
<!-- artefact_group_member_owner -->
<g id="node1" class="node">
<title>artefact_group_member_owner</title>
<g id="a_node1"><a xlink:href="../../tables/artefact_group_member_owner.html" xlink:title="artefact_group_member_owner" target="_top">
<polygon fill="#ffffff" stroke="transparent" points="442,-132 442,-242 758,-242 758,-132 442,-132"/>
<polygon fill="#f5f5f5" stroke="transparent" points="444,-218 444,-240 756,-240 756,-218 444,-218"/>
<polygon fill="none" stroke="#000000" points="444,-218 444,-240 756,-240 756,-218 444,-218"/>
<text text-anchor="start" x="449" y="-227.2" font-family="Helvetica,sans-Serif" font-weight="bold" font-size="11.00" fill="#000000">artefact_group_member_owner</text>
<text text-anchor="start" x="721" y="-226.2" font-family="Helvetica,sans-Serif" font-size="11.00" fill="#000000">[table]</text>
<polygon fill="none" stroke="#000000" points="444,-196 444,-218 674,-218 674,-196 444,-196"/>
<image xlink:href="../../images/primaryKeys.png" width="11px" height="12px" preserveAspectRatio="xMinYMin meet" x="449" y="-213"/>
<text text-anchor="start" x="464" y="-204.2" font-family="Helvetica,sans-Serif" font-size="11.00" fill="#000000">artefact_group_member_id</text>
<polygon fill="none" stroke="#000000" points="674,-196 674,-218 756,-218 756,-196 674,-196"/>
<text text-anchor="start" x="677" y="-204.2" font-family="Helvetica,sans-Serif" font-size="11.00" fill="#000000">int unsigned[10]</text>
<polygon fill="none" stroke="#000000" points="444,-174 444,-196 674,-196 674,-174 444,-174"/>
<image xlink:href="../../images/primaryKeys.png" width="11px" height="12px" preserveAspectRatio="xMinYMin meet" x="449" y="-191"/>
<text text-anchor="start" x="464" y="-182.2" font-family="Helvetica,sans-Serif" font-size="11.00" fill="#000000">edition_id</text>
<polygon fill="none" stroke="#000000" points="674,-174 674,-196 756,-196 756,-174 674,-174"/>
<text text-anchor="start" x="677" y="-182.2" font-family="Helvetica,sans-Serif" font-size="11.00" fill="#000000">int unsigned[10]</text>
<polygon fill="#ffffff" stroke="transparent" points="444,-152 444,-174 674,-174 674,-152 444,-152"/>
<polygon fill="none" stroke="#000000" points="444,-152 444,-174 674,-174 674,-152 444,-152"/>
<image xlink:href="../../images/foreignKeys.png" width="11px" height="12px" preserveAspectRatio="xMinYMin meet" x="449" y="-169"/>
<text text-anchor="start" x="464" y="-160.2" font-family="Helvetica,sans-Serif" font-size="11.00" fill="#000000">edition_editor_id</text>
<polygon fill="none" stroke="#000000" points="674,-152 674,-174 756,-174 756,-152 674,-152"/>
<text text-anchor="start" x="677" y="-160.2" font-family="Helvetica,sans-Serif" font-size="11.00" fill="#000000">int unsigned[10]</text>
<polygon fill="#ffffff" stroke="transparent" points="444,-134 444,-152 550,-152 550,-134 444,-134"/>
<polygon fill="none" stroke="#000000" points="444,-134 444,-152 550,-152 550,-134 444,-134"/>
<text text-anchor="start" x="447" y="-140.2" font-family="Helvetica,sans-Serif" font-size="11.00" fill="#000000">&lt; 3</text>
<polygon fill="#ffffff" stroke="transparent" points="550,-134 550,-152 674,-152 674,-134 550,-134"/>
<polygon fill="none" stroke="#000000" points="550,-134 550,-152 674,-152 674,-134 550,-134"/>
<text text-anchor="start" x="638" y="-140.2" font-family="Helvetica,sans-Serif" font-size="11.00" fill="#000000">0 rows</text>
<polygon fill="#ffffff" stroke="transparent" points="674,-134 674,-152 756,-152 756,-134 674,-134"/>
<polygon fill="none" stroke="#000000" points="674,-134 674,-152 756,-152 756,-134 674,-134"/>
<text text-anchor="start" x="737" y="-140.2" font-family="Helvetica,sans-Serif" font-size="11.00" fill="#000000">0 &gt;</text>
<polygon fill="none" stroke="#000000" stroke-width="2" points="443,-133 443,-241 757,-241 757,-133 443,-133"/>
</a>
</g>
</g>
<!-- artefact_group_member -->
<g id="node2" class="node">
<title>artefact_group_member</title>
<g id="a_node2"><a xlink:href="../../tables/artefact_group_member.html" xlink:title="artefact_group_member" target="_top">
<polygon fill="#ffffff" stroke="transparent" points="192,-209 192,-337 393,-337 393,-209 192,-209"/>
<polygon fill="#f5f5f5" stroke="transparent" points="192.5,-315 192.5,-337 393.5,-337 393.5,-315 192.5,-315"/>
<polygon fill="none" stroke="#000000" points="192.5,-315 192.5,-337 393.5,-337 393.5,-315 192.5,-315"/>
<text text-anchor="start" x="197.5" y="-324.2" font-family="Helvetica,sans-Serif" font-weight="bold" font-size="11.00" fill="#000000">artefact_group_member</text>
<text text-anchor="start" x="358.5" y="-323.2" font-family="Helvetica,sans-Serif" font-size="11.00" fill="#000000">[table]</text>
<polygon fill="none" stroke="#000000" points="192.5,-293 192.5,-315 393.5,-315 393.5,-293 192.5,-293"/>
<image xlink:href="../../images/primaryKeys.png" width="11px" height="12px" preserveAspectRatio="xMinYMin meet" x="197.5" y="-310"/>
<text text-anchor="start" x="212.5" y="-301.2" font-family="Helvetica,sans-Serif" font-size="11.00" fill="#000000">artefact_group_member_id</text>
<polygon fill="#ffffff" stroke="transparent" points="192.5,-271 192.5,-293 393.5,-293 393.5,-271 192.5,-271"/>
<polygon fill="none" stroke="#000000" points="192.5,-271 192.5,-293 393.5,-293 393.5,-271 192.5,-271"/>
<image xlink:href="../../images/foreignKeys.png" width="11px" height="12px" preserveAspectRatio="xMinYMin meet" x="197.5" y="-288"/>
<text text-anchor="start" x="212.5" y="-279.2" font-family="Helvetica,sans-Serif" font-size="11.00" fill="#000000">artefact_group_id</text>
<polygon fill="#ffffff" stroke="transparent" points="192.5,-249 192.5,-271 393.5,-271 393.5,-249 192.5,-249"/>
<polygon fill="none" stroke="#000000" points="192.5,-249 192.5,-271 393.5,-271 393.5,-249 192.5,-249"/>
<image xlink:href="../../images/foreignKeys.png" width="11px" height="12px" preserveAspectRatio="xMinYMin meet" x="197.5" y="-266"/>
<text text-anchor="start" x="212.5" y="-257.2" font-family="Helvetica,sans-Serif" font-size="11.00" fill="#000000">artefact_id</text>
<polygon fill="#ffffff" stroke="transparent" points="192.5,-227 192.5,-249 393.5,-249 393.5,-227 192.5,-227"/>
<polygon fill="none" stroke="#000000" points="192.5,-227 192.5,-249 393.5,-249 393.5,-227 192.5,-227"/>
<image xlink:href="../../images/foreignKeys.png" width="11px" height="12px" preserveAspectRatio="xMinYMin meet" x="197.5" y="-244"/>
<text text-anchor="start" x="212.5" y="-235.2" font-family="Helvetica,sans-Serif" font-size="11.00" fill="#000000">creator_id</text>
<polygon fill="#ffffff" stroke="transparent" points="192.5,-209 192.5,-227 273.5,-227 273.5,-209 192.5,-209"/>
<polygon fill="none" stroke="#000000" points="192.5,-209 192.5,-227 273.5,-227 273.5,-209 192.5,-209"/>
<text text-anchor="start" x="195.5" y="-215.2" font-family="Helvetica,sans-Serif" font-size="11.00" fill="#000000">&lt; 3</text>
<polygon fill="#ffffff" stroke="transparent" points="273.5,-209 273.5,-227 341.5,-227 341.5,-209 273.5,-209"/>
<polygon fill="none" stroke="#000000" points="273.5,-209 273.5,-227 341.5,-227 341.5,-209 273.5,-209"/>
<text text-anchor="start" x="305.5" y="-215.2" font-family="Helvetica,sans-Serif" font-size="11.00" fill="#000000">0 rows</text>
<polygon fill="#ffffff" stroke="transparent" points="341.5,-209 341.5,-227 393.5,-227 393.5,-209 341.5,-209"/>
<polygon fill="none" stroke="#000000" points="341.5,-209 341.5,-227 393.5,-227 393.5,-209 341.5,-209"/>
<text text-anchor="start" x="374.5" y="-215.2" font-family="Helvetica,sans-Serif" font-size="11.00" fill="#000000">1 &gt;</text>
</a>
</g>
</g>
<!-- artefact_group_member_owner&#45;&gt;artefact_group_member -->
<g id="edge1" class="edge">
<title>artefact_group_member_owner:w&#45;&gt;artefact_group_member:e</title>
<path fill="none" stroke="#000000" d="M429.869,-211.168C405.5839,-229.7344 436.0282,-304 393.5,-304"/>
<polygon fill="#000000" stroke="#000000" points="436.3268,-209.2633 445.0185,-210.4529 440.1634,-208.1316 444,-207 444,-207 444,-207 440.1634,-208.1316 442.9815,-203.5471 436.3268,-209.2633 436.3268,-209.2633"/>
<ellipse fill="none" stroke="#000000" cx="433.2575" cy="-210.1686" rx="3.2" ry="3.2"/>
</g>
<!-- edition_editor -->
<g id="node3" class="node">
<title>edition_editor</title>
<g id="a_node3"><a xlink:href="../../tables/edition_editor.html" xlink:title="edition_editor" target="_top">
<polygon fill="#ffffff" stroke="transparent" points="226,-37 226,-161 359,-161 359,-37 226,-37"/>
<polygon fill="#f5f5f5" stroke="transparent" points="226.5,-139 226.5,-161 359.5,-161 359.5,-139 226.5,-139"/>
<polygon fill="none" stroke="#000000" points="226.5,-139 226.5,-161 359.5,-161 359.5,-139 226.5,-139"/>
<text text-anchor="start" x="231.5" y="-148.2" font-family="Helvetica,sans-Serif" font-weight="bold" font-size="11.00" fill="#000000">edition_editor</text>
<text text-anchor="start" x="324.5" y="-147.2" font-family="Helvetica,sans-Serif" font-size="11.00" fill="#000000">[table]</text>
<polygon fill="none" stroke="#000000" points="226.5,-117 226.5,-139 359.5,-139 359.5,-117 226.5,-117"/>
<image xlink:href="../../images/primaryKeys.png" width="11px" height="12px" preserveAspectRatio="xMinYMin meet" x="231.5" y="-134"/>
<text text-anchor="start" x="246.5" y="-125.2" font-family="Helvetica,sans-Serif" font-size="11.00" fill="#000000">edition_editor_id</text>
<polygon fill="#ffffff" stroke="transparent" points="226.5,-95 226.5,-117 359.5,-117 359.5,-95 226.5,-95"/>
<polygon fill="none" stroke="#000000" points="226.5,-95 226.5,-117 359.5,-117 359.5,-95 226.5,-95"/>
<image xlink:href="../../images/foreignKeys.png" width="11px" height="12px" preserveAspectRatio="xMinYMin meet" x="231.5" y="-112"/>
<text text-anchor="start" x="246.5" y="-103.2" font-family="Helvetica,sans-Serif" font-size="11.00" fill="#000000">user_id</text>
<polygon fill="#ffffff" stroke="transparent" points="226.5,-73 226.5,-95 359.5,-95 359.5,-73 226.5,-73"/>
<polygon fill="none" stroke="#000000" points="226.5,-73 226.5,-95 359.5,-95 359.5,-73 226.5,-73"/>
<image xlink:href="../../images/foreignKeys.png" width="11px" height="12px" preserveAspectRatio="xMinYMin meet" x="231.5" y="-90"/>
<text text-anchor="start" x="246.5" y="-81.2" font-family="Helvetica,sans-Serif" font-size="11.00" fill="#000000">edition_id</text>
<polygon fill="none" stroke="#000000" points="226.5,-55 226.5,-73 359.5,-73 359.5,-55 226.5,-55"/>
<text text-anchor="start" x="229.5" y="-61.2" font-family="Helvetica,sans-Serif" font-size="11.00" fill="#000000">...</text>
<polygon fill="#ffffff" stroke="transparent" points="226.5,-37 226.5,-55 259.5,-55 259.5,-37 226.5,-37"/>
<polygon fill="none" stroke="#000000" points="226.5,-37 226.5,-55 259.5,-55 259.5,-37 226.5,-37"/>
<text text-anchor="start" x="229.5" y="-43.2" font-family="Helvetica,sans-Serif" font-size="11.00" fill="#000000">&lt; 2</text>
<polygon fill="#ffffff" stroke="transparent" points="259.5,-37 259.5,-55 325.5,-55 325.5,-37 259.5,-37"/>
<polygon fill="none" stroke="#000000" points="259.5,-37 259.5,-55 325.5,-55 325.5,-37 259.5,-37"/>
<text text-anchor="start" x="268.5" y="-43.2" font-family="Helvetica,sans-Serif" font-size="11.00" fill="#000000">1,645 rows</text>
<polygon fill="#ffffff" stroke="transparent" points="325.5,-37 325.5,-55 359.5,-55 359.5,-37 325.5,-37"/>
<polygon fill="none" stroke="#000000" points="325.5,-37 325.5,-55 359.5,-55 359.5,-37 325.5,-37"/>
<text text-anchor="start" x="334.5" y="-43.2" font-family="Helvetica,sans-Serif" font-size="11.00" fill="#000000">30 &gt;</text>
</a>
</g>
</g>
<!-- artefact_group_member_owner&#45;&gt;edition_editor -->
<g id="edge2" class="edge">
<title>artefact_group_member_owner:w&#45;&gt;edition_editor:e</title>
<path fill="none" stroke="#000000" d="M429.6099,-161.3119C401.8396,-154.3205 394.7509,-128 359.5,-128"/>
<polygon fill="#000000" stroke="#000000" points="436.0545,-162.0679 443.5805,-166.5755 440.0272,-162.5339 444,-163 444,-163 444,-163 440.0272,-162.5339 444.4195,-159.4245 436.0545,-162.0679 436.0545,-162.0679"/>
<ellipse fill="none" stroke="#000000" cx="432.8763" cy="-161.695" rx="3.2" ry="3.2"/>
</g>
<!-- edition -->
<g id="node4" class="node">
<title>edition</title>
<g id="a_node4"><a xlink:href="../../tables/edition.html" xlink:title="edition" target="_top">
<polygon fill="#ffffff" stroke="transparent" points="8,-65 8,-167 143,-167 143,-65 8,-65"/>
<polygon fill="#f5f5f5" stroke="transparent" points="8.5,-145 8.5,-167 143.5,-167 143.5,-145 8.5,-145"/>
<polygon fill="none" stroke="#000000" points="8.5,-145 8.5,-167 143.5,-167 143.5,-145 8.5,-145"/>
<text text-anchor="start" x="13.5" y="-154.2" font-family="Helvetica,sans-Serif" font-weight="bold" font-size="11.00" fill="#000000">edition</text>
<text text-anchor="start" x="108.5" y="-153.2" font-family="Helvetica,sans-Serif" font-size="11.00" fill="#000000">[table]</text>
<polygon fill="none" stroke="#000000" points="8.5,-123 8.5,-145 143.5,-145 143.5,-123 8.5,-123"/>
<image xlink:href="../../images/primaryKeys.png" width="11px" height="12px" preserveAspectRatio="xMinYMin meet" x="13.5" y="-140"/>
<text text-anchor="start" x="28.5" y="-131.2" font-family="Helvetica,sans-Serif" font-size="11.00" fill="#000000">edition_id</text>
<polygon fill="#ffffff" stroke="transparent" points="8.5,-101 8.5,-123 143.5,-123 143.5,-101 8.5,-101"/>
<polygon fill="none" stroke="#000000" points="8.5,-101 8.5,-123 143.5,-123 143.5,-101 8.5,-101"/>
<image xlink:href="../../images/foreignKeys.png" width="11px" height="12px" preserveAspectRatio="xMinYMin meet" x="13.5" y="-118"/>
<text text-anchor="start" x="28.5" y="-109.2" font-family="Helvetica,sans-Serif" font-size="11.00" fill="#000000">manuscript_id</text>
<polygon fill="none" stroke="#000000" points="8.5,-83 8.5,-101 143.5,-101 143.5,-83 8.5,-83"/>
<text text-anchor="start" x="11.5" y="-89.2" font-family="Helvetica,sans-Serif" font-size="11.00" fill="#000000">...</text>
<polygon fill="#ffffff" stroke="transparent" points="8.5,-65 8.5,-83 42.5,-83 42.5,-65 8.5,-65"/>
<polygon fill="none" stroke="#000000" points="8.5,-65 8.5,-83 42.5,-83 42.5,-65 8.5,-65"/>
<text text-anchor="start" x="11.5" y="-71.2" font-family="Helvetica,sans-Serif" font-size="11.00" fill="#000000">&lt; 1</text>
<polygon fill="#ffffff" stroke="transparent" points="42.5,-65 42.5,-83 108.5,-83 108.5,-65 42.5,-65"/>
<polygon fill="none" stroke="#000000" points="42.5,-65 42.5,-83 108.5,-83 108.5,-65 42.5,-65"/>
<text text-anchor="start" x="51.5" y="-71.2" font-family="Helvetica,sans-Serif" font-size="11.00" fill="#000000">1,645 rows</text>
<polygon fill="#ffffff" stroke="transparent" points="108.5,-65 108.5,-83 143.5,-83 143.5,-65 108.5,-65"/>
<polygon fill="none" stroke="#000000" points="108.5,-65 108.5,-83 143.5,-83 143.5,-65 108.5,-65"/>
<text text-anchor="start" x="118.5" y="-71.2" font-family="Helvetica,sans-Serif" font-size="11.00" fill="#000000">32 &gt;</text>
</a>
</g>
</g>
<!-- artefact_group_member_owner&#45;&gt;edition -->
<g id="edge3" class="edge">
<title>artefact_group_member_owner:w&#45;&gt;edition:e</title>
<path fill="none" stroke="#000000" d="M429.5053,-185.1699C324.9238,-187.6278 285.9116,-215.2991 184,-172 161.2827,-162.3481 168.1827,-134 143.5,-134"/>
<polygon fill="#000000" stroke="#000000" points="436.0005,-185.0938 444.0422,-188.5998 440.0003,-185.0469 444,-185 444,-185 444,-185 440.0003,-185.0469 443.9578,-181.4002 436.0005,-185.0938 436.0005,-185.0938"/>
<ellipse fill="none" stroke="#000000" cx="432.8008" cy="-185.1313" rx="3.2" ry="3.2"/>
</g>
<!-- edition_editor&#45;&gt;edition -->
<g id="edge4" class="edge">
<title>edition_editor:w&#45;&gt;edition:e</title>
<path fill="none" stroke="#000000" d="M211.9508,-86.2783C183.4742,-96.0598 181.0139,-134 143.5,-134"/>
<polygon fill="#000000" stroke="#000000" points="218.5963,-85.2377 227.057,-87.5567 222.5482,-84.6189 226.5,-84 226.5,-84 226.5,-84 222.5482,-84.6189 225.943,-80.4433 218.5963,-85.2377 218.5963,-85.2377"/>
<ellipse fill="none" stroke="#000000" cx="215.4348" cy="-85.7328" rx="3.2" ry="3.2"/>
</g>
</g>
</svg>
