<?xml version="1.0" encoding="UTF-8" standalone="no"?>
<!DOCTYPE svg PUBLIC "-//W3C//DTD SVG 1.1//EN"
 "http://www.w3.org/Graphics/SVG/1.1/DTD/svg11.dtd">
<!-- Generated by graphviz version 2.43.0 (0)
 -->
<!-- Title: twoDegreesRelationshipsDiagram Pages: 1 -->
<svg width="807pt" height="818pt"
 viewBox="0.00 0.00 807.00 818.00" xmlns="http://www.w3.org/2000/svg" xmlns:xlink="http://www.w3.org/1999/xlink">
<g id="graph0" class="graph" transform="scale(1 1) rotate(0) translate(4 814)">
<title>twoDegreesRelationshipsDiagram</title>
<polygon fill="#ffffff" stroke="transparent" points="-4,4 -4,-814 803,-814 803,4 -4,4"/>
<text text-anchor="middle" x="79.5" y="-7.2" font-family="Helvetica,sans-Serif" font-size="11.00">Generated by SchemaSpy</text>
<!-- artefact_data -->
<g id="node1" class="node">
<title>artefact_data</title>
<g id="a_node1"><a xlink:href="../../tables/artefact_data.html" xlink:title="artefact_data" target="_top">
<polygon fill="#ffffff" stroke="transparent" points="283,-538 283,-596 417,-596 417,-538 283,-538"/>
<polygon fill="#f5f5f5" stroke="transparent" points="283,-574 283,-596 417,-596 417,-574 283,-574"/>
<polygon fill="none" stroke="black" points="283,-574 283,-596 417,-596 417,-574 283,-574"/>
<text text-anchor="start" x="288" y="-583.2" font-family="Helvetica,sans-Serif" font-weight="bold" font-size="11.00">artefact_data</text>
<text text-anchor="start" x="375" y="-582.2" font-family="Helvetica,sans-Serif" font-size="11.00">[table]</text>
<polygon fill="none" stroke="black" points="283,-556 283,-574 417,-574 417,-556 283,-556"/>
<text text-anchor="start" x="286" y="-562.2" font-family="Helvetica,sans-Serif" font-size="11.00">...</text>
<polygon fill="#ffffff" stroke="transparent" points="283,-538 283,-556 313,-556 313,-538 283,-538"/>
<polygon fill="none" stroke="black" points="283,-538 283,-556 313,-556 313,-538 283,-538"/>
<text text-anchor="start" x="286" y="-544.2" font-family="Helvetica,sans-Serif" font-size="11.00">&lt; 1</text>
<polygon fill="#ffffff" stroke="transparent" points="313,-538 313,-556 389,-556 389,-538 313,-538"/>
<polygon fill="none" stroke="black" points="313,-538 313,-556 389,-556 389,-538 313,-538"/>
<text text-anchor="start" x="318" y="-544.2" font-family="Helvetica,sans-Serif" font-size="11.00">26,649 rows</text>
<polygon fill="#ffffff" stroke="transparent" points="389,-538 389,-556 417,-556 417,-538 389,-538"/>
<polygon fill="none" stroke="black" points="389,-538 389,-556 417,-556 417,-538 389,-538"/>
<text text-anchor="start" x="394" y="-544.2" font-family="Helvetica,sans-Serif" font-size="11.00">1 &gt;</text>
</a>
</g>
</g>
<!-- artefact -->
<g id="node2" class="node">
<title>artefact</title>
<g id="a_node2"><a xlink:href="../../tables/artefact.html" xlink:title="artefact" target="_top">
<polygon fill="#ffffff" stroke="transparent" points="22,-339 22,-401 136,-401 136,-339 22,-339"/>
<polygon fill="#f5f5f5" stroke="transparent" points="22,-379 22,-401 136,-401 136,-379 22,-379"/>
<polygon fill="none" stroke="black" points="22,-379 22,-401 136,-401 136,-379 22,-379"/>
<text text-anchor="start" x="27" y="-388.2" font-family="Helvetica,sans-Serif" font-weight="bold" font-size="11.00">artefact</text>
<text text-anchor="start" x="94" y="-387.2" font-family="Helvetica,sans-Serif" font-size="11.00">[table]</text>
<polygon fill="none" stroke="black" points="22,-357 22,-379 136,-379 136,-357 22,-357"/>
<image xlink:href="../../images/primaryKeys.png" width="11px" height="12px" preserveAspectRatio="xMinYMin meet" x="27" y="-374"/>
<text text-anchor="start" x="53" y="-365.2" font-family="Helvetica,sans-Serif" font-size="11.00">artefact_id</text>
<polygon fill="#ffffff" stroke="transparent" points="22,-339 22,-357 36,-357 36,-339 22,-339"/>
<polygon fill="none" stroke="black" points="22,-339 22,-357 36,-357 36,-339 22,-339"/>
<text text-anchor="start" x="25" y="-345.2" font-family="Helvetica,sans-Serif" font-size="11.00"> &#160;</text>
<polygon fill="#ffffff" stroke="transparent" points="36,-339 36,-357 110,-357 110,-339 36,-339"/>
<polygon fill="none" stroke="black" points="36,-339 36,-357 110,-357 110,-339 36,-339"/>
<text text-anchor="start" x="39" y="-345.2" font-family="Helvetica,sans-Serif" font-size="11.00">26,982 rows</text>
<polygon fill="#ffffff" stroke="transparent" points="110,-339 110,-357 136,-357 136,-339 110,-339"/>
<polygon fill="none" stroke="black" points="110,-339 110,-357 136,-357 136,-339 110,-339"/>
<text text-anchor="start" x="113" y="-345.2" font-family="Helvetica,sans-Serif" font-size="11.00">8 &gt;</text>
</a>
</g>
</g>
<!-- artefact_data&#45;&gt;artefact -->
<g id="edge1" class="edge">
<title>artefact_data:w&#45;&gt;artefact:e</title>
<path fill="none" stroke="black" d="M267.22,-564.73C233.94,-563.35 217.3,-555.94 191,-528 139.56,-473.34 212.05,-368 137,-368"/>
<polygon fill="black" stroke="black" points="274,-564.86 281.93,-568.6 278,-564.93 282,-565 282,-565 282,-565 278,-564.93 282.07,-561.4 274,-564.86 274,-564.86"/>
<ellipse fill="none" stroke="black" cx="270.8" cy="-564.8" rx="3.2" ry="3.2"/>
</g>
<!-- artefact_group_data -->
<g id="node3" class="node">
<title>artefact_group_data</title>
<g id="a_node3"><a xlink:href="../../tables/artefact_group_data.html" xlink:title="artefact_group_data" target="_top">
<polygon fill="#ffffff" stroke="transparent" points="262.5,-748 262.5,-806 437.5,-806 437.5,-748 262.5,-748"/>
<polygon fill="#f5f5f5" stroke="transparent" points="263,-784 263,-806 438,-806 438,-784 263,-784"/>
<polygon fill="none" stroke="black" points="263,-784 263,-806 438,-806 438,-784 263,-784"/>
<text text-anchor="start" x="268" y="-793.2" font-family="Helvetica,sans-Serif" font-weight="bold" font-size="11.00">artefact_group_data</text>
<text text-anchor="start" x="396" y="-792.2" font-family="Helvetica,sans-Serif" font-size="11.00">[table]</text>
<polygon fill="none" stroke="black" points="263,-766 263,-784 438,-784 438,-766 263,-766"/>
<text text-anchor="start" x="266" y="-772.2" font-family="Helvetica,sans-Serif" font-size="11.00">...</text>
<polygon fill="#ffffff" stroke="transparent" points="263,-748 263,-766 329,-766 329,-748 263,-748"/>
<polygon fill="none" stroke="black" points="263,-748 263,-766 329,-766 329,-748 263,-748"/>
<text text-anchor="start" x="266" y="-754.2" font-family="Helvetica,sans-Serif" font-size="11.00">&lt; 1</text>
<polygon fill="#ffffff" stroke="transparent" points="329,-748 329,-766 392,-766 392,-748 329,-748"/>
<polygon fill="none" stroke="black" points="329,-748 329,-766 392,-766 392,-748 329,-748"/>
<text text-anchor="start" x="352" y="-754.2" font-family="Helvetica,sans-Serif" font-size="11.00">0 rows</text>
<polygon fill="#ffffff" stroke="transparent" points="392,-748 392,-766 438,-766 438,-748 392,-748"/>
<polygon fill="none" stroke="black" points="392,-748 392,-766 438,-766 438,-748 392,-748"/>
<text text-anchor="start" x="415" y="-754.2" font-family="Helvetica,sans-Serif" font-size="11.00">1 &gt;</text>
</a>
</g>
</g>
<!-- artefact_group -->
<g id="node4" class="node">
<title>artefact_group</title>
<g id="a_node4"><a xlink:href="../../tables/artefact_group.html" xlink:title="artefact_group" target="_top">
<polygon fill="#ffffff" stroke="transparent" points="8,-693 8,-755 150,-755 150,-693 8,-693"/>
<polygon fill="#f5f5f5" stroke="transparent" points="8,-733 8,-755 150,-755 150,-733 8,-733"/>
<polygon fill="none" stroke="black" points="8,-733 8,-755 150,-755 150,-733 8,-733"/>
<text text-anchor="start" x="13" y="-742.2" font-family="Helvetica,sans-Serif" font-weight="bold" font-size="11.00">artefact_group</text>
<text text-anchor="start" x="108" y="-741.2" font-family="Helvetica,sans-Serif" font-size="11.00">[table]</text>
<polygon fill="none" stroke="black" points="8,-711 8,-733 150,-733 150,-711 8,-711"/>
<image xlink:href="../../images/primaryKeys.png" width="11px" height="12px" preserveAspectRatio="xMinYMin meet" x="13" y="-728"/>
<text text-anchor="start" x="30" y="-719.2" font-family="Helvetica,sans-Serif" font-size="11.00">artefact_group_id</text>
<polygon fill="#ffffff" stroke="transparent" points="8,-693 8,-711 51,-711 51,-693 8,-693"/>
<polygon fill="none" stroke="black" points="8,-693 8,-711 51,-711 51,-693 8,-693"/>
<text text-anchor="start" x="11" y="-699.2" font-family="Helvetica,sans-Serif" font-size="11.00"> &#160;</text>
<polygon fill="#ffffff" stroke="transparent" points="51,-693 51,-711 109,-711 109,-693 51,-693"/>
<polygon fill="none" stroke="black" points="51,-693 51,-711 109,-711 109,-693 51,-693"/>
<text text-anchor="start" x="69" y="-699.2" font-family="Helvetica,sans-Serif" font-size="11.00">0 rows</text>
<polygon fill="#ffffff" stroke="transparent" points="109,-693 109,-711 150,-711 150,-693 109,-693"/>
<polygon fill="none" stroke="black" points="109,-693 109,-711 150,-711 150,-693 109,-693"/>
<text text-anchor="start" x="127" y="-699.2" font-family="Helvetica,sans-Serif" font-size="11.00">2 &gt;</text>
</a>
</g>
</g>
<!-- artefact_group_data&#45;&gt;artefact_group -->
<g id="edge2" class="edge">
<title>artefact_group_data:w&#45;&gt;artefact_group:e</title>
<path fill="none" stroke="black" d="M247.69,-771.68C218.18,-760.08 174.17,-722 151,-722"/>
<polygon fill="black" stroke="black" points="254.21,-773.19 261.19,-778.51 258.1,-774.1 262,-775 262,-775 262,-775 258.1,-774.1 262.81,-771.49 254.21,-773.19 254.21,-773.19"/>
<ellipse fill="none" stroke="black" cx="251.09" cy="-772.47" rx="3.2" ry="3.2"/>
</g>
<!-- artefact_group_member -->
<g id="node5" class="node">
<title>artefact_group_member</title>
<g id="a_node5"><a xlink:href="../../tables/artefact_group_member.html" xlink:title="artefact_group_member" target="_top">
<polygon fill="#ffffff" stroke="transparent" points="199,-617 199,-727 501,-727 501,-617 199,-617"/>
<polygon fill="#f5f5f5" stroke="transparent" points="201,-703 201,-725 499,-725 499,-703 201,-703"/>
<polygon fill="none" stroke="black" points="201,-703 201,-725 499,-725 499,-703 201,-703"/>
<text text-anchor="start" x="206" y="-712.2" font-family="Helvetica,sans-Serif" font-weight="bold" font-size="11.00">artefact_group_member</text>
<text text-anchor="start" x="457" y="-711.2" font-family="Helvetica,sans-Serif" font-size="11.00">[table]</text>
<polygon fill="none" stroke="black" points="201,-681 201,-703 402,-703 402,-681 201,-681"/>
<image xlink:href="../../images/primaryKeys.png" width="11px" height="12px" preserveAspectRatio="xMinYMin meet" x="206" y="-698"/>
<text text-anchor="start" x="221" y="-689.2" font-family="Helvetica,sans-Serif" font-size="11.00">artefact_group_member_id</text>
<polygon fill="none" stroke="black" points="402,-681 402,-703 499,-703 499,-681 402,-681"/>
<text text-anchor="start" x="405" y="-689.2" font-family="Helvetica,sans-Serif" font-size="11.00">int unsigned[10]</text>
<polygon fill="#ffffff" stroke="transparent" points="201,-659 201,-681 402,-681 402,-659 201,-659"/>
<polygon fill="none" stroke="black" points="201,-659 201,-681 402,-681 402,-659 201,-659"/>
<image xlink:href="../../images/foreignKeys.png" width="11px" height="12px" preserveAspectRatio="xMinYMin meet" x="206" y="-676"/>
<text text-anchor="start" x="221" y="-667.2" font-family="Helvetica,sans-Serif" font-size="11.00">artefact_group_id</text>
<polygon fill="none" stroke="black" points="402,-659 402,-681 499,-681 499,-659 402,-659"/>
<text text-anchor="start" x="405" y="-667.2" font-family="Helvetica,sans-Serif" font-size="11.00">int unsigned[10]</text>
<polygon fill="#ffffff" stroke="transparent" points="201,-637 201,-659 402,-659 402,-637 201,-637"/>
<polygon fill="none" stroke="black" points="201,-637 201,-659 402,-659 402,-637 201,-637"/>
<image xlink:href="../../images/foreignKeys.png" width="11px" height="12px" preserveAspectRatio="xMinYMin meet" x="206" y="-654"/>
<text text-anchor="start" x="221" y="-645.2" font-family="Helvetica,sans-Serif" font-size="11.00">artefact_id</text>
<polygon fill="none" stroke="black" points="402,-637 402,-659 499,-659 499,-637 402,-637"/>
<text text-anchor="start" x="405" y="-645.2" font-family="Helvetica,sans-Serif" font-size="11.00">int unsigned[10]</text>
<polygon fill="#ffffff" stroke="transparent" points="201,-619 201,-637 293,-637 293,-619 201,-619"/>
<polygon fill="none" stroke="black" points="201,-619 201,-637 293,-637 293,-619 201,-619"/>
<text text-anchor="start" x="204" y="-625.2" font-family="Helvetica,sans-Serif" font-size="11.00">&lt; 2</text>
<polygon fill="#ffffff" stroke="transparent" points="293,-619 293,-637 402,-637 402,-619 293,-619"/>
<polygon fill="none" stroke="black" points="293,-619 293,-637 402,-637 402,-619 293,-619"/>
<text text-anchor="start" x="362" y="-625.2" font-family="Helvetica,sans-Serif" font-size="11.00">0 rows</text>
<polygon fill="#ffffff" stroke="transparent" points="402,-619 402,-637 499,-637 499,-619 402,-619"/>
<polygon fill="none" stroke="black" points="402,-619 402,-637 499,-637 499,-619 402,-619"/>
<text text-anchor="start" x="476" y="-625.2" font-family="Helvetica,sans-Serif" font-size="11.00">1 &gt;</text>
<polygon fill="none" stroke="black" stroke-width="2" points="200,-618 200,-726 500,-726 500,-618 200,-618"/>
</a>
</g>
</g>
<!-- artefact_group_member&#45;&gt;artefact -->
<g id="edge4" class="edge">
<title>artefact_group_member:w&#45;&gt;artefact:e</title>
<path fill="none" stroke="black" d="M185.57,-646.56C88.02,-624.98 259.2,-368 137,-368"/>
<polygon fill="black" stroke="black" points="192.04,-647.21 199.64,-651.58 196.02,-647.6 200,-648 200,-648 200,-648 196.02,-647.6 200.36,-644.42 192.04,-647.21 192.04,-647.21"/>
<ellipse fill="none" stroke="black" cx="188.86" cy="-646.89" rx="3.2" ry="3.2"/>
</g>
<!-- artefact_group_member&#45;&gt;artefact_group -->
<g id="edge3" class="edge">
<title>artefact_group_member:w&#45;&gt;artefact_group:e</title>
<path fill="none" stroke="black" d="M186.41,-674.8C172.06,-687.67 176.8,-722 151,-722"/>
<polygon fill="black" stroke="black" points="192.46,-672.66 201.2,-673.39 196.23,-671.33 200,-670 200,-670 200,-670 196.23,-671.33 198.8,-666.61 192.46,-672.66 192.46,-672.66"/>
<ellipse fill="none" stroke="black" cx="189.44" cy="-673.73" rx="3.2" ry="3.2"/>
</g>
<!-- artefact_group_member_owner -->
<g id="node6" class="node">
<title>artefact_group_member_owner</title>
<g id="a_node6"><a xlink:href="../../tables/artefact_group_member_owner.html" xlink:title="artefact_group_member_owner" target="_top">
<polygon fill="#ffffff" stroke="transparent" points="550,-68 550,-174 791,-174 791,-68 550,-68"/>
<polygon fill="#f5f5f5" stroke="transparent" points="550.5,-152 550.5,-174 791.5,-174 791.5,-152 550.5,-152"/>
<polygon fill="none" stroke="black" points="550.5,-152 550.5,-174 791.5,-174 791.5,-152 550.5,-152"/>
<text text-anchor="start" x="555.5" y="-161.2" font-family="Helvetica,sans-Serif" font-weight="bold" font-size="11.00">artefact_group_member_owner</text>
<text text-anchor="start" x="749.5" y="-160.2" font-family="Helvetica,sans-Serif" font-size="11.00">[table]</text>
<polygon fill="none" stroke="black" points="550.5,-130 550.5,-152 791.5,-152 791.5,-130 550.5,-130"/>
<image xlink:href="../../images/primaryKeys.png" width="11px" height="12px" preserveAspectRatio="xMinYMin meet" x="555.5" y="-147"/>
<text text-anchor="start" x="576.5" y="-138.2" font-family="Helvetica,sans-Serif" font-size="11.00">artefact_group_member_id</text>
<polygon fill="none" stroke="black" points="550.5,-108 550.5,-130 791.5,-130 791.5,-108 550.5,-108"/>
<image xlink:href="../../images/primaryKeys.png" width="11px" height="12px" preserveAspectRatio="xMinYMin meet" x="555.5" y="-125"/>
<text text-anchor="start" x="576.5" y="-116.2" font-family="Helvetica,sans-Serif" font-size="11.00">edition_id</text>
<polygon fill="#ffffff" stroke="transparent" points="550.5,-86 550.5,-108 791.5,-108 791.5,-86 550.5,-86"/>
<polygon fill="none" stroke="black" points="550.5,-86 550.5,-108 791.5,-108 791.5,-86 550.5,-86"/>
<image xlink:href="../../images/foreignKeys.png" width="11px" height="12px" preserveAspectRatio="xMinYMin meet" x="555.5" y="-103"/>
<text text-anchor="start" x="576.5" y="-94.2" font-family="Helvetica,sans-Serif" font-size="11.00">edition_editor_id</text>
<polygon fill="#ffffff" stroke="transparent" points="550.5,-68 550.5,-86 655.5,-86 655.5,-68 550.5,-68"/>
<polygon fill="none" stroke="black" points="550.5,-68 550.5,-86 655.5,-86 655.5,-68 550.5,-68"/>
<text text-anchor="start" x="553.5" y="-74.2" font-family="Helvetica,sans-Serif" font-size="11.00">&lt; 3</text>
<polygon fill="#ffffff" stroke="transparent" points="655.5,-68 655.5,-86 737.5,-86 737.5,-68 655.5,-68"/>
<polygon fill="none" stroke="black" points="655.5,-68 655.5,-86 737.5,-86 737.5,-68 655.5,-68"/>
<text text-anchor="start" x="697.5" y="-74.2" font-family="Helvetica,sans-Serif" font-size="11.00">0 rows</text>
<polygon fill="#ffffff" stroke="transparent" points="737.5,-68 737.5,-86 791.5,-86 791.5,-68 737.5,-68"/>
<polygon fill="none" stroke="black" points="737.5,-68 737.5,-86 791.5,-86 791.5,-68 737.5,-68"/>
<text text-anchor="start" x="780.5" y="-74.2" font-family="Helvetica,sans-Serif" font-size="11.00"> &#160;</text>
</a>
</g>
</g>
<!-- artefact_group_member_owner&#45;&gt;artefact_group_member -->
<g id="edge5" class="edge">
<title>artefact_group_member_owner:w&#45;&gt;artefact_group_member:e</title>
<path fill="none" stroke="black" d="M537.93,-149.65C498.19,-219.75 556.91,-692 500,-692"/>
<polygon fill="black" stroke="black" points="543.09,-145.79 551.66,-143.88 546.3,-143.4 549.5,-141 549.5,-141 549.5,-141 546.3,-143.4 547.34,-138.12 543.09,-145.79 543.09,-145.79"/>
<ellipse fill="none" stroke="black" cx="540.53" cy="-147.71" rx="3.2" ry="3.2"/>
</g>
<!-- edition_editor -->
<g id="node7" class="node">
<title>edition_editor</title>
<g id="a_node7"><a xlink:href="../../tables/edition_editor.html" xlink:title="edition_editor" target="_top">
<polygon fill="#ffffff" stroke="transparent" points="282,-37 282,-95 418,-95 418,-37 282,-37"/>
<polygon fill="#f5f5f5" stroke="transparent" points="282,-73 282,-95 418,-95 418,-73 282,-73"/>
<polygon fill="none" stroke="black" points="282,-73 282,-95 418,-95 418,-73 282,-73"/>
<text text-anchor="start" x="287" y="-82.2" font-family="Helvetica,sans-Serif" font-weight="bold" font-size="11.00">edition_editor</text>
<text text-anchor="start" x="376" y="-81.2" font-family="Helvetica,sans-Serif" font-size="11.00">[table]</text>
<polygon fill="none" stroke="black" points="282,-55 282,-73 418,-73 418,-55 282,-55"/>
<text text-anchor="start" x="285" y="-61.2" font-family="Helvetica,sans-Serif" font-size="11.00">...</text>
<polygon fill="#ffffff" stroke="transparent" points="282,-37 282,-55 313,-55 313,-37 282,-37"/>
<polygon fill="none" stroke="black" points="282,-37 282,-55 313,-55 313,-37 282,-37"/>
<text text-anchor="start" x="285" y="-43.2" font-family="Helvetica,sans-Serif" font-size="11.00">&lt; 2</text>
<polygon fill="#ffffff" stroke="transparent" points="313,-37 313,-55 382,-55 382,-37 313,-37"/>
<polygon fill="none" stroke="black" points="313,-37 313,-55 382,-55 382,-37 313,-37"/>
<text text-anchor="start" x="318" y="-43.2" font-family="Helvetica,sans-Serif" font-size="11.00">1,645 rows</text>
<polygon fill="#ffffff" stroke="transparent" points="382,-37 382,-55 418,-55 418,-37 382,-37"/>
<polygon fill="none" stroke="black" points="382,-37 382,-55 418,-55 418,-37 382,-37"/>
<text text-anchor="start" x="388" y="-43.2" font-family="Helvetica,sans-Serif" font-size="11.00">33 &gt;</text>
</a>
</g>
</g>
<!-- artefact_group_member_owner&#45;&gt;edition_editor -->
<g id="edge6" class="edge">
<title>artefact_group_member_owner:w&#45;&gt;edition_editor:e</title>
<path fill="none" stroke="black" d="M535.1,-96.31C487.45,-91.57 473.68,-64 419,-64"/>
<polygon fill="black" stroke="black" points="541.51,-96.62 549.33,-100.6 545.5,-96.81 549.5,-97 549.5,-97 549.5,-97 545.5,-96.81 549.67,-93.4 541.51,-96.62 541.51,-96.62"/>
<ellipse fill="none" stroke="black" cx="538.31" cy="-96.46" rx="3.2" ry="3.2"/>
</g>
<!-- edition -->
<g id="node8" class="node">
<title>edition</title>
<g id="a_node8"><a xlink:href="../../tables/edition.html" xlink:title="edition" target="_top">
<polygon fill="#ffffff" stroke="transparent" points="16,-64 16,-122 142,-122 142,-64 16,-64"/>
<polygon fill="#f5f5f5" stroke="transparent" points="16,-100 16,-122 142,-122 142,-100 16,-100"/>
<polygon fill="none" stroke="black" points="16,-100 16,-122 142,-122 142,-100 16,-100"/>
<text text-anchor="start" x="21" y="-109.2" font-family="Helvetica,sans-Serif" font-weight="bold" font-size="11.00">edition</text>
<text text-anchor="start" x="100" y="-108.2" font-family="Helvetica,sans-Serif" font-size="11.00">[table]</text>
<polygon fill="none" stroke="black" points="16,-82 16,-100 142,-100 142,-82 16,-82"/>
<text text-anchor="start" x="19" y="-88.2" font-family="Helvetica,sans-Serif" font-size="11.00">...</text>
<polygon fill="#ffffff" stroke="transparent" points="16,-64 16,-82 42,-82 42,-64 16,-64"/>
<polygon fill="none" stroke="black" points="16,-64 16,-82 42,-82 42,-64 16,-64"/>
<text text-anchor="start" x="19" y="-70.2" font-family="Helvetica,sans-Serif" font-size="11.00">&lt; 1</text>
<polygon fill="#ffffff" stroke="transparent" points="42,-64 42,-82 109,-82 109,-64 42,-64"/>
<polygon fill="none" stroke="black" points="42,-64 42,-82 109,-82 109,-64 42,-64"/>
<text text-anchor="start" x="45" y="-70.2" font-family="Helvetica,sans-Serif" font-size="11.00">1,645 rows</text>
<polygon fill="#ffffff" stroke="transparent" points="109,-64 109,-82 142,-82 142,-64 109,-64"/>
<polygon fill="none" stroke="black" points="109,-64 109,-82 142,-82 142,-64 109,-64"/>
<text text-anchor="start" x="112" y="-70.2" font-family="Helvetica,sans-Serif" font-size="11.00">35 &gt;</text>
</a>
</g>
</g>
<!-- artefact_group_member_owner&#45;&gt;edition -->
<g id="edge7" class="edge">
<title>artefact_group_member_owner:w&#45;&gt;edition:e</title>
<path fill="none" stroke="black" d="M534.89,-119.03C387.33,-119.69 343.46,-129.83 191,-105 169.07,-101.43 165.22,-91 143,-91"/>
<polygon fill="black" stroke="black" points="541.5,-119.02 549.51,-122.6 545.5,-119.01 549.5,-119 549.5,-119 549.5,-119 545.5,-119.01 549.49,-115.4 541.5,-119.02 541.5,-119.02"/>
<ellipse fill="none" stroke="black" cx="538.3" cy="-119.03" rx="3.2" ry="3.2"/>
</g>
<!-- edition_editor&#45;&gt;edition -->
<g id="edge13" class="edge">
<title>edition_editor:w&#45;&gt;edition:e</title>
<path fill="none" stroke="black" d="M266.56,-64.52C216.04,-68.25 200.37,-91 143,-91"/>
<polygon fill="black" stroke="black" points="273.01,-64.29 281.13,-67.6 277,-64.14 281,-64 281,-64 281,-64 277,-64.14 280.87,-60.4 273.01,-64.29 273.01,-64.29"/>
<ellipse fill="none" stroke="black" cx="269.81" cy="-64.4" rx="3.2" ry="3.2"/>
</g>
<!-- artefact_position -->
<g id="node9" class="node">
<title>artefact_position</title>
<g id="a_node9"><a xlink:href="../../tables/artefact_position.html" xlink:title="artefact_position" target="_top">
<polygon fill="#ffffff" stroke="transparent" points="272,-459 272,-517 428,-517 428,-459 272,-459"/>
<polygon fill="#f5f5f5" stroke="transparent" points="272,-495 272,-517 428,-517 428,-495 272,-495"/>
<polygon fill="none" stroke="black" points="272,-495 272,-517 428,-517 428,-495 272,-495"/>
<text text-anchor="start" x="277" y="-504.2" font-family="Helvetica,sans-Serif" font-weight="bold" font-size="11.00">artefact_position</text>
<text text-anchor="start" x="386" y="-503.2" font-family="Helvetica,sans-Serif" font-size="11.00">[table]</text>
<polygon fill="none" stroke="black" points="272,-477 272,-495 428,-495 428,-477 272,-477"/>
<text text-anchor="start" x="275" y="-483.2" font-family="Helvetica,sans-Serif" font-size="11.00">...</text>
<polygon fill="#ffffff" stroke="transparent" points="272,-459 272,-477 328,-477 328,-459 272,-459"/>
<polygon fill="none" stroke="black" points="272,-459 272,-477 328,-477 328,-459 272,-459"/>
<text text-anchor="start" x="275" y="-465.2" font-family="Helvetica,sans-Serif" font-size="11.00">&lt; 1</text>
<polygon fill="#ffffff" stroke="transparent" points="328,-459 328,-477 386,-477 386,-459 328,-459"/>
<polygon fill="none" stroke="black" points="328,-459 328,-477 386,-477 386,-459 328,-459"/>
<text text-anchor="start" x="346" y="-465.2" font-family="Helvetica,sans-Serif" font-size="11.00">0 rows</text>
<polygon fill="#ffffff" stroke="transparent" points="386,-459 386,-477 428,-477 428,-459 386,-459"/>
<polygon fill="none" stroke="black" points="386,-459 386,-477 428,-477 428,-459 386,-459"/>
<text text-anchor="start" x="405" y="-465.2" font-family="Helvetica,sans-Serif" font-size="11.00">1 &gt;</text>
</a>
</g>
</g>
<!-- artefact_position&#45;&gt;artefact -->
<g id="edge8" class="edge">
<title>artefact_position:w&#45;&gt;artefact:e</title>
<path fill="none" stroke="black" d="M256.39,-485.35C228.45,-482.59 216.69,-470.99 191,-449 158.13,-420.86 180.27,-368 137,-368"/>
<polygon fill="black" stroke="black" points="263.01,-485.64 270.84,-489.6 267,-485.82 271,-486 271,-486 271,-486 267,-485.82 271.16,-482.4 263.01,-485.64 263.01,-485.64"/>
<ellipse fill="none" stroke="black" cx="259.81" cy="-485.5" rx="3.2" ry="3.2"/>
</g>
<!-- artefact_shape -->
<g id="node10" class="node">
<title>artefact_shape</title>
<g id="a_node10"><a xlink:href="../../tables/artefact_shape.html" xlink:title="artefact_shape" target="_top">
<polygon fill="#ffffff" stroke="transparent" points="278.5,-380 278.5,-438 421.5,-438 421.5,-380 278.5,-380"/>
<polygon fill="#f5f5f5" stroke="transparent" points="279,-416 279,-438 422,-438 422,-416 279,-416"/>
<polygon fill="none" stroke="black" points="279,-416 279,-438 422,-438 422,-416 279,-416"/>
<text text-anchor="start" x="284" y="-425.2" font-family="Helvetica,sans-Serif" font-weight="bold" font-size="11.00">artefact_shape</text>
<text text-anchor="start" x="380" y="-424.2" font-family="Helvetica,sans-Serif" font-size="11.00">[table]</text>
<polygon fill="none" stroke="black" points="279,-398 279,-416 422,-416 422,-398 279,-398"/>
<text text-anchor="start" x="282" y="-404.2" font-family="Helvetica,sans-Serif" font-size="11.00">...</text>
<polygon fill="#ffffff" stroke="transparent" points="279,-380 279,-398 313,-398 313,-380 279,-380"/>
<polygon fill="none" stroke="black" points="279,-380 279,-398 313,-398 313,-380 279,-380"/>
<text text-anchor="start" x="282" y="-386.2" font-family="Helvetica,sans-Serif" font-size="11.00">&lt; 2</text>
<polygon fill="#ffffff" stroke="transparent" points="313,-380 313,-398 391,-398 391,-380 313,-380"/>
<polygon fill="none" stroke="black" points="313,-380 313,-398 391,-398 391,-380 313,-380"/>
<text text-anchor="start" x="320" y="-386.2" font-family="Helvetica,sans-Serif" font-size="11.00">27,685 rows</text>
<polygon fill="#ffffff" stroke="transparent" points="391,-380 391,-398 422,-398 422,-380 391,-380"/>
<polygon fill="none" stroke="black" points="391,-380 391,-398 422,-398 422,-380 391,-380"/>
<text text-anchor="start" x="399" y="-386.2" font-family="Helvetica,sans-Serif" font-size="11.00">1 &gt;</text>
</a>
</g>
</g>
<!-- artefact_shape&#45;&gt;artefact -->
<g id="edge9" class="edge">
<title>artefact_shape:w&#45;&gt;artefact:e</title>
<path fill="none" stroke="black" d="M263.36,-406.29C210.88,-401 196.81,-368 137,-368"/>
<polygon fill="black" stroke="black" points="270.01,-406.61 277.83,-410.6 274,-406.81 278,-407 278,-407 278,-407 274,-406.81 278.17,-403.4 270.01,-406.61 270.01,-406.61"/>
<ellipse fill="none" stroke="black" cx="266.81" cy="-406.46" rx="3.2" ry="3.2"/>
</g>
<!-- artefact_stack -->
<g id="node11" class="node">
<title>artefact_stack</title>
<g id="a_node11"><a xlink:href="../../tables/artefact_stack.html" xlink:title="artefact_stack" target="_top">
<polygon fill="#ffffff" stroke="transparent" points="280,-301 280,-359 420,-359 420,-301 280,-301"/>
<polygon fill="#f5f5f5" stroke="transparent" points="280,-337 280,-359 420,-359 420,-337 280,-337"/>
<polygon fill="none" stroke="black" points="280,-337 280,-359 420,-359 420,-337 280,-337"/>
<text text-anchor="start" x="285" y="-346.2" font-family="Helvetica,sans-Serif" font-weight="bold" font-size="11.00">artefact_stack</text>
<text text-anchor="start" x="378" y="-345.2" font-family="Helvetica,sans-Serif" font-size="11.00">[table]</text>
<polygon fill="none" stroke="black" points="280,-319 280,-337 420,-337 420,-319 280,-319"/>
<text text-anchor="start" x="283" y="-325.2" font-family="Helvetica,sans-Serif" font-size="11.00">...</text>
<polygon fill="#ffffff" stroke="transparent" points="280,-301 280,-319 313,-319 313,-301 280,-301"/>
<polygon fill="none" stroke="black" points="280,-301 280,-319 313,-319 313,-301 280,-301"/>
<text text-anchor="start" x="283" y="-307.2" font-family="Helvetica,sans-Serif" font-size="11.00">&lt; 2</text>
<polygon fill="#ffffff" stroke="transparent" points="313,-301 313,-319 390,-319 390,-301 313,-301"/>
<polygon fill="none" stroke="black" points="313,-301 313,-319 390,-319 390,-301 313,-301"/>
<text text-anchor="start" x="319" y="-307.2" font-family="Helvetica,sans-Serif" font-size="11.00">22,748 rows</text>
<polygon fill="#ffffff" stroke="transparent" points="390,-301 390,-319 420,-319 420,-301 390,-301"/>
<polygon fill="none" stroke="black" points="390,-301 390,-319 420,-319 420,-301 390,-301"/>
<text text-anchor="start" x="397" y="-307.2" font-family="Helvetica,sans-Serif" font-size="11.00">1 &gt;</text>
</a>
</g>
</g>
<!-- artefact_stack&#45;&gt;artefact -->
<g id="edge10" class="edge">
<title>artefact_stack:w&#45;&gt;artefact:e</title>
<path fill="none" stroke="black" d="M264.58,-327.4C211.4,-328.04 197.44,-362.47 137,-368"/>
<polygon fill="black" stroke="black" points="271.01,-327.67 278.85,-331.6 275,-327.83 279,-328 279,-328 279,-328 275,-327.83 279.15,-324.4 271.01,-327.67 271.01,-327.67"/>
<ellipse fill="none" stroke="black" cx="267.81" cy="-327.53" rx="3.2" ry="3.2"/>
</g>
<!-- artefact_stack&#45;&gt;artefact -->
<g id="edge11" class="edge">
<title>artefact_stack:w&#45;&gt;artefact:e</title>
<path fill="none" stroke="black" d="M264.58,-330.21C211.4,-340.96 197.44,-374.45 137,-368"/>
<polygon fill="black" stroke="black" points="271.09,-329.21 279.54,-331.56 275.05,-328.61 279,-328 279,-328 279,-328 275.05,-328.61 278.46,-324.44 271.09,-329.21 271.09,-329.21"/>
<ellipse fill="none" stroke="black" cx="267.93" cy="-329.69" rx="3.2" ry="3.2"/>
</g>
<!-- artefact_status -->
<g id="node12" class="node">
<title>artefact_status</title>
<g id="a_node12"><a xlink:href="../../tables/artefact_status.html" xlink:title="artefact_status" target="_top">
<polygon fill="#ffffff" stroke="transparent" points="277.5,-222 277.5,-280 422.5,-280 422.5,-222 277.5,-222"/>
<polygon fill="#f5f5f5" stroke="transparent" points="278,-258 278,-280 423,-280 423,-258 278,-258"/>
<polygon fill="none" stroke="black" points="278,-258 278,-280 423,-280 423,-258 278,-258"/>
<text text-anchor="start" x="283" y="-267.2" font-family="Helvetica,sans-Serif" font-weight="bold" font-size="11.00">artefact_status</text>
<text text-anchor="start" x="381" y="-266.2" font-family="Helvetica,sans-Serif" font-size="11.00">[table]</text>
<polygon fill="none" stroke="black" points="278,-240 278,-258 423,-258 423,-240 278,-240"/>
<text text-anchor="start" x="281" y="-246.2" font-family="Helvetica,sans-Serif" font-size="11.00">...</text>
<polygon fill="#ffffff" stroke="transparent" points="278,-222 278,-240 329,-240 329,-222 278,-222"/>
<polygon fill="none" stroke="black" points="278,-222 278,-240 329,-240 329,-222 278,-222"/>
<text text-anchor="start" x="281" y="-228.2" font-family="Helvetica,sans-Serif" font-size="11.00">&lt; 2</text>
<polygon fill="#ffffff" stroke="transparent" points="329,-222 329,-240 384,-240 384,-222 329,-222"/>
<polygon fill="none" stroke="black" points="329,-222 329,-240 384,-240 384,-222 329,-222"/>
<text text-anchor="start" x="344" y="-228.2" font-family="Helvetica,sans-Serif" font-size="11.00">0 rows</text>
<polygon fill="#ffffff" stroke="transparent" points="384,-222 384,-240 423,-240 423,-222 384,-222"/>
<polygon fill="none" stroke="black" points="384,-222 384,-240 423,-240 423,-222 384,-222"/>
<text text-anchor="start" x="400" y="-228.2" font-family="Helvetica,sans-Serif" font-size="11.00">1 &gt;</text>
</a>
</g>
</g>
<!-- artefact_status&#45;&gt;artefact -->
<g id="edge12" class="edge">
<title>artefact_status:w&#45;&gt;artefact:e</title>
<path fill="none" stroke="black" d="M262.42,-249.67C231.35,-252.8 219.3,-266.83 191,-291 159.21,-318.14 178.8,-368 137,-368"/>
<polygon fill="black" stroke="black" points="269.01,-249.37 277.17,-252.6 273,-249.18 277,-249 277,-249 277,-249 273,-249.18 276.83,-245.4 269.01,-249.37 269.01,-249.37"/>
<ellipse fill="none" stroke="black" cx="265.81" cy="-249.52" rx="3.2" ry="3.2"/>
</g>
<!-- roi_position -->
<g id="node13" class="node">
<title>roi_position</title>
<g id="a_node13"><a xlink:href="../../tables/roi_position.html" xlink:title="roi_position" target="_top">
<polygon fill="#ffffff" stroke="transparent" points="288.5,-143 288.5,-201 411.5,-201 411.5,-143 288.5,-143"/>
<polygon fill="#f5f5f5" stroke="transparent" points="289,-179 289,-201 412,-201 412,-179 289,-179"/>
<polygon fill="none" stroke="black" points="289,-179 289,-201 412,-201 412,-179 289,-179"/>
<text text-anchor="start" x="294" y="-188.2" font-family="Helvetica,sans-Serif" font-weight="bold" font-size="11.00">roi_position</text>
<text text-anchor="start" x="370" y="-187.2" font-family="Helvetica,sans-Serif" font-size="11.00">[table]</text>
<polygon fill="none" stroke="black" points="289,-161 289,-179 412,-179 412,-161 289,-161"/>
<text text-anchor="start" x="292" y="-167.2" font-family="Helvetica,sans-Serif" font-size="11.00">...</text>
<polygon fill="#ffffff" stroke="transparent" points="289,-143 289,-161 329,-161 329,-143 289,-143"/>
<polygon fill="none" stroke="black" points="289,-143 289,-161 329,-161 329,-143 289,-143"/>
<text text-anchor="start" x="292" y="-149.2" font-family="Helvetica,sans-Serif" font-size="11.00">&lt; 1</text>
<polygon fill="#ffffff" stroke="transparent" points="329,-143 329,-161 379,-161 379,-143 329,-143"/>
<polygon fill="none" stroke="black" points="329,-143 329,-161 379,-161 379,-143 329,-143"/>
<text text-anchor="start" x="339" y="-149.2" font-family="Helvetica,sans-Serif" font-size="11.00">0 rows</text>
<polygon fill="#ffffff" stroke="transparent" points="379,-143 379,-161 412,-161 412,-143 379,-143"/>
<polygon fill="none" stroke="black" points="379,-143 379,-161 412,-161 412,-143 379,-143"/>
<text text-anchor="start" x="389" y="-149.2" font-family="Helvetica,sans-Serif" font-size="11.00">1 &gt;</text>
</a>
</g>
</g>
<!-- roi_position&#45;&gt;artefact -->
<g id="edge14" class="edge">
<title>roi_position:w&#45;&gt;artefact:e</title>
<path fill="none" stroke="black" d="M273.57,-170.3C236.9,-171.97 219.45,-181.32 191,-212 141.11,-265.8 210.37,-368 137,-368"/>
<polygon fill="black" stroke="black" points="280,-170.16 288.07,-173.6 284,-170.08 288,-170 288,-170 288,-170 284,-170.08 287.93,-166.4 280,-170.16 280,-170.16"/>
<ellipse fill="none" stroke="black" cx="276.8" cy="-170.23" rx="3.2" ry="3.2"/>
</g>
</g>
</svg>
