<?xml version="1.0" encoding="UTF-8" standalone="no"?>
<!DOCTYPE svg PUBLIC "-//W3C//DTD SVG 1.1//EN"
 "http://www.w3.org/Graphics/SVG/1.1/DTD/svg11.dtd">
<!-- Generated by graphviz version 2.43.0 (0)
 -->
<!-- Title: twoDegreesRelationshipsDiagram Pages: 1 -->
<svg width="738pt" height="870pt"
 viewBox="0.00 0.00 738.00 870.00" xmlns="http://www.w3.org/2000/svg" xmlns:xlink="http://www.w3.org/1999/xlink">
<g id="graph0" class="graph" transform="scale(1 1) rotate(0) translate(4 866)">
<title>twoDegreesRelationshipsDiagram</title>
<polygon fill="#ffffff" stroke="transparent" points="-4,4 -4,-866 734,-866 734,4 -4,4"/>
<text text-anchor="middle" x="79.5" y="-7.2" font-family="Helvetica,sans-Serif" font-size="11.00">Generated by SchemaSpy</text>
<!-- artefact_data -->
<g id="node1" class="node">
<title>artefact_data</title>
<g id="a_node1"><a xlink:href="../../tables/artefact_data.html" xlink:title="artefact_data" target="_top">
<polygon fill="#ffffff" stroke="transparent" points="261.5,-800 261.5,-858 395.5,-858 395.5,-800 261.5,-800"/>
<polygon fill="#f5f5f5" stroke="transparent" points="261.5,-836 261.5,-858 395.5,-858 395.5,-836 261.5,-836"/>
<polygon fill="none" stroke="black" points="261.5,-836 261.5,-858 395.5,-858 395.5,-836 261.5,-836"/>
<text text-anchor="start" x="266.5" y="-845.2" font-family="Helvetica,sans-Serif" font-weight="bold" font-size="11.00">artefact_data</text>
<text text-anchor="start" x="353.5" y="-844.2" font-family="Helvetica,sans-Serif" font-size="11.00">[table]</text>
<polygon fill="none" stroke="black" points="261.5,-818 261.5,-836 395.5,-836 395.5,-818 261.5,-818"/>
<text text-anchor="start" x="264.5" y="-824.2" font-family="Helvetica,sans-Serif" font-size="11.00">...</text>
<polygon fill="#ffffff" stroke="transparent" points="261.5,-800 261.5,-818 291.5,-818 291.5,-800 261.5,-800"/>
<polygon fill="none" stroke="black" points="261.5,-800 261.5,-818 291.5,-818 291.5,-800 261.5,-800"/>
<text text-anchor="start" x="264.5" y="-806.2" font-family="Helvetica,sans-Serif" font-size="11.00">&lt; 1</text>
<polygon fill="#ffffff" stroke="transparent" points="291.5,-800 291.5,-818 367.5,-818 367.5,-800 291.5,-800"/>
<polygon fill="none" stroke="black" points="291.5,-800 291.5,-818 367.5,-818 367.5,-800 291.5,-800"/>
<text text-anchor="start" x="296.5" y="-806.2" font-family="Helvetica,sans-Serif" font-size="11.00">26,649 rows</text>
<polygon fill="#ffffff" stroke="transparent" points="367.5,-800 367.5,-818 395.5,-818 395.5,-800 367.5,-800"/>
<polygon fill="none" stroke="black" points="367.5,-800 367.5,-818 395.5,-818 395.5,-800 367.5,-800"/>
<text text-anchor="start" x="372.5" y="-806.2" font-family="Helvetica,sans-Serif" font-size="11.00">1 &gt;</text>
</a>
</g>
</g>
<!-- artefact -->
<g id="node2" class="node">
<title>artefact</title>
<g id="a_node2"><a xlink:href="../../tables/artefact.html" xlink:title="artefact" target="_top">
<polygon fill="#ffffff" stroke="transparent" points="14,-337 14,-399 128,-399 128,-337 14,-337"/>
<polygon fill="#f5f5f5" stroke="transparent" points="14,-377 14,-399 128,-399 128,-377 14,-377"/>
<polygon fill="none" stroke="black" points="14,-377 14,-399 128,-399 128,-377 14,-377"/>
<text text-anchor="start" x="19" y="-386.2" font-family="Helvetica,sans-Serif" font-weight="bold" font-size="11.00">artefact</text>
<text text-anchor="start" x="86" y="-385.2" font-family="Helvetica,sans-Serif" font-size="11.00">[table]</text>
<polygon fill="none" stroke="black" points="14,-355 14,-377 128,-377 128,-355 14,-355"/>
<image xlink:href="../../images/primaryKeys.png" width="11px" height="12px" preserveAspectRatio="xMinYMin meet" x="19" y="-372"/>
<text text-anchor="start" x="45" y="-363.2" font-family="Helvetica,sans-Serif" font-size="11.00">artefact_id</text>
<polygon fill="#ffffff" stroke="transparent" points="14,-337 14,-355 28,-355 28,-337 14,-337"/>
<polygon fill="none" stroke="black" points="14,-337 14,-355 28,-355 28,-337 14,-337"/>
<text text-anchor="start" x="17" y="-343.2" font-family="Helvetica,sans-Serif" font-size="11.00"> &#160;</text>
<polygon fill="#ffffff" stroke="transparent" points="28,-337 28,-355 102,-355 102,-337 28,-337"/>
<polygon fill="none" stroke="black" points="28,-337 28,-355 102,-355 102,-337 28,-337"/>
<text text-anchor="start" x="31" y="-343.2" font-family="Helvetica,sans-Serif" font-size="11.00">26,982 rows</text>
<polygon fill="#ffffff" stroke="transparent" points="102,-337 102,-355 128,-355 128,-337 102,-337"/>
<polygon fill="none" stroke="black" points="102,-337 102,-355 128,-355 128,-337 102,-337"/>
<text text-anchor="start" x="105" y="-343.2" font-family="Helvetica,sans-Serif" font-size="11.00">8 &gt;</text>
</a>
</g>
</g>
<!-- artefact_data&#45;&gt;artefact -->
<g id="edge1" class="edge">
<title>artefact_data:w&#45;&gt;artefact:e</title>
<path fill="none" stroke="black" d="M245.95,-826.78C214.13,-825.62 196.5,-819.16 175,-790 118.76,-713.71 223.78,-366 129,-366"/>
<polygon fill="black" stroke="black" points="252.5,-826.88 260.44,-830.6 256.5,-826.94 260.5,-827 260.5,-827 260.5,-827 256.5,-826.94 260.56,-823.4 252.5,-826.88 252.5,-826.88"/>
<ellipse fill="none" stroke="black" cx="249.3" cy="-826.83" rx="3.2" ry="3.2"/>
</g>
<!-- artefact_group_member -->
<g id="node3" class="node">
<title>artefact_group_member</title>
<g id="a_node3"><a xlink:href="../../tables/artefact_group_member.html" xlink:title="artefact_group_member" target="_top">
<polygon fill="#ffffff" stroke="transparent" points="230,-721 230,-779 427,-779 427,-721 230,-721"/>
<polygon fill="#f5f5f5" stroke="transparent" points="230.5,-757 230.5,-779 427.5,-779 427.5,-757 230.5,-757"/>
<polygon fill="none" stroke="black" points="230.5,-757 230.5,-779 427.5,-779 427.5,-757 230.5,-757"/>
<text text-anchor="start" x="235.5" y="-766.2" font-family="Helvetica,sans-Serif" font-weight="bold" font-size="11.00">artefact_group_member</text>
<text text-anchor="start" x="385.5" y="-765.2" font-family="Helvetica,sans-Serif" font-size="11.00">[table]</text>
<polygon fill="none" stroke="black" points="230.5,-739 230.5,-757 427.5,-757 427.5,-739 230.5,-739"/>
<text text-anchor="start" x="233.5" y="-745.2" font-family="Helvetica,sans-Serif" font-size="11.00">...</text>
<polygon fill="#ffffff" stroke="transparent" points="230.5,-721 230.5,-739 307.5,-739 307.5,-721 230.5,-721"/>
<polygon fill="none" stroke="black" points="230.5,-721 230.5,-739 307.5,-739 307.5,-721 230.5,-721"/>
<text text-anchor="start" x="233.5" y="-727.2" font-family="Helvetica,sans-Serif" font-size="11.00">&lt; 2</text>
<polygon fill="#ffffff" stroke="transparent" points="307.5,-721 307.5,-739 375.5,-739 375.5,-721 307.5,-721"/>
<polygon fill="none" stroke="black" points="307.5,-721 307.5,-739 375.5,-739 375.5,-721 307.5,-721"/>
<text text-anchor="start" x="335.5" y="-727.2" font-family="Helvetica,sans-Serif" font-size="11.00">0 rows</text>
<polygon fill="#ffffff" stroke="transparent" points="375.5,-721 375.5,-739 427.5,-739 427.5,-721 375.5,-721"/>
<polygon fill="none" stroke="black" points="375.5,-721 375.5,-739 427.5,-739 427.5,-721 375.5,-721"/>
<text text-anchor="start" x="404.5" y="-727.2" font-family="Helvetica,sans-Serif" font-size="11.00">1 &gt;</text>
</a>
</g>
</g>
<!-- artefact_group_member&#45;&gt;artefact -->
<g id="edge2" class="edge">
<title>artefact_group_member:w&#45;&gt;artefact:e</title>
<path fill="none" stroke="black" d="M214.92,-746.72C196.34,-743.01 187.5,-731.24 175,-711 134.34,-645.2 206.35,-366 129,-366"/>
<polygon fill="black" stroke="black" points="221.53,-747.3 229.19,-751.59 225.52,-747.65 229.5,-748 229.5,-748 229.5,-748 225.52,-747.65 229.81,-744.41 221.53,-747.3 221.53,-747.3"/>
<ellipse fill="none" stroke="black" cx="218.34" cy="-747.02" rx="3.2" ry="3.2"/>
</g>
<!-- artefact_position -->
<g id="node4" class="node">
<title>artefact_position</title>
<g id="a_node4"><a xlink:href="../../tables/artefact_position.html" xlink:title="artefact_position" target="_top">
<polygon fill="#ffffff" stroke="transparent" points="183,-458 183,-700 474,-700 474,-458 183,-458"/>
<polygon fill="#f5f5f5" stroke="transparent" points="185.5,-676 185.5,-698 472.5,-698 472.5,-676 185.5,-676"/>
<polygon fill="none" stroke="black" points="185.5,-676 185.5,-698 472.5,-698 472.5,-676 185.5,-676"/>
<text text-anchor="start" x="190.5" y="-685.2" font-family="Helvetica,sans-Serif" font-weight="bold" font-size="11.00">artefact_position</text>
<text text-anchor="start" x="430.5" y="-684.2" font-family="Helvetica,sans-Serif" font-size="11.00">[table]</text>
<polygon fill="none" stroke="black" points="185.5,-654 185.5,-676 343.5,-676 343.5,-654 185.5,-654"/>
<image xlink:href="../../images/primaryKeys.png" width="11px" height="12px" preserveAspectRatio="xMinYMin meet" x="190.5" y="-671"/>
<text text-anchor="start" x="205.5" y="-662.2" font-family="Helvetica,sans-Serif" font-size="11.00">artefact_position_id</text>
<polygon fill="none" stroke="black" points="343.5,-654 343.5,-676 472.5,-676 472.5,-654 343.5,-654"/>
<text text-anchor="start" x="346.5" y="-662.2" font-family="Helvetica,sans-Serif" font-size="11.00">int unsigned[10]</text>
<polygon fill="#ffffff" stroke="transparent" points="185.5,-632 185.5,-654 343.5,-654 343.5,-632 185.5,-632"/>
<polygon fill="none" stroke="black" points="185.5,-632 185.5,-654 343.5,-654 343.5,-632 185.5,-632"/>
<image xlink:href="../../images/foreignKeys.png" width="11px" height="12px" preserveAspectRatio="xMinYMin meet" x="190.5" y="-649"/>
<text text-anchor="start" x="205.5" y="-640.2" font-family="Helvetica,sans-Serif" font-size="11.00">artefact_id</text>
<polygon fill="none" stroke="black" points="343.5,-632 343.5,-654 472.5,-654 472.5,-632 343.5,-632"/>
<text text-anchor="start" x="346.5" y="-640.2" font-family="Helvetica,sans-Serif" font-size="11.00">int unsigned[10]</text>
<polygon fill="#ffffff" stroke="transparent" points="185.5,-610 185.5,-632 343.5,-632 343.5,-610 185.5,-610"/>
<polygon fill="none" stroke="black" points="185.5,-610 185.5,-632 343.5,-632 343.5,-610 185.5,-610"/>
<text text-anchor="start" x="205.5" y="-618.2" font-family="Helvetica,sans-Serif" font-size="11.00">z_index</text>
<polygon fill="none" stroke="black" points="343.5,-610 343.5,-632 472.5,-632 472.5,-610 343.5,-610"/>
<text text-anchor="start" x="346.5" y="-618.2" font-family="Helvetica,sans-Serif" font-size="11.00">int[10]</text>
<polygon fill="#ffffff" stroke="transparent" points="185.5,-588 185.5,-610 343.5,-610 343.5,-588 185.5,-588"/>
<polygon fill="none" stroke="black" points="185.5,-588 185.5,-610 343.5,-610 343.5,-588 185.5,-588"/>
<text text-anchor="start" x="205.5" y="-596.2" font-family="Helvetica,sans-Serif" font-size="11.00">scale</text>
<polygon fill="none" stroke="black" points="343.5,-588 343.5,-610 472.5,-610 472.5,-588 343.5,-588"/>
<text text-anchor="start" x="346.5" y="-596.2" font-family="Helvetica,sans-Serif" font-size="11.00">decimal unsigned[6,4]</text>
<polygon fill="#ffffff" stroke="transparent" points="185.5,-566 185.5,-588 343.5,-588 343.5,-566 185.5,-566"/>
<polygon fill="none" stroke="black" points="185.5,-566 185.5,-588 343.5,-588 343.5,-566 185.5,-566"/>
<text text-anchor="start" x="205.5" y="-574.2" font-family="Helvetica,sans-Serif" font-size="11.00">rotate</text>
<polygon fill="none" stroke="black" points="343.5,-566 343.5,-588 472.5,-588 472.5,-566 343.5,-566"/>
<text text-anchor="start" x="346.5" y="-574.2" font-family="Helvetica,sans-Serif" font-size="11.00">decimal unsigned[6,2]</text>
<polygon fill="none" stroke="black" points="185.5,-544 185.5,-566 343.5,-566 343.5,-544 185.5,-544"/>
<text text-anchor="start" x="205.5" y="-552.2" font-family="Helvetica,sans-Serif" font-size="11.00">translate_x</text>
<polygon fill="none" stroke="black" points="343.5,-544 343.5,-566 472.5,-566 472.5,-544 343.5,-544"/>
<text text-anchor="start" x="346.5" y="-552.2" font-family="Helvetica,sans-Serif" font-size="11.00">int[10]</text>
<polygon fill="none" stroke="black" points="185.5,-522 185.5,-544 343.5,-544 343.5,-522 185.5,-522"/>
<text text-anchor="start" x="205.5" y="-530.2" font-family="Helvetica,sans-Serif" font-size="11.00">translate_y</text>
<polygon fill="none" stroke="black" points="343.5,-522 343.5,-544 472.5,-544 472.5,-522 343.5,-522"/>
<text text-anchor="start" x="346.5" y="-530.2" font-family="Helvetica,sans-Serif" font-size="11.00">int[10]</text>
<polygon fill="#ffffff" stroke="transparent" points="185.5,-500 185.5,-522 343.5,-522 343.5,-500 185.5,-500"/>
<polygon fill="none" stroke="black" points="185.5,-500 185.5,-522 343.5,-522 343.5,-500 185.5,-500"/>
<text text-anchor="start" x="205.5" y="-508.2" font-family="Helvetica,sans-Serif" font-size="11.00">translate_x_non_null</text>
<polygon fill="none" stroke="black" points="343.5,-500 343.5,-522 472.5,-522 472.5,-500 343.5,-500"/>
<text text-anchor="start" x="346.5" y="-508.2" font-family="Helvetica,sans-Serif" font-size="11.00">int[10]</text>
<polygon fill="#ffffff" stroke="transparent" points="185.5,-478 185.5,-500 343.5,-500 343.5,-478 185.5,-478"/>
<polygon fill="none" stroke="black" points="185.5,-478 185.5,-500 343.5,-500 343.5,-478 185.5,-478"/>
<text text-anchor="start" x="205.5" y="-486.2" font-family="Helvetica,sans-Serif" font-size="11.00">translate_y_non_null</text>
<polygon fill="none" stroke="black" points="343.5,-478 343.5,-500 472.5,-500 472.5,-478 343.5,-478"/>
<text text-anchor="start" x="346.5" y="-486.2" font-family="Helvetica,sans-Serif" font-size="11.00">int[10]</text>
<polygon fill="#ffffff" stroke="transparent" points="185.5,-460 185.5,-478 255.5,-478 255.5,-460 185.5,-460"/>
<polygon fill="none" stroke="black" points="185.5,-460 185.5,-478 255.5,-478 255.5,-460 185.5,-460"/>
<text text-anchor="start" x="188.5" y="-466.2" font-family="Helvetica,sans-Serif" font-size="11.00">&lt; 1</text>
<polygon fill="#ffffff" stroke="transparent" points="255.5,-460 255.5,-478 343.5,-478 343.5,-460 255.5,-460"/>
<polygon fill="none" stroke="black" points="255.5,-460 255.5,-478 343.5,-478 343.5,-460 255.5,-460"/>
<text text-anchor="start" x="303.5" y="-466.2" font-family="Helvetica,sans-Serif" font-size="11.00">0 rows</text>
<polygon fill="#ffffff" stroke="transparent" points="343.5,-460 343.5,-478 472.5,-478 472.5,-460 343.5,-460"/>
<polygon fill="none" stroke="black" points="343.5,-460 343.5,-478 472.5,-478 472.5,-460 343.5,-460"/>
<text text-anchor="start" x="449.5" y="-466.2" font-family="Helvetica,sans-Serif" font-size="11.00">1 &gt;</text>
<polygon fill="none" stroke="black" stroke-width="2" points="184,-459 184,-699 473,-699 473,-459 184,-459"/>
</a>
</g>
</g>
<!-- artefact_position&#45;&gt;artefact -->
<g id="edge3" class="edge">
<title>artefact_position:w&#45;&gt;artefact:e</title>
<path fill="none" stroke="black" d="M170.04,-641.51C75.16,-619.71 249.16,-366 129,-366"/>
<polygon fill="black" stroke="black" points="176.54,-642.18 184.13,-646.58 180.52,-642.59 184.5,-643 184.5,-643 184.5,-643 180.52,-642.59 184.87,-639.42 176.54,-642.18 176.54,-642.18"/>
<ellipse fill="none" stroke="black" cx="173.36" cy="-641.85" rx="3.2" ry="3.2"/>
</g>
<!-- artefact_position_owner -->
<g id="node5" class="node">
<title>artefact_position_owner</title>
<g id="a_node5"><a xlink:href="../../tables/artefact_position_owner.html" xlink:title="artefact_position_owner" target="_top">
<polygon fill="#ffffff" stroke="transparent" points="523,-39 523,-145 722,-145 722,-39 523,-39"/>
<polygon fill="#f5f5f5" stroke="transparent" points="523.5,-123 523.5,-145 722.5,-145 722.5,-123 523.5,-123"/>
<polygon fill="none" stroke="black" points="523.5,-123 523.5,-145 722.5,-145 722.5,-123 523.5,-123"/>
<text text-anchor="start" x="528.5" y="-132.2" font-family="Helvetica,sans-Serif" font-weight="bold" font-size="11.00">artefact_position_owner</text>
<text text-anchor="start" x="680.5" y="-131.2" font-family="Helvetica,sans-Serif" font-size="11.00">[table]</text>
<polygon fill="none" stroke="black" points="523.5,-101 523.5,-123 722.5,-123 722.5,-101 523.5,-101"/>
<image xlink:href="../../images/primaryKeys.png" width="11px" height="12px" preserveAspectRatio="xMinYMin meet" x="528.5" y="-118"/>
<text text-anchor="start" x="551.5" y="-109.2" font-family="Helvetica,sans-Serif" font-size="11.00">artefact_position_id</text>
<polygon fill="#ffffff" stroke="transparent" points="523.5,-79 523.5,-101 722.5,-101 722.5,-79 523.5,-79"/>
<polygon fill="none" stroke="black" points="523.5,-79 523.5,-101 722.5,-101 722.5,-79 523.5,-79"/>
<image xlink:href="../../images/foreignKeys.png" width="11px" height="12px" preserveAspectRatio="xMinYMin meet" x="528.5" y="-96"/>
<text text-anchor="start" x="551.5" y="-87.2" font-family="Helvetica,sans-Serif" font-size="11.00">edition_editor_id</text>
<polygon fill="none" stroke="black" points="523.5,-57 523.5,-79 722.5,-79 722.5,-57 523.5,-57"/>
<image xlink:href="../../images/primaryKeys.png" width="11px" height="12px" preserveAspectRatio="xMinYMin meet" x="528.5" y="-74"/>
<text text-anchor="start" x="551.5" y="-65.2" font-family="Helvetica,sans-Serif" font-size="11.00">edition_id</text>
<polygon fill="#ffffff" stroke="transparent" points="523.5,-39 523.5,-57 607.5,-57 607.5,-39 523.5,-39"/>
<polygon fill="none" stroke="black" points="523.5,-39 523.5,-57 607.5,-57 607.5,-39 523.5,-39"/>
<text text-anchor="start" x="526.5" y="-45.2" font-family="Helvetica,sans-Serif" font-size="11.00">&lt; 3</text>
<polygon fill="#ffffff" stroke="transparent" points="607.5,-39 607.5,-57 679.5,-57 679.5,-39 607.5,-39"/>
<polygon fill="none" stroke="black" points="607.5,-39 607.5,-57 679.5,-57 679.5,-39 607.5,-39"/>
<text text-anchor="start" x="639.5" y="-45.2" font-family="Helvetica,sans-Serif" font-size="11.00">0 rows</text>
<polygon fill="#ffffff" stroke="transparent" points="679.5,-39 679.5,-57 722.5,-57 722.5,-39 679.5,-39"/>
<polygon fill="none" stroke="black" points="679.5,-39 679.5,-57 722.5,-57 722.5,-39 679.5,-39"/>
<text text-anchor="start" x="711.5" y="-45.2" font-family="Helvetica,sans-Serif" font-size="11.00"> &#160;</text>
</a>
</g>
</g>
<!-- artefact_position_owner&#45;&gt;artefact_position -->
<g id="edge4" class="edge">
<title>artefact_position_owner:w&#45;&gt;artefact_position:e</title>
<path fill="none" stroke="black" d="M510.9,-120.69C471.1,-191.04 530.61,-665 473.5,-665"/>
<polygon fill="black" stroke="black" points="516.1,-116.8 524.66,-114.88 519.3,-114.4 522.5,-112 522.5,-112 522.5,-112 519.3,-114.4 520.34,-109.12 516.1,-116.8 516.1,-116.8"/>
<ellipse fill="none" stroke="black" cx="513.54" cy="-118.71" rx="3.2" ry="3.2"/>
</g>
<!-- edition_editor -->
<g id="node6" class="node">
<title>edition_editor</title>
<g id="a_node6"><a xlink:href="../../tables/edition_editor.html" xlink:title="edition_editor" target="_top">
<polygon fill="#ffffff" stroke="transparent" points="260.5,-63 260.5,-121 396.5,-121 396.5,-63 260.5,-63"/>
<polygon fill="#f5f5f5" stroke="transparent" points="260.5,-99 260.5,-121 396.5,-121 396.5,-99 260.5,-99"/>
<polygon fill="none" stroke="black" points="260.5,-99 260.5,-121 396.5,-121 396.5,-99 260.5,-99"/>
<text text-anchor="start" x="265.5" y="-108.2" font-family="Helvetica,sans-Serif" font-weight="bold" font-size="11.00">edition_editor</text>
<text text-anchor="start" x="354.5" y="-107.2" font-family="Helvetica,sans-Serif" font-size="11.00">[table]</text>
<polygon fill="none" stroke="black" points="260.5,-81 260.5,-99 396.5,-99 396.5,-81 260.5,-81"/>
<text text-anchor="start" x="263.5" y="-87.2" font-family="Helvetica,sans-Serif" font-size="11.00">...</text>
<polygon fill="#ffffff" stroke="transparent" points="260.5,-63 260.5,-81 291.5,-81 291.5,-63 260.5,-63"/>
<polygon fill="none" stroke="black" points="260.5,-63 260.5,-81 291.5,-81 291.5,-63 260.5,-63"/>
<text text-anchor="start" x="263.5" y="-69.2" font-family="Helvetica,sans-Serif" font-size="11.00">&lt; 2</text>
<polygon fill="#ffffff" stroke="transparent" points="291.5,-63 291.5,-81 360.5,-81 360.5,-63 291.5,-63"/>
<polygon fill="none" stroke="black" points="291.5,-63 291.5,-81 360.5,-81 360.5,-63 291.5,-63"/>
<text text-anchor="start" x="296.5" y="-69.2" font-family="Helvetica,sans-Serif" font-size="11.00">1,645 rows</text>
<polygon fill="#ffffff" stroke="transparent" points="360.5,-63 360.5,-81 396.5,-81 396.5,-63 360.5,-63"/>
<polygon fill="none" stroke="black" points="360.5,-63 360.5,-81 396.5,-81 396.5,-63 360.5,-63"/>
<text text-anchor="start" x="366.5" y="-69.2" font-family="Helvetica,sans-Serif" font-size="11.00">33 &gt;</text>
</a>
</g>
</g>
<!-- artefact_position_owner&#45;&gt;edition_editor -->
<g id="edge5" class="edge">
<title>artefact_position_owner:w&#45;&gt;edition_editor:e</title>
<path fill="none" stroke="black" d="M507.9,-90C463.97,-90 447.85,-90 397.5,-90"/>
<polygon fill="black" stroke="black" points="514.5,-90 522.5,-93.6 518.5,-90 522.5,-90 522.5,-90 522.5,-90 518.5,-90 522.5,-86.4 514.5,-90 514.5,-90"/>
<ellipse fill="none" stroke="black" cx="511.3" cy="-90" rx="3.2" ry="3.2"/>
</g>
<!-- edition -->
<g id="node7" class="node">
<title>edition</title>
<g id="a_node7"><a xlink:href="../../tables/edition.html" xlink:title="edition" target="_top">
<polygon fill="#ffffff" stroke="transparent" points="8,-37 8,-95 134,-95 134,-37 8,-37"/>
<polygon fill="#f5f5f5" stroke="transparent" points="8,-73 8,-95 134,-95 134,-73 8,-73"/>
<polygon fill="none" stroke="black" points="8,-73 8,-95 134,-95 134,-73 8,-73"/>
<text text-anchor="start" x="13" y="-82.2" font-family="Helvetica,sans-Serif" font-weight="bold" font-size="11.00">edition</text>
<text text-anchor="start" x="92" y="-81.2" font-family="Helvetica,sans-Serif" font-size="11.00">[table]</text>
<polygon fill="none" stroke="black" points="8,-55 8,-73 134,-73 134,-55 8,-55"/>
<text text-anchor="start" x="11" y="-61.2" font-family="Helvetica,sans-Serif" font-size="11.00">...</text>
<polygon fill="#ffffff" stroke="transparent" points="8,-37 8,-55 34,-55 34,-37 8,-37"/>
<polygon fill="none" stroke="black" points="8,-37 8,-55 34,-55 34,-37 8,-37"/>
<text text-anchor="start" x="11" y="-43.2" font-family="Helvetica,sans-Serif" font-size="11.00">&lt; 1</text>
<polygon fill="#ffffff" stroke="transparent" points="34,-37 34,-55 101,-55 101,-37 34,-37"/>
<polygon fill="none" stroke="black" points="34,-37 34,-55 101,-55 101,-37 34,-37"/>
<text text-anchor="start" x="37" y="-43.2" font-family="Helvetica,sans-Serif" font-size="11.00">1,645 rows</text>
<polygon fill="#ffffff" stroke="transparent" points="101,-37 101,-55 134,-55 134,-37 101,-37"/>
<polygon fill="none" stroke="black" points="101,-37 101,-55 134,-55 134,-37 101,-37"/>
<text text-anchor="start" x="104" y="-43.2" font-family="Helvetica,sans-Serif" font-size="11.00">35 &gt;</text>
</a>
</g>
</g>
<!-- artefact_position_owner&#45;&gt;edition -->
<g id="edge6" class="edge">
<title>artefact_position_owner:w&#45;&gt;edition:e</title>
<path fill="none" stroke="black" d="M508.36,-65.02C500.16,-61.12 495.07,-54.49 482,-52 347.96,-26.48 310,-32.19 175,-52 156.64,-54.7 153.56,-64 135,-64"/>
<polygon fill="black" stroke="black" points="514.67,-66.35 521.76,-71.52 518.59,-67.17 522.5,-68 522.5,-68 522.5,-68 518.59,-67.17 523.24,-64.48 514.67,-66.35 514.67,-66.35"/>
<ellipse fill="none" stroke="black" cx="511.54" cy="-65.69" rx="3.2" ry="3.2"/>
</g>
<!-- edition_editor&#45;&gt;edition -->
<g id="edge11" class="edge">
<title>edition_editor:w&#45;&gt;edition:e</title>
<path fill="none" stroke="black" d="M245,-89.38C200.49,-85.45 186.34,-64 135,-64"/>
<polygon fill="black" stroke="black" points="251.51,-89.66 259.35,-93.6 255.5,-89.83 259.5,-90 259.5,-90 259.5,-90 255.5,-89.83 259.65,-86.4 251.51,-89.66 251.51,-89.66"/>
<ellipse fill="none" stroke="black" cx="248.31" cy="-89.52" rx="3.2" ry="3.2"/>
</g>
<!-- artefact_shape -->
<g id="node8" class="node">
<title>artefact_shape</title>
<g id="a_node8"><a xlink:href="../../tables/artefact_shape.html" xlink:title="artefact_shape" target="_top">
<polygon fill="#ffffff" stroke="transparent" points="257,-379 257,-437 400,-437 400,-379 257,-379"/>
<polygon fill="#f5f5f5" stroke="transparent" points="257.5,-415 257.5,-437 400.5,-437 400.5,-415 257.5,-415"/>
<polygon fill="none" stroke="black" points="257.5,-415 257.5,-437 400.5,-437 400.5,-415 257.5,-415"/>
<text text-anchor="start" x="262.5" y="-424.2" font-family="Helvetica,sans-Serif" font-weight="bold" font-size="11.00">artefact_shape</text>
<text text-anchor="start" x="358.5" y="-423.2" font-family="Helvetica,sans-Serif" font-size="11.00">[table]</text>
<polygon fill="none" stroke="black" points="257.5,-397 257.5,-415 400.5,-415 400.5,-397 257.5,-397"/>
<text text-anchor="start" x="260.5" y="-403.2" font-family="Helvetica,sans-Serif" font-size="11.00">...</text>
<polygon fill="#ffffff" stroke="transparent" points="257.5,-379 257.5,-397 291.5,-397 291.5,-379 257.5,-379"/>
<polygon fill="none" stroke="black" points="257.5,-379 257.5,-397 291.5,-397 291.5,-379 257.5,-379"/>
<text text-anchor="start" x="260.5" y="-385.2" font-family="Helvetica,sans-Serif" font-size="11.00">&lt; 2</text>
<polygon fill="#ffffff" stroke="transparent" points="291.5,-379 291.5,-397 369.5,-397 369.5,-379 291.5,-379"/>
<polygon fill="none" stroke="black" points="291.5,-379 291.5,-397 369.5,-397 369.5,-379 291.5,-379"/>
<text text-anchor="start" x="298.5" y="-385.2" font-family="Helvetica,sans-Serif" font-size="11.00">27,685 rows</text>
<polygon fill="#ffffff" stroke="transparent" points="369.5,-379 369.5,-397 400.5,-397 400.5,-379 369.5,-379"/>
<polygon fill="none" stroke="black" points="369.5,-379 369.5,-397 400.5,-397 400.5,-379 369.5,-379"/>
<text text-anchor="start" x="377.5" y="-385.2" font-family="Helvetica,sans-Serif" font-size="11.00">1 &gt;</text>
</a>
</g>
</g>
<!-- artefact_shape&#45;&gt;artefact -->
<g id="edge7" class="edge">
<title>artefact_shape:w&#45;&gt;artefact:e</title>
<path fill="none" stroke="black" d="M241.95,-405.13C195.19,-399.28 183.17,-366 129,-366"/>
<polygon fill="black" stroke="black" points="248.51,-405.52 256.28,-409.59 252.51,-405.76 256.5,-406 256.5,-406 256.5,-406 252.51,-405.76 256.72,-402.41 248.51,-405.52 248.51,-405.52"/>
<ellipse fill="none" stroke="black" cx="245.32" cy="-405.33" rx="3.2" ry="3.2"/>
</g>
<!-- artefact_stack -->
<g id="node9" class="node">
<title>artefact_stack</title>
<g id="a_node9"><a xlink:href="../../tables/artefact_stack.html" xlink:title="artefact_stack" target="_top">
<polygon fill="#ffffff" stroke="transparent" points="258.5,-300 258.5,-358 398.5,-358 398.5,-300 258.5,-300"/>
<polygon fill="#f5f5f5" stroke="transparent" points="258.5,-336 258.5,-358 398.5,-358 398.5,-336 258.5,-336"/>
<polygon fill="none" stroke="black" points="258.5,-336 258.5,-358 398.5,-358 398.5,-336 258.5,-336"/>
<text text-anchor="start" x="263.5" y="-345.2" font-family="Helvetica,sans-Serif" font-weight="bold" font-size="11.00">artefact_stack</text>
<text text-anchor="start" x="356.5" y="-344.2" font-family="Helvetica,sans-Serif" font-size="11.00">[table]</text>
<polygon fill="none" stroke="black" points="258.5,-318 258.5,-336 398.5,-336 398.5,-318 258.5,-318"/>
<text text-anchor="start" x="261.5" y="-324.2" font-family="Helvetica,sans-Serif" font-size="11.00">...</text>
<polygon fill="#ffffff" stroke="transparent" points="258.5,-300 258.5,-318 291.5,-318 291.5,-300 258.5,-300"/>
<polygon fill="none" stroke="black" points="258.5,-300 258.5,-318 291.5,-318 291.5,-300 258.5,-300"/>
<text text-anchor="start" x="261.5" y="-306.2" font-family="Helvetica,sans-Serif" font-size="11.00">&lt; 2</text>
<polygon fill="#ffffff" stroke="transparent" points="291.5,-300 291.5,-318 368.5,-318 368.5,-300 291.5,-300"/>
<polygon fill="none" stroke="black" points="291.5,-300 291.5,-318 368.5,-318 368.5,-300 291.5,-300"/>
<text text-anchor="start" x="297.5" y="-306.2" font-family="Helvetica,sans-Serif" font-size="11.00">22,748 rows</text>
<polygon fill="#ffffff" stroke="transparent" points="368.5,-300 368.5,-318 398.5,-318 398.5,-300 368.5,-300"/>
<polygon fill="none" stroke="black" points="368.5,-300 368.5,-318 398.5,-318 398.5,-300 368.5,-300"/>
<text text-anchor="start" x="375.5" y="-306.2" font-family="Helvetica,sans-Serif" font-size="11.00">1 &gt;</text>
</a>
</g>
</g>
<!-- artefact_stack&#45;&gt;artefact -->
<g id="edge8" class="edge">
<title>artefact_stack:w&#45;&gt;artefact:e</title>
<path fill="none" stroke="black" d="M242.87,-326.41C195.82,-327.6 183.44,-360.53 129,-366"/>
<polygon fill="black" stroke="black" points="249.51,-326.68 257.35,-330.6 253.5,-326.84 257.5,-327 257.5,-327 257.5,-327 253.5,-326.84 257.65,-323.4 249.51,-326.68 249.51,-326.68"/>
<ellipse fill="none" stroke="black" cx="246.31" cy="-326.55" rx="3.2" ry="3.2"/>
</g>
<!-- artefact_stack&#45;&gt;artefact -->
<g id="edge9" class="edge">
<title>artefact_stack:w&#45;&gt;artefact:e</title>
<path fill="none" stroke="black" d="M243.17,-329.46C195.87,-340.36 183.55,-372.4 129,-366"/>
<polygon fill="black" stroke="black" points="249.62,-328.36 258.11,-330.55 253.56,-327.68 257.5,-327 257.5,-327 257.5,-327 253.56,-327.68 256.89,-323.45 249.62,-328.36 249.62,-328.36"/>
<ellipse fill="none" stroke="black" cx="246.46" cy="-328.9" rx="3.2" ry="3.2"/>
</g>
<!-- artefact_status -->
<g id="node10" class="node">
<title>artefact_status</title>
<g id="a_node10"><a xlink:href="../../tables/artefact_status.html" xlink:title="artefact_status" target="_top">
<polygon fill="#ffffff" stroke="transparent" points="256,-221 256,-279 401,-279 401,-221 256,-221"/>
<polygon fill="#f5f5f5" stroke="transparent" points="256.5,-257 256.5,-279 401.5,-279 401.5,-257 256.5,-257"/>
<polygon fill="none" stroke="black" points="256.5,-257 256.5,-279 401.5,-279 401.5,-257 256.5,-257"/>
<text text-anchor="start" x="261.5" y="-266.2" font-family="Helvetica,sans-Serif" font-weight="bold" font-size="11.00">artefact_status</text>
<text text-anchor="start" x="359.5" y="-265.2" font-family="Helvetica,sans-Serif" font-size="11.00">[table]</text>
<polygon fill="none" stroke="black" points="256.5,-239 256.5,-257 401.5,-257 401.5,-239 256.5,-239"/>
<text text-anchor="start" x="259.5" y="-245.2" font-family="Helvetica,sans-Serif" font-size="11.00">...</text>
<polygon fill="#ffffff" stroke="transparent" points="256.5,-221 256.5,-239 307.5,-239 307.5,-221 256.5,-221"/>
<polygon fill="none" stroke="black" points="256.5,-221 256.5,-239 307.5,-239 307.5,-221 256.5,-221"/>
<text text-anchor="start" x="259.5" y="-227.2" font-family="Helvetica,sans-Serif" font-size="11.00">&lt; 2</text>
<polygon fill="#ffffff" stroke="transparent" points="307.5,-221 307.5,-239 362.5,-239 362.5,-221 307.5,-221"/>
<polygon fill="none" stroke="black" points="307.5,-221 307.5,-239 362.5,-239 362.5,-221 307.5,-221"/>
<text text-anchor="start" x="322.5" y="-227.2" font-family="Helvetica,sans-Serif" font-size="11.00">0 rows</text>
<polygon fill="#ffffff" stroke="transparent" points="362.5,-221 362.5,-239 401.5,-239 401.5,-221 362.5,-221"/>
<polygon fill="none" stroke="black" points="362.5,-221 362.5,-239 401.5,-239 401.5,-221 362.5,-221"/>
<text text-anchor="start" x="378.5" y="-227.2" font-family="Helvetica,sans-Serif" font-size="11.00">1 &gt;</text>
</a>
</g>
</g>
<!-- artefact_status&#45;&gt;artefact -->
<g id="edge10" class="edge">
<title>artefact_status:w&#45;&gt;artefact:e</title>
<path fill="none" stroke="black" d="M240.88,-248.76C211.97,-252.05 200.52,-266.05 175,-290 146.21,-317.02 168.48,-366 129,-366"/>
<polygon fill="black" stroke="black" points="247.51,-248.41 255.69,-251.6 251.51,-248.21 255.5,-248 255.5,-248 255.5,-248 251.51,-248.21 255.31,-244.4 247.51,-248.41 247.51,-248.41"/>
<ellipse fill="none" stroke="black" cx="244.32" cy="-248.58" rx="3.2" ry="3.2"/>
</g>
<!-- roi_position -->
<g id="node11" class="node">
<title>roi_position</title>
<g id="a_node11"><a xlink:href="../../tables/roi_position.html" xlink:title="roi_position" target="_top">
<polygon fill="#ffffff" stroke="transparent" points="267,-142 267,-200 390,-200 390,-142 267,-142"/>
<polygon fill="#f5f5f5" stroke="transparent" points="267.5,-178 267.5,-200 390.5,-200 390.5,-178 267.5,-178"/>
<polygon fill="none" stroke="black" points="267.5,-178 267.5,-200 390.5,-200 390.5,-178 267.5,-178"/>
<text text-anchor="start" x="272.5" y="-187.2" font-family="Helvetica,sans-Serif" font-weight="bold" font-size="11.00">roi_position</text>
<text text-anchor="start" x="348.5" y="-186.2" font-family="Helvetica,sans-Serif" font-size="11.00">[table]</text>
<polygon fill="none" stroke="black" points="267.5,-160 267.5,-178 390.5,-178 390.5,-160 267.5,-160"/>
<text text-anchor="start" x="270.5" y="-166.2" font-family="Helvetica,sans-Serif" font-size="11.00">...</text>
<polygon fill="#ffffff" stroke="transparent" points="267.5,-142 267.5,-160 307.5,-160 307.5,-142 267.5,-142"/>
<polygon fill="none" stroke="black" points="267.5,-142 267.5,-160 307.5,-160 307.5,-142 267.5,-142"/>
<text text-anchor="start" x="270.5" y="-148.2" font-family="Helvetica,sans-Serif" font-size="11.00">&lt; 1</text>
<polygon fill="#ffffff" stroke="transparent" points="307.5,-142 307.5,-160 357.5,-160 357.5,-142 307.5,-142"/>
<polygon fill="none" stroke="black" points="307.5,-142 307.5,-160 357.5,-160 357.5,-142 307.5,-142"/>
<text text-anchor="start" x="317.5" y="-148.2" font-family="Helvetica,sans-Serif" font-size="11.00">0 rows</text>
<polygon fill="#ffffff" stroke="transparent" points="357.5,-142 357.5,-160 390.5,-160 390.5,-142 357.5,-142"/>
<polygon fill="none" stroke="black" points="357.5,-142 357.5,-160 390.5,-160 390.5,-142 357.5,-142"/>
<text text-anchor="start" x="367.5" y="-148.2" font-family="Helvetica,sans-Serif" font-size="11.00">1 &gt;</text>
</a>
</g>
</g>
<!-- roi_position&#45;&gt;artefact -->
<g id="edge12" class="edge">
<title>roi_position:w&#45;&gt;artefact:e</title>
<path fill="none" stroke="black" d="M251.83,-169.37C217.5,-171.27 200.88,-181.16 175,-211 127.92,-265.28 200.86,-366 129,-366"/>
<polygon fill="black" stroke="black" points="258.5,-169.2 266.59,-172.6 262.5,-169.1 266.5,-169 266.5,-169 266.5,-169 262.5,-169.1 266.41,-165.4 258.5,-169.2 258.5,-169.2"/>
<ellipse fill="none" stroke="black" cx="255.3" cy="-169.28" rx="3.2" ry="3.2"/>
</g>
</g>
</svg>
