<?xml version="1.0" encoding="UTF-8" standalone="no"?>
<!DOCTYPE svg PUBLIC "-//W3C//DTD SVG 1.1//EN"
 "http://www.w3.org/Graphics/SVG/1.1/DTD/svg11.dtd">
<!-- Generated by graphviz version 2.40.1 (20161225.0304)
 -->
<!-- Title: oneDegreeRelationshipsDiagramImplied Pages: 1 -->
<svg width="741pt" height="351pt"
 viewBox="0.00 0.00 741.00 351.00" xmlns="http://www.w3.org/2000/svg" xmlns:xlink="http://www.w3.org/1999/xlink">
<g id="graph0" class="graph" transform="scale(1 1) rotate(0) translate(4 347)">
<title>oneDegreeRelationshipsDiagramImplied</title>
<polygon fill="#ffffff" stroke="transparent" points="-4,4 -4,-347 737,-347 737,4 -4,4"/>
<text text-anchor="middle" x="71.5" y="-7.2" font-family="Helvetica,sans-Serif" font-size="11.00" fill="#000000">Generated by SchemaSpy</text>
<!-- artefact_position -->
<g id="node1" class="node">
<title>artefact_position</title>
<g id="a_node1"><a xlink:href="../../tables/artefact_position.html" xlink:title="artefact_position" target="_top">
<polygon fill="#ffffff" stroke="transparent" points="220,-75 220,-339 493,-339 493,-75 220,-75"/>
<polygon fill="#f5f5f5" stroke="transparent" points="222.5,-315 222.5,-337 491.5,-337 491.5,-315 222.5,-315"/>
<polygon fill="none" stroke="#000000" points="222.5,-315 222.5,-337 491.5,-337 491.5,-315 222.5,-315"/>
<text text-anchor="start" x="227.5" y="-324.2" font-family="Helvetica,sans-Serif" font-weight="bold" font-size="11.00" fill="#000000">artefact_position</text>
<text text-anchor="start" x="456.5" y="-323.2" font-family="Helvetica,sans-Serif" font-size="11.00" fill="#000000">[table]</text>
<polygon fill="none" stroke="#000000" points="222.5,-293 222.5,-315 380.5,-315 380.5,-293 222.5,-293"/>
<image xlink:href="../../images/primaryKeys.png" width="11px" height="12px" preserveAspectRatio="xMinYMin meet" x="227.5" y="-310"/>
<text text-anchor="start" x="242.5" y="-301.2" font-family="Helvetica,sans-Serif" font-size="11.00" fill="#000000">artefact_position_id</text>
<polygon fill="none" stroke="#000000" points="380.5,-293 380.5,-315 491.5,-315 491.5,-293 380.5,-293"/>
<text text-anchor="start" x="383.5" y="-301.2" font-family="Helvetica,sans-Serif" font-size="11.00" fill="#000000">int unsigned[10]</text>
<polygon fill="#ffffff" stroke="transparent" points="222.5,-271 222.5,-293 380.5,-293 380.5,-271 222.5,-271"/>
<polygon fill="none" stroke="#000000" points="222.5,-271 222.5,-293 380.5,-293 380.5,-271 222.5,-271"/>
<image xlink:href="../../images/foreignKeys.png" width="11px" height="12px" preserveAspectRatio="xMinYMin meet" x="227.5" y="-288"/>
<text text-anchor="start" x="242.5" y="-279.2" font-family="Helvetica,sans-Serif" font-size="11.00" fill="#000000">artefact_id</text>
<polygon fill="none" stroke="#000000" points="380.5,-271 380.5,-293 491.5,-293 491.5,-271 380.5,-271"/>
<text text-anchor="start" x="383.5" y="-279.2" font-family="Helvetica,sans-Serif" font-size="11.00" fill="#000000">int unsigned[10]</text>
<polygon fill="#ffffff" stroke="transparent" points="222.5,-249 222.5,-271 380.5,-271 380.5,-249 222.5,-249"/>
<polygon fill="none" stroke="#000000" points="222.5,-249 222.5,-271 380.5,-271 380.5,-249 222.5,-249"/>
<text text-anchor="start" x="242.5" y="-257.2" font-family="Helvetica,sans-Serif" font-size="11.00" fill="#000000">z_index</text>
<polygon fill="none" stroke="#000000" points="380.5,-249 380.5,-271 491.5,-271 491.5,-249 380.5,-249"/>
<text text-anchor="start" x="383.5" y="-257.2" font-family="Helvetica,sans-Serif" font-size="11.00" fill="#000000">int[10]</text>
<polygon fill="#ffffff" stroke="transparent" points="222.5,-227 222.5,-249 380.5,-249 380.5,-227 222.5,-227"/>
<polygon fill="none" stroke="#000000" points="222.5,-227 222.5,-249 380.5,-249 380.5,-227 222.5,-227"/>
<text text-anchor="start" x="242.5" y="-235.2" font-family="Helvetica,sans-Serif" font-size="11.00" fill="#000000">scale</text>
<polygon fill="none" stroke="#000000" points="380.5,-227 380.5,-249 491.5,-249 491.5,-227 380.5,-227"/>
<text text-anchor="start" x="383.5" y="-235.2" font-family="Helvetica,sans-Serif" font-size="11.00" fill="#000000">decimal unsigned[6,4]</text>
<polygon fill="#ffffff" stroke="transparent" points="222.5,-205 222.5,-227 380.5,-227 380.5,-205 222.5,-205"/>
<polygon fill="none" stroke="#000000" points="222.5,-205 222.5,-227 380.5,-227 380.5,-205 222.5,-205"/>
<text text-anchor="start" x="242.5" y="-213.2" font-family="Helvetica,sans-Serif" font-size="11.00" fill="#000000">rotate</text>
<polygon fill="none" stroke="#000000" points="380.5,-205 380.5,-227 491.5,-227 491.5,-205 380.5,-205"/>
<text text-anchor="start" x="383.5" y="-213.2" font-family="Helvetica,sans-Serif" font-size="11.00" fill="#000000">decimal unsigned[6,2]</text>
<polygon fill="none" stroke="#000000" points="222.5,-183 222.5,-205 380.5,-205 380.5,-183 222.5,-183"/>
<text text-anchor="start" x="242.5" y="-191.2" font-family="Helvetica,sans-Serif" font-size="11.00" fill="#000000">translate_x</text>
<polygon fill="none" stroke="#000000" points="380.5,-183 380.5,-205 491.5,-205 491.5,-183 380.5,-183"/>
<text text-anchor="start" x="383.5" y="-191.2" font-family="Helvetica,sans-Serif" font-size="11.00" fill="#000000">int[10]</text>
<polygon fill="none" stroke="#000000" points="222.5,-161 222.5,-183 380.5,-183 380.5,-161 222.5,-161"/>
<text text-anchor="start" x="242.5" y="-169.2" font-family="Helvetica,sans-Serif" font-size="11.00" fill="#000000">translate_y</text>
<polygon fill="none" stroke="#000000" points="380.5,-161 380.5,-183 491.5,-183 491.5,-161 380.5,-161"/>
<text text-anchor="start" x="383.5" y="-169.2" font-family="Helvetica,sans-Serif" font-size="11.00" fill="#000000">int[10]</text>
<polygon fill="#ffffff" stroke="transparent" points="222.5,-139 222.5,-161 380.5,-161 380.5,-139 222.5,-139"/>
<polygon fill="none" stroke="#000000" points="222.5,-139 222.5,-161 380.5,-161 380.5,-139 222.5,-139"/>
<text text-anchor="start" x="242.5" y="-147.2" font-family="Helvetica,sans-Serif" font-size="11.00" fill="#000000">translate_x_non_null</text>
<polygon fill="none" stroke="#000000" points="380.5,-139 380.5,-161 491.5,-161 491.5,-139 380.5,-139"/>
<text text-anchor="start" x="383.5" y="-147.2" font-family="Helvetica,sans-Serif" font-size="11.00" fill="#000000">int[10]</text>
<polygon fill="#ffffff" stroke="transparent" points="222.5,-117 222.5,-139 380.5,-139 380.5,-117 222.5,-117"/>
<polygon fill="none" stroke="#000000" points="222.5,-117 222.5,-139 380.5,-139 380.5,-117 222.5,-117"/>
<text text-anchor="start" x="242.5" y="-125.2" font-family="Helvetica,sans-Serif" font-size="11.00" fill="#000000">translate_y_non_null</text>
<polygon fill="none" stroke="#000000" points="380.5,-117 380.5,-139 491.5,-139 491.5,-117 380.5,-117"/>
<text text-anchor="start" x="383.5" y="-125.2" font-family="Helvetica,sans-Serif" font-size="11.00" fill="#000000">int[10]</text>
<polygon fill="#ffffff" stroke="transparent" points="222.5,-95 222.5,-117 380.5,-117 380.5,-95 222.5,-95"/>
<polygon fill="none" stroke="#000000" points="222.5,-95 222.5,-117 380.5,-117 380.5,-95 222.5,-95"/>
<image xlink:href="../../images/foreignKeys.png" width="11px" height="12px" preserveAspectRatio="xMinYMin meet" x="227.5" y="-112"/>
<text text-anchor="start" x="242.5" y="-103.2" font-family="Helvetica,sans-Serif" font-size="11.00" fill="#000000">creator_id</text>
<polygon fill="none" stroke="#000000" points="380.5,-95 380.5,-117 491.5,-117 491.5,-95 380.5,-95"/>
<text text-anchor="start" x="383.5" y="-103.2" font-family="Helvetica,sans-Serif" font-size="11.00" fill="#000000">int unsigned[10]</text>
<polygon fill="#ffffff" stroke="transparent" points="222.5,-77 222.5,-95 292.5,-95 292.5,-77 222.5,-77"/>
<polygon fill="none" stroke="#000000" points="222.5,-77 222.5,-95 292.5,-95 292.5,-77 222.5,-77"/>
<text text-anchor="start" x="225.5" y="-83.2" font-family="Helvetica,sans-Serif" font-size="11.00" fill="#000000">&lt; 2</text>
<polygon fill="#ffffff" stroke="transparent" points="292.5,-77 292.5,-95 380.5,-95 380.5,-77 292.5,-77"/>
<polygon fill="none" stroke="#000000" points="292.5,-77 292.5,-95 380.5,-95 380.5,-77 292.5,-77"/>
<text text-anchor="start" x="344.5" y="-83.2" font-family="Helvetica,sans-Serif" font-size="11.00" fill="#000000">0 rows</text>
<polygon fill="#ffffff" stroke="transparent" points="380.5,-77 380.5,-95 491.5,-95 491.5,-77 380.5,-77"/>
<polygon fill="none" stroke="#000000" points="380.5,-77 380.5,-95 491.5,-95 491.5,-77 380.5,-77"/>
<text text-anchor="start" x="472.5" y="-83.2" font-family="Helvetica,sans-Serif" font-size="11.00" fill="#000000">1 &gt;</text>
<polygon fill="none" stroke="#000000" stroke-width="2" points="221,-76 221,-338 492,-338 492,-76 221,-76"/>
</a>
</g>
</g>
<!-- artefact -->
<g id="node2" class="node">
<title>artefact</title>
<g id="a_node2"><a xlink:href="../../tables/artefact.html" xlink:title="artefact" target="_top">
<polygon fill="#ffffff" stroke="transparent" points="39,-253 39,-315 140,-315 140,-253 39,-253"/>
<polygon fill="#f5f5f5" stroke="transparent" points="39.5,-293 39.5,-315 140.5,-315 140.5,-293 39.5,-293"/>
<polygon fill="none" stroke="#000000" points="39.5,-293 39.5,-315 140.5,-315 140.5,-293 39.5,-293"/>
<text text-anchor="start" x="44.5" y="-302.2" font-family="Helvetica,sans-Serif" font-weight="bold" font-size="11.00" fill="#000000">artefact</text>
<text text-anchor="start" x="105.5" y="-301.2" font-family="Helvetica,sans-Serif" font-size="11.00" fill="#000000">[table]</text>
<polygon fill="none" stroke="#000000" points="39.5,-271 39.5,-293 140.5,-293 140.5,-271 39.5,-271"/>
<image xlink:href="../../images/primaryKeys.png" width="11px" height="12px" preserveAspectRatio="xMinYMin meet" x="44.5" y="-288"/>
<text text-anchor="start" x="63.5" y="-279.2" font-family="Helvetica,sans-Serif" font-size="11.00" fill="#000000">artefact_id</text>
<polygon fill="#ffffff" stroke="transparent" points="39.5,-253 39.5,-271 52.5,-271 52.5,-253 39.5,-253"/>
<polygon fill="none" stroke="#000000" points="39.5,-253 39.5,-271 52.5,-271 52.5,-253 39.5,-253"/>
<text text-anchor="start" x="42.5" y="-259.2" font-family="Helvetica,sans-Serif" font-size="11.00" fill="#000000"> &#160;</text>
<polygon fill="#ffffff" stroke="transparent" points="52.5,-253 52.5,-271 118.5,-271 118.5,-253 52.5,-253"/>
<polygon fill="none" stroke="#000000" points="52.5,-253 52.5,-271 118.5,-271 118.5,-253 52.5,-253"/>
<text text-anchor="start" x="55.5" y="-259.2" font-family="Helvetica,sans-Serif" font-size="11.00" fill="#000000">26,982 rows</text>
<polygon fill="#ffffff" stroke="transparent" points="118.5,-253 118.5,-271 140.5,-271 140.5,-253 118.5,-253"/>
<polygon fill="none" stroke="#000000" points="118.5,-253 118.5,-271 140.5,-271 140.5,-253 118.5,-253"/>
<text text-anchor="start" x="121.5" y="-259.2" font-family="Helvetica,sans-Serif" font-size="11.00" fill="#000000">8 &gt;</text>
</a>
</g>
</g>
<!-- artefact_position&#45;&gt;artefact -->
<g id="edge1" class="edge">
<title>artefact_position:w&#45;&gt;artefact:e</title>
<path fill="none" stroke="#000000" d="M207.8988,-282C182.7484,-282 171.5347,-282 140.5,-282"/>
<polygon fill="#000000" stroke="#000000" points="214.5,-282.0001 222.5,-285.6 218.5,-282 222.5,-282 222.5,-282 222.5,-282 218.5,-282 222.5,-278.4 214.5,-282.0001 214.5,-282.0001"/>
<ellipse fill="none" stroke="#000000" cx="211.3" cy="-282.0001" rx="3.2" ry="3.2"/>
</g>
<!-- user -->
<g id="node3" class="node">
<title>user</title>
<g id="a_node3"><a xlink:href="../../tables/user.html" xlink:title="user" target="_top">
<polygon fill="#ffffff" stroke="transparent" points="8,-37 8,-139 171,-139 171,-37 8,-37"/>
<polygon fill="#f5f5f5" stroke="transparent" points="8.5,-117 8.5,-139 171.5,-139 171.5,-117 8.5,-117"/>
<polygon fill="none" stroke="#000000" points="8.5,-117 8.5,-139 171.5,-139 171.5,-117 8.5,-117"/>
<text text-anchor="start" x="13.5" y="-126.2" font-family="Helvetica,sans-Serif" font-weight="bold" font-size="11.00" fill="#000000">user</text>
<text text-anchor="start" x="136.5" y="-125.2" font-family="Helvetica,sans-Serif" font-size="11.00" fill="#000000">[table]</text>
<polygon fill="none" stroke="#000000" points="8.5,-95 8.5,-117 171.5,-117 171.5,-95 8.5,-95"/>
<image xlink:href="../../images/primaryKeys.png" width="11px" height="12px" preserveAspectRatio="xMinYMin meet" x="13.5" y="-112"/>
<text text-anchor="start" x="28.5" y="-103.2" font-family="Helvetica,sans-Serif" font-size="11.00" fill="#000000">user_id</text>
<polygon fill="#ffffff" stroke="transparent" points="8.5,-73 8.5,-95 171.5,-95 171.5,-73 8.5,-73"/>
<polygon fill="none" stroke="#000000" points="8.5,-73 8.5,-95 171.5,-95 171.5,-73 8.5,-73"/>
<text text-anchor="start" x="28.5" y="-81.2" font-family="Helvetica,sans-Serif" font-size="11.00" fill="#000000">email</text>
<polygon fill="none" stroke="#000000" points="8.5,-55 8.5,-73 171.5,-73 171.5,-55 8.5,-55"/>
<text text-anchor="start" x="11.5" y="-61.2" font-family="Helvetica,sans-Serif" font-size="11.00" fill="#000000">...</text>
<polygon fill="#ffffff" stroke="transparent" points="8.5,-37 8.5,-55 62.5,-55 62.5,-37 8.5,-37"/>
<polygon fill="none" stroke="#000000" points="8.5,-37 8.5,-55 62.5,-55 62.5,-37 8.5,-37"/>
<text text-anchor="start" x="11.5" y="-43.2" font-family="Helvetica,sans-Serif" font-size="11.00" fill="#000000"> &#160;</text>
<polygon fill="#ffffff" stroke="transparent" points="62.5,-37 62.5,-55 122.5,-55 122.5,-37 62.5,-37"/>
<polygon fill="none" stroke="#000000" points="62.5,-37 62.5,-55 122.5,-55 122.5,-37 62.5,-37"/>
<text text-anchor="start" x="86.5" y="-43.2" font-family="Helvetica,sans-Serif" font-size="11.00" fill="#000000">3 rows</text>
<polygon fill="#ffffff" stroke="transparent" points="122.5,-37 122.5,-55 171.5,-55 171.5,-37 122.5,-37"/>
<polygon fill="none" stroke="#000000" points="122.5,-37 122.5,-55 171.5,-55 171.5,-37 122.5,-37"/>
<text text-anchor="start" x="146.5" y="-43.2" font-family="Helvetica,sans-Serif" font-size="11.00" fill="#000000">40 &gt;</text>
</a>
</g>
</g>
<!-- artefact_position&#45;&gt;user -->
<g id="edge2" class="edge">
<title>artefact_position:w&#45;&gt;user:e</title>
<path fill="none" stroke="#000000" d="M207.776,-106C195.7815,-106 188.3229,-106 171.5,-106"/>
<polygon fill="#000000" stroke="#000000" points="214.5,-106.0001 222.5,-109.6 218.5,-106 222.5,-106 222.5,-106 222.5,-106 218.5,-106 222.5,-102.4 214.5,-106.0001 214.5,-106.0001"/>
<ellipse fill="none" stroke="#000000" cx="211.3" cy="-106.0001" rx="3.2" ry="3.2"/>
</g>
<!-- artefact_position_owner -->
<g id="node4" class="node">
<title>artefact_position_owner</title>
<g id="a_node4"><a xlink:href="../../tables/artefact_position_owner.html" xlink:title="artefact_position_owner" target="_top">
<polygon fill="#ffffff" stroke="transparent" points="542,-231 542,-337 725,-337 725,-231 542,-231"/>
<polygon fill="#f5f5f5" stroke="transparent" points="542.5,-315 542.5,-337 725.5,-337 725.5,-315 542.5,-315"/>
<polygon fill="none" stroke="#000000" points="542.5,-315 542.5,-337 725.5,-337 725.5,-315 542.5,-315"/>
<text text-anchor="start" x="547.5" y="-324.2" font-family="Helvetica,sans-Serif" font-weight="bold" font-size="11.00" fill="#000000">artefact_position_owner</text>
<text text-anchor="start" x="690.5" y="-323.2" font-family="Helvetica,sans-Serif" font-size="11.00" fill="#000000">[table]</text>
<polygon fill="none" stroke="#000000" points="542.5,-293 542.5,-315 725.5,-315 725.5,-293 542.5,-293"/>
<image xlink:href="../../images/primaryKeys.png" width="11px" height="12px" preserveAspectRatio="xMinYMin meet" x="547.5" y="-310"/>
<text text-anchor="start" x="562.5" y="-301.2" font-family="Helvetica,sans-Serif" font-size="11.00" fill="#000000">artefact_position_id</text>
<polygon fill="#ffffff" stroke="transparent" points="542.5,-271 542.5,-293 725.5,-293 725.5,-271 542.5,-271"/>
<polygon fill="none" stroke="#000000" points="542.5,-271 542.5,-293 725.5,-293 725.5,-271 542.5,-271"/>
<image xlink:href="../../images/foreignKeys.png" width="11px" height="12px" preserveAspectRatio="xMinYMin meet" x="547.5" y="-288"/>
<text text-anchor="start" x="562.5" y="-279.2" font-family="Helvetica,sans-Serif" font-size="11.00" fill="#000000">edition_editor_id</text>
<polygon fill="none" stroke="#000000" points="542.5,-249 542.5,-271 725.5,-271 725.5,-249 542.5,-249"/>
<image xlink:href="../../images/primaryKeys.png" width="11px" height="12px" preserveAspectRatio="xMinYMin meet" x="547.5" y="-266"/>
<text text-anchor="start" x="562.5" y="-257.2" font-family="Helvetica,sans-Serif" font-size="11.00" fill="#000000">edition_id</text>
<polygon fill="#ffffff" stroke="transparent" points="542.5,-231 542.5,-249 618.5,-249 618.5,-231 542.5,-231"/>
<polygon fill="none" stroke="#000000" points="542.5,-231 542.5,-249 618.5,-249 618.5,-231 542.5,-231"/>
<text text-anchor="start" x="545.5" y="-237.2" font-family="Helvetica,sans-Serif" font-size="11.00" fill="#000000">&lt; 3</text>
<polygon fill="#ffffff" stroke="transparent" points="618.5,-231 618.5,-249 684.5,-249 684.5,-231 618.5,-231"/>
<polygon fill="none" stroke="#000000" points="618.5,-231 618.5,-249 684.5,-249 684.5,-231 618.5,-231"/>
<text text-anchor="start" x="648.5" y="-237.2" font-family="Helvetica,sans-Serif" font-size="11.00" fill="#000000">0 rows</text>
<polygon fill="#ffffff" stroke="transparent" points="684.5,-231 684.5,-249 725.5,-249 725.5,-231 684.5,-231"/>
<polygon fill="none" stroke="#000000" points="684.5,-231 684.5,-249 725.5,-249 725.5,-231 684.5,-231"/>
<text text-anchor="start" x="715.5" y="-237.2" font-family="Helvetica,sans-Serif" font-size="11.00" fill="#000000"> &#160;</text>
</a>
</g>
</g>
<!-- artefact_position_owner&#45;&gt;artefact_position -->
<g id="edge3" class="edge">
<title>artefact_position_owner:w&#45;&gt;artefact_position:e</title>
<path fill="none" stroke="#000000" d="M527.776,-304C515.7815,-304 508.3229,-304 491.5,-304"/>
<polygon fill="#000000" stroke="#000000" points="534.5,-304.0001 542.5,-307.6 538.5,-304 542.5,-304 542.5,-304 542.5,-304 538.5,-304 542.5,-300.4 534.5,-304.0001 534.5,-304.0001"/>
<ellipse fill="none" stroke="#000000" cx="531.3" cy="-304.0001" rx="3.2" ry="3.2"/>
</g>
</g>
</svg>
