<?xml version="1.0" encoding="UTF-8" standalone="no"?>
<!DOCTYPE svg PUBLIC "-//W3C//DTD SVG 1.1//EN"
 "http://www.w3.org/Graphics/SVG/1.1/DTD/svg11.dtd">
<!-- Generated by graphviz version 2.43.0 (0)
 -->
<!-- Title: oneDegreeRelationshipsDiagram Pages: 1 -->
<svg width="674pt" height="327pt"
 viewBox="0.00 0.00 674.00 327.00" xmlns="http://www.w3.org/2000/svg" xmlns:xlink="http://www.w3.org/1999/xlink">
<g id="graph0" class="graph" transform="scale(1 1) rotate(0) translate(4 323)">
<title>oneDegreeRelationshipsDiagram</title>
<polygon fill="#ffffff" stroke="transparent" points="-4,4 -4,-323 670,-323 670,4 -4,4"/>
<text text-anchor="middle" x="79.5" y="-7.2" font-family="Helvetica,sans-Serif" font-size="11.00">Generated by SchemaSpy</text>
<!-- artefact_status_owner -->
<g id="node1" class="node">
<title>artefact_status_owner</title>
<g id="a_node1"><a xlink:href="../../tables/artefact_status_owner.html" xlink:title="artefact_status_owner" target="_top">
<polygon fill="#ffffff" stroke="transparent" points="386,-132 386,-242 658,-242 658,-132 386,-132"/>
<polygon fill="#f5f5f5" stroke="transparent" points="388,-218 388,-240 656,-240 656,-218 388,-218"/>
<polygon fill="none" stroke="black" points="388,-218 388,-240 656,-240 656,-218 388,-218"/>
<text text-anchor="start" x="393" y="-227.2" font-family="Helvetica,sans-Serif" font-weight="bold" font-size="11.00">artefact_status_owner</text>
<text text-anchor="start" x="614" y="-226.2" font-family="Helvetica,sans-Serif" font-size="11.00">[table]</text>
<polygon fill="none" stroke="black" points="388,-196 388,-218 559,-218 559,-196 388,-196"/>
<image xlink:href="../../images/primaryKeys.png" width="11px" height="12px" preserveAspectRatio="xMinYMin meet" x="393" y="-213"/>
<text text-anchor="start" x="408" y="-204.2" font-family="Helvetica,sans-Serif" font-size="11.00">artefact_status_id</text>
<polygon fill="none" stroke="black" points="559,-196 559,-218 656,-218 656,-196 559,-196"/>
<text text-anchor="start" x="562" y="-204.2" font-family="Helvetica,sans-Serif" font-size="11.00">int unsigned[10]</text>
<polygon fill="none" stroke="black" points="388,-174 388,-196 559,-196 559,-174 388,-174"/>
<image xlink:href="../../images/primaryKeys.png" width="11px" height="12px" preserveAspectRatio="xMinYMin meet" x="393" y="-191"/>
<text text-anchor="start" x="408" y="-182.2" font-family="Helvetica,sans-Serif" font-size="11.00">edition_id</text>
<polygon fill="none" stroke="black" points="559,-174 559,-196 656,-196 656,-174 559,-174"/>
<text text-anchor="start" x="562" y="-182.2" font-family="Helvetica,sans-Serif" font-size="11.00">int unsigned[10]</text>
<polygon fill="#ffffff" stroke="transparent" points="388,-152 388,-174 559,-174 559,-152 388,-152"/>
<polygon fill="none" stroke="black" points="388,-152 388,-174 559,-174 559,-152 388,-152"/>
<image xlink:href="../../images/foreignKeys.png" width="11px" height="12px" preserveAspectRatio="xMinYMin meet" x="393" y="-169"/>
<text text-anchor="start" x="408" y="-160.2" font-family="Helvetica,sans-Serif" font-size="11.00">edition_editor_id</text>
<polygon fill="none" stroke="black" points="559,-152 559,-174 656,-174 656,-152 559,-152"/>
<text text-anchor="start" x="562" y="-160.2" font-family="Helvetica,sans-Serif" font-size="11.00">int unsigned[10]</text>
<polygon fill="#ffffff" stroke="transparent" points="388,-134 388,-152 465,-152 465,-134 388,-134"/>
<polygon fill="none" stroke="black" points="388,-134 388,-152 465,-152 465,-134 388,-134"/>
<text text-anchor="start" x="391" y="-140.2" font-family="Helvetica,sans-Serif" font-size="11.00">&lt; 3</text>
<polygon fill="#ffffff" stroke="transparent" points="465,-134 465,-152 559,-152 559,-134 465,-134"/>
<polygon fill="none" stroke="black" points="465,-134 465,-152 559,-152 559,-134 465,-134"/>
<text text-anchor="start" x="519" y="-140.2" font-family="Helvetica,sans-Serif" font-size="11.00">0 rows</text>
<polygon fill="#ffffff" stroke="transparent" points="559,-134 559,-152 656,-152 656,-134 559,-134"/>
<polygon fill="none" stroke="black" points="559,-134 559,-152 656,-152 656,-134 559,-134"/>
<text text-anchor="start" x="633" y="-140.2" font-family="Helvetica,sans-Serif" font-size="11.00">0 &gt;</text>
<polygon fill="none" stroke="black" stroke-width="2" points="387,-133 387,-241 657,-241 657,-133 387,-133"/>
</a>
</g>
</g>
<!-- artefact_status -->
<g id="node2" class="node">
<title>artefact_status</title>
<g id="a_node2"><a xlink:href="../../tables/artefact_status.html" xlink:title="artefact_status" target="_top">
<polygon fill="#ffffff" stroke="transparent" points="192,-209 192,-315 337,-315 337,-209 192,-209"/>
<polygon fill="#f5f5f5" stroke="transparent" points="192.5,-293 192.5,-315 337.5,-315 337.5,-293 192.5,-293"/>
<polygon fill="none" stroke="black" points="192.5,-293 192.5,-315 337.5,-315 337.5,-293 192.5,-293"/>
<text text-anchor="start" x="197.5" y="-302.2" font-family="Helvetica,sans-Serif" font-weight="bold" font-size="11.00">artefact_status</text>
<text text-anchor="start" x="295.5" y="-301.2" font-family="Helvetica,sans-Serif" font-size="11.00">[table]</text>
<polygon fill="none" stroke="black" points="192.5,-271 192.5,-293 337.5,-293 337.5,-271 192.5,-271"/>
<image xlink:href="../../images/primaryKeys.png" width="11px" height="12px" preserveAspectRatio="xMinYMin meet" x="197.5" y="-288"/>
<text text-anchor="start" x="214.5" y="-279.2" font-family="Helvetica,sans-Serif" font-size="11.00">artefact_status_id</text>
<polygon fill="#ffffff" stroke="transparent" points="192.5,-249 192.5,-271 337.5,-271 337.5,-249 192.5,-249"/>
<polygon fill="none" stroke="black" points="192.5,-249 192.5,-271 337.5,-271 337.5,-249 192.5,-249"/>
<image xlink:href="../../images/foreignKeys.png" width="11px" height="12px" preserveAspectRatio="xMinYMin meet" x="197.5" y="-266"/>
<text text-anchor="start" x="214.5" y="-257.2" font-family="Helvetica,sans-Serif" font-size="11.00">work_status_id</text>
<polygon fill="#ffffff" stroke="transparent" points="192.5,-227 192.5,-249 337.5,-249 337.5,-227 192.5,-227"/>
<polygon fill="none" stroke="black" points="192.5,-227 192.5,-249 337.5,-249 337.5,-227 192.5,-227"/>
<image xlink:href="../../images/foreignKeys.png" width="11px" height="12px" preserveAspectRatio="xMinYMin meet" x="197.5" y="-244"/>
<text text-anchor="start" x="214.5" y="-235.2" font-family="Helvetica,sans-Serif" font-size="11.00">artefact_id</text>
<polygon fill="#ffffff" stroke="transparent" points="192.5,-209 192.5,-227 243.5,-227 243.5,-209 192.5,-209"/>
<polygon fill="none" stroke="black" points="192.5,-209 192.5,-227 243.5,-227 243.5,-209 192.5,-209"/>
<text text-anchor="start" x="195.5" y="-215.2" font-family="Helvetica,sans-Serif" font-size="11.00">&lt; 2</text>
<polygon fill="#ffffff" stroke="transparent" points="243.5,-209 243.5,-227 298.5,-227 298.5,-209 243.5,-209"/>
<polygon fill="none" stroke="black" points="243.5,-209 243.5,-227 298.5,-227 298.5,-209 243.5,-209"/>
<text text-anchor="start" x="258.5" y="-215.2" font-family="Helvetica,sans-Serif" font-size="11.00">0 rows</text>
<polygon fill="#ffffff" stroke="transparent" points="298.5,-209 298.5,-227 337.5,-227 337.5,-209 298.5,-209"/>
<polygon fill="none" stroke="black" points="298.5,-209 298.5,-227 337.5,-227 337.5,-209 298.5,-209"/>
<text text-anchor="start" x="314.5" y="-215.2" font-family="Helvetica,sans-Serif" font-size="11.00">1 &gt;</text>
</a>
</g>
</g>
<!-- artefact_status_owner&#45;&gt;artefact_status -->
<g id="edge1" class="edge">
<title>artefact_status_owner:w&#45;&gt;artefact_status:e</title>
<path fill="none" stroke="black" d="M373.27,-211.69C355.08,-228.11 372.15,-282 338.5,-282"/>
<polygon fill="black" stroke="black" points="379.43,-209.59 388.16,-210.41 383.21,-208.29 387,-207 387,-207 387,-207 383.21,-208.29 385.84,-203.59 379.43,-209.59 379.43,-209.59"/>
<ellipse fill="none" stroke="black" cx="376.4" cy="-210.62" rx="3.2" ry="3.2"/>
</g>
<!-- edition_editor -->
<g id="node3" class="node">
<title>edition_editor</title>
<g id="a_node3"><a xlink:href="../../tables/edition_editor.html" xlink:title="edition_editor" target="_top">
<polygon fill="#ffffff" stroke="transparent" points="196.5,-37 196.5,-161 332.5,-161 332.5,-37 196.5,-37"/>
<polygon fill="#f5f5f5" stroke="transparent" points="196.5,-139 196.5,-161 332.5,-161 332.5,-139 196.5,-139"/>
<polygon fill="none" stroke="black" points="196.5,-139 196.5,-161 332.5,-161 332.5,-139 196.5,-139"/>
<text text-anchor="start" x="201.5" y="-148.2" font-family="Helvetica,sans-Serif" font-weight="bold" font-size="11.00">edition_editor</text>
<text text-anchor="start" x="290.5" y="-147.2" font-family="Helvetica,sans-Serif" font-size="11.00">[table]</text>
<polygon fill="none" stroke="black" points="196.5,-117 196.5,-139 332.5,-139 332.5,-117 196.5,-117"/>
<image xlink:href="../../images/primaryKeys.png" width="11px" height="12px" preserveAspectRatio="xMinYMin meet" x="201.5" y="-134"/>
<text text-anchor="start" x="218.5" y="-125.2" font-family="Helvetica,sans-Serif" font-size="11.00">edition_editor_id</text>
<polygon fill="#ffffff" stroke="transparent" points="196.5,-95 196.5,-117 332.5,-117 332.5,-95 196.5,-95"/>
<polygon fill="none" stroke="black" points="196.5,-95 196.5,-117 332.5,-117 332.5,-95 196.5,-95"/>
<image xlink:href="../../images/foreignKeys.png" width="11px" height="12px" preserveAspectRatio="xMinYMin meet" x="201.5" y="-112"/>
<text text-anchor="start" x="218.5" y="-103.2" font-family="Helvetica,sans-Serif" font-size="11.00">user_id</text>
<polygon fill="#ffffff" stroke="transparent" points="196.5,-73 196.5,-95 332.5,-95 332.5,-73 196.5,-73"/>
<polygon fill="none" stroke="black" points="196.5,-73 196.5,-95 332.5,-95 332.5,-73 196.5,-73"/>
<image xlink:href="../../images/foreignKeys.png" width="11px" height="12px" preserveAspectRatio="xMinYMin meet" x="201.5" y="-90"/>
<text text-anchor="start" x="218.5" y="-81.2" font-family="Helvetica,sans-Serif" font-size="11.00">edition_id</text>
<polygon fill="none" stroke="black" points="196.5,-55 196.5,-73 332.5,-73 332.5,-55 196.5,-55"/>
<text text-anchor="start" x="199.5" y="-61.2" font-family="Helvetica,sans-Serif" font-size="11.00">...</text>
<polygon fill="#ffffff" stroke="transparent" points="196.5,-37 196.5,-55 227.5,-55 227.5,-37 196.5,-37"/>
<polygon fill="none" stroke="black" points="196.5,-37 196.5,-55 227.5,-55 227.5,-37 196.5,-37"/>
<text text-anchor="start" x="199.5" y="-43.2" font-family="Helvetica,sans-Serif" font-size="11.00">&lt; 2</text>
<polygon fill="#ffffff" stroke="transparent" points="227.5,-37 227.5,-55 296.5,-55 296.5,-37 227.5,-37"/>
<polygon fill="none" stroke="black" points="227.5,-37 227.5,-55 296.5,-55 296.5,-37 227.5,-37"/>
<text text-anchor="start" x="232.5" y="-43.2" font-family="Helvetica,sans-Serif" font-size="11.00">1,645 rows</text>
<polygon fill="#ffffff" stroke="transparent" points="296.5,-37 296.5,-55 332.5,-55 332.5,-37 296.5,-37"/>
<polygon fill="none" stroke="black" points="296.5,-37 296.5,-55 332.5,-55 332.5,-37 296.5,-37"/>
<text text-anchor="start" x="302.5" y="-43.2" font-family="Helvetica,sans-Serif" font-size="11.00">33 &gt;</text>
</a>
</g>
</g>
<!-- artefact_status_owner&#45;&gt;edition_editor -->
<g id="edge2" class="edge">
<title>artefact_status_owner:w&#45;&gt;edition_editor:e</title>
<path fill="none" stroke="black" d="M373.08,-159.25C358.63,-150.23 356.14,-128 333.5,-128"/>
<polygon fill="black" stroke="black" points="379.27,-160.92 386.06,-166.48 383.14,-161.96 387,-163 387,-163 387,-163 383.14,-161.96 387.94,-159.52 379.27,-160.92 379.27,-160.92"/>
<ellipse fill="none" stroke="black" cx="376.18" cy="-160.09" rx="3.2" ry="3.2"/>
</g>
<!-- edition -->
<g id="node4" class="node">
<title>edition</title>
<g id="a_node4"><a xlink:href="../../tables/edition.html" xlink:title="edition" target="_top">
<polygon fill="#ffffff" stroke="transparent" points="8,-65 8,-167 143,-167 143,-65 8,-65"/>
<polygon fill="#f5f5f5" stroke="transparent" points="8.5,-145 8.5,-167 143.5,-167 143.5,-145 8.5,-145"/>
<polygon fill="none" stroke="black" points="8.5,-145 8.5,-167 143.5,-167 143.5,-145 8.5,-145"/>
<text text-anchor="start" x="13.5" y="-154.2" font-family="Helvetica,sans-Serif" font-weight="bold" font-size="11.00">edition</text>
<text text-anchor="start" x="101.5" y="-153.2" font-family="Helvetica,sans-Serif" font-size="11.00">[table]</text>
<polygon fill="none" stroke="black" points="8.5,-123 8.5,-145 143.5,-145 143.5,-123 8.5,-123"/>
<image xlink:href="../../images/primaryKeys.png" width="11px" height="12px" preserveAspectRatio="xMinYMin meet" x="13.5" y="-140"/>
<text text-anchor="start" x="28.5" y="-131.2" font-family="Helvetica,sans-Serif" font-size="11.00">edition_id</text>
<polygon fill="#ffffff" stroke="transparent" points="8.5,-101 8.5,-123 143.5,-123 143.5,-101 8.5,-101"/>
<polygon fill="none" stroke="black" points="8.5,-101 8.5,-123 143.5,-123 143.5,-101 8.5,-101"/>
<image xlink:href="../../images/foreignKeys.png" width="11px" height="12px" preserveAspectRatio="xMinYMin meet" x="13.5" y="-118"/>
<text text-anchor="start" x="28.5" y="-109.2" font-family="Helvetica,sans-Serif" font-size="11.00">manuscript_id</text>
<polygon fill="none" stroke="black" points="8.5,-83 8.5,-101 143.5,-101 143.5,-83 8.5,-83"/>
<text text-anchor="start" x="11.5" y="-89.2" font-family="Helvetica,sans-Serif" font-size="11.00">...</text>
<polygon fill="#ffffff" stroke="transparent" points="8.5,-65 8.5,-83 38.5,-83 38.5,-65 8.5,-65"/>
<polygon fill="none" stroke="black" points="8.5,-65 8.5,-83 38.5,-83 38.5,-65 8.5,-65"/>
<text text-anchor="start" x="11.5" y="-71.2" font-family="Helvetica,sans-Serif" font-size="11.00">&lt; 1</text>
<polygon fill="#ffffff" stroke="transparent" points="38.5,-65 38.5,-83 107.5,-83 107.5,-65 38.5,-65"/>
<polygon fill="none" stroke="black" points="38.5,-65 38.5,-83 107.5,-83 107.5,-65 38.5,-65"/>
<text text-anchor="start" x="43.5" y="-71.2" font-family="Helvetica,sans-Serif" font-size="11.00">1,645 rows</text>
<polygon fill="#ffffff" stroke="transparent" points="107.5,-65 107.5,-83 143.5,-83 143.5,-65 107.5,-65"/>
<polygon fill="none" stroke="black" points="107.5,-65 107.5,-83 143.5,-83 143.5,-65 107.5,-65"/>
<text text-anchor="start" x="113.5" y="-71.2" font-family="Helvetica,sans-Serif" font-size="11.00">35 &gt;</text>
</a>
</g>
</g>
<!-- artefact_status_owner&#45;&gt;edition -->
<g id="edge3" class="edge">
<title>artefact_status_owner:w&#45;&gt;edition:e</title>
<path fill="none" stroke="black" d="M372.2,-185.21C293.04,-187.46 262.05,-206.39 184,-172 161.71,-162.18 168.86,-134 144.5,-134"/>
<polygon fill="black" stroke="black" points="379,-185.11 387.05,-188.6 383,-185.06 387,-185 387,-185 387,-185 383,-185.06 386.95,-181.4 379,-185.11 379,-185.11"/>
<ellipse fill="none" stroke="black" cx="375.8" cy="-185.16" rx="3.2" ry="3.2"/>
</g>
<!-- edition_editor&#45;&gt;edition -->
<g id="edge4" class="edge">
<title>edition_editor:w&#45;&gt;edition:e</title>
<path fill="none" stroke="black" d="M181.73,-88.61C166.88,-100.99 170.29,-134 144.5,-134"/>
<polygon fill="black" stroke="black" points="187.91,-86.54 196.64,-87.41 191.71,-85.27 195.5,-84 195.5,-84 195.5,-84 191.71,-85.27 194.36,-80.59 187.91,-86.54 187.91,-86.54"/>
<ellipse fill="none" stroke="black" cx="184.88" cy="-87.56" rx="3.2" ry="3.2"/>
</g>
</g>
</svg>
