<?xml version="1.0" encoding="UTF-8" standalone="no"?>
<!DOCTYPE svg PUBLIC "-//W3C//DTD SVG 1.1//EN"
 "http://www.w3.org/Graphics/SVG/1.1/DTD/svg11.dtd">
<!-- Generated by graphviz version 2.40.1 (20161225.0304)
 -->
<!-- Title: oneDegreeRelationshipsDiagram Pages: 1 -->
<svg width="724pt" height="345pt"
 viewBox="0.00 0.00 724.00 345.00" xmlns="http://www.w3.org/2000/svg" xmlns:xlink="http://www.w3.org/1999/xlink">
<g id="graph0" class="graph" transform="scale(1 1) rotate(0) translate(4 341)">
<title>oneDegreeRelationshipsDiagram</title>
<polygon fill="#ffffff" stroke="transparent" points="-4,4 -4,-341 720,-341 720,4 -4,4"/>
<text text-anchor="middle" x="71.5" y="-7.2" font-family="Helvetica,sans-Serif" font-size="11.00" fill="#000000">Generated by SchemaSpy</text>
<!-- artefact_group_data_owner -->
<g id="node1" class="node">
<title>artefact_group_data_owner</title>
<g id="a_node1"><a xlink:href="../../tables/artefact_group_data_owner.html" xlink:title="artefact_group_data_owner" target="_top">
<polygon fill="#ffffff" stroke="transparent" points="417,-132 417,-242 708,-242 708,-132 417,-132"/>
<polygon fill="#f5f5f5" stroke="transparent" points="419.5,-218 419.5,-240 706.5,-240 706.5,-218 419.5,-218"/>
<polygon fill="none" stroke="#000000" points="419.5,-218 419.5,-240 706.5,-240 706.5,-218 419.5,-218"/>
<text text-anchor="start" x="424.5" y="-227.2" font-family="Helvetica,sans-Serif" font-weight="bold" font-size="11.00" fill="#000000">artefact_group_data_owner</text>
<text text-anchor="start" x="671.5" y="-226.2" font-family="Helvetica,sans-Serif" font-size="11.00" fill="#000000">[table]</text>
<polygon fill="none" stroke="#000000" points="419.5,-196 419.5,-218 624.5,-218 624.5,-196 419.5,-196"/>
<image xlink:href="../../images/primaryKeys.png" width="11px" height="12px" preserveAspectRatio="xMinYMin meet" x="424.5" y="-213"/>
<text text-anchor="start" x="439.5" y="-204.2" font-family="Helvetica,sans-Serif" font-size="11.00" fill="#000000">artefact_group_data_id</text>
<polygon fill="none" stroke="#000000" points="624.5,-196 624.5,-218 706.5,-218 706.5,-196 624.5,-196"/>
<text text-anchor="start" x="627.5" y="-204.2" font-family="Helvetica,sans-Serif" font-size="11.00" fill="#000000">int unsigned[10]</text>
<polygon fill="none" stroke="#000000" points="419.5,-174 419.5,-196 624.5,-196 624.5,-174 419.5,-174"/>
<image xlink:href="../../images/primaryKeys.png" width="11px" height="12px" preserveAspectRatio="xMinYMin meet" x="424.5" y="-191"/>
<text text-anchor="start" x="439.5" y="-182.2" font-family="Helvetica,sans-Serif" font-size="11.00" fill="#000000">edition_id</text>
<polygon fill="none" stroke="#000000" points="624.5,-174 624.5,-196 706.5,-196 706.5,-174 624.5,-174"/>
<text text-anchor="start" x="627.5" y="-182.2" font-family="Helvetica,sans-Serif" font-size="11.00" fill="#000000">int unsigned[10]</text>
<polygon fill="#ffffff" stroke="transparent" points="419.5,-152 419.5,-174 624.5,-174 624.5,-152 419.5,-152"/>
<polygon fill="none" stroke="#000000" points="419.5,-152 419.5,-174 624.5,-174 624.5,-152 419.5,-152"/>
<image xlink:href="../../images/foreignKeys.png" width="11px" height="12px" preserveAspectRatio="xMinYMin meet" x="424.5" y="-169"/>
<text text-anchor="start" x="439.5" y="-160.2" font-family="Helvetica,sans-Serif" font-size="11.00" fill="#000000">edition_editor_id</text>
<polygon fill="none" stroke="#000000" points="624.5,-152 624.5,-174 706.5,-174 706.5,-152 624.5,-152"/>
<text text-anchor="start" x="627.5" y="-160.2" font-family="Helvetica,sans-Serif" font-size="11.00" fill="#000000">int unsigned[10]</text>
<polygon fill="#ffffff" stroke="transparent" points="419.5,-134 419.5,-152 513.5,-152 513.5,-134 419.5,-134"/>
<polygon fill="none" stroke="#000000" points="419.5,-134 419.5,-152 513.5,-152 513.5,-134 419.5,-134"/>
<text text-anchor="start" x="422.5" y="-140.2" font-family="Helvetica,sans-Serif" font-size="11.00" fill="#000000">&lt; 3</text>
<polygon fill="#ffffff" stroke="transparent" points="513.5,-134 513.5,-152 624.5,-152 624.5,-134 513.5,-134"/>
<polygon fill="none" stroke="#000000" points="513.5,-134 513.5,-152 624.5,-152 624.5,-134 513.5,-134"/>
<text text-anchor="start" x="588.5" y="-140.2" font-family="Helvetica,sans-Serif" font-size="11.00" fill="#000000">0 rows</text>
<polygon fill="#ffffff" stroke="transparent" points="624.5,-134 624.5,-152 706.5,-152 706.5,-134 624.5,-134"/>
<polygon fill="none" stroke="#000000" points="624.5,-134 624.5,-152 706.5,-152 706.5,-134 624.5,-134"/>
<text text-anchor="start" x="687.5" y="-140.2" font-family="Helvetica,sans-Serif" font-size="11.00" fill="#000000">0 &gt;</text>
<polygon fill="none" stroke="#000000" stroke-width="2" points="418,-133 418,-241 707,-241 707,-133 418,-133"/>
</a>
</g>
</g>
<!-- artefact_group_data -->
<g id="node2" class="node">
<title>artefact_group_data</title>
<g id="a_node2"><a xlink:href="../../tables/artefact_group_data.html" xlink:title="artefact_group_data" target="_top">
<polygon fill="#ffffff" stroke="transparent" points="192,-209 192,-333 368,-333 368,-209 192,-209"/>
<polygon fill="#f5f5f5" stroke="transparent" points="192,-311 192,-333 368,-333 368,-311 192,-311"/>
<polygon fill="none" stroke="#000000" points="192,-311 192,-333 368,-333 368,-311 192,-311"/>
<text text-anchor="start" x="197" y="-320.2" font-family="Helvetica,sans-Serif" font-weight="bold" font-size="11.00" fill="#000000">artefact_group_data</text>
<text text-anchor="start" x="333" y="-319.2" font-family="Helvetica,sans-Serif" font-size="11.00" fill="#000000">[table]</text>
<polygon fill="none" stroke="#000000" points="192,-289 192,-311 368,-311 368,-289 192,-289"/>
<image xlink:href="../../images/primaryKeys.png" width="11px" height="12px" preserveAspectRatio="xMinYMin meet" x="197" y="-306"/>
<text text-anchor="start" x="212" y="-297.2" font-family="Helvetica,sans-Serif" font-size="11.00" fill="#000000">artefact_group_data_id</text>
<polygon fill="#ffffff" stroke="transparent" points="192,-267 192,-289 368,-289 368,-267 192,-267"/>
<polygon fill="none" stroke="#000000" points="192,-267 192,-289 368,-289 368,-267 192,-267"/>
<image xlink:href="../../images/foreignKeys.png" width="11px" height="12px" preserveAspectRatio="xMinYMin meet" x="197" y="-284"/>
<text text-anchor="start" x="212" y="-275.2" font-family="Helvetica,sans-Serif" font-size="11.00" fill="#000000">artefact_group_id</text>
<polygon fill="#ffffff" stroke="transparent" points="192,-245 192,-267 368,-267 368,-245 192,-245"/>
<polygon fill="none" stroke="#000000" points="192,-245 192,-267 368,-267 368,-245 192,-245"/>
<image xlink:href="../../images/foreignKeys.png" width="11px" height="12px" preserveAspectRatio="xMinYMin meet" x="197" y="-262"/>
<text text-anchor="start" x="212" y="-253.2" font-family="Helvetica,sans-Serif" font-size="11.00" fill="#000000">creator_id</text>
<polygon fill="none" stroke="#000000" points="192,-227 192,-245 368,-245 368,-227 192,-227"/>
<text text-anchor="start" x="195" y="-233.2" font-family="Helvetica,sans-Serif" font-size="11.00" fill="#000000">...</text>
<polygon fill="#ffffff" stroke="transparent" points="192,-209 192,-227 260,-227 260,-209 192,-209"/>
<polygon fill="none" stroke="#000000" points="192,-209 192,-227 260,-227 260,-209 192,-209"/>
<text text-anchor="start" x="195" y="-215.2" font-family="Helvetica,sans-Serif" font-size="11.00" fill="#000000">&lt; 2</text>
<polygon fill="#ffffff" stroke="transparent" points="260,-209 260,-227 322,-227 322,-209 260,-209"/>
<polygon fill="none" stroke="#000000" points="260,-209 260,-227 322,-227 322,-209 260,-209"/>
<text text-anchor="start" x="286" y="-215.2" font-family="Helvetica,sans-Serif" font-size="11.00" fill="#000000">0 rows</text>
<polygon fill="#ffffff" stroke="transparent" points="322,-209 322,-227 368,-227 368,-209 322,-209"/>
<polygon fill="none" stroke="#000000" points="322,-209 322,-227 368,-227 368,-209 322,-209"/>
<text text-anchor="start" x="349" y="-215.2" font-family="Helvetica,sans-Serif" font-size="11.00" fill="#000000">1 &gt;</text>
</a>
</g>
</g>
<!-- artefact_group_data_owner&#45;&gt;artefact_group_data -->
<g id="edge1" class="edge">
<title>artefact_group_data_owner:w&#45;&gt;artefact_group_data:e</title>
<path fill="none" stroke="#000000" d="M405.6597,-210.9961C381.5911,-228.7969 409.3417,-300 368,-300"/>
<polygon fill="#000000" stroke="#000000" points="411.814,-209.2192 420.4987,-210.4587 415.657,-208.1096 419.5,-207 419.5,-207 419.5,-207 415.657,-208.1096 418.5013,-203.5413 411.814,-209.2192 411.814,-209.2192"/>
<ellipse fill="none" stroke="#000000" cx="408.7395" cy="-210.1069" rx="3.2" ry="3.2"/>
</g>
<!-- edition_editor -->
<g id="node3" class="node">
<title>edition_editor</title>
<g id="a_node3"><a xlink:href="../../tables/edition_editor.html" xlink:title="edition_editor" target="_top">
<polygon fill="#ffffff" stroke="transparent" points="213.5,-37 213.5,-161 346.5,-161 346.5,-37 213.5,-37"/>
<polygon fill="#f5f5f5" stroke="transparent" points="214,-139 214,-161 347,-161 347,-139 214,-139"/>
<polygon fill="none" stroke="#000000" points="214,-139 214,-161 347,-161 347,-139 214,-139"/>
<text text-anchor="start" x="219" y="-148.2" font-family="Helvetica,sans-Serif" font-weight="bold" font-size="11.00" fill="#000000">edition_editor</text>
<text text-anchor="start" x="312" y="-147.2" font-family="Helvetica,sans-Serif" font-size="11.00" fill="#000000">[table]</text>
<polygon fill="none" stroke="#000000" points="214,-117 214,-139 347,-139 347,-117 214,-117"/>
<image xlink:href="../../images/primaryKeys.png" width="11px" height="12px" preserveAspectRatio="xMinYMin meet" x="219" y="-134"/>
<text text-anchor="start" x="234" y="-125.2" font-family="Helvetica,sans-Serif" font-size="11.00" fill="#000000">edition_editor_id</text>
<polygon fill="#ffffff" stroke="transparent" points="214,-95 214,-117 347,-117 347,-95 214,-95"/>
<polygon fill="none" stroke="#000000" points="214,-95 214,-117 347,-117 347,-95 214,-95"/>
<image xlink:href="../../images/foreignKeys.png" width="11px" height="12px" preserveAspectRatio="xMinYMin meet" x="219" y="-112"/>
<text text-anchor="start" x="234" y="-103.2" font-family="Helvetica,sans-Serif" font-size="11.00" fill="#000000">user_id</text>
<polygon fill="#ffffff" stroke="transparent" points="214,-73 214,-95 347,-95 347,-73 214,-73"/>
<polygon fill="none" stroke="#000000" points="214,-73 214,-95 347,-95 347,-73 214,-73"/>
<image xlink:href="../../images/foreignKeys.png" width="11px" height="12px" preserveAspectRatio="xMinYMin meet" x="219" y="-90"/>
<text text-anchor="start" x="234" y="-81.2" font-family="Helvetica,sans-Serif" font-size="11.00" fill="#000000">edition_id</text>
<polygon fill="none" stroke="#000000" points="214,-55 214,-73 347,-73 347,-55 214,-55"/>
<text text-anchor="start" x="217" y="-61.2" font-family="Helvetica,sans-Serif" font-size="11.00" fill="#000000">...</text>
<polygon fill="#ffffff" stroke="transparent" points="214,-37 214,-55 247,-55 247,-37 214,-37"/>
<polygon fill="none" stroke="#000000" points="214,-37 214,-55 247,-55 247,-37 214,-37"/>
<text text-anchor="start" x="217" y="-43.2" font-family="Helvetica,sans-Serif" font-size="11.00" fill="#000000">&lt; 2</text>
<polygon fill="#ffffff" stroke="transparent" points="247,-37 247,-55 313,-55 313,-37 247,-37"/>
<polygon fill="none" stroke="#000000" points="247,-37 247,-55 313,-55 313,-37 247,-37"/>
<text text-anchor="start" x="256" y="-43.2" font-family="Helvetica,sans-Serif" font-size="11.00" fill="#000000">1,645 rows</text>
<polygon fill="#ffffff" stroke="transparent" points="313,-37 313,-55 347,-55 347,-37 313,-37"/>
<polygon fill="none" stroke="#000000" points="313,-37 313,-55 347,-55 347,-37 313,-37"/>
<text text-anchor="start" x="322" y="-43.2" font-family="Helvetica,sans-Serif" font-size="11.00" fill="#000000">30 &gt;</text>
</a>
</g>
</g>
<!-- artefact_group_data_owner&#45;&gt;edition_editor -->
<g id="edge2" class="edge">
<title>artefact_group_data_owner:w&#45;&gt;edition_editor:e</title>
<path fill="none" stroke="#000000" d="M405.0139,-160.7036C382.5754,-152.917 377.1898,-128 347,-128"/>
<polygon fill="#000000" stroke="#000000" points="411.5987,-161.7474 418.9363,-166.5556 415.5493,-162.3737 419.5,-163 419.5,-163 419.5,-163 415.5493,-162.3737 420.0637,-159.4444 411.5987,-161.7474 411.5987,-161.7474"/>
<ellipse fill="none" stroke="#000000" cx="408.4381" cy="-161.2463" rx="3.2" ry="3.2"/>
</g>
<!-- edition -->
<g id="node4" class="node">
<title>edition</title>
<g id="a_node4"><a xlink:href="../../tables/edition.html" xlink:title="edition" target="_top">
<polygon fill="#ffffff" stroke="transparent" points="8,-65 8,-167 143,-167 143,-65 8,-65"/>
<polygon fill="#f5f5f5" stroke="transparent" points="8.5,-145 8.5,-167 143.5,-167 143.5,-145 8.5,-145"/>
<polygon fill="none" stroke="#000000" points="8.5,-145 8.5,-167 143.5,-167 143.5,-145 8.5,-145"/>
<text text-anchor="start" x="13.5" y="-154.2" font-family="Helvetica,sans-Serif" font-weight="bold" font-size="11.00" fill="#000000">edition</text>
<text text-anchor="start" x="108.5" y="-153.2" font-family="Helvetica,sans-Serif" font-size="11.00" fill="#000000">[table]</text>
<polygon fill="none" stroke="#000000" points="8.5,-123 8.5,-145 143.5,-145 143.5,-123 8.5,-123"/>
<image xlink:href="../../images/primaryKeys.png" width="11px" height="12px" preserveAspectRatio="xMinYMin meet" x="13.5" y="-140"/>
<text text-anchor="start" x="28.5" y="-131.2" font-family="Helvetica,sans-Serif" font-size="11.00" fill="#000000">edition_id</text>
<polygon fill="#ffffff" stroke="transparent" points="8.5,-101 8.5,-123 143.5,-123 143.5,-101 8.5,-101"/>
<polygon fill="none" stroke="#000000" points="8.5,-101 8.5,-123 143.5,-123 143.5,-101 8.5,-101"/>
<image xlink:href="../../images/foreignKeys.png" width="11px" height="12px" preserveAspectRatio="xMinYMin meet" x="13.5" y="-118"/>
<text text-anchor="start" x="28.5" y="-109.2" font-family="Helvetica,sans-Serif" font-size="11.00" fill="#000000">manuscript_id</text>
<polygon fill="none" stroke="#000000" points="8.5,-83 8.5,-101 143.5,-101 143.5,-83 8.5,-83"/>
<text text-anchor="start" x="11.5" y="-89.2" font-family="Helvetica,sans-Serif" font-size="11.00" fill="#000000">...</text>
<polygon fill="#ffffff" stroke="transparent" points="8.5,-65 8.5,-83 42.5,-83 42.5,-65 8.5,-65"/>
<polygon fill="none" stroke="#000000" points="8.5,-65 8.5,-83 42.5,-83 42.5,-65 8.5,-65"/>
<text text-anchor="start" x="11.5" y="-71.2" font-family="Helvetica,sans-Serif" font-size="11.00" fill="#000000">&lt; 1</text>
<polygon fill="#ffffff" stroke="transparent" points="42.5,-65 42.5,-83 108.5,-83 108.5,-65 42.5,-65"/>
<polygon fill="none" stroke="#000000" points="42.5,-65 42.5,-83 108.5,-83 108.5,-65 42.5,-65"/>
<text text-anchor="start" x="51.5" y="-71.2" font-family="Helvetica,sans-Serif" font-size="11.00" fill="#000000">1,645 rows</text>
<polygon fill="#ffffff" stroke="transparent" points="108.5,-65 108.5,-83 143.5,-83 143.5,-65 108.5,-65"/>
<polygon fill="none" stroke="#000000" points="108.5,-65 108.5,-83 143.5,-83 143.5,-65 108.5,-65"/>
<text text-anchor="start" x="118.5" y="-71.2" font-family="Helvetica,sans-Serif" font-size="11.00" fill="#000000">32 &gt;</text>
</a>
</g>
</g>
<!-- artefact_group_data_owner&#45;&gt;edition -->
<g id="edge3" class="edge">
<title>artefact_group_data_owner:w&#45;&gt;edition:e</title>
<path fill="none" stroke="#000000" d="M404.9217,-185.1833C311.2491,-187.5437 275.7609,-211.2677 184,-172 161.3078,-162.2892 168.1827,-134 143.5,-134"/>
<polygon fill="#000000" stroke="#000000" points="411.5006,-185.1006 419.5453,-188.5997 415.5003,-185.0503 419.5,-185 419.5,-185 419.5,-185 415.5003,-185.0503 419.4547,-181.4003 411.5006,-185.1006 411.5006,-185.1006"/>
<ellipse fill="none" stroke="#000000" cx="408.3009" cy="-185.1409" rx="3.2" ry="3.2"/>
</g>
<!-- edition_editor&#45;&gt;edition -->
<g id="edge4" class="edge">
<title>edition_editor:w&#45;&gt;edition:e</title>
<path fill="none" stroke="#000000" d="M199.8778,-86.8315C176.4808,-97.4087 176.3616,-134 143.5,-134"/>
<polygon fill="#000000" stroke="#000000" points="206.1561,-85.5727 214.7077,-87.5298 210.0781,-84.7864 214,-84 214,-84 214,-84 210.0781,-84.7864 213.2923,-80.4702 206.1561,-85.5727 206.1561,-85.5727"/>
<ellipse fill="none" stroke="#000000" cx="203.0185" cy="-86.2018" rx="3.2" ry="3.2"/>
</g>
</g>
</svg>
