<?xml version="1.0" encoding="UTF-8" standalone="no"?>
<!DOCTYPE svg PUBLIC "-//W3C//DTD SVG 1.1//EN"
 "http://www.w3.org/Graphics/SVG/1.1/DTD/svg11.dtd">
<!-- Generated by graphviz version 2.43.0 (0)
 -->
<!-- Title: twoDegreesRelationshipsDiagram Pages: 1 -->
<svg width="907pt" height="395pt"
 viewBox="0.00 0.00 907.00 395.00" xmlns="http://www.w3.org/2000/svg" xmlns:xlink="http://www.w3.org/1999/xlink">
<g id="graph0" class="graph" transform="scale(1 1) rotate(0) translate(4 391)">
<title>twoDegreesRelationshipsDiagram</title>
<polygon fill="#ffffff" stroke="transparent" points="-4,4 -4,-391 903,-391 903,4 -4,4"/>
<text text-anchor="middle" x="79.5" y="-7.2" font-family="Helvetica,sans-Serif" font-size="11.00">Generated by SchemaSpy</text>
<!-- attribute_value -->
<g id="node1" class="node">
<title>attribute_value</title>
<g id="a_node1"><a xlink:href="../../tables/attribute_value.html" xlink:title="attribute_value" target="_top">
<polygon fill="#ffffff" stroke="transparent" points="163,-130 163,-254 308,-254 308,-130 163,-130"/>
<polygon fill="#f5f5f5" stroke="transparent" points="163.5,-232 163.5,-254 308.5,-254 308.5,-232 163.5,-232"/>
<polygon fill="none" stroke="black" points="163.5,-232 163.5,-254 308.5,-254 308.5,-232 163.5,-232"/>
<text text-anchor="start" x="168.5" y="-241.2" font-family="Helvetica,sans-Serif" font-weight="bold" font-size="11.00">attribute_value</text>
<text text-anchor="start" x="266.5" y="-240.2" font-family="Helvetica,sans-Serif" font-size="11.00">[table]</text>
<polygon fill="none" stroke="black" points="163.5,-210 163.5,-232 308.5,-232 308.5,-210 163.5,-210"/>
<image xlink:href="../../images/primaryKeys.png" width="11px" height="12px" preserveAspectRatio="xMinYMin meet" x="168.5" y="-227"/>
<text text-anchor="start" x="184.5" y="-218.2" font-family="Helvetica,sans-Serif" font-size="11.00">attribute_value_id</text>
<polygon fill="#ffffff" stroke="transparent" points="163.5,-188 163.5,-210 308.5,-210 308.5,-188 163.5,-188"/>
<polygon fill="none" stroke="black" points="163.5,-188 163.5,-210 308.5,-210 308.5,-188 163.5,-188"/>
<image xlink:href="../../images/foreignKeys.png" width="11px" height="12px" preserveAspectRatio="xMinYMin meet" x="168.5" y="-205"/>
<text text-anchor="start" x="184.5" y="-196.2" font-family="Helvetica,sans-Serif" font-size="11.00">attribute_id</text>
<polygon fill="#ffffff" stroke="transparent" points="163.5,-166 163.5,-188 308.5,-188 308.5,-166 163.5,-166"/>
<polygon fill="none" stroke="black" points="163.5,-166 163.5,-188 308.5,-188 308.5,-166 163.5,-166"/>
<text text-anchor="start" x="184.5" y="-174.2" font-family="Helvetica,sans-Serif" font-size="11.00">string_value</text>
<polygon fill="none" stroke="black" points="163.5,-148 163.5,-166 308.5,-166 308.5,-148 163.5,-148"/>
<text text-anchor="start" x="166.5" y="-154.2" font-family="Helvetica,sans-Serif" font-size="11.00">...</text>
<polygon fill="#ffffff" stroke="transparent" points="163.5,-130 163.5,-148 210.5,-148 210.5,-130 163.5,-130"/>
<polygon fill="none" stroke="black" points="163.5,-130 163.5,-148 210.5,-148 210.5,-130 163.5,-130"/>
<text text-anchor="start" x="166.5" y="-136.2" font-family="Helvetica,sans-Serif" font-size="11.00">&lt; 1</text>
<polygon fill="#ffffff" stroke="transparent" points="210.5,-130 210.5,-148 271.5,-148 271.5,-130 210.5,-130"/>
<polygon fill="none" stroke="black" points="210.5,-130 210.5,-148 271.5,-148 271.5,-130 210.5,-130"/>
<text text-anchor="start" x="224.5" y="-136.2" font-family="Helvetica,sans-Serif" font-size="11.00">44 rows</text>
<polygon fill="#ffffff" stroke="transparent" points="271.5,-130 271.5,-148 308.5,-148 308.5,-130 271.5,-130"/>
<polygon fill="none" stroke="black" points="271.5,-130 271.5,-148 308.5,-148 308.5,-130 271.5,-130"/>
<text text-anchor="start" x="285.5" y="-136.2" font-family="Helvetica,sans-Serif" font-size="11.00">3 &gt;</text>
</a>
</g>
</g>
<!-- attribute -->
<g id="node2" class="node">
<title>attribute</title>
<g id="a_node2"><a xlink:href="../../tables/attribute.html" xlink:title="attribute" target="_top">
<polygon fill="#ffffff" stroke="transparent" points="8,-172 8,-230 114,-230 114,-172 8,-172"/>
<polygon fill="#f5f5f5" stroke="transparent" points="8,-208 8,-230 114,-230 114,-208 8,-208"/>
<polygon fill="none" stroke="black" points="8,-208 8,-230 114,-230 114,-208 8,-208"/>
<text text-anchor="start" x="13" y="-217.2" font-family="Helvetica,sans-Serif" font-weight="bold" font-size="11.00">attribute</text>
<text text-anchor="start" x="72" y="-216.2" font-family="Helvetica,sans-Serif" font-size="11.00">[table]</text>
<polygon fill="none" stroke="black" points="8,-190 8,-208 114,-208 114,-190 8,-190"/>
<text text-anchor="start" x="11" y="-196.2" font-family="Helvetica,sans-Serif" font-size="11.00">...</text>
<polygon fill="#ffffff" stroke="transparent" points="8,-172 8,-190 33,-190 33,-172 8,-172"/>
<polygon fill="none" stroke="black" points="8,-172 8,-190 33,-190 33,-172 8,-172"/>
<text text-anchor="start" x="11" y="-178.2" font-family="Helvetica,sans-Serif" font-size="11.00"> &#160;</text>
<polygon fill="#ffffff" stroke="transparent" points="33,-172 33,-190 82,-190 82,-172 33,-172"/>
<polygon fill="none" stroke="black" points="33,-172 33,-190 82,-190 82,-172 33,-172"/>
<text text-anchor="start" x="42" y="-178.2" font-family="Helvetica,sans-Serif" font-size="11.00">9 rows</text>
<polygon fill="#ffffff" stroke="transparent" points="82,-172 82,-190 114,-190 114,-172 82,-172"/>
<polygon fill="none" stroke="black" points="82,-172 82,-190 114,-190 114,-172 82,-172"/>
<text text-anchor="start" x="91" y="-178.2" font-family="Helvetica,sans-Serif" font-size="11.00">3 &gt;</text>
</a>
</g>
</g>
<!-- attribute_value&#45;&gt;attribute -->
<g id="edge1" class="edge">
<title>attribute_value:w&#45;&gt;attribute:e</title>
<path fill="none" stroke="black" d="M148.09,-199C137.32,-199 130.34,-199 115,-199"/>
<polygon fill="black" stroke="black" points="154.5,-199 162.5,-202.6 158.5,-199 162.5,-199 162.5,-199 162.5,-199 158.5,-199 162.5,-195.4 154.5,-199 154.5,-199"/>
<ellipse fill="none" stroke="black" cx="151.3" cy="-199" rx="3.2" ry="3.2"/>
</g>
<!-- attribute_value_css -->
<g id="node3" class="node">
<title>attribute_value_css</title>
<g id="a_node3"><a xlink:href="../../tables/attribute_value_css.html" xlink:title="attribute_value_css" target="_top">
<polygon fill="#ffffff" stroke="transparent" points="357,-273 357,-383 628,-383 628,-273 357,-273"/>
<polygon fill="#f5f5f5" stroke="transparent" points="359.5,-359 359.5,-381 626.5,-381 626.5,-359 359.5,-359"/>
<polygon fill="none" stroke="black" points="359.5,-359 359.5,-381 626.5,-381 626.5,-359 359.5,-359"/>
<text text-anchor="start" x="364.5" y="-368.2" font-family="Helvetica,sans-Serif" font-weight="bold" font-size="11.00">attribute_value_css</text>
<text text-anchor="start" x="584.5" y="-367.2" font-family="Helvetica,sans-Serif" font-size="11.00">[table]</text>
<polygon fill="none" stroke="black" points="359.5,-337 359.5,-359 529.5,-359 529.5,-337 359.5,-337"/>
<image xlink:href="../../images/primaryKeys.png" width="11px" height="12px" preserveAspectRatio="xMinYMin meet" x="364.5" y="-354"/>
<text text-anchor="start" x="379.5" y="-345.2" font-family="Helvetica,sans-Serif" font-size="11.00">attribute_value_css_id</text>
<polygon fill="none" stroke="black" points="529.5,-337 529.5,-359 626.5,-359 626.5,-337 529.5,-337"/>
<text text-anchor="start" x="532.5" y="-345.2" font-family="Helvetica,sans-Serif" font-size="11.00">int unsigned[10]</text>
<polygon fill="#ffffff" stroke="transparent" points="359.5,-315 359.5,-337 529.5,-337 529.5,-315 359.5,-315"/>
<polygon fill="none" stroke="black" points="359.5,-315 359.5,-337 529.5,-337 529.5,-315 359.5,-315"/>
<image xlink:href="../../images/foreignKeys.png" width="11px" height="12px" preserveAspectRatio="xMinYMin meet" x="364.5" y="-332"/>
<text text-anchor="start" x="379.5" y="-323.2" font-family="Helvetica,sans-Serif" font-size="11.00">attribute_value_id</text>
<polygon fill="none" stroke="black" points="529.5,-315 529.5,-337 626.5,-337 626.5,-315 529.5,-315"/>
<text text-anchor="start" x="532.5" y="-323.2" font-family="Helvetica,sans-Serif" font-size="11.00">int unsigned[10]</text>
<polygon fill="#ffffff" stroke="transparent" points="359.5,-293 359.5,-315 529.5,-315 529.5,-293 359.5,-293"/>
<polygon fill="none" stroke="black" points="359.5,-293 359.5,-315 529.5,-315 529.5,-293 359.5,-293"/>
<text text-anchor="start" x="379.5" y="-301.2" font-family="Helvetica,sans-Serif" font-size="11.00">css</text>
<polygon fill="none" stroke="black" points="529.5,-293 529.5,-315 626.5,-315 626.5,-293 529.5,-293"/>
<text text-anchor="start" x="532.5" y="-301.2" font-family="Helvetica,sans-Serif" font-size="11.00">varchar[255]</text>
<polygon fill="#ffffff" stroke="transparent" points="359.5,-275 359.5,-293 435.5,-293 435.5,-275 359.5,-275"/>
<polygon fill="none" stroke="black" points="359.5,-275 359.5,-293 435.5,-293 435.5,-275 359.5,-275"/>
<text text-anchor="start" x="362.5" y="-281.2" font-family="Helvetica,sans-Serif" font-size="11.00">&lt; 1</text>
<polygon fill="#ffffff" stroke="transparent" points="435.5,-275 435.5,-293 529.5,-293 529.5,-275 435.5,-275"/>
<polygon fill="none" stroke="black" points="435.5,-275 435.5,-293 529.5,-293 529.5,-275 435.5,-275"/>
<text text-anchor="start" x="489.5" y="-281.2" font-family="Helvetica,sans-Serif" font-size="11.00">0 rows</text>
<polygon fill="#ffffff" stroke="transparent" points="529.5,-275 529.5,-293 626.5,-293 626.5,-275 529.5,-275"/>
<polygon fill="none" stroke="black" points="529.5,-275 529.5,-293 626.5,-293 626.5,-275 529.5,-275"/>
<text text-anchor="start" x="603.5" y="-281.2" font-family="Helvetica,sans-Serif" font-size="11.00">1 &gt;</text>
<polygon fill="none" stroke="black" stroke-width="2" points="358,-274 358,-382 627,-382 627,-274 358,-274"/>
</a>
</g>
</g>
<!-- attribute_value_css&#45;&gt;attribute_value -->
<g id="edge2" class="edge">
<title>attribute_value_css:w&#45;&gt;attribute_value:e</title>
<path fill="none" stroke="black" d="M344.4,-322.01C318.21,-302.83 354.96,-221 309.5,-221"/>
<polygon fill="black" stroke="black" points="350.8,-323.82 357.52,-329.46 354.65,-324.91 358.5,-326 358.5,-326 358.5,-326 354.65,-324.91 359.48,-322.54 350.8,-323.82 350.8,-323.82"/>
<ellipse fill="none" stroke="black" cx="347.72" cy="-322.95" rx="3.2" ry="3.2"/>
</g>
<!-- attribute_value_css_owner -->
<g id="node4" class="node">
<title>attribute_value_css_owner</title>
<g id="a_node4"><a xlink:href="../../tables/attribute_value_css_owner.html" xlink:title="attribute_value_css_owner" target="_top">
<polygon fill="#ffffff" stroke="transparent" points="677,-117 677,-223 891,-223 891,-117 677,-117"/>
<polygon fill="#f5f5f5" stroke="transparent" points="677,-201 677,-223 891,-223 891,-201 677,-201"/>
<polygon fill="none" stroke="black" points="677,-201 677,-223 891,-223 891,-201 677,-201"/>
<text text-anchor="start" x="682" y="-210.2" font-family="Helvetica,sans-Serif" font-weight="bold" font-size="11.00">attribute_value_css_owner</text>
<text text-anchor="start" x="849" y="-209.2" font-family="Helvetica,sans-Serif" font-size="11.00">[table]</text>
<polygon fill="none" stroke="black" points="677,-179 677,-201 891,-201 891,-179 677,-179"/>
<image xlink:href="../../images/primaryKeys.png" width="11px" height="12px" preserveAspectRatio="xMinYMin meet" x="682" y="-196"/>
<text text-anchor="start" x="705" y="-187.2" font-family="Helvetica,sans-Serif" font-size="11.00">attribute_value_css_id</text>
<polygon fill="#ffffff" stroke="transparent" points="677,-157 677,-179 891,-179 891,-157 677,-157"/>
<polygon fill="none" stroke="black" points="677,-157 677,-179 891,-179 891,-157 677,-157"/>
<image xlink:href="../../images/foreignKeys.png" width="11px" height="12px" preserveAspectRatio="xMinYMin meet" x="682" y="-174"/>
<text text-anchor="start" x="705" y="-165.2" font-family="Helvetica,sans-Serif" font-size="11.00">edition_editor_id</text>
<polygon fill="none" stroke="black" points="677,-135 677,-157 891,-157 891,-135 677,-135"/>
<image xlink:href="../../images/primaryKeys.png" width="11px" height="12px" preserveAspectRatio="xMinYMin meet" x="682" y="-152"/>
<text text-anchor="start" x="705" y="-143.2" font-family="Helvetica,sans-Serif" font-size="11.00">edition_id</text>
<polygon fill="#ffffff" stroke="transparent" points="677,-117 677,-135 768,-135 768,-117 677,-117"/>
<polygon fill="none" stroke="black" points="677,-117 677,-135 768,-135 768,-117 677,-117"/>
<text text-anchor="start" x="680" y="-123.2" font-family="Helvetica,sans-Serif" font-size="11.00">&lt; 3</text>
<polygon fill="#ffffff" stroke="transparent" points="768,-117 768,-135 844,-135 844,-117 768,-117"/>
<polygon fill="none" stroke="black" points="768,-117 768,-135 844,-135 844,-117 768,-117"/>
<text text-anchor="start" x="804" y="-123.2" font-family="Helvetica,sans-Serif" font-size="11.00">0 rows</text>
<polygon fill="#ffffff" stroke="transparent" points="844,-117 844,-135 891,-135 891,-117 844,-117"/>
<polygon fill="none" stroke="black" points="844,-117 844,-135 891,-135 891,-117 844,-117"/>
<text text-anchor="start" x="880" y="-123.2" font-family="Helvetica,sans-Serif" font-size="11.00"> &#160;</text>
</a>
</g>
</g>
<!-- attribute_value_css_owner&#45;&gt;attribute_value_css -->
<g id="edge3" class="edge">
<title>attribute_value_css_owner:w&#45;&gt;attribute_value_css:e</title>
<path fill="none" stroke="black" d="M661.77,-192.74C616.87,-213.72 695.22,-348 627.5,-348"/>
<polygon fill="black" stroke="black" points="668.14,-191.51 676.68,-193.53 672.07,-190.76 676,-190 676,-190 676,-190 672.07,-190.76 675.32,-186.47 668.14,-191.51 668.14,-191.51"/>
<ellipse fill="none" stroke="black" cx="665" cy="-192.12" rx="3.2" ry="3.2"/>
</g>
<!-- edition_editor -->
<g id="node5" class="node">
<title>edition_editor</title>
<g id="a_node5"><a xlink:href="../../tables/edition_editor.html" xlink:title="edition_editor" target="_top">
<polygon fill="#ffffff" stroke="transparent" points="424.5,-115 424.5,-173 560.5,-173 560.5,-115 424.5,-115"/>
<polygon fill="#f5f5f5" stroke="transparent" points="424.5,-151 424.5,-173 560.5,-173 560.5,-151 424.5,-151"/>
<polygon fill="none" stroke="black" points="424.5,-151 424.5,-173 560.5,-173 560.5,-151 424.5,-151"/>
<text text-anchor="start" x="429.5" y="-160.2" font-family="Helvetica,sans-Serif" font-weight="bold" font-size="11.00">edition_editor</text>
<text text-anchor="start" x="518.5" y="-159.2" font-family="Helvetica,sans-Serif" font-size="11.00">[table]</text>
<polygon fill="none" stroke="black" points="424.5,-133 424.5,-151 560.5,-151 560.5,-133 424.5,-133"/>
<text text-anchor="start" x="427.5" y="-139.2" font-family="Helvetica,sans-Serif" font-size="11.00">...</text>
<polygon fill="#ffffff" stroke="transparent" points="424.5,-115 424.5,-133 455.5,-133 455.5,-115 424.5,-115"/>
<polygon fill="none" stroke="black" points="424.5,-115 424.5,-133 455.5,-133 455.5,-115 424.5,-115"/>
<text text-anchor="start" x="427.5" y="-121.2" font-family="Helvetica,sans-Serif" font-size="11.00">&lt; 2</text>
<polygon fill="#ffffff" stroke="transparent" points="455.5,-115 455.5,-133 524.5,-133 524.5,-115 455.5,-115"/>
<polygon fill="none" stroke="black" points="455.5,-115 455.5,-133 524.5,-133 524.5,-115 455.5,-115"/>
<text text-anchor="start" x="460.5" y="-121.2" font-family="Helvetica,sans-Serif" font-size="11.00">1,645 rows</text>
<polygon fill="#ffffff" stroke="transparent" points="524.5,-115 524.5,-133 560.5,-133 560.5,-115 524.5,-115"/>
<polygon fill="none" stroke="black" points="524.5,-115 524.5,-133 560.5,-133 560.5,-115 524.5,-115"/>
<text text-anchor="start" x="530.5" y="-121.2" font-family="Helvetica,sans-Serif" font-size="11.00">33 &gt;</text>
</a>
</g>
</g>
<!-- attribute_value_css_owner&#45;&gt;edition_editor -->
<g id="edge4" class="edge">
<title>attribute_value_css_owner:w&#45;&gt;edition_editor:e</title>
<path fill="none" stroke="black" d="M661.57,-167.28C621.38,-163.08 608.49,-142 561.5,-142"/>
<polygon fill="black" stroke="black" points="668.01,-167.6 675.82,-171.6 672.01,-167.8 676,-168 676,-168 676,-168 672.01,-167.8 676.18,-164.4 668.01,-167.6 668.01,-167.6"/>
<ellipse fill="none" stroke="black" cx="664.81" cy="-167.44" rx="3.2" ry="3.2"/>
</g>
<!-- edition -->
<g id="node6" class="node">
<title>edition</title>
<g id="a_node6"><a xlink:href="../../tables/edition.html" xlink:title="edition" target="_top">
<polygon fill="#ffffff" stroke="transparent" points="172.5,-37 172.5,-95 298.5,-95 298.5,-37 172.5,-37"/>
<polygon fill="#f5f5f5" stroke="transparent" points="172.5,-73 172.5,-95 298.5,-95 298.5,-73 172.5,-73"/>
<polygon fill="none" stroke="black" points="172.5,-73 172.5,-95 298.5,-95 298.5,-73 172.5,-73"/>
<text text-anchor="start" x="177.5" y="-82.2" font-family="Helvetica,sans-Serif" font-weight="bold" font-size="11.00">edition</text>
<text text-anchor="start" x="256.5" y="-81.2" font-family="Helvetica,sans-Serif" font-size="11.00">[table]</text>
<polygon fill="none" stroke="black" points="172.5,-55 172.5,-73 298.5,-73 298.5,-55 172.5,-55"/>
<text text-anchor="start" x="175.5" y="-61.2" font-family="Helvetica,sans-Serif" font-size="11.00">...</text>
<polygon fill="#ffffff" stroke="transparent" points="172.5,-37 172.5,-55 198.5,-55 198.5,-37 172.5,-37"/>
<polygon fill="none" stroke="black" points="172.5,-37 172.5,-55 198.5,-55 198.5,-37 172.5,-37"/>
<text text-anchor="start" x="175.5" y="-43.2" font-family="Helvetica,sans-Serif" font-size="11.00">&lt; 1</text>
<polygon fill="#ffffff" stroke="transparent" points="198.5,-37 198.5,-55 265.5,-55 265.5,-37 198.5,-37"/>
<polygon fill="none" stroke="black" points="198.5,-37 198.5,-55 265.5,-55 265.5,-37 198.5,-37"/>
<text text-anchor="start" x="201.5" y="-43.2" font-family="Helvetica,sans-Serif" font-size="11.00">1,645 rows</text>
<polygon fill="#ffffff" stroke="transparent" points="265.5,-37 265.5,-55 298.5,-55 298.5,-37 265.5,-37"/>
<polygon fill="none" stroke="black" points="265.5,-37 265.5,-55 298.5,-55 298.5,-37 265.5,-37"/>
<text text-anchor="start" x="268.5" y="-43.2" font-family="Helvetica,sans-Serif" font-size="11.00">35 &gt;</text>
</a>
</g>
</g>
<!-- attribute_value_css_owner&#45;&gt;edition -->
<g id="edge5" class="edge">
<title>attribute_value_css_owner:w&#45;&gt;edition:e</title>
<path fill="none" stroke="black" d="M662.22,-141.18C652.74,-132.3 653.11,-113.47 636,-105 500.97,-38.18 450.16,-64 299.5,-64"/>
<polygon fill="black" stroke="black" points="668.45,-143.36 674.81,-149.4 672.22,-144.68 676,-146 676,-146 676,-146 672.22,-144.68 677.19,-142.6 668.45,-143.36 668.45,-143.36"/>
<ellipse fill="none" stroke="black" cx="665.43" cy="-142.3" rx="3.2" ry="3.2"/>
</g>
<!-- edition_editor&#45;&gt;edition -->
<g id="edge9" class="edge">
<title>edition_editor:w&#45;&gt;edition:e</title>
<path fill="none" stroke="black" d="M409.16,-140.58C358.93,-130.01 359.39,-64 299.5,-64"/>
<polygon fill="black" stroke="black" points="415.54,-141.21 423.15,-145.58 419.52,-141.61 423.5,-142 423.5,-142 423.5,-142 419.52,-141.61 423.85,-138.42 415.54,-141.21 415.54,-141.21"/>
<ellipse fill="none" stroke="black" cx="412.35" cy="-140.9" rx="3.2" ry="3.2"/>
</g>
<!-- attribute_value_owner -->
<g id="node7" class="node">
<title>attribute_value_owner</title>
<g id="a_node7"><a xlink:href="../../tables/attribute_value_owner.html" xlink:title="attribute_value_owner" target="_top">
<polygon fill="#ffffff" stroke="transparent" points="689.5,-38 689.5,-96 878.5,-96 878.5,-38 689.5,-38"/>
<polygon fill="#f5f5f5" stroke="transparent" points="690,-74 690,-96 879,-96 879,-74 690,-74"/>
<polygon fill="none" stroke="black" points="690,-74 690,-96 879,-96 879,-74 690,-74"/>
<text text-anchor="start" x="695" y="-83.2" font-family="Helvetica,sans-Serif" font-weight="bold" font-size="11.00">attribute_value_owner</text>
<text text-anchor="start" x="837" y="-82.2" font-family="Helvetica,sans-Serif" font-size="11.00">[table]</text>
<polygon fill="none" stroke="black" points="690,-56 690,-74 879,-74 879,-56 690,-56"/>
<text text-anchor="start" x="693" y="-62.2" font-family="Helvetica,sans-Serif" font-size="11.00">...</text>
<polygon fill="#ffffff" stroke="transparent" points="690,-38 690,-56 753,-56 753,-38 690,-38"/>
<polygon fill="none" stroke="black" points="690,-38 690,-56 753,-56 753,-38 690,-38"/>
<text text-anchor="start" x="693" y="-44.2" font-family="Helvetica,sans-Serif" font-size="11.00">&lt; 3</text>
<polygon fill="#ffffff" stroke="transparent" points="753,-38 753,-56 846,-56 846,-38 753,-38"/>
<polygon fill="none" stroke="black" points="753,-38 753,-56 846,-56 846,-38 753,-38"/>
<text text-anchor="start" x="775" y="-44.2" font-family="Helvetica,sans-Serif" font-size="11.00">81,292 rows</text>
<polygon fill="#ffffff" stroke="transparent" points="846,-38 846,-56 879,-56 879,-38 846,-38"/>
<polygon fill="none" stroke="black" points="846,-38 846,-56 879,-56 879,-38 846,-38"/>
<text text-anchor="start" x="868" y="-44.2" font-family="Helvetica,sans-Serif" font-size="11.00"> &#160;</text>
</a>
</g>
</g>
<!-- attribute_value_owner&#45;&gt;attribute_value -->
<g id="edge6" class="edge">
<title>attribute_value_owner:w&#45;&gt;attribute_value:e</title>
<path fill="none" stroke="black" d="M674.36,-64.93C589.43,-64.27 404.7,-59.97 349,-105 306.65,-139.24 363.96,-221 309.5,-221"/>
<polygon fill="black" stroke="black" points="681,-64.96 688.98,-68.6 685,-64.98 689,-65 689,-65 689,-65 685,-64.98 689.02,-61.4 681,-64.96 681,-64.96"/>
<ellipse fill="none" stroke="black" cx="677.8" cy="-64.95" rx="3.2" ry="3.2"/>
</g>
<!-- attribute_value_owner&#45;&gt;edition_editor -->
<g id="edge7" class="edge">
<title>attribute_value_owner:w&#45;&gt;edition_editor:e</title>
<path fill="none" stroke="black" d="M674.7,-67.38C659.43,-73.32 655.35,-89.14 636,-101 603.78,-120.75 599.29,-142 561.5,-142"/>
<polygon fill="black" stroke="black" points="681.11,-66.32 689.59,-68.55 685.05,-65.66 689,-65 689,-65 689,-65 685.05,-65.66 688.41,-61.45 681.11,-66.32 681.11,-66.32"/>
<ellipse fill="none" stroke="black" cx="677.95" cy="-66.84" rx="3.2" ry="3.2"/>
</g>
<!-- attribute_value_owner&#45;&gt;edition -->
<g id="edge8" class="edge">
<title>attribute_value_owner:w&#45;&gt;edition:e</title>
<path fill="none" stroke="black" d="M674.33,-63.7C661.41,-61.22 654.14,-55.86 636,-54 509.11,-40.97 475.92,-41.31 349,-54 326.67,-56.23 321.94,-64 299.5,-64"/>
<polygon fill="black" stroke="black" points="681.03,-64.3 688.68,-68.59 685.02,-64.65 689,-65 689,-65 689,-65 685.02,-64.65 689.32,-61.41 681.03,-64.3 681.03,-64.3"/>
<ellipse fill="none" stroke="black" cx="677.84" cy="-64.01" rx="3.2" ry="3.2"/>
</g>
<!-- sign_interpretation_attribute -->
<g id="node8" class="node">
<title>sign_interpretation_attribute</title>
<g id="a_node8"><a xlink:href="../../tables/sign_interpretation_attribute.html" xlink:title="sign_interpretation_attribute" target="_top">
<polygon fill="#ffffff" stroke="transparent" points="378,-194 378,-252 607,-252 607,-194 378,-194"/>
<polygon fill="#f5f5f5" stroke="transparent" points="378.5,-230 378.5,-252 607.5,-252 607.5,-230 378.5,-230"/>
<polygon fill="none" stroke="black" points="378.5,-230 378.5,-252 607.5,-252 607.5,-230 378.5,-230"/>
<text text-anchor="start" x="383.5" y="-239.2" font-family="Helvetica,sans-Serif" font-weight="bold" font-size="11.00">sign_interpretation_attribute</text>
<text text-anchor="start" x="565.5" y="-238.2" font-family="Helvetica,sans-Serif" font-size="11.00">[table]</text>
<polygon fill="none" stroke="black" points="378.5,-212 378.5,-230 607.5,-230 607.5,-212 378.5,-212"/>
<text text-anchor="start" x="381.5" y="-218.2" font-family="Helvetica,sans-Serif" font-size="11.00">...</text>
<polygon fill="#ffffff" stroke="transparent" points="378.5,-194 378.5,-212 447.5,-212 447.5,-194 378.5,-194"/>
<polygon fill="none" stroke="black" points="378.5,-194 378.5,-212 447.5,-212 447.5,-194 378.5,-194"/>
<text text-anchor="start" x="381.5" y="-200.2" font-family="Helvetica,sans-Serif" font-size="11.00">&lt; 2</text>
<polygon fill="#ffffff" stroke="transparent" points="447.5,-194 447.5,-212 559.5,-212 559.5,-194 447.5,-194"/>
<polygon fill="none" stroke="black" points="447.5,-194 447.5,-212 559.5,-212 559.5,-194 447.5,-194"/>
<text text-anchor="start" x="471.5" y="-200.2" font-family="Helvetica,sans-Serif" font-size="11.00">2,557,225 rows</text>
<polygon fill="#ffffff" stroke="transparent" points="559.5,-194 559.5,-212 607.5,-212 607.5,-194 559.5,-194"/>
<polygon fill="none" stroke="black" points="559.5,-194 559.5,-212 607.5,-212 607.5,-194 559.5,-194"/>
<text text-anchor="start" x="584.5" y="-200.2" font-family="Helvetica,sans-Serif" font-size="11.00">1 &gt;</text>
</a>
</g>
</g>
<!-- sign_interpretation_attribute&#45;&gt;attribute_value -->
<g id="edge10" class="edge">
<title>sign_interpretation_attribute:w&#45;&gt;attribute_value:e</title>
<path fill="none" stroke="black" d="M362.87,-221C343.74,-221 334.17,-221 309.5,-221"/>
<polygon fill="black" stroke="black" points="369.5,-221 377.5,-224.6 373.5,-221 377.5,-221 377.5,-221 377.5,-221 373.5,-221 377.5,-217.4 369.5,-221 369.5,-221"/>
<ellipse fill="none" stroke="black" cx="366.3" cy="-221" rx="3.2" ry="3.2"/>
</g>
</g>
</svg>
