<?xml version="1.0" encoding="UTF-8" standalone="no"?>
<!DOCTYPE svg PUBLIC "-//W3C//DTD SVG 1.1//EN"
 "http://www.w3.org/Graphics/SVG/1.1/DTD/svg11.dtd">
<!-- Generated by graphviz version 2.43.0 (0)
 -->
<!-- Title: oneDegreeRelationshipsDiagram Pages: 1 -->
<svg width="708pt" height="449pt"
 viewBox="0.00 0.00 708.00 449.00" xmlns="http://www.w3.org/2000/svg" xmlns:xlink="http://www.w3.org/1999/xlink">
<g id="graph0" class="graph" transform="scale(1 1) rotate(0) translate(4 445)">
<title>oneDegreeRelationshipsDiagram</title>
<polygon fill="#ffffff" stroke="transparent" points="-4,4 -4,-445 704,-445 704,4 -4,4"/>
<text text-anchor="middle" x="79.5" y="-7.2" font-family="Helvetica,sans-Serif" font-size="11.00">Generated by SchemaSpy</text>
<!-- attribute_value -->
<g id="node1" class="node">
<title>attribute_value</title>
<g id="a_node1"><a xlink:href="../../tables/attribute_value.html" xlink:title="attribute_value" target="_top">
<polygon fill="#ffffff" stroke="transparent" points="163,-180 163,-312 407,-312 407,-180 163,-180"/>
<polygon fill="#f5f5f5" stroke="transparent" points="165,-288 165,-310 405,-310 405,-288 165,-288"/>
<polygon fill="none" stroke="black" points="165,-288 165,-310 405,-310 405,-288 165,-288"/>
<text text-anchor="start" x="170" y="-297.2" font-family="Helvetica,sans-Serif" font-weight="bold" font-size="11.00">attribute_value</text>
<text text-anchor="start" x="363" y="-296.2" font-family="Helvetica,sans-Serif" font-size="11.00">[table]</text>
<polygon fill="none" stroke="black" points="165,-266 165,-288 308,-288 308,-266 165,-266"/>
<image xlink:href="../../images/primaryKeys.png" width="11px" height="12px" preserveAspectRatio="xMinYMin meet" x="170" y="-283"/>
<text text-anchor="start" x="185" y="-274.2" font-family="Helvetica,sans-Serif" font-size="11.00">attribute_value_id</text>
<polygon fill="none" stroke="black" points="308,-266 308,-288 405,-288 405,-266 308,-266"/>
<text text-anchor="start" x="311" y="-274.2" font-family="Helvetica,sans-Serif" font-size="11.00">int unsigned[10]</text>
<polygon fill="#ffffff" stroke="transparent" points="165,-244 165,-266 308,-266 308,-244 165,-244"/>
<polygon fill="none" stroke="black" points="165,-244 165,-266 308,-266 308,-244 165,-244"/>
<image xlink:href="../../images/foreignKeys.png" width="11px" height="12px" preserveAspectRatio="xMinYMin meet" x="170" y="-261"/>
<text text-anchor="start" x="185" y="-252.2" font-family="Helvetica,sans-Serif" font-size="11.00">attribute_id</text>
<polygon fill="none" stroke="black" points="308,-244 308,-266 405,-266 405,-244 308,-244"/>
<text text-anchor="start" x="311" y="-252.2" font-family="Helvetica,sans-Serif" font-size="11.00">int unsigned[10]</text>
<polygon fill="#ffffff" stroke="transparent" points="165,-222 165,-244 308,-244 308,-222 165,-222"/>
<polygon fill="none" stroke="black" points="165,-222 165,-244 308,-244 308,-222 165,-222"/>
<text text-anchor="start" x="185" y="-230.2" font-family="Helvetica,sans-Serif" font-size="11.00">string_value</text>
<polygon fill="none" stroke="black" points="308,-222 308,-244 405,-244 405,-222 308,-222"/>
<text text-anchor="start" x="311" y="-230.2" font-family="Helvetica,sans-Serif" font-size="11.00">varchar[255]</text>
<polygon fill="none" stroke="black" points="165,-200 165,-222 308,-222 308,-200 165,-200"/>
<text text-anchor="start" x="185" y="-208.2" font-family="Helvetica,sans-Serif" font-size="11.00">description</text>
<polygon fill="none" stroke="black" points="308,-200 308,-222 405,-222 405,-200 308,-200"/>
<text text-anchor="start" x="311" y="-208.2" font-family="Helvetica,sans-Serif" font-size="11.00">varchar[1000]</text>
<polygon fill="#ffffff" stroke="transparent" points="165,-182 165,-200 224,-200 224,-182 165,-182"/>
<polygon fill="none" stroke="black" points="165,-182 165,-200 224,-200 224,-182 165,-182"/>
<text text-anchor="start" x="168" y="-188.2" font-family="Helvetica,sans-Serif" font-size="11.00">&lt; 1</text>
<polygon fill="#ffffff" stroke="transparent" points="224,-182 224,-200 308,-200 308,-182 224,-182"/>
<polygon fill="none" stroke="black" points="224,-182 224,-200 308,-200 308,-182 224,-182"/>
<text text-anchor="start" x="261" y="-188.2" font-family="Helvetica,sans-Serif" font-size="11.00">44 rows</text>
<polygon fill="#ffffff" stroke="transparent" points="308,-182 308,-200 405,-200 405,-182 308,-182"/>
<polygon fill="none" stroke="black" points="308,-182 308,-200 405,-200 405,-182 308,-182"/>
<text text-anchor="start" x="382" y="-188.2" font-family="Helvetica,sans-Serif" font-size="11.00">3 &gt;</text>
<polygon fill="none" stroke="black" stroke-width="2" points="164,-181 164,-311 406,-311 406,-181 164,-181"/>
</a>
</g>
</g>
<!-- attribute -->
<g id="node2" class="node">
<title>attribute</title>
<g id="a_node2"><a xlink:href="../../tables/attribute.html" xlink:title="attribute" target="_top">
<polygon fill="#ffffff" stroke="transparent" points="8,-186 8,-288 114,-288 114,-186 8,-186"/>
<polygon fill="#f5f5f5" stroke="transparent" points="8,-266 8,-288 114,-288 114,-266 8,-266"/>
<polygon fill="none" stroke="black" points="8,-266 8,-288 114,-288 114,-266 8,-266"/>
<text text-anchor="start" x="13" y="-275.2" font-family="Helvetica,sans-Serif" font-weight="bold" font-size="11.00">attribute</text>
<text text-anchor="start" x="72" y="-274.2" font-family="Helvetica,sans-Serif" font-size="11.00">[table]</text>
<polygon fill="none" stroke="black" points="8,-244 8,-266 114,-266 114,-244 8,-244"/>
<image xlink:href="../../images/primaryKeys.png" width="11px" height="12px" preserveAspectRatio="xMinYMin meet" x="13" y="-261"/>
<text text-anchor="start" x="31" y="-252.2" font-family="Helvetica,sans-Serif" font-size="11.00">attribute_id</text>
<polygon fill="#ffffff" stroke="transparent" points="8,-222 8,-244 114,-244 114,-222 8,-222"/>
<polygon fill="none" stroke="black" points="8,-222 8,-244 114,-244 114,-222 8,-222"/>
<text text-anchor="start" x="31" y="-230.2" font-family="Helvetica,sans-Serif" font-size="11.00">name</text>
<polygon fill="none" stroke="black" points="8,-204 8,-222 114,-222 114,-204 8,-204"/>
<text text-anchor="start" x="11" y="-210.2" font-family="Helvetica,sans-Serif" font-size="11.00">...</text>
<polygon fill="#ffffff" stroke="transparent" points="8,-186 8,-204 33,-204 33,-186 8,-186"/>
<polygon fill="none" stroke="black" points="8,-186 8,-204 33,-204 33,-186 8,-186"/>
<text text-anchor="start" x="11" y="-192.2" font-family="Helvetica,sans-Serif" font-size="11.00"> &#160;</text>
<polygon fill="#ffffff" stroke="transparent" points="33,-186 33,-204 82,-204 82,-186 33,-186"/>
<polygon fill="none" stroke="black" points="33,-186 33,-204 82,-204 82,-186 33,-186"/>
<text text-anchor="start" x="42" y="-192.2" font-family="Helvetica,sans-Serif" font-size="11.00">9 rows</text>
<polygon fill="#ffffff" stroke="transparent" points="82,-186 82,-204 114,-204 114,-186 82,-186"/>
<polygon fill="none" stroke="black" points="82,-186 82,-204 114,-204 114,-186 82,-186"/>
<text text-anchor="start" x="91" y="-192.2" font-family="Helvetica,sans-Serif" font-size="11.00">3 &gt;</text>
</a>
</g>
</g>
<!-- attribute_value&#45;&gt;attribute -->
<g id="edge1" class="edge">
<title>attribute_value:w&#45;&gt;attribute:e</title>
<path fill="none" stroke="black" d="M149.49,-255C138.18,-255 130.99,-255 115,-255"/>
<polygon fill="black" stroke="black" points="156,-255 164,-258.6 160,-255 164,-255 164,-255 164,-255 160,-255 164,-251.4 156,-255 156,-255"/>
<ellipse fill="none" stroke="black" cx="152.8" cy="-255" rx="3.2" ry="3.2"/>
</g>
<!-- attribute_value_css -->
<g id="node3" class="node">
<title>attribute_value_css</title>
<g id="a_node3"><a xlink:href="../../tables/attribute_value_css.html" xlink:title="attribute_value_css" target="_top">
<polygon fill="#ffffff" stroke="transparent" points="488.5,-331 488.5,-437 659.5,-437 659.5,-331 488.5,-331"/>
<polygon fill="#f5f5f5" stroke="transparent" points="489,-415 489,-437 660,-437 660,-415 489,-415"/>
<polygon fill="none" stroke="black" points="489,-415 489,-437 660,-437 660,-415 489,-415"/>
<text text-anchor="start" x="494" y="-424.2" font-family="Helvetica,sans-Serif" font-weight="bold" font-size="11.00">attribute_value_css</text>
<text text-anchor="start" x="618" y="-423.2" font-family="Helvetica,sans-Serif" font-size="11.00">[table]</text>
<polygon fill="none" stroke="black" points="489,-393 489,-415 660,-415 660,-393 489,-393"/>
<image xlink:href="../../images/primaryKeys.png" width="11px" height="12px" preserveAspectRatio="xMinYMin meet" x="494" y="-410"/>
<text text-anchor="start" x="510" y="-401.2" font-family="Helvetica,sans-Serif" font-size="11.00">attribute_value_css_id</text>
<polygon fill="#ffffff" stroke="transparent" points="489,-371 489,-393 660,-393 660,-371 489,-371"/>
<polygon fill="none" stroke="black" points="489,-371 489,-393 660,-393 660,-371 489,-371"/>
<image xlink:href="../../images/foreignKeys.png" width="11px" height="12px" preserveAspectRatio="xMinYMin meet" x="494" y="-388"/>
<text text-anchor="start" x="510" y="-379.2" font-family="Helvetica,sans-Serif" font-size="11.00">attribute_value_id</text>
<polygon fill="#ffffff" stroke="transparent" points="489,-349 489,-371 660,-371 660,-349 489,-349"/>
<polygon fill="none" stroke="black" points="489,-349 489,-371 660,-371 660,-349 489,-349"/>
<text text-anchor="start" x="510" y="-357.2" font-family="Helvetica,sans-Serif" font-size="11.00">css</text>
<polygon fill="#ffffff" stroke="transparent" points="489,-331 489,-349 553,-349 553,-331 489,-331"/>
<polygon fill="none" stroke="black" points="489,-331 489,-349 553,-349 553,-331 489,-331"/>
<text text-anchor="start" x="492" y="-337.2" font-family="Helvetica,sans-Serif" font-size="11.00">&lt; 1</text>
<polygon fill="#ffffff" stroke="transparent" points="553,-331 553,-349 615,-349 615,-331 553,-331"/>
<polygon fill="none" stroke="black" points="553,-331 553,-349 615,-349 615,-331 553,-331"/>
<text text-anchor="start" x="575" y="-337.2" font-family="Helvetica,sans-Serif" font-size="11.00">0 rows</text>
<polygon fill="#ffffff" stroke="transparent" points="615,-331 615,-349 660,-349 660,-331 615,-331"/>
<polygon fill="none" stroke="black" points="615,-331 615,-349 660,-349 660,-331 615,-331"/>
<text text-anchor="start" x="637" y="-337.2" font-family="Helvetica,sans-Serif" font-size="11.00">1 &gt;</text>
</a>
</g>
</g>
<!-- attribute_value_css&#45;&gt;attribute_value -->
<g id="edge2" class="edge">
<title>attribute_value_css:w&#45;&gt;attribute_value:e</title>
<path fill="none" stroke="black" d="M473.71,-379.4C434.78,-363.24 459.66,-277 406,-277"/>
<polygon fill="black" stroke="black" points="480.13,-380.57 487.36,-385.54 484.06,-381.29 488,-382 488,-382 488,-382 484.06,-381.29 488.64,-378.46 480.13,-380.57 480.13,-380.57"/>
<ellipse fill="none" stroke="black" cx="476.98" cy="-380" rx="3.2" ry="3.2"/>
</g>
<!-- attribute_value_owner -->
<g id="node4" class="node">
<title>attribute_value_owner</title>
<g id="a_node4"><a xlink:href="../../tables/attribute_value_owner.html" xlink:title="attribute_value_owner" target="_top">
<polygon fill="#ffffff" stroke="transparent" points="479.5,-204 479.5,-310 668.5,-310 668.5,-204 479.5,-204"/>
<polygon fill="#f5f5f5" stroke="transparent" points="480,-288 480,-310 669,-310 669,-288 480,-288"/>
<polygon fill="none" stroke="black" points="480,-288 480,-310 669,-310 669,-288 480,-288"/>
<text text-anchor="start" x="485" y="-297.2" font-family="Helvetica,sans-Serif" font-weight="bold" font-size="11.00">attribute_value_owner</text>
<text text-anchor="start" x="627" y="-296.2" font-family="Helvetica,sans-Serif" font-size="11.00">[table]</text>
<polygon fill="none" stroke="black" points="480,-266 480,-288 669,-288 669,-266 480,-266"/>
<image xlink:href="../../images/primaryKeys.png" width="11px" height="12px" preserveAspectRatio="xMinYMin meet" x="485" y="-283"/>
<text text-anchor="start" x="509" y="-274.2" font-family="Helvetica,sans-Serif" font-size="11.00">attribute_value_id</text>
<polygon fill="#ffffff" stroke="transparent" points="480,-244 480,-266 669,-266 669,-244 480,-244"/>
<polygon fill="none" stroke="black" points="480,-244 480,-266 669,-266 669,-244 480,-244"/>
<image xlink:href="../../images/foreignKeys.png" width="11px" height="12px" preserveAspectRatio="xMinYMin meet" x="485" y="-261"/>
<text text-anchor="start" x="509" y="-252.2" font-family="Helvetica,sans-Serif" font-size="11.00">edition_editor_id</text>
<polygon fill="none" stroke="black" points="480,-222 480,-244 669,-244 669,-222 480,-222"/>
<image xlink:href="../../images/primaryKeys.png" width="11px" height="12px" preserveAspectRatio="xMinYMin meet" x="485" y="-239"/>
<text text-anchor="start" x="509" y="-230.2" font-family="Helvetica,sans-Serif" font-size="11.00">edition_id</text>
<polygon fill="#ffffff" stroke="transparent" points="480,-204 480,-222 543,-222 543,-204 480,-204"/>
<polygon fill="none" stroke="black" points="480,-204 480,-222 543,-222 543,-204 480,-204"/>
<text text-anchor="start" x="483" y="-210.2" font-family="Helvetica,sans-Serif" font-size="11.00">&lt; 3</text>
<polygon fill="#ffffff" stroke="transparent" points="543,-204 543,-222 636,-222 636,-204 543,-204"/>
<polygon fill="none" stroke="black" points="543,-204 543,-222 636,-222 636,-204 543,-204"/>
<text text-anchor="start" x="565" y="-210.2" font-family="Helvetica,sans-Serif" font-size="11.00">81,292 rows</text>
<polygon fill="#ffffff" stroke="transparent" points="636,-204 636,-222 669,-222 669,-204 636,-204"/>
<polygon fill="none" stroke="black" points="636,-204 636,-222 669,-222 669,-204 636,-204"/>
<text text-anchor="start" x="658" y="-210.2" font-family="Helvetica,sans-Serif" font-size="11.00"> &#160;</text>
</a>
</g>
</g>
<!-- attribute_value_owner&#45;&gt;attribute_value -->
<g id="edge3" class="edge">
<title>attribute_value_owner:w&#45;&gt;attribute_value:e</title>
<path fill="none" stroke="black" d="M464.48,-277C443.14,-277 432.99,-277 406,-277"/>
<polygon fill="black" stroke="black" points="471,-277 479,-280.6 475,-277 479,-277 479,-277 479,-277 475,-277 479,-273.4 471,-277 471,-277"/>
<ellipse fill="none" stroke="black" cx="467.8" cy="-277" rx="3.2" ry="3.2"/>
</g>
<!-- sign_interpretation_attribute -->
<g id="node5" class="node">
<title>sign_interpretation_attribute</title>
<g id="a_node5"><a xlink:href="../../tables/sign_interpretation_attribute.html" xlink:title="sign_interpretation_attribute" target="_top">
<polygon fill="#ffffff" stroke="transparent" points="456,-37 456,-183 692,-183 692,-37 456,-37"/>
<polygon fill="#f5f5f5" stroke="transparent" points="456,-161 456,-183 692,-183 692,-161 456,-161"/>
<polygon fill="none" stroke="black" points="456,-161 456,-183 692,-183 692,-161 456,-161"/>
<text text-anchor="start" x="461" y="-170.2" font-family="Helvetica,sans-Serif" font-weight="bold" font-size="11.00">sign_interpretation_attribute</text>
<text text-anchor="start" x="650" y="-169.2" font-family="Helvetica,sans-Serif" font-size="11.00">[table]</text>
<polygon fill="none" stroke="black" points="456,-139 456,-161 692,-161 692,-139 456,-139"/>
<image xlink:href="../../images/primaryKeys.png" width="11px" height="12px" preserveAspectRatio="xMinYMin meet" x="461" y="-156"/>
<text text-anchor="start" x="476" y="-147.2" font-family="Helvetica,sans-Serif" font-size="11.00">sign_interpretation_attribute_id</text>
<polygon fill="#ffffff" stroke="transparent" points="456,-117 456,-139 692,-139 692,-117 456,-117"/>
<polygon fill="none" stroke="black" points="456,-117 456,-139 692,-139 692,-117 456,-117"/>
<image xlink:href="../../images/foreignKeys.png" width="11px" height="12px" preserveAspectRatio="xMinYMin meet" x="461" y="-134"/>
<text text-anchor="start" x="476" y="-125.2" font-family="Helvetica,sans-Serif" font-size="11.00">sign_interpretation_id</text>
<polygon fill="#ffffff" stroke="transparent" points="456,-95 456,-117 692,-117 692,-95 456,-95"/>
<polygon fill="none" stroke="black" points="456,-95 456,-117 692,-117 692,-95 456,-95"/>
<image xlink:href="../../images/foreignKeys.png" width="11px" height="12px" preserveAspectRatio="xMinYMin meet" x="461" y="-112"/>
<text text-anchor="start" x="476" y="-103.2" font-family="Helvetica,sans-Serif" font-size="11.00">attribute_value_id</text>
<polygon fill="#ffffff" stroke="transparent" points="456,-73 456,-95 692,-95 692,-73 456,-73"/>
<polygon fill="none" stroke="black" points="456,-73 456,-95 692,-95 692,-73 456,-73"/>
<text text-anchor="start" x="476" y="-81.2" font-family="Helvetica,sans-Serif" font-size="11.00">sequence</text>
<polygon fill="none" stroke="black" points="456,-55 456,-73 692,-73 692,-55 456,-55"/>
<text text-anchor="start" x="459" y="-61.2" font-family="Helvetica,sans-Serif" font-size="11.00">...</text>
<polygon fill="#ffffff" stroke="transparent" points="456,-37 456,-55 528,-55 528,-37 456,-37"/>
<polygon fill="none" stroke="black" points="456,-37 456,-55 528,-55 528,-37 456,-37"/>
<text text-anchor="start" x="459" y="-43.2" font-family="Helvetica,sans-Serif" font-size="11.00">&lt; 2</text>
<polygon fill="#ffffff" stroke="transparent" points="528,-37 528,-55 642,-55 642,-37 528,-37"/>
<polygon fill="none" stroke="black" points="528,-37 528,-55 642,-55 642,-37 528,-37"/>
<text text-anchor="start" x="554" y="-43.2" font-family="Helvetica,sans-Serif" font-size="11.00">2,557,225 rows</text>
<polygon fill="#ffffff" stroke="transparent" points="642,-37 642,-55 692,-55 692,-37 642,-37"/>
<polygon fill="none" stroke="black" points="642,-37 642,-55 692,-55 692,-37 642,-37"/>
<text text-anchor="start" x="669" y="-43.2" font-family="Helvetica,sans-Serif" font-size="11.00">1 &gt;</text>
</a>
</g>
</g>
<!-- sign_interpretation_attribute&#45;&gt;attribute_value -->
<g id="edge4" class="edge">
<title>sign_interpretation_attribute:w&#45;&gt;attribute_value:e</title>
<path fill="none" stroke="black" d="M440.67,-108.55C390.73,-129.82 479.35,-277 406,-277"/>
<polygon fill="black" stroke="black" points="447.12,-107.4 455.63,-109.54 451.06,-106.7 455,-106 455,-106 455,-106 451.06,-106.7 454.37,-102.46 447.12,-107.4 447.12,-107.4"/>
<ellipse fill="none" stroke="black" cx="443.97" cy="-107.96" rx="3.2" ry="3.2"/>
</g>
</g>
</svg>
