<?xml version="1.0" encoding="UTF-8" standalone="no"?>
<!DOCTYPE svg PUBLIC "-//W3C//DTD SVG 1.1//EN"
 "http://www.w3.org/Graphics/SVG/1.1/DTD/svg11.dtd">
<!-- Generated by graphviz version 2.40.1 (20161225.0304)
 -->
<!-- Title: oneDegreeRelationshipsDiagram Pages: 1 -->
<svg width="658pt" height="398pt"
 viewBox="0.00 0.00 658.00 398.00" xmlns="http://www.w3.org/2000/svg" xmlns:xlink="http://www.w3.org/1999/xlink">
<g id="graph0" class="graph" transform="scale(1 1) rotate(0) translate(4 394)">
<title>oneDegreeRelationshipsDiagram</title>
<polygon fill="#ffffff" stroke="transparent" points="-4,4 -4,-394 654,-394 654,4 -4,4"/>
<text text-anchor="middle" x="71.5" y="-7.2" font-family="Helvetica,sans-Serif" font-size="11.00" fill="#000000">Generated by SchemaSpy</text>
<!-- attribute_value_owner -->
<g id="node1" class="node">
<title>attribute_value_owner</title>
<g id="a_node1"><a xlink:href="../../tables/attribute_value_owner.html" xlink:title="attribute_value_owner" target="_top">
<polygon fill="#ffffff" stroke="transparent" points="384,-133 384,-243 642,-243 642,-133 384,-133"/>
<polygon fill="#f5f5f5" stroke="transparent" points="386,-219 386,-241 640,-241 640,-219 386,-219"/>
<polygon fill="none" stroke="#000000" points="386,-219 386,-241 640,-241 640,-219 386,-219"/>
<text text-anchor="start" x="391" y="-228.2" font-family="Helvetica,sans-Serif" font-weight="bold" font-size="11.00" fill="#000000">attribute_value_owner</text>
<text text-anchor="start" x="605" y="-227.2" font-family="Helvetica,sans-Serif" font-size="11.00" fill="#000000">[table]</text>
<polygon fill="none" stroke="#000000" points="386,-197 386,-219 558,-219 558,-197 386,-197"/>
<image xlink:href="../../images/primaryKeys.png" width="11px" height="12px" preserveAspectRatio="xMinYMin meet" x="391" y="-214"/>
<text text-anchor="start" x="406" y="-205.2" font-family="Helvetica,sans-Serif" font-size="11.00" fill="#000000">attribute_value_id</text>
<polygon fill="none" stroke="#000000" points="558,-197 558,-219 640,-219 640,-197 558,-197"/>
<text text-anchor="start" x="561" y="-205.2" font-family="Helvetica,sans-Serif" font-size="11.00" fill="#000000">int unsigned[10]</text>
<polygon fill="#ffffff" stroke="transparent" points="386,-175 386,-197 558,-197 558,-175 386,-175"/>
<polygon fill="none" stroke="#000000" points="386,-175 386,-197 558,-197 558,-175 386,-175"/>
<image xlink:href="../../images/foreignKeys.png" width="11px" height="12px" preserveAspectRatio="xMinYMin meet" x="391" y="-192"/>
<text text-anchor="start" x="406" y="-183.2" font-family="Helvetica,sans-Serif" font-size="11.00" fill="#000000">edition_editor_id</text>
<polygon fill="none" stroke="#000000" points="558,-175 558,-197 640,-197 640,-175 558,-175"/>
<text text-anchor="start" x="561" y="-183.2" font-family="Helvetica,sans-Serif" font-size="11.00" fill="#000000">int unsigned[10]</text>
<polygon fill="none" stroke="#000000" points="386,-153 386,-175 558,-175 558,-153 386,-153"/>
<image xlink:href="../../images/primaryKeys.png" width="11px" height="12px" preserveAspectRatio="xMinYMin meet" x="391" y="-170"/>
<text text-anchor="start" x="406" y="-161.2" font-family="Helvetica,sans-Serif" font-size="11.00" fill="#000000">edition_id</text>
<polygon fill="none" stroke="#000000" points="558,-153 558,-175 640,-175 640,-153 558,-153"/>
<text text-anchor="start" x="561" y="-161.2" font-family="Helvetica,sans-Serif" font-size="11.00" fill="#000000">int unsigned[10]</text>
<polygon fill="#ffffff" stroke="transparent" points="386,-135 386,-153 450,-153 450,-135 386,-135"/>
<polygon fill="none" stroke="#000000" points="386,-135 386,-153 450,-153 450,-135 386,-135"/>
<text text-anchor="start" x="389" y="-141.2" font-family="Helvetica,sans-Serif" font-size="11.00" fill="#000000">&lt; 3</text>
<polygon fill="#ffffff" stroke="transparent" points="450,-135 450,-153 558,-153 558,-135 450,-135"/>
<polygon fill="none" stroke="#000000" points="450,-135 450,-153 558,-153 558,-135 450,-135"/>
<text text-anchor="start" x="495" y="-141.2" font-family="Helvetica,sans-Serif" font-size="11.00" fill="#000000">85,314 rows</text>
<polygon fill="#ffffff" stroke="transparent" points="558,-135 558,-153 640,-153 640,-135 558,-135"/>
<polygon fill="none" stroke="#000000" points="558,-135 558,-153 640,-153 640,-135 558,-135"/>
<text text-anchor="start" x="621" y="-141.2" font-family="Helvetica,sans-Serif" font-size="11.00" fill="#000000">0 &gt;</text>
<polygon fill="none" stroke="#000000" stroke-width="2" points="385,-134 385,-242 641,-242 641,-134 385,-134"/>
</a>
</g>
</g>
<!-- attribute_value -->
<g id="node2" class="node">
<title>attribute_value</title>
<g id="a_node2"><a xlink:href="../../tables/attribute_value.html" xlink:title="attribute_value" target="_top">
<polygon fill="#ffffff" stroke="transparent" points="192,-240 192,-386 335,-386 335,-240 192,-240"/>
<polygon fill="#f5f5f5" stroke="transparent" points="192.5,-364 192.5,-386 335.5,-386 335.5,-364 192.5,-364"/>
<polygon fill="none" stroke="#000000" points="192.5,-364 192.5,-386 335.5,-386 335.5,-364 192.5,-364"/>
<text text-anchor="start" x="197.5" y="-373.2" font-family="Helvetica,sans-Serif" font-weight="bold" font-size="11.00" fill="#000000">attribute_value</text>
<text text-anchor="start" x="300.5" y="-372.2" font-family="Helvetica,sans-Serif" font-size="11.00" fill="#000000">[table]</text>
<polygon fill="none" stroke="#000000" points="192.5,-342 192.5,-364 335.5,-364 335.5,-342 192.5,-342"/>
<image xlink:href="../../images/primaryKeys.png" width="11px" height="12px" preserveAspectRatio="xMinYMin meet" x="197.5" y="-359"/>
<text text-anchor="start" x="212.5" y="-350.2" font-family="Helvetica,sans-Serif" font-size="11.00" fill="#000000">attribute_value_id</text>
<polygon fill="#ffffff" stroke="transparent" points="192.5,-320 192.5,-342 335.5,-342 335.5,-320 192.5,-320"/>
<polygon fill="none" stroke="#000000" points="192.5,-320 192.5,-342 335.5,-342 335.5,-320 192.5,-320"/>
<image xlink:href="../../images/foreignKeys.png" width="11px" height="12px" preserveAspectRatio="xMinYMin meet" x="197.5" y="-337"/>
<text text-anchor="start" x="212.5" y="-328.2" font-family="Helvetica,sans-Serif" font-size="11.00" fill="#000000">attribute_id</text>
<polygon fill="#ffffff" stroke="transparent" points="192.5,-298 192.5,-320 335.5,-320 335.5,-298 192.5,-298"/>
<polygon fill="none" stroke="#000000" points="192.5,-298 192.5,-320 335.5,-320 335.5,-298 192.5,-298"/>
<text text-anchor="start" x="212.5" y="-306.2" font-family="Helvetica,sans-Serif" font-size="11.00" fill="#000000">string_value</text>
<polygon fill="#ffffff" stroke="transparent" points="192.5,-276 192.5,-298 335.5,-298 335.5,-276 192.5,-276"/>
<polygon fill="none" stroke="#000000" points="192.5,-276 192.5,-298 335.5,-298 335.5,-276 192.5,-276"/>
<image xlink:href="../../images/foreignKeys.png" width="11px" height="12px" preserveAspectRatio="xMinYMin meet" x="197.5" y="-293"/>
<text text-anchor="start" x="212.5" y="-284.2" font-family="Helvetica,sans-Serif" font-size="11.00" fill="#000000">creator_id</text>
<polygon fill="none" stroke="#000000" points="192.5,-258 192.5,-276 335.5,-276 335.5,-258 192.5,-258"/>
<text text-anchor="start" x="195.5" y="-264.2" font-family="Helvetica,sans-Serif" font-size="11.00" fill="#000000">...</text>
<polygon fill="#ffffff" stroke="transparent" points="192.5,-240 192.5,-258 241.5,-258 241.5,-240 192.5,-240"/>
<polygon fill="none" stroke="#000000" points="192.5,-240 192.5,-258 241.5,-258 241.5,-240 192.5,-240"/>
<text text-anchor="start" x="195.5" y="-246.2" font-family="Helvetica,sans-Serif" font-size="11.00" fill="#000000">&lt; 2</text>
<polygon fill="#ffffff" stroke="transparent" points="241.5,-240 241.5,-258 299.5,-258 299.5,-240 241.5,-240"/>
<polygon fill="none" stroke="#000000" points="241.5,-240 241.5,-258 299.5,-258 299.5,-240 241.5,-240"/>
<text text-anchor="start" x="257.5" y="-246.2" font-family="Helvetica,sans-Serif" font-size="11.00" fill="#000000">44 rows</text>
<polygon fill="#ffffff" stroke="transparent" points="299.5,-240 299.5,-258 335.5,-258 335.5,-240 299.5,-240"/>
<polygon fill="none" stroke="#000000" points="299.5,-240 299.5,-258 335.5,-258 335.5,-240 299.5,-240"/>
<text text-anchor="start" x="316.5" y="-246.2" font-family="Helvetica,sans-Serif" font-size="11.00" fill="#000000">3 &gt;</text>
</a>
</g>
</g>
<!-- attribute_value_owner&#45;&gt;attribute_value -->
<g id="edge1" class="edge">
<title>attribute_value_owner:w&#45;&gt;attribute_value:e</title>
<path fill="none" stroke="#000000" d="M371.8871,-210.8964C331.1135,-231.3327 398.0099,-353 335.5,-353"/>
<polygon fill="#000000" stroke="#000000" points="378.1633,-209.6084 386.7238,-211.5265 382.0817,-208.8042 386,-208 386,-208 386,-208 382.0817,-208.8042 385.2762,-204.4735 378.1633,-209.6084 378.1633,-209.6084"/>
<ellipse fill="none" stroke="#000000" cx="375.0287" cy="-210.2517" rx="3.2" ry="3.2"/>
</g>
<!-- edition_editor -->
<g id="node3" class="node">
<title>edition_editor</title>
<g id="a_node3"><a xlink:href="../../tables/edition_editor.html" xlink:title="edition_editor" target="_top">
<polygon fill="#ffffff" stroke="transparent" points="197,-95 197,-219 330,-219 330,-95 197,-95"/>
<polygon fill="#f5f5f5" stroke="transparent" points="197.5,-197 197.5,-219 330.5,-219 330.5,-197 197.5,-197"/>
<polygon fill="none" stroke="#000000" points="197.5,-197 197.5,-219 330.5,-219 330.5,-197 197.5,-197"/>
<text text-anchor="start" x="202.5" y="-206.2" font-family="Helvetica,sans-Serif" font-weight="bold" font-size="11.00" fill="#000000">edition_editor</text>
<text text-anchor="start" x="295.5" y="-205.2" font-family="Helvetica,sans-Serif" font-size="11.00" fill="#000000">[table]</text>
<polygon fill="none" stroke="#000000" points="197.5,-175 197.5,-197 330.5,-197 330.5,-175 197.5,-175"/>
<image xlink:href="../../images/primaryKeys.png" width="11px" height="12px" preserveAspectRatio="xMinYMin meet" x="202.5" y="-192"/>
<text text-anchor="start" x="217.5" y="-183.2" font-family="Helvetica,sans-Serif" font-size="11.00" fill="#000000">edition_editor_id</text>
<polygon fill="#ffffff" stroke="transparent" points="197.5,-153 197.5,-175 330.5,-175 330.5,-153 197.5,-153"/>
<polygon fill="none" stroke="#000000" points="197.5,-153 197.5,-175 330.5,-175 330.5,-153 197.5,-153"/>
<image xlink:href="../../images/foreignKeys.png" width="11px" height="12px" preserveAspectRatio="xMinYMin meet" x="202.5" y="-170"/>
<text text-anchor="start" x="217.5" y="-161.2" font-family="Helvetica,sans-Serif" font-size="11.00" fill="#000000">user_id</text>
<polygon fill="#ffffff" stroke="transparent" points="197.5,-131 197.5,-153 330.5,-153 330.5,-131 197.5,-131"/>
<polygon fill="none" stroke="#000000" points="197.5,-131 197.5,-153 330.5,-153 330.5,-131 197.5,-131"/>
<image xlink:href="../../images/foreignKeys.png" width="11px" height="12px" preserveAspectRatio="xMinYMin meet" x="202.5" y="-148"/>
<text text-anchor="start" x="217.5" y="-139.2" font-family="Helvetica,sans-Serif" font-size="11.00" fill="#000000">edition_id</text>
<polygon fill="none" stroke="#000000" points="197.5,-113 197.5,-131 330.5,-131 330.5,-113 197.5,-113"/>
<text text-anchor="start" x="200.5" y="-119.2" font-family="Helvetica,sans-Serif" font-size="11.00" fill="#000000">...</text>
<polygon fill="#ffffff" stroke="transparent" points="197.5,-95 197.5,-113 230.5,-113 230.5,-95 197.5,-95"/>
<polygon fill="none" stroke="#000000" points="197.5,-95 197.5,-113 230.5,-113 230.5,-95 197.5,-95"/>
<text text-anchor="start" x="200.5" y="-101.2" font-family="Helvetica,sans-Serif" font-size="11.00" fill="#000000">&lt; 2</text>
<polygon fill="#ffffff" stroke="transparent" points="230.5,-95 230.5,-113 296.5,-113 296.5,-95 230.5,-95"/>
<polygon fill="none" stroke="#000000" points="230.5,-95 230.5,-113 296.5,-113 296.5,-95 230.5,-95"/>
<text text-anchor="start" x="239.5" y="-101.2" font-family="Helvetica,sans-Serif" font-size="11.00" fill="#000000">1,645 rows</text>
<polygon fill="#ffffff" stroke="transparent" points="296.5,-95 296.5,-113 330.5,-113 330.5,-95 296.5,-95"/>
<polygon fill="none" stroke="#000000" points="296.5,-95 296.5,-113 330.5,-113 330.5,-95 296.5,-95"/>
<text text-anchor="start" x="305.5" y="-101.2" font-family="Helvetica,sans-Serif" font-size="11.00" fill="#000000">30 &gt;</text>
</a>
</g>
</g>
<!-- attribute_value_owner&#45;&gt;edition_editor -->
<g id="edge2" class="edge">
<title>attribute_value_owner:w&#45;&gt;edition_editor:e</title>
<path fill="none" stroke="#000000" d="M371.2286,-186C357.4265,-186 349.3854,-186 330.5,-186"/>
<polygon fill="#000000" stroke="#000000" points="378,-186.0001 386,-189.6 382,-186 386,-186 386,-186 386,-186 382,-186 386,-182.4 378,-186.0001 378,-186.0001"/>
<ellipse fill="none" stroke="#000000" cx="374.8" cy="-186.0001" rx="3.2" ry="3.2"/>
</g>
<!-- edition -->
<g id="node4" class="node">
<title>edition</title>
<g id="a_node4"><a xlink:href="../../tables/edition.html" xlink:title="edition" target="_top">
<polygon fill="#ffffff" stroke="transparent" points="8,-37 8,-139 143,-139 143,-37 8,-37"/>
<polygon fill="#f5f5f5" stroke="transparent" points="8.5,-117 8.5,-139 143.5,-139 143.5,-117 8.5,-117"/>
<polygon fill="none" stroke="#000000" points="8.5,-117 8.5,-139 143.5,-139 143.5,-117 8.5,-117"/>
<text text-anchor="start" x="13.5" y="-126.2" font-family="Helvetica,sans-Serif" font-weight="bold" font-size="11.00" fill="#000000">edition</text>
<text text-anchor="start" x="108.5" y="-125.2" font-family="Helvetica,sans-Serif" font-size="11.00" fill="#000000">[table]</text>
<polygon fill="none" stroke="#000000" points="8.5,-95 8.5,-117 143.5,-117 143.5,-95 8.5,-95"/>
<image xlink:href="../../images/primaryKeys.png" width="11px" height="12px" preserveAspectRatio="xMinYMin meet" x="13.5" y="-112"/>
<text text-anchor="start" x="28.5" y="-103.2" font-family="Helvetica,sans-Serif" font-size="11.00" fill="#000000">edition_id</text>
<polygon fill="#ffffff" stroke="transparent" points="8.5,-73 8.5,-95 143.5,-95 143.5,-73 8.5,-73"/>
<polygon fill="none" stroke="#000000" points="8.5,-73 8.5,-95 143.5,-95 143.5,-73 8.5,-73"/>
<image xlink:href="../../images/foreignKeys.png" width="11px" height="12px" preserveAspectRatio="xMinYMin meet" x="13.5" y="-90"/>
<text text-anchor="start" x="28.5" y="-81.2" font-family="Helvetica,sans-Serif" font-size="11.00" fill="#000000">manuscript_id</text>
<polygon fill="none" stroke="#000000" points="8.5,-55 8.5,-73 143.5,-73 143.5,-55 8.5,-55"/>
<text text-anchor="start" x="11.5" y="-61.2" font-family="Helvetica,sans-Serif" font-size="11.00" fill="#000000">...</text>
<polygon fill="#ffffff" stroke="transparent" points="8.5,-37 8.5,-55 42.5,-55 42.5,-37 8.5,-37"/>
<polygon fill="none" stroke="#000000" points="8.5,-37 8.5,-55 42.5,-55 42.5,-37 8.5,-37"/>
<text text-anchor="start" x="11.5" y="-43.2" font-family="Helvetica,sans-Serif" font-size="11.00" fill="#000000">&lt; 1</text>
<polygon fill="#ffffff" stroke="transparent" points="42.5,-37 42.5,-55 108.5,-55 108.5,-37 42.5,-37"/>
<polygon fill="none" stroke="#000000" points="42.5,-37 42.5,-55 108.5,-55 108.5,-37 42.5,-37"/>
<text text-anchor="start" x="51.5" y="-43.2" font-family="Helvetica,sans-Serif" font-size="11.00" fill="#000000">1,645 rows</text>
<polygon fill="#ffffff" stroke="transparent" points="108.5,-37 108.5,-55 143.5,-55 143.5,-37 108.5,-37"/>
<polygon fill="none" stroke="#000000" points="108.5,-37 108.5,-55 143.5,-55 143.5,-37 108.5,-37"/>
<text text-anchor="start" x="118.5" y="-43.2" font-family="Helvetica,sans-Serif" font-size="11.00" fill="#000000">32 &gt;</text>
</a>
</g>
</g>
<!-- attribute_value_owner&#45;&gt;edition -->
<g id="edge3" class="edge">
<title>attribute_value_owner:w&#45;&gt;edition:e</title>
<path fill="none" stroke="#000000" d="M371.9622,-160.0786C354.2146,-146.6257 371.996,-102.2304 343,-85 282.2498,-48.9002 252.655,-68.2589 184,-85 164.3013,-89.8034 163.7759,-106 143.5,-106"/>
<polygon fill="#000000" stroke="#000000" points="378.295,-161.8476 385.0314,-167.4673 382.1475,-162.9238 386,-164 386,-164 386,-164 382.1475,-162.9238 386.9686,-160.5327 378.295,-161.8476 378.295,-161.8476"/>
<ellipse fill="none" stroke="#000000" cx="375.213" cy="-160.9866" rx="3.2" ry="3.2"/>
</g>
<!-- edition_editor&#45;&gt;edition -->
<g id="edge4" class="edge">
<title>edition_editor:w&#45;&gt;edition:e</title>
<path fill="none" stroke="#000000" d="M183.4046,-138.1474C168.8119,-128.8604 166.4854,-106 143.5,-106"/>
<polygon fill="#000000" stroke="#000000" points="189.7831,-139.8907 196.5508,-145.4726 193.6415,-140.9454 197.5,-142 197.5,-142 197.5,-142 193.6415,-140.9454 198.4492,-138.5274 189.7831,-139.8907 189.7831,-139.8907"/>
<ellipse fill="none" stroke="#000000" cx="186.6963" cy="-139.047" rx="3.2" ry="3.2"/>
</g>
</g>
</svg>
