<?xml version="1.0" encoding="UTF-8" standalone="no"?>
<!DOCTYPE svg PUBLIC "-//W3C//DTD SVG 1.1//EN"
 "http://www.w3.org/Graphics/SVG/1.1/DTD/svg11.dtd">
<!-- Generated by graphviz version 2.43.0 (0)
 -->
<!-- Title: oneDegreeRelationshipsDiagram Pages: 1 -->
<svg width="752pt" height="197pt"
 viewBox="0.00 0.00 752.00 197.00" xmlns="http://www.w3.org/2000/svg" xmlns:xlink="http://www.w3.org/1999/xlink">
<g id="graph0" class="graph" transform="scale(1 1) rotate(0) translate(4 193)">
<title>oneDegreeRelationshipsDiagram</title>
<polygon fill="#ffffff" stroke="transparent" points="-4,4 -4,-193 748,-193 748,4 -4,4"/>
<text text-anchor="middle" x="79.5" y="-7.2" font-family="Helvetica,sans-Serif" font-size="11.00">Generated by SchemaSpy</text>
<!-- attribute_value_css -->
<g id="node1" class="node">
<title>attribute_value_css</title>
<g id="a_node1"><a xlink:href="../../tables/attribute_value_css.html" xlink:title="attribute_value_css" target="_top">
<polygon fill="#ffffff" stroke="transparent" points="202,-75 202,-185 473,-185 473,-75 202,-75"/>
<polygon fill="#f5f5f5" stroke="transparent" points="204.5,-161 204.5,-183 471.5,-183 471.5,-161 204.5,-161"/>
<polygon fill="none" stroke="black" points="204.5,-161 204.5,-183 471.5,-183 471.5,-161 204.5,-161"/>
<text text-anchor="start" x="209.5" y="-170.2" font-family="Helvetica,sans-Serif" font-weight="bold" font-size="11.00">attribute_value_css</text>
<text text-anchor="start" x="429.5" y="-169.2" font-family="Helvetica,sans-Serif" font-size="11.00">[table]</text>
<polygon fill="none" stroke="black" points="204.5,-139 204.5,-161 374.5,-161 374.5,-139 204.5,-139"/>
<image xlink:href="../../images/primaryKeys.png" width="11px" height="12px" preserveAspectRatio="xMinYMin meet" x="209.5" y="-156"/>
<text text-anchor="start" x="224.5" y="-147.2" font-family="Helvetica,sans-Serif" font-size="11.00">attribute_value_css_id</text>
<polygon fill="none" stroke="black" points="374.5,-139 374.5,-161 471.5,-161 471.5,-139 374.5,-139"/>
<text text-anchor="start" x="377.5" y="-147.2" font-family="Helvetica,sans-Serif" font-size="11.00">int unsigned[10]</text>
<polygon fill="#ffffff" stroke="transparent" points="204.5,-117 204.5,-139 374.5,-139 374.5,-117 204.5,-117"/>
<polygon fill="none" stroke="black" points="204.5,-117 204.5,-139 374.5,-139 374.5,-117 204.5,-117"/>
<image xlink:href="../../images/foreignKeys.png" width="11px" height="12px" preserveAspectRatio="xMinYMin meet" x="209.5" y="-134"/>
<text text-anchor="start" x="224.5" y="-125.2" font-family="Helvetica,sans-Serif" font-size="11.00">attribute_value_id</text>
<polygon fill="none" stroke="black" points="374.5,-117 374.5,-139 471.5,-139 471.5,-117 374.5,-117"/>
<text text-anchor="start" x="377.5" y="-125.2" font-family="Helvetica,sans-Serif" font-size="11.00">int unsigned[10]</text>
<polygon fill="#ffffff" stroke="transparent" points="204.5,-95 204.5,-117 374.5,-117 374.5,-95 204.5,-95"/>
<polygon fill="none" stroke="black" points="204.5,-95 204.5,-117 374.5,-117 374.5,-95 204.5,-95"/>
<text text-anchor="start" x="224.5" y="-103.2" font-family="Helvetica,sans-Serif" font-size="11.00">css</text>
<polygon fill="none" stroke="black" points="374.5,-95 374.5,-117 471.5,-117 471.5,-95 374.5,-95"/>
<text text-anchor="start" x="377.5" y="-103.2" font-family="Helvetica,sans-Serif" font-size="11.00">varchar[255]</text>
<polygon fill="#ffffff" stroke="transparent" points="204.5,-77 204.5,-95 280.5,-95 280.5,-77 204.5,-77"/>
<polygon fill="none" stroke="black" points="204.5,-77 204.5,-95 280.5,-95 280.5,-77 204.5,-77"/>
<text text-anchor="start" x="207.5" y="-83.2" font-family="Helvetica,sans-Serif" font-size="11.00">&lt; 1</text>
<polygon fill="#ffffff" stroke="transparent" points="280.5,-77 280.5,-95 374.5,-95 374.5,-77 280.5,-77"/>
<polygon fill="none" stroke="black" points="280.5,-77 280.5,-95 374.5,-95 374.5,-77 280.5,-77"/>
<text text-anchor="start" x="334.5" y="-83.2" font-family="Helvetica,sans-Serif" font-size="11.00">0 rows</text>
<polygon fill="#ffffff" stroke="transparent" points="374.5,-77 374.5,-95 471.5,-95 471.5,-77 374.5,-77"/>
<polygon fill="none" stroke="black" points="374.5,-77 374.5,-95 471.5,-95 471.5,-77 374.5,-77"/>
<text text-anchor="start" x="448.5" y="-83.2" font-family="Helvetica,sans-Serif" font-size="11.00">1 &gt;</text>
<polygon fill="none" stroke="black" stroke-width="2" points="203,-76 203,-184 472,-184 472,-76 203,-76"/>
</a>
</g>
</g>
<!-- attribute_value -->
<g id="node2" class="node">
<title>attribute_value</title>
<g id="a_node2"><a xlink:href="../../tables/attribute_value.html" xlink:title="attribute_value" target="_top">
<polygon fill="#ffffff" stroke="transparent" points="8,-37 8,-161 153,-161 153,-37 8,-37"/>
<polygon fill="#f5f5f5" stroke="transparent" points="8.5,-139 8.5,-161 153.5,-161 153.5,-139 8.5,-139"/>
<polygon fill="none" stroke="black" points="8.5,-139 8.5,-161 153.5,-161 153.5,-139 8.5,-139"/>
<text text-anchor="start" x="13.5" y="-148.2" font-family="Helvetica,sans-Serif" font-weight="bold" font-size="11.00">attribute_value</text>
<text text-anchor="start" x="111.5" y="-147.2" font-family="Helvetica,sans-Serif" font-size="11.00">[table]</text>
<polygon fill="none" stroke="black" points="8.5,-117 8.5,-139 153.5,-139 153.5,-117 8.5,-117"/>
<image xlink:href="../../images/primaryKeys.png" width="11px" height="12px" preserveAspectRatio="xMinYMin meet" x="13.5" y="-134"/>
<text text-anchor="start" x="29.5" y="-125.2" font-family="Helvetica,sans-Serif" font-size="11.00">attribute_value_id</text>
<polygon fill="#ffffff" stroke="transparent" points="8.5,-95 8.5,-117 153.5,-117 153.5,-95 8.5,-95"/>
<polygon fill="none" stroke="black" points="8.5,-95 8.5,-117 153.5,-117 153.5,-95 8.5,-95"/>
<image xlink:href="../../images/foreignKeys.png" width="11px" height="12px" preserveAspectRatio="xMinYMin meet" x="13.5" y="-112"/>
<text text-anchor="start" x="29.5" y="-103.2" font-family="Helvetica,sans-Serif" font-size="11.00">attribute_id</text>
<polygon fill="#ffffff" stroke="transparent" points="8.5,-73 8.5,-95 153.5,-95 153.5,-73 8.5,-73"/>
<polygon fill="none" stroke="black" points="8.5,-73 8.5,-95 153.5,-95 153.5,-73 8.5,-73"/>
<text text-anchor="start" x="29.5" y="-81.2" font-family="Helvetica,sans-Serif" font-size="11.00">string_value</text>
<polygon fill="none" stroke="black" points="8.5,-55 8.5,-73 153.5,-73 153.5,-55 8.5,-55"/>
<text text-anchor="start" x="11.5" y="-61.2" font-family="Helvetica,sans-Serif" font-size="11.00">...</text>
<polygon fill="#ffffff" stroke="transparent" points="8.5,-37 8.5,-55 55.5,-55 55.5,-37 8.5,-37"/>
<polygon fill="none" stroke="black" points="8.5,-37 8.5,-55 55.5,-55 55.5,-37 8.5,-37"/>
<text text-anchor="start" x="11.5" y="-43.2" font-family="Helvetica,sans-Serif" font-size="11.00">&lt; 1</text>
<polygon fill="#ffffff" stroke="transparent" points="55.5,-37 55.5,-55 116.5,-55 116.5,-37 55.5,-37"/>
<polygon fill="none" stroke="black" points="55.5,-37 55.5,-55 116.5,-55 116.5,-37 55.5,-37"/>
<text text-anchor="start" x="69.5" y="-43.2" font-family="Helvetica,sans-Serif" font-size="11.00">44 rows</text>
<polygon fill="#ffffff" stroke="transparent" points="116.5,-37 116.5,-55 153.5,-55 153.5,-37 116.5,-37"/>
<polygon fill="none" stroke="black" points="116.5,-37 116.5,-55 153.5,-55 153.5,-37 116.5,-37"/>
<text text-anchor="start" x="130.5" y="-43.2" font-family="Helvetica,sans-Serif" font-size="11.00">3 &gt;</text>
</a>
</g>
</g>
<!-- attribute_value_css&#45;&gt;attribute_value -->
<g id="edge1" class="edge">
<title>attribute_value_css:w&#45;&gt;attribute_value:e</title>
<path fill="none" stroke="black" d="M188.99,-128C177.68,-128 170.49,-128 154.5,-128"/>
<polygon fill="black" stroke="black" points="195.5,-128 203.5,-131.6 199.5,-128 203.5,-128 203.5,-128 203.5,-128 199.5,-128 203.5,-124.4 195.5,-128 195.5,-128"/>
<ellipse fill="none" stroke="black" cx="192.3" cy="-128" rx="3.2" ry="3.2"/>
</g>
<!-- attribute_value_css_owner -->
<g id="node3" class="node">
<title>attribute_value_css_owner</title>
<g id="a_node3"><a xlink:href="../../tables/attribute_value_css_owner.html" xlink:title="attribute_value_css_owner" target="_top">
<polygon fill="#ffffff" stroke="transparent" points="522,-77 522,-183 736,-183 736,-77 522,-77"/>
<polygon fill="#f5f5f5" stroke="transparent" points="522,-161 522,-183 736,-183 736,-161 522,-161"/>
<polygon fill="none" stroke="black" points="522,-161 522,-183 736,-183 736,-161 522,-161"/>
<text text-anchor="start" x="527" y="-170.2" font-family="Helvetica,sans-Serif" font-weight="bold" font-size="11.00">attribute_value_css_owner</text>
<text text-anchor="start" x="694" y="-169.2" font-family="Helvetica,sans-Serif" font-size="11.00">[table]</text>
<polygon fill="none" stroke="black" points="522,-139 522,-161 736,-161 736,-139 522,-139"/>
<image xlink:href="../../images/primaryKeys.png" width="11px" height="12px" preserveAspectRatio="xMinYMin meet" x="527" y="-156"/>
<text text-anchor="start" x="550" y="-147.2" font-family="Helvetica,sans-Serif" font-size="11.00">attribute_value_css_id</text>
<polygon fill="#ffffff" stroke="transparent" points="522,-117 522,-139 736,-139 736,-117 522,-117"/>
<polygon fill="none" stroke="black" points="522,-117 522,-139 736,-139 736,-117 522,-117"/>
<image xlink:href="../../images/foreignKeys.png" width="11px" height="12px" preserveAspectRatio="xMinYMin meet" x="527" y="-134"/>
<text text-anchor="start" x="550" y="-125.2" font-family="Helvetica,sans-Serif" font-size="11.00">edition_editor_id</text>
<polygon fill="none" stroke="black" points="522,-95 522,-117 736,-117 736,-95 522,-95"/>
<image xlink:href="../../images/primaryKeys.png" width="11px" height="12px" preserveAspectRatio="xMinYMin meet" x="527" y="-112"/>
<text text-anchor="start" x="550" y="-103.2" font-family="Helvetica,sans-Serif" font-size="11.00">edition_id</text>
<polygon fill="#ffffff" stroke="transparent" points="522,-77 522,-95 613,-95 613,-77 522,-77"/>
<polygon fill="none" stroke="black" points="522,-77 522,-95 613,-95 613,-77 522,-77"/>
<text text-anchor="start" x="525" y="-83.2" font-family="Helvetica,sans-Serif" font-size="11.00">&lt; 3</text>
<polygon fill="#ffffff" stroke="transparent" points="613,-77 613,-95 689,-95 689,-77 613,-77"/>
<polygon fill="none" stroke="black" points="613,-77 613,-95 689,-95 689,-77 613,-77"/>
<text text-anchor="start" x="649" y="-83.2" font-family="Helvetica,sans-Serif" font-size="11.00">0 rows</text>
<polygon fill="#ffffff" stroke="transparent" points="689,-77 689,-95 736,-95 736,-77 689,-77"/>
<polygon fill="none" stroke="black" points="689,-77 689,-95 736,-95 736,-77 689,-77"/>
<text text-anchor="start" x="725" y="-83.2" font-family="Helvetica,sans-Serif" font-size="11.00"> &#160;</text>
</a>
</g>
</g>
<!-- attribute_value_css_owner&#45;&gt;attribute_value_css -->
<g id="edge2" class="edge">
<title>attribute_value_css_owner:w&#45;&gt;attribute_value_css:e</title>
<path fill="none" stroke="black" d="M506.28,-150C495.29,-150 488.16,-150 472.5,-150"/>
<polygon fill="black" stroke="black" points="513,-150 521,-153.6 517,-150 521,-150 521,-150 521,-150 517,-150 521,-146.4 513,-150 513,-150"/>
<ellipse fill="none" stroke="black" cx="509.8" cy="-150" rx="3.2" ry="3.2"/>
</g>
</g>
</svg>
