<?xml version="1.0" encoding="UTF-8" standalone="no"?>
<!DOCTYPE svg PUBLIC "-//W3C//DTD SVG 1.1//EN"
 "http://www.w3.org/Graphics/SVG/1.1/DTD/svg11.dtd">
<!-- Generated by graphviz version 2.40.1 (20161225.0304)
 -->
<!-- Title: oneDegreeRelationshipsDiagramImplied Pages: 1 -->
<svg width="932pt" height="253pt"
 viewBox="0.00 0.00 932.00 253.00" xmlns="http://www.w3.org/2000/svg" xmlns:xlink="http://www.w3.org/1999/xlink">
<g id="graph0" class="graph" transform="scale(1 1) rotate(0) translate(4 249)">
<title>oneDegreeRelationshipsDiagramImplied</title>
<polygon fill="#ffffff" stroke="transparent" points="-4,4 -4,-249 928,-249 928,4 -4,4"/>
<text text-anchor="middle" x="71.5" y="-7.2" font-family="Helvetica,sans-Serif" font-size="11.00" fill="#000000">Generated by SchemaSpy</text>
<!-- attribute_value -->
<g id="node1" class="node">
<title>attribute_value</title>
<g id="a_node1"><a xlink:href="../../tables/attribute_value.html" xlink:title="attribute_value" target="_top">
<polygon fill="#ffffff" stroke="transparent" points="220,-95 220,-241 363,-241 363,-95 220,-95"/>
<polygon fill="#f5f5f5" stroke="transparent" points="220.5,-219 220.5,-241 363.5,-241 363.5,-219 220.5,-219"/>
<polygon fill="none" stroke="#000000" points="220.5,-219 220.5,-241 363.5,-241 363.5,-219 220.5,-219"/>
<text text-anchor="start" x="225.5" y="-228.2" font-family="Helvetica,sans-Serif" font-weight="bold" font-size="11.00" fill="#000000">attribute_value</text>
<text text-anchor="start" x="328.5" y="-227.2" font-family="Helvetica,sans-Serif" font-size="11.00" fill="#000000">[table]</text>
<polygon fill="none" stroke="#000000" points="220.5,-197 220.5,-219 363.5,-219 363.5,-197 220.5,-197"/>
<image xlink:href="../../images/primaryKeys.png" width="11px" height="12px" preserveAspectRatio="xMinYMin meet" x="225.5" y="-214"/>
<text text-anchor="start" x="240.5" y="-205.2" font-family="Helvetica,sans-Serif" font-size="11.00" fill="#000000">attribute_value_id</text>
<polygon fill="#ffffff" stroke="transparent" points="220.5,-175 220.5,-197 363.5,-197 363.5,-175 220.5,-175"/>
<polygon fill="none" stroke="#000000" points="220.5,-175 220.5,-197 363.5,-197 363.5,-175 220.5,-175"/>
<image xlink:href="../../images/foreignKeys.png" width="11px" height="12px" preserveAspectRatio="xMinYMin meet" x="225.5" y="-192"/>
<text text-anchor="start" x="240.5" y="-183.2" font-family="Helvetica,sans-Serif" font-size="11.00" fill="#000000">attribute_id</text>
<polygon fill="#ffffff" stroke="transparent" points="220.5,-153 220.5,-175 363.5,-175 363.5,-153 220.5,-153"/>
<polygon fill="none" stroke="#000000" points="220.5,-153 220.5,-175 363.5,-175 363.5,-153 220.5,-153"/>
<text text-anchor="start" x="240.5" y="-161.2" font-family="Helvetica,sans-Serif" font-size="11.00" fill="#000000">string_value</text>
<polygon fill="#ffffff" stroke="transparent" points="220.5,-131 220.5,-153 363.5,-153 363.5,-131 220.5,-131"/>
<polygon fill="none" stroke="#000000" points="220.5,-131 220.5,-153 363.5,-153 363.5,-131 220.5,-131"/>
<image xlink:href="../../images/foreignKeys.png" width="11px" height="12px" preserveAspectRatio="xMinYMin meet" x="225.5" y="-148"/>
<text text-anchor="start" x="240.5" y="-139.2" font-family="Helvetica,sans-Serif" font-size="11.00" fill="#000000">creator_id</text>
<polygon fill="none" stroke="#000000" points="220.5,-113 220.5,-131 363.5,-131 363.5,-113 220.5,-113"/>
<text text-anchor="start" x="223.5" y="-119.2" font-family="Helvetica,sans-Serif" font-size="11.00" fill="#000000">...</text>
<polygon fill="#ffffff" stroke="transparent" points="220.5,-95 220.5,-113 269.5,-113 269.5,-95 220.5,-95"/>
<polygon fill="none" stroke="#000000" points="220.5,-95 220.5,-113 269.5,-113 269.5,-95 220.5,-95"/>
<text text-anchor="start" x="223.5" y="-101.2" font-family="Helvetica,sans-Serif" font-size="11.00" fill="#000000">&lt; 2</text>
<polygon fill="#ffffff" stroke="transparent" points="269.5,-95 269.5,-113 327.5,-113 327.5,-95 269.5,-95"/>
<polygon fill="none" stroke="#000000" points="269.5,-95 269.5,-113 327.5,-113 327.5,-95 269.5,-95"/>
<text text-anchor="start" x="285.5" y="-101.2" font-family="Helvetica,sans-Serif" font-size="11.00" fill="#000000">44 rows</text>
<polygon fill="#ffffff" stroke="transparent" points="327.5,-95 327.5,-113 363.5,-113 363.5,-95 327.5,-95"/>
<polygon fill="none" stroke="#000000" points="327.5,-95 327.5,-113 363.5,-113 363.5,-95 327.5,-95"/>
<text text-anchor="start" x="344.5" y="-101.2" font-family="Helvetica,sans-Serif" font-size="11.00" fill="#000000">3 &gt;</text>
</a>
</g>
</g>
<!-- user -->
<g id="node2" class="node">
<title>user</title>
<g id="a_node2"><a xlink:href="../../tables/user.html" xlink:title="user" target="_top">
<polygon fill="#ffffff" stroke="transparent" points="8,-37 8,-139 171,-139 171,-37 8,-37"/>
<polygon fill="#f5f5f5" stroke="transparent" points="8.5,-117 8.5,-139 171.5,-139 171.5,-117 8.5,-117"/>
<polygon fill="none" stroke="#000000" points="8.5,-117 8.5,-139 171.5,-139 171.5,-117 8.5,-117"/>
<text text-anchor="start" x="13.5" y="-126.2" font-family="Helvetica,sans-Serif" font-weight="bold" font-size="11.00" fill="#000000">user</text>
<text text-anchor="start" x="136.5" y="-125.2" font-family="Helvetica,sans-Serif" font-size="11.00" fill="#000000">[table]</text>
<polygon fill="none" stroke="#000000" points="8.5,-95 8.5,-117 171.5,-117 171.5,-95 8.5,-95"/>
<image xlink:href="../../images/primaryKeys.png" width="11px" height="12px" preserveAspectRatio="xMinYMin meet" x="13.5" y="-112"/>
<text text-anchor="start" x="28.5" y="-103.2" font-family="Helvetica,sans-Serif" font-size="11.00" fill="#000000">user_id</text>
<polygon fill="#ffffff" stroke="transparent" points="8.5,-73 8.5,-95 171.5,-95 171.5,-73 8.5,-73"/>
<polygon fill="none" stroke="#000000" points="8.5,-73 8.5,-95 171.5,-95 171.5,-73 8.5,-73"/>
<text text-anchor="start" x="28.5" y="-81.2" font-family="Helvetica,sans-Serif" font-size="11.00" fill="#000000">email</text>
<polygon fill="none" stroke="#000000" points="8.5,-55 8.5,-73 171.5,-73 171.5,-55 8.5,-55"/>
<text text-anchor="start" x="11.5" y="-61.2" font-family="Helvetica,sans-Serif" font-size="11.00" fill="#000000">...</text>
<polygon fill="#ffffff" stroke="transparent" points="8.5,-37 8.5,-55 62.5,-55 62.5,-37 8.5,-37"/>
<polygon fill="none" stroke="#000000" points="8.5,-37 8.5,-55 62.5,-55 62.5,-37 8.5,-37"/>
<text text-anchor="start" x="11.5" y="-43.2" font-family="Helvetica,sans-Serif" font-size="11.00" fill="#000000"> &#160;</text>
<polygon fill="#ffffff" stroke="transparent" points="62.5,-37 62.5,-55 122.5,-55 122.5,-37 62.5,-37"/>
<polygon fill="none" stroke="#000000" points="62.5,-37 62.5,-55 122.5,-55 122.5,-37 62.5,-37"/>
<text text-anchor="start" x="86.5" y="-43.2" font-family="Helvetica,sans-Serif" font-size="11.00" fill="#000000">3 rows</text>
<polygon fill="#ffffff" stroke="transparent" points="122.5,-37 122.5,-55 171.5,-55 171.5,-37 122.5,-37"/>
<polygon fill="none" stroke="#000000" points="122.5,-37 122.5,-55 171.5,-55 171.5,-37 122.5,-37"/>
<text text-anchor="start" x="146.5" y="-43.2" font-family="Helvetica,sans-Serif" font-size="11.00" fill="#000000">40 &gt;</text>
</a>
</g>
</g>
<!-- attribute_value&#45;&gt;user -->
<g id="edge1" class="edge">
<title>attribute_value:w&#45;&gt;user:e</title>
<path fill="none" stroke="#000000" d="M206.6983,-137.5857C194.1499,-127.9727 192.6121,-106 171.5,-106"/>
<polygon fill="#000000" stroke="#000000" points="212.8802,-139.5629 219.4033,-145.4289 216.6901,-140.7814 220.5,-142 220.5,-142 220.5,-142 216.6901,-140.7814 221.5967,-138.5711 212.8802,-139.5629 212.8802,-139.5629"/>
<ellipse fill="none" stroke="#000000" cx="209.8323" cy="-138.588" rx="3.2" ry="3.2"/>
</g>
<!-- attribute_value_css -->
<g id="node3" class="node">
<title>attribute_value_css</title>
<g id="a_node3"><a xlink:href="../../tables/attribute_value_css.html" xlink:title="attribute_value_css" target="_top">
<polygon fill="#ffffff" stroke="transparent" points="412,-86 412,-218 668,-218 668,-86 412,-86"/>
<polygon fill="#f5f5f5" stroke="transparent" points="414,-194 414,-216 666,-216 666,-194 414,-194"/>
<polygon fill="none" stroke="#000000" points="414,-194 414,-216 666,-216 666,-194 414,-194"/>
<text text-anchor="start" x="419" y="-203.2" font-family="Helvetica,sans-Serif" font-weight="bold" font-size="11.00" fill="#000000">attribute_value_css</text>
<text text-anchor="start" x="631" y="-202.2" font-family="Helvetica,sans-Serif" font-size="11.00" fill="#000000">[table]</text>
<polygon fill="none" stroke="#000000" points="414,-172 414,-194 584,-194 584,-172 414,-172"/>
<image xlink:href="../../images/primaryKeys.png" width="11px" height="12px" preserveAspectRatio="xMinYMin meet" x="419" y="-189"/>
<text text-anchor="start" x="434" y="-180.2" font-family="Helvetica,sans-Serif" font-size="11.00" fill="#000000">attribute_value_css_id</text>
<polygon fill="none" stroke="#000000" points="584,-172 584,-194 666,-194 666,-172 584,-172"/>
<text text-anchor="start" x="587" y="-180.2" font-family="Helvetica,sans-Serif" font-size="11.00" fill="#000000">int unsigned[10]</text>
<polygon fill="#ffffff" stroke="transparent" points="414,-150 414,-172 584,-172 584,-150 414,-150"/>
<polygon fill="none" stroke="#000000" points="414,-150 414,-172 584,-172 584,-150 414,-150"/>
<image xlink:href="../../images/foreignKeys.png" width="11px" height="12px" preserveAspectRatio="xMinYMin meet" x="419" y="-167"/>
<text text-anchor="start" x="434" y="-158.2" font-family="Helvetica,sans-Serif" font-size="11.00" fill="#000000">attribute_value_id</text>
<polygon fill="none" stroke="#000000" points="584,-150 584,-172 666,-172 666,-150 584,-150"/>
<text text-anchor="start" x="587" y="-158.2" font-family="Helvetica,sans-Serif" font-size="11.00" fill="#000000">int unsigned[10]</text>
<polygon fill="#ffffff" stroke="transparent" points="414,-128 414,-150 584,-150 584,-128 414,-128"/>
<polygon fill="none" stroke="#000000" points="414,-128 414,-150 584,-150 584,-128 414,-128"/>
<text text-anchor="start" x="434" y="-136.2" font-family="Helvetica,sans-Serif" font-size="11.00" fill="#000000">css</text>
<polygon fill="none" stroke="#000000" points="584,-128 584,-150 666,-150 666,-128 584,-128"/>
<text text-anchor="start" x="587" y="-136.2" font-family="Helvetica,sans-Serif" font-size="11.00" fill="#000000">varchar[255]</text>
<polygon fill="#ffffff" stroke="transparent" points="414,-106 414,-128 584,-128 584,-106 414,-106"/>
<polygon fill="none" stroke="#000000" points="414,-106 414,-128 584,-128 584,-106 414,-106"/>
<image xlink:href="../../images/foreignKeys.png" width="11px" height="12px" preserveAspectRatio="xMinYMin meet" x="419" y="-123"/>
<text text-anchor="start" x="434" y="-114.2" font-family="Helvetica,sans-Serif" font-size="11.00" fill="#000000">creator_id</text>
<polygon fill="none" stroke="#000000" points="584,-106 584,-128 666,-128 666,-106 584,-106"/>
<text text-anchor="start" x="587" y="-114.2" font-family="Helvetica,sans-Serif" font-size="11.00" fill="#000000">int unsigned[10]</text>
<polygon fill="#ffffff" stroke="transparent" points="414,-88 414,-106 490,-106 490,-88 414,-88"/>
<polygon fill="none" stroke="#000000" points="414,-88 414,-106 490,-106 490,-88 414,-88"/>
<text text-anchor="start" x="417" y="-94.2" font-family="Helvetica,sans-Serif" font-size="11.00" fill="#000000">&lt; 2</text>
<polygon fill="#ffffff" stroke="transparent" points="490,-88 490,-106 584,-106 584,-88 490,-88"/>
<polygon fill="none" stroke="#000000" points="490,-88 490,-106 584,-106 584,-88 490,-88"/>
<text text-anchor="start" x="548" y="-94.2" font-family="Helvetica,sans-Serif" font-size="11.00" fill="#000000">0 rows</text>
<polygon fill="#ffffff" stroke="transparent" points="584,-88 584,-106 666,-106 666,-88 584,-88"/>
<polygon fill="none" stroke="#000000" points="584,-88 584,-106 666,-106 666,-88 584,-88"/>
<text text-anchor="start" x="647" y="-94.2" font-family="Helvetica,sans-Serif" font-size="11.00" fill="#000000">1 &gt;</text>
<polygon fill="none" stroke="#000000" stroke-width="2" points="413,-87 413,-217 667,-217 667,-87 413,-87"/>
</a>
</g>
</g>
<!-- attribute_value_css&#45;&gt;attribute_value -->
<g id="edge2" class="edge">
<title>attribute_value_css:w&#45;&gt;attribute_value:e</title>
<path fill="none" stroke="#000000" d="M400.1638,-165.6784C385.9839,-177.5665 388.1725,-208 363.5,-208"/>
<polygon fill="#000000" stroke="#000000" points="406.4215,-163.5625 415.1531,-164.4103 410.2107,-162.2813 414,-161 414,-161 414,-161 410.2107,-162.2813 412.8469,-157.5897 406.4215,-163.5625 406.4215,-163.5625"/>
<ellipse fill="none" stroke="#000000" cx="403.3901" cy="-164.5875" rx="3.2" ry="3.2"/>
</g>
<!-- attribute_value_css&#45;&gt;user -->
<g id="edge3" class="edge">
<title>attribute_value_css:w&#45;&gt;user:e</title>
<path fill="none" stroke="#000000" d="M400.0119,-112.6968C390.146,-105.1415 387.9305,-89.7478 371,-84 304.0844,-61.2825 280.4906,-66.5984 212,-84 192.1465,-89.0442 191.9843,-106 171.5,-106"/>
<polygon fill="#000000" stroke="#000000" points="406.3536,-114.6477 412.9415,-120.4409 410.1768,-115.8239 414,-117 414,-117 414,-117 410.1768,-115.8239 415.0585,-113.5591 406.3536,-114.6477 406.3536,-114.6477"/>
<ellipse fill="none" stroke="#000000" cx="403.2951" cy="-113.7068" rx="3.2" ry="3.2"/>
</g>
<!-- attribute_value_css_owner -->
<g id="node4" class="node">
<title>attribute_value_css_owner</title>
<g id="a_node4"><a xlink:href="../../tables/attribute_value_css_owner.html" xlink:title="attribute_value_css_owner" target="_top">
<polygon fill="#ffffff" stroke="transparent" points="717,-110 717,-216 916,-216 916,-110 717,-110"/>
<polygon fill="#f5f5f5" stroke="transparent" points="717.5,-194 717.5,-216 916.5,-216 916.5,-194 717.5,-194"/>
<polygon fill="none" stroke="#000000" points="717.5,-194 717.5,-216 916.5,-216 916.5,-194 717.5,-194"/>
<text text-anchor="start" x="722.5" y="-203.2" font-family="Helvetica,sans-Serif" font-weight="bold" font-size="11.00" fill="#000000">attribute_value_css_owner</text>
<text text-anchor="start" x="881.5" y="-202.2" font-family="Helvetica,sans-Serif" font-size="11.00" fill="#000000">[table]</text>
<polygon fill="none" stroke="#000000" points="717.5,-172 717.5,-194 916.5,-194 916.5,-172 717.5,-172"/>
<image xlink:href="../../images/primaryKeys.png" width="11px" height="12px" preserveAspectRatio="xMinYMin meet" x="722.5" y="-189"/>
<text text-anchor="start" x="737.5" y="-180.2" font-family="Helvetica,sans-Serif" font-size="11.00" fill="#000000">attribute_value_css_id</text>
<polygon fill="#ffffff" stroke="transparent" points="717.5,-150 717.5,-172 916.5,-172 916.5,-150 717.5,-150"/>
<polygon fill="none" stroke="#000000" points="717.5,-150 717.5,-172 916.5,-172 916.5,-150 717.5,-150"/>
<image xlink:href="../../images/foreignKeys.png" width="11px" height="12px" preserveAspectRatio="xMinYMin meet" x="722.5" y="-167"/>
<text text-anchor="start" x="737.5" y="-158.2" font-family="Helvetica,sans-Serif" font-size="11.00" fill="#000000">edition_editor_id</text>
<polygon fill="none" stroke="#000000" points="717.5,-128 717.5,-150 916.5,-150 916.5,-128 717.5,-128"/>
<image xlink:href="../../images/primaryKeys.png" width="11px" height="12px" preserveAspectRatio="xMinYMin meet" x="722.5" y="-145"/>
<text text-anchor="start" x="737.5" y="-136.2" font-family="Helvetica,sans-Serif" font-size="11.00" fill="#000000">edition_id</text>
<polygon fill="#ffffff" stroke="transparent" points="717.5,-110 717.5,-128 801.5,-128 801.5,-110 717.5,-110"/>
<polygon fill="none" stroke="#000000" points="717.5,-110 717.5,-128 801.5,-128 801.5,-110 717.5,-110"/>
<text text-anchor="start" x="720.5" y="-116.2" font-family="Helvetica,sans-Serif" font-size="11.00" fill="#000000">&lt; 3</text>
<polygon fill="#ffffff" stroke="transparent" points="801.5,-110 801.5,-128 871.5,-128 871.5,-110 801.5,-110"/>
<polygon fill="none" stroke="#000000" points="801.5,-110 801.5,-128 871.5,-128 871.5,-110 801.5,-110"/>
<text text-anchor="start" x="835.5" y="-116.2" font-family="Helvetica,sans-Serif" font-size="11.00" fill="#000000">0 rows</text>
<polygon fill="#ffffff" stroke="transparent" points="871.5,-110 871.5,-128 916.5,-128 916.5,-110 871.5,-110"/>
<polygon fill="none" stroke="#000000" points="871.5,-110 871.5,-128 916.5,-128 916.5,-110 871.5,-110"/>
<text text-anchor="start" x="906.5" y="-116.2" font-family="Helvetica,sans-Serif" font-size="11.00" fill="#000000"> &#160;</text>
</a>
</g>
</g>
<!-- attribute_value_css_owner&#45;&gt;attribute_value_css -->
<g id="edge4" class="edge">
<title>attribute_value_css_owner:w&#45;&gt;attribute_value_css:e</title>
<path fill="none" stroke="#000000" d="M703.0156,-183C690.6771,-183 683.1667,-183 666,-183"/>
<polygon fill="#000000" stroke="#000000" points="709.5,-183.0001 717.5,-186.6 713.5,-183 717.5,-183 717.5,-183 717.5,-183 713.5,-183 717.5,-179.4 709.5,-183.0001 709.5,-183.0001"/>
<ellipse fill="none" stroke="#000000" cx="706.3" cy="-183.0001" rx="3.2" ry="3.2"/>
</g>
</g>
</svg>
