<?xml version="1.0" encoding="UTF-8" standalone="no"?>
<!DOCTYPE svg PUBLIC "-//W3C//DTD SVG 1.1//EN"
 "http://www.w3.org/Graphics/SVG/1.1/DTD/svg11.dtd">
<!-- Generated by graphviz version 2.43.0 (0)
 -->
<!-- Title: twoDegreesRelationshipsDiagram Pages: 1 -->
<svg width="1044pt" height="682pt"
 viewBox="0.00 0.00 1044.00 682.08" xmlns="http://www.w3.org/2000/svg" xmlns:xlink="http://www.w3.org/1999/xlink">
<g id="graph0" class="graph" transform="scale(1 1) rotate(0) translate(4 678.08)">
<title>twoDegreesRelationshipsDiagram</title>
<polygon fill="#ffffff" stroke="transparent" points="-4,4 -4,-678.08 1040,-678.08 1040,4 -4,4"/>
<text text-anchor="middle" x="79.5" y="-7.2" font-family="Helvetica,sans-Serif" font-size="11.00">Generated by SchemaSpy</text>
<!-- attribute_owner -->
<g id="node1" class="node">
<title>attribute_owner</title>
<g id="a_node1"><a xlink:href="../../tables/attribute_owner.html" xlink:title="attribute_owner" target="_top">
<polygon fill="#ffffff" stroke="transparent" points="817,-54.08 817,-112.08 967,-112.08 967,-54.08 817,-54.08"/>
<polygon fill="#f5f5f5" stroke="transparent" points="817,-90.08 817,-112.08 967,-112.08 967,-90.08 817,-90.08"/>
<polygon fill="none" stroke="black" points="817,-90.08 817,-112.08 967,-112.08 967,-90.08 817,-90.08"/>
<text text-anchor="start" x="822" y="-99.28" font-family="Helvetica,sans-Serif" font-weight="bold" font-size="11.00">attribute_owner</text>
<text text-anchor="start" x="925" y="-98.28" font-family="Helvetica,sans-Serif" font-size="11.00">[table]</text>
<polygon fill="none" stroke="black" points="817,-72.08 817,-90.08 967,-90.08 967,-72.08 817,-72.08"/>
<text text-anchor="start" x="820" y="-78.28" font-family="Helvetica,sans-Serif" font-size="11.00">...</text>
<polygon fill="#ffffff" stroke="transparent" points="817,-54.08 817,-72.08 861,-72.08 861,-54.08 817,-54.08"/>
<polygon fill="none" stroke="black" points="817,-54.08 817,-72.08 861,-72.08 861,-54.08 817,-54.08"/>
<text text-anchor="start" x="820" y="-60.28" font-family="Helvetica,sans-Serif" font-size="11.00">&lt; 3</text>
<polygon fill="#ffffff" stroke="transparent" points="861,-54.08 861,-72.08 944,-72.08 944,-54.08 861,-54.08"/>
<polygon fill="none" stroke="black" points="861,-54.08 861,-72.08 944,-72.08 944,-54.08 861,-54.08"/>
<text text-anchor="start" x="873" y="-60.28" font-family="Helvetica,sans-Serif" font-size="11.00">14,168 rows</text>
<polygon fill="#ffffff" stroke="transparent" points="944,-54.08 944,-72.08 967,-72.08 967,-54.08 944,-54.08"/>
<polygon fill="none" stroke="black" points="944,-54.08 944,-72.08 967,-72.08 967,-54.08 944,-54.08"/>
<text text-anchor="start" x="956" y="-60.28" font-family="Helvetica,sans-Serif" font-size="11.00"> &#160;</text>
</a>
</g>
</g>
<!-- attribute -->
<g id="node2" class="node">
<title>attribute</title>
<g id="a_node2"><a xlink:href="../../tables/attribute.html" xlink:title="attribute" target="_top">
<polygon fill="#ffffff" stroke="transparent" points="8,-296.08 8,-398.08 114,-398.08 114,-296.08 8,-296.08"/>
<polygon fill="#f5f5f5" stroke="transparent" points="8,-376.08 8,-398.08 114,-398.08 114,-376.08 8,-376.08"/>
<polygon fill="none" stroke="black" points="8,-376.08 8,-398.08 114,-398.08 114,-376.08 8,-376.08"/>
<text text-anchor="start" x="13" y="-385.28" font-family="Helvetica,sans-Serif" font-weight="bold" font-size="11.00">attribute</text>
<text text-anchor="start" x="72" y="-384.28" font-family="Helvetica,sans-Serif" font-size="11.00">[table]</text>
<polygon fill="none" stroke="black" points="8,-354.08 8,-376.08 114,-376.08 114,-354.08 8,-354.08"/>
<image xlink:href="../../images/primaryKeys.png" width="11px" height="12px" preserveAspectRatio="xMinYMin meet" x="13" y="-371.078"/>
<text text-anchor="start" x="31" y="-362.28" font-family="Helvetica,sans-Serif" font-size="11.00">attribute_id</text>
<polygon fill="#ffffff" stroke="transparent" points="8,-332.08 8,-354.08 114,-354.08 114,-332.08 8,-332.08"/>
<polygon fill="none" stroke="black" points="8,-332.08 8,-354.08 114,-354.08 114,-332.08 8,-332.08"/>
<text text-anchor="start" x="31" y="-340.28" font-family="Helvetica,sans-Serif" font-size="11.00">name</text>
<polygon fill="none" stroke="black" points="8,-314.08 8,-332.08 114,-332.08 114,-314.08 8,-314.08"/>
<text text-anchor="start" x="11" y="-320.28" font-family="Helvetica,sans-Serif" font-size="11.00">...</text>
<polygon fill="#ffffff" stroke="transparent" points="8,-296.08 8,-314.08 33,-314.08 33,-296.08 8,-296.08"/>
<polygon fill="none" stroke="black" points="8,-296.08 8,-314.08 33,-314.08 33,-296.08 8,-296.08"/>
<text text-anchor="start" x="11" y="-302.28" font-family="Helvetica,sans-Serif" font-size="11.00"> &#160;</text>
<polygon fill="#ffffff" stroke="transparent" points="33,-296.08 33,-314.08 82,-314.08 82,-296.08 33,-296.08"/>
<polygon fill="none" stroke="black" points="33,-296.08 33,-314.08 82,-314.08 82,-296.08 33,-296.08"/>
<text text-anchor="start" x="42" y="-302.28" font-family="Helvetica,sans-Serif" font-size="11.00">9 rows</text>
<polygon fill="#ffffff" stroke="transparent" points="82,-296.08 82,-314.08 114,-314.08 114,-296.08 82,-296.08"/>
<polygon fill="none" stroke="black" points="82,-296.08 82,-314.08 114,-314.08 114,-296.08 82,-296.08"/>
<text text-anchor="start" x="91" y="-302.28" font-family="Helvetica,sans-Serif" font-size="11.00">3 &gt;</text>
</a>
</g>
</g>
<!-- attribute_owner&#45;&gt;attribute -->
<g id="edge1" class="edge">
<title>attribute_owner:w&#45;&gt;attribute:e</title>
<path fill="none" stroke="black" d="M801.41,-80.96C515.51,-76.41 359.54,58.98 155,-147.08 85.6,-216.99 213.51,-365.08 115,-365.08"/>
<polygon fill="black" stroke="black" points="808,-81.01 815.97,-84.68 812,-81.05 816,-81.08 816,-81.08 816,-81.08 812,-81.05 816.03,-77.48 808,-81.01 808,-81.01"/>
<ellipse fill="none" stroke="black" cx="804.8" cy="-80.99" rx="3.2" ry="3.2"/>
</g>
<!-- edition_editor -->
<g id="node3" class="node">
<title>edition_editor</title>
<g id="a_node3"><a xlink:href="../../tables/edition_editor.html" xlink:title="edition_editor" target="_top">
<polygon fill="#ffffff" stroke="transparent" points="513.5,-158.08 513.5,-216.08 649.5,-216.08 649.5,-158.08 513.5,-158.08"/>
<polygon fill="#f5f5f5" stroke="transparent" points="513.5,-194.08 513.5,-216.08 649.5,-216.08 649.5,-194.08 513.5,-194.08"/>
<polygon fill="none" stroke="black" points="513.5,-194.08 513.5,-216.08 649.5,-216.08 649.5,-194.08 513.5,-194.08"/>
<text text-anchor="start" x="518.5" y="-203.28" font-family="Helvetica,sans-Serif" font-weight="bold" font-size="11.00">edition_editor</text>
<text text-anchor="start" x="607.5" y="-202.28" font-family="Helvetica,sans-Serif" font-size="11.00">[table]</text>
<polygon fill="none" stroke="black" points="513.5,-176.08 513.5,-194.08 649.5,-194.08 649.5,-176.08 513.5,-176.08"/>
<text text-anchor="start" x="516.5" y="-182.28" font-family="Helvetica,sans-Serif" font-size="11.00">...</text>
<polygon fill="#ffffff" stroke="transparent" points="513.5,-158.08 513.5,-176.08 544.5,-176.08 544.5,-158.08 513.5,-158.08"/>
<polygon fill="none" stroke="black" points="513.5,-158.08 513.5,-176.08 544.5,-176.08 544.5,-158.08 513.5,-158.08"/>
<text text-anchor="start" x="516.5" y="-164.28" font-family="Helvetica,sans-Serif" font-size="11.00">&lt; 2</text>
<polygon fill="#ffffff" stroke="transparent" points="544.5,-158.08 544.5,-176.08 613.5,-176.08 613.5,-158.08 544.5,-158.08"/>
<polygon fill="none" stroke="black" points="544.5,-158.08 544.5,-176.08 613.5,-176.08 613.5,-158.08 544.5,-158.08"/>
<text text-anchor="start" x="549.5" y="-164.28" font-family="Helvetica,sans-Serif" font-size="11.00">1,645 rows</text>
<polygon fill="#ffffff" stroke="transparent" points="613.5,-158.08 613.5,-176.08 649.5,-176.08 649.5,-158.08 613.5,-158.08"/>
<polygon fill="none" stroke="black" points="613.5,-158.08 613.5,-176.08 649.5,-176.08 649.5,-158.08 613.5,-158.08"/>
<text text-anchor="start" x="619.5" y="-164.28" font-family="Helvetica,sans-Serif" font-size="11.00">33 &gt;</text>
</a>
</g>
</g>
<!-- attribute_owner&#45;&gt;edition_editor -->
<g id="edge2" class="edge">
<title>attribute_owner:w&#45;&gt;edition_editor:e</title>
<path fill="none" stroke="black" d="M801.22,-82.18C729.78,-93.29 732.11,-185.08 650.5,-185.08"/>
<polygon fill="black" stroke="black" points="808.02,-81.67 816.27,-84.67 812.01,-81.37 816,-81.08 816,-81.08 816,-81.08 812.01,-81.37 815.73,-77.49 808.02,-81.67 808.02,-81.67"/>
<ellipse fill="none" stroke="black" cx="804.83" cy="-81.91" rx="3.2" ry="3.2"/>
</g>
<!-- edition -->
<g id="node4" class="node">
<title>edition</title>
<g id="a_node4"><a xlink:href="../../tables/edition.html" xlink:title="edition" target="_top">
<polygon fill="#ffffff" stroke="transparent" points="222,-158.08 222,-216.08 348,-216.08 348,-158.08 222,-158.08"/>
<polygon fill="#f5f5f5" stroke="transparent" points="222,-194.08 222,-216.08 348,-216.08 348,-194.08 222,-194.08"/>
<polygon fill="none" stroke="black" points="222,-194.08 222,-216.08 348,-216.08 348,-194.08 222,-194.08"/>
<text text-anchor="start" x="227" y="-203.28" font-family="Helvetica,sans-Serif" font-weight="bold" font-size="11.00">edition</text>
<text text-anchor="start" x="306" y="-202.28" font-family="Helvetica,sans-Serif" font-size="11.00">[table]</text>
<polygon fill="none" stroke="black" points="222,-176.08 222,-194.08 348,-194.08 348,-176.08 222,-176.08"/>
<text text-anchor="start" x="225" y="-182.28" font-family="Helvetica,sans-Serif" font-size="11.00">...</text>
<polygon fill="#ffffff" stroke="transparent" points="222,-158.08 222,-176.08 248,-176.08 248,-158.08 222,-158.08"/>
<polygon fill="none" stroke="black" points="222,-158.08 222,-176.08 248,-176.08 248,-158.08 222,-158.08"/>
<text text-anchor="start" x="225" y="-164.28" font-family="Helvetica,sans-Serif" font-size="11.00">&lt; 1</text>
<polygon fill="#ffffff" stroke="transparent" points="248,-158.08 248,-176.08 315,-176.08 315,-158.08 248,-158.08"/>
<polygon fill="none" stroke="black" points="248,-158.08 248,-176.08 315,-176.08 315,-158.08 248,-158.08"/>
<text text-anchor="start" x="251" y="-164.28" font-family="Helvetica,sans-Serif" font-size="11.00">1,645 rows</text>
<polygon fill="#ffffff" stroke="transparent" points="315,-158.08 315,-176.08 348,-176.08 348,-158.08 315,-158.08"/>
<polygon fill="none" stroke="black" points="315,-158.08 315,-176.08 348,-176.08 348,-158.08 315,-158.08"/>
<text text-anchor="start" x="318" y="-164.28" font-family="Helvetica,sans-Serif" font-size="11.00">35 &gt;</text>
</a>
</g>
</g>
<!-- attribute_owner&#45;&gt;edition -->
<g id="edge3" class="edge">
<title>attribute_owner:w&#45;&gt;edition:e</title>
<path fill="none" stroke="black" d="M801.6,-81.78C730.27,-87.04 484.11,-120.33 448,-132.08 400.54,-147.52 398.91,-185.08 349,-185.08"/>
<polygon fill="black" stroke="black" points="808.01,-81.47 816.18,-84.67 812,-81.27 816,-81.08 816,-81.08 816,-81.08 812,-81.27 815.82,-77.48 808.01,-81.47 808.01,-81.47"/>
<ellipse fill="none" stroke="black" cx="804.81" cy="-81.62" rx="3.2" ry="3.2"/>
</g>
<!-- edition_editor&#45;&gt;edition -->
<g id="edge12" class="edge">
<title>edition_editor:w&#45;&gt;edition:e</title>
<path fill="none" stroke="black" d="M497.94,-185.08C437.01,-185.08 416.56,-185.08 349,-185.08"/>
<polygon fill="black" stroke="black" points="504.5,-185.08 512.5,-188.68 508.5,-185.08 512.5,-185.08 512.5,-185.08 512.5,-185.08 508.5,-185.08 512.5,-181.48 504.5,-185.08 504.5,-185.08"/>
<ellipse fill="none" stroke="black" cx="501.3" cy="-185.08" rx="3.2" ry="3.2"/>
</g>
<!-- attribute_value -->
<g id="node5" class="node">
<title>attribute_value</title>
<g id="a_node5"><a xlink:href="../../tables/attribute_value.html" xlink:title="attribute_value" target="_top">
<polygon fill="#ffffff" stroke="transparent" points="163,-290.08 163,-422.08 407,-422.08 407,-290.08 163,-290.08"/>
<polygon fill="#f5f5f5" stroke="transparent" points="165,-398.08 165,-420.08 405,-420.08 405,-398.08 165,-398.08"/>
<polygon fill="none" stroke="black" points="165,-398.08 165,-420.08 405,-420.08 405,-398.08 165,-398.08"/>
<text text-anchor="start" x="170" y="-407.28" font-family="Helvetica,sans-Serif" font-weight="bold" font-size="11.00">attribute_value</text>
<text text-anchor="start" x="363" y="-406.28" font-family="Helvetica,sans-Serif" font-size="11.00">[table]</text>
<polygon fill="none" stroke="black" points="165,-376.08 165,-398.08 308,-398.08 308,-376.08 165,-376.08"/>
<image xlink:href="../../images/primaryKeys.png" width="11px" height="12px" preserveAspectRatio="xMinYMin meet" x="170" y="-393.078"/>
<text text-anchor="start" x="185" y="-384.28" font-family="Helvetica,sans-Serif" font-size="11.00">attribute_value_id</text>
<polygon fill="none" stroke="black" points="308,-376.08 308,-398.08 405,-398.08 405,-376.08 308,-376.08"/>
<text text-anchor="start" x="311" y="-384.28" font-family="Helvetica,sans-Serif" font-size="11.00">int unsigned[10]</text>
<polygon fill="#ffffff" stroke="transparent" points="165,-354.08 165,-376.08 308,-376.08 308,-354.08 165,-354.08"/>
<polygon fill="none" stroke="black" points="165,-354.08 165,-376.08 308,-376.08 308,-354.08 165,-354.08"/>
<image xlink:href="../../images/foreignKeys.png" width="11px" height="12px" preserveAspectRatio="xMinYMin meet" x="170" y="-371.078"/>
<text text-anchor="start" x="185" y="-362.28" font-family="Helvetica,sans-Serif" font-size="11.00">attribute_id</text>
<polygon fill="none" stroke="black" points="308,-354.08 308,-376.08 405,-376.08 405,-354.08 308,-354.08"/>
<text text-anchor="start" x="311" y="-362.28" font-family="Helvetica,sans-Serif" font-size="11.00">int unsigned[10]</text>
<polygon fill="#ffffff" stroke="transparent" points="165,-332.08 165,-354.08 308,-354.08 308,-332.08 165,-332.08"/>
<polygon fill="none" stroke="black" points="165,-332.08 165,-354.08 308,-354.08 308,-332.08 165,-332.08"/>
<text text-anchor="start" x="185" y="-340.28" font-family="Helvetica,sans-Serif" font-size="11.00">string_value</text>
<polygon fill="none" stroke="black" points="308,-332.08 308,-354.08 405,-354.08 405,-332.08 308,-332.08"/>
<text text-anchor="start" x="311" y="-340.28" font-family="Helvetica,sans-Serif" font-size="11.00">varchar[255]</text>
<polygon fill="none" stroke="black" points="165,-310.08 165,-332.08 308,-332.08 308,-310.08 165,-310.08"/>
<text text-anchor="start" x="185" y="-318.28" font-family="Helvetica,sans-Serif" font-size="11.00">description</text>
<polygon fill="none" stroke="black" points="308,-310.08 308,-332.08 405,-332.08 405,-310.08 308,-310.08"/>
<text text-anchor="start" x="311" y="-318.28" font-family="Helvetica,sans-Serif" font-size="11.00">varchar[1000]</text>
<polygon fill="#ffffff" stroke="transparent" points="165,-292.08 165,-310.08 224,-310.08 224,-292.08 165,-292.08"/>
<polygon fill="none" stroke="black" points="165,-292.08 165,-310.08 224,-310.08 224,-292.08 165,-292.08"/>
<text text-anchor="start" x="168" y="-298.28" font-family="Helvetica,sans-Serif" font-size="11.00">&lt; 1</text>
<polygon fill="#ffffff" stroke="transparent" points="224,-292.08 224,-310.08 308,-310.08 308,-292.08 224,-292.08"/>
<polygon fill="none" stroke="black" points="224,-292.08 224,-310.08 308,-310.08 308,-292.08 224,-292.08"/>
<text text-anchor="start" x="261" y="-298.28" font-family="Helvetica,sans-Serif" font-size="11.00">44 rows</text>
<polygon fill="#ffffff" stroke="transparent" points="308,-292.08 308,-310.08 405,-310.08 405,-292.08 308,-292.08"/>
<polygon fill="none" stroke="black" points="308,-292.08 308,-310.08 405,-310.08 405,-292.08 308,-292.08"/>
<text text-anchor="start" x="382" y="-298.28" font-family="Helvetica,sans-Serif" font-size="11.00">3 &gt;</text>
<polygon fill="none" stroke="black" stroke-width="2" points="164,-291.08 164,-421.08 406,-421.08 406,-291.08 164,-291.08"/>
</a>
</g>
</g>
<!-- attribute_value&#45;&gt;attribute -->
<g id="edge4" class="edge">
<title>attribute_value:w&#45;&gt;attribute:e</title>
<path fill="none" stroke="black" d="M149.49,-365.08C138.18,-365.08 130.99,-365.08 115,-365.08"/>
<polygon fill="black" stroke="black" points="156,-365.08 164,-368.68 160,-365.08 164,-365.08 164,-365.08 164,-365.08 160,-365.08 164,-361.48 156,-365.08 156,-365.08"/>
<ellipse fill="none" stroke="black" cx="152.8" cy="-365.08" rx="3.2" ry="3.2"/>
</g>
<!-- attribute_value_css -->
<g id="node6" class="node">
<title>attribute_value_css</title>
<g id="a_node6"><a xlink:href="../../tables/attribute_value_css.html" xlink:title="attribute_value_css" target="_top">
<polygon fill="#ffffff" stroke="transparent" points="496,-485.08 496,-591.08 667,-591.08 667,-485.08 496,-485.08"/>
<polygon fill="#f5f5f5" stroke="transparent" points="496.5,-569.08 496.5,-591.08 667.5,-591.08 667.5,-569.08 496.5,-569.08"/>
<polygon fill="none" stroke="black" points="496.5,-569.08 496.5,-591.08 667.5,-591.08 667.5,-569.08 496.5,-569.08"/>
<text text-anchor="start" x="501.5" y="-578.28" font-family="Helvetica,sans-Serif" font-weight="bold" font-size="11.00">attribute_value_css</text>
<text text-anchor="start" x="625.5" y="-577.28" font-family="Helvetica,sans-Serif" font-size="11.00">[table]</text>
<polygon fill="none" stroke="black" points="496.5,-547.08 496.5,-569.08 667.5,-569.08 667.5,-547.08 496.5,-547.08"/>
<image xlink:href="../../images/primaryKeys.png" width="11px" height="12px" preserveAspectRatio="xMinYMin meet" x="501.5" y="-564.078"/>
<text text-anchor="start" x="517.5" y="-555.28" font-family="Helvetica,sans-Serif" font-size="11.00">attribute_value_css_id</text>
<polygon fill="#ffffff" stroke="transparent" points="496.5,-525.08 496.5,-547.08 667.5,-547.08 667.5,-525.08 496.5,-525.08"/>
<polygon fill="none" stroke="black" points="496.5,-525.08 496.5,-547.08 667.5,-547.08 667.5,-525.08 496.5,-525.08"/>
<image xlink:href="../../images/foreignKeys.png" width="11px" height="12px" preserveAspectRatio="xMinYMin meet" x="501.5" y="-542.078"/>
<text text-anchor="start" x="517.5" y="-533.28" font-family="Helvetica,sans-Serif" font-size="11.00">attribute_value_id</text>
<polygon fill="#ffffff" stroke="transparent" points="496.5,-503.08 496.5,-525.08 667.5,-525.08 667.5,-503.08 496.5,-503.08"/>
<polygon fill="none" stroke="black" points="496.5,-503.08 496.5,-525.08 667.5,-525.08 667.5,-503.08 496.5,-503.08"/>
<text text-anchor="start" x="517.5" y="-511.28" font-family="Helvetica,sans-Serif" font-size="11.00">css</text>
<polygon fill="#ffffff" stroke="transparent" points="496.5,-485.08 496.5,-503.08 560.5,-503.08 560.5,-485.08 496.5,-485.08"/>
<polygon fill="none" stroke="black" points="496.5,-485.08 496.5,-503.08 560.5,-503.08 560.5,-485.08 496.5,-485.08"/>
<text text-anchor="start" x="499.5" y="-491.28" font-family="Helvetica,sans-Serif" font-size="11.00">&lt; 1</text>
<polygon fill="#ffffff" stroke="transparent" points="560.5,-485.08 560.5,-503.08 622.5,-503.08 622.5,-485.08 560.5,-485.08"/>
<polygon fill="none" stroke="black" points="560.5,-485.08 560.5,-503.08 622.5,-503.08 622.5,-485.08 560.5,-485.08"/>
<text text-anchor="start" x="582.5" y="-491.28" font-family="Helvetica,sans-Serif" font-size="11.00">0 rows</text>
<polygon fill="#ffffff" stroke="transparent" points="622.5,-485.08 622.5,-503.08 667.5,-503.08 667.5,-485.08 622.5,-485.08"/>
<polygon fill="none" stroke="black" points="622.5,-485.08 622.5,-503.08 667.5,-503.08 667.5,-485.08 622.5,-485.08"/>
<text text-anchor="start" x="644.5" y="-491.28" font-family="Helvetica,sans-Serif" font-size="11.00">1 &gt;</text>
</a>
</g>
</g>
<!-- attribute_value_css&#45;&gt;attribute_value -->
<g id="edge5" class="edge">
<title>attribute_value_css:w&#45;&gt;attribute_value:e</title>
<path fill="none" stroke="black" d="M481.22,-533.55C462.14,-525.48 463.03,-499.4 448,-475.08 425.22,-438.21 449.34,-387.08 406,-387.08"/>
<polygon fill="black" stroke="black" points="487.62,-534.68 494.87,-539.62 491.56,-535.38 495.5,-536.08 495.5,-536.08 495.5,-536.08 491.56,-535.38 496.13,-532.53 487.62,-534.68 487.62,-534.68"/>
<ellipse fill="none" stroke="black" cx="484.47" cy="-534.13" rx="3.2" ry="3.2"/>
</g>
<!-- attribute_value_css_owner -->
<g id="node7" class="node">
<title>attribute_value_css_owner</title>
<g id="a_node7"><a xlink:href="../../tables/attribute_value_css_owner.html" xlink:title="attribute_value_css_owner" target="_top">
<polygon fill="#ffffff" stroke="transparent" points="785,-339.08 785,-397.08 999,-397.08 999,-339.08 785,-339.08"/>
<polygon fill="#f5f5f5" stroke="transparent" points="785,-375.08 785,-397.08 999,-397.08 999,-375.08 785,-375.08"/>
<polygon fill="none" stroke="black" points="785,-375.08 785,-397.08 999,-397.08 999,-375.08 785,-375.08"/>
<text text-anchor="start" x="790" y="-384.28" font-family="Helvetica,sans-Serif" font-weight="bold" font-size="11.00">attribute_value_css_owner</text>
<text text-anchor="start" x="957" y="-383.28" font-family="Helvetica,sans-Serif" font-size="11.00">[table]</text>
<polygon fill="none" stroke="black" points="785,-357.08 785,-375.08 999,-375.08 999,-357.08 785,-357.08"/>
<text text-anchor="start" x="788" y="-363.28" font-family="Helvetica,sans-Serif" font-size="11.00">...</text>
<polygon fill="#ffffff" stroke="transparent" points="785,-339.08 785,-357.08 876,-357.08 876,-339.08 785,-339.08"/>
<polygon fill="none" stroke="black" points="785,-339.08 785,-357.08 876,-357.08 876,-339.08 785,-339.08"/>
<text text-anchor="start" x="788" y="-345.28" font-family="Helvetica,sans-Serif" font-size="11.00">&lt; 3</text>
<polygon fill="#ffffff" stroke="transparent" points="876,-339.08 876,-357.08 952,-357.08 952,-339.08 876,-339.08"/>
<polygon fill="none" stroke="black" points="876,-339.08 876,-357.08 952,-357.08 952,-339.08 876,-339.08"/>
<text text-anchor="start" x="912" y="-345.28" font-family="Helvetica,sans-Serif" font-size="11.00">0 rows</text>
<polygon fill="#ffffff" stroke="transparent" points="952,-339.08 952,-357.08 999,-357.08 999,-339.08 952,-339.08"/>
<polygon fill="none" stroke="black" points="952,-339.08 952,-357.08 999,-357.08 999,-339.08 952,-339.08"/>
<text text-anchor="start" x="988" y="-345.28" font-family="Helvetica,sans-Serif" font-size="11.00"> &#160;</text>
</a>
</g>
</g>
<!-- attribute_value_css_owner&#45;&gt;edition_editor -->
<g id="edge7" class="edge">
<title>attribute_value_css_owner:w&#45;&gt;edition_editor:e</title>
<path fill="none" stroke="black" d="M769.53,-364.62C690.58,-347.49 745.19,-185.08 650.5,-185.08"/>
<polygon fill="black" stroke="black" points="776.04,-365.28 783.64,-369.66 780.02,-365.68 784,-366.08 784,-366.08 784,-366.08 780.02,-365.68 784.36,-362.5 776.04,-365.28 776.04,-365.28"/>
<ellipse fill="none" stroke="black" cx="772.86" cy="-364.96" rx="3.2" ry="3.2"/>
</g>
<!-- attribute_value_css_owner&#45;&gt;edition -->
<g id="edge8" class="edge">
<title>attribute_value_css_owner:w&#45;&gt;edition:e</title>
<path fill="none" stroke="black" d="M769.59,-363.77C745.01,-354.75 746.47,-321.65 715,-307.08 605.92,-256.58 557.92,-312.72 448,-264.08 396.52,-241.3 405.29,-185.08 349,-185.08"/>
<polygon fill="black" stroke="black" points="776.1,-364.81 783.43,-369.63 780.05,-365.45 784,-366.08 784,-366.08 784,-366.08 780.05,-365.45 784.57,-362.52 776.1,-364.81 776.1,-364.81"/>
<ellipse fill="none" stroke="black" cx="772.94" cy="-364.31" rx="3.2" ry="3.2"/>
</g>
<!-- attribute_value_css_owner&#45;&gt;attribute_value_css -->
<g id="edge6" class="edge">
<title>attribute_value_css_owner:w&#45;&gt;attribute_value_css:e</title>
<path fill="none" stroke="black" d="M769.25,-367.74C693.02,-386.5 762.64,-558.08 668.5,-558.08"/>
<polygon fill="black" stroke="black" points="776.05,-366.97 784.4,-369.66 780.03,-366.53 784,-366.08 784,-366.08 784,-366.08 780.03,-366.53 783.6,-362.5 776.05,-366.97 776.05,-366.97"/>
<ellipse fill="none" stroke="black" cx="772.87" cy="-367.33" rx="3.2" ry="3.2"/>
</g>
<!-- attribute_value_owner -->
<g id="node8" class="node">
<title>attribute_value_owner</title>
<g id="a_node8"><a xlink:href="../../tables/attribute_value_owner.html" xlink:title="attribute_value_owner" target="_top">
<polygon fill="#ffffff" stroke="transparent" points="797.5,-133.08 797.5,-239.08 986.5,-239.08 986.5,-133.08 797.5,-133.08"/>
<polygon fill="#f5f5f5" stroke="transparent" points="798,-217.08 798,-239.08 987,-239.08 987,-217.08 798,-217.08"/>
<polygon fill="none" stroke="black" points="798,-217.08 798,-239.08 987,-239.08 987,-217.08 798,-217.08"/>
<text text-anchor="start" x="803" y="-226.28" font-family="Helvetica,sans-Serif" font-weight="bold" font-size="11.00">attribute_value_owner</text>
<text text-anchor="start" x="945" y="-225.28" font-family="Helvetica,sans-Serif" font-size="11.00">[table]</text>
<polygon fill="none" stroke="black" points="798,-195.08 798,-217.08 987,-217.08 987,-195.08 798,-195.08"/>
<image xlink:href="../../images/primaryKeys.png" width="11px" height="12px" preserveAspectRatio="xMinYMin meet" x="803" y="-212.078"/>
<text text-anchor="start" x="827" y="-203.28" font-family="Helvetica,sans-Serif" font-size="11.00">attribute_value_id</text>
<polygon fill="#ffffff" stroke="transparent" points="798,-173.08 798,-195.08 987,-195.08 987,-173.08 798,-173.08"/>
<polygon fill="none" stroke="black" points="798,-173.08 798,-195.08 987,-195.08 987,-173.08 798,-173.08"/>
<image xlink:href="../../images/foreignKeys.png" width="11px" height="12px" preserveAspectRatio="xMinYMin meet" x="803" y="-190.078"/>
<text text-anchor="start" x="827" y="-181.28" font-family="Helvetica,sans-Serif" font-size="11.00">edition_editor_id</text>
<polygon fill="none" stroke="black" points="798,-151.08 798,-173.08 987,-173.08 987,-151.08 798,-151.08"/>
<image xlink:href="../../images/primaryKeys.png" width="11px" height="12px" preserveAspectRatio="xMinYMin meet" x="803" y="-168.078"/>
<text text-anchor="start" x="827" y="-159.28" font-family="Helvetica,sans-Serif" font-size="11.00">edition_id</text>
<polygon fill="#ffffff" stroke="transparent" points="798,-133.08 798,-151.08 861,-151.08 861,-133.08 798,-133.08"/>
<polygon fill="none" stroke="black" points="798,-133.08 798,-151.08 861,-151.08 861,-133.08 798,-133.08"/>
<text text-anchor="start" x="801" y="-139.28" font-family="Helvetica,sans-Serif" font-size="11.00">&lt; 3</text>
<polygon fill="#ffffff" stroke="transparent" points="861,-133.08 861,-151.08 954,-151.08 954,-133.08 861,-133.08"/>
<polygon fill="none" stroke="black" points="861,-133.08 861,-151.08 954,-151.08 954,-133.08 861,-133.08"/>
<text text-anchor="start" x="883" y="-139.28" font-family="Helvetica,sans-Serif" font-size="11.00">81,292 rows</text>
<polygon fill="#ffffff" stroke="transparent" points="954,-133.08 954,-151.08 987,-151.08 987,-133.08 954,-133.08"/>
<polygon fill="none" stroke="black" points="954,-133.08 954,-151.08 987,-151.08 987,-133.08 954,-133.08"/>
<text text-anchor="start" x="976" y="-139.28" font-family="Helvetica,sans-Serif" font-size="11.00"> &#160;</text>
</a>
</g>
</g>
<!-- attribute_value_owner&#45;&gt;edition_editor -->
<g id="edge10" class="edge">
<title>attribute_value_owner:w&#45;&gt;edition_editor:e</title>
<path fill="none" stroke="black" d="M782.59,-184.1C729.05,-184.23 710.53,-185.08 650.5,-185.08"/>
<polygon fill="black" stroke="black" points="789,-184.09 797,-187.68 793,-184.08 797,-184.08 797,-184.08 797,-184.08 793,-184.08 797,-180.48 789,-184.09 789,-184.09"/>
<ellipse fill="none" stroke="black" cx="785.8" cy="-184.09" rx="3.2" ry="3.2"/>
</g>
<!-- attribute_value_owner&#45;&gt;edition -->
<g id="edge11" class="edge">
<title>attribute_value_owner:w&#45;&gt;edition:e</title>
<path fill="none" stroke="black" d="M782.58,-161.41C757.02,-158.88 746.56,-149.94 715,-147.08 596.82,-136.36 564.68,-125.45 448,-147.08 401.66,-155.67 396.13,-185.08 349,-185.08"/>
<polygon fill="black" stroke="black" points="789.01,-161.71 796.83,-165.67 793,-161.89 797,-162.08 797,-162.08 797,-162.08 793,-161.89 797.17,-158.48 789.01,-161.71 789.01,-161.71"/>
<ellipse fill="none" stroke="black" cx="785.81" cy="-161.56" rx="3.2" ry="3.2"/>
</g>
<!-- attribute_value_owner&#45;&gt;attribute_value -->
<g id="edge9" class="edge">
<title>attribute_value_owner:w&#45;&gt;attribute_value:e</title>
<path fill="none" stroke="black" d="M782.58,-209.34C717.2,-226.05 454.95,-301.41 448,-307.08 416.89,-332.47 446.16,-387.08 406,-387.08"/>
<polygon fill="black" stroke="black" points="789.2,-207.85 797.8,-209.59 793.1,-206.96 797,-206.08 797,-206.08 797,-206.08 793.1,-206.96 796.2,-202.57 789.2,-207.85 789.2,-207.85"/>
<ellipse fill="none" stroke="black" cx="786.08" cy="-208.55" rx="3.2" ry="3.2"/>
</g>
<!-- sign_interpretation_attribute -->
<g id="node9" class="node">
<title>sign_interpretation_attribute</title>
<g id="a_node9"><a xlink:href="../../tables/sign_interpretation_attribute.html" xlink:title="sign_interpretation_attribute" target="_top">
<polygon fill="#ffffff" stroke="transparent" points="463.5,-318.08 463.5,-464.08 699.5,-464.08 699.5,-318.08 463.5,-318.08"/>
<polygon fill="#f5f5f5" stroke="transparent" points="463.5,-442.08 463.5,-464.08 699.5,-464.08 699.5,-442.08 463.5,-442.08"/>
<polygon fill="none" stroke="black" points="463.5,-442.08 463.5,-464.08 699.5,-464.08 699.5,-442.08 463.5,-442.08"/>
<text text-anchor="start" x="468.5" y="-451.28" font-family="Helvetica,sans-Serif" font-weight="bold" font-size="11.00">sign_interpretation_attribute</text>
<text text-anchor="start" x="657.5" y="-450.28" font-family="Helvetica,sans-Serif" font-size="11.00">[table]</text>
<polygon fill="none" stroke="black" points="463.5,-420.08 463.5,-442.08 699.5,-442.08 699.5,-420.08 463.5,-420.08"/>
<image xlink:href="../../images/primaryKeys.png" width="11px" height="12px" preserveAspectRatio="xMinYMin meet" x="468.5" y="-437.078"/>
<text text-anchor="start" x="483.5" y="-428.28" font-family="Helvetica,sans-Serif" font-size="11.00">sign_interpretation_attribute_id</text>
<polygon fill="#ffffff" stroke="transparent" points="463.5,-398.08 463.5,-420.08 699.5,-420.08 699.5,-398.08 463.5,-398.08"/>
<polygon fill="none" stroke="black" points="463.5,-398.08 463.5,-420.08 699.5,-420.08 699.5,-398.08 463.5,-398.08"/>
<image xlink:href="../../images/foreignKeys.png" width="11px" height="12px" preserveAspectRatio="xMinYMin meet" x="468.5" y="-415.078"/>
<text text-anchor="start" x="483.5" y="-406.28" font-family="Helvetica,sans-Serif" font-size="11.00">sign_interpretation_id</text>
<polygon fill="#ffffff" stroke="transparent" points="463.5,-376.08 463.5,-398.08 699.5,-398.08 699.5,-376.08 463.5,-376.08"/>
<polygon fill="none" stroke="black" points="463.5,-376.08 463.5,-398.08 699.5,-398.08 699.5,-376.08 463.5,-376.08"/>
<image xlink:href="../../images/foreignKeys.png" width="11px" height="12px" preserveAspectRatio="xMinYMin meet" x="468.5" y="-393.078"/>
<text text-anchor="start" x="483.5" y="-384.28" font-family="Helvetica,sans-Serif" font-size="11.00">attribute_value_id</text>
<polygon fill="#ffffff" stroke="transparent" points="463.5,-354.08 463.5,-376.08 699.5,-376.08 699.5,-354.08 463.5,-354.08"/>
<polygon fill="none" stroke="black" points="463.5,-354.08 463.5,-376.08 699.5,-376.08 699.5,-354.08 463.5,-354.08"/>
<text text-anchor="start" x="483.5" y="-362.28" font-family="Helvetica,sans-Serif" font-size="11.00">sequence</text>
<polygon fill="none" stroke="black" points="463.5,-336.08 463.5,-354.08 699.5,-354.08 699.5,-336.08 463.5,-336.08"/>
<text text-anchor="start" x="466.5" y="-342.28" font-family="Helvetica,sans-Serif" font-size="11.00">...</text>
<polygon fill="#ffffff" stroke="transparent" points="463.5,-318.08 463.5,-336.08 535.5,-336.08 535.5,-318.08 463.5,-318.08"/>
<polygon fill="none" stroke="black" points="463.5,-318.08 463.5,-336.08 535.5,-336.08 535.5,-318.08 463.5,-318.08"/>
<text text-anchor="start" x="466.5" y="-324.28" font-family="Helvetica,sans-Serif" font-size="11.00">&lt; 2</text>
<polygon fill="#ffffff" stroke="transparent" points="535.5,-318.08 535.5,-336.08 649.5,-336.08 649.5,-318.08 535.5,-318.08"/>
<polygon fill="none" stroke="black" points="535.5,-318.08 535.5,-336.08 649.5,-336.08 649.5,-318.08 535.5,-318.08"/>
<text text-anchor="start" x="561.5" y="-324.28" font-family="Helvetica,sans-Serif" font-size="11.00">2,557,225 rows</text>
<polygon fill="#ffffff" stroke="transparent" points="649.5,-318.08 649.5,-336.08 699.5,-336.08 699.5,-318.08 649.5,-318.08"/>
<polygon fill="none" stroke="black" points="649.5,-318.08 649.5,-336.08 699.5,-336.08 699.5,-318.08 649.5,-318.08"/>
<text text-anchor="start" x="676.5" y="-324.28" font-family="Helvetica,sans-Serif" font-size="11.00">1 &gt;</text>
</a>
</g>
</g>
<!-- sign_interpretation_attribute&#45;&gt;attribute_value -->
<g id="edge13" class="edge">
<title>sign_interpretation_attribute:w&#45;&gt;attribute_value:e</title>
<path fill="none" stroke="black" d="M447.89,-387.08C433.58,-387.08 425.42,-387.08 406,-387.08"/>
<polygon fill="black" stroke="black" points="454.5,-387.08 462.5,-390.68 458.5,-387.08 462.5,-387.08 462.5,-387.08 462.5,-387.08 458.5,-387.08 462.5,-383.48 454.5,-387.08 454.5,-387.08"/>
<ellipse fill="none" stroke="black" cx="451.3" cy="-387.08" rx="3.2" ry="3.2"/>
</g>
<!-- sign_interpretation -->
<g id="node10" class="node">
<title>sign_interpretation</title>
<g id="a_node10"><a xlink:href="../../tables/sign_interpretation.html" xlink:title="sign_interpretation" target="_top">
<polygon fill="#ffffff" stroke="transparent" points="200.5,-500.08 200.5,-558.08 369.5,-558.08 369.5,-500.08 200.5,-500.08"/>
<polygon fill="#f5f5f5" stroke="transparent" points="201,-536.08 201,-558.08 370,-558.08 370,-536.08 201,-536.08"/>
<polygon fill="none" stroke="black" points="201,-536.08 201,-558.08 370,-558.08 370,-536.08 201,-536.08"/>
<text text-anchor="start" x="206" y="-545.28" font-family="Helvetica,sans-Serif" font-weight="bold" font-size="11.00">sign_interpretation</text>
<text text-anchor="start" x="328" y="-544.28" font-family="Helvetica,sans-Serif" font-size="11.00">[table]</text>
<polygon fill="none" stroke="black" points="201,-518.08 201,-536.08 370,-536.08 370,-518.08 201,-518.08"/>
<text text-anchor="start" x="204" y="-524.28" font-family="Helvetica,sans-Serif" font-size="11.00">...</text>
<polygon fill="#ffffff" stroke="transparent" points="201,-500.08 201,-518.08 240,-518.08 240,-500.08 201,-500.08"/>
<polygon fill="none" stroke="black" points="201,-500.08 201,-518.08 240,-518.08 240,-500.08 201,-500.08"/>
<text text-anchor="start" x="204" y="-506.28" font-family="Helvetica,sans-Serif" font-size="11.00">&lt; 1</text>
<polygon fill="#ffffff" stroke="transparent" points="240,-500.08 240,-518.08 337,-518.08 337,-500.08 240,-500.08"/>
<polygon fill="none" stroke="black" points="240,-500.08 240,-518.08 337,-518.08 337,-500.08 240,-500.08"/>
<text text-anchor="start" x="249" y="-506.28" font-family="Helvetica,sans-Serif" font-size="11.00">1,189,027 rows</text>
<polygon fill="#ffffff" stroke="transparent" points="337,-500.08 337,-518.08 370,-518.08 370,-500.08 337,-500.08"/>
<polygon fill="none" stroke="black" points="337,-500.08 337,-518.08 370,-518.08 370,-500.08 337,-500.08"/>
<text text-anchor="start" x="347" y="-506.28" font-family="Helvetica,sans-Serif" font-size="11.00">5 &gt;</text>
</a>
</g>
</g>
<!-- sign_interpretation_attribute&#45;&gt;sign_interpretation -->
<g id="edge14" class="edge">
<title>sign_interpretation_attribute:w&#45;&gt;sign_interpretation:e</title>
<path fill="none" stroke="black" d="M448.22,-411.33C402.18,-427.64 431.92,-527.08 371,-527.08"/>
<polygon fill="black" stroke="black" points="454.6,-410.32 463.06,-412.63 458.55,-409.7 462.5,-409.08 462.5,-409.08 462.5,-409.08 458.55,-409.7 461.94,-405.52 454.6,-410.32 454.6,-410.32"/>
<ellipse fill="none" stroke="black" cx="451.44" cy="-410.82" rx="3.2" ry="3.2"/>
</g>
<!-- sign_interpretation_attribute_owner -->
<g id="node11" class="node">
<title>sign_interpretation_attribute_owner</title>
<g id="a_node11"><a xlink:href="../../tables/sign_interpretation_attribute_owner.html" xlink:title="sign_interpretation_attribute_owner" target="_top">
<polygon fill="#ffffff" stroke="transparent" points="756,-260.08 756,-318.08 1028,-318.08 1028,-260.08 756,-260.08"/>
<polygon fill="#f5f5f5" stroke="transparent" points="756,-296.08 756,-318.08 1028,-318.08 1028,-296.08 756,-296.08"/>
<polygon fill="none" stroke="black" points="756,-296.08 756,-318.08 1028,-318.08 1028,-296.08 756,-296.08"/>
<text text-anchor="start" x="761" y="-305.28" font-family="Helvetica,sans-Serif" font-weight="bold" font-size="11.00">sign_interpretation_attribute_owner</text>
<text text-anchor="start" x="986" y="-304.28" font-family="Helvetica,sans-Serif" font-size="11.00">[table]</text>
<polygon fill="none" stroke="black" points="756,-278.08 756,-296.08 1028,-296.08 1028,-278.08 756,-278.08"/>
<text text-anchor="start" x="759" y="-284.28" font-family="Helvetica,sans-Serif" font-size="11.00">...</text>
<polygon fill="#ffffff" stroke="transparent" points="756,-260.08 756,-278.08 852,-278.08 852,-260.08 756,-260.08"/>
<polygon fill="none" stroke="black" points="756,-260.08 756,-278.08 852,-278.08 852,-260.08 756,-260.08"/>
<text text-anchor="start" x="759" y="-266.28" font-family="Helvetica,sans-Serif" font-size="11.00">&lt; 3</text>
<polygon fill="#ffffff" stroke="transparent" points="852,-260.08 852,-278.08 978,-278.08 978,-260.08 852,-260.08"/>
<polygon fill="none" stroke="black" points="852,-260.08 852,-278.08 978,-278.08 978,-260.08 852,-260.08"/>
<text text-anchor="start" x="890" y="-266.28" font-family="Helvetica,sans-Serif" font-size="11.00">2,622,730 rows</text>
<polygon fill="#ffffff" stroke="transparent" points="978,-260.08 978,-278.08 1028,-278.08 1028,-260.08 978,-260.08"/>
<polygon fill="none" stroke="black" points="978,-260.08 978,-278.08 1028,-278.08 1028,-260.08 978,-260.08"/>
<text text-anchor="start" x="1017" y="-266.28" font-family="Helvetica,sans-Serif" font-size="11.00"> &#160;</text>
</a>
</g>
</g>
<!-- sign_interpretation_attribute_owner&#45;&gt;edition_editor -->
<g id="edge15" class="edge">
<title>sign_interpretation_attribute_owner:w&#45;&gt;edition_editor:e</title>
<path fill="none" stroke="black" d="M741.33,-281.88C711.86,-261.09 678.51,-185.08 650.5,-185.08"/>
<polygon fill="black" stroke="black" points="747.52,-284.24 753.72,-290.44 751.26,-285.66 755,-287.08 755,-287.08 755,-287.08 751.26,-285.66 756.28,-283.71 747.52,-284.24 747.52,-284.24"/>
<ellipse fill="none" stroke="black" cx="744.53" cy="-283.1" rx="3.2" ry="3.2"/>
</g>
<!-- sign_interpretation_attribute_owner&#45;&gt;edition -->
<g id="edge16" class="edge">
<title>sign_interpretation_attribute_owner:w&#45;&gt;edition:e</title>
<path fill="none" stroke="black" d="M740.58,-285.86C678.09,-278.08 478.23,-235.24 448,-226.08 402.42,-212.26 396.62,-185.08 349,-185.08"/>
<polygon fill="black" stroke="black" points="747.03,-286.41 754.7,-290.67 751.01,-286.74 755,-287.08 755,-287.08 755,-287.08 751.01,-286.74 755.3,-283.49 747.03,-286.41 747.03,-286.41"/>
<ellipse fill="none" stroke="black" cx="743.84" cy="-286.14" rx="3.2" ry="3.2"/>
</g>
<!-- sign_interpretation_attribute_owner&#45;&gt;sign_interpretation_attribute -->
<g id="edge17" class="edge">
<title>sign_interpretation_attribute_owner:w&#45;&gt;sign_interpretation_attribute:e</title>
<path fill="none" stroke="black" d="M740.77,-289.95C699.34,-310.25 763.18,-431.08 700.5,-431.08"/>
<polygon fill="black" stroke="black" points="747.16,-288.66 755.71,-290.61 751.08,-287.87 755,-287.08 755,-287.08 755,-287.08 751.08,-287.87 754.29,-283.55 747.16,-288.66 747.16,-288.66"/>
<ellipse fill="none" stroke="black" cx="744.02" cy="-289.3" rx="3.2" ry="3.2"/>
</g>
<!-- sign_interpretation_commentary -->
<g id="node12" class="node">
<title>sign_interpretation_commentary</title>
<g id="a_node12"><a xlink:href="../../tables/sign_interpretation_commentary.html" xlink:title="sign_interpretation_commentary" target="_top">
<polygon fill="#ffffff" stroke="transparent" points="456,-612.08 456,-670.08 707,-670.08 707,-612.08 456,-612.08"/>
<polygon fill="#f5f5f5" stroke="transparent" points="456.5,-648.08 456.5,-670.08 707.5,-670.08 707.5,-648.08 456.5,-648.08"/>
<polygon fill="none" stroke="black" points="456.5,-648.08 456.5,-670.08 707.5,-670.08 707.5,-648.08 456.5,-648.08"/>
<text text-anchor="start" x="461.5" y="-657.28" font-family="Helvetica,sans-Serif" font-weight="bold" font-size="11.00">sign_interpretation_commentary</text>
<text text-anchor="start" x="665.5" y="-656.28" font-family="Helvetica,sans-Serif" font-size="11.00">[table]</text>
<polygon fill="none" stroke="black" points="456.5,-630.08 456.5,-648.08 707.5,-648.08 707.5,-630.08 456.5,-630.08"/>
<text text-anchor="start" x="459.5" y="-636.28" font-family="Helvetica,sans-Serif" font-size="11.00">...</text>
<polygon fill="#ffffff" stroke="transparent" points="456.5,-612.08 456.5,-630.08 560.5,-630.08 560.5,-612.08 456.5,-612.08"/>
<polygon fill="none" stroke="black" points="456.5,-612.08 456.5,-630.08 560.5,-630.08 560.5,-612.08 456.5,-612.08"/>
<text text-anchor="start" x="459.5" y="-618.28" font-family="Helvetica,sans-Serif" font-size="11.00">&lt; 2</text>
<polygon fill="#ffffff" stroke="transparent" points="560.5,-612.08 560.5,-630.08 642.5,-630.08 642.5,-612.08 560.5,-612.08"/>
<polygon fill="none" stroke="black" points="560.5,-612.08 560.5,-630.08 642.5,-630.08 642.5,-612.08 560.5,-612.08"/>
<text text-anchor="start" x="602.5" y="-618.28" font-family="Helvetica,sans-Serif" font-size="11.00">0 rows</text>
<polygon fill="#ffffff" stroke="transparent" points="642.5,-612.08 642.5,-630.08 707.5,-630.08 707.5,-612.08 642.5,-612.08"/>
<polygon fill="none" stroke="black" points="642.5,-612.08 642.5,-630.08 707.5,-630.08 707.5,-612.08 642.5,-612.08"/>
<text text-anchor="start" x="684.5" y="-618.28" font-family="Helvetica,sans-Serif" font-size="11.00">1 &gt;</text>
</a>
</g>
</g>
<!-- sign_interpretation_commentary&#45;&gt;attribute -->
<g id="edge18" class="edge">
<title>sign_interpretation_commentary:w&#45;&gt;attribute:e</title>
<path fill="none" stroke="black" d="M440.9,-639.18C313.41,-640.98 246.8,-664.17 155,-569.08 90.83,-502.61 207.39,-365.08 115,-365.08"/>
<polygon fill="black" stroke="black" points="447.5,-639.14 455.53,-642.68 451.5,-639.11 455.5,-639.08 455.5,-639.08 455.5,-639.08 451.5,-639.11 455.47,-635.48 447.5,-639.14 447.5,-639.14"/>
<ellipse fill="none" stroke="black" cx="444.3" cy="-639.16" rx="3.2" ry="3.2"/>
</g>
<!-- sign_interpretation_commentary&#45;&gt;sign_interpretation -->
<g id="edge19" class="edge">
<title>sign_interpretation_commentary:w&#45;&gt;sign_interpretation:e</title>
<path fill="none" stroke="black" d="M441.3,-636.63C399.42,-620.26 427.88,-527.08 371,-527.08"/>
<polygon fill="black" stroke="black" points="447.62,-637.72 454.89,-642.63 451.56,-638.4 455.5,-639.08 455.5,-639.08 455.5,-639.08 451.56,-638.4 456.11,-635.53 447.62,-637.72 447.62,-637.72"/>
<ellipse fill="none" stroke="black" cx="444.46" cy="-637.18" rx="3.2" ry="3.2"/>
</g>
</g>
</svg>
