<?xml version="1.0" encoding="UTF-8" standalone="no"?>
<!DOCTYPE svg PUBLIC "-//W3C//DTD SVG 1.1//EN"
 "http://www.w3.org/Graphics/SVG/1.1/DTD/svg11.dtd">
<!-- Generated by graphviz version 2.40.1 (20161225.0304)
 -->
<!-- Title: oneDegreeRelationshipsDiagramImplied Pages: 1 -->
<svg width="899pt" height="497pt"
 viewBox="0.00 0.00 899.00 497.00" xmlns="http://www.w3.org/2000/svg" xmlns:xlink="http://www.w3.org/1999/xlink">
<g id="graph0" class="graph" transform="scale(1 1) rotate(0) translate(4 493)">
<title>oneDegreeRelationshipsDiagramImplied</title>
<polygon fill="#ffffff" stroke="transparent" points="-4,4 -4,-493 895,-493 895,4 -4,4"/>
<text text-anchor="middle" x="71.5" y="-7.2" font-family="Helvetica,sans-Serif" font-size="11.00" fill="#000000">Generated by SchemaSpy</text>
<!-- attribute -->
<g id="node1" class="node">
<title>attribute</title>
<g id="a_node1"><a xlink:href="../../tables/attribute.html" xlink:title="attribute" target="_top">
<polygon fill="#ffffff" stroke="transparent" points="220,-201 220,-325 320,-325 320,-201 220,-201"/>
<polygon fill="#f5f5f5" stroke="transparent" points="220,-303 220,-325 320,-325 320,-303 220,-303"/>
<polygon fill="none" stroke="#000000" points="220,-303 220,-325 320,-325 320,-303 220,-303"/>
<text text-anchor="start" x="225" y="-312.2" font-family="Helvetica,sans-Serif" font-weight="bold" font-size="11.00" fill="#000000">attribute</text>
<text text-anchor="start" x="285" y="-311.2" font-family="Helvetica,sans-Serif" font-size="11.00" fill="#000000">[table]</text>
<polygon fill="none" stroke="#000000" points="220,-281 220,-303 320,-303 320,-281 220,-281"/>
<image xlink:href="../../images/primaryKeys.png" width="11px" height="12px" preserveAspectRatio="xMinYMin meet" x="225" y="-298"/>
<text text-anchor="start" x="240" y="-289.2" font-family="Helvetica,sans-Serif" font-size="11.00" fill="#000000">attribute_id</text>
<polygon fill="#ffffff" stroke="transparent" points="220,-259 220,-281 320,-281 320,-259 220,-259"/>
<polygon fill="none" stroke="#000000" points="220,-259 220,-281 320,-281 320,-259 220,-259"/>
<text text-anchor="start" x="240" y="-267.2" font-family="Helvetica,sans-Serif" font-size="11.00" fill="#000000">name</text>
<polygon fill="#ffffff" stroke="transparent" points="220,-237 220,-259 320,-259 320,-237 220,-237"/>
<polygon fill="none" stroke="#000000" points="220,-237 220,-259 320,-259 320,-237 220,-237"/>
<image xlink:href="../../images/foreignKeys.png" width="11px" height="12px" preserveAspectRatio="xMinYMin meet" x="225" y="-254"/>
<text text-anchor="start" x="240" y="-245.2" font-family="Helvetica,sans-Serif" font-size="11.00" fill="#000000">creator_id</text>
<polygon fill="none" stroke="#000000" points="220,-219 220,-237 320,-237 320,-219 220,-219"/>
<text text-anchor="start" x="223" y="-225.2" font-family="Helvetica,sans-Serif" font-size="11.00" fill="#000000">...</text>
<polygon fill="#ffffff" stroke="transparent" points="220,-201 220,-219 250,-219 250,-201 220,-201"/>
<polygon fill="none" stroke="#000000" points="220,-201 220,-219 250,-219 250,-201 220,-201"/>
<text text-anchor="start" x="223" y="-207.2" font-family="Helvetica,sans-Serif" font-size="11.00" fill="#000000">&lt; 1</text>
<polygon fill="#ffffff" stroke="transparent" points="250,-201 250,-219 293,-219 293,-201 250,-201"/>
<polygon fill="none" stroke="#000000" points="250,-201 250,-219 293,-219 293,-201 250,-201"/>
<text text-anchor="start" x="257" y="-207.2" font-family="Helvetica,sans-Serif" font-size="11.00" fill="#000000">9 rows</text>
<polygon fill="#ffffff" stroke="transparent" points="293,-201 293,-219 320,-219 320,-201 293,-201"/>
<polygon fill="none" stroke="#000000" points="293,-201 293,-219 320,-219 320,-201 293,-201"/>
<text text-anchor="start" x="301" y="-207.2" font-family="Helvetica,sans-Serif" font-size="11.00" fill="#000000">3 &gt;</text>
</a>
</g>
</g>
<!-- user -->
<g id="node2" class="node">
<title>user</title>
<g id="a_node2"><a xlink:href="../../tables/user.html" xlink:title="user" target="_top">
<polygon fill="#ffffff" stroke="transparent" points="8,-94 8,-196 171,-196 171,-94 8,-94"/>
<polygon fill="#f5f5f5" stroke="transparent" points="8.5,-174 8.5,-196 171.5,-196 171.5,-174 8.5,-174"/>
<polygon fill="none" stroke="#000000" points="8.5,-174 8.5,-196 171.5,-196 171.5,-174 8.5,-174"/>
<text text-anchor="start" x="13.5" y="-183.2" font-family="Helvetica,sans-Serif" font-weight="bold" font-size="11.00" fill="#000000">user</text>
<text text-anchor="start" x="136.5" y="-182.2" font-family="Helvetica,sans-Serif" font-size="11.00" fill="#000000">[table]</text>
<polygon fill="none" stroke="#000000" points="8.5,-152 8.5,-174 171.5,-174 171.5,-152 8.5,-152"/>
<image xlink:href="../../images/primaryKeys.png" width="11px" height="12px" preserveAspectRatio="xMinYMin meet" x="13.5" y="-169"/>
<text text-anchor="start" x="28.5" y="-160.2" font-family="Helvetica,sans-Serif" font-size="11.00" fill="#000000">user_id</text>
<polygon fill="#ffffff" stroke="transparent" points="8.5,-130 8.5,-152 171.5,-152 171.5,-130 8.5,-130"/>
<polygon fill="none" stroke="#000000" points="8.5,-130 8.5,-152 171.5,-152 171.5,-130 8.5,-130"/>
<text text-anchor="start" x="28.5" y="-138.2" font-family="Helvetica,sans-Serif" font-size="11.00" fill="#000000">email</text>
<polygon fill="none" stroke="#000000" points="8.5,-112 8.5,-130 171.5,-130 171.5,-112 8.5,-112"/>
<text text-anchor="start" x="11.5" y="-118.2" font-family="Helvetica,sans-Serif" font-size="11.00" fill="#000000">...</text>
<polygon fill="#ffffff" stroke="transparent" points="8.5,-94 8.5,-112 62.5,-112 62.5,-94 8.5,-94"/>
<polygon fill="none" stroke="#000000" points="8.5,-94 8.5,-112 62.5,-112 62.5,-94 8.5,-94"/>
<text text-anchor="start" x="11.5" y="-100.2" font-family="Helvetica,sans-Serif" font-size="11.00" fill="#000000"> &#160;</text>
<polygon fill="#ffffff" stroke="transparent" points="62.5,-94 62.5,-112 122.5,-112 122.5,-94 62.5,-94"/>
<polygon fill="none" stroke="#000000" points="62.5,-94 62.5,-112 122.5,-112 122.5,-94 62.5,-94"/>
<text text-anchor="start" x="86.5" y="-100.2" font-family="Helvetica,sans-Serif" font-size="11.00" fill="#000000">3 rows</text>
<polygon fill="#ffffff" stroke="transparent" points="122.5,-94 122.5,-112 171.5,-112 171.5,-94 122.5,-94"/>
<polygon fill="none" stroke="#000000" points="122.5,-94 122.5,-112 171.5,-112 171.5,-94 122.5,-94"/>
<text text-anchor="start" x="146.5" y="-100.2" font-family="Helvetica,sans-Serif" font-size="11.00" fill="#000000">40 &gt;</text>
</a>
</g>
</g>
<!-- attribute&#45;&gt;user -->
<g id="edge1" class="edge">
<title>attribute:w&#45;&gt;user:e</title>
<path fill="none" stroke="#000000" d="M206.0585,-243.43C185.7091,-225.7747 208.8784,-163 171.5,-163"/>
<polygon fill="#000000" stroke="#000000" points="212.398,-245.5081 218.8786,-251.4209 216.199,-246.754 220,-248 220,-248 220,-248 216.199,-246.754 221.1214,-244.5791 212.398,-245.5081 212.398,-245.5081"/>
<ellipse fill="none" stroke="#000000" cx="209.3572" cy="-244.5113" rx="3.2" ry="3.2"/>
</g>
<!-- attribute_value -->
<g id="node3" class="node">
<title>attribute_value</title>
<g id="a_node3"><a xlink:href="../../tables/attribute_value.html" xlink:title="attribute_value" target="_top">
<polygon fill="#ffffff" stroke="transparent" points="369,-184 369,-338 598,-338 598,-184 369,-184"/>
<polygon fill="#f5f5f5" stroke="transparent" points="371.5,-314 371.5,-336 596.5,-336 596.5,-314 371.5,-314"/>
<polygon fill="none" stroke="#000000" points="371.5,-314 371.5,-336 596.5,-336 596.5,-314 371.5,-314"/>
<text text-anchor="start" x="376.5" y="-323.2" font-family="Helvetica,sans-Serif" font-weight="bold" font-size="11.00" fill="#000000">attribute_value</text>
<text text-anchor="start" x="561.5" y="-322.2" font-family="Helvetica,sans-Serif" font-size="11.00" fill="#000000">[table]</text>
<polygon fill="none" stroke="#000000" points="371.5,-292 371.5,-314 514.5,-314 514.5,-292 371.5,-292"/>
<image xlink:href="../../images/primaryKeys.png" width="11px" height="12px" preserveAspectRatio="xMinYMin meet" x="376.5" y="-309"/>
<text text-anchor="start" x="391.5" y="-300.2" font-family="Helvetica,sans-Serif" font-size="11.00" fill="#000000">attribute_value_id</text>
<polygon fill="none" stroke="#000000" points="514.5,-292 514.5,-314 596.5,-314 596.5,-292 514.5,-292"/>
<text text-anchor="start" x="517.5" y="-300.2" font-family="Helvetica,sans-Serif" font-size="11.00" fill="#000000">int unsigned[10]</text>
<polygon fill="#ffffff" stroke="transparent" points="371.5,-270 371.5,-292 514.5,-292 514.5,-270 371.5,-270"/>
<polygon fill="none" stroke="#000000" points="371.5,-270 371.5,-292 514.5,-292 514.5,-270 371.5,-270"/>
<image xlink:href="../../images/foreignKeys.png" width="11px" height="12px" preserveAspectRatio="xMinYMin meet" x="376.5" y="-287"/>
<text text-anchor="start" x="391.5" y="-278.2" font-family="Helvetica,sans-Serif" font-size="11.00" fill="#000000">attribute_id</text>
<polygon fill="none" stroke="#000000" points="514.5,-270 514.5,-292 596.5,-292 596.5,-270 514.5,-270"/>
<text text-anchor="start" x="517.5" y="-278.2" font-family="Helvetica,sans-Serif" font-size="11.00" fill="#000000">int unsigned[10]</text>
<polygon fill="#ffffff" stroke="transparent" points="371.5,-248 371.5,-270 514.5,-270 514.5,-248 371.5,-248"/>
<polygon fill="none" stroke="#000000" points="371.5,-248 371.5,-270 514.5,-270 514.5,-248 371.5,-248"/>
<text text-anchor="start" x="391.5" y="-256.2" font-family="Helvetica,sans-Serif" font-size="11.00" fill="#000000">string_value</text>
<polygon fill="none" stroke="#000000" points="514.5,-248 514.5,-270 596.5,-270 596.5,-248 514.5,-248"/>
<text text-anchor="start" x="517.5" y="-256.2" font-family="Helvetica,sans-Serif" font-size="11.00" fill="#000000">varchar[255]</text>
<polygon fill="none" stroke="#000000" points="371.5,-226 371.5,-248 514.5,-248 514.5,-226 371.5,-226"/>
<text text-anchor="start" x="391.5" y="-234.2" font-family="Helvetica,sans-Serif" font-size="11.00" fill="#000000">description</text>
<polygon fill="none" stroke="#000000" points="514.5,-226 514.5,-248 596.5,-248 596.5,-226 514.5,-226"/>
<text text-anchor="start" x="517.5" y="-234.2" font-family="Helvetica,sans-Serif" font-size="11.00" fill="#000000">varchar[1000]</text>
<polygon fill="#ffffff" stroke="transparent" points="371.5,-204 371.5,-226 514.5,-226 514.5,-204 371.5,-204"/>
<polygon fill="none" stroke="#000000" points="371.5,-204 371.5,-226 514.5,-226 514.5,-204 371.5,-204"/>
<image xlink:href="../../images/foreignKeys.png" width="11px" height="12px" preserveAspectRatio="xMinYMin meet" x="376.5" y="-221"/>
<text text-anchor="start" x="391.5" y="-212.2" font-family="Helvetica,sans-Serif" font-size="11.00" fill="#000000">creator_id</text>
<polygon fill="none" stroke="#000000" points="514.5,-204 514.5,-226 596.5,-226 596.5,-204 514.5,-204"/>
<text text-anchor="start" x="517.5" y="-212.2" font-family="Helvetica,sans-Serif" font-size="11.00" fill="#000000">int unsigned[10]</text>
<polygon fill="#ffffff" stroke="transparent" points="371.5,-186 371.5,-204 431.5,-204 431.5,-186 371.5,-186"/>
<polygon fill="none" stroke="#000000" points="371.5,-186 371.5,-204 431.5,-204 431.5,-186 371.5,-186"/>
<text text-anchor="start" x="374.5" y="-192.2" font-family="Helvetica,sans-Serif" font-size="11.00" fill="#000000">&lt; 2</text>
<polygon fill="#ffffff" stroke="transparent" points="431.5,-186 431.5,-204 514.5,-204 514.5,-186 431.5,-186"/>
<polygon fill="none" stroke="#000000" points="431.5,-186 431.5,-204 514.5,-204 514.5,-186 431.5,-186"/>
<text text-anchor="start" x="472.5" y="-192.2" font-family="Helvetica,sans-Serif" font-size="11.00" fill="#000000">44 rows</text>
<polygon fill="#ffffff" stroke="transparent" points="514.5,-186 514.5,-204 596.5,-204 596.5,-186 514.5,-186"/>
<polygon fill="none" stroke="#000000" points="514.5,-186 514.5,-204 596.5,-204 596.5,-186 514.5,-186"/>
<text text-anchor="start" x="577.5" y="-192.2" font-family="Helvetica,sans-Serif" font-size="11.00" fill="#000000">3 &gt;</text>
<polygon fill="none" stroke="#000000" stroke-width="2" points="370,-185 370,-337 597,-337 597,-185 370,-185"/>
</a>
</g>
</g>
<!-- attribute_value&#45;&gt;attribute -->
<g id="edge2" class="edge">
<title>attribute_value:w&#45;&gt;attribute:e</title>
<path fill="none" stroke="#000000" d="M356.8704,-282.7188C344.5803,-285.8125 337.5539,-292 320,-292"/>
<polygon fill="#000000" stroke="#000000" points="363.5546,-281.9335 371.9201,-284.5754 367.5273,-281.4668 371.5,-281 371.5,-281 371.5,-281 367.5273,-281.4668 371.0799,-277.4246 363.5546,-281.9335 363.5546,-281.9335"/>
<ellipse fill="none" stroke="#000000" cx="360.3765" cy="-282.3069" rx="3.2" ry="3.2"/>
</g>
<!-- attribute_value&#45;&gt;user -->
<g id="edge3" class="edge">
<title>attribute_value:w&#45;&gt;user:e</title>
<path fill="none" stroke="#000000" d="M357.3515,-211.8001C347.5766,-206.6003 343.1214,-196.3592 328,-191 261.3992,-167.3956 242.16,-163 171.5,-163"/>
<polygon fill="#000000" stroke="#000000" points="363.6971,-213.2352 370.7059,-218.5113 367.5985,-214.1176 371.5,-215 371.5,-215 371.5,-215 367.5985,-214.1176 372.2941,-211.4887 363.6971,-213.2352 363.6971,-213.2352"/>
<ellipse fill="none" stroke="#000000" cx="360.5759" cy="-212.5293" rx="3.2" ry="3.2"/>
</g>
<!-- attribute_value_css -->
<g id="node4" class="node">
<title>attribute_value_css</title>
<g id="a_node4"><a xlink:href="../../tables/attribute_value_css.html" xlink:title="attribute_value_css" target="_top">
<polygon fill="#ffffff" stroke="transparent" points="680,-230 680,-358 850,-358 850,-230 680,-230"/>
<polygon fill="#f5f5f5" stroke="transparent" points="680,-336 680,-358 850,-358 850,-336 680,-336"/>
<polygon fill="none" stroke="#000000" points="680,-336 680,-358 850,-358 850,-336 680,-336"/>
<text text-anchor="start" x="685" y="-345.2" font-family="Helvetica,sans-Serif" font-weight="bold" font-size="11.00" fill="#000000">attribute_value_css</text>
<text text-anchor="start" x="815" y="-344.2" font-family="Helvetica,sans-Serif" font-size="11.00" fill="#000000">[table]</text>
<polygon fill="none" stroke="#000000" points="680,-314 680,-336 850,-336 850,-314 680,-314"/>
<image xlink:href="../../images/primaryKeys.png" width="11px" height="12px" preserveAspectRatio="xMinYMin meet" x="685" y="-331"/>
<text text-anchor="start" x="700" y="-322.2" font-family="Helvetica,sans-Serif" font-size="11.00" fill="#000000">attribute_value_css_id</text>
<polygon fill="#ffffff" stroke="transparent" points="680,-292 680,-314 850,-314 850,-292 680,-292"/>
<polygon fill="none" stroke="#000000" points="680,-292 680,-314 850,-314 850,-292 680,-292"/>
<image xlink:href="../../images/foreignKeys.png" width="11px" height="12px" preserveAspectRatio="xMinYMin meet" x="685" y="-309"/>
<text text-anchor="start" x="700" y="-300.2" font-family="Helvetica,sans-Serif" font-size="11.00" fill="#000000">attribute_value_id</text>
<polygon fill="#ffffff" stroke="transparent" points="680,-270 680,-292 850,-292 850,-270 680,-270"/>
<polygon fill="none" stroke="#000000" points="680,-270 680,-292 850,-292 850,-270 680,-270"/>
<text text-anchor="start" x="700" y="-278.2" font-family="Helvetica,sans-Serif" font-size="11.00" fill="#000000">css</text>
<polygon fill="#ffffff" stroke="transparent" points="680,-248 680,-270 850,-270 850,-248 680,-248"/>
<polygon fill="none" stroke="#000000" points="680,-248 680,-270 850,-270 850,-248 680,-248"/>
<image xlink:href="../../images/foreignKeys.png" width="11px" height="12px" preserveAspectRatio="xMinYMin meet" x="685" y="-265"/>
<text text-anchor="start" x="700" y="-256.2" font-family="Helvetica,sans-Serif" font-size="11.00" fill="#000000">creator_id</text>
<polygon fill="#ffffff" stroke="transparent" points="680,-230 680,-248 745,-248 745,-230 680,-230"/>
<polygon fill="none" stroke="#000000" points="680,-230 680,-248 745,-248 745,-230 680,-230"/>
<text text-anchor="start" x="683" y="-236.2" font-family="Helvetica,sans-Serif" font-size="11.00" fill="#000000">&lt; 2</text>
<polygon fill="#ffffff" stroke="transparent" points="745,-230 745,-248 806,-248 806,-230 745,-230"/>
<polygon fill="none" stroke="#000000" points="745,-230 745,-248 806,-248 806,-230 745,-230"/>
<text text-anchor="start" x="770" y="-236.2" font-family="Helvetica,sans-Serif" font-size="11.00" fill="#000000">0 rows</text>
<polygon fill="#ffffff" stroke="transparent" points="806,-230 806,-248 850,-248 850,-230 806,-230"/>
<polygon fill="none" stroke="#000000" points="806,-230 806,-248 850,-248 850,-230 806,-230"/>
<text text-anchor="start" x="831" y="-236.2" font-family="Helvetica,sans-Serif" font-size="11.00" fill="#000000">1 &gt;</text>
</a>
</g>
</g>
<!-- attribute_value_css&#45;&gt;user -->
<g id="edge5" class="edge">
<title>attribute_value_css:w&#45;&gt;user:e</title>
<path fill="none" stroke="#000000" d="M665.4847,-256.791C633.6433,-245.6361 645.0279,-195.2001 606,-174 452.0417,-90.3691 387.1531,-156.6779 212,-161 193.9835,-161.4446 189.5219,-163 171.5,-163"/>
<polygon fill="#000000" stroke="#000000" points="672.0911,-257.7963 679.4583,-262.559 676.0455,-258.3982 680,-259 680,-259 680,-259 676.0455,-258.3982 680.5417,-255.441 672.0911,-257.7963 672.0911,-257.7963"/>
<ellipse fill="none" stroke="#000000" cx="668.9275" cy="-257.3148" rx="3.2" ry="3.2"/>
</g>
<!-- attribute_value_css&#45;&gt;attribute_value -->
<g id="edge4" class="edge">
<title>attribute_value_css:w&#45;&gt;attribute_value:e</title>
<path fill="none" stroke="#000000" d="M665.485,-303C639.6256,-303 628.2474,-303 596.5,-303"/>
<polygon fill="#000000" stroke="#000000" points="672,-303.0001 680,-306.6 676,-303 680,-303 680,-303 680,-303 676,-303 680,-299.4 672,-303.0001 672,-303.0001"/>
<ellipse fill="none" stroke="#000000" cx="668.8" cy="-303.0001" rx="3.2" ry="3.2"/>
</g>
<!-- attribute_value_owner -->
<g id="node5" class="node">
<title>attribute_value_owner</title>
<g id="a_node5"><a xlink:href="../../tables/attribute_value_owner.html" xlink:title="attribute_value_owner" target="_top">
<polygon fill="#ffffff" stroke="transparent" points="679,-379 679,-485 851,-485 851,-379 679,-379"/>
<polygon fill="#f5f5f5" stroke="transparent" points="679,-463 679,-485 851,-485 851,-463 679,-463"/>
<polygon fill="none" stroke="#000000" points="679,-463 679,-485 851,-485 851,-463 679,-463"/>
<text text-anchor="start" x="684" y="-472.2" font-family="Helvetica,sans-Serif" font-weight="bold" font-size="11.00" fill="#000000">attribute_value_owner</text>
<text text-anchor="start" x="816" y="-471.2" font-family="Helvetica,sans-Serif" font-size="11.00" fill="#000000">[table]</text>
<polygon fill="none" stroke="#000000" points="679,-441 679,-463 851,-463 851,-441 679,-441"/>
<image xlink:href="../../images/primaryKeys.png" width="11px" height="12px" preserveAspectRatio="xMinYMin meet" x="684" y="-458"/>
<text text-anchor="start" x="699" y="-449.2" font-family="Helvetica,sans-Serif" font-size="11.00" fill="#000000">attribute_value_id</text>
<polygon fill="#ffffff" stroke="transparent" points="679,-419 679,-441 851,-441 851,-419 679,-419"/>
<polygon fill="none" stroke="#000000" points="679,-419 679,-441 851,-441 851,-419 679,-419"/>
<image xlink:href="../../images/foreignKeys.png" width="11px" height="12px" preserveAspectRatio="xMinYMin meet" x="684" y="-436"/>
<text text-anchor="start" x="699" y="-427.2" font-family="Helvetica,sans-Serif" font-size="11.00" fill="#000000">edition_editor_id</text>
<polygon fill="none" stroke="#000000" points="679,-397 679,-419 851,-419 851,-397 679,-397"/>
<image xlink:href="../../images/primaryKeys.png" width="11px" height="12px" preserveAspectRatio="xMinYMin meet" x="684" y="-414"/>
<text text-anchor="start" x="699" y="-405.2" font-family="Helvetica,sans-Serif" font-size="11.00" fill="#000000">edition_id</text>
<polygon fill="#ffffff" stroke="transparent" points="679,-379 679,-397 736,-397 736,-379 679,-379"/>
<polygon fill="none" stroke="#000000" points="679,-379 679,-397 736,-397 736,-379 679,-379"/>
<text text-anchor="start" x="682" y="-385.2" font-family="Helvetica,sans-Serif" font-size="11.00" fill="#000000">&lt; 3</text>
<polygon fill="#ffffff" stroke="transparent" points="736,-379 736,-397 820,-397 820,-379 736,-379"/>
<polygon fill="none" stroke="#000000" points="736,-379 736,-397 820,-397 820,-379 736,-379"/>
<text text-anchor="start" x="757" y="-385.2" font-family="Helvetica,sans-Serif" font-size="11.00" fill="#000000">85,314 rows</text>
<polygon fill="#ffffff" stroke="transparent" points="820,-379 820,-397 851,-397 851,-379 820,-379"/>
<polygon fill="none" stroke="#000000" points="820,-379 820,-397 851,-397 851,-379 820,-379"/>
<text text-anchor="start" x="841" y="-385.2" font-family="Helvetica,sans-Serif" font-size="11.00" fill="#000000"> &#160;</text>
</a>
</g>
</g>
<!-- attribute_value_owner&#45;&gt;attribute_value -->
<g id="edge6" class="edge">
<title>attribute_value_owner:w&#45;&gt;attribute_value:e</title>
<path fill="none" stroke="#000000" d="M664.7455,-449.7781C612.5062,-431.243 666.7254,-303 596.5,-303"/>
<polygon fill="#000000" stroke="#000000" points="671.0955,-450.7678 678.4455,-455.557 675.0477,-451.3839 679,-452 679,-452 679,-452 675.0477,-451.3839 679.5545,-448.443 671.0955,-450.7678 671.0955,-450.7678"/>
<ellipse fill="none" stroke="#000000" cx="667.9336" cy="-450.275" rx="3.2" ry="3.2"/>
</g>
<!-- sign_interpretation_attribute -->
<g id="node6" class="node">
<title>sign_interpretation_attribute</title>
<g id="a_node6"><a xlink:href="../../tables/sign_interpretation_attribute.html" xlink:title="sign_interpretation_attribute" target="_top">
<polygon fill="#ffffff" stroke="transparent" points="647,-37 647,-209 883,-209 883,-37 647,-37"/>
<polygon fill="#f5f5f5" stroke="transparent" points="647,-187 647,-209 883,-209 883,-187 647,-187"/>
<polygon fill="none" stroke="#000000" points="647,-187 647,-209 883,-209 883,-187 647,-187"/>
<text text-anchor="start" x="652" y="-196.2" font-family="Helvetica,sans-Serif" font-weight="bold" font-size="11.00" fill="#000000">sign_interpretation_attribute</text>
<text text-anchor="start" x="848" y="-195.2" font-family="Helvetica,sans-Serif" font-size="11.00" fill="#000000">[table]</text>
<polygon fill="none" stroke="#000000" points="647,-165 647,-187 883,-187 883,-165 647,-165"/>
<image xlink:href="../../images/primaryKeys.png" width="11px" height="12px" preserveAspectRatio="xMinYMin meet" x="652" y="-182"/>
<text text-anchor="start" x="667" y="-173.2" font-family="Helvetica,sans-Serif" font-size="11.00" fill="#000000">sign_interpretation_attribute_id</text>
<polygon fill="#ffffff" stroke="transparent" points="647,-143 647,-165 883,-165 883,-143 647,-143"/>
<polygon fill="none" stroke="#000000" points="647,-143 647,-165 883,-165 883,-143 647,-143"/>
<image xlink:href="../../images/foreignKeys.png" width="11px" height="12px" preserveAspectRatio="xMinYMin meet" x="652" y="-160"/>
<text text-anchor="start" x="667" y="-151.2" font-family="Helvetica,sans-Serif" font-size="11.00" fill="#000000">sign_interpretation_id</text>
<polygon fill="#ffffff" stroke="transparent" points="647,-121 647,-143 883,-143 883,-121 647,-121"/>
<polygon fill="none" stroke="#000000" points="647,-121 647,-143 883,-143 883,-121 647,-121"/>
<image xlink:href="../../images/foreignKeys.png" width="11px" height="12px" preserveAspectRatio="xMinYMin meet" x="652" y="-138"/>
<text text-anchor="start" x="667" y="-129.2" font-family="Helvetica,sans-Serif" font-size="11.00" fill="#000000">attribute_value_id</text>
<polygon fill="#ffffff" stroke="transparent" points="647,-99 647,-121 883,-121 883,-99 647,-99"/>
<polygon fill="none" stroke="#000000" points="647,-99 647,-121 883,-121 883,-99 647,-99"/>
<text text-anchor="start" x="667" y="-107.2" font-family="Helvetica,sans-Serif" font-size="11.00" fill="#000000">sequence</text>
<polygon fill="#ffffff" stroke="transparent" points="647,-77 647,-99 883,-99 883,-77 647,-77"/>
<polygon fill="none" stroke="#000000" points="647,-77 647,-99 883,-99 883,-77 647,-77"/>
<text text-anchor="start" x="667" y="-85.2" font-family="Helvetica,sans-Serif" font-size="11.00" fill="#000000">numeric_value</text>
<polygon fill="#ffffff" stroke="transparent" points="647,-55 647,-77 883,-77 883,-55 647,-55"/>
<polygon fill="none" stroke="#000000" points="647,-55 647,-77 883,-77 883,-55 647,-55"/>
<image xlink:href="../../images/foreignKeys.png" width="11px" height="12px" preserveAspectRatio="xMinYMin meet" x="652" y="-72"/>
<text text-anchor="start" x="667" y="-63.2" font-family="Helvetica,sans-Serif" font-size="11.00" fill="#000000">creator_id</text>
<polygon fill="#ffffff" stroke="transparent" points="647,-37 647,-55 724,-55 724,-37 647,-37"/>
<polygon fill="none" stroke="#000000" points="647,-37 647,-55 724,-55 724,-37 647,-37"/>
<text text-anchor="start" x="650" y="-43.2" font-family="Helvetica,sans-Serif" font-size="11.00" fill="#000000">&lt; 3</text>
<polygon fill="#ffffff" stroke="transparent" points="724,-37 724,-55 833,-55 833,-37 724,-37"/>
<polygon fill="none" stroke="#000000" points="724,-37 724,-55 833,-55 833,-37 724,-37"/>
<text text-anchor="start" x="755" y="-43.2" font-family="Helvetica,sans-Serif" font-size="11.00" fill="#000000">2,606,879 rows</text>
<polygon fill="#ffffff" stroke="transparent" points="833,-37 833,-55 883,-55 883,-37 833,-37"/>
<polygon fill="none" stroke="#000000" points="833,-37 833,-55 883,-55 883,-37 833,-37"/>
<text text-anchor="start" x="864" y="-43.2" font-family="Helvetica,sans-Serif" font-size="11.00" fill="#000000">1 &gt;</text>
</a>
</g>
</g>
<!-- sign_interpretation_attribute&#45;&gt;user -->
<g id="edge8" class="edge">
<title>sign_interpretation_attribute:w&#45;&gt;user:e</title>
<path fill="none" stroke="#000000" d="M632.3319,-66.0166C448.0543,-66.4505 392.0306,-75.8112 212,-140 192.5022,-146.9518 192.2001,-163 171.5,-163"/>
<polygon fill="#000000" stroke="#000000" points="639,-66.0091 647.0041,-69.6 643,-66.0045 647,-66 647,-66 647,-66 643,-66.0045 646.9959,-62.4 639,-66.0091 639,-66.0091"/>
<ellipse fill="none" stroke="#000000" cx="635.8" cy="-66.0127" rx="3.2" ry="3.2"/>
</g>
<!-- sign_interpretation_attribute&#45;&gt;attribute_value -->
<g id="edge7" class="edge">
<title>sign_interpretation_attribute:w&#45;&gt;attribute_value:e</title>
<path fill="none" stroke="#000000" d="M632.612,-134.55C582.3852,-155.8218 670.0182,-303 596.5,-303"/>
<polygon fill="#000000" stroke="#000000" points="639.1228,-133.3961 647.6283,-135.5448 643.0614,-132.6981 647,-132 647,-132 647,-132 643.0614,-132.6981 646.3717,-128.4552 639.1228,-133.3961 639.1228,-133.3961"/>
<ellipse fill="none" stroke="#000000" cx="635.9719" cy="-133.9546" rx="3.2" ry="3.2"/>
</g>
</g>
</svg>
