<?xml version="1.0" encoding="UTF-8" standalone="no"?>
<!DOCTYPE svg PUBLIC "-//W3C//DTD SVG 1.1//EN"
 "http://www.w3.org/Graphics/SVG/1.1/DTD/svg11.dtd">
<!-- Generated by graphviz version 2.43.0 (0)
 -->
<!-- Title: oneDegreeRelationshipsDiagram Pages: 1 -->
<svg width="730pt" height="363pt"
 viewBox="0.00 0.00 730.00 363.00" xmlns="http://www.w3.org/2000/svg" xmlns:xlink="http://www.w3.org/1999/xlink">
<g id="graph0" class="graph" transform="scale(1 1) rotate(0) translate(4 359)">
<title>oneDegreeRelationshipsDiagram</title>
<polygon fill="#ffffff" stroke="transparent" points="-4,4 -4,-359 726,-359 726,4 -4,4"/>
<text text-anchor="middle" x="79.5" y="-7.2" font-family="Helvetica,sans-Serif" font-size="11.00">Generated by SchemaSpy</text>
<!-- edition_editor_request -->
<g id="node1" class="node">
<title>edition_editor_request</title>
<g id="a_node1"><a xlink:href="../../tables/edition_editor_request.html" xlink:title="edition_editor_request" target="_top">
<polygon fill="#ffffff" stroke="transparent" points="426,-37 426,-257 714,-257 714,-37 426,-37"/>
<polygon fill="#f5f5f5" stroke="transparent" points="428,-233 428,-255 712,-255 712,-233 428,-233"/>
<polygon fill="none" stroke="black" points="428,-233 428,-255 712,-255 712,-233 428,-233"/>
<text text-anchor="start" x="433" y="-242.2" font-family="Helvetica,sans-Serif" font-weight="bold" font-size="11.00">edition_editor_request</text>
<text text-anchor="start" x="670" y="-241.2" font-family="Helvetica,sans-Serif" font-size="11.00">[table]</text>
<polygon fill="#ffffff" stroke="transparent" points="428,-211 428,-233 601,-233 601,-211 428,-211"/>
<polygon fill="none" stroke="black" points="428,-211 428,-233 601,-233 601,-211 428,-211"/>
<image xlink:href="../../images/foreignKeys.png" width="11px" height="12px" preserveAspectRatio="xMinYMin meet" x="433" y="-228"/>
<text text-anchor="start" x="448" y="-219.2" font-family="Helvetica,sans-Serif" font-size="11.00">token</text>
<polygon fill="none" stroke="black" points="601,-211 601,-233 712,-233 712,-211 601,-211"/>
<text text-anchor="start" x="604" y="-219.2" font-family="Helvetica,sans-Serif" font-size="11.00">char[36]</text>
<polygon fill="#ffffff" stroke="transparent" points="428,-189 428,-211 601,-211 601,-189 428,-189"/>
<polygon fill="none" stroke="black" points="428,-189 428,-211 601,-211 601,-189 428,-189"/>
<image xlink:href="../../images/foreignKeys.png" width="11px" height="12px" preserveAspectRatio="xMinYMin meet" x="433" y="-206"/>
<text text-anchor="start" x="448" y="-197.2" font-family="Helvetica,sans-Serif" font-size="11.00">admin_user_id</text>
<polygon fill="none" stroke="black" points="601,-189 601,-211 712,-211 712,-189 601,-189"/>
<text text-anchor="start" x="604" y="-197.2" font-family="Helvetica,sans-Serif" font-size="11.00">int unsigned[10]</text>
<polygon fill="none" stroke="black" points="428,-167 428,-189 601,-189 601,-167 428,-167"/>
<image xlink:href="../../images/primaryKeys.png" width="11px" height="12px" preserveAspectRatio="xMinYMin meet" x="433" y="-184"/>
<text text-anchor="start" x="448" y="-175.2" font-family="Helvetica,sans-Serif" font-size="11.00">editor_user_id</text>
<polygon fill="none" stroke="black" points="601,-167 601,-189 712,-189 712,-167 601,-167"/>
<text text-anchor="start" x="604" y="-175.2" font-family="Helvetica,sans-Serif" font-size="11.00">int unsigned[10]</text>
<polygon fill="none" stroke="black" points="428,-145 428,-167 601,-167 601,-145 428,-145"/>
<image xlink:href="../../images/primaryKeys.png" width="11px" height="12px" preserveAspectRatio="xMinYMin meet" x="433" y="-162"/>
<text text-anchor="start" x="448" y="-153.2" font-family="Helvetica,sans-Serif" font-size="11.00">edition_id</text>
<polygon fill="none" stroke="black" points="601,-145 601,-167 712,-167 712,-145 601,-145"/>
<text text-anchor="start" x="604" y="-153.2" font-family="Helvetica,sans-Serif" font-size="11.00">int unsigned[10]</text>
<polygon fill="none" stroke="black" points="428,-123 428,-145 601,-145 601,-123 428,-123"/>
<text text-anchor="start" x="448" y="-131.2" font-family="Helvetica,sans-Serif" font-size="11.00">is_admin</text>
<polygon fill="none" stroke="black" points="601,-123 601,-145 712,-145 712,-123 601,-123"/>
<text text-anchor="start" x="604" y="-131.2" font-family="Helvetica,sans-Serif" font-size="11.00">tinyint unsigned[3]</text>
<polygon fill="none" stroke="black" points="428,-101 428,-123 601,-123 601,-101 428,-101"/>
<text text-anchor="start" x="448" y="-109.2" font-family="Helvetica,sans-Serif" font-size="11.00">may_lock</text>
<polygon fill="none" stroke="black" points="601,-101 601,-123 712,-123 712,-101 601,-101"/>
<text text-anchor="start" x="604" y="-109.2" font-family="Helvetica,sans-Serif" font-size="11.00">tinyint unsigned[3]</text>
<polygon fill="none" stroke="black" points="428,-79 428,-101 601,-101 601,-79 428,-79"/>
<text text-anchor="start" x="448" y="-87.2" font-family="Helvetica,sans-Serif" font-size="11.00">may_write</text>
<polygon fill="none" stroke="black" points="601,-79 601,-101 712,-101 712,-79 601,-79"/>
<text text-anchor="start" x="604" y="-87.2" font-family="Helvetica,sans-Serif" font-size="11.00">tinyint unsigned[3]</text>
<polygon fill="none" stroke="black" points="428,-57 428,-79 601,-79 601,-57 428,-57"/>
<text text-anchor="start" x="448" y="-65.2" font-family="Helvetica,sans-Serif" font-size="11.00">date</text>
<polygon fill="none" stroke="black" points="601,-57 601,-79 712,-79 712,-57 601,-57"/>
<text text-anchor="start" x="604" y="-65.2" font-family="Helvetica,sans-Serif" font-size="11.00">datetime[19]</text>
<polygon fill="#ffffff" stroke="transparent" points="428,-39 428,-57 506,-57 506,-39 428,-39"/>
<polygon fill="none" stroke="black" points="428,-39 428,-57 506,-57 506,-39 428,-39"/>
<text text-anchor="start" x="431" y="-45.2" font-family="Helvetica,sans-Serif" font-size="11.00">&lt; 4</text>
<polygon fill="#ffffff" stroke="transparent" points="506,-39 506,-57 601,-57 601,-39 506,-39"/>
<polygon fill="none" stroke="black" points="506,-39 506,-57 601,-57 601,-39 506,-39"/>
<text text-anchor="start" x="561" y="-45.2" font-family="Helvetica,sans-Serif" font-size="11.00">0 rows</text>
<polygon fill="#ffffff" stroke="transparent" points="601,-39 601,-57 712,-57 712,-39 601,-39"/>
<polygon fill="none" stroke="black" points="601,-39 601,-57 712,-57 712,-39 601,-39"/>
<text text-anchor="start" x="689" y="-45.2" font-family="Helvetica,sans-Serif" font-size="11.00">0 &gt;</text>
<polygon fill="none" stroke="black" stroke-width="2" points="427,-38 427,-256 713,-256 713,-38 427,-38"/>
</a>
</g>
</g>
<!-- user -->
<g id="node2" class="node">
<title>user</title>
<g id="a_node2"><a xlink:href="../../tables/user.html" xlink:title="user" target="_top">
<polygon fill="#ffffff" stroke="transparent" points="8,-134 8,-236 171,-236 171,-134 8,-134"/>
<polygon fill="#f5f5f5" stroke="transparent" points="8.5,-214 8.5,-236 171.5,-236 171.5,-214 8.5,-214"/>
<polygon fill="none" stroke="black" points="8.5,-214 8.5,-236 171.5,-236 171.5,-214 8.5,-214"/>
<text text-anchor="start" x="13.5" y="-223.2" font-family="Helvetica,sans-Serif" font-weight="bold" font-size="11.00">user</text>
<text text-anchor="start" x="129.5" y="-222.2" font-family="Helvetica,sans-Serif" font-size="11.00">[table]</text>
<polygon fill="none" stroke="black" points="8.5,-192 8.5,-214 171.5,-214 171.5,-192 8.5,-192"/>
<image xlink:href="../../images/primaryKeys.png" width="11px" height="12px" preserveAspectRatio="xMinYMin meet" x="13.5" y="-209"/>
<text text-anchor="start" x="28.5" y="-200.2" font-family="Helvetica,sans-Serif" font-size="11.00">user_id</text>
<polygon fill="#ffffff" stroke="transparent" points="8.5,-170 8.5,-192 171.5,-192 171.5,-170 8.5,-170"/>
<polygon fill="none" stroke="black" points="8.5,-170 8.5,-192 171.5,-192 171.5,-170 8.5,-170"/>
<text text-anchor="start" x="28.5" y="-178.2" font-family="Helvetica,sans-Serif" font-size="11.00">email</text>
<polygon fill="none" stroke="black" points="8.5,-152 8.5,-170 171.5,-170 171.5,-152 8.5,-152"/>
<text text-anchor="start" x="11.5" y="-158.2" font-family="Helvetica,sans-Serif" font-size="11.00">...</text>
<polygon fill="#ffffff" stroke="transparent" points="8.5,-134 8.5,-152 58.5,-152 58.5,-134 8.5,-134"/>
<polygon fill="none" stroke="black" points="8.5,-134 8.5,-152 58.5,-152 58.5,-134 8.5,-134"/>
<text text-anchor="start" x="11.5" y="-140.2" font-family="Helvetica,sans-Serif" font-size="11.00"> &#160;</text>
<polygon fill="#ffffff" stroke="transparent" points="58.5,-134 58.5,-152 119.5,-152 119.5,-134 58.5,-134"/>
<polygon fill="none" stroke="black" points="58.5,-134 58.5,-152 119.5,-152 119.5,-134 58.5,-134"/>
<text text-anchor="start" x="79.5" y="-140.2" font-family="Helvetica,sans-Serif" font-size="11.00">0 rows</text>
<polygon fill="#ffffff" stroke="transparent" points="119.5,-134 119.5,-152 171.5,-152 171.5,-134 119.5,-134"/>
<polygon fill="none" stroke="black" points="119.5,-134 119.5,-152 171.5,-152 171.5,-134 119.5,-134"/>
<text text-anchor="start" x="141.5" y="-140.2" font-family="Helvetica,sans-Serif" font-size="11.00">10 &gt;</text>
</a>
</g>
</g>
<!-- edition_editor_request&#45;&gt;user -->
<g id="edge1" class="edge">
<title>edition_editor_request:w&#45;&gt;user:e</title>
<path fill="none" stroke="black" d="M412.56,-200.02C311.23,-200.26 280.65,-203 172.5,-203"/>
<polygon fill="black" stroke="black" points="419,-200.01 427,-203.6 423,-200 427,-200 427,-200 427,-200 423,-200 427,-196.4 419,-200.01 419,-200.01"/>
<ellipse fill="none" stroke="black" cx="415.8" cy="-200.01" rx="3.2" ry="3.2"/>
</g>
<!-- edition_editor_request&#45;&gt;user -->
<g id="edge3" class="edge">
<title>edition_editor_request:w&#45;&gt;user:e</title>
<path fill="none" stroke="black" d="M412.4,-178.06C328.36,-178.81 302.22,-186.17 212,-197 194.37,-199.12 190.26,-203 172.5,-203"/>
<polygon fill="black" stroke="black" points="419,-178.03 427.02,-181.6 423,-178.02 427,-178 427,-178 427,-178 423,-178.02 426.98,-174.4 419,-178.03 419,-178.03"/>
<ellipse fill="none" stroke="black" cx="415.8" cy="-178.05" rx="3.2" ry="3.2"/>
</g>
<!-- edition -->
<g id="node3" class="node">
<title>edition</title>
<g id="a_node3"><a xlink:href="../../tables/edition.html" xlink:title="edition" target="_top">
<polygon fill="#ffffff" stroke="transparent" points="231,-50 231,-152 366,-152 366,-50 231,-50"/>
<polygon fill="#f5f5f5" stroke="transparent" points="231.5,-130 231.5,-152 366.5,-152 366.5,-130 231.5,-130"/>
<polygon fill="none" stroke="black" points="231.5,-130 231.5,-152 366.5,-152 366.5,-130 231.5,-130"/>
<text text-anchor="start" x="236.5" y="-139.2" font-family="Helvetica,sans-Serif" font-weight="bold" font-size="11.00">edition</text>
<text text-anchor="start" x="324.5" y="-138.2" font-family="Helvetica,sans-Serif" font-size="11.00">[table]</text>
<polygon fill="none" stroke="black" points="231.5,-108 231.5,-130 366.5,-130 366.5,-108 231.5,-108"/>
<image xlink:href="../../images/primaryKeys.png" width="11px" height="12px" preserveAspectRatio="xMinYMin meet" x="236.5" y="-125"/>
<text text-anchor="start" x="251.5" y="-116.2" font-family="Helvetica,sans-Serif" font-size="11.00">edition_id</text>
<polygon fill="#ffffff" stroke="transparent" points="231.5,-86 231.5,-108 366.5,-108 366.5,-86 231.5,-86"/>
<polygon fill="none" stroke="black" points="231.5,-86 231.5,-108 366.5,-108 366.5,-86 231.5,-86"/>
<image xlink:href="../../images/foreignKeys.png" width="11px" height="12px" preserveAspectRatio="xMinYMin meet" x="236.5" y="-103"/>
<text text-anchor="start" x="251.5" y="-94.2" font-family="Helvetica,sans-Serif" font-size="11.00">manuscript_id</text>
<polygon fill="none" stroke="black" points="231.5,-68 231.5,-86 366.5,-86 366.5,-68 231.5,-68"/>
<text text-anchor="start" x="234.5" y="-74.2" font-family="Helvetica,sans-Serif" font-size="11.00">...</text>
<polygon fill="#ffffff" stroke="transparent" points="231.5,-50 231.5,-68 261.5,-68 261.5,-50 231.5,-50"/>
<polygon fill="none" stroke="black" points="231.5,-50 231.5,-68 261.5,-68 261.5,-50 231.5,-50"/>
<text text-anchor="start" x="234.5" y="-56.2" font-family="Helvetica,sans-Serif" font-size="11.00">&lt; 1</text>
<polygon fill="#ffffff" stroke="transparent" points="261.5,-50 261.5,-68 330.5,-68 330.5,-50 261.5,-50"/>
<polygon fill="none" stroke="black" points="261.5,-50 261.5,-68 330.5,-68 330.5,-50 261.5,-50"/>
<text text-anchor="start" x="266.5" y="-56.2" font-family="Helvetica,sans-Serif" font-size="11.00">1,645 rows</text>
<polygon fill="#ffffff" stroke="transparent" points="330.5,-50 330.5,-68 366.5,-68 366.5,-50 330.5,-50"/>
<polygon fill="none" stroke="black" points="330.5,-50 330.5,-68 366.5,-68 366.5,-50 330.5,-50"/>
<text text-anchor="start" x="336.5" y="-56.2" font-family="Helvetica,sans-Serif" font-size="11.00">35 &gt;</text>
</a>
</g>
</g>
<!-- edition_editor_request&#45;&gt;edition -->
<g id="edge2" class="edge">
<title>edition_editor_request:w&#45;&gt;edition:e</title>
<path fill="none" stroke="black" d="M412.61,-152.59C395.71,-143.43 392.8,-119 367.5,-119"/>
<polygon fill="black" stroke="black" points="419.22,-154.15 426.17,-159.5 423.11,-155.08 427,-156 427,-156 427,-156 423.11,-155.08 427.83,-152.5 419.22,-154.15 419.22,-154.15"/>
<ellipse fill="none" stroke="black" cx="416.1" cy="-153.41" rx="3.2" ry="3.2"/>
</g>
<!-- user_email_token -->
<g id="node4" class="node">
<title>user_email_token</title>
<g id="a_node4"><a xlink:href="../../tables/user_email_token.html" xlink:title="user_email_token" target="_top">
<polygon fill="#ffffff" stroke="transparent" points="220,-227 220,-351 377,-351 377,-227 220,-227"/>
<polygon fill="#f5f5f5" stroke="transparent" points="220.5,-329 220.5,-351 377.5,-351 377.5,-329 220.5,-329"/>
<polygon fill="none" stroke="black" points="220.5,-329 220.5,-351 377.5,-351 377.5,-329 220.5,-329"/>
<text text-anchor="start" x="225.5" y="-338.2" font-family="Helvetica,sans-Serif" font-weight="bold" font-size="11.00">user_email_token</text>
<text text-anchor="start" x="335.5" y="-337.2" font-family="Helvetica,sans-Serif" font-size="11.00">[table]</text>
<polygon fill="#ffffff" stroke="transparent" points="220.5,-307 220.5,-329 377.5,-329 377.5,-307 220.5,-307"/>
<polygon fill="none" stroke="black" points="220.5,-307 220.5,-329 377.5,-329 377.5,-307 220.5,-307"/>
<image xlink:href="../../images/foreignKeys.png" width="11px" height="12px" preserveAspectRatio="xMinYMin meet" x="225.5" y="-324"/>
<text text-anchor="start" x="250.5" y="-315.2" font-family="Helvetica,sans-Serif" font-size="11.00">user_id</text>
<polygon fill="none" stroke="black" points="220.5,-285 220.5,-307 377.5,-307 377.5,-285 220.5,-285"/>
<image xlink:href="../../images/primaryKeys.png" width="11px" height="12px" preserveAspectRatio="xMinYMin meet" x="225.5" y="-302"/>
<text text-anchor="start" x="250.5" y="-293.2" font-family="Helvetica,sans-Serif" font-size="11.00">token</text>
<polygon fill="#ffffff" stroke="transparent" points="220.5,-263 220.5,-285 377.5,-285 377.5,-263 220.5,-263"/>
<polygon fill="none" stroke="black" points="220.5,-263 220.5,-285 377.5,-285 377.5,-263 220.5,-263"/>
<text text-anchor="start" x="250.5" y="-271.2" font-family="Helvetica,sans-Serif" font-size="11.00">date_created</text>
<polygon fill="none" stroke="black" points="220.5,-245 220.5,-263 377.5,-263 377.5,-245 220.5,-245"/>
<text text-anchor="start" x="223.5" y="-251.2" font-family="Helvetica,sans-Serif" font-size="11.00">...</text>
<polygon fill="#ffffff" stroke="transparent" points="220.5,-227 220.5,-245 277.5,-245 277.5,-227 220.5,-227"/>
<polygon fill="none" stroke="black" points="220.5,-227 220.5,-245 277.5,-245 277.5,-227 220.5,-227"/>
<text text-anchor="start" x="223.5" y="-233.2" font-family="Helvetica,sans-Serif" font-size="11.00">&lt; 1</text>
<polygon fill="#ffffff" stroke="transparent" points="277.5,-227 277.5,-245 335.5,-245 335.5,-227 277.5,-227"/>
<polygon fill="none" stroke="black" points="277.5,-227 277.5,-245 335.5,-245 335.5,-227 277.5,-227"/>
<text text-anchor="start" x="295.5" y="-233.2" font-family="Helvetica,sans-Serif" font-size="11.00">0 rows</text>
<polygon fill="#ffffff" stroke="transparent" points="335.5,-227 335.5,-245 377.5,-245 377.5,-227 335.5,-227"/>
<polygon fill="none" stroke="black" points="335.5,-227 335.5,-245 377.5,-245 377.5,-227 335.5,-227"/>
<text text-anchor="start" x="354.5" y="-233.2" font-family="Helvetica,sans-Serif" font-size="11.00">1 &gt;</text>
</a>
</g>
</g>
<!-- edition_editor_request&#45;&gt;user_email_token -->
<g id="edge4" class="edge">
<title>edition_editor_request:w&#45;&gt;user_email_token:e</title>
<path fill="none" stroke="black" d="M413.13,-226.86C395.4,-243.32 411.68,-296 378.5,-296"/>
<polygon fill="black" stroke="black" points="419.45,-224.64 428.19,-225.4 423.22,-223.32 427,-222 427,-222 427,-222 423.22,-223.32 425.81,-218.6 419.45,-224.64 419.45,-224.64"/>
<ellipse fill="none" stroke="black" cx="416.43" cy="-225.7" rx="3.2" ry="3.2"/>
</g>
<!-- user_email_token&#45;&gt;user -->
<g id="edge5" class="edge">
<title>user_email_token:w&#45;&gt;user:e</title>
<path fill="none" stroke="black" d="M205.33,-314.17C176.74,-294.22 221.68,-203 172.5,-203"/>
<polygon fill="black" stroke="black" points="211.78,-315.91 218.56,-321.48 215.64,-316.96 219.5,-318 219.5,-318 219.5,-318 215.64,-316.96 220.44,-314.52 211.78,-315.91 211.78,-315.91"/>
<ellipse fill="none" stroke="black" cx="208.69" cy="-315.08" rx="3.2" ry="3.2"/>
</g>
</g>
</svg>
