<?xml version="1.0" encoding="UTF-8" standalone="no"?>
<!DOCTYPE svg PUBLIC "-//W3C//DTD SVG 1.1//EN"
 "http://www.w3.org/Graphics/SVG/1.1/DTD/svg11.dtd">
<!-- Generated by graphviz version 2.40.1 (20161225.0304)
 -->
<!-- Title: oneDegreeRelationshipsDiagramImplied Pages: 1 -->
<svg width="693pt" height="363pt"
 viewBox="0.00 0.00 693.00 363.00" xmlns="http://www.w3.org/2000/svg" xmlns:xlink="http://www.w3.org/1999/xlink">
<g id="graph0" class="graph" transform="scale(1 1) rotate(0) translate(4 359)">
<title>oneDegreeRelationshipsDiagramImplied</title>
<polygon fill="#ffffff" stroke="transparent" points="-4,4 -4,-359 689,-359 689,4 -4,4"/>
<text text-anchor="middle" x="71.5" y="-7.2" font-family="Helvetica,sans-Serif" font-size="11.00" fill="#000000">Generated by SchemaSpy</text>
<!-- edition_editor_request -->
<g id="node1" class="node">
<title>edition_editor_request</title>
<g id="a_node1"><a xlink:href="../../tables/edition_editor_request.html" xlink:title="edition_editor_request" target="_top">
<polygon fill="#ffffff" stroke="transparent" points="407,-37 407,-257 677,-257 677,-37 407,-37"/>
<polygon fill="#f5f5f5" stroke="transparent" points="409,-233 409,-255 675,-255 675,-233 409,-233"/>
<polygon fill="none" stroke="#000000" points="409,-233 409,-255 675,-255 675,-233 409,-233"/>
<text text-anchor="start" x="414" y="-242.2" font-family="Helvetica,sans-Serif" font-weight="bold" font-size="11.00" fill="#000000">edition_editor_request</text>
<text text-anchor="start" x="640" y="-241.2" font-family="Helvetica,sans-Serif" font-size="11.00" fill="#000000">[table]</text>
<polygon fill="#ffffff" stroke="transparent" points="409,-211 409,-233 582,-233 582,-211 409,-211"/>
<polygon fill="none" stroke="#000000" points="409,-211 409,-233 582,-233 582,-211 409,-211"/>
<image xlink:href="../../images/foreignKeys.png" width="11px" height="12px" preserveAspectRatio="xMinYMin meet" x="414" y="-228"/>
<text text-anchor="start" x="429" y="-219.2" font-family="Helvetica,sans-Serif" font-size="11.00" fill="#000000">token</text>
<polygon fill="none" stroke="#000000" points="582,-211 582,-233 675,-233 675,-211 582,-211"/>
<text text-anchor="start" x="585" y="-219.2" font-family="Helvetica,sans-Serif" font-size="11.00" fill="#000000">char[36]</text>
<polygon fill="#ffffff" stroke="transparent" points="409,-189 409,-211 582,-211 582,-189 409,-189"/>
<polygon fill="none" stroke="#000000" points="409,-189 409,-211 582,-211 582,-189 409,-189"/>
<image xlink:href="../../images/foreignKeys.png" width="11px" height="12px" preserveAspectRatio="xMinYMin meet" x="414" y="-206"/>
<text text-anchor="start" x="429" y="-197.2" font-family="Helvetica,sans-Serif" font-size="11.00" fill="#000000">admin_user_id</text>
<polygon fill="none" stroke="#000000" points="582,-189 582,-211 675,-211 675,-189 582,-189"/>
<text text-anchor="start" x="585" y="-197.2" font-family="Helvetica,sans-Serif" font-size="11.00" fill="#000000">int unsigned[10]</text>
<polygon fill="none" stroke="#000000" points="409,-167 409,-189 582,-189 582,-167 409,-167"/>
<image xlink:href="../../images/primaryKeys.png" width="11px" height="12px" preserveAspectRatio="xMinYMin meet" x="414" y="-184"/>
<text text-anchor="start" x="429" y="-175.2" font-family="Helvetica,sans-Serif" font-size="11.00" fill="#000000">editor_user_id</text>
<polygon fill="none" stroke="#000000" points="582,-167 582,-189 675,-189 675,-167 582,-167"/>
<text text-anchor="start" x="585" y="-175.2" font-family="Helvetica,sans-Serif" font-size="11.00" fill="#000000">int unsigned[10]</text>
<polygon fill="none" stroke="#000000" points="409,-145 409,-167 582,-167 582,-145 409,-145"/>
<image xlink:href="../../images/primaryKeys.png" width="11px" height="12px" preserveAspectRatio="xMinYMin meet" x="414" y="-162"/>
<text text-anchor="start" x="429" y="-153.2" font-family="Helvetica,sans-Serif" font-size="11.00" fill="#000000">edition_id</text>
<polygon fill="none" stroke="#000000" points="582,-145 582,-167 675,-167 675,-145 582,-145"/>
<text text-anchor="start" x="585" y="-153.2" font-family="Helvetica,sans-Serif" font-size="11.00" fill="#000000">int unsigned[10]</text>
<polygon fill="none" stroke="#000000" points="409,-123 409,-145 582,-145 582,-123 409,-123"/>
<text text-anchor="start" x="429" y="-131.2" font-family="Helvetica,sans-Serif" font-size="11.00" fill="#000000">is_admin</text>
<polygon fill="none" stroke="#000000" points="582,-123 582,-145 675,-145 675,-123 582,-123"/>
<text text-anchor="start" x="585" y="-131.2" font-family="Helvetica,sans-Serif" font-size="11.00" fill="#000000">tinyint unsigned[3]</text>
<polygon fill="none" stroke="#000000" points="409,-101 409,-123 582,-123 582,-101 409,-101"/>
<text text-anchor="start" x="429" y="-109.2" font-family="Helvetica,sans-Serif" font-size="11.00" fill="#000000">may_lock</text>
<polygon fill="none" stroke="#000000" points="582,-101 582,-123 675,-123 675,-101 582,-101"/>
<text text-anchor="start" x="585" y="-109.2" font-family="Helvetica,sans-Serif" font-size="11.00" fill="#000000">tinyint unsigned[3]</text>
<polygon fill="none" stroke="#000000" points="409,-79 409,-101 582,-101 582,-79 409,-79"/>
<text text-anchor="start" x="429" y="-87.2" font-family="Helvetica,sans-Serif" font-size="11.00" fill="#000000">may_write</text>
<polygon fill="none" stroke="#000000" points="582,-79 582,-101 675,-101 675,-79 582,-79"/>
<text text-anchor="start" x="585" y="-87.2" font-family="Helvetica,sans-Serif" font-size="11.00" fill="#000000">tinyint unsigned[3]</text>
<polygon fill="none" stroke="#000000" points="409,-57 409,-79 582,-79 582,-57 409,-57"/>
<text text-anchor="start" x="429" y="-65.2" font-family="Helvetica,sans-Serif" font-size="11.00" fill="#000000">date</text>
<polygon fill="none" stroke="#000000" points="582,-57 582,-79 675,-79 675,-57 582,-57"/>
<text text-anchor="start" x="585" y="-65.2" font-family="Helvetica,sans-Serif" font-size="11.00" fill="#000000">datetime[19]</text>
<polygon fill="#ffffff" stroke="transparent" points="409,-39 409,-57 487,-57 487,-39 409,-39"/>
<polygon fill="none" stroke="#000000" points="409,-39 409,-57 487,-57 487,-39 409,-39"/>
<text text-anchor="start" x="412" y="-45.2" font-family="Helvetica,sans-Serif" font-size="11.00" fill="#000000">&lt; 4</text>
<polygon fill="#ffffff" stroke="transparent" points="487,-39 487,-57 582,-57 582,-39 487,-39"/>
<polygon fill="none" stroke="#000000" points="487,-39 487,-57 582,-57 582,-39 487,-39"/>
<text text-anchor="start" x="546" y="-45.2" font-family="Helvetica,sans-Serif" font-size="11.00" fill="#000000">0 rows</text>
<polygon fill="#ffffff" stroke="transparent" points="582,-39 582,-57 675,-57 675,-39 582,-39"/>
<polygon fill="none" stroke="#000000" points="582,-39 582,-57 675,-57 675,-39 582,-39"/>
<text text-anchor="start" x="656" y="-45.2" font-family="Helvetica,sans-Serif" font-size="11.00" fill="#000000">0 &gt;</text>
<polygon fill="none" stroke="#000000" stroke-width="2" points="408,-38 408,-256 676,-256 676,-38 408,-38"/>
</a>
</g>
</g>
<!-- user -->
<g id="node2" class="node">
<title>user</title>
<g id="a_node2"><a xlink:href="../../tables/user.html" xlink:title="user" target="_top">
<polygon fill="#ffffff" stroke="transparent" points="8,-134 8,-236 171,-236 171,-134 8,-134"/>
<polygon fill="#f5f5f5" stroke="transparent" points="8.5,-214 8.5,-236 171.5,-236 171.5,-214 8.5,-214"/>
<polygon fill="none" stroke="#000000" points="8.5,-214 8.5,-236 171.5,-236 171.5,-214 8.5,-214"/>
<text text-anchor="start" x="13.5" y="-223.2" font-family="Helvetica,sans-Serif" font-weight="bold" font-size="11.00" fill="#000000">user</text>
<text text-anchor="start" x="136.5" y="-222.2" font-family="Helvetica,sans-Serif" font-size="11.00" fill="#000000">[table]</text>
<polygon fill="none" stroke="#000000" points="8.5,-192 8.5,-214 171.5,-214 171.5,-192 8.5,-192"/>
<image xlink:href="../../images/primaryKeys.png" width="11px" height="12px" preserveAspectRatio="xMinYMin meet" x="13.5" y="-209"/>
<text text-anchor="start" x="28.5" y="-200.2" font-family="Helvetica,sans-Serif" font-size="11.00" fill="#000000">user_id</text>
<polygon fill="#ffffff" stroke="transparent" points="8.5,-170 8.5,-192 171.5,-192 171.5,-170 8.5,-170"/>
<polygon fill="none" stroke="#000000" points="8.5,-170 8.5,-192 171.5,-192 171.5,-170 8.5,-170"/>
<text text-anchor="start" x="28.5" y="-178.2" font-family="Helvetica,sans-Serif" font-size="11.00" fill="#000000">email</text>
<polygon fill="none" stroke="#000000" points="8.5,-152 8.5,-170 171.5,-170 171.5,-152 8.5,-152"/>
<text text-anchor="start" x="11.5" y="-158.2" font-family="Helvetica,sans-Serif" font-size="11.00" fill="#000000">...</text>
<polygon fill="#ffffff" stroke="transparent" points="8.5,-134 8.5,-152 62.5,-152 62.5,-134 8.5,-134"/>
<polygon fill="none" stroke="#000000" points="8.5,-134 8.5,-152 62.5,-152 62.5,-134 8.5,-134"/>
<text text-anchor="start" x="11.5" y="-140.2" font-family="Helvetica,sans-Serif" font-size="11.00" fill="#000000"> &#160;</text>
<polygon fill="#ffffff" stroke="transparent" points="62.5,-134 62.5,-152 122.5,-152 122.5,-134 62.5,-134"/>
<polygon fill="none" stroke="#000000" points="62.5,-134 62.5,-152 122.5,-152 122.5,-134 62.5,-134"/>
<text text-anchor="start" x="86.5" y="-140.2" font-family="Helvetica,sans-Serif" font-size="11.00" fill="#000000">3 rows</text>
<polygon fill="#ffffff" stroke="transparent" points="122.5,-134 122.5,-152 171.5,-152 171.5,-134 122.5,-134"/>
<polygon fill="none" stroke="#000000" points="122.5,-134 122.5,-152 171.5,-152 171.5,-134 122.5,-134"/>
<text text-anchor="start" x="146.5" y="-140.2" font-family="Helvetica,sans-Serif" font-size="11.00" fill="#000000">40 &gt;</text>
</a>
</g>
</g>
<!-- edition_editor_request&#45;&gt;user -->
<g id="edge1" class="edge">
<title>edition_editor_request:w&#45;&gt;user:e</title>
<path fill="none" stroke="#000000" d="M394.3724,-200.02C300.7308,-200.2802 272.0126,-203 171.5,-203"/>
<polygon fill="#000000" stroke="#000000" points="401,-200.011 409.0049,-203.6 405,-200.0055 409,-200 409,-200 409,-200 405,-200.0055 408.9951,-196.4 401,-200.011 401,-200.011"/>
<ellipse fill="none" stroke="#000000" cx="397.8" cy="-200.0154" rx="3.2" ry="3.2"/>
</g>
<!-- edition_editor_request&#45;&gt;user -->
<g id="edge3" class="edge">
<title>edition_editor_request:w&#45;&gt;user:e</title>
<path fill="none" stroke="#000000" d="M394.1936,-178.0846C318.267,-178.9841 294.1962,-186.9542 212,-197 193.9379,-199.2075 189.6965,-203 171.5,-203"/>
<polygon fill="#000000" stroke="#000000" points="401.0001,-178.0458 409.0206,-181.5999 405.0001,-178.0229 409,-178 409,-178 409,-178 405.0001,-178.0229 408.9794,-174.4001 401.0001,-178.0458 401.0001,-178.0458"/>
<ellipse fill="none" stroke="#000000" cx="397.8002" cy="-178.0641" rx="3.2" ry="3.2"/>
</g>
<!-- edition -->
<g id="node3" class="node">
<title>edition</title>
<g id="a_node3"><a xlink:href="../../tables/edition.html" xlink:title="edition" target="_top">
<polygon fill="#ffffff" stroke="transparent" points="221.5,-50 221.5,-152 356.5,-152 356.5,-50 221.5,-50"/>
<polygon fill="#f5f5f5" stroke="transparent" points="222,-130 222,-152 357,-152 357,-130 222,-130"/>
<polygon fill="none" stroke="#000000" points="222,-130 222,-152 357,-152 357,-130 222,-130"/>
<text text-anchor="start" x="227" y="-139.2" font-family="Helvetica,sans-Serif" font-weight="bold" font-size="11.00" fill="#000000">edition</text>
<text text-anchor="start" x="322" y="-138.2" font-family="Helvetica,sans-Serif" font-size="11.00" fill="#000000">[table]</text>
<polygon fill="none" stroke="#000000" points="222,-108 222,-130 357,-130 357,-108 222,-108"/>
<image xlink:href="../../images/primaryKeys.png" width="11px" height="12px" preserveAspectRatio="xMinYMin meet" x="227" y="-125"/>
<text text-anchor="start" x="242" y="-116.2" font-family="Helvetica,sans-Serif" font-size="11.00" fill="#000000">edition_id</text>
<polygon fill="#ffffff" stroke="transparent" points="222,-86 222,-108 357,-108 357,-86 222,-86"/>
<polygon fill="none" stroke="#000000" points="222,-86 222,-108 357,-108 357,-86 222,-86"/>
<image xlink:href="../../images/foreignKeys.png" width="11px" height="12px" preserveAspectRatio="xMinYMin meet" x="227" y="-103"/>
<text text-anchor="start" x="242" y="-94.2" font-family="Helvetica,sans-Serif" font-size="11.00" fill="#000000">manuscript_id</text>
<polygon fill="none" stroke="#000000" points="222,-68 222,-86 357,-86 357,-68 222,-68"/>
<text text-anchor="start" x="225" y="-74.2" font-family="Helvetica,sans-Serif" font-size="11.00" fill="#000000">...</text>
<polygon fill="#ffffff" stroke="transparent" points="222,-50 222,-68 256,-68 256,-50 222,-50"/>
<polygon fill="none" stroke="#000000" points="222,-50 222,-68 256,-68 256,-50 222,-50"/>
<text text-anchor="start" x="225" y="-56.2" font-family="Helvetica,sans-Serif" font-size="11.00" fill="#000000">&lt; 1</text>
<polygon fill="#ffffff" stroke="transparent" points="256,-50 256,-68 322,-68 322,-50 256,-50"/>
<polygon fill="none" stroke="#000000" points="256,-50 256,-68 322,-68 322,-50 256,-50"/>
<text text-anchor="start" x="265" y="-56.2" font-family="Helvetica,sans-Serif" font-size="11.00" fill="#000000">1,645 rows</text>
<polygon fill="#ffffff" stroke="transparent" points="322,-50 322,-68 357,-68 357,-50 322,-50"/>
<polygon fill="none" stroke="#000000" points="322,-50 322,-68 357,-68 357,-50 322,-50"/>
<text text-anchor="start" x="332" y="-56.2" font-family="Helvetica,sans-Serif" font-size="11.00" fill="#000000">32 &gt;</text>
</a>
</g>
</g>
<!-- edition_editor_request&#45;&gt;edition -->
<g id="edge2" class="edge">
<title>edition_editor_request:w&#45;&gt;edition:e</title>
<path fill="none" stroke="#000000" d="M394.8468,-151.7556C381.1581,-142.0369 379.3813,-119 357,-119"/>
<polygon fill="#000000" stroke="#000000" points="401.3372,-153.702 407.9659,-159.4483 405.1686,-154.851 409,-156 409,-156 409,-156 405.1686,-154.851 410.0341,-152.5517 401.3372,-153.702 401.3372,-153.702"/>
<ellipse fill="none" stroke="#000000" cx="398.272" cy="-152.7827" rx="3.2" ry="3.2"/>
</g>
<!-- user_email_token -->
<g id="node4" class="node">
<title>user_email_token</title>
<g id="a_node4"><a xlink:href="../../tables/user_email_token.html" xlink:title="user_email_token" target="_top">
<polygon fill="#ffffff" stroke="transparent" points="220,-227 220,-351 358,-351 358,-227 220,-227"/>
<polygon fill="#f5f5f5" stroke="transparent" points="220,-329 220,-351 358,-351 358,-329 220,-329"/>
<polygon fill="none" stroke="#000000" points="220,-329 220,-351 358,-351 358,-329 220,-329"/>
<text text-anchor="start" x="225" y="-338.2" font-family="Helvetica,sans-Serif" font-weight="bold" font-size="11.00" fill="#000000">user_email_token</text>
<text text-anchor="start" x="323" y="-337.2" font-family="Helvetica,sans-Serif" font-size="11.00" fill="#000000">[table]</text>
<polygon fill="#ffffff" stroke="transparent" points="220,-307 220,-329 358,-329 358,-307 220,-307"/>
<polygon fill="none" stroke="#000000" points="220,-307 220,-329 358,-329 358,-307 220,-307"/>
<image xlink:href="../../images/foreignKeys.png" width="11px" height="12px" preserveAspectRatio="xMinYMin meet" x="225" y="-324"/>
<text text-anchor="start" x="240" y="-315.2" font-family="Helvetica,sans-Serif" font-size="11.00" fill="#000000">user_id</text>
<polygon fill="none" stroke="#000000" points="220,-285 220,-307 358,-307 358,-285 220,-285"/>
<image xlink:href="../../images/primaryKeys.png" width="11px" height="12px" preserveAspectRatio="xMinYMin meet" x="225" y="-302"/>
<text text-anchor="start" x="240" y="-293.2" font-family="Helvetica,sans-Serif" font-size="11.00" fill="#000000">token</text>
<polygon fill="#ffffff" stroke="transparent" points="220,-263 220,-285 358,-285 358,-263 220,-263"/>
<polygon fill="none" stroke="#000000" points="220,-263 220,-285 358,-285 358,-263 220,-263"/>
<text text-anchor="start" x="240" y="-271.2" font-family="Helvetica,sans-Serif" font-size="11.00" fill="#000000">date_created</text>
<polygon fill="none" stroke="#000000" points="220,-245 220,-263 358,-263 358,-245 220,-245"/>
<text text-anchor="start" x="223" y="-251.2" font-family="Helvetica,sans-Serif" font-size="11.00" fill="#000000">...</text>
<polygon fill="#ffffff" stroke="transparent" points="220,-227 220,-245 269,-245 269,-227 220,-227"/>
<polygon fill="none" stroke="#000000" points="220,-227 220,-245 269,-245 269,-227 220,-227"/>
<text text-anchor="start" x="223" y="-233.2" font-family="Helvetica,sans-Serif" font-size="11.00" fill="#000000">&lt; 1</text>
<polygon fill="#ffffff" stroke="transparent" points="269,-227 269,-245 322,-245 322,-227 269,-227"/>
<polygon fill="none" stroke="#000000" points="269,-227 269,-245 322,-245 322,-227 269,-227"/>
<text text-anchor="start" x="286" y="-233.2" font-family="Helvetica,sans-Serif" font-size="11.00" fill="#000000">0 rows</text>
<polygon fill="#ffffff" stroke="transparent" points="322,-227 322,-245 358,-245 358,-227 322,-227"/>
<polygon fill="none" stroke="#000000" points="322,-227 322,-245 358,-245 358,-227 322,-227"/>
<text text-anchor="start" x="339" y="-233.2" font-family="Helvetica,sans-Serif" font-size="11.00" fill="#000000">1 &gt;</text>
</a>
</g>
</g>
<!-- edition_editor_request&#45;&gt;user_email_token -->
<g id="edge4" class="edge">
<title>edition_editor_request:w&#45;&gt;user_email_token:e</title>
<path fill="none" stroke="#000000" d="M395.0503,-226.629C376.2607,-242.8294 391.8581,-296 358,-296"/>
<polygon fill="#000000" stroke="#000000" points="401.4071,-224.5196 410.1338,-225.4168 405.2036,-223.2598 409,-222 409,-222 409,-222 405.2036,-223.2598 407.8662,-218.5832 401.4071,-224.5196 401.4071,-224.5196"/>
<ellipse fill="none" stroke="#000000" cx="398.37" cy="-225.5275" rx="3.2" ry="3.2"/>
</g>
<!-- user_email_token&#45;&gt;user -->
<g id="edge5" class="edge">
<title>user_email_token:w&#45;&gt;user:e</title>
<path fill="none" stroke="#000000" d="M205.7218,-314.1737C176.7778,-294.2195 220.9035,-203 171.5,-203"/>
<polygon fill="#000000" stroke="#000000" points="212.2727,-315.9292 219.0681,-321.4773 216.1363,-316.9646 220,-318 220,-318 220,-318 216.1363,-316.9646 220.9319,-314.5227 212.2727,-315.9292 212.2727,-315.9292"/>
<ellipse fill="none" stroke="#000000" cx="209.1817" cy="-315.1009" rx="3.2" ry="3.2"/>
</g>
</g>
</svg>
