<?xml version="1.0" encoding="UTF-8" standalone="no"?>
<!DOCTYPE svg PUBLIC "-//W3C//DTD SVG 1.1//EN"
 "http://www.w3.org/Graphics/SVG/1.1/DTD/svg11.dtd">
<!-- Generated by graphviz version 2.43.0 (0)
 -->
<!-- Title: oneDegreeRelationshipsDiagram Pages: 1 -->
<svg width="476pt" height="173pt"
 viewBox="0.00 0.00 476.00 173.00" xmlns="http://www.w3.org/2000/svg" xmlns:xlink="http://www.w3.org/1999/xlink">
<g id="graph0" class="graph" transform="scale(1 1) rotate(0) translate(4 169)">
<title>oneDegreeRelationshipsDiagram</title>
<polygon fill="#ffffff" stroke="transparent" points="-4,4 -4,-169 472,-169 472,4 -4,4"/>
<text text-anchor="middle" x="79.5" y="-7.2" font-family="Helvetica,sans-Serif" font-size="11.00">Generated by SchemaSpy</text>
<!-- external_font_glyph -->
<g id="node1" class="node">
<title>external_font_glyph</title>
<g id="a_node1"><a xlink:href="../../tables/external_font_glyph.html" xlink:title="external_font_glyph" target="_top">
<polygon fill="#ffffff" stroke="transparent" points="287,-37 287,-161 460,-161 460,-37 287,-37"/>
<polygon fill="#f5f5f5" stroke="transparent" points="287.5,-139 287.5,-161 460.5,-161 460.5,-139 287.5,-139"/>
<polygon fill="none" stroke="black" points="287.5,-139 287.5,-161 460.5,-161 460.5,-139 287.5,-139"/>
<text text-anchor="start" x="292.5" y="-148.2" font-family="Helvetica,sans-Serif" font-weight="bold" font-size="11.00">external_font_glyph</text>
<text text-anchor="start" x="418.5" y="-147.2" font-family="Helvetica,sans-Serif" font-size="11.00">[table]</text>
<polygon fill="none" stroke="black" points="287.5,-117 287.5,-139 460.5,-139 460.5,-117 287.5,-117"/>
<image xlink:href="../../images/primaryKeys.png" width="11px" height="12px" preserveAspectRatio="xMinYMin meet" x="292.5" y="-134"/>
<text text-anchor="start" x="307.5" y="-125.2" font-family="Helvetica,sans-Serif" font-size="11.00">external_font_glyph_id</text>
<polygon fill="#ffffff" stroke="transparent" points="287.5,-95 287.5,-117 460.5,-117 460.5,-95 287.5,-95"/>
<polygon fill="none" stroke="black" points="287.5,-95 287.5,-117 460.5,-117 460.5,-95 287.5,-95"/>
<image xlink:href="../../images/foreignKeys.png" width="11px" height="12px" preserveAspectRatio="xMinYMin meet" x="292.5" y="-112"/>
<text text-anchor="start" x="307.5" y="-103.2" font-family="Helvetica,sans-Serif" font-size="11.00">external_font_id</text>
<polygon fill="#ffffff" stroke="transparent" points="287.5,-73 287.5,-95 460.5,-95 460.5,-73 287.5,-73"/>
<polygon fill="none" stroke="black" points="287.5,-73 287.5,-95 460.5,-95 460.5,-73 287.5,-73"/>
<text text-anchor="start" x="307.5" y="-81.2" font-family="Helvetica,sans-Serif" font-size="11.00">unicode_char</text>
<polygon fill="none" stroke="black" points="287.5,-55 287.5,-73 460.5,-73 460.5,-55 287.5,-55"/>
<text text-anchor="start" x="290.5" y="-61.2" font-family="Helvetica,sans-Serif" font-size="11.00">...</text>
<polygon fill="#ffffff" stroke="transparent" points="287.5,-37 287.5,-55 346.5,-55 346.5,-37 287.5,-37"/>
<polygon fill="none" stroke="black" points="287.5,-37 287.5,-55 346.5,-55 346.5,-37 287.5,-37"/>
<text text-anchor="start" x="290.5" y="-43.2" font-family="Helvetica,sans-Serif" font-size="11.00">&lt; 1</text>
<polygon fill="#ffffff" stroke="transparent" points="346.5,-37 346.5,-55 429.5,-55 429.5,-37 346.5,-37"/>
<polygon fill="none" stroke="black" points="346.5,-37 346.5,-55 429.5,-55 429.5,-37 346.5,-37"/>
<text text-anchor="start" x="365.5" y="-43.2" font-family="Helvetica,sans-Serif" font-size="11.00">2,369 rows</text>
<polygon fill="#ffffff" stroke="transparent" points="429.5,-37 429.5,-55 460.5,-55 460.5,-37 429.5,-37"/>
<polygon fill="none" stroke="black" points="429.5,-37 429.5,-55 460.5,-55 460.5,-37 429.5,-37"/>
<text text-anchor="start" x="449.5" y="-43.2" font-family="Helvetica,sans-Serif" font-size="11.00"> &#160;</text>
</a>
</g>
</g>
<!-- external_font -->
<g id="node2" class="node">
<title>external_font</title>
<g id="a_node2"><a xlink:href="../../tables/external_font.html" xlink:title="external_font" target="_top">
<polygon fill="#ffffff" stroke="transparent" points="8,-53 8,-141 238,-141 238,-53 8,-53"/>
<polygon fill="#f5f5f5" stroke="transparent" points="10,-117 10,-139 236,-139 236,-117 10,-117"/>
<polygon fill="none" stroke="black" points="10,-117 10,-139 236,-139 236,-117 10,-117"/>
<text text-anchor="start" x="15" y="-126.2" font-family="Helvetica,sans-Serif" font-weight="bold" font-size="11.00">external_font</text>
<text text-anchor="start" x="194" y="-125.2" font-family="Helvetica,sans-Serif" font-size="11.00">[table]</text>
<polygon fill="none" stroke="black" points="10,-95 10,-117 139,-117 139,-95 10,-95"/>
<image xlink:href="../../images/primaryKeys.png" width="11px" height="12px" preserveAspectRatio="xMinYMin meet" x="15" y="-112"/>
<text text-anchor="start" x="30" y="-103.2" font-family="Helvetica,sans-Serif" font-size="11.00">external_font_id</text>
<polygon fill="none" stroke="black" points="139,-95 139,-117 236,-117 236,-95 139,-95"/>
<text text-anchor="start" x="142" y="-103.2" font-family="Helvetica,sans-Serif" font-size="11.00">int unsigned[10]</text>
<polygon fill="#ffffff" stroke="transparent" points="10,-73 10,-95 139,-95 139,-73 10,-73"/>
<polygon fill="none" stroke="black" points="10,-73 10,-95 139,-95 139,-73 10,-73"/>
<text text-anchor="start" x="30" y="-81.2" font-family="Helvetica,sans-Serif" font-size="11.00">font_id</text>
<polygon fill="none" stroke="black" points="139,-73 139,-95 236,-95 236,-73 139,-73"/>
<text text-anchor="start" x="142" y="-81.2" font-family="Helvetica,sans-Serif" font-size="11.00">varchar[255]</text>
<polygon fill="#ffffff" stroke="transparent" points="10,-55 10,-73 66,-73 66,-55 10,-55"/>
<polygon fill="none" stroke="black" points="10,-55 10,-73 66,-73 66,-55 10,-55"/>
<text text-anchor="start" x="13" y="-61.2" font-family="Helvetica,sans-Serif" font-size="11.00">&lt; 0</text>
<polygon fill="#ffffff" stroke="transparent" points="66,-55 66,-73 139,-73 139,-55 66,-55"/>
<polygon fill="none" stroke="black" points="66,-55 66,-73 139,-73 139,-55 66,-55"/>
<text text-anchor="start" x="99" y="-61.2" font-family="Helvetica,sans-Serif" font-size="11.00">0 rows</text>
<polygon fill="#ffffff" stroke="transparent" points="139,-55 139,-73 236,-73 236,-55 139,-55"/>
<polygon fill="none" stroke="black" points="139,-55 139,-73 236,-73 236,-55 139,-55"/>
<text text-anchor="start" x="213" y="-61.2" font-family="Helvetica,sans-Serif" font-size="11.00">1 &gt;</text>
<polygon fill="none" stroke="black" stroke-width="2" points="9,-54 9,-140 237,-140 237,-54 9,-54"/>
</a>
</g>
</g>
<!-- external_font_glyph&#45;&gt;external_font -->
<g id="edge1" class="edge">
<title>external_font_glyph:w&#45;&gt;external_font:e</title>
<path fill="none" stroke="black" d="M271.84,-106C260.41,-106 253.16,-106 237,-106"/>
<polygon fill="black" stroke="black" points="278.5,-106 286.5,-109.6 282.5,-106 286.5,-106 286.5,-106 286.5,-106 282.5,-106 286.5,-102.4 278.5,-106 278.5,-106"/>
<ellipse fill="none" stroke="black" cx="275.3" cy="-106" rx="3.2" ry="3.2"/>
</g>
</g>
</svg>
