<?xml version="1.0" encoding="UTF-8" standalone="no"?>
<!DOCTYPE svg PUBLIC "-//W3C//DTD SVG 1.1//EN"
 "http://www.w3.org/Graphics/SVG/1.1/DTD/svg11.dtd">
<!-- Generated by graphviz version 2.40.1 (20161225.0304)
 -->
<!-- Title: oneDegreeRelationshipsDiagram Pages: 1 -->
<svg width="610pt" height="376pt"
 viewBox="0.00 0.00 610.00 376.00" xmlns="http://www.w3.org/2000/svg" xmlns:xlink="http://www.w3.org/1999/xlink">
<g id="graph0" class="graph" transform="scale(1 1) rotate(0) translate(4 372)">
<title>oneDegreeRelationshipsDiagram</title>
<polygon fill="#ffffff" stroke="transparent" points="-4,4 -4,-372 606,-372 606,4 -4,4"/>
<text text-anchor="middle" x="71.5" y="-7.2" font-family="Helvetica,sans-Serif" font-size="11.00" fill="#000000">Generated by SchemaSpy</text>
<!-- edition_editor -->
<g id="node1" class="node">
<title>edition_editor</title>
<g id="a_node1"><a xlink:href="../../tables/edition_editor.html" xlink:title="edition_editor" target="_top">
<polygon fill="#ffffff" stroke="transparent" points="192.5,-95 192.5,-219 325.5,-219 325.5,-95 192.5,-95"/>
<polygon fill="#f5f5f5" stroke="transparent" points="193,-197 193,-219 326,-219 326,-197 193,-197"/>
<polygon fill="none" stroke="#000000" points="193,-197 193,-219 326,-219 326,-197 193,-197"/>
<text text-anchor="start" x="198" y="-206.2" font-family="Helvetica,sans-Serif" font-weight="bold" font-size="11.00" fill="#000000">edition_editor</text>
<text text-anchor="start" x="291" y="-205.2" font-family="Helvetica,sans-Serif" font-size="11.00" fill="#000000">[table]</text>
<polygon fill="none" stroke="#000000" points="193,-175 193,-197 326,-197 326,-175 193,-175"/>
<image xlink:href="../../images/primaryKeys.png" width="11px" height="12px" preserveAspectRatio="xMinYMin meet" x="198" y="-192"/>
<text text-anchor="start" x="213" y="-183.2" font-family="Helvetica,sans-Serif" font-size="11.00" fill="#000000">edition_editor_id</text>
<polygon fill="#ffffff" stroke="transparent" points="193,-153 193,-175 326,-175 326,-153 193,-153"/>
<polygon fill="none" stroke="#000000" points="193,-153 193,-175 326,-175 326,-153 193,-153"/>
<image xlink:href="../../images/foreignKeys.png" width="11px" height="12px" preserveAspectRatio="xMinYMin meet" x="198" y="-170"/>
<text text-anchor="start" x="213" y="-161.2" font-family="Helvetica,sans-Serif" font-size="11.00" fill="#000000">user_id</text>
<polygon fill="#ffffff" stroke="transparent" points="193,-131 193,-153 326,-153 326,-131 193,-131"/>
<polygon fill="none" stroke="#000000" points="193,-131 193,-153 326,-153 326,-131 193,-131"/>
<image xlink:href="../../images/foreignKeys.png" width="11px" height="12px" preserveAspectRatio="xMinYMin meet" x="198" y="-148"/>
<text text-anchor="start" x="213" y="-139.2" font-family="Helvetica,sans-Serif" font-size="11.00" fill="#000000">edition_id</text>
<polygon fill="none" stroke="#000000" points="193,-113 193,-131 326,-131 326,-113 193,-113"/>
<text text-anchor="start" x="196" y="-119.2" font-family="Helvetica,sans-Serif" font-size="11.00" fill="#000000">...</text>
<polygon fill="#ffffff" stroke="transparent" points="193,-95 193,-113 226,-113 226,-95 193,-95"/>
<polygon fill="none" stroke="#000000" points="193,-95 193,-113 226,-113 226,-95 193,-95"/>
<text text-anchor="start" x="196" y="-101.2" font-family="Helvetica,sans-Serif" font-size="11.00" fill="#000000">&lt; 2</text>
<polygon fill="#ffffff" stroke="transparent" points="226,-95 226,-113 292,-113 292,-95 226,-95"/>
<polygon fill="none" stroke="#000000" points="226,-95 226,-113 292,-113 292,-95 226,-95"/>
<text text-anchor="start" x="235" y="-101.2" font-family="Helvetica,sans-Serif" font-size="11.00" fill="#000000">1,645 rows</text>
<polygon fill="#ffffff" stroke="transparent" points="292,-95 292,-113 326,-113 326,-95 292,-95"/>
<polygon fill="none" stroke="#000000" points="292,-95 292,-113 326,-113 326,-95 292,-95"/>
<text text-anchor="start" x="301" y="-101.2" font-family="Helvetica,sans-Serif" font-size="11.00" fill="#000000">30 &gt;</text>
</a>
</g>
</g>
<!-- edition -->
<g id="node2" class="node">
<title>edition</title>
<g id="a_node2"><a xlink:href="../../tables/edition.html" xlink:title="edition" target="_top">
<polygon fill="#ffffff" stroke="transparent" points="8,-37 8,-139 143,-139 143,-37 8,-37"/>
<polygon fill="#f5f5f5" stroke="transparent" points="8.5,-117 8.5,-139 143.5,-139 143.5,-117 8.5,-117"/>
<polygon fill="none" stroke="#000000" points="8.5,-117 8.5,-139 143.5,-139 143.5,-117 8.5,-117"/>
<text text-anchor="start" x="13.5" y="-126.2" font-family="Helvetica,sans-Serif" font-weight="bold" font-size="11.00" fill="#000000">edition</text>
<text text-anchor="start" x="108.5" y="-125.2" font-family="Helvetica,sans-Serif" font-size="11.00" fill="#000000">[table]</text>
<polygon fill="none" stroke="#000000" points="8.5,-95 8.5,-117 143.5,-117 143.5,-95 8.5,-95"/>
<image xlink:href="../../images/primaryKeys.png" width="11px" height="12px" preserveAspectRatio="xMinYMin meet" x="13.5" y="-112"/>
<text text-anchor="start" x="28.5" y="-103.2" font-family="Helvetica,sans-Serif" font-size="11.00" fill="#000000">edition_id</text>
<polygon fill="#ffffff" stroke="transparent" points="8.5,-73 8.5,-95 143.5,-95 143.5,-73 8.5,-73"/>
<polygon fill="none" stroke="#000000" points="8.5,-73 8.5,-95 143.5,-95 143.5,-73 8.5,-73"/>
<image xlink:href="../../images/foreignKeys.png" width="11px" height="12px" preserveAspectRatio="xMinYMin meet" x="13.5" y="-90"/>
<text text-anchor="start" x="28.5" y="-81.2" font-family="Helvetica,sans-Serif" font-size="11.00" fill="#000000">manuscript_id</text>
<polygon fill="none" stroke="#000000" points="8.5,-55 8.5,-73 143.5,-73 143.5,-55 8.5,-55"/>
<text text-anchor="start" x="11.5" y="-61.2" font-family="Helvetica,sans-Serif" font-size="11.00" fill="#000000">...</text>
<polygon fill="#ffffff" stroke="transparent" points="8.5,-37 8.5,-55 42.5,-55 42.5,-37 8.5,-37"/>
<polygon fill="none" stroke="#000000" points="8.5,-37 8.5,-55 42.5,-55 42.5,-37 8.5,-37"/>
<text text-anchor="start" x="11.5" y="-43.2" font-family="Helvetica,sans-Serif" font-size="11.00" fill="#000000">&lt; 1</text>
<polygon fill="#ffffff" stroke="transparent" points="42.5,-37 42.5,-55 108.5,-55 108.5,-37 42.5,-37"/>
<polygon fill="none" stroke="#000000" points="42.5,-37 42.5,-55 108.5,-55 108.5,-37 42.5,-37"/>
<text text-anchor="start" x="51.5" y="-43.2" font-family="Helvetica,sans-Serif" font-size="11.00" fill="#000000">1,645 rows</text>
<polygon fill="#ffffff" stroke="transparent" points="108.5,-37 108.5,-55 143.5,-55 143.5,-37 108.5,-37"/>
<polygon fill="none" stroke="#000000" points="108.5,-37 108.5,-55 143.5,-55 143.5,-37 108.5,-37"/>
<text text-anchor="start" x="118.5" y="-43.2" font-family="Helvetica,sans-Serif" font-size="11.00" fill="#000000">32 &gt;</text>
</a>
</g>
</g>
<!-- edition_editor&#45;&gt;edition -->
<g id="edge1" class="edge">
<title>edition_editor:w&#45;&gt;edition:e</title>
<path fill="none" stroke="#000000" d="M179.0852,-137.5857C166.4069,-127.9727 164.7523,-106 143.5,-106"/>
<polygon fill="#000000" stroke="#000000" points="185.3745,-139.5809 191.9114,-145.4315 189.1873,-140.7904 193,-142 193,-142 193,-142 189.1873,-140.7904 194.0886,-138.5685 185.3745,-139.5809 185.3745,-139.5809"/>
<ellipse fill="none" stroke="#000000" cx="182.3243" cy="-138.6132" rx="3.2" ry="3.2"/>
</g>
<!-- font_file_owner -->
<g id="node3" class="node">
<title>font_file_owner</title>
<g id="a_node3"><a xlink:href="../../tables/font_file_owner.html" xlink:title="font_file_owner" target="_top">
<polygon fill="#ffffff" stroke="transparent" points="375,-133 375,-243 594,-243 594,-133 375,-133"/>
<polygon fill="#f5f5f5" stroke="transparent" points="377.5,-219 377.5,-241 592.5,-241 592.5,-219 377.5,-219"/>
<polygon fill="none" stroke="#000000" points="377.5,-219 377.5,-241 592.5,-241 592.5,-219 377.5,-219"/>
<text text-anchor="start" x="382.5" y="-228.2" font-family="Helvetica,sans-Serif" font-weight="bold" font-size="11.00" fill="#000000">font_file_owner</text>
<text text-anchor="start" x="557.5" y="-227.2" font-family="Helvetica,sans-Serif" font-size="11.00" fill="#000000">[table]</text>
<polygon fill="none" stroke="#000000" points="377.5,-197 377.5,-219 510.5,-219 510.5,-197 377.5,-197"/>
<image xlink:href="../../images/primaryKeys.png" width="11px" height="12px" preserveAspectRatio="xMinYMin meet" x="382.5" y="-214"/>
<text text-anchor="start" x="397.5" y="-205.2" font-family="Helvetica,sans-Serif" font-size="11.00" fill="#000000">font_file_id</text>
<polygon fill="none" stroke="#000000" points="510.5,-197 510.5,-219 592.5,-219 592.5,-197 510.5,-197"/>
<text text-anchor="start" x="513.5" y="-205.2" font-family="Helvetica,sans-Serif" font-size="11.00" fill="#000000">int unsigned[10]</text>
<polygon fill="#ffffff" stroke="transparent" points="377.5,-175 377.5,-197 510.5,-197 510.5,-175 377.5,-175"/>
<polygon fill="none" stroke="#000000" points="377.5,-175 377.5,-197 510.5,-197 510.5,-175 377.5,-175"/>
<image xlink:href="../../images/foreignKeys.png" width="11px" height="12px" preserveAspectRatio="xMinYMin meet" x="382.5" y="-192"/>
<text text-anchor="start" x="397.5" y="-183.2" font-family="Helvetica,sans-Serif" font-size="11.00" fill="#000000">edition_editor_id</text>
<polygon fill="none" stroke="#000000" points="510.5,-175 510.5,-197 592.5,-197 592.5,-175 510.5,-175"/>
<text text-anchor="start" x="513.5" y="-183.2" font-family="Helvetica,sans-Serif" font-size="11.00" fill="#000000">int unsigned[10]</text>
<polygon fill="none" stroke="#000000" points="377.5,-153 377.5,-175 510.5,-175 510.5,-153 377.5,-153"/>
<image xlink:href="../../images/primaryKeys.png" width="11px" height="12px" preserveAspectRatio="xMinYMin meet" x="382.5" y="-170"/>
<text text-anchor="start" x="397.5" y="-161.2" font-family="Helvetica,sans-Serif" font-size="11.00" fill="#000000">edition_id</text>
<polygon fill="none" stroke="#000000" points="510.5,-153 510.5,-175 592.5,-175 592.5,-153 510.5,-153"/>
<text text-anchor="start" x="513.5" y="-161.2" font-family="Helvetica,sans-Serif" font-size="11.00" fill="#000000">int unsigned[10]</text>
<polygon fill="#ffffff" stroke="transparent" points="377.5,-135 377.5,-153 435.5,-153 435.5,-135 377.5,-135"/>
<polygon fill="none" stroke="#000000" points="377.5,-135 377.5,-153 435.5,-153 435.5,-135 377.5,-135"/>
<text text-anchor="start" x="380.5" y="-141.2" font-family="Helvetica,sans-Serif" font-size="11.00" fill="#000000">&lt; 3</text>
<polygon fill="#ffffff" stroke="transparent" points="435.5,-135 435.5,-153 510.5,-153 510.5,-135 435.5,-135"/>
<polygon fill="none" stroke="#000000" points="435.5,-135 435.5,-153 510.5,-153 510.5,-135 435.5,-135"/>
<text text-anchor="start" x="474.5" y="-141.2" font-family="Helvetica,sans-Serif" font-size="11.00" fill="#000000">0 rows</text>
<polygon fill="#ffffff" stroke="transparent" points="510.5,-135 510.5,-153 592.5,-153 592.5,-135 510.5,-135"/>
<polygon fill="none" stroke="#000000" points="510.5,-135 510.5,-153 592.5,-153 592.5,-135 510.5,-135"/>
<text text-anchor="start" x="573.5" y="-141.2" font-family="Helvetica,sans-Serif" font-size="11.00" fill="#000000">0 &gt;</text>
<polygon fill="none" stroke="#000000" stroke-width="2" points="376,-134 376,-242 593,-242 593,-134 376,-134"/>
</a>
</g>
</g>
<!-- font_file_owner&#45;&gt;edition_editor -->
<g id="edge2" class="edge">
<title>font_file_owner:w&#45;&gt;edition_editor:e</title>
<path fill="none" stroke="#000000" d="M363.0156,-186C350.6771,-186 343.1667,-186 326,-186"/>
<polygon fill="#000000" stroke="#000000" points="369.5,-186.0001 377.5,-189.6 373.5,-186 377.5,-186 377.5,-186 377.5,-186 373.5,-186 377.5,-182.4 369.5,-186.0001 369.5,-186.0001"/>
<ellipse fill="none" stroke="#000000" cx="366.3" cy="-186.0001" rx="3.2" ry="3.2"/>
</g>
<!-- font_file_owner&#45;&gt;edition -->
<g id="edge3" class="edge">
<title>font_file_owner:w&#45;&gt;edition:e</title>
<path fill="none" stroke="#000000" d="M363.5416,-160.2163C345.1605,-146.8233 363.4884,-101.5315 334,-84 276.6958,-49.9314 248.6138,-67.5834 184,-84 164.1465,-89.0442 163.9843,-106 143.5,-106"/>
<polygon fill="#000000" stroke="#000000" points="369.7786,-161.9069 376.5581,-167.4746 373.6393,-162.9535 377.5,-164 377.5,-164 377.5,-164 373.6393,-162.9535 378.4419,-160.5254 369.7786,-161.9069 369.7786,-161.9069"/>
<ellipse fill="none" stroke="#000000" cx="366.6901" cy="-161.0697" rx="3.2" ry="3.2"/>
</g>
<!-- font_file -->
<g id="node4" class="node">
<title>font_file</title>
<g id="a_node4"><a xlink:href="../../tables/font_file.html" xlink:title="font_file" target="_top">
<polygon fill="#ffffff" stroke="transparent" points="192,-240 192,-364 326,-364 326,-240 192,-240"/>
<polygon fill="#f5f5f5" stroke="transparent" points="192,-342 192,-364 326,-364 326,-342 192,-342"/>
<polygon fill="none" stroke="#000000" points="192,-342 192,-364 326,-364 326,-342 192,-342"/>
<text text-anchor="start" x="197" y="-351.2" font-family="Helvetica,sans-Serif" font-weight="bold" font-size="11.00" fill="#000000">font_file</text>
<text text-anchor="start" x="291" y="-350.2" font-family="Helvetica,sans-Serif" font-size="11.00" fill="#000000">[table]</text>
<polygon fill="none" stroke="#000000" points="192,-320 192,-342 326,-342 326,-320 192,-320"/>
<image xlink:href="../../images/primaryKeys.png" width="11px" height="12px" preserveAspectRatio="xMinYMin meet" x="197" y="-337"/>
<text text-anchor="start" x="212" y="-328.2" font-family="Helvetica,sans-Serif" font-size="11.00" fill="#000000">font_file_id</text>
<polygon fill="#ffffff" stroke="transparent" points="192,-298 192,-320 326,-320 326,-298 192,-298"/>
<polygon fill="none" stroke="#000000" points="192,-298 192,-320 326,-320 326,-298 192,-298"/>
<text text-anchor="start" x="212" y="-306.2" font-family="Helvetica,sans-Serif" font-size="11.00" fill="#000000">font_name</text>
<polygon fill="#ffffff" stroke="transparent" points="192,-276 192,-298 326,-298 326,-276 192,-276"/>
<polygon fill="none" stroke="#000000" points="192,-276 192,-298 326,-298 326,-276 192,-276"/>
<image xlink:href="../../images/foreignKeys.png" width="11px" height="12px" preserveAspectRatio="xMinYMin meet" x="197" y="-293"/>
<text text-anchor="start" x="212" y="-284.2" font-family="Helvetica,sans-Serif" font-size="11.00" fill="#000000">creator_id</text>
<polygon fill="none" stroke="#000000" points="192,-258 192,-276 326,-276 326,-258 192,-258"/>
<text text-anchor="start" x="195" y="-264.2" font-family="Helvetica,sans-Serif" font-size="11.00" fill="#000000">...</text>
<polygon fill="#ffffff" stroke="transparent" points="192,-240 192,-258 239,-258 239,-240 192,-240"/>
<polygon fill="none" stroke="#000000" points="192,-240 192,-258 239,-258 239,-240 192,-240"/>
<text text-anchor="start" x="195" y="-246.2" font-family="Helvetica,sans-Serif" font-size="11.00" fill="#000000">&lt; 1</text>
<polygon fill="#ffffff" stroke="transparent" points="239,-240 239,-258 291,-258 291,-240 239,-240"/>
<polygon fill="none" stroke="#000000" points="239,-240 239,-258 291,-258 291,-240 239,-240"/>
<text text-anchor="start" x="255" y="-246.2" font-family="Helvetica,sans-Serif" font-size="11.00" fill="#000000">0 rows</text>
<polygon fill="#ffffff" stroke="transparent" points="291,-240 291,-258 326,-258 326,-240 291,-240"/>
<polygon fill="none" stroke="#000000" points="291,-240 291,-258 326,-258 326,-240 291,-240"/>
<text text-anchor="start" x="307" y="-246.2" font-family="Helvetica,sans-Serif" font-size="11.00" fill="#000000">1 &gt;</text>
</a>
</g>
</g>
<!-- font_file_owner&#45;&gt;font_file -->
<g id="edge4" class="edge">
<title>font_file_owner:w&#45;&gt;font_file:e</title>
<path fill="none" stroke="#000000" d="M363.0862,-211.5485C330.5477,-231.7156 379.2459,-331 326,-331"/>
<polygon fill="#000000" stroke="#000000" points="369.7319,-209.9124 378.3606,-211.4956 373.616,-208.9562 377.5,-208 377.5,-208 377.5,-208 373.616,-208.9562 376.6394,-204.5044 369.7319,-209.9124 369.7319,-209.9124"/>
<ellipse fill="none" stroke="#000000" cx="366.6247" cy="-210.6774" rx="3.2" ry="3.2"/>
</g>
</g>
</svg>
