<?xml version="1.0" encoding="UTF-8" standalone="no"?>
<!DOCTYPE svg PUBLIC "-//W3C//DTD SVG 1.1//EN"
 "http://www.w3.org/Graphics/SVG/1.1/DTD/svg11.dtd">
<!-- Generated by graphviz version 2.43.0 (0)
 -->
<!-- Title: twoDegreesRelationshipsDiagram Pages: 1 -->
<svg width="661pt" height="308pt"
 viewBox="0.00 0.00 661.00 308.00" xmlns="http://www.w3.org/2000/svg" xmlns:xlink="http://www.w3.org/1999/xlink">
<g id="graph0" class="graph" transform="scale(1 1) rotate(0) translate(4 304)">
<title>twoDegreesRelationshipsDiagram</title>
<polygon fill="#ffffff" stroke="transparent" points="-4,4 -4,-304 657,-304 657,4 -4,4"/>
<text text-anchor="middle" x="79.5" y="-7.2" font-family="Helvetica,sans-Serif" font-size="11.00">Generated by SchemaSpy</text>
<!-- edition_editor -->
<g id="node1" class="node">
<title>edition_editor</title>
<g id="a_node1"><a xlink:href="../../tables/edition_editor.html" xlink:title="edition_editor" target="_top">
<polygon fill="#ffffff" stroke="transparent" points="249,-63 249,-121 385,-121 385,-63 249,-63"/>
<polygon fill="#f5f5f5" stroke="transparent" points="249,-99 249,-121 385,-121 385,-99 249,-99"/>
<polygon fill="none" stroke="black" points="249,-99 249,-121 385,-121 385,-99 249,-99"/>
<text text-anchor="start" x="254" y="-108.2" font-family="Helvetica,sans-Serif" font-weight="bold" font-size="11.00">edition_editor</text>
<text text-anchor="start" x="343" y="-107.2" font-family="Helvetica,sans-Serif" font-size="11.00">[table]</text>
<polygon fill="none" stroke="black" points="249,-81 249,-99 385,-99 385,-81 249,-81"/>
<text text-anchor="start" x="252" y="-87.2" font-family="Helvetica,sans-Serif" font-size="11.00">...</text>
<polygon fill="#ffffff" stroke="transparent" points="249,-63 249,-81 280,-81 280,-63 249,-63"/>
<polygon fill="none" stroke="black" points="249,-63 249,-81 280,-81 280,-63 249,-63"/>
<text text-anchor="start" x="252" y="-69.2" font-family="Helvetica,sans-Serif" font-size="11.00">&lt; 2</text>
<polygon fill="#ffffff" stroke="transparent" points="280,-63 280,-81 349,-81 349,-63 280,-63"/>
<polygon fill="none" stroke="black" points="280,-63 280,-81 349,-81 349,-63 280,-63"/>
<text text-anchor="start" x="285" y="-69.2" font-family="Helvetica,sans-Serif" font-size="11.00">1,645 rows</text>
<polygon fill="#ffffff" stroke="transparent" points="349,-63 349,-81 385,-81 385,-63 349,-63"/>
<polygon fill="none" stroke="black" points="349,-63 349,-81 385,-81 385,-63 349,-63"/>
<text text-anchor="start" x="355" y="-69.2" font-family="Helvetica,sans-Serif" font-size="11.00">33 &gt;</text>
</a>
</g>
</g>
<!-- edition -->
<g id="node2" class="node">
<title>edition</title>
<g id="a_node2"><a xlink:href="../../tables/edition.html" xlink:title="edition" target="_top">
<polygon fill="#ffffff" stroke="transparent" points="8,-37 8,-95 134,-95 134,-37 8,-37"/>
<polygon fill="#f5f5f5" stroke="transparent" points="8,-73 8,-95 134,-95 134,-73 8,-73"/>
<polygon fill="none" stroke="black" points="8,-73 8,-95 134,-95 134,-73 8,-73"/>
<text text-anchor="start" x="13" y="-82.2" font-family="Helvetica,sans-Serif" font-weight="bold" font-size="11.00">edition</text>
<text text-anchor="start" x="92" y="-81.2" font-family="Helvetica,sans-Serif" font-size="11.00">[table]</text>
<polygon fill="none" stroke="black" points="8,-55 8,-73 134,-73 134,-55 8,-55"/>
<text text-anchor="start" x="11" y="-61.2" font-family="Helvetica,sans-Serif" font-size="11.00">...</text>
<polygon fill="#ffffff" stroke="transparent" points="8,-37 8,-55 34,-55 34,-37 8,-37"/>
<polygon fill="none" stroke="black" points="8,-37 8,-55 34,-55 34,-37 8,-37"/>
<text text-anchor="start" x="11" y="-43.2" font-family="Helvetica,sans-Serif" font-size="11.00">&lt; 1</text>
<polygon fill="#ffffff" stroke="transparent" points="34,-37 34,-55 101,-55 101,-37 34,-37"/>
<polygon fill="none" stroke="black" points="34,-37 34,-55 101,-55 101,-37 34,-37"/>
<text text-anchor="start" x="37" y="-43.2" font-family="Helvetica,sans-Serif" font-size="11.00">1,645 rows</text>
<polygon fill="#ffffff" stroke="transparent" points="101,-37 101,-55 134,-55 134,-37 101,-37"/>
<polygon fill="none" stroke="black" points="101,-37 101,-55 134,-55 134,-37 101,-37"/>
<text text-anchor="start" x="104" y="-43.2" font-family="Helvetica,sans-Serif" font-size="11.00">35 &gt;</text>
</a>
</g>
</g>
<!-- edition_editor&#45;&gt;edition -->
<g id="edge1" class="edge">
<title>edition_editor:w&#45;&gt;edition:e</title>
<path fill="none" stroke="black" d="M233.5,-89.25C194.02,-84.99 181.3,-64 135,-64"/>
<polygon fill="black" stroke="black" points="240.01,-89.59 247.81,-93.6 244.01,-89.79 248,-90 248,-90 248,-90 244.01,-89.79 248.19,-86.4 240.01,-89.59 240.01,-89.59"/>
<ellipse fill="none" stroke="black" cx="236.81" cy="-89.42" rx="3.2" ry="3.2"/>
</g>
<!-- font_file_owner -->
<g id="node3" class="node">
<title>font_file_owner</title>
<g id="a_node3"><a xlink:href="../../tables/font_file_owner.html" xlink:title="font_file_owner" target="_top">
<polygon fill="#ffffff" stroke="transparent" points="500,-39 500,-145 645,-145 645,-39 500,-39"/>
<polygon fill="#f5f5f5" stroke="transparent" points="500.5,-123 500.5,-145 645.5,-145 645.5,-123 500.5,-123"/>
<polygon fill="none" stroke="black" points="500.5,-123 500.5,-145 645.5,-145 645.5,-123 500.5,-123"/>
<text text-anchor="start" x="505.5" y="-132.2" font-family="Helvetica,sans-Serif" font-weight="bold" font-size="11.00">font_file_owner</text>
<text text-anchor="start" x="603.5" y="-131.2" font-family="Helvetica,sans-Serif" font-size="11.00">[table]</text>
<polygon fill="none" stroke="black" points="500.5,-101 500.5,-123 645.5,-123 645.5,-101 500.5,-101"/>
<image xlink:href="../../images/primaryKeys.png" width="11px" height="12px" preserveAspectRatio="xMinYMin meet" x="505.5" y="-118"/>
<text text-anchor="start" x="526.5" y="-109.2" font-family="Helvetica,sans-Serif" font-size="11.00">font_file_id</text>
<polygon fill="#ffffff" stroke="transparent" points="500.5,-79 500.5,-101 645.5,-101 645.5,-79 500.5,-79"/>
<polygon fill="none" stroke="black" points="500.5,-79 500.5,-101 645.5,-101 645.5,-79 500.5,-79"/>
<image xlink:href="../../images/foreignKeys.png" width="11px" height="12px" preserveAspectRatio="xMinYMin meet" x="505.5" y="-96"/>
<text text-anchor="start" x="526.5" y="-87.2" font-family="Helvetica,sans-Serif" font-size="11.00">edition_editor_id</text>
<polygon fill="none" stroke="black" points="500.5,-57 500.5,-79 645.5,-79 645.5,-57 500.5,-57"/>
<image xlink:href="../../images/primaryKeys.png" width="11px" height="12px" preserveAspectRatio="xMinYMin meet" x="505.5" y="-74"/>
<text text-anchor="start" x="526.5" y="-65.2" font-family="Helvetica,sans-Serif" font-size="11.00">edition_id</text>
<polygon fill="#ffffff" stroke="transparent" points="500.5,-39 500.5,-57 557.5,-57 557.5,-39 500.5,-39"/>
<polygon fill="none" stroke="black" points="500.5,-39 500.5,-57 557.5,-57 557.5,-39 500.5,-39"/>
<text text-anchor="start" x="503.5" y="-45.2" font-family="Helvetica,sans-Serif" font-size="11.00">&lt; 3</text>
<polygon fill="#ffffff" stroke="transparent" points="557.5,-39 557.5,-57 615.5,-57 615.5,-39 557.5,-39"/>
<polygon fill="none" stroke="black" points="557.5,-39 557.5,-57 615.5,-57 615.5,-39 557.5,-39"/>
<text text-anchor="start" x="575.5" y="-45.2" font-family="Helvetica,sans-Serif" font-size="11.00">0 rows</text>
<polygon fill="#ffffff" stroke="transparent" points="615.5,-39 615.5,-57 645.5,-57 645.5,-39 615.5,-39"/>
<polygon fill="none" stroke="black" points="615.5,-39 615.5,-57 645.5,-57 645.5,-39 615.5,-39"/>
<text text-anchor="start" x="634.5" y="-45.2" font-family="Helvetica,sans-Serif" font-size="11.00"> &#160;</text>
</a>
</g>
</g>
<!-- font_file_owner&#45;&gt;edition_editor -->
<g id="edge2" class="edge">
<title>font_file_owner:w&#45;&gt;edition_editor:e</title>
<path fill="none" stroke="black" d="M484.97,-90C446.04,-90 431.22,-90 386,-90"/>
<polygon fill="black" stroke="black" points="491.5,-90 499.5,-93.6 495.5,-90 499.5,-90 499.5,-90 499.5,-90 495.5,-90 499.5,-86.4 491.5,-90 491.5,-90"/>
<ellipse fill="none" stroke="black" cx="488.3" cy="-90" rx="3.2" ry="3.2"/>
</g>
<!-- font_file_owner&#45;&gt;edition -->
<g id="edge3" class="edge">
<title>font_file_owner:w&#45;&gt;edition:e</title>
<path fill="none" stroke="black" d="M485.36,-65.02C477.16,-61.12 472.07,-54.49 459,-52 335,-28.39 299.88,-33.67 175,-52 156.64,-54.7 153.56,-64 135,-64"/>
<polygon fill="black" stroke="black" points="491.67,-66.35 498.76,-71.52 495.59,-67.17 499.5,-68 499.5,-68 499.5,-68 495.59,-67.17 500.24,-64.48 491.67,-66.35 491.67,-66.35"/>
<ellipse fill="none" stroke="black" cx="488.54" cy="-65.69" rx="3.2" ry="3.2"/>
</g>
<!-- font_file -->
<g id="node4" class="node">
<title>font_file</title>
<g id="a_node4"><a xlink:href="../../tables/font_file.html" xlink:title="font_file" target="_top">
<polygon fill="#ffffff" stroke="transparent" points="183,-142 183,-296 451,-296 451,-142 183,-142"/>
<polygon fill="#f5f5f5" stroke="transparent" points="185,-272 185,-294 449,-294 449,-272 185,-272"/>
<polygon fill="none" stroke="black" points="185,-272 185,-294 449,-294 449,-272 185,-272"/>
<text text-anchor="start" x="190" y="-281.2" font-family="Helvetica,sans-Serif" font-weight="bold" font-size="11.00">font_file</text>
<text text-anchor="start" x="407" y="-280.2" font-family="Helvetica,sans-Serif" font-size="11.00">[table]</text>
<polygon fill="none" stroke="black" points="185,-250 185,-272 319,-272 319,-250 185,-250"/>
<image xlink:href="../../images/primaryKeys.png" width="11px" height="12px" preserveAspectRatio="xMinYMin meet" x="190" y="-267"/>
<text text-anchor="start" x="205" y="-258.2" font-family="Helvetica,sans-Serif" font-size="11.00">font_file_id</text>
<polygon fill="none" stroke="black" points="319,-250 319,-272 449,-272 449,-250 319,-250"/>
<text text-anchor="start" x="322" y="-258.2" font-family="Helvetica,sans-Serif" font-size="11.00">int unsigned[10]</text>
<polygon fill="#ffffff" stroke="transparent" points="185,-228 185,-250 319,-250 319,-228 185,-228"/>
<polygon fill="none" stroke="black" points="185,-228 185,-250 319,-250 319,-228 185,-228"/>
<text text-anchor="start" x="205" y="-236.2" font-family="Helvetica,sans-Serif" font-size="11.00">font_name</text>
<polygon fill="none" stroke="black" points="319,-228 319,-250 449,-250 449,-228 319,-228"/>
<text text-anchor="start" x="322" y="-236.2" font-family="Helvetica,sans-Serif" font-size="11.00">varchar[255]</text>
<polygon fill="none" stroke="black" points="185,-206 185,-228 319,-228 319,-206 185,-206"/>
<text text-anchor="start" x="205" y="-214.2" font-family="Helvetica,sans-Serif" font-size="11.00">is_public</text>
<polygon fill="none" stroke="black" points="319,-206 319,-228 449,-228 449,-206 319,-206"/>
<text text-anchor="start" x="322" y="-214.2" font-family="Helvetica,sans-Serif" font-size="11.00">bit[3]</text>
<polygon fill="none" stroke="black" points="185,-184 185,-206 319,-206 319,-184 185,-184"/>
<text text-anchor="start" x="205" y="-192.2" font-family="Helvetica,sans-Serif" font-size="11.00">font_binary_data</text>
<polygon fill="none" stroke="black" points="319,-184 319,-206 449,-206 449,-184 319,-184"/>
<text text-anchor="start" x="322" y="-192.2" font-family="Helvetica,sans-Serif" font-size="11.00">longblob[2147483647]</text>
<polygon fill="none" stroke="black" points="185,-162 185,-184 319,-184 319,-162 185,-162"/>
<text text-anchor="start" x="205" y="-170.2" font-family="Helvetica,sans-Serif" font-size="11.00">font_format</text>
<polygon fill="none" stroke="black" points="319,-162 319,-184 449,-184 449,-162 319,-162"/>
<text text-anchor="start" x="322" y="-170.2" font-family="Helvetica,sans-Serif" font-size="11.00">enum[5]</text>
<polygon fill="#ffffff" stroke="transparent" points="185,-144 185,-162 243,-162 243,-144 185,-144"/>
<polygon fill="none" stroke="black" points="185,-144 185,-162 243,-162 243,-144 185,-144"/>
<text text-anchor="start" x="188" y="-150.2" font-family="Helvetica,sans-Serif" font-size="11.00">&lt; 0</text>
<polygon fill="#ffffff" stroke="transparent" points="243,-144 243,-162 319,-162 319,-144 243,-144"/>
<polygon fill="none" stroke="black" points="243,-144 243,-162 319,-162 319,-144 243,-144"/>
<text text-anchor="start" x="279" y="-150.2" font-family="Helvetica,sans-Serif" font-size="11.00">0 rows</text>
<polygon fill="#ffffff" stroke="transparent" points="319,-144 319,-162 449,-162 449,-144 319,-144"/>
<polygon fill="none" stroke="black" points="319,-144 319,-162 449,-162 449,-144 319,-144"/>
<text text-anchor="start" x="426" y="-150.2" font-family="Helvetica,sans-Serif" font-size="11.00">1 &gt;</text>
<polygon fill="none" stroke="black" stroke-width="2" points="184,-143 184,-295 450,-295 450,-143 184,-143"/>
</a>
</g>
</g>
<!-- font_file_owner&#45;&gt;font_file -->
<g id="edge4" class="edge">
<title>font_file_owner:w&#45;&gt;font_file:e</title>
<path fill="none" stroke="black" d="M485.38,-114.84C443.42,-135.44 514.06,-261 450,-261"/>
<polygon fill="black" stroke="black" points="491.66,-113.58 500.21,-115.53 495.58,-112.79 499.5,-112 499.5,-112 499.5,-112 495.58,-112.79 498.79,-108.47 491.66,-113.58 491.66,-113.58"/>
<ellipse fill="none" stroke="black" cx="488.52" cy="-114.21" rx="3.2" ry="3.2"/>
</g>
</g>
</svg>
