<?xml version="1.0" encoding="UTF-8" standalone="no"?>
<!DOCTYPE svg PUBLIC "-//W3C//DTD SVG 1.1//EN"
 "http://www.w3.org/Graphics/SVG/1.1/DTD/svg11.dtd">
<!-- Generated by graphviz version 2.43.0 (0)
 -->
<!-- Title: oneDegreeRelationshipsDiagram Pages: 1 -->
<svg width="627pt" height="354pt"
 viewBox="0.00 0.00 627.00 354.00" xmlns="http://www.w3.org/2000/svg" xmlns:xlink="http://www.w3.org/1999/xlink">
<g id="graph0" class="graph" transform="scale(1 1) rotate(0) translate(4 350)">
<title>oneDegreeRelationshipsDiagram</title>
<polygon fill="#ffffff" stroke="transparent" points="-4,4 -4,-350 623,-350 623,4 -4,4"/>
<text text-anchor="middle" x="79.5" y="-7.2" font-family="Helvetica,sans-Serif" font-size="11.00">Generated by SchemaSpy</text>
<!-- edition_editor -->
<g id="node1" class="node">
<title>edition_editor</title>
<g id="a_node1"><a xlink:href="../../tables/edition_editor.html" xlink:title="edition_editor" target="_top">
<polygon fill="#ffffff" stroke="transparent" points="192,-95 192,-219 328,-219 328,-95 192,-95"/>
<polygon fill="#f5f5f5" stroke="transparent" points="192,-197 192,-219 328,-219 328,-197 192,-197"/>
<polygon fill="none" stroke="black" points="192,-197 192,-219 328,-219 328,-197 192,-197"/>
<text text-anchor="start" x="197" y="-206.2" font-family="Helvetica,sans-Serif" font-weight="bold" font-size="11.00">edition_editor</text>
<text text-anchor="start" x="286" y="-205.2" font-family="Helvetica,sans-Serif" font-size="11.00">[table]</text>
<polygon fill="none" stroke="black" points="192,-175 192,-197 328,-197 328,-175 192,-175"/>
<image xlink:href="../../images/primaryKeys.png" width="11px" height="12px" preserveAspectRatio="xMinYMin meet" x="197" y="-192"/>
<text text-anchor="start" x="214" y="-183.2" font-family="Helvetica,sans-Serif" font-size="11.00">edition_editor_id</text>
<polygon fill="#ffffff" stroke="transparent" points="192,-153 192,-175 328,-175 328,-153 192,-153"/>
<polygon fill="none" stroke="black" points="192,-153 192,-175 328,-175 328,-153 192,-153"/>
<image xlink:href="../../images/foreignKeys.png" width="11px" height="12px" preserveAspectRatio="xMinYMin meet" x="197" y="-170"/>
<text text-anchor="start" x="214" y="-161.2" font-family="Helvetica,sans-Serif" font-size="11.00">user_id</text>
<polygon fill="#ffffff" stroke="transparent" points="192,-131 192,-153 328,-153 328,-131 192,-131"/>
<polygon fill="none" stroke="black" points="192,-131 192,-153 328,-153 328,-131 192,-131"/>
<image xlink:href="../../images/foreignKeys.png" width="11px" height="12px" preserveAspectRatio="xMinYMin meet" x="197" y="-148"/>
<text text-anchor="start" x="214" y="-139.2" font-family="Helvetica,sans-Serif" font-size="11.00">edition_id</text>
<polygon fill="none" stroke="black" points="192,-113 192,-131 328,-131 328,-113 192,-113"/>
<text text-anchor="start" x="195" y="-119.2" font-family="Helvetica,sans-Serif" font-size="11.00">...</text>
<polygon fill="#ffffff" stroke="transparent" points="192,-95 192,-113 223,-113 223,-95 192,-95"/>
<polygon fill="none" stroke="black" points="192,-95 192,-113 223,-113 223,-95 192,-95"/>
<text text-anchor="start" x="195" y="-101.2" font-family="Helvetica,sans-Serif" font-size="11.00">&lt; 2</text>
<polygon fill="#ffffff" stroke="transparent" points="223,-95 223,-113 292,-113 292,-95 223,-95"/>
<polygon fill="none" stroke="black" points="223,-95 223,-113 292,-113 292,-95 223,-95"/>
<text text-anchor="start" x="228" y="-101.2" font-family="Helvetica,sans-Serif" font-size="11.00">1,645 rows</text>
<polygon fill="#ffffff" stroke="transparent" points="292,-95 292,-113 328,-113 328,-95 292,-95"/>
<polygon fill="none" stroke="black" points="292,-95 292,-113 328,-113 328,-95 292,-95"/>
<text text-anchor="start" x="298" y="-101.2" font-family="Helvetica,sans-Serif" font-size="11.00">33 &gt;</text>
</a>
</g>
</g>
<!-- edition -->
<g id="node2" class="node">
<title>edition</title>
<g id="a_node2"><a xlink:href="../../tables/edition.html" xlink:title="edition" target="_top">
<polygon fill="#ffffff" stroke="transparent" points="8,-37 8,-139 143,-139 143,-37 8,-37"/>
<polygon fill="#f5f5f5" stroke="transparent" points="8.5,-117 8.5,-139 143.5,-139 143.5,-117 8.5,-117"/>
<polygon fill="none" stroke="black" points="8.5,-117 8.5,-139 143.5,-139 143.5,-117 8.5,-117"/>
<text text-anchor="start" x="13.5" y="-126.2" font-family="Helvetica,sans-Serif" font-weight="bold" font-size="11.00">edition</text>
<text text-anchor="start" x="101.5" y="-125.2" font-family="Helvetica,sans-Serif" font-size="11.00">[table]</text>
<polygon fill="none" stroke="black" points="8.5,-95 8.5,-117 143.5,-117 143.5,-95 8.5,-95"/>
<image xlink:href="../../images/primaryKeys.png" width="11px" height="12px" preserveAspectRatio="xMinYMin meet" x="13.5" y="-112"/>
<text text-anchor="start" x="28.5" y="-103.2" font-family="Helvetica,sans-Serif" font-size="11.00">edition_id</text>
<polygon fill="#ffffff" stroke="transparent" points="8.5,-73 8.5,-95 143.5,-95 143.5,-73 8.5,-73"/>
<polygon fill="none" stroke="black" points="8.5,-73 8.5,-95 143.5,-95 143.5,-73 8.5,-73"/>
<image xlink:href="../../images/foreignKeys.png" width="11px" height="12px" preserveAspectRatio="xMinYMin meet" x="13.5" y="-90"/>
<text text-anchor="start" x="28.5" y="-81.2" font-family="Helvetica,sans-Serif" font-size="11.00">manuscript_id</text>
<polygon fill="none" stroke="black" points="8.5,-55 8.5,-73 143.5,-73 143.5,-55 8.5,-55"/>
<text text-anchor="start" x="11.5" y="-61.2" font-family="Helvetica,sans-Serif" font-size="11.00">...</text>
<polygon fill="#ffffff" stroke="transparent" points="8.5,-37 8.5,-55 38.5,-55 38.5,-37 8.5,-37"/>
<polygon fill="none" stroke="black" points="8.5,-37 8.5,-55 38.5,-55 38.5,-37 8.5,-37"/>
<text text-anchor="start" x="11.5" y="-43.2" font-family="Helvetica,sans-Serif" font-size="11.00">&lt; 1</text>
<polygon fill="#ffffff" stroke="transparent" points="38.5,-37 38.5,-55 107.5,-55 107.5,-37 38.5,-37"/>
<polygon fill="none" stroke="black" points="38.5,-37 38.5,-55 107.5,-55 107.5,-37 38.5,-37"/>
<text text-anchor="start" x="43.5" y="-43.2" font-family="Helvetica,sans-Serif" font-size="11.00">1,645 rows</text>
<polygon fill="#ffffff" stroke="transparent" points="107.5,-37 107.5,-55 143.5,-55 143.5,-37 107.5,-37"/>
<polygon fill="none" stroke="black" points="107.5,-37 107.5,-55 143.5,-55 143.5,-37 107.5,-37"/>
<text text-anchor="start" x="113.5" y="-43.2" font-family="Helvetica,sans-Serif" font-size="11.00">35 &gt;</text>
</a>
</g>
</g>
<!-- edition_editor&#45;&gt;edition -->
<g id="edge1" class="edge">
<title>edition_editor:w&#45;&gt;edition:e</title>
<path fill="none" stroke="black" d="M177.06,-136.99C165.82,-127.1 164.51,-106 144.5,-106"/>
<polygon fill="black" stroke="black" points="183.47,-139.3 189.78,-145.39 187.24,-140.65 191,-142 191,-142 191,-142 187.24,-140.65 192.22,-138.61 183.47,-139.3 183.47,-139.3"/>
<ellipse fill="none" stroke="black" cx="180.46" cy="-138.21" rx="3.2" ry="3.2"/>
</g>
<!-- font_file_owner -->
<g id="node3" class="node">
<title>font_file_owner</title>
<g id="a_node3"><a xlink:href="../../tables/font_file_owner.html" xlink:title="font_file_owner" target="_top">
<polygon fill="#ffffff" stroke="transparent" points="377,-133 377,-243 611,-243 611,-133 377,-133"/>
<polygon fill="#f5f5f5" stroke="transparent" points="379,-219 379,-241 609,-241 609,-219 379,-219"/>
<polygon fill="none" stroke="black" points="379,-219 379,-241 609,-241 609,-219 379,-219"/>
<text text-anchor="start" x="384" y="-228.2" font-family="Helvetica,sans-Serif" font-weight="bold" font-size="11.00">font_file_owner</text>
<text text-anchor="start" x="567" y="-227.2" font-family="Helvetica,sans-Serif" font-size="11.00">[table]</text>
<polygon fill="none" stroke="black" points="379,-197 379,-219 512,-219 512,-197 379,-197"/>
<image xlink:href="../../images/primaryKeys.png" width="11px" height="12px" preserveAspectRatio="xMinYMin meet" x="384" y="-214"/>
<text text-anchor="start" x="399" y="-205.2" font-family="Helvetica,sans-Serif" font-size="11.00">font_file_id</text>
<polygon fill="none" stroke="black" points="512,-197 512,-219 609,-219 609,-197 512,-197"/>
<text text-anchor="start" x="515" y="-205.2" font-family="Helvetica,sans-Serif" font-size="11.00">int unsigned[10]</text>
<polygon fill="#ffffff" stroke="transparent" points="379,-175 379,-197 512,-197 512,-175 379,-175"/>
<polygon fill="none" stroke="black" points="379,-175 379,-197 512,-197 512,-175 379,-175"/>
<image xlink:href="../../images/foreignKeys.png" width="11px" height="12px" preserveAspectRatio="xMinYMin meet" x="384" y="-192"/>
<text text-anchor="start" x="399" y="-183.2" font-family="Helvetica,sans-Serif" font-size="11.00">edition_editor_id</text>
<polygon fill="none" stroke="black" points="512,-175 512,-197 609,-197 609,-175 512,-175"/>
<text text-anchor="start" x="515" y="-183.2" font-family="Helvetica,sans-Serif" font-size="11.00">int unsigned[10]</text>
<polygon fill="none" stroke="black" points="379,-153 379,-175 512,-175 512,-153 379,-153"/>
<image xlink:href="../../images/primaryKeys.png" width="11px" height="12px" preserveAspectRatio="xMinYMin meet" x="384" y="-170"/>
<text text-anchor="start" x="399" y="-161.2" font-family="Helvetica,sans-Serif" font-size="11.00">edition_id</text>
<polygon fill="none" stroke="black" points="512,-153 512,-175 609,-175 609,-153 512,-153"/>
<text text-anchor="start" x="515" y="-161.2" font-family="Helvetica,sans-Serif" font-size="11.00">int unsigned[10]</text>
<polygon fill="#ffffff" stroke="transparent" points="379,-135 379,-153 437,-153 437,-135 379,-135"/>
<polygon fill="none" stroke="black" points="379,-135 379,-153 437,-153 437,-135 379,-135"/>
<text text-anchor="start" x="382" y="-141.2" font-family="Helvetica,sans-Serif" font-size="11.00">&lt; 3</text>
<polygon fill="#ffffff" stroke="transparent" points="437,-135 437,-153 512,-153 512,-135 437,-135"/>
<polygon fill="none" stroke="black" points="437,-135 437,-153 512,-153 512,-135 437,-135"/>
<text text-anchor="start" x="472" y="-141.2" font-family="Helvetica,sans-Serif" font-size="11.00">0 rows</text>
<polygon fill="#ffffff" stroke="transparent" points="512,-135 512,-153 609,-153 609,-135 512,-135"/>
<polygon fill="none" stroke="black" points="512,-135 512,-153 609,-153 609,-135 512,-135"/>
<text text-anchor="start" x="586" y="-141.2" font-family="Helvetica,sans-Serif" font-size="11.00">0 &gt;</text>
<polygon fill="none" stroke="black" stroke-width="2" points="378,-134 378,-242 610,-242 610,-134 378,-134"/>
</a>
</g>
</g>
<!-- font_file_owner&#45;&gt;edition_editor -->
<g id="edge2" class="edge">
<title>font_file_owner:w&#45;&gt;edition_editor:e</title>
<path fill="none" stroke="black" d="M363.49,-186C352.18,-186 344.99,-186 329,-186"/>
<polygon fill="black" stroke="black" points="370,-186 378,-189.6 374,-186 378,-186 378,-186 378,-186 374,-186 378,-182.4 370,-186 370,-186"/>
<ellipse fill="none" stroke="black" cx="366.8" cy="-186" rx="3.2" ry="3.2"/>
</g>
<!-- font_file_owner&#45;&gt;edition -->
<g id="edge3" class="edge">
<title>font_file_owner:w&#45;&gt;edition:e</title>
<path fill="none" stroke="black" d="M363.97,-160.03C346.37,-146.43 365,-101.53 336,-84 278.19,-49.05 249.39,-67.02 184,-84 164.55,-89.05 164.59,-106 144.5,-106"/>
<polygon fill="black" stroke="black" points="370.3,-161.82 377.02,-167.46 374.15,-162.91 378,-164 378,-164 378,-164 374.15,-162.91 378.98,-160.54 370.3,-161.82 370.3,-161.82"/>
<ellipse fill="none" stroke="black" cx="367.22" cy="-160.95" rx="3.2" ry="3.2"/>
</g>
<!-- font_file -->
<g id="node4" class="node">
<title>font_file</title>
<g id="a_node4"><a xlink:href="../../tables/font_file.html" xlink:title="font_file" target="_top">
<polygon fill="#ffffff" stroke="transparent" points="193,-240 193,-342 327,-342 327,-240 193,-240"/>
<polygon fill="#f5f5f5" stroke="transparent" points="193,-320 193,-342 327,-342 327,-320 193,-320"/>
<polygon fill="none" stroke="black" points="193,-320 193,-342 327,-342 327,-320 193,-320"/>
<text text-anchor="start" x="198" y="-329.2" font-family="Helvetica,sans-Serif" font-weight="bold" font-size="11.00">font_file</text>
<text text-anchor="start" x="285" y="-328.2" font-family="Helvetica,sans-Serif" font-size="11.00">[table]</text>
<polygon fill="none" stroke="black" points="193,-298 193,-320 327,-320 327,-298 193,-298"/>
<image xlink:href="../../images/primaryKeys.png" width="11px" height="12px" preserveAspectRatio="xMinYMin meet" x="198" y="-315"/>
<text text-anchor="start" x="213" y="-306.2" font-family="Helvetica,sans-Serif" font-size="11.00">font_file_id</text>
<polygon fill="#ffffff" stroke="transparent" points="193,-276 193,-298 327,-298 327,-276 193,-276"/>
<polygon fill="none" stroke="black" points="193,-276 193,-298 327,-298 327,-276 193,-276"/>
<text text-anchor="start" x="213" y="-284.2" font-family="Helvetica,sans-Serif" font-size="11.00">font_name</text>
<polygon fill="none" stroke="black" points="193,-258 193,-276 327,-276 327,-258 193,-258"/>
<text text-anchor="start" x="196" y="-264.2" font-family="Helvetica,sans-Serif" font-size="11.00">...</text>
<polygon fill="#ffffff" stroke="transparent" points="193,-240 193,-258 232,-258 232,-240 193,-240"/>
<polygon fill="none" stroke="black" points="193,-240 193,-258 232,-258 232,-240 193,-240"/>
<text text-anchor="start" x="196" y="-246.2" font-family="Helvetica,sans-Serif" font-size="11.00"> &#160;</text>
<polygon fill="#ffffff" stroke="transparent" points="232,-240 232,-258 288,-258 288,-240 232,-240"/>
<polygon fill="none" stroke="black" points="232,-240 232,-258 288,-258 288,-240 232,-240"/>
<text text-anchor="start" x="248" y="-246.2" font-family="Helvetica,sans-Serif" font-size="11.00">0 rows</text>
<polygon fill="#ffffff" stroke="transparent" points="288,-240 288,-258 327,-258 327,-240 288,-240"/>
<polygon fill="none" stroke="black" points="288,-240 288,-258 327,-258 327,-240 288,-240"/>
<text text-anchor="start" x="304" y="-246.2" font-family="Helvetica,sans-Serif" font-size="11.00">1 &gt;</text>
</a>
</g>
</g>
<!-- font_file_owner&#45;&gt;font_file -->
<g id="edge4" class="edge">
<title>font_file_owner:w&#45;&gt;font_file:e</title>
<path fill="none" stroke="black" d="M363.86,-212.08C338.59,-230.98 372.02,-309 328,-309"/>
<polygon fill="black" stroke="black" points="370.31,-210.22 379,-211.46 374.16,-209.11 378,-208 378,-208 378,-208 374.16,-209.11 377,-204.54 370.31,-210.22 370.31,-210.22"/>
<ellipse fill="none" stroke="black" cx="367.24" cy="-211.11" rx="3.2" ry="3.2"/>
</g>
</g>
</svg>
