<?xml version="1.0" encoding="UTF-8" standalone="no"?>
<!DOCTYPE svg PUBLIC "-//W3C//DTD SVG 1.1//EN"
 "http://www.w3.org/Graphics/SVG/1.1/DTD/svg11.dtd">
<!-- Generated by graphviz version 2.43.0 (0)
 -->
<!-- Title: oneDegreeRelationshipsDiagramImplied Pages: 1 -->
<svg width="532pt" height="278pt"
 viewBox="0.00 0.00 532.00 278.00" xmlns="http://www.w3.org/2000/svg" xmlns:xlink="http://www.w3.org/1999/xlink">
<g id="graph0" class="graph" transform="scale(1 1) rotate(0) translate(4 274)">
<title>oneDegreeRelationshipsDiagramImplied</title>
<polygon fill="#ffffff" stroke="transparent" points="-4,4 -4,-274 528,-274 528,4 -4,4"/>
<text text-anchor="middle" x="79.5" y="-7.2" font-family="Helvetica,sans-Serif" font-size="11.00">Generated by SchemaSpy</text>
<!-- font_file_owner -->
<g id="node1" class="node">
<title>font_file_owner</title>
<g id="a_node1"><a xlink:href="../../tables/font_file_owner.html" xlink:title="font_file_owner" target="_top">
<polygon fill="#ffffff" stroke="transparent" points="348,-160 348,-266 493,-266 493,-160 348,-160"/>
<polygon fill="#f5f5f5" stroke="transparent" points="348.5,-244 348.5,-266 493.5,-266 493.5,-244 348.5,-244"/>
<polygon fill="none" stroke="black" points="348.5,-244 348.5,-266 493.5,-266 493.5,-244 348.5,-244"/>
<text text-anchor="start" x="353.5" y="-253.2" font-family="Helvetica,sans-Serif" font-weight="bold" font-size="11.00">font_file_owner</text>
<text text-anchor="start" x="451.5" y="-252.2" font-family="Helvetica,sans-Serif" font-size="11.00">[table]</text>
<polygon fill="none" stroke="black" points="348.5,-222 348.5,-244 493.5,-244 493.5,-222 348.5,-222"/>
<image xlink:href="../../images/primaryKeys.png" width="11px" height="12px" preserveAspectRatio="xMinYMin meet" x="353.5" y="-239"/>
<text text-anchor="start" x="374.5" y="-230.2" font-family="Helvetica,sans-Serif" font-size="11.00">font_file_id</text>
<polygon fill="#ffffff" stroke="transparent" points="348.5,-200 348.5,-222 493.5,-222 493.5,-200 348.5,-200"/>
<polygon fill="none" stroke="black" points="348.5,-200 348.5,-222 493.5,-222 493.5,-200 348.5,-200"/>
<image xlink:href="../../images/foreignKeys.png" width="11px" height="12px" preserveAspectRatio="xMinYMin meet" x="353.5" y="-217"/>
<text text-anchor="start" x="374.5" y="-208.2" font-family="Helvetica,sans-Serif" font-size="11.00">edition_editor_id</text>
<polygon fill="none" stroke="black" points="348.5,-178 348.5,-200 493.5,-200 493.5,-178 348.5,-178"/>
<image xlink:href="../../images/primaryKeys.png" width="11px" height="12px" preserveAspectRatio="xMinYMin meet" x="353.5" y="-195"/>
<text text-anchor="start" x="374.5" y="-186.2" font-family="Helvetica,sans-Serif" font-size="11.00">edition_id</text>
<polygon fill="#ffffff" stroke="transparent" points="348.5,-160 348.5,-178 405.5,-178 405.5,-160 348.5,-160"/>
<polygon fill="none" stroke="black" points="348.5,-160 348.5,-178 405.5,-178 405.5,-160 348.5,-160"/>
<text text-anchor="start" x="351.5" y="-166.2" font-family="Helvetica,sans-Serif" font-size="11.00">&lt; 3</text>
<polygon fill="#ffffff" stroke="transparent" points="405.5,-160 405.5,-178 463.5,-178 463.5,-160 405.5,-160"/>
<polygon fill="none" stroke="black" points="405.5,-160 405.5,-178 463.5,-178 463.5,-160 405.5,-160"/>
<text text-anchor="start" x="423.5" y="-166.2" font-family="Helvetica,sans-Serif" font-size="11.00">0 rows</text>
<polygon fill="#ffffff" stroke="transparent" points="463.5,-160 463.5,-178 493.5,-178 493.5,-160 463.5,-160"/>
<polygon fill="none" stroke="black" points="463.5,-160 463.5,-178 493.5,-178 493.5,-160 463.5,-160"/>
<text text-anchor="start" x="482.5" y="-166.2" font-family="Helvetica,sans-Serif" font-size="11.00"> &#160;</text>
</a>
</g>
</g>
<!-- font_file -->
<g id="node2" class="node">
<title>font_file</title>
<g id="a_node2"><a xlink:href="../../tables/font_file.html" xlink:title="font_file" target="_top">
<polygon fill="#ffffff" stroke="transparent" points="8,-39 8,-193 276,-193 276,-39 8,-39"/>
<polygon fill="#f5f5f5" stroke="transparent" points="10,-169 10,-191 274,-191 274,-169 10,-169"/>
<polygon fill="none" stroke="black" points="10,-169 10,-191 274,-191 274,-169 10,-169"/>
<text text-anchor="start" x="15" y="-178.2" font-family="Helvetica,sans-Serif" font-weight="bold" font-size="11.00">font_file</text>
<text text-anchor="start" x="232" y="-177.2" font-family="Helvetica,sans-Serif" font-size="11.00">[table]</text>
<polygon fill="none" stroke="black" points="10,-147 10,-169 144,-169 144,-147 10,-147"/>
<image xlink:href="../../images/primaryKeys.png" width="11px" height="12px" preserveAspectRatio="xMinYMin meet" x="15" y="-164"/>
<text text-anchor="start" x="30" y="-155.2" font-family="Helvetica,sans-Serif" font-size="11.00">font_file_id</text>
<polygon fill="none" stroke="black" points="144,-147 144,-169 274,-169 274,-147 144,-147"/>
<text text-anchor="start" x="147" y="-155.2" font-family="Helvetica,sans-Serif" font-size="11.00">int unsigned[10]</text>
<polygon fill="#ffffff" stroke="transparent" points="10,-125 10,-147 144,-147 144,-125 10,-125"/>
<polygon fill="none" stroke="black" points="10,-125 10,-147 144,-147 144,-125 10,-125"/>
<text text-anchor="start" x="30" y="-133.2" font-family="Helvetica,sans-Serif" font-size="11.00">font_name</text>
<polygon fill="none" stroke="black" points="144,-125 144,-147 274,-147 274,-125 144,-125"/>
<text text-anchor="start" x="147" y="-133.2" font-family="Helvetica,sans-Serif" font-size="11.00">varchar[255]</text>
<polygon fill="none" stroke="black" points="10,-103 10,-125 144,-125 144,-103 10,-103"/>
<text text-anchor="start" x="30" y="-111.2" font-family="Helvetica,sans-Serif" font-size="11.00">is_public</text>
<polygon fill="none" stroke="black" points="144,-103 144,-125 274,-125 274,-103 144,-103"/>
<text text-anchor="start" x="147" y="-111.2" font-family="Helvetica,sans-Serif" font-size="11.00">bit[3]</text>
<polygon fill="none" stroke="black" points="10,-81 10,-103 144,-103 144,-81 10,-81"/>
<text text-anchor="start" x="30" y="-89.2" font-family="Helvetica,sans-Serif" font-size="11.00">font_binary_data</text>
<polygon fill="none" stroke="black" points="144,-81 144,-103 274,-103 274,-81 144,-81"/>
<text text-anchor="start" x="147" y="-89.2" font-family="Helvetica,sans-Serif" font-size="11.00">longblob[2147483647]</text>
<polygon fill="none" stroke="black" points="10,-59 10,-81 144,-81 144,-59 10,-59"/>
<text text-anchor="start" x="30" y="-67.2" font-family="Helvetica,sans-Serif" font-size="11.00">font_format</text>
<polygon fill="none" stroke="black" points="144,-59 144,-81 274,-81 274,-59 144,-59"/>
<text text-anchor="start" x="147" y="-67.2" font-family="Helvetica,sans-Serif" font-size="11.00">enum[5]</text>
<polygon fill="#ffffff" stroke="transparent" points="10,-41 10,-59 68,-59 68,-41 10,-41"/>
<polygon fill="none" stroke="black" points="10,-41 10,-59 68,-59 68,-41 10,-41"/>
<text text-anchor="start" x="13" y="-47.2" font-family="Helvetica,sans-Serif" font-size="11.00">&lt; 0</text>
<polygon fill="#ffffff" stroke="transparent" points="68,-41 68,-59 144,-59 144,-41 68,-41"/>
<polygon fill="none" stroke="black" points="68,-41 68,-59 144,-59 144,-41 68,-41"/>
<text text-anchor="start" x="104" y="-47.2" font-family="Helvetica,sans-Serif" font-size="11.00">0 rows</text>
<polygon fill="#ffffff" stroke="transparent" points="144,-41 144,-59 274,-59 274,-41 144,-41"/>
<polygon fill="none" stroke="black" points="144,-41 144,-59 274,-59 274,-41 144,-41"/>
<text text-anchor="start" x="251" y="-47.2" font-family="Helvetica,sans-Serif" font-size="11.00">2 &gt;</text>
<polygon fill="none" stroke="black" stroke-width="2" points="9,-40 9,-192 275,-192 275,-40 9,-40"/>
</a>
</g>
</g>
<!-- font_file_owner&#45;&gt;font_file -->
<g id="edge1" class="edge">
<title>font_file_owner:w&#45;&gt;font_file:e</title>
<path fill="none" stroke="black" d="M333.35,-229.97C305.06,-215.94 315.75,-158 275,-158"/>
<polygon fill="black" stroke="black" points="339.68,-231.32 346.75,-236.52 343.59,-232.16 347.5,-233 347.5,-233 347.5,-233 343.59,-232.16 348.25,-229.48 339.68,-231.32 339.68,-231.32"/>
<ellipse fill="none" stroke="black" cx="336.55" cy="-230.65" rx="3.2" ry="3.2"/>
</g>
<!-- scribal_font -->
<g id="node3" class="node">
<title>scribal_font</title>
<g id="a_node3"><a xlink:href="../../tables/scribal_font.html" xlink:title="scribal_font" target="_top">
<polygon fill="#ffffff" stroke="transparent" points="325,-37 325,-139 516,-139 516,-37 325,-37"/>
<polygon fill="#f5f5f5" stroke="transparent" points="325.5,-117 325.5,-139 516.5,-139 516.5,-117 325.5,-117"/>
<polygon fill="none" stroke="black" points="325.5,-117 325.5,-139 516.5,-139 516.5,-117 325.5,-117"/>
<text text-anchor="start" x="330.5" y="-126.2" font-family="Helvetica,sans-Serif" font-weight="bold" font-size="11.00">scribal_font</text>
<text text-anchor="start" x="474.5" y="-125.2" font-family="Helvetica,sans-Serif" font-size="11.00">[table]</text>
<polygon fill="none" stroke="black" points="325.5,-95 325.5,-117 516.5,-117 516.5,-95 325.5,-95"/>
<image xlink:href="../../images/primaryKeys.png" width="11px" height="12px" preserveAspectRatio="xMinYMin meet" x="330.5" y="-112"/>
<text text-anchor="start" x="345.5" y="-103.2" font-family="Helvetica,sans-Serif" font-size="11.00">scribal_font_id</text>
<polygon fill="none" stroke="black" points="325.5,-73 325.5,-95 516.5,-95 516.5,-73 325.5,-73"/>
<image xlink:href="../../images/foreignKeys.png" width="11px" height="12px" preserveAspectRatio="xMinYMin meet" x="330.5" y="-90"/>
<text text-anchor="start" x="345.5" y="-81.2" font-family="Helvetica,sans-Serif" font-size="11.00">font_file_id</text>
<polygon fill="none" stroke="black" points="325.5,-55 325.5,-73 516.5,-73 516.5,-55 325.5,-55"/>
<text text-anchor="start" x="328.5" y="-61.2" font-family="Helvetica,sans-Serif" font-size="11.00">...</text>
<polygon fill="#ffffff" stroke="transparent" points="325.5,-37 325.5,-55 399.5,-55 399.5,-37 325.5,-37"/>
<polygon fill="none" stroke="black" points="325.5,-37 325.5,-55 399.5,-55 399.5,-37 325.5,-37"/>
<text text-anchor="start" x="328.5" y="-43.2" font-family="Helvetica,sans-Serif" font-size="11.00">&lt; 1</text>
<polygon fill="#ffffff" stroke="transparent" points="399.5,-37 399.5,-55 466.5,-55 466.5,-37 399.5,-37"/>
<polygon fill="none" stroke="black" points="399.5,-37 399.5,-55 466.5,-55 466.5,-37 399.5,-37"/>
<text text-anchor="start" x="426.5" y="-43.2" font-family="Helvetica,sans-Serif" font-size="11.00">0 rows</text>
<polygon fill="#ffffff" stroke="transparent" points="466.5,-37 466.5,-55 516.5,-55 516.5,-37 466.5,-37"/>
<polygon fill="none" stroke="black" points="466.5,-37 466.5,-55 516.5,-55 516.5,-37 466.5,-37"/>
<text text-anchor="start" x="493.5" y="-43.2" font-family="Helvetica,sans-Serif" font-size="11.00">4 &gt;</text>
</a>
</g>
</g>
<!-- scribal_font&#45;&gt;font_file -->
<g id="edge2" class="edge">
<title>scribal_font:w&#45;&gt;font_file:e</title>
<path fill="none" stroke="black" stroke-dasharray="5,2" d="M310.75,-88.63C292.36,-104.83 308.54,-158 275,-158"/>
<polygon fill="black" stroke="black" points="316.92,-86.55 325.65,-87.41 320.71,-85.28 324.5,-84 324.5,-84 324.5,-84 320.71,-85.28 323.35,-80.59 316.92,-86.55 316.92,-86.55"/>
<ellipse fill="none" stroke="black" cx="313.88" cy="-87.57" rx="3.2" ry="3.2"/>
</g>
</g>
</svg>
