<?xml version="1.0" encoding="UTF-8" standalone="no"?>
<!DOCTYPE svg PUBLIC "-//W3C//DTD SVG 1.1//EN"
 "http://www.w3.org/Graphics/SVG/1.1/DTD/svg11.dtd">
<!-- Generated by graphviz version 2.43.0 (0)
 -->
<!-- Title: oneDegreeRelationshipsDiagram Pages: 1 -->
<svg width="486pt" height="203pt"
 viewBox="0.00 0.00 486.00 203.00" xmlns="http://www.w3.org/2000/svg" xmlns:xlink="http://www.w3.org/1999/xlink">
<g id="graph0" class="graph" transform="scale(1 1) rotate(0) translate(4 199)">
<title>oneDegreeRelationshipsDiagram</title>
<polygon fill="#ffffff" stroke="transparent" points="-4,4 -4,-199 482,-199 482,4 -4,4"/>
<text text-anchor="middle" x="79.5" y="-7.2" font-family="Helvetica,sans-Serif" font-size="11.00">Generated by SchemaSpy</text>
<!-- font_file_owner -->
<g id="node1" class="node">
<title>font_file_owner</title>
<g id="a_node1"><a xlink:href="../../tables/font_file_owner.html" xlink:title="font_file_owner" target="_top">
<polygon fill="#ffffff" stroke="transparent" points="325,-83 325,-189 470,-189 470,-83 325,-83"/>
<polygon fill="#f5f5f5" stroke="transparent" points="325.5,-167 325.5,-189 470.5,-189 470.5,-167 325.5,-167"/>
<polygon fill="none" stroke="black" points="325.5,-167 325.5,-189 470.5,-189 470.5,-167 325.5,-167"/>
<text text-anchor="start" x="330.5" y="-176.2" font-family="Helvetica,sans-Serif" font-weight="bold" font-size="11.00">font_file_owner</text>
<text text-anchor="start" x="428.5" y="-175.2" font-family="Helvetica,sans-Serif" font-size="11.00">[table]</text>
<polygon fill="none" stroke="black" points="325.5,-145 325.5,-167 470.5,-167 470.5,-145 325.5,-145"/>
<image xlink:href="../../images/primaryKeys.png" width="11px" height="12px" preserveAspectRatio="xMinYMin meet" x="330.5" y="-162"/>
<text text-anchor="start" x="351.5" y="-153.2" font-family="Helvetica,sans-Serif" font-size="11.00">font_file_id</text>
<polygon fill="#ffffff" stroke="transparent" points="325.5,-123 325.5,-145 470.5,-145 470.5,-123 325.5,-123"/>
<polygon fill="none" stroke="black" points="325.5,-123 325.5,-145 470.5,-145 470.5,-123 325.5,-123"/>
<image xlink:href="../../images/foreignKeys.png" width="11px" height="12px" preserveAspectRatio="xMinYMin meet" x="330.5" y="-140"/>
<text text-anchor="start" x="351.5" y="-131.2" font-family="Helvetica,sans-Serif" font-size="11.00">edition_editor_id</text>
<polygon fill="none" stroke="black" points="325.5,-101 325.5,-123 470.5,-123 470.5,-101 325.5,-101"/>
<image xlink:href="../../images/primaryKeys.png" width="11px" height="12px" preserveAspectRatio="xMinYMin meet" x="330.5" y="-118"/>
<text text-anchor="start" x="351.5" y="-109.2" font-family="Helvetica,sans-Serif" font-size="11.00">edition_id</text>
<polygon fill="#ffffff" stroke="transparent" points="325.5,-83 325.5,-101 382.5,-101 382.5,-83 325.5,-83"/>
<polygon fill="none" stroke="black" points="325.5,-83 325.5,-101 382.5,-101 382.5,-83 325.5,-83"/>
<text text-anchor="start" x="328.5" y="-89.2" font-family="Helvetica,sans-Serif" font-size="11.00">&lt; 3</text>
<polygon fill="#ffffff" stroke="transparent" points="382.5,-83 382.5,-101 440.5,-101 440.5,-83 382.5,-83"/>
<polygon fill="none" stroke="black" points="382.5,-83 382.5,-101 440.5,-101 440.5,-83 382.5,-83"/>
<text text-anchor="start" x="400.5" y="-89.2" font-family="Helvetica,sans-Serif" font-size="11.00">0 rows</text>
<polygon fill="#ffffff" stroke="transparent" points="440.5,-83 440.5,-101 470.5,-101 470.5,-83 440.5,-83"/>
<polygon fill="none" stroke="black" points="440.5,-83 440.5,-101 470.5,-101 470.5,-83 440.5,-83"/>
<text text-anchor="start" x="459.5" y="-89.2" font-family="Helvetica,sans-Serif" font-size="11.00"> &#160;</text>
</a>
</g>
</g>
<!-- font_file -->
<g id="node2" class="node">
<title>font_file</title>
<g id="a_node2"><a xlink:href="../../tables/font_file.html" xlink:title="font_file" target="_top">
<polygon fill="#ffffff" stroke="transparent" points="8,-37 8,-191 276,-191 276,-37 8,-37"/>
<polygon fill="#f5f5f5" stroke="transparent" points="10,-167 10,-189 274,-189 274,-167 10,-167"/>
<polygon fill="none" stroke="black" points="10,-167 10,-189 274,-189 274,-167 10,-167"/>
<text text-anchor="start" x="15" y="-176.2" font-family="Helvetica,sans-Serif" font-weight="bold" font-size="11.00">font_file</text>
<text text-anchor="start" x="232" y="-175.2" font-family="Helvetica,sans-Serif" font-size="11.00">[table]</text>
<polygon fill="none" stroke="black" points="10,-145 10,-167 144,-167 144,-145 10,-145"/>
<image xlink:href="../../images/primaryKeys.png" width="11px" height="12px" preserveAspectRatio="xMinYMin meet" x="15" y="-162"/>
<text text-anchor="start" x="30" y="-153.2" font-family="Helvetica,sans-Serif" font-size="11.00">font_file_id</text>
<polygon fill="none" stroke="black" points="144,-145 144,-167 274,-167 274,-145 144,-145"/>
<text text-anchor="start" x="147" y="-153.2" font-family="Helvetica,sans-Serif" font-size="11.00">int unsigned[10]</text>
<polygon fill="#ffffff" stroke="transparent" points="10,-123 10,-145 144,-145 144,-123 10,-123"/>
<polygon fill="none" stroke="black" points="10,-123 10,-145 144,-145 144,-123 10,-123"/>
<text text-anchor="start" x="30" y="-131.2" font-family="Helvetica,sans-Serif" font-size="11.00">font_name</text>
<polygon fill="none" stroke="black" points="144,-123 144,-145 274,-145 274,-123 144,-123"/>
<text text-anchor="start" x="147" y="-131.2" font-family="Helvetica,sans-Serif" font-size="11.00">varchar[255]</text>
<polygon fill="none" stroke="black" points="10,-101 10,-123 144,-123 144,-101 10,-101"/>
<text text-anchor="start" x="30" y="-109.2" font-family="Helvetica,sans-Serif" font-size="11.00">is_public</text>
<polygon fill="none" stroke="black" points="144,-101 144,-123 274,-123 274,-101 144,-101"/>
<text text-anchor="start" x="147" y="-109.2" font-family="Helvetica,sans-Serif" font-size="11.00">bit[3]</text>
<polygon fill="none" stroke="black" points="10,-79 10,-101 144,-101 144,-79 10,-79"/>
<text text-anchor="start" x="30" y="-87.2" font-family="Helvetica,sans-Serif" font-size="11.00">font_binary_data</text>
<polygon fill="none" stroke="black" points="144,-79 144,-101 274,-101 274,-79 144,-79"/>
<text text-anchor="start" x="147" y="-87.2" font-family="Helvetica,sans-Serif" font-size="11.00">longblob[2147483647]</text>
<polygon fill="none" stroke="black" points="10,-57 10,-79 144,-79 144,-57 10,-57"/>
<text text-anchor="start" x="30" y="-65.2" font-family="Helvetica,sans-Serif" font-size="11.00">font_format</text>
<polygon fill="none" stroke="black" points="144,-57 144,-79 274,-79 274,-57 144,-57"/>
<text text-anchor="start" x="147" y="-65.2" font-family="Helvetica,sans-Serif" font-size="11.00">enum[5]</text>
<polygon fill="#ffffff" stroke="transparent" points="10,-39 10,-57 68,-57 68,-39 10,-39"/>
<polygon fill="none" stroke="black" points="10,-39 10,-57 68,-57 68,-39 10,-39"/>
<text text-anchor="start" x="13" y="-45.2" font-family="Helvetica,sans-Serif" font-size="11.00">&lt; 0</text>
<polygon fill="#ffffff" stroke="transparent" points="68,-39 68,-57 144,-57 144,-39 68,-39"/>
<polygon fill="none" stroke="black" points="68,-39 68,-57 144,-57 144,-39 68,-39"/>
<text text-anchor="start" x="104" y="-45.2" font-family="Helvetica,sans-Serif" font-size="11.00">0 rows</text>
<polygon fill="#ffffff" stroke="transparent" points="144,-39 144,-57 274,-57 274,-39 144,-39"/>
<polygon fill="none" stroke="black" points="144,-39 144,-57 274,-57 274,-39 144,-39"/>
<text text-anchor="start" x="251" y="-45.2" font-family="Helvetica,sans-Serif" font-size="11.00">1 &gt;</text>
<polygon fill="none" stroke="black" stroke-width="2" points="9,-38 9,-190 275,-190 275,-38 9,-38"/>
</a>
</g>
</g>
<!-- font_file_owner&#45;&gt;font_file -->
<g id="edge1" class="edge">
<title>font_file_owner:w&#45;&gt;font_file:e</title>
<path fill="none" stroke="black" d="M309.84,-156C298.41,-156 291.16,-156 275,-156"/>
<polygon fill="black" stroke="black" points="316.5,-156 324.5,-159.6 320.5,-156 324.5,-156 324.5,-156 324.5,-156 320.5,-156 324.5,-152.4 316.5,-156 316.5,-156"/>
<ellipse fill="none" stroke="black" cx="313.3" cy="-156" rx="3.2" ry="3.2"/>
</g>
</g>
</svg>
