<?xml version="1.0" encoding="UTF-8" standalone="no"?>
<!DOCTYPE svg PUBLIC "-//W3C//DTD SVG 1.1//EN"
 "http://www.w3.org/Graphics/SVG/1.1/DTD/svg11.dtd">
<!-- Generated by graphviz version 2.40.1 (20161225.0304)
 -->
<!-- Title: oneDegreeRelationshipsDiagram Pages: 1 -->
<svg width="669pt" height="263pt"
 viewBox="0.00 0.00 669.00 263.00" xmlns="http://www.w3.org/2000/svg" xmlns:xlink="http://www.w3.org/1999/xlink">
<g id="graph0" class="graph" transform="scale(1 1) rotate(0) translate(4 259)">
<title>oneDegreeRelationshipsDiagram</title>
<polygon fill="#ffffff" stroke="transparent" points="-4,4 -4,-259 665,-259 665,4 -4,4"/>
<text text-anchor="middle" x="71.5" y="-7.2" font-family="Helvetica,sans-Serif" font-size="11.00" fill="#000000">Generated by SchemaSpy</text>
<!-- font_file -->
<g id="node1" class="node">
<title>font_file</title>
<g id="a_node1"><a xlink:href="../../tables/font_file.html" xlink:title="font_file" target="_top">
<polygon fill="#ffffff" stroke="transparent" points="220,-75 220,-251 471,-251 471,-75 220,-75"/>
<polygon fill="#f5f5f5" stroke="transparent" points="222.5,-227 222.5,-249 469.5,-249 469.5,-227 222.5,-227"/>
<polygon fill="none" stroke="#000000" points="222.5,-227 222.5,-249 469.5,-249 469.5,-227 222.5,-227"/>
<text text-anchor="start" x="227.5" y="-236.2" font-family="Helvetica,sans-Serif" font-weight="bold" font-size="11.00" fill="#000000">font_file</text>
<text text-anchor="start" x="434.5" y="-235.2" font-family="Helvetica,sans-Serif" font-size="11.00" fill="#000000">[table]</text>
<polygon fill="none" stroke="#000000" points="222.5,-205 222.5,-227 356.5,-227 356.5,-205 222.5,-205"/>
<image xlink:href="../../images/primaryKeys.png" width="11px" height="12px" preserveAspectRatio="xMinYMin meet" x="227.5" y="-222"/>
<text text-anchor="start" x="242.5" y="-213.2" font-family="Helvetica,sans-Serif" font-size="11.00" fill="#000000">font_file_id</text>
<polygon fill="none" stroke="#000000" points="356.5,-205 356.5,-227 469.5,-227 469.5,-205 356.5,-205"/>
<text text-anchor="start" x="359.5" y="-213.2" font-family="Helvetica,sans-Serif" font-size="11.00" fill="#000000">int unsigned[10]</text>
<polygon fill="#ffffff" stroke="transparent" points="222.5,-183 222.5,-205 356.5,-205 356.5,-183 222.5,-183"/>
<polygon fill="none" stroke="#000000" points="222.5,-183 222.5,-205 356.5,-205 356.5,-183 222.5,-183"/>
<text text-anchor="start" x="242.5" y="-191.2" font-family="Helvetica,sans-Serif" font-size="11.00" fill="#000000">font_name</text>
<polygon fill="none" stroke="#000000" points="356.5,-183 356.5,-205 469.5,-205 469.5,-183 356.5,-183"/>
<text text-anchor="start" x="359.5" y="-191.2" font-family="Helvetica,sans-Serif" font-size="11.00" fill="#000000">varchar[255]</text>
<polygon fill="none" stroke="#000000" points="222.5,-161 222.5,-183 356.5,-183 356.5,-161 222.5,-161"/>
<text text-anchor="start" x="242.5" y="-169.2" font-family="Helvetica,sans-Serif" font-size="11.00" fill="#000000">is_public</text>
<polygon fill="none" stroke="#000000" points="356.5,-161 356.5,-183 469.5,-183 469.5,-161 356.5,-161"/>
<text text-anchor="start" x="359.5" y="-169.2" font-family="Helvetica,sans-Serif" font-size="11.00" fill="#000000">bit[3]</text>
<polygon fill="none" stroke="#000000" points="222.5,-139 222.5,-161 356.5,-161 356.5,-139 222.5,-139"/>
<text text-anchor="start" x="242.5" y="-147.2" font-family="Helvetica,sans-Serif" font-size="11.00" fill="#000000">font_binary_data</text>
<polygon fill="none" stroke="#000000" points="356.5,-139 356.5,-161 469.5,-161 469.5,-139 356.5,-139"/>
<text text-anchor="start" x="359.5" y="-147.2" font-family="Helvetica,sans-Serif" font-size="11.00" fill="#000000">longblob[2147483647]</text>
<polygon fill="none" stroke="#000000" points="222.5,-117 222.5,-139 356.5,-139 356.5,-117 222.5,-117"/>
<text text-anchor="start" x="242.5" y="-125.2" font-family="Helvetica,sans-Serif" font-size="11.00" fill="#000000">font_format</text>
<polygon fill="none" stroke="#000000" points="356.5,-117 356.5,-139 469.5,-139 469.5,-117 356.5,-117"/>
<text text-anchor="start" x="359.5" y="-125.2" font-family="Helvetica,sans-Serif" font-size="11.00" fill="#000000">enum[5]</text>
<polygon fill="#ffffff" stroke="transparent" points="222.5,-95 222.5,-117 356.5,-117 356.5,-95 222.5,-95"/>
<polygon fill="none" stroke="#000000" points="222.5,-95 222.5,-117 356.5,-117 356.5,-95 222.5,-95"/>
<image xlink:href="../../images/foreignKeys.png" width="11px" height="12px" preserveAspectRatio="xMinYMin meet" x="227.5" y="-112"/>
<text text-anchor="start" x="242.5" y="-103.2" font-family="Helvetica,sans-Serif" font-size="11.00" fill="#000000">creator_id</text>
<polygon fill="none" stroke="#000000" points="356.5,-95 356.5,-117 469.5,-117 469.5,-95 356.5,-95"/>
<text text-anchor="start" x="359.5" y="-103.2" font-family="Helvetica,sans-Serif" font-size="11.00" fill="#000000">int unsigned[10]</text>
<polygon fill="#ffffff" stroke="transparent" points="222.5,-77 222.5,-95 280.5,-95 280.5,-77 222.5,-77"/>
<polygon fill="none" stroke="#000000" points="222.5,-77 222.5,-95 280.5,-95 280.5,-77 222.5,-77"/>
<text text-anchor="start" x="225.5" y="-83.2" font-family="Helvetica,sans-Serif" font-size="11.00" fill="#000000">&lt; 1</text>
<polygon fill="#ffffff" stroke="transparent" points="280.5,-77 280.5,-95 356.5,-95 356.5,-77 280.5,-77"/>
<polygon fill="none" stroke="#000000" points="280.5,-77 280.5,-95 356.5,-95 356.5,-77 280.5,-77"/>
<text text-anchor="start" x="320.5" y="-83.2" font-family="Helvetica,sans-Serif" font-size="11.00" fill="#000000">0 rows</text>
<polygon fill="#ffffff" stroke="transparent" points="356.5,-77 356.5,-95 469.5,-95 469.5,-77 356.5,-77"/>
<polygon fill="none" stroke="#000000" points="356.5,-77 356.5,-95 469.5,-95 469.5,-77 356.5,-77"/>
<text text-anchor="start" x="450.5" y="-83.2" font-family="Helvetica,sans-Serif" font-size="11.00" fill="#000000">1 &gt;</text>
<polygon fill="none" stroke="#000000" stroke-width="2" points="221,-76 221,-250 470,-250 470,-76 221,-76"/>
</a>
</g>
</g>
<!-- user -->
<g id="node2" class="node">
<title>user</title>
<g id="a_node2"><a xlink:href="../../tables/user.html" xlink:title="user" target="_top">
<polygon fill="#ffffff" stroke="transparent" points="8,-37 8,-139 171,-139 171,-37 8,-37"/>
<polygon fill="#f5f5f5" stroke="transparent" points="8.5,-117 8.5,-139 171.5,-139 171.5,-117 8.5,-117"/>
<polygon fill="none" stroke="#000000" points="8.5,-117 8.5,-139 171.5,-139 171.5,-117 8.5,-117"/>
<text text-anchor="start" x="13.5" y="-126.2" font-family="Helvetica,sans-Serif" font-weight="bold" font-size="11.00" fill="#000000">user</text>
<text text-anchor="start" x="136.5" y="-125.2" font-family="Helvetica,sans-Serif" font-size="11.00" fill="#000000">[table]</text>
<polygon fill="none" stroke="#000000" points="8.5,-95 8.5,-117 171.5,-117 171.5,-95 8.5,-95"/>
<image xlink:href="../../images/primaryKeys.png" width="11px" height="12px" preserveAspectRatio="xMinYMin meet" x="13.5" y="-112"/>
<text text-anchor="start" x="28.5" y="-103.2" font-family="Helvetica,sans-Serif" font-size="11.00" fill="#000000">user_id</text>
<polygon fill="#ffffff" stroke="transparent" points="8.5,-73 8.5,-95 171.5,-95 171.5,-73 8.5,-73"/>
<polygon fill="none" stroke="#000000" points="8.5,-73 8.5,-95 171.5,-95 171.5,-73 8.5,-73"/>
<text text-anchor="start" x="28.5" y="-81.2" font-family="Helvetica,sans-Serif" font-size="11.00" fill="#000000">email</text>
<polygon fill="none" stroke="#000000" points="8.5,-55 8.5,-73 171.5,-73 171.5,-55 8.5,-55"/>
<text text-anchor="start" x="11.5" y="-61.2" font-family="Helvetica,sans-Serif" font-size="11.00" fill="#000000">...</text>
<polygon fill="#ffffff" stroke="transparent" points="8.5,-37 8.5,-55 62.5,-55 62.5,-37 8.5,-37"/>
<polygon fill="none" stroke="#000000" points="8.5,-37 8.5,-55 62.5,-55 62.5,-37 8.5,-37"/>
<text text-anchor="start" x="11.5" y="-43.2" font-family="Helvetica,sans-Serif" font-size="11.00" fill="#000000"> &#160;</text>
<polygon fill="#ffffff" stroke="transparent" points="62.5,-37 62.5,-55 122.5,-55 122.5,-37 62.5,-37"/>
<polygon fill="none" stroke="#000000" points="62.5,-37 62.5,-55 122.5,-55 122.5,-37 62.5,-37"/>
<text text-anchor="start" x="86.5" y="-43.2" font-family="Helvetica,sans-Serif" font-size="11.00" fill="#000000">3 rows</text>
<polygon fill="#ffffff" stroke="transparent" points="122.5,-37 122.5,-55 171.5,-55 171.5,-37 122.5,-37"/>
<polygon fill="none" stroke="#000000" points="122.5,-37 122.5,-55 171.5,-55 171.5,-37 122.5,-37"/>
<text text-anchor="start" x="146.5" y="-43.2" font-family="Helvetica,sans-Serif" font-size="11.00" fill="#000000">40 &gt;</text>
</a>
</g>
</g>
<!-- font_file&#45;&gt;user -->
<g id="edge1" class="edge">
<title>font_file:w&#45;&gt;user:e</title>
<path fill="none" stroke="#000000" d="M207.776,-106C195.7815,-106 188.3229,-106 171.5,-106"/>
<polygon fill="#000000" stroke="#000000" points="214.5,-106.0001 222.5,-109.6 218.5,-106 222.5,-106 222.5,-106 222.5,-106 218.5,-106 222.5,-102.4 214.5,-106.0001 214.5,-106.0001"/>
<ellipse fill="none" stroke="#000000" cx="211.3" cy="-106.0001" rx="3.2" ry="3.2"/>
</g>
<!-- font_file_owner -->
<g id="node3" class="node">
<title>font_file_owner</title>
<g id="a_node3"><a xlink:href="../../tables/font_file_owner.html" xlink:title="font_file_owner" target="_top">
<polygon fill="#ffffff" stroke="transparent" points="520,-143 520,-249 653,-249 653,-143 520,-143"/>
<polygon fill="#f5f5f5" stroke="transparent" points="520.5,-227 520.5,-249 653.5,-249 653.5,-227 520.5,-227"/>
<polygon fill="none" stroke="#000000" points="520.5,-227 520.5,-249 653.5,-249 653.5,-227 520.5,-227"/>
<text text-anchor="start" x="525.5" y="-236.2" font-family="Helvetica,sans-Serif" font-weight="bold" font-size="11.00" fill="#000000">font_file_owner</text>
<text text-anchor="start" x="618.5" y="-235.2" font-family="Helvetica,sans-Serif" font-size="11.00" fill="#000000">[table]</text>
<polygon fill="none" stroke="#000000" points="520.5,-205 520.5,-227 653.5,-227 653.5,-205 520.5,-205"/>
<image xlink:href="../../images/primaryKeys.png" width="11px" height="12px" preserveAspectRatio="xMinYMin meet" x="525.5" y="-222"/>
<text text-anchor="start" x="540.5" y="-213.2" font-family="Helvetica,sans-Serif" font-size="11.00" fill="#000000">font_file_id</text>
<polygon fill="#ffffff" stroke="transparent" points="520.5,-183 520.5,-205 653.5,-205 653.5,-183 520.5,-183"/>
<polygon fill="none" stroke="#000000" points="520.5,-183 520.5,-205 653.5,-205 653.5,-183 520.5,-183"/>
<image xlink:href="../../images/foreignKeys.png" width="11px" height="12px" preserveAspectRatio="xMinYMin meet" x="525.5" y="-200"/>
<text text-anchor="start" x="540.5" y="-191.2" font-family="Helvetica,sans-Serif" font-size="11.00" fill="#000000">edition_editor_id</text>
<polygon fill="none" stroke="#000000" points="520.5,-161 520.5,-183 653.5,-183 653.5,-161 520.5,-161"/>
<image xlink:href="../../images/primaryKeys.png" width="11px" height="12px" preserveAspectRatio="xMinYMin meet" x="525.5" y="-178"/>
<text text-anchor="start" x="540.5" y="-169.2" font-family="Helvetica,sans-Serif" font-size="11.00" fill="#000000">edition_id</text>
<polygon fill="#ffffff" stroke="transparent" points="520.5,-143 520.5,-161 571.5,-161 571.5,-143 520.5,-143"/>
<polygon fill="none" stroke="#000000" points="520.5,-143 520.5,-161 571.5,-161 571.5,-143 520.5,-143"/>
<text text-anchor="start" x="523.5" y="-149.2" font-family="Helvetica,sans-Serif" font-size="11.00" fill="#000000">&lt; 3</text>
<polygon fill="#ffffff" stroke="transparent" points="571.5,-143 571.5,-161 625.5,-161 625.5,-143 571.5,-143"/>
<polygon fill="none" stroke="#000000" points="571.5,-143 571.5,-161 625.5,-161 625.5,-143 571.5,-143"/>
<text text-anchor="start" x="589.5" y="-149.2" font-family="Helvetica,sans-Serif" font-size="11.00" fill="#000000">0 rows</text>
<polygon fill="#ffffff" stroke="transparent" points="625.5,-143 625.5,-161 653.5,-161 653.5,-143 625.5,-143"/>
<polygon fill="none" stroke="#000000" points="625.5,-143 625.5,-161 653.5,-161 653.5,-143 625.5,-143"/>
<text text-anchor="start" x="643.5" y="-149.2" font-family="Helvetica,sans-Serif" font-size="11.00" fill="#000000"> &#160;</text>
</a>
</g>
</g>
<!-- font_file_owner&#45;&gt;font_file -->
<g id="edge2" class="edge">
<title>font_file_owner:w&#45;&gt;font_file:e</title>
<path fill="none" stroke="#000000" d="M505.776,-216C493.7815,-216 486.3229,-216 469.5,-216"/>
<polygon fill="#000000" stroke="#000000" points="512.5,-216.0001 520.5,-219.6 516.5,-216 520.5,-216 520.5,-216 520.5,-216 516.5,-216 520.5,-212.4 512.5,-216.0001 512.5,-216.0001"/>
<ellipse fill="none" stroke="#000000" cx="509.3" cy="-216.0001" rx="3.2" ry="3.2"/>
</g>
</g>
</svg>
