<?xml version="1.0" encoding="UTF-8" standalone="no"?>
<!DOCTYPE svg PUBLIC "-//W3C//DTD SVG 1.1//EN"
 "http://www.w3.org/Graphics/SVG/1.1/DTD/svg11.dtd">
<!-- Generated by graphviz version 2.43.0 (0)
 -->
<!-- Title: twoDegreesRelationshipsDiagramImplied Pages: 1 -->
<svg width="795pt" height="471pt"
 viewBox="0.00 0.00 795.00 471.00" xmlns="http://www.w3.org/2000/svg" xmlns:xlink="http://www.w3.org/1999/xlink">
<g id="graph0" class="graph" transform="scale(1 1) rotate(0) translate(4 467)">
<title>twoDegreesRelationshipsDiagramImplied</title>
<polygon fill="#ffffff" stroke="transparent" points="-4,4 -4,-467 791,-467 791,4 -4,4"/>
<text text-anchor="middle" x="79.5" y="-7.2" font-family="Helvetica,sans-Serif" font-size="11.00">Generated by SchemaSpy</text>
<!-- edition_editor -->
<g id="node1" class="node">
<title>edition_editor</title>
<g id="a_node1"><a xlink:href="../../tables/edition_editor.html" xlink:title="edition_editor" target="_top">
<polygon fill="#ffffff" stroke="transparent" points="352.5,-90 352.5,-148 488.5,-148 488.5,-90 352.5,-90"/>
<polygon fill="#f5f5f5" stroke="transparent" points="352.5,-126 352.5,-148 488.5,-148 488.5,-126 352.5,-126"/>
<polygon fill="none" stroke="black" points="352.5,-126 352.5,-148 488.5,-148 488.5,-126 352.5,-126"/>
<text text-anchor="start" x="357.5" y="-135.2" font-family="Helvetica,sans-Serif" font-weight="bold" font-size="11.00">edition_editor</text>
<text text-anchor="start" x="446.5" y="-134.2" font-family="Helvetica,sans-Serif" font-size="11.00">[table]</text>
<polygon fill="none" stroke="black" points="352.5,-108 352.5,-126 488.5,-126 488.5,-108 352.5,-108"/>
<text text-anchor="start" x="355.5" y="-114.2" font-family="Helvetica,sans-Serif" font-size="11.00">...</text>
<polygon fill="#ffffff" stroke="transparent" points="352.5,-90 352.5,-108 383.5,-108 383.5,-90 352.5,-90"/>
<polygon fill="none" stroke="black" points="352.5,-90 352.5,-108 383.5,-108 383.5,-90 352.5,-90"/>
<text text-anchor="start" x="355.5" y="-96.2" font-family="Helvetica,sans-Serif" font-size="11.00">&lt; 2</text>
<polygon fill="#ffffff" stroke="transparent" points="383.5,-90 383.5,-108 452.5,-108 452.5,-90 383.5,-90"/>
<polygon fill="none" stroke="black" points="383.5,-90 383.5,-108 452.5,-108 452.5,-90 383.5,-90"/>
<text text-anchor="start" x="388.5" y="-96.2" font-family="Helvetica,sans-Serif" font-size="11.00">1,645 rows</text>
<polygon fill="#ffffff" stroke="transparent" points="452.5,-90 452.5,-108 488.5,-108 488.5,-90 452.5,-90"/>
<polygon fill="none" stroke="black" points="452.5,-90 452.5,-108 488.5,-108 488.5,-90 452.5,-90"/>
<text text-anchor="start" x="458.5" y="-96.2" font-family="Helvetica,sans-Serif" font-size="11.00">33 &gt;</text>
</a>
</g>
</g>
<!-- edition -->
<g id="node2" class="node">
<title>edition</title>
<g id="a_node2"><a xlink:href="../../tables/edition.html" xlink:title="edition" target="_top">
<polygon fill="#ffffff" stroke="transparent" points="79,-87 79,-145 205,-145 205,-87 79,-87"/>
<polygon fill="#f5f5f5" stroke="transparent" points="79,-123 79,-145 205,-145 205,-123 79,-123"/>
<polygon fill="none" stroke="black" points="79,-123 79,-145 205,-145 205,-123 79,-123"/>
<text text-anchor="start" x="84" y="-132.2" font-family="Helvetica,sans-Serif" font-weight="bold" font-size="11.00">edition</text>
<text text-anchor="start" x="163" y="-131.2" font-family="Helvetica,sans-Serif" font-size="11.00">[table]</text>
<polygon fill="none" stroke="black" points="79,-105 79,-123 205,-123 205,-105 79,-105"/>
<text text-anchor="start" x="82" y="-111.2" font-family="Helvetica,sans-Serif" font-size="11.00">...</text>
<polygon fill="#ffffff" stroke="transparent" points="79,-87 79,-105 105,-105 105,-87 79,-87"/>
<polygon fill="none" stroke="black" points="79,-87 79,-105 105,-105 105,-87 79,-87"/>
<text text-anchor="start" x="82" y="-93.2" font-family="Helvetica,sans-Serif" font-size="11.00">&lt; 1</text>
<polygon fill="#ffffff" stroke="transparent" points="105,-87 105,-105 172,-105 172,-87 105,-87"/>
<polygon fill="none" stroke="black" points="105,-87 105,-105 172,-105 172,-87 105,-87"/>
<text text-anchor="start" x="108" y="-93.2" font-family="Helvetica,sans-Serif" font-size="11.00">1,645 rows</text>
<polygon fill="#ffffff" stroke="transparent" points="172,-87 172,-105 205,-105 205,-87 172,-87"/>
<polygon fill="none" stroke="black" points="172,-87 172,-105 205,-105 205,-87 172,-87"/>
<text text-anchor="start" x="175" y="-93.2" font-family="Helvetica,sans-Serif" font-size="11.00">35 &gt;</text>
</a>
</g>
</g>
<!-- edition_editor&#45;&gt;edition -->
<g id="edge1" class="edge">
<title>edition_editor:w&#45;&gt;edition:e</title>
<path fill="none" stroke="black" d="M336.85,-116.95C283.92,-116.54 265.5,-114 206,-114"/>
<polygon fill="black" stroke="black" points="343.5,-116.97 351.49,-120.6 347.5,-116.99 351.5,-117 351.5,-117 351.5,-117 347.5,-116.99 351.51,-113.4 343.5,-116.97 343.5,-116.97"/>
<ellipse fill="none" stroke="black" cx="340.3" cy="-116.96" rx="3.2" ry="3.2"/>
</g>
<!-- font_file_owner -->
<g id="node3" class="node">
<title>font_file_owner</title>
<g id="a_node3"><a xlink:href="../../tables/font_file_owner.html" xlink:title="font_file_owner" target="_top">
<polygon fill="#ffffff" stroke="transparent" points="599.5,-37 599.5,-143 744.5,-143 744.5,-37 599.5,-37"/>
<polygon fill="#f5f5f5" stroke="transparent" points="600,-121 600,-143 745,-143 745,-121 600,-121"/>
<polygon fill="none" stroke="black" points="600,-121 600,-143 745,-143 745,-121 600,-121"/>
<text text-anchor="start" x="605" y="-130.2" font-family="Helvetica,sans-Serif" font-weight="bold" font-size="11.00">font_file_owner</text>
<text text-anchor="start" x="703" y="-129.2" font-family="Helvetica,sans-Serif" font-size="11.00">[table]</text>
<polygon fill="none" stroke="black" points="600,-99 600,-121 745,-121 745,-99 600,-99"/>
<image xlink:href="../../images/primaryKeys.png" width="11px" height="12px" preserveAspectRatio="xMinYMin meet" x="605" y="-116"/>
<text text-anchor="start" x="626" y="-107.2" font-family="Helvetica,sans-Serif" font-size="11.00">font_file_id</text>
<polygon fill="#ffffff" stroke="transparent" points="600,-77 600,-99 745,-99 745,-77 600,-77"/>
<polygon fill="none" stroke="black" points="600,-77 600,-99 745,-99 745,-77 600,-77"/>
<image xlink:href="../../images/foreignKeys.png" width="11px" height="12px" preserveAspectRatio="xMinYMin meet" x="605" y="-94"/>
<text text-anchor="start" x="626" y="-85.2" font-family="Helvetica,sans-Serif" font-size="11.00">edition_editor_id</text>
<polygon fill="none" stroke="black" points="600,-55 600,-77 745,-77 745,-55 600,-55"/>
<image xlink:href="../../images/primaryKeys.png" width="11px" height="12px" preserveAspectRatio="xMinYMin meet" x="605" y="-72"/>
<text text-anchor="start" x="626" y="-63.2" font-family="Helvetica,sans-Serif" font-size="11.00">edition_id</text>
<polygon fill="#ffffff" stroke="transparent" points="600,-37 600,-55 657,-55 657,-37 600,-37"/>
<polygon fill="none" stroke="black" points="600,-37 600,-55 657,-55 657,-37 600,-37"/>
<text text-anchor="start" x="603" y="-43.2" font-family="Helvetica,sans-Serif" font-size="11.00">&lt; 3</text>
<polygon fill="#ffffff" stroke="transparent" points="657,-37 657,-55 715,-55 715,-37 657,-37"/>
<polygon fill="none" stroke="black" points="657,-37 657,-55 715,-55 715,-37 657,-37"/>
<text text-anchor="start" x="675" y="-43.2" font-family="Helvetica,sans-Serif" font-size="11.00">0 rows</text>
<polygon fill="#ffffff" stroke="transparent" points="715,-37 715,-55 745,-55 745,-37 715,-37"/>
<polygon fill="none" stroke="black" points="715,-37 715,-55 745,-55 745,-37 715,-37"/>
<text text-anchor="start" x="734" y="-43.2" font-family="Helvetica,sans-Serif" font-size="11.00"> &#160;</text>
</a>
</g>
</g>
<!-- font_file_owner&#45;&gt;edition_editor -->
<g id="edge2" class="edge">
<title>font_file_owner:w&#45;&gt;edition_editor:e</title>
<path fill="none" stroke="black" d="M584.36,-88.9C546.33,-93.79 534.53,-117 489.5,-117"/>
<polygon fill="black" stroke="black" points="591.02,-88.49 599.22,-91.59 595.01,-88.25 599,-88 599,-88 599,-88 595.01,-88.25 598.78,-84.41 591.02,-88.49 591.02,-88.49"/>
<ellipse fill="none" stroke="black" cx="587.82" cy="-88.69" rx="3.2" ry="3.2"/>
</g>
<!-- font_file_owner&#45;&gt;edition -->
<g id="edge3" class="edge">
<title>font_file_owner:w&#45;&gt;edition:e</title>
<path fill="none" stroke="black" d="M584.36,-65.96C470.75,-65.33 435.59,-57.94 317,-79 266.07,-88.04 257.73,-114 206,-114"/>
<polygon fill="black" stroke="black" points="591,-65.98 598.99,-69.6 595,-65.99 599,-66 599,-66 599,-66 595,-65.99 599.01,-62.4 591,-65.98 591,-65.98"/>
<ellipse fill="none" stroke="black" cx="587.8" cy="-65.97" rx="3.2" ry="3.2"/>
</g>
<!-- font_file -->
<g id="node4" class="node">
<title>font_file</title>
<g id="a_node4"><a xlink:href="../../tables/font_file.html" xlink:title="font_file" target="_top">
<polygon fill="#ffffff" stroke="transparent" points="8,-166 8,-320 276,-320 276,-166 8,-166"/>
<polygon fill="#f5f5f5" stroke="transparent" points="10,-296 10,-318 274,-318 274,-296 10,-296"/>
<polygon fill="none" stroke="black" points="10,-296 10,-318 274,-318 274,-296 10,-296"/>
<text text-anchor="start" x="15" y="-305.2" font-family="Helvetica,sans-Serif" font-weight="bold" font-size="11.00">font_file</text>
<text text-anchor="start" x="232" y="-304.2" font-family="Helvetica,sans-Serif" font-size="11.00">[table]</text>
<polygon fill="none" stroke="black" points="10,-274 10,-296 144,-296 144,-274 10,-274"/>
<image xlink:href="../../images/primaryKeys.png" width="11px" height="12px" preserveAspectRatio="xMinYMin meet" x="15" y="-291"/>
<text text-anchor="start" x="30" y="-282.2" font-family="Helvetica,sans-Serif" font-size="11.00">font_file_id</text>
<polygon fill="none" stroke="black" points="144,-274 144,-296 274,-296 274,-274 144,-274"/>
<text text-anchor="start" x="147" y="-282.2" font-family="Helvetica,sans-Serif" font-size="11.00">int unsigned[10]</text>
<polygon fill="#ffffff" stroke="transparent" points="10,-252 10,-274 144,-274 144,-252 10,-252"/>
<polygon fill="none" stroke="black" points="10,-252 10,-274 144,-274 144,-252 10,-252"/>
<text text-anchor="start" x="30" y="-260.2" font-family="Helvetica,sans-Serif" font-size="11.00">font_name</text>
<polygon fill="none" stroke="black" points="144,-252 144,-274 274,-274 274,-252 144,-252"/>
<text text-anchor="start" x="147" y="-260.2" font-family="Helvetica,sans-Serif" font-size="11.00">varchar[255]</text>
<polygon fill="none" stroke="black" points="10,-230 10,-252 144,-252 144,-230 10,-230"/>
<text text-anchor="start" x="30" y="-238.2" font-family="Helvetica,sans-Serif" font-size="11.00">is_public</text>
<polygon fill="none" stroke="black" points="144,-230 144,-252 274,-252 274,-230 144,-230"/>
<text text-anchor="start" x="147" y="-238.2" font-family="Helvetica,sans-Serif" font-size="11.00">bit[3]</text>
<polygon fill="none" stroke="black" points="10,-208 10,-230 144,-230 144,-208 10,-208"/>
<text text-anchor="start" x="30" y="-216.2" font-family="Helvetica,sans-Serif" font-size="11.00">font_binary_data</text>
<polygon fill="none" stroke="black" points="144,-208 144,-230 274,-230 274,-208 144,-208"/>
<text text-anchor="start" x="147" y="-216.2" font-family="Helvetica,sans-Serif" font-size="11.00">longblob[2147483647]</text>
<polygon fill="none" stroke="black" points="10,-186 10,-208 144,-208 144,-186 10,-186"/>
<text text-anchor="start" x="30" y="-194.2" font-family="Helvetica,sans-Serif" font-size="11.00">font_format</text>
<polygon fill="none" stroke="black" points="144,-186 144,-208 274,-208 274,-186 144,-186"/>
<text text-anchor="start" x="147" y="-194.2" font-family="Helvetica,sans-Serif" font-size="11.00">enum[5]</text>
<polygon fill="#ffffff" stroke="transparent" points="10,-168 10,-186 68,-186 68,-168 10,-168"/>
<polygon fill="none" stroke="black" points="10,-168 10,-186 68,-186 68,-168 10,-168"/>
<text text-anchor="start" x="13" y="-174.2" font-family="Helvetica,sans-Serif" font-size="11.00">&lt; 0</text>
<polygon fill="#ffffff" stroke="transparent" points="68,-168 68,-186 144,-186 144,-168 68,-168"/>
<polygon fill="none" stroke="black" points="68,-168 68,-186 144,-186 144,-168 68,-168"/>
<text text-anchor="start" x="104" y="-174.2" font-family="Helvetica,sans-Serif" font-size="11.00">0 rows</text>
<polygon fill="#ffffff" stroke="transparent" points="144,-168 144,-186 274,-186 274,-168 144,-168"/>
<polygon fill="none" stroke="black" points="144,-168 144,-186 274,-186 274,-168 144,-168"/>
<text text-anchor="start" x="251" y="-174.2" font-family="Helvetica,sans-Serif" font-size="11.00">2 &gt;</text>
<polygon fill="none" stroke="black" stroke-width="2" points="9,-167 9,-319 275,-319 275,-167 9,-167"/>
</a>
</g>
</g>
<!-- font_file_owner&#45;&gt;font_file -->
<g id="edge4" class="edge">
<title>font_file_owner:w&#45;&gt;font_file:e</title>
<path fill="none" stroke="black" d="M584.39,-111.75C558.65,-118.62 554.81,-144.11 524,-159 436.69,-201.2 395.43,-170.96 317,-228 291.55,-246.51 306.47,-285 275,-285"/>
<polygon fill="black" stroke="black" points="591.06,-110.95 599.43,-113.57 595.03,-110.48 599,-110 599,-110 599,-110 595.03,-110.48 598.57,-106.43 591.06,-110.95 591.06,-110.95"/>
<ellipse fill="none" stroke="black" cx="587.88" cy="-111.33" rx="3.2" ry="3.2"/>
</g>
<!-- manuscript_metrics -->
<g id="node5" class="node">
<title>manuscript_metrics</title>
<g id="a_node5"><a xlink:href="../../tables/manuscript_metrics.html" xlink:title="manuscript_metrics" target="_top">
<polygon fill="#ffffff" stroke="transparent" points="586,-401 586,-459 758,-459 758,-401 586,-401"/>
<polygon fill="#f5f5f5" stroke="transparent" points="586,-437 586,-459 758,-459 758,-437 586,-437"/>
<polygon fill="none" stroke="black" points="586,-437 586,-459 758,-459 758,-437 586,-437"/>
<text text-anchor="start" x="591" y="-446.2" font-family="Helvetica,sans-Serif" font-weight="bold" font-size="11.00">manuscript_metrics</text>
<text text-anchor="start" x="716" y="-445.2" font-family="Helvetica,sans-Serif" font-size="11.00">[table]</text>
<polygon fill="none" stroke="black" points="586,-419 586,-437 758,-437 758,-419 586,-419"/>
<text text-anchor="start" x="589" y="-425.2" font-family="Helvetica,sans-Serif" font-size="11.00">...</text>
<polygon fill="#ffffff" stroke="transparent" points="586,-401 586,-419 638,-419 638,-401 586,-401"/>
<polygon fill="none" stroke="black" points="586,-401 586,-419 638,-419 638,-401 586,-401"/>
<text text-anchor="start" x="589" y="-407.2" font-family="Helvetica,sans-Serif" font-size="11.00">&lt; 2</text>
<polygon fill="#ffffff" stroke="transparent" points="638,-401 638,-419 718,-419 718,-401 638,-401"/>
<polygon fill="none" stroke="black" points="638,-401 638,-419 718,-419 718,-401 638,-401"/>
<text text-anchor="start" x="654" y="-407.2" font-family="Helvetica,sans-Serif" font-size="11.00">1,371 rows</text>
<polygon fill="#ffffff" stroke="transparent" points="718,-401 718,-419 758,-419 758,-401 718,-401"/>
<polygon fill="none" stroke="black" points="718,-401 718,-419 758,-419 758,-401 718,-401"/>
<text text-anchor="start" x="735" y="-407.2" font-family="Helvetica,sans-Serif" font-size="11.00">1 &gt;</text>
</a>
</g>
</g>
<!-- scribal_font -->
<g id="node6" class="node">
<title>scribal_font</title>
<g id="a_node6"><a xlink:href="../../tables/scribal_font.html" xlink:title="scribal_font" target="_top">
<polygon fill="#ffffff" stroke="transparent" points="325,-238 325,-340 516,-340 516,-238 325,-238"/>
<polygon fill="#f5f5f5" stroke="transparent" points="325.5,-318 325.5,-340 516.5,-340 516.5,-318 325.5,-318"/>
<polygon fill="none" stroke="black" points="325.5,-318 325.5,-340 516.5,-340 516.5,-318 325.5,-318"/>
<text text-anchor="start" x="330.5" y="-327.2" font-family="Helvetica,sans-Serif" font-weight="bold" font-size="11.00">scribal_font</text>
<text text-anchor="start" x="474.5" y="-326.2" font-family="Helvetica,sans-Serif" font-size="11.00">[table]</text>
<polygon fill="none" stroke="black" points="325.5,-296 325.5,-318 516.5,-318 516.5,-296 325.5,-296"/>
<image xlink:href="../../images/primaryKeys.png" width="11px" height="12px" preserveAspectRatio="xMinYMin meet" x="330.5" y="-313"/>
<text text-anchor="start" x="345.5" y="-304.2" font-family="Helvetica,sans-Serif" font-size="11.00">scribal_font_id</text>
<polygon fill="none" stroke="black" points="325.5,-274 325.5,-296 516.5,-296 516.5,-274 325.5,-274"/>
<image xlink:href="../../images/foreignKeys.png" width="11px" height="12px" preserveAspectRatio="xMinYMin meet" x="330.5" y="-291"/>
<text text-anchor="start" x="345.5" y="-282.2" font-family="Helvetica,sans-Serif" font-size="11.00">font_file_id</text>
<polygon fill="none" stroke="black" points="325.5,-256 325.5,-274 516.5,-274 516.5,-256 325.5,-256"/>
<text text-anchor="start" x="328.5" y="-262.2" font-family="Helvetica,sans-Serif" font-size="11.00">...</text>
<polygon fill="#ffffff" stroke="transparent" points="325.5,-238 325.5,-256 399.5,-256 399.5,-238 325.5,-238"/>
<polygon fill="none" stroke="black" points="325.5,-238 325.5,-256 399.5,-256 399.5,-238 325.5,-238"/>
<text text-anchor="start" x="328.5" y="-244.2" font-family="Helvetica,sans-Serif" font-size="11.00">&lt; 1</text>
<polygon fill="#ffffff" stroke="transparent" points="399.5,-238 399.5,-256 466.5,-256 466.5,-238 399.5,-238"/>
<polygon fill="none" stroke="black" points="399.5,-238 399.5,-256 466.5,-256 466.5,-238 399.5,-238"/>
<text text-anchor="start" x="426.5" y="-244.2" font-family="Helvetica,sans-Serif" font-size="11.00">0 rows</text>
<polygon fill="#ffffff" stroke="transparent" points="466.5,-238 466.5,-256 516.5,-256 516.5,-238 466.5,-238"/>
<polygon fill="none" stroke="black" points="466.5,-238 466.5,-256 516.5,-256 516.5,-238 466.5,-238"/>
<text text-anchor="start" x="493.5" y="-244.2" font-family="Helvetica,sans-Serif" font-size="11.00">4 &gt;</text>
</a>
</g>
</g>
<!-- manuscript_metrics&#45;&gt;scribal_font -->
<g id="edge5" class="edge">
<title>manuscript_metrics:w&#45;&gt;scribal_font:e</title>
<path fill="none" stroke="black" d="M570.82,-425.13C532.65,-406.8 573.43,-307 517.5,-307"/>
<polygon fill="black" stroke="black" points="577.16,-426.41 584.29,-431.53 581.08,-427.21 585,-428 585,-428 585,-428 581.08,-427.21 585.71,-424.47 577.16,-426.41 577.16,-426.41"/>
<ellipse fill="none" stroke="black" cx="574.02" cy="-425.78" rx="3.2" ry="3.2"/>
</g>
<!-- scribal_font&#45;&gt;font_file -->
<g id="edge6" class="edge">
<title>scribal_font:w&#45;&gt;font_file:e</title>
<path fill="none" stroke="black" stroke-dasharray="5,2" d="M309.84,-285C298.41,-285 291.16,-285 275,-285"/>
<polygon fill="black" stroke="black" points="316.5,-285 324.5,-288.6 320.5,-285 324.5,-285 324.5,-285 324.5,-285 320.5,-285 324.5,-281.4 316.5,-285 316.5,-285"/>
<ellipse fill="none" stroke="black" cx="313.3" cy="-285" rx="3.2" ry="3.2"/>
</g>
<!-- scribal_font_glyph_metrics -->
<g id="node7" class="node">
<title>scribal_font_glyph_metrics</title>
<g id="a_node7"><a xlink:href="../../tables/scribal_font_glyph_metrics.html" xlink:title="scribal_font_glyph_metrics" target="_top">
<polygon fill="#ffffff" stroke="transparent" points="565,-322 565,-380 779,-380 779,-322 565,-322"/>
<polygon fill="#f5f5f5" stroke="transparent" points="565,-358 565,-380 779,-380 779,-358 565,-358"/>
<polygon fill="none" stroke="black" points="565,-358 565,-380 779,-380 779,-358 565,-358"/>
<text text-anchor="start" x="570" y="-367.2" font-family="Helvetica,sans-Serif" font-weight="bold" font-size="11.00">scribal_font_glyph_metrics</text>
<text text-anchor="start" x="737" y="-366.2" font-family="Helvetica,sans-Serif" font-size="11.00">[table]</text>
<polygon fill="none" stroke="black" points="565,-340 565,-358 779,-358 779,-340 565,-340"/>
<text text-anchor="start" x="568" y="-346.2" font-family="Helvetica,sans-Serif" font-size="11.00">...</text>
<polygon fill="#ffffff" stroke="transparent" points="565,-322 565,-340 650,-340 650,-322 565,-322"/>
<polygon fill="none" stroke="black" points="565,-322 565,-340 650,-340 650,-322 565,-322"/>
<text text-anchor="start" x="568" y="-328.2" font-family="Helvetica,sans-Serif" font-size="11.00">&lt; 1</text>
<polygon fill="#ffffff" stroke="transparent" points="650,-322 650,-340 723,-340 723,-322 650,-322"/>
<polygon fill="none" stroke="black" points="650,-322 650,-340 723,-340 723,-322 650,-322"/>
<text text-anchor="start" x="683" y="-328.2" font-family="Helvetica,sans-Serif" font-size="11.00">0 rows</text>
<polygon fill="#ffffff" stroke="transparent" points="723,-322 723,-340 779,-340 779,-322 723,-322"/>
<polygon fill="none" stroke="black" points="723,-322 723,-340 779,-340 779,-322 723,-322"/>
<text text-anchor="start" x="756" y="-328.2" font-family="Helvetica,sans-Serif" font-size="11.00">1 &gt;</text>
</a>
</g>
</g>
<!-- scribal_font_glyph_metrics&#45;&gt;scribal_font -->
<g id="edge7" class="edge">
<title>scribal_font_glyph_metrics:w&#45;&gt;scribal_font:e</title>
<path fill="none" stroke="black" d="M550.27,-343.85C538.4,-332.63 539.26,-307 517.5,-307"/>
<polygon fill="black" stroke="black" points="556.51,-346.19 562.74,-352.37 560.25,-347.6 564,-349 564,-349 564,-349 560.25,-347.6 565.26,-345.63 556.51,-346.19 556.51,-346.19"/>
<ellipse fill="none" stroke="black" cx="553.51" cy="-345.07" rx="3.2" ry="3.2"/>
</g>
<!-- scribal_font_kerning -->
<g id="node8" class="node">
<title>scribal_font_kerning</title>
<g id="a_node8"><a xlink:href="../../tables/scribal_font_kerning.html" xlink:title="scribal_font_kerning" target="_top">
<polygon fill="#ffffff" stroke="transparent" points="585,-243 585,-301 759,-301 759,-243 585,-243"/>
<polygon fill="#f5f5f5" stroke="transparent" points="585,-279 585,-301 759,-301 759,-279 585,-279"/>
<polygon fill="none" stroke="black" points="585,-279 585,-301 759,-301 759,-279 585,-279"/>
<text text-anchor="start" x="590" y="-288.2" font-family="Helvetica,sans-Serif" font-weight="bold" font-size="11.00">scribal_font_kerning</text>
<text text-anchor="start" x="717" y="-287.2" font-family="Helvetica,sans-Serif" font-size="11.00">[table]</text>
<polygon fill="none" stroke="black" points="585,-261 585,-279 759,-279 759,-261 585,-261"/>
<text text-anchor="start" x="588" y="-267.2" font-family="Helvetica,sans-Serif" font-size="11.00">...</text>
<polygon fill="#ffffff" stroke="transparent" points="585,-243 585,-261 650,-261 650,-243 585,-243"/>
<polygon fill="none" stroke="black" points="585,-243 585,-261 650,-261 650,-243 585,-243"/>
<text text-anchor="start" x="588" y="-249.2" font-family="Helvetica,sans-Serif" font-size="11.00">&lt; 1</text>
<polygon fill="#ffffff" stroke="transparent" points="650,-243 650,-261 713,-261 713,-243 650,-243"/>
<polygon fill="none" stroke="black" points="650,-243 650,-261 713,-261 713,-243 650,-243"/>
<text text-anchor="start" x="673" y="-249.2" font-family="Helvetica,sans-Serif" font-size="11.00">0 rows</text>
<polygon fill="#ffffff" stroke="transparent" points="713,-243 713,-261 759,-261 759,-243 713,-243"/>
<polygon fill="none" stroke="black" points="713,-243 713,-261 759,-261 759,-243 713,-243"/>
<text text-anchor="start" x="736" y="-249.2" font-family="Helvetica,sans-Serif" font-size="11.00">1 &gt;</text>
</a>
</g>
</g>
<!-- scribal_font_kerning&#45;&gt;scribal_font -->
<g id="edge8" class="edge">
<title>scribal_font_kerning:w&#45;&gt;scribal_font:e</title>
<path fill="none" stroke="black" d="M569.58,-272.78C549.58,-281.39 545.64,-307 517.5,-307"/>
<polygon fill="black" stroke="black" points="576.14,-271.52 584.68,-273.53 580.07,-270.76 584,-270 584,-270 584,-270 580.07,-270.76 583.32,-266.47 576.14,-271.52 576.14,-271.52"/>
<ellipse fill="none" stroke="black" cx="573" cy="-272.12" rx="3.2" ry="3.2"/>
</g>
<!-- scribal_font_owner -->
<g id="node9" class="node">
<title>scribal_font_owner</title>
<g id="a_node9"><a xlink:href="../../tables/scribal_font_owner.html" xlink:title="scribal_font_owner" target="_top">
<polygon fill="#ffffff" stroke="transparent" points="589,-164 589,-222 755,-222 755,-164 589,-164"/>
<polygon fill="#f5f5f5" stroke="transparent" points="589,-200 589,-222 755,-222 755,-200 589,-200"/>
<polygon fill="none" stroke="black" points="589,-200 589,-222 755,-222 755,-200 589,-200"/>
<text text-anchor="start" x="594" y="-209.2" font-family="Helvetica,sans-Serif" font-weight="bold" font-size="11.00">scribal_font_owner</text>
<text text-anchor="start" x="713" y="-208.2" font-family="Helvetica,sans-Serif" font-size="11.00">[table]</text>
<polygon fill="none" stroke="black" points="589,-182 589,-200 755,-200 755,-182 589,-182"/>
<text text-anchor="start" x="592" y="-188.2" font-family="Helvetica,sans-Serif" font-size="11.00">...</text>
<polygon fill="#ffffff" stroke="transparent" points="589,-164 589,-182 656,-182 656,-164 589,-164"/>
<polygon fill="none" stroke="black" points="589,-164 589,-182 656,-182 656,-164 589,-164"/>
<text text-anchor="start" x="592" y="-170.2" font-family="Helvetica,sans-Serif" font-size="11.00">&lt; 3</text>
<polygon fill="#ffffff" stroke="transparent" points="656,-164 656,-182 720,-182 720,-164 656,-164"/>
<polygon fill="none" stroke="black" points="656,-164 656,-182 720,-182 720,-164 656,-164"/>
<text text-anchor="start" x="680" y="-170.2" font-family="Helvetica,sans-Serif" font-size="11.00">0 rows</text>
<polygon fill="#ffffff" stroke="transparent" points="720,-164 720,-182 755,-182 755,-164 720,-164"/>
<polygon fill="none" stroke="black" points="720,-164 720,-182 755,-182 755,-164 720,-164"/>
<text text-anchor="start" x="744" y="-170.2" font-family="Helvetica,sans-Serif" font-size="11.00"> &#160;</text>
</a>
</g>
</g>
<!-- scribal_font_owner&#45;&gt;edition_editor -->
<g id="edge9" class="edge">
<title>scribal_font_owner:w&#45;&gt;edition_editor:e</title>
<path fill="none" stroke="black" d="M573.72,-189.02C534.77,-177.25 538.91,-117 489.5,-117"/>
<polygon fill="black" stroke="black" points="580.08,-189.9 587.51,-194.57 584.04,-190.45 588,-191 588,-191 588,-191 584.04,-190.45 588.49,-187.43 580.08,-189.9 580.08,-189.9"/>
<ellipse fill="none" stroke="black" cx="576.91" cy="-189.46" rx="3.2" ry="3.2"/>
</g>
<!-- scribal_font_owner&#45;&gt;edition -->
<g id="edge10" class="edge">
<title>scribal_font_owner:w&#45;&gt;edition:e</title>
<path fill="none" stroke="black" d="M573.51,-190.99C463.93,-190.8 429.65,-187.93 317,-159 265.44,-145.76 259.23,-114 206,-114"/>
<polygon fill="black" stroke="black" points="580,-190.99 588,-194.6 584,-191 588,-191 588,-191 588,-191 584,-191 588,-187.4 580,-190.99 580,-190.99"/>
<ellipse fill="none" stroke="black" cx="576.8" cy="-190.99" rx="3.2" ry="3.2"/>
</g>
<!-- scribal_font_owner&#45;&gt;scribal_font -->
<g id="edge11" class="edge">
<title>scribal_font_owner:w&#45;&gt;scribal_font:e</title>
<path fill="none" stroke="black" d="M573.76,-193.87C536.1,-211.73 572.17,-307 517.5,-307"/>
<polygon fill="black" stroke="black" points="580.16,-192.58 588.71,-194.53 584.08,-191.79 588,-191 588,-191 588,-191 584.08,-191.79 587.29,-187.47 580.16,-192.58 580.16,-192.58"/>
<ellipse fill="none" stroke="black" cx="577.02" cy="-193.21" rx="3.2" ry="3.2"/>
</g>
</g>
</svg>
