<?xml version="1.0" encoding="UTF-8" standalone="no"?>
<!DOCTYPE svg PUBLIC "-//W3C//DTD SVG 1.1//EN"
 "http://www.w3.org/Graphics/SVG/1.1/DTD/svg11.dtd">
<!-- Generated by graphviz version 2.40.1 (20161225.0304)
 -->
<!-- Title: oneDegreeRelationshipsDiagramImplied Pages: 1 -->
<svg width="727pt" height="300pt"
 viewBox="0.00 0.00 727.00 300.00" xmlns="http://www.w3.org/2000/svg" xmlns:xlink="http://www.w3.org/1999/xlink">
<g id="graph0" class="graph" transform="scale(1 1) rotate(0) translate(4 296)">
<title>oneDegreeRelationshipsDiagramImplied</title>
<polygon fill="#ffffff" stroke="transparent" points="-4,4 -4,-296 723,-296 723,4 -4,4"/>
<text text-anchor="middle" x="71.5" y="-7.2" font-family="Helvetica,sans-Serif" font-size="11.00" fill="#000000">Generated by SchemaSpy</text>
<!-- font_file -->
<g id="node1" class="node">
<title>font_file</title>
<g id="a_node1"><a xlink:href="../../tables/font_file.html" xlink:title="font_file" target="_top">
<polygon fill="#ffffff" stroke="transparent" points="220,-108 220,-284 471,-284 471,-108 220,-108"/>
<polygon fill="#f5f5f5" stroke="transparent" points="222.5,-260 222.5,-282 469.5,-282 469.5,-260 222.5,-260"/>
<polygon fill="none" stroke="#000000" points="222.5,-260 222.5,-282 469.5,-282 469.5,-260 222.5,-260"/>
<text text-anchor="start" x="227.5" y="-269.2" font-family="Helvetica,sans-Serif" font-weight="bold" font-size="11.00" fill="#000000">font_file</text>
<text text-anchor="start" x="434.5" y="-268.2" font-family="Helvetica,sans-Serif" font-size="11.00" fill="#000000">[table]</text>
<polygon fill="none" stroke="#000000" points="222.5,-238 222.5,-260 356.5,-260 356.5,-238 222.5,-238"/>
<image xlink:href="../../images/primaryKeys.png" width="11px" height="12px" preserveAspectRatio="xMinYMin meet" x="227.5" y="-255"/>
<text text-anchor="start" x="242.5" y="-246.2" font-family="Helvetica,sans-Serif" font-size="11.00" fill="#000000">font_file_id</text>
<polygon fill="none" stroke="#000000" points="356.5,-238 356.5,-260 469.5,-260 469.5,-238 356.5,-238"/>
<text text-anchor="start" x="359.5" y="-246.2" font-family="Helvetica,sans-Serif" font-size="11.00" fill="#000000">int unsigned[10]</text>
<polygon fill="#ffffff" stroke="transparent" points="222.5,-216 222.5,-238 356.5,-238 356.5,-216 222.5,-216"/>
<polygon fill="none" stroke="#000000" points="222.5,-216 222.5,-238 356.5,-238 356.5,-216 222.5,-216"/>
<text text-anchor="start" x="242.5" y="-224.2" font-family="Helvetica,sans-Serif" font-size="11.00" fill="#000000">font_name</text>
<polygon fill="none" stroke="#000000" points="356.5,-216 356.5,-238 469.5,-238 469.5,-216 356.5,-216"/>
<text text-anchor="start" x="359.5" y="-224.2" font-family="Helvetica,sans-Serif" font-size="11.00" fill="#000000">varchar[255]</text>
<polygon fill="none" stroke="#000000" points="222.5,-194 222.5,-216 356.5,-216 356.5,-194 222.5,-194"/>
<text text-anchor="start" x="242.5" y="-202.2" font-family="Helvetica,sans-Serif" font-size="11.00" fill="#000000">is_public</text>
<polygon fill="none" stroke="#000000" points="356.5,-194 356.5,-216 469.5,-216 469.5,-194 356.5,-194"/>
<text text-anchor="start" x="359.5" y="-202.2" font-family="Helvetica,sans-Serif" font-size="11.00" fill="#000000">bit[3]</text>
<polygon fill="none" stroke="#000000" points="222.5,-172 222.5,-194 356.5,-194 356.5,-172 222.5,-172"/>
<text text-anchor="start" x="242.5" y="-180.2" font-family="Helvetica,sans-Serif" font-size="11.00" fill="#000000">font_binary_data</text>
<polygon fill="none" stroke="#000000" points="356.5,-172 356.5,-194 469.5,-194 469.5,-172 356.5,-172"/>
<text text-anchor="start" x="359.5" y="-180.2" font-family="Helvetica,sans-Serif" font-size="11.00" fill="#000000">longblob[2147483647]</text>
<polygon fill="none" stroke="#000000" points="222.5,-150 222.5,-172 356.5,-172 356.5,-150 222.5,-150"/>
<text text-anchor="start" x="242.5" y="-158.2" font-family="Helvetica,sans-Serif" font-size="11.00" fill="#000000">font_format</text>
<polygon fill="none" stroke="#000000" points="356.5,-150 356.5,-172 469.5,-172 469.5,-150 356.5,-150"/>
<text text-anchor="start" x="359.5" y="-158.2" font-family="Helvetica,sans-Serif" font-size="11.00" fill="#000000">enum[5]</text>
<polygon fill="#ffffff" stroke="transparent" points="222.5,-128 222.5,-150 356.5,-150 356.5,-128 222.5,-128"/>
<polygon fill="none" stroke="#000000" points="222.5,-128 222.5,-150 356.5,-150 356.5,-128 222.5,-128"/>
<image xlink:href="../../images/foreignKeys.png" width="11px" height="12px" preserveAspectRatio="xMinYMin meet" x="227.5" y="-145"/>
<text text-anchor="start" x="242.5" y="-136.2" font-family="Helvetica,sans-Serif" font-size="11.00" fill="#000000">creator_id</text>
<polygon fill="none" stroke="#000000" points="356.5,-128 356.5,-150 469.5,-150 469.5,-128 356.5,-128"/>
<text text-anchor="start" x="359.5" y="-136.2" font-family="Helvetica,sans-Serif" font-size="11.00" fill="#000000">int unsigned[10]</text>
<polygon fill="#ffffff" stroke="transparent" points="222.5,-110 222.5,-128 280.5,-128 280.5,-110 222.5,-110"/>
<polygon fill="none" stroke="#000000" points="222.5,-110 222.5,-128 280.5,-128 280.5,-110 222.5,-110"/>
<text text-anchor="start" x="225.5" y="-116.2" font-family="Helvetica,sans-Serif" font-size="11.00" fill="#000000">&lt; 1</text>
<polygon fill="#ffffff" stroke="transparent" points="280.5,-110 280.5,-128 356.5,-128 356.5,-110 280.5,-110"/>
<polygon fill="none" stroke="#000000" points="280.5,-110 280.5,-128 356.5,-128 356.5,-110 280.5,-110"/>
<text text-anchor="start" x="320.5" y="-116.2" font-family="Helvetica,sans-Serif" font-size="11.00" fill="#000000">0 rows</text>
<polygon fill="#ffffff" stroke="transparent" points="356.5,-110 356.5,-128 469.5,-128 469.5,-110 356.5,-110"/>
<polygon fill="none" stroke="#000000" points="356.5,-110 356.5,-128 469.5,-128 469.5,-110 356.5,-110"/>
<text text-anchor="start" x="450.5" y="-116.2" font-family="Helvetica,sans-Serif" font-size="11.00" fill="#000000">2 &gt;</text>
<polygon fill="none" stroke="#000000" stroke-width="2" points="221,-109 221,-283 470,-283 470,-109 221,-109"/>
</a>
</g>
</g>
<!-- user -->
<g id="node2" class="node">
<title>user</title>
<g id="a_node2"><a xlink:href="../../tables/user.html" xlink:title="user" target="_top">
<polygon fill="#ffffff" stroke="transparent" points="8,-42 8,-144 171,-144 171,-42 8,-42"/>
<polygon fill="#f5f5f5" stroke="transparent" points="8.5,-122 8.5,-144 171.5,-144 171.5,-122 8.5,-122"/>
<polygon fill="none" stroke="#000000" points="8.5,-122 8.5,-144 171.5,-144 171.5,-122 8.5,-122"/>
<text text-anchor="start" x="13.5" y="-131.2" font-family="Helvetica,sans-Serif" font-weight="bold" font-size="11.00" fill="#000000">user</text>
<text text-anchor="start" x="136.5" y="-130.2" font-family="Helvetica,sans-Serif" font-size="11.00" fill="#000000">[table]</text>
<polygon fill="none" stroke="#000000" points="8.5,-100 8.5,-122 171.5,-122 171.5,-100 8.5,-100"/>
<image xlink:href="../../images/primaryKeys.png" width="11px" height="12px" preserveAspectRatio="xMinYMin meet" x="13.5" y="-117"/>
<text text-anchor="start" x="28.5" y="-108.2" font-family="Helvetica,sans-Serif" font-size="11.00" fill="#000000">user_id</text>
<polygon fill="#ffffff" stroke="transparent" points="8.5,-78 8.5,-100 171.5,-100 171.5,-78 8.5,-78"/>
<polygon fill="none" stroke="#000000" points="8.5,-78 8.5,-100 171.5,-100 171.5,-78 8.5,-78"/>
<text text-anchor="start" x="28.5" y="-86.2" font-family="Helvetica,sans-Serif" font-size="11.00" fill="#000000">email</text>
<polygon fill="none" stroke="#000000" points="8.5,-60 8.5,-78 171.5,-78 171.5,-60 8.5,-60"/>
<text text-anchor="start" x="11.5" y="-66.2" font-family="Helvetica,sans-Serif" font-size="11.00" fill="#000000">...</text>
<polygon fill="#ffffff" stroke="transparent" points="8.5,-42 8.5,-60 62.5,-60 62.5,-42 8.5,-42"/>
<polygon fill="none" stroke="#000000" points="8.5,-42 8.5,-60 62.5,-60 62.5,-42 8.5,-42"/>
<text text-anchor="start" x="11.5" y="-48.2" font-family="Helvetica,sans-Serif" font-size="11.00" fill="#000000"> &#160;</text>
<polygon fill="#ffffff" stroke="transparent" points="62.5,-42 62.5,-60 122.5,-60 122.5,-42 62.5,-42"/>
<polygon fill="none" stroke="#000000" points="62.5,-42 62.5,-60 122.5,-60 122.5,-42 62.5,-42"/>
<text text-anchor="start" x="86.5" y="-48.2" font-family="Helvetica,sans-Serif" font-size="11.00" fill="#000000">3 rows</text>
<polygon fill="#ffffff" stroke="transparent" points="122.5,-42 122.5,-60 171.5,-60 171.5,-42 122.5,-42"/>
<polygon fill="none" stroke="#000000" points="122.5,-42 122.5,-60 171.5,-60 171.5,-42 122.5,-42"/>
<text text-anchor="start" x="146.5" y="-48.2" font-family="Helvetica,sans-Serif" font-size="11.00" fill="#000000">40 &gt;</text>
</a>
</g>
</g>
<!-- font_file&#45;&gt;user -->
<g id="edge1" class="edge">
<title>font_file:w&#45;&gt;user:e</title>
<path fill="none" stroke="#000000" d="M208.3987,-135.3395C195.6024,-127.7498 191.4996,-111 171.5,-111"/>
<polygon fill="#000000" stroke="#000000" points="214.7566,-136.9899 221.5954,-142.4845 218.6283,-137.9949 222.5,-139 222.5,-139 222.5,-139 218.6283,-137.9949 223.4046,-135.5155 214.7566,-136.9899 214.7566,-136.9899"/>
<ellipse fill="none" stroke="#000000" cx="211.6593" cy="-136.1858" rx="3.2" ry="3.2"/>
</g>
<!-- font_file_owner -->
<g id="node3" class="node">
<title>font_file_owner</title>
<g id="a_node3"><a xlink:href="../../tables/font_file_owner.html" xlink:title="font_file_owner" target="_top">
<polygon fill="#ffffff" stroke="transparent" points="549,-182 549,-288 682,-288 682,-182 549,-182"/>
<polygon fill="#f5f5f5" stroke="transparent" points="549.5,-266 549.5,-288 682.5,-288 682.5,-266 549.5,-266"/>
<polygon fill="none" stroke="#000000" points="549.5,-266 549.5,-288 682.5,-288 682.5,-266 549.5,-266"/>
<text text-anchor="start" x="554.5" y="-275.2" font-family="Helvetica,sans-Serif" font-weight="bold" font-size="11.00" fill="#000000">font_file_owner</text>
<text text-anchor="start" x="647.5" y="-274.2" font-family="Helvetica,sans-Serif" font-size="11.00" fill="#000000">[table]</text>
<polygon fill="none" stroke="#000000" points="549.5,-244 549.5,-266 682.5,-266 682.5,-244 549.5,-244"/>
<image xlink:href="../../images/primaryKeys.png" width="11px" height="12px" preserveAspectRatio="xMinYMin meet" x="554.5" y="-261"/>
<text text-anchor="start" x="569.5" y="-252.2" font-family="Helvetica,sans-Serif" font-size="11.00" fill="#000000">font_file_id</text>
<polygon fill="#ffffff" stroke="transparent" points="549.5,-222 549.5,-244 682.5,-244 682.5,-222 549.5,-222"/>
<polygon fill="none" stroke="#000000" points="549.5,-222 549.5,-244 682.5,-244 682.5,-222 549.5,-222"/>
<image xlink:href="../../images/foreignKeys.png" width="11px" height="12px" preserveAspectRatio="xMinYMin meet" x="554.5" y="-239"/>
<text text-anchor="start" x="569.5" y="-230.2" font-family="Helvetica,sans-Serif" font-size="11.00" fill="#000000">edition_editor_id</text>
<polygon fill="none" stroke="#000000" points="549.5,-200 549.5,-222 682.5,-222 682.5,-200 549.5,-200"/>
<image xlink:href="../../images/primaryKeys.png" width="11px" height="12px" preserveAspectRatio="xMinYMin meet" x="554.5" y="-217"/>
<text text-anchor="start" x="569.5" y="-208.2" font-family="Helvetica,sans-Serif" font-size="11.00" fill="#000000">edition_id</text>
<polygon fill="#ffffff" stroke="transparent" points="549.5,-182 549.5,-200 600.5,-200 600.5,-182 549.5,-182"/>
<polygon fill="none" stroke="#000000" points="549.5,-182 549.5,-200 600.5,-200 600.5,-182 549.5,-182"/>
<text text-anchor="start" x="552.5" y="-188.2" font-family="Helvetica,sans-Serif" font-size="11.00" fill="#000000">&lt; 3</text>
<polygon fill="#ffffff" stroke="transparent" points="600.5,-182 600.5,-200 654.5,-200 654.5,-182 600.5,-182"/>
<polygon fill="none" stroke="#000000" points="600.5,-182 600.5,-200 654.5,-200 654.5,-182 600.5,-182"/>
<text text-anchor="start" x="618.5" y="-188.2" font-family="Helvetica,sans-Serif" font-size="11.00" fill="#000000">0 rows</text>
<polygon fill="#ffffff" stroke="transparent" points="654.5,-182 654.5,-200 682.5,-200 682.5,-182 654.5,-182"/>
<polygon fill="none" stroke="#000000" points="654.5,-182 654.5,-200 682.5,-200 682.5,-182 654.5,-182"/>
<text text-anchor="start" x="672.5" y="-188.2" font-family="Helvetica,sans-Serif" font-size="11.00" fill="#000000"> &#160;</text>
</a>
</g>
</g>
<!-- font_file_owner&#45;&gt;font_file -->
<g id="edge2" class="edge">
<title>font_file_owner:w&#45;&gt;font_file:e</title>
<path fill="none" stroke="#000000" d="M534.8912,-254.6247C510.5713,-253.3111 499.7235,-249 469.5,-249"/>
<polygon fill="#000000" stroke="#000000" points="541.5026,-254.7945 549.4075,-258.5988 545.5013,-254.8972 549.5,-255 549.5,-255 549.5,-255 545.5013,-254.8972 549.5925,-251.4012 541.5026,-254.7945 541.5026,-254.7945"/>
<ellipse fill="none" stroke="#000000" cx="538.3037" cy="-254.7123" rx="3.2" ry="3.2"/>
</g>
<!-- scribal_font -->
<g id="node4" class="node">
<title>scribal_font</title>
<g id="a_node4"><a xlink:href="../../tables/scribal_font.html" xlink:title="scribal_font" target="_top">
<polygon fill="#ffffff" stroke="transparent" points="520,-37 520,-161 711,-161 711,-37 520,-37"/>
<polygon fill="#f5f5f5" stroke="transparent" points="520.5,-139 520.5,-161 711.5,-161 711.5,-139 520.5,-139"/>
<polygon fill="none" stroke="#000000" points="520.5,-139 520.5,-161 711.5,-161 711.5,-139 520.5,-139"/>
<text text-anchor="start" x="525.5" y="-148.2" font-family="Helvetica,sans-Serif" font-weight="bold" font-size="11.00" fill="#000000">scribal_font</text>
<text text-anchor="start" x="676.5" y="-147.2" font-family="Helvetica,sans-Serif" font-size="11.00" fill="#000000">[table]</text>
<polygon fill="none" stroke="#000000" points="520.5,-117 520.5,-139 711.5,-139 711.5,-117 520.5,-117"/>
<image xlink:href="../../images/primaryKeys.png" width="11px" height="12px" preserveAspectRatio="xMinYMin meet" x="525.5" y="-134"/>
<text text-anchor="start" x="540.5" y="-125.2" font-family="Helvetica,sans-Serif" font-size="11.00" fill="#000000">scribal_font_id</text>
<polygon fill="none" stroke="#000000" points="520.5,-95 520.5,-117 711.5,-117 711.5,-95 520.5,-95"/>
<image xlink:href="../../images/foreignKeys.png" width="11px" height="12px" preserveAspectRatio="xMinYMin meet" x="525.5" y="-112"/>
<text text-anchor="start" x="540.5" y="-103.2" font-family="Helvetica,sans-Serif" font-size="11.00" fill="#000000">font_file_id</text>
<polygon fill="#ffffff" stroke="transparent" points="520.5,-73 520.5,-95 711.5,-95 711.5,-73 520.5,-73"/>
<polygon fill="none" stroke="#000000" points="520.5,-73 520.5,-95 711.5,-95 711.5,-73 520.5,-73"/>
<image xlink:href="../../images/foreignKeys.png" width="11px" height="12px" preserveAspectRatio="xMinYMin meet" x="525.5" y="-90"/>
<text text-anchor="start" x="540.5" y="-81.2" font-family="Helvetica,sans-Serif" font-size="11.00" fill="#000000">creator_id</text>
<polygon fill="none" stroke="#000000" points="520.5,-55 520.5,-73 711.5,-73 711.5,-55 520.5,-55"/>
<text text-anchor="start" x="523.5" y="-61.2" font-family="Helvetica,sans-Serif" font-size="11.00" fill="#000000">...</text>
<polygon fill="#ffffff" stroke="transparent" points="520.5,-37 520.5,-55 596.5,-55 596.5,-37 520.5,-37"/>
<polygon fill="none" stroke="#000000" points="520.5,-37 520.5,-55 596.5,-55 596.5,-37 520.5,-37"/>
<text text-anchor="start" x="523.5" y="-43.2" font-family="Helvetica,sans-Serif" font-size="11.00" fill="#000000">&lt; 2</text>
<polygon fill="#ffffff" stroke="transparent" points="596.5,-37 596.5,-55 662.5,-55 662.5,-37 596.5,-37"/>
<polygon fill="none" stroke="#000000" points="596.5,-37 596.5,-55 662.5,-55 662.5,-37 596.5,-37"/>
<text text-anchor="start" x="626.5" y="-43.2" font-family="Helvetica,sans-Serif" font-size="11.00" fill="#000000">0 rows</text>
<polygon fill="#ffffff" stroke="transparent" points="662.5,-37 662.5,-55 711.5,-55 711.5,-37 662.5,-37"/>
<polygon fill="none" stroke="#000000" points="662.5,-37 662.5,-55 711.5,-55 711.5,-37 662.5,-37"/>
<text text-anchor="start" x="692.5" y="-43.2" font-family="Helvetica,sans-Serif" font-size="11.00" fill="#000000">4 &gt;</text>
</a>
</g>
</g>
<!-- scribal_font&#45;&gt;font_file -->
<g id="edge4" class="edge">
<title>scribal_font:w&#45;&gt;font_file:e</title>
<path fill="none" stroke="#000000" stroke-dasharray="5,2" d="M506.2665,-108.9868C466.3345,-129.522 531.1778,-249 469.5,-249"/>
<polygon fill="#000000" stroke="#000000" points="512.6705,-107.643 521.2393,-109.5233 516.5853,-106.8215 520.5,-106 520.5,-106 520.5,-106 516.5853,-106.8215 519.7607,-102.4767 512.6705,-107.643 512.6705,-107.643"/>
<ellipse fill="none" stroke="#000000" cx="509.5387" cy="-108.3002" rx="3.2" ry="3.2"/>
</g>
<!-- scribal_font&#45;&gt;user -->
<g id="edge3" class="edge">
<title>scribal_font:w&#45;&gt;user:e</title>
<path fill="none" stroke="#000000" d="M506.0086,-83.9618C380.5052,-83.3009 342.2033,-74.5794 212,-98 193.394,-101.3468 190.4046,-111 171.5,-111"/>
<polygon fill="#000000" stroke="#000000" points="512.5,-83.9788 520.4905,-87.6 516.5,-83.9894 520.5,-84 520.5,-84 520.5,-84 516.5,-83.9894 520.5095,-80.4 512.5,-83.9788 512.5,-83.9788"/>
<ellipse fill="none" stroke="#000000" cx="509.3" cy="-83.9704" rx="3.2" ry="3.2"/>
</g>
</g>
</svg>
