<?xml version="1.0" encoding="UTF-8" standalone="no"?>
<!DOCTYPE svg PUBLIC "-//W3C//DTD SVG 1.1//EN"
 "http://www.w3.org/Graphics/SVG/1.1/DTD/svg11.dtd">
<!-- Generated by graphviz version 2.43.0 (0)
 -->
<!-- Title: twoDegreesRelationshipsDiagram Pages: 1 -->
<svg width="983pt" height="509pt"
 viewBox="0.00 0.00 983.00 509.50" xmlns="http://www.w3.org/2000/svg" xmlns:xlink="http://www.w3.org/1999/xlink">
<g id="graph0" class="graph" transform="scale(1 1) rotate(0) translate(4 505.5)">
<title>twoDegreesRelationshipsDiagram</title>
<polygon fill="#ffffff" stroke="transparent" points="-4,4 -4,-505.5 979,-505.5 979,4 -4,4"/>
<text text-anchor="middle" x="79.5" y="-7.2" font-family="Helvetica,sans-Serif" font-size="11.00">Generated by SchemaSpy</text>
<!-- char_of_writing -->
<g id="node1" class="node">
<title>char_of_writing</title>
<g id="a_node1"><a xlink:href="../../tables/char_of_writing.html" xlink:title="char_of_writing" target="_top">
<polygon fill="#ffffff" stroke="transparent" points="558,-373.5 558,-497.5 703,-497.5 703,-373.5 558,-373.5"/>
<polygon fill="#f5f5f5" stroke="transparent" points="558.5,-475.5 558.5,-497.5 703.5,-497.5 703.5,-475.5 558.5,-475.5"/>
<polygon fill="none" stroke="black" points="558.5,-475.5 558.5,-497.5 703.5,-497.5 703.5,-475.5 558.5,-475.5"/>
<text text-anchor="start" x="563.5" y="-484.7" font-family="Helvetica,sans-Serif" font-weight="bold" font-size="11.00">char_of_writing</text>
<text text-anchor="start" x="661.5" y="-483.7" font-family="Helvetica,sans-Serif" font-size="11.00">[table]</text>
<polygon fill="none" stroke="black" points="558.5,-453.5 558.5,-475.5 703.5,-475.5 703.5,-453.5 558.5,-453.5"/>
<image xlink:href="../../images/primaryKeys.png" width="11px" height="12px" preserveAspectRatio="xMinYMin meet" x="563.5" y="-470.496"/>
<text text-anchor="start" x="578.5" y="-461.7" font-family="Helvetica,sans-Serif" font-size="11.00">char_of_writing_id</text>
<polygon fill="none" stroke="black" points="558.5,-431.5 558.5,-453.5 703.5,-453.5 703.5,-431.5 558.5,-431.5"/>
<image xlink:href="../../images/primaryKeys.png" width="11px" height="12px" preserveAspectRatio="xMinYMin meet" x="563.5" y="-448.496"/>
<text text-anchor="start" x="578.5" y="-439.7" font-family="Helvetica,sans-Serif" font-size="11.00">form_of_writing_id</text>
<polygon fill="#ffffff" stroke="transparent" points="558.5,-409.5 558.5,-431.5 703.5,-431.5 703.5,-409.5 558.5,-409.5"/>
<polygon fill="none" stroke="black" points="558.5,-409.5 558.5,-431.5 703.5,-431.5 703.5,-409.5 558.5,-409.5"/>
<text text-anchor="start" x="578.5" y="-417.7" font-family="Helvetica,sans-Serif" font-size="11.00">unicode_char</text>
<polygon fill="none" stroke="black" points="558.5,-391.5 558.5,-409.5 703.5,-409.5 703.5,-391.5 558.5,-391.5"/>
<text text-anchor="start" x="561.5" y="-397.7" font-family="Helvetica,sans-Serif" font-size="11.00">...</text>
<polygon fill="#ffffff" stroke="transparent" points="558.5,-373.5 558.5,-391.5 609.5,-391.5 609.5,-373.5 558.5,-373.5"/>
<polygon fill="none" stroke="black" points="558.5,-373.5 558.5,-391.5 609.5,-391.5 609.5,-373.5 558.5,-373.5"/>
<text text-anchor="start" x="561.5" y="-379.7" font-family="Helvetica,sans-Serif" font-size="11.00">&lt; 1</text>
<polygon fill="#ffffff" stroke="transparent" points="609.5,-373.5 609.5,-391.5 664.5,-391.5 664.5,-373.5 609.5,-373.5"/>
<polygon fill="none" stroke="black" points="609.5,-373.5 609.5,-391.5 664.5,-391.5 664.5,-373.5 609.5,-373.5"/>
<text text-anchor="start" x="624.5" y="-379.7" font-family="Helvetica,sans-Serif" font-size="11.00">0 rows</text>
<polygon fill="#ffffff" stroke="transparent" points="664.5,-373.5 664.5,-391.5 703.5,-391.5 703.5,-373.5 664.5,-373.5"/>
<polygon fill="none" stroke="black" points="664.5,-373.5 664.5,-391.5 703.5,-391.5 703.5,-373.5 664.5,-373.5"/>
<text text-anchor="start" x="680.5" y="-379.7" font-family="Helvetica,sans-Serif" font-size="11.00">2 &gt;</text>
</a>
</g>
</g>
<!-- form_of_writing -->
<g id="node2" class="node">
<title>form_of_writing</title>
<g id="a_node2"><a xlink:href="../../tables/form_of_writing.html" xlink:title="form_of_writing" target="_top">
<polygon fill="#ffffff" stroke="transparent" points="213,-271.5 213,-425.5 482,-425.5 482,-271.5 213,-271.5"/>
<polygon fill="#f5f5f5" stroke="transparent" points="215.5,-401.5 215.5,-423.5 480.5,-423.5 480.5,-401.5 215.5,-401.5"/>
<polygon fill="none" stroke="black" points="215.5,-401.5 215.5,-423.5 480.5,-423.5 480.5,-401.5 215.5,-401.5"/>
<text text-anchor="start" x="220.5" y="-410.7" font-family="Helvetica,sans-Serif" font-weight="bold" font-size="11.00">form_of_writing</text>
<text text-anchor="start" x="438.5" y="-409.7" font-family="Helvetica,sans-Serif" font-size="11.00">[table]</text>
<polygon fill="none" stroke="black" points="215.5,-379.5 215.5,-401.5 369.5,-401.5 369.5,-379.5 215.5,-379.5"/>
<image xlink:href="../../images/primaryKeys.png" width="11px" height="12px" preserveAspectRatio="xMinYMin meet" x="220.5" y="-396.496"/>
<text text-anchor="start" x="235.5" y="-387.7" font-family="Helvetica,sans-Serif" font-size="11.00">form_of_writing_id</text>
<polygon fill="none" stroke="black" points="369.5,-379.5 369.5,-401.5 480.5,-401.5 480.5,-379.5 369.5,-379.5"/>
<text text-anchor="start" x="372.5" y="-387.7" font-family="Helvetica,sans-Serif" font-size="11.00">int unsigned[10]</text>
<polygon fill="#ffffff" stroke="transparent" points="215.5,-357.5 215.5,-379.5 369.5,-379.5 369.5,-357.5 215.5,-357.5"/>
<polygon fill="none" stroke="black" points="215.5,-357.5 215.5,-379.5 369.5,-379.5 369.5,-357.5 215.5,-357.5"/>
<image xlink:href="../../images/foreignKeys.png" width="11px" height="12px" preserveAspectRatio="xMinYMin meet" x="220.5" y="-374.496"/>
<text text-anchor="start" x="235.5" y="-365.7" font-family="Helvetica,sans-Serif" font-size="11.00">scribes_scribe_id</text>
<polygon fill="none" stroke="black" points="369.5,-357.5 369.5,-379.5 480.5,-379.5 480.5,-357.5 369.5,-357.5"/>
<text text-anchor="start" x="372.5" y="-365.7" font-family="Helvetica,sans-Serif" font-size="11.00">int unsigned[10]</text>
<polygon fill="none" stroke="black" points="215.5,-335.5 215.5,-357.5 369.5,-357.5 369.5,-335.5 215.5,-335.5"/>
<text text-anchor="start" x="235.5" y="-343.7" font-family="Helvetica,sans-Serif" font-size="11.00">pen</text>
<polygon fill="none" stroke="black" points="369.5,-335.5 369.5,-357.5 480.5,-357.5 480.5,-335.5 369.5,-335.5"/>
<text text-anchor="start" x="372.5" y="-343.7" font-family="Helvetica,sans-Serif" font-size="11.00">tinyint unsigned[3]</text>
<polygon fill="none" stroke="black" points="215.5,-313.5 215.5,-335.5 369.5,-335.5 369.5,-313.5 215.5,-313.5"/>
<text text-anchor="start" x="235.5" y="-321.7" font-family="Helvetica,sans-Serif" font-size="11.00">ink</text>
<polygon fill="none" stroke="black" points="369.5,-313.5 369.5,-335.5 480.5,-335.5 480.5,-313.5 369.5,-313.5"/>
<text text-anchor="start" x="372.5" y="-321.7" font-family="Helvetica,sans-Serif" font-size="11.00">tinyint unsigned[3]</text>
<polygon fill="#ffffff" stroke="transparent" points="215.5,-291.5 215.5,-313.5 369.5,-313.5 369.5,-291.5 215.5,-291.5"/>
<polygon fill="none" stroke="black" points="215.5,-291.5 215.5,-313.5 369.5,-313.5 369.5,-291.5 215.5,-291.5"/>
<image xlink:href="../../images/foreignKeys.png" width="11px" height="12px" preserveAspectRatio="xMinYMin meet" x="220.5" y="-308.496"/>
<text text-anchor="start" x="235.5" y="-299.7" font-family="Helvetica,sans-Serif" font-size="11.00">scribal_font_type_id</text>
<polygon fill="none" stroke="black" points="369.5,-291.5 369.5,-313.5 480.5,-313.5 480.5,-291.5 369.5,-291.5"/>
<text text-anchor="start" x="372.5" y="-299.7" font-family="Helvetica,sans-Serif" font-size="11.00">int unsigned[10]</text>
<polygon fill="#ffffff" stroke="transparent" points="215.5,-273.5 215.5,-291.5 283.5,-291.5 283.5,-273.5 215.5,-273.5"/>
<polygon fill="none" stroke="black" points="215.5,-273.5 215.5,-291.5 283.5,-291.5 283.5,-273.5 215.5,-273.5"/>
<text text-anchor="start" x="218.5" y="-279.7" font-family="Helvetica,sans-Serif" font-size="11.00">&lt; 2</text>
<polygon fill="#ffffff" stroke="transparent" points="283.5,-273.5 283.5,-291.5 369.5,-291.5 369.5,-273.5 283.5,-273.5"/>
<polygon fill="none" stroke="black" points="283.5,-273.5 283.5,-291.5 369.5,-291.5 369.5,-273.5 283.5,-273.5"/>
<text text-anchor="start" x="329.5" y="-279.7" font-family="Helvetica,sans-Serif" font-size="11.00">0 rows</text>
<polygon fill="#ffffff" stroke="transparent" points="369.5,-273.5 369.5,-291.5 480.5,-291.5 480.5,-273.5 369.5,-273.5"/>
<polygon fill="none" stroke="black" points="369.5,-273.5 369.5,-291.5 480.5,-291.5 480.5,-273.5 369.5,-273.5"/>
<text text-anchor="start" x="457.5" y="-279.7" font-family="Helvetica,sans-Serif" font-size="11.00">2 &gt;</text>
<polygon fill="none" stroke="black" stroke-width="2" points="214,-272.5 214,-424.5 481,-424.5 481,-272.5 214,-272.5"/>
</a>
</g>
</g>
<!-- char_of_writing&#45;&gt;form_of_writing -->
<g id="edge1" class="edge">
<title>char_of_writing:w&#45;&gt;form_of_writing:e</title>
<path fill="none" stroke="black" d="M543.1,-439.85C517.3,-429.25 516.83,-390.5 481.5,-390.5"/>
<polygon fill="black" stroke="black" points="549.63,-441.05 556.85,-446.04 553.57,-441.77 557.5,-442.5 557.5,-442.5 557.5,-442.5 553.57,-441.77 558.15,-438.96 549.63,-441.05 549.63,-441.05"/>
<ellipse fill="none" stroke="black" cx="546.48" cy="-440.47" rx="3.2" ry="3.2"/>
</g>
<!-- scribal_font_type -->
<g id="node6" class="node">
<title>scribal_font_type</title>
<g id="a_node6"><a xlink:href="../../tables/scribal_font_type.html" xlink:title="scribal_font_type" target="_top">
<polygon fill="#ffffff" stroke="transparent" points="8,-204.5 8,-288.5 164,-288.5 164,-204.5 8,-204.5"/>
<polygon fill="#f5f5f5" stroke="transparent" points="8,-266.5 8,-288.5 164,-288.5 164,-266.5 8,-266.5"/>
<polygon fill="none" stroke="black" points="8,-266.5 8,-288.5 164,-288.5 164,-266.5 8,-266.5"/>
<text text-anchor="start" x="13" y="-275.7" font-family="Helvetica,sans-Serif" font-weight="bold" font-size="11.00">scribal_font_type</text>
<text text-anchor="start" x="122" y="-274.7" font-family="Helvetica,sans-Serif" font-size="11.00">[table]</text>
<polygon fill="none" stroke="black" points="8,-244.5 8,-266.5 164,-266.5 164,-244.5 8,-244.5"/>
<image xlink:href="../../images/primaryKeys.png" width="11px" height="12px" preserveAspectRatio="xMinYMin meet" x="13" y="-261.496"/>
<text text-anchor="start" x="29" y="-252.7" font-family="Helvetica,sans-Serif" font-size="11.00">scribal_font_type_id</text>
<polygon fill="#ffffff" stroke="transparent" points="8,-222.5 8,-244.5 164,-244.5 164,-222.5 8,-222.5"/>
<polygon fill="none" stroke="black" points="8,-222.5 8,-244.5 164,-244.5 164,-222.5 8,-222.5"/>
<text text-anchor="start" x="29" y="-230.7" font-family="Helvetica,sans-Serif" font-size="11.00">font_name</text>
<polygon fill="#ffffff" stroke="transparent" points="8,-204.5 8,-222.5 58,-222.5 58,-204.5 8,-204.5"/>
<polygon fill="none" stroke="black" points="8,-204.5 8,-222.5 58,-222.5 58,-204.5 8,-204.5"/>
<text text-anchor="start" x="11" y="-210.7" font-family="Helvetica,sans-Serif" font-size="11.00"> &#160;</text>
<polygon fill="#ffffff" stroke="transparent" points="58,-204.5 58,-222.5 119,-222.5 119,-204.5 58,-204.5"/>
<polygon fill="none" stroke="black" points="58,-204.5 58,-222.5 119,-222.5 119,-204.5 58,-204.5"/>
<text text-anchor="start" x="79" y="-210.7" font-family="Helvetica,sans-Serif" font-size="11.00">0 rows</text>
<polygon fill="#ffffff" stroke="transparent" points="119,-204.5 119,-222.5 164,-222.5 164,-204.5 119,-204.5"/>
<polygon fill="none" stroke="black" points="119,-204.5 119,-222.5 164,-222.5 164,-204.5 119,-204.5"/>
<text text-anchor="start" x="141" y="-210.7" font-family="Helvetica,sans-Serif" font-size="11.00">2 &gt;</text>
</a>
</g>
</g>
<!-- form_of_writing&#45;&gt;scribal_font_type -->
<g id="edge6" class="edge">
<title>form_of_writing:w&#45;&gt;scribal_font_type:e</title>
<path fill="none" stroke="black" d="M200.86,-297.82C186.94,-285.93 189.41,-255.5 165,-255.5"/>
<polygon fill="black" stroke="black" points="206.93,-299.9 213.33,-305.9 210.72,-301.2 214.5,-302.5 214.5,-302.5 214.5,-302.5 210.72,-301.2 215.67,-299.09 206.93,-299.9 206.93,-299.9"/>
<ellipse fill="none" stroke="black" cx="203.91" cy="-298.86" rx="3.2" ry="3.2"/>
</g>
<!-- scribe -->
<g id="node7" class="node">
<title>scribe</title>
<g id="a_node7"><a xlink:href="../../tables/scribe.html" xlink:title="scribe" target="_top">
<polygon fill="#ffffff" stroke="transparent" points="37.5,-361.5 37.5,-441.5 134.5,-441.5 134.5,-361.5 37.5,-361.5"/>
<polygon fill="#f5f5f5" stroke="transparent" points="38,-419.5 38,-441.5 135,-441.5 135,-419.5 38,-419.5"/>
<polygon fill="none" stroke="black" points="38,-419.5 38,-441.5 135,-441.5 135,-419.5 38,-419.5"/>
<text text-anchor="start" x="43" y="-428.7" font-family="Helvetica,sans-Serif" font-weight="bold" font-size="11.00">scribe</text>
<text text-anchor="start" x="93" y="-427.7" font-family="Helvetica,sans-Serif" font-size="11.00">[table]</text>
<polygon fill="none" stroke="black" points="38,-397.5 38,-419.5 135,-419.5 135,-397.5 38,-397.5"/>
<image xlink:href="../../images/primaryKeys.png" width="11px" height="12px" preserveAspectRatio="xMinYMin meet" x="43" y="-414.496"/>
<text text-anchor="start" x="58" y="-405.7" font-family="Helvetica,sans-Serif" font-size="11.00">scribe_id</text>
<polygon fill="none" stroke="black" points="38,-379.5 38,-397.5 135,-397.5 135,-379.5 38,-379.5"/>
<text text-anchor="start" x="41" y="-385.7" font-family="Helvetica,sans-Serif" font-size="11.00">...</text>
<polygon fill="#ffffff" stroke="transparent" points="38,-361.5 38,-379.5 59,-379.5 59,-361.5 38,-361.5"/>
<polygon fill="none" stroke="black" points="38,-361.5 38,-379.5 59,-379.5 59,-361.5 38,-361.5"/>
<text text-anchor="start" x="41" y="-367.7" font-family="Helvetica,sans-Serif" font-size="11.00"> &#160;</text>
<polygon fill="#ffffff" stroke="transparent" points="59,-361.5 59,-379.5 105,-379.5 105,-361.5 59,-361.5"/>
<polygon fill="none" stroke="black" points="59,-361.5 59,-379.5 105,-379.5 105,-361.5 59,-361.5"/>
<text text-anchor="start" x="65" y="-367.7" font-family="Helvetica,sans-Serif" font-size="11.00">0 rows</text>
<polygon fill="#ffffff" stroke="transparent" points="105,-361.5 105,-379.5 135,-379.5 135,-361.5 105,-361.5"/>
<polygon fill="none" stroke="black" points="105,-361.5 105,-379.5 135,-379.5 135,-361.5 105,-361.5"/>
<text text-anchor="start" x="112" y="-367.7" font-family="Helvetica,sans-Serif" font-size="11.00">2 &gt;</text>
</a>
</g>
</g>
<!-- form_of_writing&#45;&gt;scribe -->
<g id="edge7" class="edge">
<title>form_of_writing:w&#45;&gt;scribe:e</title>
<path fill="none" stroke="black" d="M200.08,-370.65C174.52,-378.95 169.65,-408.5 136,-408.5"/>
<polygon fill="black" stroke="black" points="206.59,-369.68 215.03,-372.06 210.54,-369.09 214.5,-368.5 214.5,-368.5 214.5,-368.5 210.54,-369.09 213.97,-364.94 206.59,-369.68 206.59,-369.68"/>
<ellipse fill="none" stroke="black" cx="203.42" cy="-370.15" rx="3.2" ry="3.2"/>
</g>
<!-- char_of_writing_owner -->
<g id="node3" class="node">
<title>char_of_writing_owner</title>
<g id="a_node3"><a xlink:href="../../tables/char_of_writing_owner.html" xlink:title="char_of_writing_owner" target="_top">
<polygon fill="#ffffff" stroke="transparent" points="779,-243.5 779,-301.5 967,-301.5 967,-243.5 779,-243.5"/>
<polygon fill="#f5f5f5" stroke="transparent" points="779,-279.5 779,-301.5 967,-301.5 967,-279.5 779,-279.5"/>
<polygon fill="none" stroke="black" points="779,-279.5 779,-301.5 967,-301.5 967,-279.5 779,-279.5"/>
<text text-anchor="start" x="784" y="-288.7" font-family="Helvetica,sans-Serif" font-weight="bold" font-size="11.00">char_of_writing_owner</text>
<text text-anchor="start" x="925" y="-287.7" font-family="Helvetica,sans-Serif" font-size="11.00">[table]</text>
<polygon fill="none" stroke="black" points="779,-261.5 779,-279.5 967,-279.5 967,-261.5 779,-261.5"/>
<text text-anchor="start" x="782" y="-267.7" font-family="Helvetica,sans-Serif" font-size="11.00">...</text>
<polygon fill="#ffffff" stroke="transparent" points="779,-243.5 779,-261.5 857,-261.5 857,-243.5 779,-243.5"/>
<polygon fill="none" stroke="black" points="779,-243.5 779,-261.5 857,-261.5 857,-243.5 779,-243.5"/>
<text text-anchor="start" x="782" y="-249.7" font-family="Helvetica,sans-Serif" font-size="11.00">&lt; 3</text>
<polygon fill="#ffffff" stroke="transparent" points="857,-243.5 857,-261.5 926,-261.5 926,-243.5 857,-243.5"/>
<polygon fill="none" stroke="black" points="857,-243.5 857,-261.5 926,-261.5 926,-243.5 857,-243.5"/>
<text text-anchor="start" x="886" y="-249.7" font-family="Helvetica,sans-Serif" font-size="11.00">0 rows</text>
<polygon fill="#ffffff" stroke="transparent" points="926,-243.5 926,-261.5 967,-261.5 967,-243.5 926,-243.5"/>
<polygon fill="none" stroke="black" points="926,-243.5 926,-261.5 967,-261.5 967,-243.5 926,-243.5"/>
<text text-anchor="start" x="956" y="-249.7" font-family="Helvetica,sans-Serif" font-size="11.00"> &#160;</text>
</a>
</g>
</g>
<!-- char_of_writing_owner&#45;&gt;char_of_writing -->
<g id="edge2" class="edge">
<title>char_of_writing_owner:w&#45;&gt;char_of_writing:e</title>
<path fill="none" stroke="black" d="M763.4,-272.54C698.48,-293.28 791.12,-464.5 704.5,-464.5"/>
<polygon fill="black" stroke="black" points="770.08,-271.61 778.5,-274.06 774.04,-271.05 778,-270.5 778,-270.5 778,-270.5 774.04,-271.05 777.5,-266.93 770.08,-271.61 770.08,-271.61"/>
<ellipse fill="none" stroke="black" cx="766.91" cy="-272.05" rx="3.2" ry="3.2"/>
</g>
<!-- edition_editor -->
<g id="node4" class="node">
<title>edition_editor</title>
<g id="a_node4"><a xlink:href="../../tables/edition_editor.html" xlink:title="edition_editor" target="_top">
<polygon fill="#ffffff" stroke="transparent" points="279.5,-165.5 279.5,-223.5 415.5,-223.5 415.5,-165.5 279.5,-165.5"/>
<polygon fill="#f5f5f5" stroke="transparent" points="279.5,-201.5 279.5,-223.5 415.5,-223.5 415.5,-201.5 279.5,-201.5"/>
<polygon fill="none" stroke="black" points="279.5,-201.5 279.5,-223.5 415.5,-223.5 415.5,-201.5 279.5,-201.5"/>
<text text-anchor="start" x="284.5" y="-210.7" font-family="Helvetica,sans-Serif" font-weight="bold" font-size="11.00">edition_editor</text>
<text text-anchor="start" x="373.5" y="-209.7" font-family="Helvetica,sans-Serif" font-size="11.00">[table]</text>
<polygon fill="none" stroke="black" points="279.5,-183.5 279.5,-201.5 415.5,-201.5 415.5,-183.5 279.5,-183.5"/>
<text text-anchor="start" x="282.5" y="-189.7" font-family="Helvetica,sans-Serif" font-size="11.00">...</text>
<polygon fill="#ffffff" stroke="transparent" points="279.5,-165.5 279.5,-183.5 310.5,-183.5 310.5,-165.5 279.5,-165.5"/>
<polygon fill="none" stroke="black" points="279.5,-165.5 279.5,-183.5 310.5,-183.5 310.5,-165.5 279.5,-165.5"/>
<text text-anchor="start" x="282.5" y="-171.7" font-family="Helvetica,sans-Serif" font-size="11.00">&lt; 2</text>
<polygon fill="#ffffff" stroke="transparent" points="310.5,-165.5 310.5,-183.5 379.5,-183.5 379.5,-165.5 310.5,-165.5"/>
<polygon fill="none" stroke="black" points="310.5,-165.5 310.5,-183.5 379.5,-183.5 379.5,-165.5 310.5,-165.5"/>
<text text-anchor="start" x="315.5" y="-171.7" font-family="Helvetica,sans-Serif" font-size="11.00">1,645 rows</text>
<polygon fill="#ffffff" stroke="transparent" points="379.5,-165.5 379.5,-183.5 415.5,-183.5 415.5,-165.5 379.5,-165.5"/>
<polygon fill="none" stroke="black" points="379.5,-165.5 379.5,-183.5 415.5,-183.5 415.5,-165.5 379.5,-165.5"/>
<text text-anchor="start" x="385.5" y="-171.7" font-family="Helvetica,sans-Serif" font-size="11.00">29 &gt;</text>
</a>
</g>
</g>
<!-- char_of_writing_owner&#45;&gt;edition_editor -->
<g id="edge3" class="edge">
<title>char_of_writing_owner:w&#45;&gt;edition_editor:e</title>
<path fill="none" stroke="black" d="M763.49,-270.6C661.45,-272.09 626.73,-288.35 523,-256.5 496.61,-248.39 444.11,-192.5 416.5,-192.5"/>
<polygon fill="black" stroke="black" points="770,-270.55 778.03,-274.1 774,-270.53 778,-270.5 778,-270.5 778,-270.5 774,-270.53 777.97,-266.9 770,-270.55 770,-270.55"/>
<ellipse fill="none" stroke="black" cx="766.8" cy="-270.58" rx="3.2" ry="3.2"/>
</g>
<!-- edition -->
<g id="node5" class="node">
<title>edition</title>
<g id="a_node5"><a xlink:href="../../tables/edition.html" xlink:title="edition" target="_top">
<polygon fill="#ffffff" stroke="transparent" points="23,-114.5 23,-172.5 149,-172.5 149,-114.5 23,-114.5"/>
<polygon fill="#f5f5f5" stroke="transparent" points="23,-150.5 23,-172.5 149,-172.5 149,-150.5 23,-150.5"/>
<polygon fill="none" stroke="black" points="23,-150.5 23,-172.5 149,-172.5 149,-150.5 23,-150.5"/>
<text text-anchor="start" x="28" y="-159.7" font-family="Helvetica,sans-Serif" font-weight="bold" font-size="11.00">edition</text>
<text text-anchor="start" x="107" y="-158.7" font-family="Helvetica,sans-Serif" font-size="11.00">[table]</text>
<polygon fill="none" stroke="black" points="23,-132.5 23,-150.5 149,-150.5 149,-132.5 23,-132.5"/>
<text text-anchor="start" x="26" y="-138.7" font-family="Helvetica,sans-Serif" font-size="11.00">...</text>
<polygon fill="#ffffff" stroke="transparent" points="23,-114.5 23,-132.5 49,-132.5 49,-114.5 23,-114.5"/>
<polygon fill="none" stroke="black" points="23,-114.5 23,-132.5 49,-132.5 49,-114.5 23,-114.5"/>
<text text-anchor="start" x="26" y="-120.7" font-family="Helvetica,sans-Serif" font-size="11.00">&lt; 1</text>
<polygon fill="#ffffff" stroke="transparent" points="49,-114.5 49,-132.5 116,-132.5 116,-114.5 49,-114.5"/>
<polygon fill="none" stroke="black" points="49,-114.5 49,-132.5 116,-132.5 116,-114.5 49,-114.5"/>
<text text-anchor="start" x="52" y="-120.7" font-family="Helvetica,sans-Serif" font-size="11.00">1,645 rows</text>
<polygon fill="#ffffff" stroke="transparent" points="116,-114.5 116,-132.5 149,-132.5 149,-114.5 116,-114.5"/>
<polygon fill="none" stroke="black" points="116,-114.5 116,-132.5 149,-132.5 149,-114.5 116,-114.5"/>
<text text-anchor="start" x="119" y="-120.7" font-family="Helvetica,sans-Serif" font-size="11.00">31 &gt;</text>
</a>
</g>
</g>
<!-- char_of_writing_owner&#45;&gt;edition -->
<g id="edge4" class="edge">
<title>char_of_writing_owner:w&#45;&gt;edition:e</title>
<path fill="none" stroke="black" d="M763.29,-269.04C693.31,-253.08 809.98,-110.57 738,-50.5 686.83,-7.79 245.68,-55.57 205,-76.5 171.35,-93.8 187.84,-141.5 150,-141.5"/>
<polygon fill="black" stroke="black" points="770.04,-269.71 777.64,-274.08 774.02,-270.1 778,-270.5 778,-270.5 778,-270.5 774.02,-270.1 778.36,-266.91 770.04,-269.71 770.04,-269.71"/>
<ellipse fill="none" stroke="black" cx="766.85" cy="-269.39" rx="3.2" ry="3.2"/>
</g>
<!-- edition_editor&#45;&gt;edition -->
<g id="edge5" class="edge">
<title>edition_editor:w&#45;&gt;edition:e</title>
<path fill="none" stroke="black" d="M264.13,-191.48C215.72,-184.29 206.28,-141.5 150,-141.5"/>
<polygon fill="black" stroke="black" points="270.52,-191.93 278.25,-196.09 274.51,-192.21 278.5,-192.5 278.5,-192.5 278.5,-192.5 274.51,-192.21 278.75,-188.9 270.52,-191.93 270.52,-191.93"/>
<ellipse fill="none" stroke="black" cx="267.33" cy="-191.7" rx="3.2" ry="3.2"/>
</g>
<!-- form_of_writing_owner -->
<g id="node8" class="node">
<title>form_of_writing_owner</title>
<g id="a_node8"><a xlink:href="../../tables/form_of_writing_owner.html" xlink:title="form_of_writing_owner" target="_top">
<polygon fill="#ffffff" stroke="transparent" points="535.5,-140.5 535.5,-246.5 725.5,-246.5 725.5,-140.5 535.5,-140.5"/>
<polygon fill="#f5f5f5" stroke="transparent" points="535.5,-224.5 535.5,-246.5 725.5,-246.5 725.5,-224.5 535.5,-224.5"/>
<polygon fill="none" stroke="black" points="535.5,-224.5 535.5,-246.5 725.5,-246.5 725.5,-224.5 535.5,-224.5"/>
<text text-anchor="start" x="540.5" y="-233.7" font-family="Helvetica,sans-Serif" font-weight="bold" font-size="11.00">form_of_writing_owner</text>
<text text-anchor="start" x="683.5" y="-232.7" font-family="Helvetica,sans-Serif" font-size="11.00">[table]</text>
<polygon fill="none" stroke="black" points="535.5,-202.5 535.5,-224.5 725.5,-224.5 725.5,-202.5 535.5,-202.5"/>
<image xlink:href="../../images/primaryKeys.png" width="11px" height="12px" preserveAspectRatio="xMinYMin meet" x="540.5" y="-219.496"/>
<text text-anchor="start" x="563.5" y="-210.7" font-family="Helvetica,sans-Serif" font-size="11.00">form_of_writing_id</text>
<polygon fill="#ffffff" stroke="transparent" points="535.5,-180.5 535.5,-202.5 725.5,-202.5 725.5,-180.5 535.5,-180.5"/>
<polygon fill="none" stroke="black" points="535.5,-180.5 535.5,-202.5 725.5,-202.5 725.5,-180.5 535.5,-180.5"/>
<image xlink:href="../../images/foreignKeys.png" width="11px" height="12px" preserveAspectRatio="xMinYMin meet" x="540.5" y="-197.496"/>
<text text-anchor="start" x="563.5" y="-188.7" font-family="Helvetica,sans-Serif" font-size="11.00">edition_editor_id</text>
<polygon fill="none" stroke="black" points="535.5,-158.5 535.5,-180.5 725.5,-180.5 725.5,-158.5 535.5,-158.5"/>
<image xlink:href="../../images/primaryKeys.png" width="11px" height="12px" preserveAspectRatio="xMinYMin meet" x="540.5" y="-175.496"/>
<text text-anchor="start" x="563.5" y="-166.7" font-family="Helvetica,sans-Serif" font-size="11.00">edition_id</text>
<polygon fill="#ffffff" stroke="transparent" points="535.5,-140.5 535.5,-158.5 614.5,-158.5 614.5,-140.5 535.5,-140.5"/>
<polygon fill="none" stroke="black" points="535.5,-140.5 535.5,-158.5 614.5,-158.5 614.5,-140.5 535.5,-140.5"/>
<text text-anchor="start" x="538.5" y="-146.7" font-family="Helvetica,sans-Serif" font-size="11.00">&lt; 3</text>
<polygon fill="#ffffff" stroke="transparent" points="614.5,-140.5 614.5,-158.5 684.5,-158.5 684.5,-140.5 614.5,-140.5"/>
<polygon fill="none" stroke="black" points="614.5,-140.5 614.5,-158.5 684.5,-158.5 684.5,-140.5 614.5,-140.5"/>
<text text-anchor="start" x="644.5" y="-146.7" font-family="Helvetica,sans-Serif" font-size="11.00">0 rows</text>
<polygon fill="#ffffff" stroke="transparent" points="684.5,-140.5 684.5,-158.5 725.5,-158.5 725.5,-140.5 684.5,-140.5"/>
<polygon fill="none" stroke="black" points="684.5,-140.5 684.5,-158.5 725.5,-158.5 725.5,-140.5 684.5,-140.5"/>
<text text-anchor="start" x="714.5" y="-146.7" font-family="Helvetica,sans-Serif" font-size="11.00"> &#160;</text>
</a>
</g>
</g>
<!-- form_of_writing_owner&#45;&gt;form_of_writing -->
<g id="edge10" class="edge">
<title>form_of_writing_owner:w&#45;&gt;form_of_writing:e</title>
<path fill="none" stroke="black" d="M520.25,-215.86C466.69,-236.87 558,-390.5 481.5,-390.5"/>
<polygon fill="black" stroke="black" points="526.61,-214.81 535.09,-217.05 530.55,-214.15 534.5,-213.5 534.5,-213.5 534.5,-213.5 530.55,-214.15 533.91,-209.94 526.61,-214.81 526.61,-214.81"/>
<ellipse fill="none" stroke="black" cx="523.45" cy="-215.33" rx="3.2" ry="3.2"/>
</g>
<!-- form_of_writing_owner&#45;&gt;edition_editor -->
<g id="edge8" class="edge">
<title>form_of_writing_owner:w&#45;&gt;edition_editor:e</title>
<path fill="none" stroke="black" d="M519.92,-191.52C479.05,-191.69 463.72,-192.5 416.5,-192.5"/>
<polygon fill="black" stroke="black" points="526.5,-191.51 534.51,-195.1 530.5,-191.5 534.5,-191.5 534.5,-191.5 534.5,-191.5 530.5,-191.5 534.49,-187.9 526.5,-191.51 526.5,-191.51"/>
<ellipse fill="none" stroke="black" cx="523.3" cy="-191.52" rx="3.2" ry="3.2"/>
</g>
<!-- form_of_writing_owner&#45;&gt;edition -->
<g id="edge9" class="edge">
<title>form_of_writing_owner:w&#45;&gt;edition:e</title>
<path fill="none" stroke="black" d="M520.01,-167.13C510.38,-163.63 504.59,-157.18 490,-154.5 341.27,-127.17 301.22,-141.5 150,-141.5"/>
<polygon fill="black" stroke="black" points="526.6,-168.21 533.92,-173.05 530.55,-168.85 534.5,-169.5 534.5,-169.5 534.5,-169.5 530.55,-168.85 535.08,-165.94 526.6,-168.21 526.6,-168.21"/>
<ellipse fill="none" stroke="black" cx="523.45" cy="-167.69" rx="3.2" ry="3.2"/>
</g>
<!-- kerning_of_char -->
<g id="node9" class="node">
<title>kerning_of_char</title>
<g id="a_node9"><a xlink:href="../../tables/kerning_of_char.html" xlink:title="kerning_of_char" target="_top">
<polygon fill="#ffffff" stroke="transparent" points="799.5,-437.5 799.5,-495.5 946.5,-495.5 946.5,-437.5 799.5,-437.5"/>
<polygon fill="#f5f5f5" stroke="transparent" points="800,-473.5 800,-495.5 947,-495.5 947,-473.5 800,-473.5"/>
<polygon fill="none" stroke="black" points="800,-473.5 800,-495.5 947,-495.5 947,-473.5 800,-473.5"/>
<text text-anchor="start" x="805" y="-482.7" font-family="Helvetica,sans-Serif" font-weight="bold" font-size="11.00">kerning_of_char</text>
<text text-anchor="start" x="905" y="-481.7" font-family="Helvetica,sans-Serif" font-size="11.00">[table]</text>
<polygon fill="none" stroke="black" points="800,-455.5 800,-473.5 947,-473.5 947,-455.5 800,-455.5"/>
<text text-anchor="start" x="803" y="-461.7" font-family="Helvetica,sans-Serif" font-size="11.00">...</text>
<polygon fill="#ffffff" stroke="transparent" points="800,-437.5 800,-455.5 858,-455.5 858,-437.5 800,-437.5"/>
<polygon fill="none" stroke="black" points="800,-437.5 800,-455.5 858,-455.5 858,-437.5 800,-437.5"/>
<text text-anchor="start" x="803" y="-443.7" font-family="Helvetica,sans-Serif" font-size="11.00">&lt; 1</text>
<polygon fill="#ffffff" stroke="transparent" points="858,-437.5 858,-455.5 917,-455.5 917,-437.5 858,-437.5"/>
<polygon fill="none" stroke="black" points="858,-437.5 858,-455.5 917,-455.5 917,-437.5 858,-437.5"/>
<text text-anchor="start" x="877" y="-443.7" font-family="Helvetica,sans-Serif" font-size="11.00">0 rows</text>
<polygon fill="#ffffff" stroke="transparent" points="917,-437.5 917,-455.5 947,-455.5 947,-437.5 917,-437.5"/>
<polygon fill="none" stroke="black" points="917,-437.5 917,-455.5 947,-455.5 947,-437.5 917,-437.5"/>
<text text-anchor="start" x="936" y="-443.7" font-family="Helvetica,sans-Serif" font-size="11.00"> &#160;</text>
</a>
</g>
</g>
<!-- kerning_of_char&#45;&gt;char_of_writing -->
<g id="edge11" class="edge">
<title>kerning_of_char:w&#45;&gt;char_of_writing:e</title>
<path fill="none" stroke="black" d="M784.19,-464.5C753.77,-464.5 741.09,-464.5 704.5,-464.5"/>
<polygon fill="black" stroke="black" points="791,-464.5 799,-468.1 795,-464.5 799,-464.5 799,-464.5 799,-464.5 795,-464.5 799,-460.9 791,-464.5 791,-464.5"/>
<ellipse fill="none" stroke="black" cx="787.8" cy="-464.5" rx="3.2" ry="3.2"/>
</g>
<!-- scribal_font_type_owner -->
<g id="node10" class="node">
<title>scribal_font_type_owner</title>
<g id="a_node10"><a xlink:href="../../tables/scribal_font_type_owner.html" xlink:title="scribal_font_type_owner" target="_top">
<polygon fill="#ffffff" stroke="transparent" points="531,-61.5 531,-119.5 730,-119.5 730,-61.5 531,-61.5"/>
<polygon fill="#f5f5f5" stroke="transparent" points="531.5,-97.5 531.5,-119.5 730.5,-119.5 730.5,-97.5 531.5,-97.5"/>
<polygon fill="none" stroke="black" points="531.5,-97.5 531.5,-119.5 730.5,-119.5 730.5,-97.5 531.5,-97.5"/>
<text text-anchor="start" x="536.5" y="-106.7" font-family="Helvetica,sans-Serif" font-weight="bold" font-size="11.00">scribal_font_type_owner</text>
<text text-anchor="start" x="688.5" y="-105.7" font-family="Helvetica,sans-Serif" font-size="11.00">[table]</text>
<polygon fill="none" stroke="black" points="531.5,-79.5 531.5,-97.5 730.5,-97.5 730.5,-79.5 531.5,-79.5"/>
<text text-anchor="start" x="534.5" y="-85.7" font-family="Helvetica,sans-Serif" font-size="11.00">...</text>
<polygon fill="#ffffff" stroke="transparent" points="531.5,-61.5 531.5,-79.5 615.5,-79.5 615.5,-61.5 531.5,-61.5"/>
<polygon fill="none" stroke="black" points="531.5,-61.5 531.5,-79.5 615.5,-79.5 615.5,-61.5 531.5,-61.5"/>
<text text-anchor="start" x="534.5" y="-67.7" font-family="Helvetica,sans-Serif" font-size="11.00">&lt; 3</text>
<polygon fill="#ffffff" stroke="transparent" points="615.5,-61.5 615.5,-79.5 687.5,-79.5 687.5,-61.5 615.5,-61.5"/>
<polygon fill="none" stroke="black" points="615.5,-61.5 615.5,-79.5 687.5,-79.5 687.5,-61.5 615.5,-61.5"/>
<text text-anchor="start" x="647.5" y="-67.7" font-family="Helvetica,sans-Serif" font-size="11.00">0 rows</text>
<polygon fill="#ffffff" stroke="transparent" points="687.5,-61.5 687.5,-79.5 730.5,-79.5 730.5,-61.5 687.5,-61.5"/>
<polygon fill="none" stroke="black" points="687.5,-61.5 687.5,-79.5 730.5,-79.5 730.5,-61.5 687.5,-61.5"/>
<text text-anchor="start" x="719.5" y="-67.7" font-family="Helvetica,sans-Serif" font-size="11.00"> &#160;</text>
</a>
</g>
</g>
<!-- scribal_font_type_owner&#45;&gt;edition_editor -->
<g id="edge12" class="edge">
<title>scribal_font_type_owner:w&#45;&gt;edition_editor:e</title>
<path fill="none" stroke="black" d="M519.16,-97.73C490.91,-123.18 420,-192.5 416.5,-192.5"/>
<polygon fill="black" stroke="black" points="524.3,-93.55 532.77,-91.29 527.4,-91.02 530.5,-88.5 530.5,-88.5 530.5,-88.5 527.4,-91.02 528.23,-85.7 524.3,-93.55 524.3,-93.55"/>
<ellipse fill="none" stroke="black" cx="521.81" cy="-95.57" rx="3.2" ry="3.2"/>
</g>
<!-- scribal_font_type_owner&#45;&gt;edition -->
<g id="edge13" class="edge">
<title>scribal_font_type_owner:w&#45;&gt;edition:e</title>
<path fill="none" stroke="black" d="M516,-88.4C382.6,-86.56 337.76,-60.4 205,-104.5 177.04,-113.78 179.46,-141.5 150,-141.5"/>
<polygon fill="black" stroke="black" points="522.5,-88.44 530.48,-92.1 526.5,-88.47 530.5,-88.5 530.5,-88.5 530.5,-88.5 526.5,-88.47 530.52,-84.9 522.5,-88.44 522.5,-88.44"/>
<ellipse fill="none" stroke="black" cx="519.3" cy="-88.42" rx="3.2" ry="3.2"/>
</g>
<!-- scribal_font_type_owner&#45;&gt;scribal_font_type -->
<g id="edge14" class="edge">
<title>scribal_font_type_owner:w&#45;&gt;scribal_font_type:e</title>
<path fill="none" stroke="black" d="M516.1,-90.87C507.93,-93.92 502.52,-99.21 490,-102.5 365.46,-135.18 304.54,-72.83 205,-154.5 167.67,-185.12 213.28,-255.5 165,-255.5"/>
<polygon fill="black" stroke="black" points="522.61,-89.8 531.09,-92.05 526.55,-89.15 530.5,-88.5 530.5,-88.5 530.5,-88.5 526.55,-89.15 529.91,-84.94 522.61,-89.8 522.61,-89.8"/>
<ellipse fill="none" stroke="black" cx="519.45" cy="-90.32" rx="3.2" ry="3.2"/>
</g>
<!-- scribe_owner -->
<g id="node11" class="node">
<title>scribe_owner</title>
<g id="a_node11"><a xlink:href="../../tables/scribe_owner.html" xlink:title="scribe_owner" target="_top">
<polygon fill="#ffffff" stroke="transparent" points="564,-294.5 564,-352.5 697,-352.5 697,-294.5 564,-294.5"/>
<polygon fill="#f5f5f5" stroke="transparent" points="564.5,-330.5 564.5,-352.5 697.5,-352.5 697.5,-330.5 564.5,-330.5"/>
<polygon fill="none" stroke="black" points="564.5,-330.5 564.5,-352.5 697.5,-352.5 697.5,-330.5 564.5,-330.5"/>
<text text-anchor="start" x="569.5" y="-339.7" font-family="Helvetica,sans-Serif" font-weight="bold" font-size="11.00">scribe_owner</text>
<text text-anchor="start" x="655.5" y="-338.7" font-family="Helvetica,sans-Serif" font-size="11.00">[table]</text>
<polygon fill="none" stroke="black" points="564.5,-312.5 564.5,-330.5 697.5,-330.5 697.5,-312.5 564.5,-312.5"/>
<text text-anchor="start" x="567.5" y="-318.7" font-family="Helvetica,sans-Serif" font-size="11.00">...</text>
<polygon fill="#ffffff" stroke="transparent" points="564.5,-294.5 564.5,-312.5 615.5,-312.5 615.5,-294.5 564.5,-294.5"/>
<polygon fill="none" stroke="black" points="564.5,-294.5 564.5,-312.5 615.5,-312.5 615.5,-294.5 564.5,-294.5"/>
<text text-anchor="start" x="567.5" y="-300.7" font-family="Helvetica,sans-Serif" font-size="11.00">&lt; 3</text>
<polygon fill="#ffffff" stroke="transparent" points="615.5,-294.5 615.5,-312.5 670.5,-312.5 670.5,-294.5 615.5,-294.5"/>
<polygon fill="none" stroke="black" points="615.5,-294.5 615.5,-312.5 670.5,-312.5 670.5,-294.5 615.5,-294.5"/>
<text text-anchor="start" x="630.5" y="-300.7" font-family="Helvetica,sans-Serif" font-size="11.00">0 rows</text>
<polygon fill="#ffffff" stroke="transparent" points="670.5,-294.5 670.5,-312.5 697.5,-312.5 697.5,-294.5 670.5,-294.5"/>
<polygon fill="none" stroke="black" points="670.5,-294.5 670.5,-312.5 697.5,-312.5 697.5,-294.5 670.5,-294.5"/>
<text text-anchor="start" x="686.5" y="-300.7" font-family="Helvetica,sans-Serif" font-size="11.00"> &#160;</text>
</a>
</g>
</g>
<!-- scribe_owner&#45;&gt;edition_editor -->
<g id="edge15" class="edge">
<title>scribe_owner:w&#45;&gt;edition_editor:e</title>
<path fill="none" stroke="black" d="M549.44,-318.23C537.77,-311.46 535.89,-295.28 523,-280.5 482.66,-234.21 477.9,-192.5 416.5,-192.5"/>
<polygon fill="black" stroke="black" points="555.71,-319.69 562.69,-325 559.6,-320.59 563.5,-321.5 563.5,-321.5 563.5,-321.5 559.6,-320.59 564.31,-317.99 555.71,-319.69 555.71,-319.69"/>
<ellipse fill="none" stroke="black" cx="552.59" cy="-318.96" rx="3.2" ry="3.2"/>
</g>
<!-- scribe_owner&#45;&gt;edition -->
<g id="edge16" class="edge">
<title>scribe_owner:w&#45;&gt;edition:e</title>
<path fill="none" stroke="black" d="M549.03,-319.3C522.38,-310.12 524,-274.61 490,-260.5 372.49,-211.7 312.58,-301.43 205,-233.5 164.72,-208.06 197.64,-141.5 150,-141.5"/>
<polygon fill="black" stroke="black" points="555.59,-320.3 562.96,-325.06 559.55,-320.9 563.5,-321.5 563.5,-321.5 563.5,-321.5 559.55,-320.9 564.04,-317.94 555.59,-320.3 555.59,-320.3"/>
<ellipse fill="none" stroke="black" cx="552.43" cy="-319.82" rx="3.2" ry="3.2"/>
</g>
<!-- scribe_owner&#45;&gt;scribe -->
<g id="edge17" class="edge">
<title>scribe_owner:w&#45;&gt;scribe:e</title>
<path fill="none" stroke="black" d="M549.13,-324.53C536.91,-330.87 534.06,-346.3 523,-362.5 502.69,-392.23 520.21,-416.89 490,-436.5 383.75,-505.45 329.32,-460.76 205,-436.5 172.52,-430.16 169.1,-408.5 136,-408.5"/>
<polygon fill="black" stroke="black" points="555.67,-323.15 564.24,-325.02 559.59,-322.32 563.5,-321.5 563.5,-321.5 563.5,-321.5 559.59,-322.32 562.76,-317.97 555.67,-323.15 555.67,-323.15"/>
<ellipse fill="none" stroke="black" cx="552.54" cy="-323.81" rx="3.2" ry="3.2"/>
</g>
</g>
</svg>
