<?xml version="1.0" encoding="UTF-8" standalone="no"?>
<!DOCTYPE svg PUBLIC "-//W3C//DTD SVG 1.1//EN"
 "http://www.w3.org/Graphics/SVG/1.1/DTD/svg11.dtd">
<!-- Generated by graphviz version 2.43.0 (0)
 -->
<!-- Title: twoDegreesRelationshipsDiagram Pages: 1 -->
<svg width="1340pt" height="890pt"
 viewBox="0.00 0.00 1340.00 890.00" xmlns="http://www.w3.org/2000/svg" xmlns:xlink="http://www.w3.org/1999/xlink">
<g id="graph0" class="graph" transform="scale(1 1) rotate(0) translate(4 886)">
<title>twoDegreesRelationshipsDiagram</title>
<polygon fill="#ffffff" stroke="transparent" points="-4,4 -4,-886 1336,-886 1336,4 -4,4"/>
<text text-anchor="middle" x="79.5" y="-7.2" font-family="Helvetica,sans-Serif" font-size="11.00">Generated by SchemaSpy</text>
<!-- edition_editor -->
<g id="node1" class="node">
<title>edition_editor</title>
<g id="a_node1"><a xlink:href="../../tables/edition_editor.html" xlink:title="edition_editor" target="_top">
<polygon fill="#ffffff" stroke="transparent" points="837,-386 837,-444 973,-444 973,-386 837,-386"/>
<polygon fill="#f5f5f5" stroke="transparent" points="837,-422 837,-444 973,-444 973,-422 837,-422"/>
<polygon fill="none" stroke="black" points="837,-422 837,-444 973,-444 973,-422 837,-422"/>
<text text-anchor="start" x="842" y="-431.2" font-family="Helvetica,sans-Serif" font-weight="bold" font-size="11.00">edition_editor</text>
<text text-anchor="start" x="931" y="-430.2" font-family="Helvetica,sans-Serif" font-size="11.00">[table]</text>
<polygon fill="none" stroke="black" points="837,-404 837,-422 973,-422 973,-404 837,-404"/>
<text text-anchor="start" x="840" y="-410.2" font-family="Helvetica,sans-Serif" font-size="11.00">...</text>
<polygon fill="#ffffff" stroke="transparent" points="837,-386 837,-404 868,-404 868,-386 837,-386"/>
<polygon fill="none" stroke="black" points="837,-386 837,-404 868,-404 868,-386 837,-386"/>
<text text-anchor="start" x="840" y="-392.2" font-family="Helvetica,sans-Serif" font-size="11.00">&lt; 2</text>
<polygon fill="#ffffff" stroke="transparent" points="868,-386 868,-404 937,-404 937,-386 868,-386"/>
<polygon fill="none" stroke="black" points="868,-386 868,-404 937,-404 937,-386 868,-386"/>
<text text-anchor="start" x="873" y="-392.2" font-family="Helvetica,sans-Serif" font-size="11.00">1,645 rows</text>
<polygon fill="#ffffff" stroke="transparent" points="937,-386 937,-404 973,-404 973,-386 937,-386"/>
<polygon fill="none" stroke="black" points="937,-386 937,-404 973,-404 973,-386 937,-386"/>
<text text-anchor="start" x="943" y="-392.2" font-family="Helvetica,sans-Serif" font-size="11.00">33 &gt;</text>
</a>
</g>
</g>
<!-- user -->
<g id="node2" class="node">
<title>user</title>
<g id="a_node2"><a xlink:href="../../tables/user.html" xlink:title="user" target="_top">
<polygon fill="#ffffff" stroke="transparent" points="454,-541 454,-643 617,-643 617,-541 454,-541"/>
<polygon fill="#f5f5f5" stroke="transparent" points="454.5,-621 454.5,-643 617.5,-643 617.5,-621 454.5,-621"/>
<polygon fill="none" stroke="black" points="454.5,-621 454.5,-643 617.5,-643 617.5,-621 454.5,-621"/>
<text text-anchor="start" x="459.5" y="-630.2" font-family="Helvetica,sans-Serif" font-weight="bold" font-size="11.00">user</text>
<text text-anchor="start" x="575.5" y="-629.2" font-family="Helvetica,sans-Serif" font-size="11.00">[table]</text>
<polygon fill="none" stroke="black" points="454.5,-599 454.5,-621 617.5,-621 617.5,-599 454.5,-599"/>
<image xlink:href="../../images/primaryKeys.png" width="11px" height="12px" preserveAspectRatio="xMinYMin meet" x="459.5" y="-616"/>
<text text-anchor="start" x="474.5" y="-607.2" font-family="Helvetica,sans-Serif" font-size="11.00">user_id</text>
<polygon fill="#ffffff" stroke="transparent" points="454.5,-577 454.5,-599 617.5,-599 617.5,-577 454.5,-577"/>
<polygon fill="none" stroke="black" points="454.5,-577 454.5,-599 617.5,-599 617.5,-577 454.5,-577"/>
<text text-anchor="start" x="474.5" y="-585.2" font-family="Helvetica,sans-Serif" font-size="11.00">email</text>
<polygon fill="none" stroke="black" points="454.5,-559 454.5,-577 617.5,-577 617.5,-559 454.5,-559"/>
<text text-anchor="start" x="457.5" y="-565.2" font-family="Helvetica,sans-Serif" font-size="11.00">...</text>
<polygon fill="#ffffff" stroke="transparent" points="454.5,-541 454.5,-559 504.5,-559 504.5,-541 454.5,-541"/>
<polygon fill="none" stroke="black" points="454.5,-541 454.5,-559 504.5,-559 504.5,-541 454.5,-541"/>
<text text-anchor="start" x="457.5" y="-547.2" font-family="Helvetica,sans-Serif" font-size="11.00"> &#160;</text>
<polygon fill="#ffffff" stroke="transparent" points="504.5,-541 504.5,-559 565.5,-559 565.5,-541 504.5,-541"/>
<polygon fill="none" stroke="black" points="504.5,-541 504.5,-559 565.5,-559 565.5,-541 504.5,-541"/>
<text text-anchor="start" x="525.5" y="-547.2" font-family="Helvetica,sans-Serif" font-size="11.00">0 rows</text>
<polygon fill="#ffffff" stroke="transparent" points="565.5,-541 565.5,-559 617.5,-559 617.5,-541 565.5,-541"/>
<polygon fill="none" stroke="black" points="565.5,-541 565.5,-559 617.5,-559 617.5,-541 565.5,-541"/>
<text text-anchor="start" x="587.5" y="-547.2" font-family="Helvetica,sans-Serif" font-size="11.00">10 &gt;</text>
</a>
</g>
</g>
<!-- edition_editor&#45;&gt;user -->
<g id="edge1" class="edge">
<title>edition_editor:w&#45;&gt;user:e</title>
<path fill="none" stroke="black" d="M821.33,-413.19C775.74,-414.48 756.13,-423.01 716,-455 652.36,-505.73 699.88,-610 618.5,-610"/>
<polygon fill="black" stroke="black" points="828,-413.1 836.05,-416.6 832,-413.05 836,-413 836,-413 836,-413 832,-413.05 835.95,-409.4 828,-413.1 828,-413.1"/>
<ellipse fill="none" stroke="black" cx="824.8" cy="-413.14" rx="3.2" ry="3.2"/>
</g>
<!-- edition_editor_request -->
<g id="node3" class="node">
<title>edition_editor_request</title>
<g id="a_node3"><a xlink:href="../../tables/edition_editor_request.html" xlink:title="edition_editor_request" target="_top">
<polygon fill="#ffffff" stroke="transparent" points="1135,-763 1135,-821 1324,-821 1324,-763 1135,-763"/>
<polygon fill="#f5f5f5" stroke="transparent" points="1135.5,-799 1135.5,-821 1324.5,-821 1324.5,-799 1135.5,-799"/>
<polygon fill="none" stroke="black" points="1135.5,-799 1135.5,-821 1324.5,-821 1324.5,-799 1135.5,-799"/>
<text text-anchor="start" x="1140.5" y="-808.2" font-family="Helvetica,sans-Serif" font-weight="bold" font-size="11.00">edition_editor_request</text>
<text text-anchor="start" x="1282.5" y="-807.2" font-family="Helvetica,sans-Serif" font-size="11.00">[table]</text>
<polygon fill="none" stroke="black" points="1135.5,-781 1135.5,-799 1324.5,-799 1324.5,-781 1135.5,-781"/>
<text text-anchor="start" x="1138.5" y="-787.2" font-family="Helvetica,sans-Serif" font-size="11.00">...</text>
<polygon fill="#ffffff" stroke="transparent" points="1135.5,-763 1135.5,-781 1214.5,-781 1214.5,-763 1135.5,-763"/>
<polygon fill="none" stroke="black" points="1135.5,-763 1135.5,-781 1214.5,-781 1214.5,-763 1135.5,-763"/>
<text text-anchor="start" x="1138.5" y="-769.2" font-family="Helvetica,sans-Serif" font-size="11.00">&lt; 4</text>
<polygon fill="#ffffff" stroke="transparent" points="1214.5,-763 1214.5,-781 1283.5,-781 1283.5,-763 1214.5,-763"/>
<polygon fill="none" stroke="black" points="1214.5,-763 1214.5,-781 1283.5,-781 1283.5,-763 1214.5,-763"/>
<text text-anchor="start" x="1243.5" y="-769.2" font-family="Helvetica,sans-Serif" font-size="11.00">0 rows</text>
<polygon fill="#ffffff" stroke="transparent" points="1283.5,-763 1283.5,-781 1324.5,-781 1324.5,-763 1283.5,-763"/>
<polygon fill="none" stroke="black" points="1283.5,-763 1283.5,-781 1324.5,-781 1324.5,-763 1283.5,-763"/>
<text text-anchor="start" x="1313.5" y="-769.2" font-family="Helvetica,sans-Serif" font-size="11.00"> &#160;</text>
</a>
</g>
</g>
<!-- edition_editor_request&#45;&gt;user -->
<g id="edge2" class="edge">
<title>edition_editor_request:w&#45;&gt;user:e</title>
<path fill="none" stroke="black" d="M1119.81,-790.19C1017.84,-792.6 792.14,-816.21 716,-771 644.07,-728.29 702.15,-610 618.5,-610"/>
<polygon fill="black" stroke="black" points="1126.5,-790.1 1134.55,-793.6 1130.5,-790.05 1134.5,-790 1134.5,-790 1134.5,-790 1130.5,-790.05 1134.45,-786.4 1126.5,-790.1 1126.5,-790.1"/>
<ellipse fill="none" stroke="black" cx="1123.3" cy="-790.15" rx="3.2" ry="3.2"/>
</g>
<!-- edition_editor_request&#45;&gt;user -->
<g id="edge3" class="edge">
<title>edition_editor_request:w&#45;&gt;user:e</title>
<path fill="none" stroke="black" d="M1119.81,-790.16C1017.8,-792.22 792.21,-812.17 716,-767 645.34,-725.12 700.64,-610 618.5,-610"/>
<polygon fill="black" stroke="black" points="1126.5,-790.09 1134.54,-793.6 1130.5,-790.04 1134.5,-790 1134.5,-790 1134.5,-790 1130.5,-790.04 1134.46,-786.4 1126.5,-790.09 1126.5,-790.09"/>
<ellipse fill="none" stroke="black" cx="1123.3" cy="-790.12" rx="3.2" ry="3.2"/>
</g>
<!-- user_email_token -->
<g id="node4" class="node">
<title>user_email_token</title>
<g id="a_node4"><a xlink:href="../../tables/user_email_token.html" xlink:title="user_email_token" target="_top">
<polygon fill="#ffffff" stroke="transparent" points="826.5,-820 826.5,-878 983.5,-878 983.5,-820 826.5,-820"/>
<polygon fill="#f5f5f5" stroke="transparent" points="827,-856 827,-878 984,-878 984,-856 827,-856"/>
<polygon fill="none" stroke="black" points="827,-856 827,-878 984,-878 984,-856 827,-856"/>
<text text-anchor="start" x="832" y="-865.2" font-family="Helvetica,sans-Serif" font-weight="bold" font-size="11.00">user_email_token</text>
<text text-anchor="start" x="942" y="-864.2" font-family="Helvetica,sans-Serif" font-size="11.00">[table]</text>
<polygon fill="none" stroke="black" points="827,-838 827,-856 984,-856 984,-838 827,-838"/>
<text text-anchor="start" x="830" y="-844.2" font-family="Helvetica,sans-Serif" font-size="11.00">...</text>
<polygon fill="#ffffff" stroke="transparent" points="827,-820 827,-838 884,-838 884,-820 827,-820"/>
<polygon fill="none" stroke="black" points="827,-820 827,-838 884,-838 884,-820 827,-820"/>
<text text-anchor="start" x="830" y="-826.2" font-family="Helvetica,sans-Serif" font-size="11.00">&lt; 1</text>
<polygon fill="#ffffff" stroke="transparent" points="884,-820 884,-838 942,-838 942,-820 884,-820"/>
<polygon fill="none" stroke="black" points="884,-820 884,-838 942,-838 942,-820 884,-820"/>
<text text-anchor="start" x="902" y="-826.2" font-family="Helvetica,sans-Serif" font-size="11.00">0 rows</text>
<polygon fill="#ffffff" stroke="transparent" points="942,-820 942,-838 984,-838 984,-820 942,-820"/>
<polygon fill="none" stroke="black" points="942,-820 942,-838 984,-838 984,-820 942,-820"/>
<text text-anchor="start" x="961" y="-826.2" font-family="Helvetica,sans-Serif" font-size="11.00">1 &gt;</text>
</a>
</g>
</g>
<!-- edition_editor_request&#45;&gt;user_email_token -->
<g id="edge4" class="edge">
<title>edition_editor_request:w&#45;&gt;user_email_token:e</title>
<path fill="none" stroke="black" d="M1120.17,-792.31C1111.75,-795.45 1106.41,-801.21 1094,-806 1045.71,-824.62 1036.76,-847 985,-847"/>
<polygon fill="black" stroke="black" points="1126.6,-791.27 1135.07,-793.55 1130.55,-790.64 1134.5,-790 1134.5,-790 1134.5,-790 1130.55,-790.64 1133.93,-786.45 1126.6,-791.27 1126.6,-791.27"/>
<ellipse fill="none" stroke="black" cx="1123.44" cy="-791.78" rx="3.2" ry="3.2"/>
</g>
<!-- user_email_token&#45;&gt;user -->
<g id="edge16" class="edge">
<title>user_email_token:w&#45;&gt;user:e</title>
<path fill="none" stroke="black" d="M811.34,-846.8C769.83,-845.5 750.91,-837.43 716,-806 643.69,-740.9 715.79,-610 618.5,-610"/>
<polygon fill="black" stroke="black" points="818,-846.89 825.95,-850.6 822,-846.94 826,-847 826,-847 826,-847 822,-846.94 826.05,-843.4 818,-846.89 818,-846.89"/>
<ellipse fill="none" stroke="black" cx="814.8" cy="-846.84" rx="3.2" ry="3.2"/>
</g>
<!-- iaa_edition_catalog -->
<g id="node5" class="node">
<title>iaa_edition_catalog</title>
<g id="a_node5"><a xlink:href="../../tables/iaa_edition_catalog.html" xlink:title="iaa_edition_catalog" target="_top">
<polygon fill="#ffffff" stroke="transparent" points="178,-37 178,-271 347,-271 347,-37 178,-37"/>
<polygon fill="#f5f5f5" stroke="transparent" points="178.5,-249 178.5,-271 347.5,-271 347.5,-249 178.5,-249"/>
<polygon fill="none" stroke="black" points="178.5,-249 178.5,-271 347.5,-271 347.5,-249 178.5,-249"/>
<text text-anchor="start" x="183.5" y="-258.2" font-family="Helvetica,sans-Serif" font-weight="bold" font-size="11.00">iaa_edition_catalog</text>
<text text-anchor="start" x="305.5" y="-257.2" font-family="Helvetica,sans-Serif" font-size="11.00">[table]</text>
<polygon fill="none" stroke="black" points="178.5,-227 178.5,-249 347.5,-249 347.5,-227 178.5,-227"/>
<image xlink:href="../../images/primaryKeys.png" width="11px" height="12px" preserveAspectRatio="xMinYMin meet" x="183.5" y="-244"/>
<text text-anchor="start" x="198.5" y="-235.2" font-family="Helvetica,sans-Serif" font-size="11.00">iaa_edition_catalog_id</text>
<polygon fill="#ffffff" stroke="transparent" points="178.5,-205 178.5,-227 347.5,-227 347.5,-205 178.5,-205"/>
<polygon fill="none" stroke="black" points="178.5,-205 178.5,-227 347.5,-227 347.5,-205 178.5,-205"/>
<text text-anchor="start" x="198.5" y="-213.2" font-family="Helvetica,sans-Serif" font-size="11.00">manuscript</text>
<polygon fill="#ffffff" stroke="transparent" points="178.5,-183 178.5,-205 347.5,-205 347.5,-183 178.5,-183"/>
<polygon fill="none" stroke="black" points="178.5,-183 178.5,-205 347.5,-205 347.5,-183 178.5,-183"/>
<text text-anchor="start" x="198.5" y="-191.2" font-family="Helvetica,sans-Serif" font-size="11.00">edition_name</text>
<polygon fill="#ffffff" stroke="transparent" points="178.5,-161 178.5,-183 347.5,-183 347.5,-161 178.5,-161"/>
<polygon fill="none" stroke="black" points="178.5,-161 178.5,-183 347.5,-183 347.5,-161 178.5,-161"/>
<text text-anchor="start" x="198.5" y="-169.2" font-family="Helvetica,sans-Serif" font-size="11.00">edition_volume</text>
<polygon fill="#ffffff" stroke="transparent" points="178.5,-139 178.5,-161 347.5,-161 347.5,-139 178.5,-139"/>
<polygon fill="none" stroke="black" points="178.5,-139 178.5,-161 347.5,-161 347.5,-139 178.5,-139"/>
<text text-anchor="start" x="198.5" y="-147.2" font-family="Helvetica,sans-Serif" font-size="11.00">edition_location_1</text>
<polygon fill="#ffffff" stroke="transparent" points="178.5,-117 178.5,-139 347.5,-139 347.5,-117 178.5,-117"/>
<polygon fill="none" stroke="black" points="178.5,-117 178.5,-139 347.5,-139 347.5,-117 178.5,-117"/>
<text text-anchor="start" x="198.5" y="-125.2" font-family="Helvetica,sans-Serif" font-size="11.00">edition_location_2</text>
<polygon fill="#ffffff" stroke="transparent" points="178.5,-95 178.5,-117 347.5,-117 347.5,-95 178.5,-95"/>
<polygon fill="none" stroke="black" points="178.5,-95 178.5,-117 347.5,-117 347.5,-95 178.5,-95"/>
<text text-anchor="start" x="198.5" y="-103.2" font-family="Helvetica,sans-Serif" font-size="11.00">edition_side</text>
<polygon fill="#ffffff" stroke="transparent" points="178.5,-73 178.5,-95 347.5,-95 347.5,-73 178.5,-73"/>
<polygon fill="none" stroke="black" points="178.5,-73 178.5,-95 347.5,-95 347.5,-73 178.5,-73"/>
<image xlink:href="../../images/foreignKeys.png" width="11px" height="12px" preserveAspectRatio="xMinYMin meet" x="183.5" y="-90"/>
<text text-anchor="start" x="198.5" y="-81.2" font-family="Helvetica,sans-Serif" font-size="11.00">manuscript_id</text>
<polygon fill="none" stroke="black" points="178.5,-55 178.5,-73 347.5,-73 347.5,-55 178.5,-55"/>
<text text-anchor="start" x="181.5" y="-61.2" font-family="Helvetica,sans-Serif" font-size="11.00">...</text>
<polygon fill="#ffffff" stroke="transparent" points="178.5,-37 178.5,-55 225.5,-55 225.5,-37 178.5,-37"/>
<polygon fill="none" stroke="black" points="178.5,-37 178.5,-55 225.5,-55 225.5,-37 178.5,-37"/>
<text text-anchor="start" x="181.5" y="-43.2" font-family="Helvetica,sans-Serif" font-size="11.00">&lt; 1</text>
<polygon fill="#ffffff" stroke="transparent" points="225.5,-37 225.5,-55 310.5,-55 310.5,-37 225.5,-37"/>
<polygon fill="none" stroke="black" points="225.5,-37 225.5,-55 310.5,-55 310.5,-37 225.5,-37"/>
<text text-anchor="start" x="239.5" y="-43.2" font-family="Helvetica,sans-Serif" font-size="11.00">38,927 rows</text>
<polygon fill="#ffffff" stroke="transparent" points="310.5,-37 310.5,-55 347.5,-55 347.5,-37 310.5,-37"/>
<polygon fill="none" stroke="black" points="310.5,-37 310.5,-55 347.5,-55 347.5,-37 310.5,-37"/>
<text text-anchor="start" x="324.5" y="-43.2" font-family="Helvetica,sans-Serif" font-size="11.00">3 &gt;</text>
</a>
</g>
</g>
<!-- manuscript -->
<g id="node6" class="node">
<title>manuscript</title>
<g id="a_node6"><a xlink:href="../../tables/manuscript.html" xlink:title="manuscript" target="_top">
<polygon fill="#ffffff" stroke="transparent" points="8,-57 8,-115 129,-115 129,-57 8,-57"/>
<polygon fill="#f5f5f5" stroke="transparent" points="8.5,-93 8.5,-115 129.5,-115 129.5,-93 8.5,-93"/>
<polygon fill="none" stroke="black" points="8.5,-93 8.5,-115 129.5,-115 129.5,-93 8.5,-93"/>
<text text-anchor="start" x="13.5" y="-102.2" font-family="Helvetica,sans-Serif" font-weight="bold" font-size="11.00">manuscript</text>
<text text-anchor="start" x="87.5" y="-101.2" font-family="Helvetica,sans-Serif" font-size="11.00">[table]</text>
<polygon fill="none" stroke="black" points="8.5,-75 8.5,-93 129.5,-93 129.5,-75 8.5,-75"/>
<text text-anchor="start" x="11.5" y="-81.2" font-family="Helvetica,sans-Serif" font-size="11.00">...</text>
<polygon fill="#ffffff" stroke="transparent" points="8.5,-57 8.5,-75 29.5,-75 29.5,-57 8.5,-57"/>
<polygon fill="none" stroke="black" points="8.5,-57 8.5,-75 29.5,-75 29.5,-57 8.5,-57"/>
<text text-anchor="start" x="11.5" y="-63.2" font-family="Helvetica,sans-Serif" font-size="11.00"> &#160;</text>
<polygon fill="#ffffff" stroke="transparent" points="29.5,-57 29.5,-75 99.5,-75 99.5,-57 29.5,-57"/>
<polygon fill="none" stroke="black" points="29.5,-57 29.5,-75 99.5,-75 99.5,-57 29.5,-57"/>
<text text-anchor="start" x="35.5" y="-63.2" font-family="Helvetica,sans-Serif" font-size="11.00">1,645 rows</text>
<polygon fill="#ffffff" stroke="transparent" points="99.5,-57 99.5,-75 129.5,-75 129.5,-57 99.5,-57"/>
<polygon fill="none" stroke="black" points="99.5,-57 99.5,-75 129.5,-75 129.5,-57 99.5,-57"/>
<text text-anchor="start" x="106.5" y="-63.2" font-family="Helvetica,sans-Serif" font-size="11.00">5 &gt;</text>
</a>
</g>
</g>
<!-- iaa_edition_catalog&#45;&gt;manuscript -->
<g id="edge5" class="edge">
<title>iaa_edition_catalog:w&#45;&gt;manuscript:e</title>
<path fill="none" stroke="black" d="M162.9,-84C152.43,-84 145.51,-84 130.5,-84"/>
<polygon fill="black" stroke="black" points="169.5,-84 177.5,-87.6 173.5,-84 177.5,-84 177.5,-84 177.5,-84 173.5,-84 177.5,-80.4 169.5,-84 169.5,-84"/>
<ellipse fill="none" stroke="black" cx="166.3" cy="-84" rx="3.2" ry="3.2"/>
</g>
<!-- iaa_edition_catalog_author -->
<g id="node7" class="node">
<title>iaa_edition_catalog_author</title>
<g id="a_node7"><a xlink:href="../../tables/iaa_edition_catalog_author.html" xlink:title="iaa_edition_catalog_author" target="_top">
<polygon fill="#ffffff" stroke="transparent" points="754,-277 754,-365 1056,-365 1056,-277 754,-277"/>
<polygon fill="#f5f5f5" stroke="transparent" points="756,-341 756,-363 1054,-363 1054,-341 756,-341"/>
<polygon fill="none" stroke="black" points="756,-341 756,-363 1054,-363 1054,-341 756,-341"/>
<text text-anchor="start" x="761" y="-350.2" font-family="Helvetica,sans-Serif" font-weight="bold" font-size="11.00">iaa_edition_catalog_author</text>
<text text-anchor="start" x="1012" y="-349.2" font-family="Helvetica,sans-Serif" font-size="11.00">[table]</text>
<polygon fill="none" stroke="black" points="756,-319 756,-341 957,-341 957,-319 756,-319"/>
<image xlink:href="../../images/primaryKeys.png" width="11px" height="12px" preserveAspectRatio="xMinYMin meet" x="761" y="-336"/>
<text text-anchor="start" x="776" y="-327.2" font-family="Helvetica,sans-Serif" font-size="11.00">iaa_edition_catalog_id</text>
<polygon fill="none" stroke="black" points="957,-319 957,-341 1054,-341 1054,-319 957,-319"/>
<text text-anchor="start" x="960" y="-327.2" font-family="Helvetica,sans-Serif" font-size="11.00">int unsigned[10]</text>
<polygon fill="#ffffff" stroke="transparent" points="756,-297 756,-319 957,-319 957,-297 756,-297"/>
<polygon fill="none" stroke="black" points="756,-297 756,-319 957,-319 957,-297 756,-297"/>
<image xlink:href="../../images/foreignKeys.png" width="11px" height="12px" preserveAspectRatio="xMinYMin meet" x="761" y="-314"/>
<text text-anchor="start" x="776" y="-305.2" font-family="Helvetica,sans-Serif" font-size="11.00">user_id</text>
<polygon fill="none" stroke="black" points="957,-297 957,-319 1054,-319 1054,-297 957,-297"/>
<text text-anchor="start" x="960" y="-305.2" font-family="Helvetica,sans-Serif" font-size="11.00">int unsigned[10]</text>
<polygon fill="#ffffff" stroke="transparent" points="756,-279 756,-297 832,-297 832,-279 756,-279"/>
<polygon fill="none" stroke="black" points="756,-279 756,-297 832,-297 832,-279 756,-279"/>
<text text-anchor="start" x="759" y="-285.2" font-family="Helvetica,sans-Serif" font-size="11.00">&lt; 2</text>
<polygon fill="#ffffff" stroke="transparent" points="832,-279 832,-297 957,-297 957,-279 832,-279"/>
<polygon fill="none" stroke="black" points="832,-279 832,-297 957,-297 957,-279 832,-279"/>
<text text-anchor="start" x="886" y="-285.2" font-family="Helvetica,sans-Serif" font-size="11.00">39,537 rows</text>
<polygon fill="#ffffff" stroke="transparent" points="957,-279 957,-297 1054,-297 1054,-279 957,-279"/>
<polygon fill="none" stroke="black" points="957,-279 957,-297 1054,-297 1054,-279 957,-279"/>
<text text-anchor="start" x="1031" y="-285.2" font-family="Helvetica,sans-Serif" font-size="11.00">0 &gt;</text>
<polygon fill="none" stroke="black" stroke-width="2" points="755,-278 755,-364 1055,-364 1055,-278 755,-278"/>
</a>
</g>
</g>
<!-- iaa_edition_catalog_author&#45;&gt;user -->
<g id="edge7" class="edge">
<title>iaa_edition_catalog_author:w&#45;&gt;user:e</title>
<path fill="none" stroke="black" d="M740.57,-309.09C618.44,-328.86 760.62,-610 618.5,-610"/>
<polygon fill="black" stroke="black" points="747.02,-308.6 755.27,-311.59 751.01,-308.3 755,-308 755,-308 755,-308 751.01,-308.3 754.73,-304.41 747.02,-308.6 747.02,-308.6"/>
<ellipse fill="none" stroke="black" cx="743.83" cy="-308.85" rx="3.2" ry="3.2"/>
</g>
<!-- iaa_edition_catalog_author&#45;&gt;iaa_edition_catalog -->
<g id="edge6" class="edge">
<title>iaa_edition_catalog_author:w&#45;&gt;iaa_edition_catalog:e</title>
<path fill="none" stroke="black" d="M744.54,-330.03C587.93,-331.04 531.19,-353.77 388,-280 365.22,-268.26 374.13,-238 348.5,-238"/>
<polygon fill="black" stroke="black" points="754.19,-326 754.21,-334 752.61,-334.01 752.59,-326.01 754.19,-326"/>
<polyline fill="none" stroke="black" points="755,-330 751,-330.01 "/>
<ellipse fill="none" stroke="black" cx="747.8" cy="-330.02" rx="3.2" ry="3.2"/>
</g>
<!-- iaa_edition_catalog_to_text_fragment -->
<g id="node8" class="node">
<title>iaa_edition_catalog_to_text_fragment</title>
<g id="a_node8"><a xlink:href="../../tables/iaa_edition_catalog_to_text_fragment.html" xlink:title="iaa_edition_catalog_to_text_fragment" target="_top">
<polygon fill="#ffffff" stroke="transparent" points="396,-211 396,-269 675,-269 675,-211 396,-211"/>
<polygon fill="#f5f5f5" stroke="transparent" points="396.5,-247 396.5,-269 675.5,-269 675.5,-247 396.5,-247"/>
<polygon fill="none" stroke="black" points="396.5,-247 396.5,-269 675.5,-269 675.5,-247 396.5,-247"/>
<text text-anchor="start" x="401.5" y="-256.2" font-family="Helvetica,sans-Serif" font-weight="bold" font-size="11.00">iaa_edition_catalog_to_text_fragment</text>
<text text-anchor="start" x="633.5" y="-255.2" font-family="Helvetica,sans-Serif" font-size="11.00">[table]</text>
<polygon fill="none" stroke="black" points="396.5,-229 396.5,-247 675.5,-247 675.5,-229 396.5,-229"/>
<text text-anchor="start" x="399.5" y="-235.2" font-family="Helvetica,sans-Serif" font-size="11.00">...</text>
<polygon fill="#ffffff" stroke="transparent" points="396.5,-211 396.5,-229 498.5,-229 498.5,-211 396.5,-211"/>
<polygon fill="none" stroke="black" points="396.5,-211 396.5,-229 498.5,-229 498.5,-211 396.5,-211"/>
<text text-anchor="start" x="399.5" y="-217.2" font-family="Helvetica,sans-Serif" font-size="11.00">&lt; 2</text>
<polygon fill="#ffffff" stroke="transparent" points="498.5,-211 498.5,-229 610.5,-229 610.5,-211 498.5,-211"/>
<polygon fill="none" stroke="black" points="498.5,-211 498.5,-229 610.5,-229 610.5,-211 498.5,-211"/>
<text text-anchor="start" x="539.5" y="-217.2" font-family="Helvetica,sans-Serif" font-size="11.00">15,236 rows</text>
<polygon fill="#ffffff" stroke="transparent" points="610.5,-211 610.5,-229 675.5,-229 675.5,-211 610.5,-211"/>
<polygon fill="none" stroke="black" points="610.5,-211 610.5,-229 675.5,-229 675.5,-211 610.5,-211"/>
<text text-anchor="start" x="652.5" y="-217.2" font-family="Helvetica,sans-Serif" font-size="11.00">1 &gt;</text>
</a>
</g>
</g>
<!-- iaa_edition_catalog_to_text_fragment&#45;&gt;iaa_edition_catalog -->
<g id="edge8" class="edge">
<title>iaa_edition_catalog_to_text_fragment:w&#45;&gt;iaa_edition_catalog:e</title>
<path fill="none" stroke="black" d="M380.9,-238C370.43,-238 363.51,-238 348.5,-238"/>
<polygon fill="black" stroke="black" points="387.5,-238 395.5,-241.6 391.5,-238 395.5,-238 395.5,-238 395.5,-238 391.5,-238 395.5,-234.4 387.5,-238 387.5,-238"/>
<ellipse fill="none" stroke="black" cx="384.3" cy="-238" rx="3.2" ry="3.2"/>
</g>
<!-- iaa_edition_catalog_to_text_fragment_confirmation -->
<g id="node9" class="node">
<title>iaa_edition_catalog_to_text_fragment_confirmation</title>
<g id="a_node9"><a xlink:href="../../tables/iaa_edition_catalog_to_text_fragment_confirmation.html" xlink:title="iaa_edition_catalog_to_text_fragment_confirmation" target="_top">
<polygon fill="#ffffff" stroke="transparent" points="724,-198 724,-256 1086,-256 1086,-198 724,-198"/>
<polygon fill="#f5f5f5" stroke="transparent" points="724,-234 724,-256 1086,-256 1086,-234 724,-234"/>
<polygon fill="none" stroke="black" points="724,-234 724,-256 1086,-256 1086,-234 724,-234"/>
<text text-anchor="start" x="729" y="-243.2" font-family="Helvetica,sans-Serif" font-weight="bold" font-size="11.00">iaa_edition_catalog_to_text_fragment_confirmation</text>
<text text-anchor="start" x="1044" y="-242.2" font-family="Helvetica,sans-Serif" font-size="11.00">[table]</text>
<polygon fill="none" stroke="black" points="724,-216 724,-234 1086,-234 1086,-216 724,-216"/>
<text text-anchor="start" x="727" y="-222.2" font-family="Helvetica,sans-Serif" font-size="11.00">...</text>
<polygon fill="#ffffff" stroke="transparent" points="724,-198 724,-216 874,-216 874,-198 724,-198"/>
<polygon fill="none" stroke="black" points="724,-198 724,-216 874,-216 874,-198 724,-198"/>
<text text-anchor="start" x="727" y="-204.2" font-family="Helvetica,sans-Serif" font-size="11.00">&lt; 2</text>
<polygon fill="#ffffff" stroke="transparent" points="874,-198 874,-216 1010,-216 1010,-198 874,-198"/>
<polygon fill="none" stroke="black" points="874,-198 874,-216 1010,-216 1010,-198 874,-198"/>
<text text-anchor="start" x="939" y="-204.2" font-family="Helvetica,sans-Serif" font-size="11.00">15,403 rows</text>
<polygon fill="#ffffff" stroke="transparent" points="1010,-198 1010,-216 1086,-216 1086,-198 1010,-198"/>
<polygon fill="none" stroke="black" points="1010,-198 1010,-216 1086,-216 1086,-198 1010,-198"/>
<text text-anchor="start" x="1075" y="-204.2" font-family="Helvetica,sans-Serif" font-size="11.00"> &#160;</text>
</a>
</g>
</g>
<!-- iaa_edition_catalog_to_text_fragment_confirmation&#45;&gt;user -->
<g id="edge10" class="edge">
<title>iaa_edition_catalog_to_text_fragment_confirmation:w&#45;&gt;user:e</title>
<path fill="none" stroke="black" d="M711.47,-234.14C675.52,-292.44 658.76,-610 618.5,-610"/>
<polygon fill="black" stroke="black" points="716.73,-229.97 725.24,-227.82 719.86,-227.48 723,-225 723,-225 723,-225 719.86,-227.48 720.76,-222.18 716.73,-229.97 716.73,-229.97"/>
<ellipse fill="none" stroke="black" cx="714.22" cy="-231.96" rx="3.2" ry="3.2"/>
</g>
<!-- iaa_edition_catalog_to_text_fragment_confirmation&#45;&gt;iaa_edition_catalog_to_text_fragment -->
<g id="edge9" class="edge">
<title>iaa_edition_catalog_to_text_fragment_confirmation:w&#45;&gt;iaa_edition_catalog_to_text_fragment:e</title>
<path fill="none" stroke="black" d="M708.68,-227.38C698.25,-231.14 692.09,-238 676.5,-238"/>
<polygon fill="black" stroke="black" points="715.11,-226.31 723.59,-228.55 719.05,-225.66 723,-225 723,-225 723,-225 719.05,-225.66 722.41,-221.45 715.11,-226.31 715.11,-226.31"/>
<ellipse fill="none" stroke="black" cx="711.95" cy="-226.84" rx="3.2" ry="3.2"/>
</g>
<!-- image_catalog_author -->
<g id="node10" class="node">
<title>image_catalog_author</title>
<g id="a_node10"><a xlink:href="../../tables/image_catalog_author.html" xlink:title="image_catalog_author" target="_top">
<polygon fill="#ffffff" stroke="transparent" points="812,-702 812,-760 998,-760 998,-702 812,-702"/>
<polygon fill="#f5f5f5" stroke="transparent" points="812,-738 812,-760 998,-760 998,-738 812,-738"/>
<polygon fill="none" stroke="black" points="812,-738 812,-760 998,-760 998,-738 812,-738"/>
<text text-anchor="start" x="817" y="-747.2" font-family="Helvetica,sans-Serif" font-weight="bold" font-size="11.00">image_catalog_author</text>
<text text-anchor="start" x="956" y="-746.2" font-family="Helvetica,sans-Serif" font-size="11.00">[table]</text>
<polygon fill="none" stroke="black" points="812,-720 812,-738 998,-738 998,-720 812,-720"/>
<text text-anchor="start" x="815" y="-726.2" font-family="Helvetica,sans-Serif" font-size="11.00">...</text>
<polygon fill="#ffffff" stroke="transparent" points="812,-702 812,-720 874,-720 874,-702 812,-702"/>
<polygon fill="none" stroke="black" points="812,-702 812,-720 874,-720 874,-702 812,-702"/>
<text text-anchor="start" x="815" y="-708.2" font-family="Helvetica,sans-Serif" font-size="11.00">&lt; 2</text>
<polygon fill="#ffffff" stroke="transparent" points="874,-702 874,-720 966,-720 966,-702 874,-702"/>
<polygon fill="none" stroke="black" points="874,-702 874,-720 966,-720 966,-702 874,-702"/>
<text text-anchor="start" x="895" y="-708.2" font-family="Helvetica,sans-Serif" font-size="11.00">41,829 rows</text>
<polygon fill="#ffffff" stroke="transparent" points="966,-702 966,-720 998,-720 998,-702 966,-702"/>
<polygon fill="none" stroke="black" points="966,-702 966,-720 998,-720 998,-702 966,-702"/>
<text text-anchor="start" x="987" y="-708.2" font-family="Helvetica,sans-Serif" font-size="11.00"> &#160;</text>
</a>
</g>
</g>
<!-- image_catalog_author&#45;&gt;user -->
<g id="edge11" class="edge">
<title>image_catalog_author:w&#45;&gt;user:e</title>
<path fill="none" stroke="black" d="M796.39,-728.44C762.79,-725.62 750.41,-712.41 716,-692 667.3,-663.12 675.12,-610 618.5,-610"/>
<polygon fill="black" stroke="black" points="803.01,-728.69 810.86,-732.6 807,-728.85 811,-729 811,-729 811,-729 807,-728.85 811.14,-725.4 803.01,-728.69 803.01,-728.69"/>
<ellipse fill="none" stroke="black" cx="799.81" cy="-728.57" rx="3.2" ry="3.2"/>
</g>
<!-- image_to_iaa_edition_catalog -->
<g id="node11" class="node">
<title>image_to_iaa_edition_catalog</title>
<g id="a_node11"><a xlink:href="../../tables/image_to_iaa_edition_catalog.html" xlink:title="image_to_iaa_edition_catalog" target="_top">
<polygon fill="#ffffff" stroke="transparent" points="420.5,-132 420.5,-190 650.5,-190 650.5,-132 420.5,-132"/>
<polygon fill="#f5f5f5" stroke="transparent" points="420.5,-168 420.5,-190 650.5,-190 650.5,-168 420.5,-168"/>
<polygon fill="none" stroke="black" points="420.5,-168 420.5,-190 650.5,-190 650.5,-168 420.5,-168"/>
<text text-anchor="start" x="425.5" y="-177.2" font-family="Helvetica,sans-Serif" font-weight="bold" font-size="11.00">image_to_iaa_edition_catalog</text>
<text text-anchor="start" x="608.5" y="-176.2" font-family="Helvetica,sans-Serif" font-size="11.00">[table]</text>
<polygon fill="none" stroke="black" points="420.5,-150 420.5,-168 650.5,-168 650.5,-150 420.5,-150"/>
<text text-anchor="start" x="423.5" y="-156.2" font-family="Helvetica,sans-Serif" font-size="11.00">...</text>
<polygon fill="#ffffff" stroke="transparent" points="420.5,-132 420.5,-150 504.5,-150 504.5,-132 420.5,-132"/>
<polygon fill="none" stroke="black" points="420.5,-132 420.5,-150 504.5,-150 504.5,-132 420.5,-132"/>
<text text-anchor="start" x="423.5" y="-138.2" font-family="Helvetica,sans-Serif" font-size="11.00">&lt; 2</text>
<polygon fill="#ffffff" stroke="transparent" points="504.5,-132 504.5,-150 607.5,-150 607.5,-132 504.5,-132"/>
<polygon fill="none" stroke="black" points="504.5,-132 504.5,-150 607.5,-150 607.5,-132 504.5,-132"/>
<text text-anchor="start" x="536.5" y="-138.2" font-family="Helvetica,sans-Serif" font-size="11.00">39,105 rows</text>
<polygon fill="#ffffff" stroke="transparent" points="607.5,-132 607.5,-150 650.5,-150 650.5,-132 607.5,-132"/>
<polygon fill="none" stroke="black" points="607.5,-132 607.5,-150 650.5,-150 650.5,-132 607.5,-132"/>
<text text-anchor="start" x="639.5" y="-138.2" font-family="Helvetica,sans-Serif" font-size="11.00"> &#160;</text>
</a>
</g>
</g>
<!-- image_to_iaa_edition_catalog&#45;&gt;iaa_edition_catalog -->
<g id="edge12" class="edge">
<title>image_to_iaa_edition_catalog:w&#45;&gt;iaa_edition_catalog:e</title>
<path fill="none" stroke="black" d="M405.21,-162.19C376.93,-176.97 389.99,-238 348.5,-238"/>
<polygon fill="black" stroke="black" points="411.69,-160.75 420.29,-162.51 415.6,-159.87 419.5,-159 419.5,-159 419.5,-159 415.6,-159.87 418.71,-155.49 411.69,-160.75 411.69,-160.75"/>
<ellipse fill="none" stroke="black" cx="408.57" cy="-161.44" rx="3.2" ry="3.2"/>
</g>
<!-- image_to_image_map_author -->
<g id="node12" class="node">
<title>image_to_image_map_author</title>
<g id="a_node12"><a xlink:href="../../tables/image_to_image_map_author.html" xlink:title="image_to_image_map_author" target="_top">
<polygon fill="#ffffff" stroke="transparent" points="791.5,-623 791.5,-681 1018.5,-681 1018.5,-623 791.5,-623"/>
<polygon fill="#f5f5f5" stroke="transparent" points="792,-659 792,-681 1019,-681 1019,-659 792,-659"/>
<polygon fill="none" stroke="black" points="792,-659 792,-681 1019,-681 1019,-659 792,-659"/>
<text text-anchor="start" x="797" y="-668.2" font-family="Helvetica,sans-Serif" font-weight="bold" font-size="11.00">image_to_image_map_author</text>
<text text-anchor="start" x="977" y="-667.2" font-family="Helvetica,sans-Serif" font-size="11.00">[table]</text>
<polygon fill="none" stroke="black" points="792,-641 792,-659 1019,-659 1019,-641 792,-641"/>
<text text-anchor="start" x="795" y="-647.2" font-family="Helvetica,sans-Serif" font-size="11.00">...</text>
<polygon fill="#ffffff" stroke="transparent" points="792,-623 792,-641 874,-641 874,-623 792,-623"/>
<polygon fill="none" stroke="black" points="792,-623 792,-641 874,-641 874,-623 792,-623"/>
<text text-anchor="start" x="795" y="-629.2" font-family="Helvetica,sans-Serif" font-size="11.00">&lt; 2</text>
<polygon fill="#ffffff" stroke="transparent" points="874,-623 874,-641 976,-641 976,-623 874,-623"/>
<polygon fill="none" stroke="black" points="874,-623 874,-641 976,-641 976,-623 874,-623"/>
<text text-anchor="start" x="905" y="-629.2" font-family="Helvetica,sans-Serif" font-size="11.00">72,198 rows</text>
<polygon fill="#ffffff" stroke="transparent" points="976,-623 976,-641 1019,-641 1019,-623 976,-623"/>
<polygon fill="none" stroke="black" points="976,-623 976,-641 1019,-641 1019,-623 976,-623"/>
<text text-anchor="start" x="1008" y="-629.2" font-family="Helvetica,sans-Serif" font-size="11.00"> &#160;</text>
</a>
</g>
</g>
<!-- image_to_image_map_author&#45;&gt;user -->
<g id="edge13" class="edge">
<title>image_to_image_map_author:w&#45;&gt;user:e</title>
<path fill="none" stroke="black" d="M776.54,-649.52C710.09,-645.01 692.13,-610 618.5,-610"/>
<polygon fill="black" stroke="black" points="783,-649.74 790.88,-653.6 787,-649.87 791,-650 791,-650 791,-650 787,-649.87 791.12,-646.4 783,-649.74 783,-649.74"/>
<ellipse fill="none" stroke="black" cx="779.81" cy="-649.63" rx="3.2" ry="3.2"/>
</g>
<!-- SQE_image_author -->
<g id="node13" class="node">
<title>SQE_image_author</title>
<g id="a_node13"><a xlink:href="../../tables/SQE_image_author.html" xlink:title="SQE_image_author" target="_top">
<polygon fill="#ffffff" stroke="transparent" points="822.5,-544 822.5,-602 987.5,-602 987.5,-544 822.5,-544"/>
<polygon fill="#f5f5f5" stroke="transparent" points="823,-580 823,-602 988,-602 988,-580 823,-580"/>
<polygon fill="none" stroke="black" points="823,-580 823,-602 988,-602 988,-580 823,-580"/>
<text text-anchor="start" x="828" y="-589.2" font-family="Helvetica,sans-Serif" font-weight="bold" font-size="11.00">SQE_image_author</text>
<text text-anchor="start" x="946" y="-588.2" font-family="Helvetica,sans-Serif" font-size="11.00">[table]</text>
<polygon fill="none" stroke="black" points="823,-562 823,-580 988,-580 988,-562 823,-562"/>
<text text-anchor="start" x="826" y="-568.2" font-family="Helvetica,sans-Serif" font-size="11.00">...</text>
<polygon fill="#ffffff" stroke="transparent" points="823,-544 823,-562 874,-562 874,-544 823,-544"/>
<polygon fill="none" stroke="black" points="823,-544 823,-562 874,-562 874,-544 823,-544"/>
<text text-anchor="start" x="826" y="-550.2" font-family="Helvetica,sans-Serif" font-size="11.00">&lt; 2</text>
<polygon fill="#ffffff" stroke="transparent" points="874,-544 874,-562 961,-562 961,-544 874,-544"/>
<polygon fill="none" stroke="black" points="874,-544 874,-562 961,-562 961,-544 874,-544"/>
<text text-anchor="start" x="890" y="-550.2" font-family="Helvetica,sans-Serif" font-size="11.00">97,205 rows</text>
<polygon fill="#ffffff" stroke="transparent" points="961,-544 961,-562 988,-562 988,-544 961,-544"/>
<polygon fill="none" stroke="black" points="961,-544 961,-562 988,-562 988,-544 961,-544"/>
<text text-anchor="start" x="977" y="-550.2" font-family="Helvetica,sans-Serif" font-size="11.00"> &#160;</text>
</a>
</g>
</g>
<!-- SQE_image_author&#45;&gt;user -->
<g id="edge14" class="edge">
<title>SQE_image_author:w&#45;&gt;user:e</title>
<path fill="none" stroke="black" d="M807.52,-571.34C727.58,-575.15 705.55,-610 618.5,-610"/>
<polygon fill="black" stroke="black" points="814,-571.19 822.08,-574.6 818,-571.09 822,-571 822,-571 822,-571 818,-571.09 821.92,-567.4 814,-571.19 814,-571.19"/>
<ellipse fill="none" stroke="black" cx="810.8" cy="-571.26" rx="3.2" ry="3.2"/>
</g>
<!-- user_contributions -->
<g id="node14" class="node">
<title>user_contributions</title>
<g id="a_node14"><a xlink:href="../../tables/user_contributions.html" xlink:title="user_contributions" target="_top">
<polygon fill="#ffffff" stroke="transparent" points="822,-465 822,-523 988,-523 988,-465 822,-465"/>
<polygon fill="#f5f5f5" stroke="transparent" points="822,-501 822,-523 988,-523 988,-501 822,-501"/>
<polygon fill="none" stroke="black" points="822,-501 822,-523 988,-523 988,-501 822,-501"/>
<text text-anchor="start" x="827" y="-510.2" font-family="Helvetica,sans-Serif" font-weight="bold" font-size="11.00">user_contributions</text>
<text text-anchor="start" x="946" y="-509.2" font-family="Helvetica,sans-Serif" font-size="11.00">[table]</text>
<polygon fill="none" stroke="black" points="822,-483 822,-501 988,-501 988,-483 822,-483"/>
<text text-anchor="start" x="825" y="-489.2" font-family="Helvetica,sans-Serif" font-size="11.00">...</text>
<polygon fill="#ffffff" stroke="transparent" points="822,-465 822,-483 889,-483 889,-465 822,-465"/>
<polygon fill="none" stroke="black" points="822,-465 822,-483 889,-483 889,-465 822,-465"/>
<text text-anchor="start" x="825" y="-471.2" font-family="Helvetica,sans-Serif" font-size="11.00">&lt; 1</text>
<polygon fill="#ffffff" stroke="transparent" points="889,-465 889,-483 953,-483 953,-465 889,-465"/>
<polygon fill="none" stroke="black" points="889,-465 889,-483 953,-483 953,-465 889,-465"/>
<text text-anchor="start" x="913" y="-471.2" font-family="Helvetica,sans-Serif" font-size="11.00">0 rows</text>
<polygon fill="#ffffff" stroke="transparent" points="953,-465 953,-483 988,-483 988,-465 953,-465"/>
<polygon fill="none" stroke="black" points="953,-465 953,-483 988,-483 988,-465 953,-465"/>
<text text-anchor="start" x="977" y="-471.2" font-family="Helvetica,sans-Serif" font-size="11.00"> &#160;</text>
</a>
</g>
</g>
<!-- user_contributions&#45;&gt;user -->
<g id="edge15" class="edge">
<title>user_contributions:w&#45;&gt;user:e</title>
<path fill="none" stroke="black" d="M806.57,-492.54C768.08,-495.6 755.07,-511.56 716,-534 668.36,-561.36 673.44,-610 618.5,-610"/>
<polygon fill="black" stroke="black" points="813.01,-492.3 821.13,-495.6 817,-492.15 821,-492 821,-492 821,-492 817,-492.15 820.87,-488.4 813.01,-492.3 813.01,-492.3"/>
<ellipse fill="none" stroke="black" cx="809.81" cy="-492.42" rx="3.2" ry="3.2"/>
</g>
</g>
</svg>
