<?xml version="1.0" encoding="UTF-8" standalone="no"?>
<!DOCTYPE svg PUBLIC "-//W3C//DTD SVG 1.1//EN"
 "http://www.w3.org/Graphics/SVG/1.1/DTD/svg11.dtd">
<!-- Generated by graphviz version 2.40.1 (20161225.0304)
 -->
<!-- Title: twoDegreesRelationshipsDiagramImplied Pages: 1 -->
<svg width="1186pt" height="750pt"
 viewBox="0.00 0.00 1186.00 750.00" xmlns="http://www.w3.org/2000/svg" xmlns:xlink="http://www.w3.org/1999/xlink">
<g id="graph0" class="graph" transform="scale(1 1) rotate(0) translate(4 746)">
<title>twoDegreesRelationshipsDiagramImplied</title>
<polygon fill="#ffffff" stroke="transparent" points="-4,4 -4,-746 1182,-746 1182,4 -4,4"/>
<text text-anchor="middle" x="71.5" y="-7.2" font-family="Helvetica,sans-Serif" font-size="11.00" fill="#000000">Generated by SchemaSpy</text>
<!-- iaa_edition_catalog -->
<g id="node1" class="node">
<title>iaa_edition_catalog</title>
<g id="a_node1"><a xlink:href="../../tables/iaa_edition_catalog.html" xlink:title="iaa_edition_catalog" target="_top">
<polygon fill="#ffffff" stroke="transparent" points="161,-37 161,-271 330,-271 330,-37 161,-37"/>
<polygon fill="#f5f5f5" stroke="transparent" points="161.5,-249 161.5,-271 330.5,-271 330.5,-249 161.5,-249"/>
<polygon fill="none" stroke="#000000" points="161.5,-249 161.5,-271 330.5,-271 330.5,-249 161.5,-249"/>
<text text-anchor="start" x="166.5" y="-258.2" font-family="Helvetica,sans-Serif" font-weight="bold" font-size="11.00" fill="#000000">iaa_edition_catalog</text>
<text text-anchor="start" x="295.5" y="-257.2" font-family="Helvetica,sans-Serif" font-size="11.00" fill="#000000">[table]</text>
<polygon fill="none" stroke="#000000" points="161.5,-227 161.5,-249 330.5,-249 330.5,-227 161.5,-227"/>
<image xlink:href="../../images/primaryKeys.png" width="11px" height="12px" preserveAspectRatio="xMinYMin meet" x="166.5" y="-244"/>
<text text-anchor="start" x="181.5" y="-235.2" font-family="Helvetica,sans-Serif" font-size="11.00" fill="#000000">iaa_edition_catalog_id</text>
<polygon fill="#ffffff" stroke="transparent" points="161.5,-205 161.5,-227 330.5,-227 330.5,-205 161.5,-205"/>
<polygon fill="none" stroke="#000000" points="161.5,-205 161.5,-227 330.5,-227 330.5,-205 161.5,-205"/>
<text text-anchor="start" x="181.5" y="-213.2" font-family="Helvetica,sans-Serif" font-size="11.00" fill="#000000">manuscript</text>
<polygon fill="#ffffff" stroke="transparent" points="161.5,-183 161.5,-205 330.5,-205 330.5,-183 161.5,-183"/>
<polygon fill="none" stroke="#000000" points="161.5,-183 161.5,-205 330.5,-205 330.5,-183 161.5,-183"/>
<text text-anchor="start" x="181.5" y="-191.2" font-family="Helvetica,sans-Serif" font-size="11.00" fill="#000000">edition_name</text>
<polygon fill="#ffffff" stroke="transparent" points="161.5,-161 161.5,-183 330.5,-183 330.5,-161 161.5,-161"/>
<polygon fill="none" stroke="#000000" points="161.5,-161 161.5,-183 330.5,-183 330.5,-161 161.5,-161"/>
<text text-anchor="start" x="181.5" y="-169.2" font-family="Helvetica,sans-Serif" font-size="11.00" fill="#000000">edition_volume</text>
<polygon fill="#ffffff" stroke="transparent" points="161.5,-139 161.5,-161 330.5,-161 330.5,-139 161.5,-139"/>
<polygon fill="none" stroke="#000000" points="161.5,-139 161.5,-161 330.5,-161 330.5,-139 161.5,-139"/>
<text text-anchor="start" x="181.5" y="-147.2" font-family="Helvetica,sans-Serif" font-size="11.00" fill="#000000">edition_location_1</text>
<polygon fill="#ffffff" stroke="transparent" points="161.5,-117 161.5,-139 330.5,-139 330.5,-117 161.5,-117"/>
<polygon fill="none" stroke="#000000" points="161.5,-117 161.5,-139 330.5,-139 330.5,-117 161.5,-117"/>
<text text-anchor="start" x="181.5" y="-125.2" font-family="Helvetica,sans-Serif" font-size="11.00" fill="#000000">edition_location_2</text>
<polygon fill="#ffffff" stroke="transparent" points="161.5,-95 161.5,-117 330.5,-117 330.5,-95 161.5,-95"/>
<polygon fill="none" stroke="#000000" points="161.5,-95 161.5,-117 330.5,-117 330.5,-95 161.5,-95"/>
<text text-anchor="start" x="181.5" y="-103.2" font-family="Helvetica,sans-Serif" font-size="11.00" fill="#000000">edition_side</text>
<polygon fill="#ffffff" stroke="transparent" points="161.5,-73 161.5,-95 330.5,-95 330.5,-73 161.5,-73"/>
<polygon fill="none" stroke="#000000" points="161.5,-73 161.5,-95 330.5,-95 330.5,-73 161.5,-73"/>
<image xlink:href="../../images/foreignKeys.png" width="11px" height="12px" preserveAspectRatio="xMinYMin meet" x="166.5" y="-90"/>
<text text-anchor="start" x="181.5" y="-81.2" font-family="Helvetica,sans-Serif" font-size="11.00" fill="#000000">manuscript_id</text>
<polygon fill="none" stroke="#000000" points="161.5,-55 161.5,-73 330.5,-73 330.5,-55 161.5,-55"/>
<text text-anchor="start" x="164.5" y="-61.2" font-family="Helvetica,sans-Serif" font-size="11.00" fill="#000000">...</text>
<polygon fill="#ffffff" stroke="transparent" points="161.5,-37 161.5,-55 212.5,-55 212.5,-37 161.5,-37"/>
<polygon fill="none" stroke="#000000" points="161.5,-37 161.5,-55 212.5,-55 212.5,-37 161.5,-37"/>
<text text-anchor="start" x="164.5" y="-43.2" font-family="Helvetica,sans-Serif" font-size="11.00" fill="#000000">&lt; 1</text>
<polygon fill="#ffffff" stroke="transparent" points="212.5,-37 212.5,-55 293.5,-55 293.5,-37 212.5,-37"/>
<polygon fill="none" stroke="#000000" points="212.5,-37 212.5,-55 293.5,-55 293.5,-37 212.5,-37"/>
<text text-anchor="start" x="230.5" y="-43.2" font-family="Helvetica,sans-Serif" font-size="11.00" fill="#000000">37,640 rows</text>
<polygon fill="#ffffff" stroke="transparent" points="293.5,-37 293.5,-55 330.5,-55 330.5,-37 293.5,-37"/>
<polygon fill="none" stroke="#000000" points="293.5,-37 293.5,-55 330.5,-55 330.5,-37 293.5,-37"/>
<text text-anchor="start" x="311.5" y="-43.2" font-family="Helvetica,sans-Serif" font-size="11.00" fill="#000000">3 &gt;</text>
</a>
</g>
</g>
<!-- manuscript -->
<g id="node2" class="node">
<title>manuscript</title>
<g id="a_node2"><a xlink:href="../../tables/manuscript.html" xlink:title="manuscript" target="_top">
<polygon fill="#ffffff" stroke="transparent" points="8,-382 8,-440 112,-440 112,-382 8,-382"/>
<polygon fill="#f5f5f5" stroke="transparent" points="8,-418 8,-440 112,-440 112,-418 8,-418"/>
<polygon fill="none" stroke="#000000" points="8,-418 8,-440 112,-440 112,-418 8,-418"/>
<text text-anchor="start" x="13" y="-427.2" font-family="Helvetica,sans-Serif" font-weight="bold" font-size="11.00" fill="#000000">manuscript</text>
<text text-anchor="start" x="77" y="-426.2" font-family="Helvetica,sans-Serif" font-size="11.00" fill="#000000">[table]</text>
<polygon fill="none" stroke="#000000" points="8,-400 8,-418 112,-418 112,-400 8,-400"/>
<text text-anchor="start" x="11" y="-406.2" font-family="Helvetica,sans-Serif" font-size="11.00" fill="#000000">...</text>
<polygon fill="#ffffff" stroke="transparent" points="8,-382 8,-400 25,-400 25,-382 8,-382"/>
<polygon fill="none" stroke="#000000" points="8,-382 8,-400 25,-400 25,-382 8,-382"/>
<text text-anchor="start" x="11" y="-388.2" font-family="Helvetica,sans-Serif" font-size="11.00" fill="#000000"> &#160;</text>
<polygon fill="#ffffff" stroke="transparent" points="25,-382 25,-400 87,-400 87,-382 25,-382"/>
<polygon fill="none" stroke="#000000" points="25,-382 25,-400 87,-400 87,-382 25,-382"/>
<text text-anchor="start" x="30" y="-388.2" font-family="Helvetica,sans-Serif" font-size="11.00" fill="#000000">1,645 rows</text>
<polygon fill="#ffffff" stroke="transparent" points="87,-382 87,-400 112,-400 112,-382 87,-382"/>
<polygon fill="none" stroke="#000000" points="87,-382 87,-400 112,-400 112,-382 87,-382"/>
<text text-anchor="start" x="93" y="-388.2" font-family="Helvetica,sans-Serif" font-size="11.00" fill="#000000">6 &gt;</text>
</a>
</g>
</g>
<!-- iaa_edition_catalog&#45;&gt;manuscript -->
<g id="edge1" class="edge">
<title>iaa_edition_catalog:w&#45;&gt;manuscript:e</title>
<path fill="none" stroke="#000000" d="M147.1481,-85.2423C32.4225,-107.062 252.8309,-409 112,-409"/>
<polygon fill="#000000" stroke="#000000" points="153.5298,-84.6899 161.8105,-87.5866 157.5149,-84.345 161.5,-84 161.5,-84 161.5,-84 157.5149,-84.345 161.1895,-80.4134 153.5298,-84.6899 153.5298,-84.6899"/>
<ellipse fill="none" stroke="#000000" cx="150.3417" cy="-84.9659" rx="3.2" ry="3.2"/>
</g>
<!-- iaa_edition_catalog_author -->
<g id="node3" class="node">
<title>iaa_edition_catalog_author</title>
<g id="a_node3"><a xlink:href="../../tables/iaa_edition_catalog_author.html" xlink:title="iaa_edition_catalog_author" target="_top">
<polygon fill="#ffffff" stroke="transparent" points="474.5,-145 474.5,-203 660.5,-203 660.5,-145 474.5,-145"/>
<polygon fill="#f5f5f5" stroke="transparent" points="474.5,-181 474.5,-203 660.5,-203 660.5,-181 474.5,-181"/>
<polygon fill="none" stroke="#000000" points="474.5,-181 474.5,-203 660.5,-203 660.5,-181 474.5,-181"/>
<text text-anchor="start" x="479.5" y="-190.2" font-family="Helvetica,sans-Serif" font-weight="bold" font-size="11.00" fill="#000000">iaa_edition_catalog_author</text>
<text text-anchor="start" x="625.5" y="-189.2" font-family="Helvetica,sans-Serif" font-size="11.00" fill="#000000">[table]</text>
<polygon fill="none" stroke="#000000" points="474.5,-163 474.5,-181 660.5,-181 660.5,-163 474.5,-163"/>
<text text-anchor="start" x="477.5" y="-169.2" font-family="Helvetica,sans-Serif" font-size="11.00" fill="#000000">...</text>
<polygon fill="#ffffff" stroke="transparent" points="474.5,-145 474.5,-163 538.5,-163 538.5,-145 474.5,-145"/>
<polygon fill="none" stroke="#000000" points="474.5,-145 474.5,-163 538.5,-163 538.5,-145 474.5,-145"/>
<text text-anchor="start" x="477.5" y="-151.2" font-family="Helvetica,sans-Serif" font-size="11.00" fill="#000000">&lt; 2</text>
<polygon fill="#ffffff" stroke="transparent" points="538.5,-145 538.5,-163 625.5,-163 625.5,-145 538.5,-145"/>
<polygon fill="none" stroke="#000000" points="538.5,-145 538.5,-163 625.5,-163 625.5,-145 538.5,-145"/>
<text text-anchor="start" x="562.5" y="-151.2" font-family="Helvetica,sans-Serif" font-size="11.00" fill="#000000">38,546 rows</text>
<polygon fill="#ffffff" stroke="transparent" points="625.5,-145 625.5,-163 660.5,-163 660.5,-145 625.5,-145"/>
<polygon fill="none" stroke="#000000" points="625.5,-145 625.5,-163 660.5,-163 660.5,-145 625.5,-145"/>
<text text-anchor="start" x="650.5" y="-151.2" font-family="Helvetica,sans-Serif" font-size="11.00" fill="#000000"> &#160;</text>
</a>
</g>
</g>
<!-- iaa_edition_catalog_author&#45;&gt;iaa_edition_catalog -->
<g id="edge2" class="edge">
<title>iaa_edition_catalog_author:w&#45;&gt;iaa_edition_catalog:e</title>
<path fill="none" stroke="#000000" d="M463.9951,-172.377C422.9403,-175.4694 412.9297,-197.0427 371,-217 352.6921,-225.714 350.7759,-238 330.5,-238"/>
<polygon fill="#000000" stroke="#000000" points="473.557,-168.0313 473.844,-176.0261 472.2451,-176.0835 471.958,-168.0887 473.557,-168.0313"/>
<polyline fill="none" stroke="#000000" points="474.5,-172 470.5026,-172.1435 "/>
<ellipse fill="none" stroke="#000000" cx="467.3046" cy="-172.2583" rx="3.2" ry="3.2"/>
</g>
<!-- user -->
<g id="node4" class="node">
<title>user</title>
<g id="a_node4"><a xlink:href="../../tables/user.html" xlink:title="user" target="_top">
<polygon fill="#ffffff" stroke="transparent" points="205.5,-446 205.5,-504 285.5,-504 285.5,-446 205.5,-446"/>
<polygon fill="#f5f5f5" stroke="transparent" points="205.5,-482 205.5,-504 285.5,-504 285.5,-482 205.5,-482"/>
<polygon fill="none" stroke="#000000" points="205.5,-482 205.5,-504 285.5,-504 285.5,-482 205.5,-482"/>
<text text-anchor="start" x="210.5" y="-491.2" font-family="Helvetica,sans-Serif" font-weight="bold" font-size="11.00" fill="#000000">user</text>
<text text-anchor="start" x="250.5" y="-490.2" font-family="Helvetica,sans-Serif" font-size="11.00" fill="#000000">[table]</text>
<polygon fill="none" stroke="#000000" points="205.5,-464 205.5,-482 285.5,-482 285.5,-464 205.5,-464"/>
<text text-anchor="start" x="208.5" y="-470.2" font-family="Helvetica,sans-Serif" font-size="11.00" fill="#000000">...</text>
<polygon fill="#ffffff" stroke="transparent" points="205.5,-446 205.5,-464 218.5,-464 218.5,-446 205.5,-446"/>
<polygon fill="none" stroke="#000000" points="205.5,-446 205.5,-464 218.5,-464 218.5,-446 205.5,-446"/>
<text text-anchor="start" x="208.5" y="-452.2" font-family="Helvetica,sans-Serif" font-size="11.00" fill="#000000"> &#160;</text>
<polygon fill="#ffffff" stroke="transparent" points="218.5,-446 218.5,-464 257.5,-464 257.5,-446 218.5,-446"/>
<polygon fill="none" stroke="#000000" points="218.5,-446 218.5,-464 257.5,-464 257.5,-446 218.5,-446"/>
<text text-anchor="start" x="221.5" y="-452.2" font-family="Helvetica,sans-Serif" font-size="11.00" fill="#000000">3 rows</text>
<polygon fill="#ffffff" stroke="transparent" points="257.5,-446 257.5,-464 285.5,-464 285.5,-446 257.5,-446"/>
<polygon fill="none" stroke="#000000" points="257.5,-446 257.5,-464 285.5,-464 285.5,-446 257.5,-446"/>
<text text-anchor="start" x="260.5" y="-452.2" font-family="Helvetica,sans-Serif" font-size="11.00" fill="#000000">40 &gt;</text>
</a>
</g>
</g>
<!-- iaa_edition_catalog_author&#45;&gt;user -->
<g id="edge3" class="edge">
<title>iaa_edition_catalog_author:w&#45;&gt;user:e</title>
<path fill="none" stroke="#000000" d="M459.8598,-172.2807C420.1564,-173.9688 401.3709,-183.8386 371,-217 289.9823,-305.4619 405.4558,-473 285.5,-473"/>
<polygon fill="#000000" stroke="#000000" points="466.5015,-172.1534 474.569,-175.5993 470.5007,-172.0767 474.5,-172 474.5,-172 474.5,-172 470.5007,-172.0767 474.431,-168.4007 466.5015,-172.1534 466.5015,-172.1534"/>
<ellipse fill="none" stroke="#000000" cx="463.3021" cy="-172.2148" rx="3.2" ry="3.2"/>
</g>
<!-- iaa_edition_catalog_to_text_fragment -->
<g id="node5" class="node">
<title>iaa_edition_catalog_to_text_fragment</title>
<g id="a_node5"><a xlink:href="../../tables/iaa_edition_catalog_to_text_fragment.html" xlink:title="iaa_edition_catalog_to_text_fragment" target="_top">
<polygon fill="#ffffff" stroke="transparent" points="379,-251 379,-361 756,-361 756,-251 379,-251"/>
<polygon fill="#f5f5f5" stroke="transparent" points="381.5,-337 381.5,-359 754.5,-359 754.5,-337 381.5,-337"/>
<polygon fill="none" stroke="#000000" points="381.5,-337 381.5,-359 754.5,-359 754.5,-337 381.5,-337"/>
<text text-anchor="start" x="386.5" y="-346.2" font-family="Helvetica,sans-Serif" font-weight="bold" font-size="11.00" fill="#000000">iaa_edition_catalog_to_text_fragment</text>
<text text-anchor="start" x="719.5" y="-345.2" font-family="Helvetica,sans-Serif" font-size="11.00" fill="#000000">[table]</text>
<polygon fill="none" stroke="#000000" points="381.5,-315 381.5,-337 672.5,-337 672.5,-315 381.5,-315"/>
<image xlink:href="../../images/primaryKeys.png" width="11px" height="12px" preserveAspectRatio="xMinYMin meet" x="386.5" y="-332"/>
<text text-anchor="start" x="401.5" y="-323.2" font-family="Helvetica,sans-Serif" font-size="11.00" fill="#000000">iaa_edition_catalog_to_text_fragment_id</text>
<polygon fill="none" stroke="#000000" points="672.5,-315 672.5,-337 754.5,-337 754.5,-315 672.5,-315"/>
<text text-anchor="start" x="675.5" y="-323.2" font-family="Helvetica,sans-Serif" font-size="11.00" fill="#000000">int unsigned[10]</text>
<polygon fill="#ffffff" stroke="transparent" points="381.5,-293 381.5,-315 672.5,-315 672.5,-293 381.5,-293"/>
<polygon fill="none" stroke="#000000" points="381.5,-293 381.5,-315 672.5,-315 672.5,-293 381.5,-293"/>
<image xlink:href="../../images/foreignKeys.png" width="11px" height="12px" preserveAspectRatio="xMinYMin meet" x="386.5" y="-310"/>
<text text-anchor="start" x="401.5" y="-301.2" font-family="Helvetica,sans-Serif" font-size="11.00" fill="#000000">iaa_edition_catalog_id</text>
<polygon fill="none" stroke="#000000" points="672.5,-293 672.5,-315 754.5,-315 754.5,-293 672.5,-293"/>
<text text-anchor="start" x="675.5" y="-301.2" font-family="Helvetica,sans-Serif" font-size="11.00" fill="#000000">int unsigned[10]</text>
<polygon fill="#ffffff" stroke="transparent" points="381.5,-271 381.5,-293 672.5,-293 672.5,-271 381.5,-271"/>
<polygon fill="none" stroke="#000000" points="381.5,-271 381.5,-293 672.5,-293 672.5,-271 381.5,-271"/>
<image xlink:href="../../images/foreignKeys.png" width="11px" height="12px" preserveAspectRatio="xMinYMin meet" x="386.5" y="-288"/>
<text text-anchor="start" x="401.5" y="-279.2" font-family="Helvetica,sans-Serif" font-size="11.00" fill="#000000">text_fragment_id</text>
<polygon fill="none" stroke="#000000" points="672.5,-271 672.5,-293 754.5,-293 754.5,-271 672.5,-271"/>
<text text-anchor="start" x="675.5" y="-279.2" font-family="Helvetica,sans-Serif" font-size="11.00" fill="#000000">int unsigned[10]</text>
<polygon fill="#ffffff" stroke="transparent" points="381.5,-253 381.5,-271 504.5,-271 504.5,-253 381.5,-253"/>
<polygon fill="none" stroke="#000000" points="381.5,-253 381.5,-271 504.5,-271 504.5,-253 381.5,-253"/>
<text text-anchor="start" x="384.5" y="-259.2" font-family="Helvetica,sans-Serif" font-size="11.00" fill="#000000">&lt; 2</text>
<polygon fill="#ffffff" stroke="transparent" points="504.5,-253 504.5,-271 672.5,-271 672.5,-253 504.5,-253"/>
<polygon fill="none" stroke="#000000" points="504.5,-253 504.5,-271 672.5,-271 672.5,-253 504.5,-253"/>
<text text-anchor="start" x="609.5" y="-259.2" font-family="Helvetica,sans-Serif" font-size="11.00" fill="#000000">15,236 rows</text>
<polygon fill="#ffffff" stroke="transparent" points="672.5,-253 672.5,-271 754.5,-271 754.5,-253 672.5,-253"/>
<polygon fill="none" stroke="#000000" points="672.5,-253 672.5,-271 754.5,-271 754.5,-253 672.5,-253"/>
<text text-anchor="start" x="735.5" y="-259.2" font-family="Helvetica,sans-Serif" font-size="11.00" fill="#000000">1 &gt;</text>
<polygon fill="none" stroke="#000000" stroke-width="2" points="380,-252 380,-360 755,-360 755,-252 380,-252"/>
</a>
</g>
</g>
<!-- iaa_edition_catalog_to_text_fragment&#45;&gt;iaa_edition_catalog -->
<g id="edge4" class="edge">
<title>iaa_edition_catalog_to_text_fragment:w&#45;&gt;iaa_edition_catalog:e</title>
<path fill="none" stroke="#000000" d="M367.5846,-299.2534C350.402,-284.1202 361.4886,-238 330.5,-238"/>
<polygon fill="#000000" stroke="#000000" points="373.9284,-301.4173 380.3378,-307.4072 377.7142,-302.7086 381.5,-304 381.5,-304 381.5,-304 377.7142,-302.7086 382.6622,-300.5928 373.9284,-301.4173 373.9284,-301.4173"/>
<ellipse fill="none" stroke="#000000" cx="370.8997" cy="-300.3842" rx="3.2" ry="3.2"/>
</g>
<!-- text_fragment -->
<g id="node6" class="node">
<title>text_fragment</title>
<g id="a_node6"><a xlink:href="../../tables/text_fragment.html" xlink:title="text_fragment" target="_top">
<polygon fill="#ffffff" stroke="transparent" points="178,-538 178,-600 313,-600 313,-538 178,-538"/>
<polygon fill="#f5f5f5" stroke="transparent" points="178.5,-578 178.5,-600 313.5,-600 313.5,-578 178.5,-578"/>
<polygon fill="none" stroke="#000000" points="178.5,-578 178.5,-600 313.5,-600 313.5,-578 178.5,-578"/>
<text text-anchor="start" x="183.5" y="-587.2" font-family="Helvetica,sans-Serif" font-weight="bold" font-size="11.00" fill="#000000">text_fragment</text>
<text text-anchor="start" x="278.5" y="-586.2" font-family="Helvetica,sans-Serif" font-size="11.00" fill="#000000">[table]</text>
<polygon fill="none" stroke="#000000" points="178.5,-556 178.5,-578 313.5,-578 313.5,-556 178.5,-556"/>
<image xlink:href="../../images/primaryKeys.png" width="11px" height="12px" preserveAspectRatio="xMinYMin meet" x="183.5" y="-573"/>
<text text-anchor="start" x="198.5" y="-564.2" font-family="Helvetica,sans-Serif" font-size="11.00" fill="#000000">text_fragment_id</text>
<polygon fill="#ffffff" stroke="transparent" points="178.5,-538 178.5,-556 208.5,-556 208.5,-538 178.5,-538"/>
<polygon fill="none" stroke="#000000" points="178.5,-538 178.5,-556 208.5,-556 208.5,-538 178.5,-538"/>
<text text-anchor="start" x="181.5" y="-544.2" font-family="Helvetica,sans-Serif" font-size="11.00" fill="#000000"> &#160;</text>
<polygon fill="#ffffff" stroke="transparent" points="208.5,-538 208.5,-556 282.5,-556 282.5,-538 208.5,-538"/>
<polygon fill="none" stroke="#000000" points="208.5,-538 208.5,-556 282.5,-556 282.5,-538 208.5,-538"/>
<text text-anchor="start" x="219.5" y="-544.2" font-family="Helvetica,sans-Serif" font-size="11.00" fill="#000000">11,176 rows</text>
<polygon fill="#ffffff" stroke="transparent" points="282.5,-538 282.5,-556 313.5,-556 313.5,-538 282.5,-538"/>
<polygon fill="none" stroke="#000000" points="282.5,-538 282.5,-556 313.5,-556 313.5,-538 282.5,-538"/>
<text text-anchor="start" x="294.5" y="-544.2" font-family="Helvetica,sans-Serif" font-size="11.00" fill="#000000">7 &gt;</text>
</a>
</g>
</g>
<!-- iaa_edition_catalog_to_text_fragment&#45;&gt;text_fragment -->
<g id="edge5" class="edge">
<title>iaa_edition_catalog_to_text_fragment:w&#45;&gt;text_fragment:e</title>
<path fill="none" stroke="#000000" d="M367.9065,-287.4388C325.7404,-326.84 373.27,-567 313.5,-567"/>
<polygon fill="#000000" stroke="#000000" points="374.0724,-284.9718 382.8373,-285.3424 377.7862,-283.4859 381.5,-282 381.5,-282 381.5,-282 377.7862,-283.4859 380.1627,-278.6576 374.0724,-284.9718 374.0724,-284.9718"/>
<ellipse fill="none" stroke="#000000" cx="371.1014" cy="-286.1605" rx="3.2" ry="3.2"/>
</g>
<!-- iaa_edition_catalog_to_text_fragment_confirmation -->
<g id="node7" class="node">
<title>iaa_edition_catalog_to_text_fragment_confirmation</title>
<g id="a_node7"><a xlink:href="../../tables/iaa_edition_catalog_to_text_fragment_confirmation.html" xlink:title="iaa_edition_catalog_to_text_fragment_confirmation" target="_top">
<polygon fill="#ffffff" stroke="transparent" points="805,-203 805,-331 1170,-331 1170,-203 805,-203"/>
<polygon fill="#f5f5f5" stroke="transparent" points="805.5,-309 805.5,-331 1170.5,-331 1170.5,-309 805.5,-309"/>
<polygon fill="none" stroke="#000000" points="805.5,-309 805.5,-331 1170.5,-331 1170.5,-309 805.5,-309"/>
<text text-anchor="start" x="810.5" y="-318.2" font-family="Helvetica,sans-Serif" font-weight="bold" font-size="11.00" fill="#000000">iaa_edition_catalog_to_text_fragment_confirmation</text>
<text text-anchor="start" x="1135.5" y="-317.2" font-family="Helvetica,sans-Serif" font-size="11.00" fill="#000000">[table]</text>
<polygon fill="#ffffff" stroke="transparent" points="805.5,-287 805.5,-309 1170.5,-309 1170.5,-287 805.5,-287"/>
<polygon fill="none" stroke="#000000" points="805.5,-287 805.5,-309 1170.5,-309 1170.5,-287 805.5,-287"/>
<image xlink:href="../../images/foreignKeys.png" width="11px" height="12px" preserveAspectRatio="xMinYMin meet" x="810.5" y="-304"/>
<text text-anchor="start" x="825.5" y="-295.2" font-family="Helvetica,sans-Serif" font-size="11.00" fill="#000000">iaa_edition_catalog_to_text_fragment_id</text>
<polygon fill="#ffffff" stroke="transparent" points="805.5,-265 805.5,-287 1170.5,-287 1170.5,-265 805.5,-265"/>
<polygon fill="none" stroke="#000000" points="805.5,-265 805.5,-287 1170.5,-287 1170.5,-265 805.5,-265"/>
<text text-anchor="start" x="825.5" y="-273.2" font-family="Helvetica,sans-Serif" font-size="11.00" fill="#000000">confirmed</text>
<polygon fill="#ffffff" stroke="transparent" points="805.5,-243 805.5,-265 1170.5,-265 1170.5,-243 805.5,-243"/>
<polygon fill="none" stroke="#000000" points="805.5,-243 805.5,-265 1170.5,-265 1170.5,-243 805.5,-243"/>
<image xlink:href="../../images/foreignKeys.png" width="11px" height="12px" preserveAspectRatio="xMinYMin meet" x="810.5" y="-260"/>
<text text-anchor="start" x="825.5" y="-251.2" font-family="Helvetica,sans-Serif" font-size="11.00" fill="#000000">user_id</text>
<polygon fill="#ffffff" stroke="transparent" points="805.5,-221 805.5,-243 1170.5,-243 1170.5,-221 805.5,-221"/>
<polygon fill="none" stroke="#000000" points="805.5,-221 805.5,-243 1170.5,-243 1170.5,-221 805.5,-221"/>
<text text-anchor="start" x="825.5" y="-229.2" font-family="Helvetica,sans-Serif" font-size="11.00" fill="#000000">time</text>
<polygon fill="#ffffff" stroke="transparent" points="805.5,-203 805.5,-221 959.5,-221 959.5,-203 805.5,-203"/>
<polygon fill="none" stroke="#000000" points="805.5,-203 805.5,-221 959.5,-221 959.5,-203 805.5,-203"/>
<text text-anchor="start" x="808.5" y="-209.2" font-family="Helvetica,sans-Serif" font-size="11.00" fill="#000000">&lt; 2</text>
<polygon fill="#ffffff" stroke="transparent" points="959.5,-203 959.5,-221 1091.5,-221 1091.5,-203 959.5,-203"/>
<polygon fill="none" stroke="#000000" points="959.5,-203 959.5,-221 1091.5,-221 1091.5,-203 959.5,-203"/>
<text text-anchor="start" x="1028.5" y="-209.2" font-family="Helvetica,sans-Serif" font-size="11.00" fill="#000000">15,364 rows</text>
<polygon fill="#ffffff" stroke="transparent" points="1091.5,-203 1091.5,-221 1170.5,-221 1170.5,-203 1091.5,-203"/>
<polygon fill="none" stroke="#000000" points="1091.5,-203 1091.5,-221 1170.5,-221 1170.5,-203 1091.5,-203"/>
<text text-anchor="start" x="1160.5" y="-209.2" font-family="Helvetica,sans-Serif" font-size="11.00" fill="#000000"> &#160;</text>
</a>
</g>
</g>
<!-- iaa_edition_catalog_to_text_fragment_confirmation&#45;&gt;user -->
<g id="edge7" class="edge">
<title>iaa_edition_catalog_to_text_fragment_confirmation:w&#45;&gt;user:e</title>
<path fill="none" stroke="#000000" d="M791.1584,-251.5735C782.6892,-248.4003 777.1354,-243.0092 764,-241 677.6708,-227.7949 442.6399,-191.0517 371,-241 280.8564,-303.8493 395.3904,-473 285.5,-473"/>
<polygon fill="#000000" stroke="#000000" points="797.6121,-252.6654 804.8994,-257.5496 801.5561,-253.3327 805.5,-254 805.5,-254 805.5,-254 801.5561,-253.3327 806.1006,-250.4504 797.6121,-252.6654 797.6121,-252.6654"/>
<ellipse fill="none" stroke="#000000" cx="794.4569" cy="-252.1315" rx="3.2" ry="3.2"/>
</g>
<!-- iaa_edition_catalog_to_text_fragment_confirmation&#45;&gt;iaa_edition_catalog_to_text_fragment -->
<g id="edge6" class="edge">
<title>iaa_edition_catalog_to_text_fragment_confirmation:w&#45;&gt;iaa_edition_catalog_to_text_fragment:e</title>
<path fill="none" stroke="#000000" d="M791.3987,-301.6605C778.6024,-309.2502 774.4996,-326 754.5,-326"/>
<polygon fill="#000000" stroke="#000000" points="797.7566,-300.0101 806.4046,-301.4845 801.6283,-299.0051 805.5,-298 805.5,-298 805.5,-298 801.6283,-299.0051 804.5954,-294.5155 797.7566,-300.0101 797.7566,-300.0101"/>
<ellipse fill="none" stroke="#000000" cx="794.6593" cy="-300.8142" rx="3.2" ry="3.2"/>
</g>
<!-- image_text_fragment_match_catalogue -->
<g id="node8" class="node">
<title>image_text_fragment_match_catalogue</title>
<g id="a_node8"><a xlink:href="../../tables/image_text_fragment_match_catalogue.html" xlink:title="image_text_fragment_match_catalogue" target="_top">
<polygon fill="#ffffff" stroke="transparent" points="443.5,-698 443.5,-738 691.5,-738 691.5,-698 443.5,-698"/>
<polygon fill="#f5f5f5" stroke="transparent" points="443.5,-716 443.5,-738 691.5,-738 691.5,-716 443.5,-716"/>
<polygon fill="none" stroke="#000000" points="443.5,-716 443.5,-738 691.5,-738 691.5,-716 443.5,-716"/>
<text text-anchor="start" x="448.5" y="-725.2" font-family="Helvetica,sans-Serif" font-weight="bold" font-size="11.00" fill="#000000">image_text_fragment_match_catalogue</text>
<text text-anchor="start" x="658.5" y="-724.2" font-family="Helvetica,sans-Serif" font-size="11.00" fill="#000000">[view]</text>
<polygon fill="none" stroke="#000000" points="443.5,-698 443.5,-716 691.5,-716 691.5,-698 443.5,-698"/>
<text text-anchor="start" x="446.5" y="-704.2" font-family="Helvetica,sans-Serif" font-size="11.00" fill="#000000">...</text>
</a>
</g>
</g>
<!-- image_text_fragment_match_catalogue&#45;&gt;manuscript -->
<g id="edge8" class="edge">
<title>image_text_fragment_match_catalogue:w&#45;&gt;manuscript:e</title>
<path fill="none" stroke="#000000" stroke-dasharray="5,2" d="M428.9493,-706.5006C345.016,-701.1151 189.6666,-653.1654 153,-611 92.8876,-541.8726 203.6084,-409 112,-409"/>
<polygon fill="#000000" stroke="#000000" points="435.5047,-706.7255 443.3765,-710.5979 439.5024,-706.8628 443.5,-707 443.5,-707 443.5,-707 439.5024,-706.8628 443.6235,-703.4021 435.5047,-706.7255 435.5047,-706.7255"/>
<ellipse fill="none" stroke="#000000" cx="432.3066" cy="-706.6157" rx="3.2" ry="3.2"/>
</g>
<!-- image_text_fragment_match_catalogue&#45;&gt;text_fragment -->
<g id="edge9" class="edge">
<title>image_text_fragment_match_catalogue:w&#45;&gt;text_fragment:e</title>
<path fill="none" stroke="#000000" stroke-dasharray="5,2" d="M428.886,-707.0672C405.543,-707.1174 392.5449,-705.845 371,-688 325.1453,-650.02 373.041,-567 313.5,-567"/>
<polygon fill="#000000" stroke="#000000" points="435.5001,-707.0369 443.5166,-710.6 439.5,-707.0184 443.5,-707 443.5,-707 443.5,-707 439.5,-707.0184 443.4834,-703.4 435.5001,-707.0369 435.5001,-707.0369"/>
<ellipse fill="none" stroke="#000000" cx="432.3001" cy="-707.0516" rx="3.2" ry="3.2"/>
</g>
<!-- image_to_iaa_edition_catalog -->
<g id="node9" class="node">
<title>image_to_iaa_edition_catalog</title>
<g id="a_node9"><a xlink:href="../../tables/image_to_iaa_edition_catalog.html" xlink:title="image_to_iaa_edition_catalog" target="_top">
<polygon fill="#ffffff" stroke="transparent" points="467.5,-66 467.5,-124 667.5,-124 667.5,-66 467.5,-66"/>
<polygon fill="#f5f5f5" stroke="transparent" points="467.5,-102 467.5,-124 667.5,-124 667.5,-102 467.5,-102"/>
<polygon fill="none" stroke="#000000" points="467.5,-102 467.5,-124 667.5,-124 667.5,-102 467.5,-102"/>
<text text-anchor="start" x="472.5" y="-111.2" font-family="Helvetica,sans-Serif" font-weight="bold" font-size="11.00" fill="#000000">image_to_iaa_edition_catalog</text>
<text text-anchor="start" x="632.5" y="-110.2" font-family="Helvetica,sans-Serif" font-size="11.00" fill="#000000">[table]</text>
<polygon fill="none" stroke="#000000" points="467.5,-84 467.5,-102 667.5,-102 667.5,-84 467.5,-84"/>
<text text-anchor="start" x="470.5" y="-90.2" font-family="Helvetica,sans-Serif" font-size="11.00" fill="#000000">...</text>
<polygon fill="#ffffff" stroke="transparent" points="467.5,-66 467.5,-84 538.5,-84 538.5,-66 467.5,-66"/>
<polygon fill="none" stroke="#000000" points="467.5,-66 467.5,-84 538.5,-84 538.5,-66 467.5,-66"/>
<text text-anchor="start" x="470.5" y="-72.2" font-family="Helvetica,sans-Serif" font-size="11.00" fill="#000000">&lt; 2</text>
<polygon fill="#ffffff" stroke="transparent" points="538.5,-66 538.5,-84 629.5,-84 629.5,-66 538.5,-66"/>
<polygon fill="none" stroke="#000000" points="538.5,-66 538.5,-84 629.5,-84 629.5,-66 538.5,-66"/>
<text text-anchor="start" x="566.5" y="-72.2" font-family="Helvetica,sans-Serif" font-size="11.00" fill="#000000">39,105 rows</text>
<polygon fill="#ffffff" stroke="transparent" points="629.5,-66 629.5,-84 667.5,-84 667.5,-66 629.5,-66"/>
<polygon fill="none" stroke="#000000" points="629.5,-66 629.5,-84 667.5,-84 667.5,-66 629.5,-66"/>
<text text-anchor="start" x="657.5" y="-72.2" font-family="Helvetica,sans-Serif" font-size="11.00" fill="#000000"> &#160;</text>
</a>
</g>
</g>
<!-- image_to_iaa_edition_catalog&#45;&gt;iaa_edition_catalog -->
<g id="edge10" class="edge">
<title>image_to_iaa_edition_catalog:w&#45;&gt;iaa_edition_catalog:e</title>
<path fill="none" stroke="#000000" d="M452.6755,-93.3457C416.6217,-95.2139 399.7974,-105.1506 371,-135 336.8472,-170.4004 379.6895,-238 330.5,-238"/>
<polygon fill="#000000" stroke="#000000" points="459.5022,-93.1865 467.5839,-96.599 463.5011,-93.0933 467.5,-93 467.5,-93 467.5,-93 463.5011,-93.0933 467.4161,-89.401 459.5022,-93.1865 459.5022,-93.1865"/>
<ellipse fill="none" stroke="#000000" cx="456.303" cy="-93.2612" rx="3.2" ry="3.2"/>
</g>
<!-- manuscript_to_text_fragment -->
<g id="node10" class="node">
<title>manuscript_to_text_fragment</title>
<g id="a_node10"><a xlink:href="../../tables/manuscript_to_text_fragment.html" xlink:title="manuscript_to_text_fragment" target="_top">
<polygon fill="#ffffff" stroke="transparent" points="468,-382 468,-440 667,-440 667,-382 468,-382"/>
<polygon fill="#f5f5f5" stroke="transparent" points="468.5,-418 468.5,-440 667.5,-440 667.5,-418 468.5,-418"/>
<polygon fill="none" stroke="#000000" points="468.5,-418 468.5,-440 667.5,-440 667.5,-418 468.5,-418"/>
<text text-anchor="start" x="473.5" y="-427.2" font-family="Helvetica,sans-Serif" font-weight="bold" font-size="11.00" fill="#000000">manuscript_to_text_fragment</text>
<text text-anchor="start" x="632.5" y="-426.2" font-family="Helvetica,sans-Serif" font-size="11.00" fill="#000000">[table]</text>
<polygon fill="none" stroke="#000000" points="468.5,-400 468.5,-418 667.5,-418 667.5,-400 468.5,-400"/>
<text text-anchor="start" x="471.5" y="-406.2" font-family="Helvetica,sans-Serif" font-size="11.00" fill="#000000">...</text>
<polygon fill="#ffffff" stroke="transparent" points="468.5,-382 468.5,-400 534.5,-400 534.5,-382 468.5,-382"/>
<polygon fill="none" stroke="#000000" points="468.5,-382 468.5,-400 534.5,-400 534.5,-382 468.5,-382"/>
<text text-anchor="start" x="471.5" y="-388.2" font-family="Helvetica,sans-Serif" font-size="11.00" fill="#000000">&lt; 3</text>
<polygon fill="#ffffff" stroke="transparent" points="534.5,-382 534.5,-400 622.5,-400 622.5,-382 534.5,-382"/>
<polygon fill="none" stroke="#000000" points="534.5,-382 534.5,-400 622.5,-400 622.5,-382 534.5,-382"/>
<text text-anchor="start" x="559.5" y="-388.2" font-family="Helvetica,sans-Serif" font-size="11.00" fill="#000000">11,152 rows</text>
<polygon fill="#ffffff" stroke="transparent" points="622.5,-382 622.5,-400 667.5,-400 667.5,-382 622.5,-382"/>
<polygon fill="none" stroke="#000000" points="622.5,-382 622.5,-400 667.5,-400 667.5,-382 622.5,-382"/>
<text text-anchor="start" x="648.5" y="-388.2" font-family="Helvetica,sans-Serif" font-size="11.00" fill="#000000">1 &gt;</text>
</a>
</g>
</g>
<!-- manuscript_to_text_fragment&#45;&gt;manuscript -->
<g id="edge12" class="edge">
<title>manuscript_to_text_fragment:w&#45;&gt;manuscript:e</title>
<path fill="none" stroke="#000000" d="M453.9867,-409C307.4638,-409 265.4931,-409 112,-409"/>
<polygon fill="#000000" stroke="#000000" points="460.5,-409.0001 468.5,-412.6 464.5,-409 468.5,-409 468.5,-409 468.5,-409 464.5,-409 468.5,-405.4 460.5,-409.0001 460.5,-409.0001"/>
<ellipse fill="none" stroke="#000000" cx="457.3" cy="-409.0001" rx="3.2" ry="3.2"/>
</g>
<!-- manuscript_to_text_fragment&#45;&gt;user -->
<g id="edge11" class="edge">
<title>manuscript_to_text_fragment:w&#45;&gt;user:e</title>
<path fill="none" stroke="#000000" d="M454.1012,-409.6334C380.8264,-416.2803 366.6151,-473 285.5,-473"/>
<polygon fill="#000000" stroke="#000000" points="460.5077,-409.3516 468.6582,-412.5965 464.5039,-409.1758 468.5,-409 468.5,-409 468.5,-409 464.5039,-409.1758 468.3418,-405.4035 460.5077,-409.3516 460.5077,-409.3516"/>
<ellipse fill="none" stroke="#000000" cx="457.3108" cy="-409.4923" rx="3.2" ry="3.2"/>
</g>
<!-- manuscript_to_text_fragment&#45;&gt;text_fragment -->
<g id="edge13" class="edge">
<title>manuscript_to_text_fragment:w&#45;&gt;text_fragment:e</title>
<path fill="none" stroke="#000000" d="M454.0701,-409.3599C417.5835,-411.3611 401.4976,-422.0904 371,-451 329.2391,-490.5865 371.0418,-567 313.5,-567"/>
<polygon fill="#000000" stroke="#000000" points="460.5025,-409.1995 468.5898,-412.5989 464.5012,-409.0998 468.5,-409 468.5,-409 468.5,-409 464.5012,-409.0998 468.4102,-405.4011 460.5025,-409.1995 460.5025,-409.1995"/>
<ellipse fill="none" stroke="#000000" cx="457.3035" cy="-409.2793" rx="3.2" ry="3.2"/>
</g>
<!-- position_in_text_fragment_stream -->
<g id="node11" class="node">
<title>position_in_text_fragment_stream</title>
<g id="a_node11"><a xlink:href="../../tables/position_in_text_fragment_stream.html" xlink:title="position_in_text_fragment_stream" target="_top">
<polygon fill="#ffffff" stroke="transparent" points="455.5,-619 455.5,-677 679.5,-677 679.5,-619 455.5,-619"/>
<polygon fill="#f5f5f5" stroke="transparent" points="455.5,-655 455.5,-677 679.5,-677 679.5,-655 455.5,-655"/>
<polygon fill="none" stroke="#000000" points="455.5,-655 455.5,-677 679.5,-677 679.5,-655 455.5,-655"/>
<text text-anchor="start" x="460.5" y="-664.2" font-family="Helvetica,sans-Serif" font-weight="bold" font-size="11.00" fill="#000000">position_in_text_fragment_stream</text>
<text text-anchor="start" x="644.5" y="-663.2" font-family="Helvetica,sans-Serif" font-size="11.00" fill="#000000">[table]</text>
<polygon fill="none" stroke="#000000" points="455.5,-637 455.5,-655 679.5,-655 679.5,-637 455.5,-637"/>
<text text-anchor="start" x="458.5" y="-643.2" font-family="Helvetica,sans-Serif" font-size="11.00" fill="#000000">...</text>
<polygon fill="#ffffff" stroke="transparent" points="455.5,-619 455.5,-637 534.5,-637 534.5,-619 455.5,-619"/>
<polygon fill="none" stroke="#000000" points="455.5,-619 455.5,-637 534.5,-637 534.5,-619 455.5,-619"/>
<text text-anchor="start" x="458.5" y="-625.2" font-family="Helvetica,sans-Serif" font-size="11.00" fill="#000000">&lt; 3</text>
<polygon fill="#ffffff" stroke="transparent" points="534.5,-619 534.5,-637 628.5,-637 628.5,-619 534.5,-619"/>
<polygon fill="none" stroke="#000000" points="534.5,-619 534.5,-637 628.5,-637 628.5,-619 534.5,-619"/>
<text text-anchor="start" x="565.5" y="-625.2" font-family="Helvetica,sans-Serif" font-size="11.00" fill="#000000">10,407 rows</text>
<polygon fill="#ffffff" stroke="transparent" points="628.5,-619 628.5,-637 679.5,-637 679.5,-619 628.5,-619"/>
<polygon fill="none" stroke="#000000" points="628.5,-619 628.5,-637 679.5,-637 679.5,-619 628.5,-619"/>
<text text-anchor="start" x="660.5" y="-625.2" font-family="Helvetica,sans-Serif" font-size="11.00" fill="#000000">1 &gt;</text>
</a>
</g>
</g>
<!-- position_in_text_fragment_stream&#45;&gt;user -->
<g id="edge14" class="edge">
<title>position_in_text_fragment_stream:w&#45;&gt;user:e</title>
<path fill="none" stroke="#000000" d="M440.8615,-645.5891C410.4353,-643.6699 395.9246,-634.5772 371,-609 343.8701,-581.1597 359.1245,-560.6323 338,-528 319.636,-499.6321 319.2931,-473 285.5,-473"/>
<polygon fill="#000000" stroke="#000000" points="447.5032,-645.7755 455.399,-649.5986 451.5016,-645.8877 455.5,-646 455.5,-646 455.5,-646 451.5016,-645.8877 455.601,-642.4014 447.5032,-645.7755 447.5032,-645.7755"/>
<ellipse fill="none" stroke="#000000" cx="444.3044" cy="-645.6857" rx="3.2" ry="3.2"/>
</g>
<!-- position_in_text_fragment_stream&#45;&gt;text_fragment -->
<g id="edge15" class="edge">
<title>position_in_text_fragment_stream:w&#45;&gt;text_fragment:e</title>
<path fill="none" stroke="#000000" d="M441.1624,-643.1673C411.9915,-635.665 401.9607,-620.8006 371,-603 343.5644,-587.2261 345.147,-561 313.5,-567"/>
<polygon fill="#000000" stroke="#000000" points="447.6517,-644.4494 454.8022,-649.5317 451.5759,-645.2247 455.5,-646 455.5,-646 455.5,-646 451.5759,-645.2247 456.1978,-642.4683 447.6517,-644.4494 447.6517,-644.4494"/>
<ellipse fill="none" stroke="#000000" cx="444.5124" cy="-643.8291" rx="3.2" ry="3.2"/>
</g>
<!-- position_in_text_fragment_stream&#45;&gt;text_fragment -->
<g id="edge16" class="edge">
<title>position_in_text_fragment_stream:w&#45;&gt;text_fragment:e</title>
<path fill="none" stroke="#000000" d="M441.1624,-647.5745C411.9915,-648.665 401.9607,-633.8006 371,-616 343.5644,-600.2261 345.147,-574 313.5,-567"/>
<polygon fill="#000000" stroke="#000000" points="447.5478,-646.8733 455.893,-649.5785 451.5239,-646.4367 455.5,-646 455.5,-646 455.5,-646 451.5239,-646.4367 455.107,-642.4215 447.5478,-646.8733 447.5478,-646.8733"/>
<ellipse fill="none" stroke="#000000" cx="444.3669" cy="-647.2226" rx="3.2" ry="3.2"/>
</g>
<!-- text_fragment_data -->
<g id="node12" class="node">
<title>text_fragment_data</title>
<g id="a_node12"><a xlink:href="../../tables/text_fragment_data.html" xlink:title="text_fragment_data" target="_top">
<polygon fill="#ffffff" stroke="transparent" points="494.5,-461 494.5,-519 640.5,-519 640.5,-461 494.5,-461"/>
<polygon fill="#f5f5f5" stroke="transparent" points="494.5,-497 494.5,-519 640.5,-519 640.5,-497 494.5,-497"/>
<polygon fill="none" stroke="#000000" points="494.5,-497 494.5,-519 640.5,-519 640.5,-497 494.5,-497"/>
<text text-anchor="start" x="499.5" y="-506.2" font-family="Helvetica,sans-Serif" font-weight="bold" font-size="11.00" fill="#000000">text_fragment_data</text>
<text text-anchor="start" x="605.5" y="-505.2" font-family="Helvetica,sans-Serif" font-size="11.00" fill="#000000">[table]</text>
<polygon fill="none" stroke="#000000" points="494.5,-479 494.5,-497 640.5,-497 640.5,-479 494.5,-479"/>
<text text-anchor="start" x="497.5" y="-485.2" font-family="Helvetica,sans-Serif" font-size="11.00" fill="#000000">...</text>
<polygon fill="#ffffff" stroke="transparent" points="494.5,-461 494.5,-479 534.5,-479 534.5,-461 494.5,-461"/>
<polygon fill="none" stroke="#000000" points="494.5,-461 494.5,-479 534.5,-479 534.5,-461 494.5,-461"/>
<text text-anchor="start" x="497.5" y="-467.2" font-family="Helvetica,sans-Serif" font-size="11.00" fill="#000000">&lt; 2</text>
<polygon fill="#ffffff" stroke="transparent" points="534.5,-461 534.5,-479 609.5,-479 609.5,-461 534.5,-461"/>
<polygon fill="none" stroke="#000000" points="534.5,-461 534.5,-479 609.5,-479 609.5,-461 534.5,-461"/>
<text text-anchor="start" x="546.5" y="-467.2" font-family="Helvetica,sans-Serif" font-size="11.00" fill="#000000">11,169 rows</text>
<polygon fill="#ffffff" stroke="transparent" points="609.5,-461 609.5,-479 640.5,-479 640.5,-461 609.5,-461"/>
<polygon fill="none" stroke="#000000" points="609.5,-461 609.5,-479 640.5,-479 640.5,-461 609.5,-461"/>
<text text-anchor="start" x="621.5" y="-467.2" font-family="Helvetica,sans-Serif" font-size="11.00" fill="#000000">1 &gt;</text>
</a>
</g>
</g>
<!-- text_fragment_data&#45;&gt;user -->
<g id="edge17" class="edge">
<title>text_fragment_data:w&#45;&gt;user:e</title>
<path fill="none" stroke="#000000" d="M480.0814,-487.8748C398.7259,-486.4319 373.6258,-473 285.5,-473"/>
<polygon fill="#000000" stroke="#000000" points="486.5003,-487.9305 494.4687,-491.5999 490.5002,-487.9652 494.5,-488 494.5,-488 494.5,-488 490.5002,-487.9652 494.5313,-484.4001 486.5003,-487.9305 486.5003,-487.9305"/>
<ellipse fill="none" stroke="#000000" cx="483.3004" cy="-487.9027" rx="3.2" ry="3.2"/>
</g>
<!-- text_fragment_data&#45;&gt;text_fragment -->
<g id="edge18" class="edge">
<title>text_fragment_data:w&#45;&gt;text_fragment:e</title>
<path fill="none" stroke="#000000" d="M479.8945,-488.4006C433.8175,-491.0854 418.5189,-507.0578 371,-530 343.6334,-543.2126 343.8892,-567 313.5,-567"/>
<polygon fill="#000000" stroke="#000000" points="486.503,-488.2194 494.5987,-491.5986 490.5015,-488.1097 494.5,-488 494.5,-488 494.5,-488 490.5015,-488.1097 494.4013,-484.4014 486.503,-488.2194 486.503,-488.2194"/>
<ellipse fill="none" stroke="#000000" cx="483.3042" cy="-488.3071" rx="3.2" ry="3.2"/>
</g>
<!-- text_fragment_to_line -->
<g id="node13" class="node">
<title>text_fragment_to_line</title>
<g id="a_node13"><a xlink:href="../../tables/text_fragment_to_line.html" xlink:title="text_fragment_to_line" target="_top">
<polygon fill="#ffffff" stroke="transparent" points="488,-540 488,-598 647,-598 647,-540 488,-540"/>
<polygon fill="#f5f5f5" stroke="transparent" points="488.5,-576 488.5,-598 647.5,-598 647.5,-576 488.5,-576"/>
<polygon fill="none" stroke="#000000" points="488.5,-576 488.5,-598 647.5,-598 647.5,-576 488.5,-576"/>
<text text-anchor="start" x="493.5" y="-585.2" font-family="Helvetica,sans-Serif" font-weight="bold" font-size="11.00" fill="#000000">text_fragment_to_line</text>
<text text-anchor="start" x="612.5" y="-584.2" font-family="Helvetica,sans-Serif" font-size="11.00" fill="#000000">[table]</text>
<polygon fill="none" stroke="#000000" points="488.5,-558 488.5,-576 647.5,-576 647.5,-558 488.5,-558"/>
<text text-anchor="start" x="491.5" y="-564.2" font-family="Helvetica,sans-Serif" font-size="11.00" fill="#000000">...</text>
<polygon fill="#ffffff" stroke="transparent" points="488.5,-540 488.5,-558 534.5,-558 534.5,-540 488.5,-540"/>
<polygon fill="none" stroke="#000000" points="488.5,-540 488.5,-558 534.5,-558 534.5,-540 488.5,-540"/>
<text text-anchor="start" x="491.5" y="-546.2" font-family="Helvetica,sans-Serif" font-size="11.00" fill="#000000">&lt; 3</text>
<polygon fill="#ffffff" stroke="transparent" points="534.5,-540 534.5,-558 612.5,-558 612.5,-540 534.5,-540"/>
<polygon fill="none" stroke="#000000" points="534.5,-540 534.5,-558 612.5,-558 612.5,-540 534.5,-540"/>
<text text-anchor="start" x="549.5" y="-546.2" font-family="Helvetica,sans-Serif" font-size="11.00" fill="#000000">54,560 rows</text>
<polygon fill="#ffffff" stroke="transparent" points="612.5,-540 612.5,-558 647.5,-558 647.5,-540 612.5,-540"/>
<polygon fill="none" stroke="#000000" points="612.5,-540 612.5,-558 647.5,-558 647.5,-540 612.5,-540"/>
<text text-anchor="start" x="628.5" y="-546.2" font-family="Helvetica,sans-Serif" font-size="11.00" fill="#000000">1 &gt;</text>
</a>
</g>
</g>
<!-- text_fragment_to_line&#45;&gt;user -->
<g id="edge19" class="edge">
<title>text_fragment_to_line:w&#45;&gt;user:e</title>
<path fill="none" stroke="#000000" d="M473.8499,-566.6357C430.8613,-564.3492 415.6559,-551.3806 371,-530 329.8077,-510.2777 331.1703,-473 285.5,-473"/>
<polygon fill="#000000" stroke="#000000" points="480.5025,-566.8011 488.4105,-570.5989 484.5012,-566.9005 488.5,-567 488.5,-567 488.5,-567 484.5012,-566.9005 488.5895,-563.4011 480.5025,-566.8011 480.5025,-566.8011"/>
<ellipse fill="none" stroke="#000000" cx="477.3035" cy="-566.7215" rx="3.2" ry="3.2"/>
</g>
<!-- text_fragment_to_line&#45;&gt;text_fragment -->
<g id="edge20" class="edge">
<title>text_fragment_to_line:w&#45;&gt;text_fragment:e</title>
<path fill="none" stroke="#000000" d="M473.7428,-567C407.8825,-567 386.1128,-567 313.5,-567"/>
<polygon fill="#000000" stroke="#000000" points="480.5,-567.0001 488.5,-570.6 484.5,-567 488.5,-567 488.5,-567 488.5,-567 484.5,-567 488.5,-563.4 480.5,-567.0001 480.5,-567.0001"/>
<ellipse fill="none" stroke="#000000" cx="477.3" cy="-567.0001" rx="3.2" ry="3.2"/>
</g>
</g>
</svg>
