<?xml version="1.0" encoding="UTF-8" standalone="no"?>
<!DOCTYPE svg PUBLIC "-//W3C//DTD SVG 1.1//EN"
 "http://www.w3.org/Graphics/SVG/1.1/DTD/svg11.dtd">
<!-- Generated by graphviz version 2.43.0 (0)
 -->
<!-- Title: twoDegreesRelationshipsDiagram Pages: 1 -->
<svg width="1218pt" height="660pt"
 viewBox="0.00 0.00 1218.00 660.00" xmlns="http://www.w3.org/2000/svg" xmlns:xlink="http://www.w3.org/1999/xlink">
<g id="graph0" class="graph" transform="scale(1 1) rotate(0) translate(4 656)">
<title>twoDegreesRelationshipsDiagram</title>
<polygon fill="#ffffff" stroke="transparent" points="-4,4 -4,-656 1214,-656 1214,4 -4,4"/>
<text text-anchor="middle" x="79.5" y="-7.2" font-family="Helvetica,sans-Serif" font-size="11.00">Generated by SchemaSpy</text>
<!-- iaa_edition_catalog -->
<g id="node1" class="node">
<title>iaa_edition_catalog</title>
<g id="a_node1"><a xlink:href="../../tables/iaa_edition_catalog.html" xlink:title="iaa_edition_catalog" target="_top">
<polygon fill="#ffffff" stroke="transparent" points="178,-324 178,-558 347,-558 347,-324 178,-324"/>
<polygon fill="#f5f5f5" stroke="transparent" points="178.5,-536 178.5,-558 347.5,-558 347.5,-536 178.5,-536"/>
<polygon fill="none" stroke="black" points="178.5,-536 178.5,-558 347.5,-558 347.5,-536 178.5,-536"/>
<text text-anchor="start" x="183.5" y="-545.2" font-family="Helvetica,sans-Serif" font-weight="bold" font-size="11.00">iaa_edition_catalog</text>
<text text-anchor="start" x="305.5" y="-544.2" font-family="Helvetica,sans-Serif" font-size="11.00">[table]</text>
<polygon fill="none" stroke="black" points="178.5,-514 178.5,-536 347.5,-536 347.5,-514 178.5,-514"/>
<image xlink:href="../../images/primaryKeys.png" width="11px" height="12px" preserveAspectRatio="xMinYMin meet" x="183.5" y="-531"/>
<text text-anchor="start" x="198.5" y="-522.2" font-family="Helvetica,sans-Serif" font-size="11.00">iaa_edition_catalog_id</text>
<polygon fill="#ffffff" stroke="transparent" points="178.5,-492 178.5,-514 347.5,-514 347.5,-492 178.5,-492"/>
<polygon fill="none" stroke="black" points="178.5,-492 178.5,-514 347.5,-514 347.5,-492 178.5,-492"/>
<text text-anchor="start" x="198.5" y="-500.2" font-family="Helvetica,sans-Serif" font-size="11.00">manuscript</text>
<polygon fill="#ffffff" stroke="transparent" points="178.5,-470 178.5,-492 347.5,-492 347.5,-470 178.5,-470"/>
<polygon fill="none" stroke="black" points="178.5,-470 178.5,-492 347.5,-492 347.5,-470 178.5,-470"/>
<text text-anchor="start" x="198.5" y="-478.2" font-family="Helvetica,sans-Serif" font-size="11.00">edition_name</text>
<polygon fill="#ffffff" stroke="transparent" points="178.5,-448 178.5,-470 347.5,-470 347.5,-448 178.5,-448"/>
<polygon fill="none" stroke="black" points="178.5,-448 178.5,-470 347.5,-470 347.5,-448 178.5,-448"/>
<text text-anchor="start" x="198.5" y="-456.2" font-family="Helvetica,sans-Serif" font-size="11.00">edition_volume</text>
<polygon fill="#ffffff" stroke="transparent" points="178.5,-426 178.5,-448 347.5,-448 347.5,-426 178.5,-426"/>
<polygon fill="none" stroke="black" points="178.5,-426 178.5,-448 347.5,-448 347.5,-426 178.5,-426"/>
<text text-anchor="start" x="198.5" y="-434.2" font-family="Helvetica,sans-Serif" font-size="11.00">edition_location_1</text>
<polygon fill="#ffffff" stroke="transparent" points="178.5,-404 178.5,-426 347.5,-426 347.5,-404 178.5,-404"/>
<polygon fill="none" stroke="black" points="178.5,-404 178.5,-426 347.5,-426 347.5,-404 178.5,-404"/>
<text text-anchor="start" x="198.5" y="-412.2" font-family="Helvetica,sans-Serif" font-size="11.00">edition_location_2</text>
<polygon fill="#ffffff" stroke="transparent" points="178.5,-382 178.5,-404 347.5,-404 347.5,-382 178.5,-382"/>
<polygon fill="none" stroke="black" points="178.5,-382 178.5,-404 347.5,-404 347.5,-382 178.5,-382"/>
<text text-anchor="start" x="198.5" y="-390.2" font-family="Helvetica,sans-Serif" font-size="11.00">edition_side</text>
<polygon fill="#ffffff" stroke="transparent" points="178.5,-360 178.5,-382 347.5,-382 347.5,-360 178.5,-360"/>
<polygon fill="none" stroke="black" points="178.5,-360 178.5,-382 347.5,-382 347.5,-360 178.5,-360"/>
<image xlink:href="../../images/foreignKeys.png" width="11px" height="12px" preserveAspectRatio="xMinYMin meet" x="183.5" y="-377"/>
<text text-anchor="start" x="198.5" y="-368.2" font-family="Helvetica,sans-Serif" font-size="11.00">manuscript_id</text>
<polygon fill="none" stroke="black" points="178.5,-342 178.5,-360 347.5,-360 347.5,-342 178.5,-342"/>
<text text-anchor="start" x="181.5" y="-348.2" font-family="Helvetica,sans-Serif" font-size="11.00">...</text>
<polygon fill="#ffffff" stroke="transparent" points="178.5,-324 178.5,-342 225.5,-342 225.5,-324 178.5,-324"/>
<polygon fill="none" stroke="black" points="178.5,-324 178.5,-342 225.5,-342 225.5,-324 178.5,-324"/>
<text text-anchor="start" x="181.5" y="-330.2" font-family="Helvetica,sans-Serif" font-size="11.00">&lt; 1</text>
<polygon fill="#ffffff" stroke="transparent" points="225.5,-324 225.5,-342 310.5,-342 310.5,-324 225.5,-324"/>
<polygon fill="none" stroke="black" points="225.5,-324 225.5,-342 310.5,-342 310.5,-324 225.5,-324"/>
<text text-anchor="start" x="239.5" y="-330.2" font-family="Helvetica,sans-Serif" font-size="11.00">38,927 rows</text>
<polygon fill="#ffffff" stroke="transparent" points="310.5,-324 310.5,-342 347.5,-342 347.5,-324 310.5,-324"/>
<polygon fill="none" stroke="black" points="310.5,-324 310.5,-342 347.5,-342 347.5,-324 310.5,-324"/>
<text text-anchor="start" x="324.5" y="-330.2" font-family="Helvetica,sans-Serif" font-size="11.00">3 &gt;</text>
</a>
</g>
</g>
<!-- manuscript -->
<g id="node2" class="node">
<title>manuscript</title>
<g id="a_node2"><a xlink:href="../../tables/manuscript.html" xlink:title="manuscript" target="_top">
<polygon fill="#ffffff" stroke="transparent" points="8,-222 8,-280 129,-280 129,-222 8,-222"/>
<polygon fill="#f5f5f5" stroke="transparent" points="8.5,-258 8.5,-280 129.5,-280 129.5,-258 8.5,-258"/>
<polygon fill="none" stroke="black" points="8.5,-258 8.5,-280 129.5,-280 129.5,-258 8.5,-258"/>
<text text-anchor="start" x="13.5" y="-267.2" font-family="Helvetica,sans-Serif" font-weight="bold" font-size="11.00">manuscript</text>
<text text-anchor="start" x="87.5" y="-266.2" font-family="Helvetica,sans-Serif" font-size="11.00">[table]</text>
<polygon fill="none" stroke="black" points="8.5,-240 8.5,-258 129.5,-258 129.5,-240 8.5,-240"/>
<text text-anchor="start" x="11.5" y="-246.2" font-family="Helvetica,sans-Serif" font-size="11.00">...</text>
<polygon fill="#ffffff" stroke="transparent" points="8.5,-222 8.5,-240 29.5,-240 29.5,-222 8.5,-222"/>
<polygon fill="none" stroke="black" points="8.5,-222 8.5,-240 29.5,-240 29.5,-222 8.5,-222"/>
<text text-anchor="start" x="11.5" y="-228.2" font-family="Helvetica,sans-Serif" font-size="11.00"> &#160;</text>
<polygon fill="#ffffff" stroke="transparent" points="29.5,-222 29.5,-240 99.5,-240 99.5,-222 29.5,-222"/>
<polygon fill="none" stroke="black" points="29.5,-222 29.5,-240 99.5,-240 99.5,-222 29.5,-222"/>
<text text-anchor="start" x="35.5" y="-228.2" font-family="Helvetica,sans-Serif" font-size="11.00">1,645 rows</text>
<polygon fill="#ffffff" stroke="transparent" points="99.5,-222 99.5,-240 129.5,-240 129.5,-222 99.5,-222"/>
<polygon fill="none" stroke="black" points="99.5,-222 99.5,-240 129.5,-240 129.5,-222 99.5,-222"/>
<text text-anchor="start" x="106.5" y="-228.2" font-family="Helvetica,sans-Serif" font-size="11.00">5 &gt;</text>
</a>
</g>
</g>
<!-- iaa_edition_catalog&#45;&gt;manuscript -->
<g id="edge1" class="edge">
<title>iaa_edition_catalog:w&#45;&gt;manuscript:e</title>
<path fill="none" stroke="black" d="M163.47,-367.48C132.14,-347.48 182.71,-249 130.5,-249"/>
<polygon fill="black" stroke="black" points="169.74,-369.05 176.62,-374.49 173.62,-370.03 177.5,-371 177.5,-371 177.5,-371 173.62,-370.03 178.38,-367.51 169.74,-369.05 169.74,-369.05"/>
<ellipse fill="none" stroke="black" cx="166.64" cy="-368.27" rx="3.2" ry="3.2"/>
</g>
<!-- iaa_edition_catalog_author -->
<g id="node3" class="node">
<title>iaa_edition_catalog_author</title>
<g id="a_node3"><a xlink:href="../../tables/iaa_edition_catalog_author.html" xlink:title="iaa_edition_catalog_author" target="_top">
<polygon fill="#ffffff" stroke="transparent" points="912,-523 912,-581 1127,-581 1127,-523 912,-523"/>
<polygon fill="#f5f5f5" stroke="transparent" points="912.5,-559 912.5,-581 1127.5,-581 1127.5,-559 912.5,-559"/>
<polygon fill="none" stroke="black" points="912.5,-559 912.5,-581 1127.5,-581 1127.5,-559 912.5,-559"/>
<text text-anchor="start" x="917.5" y="-568.2" font-family="Helvetica,sans-Serif" font-weight="bold" font-size="11.00">iaa_edition_catalog_author</text>
<text text-anchor="start" x="1085.5" y="-567.2" font-family="Helvetica,sans-Serif" font-size="11.00">[table]</text>
<polygon fill="none" stroke="black" points="912.5,-541 912.5,-559 1127.5,-559 1127.5,-541 912.5,-541"/>
<text text-anchor="start" x="915.5" y="-547.2" font-family="Helvetica,sans-Serif" font-size="11.00">...</text>
<polygon fill="#ffffff" stroke="transparent" points="912.5,-523 912.5,-541 988.5,-541 988.5,-523 912.5,-523"/>
<polygon fill="none" stroke="black" points="912.5,-523 912.5,-541 988.5,-541 988.5,-523 912.5,-523"/>
<text text-anchor="start" x="915.5" y="-529.2" font-family="Helvetica,sans-Serif" font-size="11.00">&lt; 2</text>
<polygon fill="#ffffff" stroke="transparent" points="988.5,-523 988.5,-541 1087.5,-541 1087.5,-523 988.5,-523"/>
<polygon fill="none" stroke="black" points="988.5,-523 988.5,-541 1087.5,-541 1087.5,-523 988.5,-523"/>
<text text-anchor="start" x="1016.5" y="-529.2" font-family="Helvetica,sans-Serif" font-size="11.00">39,537 rows</text>
<polygon fill="#ffffff" stroke="transparent" points="1087.5,-523 1087.5,-541 1127.5,-541 1127.5,-523 1087.5,-523"/>
<polygon fill="none" stroke="black" points="1087.5,-523 1087.5,-541 1127.5,-541 1127.5,-523 1087.5,-523"/>
<text text-anchor="start" x="1116.5" y="-529.2" font-family="Helvetica,sans-Serif" font-size="11.00"> &#160;</text>
</a>
</g>
</g>
<!-- iaa_edition_catalog_author&#45;&gt;iaa_edition_catalog -->
<g id="edge2" class="edge">
<title>iaa_edition_catalog_author:w&#45;&gt;iaa_edition_catalog:e</title>
<path fill="none" stroke="black" d="M900.94,-550.04C858.1,-550.33 843.64,-552.38 796,-553 614.68,-555.35 560.78,-608.03 388,-553 367.5,-546.47 370.02,-525 348.5,-525"/>
<polygon fill="black" stroke="black" points="910.69,-546 910.71,-554 909.11,-554.01 909.09,-546.01 910.69,-546"/>
<polyline fill="none" stroke="black" points="911.5,-550 907.5,-550.01 "/>
<ellipse fill="none" stroke="black" cx="904.3" cy="-550.02" rx="3.2" ry="3.2"/>
</g>
<!-- user -->
<g id="node4" class="node">
<title>user</title>
<g id="a_node4"><a xlink:href="../../tables/user.html" xlink:title="user" target="_top">
<polygon fill="#ffffff" stroke="transparent" points="547,-353 547,-411 637,-411 637,-353 547,-353"/>
<polygon fill="#f5f5f5" stroke="transparent" points="547,-389 547,-411 637,-411 637,-389 547,-389"/>
<polygon fill="none" stroke="black" points="547,-389 547,-411 637,-411 637,-389 547,-389"/>
<text text-anchor="start" x="552" y="-398.2" font-family="Helvetica,sans-Serif" font-weight="bold" font-size="11.00">user</text>
<text text-anchor="start" x="595" y="-397.2" font-family="Helvetica,sans-Serif" font-size="11.00">[table]</text>
<polygon fill="none" stroke="black" points="547,-371 547,-389 637,-389 637,-371 547,-371"/>
<text text-anchor="start" x="550" y="-377.2" font-family="Helvetica,sans-Serif" font-size="11.00">...</text>
<polygon fill="#ffffff" stroke="transparent" points="547,-353 547,-371 561,-371 561,-353 547,-353"/>
<polygon fill="none" stroke="black" points="547,-353 547,-371 561,-371 561,-353 547,-353"/>
<text text-anchor="start" x="550" y="-359.2" font-family="Helvetica,sans-Serif" font-size="11.00"> &#160;</text>
<polygon fill="#ffffff" stroke="transparent" points="561,-353 561,-371 604,-371 604,-353 561,-353"/>
<polygon fill="none" stroke="black" points="561,-353 561,-371 604,-371 604,-353 561,-353"/>
<text text-anchor="start" x="564" y="-359.2" font-family="Helvetica,sans-Serif" font-size="11.00">0 rows</text>
<polygon fill="#ffffff" stroke="transparent" points="604,-353 604,-371 637,-371 637,-353 604,-353"/>
<polygon fill="none" stroke="black" points="604,-353 604,-371 637,-371 637,-353 604,-353"/>
<text text-anchor="start" x="607" y="-359.2" font-family="Helvetica,sans-Serif" font-size="11.00">10 &gt;</text>
</a>
</g>
</g>
<!-- iaa_edition_catalog_author&#45;&gt;user -->
<g id="edge3" class="edge">
<title>iaa_edition_catalog_author:w&#45;&gt;user:e</title>
<path fill="none" stroke="black" d="M896.97,-548.86C862.78,-542.98 855.74,-515.24 829,-483 809.32,-459.27 820.21,-441.08 796,-422 738.93,-377.03 710.66,-380 638,-380"/>
<polygon fill="black" stroke="black" points="903.52,-549.37 911.22,-553.59 907.51,-549.69 911.5,-550 911.5,-550 911.5,-550 907.51,-549.69 911.78,-546.41 903.52,-549.37 903.52,-549.37"/>
<ellipse fill="none" stroke="black" cx="900.33" cy="-549.12" rx="3.2" ry="3.2"/>
</g>
<!-- iaa_edition_catalog_to_text_fragment -->
<g id="node5" class="node">
<title>iaa_edition_catalog_to_text_fragment</title>
<g id="a_node5"><a xlink:href="../../tables/iaa_edition_catalog_to_text_fragment.html" xlink:title="iaa_edition_catalog_to_text_fragment" target="_top">
<polygon fill="#ffffff" stroke="transparent" points="396,-432 396,-542 788,-542 788,-432 396,-432"/>
<polygon fill="#f5f5f5" stroke="transparent" points="398,-518 398,-540 786,-540 786,-518 398,-518"/>
<polygon fill="none" stroke="black" points="398,-518 398,-540 786,-540 786,-518 398,-518"/>
<text text-anchor="start" x="403" y="-527.2" font-family="Helvetica,sans-Serif" font-weight="bold" font-size="11.00">iaa_edition_catalog_to_text_fragment</text>
<text text-anchor="start" x="744" y="-526.2" font-family="Helvetica,sans-Serif" font-size="11.00">[table]</text>
<polygon fill="none" stroke="black" points="398,-496 398,-518 689,-518 689,-496 398,-496"/>
<image xlink:href="../../images/primaryKeys.png" width="11px" height="12px" preserveAspectRatio="xMinYMin meet" x="403" y="-513"/>
<text text-anchor="start" x="418" y="-504.2" font-family="Helvetica,sans-Serif" font-size="11.00">iaa_edition_catalog_to_text_fragment_id</text>
<polygon fill="none" stroke="black" points="689,-496 689,-518 786,-518 786,-496 689,-496"/>
<text text-anchor="start" x="692" y="-504.2" font-family="Helvetica,sans-Serif" font-size="11.00">int unsigned[10]</text>
<polygon fill="#ffffff" stroke="transparent" points="398,-474 398,-496 689,-496 689,-474 398,-474"/>
<polygon fill="none" stroke="black" points="398,-474 398,-496 689,-496 689,-474 398,-474"/>
<image xlink:href="../../images/foreignKeys.png" width="11px" height="12px" preserveAspectRatio="xMinYMin meet" x="403" y="-491"/>
<text text-anchor="start" x="418" y="-482.2" font-family="Helvetica,sans-Serif" font-size="11.00">iaa_edition_catalog_id</text>
<polygon fill="none" stroke="black" points="689,-474 689,-496 786,-496 786,-474 689,-474"/>
<text text-anchor="start" x="692" y="-482.2" font-family="Helvetica,sans-Serif" font-size="11.00">int unsigned[10]</text>
<polygon fill="#ffffff" stroke="transparent" points="398,-452 398,-474 689,-474 689,-452 398,-452"/>
<polygon fill="none" stroke="black" points="398,-452 398,-474 689,-474 689,-452 398,-452"/>
<image xlink:href="../../images/foreignKeys.png" width="11px" height="12px" preserveAspectRatio="xMinYMin meet" x="403" y="-469"/>
<text text-anchor="start" x="418" y="-460.2" font-family="Helvetica,sans-Serif" font-size="11.00">text_fragment_id</text>
<polygon fill="none" stroke="black" points="689,-452 689,-474 786,-474 786,-452 689,-452"/>
<text text-anchor="start" x="692" y="-460.2" font-family="Helvetica,sans-Serif" font-size="11.00">int unsigned[10]</text>
<polygon fill="#ffffff" stroke="transparent" points="398,-434 398,-452 519,-452 519,-434 398,-434"/>
<polygon fill="none" stroke="black" points="398,-434 398,-452 519,-452 519,-434 398,-434"/>
<text text-anchor="start" x="401" y="-440.2" font-family="Helvetica,sans-Serif" font-size="11.00">&lt; 2</text>
<polygon fill="#ffffff" stroke="transparent" points="519,-434 519,-452 689,-452 689,-434 519,-434"/>
<polygon fill="none" stroke="black" points="519,-434 519,-452 689,-452 689,-434 519,-434"/>
<text text-anchor="start" x="618" y="-440.2" font-family="Helvetica,sans-Serif" font-size="11.00">15,236 rows</text>
<polygon fill="#ffffff" stroke="transparent" points="689,-434 689,-452 786,-452 786,-434 689,-434"/>
<polygon fill="none" stroke="black" points="689,-434 689,-452 786,-452 786,-434 689,-434"/>
<text text-anchor="start" x="763" y="-440.2" font-family="Helvetica,sans-Serif" font-size="11.00">1 &gt;</text>
<polygon fill="none" stroke="black" stroke-width="2" points="397,-433 397,-541 787,-541 787,-433 397,-433"/>
</a>
</g>
</g>
<!-- iaa_edition_catalog_to_text_fragment&#45;&gt;iaa_edition_catalog -->
<g id="edge4" class="edge">
<title>iaa_edition_catalog_to_text_fragment:w&#45;&gt;iaa_edition_catalog:e</title>
<path fill="none" stroke="black" d="M383,-489.9C370.6,-500.59 370.33,-525 348.5,-525"/>
<polygon fill="black" stroke="black" points="389.45,-487.64 398.19,-488.4 393.22,-486.32 397,-485 397,-485 397,-485 393.22,-486.32 395.81,-481.6 389.45,-487.64 389.45,-487.64"/>
<ellipse fill="none" stroke="black" cx="386.43" cy="-488.7" rx="3.2" ry="3.2"/>
</g>
<!-- text_fragment -->
<g id="node6" class="node">
<title>text_fragment</title>
<g id="a_node6"><a xlink:href="../../tables/text_fragment.html" xlink:title="text_fragment" target="_top">
<polygon fill="#ffffff" stroke="transparent" points="193.5,-153 193.5,-215 331.5,-215 331.5,-153 193.5,-153"/>
<polygon fill="#f5f5f5" stroke="transparent" points="193.5,-193 193.5,-215 331.5,-215 331.5,-193 193.5,-193"/>
<polygon fill="none" stroke="black" points="193.5,-193 193.5,-215 331.5,-215 331.5,-193 193.5,-193"/>
<text text-anchor="start" x="198.5" y="-202.2" font-family="Helvetica,sans-Serif" font-weight="bold" font-size="11.00">text_fragment</text>
<text text-anchor="start" x="289.5" y="-201.2" font-family="Helvetica,sans-Serif" font-size="11.00">[table]</text>
<polygon fill="none" stroke="black" points="193.5,-171 193.5,-193 331.5,-193 331.5,-171 193.5,-171"/>
<image xlink:href="../../images/primaryKeys.png" width="11px" height="12px" preserveAspectRatio="xMinYMin meet" x="198.5" y="-188"/>
<text text-anchor="start" x="215.5" y="-179.2" font-family="Helvetica,sans-Serif" font-size="11.00">text_fragment_id</text>
<polygon fill="#ffffff" stroke="transparent" points="193.5,-153 193.5,-171 219.5,-171 219.5,-153 193.5,-153"/>
<polygon fill="none" stroke="black" points="193.5,-153 193.5,-171 219.5,-171 219.5,-153 193.5,-153"/>
<text text-anchor="start" x="196.5" y="-159.2" font-family="Helvetica,sans-Serif" font-size="11.00"> &#160;</text>
<polygon fill="#ffffff" stroke="transparent" points="219.5,-153 219.5,-171 299.5,-171 299.5,-153 219.5,-153"/>
<polygon fill="none" stroke="black" points="219.5,-153 219.5,-171 299.5,-171 299.5,-153 219.5,-153"/>
<text text-anchor="start" x="228.5" y="-159.2" font-family="Helvetica,sans-Serif" font-size="11.00">11,176 rows</text>
<polygon fill="#ffffff" stroke="transparent" points="299.5,-153 299.5,-171 331.5,-171 331.5,-153 299.5,-153"/>
<polygon fill="none" stroke="black" points="299.5,-153 299.5,-171 331.5,-171 331.5,-153 299.5,-153"/>
<text text-anchor="start" x="308.5" y="-159.2" font-family="Helvetica,sans-Serif" font-size="11.00">6 &gt;</text>
</a>
</g>
</g>
<!-- iaa_edition_catalog_to_text_fragment&#45;&gt;text_fragment -->
<g id="edge5" class="edge">
<title>iaa_edition_catalog_to_text_fragment:w&#45;&gt;text_fragment:e</title>
<path fill="none" stroke="black" d="M383.41,-457.39C342.72,-417.78 391.19,-182 332.5,-182"/>
<polygon fill="black" stroke="black" points="389.61,-459.95 395.63,-466.33 393.3,-461.47 397,-463 397,-463 397,-463 393.3,-461.47 398.37,-459.67 389.61,-459.95 389.61,-459.95"/>
<ellipse fill="none" stroke="black" cx="386.65" cy="-458.72" rx="3.2" ry="3.2"/>
</g>
<!-- iaa_edition_catalog_to_text_fragment_confirmation -->
<g id="node7" class="node">
<title>iaa_edition_catalog_to_text_fragment_confirmation</title>
<g id="a_node7"><a xlink:href="../../tables/iaa_edition_catalog_to_text_fragment_confirmation.html" xlink:title="iaa_edition_catalog_to_text_fragment_confirmation" target="_top">
<polygon fill="#ffffff" stroke="transparent" points="837,-344 837,-472 1202,-472 1202,-344 837,-344"/>
<polygon fill="#f5f5f5" stroke="transparent" points="837.5,-450 837.5,-472 1202.5,-472 1202.5,-450 837.5,-450"/>
<polygon fill="none" stroke="black" points="837.5,-450 837.5,-472 1202.5,-472 1202.5,-450 837.5,-450"/>
<text text-anchor="start" x="842.5" y="-459.2" font-family="Helvetica,sans-Serif" font-weight="bold" font-size="11.00">iaa_edition_catalog_to_text_fragment_confirmation</text>
<text text-anchor="start" x="1160.5" y="-458.2" font-family="Helvetica,sans-Serif" font-size="11.00">[table]</text>
<polygon fill="#ffffff" stroke="transparent" points="837.5,-428 837.5,-450 1202.5,-450 1202.5,-428 837.5,-428"/>
<polygon fill="none" stroke="black" points="837.5,-428 837.5,-450 1202.5,-450 1202.5,-428 837.5,-428"/>
<image xlink:href="../../images/foreignKeys.png" width="11px" height="12px" preserveAspectRatio="xMinYMin meet" x="842.5" y="-445"/>
<text text-anchor="start" x="857.5" y="-436.2" font-family="Helvetica,sans-Serif" font-size="11.00">iaa_edition_catalog_to_text_fragment_id</text>
<polygon fill="#ffffff" stroke="transparent" points="837.5,-406 837.5,-428 1202.5,-428 1202.5,-406 837.5,-406"/>
<polygon fill="none" stroke="black" points="837.5,-406 837.5,-428 1202.5,-428 1202.5,-406 837.5,-406"/>
<text text-anchor="start" x="857.5" y="-414.2" font-family="Helvetica,sans-Serif" font-size="11.00">confirmed</text>
<polygon fill="#ffffff" stroke="transparent" points="837.5,-384 837.5,-406 1202.5,-406 1202.5,-384 837.5,-384"/>
<polygon fill="none" stroke="black" points="837.5,-384 837.5,-406 1202.5,-406 1202.5,-384 837.5,-384"/>
<image xlink:href="../../images/foreignKeys.png" width="11px" height="12px" preserveAspectRatio="xMinYMin meet" x="842.5" y="-401"/>
<text text-anchor="start" x="857.5" y="-392.2" font-family="Helvetica,sans-Serif" font-size="11.00">user_id</text>
<polygon fill="#ffffff" stroke="transparent" points="837.5,-362 837.5,-384 1202.5,-384 1202.5,-362 837.5,-362"/>
<polygon fill="none" stroke="black" points="837.5,-362 837.5,-384 1202.5,-384 1202.5,-362 837.5,-362"/>
<text text-anchor="start" x="857.5" y="-370.2" font-family="Helvetica,sans-Serif" font-size="11.00">time</text>
<polygon fill="#ffffff" stroke="transparent" points="837.5,-344 837.5,-362 988.5,-362 988.5,-344 837.5,-344"/>
<polygon fill="none" stroke="black" points="837.5,-344 837.5,-362 988.5,-362 988.5,-344 837.5,-344"/>
<text text-anchor="start" x="840.5" y="-350.2" font-family="Helvetica,sans-Serif" font-size="11.00">&lt; 2</text>
<polygon fill="#ffffff" stroke="transparent" points="988.5,-344 988.5,-362 1125.5,-362 1125.5,-344 988.5,-344"/>
<polygon fill="none" stroke="black" points="988.5,-344 988.5,-362 1125.5,-362 1125.5,-344 988.5,-344"/>
<text text-anchor="start" x="1054.5" y="-350.2" font-family="Helvetica,sans-Serif" font-size="11.00">15,403 rows</text>
<polygon fill="#ffffff" stroke="transparent" points="1125.5,-344 1125.5,-362 1202.5,-362 1202.5,-344 1125.5,-344"/>
<polygon fill="none" stroke="black" points="1125.5,-344 1125.5,-362 1202.5,-362 1202.5,-344 1125.5,-344"/>
<text text-anchor="start" x="1191.5" y="-350.2" font-family="Helvetica,sans-Serif" font-size="11.00"> &#160;</text>
</a>
</g>
</g>
<!-- iaa_edition_catalog_to_text_fragment_confirmation&#45;&gt;user -->
<g id="edge7" class="edge">
<title>iaa_edition_catalog_to_text_fragment_confirmation:w&#45;&gt;user:e</title>
<path fill="none" stroke="black" d="M822.09,-394.86C745.37,-393.35 721.46,-380 638,-380"/>
<polygon fill="black" stroke="black" points="828.5,-394.92 836.47,-398.6 832.5,-394.96 836.5,-395 836.5,-395 836.5,-395 832.5,-394.96 836.53,-391.4 828.5,-394.92 828.5,-394.92"/>
<ellipse fill="none" stroke="black" cx="825.3" cy="-394.89" rx="3.2" ry="3.2"/>
</g>
<!-- iaa_edition_catalog_to_text_fragment_confirmation&#45;&gt;iaa_edition_catalog_to_text_fragment -->
<g id="edge6" class="edge">
<title>iaa_edition_catalog_to_text_fragment_confirmation:w&#45;&gt;iaa_edition_catalog_to_text_fragment:e</title>
<path fill="none" stroke="black" d="M822.61,-443.89C805.72,-459.48 818.25,-507 787,-507"/>
<polygon fill="black" stroke="black" points="828.95,-441.66 837.7,-442.4 832.73,-440.33 836.5,-439 836.5,-439 836.5,-439 832.73,-440.33 835.3,-435.6 828.95,-441.66 828.95,-441.66"/>
<ellipse fill="none" stroke="black" cx="825.94" cy="-442.72" rx="3.2" ry="3.2"/>
</g>
<!-- image_to_iaa_edition_catalog -->
<g id="node8" class="node">
<title>image_to_iaa_edition_catalog</title>
<g id="a_node8"><a xlink:href="../../tables/image_to_iaa_edition_catalog.html" xlink:title="image_to_iaa_edition_catalog" target="_top">
<polygon fill="#ffffff" stroke="transparent" points="477,-590 477,-648 707,-648 707,-590 477,-590"/>
<polygon fill="#f5f5f5" stroke="transparent" points="477,-626 477,-648 707,-648 707,-626 477,-626"/>
<polygon fill="none" stroke="black" points="477,-626 477,-648 707,-648 707,-626 477,-626"/>
<text text-anchor="start" x="482" y="-635.2" font-family="Helvetica,sans-Serif" font-weight="bold" font-size="11.00">image_to_iaa_edition_catalog</text>
<text text-anchor="start" x="665" y="-634.2" font-family="Helvetica,sans-Serif" font-size="11.00">[table]</text>
<polygon fill="none" stroke="black" points="477,-608 477,-626 707,-626 707,-608 477,-608"/>
<text text-anchor="start" x="480" y="-614.2" font-family="Helvetica,sans-Serif" font-size="11.00">...</text>
<polygon fill="#ffffff" stroke="transparent" points="477,-590 477,-608 561,-608 561,-590 477,-590"/>
<polygon fill="none" stroke="black" points="477,-590 477,-608 561,-608 561,-590 477,-590"/>
<text text-anchor="start" x="480" y="-596.2" font-family="Helvetica,sans-Serif" font-size="11.00">&lt; 2</text>
<polygon fill="#ffffff" stroke="transparent" points="561,-590 561,-608 664,-608 664,-590 561,-590"/>
<polygon fill="none" stroke="black" points="561,-590 561,-608 664,-608 664,-590 561,-590"/>
<text text-anchor="start" x="593" y="-596.2" font-family="Helvetica,sans-Serif" font-size="11.00">39,105 rows</text>
<polygon fill="#ffffff" stroke="transparent" points="664,-590 664,-608 707,-608 707,-590 664,-590"/>
<polygon fill="none" stroke="black" points="664,-590 664,-608 707,-608 707,-590 664,-590"/>
<text text-anchor="start" x="696" y="-596.2" font-family="Helvetica,sans-Serif" font-size="11.00"> &#160;</text>
</a>
</g>
</g>
<!-- image_to_iaa_edition_catalog&#45;&gt;iaa_edition_catalog -->
<g id="edge8" class="edge">
<title>image_to_iaa_edition_catalog:w&#45;&gt;iaa_edition_catalog:e</title>
<path fill="none" stroke="black" d="M461.21,-616.34C429.72,-613.28 417.5,-599.56 388,-576 365.6,-558.11 377.17,-525 348.5,-525"/>
<polygon fill="black" stroke="black" points="468.01,-616.64 475.84,-620.6 472,-616.82 476,-617 476,-617 476,-617 472,-616.82 476.16,-613.4 468.01,-616.64 468.01,-616.64"/>
<ellipse fill="none" stroke="black" cx="464.81" cy="-616.5" rx="3.2" ry="3.2"/>
</g>
<!-- manuscript_to_text_fragment -->
<g id="node9" class="node">
<title>manuscript_to_text_fragment</title>
<g id="a_node9"><a xlink:href="../../tables/manuscript_to_text_fragment.html" xlink:title="manuscript_to_text_fragment" target="_top">
<polygon fill="#ffffff" stroke="transparent" points="477,-37 477,-95 707,-95 707,-37 477,-37"/>
<polygon fill="#f5f5f5" stroke="transparent" points="477,-73 477,-95 707,-95 707,-73 477,-73"/>
<polygon fill="none" stroke="black" points="477,-73 477,-95 707,-95 707,-73 477,-73"/>
<text text-anchor="start" x="482" y="-82.2" font-family="Helvetica,sans-Serif" font-weight="bold" font-size="11.00">manuscript_to_text_fragment</text>
<text text-anchor="start" x="665" y="-81.2" font-family="Helvetica,sans-Serif" font-size="11.00">[table]</text>
<polygon fill="none" stroke="black" points="477,-55 477,-73 707,-73 707,-55 477,-55"/>
<text text-anchor="start" x="480" y="-61.2" font-family="Helvetica,sans-Serif" font-size="11.00">...</text>
<polygon fill="#ffffff" stroke="transparent" points="477,-37 477,-55 555,-55 555,-37 477,-37"/>
<polygon fill="none" stroke="black" points="477,-37 477,-55 555,-55 555,-37 477,-37"/>
<text text-anchor="start" x="480" y="-43.2" font-family="Helvetica,sans-Serif" font-size="11.00">&lt; 2</text>
<polygon fill="#ffffff" stroke="transparent" points="555,-37 555,-55 655,-55 655,-37 555,-37"/>
<polygon fill="none" stroke="black" points="555,-37 555,-55 655,-55 655,-37 555,-37"/>
<text text-anchor="start" x="584" y="-43.2" font-family="Helvetica,sans-Serif" font-size="11.00">11,166 rows</text>
<polygon fill="#ffffff" stroke="transparent" points="655,-37 655,-55 707,-55 707,-37 655,-37"/>
<polygon fill="none" stroke="black" points="655,-37 655,-55 707,-55 707,-37 655,-37"/>
<text text-anchor="start" x="684" y="-43.2" font-family="Helvetica,sans-Serif" font-size="11.00">1 &gt;</text>
</a>
</g>
</g>
<!-- manuscript_to_text_fragment&#45;&gt;manuscript -->
<g id="edge9" class="edge">
<title>manuscript_to_text_fragment:w&#45;&gt;manuscript:e</title>
<path fill="none" stroke="black" d="M461.49,-63.95C331.28,-63.01 270.6,-51.36 170,-142 132.34,-175.93 181.19,-249 130.5,-249"/>
<polygon fill="black" stroke="black" points="468,-63.97 475.99,-67.6 472,-63.99 476,-64 476,-64 476,-64 472,-63.99 476.01,-60.4 468,-63.97 468,-63.97"/>
<ellipse fill="none" stroke="black" cx="464.8" cy="-63.96" rx="3.2" ry="3.2"/>
</g>
<!-- manuscript_to_text_fragment&#45;&gt;text_fragment -->
<g id="edge10" class="edge">
<title>manuscript_to_text_fragment:w&#45;&gt;text_fragment:e</title>
<path fill="none" stroke="black" d="M461.19,-64.63C429.61,-67.59 417.09,-80.94 388,-105 355.5,-131.89 374.69,-182 332.5,-182"/>
<polygon fill="black" stroke="black" points="468.01,-64.34 476.15,-67.6 472,-64.17 476,-64 476,-64 476,-64 472,-64.17 475.85,-60.4 468.01,-64.34 468.01,-64.34"/>
<ellipse fill="none" stroke="black" cx="464.81" cy="-64.48" rx="3.2" ry="3.2"/>
</g>
<!-- position_in_text_fragment_stream -->
<g id="node10" class="node">
<title>position_in_text_fragment_stream</title>
<g id="a_node10"><a xlink:href="../../tables/position_in_text_fragment_stream.html" xlink:title="position_in_text_fragment_stream" target="_top">
<polygon fill="#ffffff" stroke="transparent" points="463,-116 463,-174 721,-174 721,-116 463,-116"/>
<polygon fill="#f5f5f5" stroke="transparent" points="463,-152 463,-174 721,-174 721,-152 463,-152"/>
<polygon fill="none" stroke="black" points="463,-152 463,-174 721,-174 721,-152 463,-152"/>
<text text-anchor="start" x="468" y="-161.2" font-family="Helvetica,sans-Serif" font-weight="bold" font-size="11.00">position_in_text_fragment_stream</text>
<text text-anchor="start" x="679" y="-160.2" font-family="Helvetica,sans-Serif" font-size="11.00">[table]</text>
<polygon fill="none" stroke="black" points="463,-134 463,-152 721,-152 721,-134 463,-134"/>
<text text-anchor="start" x="466" y="-140.2" font-family="Helvetica,sans-Serif" font-size="11.00">...</text>
<polygon fill="#ffffff" stroke="transparent" points="463,-116 463,-134 555,-134 555,-116 463,-116"/>
<polygon fill="none" stroke="black" points="463,-116 463,-134 555,-134 555,-116 463,-116"/>
<text text-anchor="start" x="466" y="-122.2" font-family="Helvetica,sans-Serif" font-size="11.00">&lt; 2</text>
<polygon fill="#ffffff" stroke="transparent" points="555,-116 555,-134 662,-134 662,-116 555,-116"/>
<polygon fill="none" stroke="black" points="555,-116 555,-134 662,-134 662,-116 555,-116"/>
<text text-anchor="start" x="591" y="-122.2" font-family="Helvetica,sans-Serif" font-size="11.00">10,852 rows</text>
<polygon fill="#ffffff" stroke="transparent" points="662,-116 662,-134 721,-134 721,-116 662,-116"/>
<polygon fill="none" stroke="black" points="662,-116 662,-134 721,-134 721,-116 662,-116"/>
<text text-anchor="start" x="698" y="-122.2" font-family="Helvetica,sans-Serif" font-size="11.00">1 &gt;</text>
</a>
</g>
</g>
<!-- position_in_text_fragment_stream&#45;&gt;text_fragment -->
<g id="edge11" class="edge">
<title>position_in_text_fragment_stream:w&#45;&gt;text_fragment:e</title>
<path fill="none" stroke="black" d="M447.56,-142.4C399.92,-143.46 387.44,-176.52 332.5,-182"/>
<polygon fill="black" stroke="black" points="454.01,-142.67 461.85,-146.6 458,-142.83 462,-143 462,-143 462,-143 458,-142.83 462.15,-139.4 454.01,-142.67 454.01,-142.67"/>
<ellipse fill="none" stroke="black" cx="450.81" cy="-142.54" rx="3.2" ry="3.2"/>
</g>
<!-- position_in_text_fragment_stream&#45;&gt;text_fragment -->
<g id="edge12" class="edge">
<title>position_in_text_fragment_stream:w&#45;&gt;text_fragment:e</title>
<path fill="none" stroke="black" d="M447.56,-145.46C399.92,-156.36 387.44,-188.4 332.5,-182"/>
<polygon fill="black" stroke="black" points="454.11,-144.35 462.61,-146.55 458.06,-143.67 462,-143 462,-143 462,-143 458.06,-143.67 461.39,-139.45 454.11,-144.35 454.11,-144.35"/>
<ellipse fill="none" stroke="black" cx="450.96" cy="-144.88" rx="3.2" ry="3.2"/>
</g>
<!-- text_fragment_data -->
<g id="node11" class="node">
<title>text_fragment_data</title>
<g id="a_node11"><a xlink:href="../../tables/text_fragment_data.html" xlink:title="text_fragment_data" target="_top">
<polygon fill="#ffffff" stroke="transparent" points="506.5,-274 506.5,-332 677.5,-332 677.5,-274 506.5,-274"/>
<polygon fill="#f5f5f5" stroke="transparent" points="507,-310 507,-332 678,-332 678,-310 507,-310"/>
<polygon fill="none" stroke="black" points="507,-310 507,-332 678,-332 678,-310 507,-310"/>
<text text-anchor="start" x="512" y="-319.2" font-family="Helvetica,sans-Serif" font-weight="bold" font-size="11.00">text_fragment_data</text>
<text text-anchor="start" x="636" y="-318.2" font-family="Helvetica,sans-Serif" font-size="11.00">[table]</text>
<polygon fill="none" stroke="black" points="507,-292 507,-310 678,-310 678,-292 507,-292"/>
<text text-anchor="start" x="510" y="-298.2" font-family="Helvetica,sans-Serif" font-size="11.00">...</text>
<polygon fill="#ffffff" stroke="transparent" points="507,-274 507,-292 555,-292 555,-274 507,-274"/>
<polygon fill="none" stroke="black" points="507,-274 507,-292 555,-292 555,-274 507,-274"/>
<text text-anchor="start" x="510" y="-280.2" font-family="Helvetica,sans-Serif" font-size="11.00">&lt; 1</text>
<polygon fill="#ffffff" stroke="transparent" points="555,-274 555,-292 640,-292 640,-274 555,-274"/>
<polygon fill="none" stroke="black" points="555,-274 555,-292 640,-292 640,-274 555,-274"/>
<text text-anchor="start" x="569" y="-280.2" font-family="Helvetica,sans-Serif" font-size="11.00">11,172 rows</text>
<polygon fill="#ffffff" stroke="transparent" points="640,-274 640,-292 678,-292 678,-274 640,-274"/>
<polygon fill="none" stroke="black" points="640,-274 640,-292 678,-292 678,-274 640,-274"/>
<text text-anchor="start" x="655" y="-280.2" font-family="Helvetica,sans-Serif" font-size="11.00">1 &gt;</text>
</a>
</g>
</g>
<!-- text_fragment_data&#45;&gt;text_fragment -->
<g id="edge13" class="edge">
<title>text_fragment_data:w&#45;&gt;text_fragment:e</title>
<path fill="none" stroke="black" d="M491.41,-300.85C447.17,-299.81 428.03,-292.85 388,-263 353.02,-236.91 376.14,-182 332.5,-182"/>
<polygon fill="black" stroke="black" points="498,-300.92 505.96,-304.6 502,-300.96 506,-301 506,-301 506,-301 502,-300.96 506.04,-297.4 498,-300.92 498,-300.92"/>
<ellipse fill="none" stroke="black" cx="494.8" cy="-300.88" rx="3.2" ry="3.2"/>
</g>
<!-- text_fragment_to_line -->
<g id="node12" class="node">
<title>text_fragment_to_line</title>
<g id="a_node12"><a xlink:href="../../tables/text_fragment_to_line.html" xlink:title="text_fragment_to_line" target="_top">
<polygon fill="#ffffff" stroke="transparent" points="500,-195 500,-253 684,-253 684,-195 500,-195"/>
<polygon fill="#f5f5f5" stroke="transparent" points="500,-231 500,-253 684,-253 684,-231 500,-231"/>
<polygon fill="none" stroke="black" points="500,-231 500,-253 684,-253 684,-231 500,-231"/>
<text text-anchor="start" x="505" y="-240.2" font-family="Helvetica,sans-Serif" font-weight="bold" font-size="11.00">text_fragment_to_line</text>
<text text-anchor="start" x="642" y="-239.2" font-family="Helvetica,sans-Serif" font-size="11.00">[table]</text>
<polygon fill="none" stroke="black" points="500,-213 500,-231 684,-231 684,-213 500,-213"/>
<text text-anchor="start" x="503" y="-219.2" font-family="Helvetica,sans-Serif" font-size="11.00">...</text>
<polygon fill="#ffffff" stroke="transparent" points="500,-195 500,-213 555,-213 555,-195 500,-195"/>
<polygon fill="none" stroke="black" points="500,-195 500,-213 555,-213 555,-195 500,-195"/>
<text text-anchor="start" x="503" y="-201.2" font-family="Helvetica,sans-Serif" font-size="11.00">&lt; 2</text>
<polygon fill="#ffffff" stroke="transparent" points="555,-195 555,-213 643,-213 643,-195 555,-195"/>
<polygon fill="none" stroke="black" points="555,-195 555,-213 643,-213 643,-195 555,-195"/>
<text text-anchor="start" x="572" y="-201.2" font-family="Helvetica,sans-Serif" font-size="11.00">53,405 rows</text>
<polygon fill="#ffffff" stroke="transparent" points="643,-195 643,-213 684,-213 684,-195 643,-195"/>
<polygon fill="none" stroke="black" points="643,-195 643,-213 684,-213 684,-195 643,-195"/>
<text text-anchor="start" x="661" y="-201.2" font-family="Helvetica,sans-Serif" font-size="11.00">1 &gt;</text>
</a>
</g>
</g>
<!-- text_fragment_to_line&#45;&gt;text_fragment -->
<g id="edge14" class="edge">
<title>text_fragment_to_line:w&#45;&gt;text_fragment:e</title>
<path fill="none" stroke="black" d="M484.22,-221.46C420.65,-216.72 403.4,-182 332.5,-182"/>
<polygon fill="black" stroke="black" points="491.01,-221.71 498.87,-225.6 495,-221.86 499,-222 499,-222 499,-222 495,-221.86 499.13,-218.4 491.01,-221.71 491.01,-221.71"/>
<ellipse fill="none" stroke="black" cx="487.81" cy="-221.59" rx="3.2" ry="3.2"/>
</g>
</g>
</svg>
