<?xml version="1.0" encoding="UTF-8" standalone="no"?>
<!DOCTYPE svg PUBLIC "-//W3C//DTD SVG 1.1//EN"
 "http://www.w3.org/Graphics/SVG/1.1/DTD/svg11.dtd">
<!-- Generated by graphviz version 2.43.0 (0)
 -->
<!-- Title: twoDegreesRelationshipsDiagram Pages: 1 -->
<svg width="1215pt" height="713pt"
 viewBox="0.00 0.00 1215.00 713.00" xmlns="http://www.w3.org/2000/svg" xmlns:xlink="http://www.w3.org/1999/xlink">
<g id="graph0" class="graph" transform="scale(1 1) rotate(0) translate(4 709)">
<title>twoDegreesRelationshipsDiagram</title>
<polygon fill="#ffffff" stroke="transparent" points="-4,4 -4,-709 1211,-709 1211,4 -4,4"/>
<text text-anchor="middle" x="79.5" y="-7.2" font-family="Helvetica,sans-Serif" font-size="11.00">Generated by SchemaSpy</text>
<!-- edition -->
<g id="node1" class="node">
<title>edition</title>
<g id="a_node1"><a xlink:href="../../tables/edition.html" xlink:title="edition" target="_top">
<polygon fill="#ffffff" stroke="transparent" points="250,-37 250,-95 376,-95 376,-37 250,-37"/>
<polygon fill="#f5f5f5" stroke="transparent" points="250,-73 250,-95 376,-95 376,-73 250,-73"/>
<polygon fill="none" stroke="black" points="250,-73 250,-95 376,-95 376,-73 250,-73"/>
<text text-anchor="start" x="255" y="-82.2" font-family="Helvetica,sans-Serif" font-weight="bold" font-size="11.00">edition</text>
<text text-anchor="start" x="334" y="-81.2" font-family="Helvetica,sans-Serif" font-size="11.00">[table]</text>
<polygon fill="none" stroke="black" points="250,-55 250,-73 376,-73 376,-55 250,-55"/>
<text text-anchor="start" x="253" y="-61.2" font-family="Helvetica,sans-Serif" font-size="11.00">...</text>
<polygon fill="#ffffff" stroke="transparent" points="250,-37 250,-55 276,-55 276,-37 250,-37"/>
<polygon fill="none" stroke="black" points="250,-37 250,-55 276,-55 276,-37 250,-37"/>
<text text-anchor="start" x="253" y="-43.2" font-family="Helvetica,sans-Serif" font-size="11.00">&lt; 1</text>
<polygon fill="#ffffff" stroke="transparent" points="276,-37 276,-55 343,-55 343,-37 276,-37"/>
<polygon fill="none" stroke="black" points="276,-37 276,-55 343,-55 343,-37 276,-37"/>
<text text-anchor="start" x="279" y="-43.2" font-family="Helvetica,sans-Serif" font-size="11.00">1,645 rows</text>
<polygon fill="#ffffff" stroke="transparent" points="343,-37 343,-55 376,-55 376,-37 343,-37"/>
<polygon fill="none" stroke="black" points="343,-37 343,-55 376,-55 376,-37 343,-37"/>
<text text-anchor="start" x="346" y="-43.2" font-family="Helvetica,sans-Serif" font-size="11.00">35 &gt;</text>
</a>
</g>
</g>
<!-- manuscript -->
<g id="node2" class="node">
<title>manuscript</title>
<g id="a_node2"><a xlink:href="../../tables/manuscript.html" xlink:title="manuscript" target="_top">
<polygon fill="#ffffff" stroke="transparent" points="8,-299 8,-361 129,-361 129,-299 8,-299"/>
<polygon fill="#f5f5f5" stroke="transparent" points="8.5,-339 8.5,-361 129.5,-361 129.5,-339 8.5,-339"/>
<polygon fill="none" stroke="black" points="8.5,-339 8.5,-361 129.5,-361 129.5,-339 8.5,-339"/>
<text text-anchor="start" x="13.5" y="-348.2" font-family="Helvetica,sans-Serif" font-weight="bold" font-size="11.00">manuscript</text>
<text text-anchor="start" x="87.5" y="-347.2" font-family="Helvetica,sans-Serif" font-size="11.00">[table]</text>
<polygon fill="none" stroke="black" points="8.5,-317 8.5,-339 129.5,-339 129.5,-317 8.5,-317"/>
<image xlink:href="../../images/primaryKeys.png" width="11px" height="12px" preserveAspectRatio="xMinYMin meet" x="13.5" y="-334"/>
<text text-anchor="start" x="31.5" y="-325.2" font-family="Helvetica,sans-Serif" font-size="11.00">manuscript_id</text>
<polygon fill="#ffffff" stroke="transparent" points="8.5,-299 8.5,-317 29.5,-317 29.5,-299 8.5,-299"/>
<polygon fill="none" stroke="black" points="8.5,-299 8.5,-317 29.5,-317 29.5,-299 8.5,-299"/>
<text text-anchor="start" x="11.5" y="-305.2" font-family="Helvetica,sans-Serif" font-size="11.00"> &#160;</text>
<polygon fill="#ffffff" stroke="transparent" points="29.5,-299 29.5,-317 99.5,-317 99.5,-299 29.5,-299"/>
<polygon fill="none" stroke="black" points="29.5,-299 29.5,-317 99.5,-317 99.5,-299 29.5,-299"/>
<text text-anchor="start" x="35.5" y="-305.2" font-family="Helvetica,sans-Serif" font-size="11.00">1,645 rows</text>
<polygon fill="#ffffff" stroke="transparent" points="99.5,-299 99.5,-317 129.5,-317 129.5,-299 99.5,-299"/>
<polygon fill="none" stroke="black" points="99.5,-299 99.5,-317 129.5,-317 129.5,-299 99.5,-299"/>
<text text-anchor="start" x="106.5" y="-305.2" font-family="Helvetica,sans-Serif" font-size="11.00">5 &gt;</text>
</a>
</g>
</g>
<!-- edition&#45;&gt;manuscript -->
<g id="edge1" class="edge">
<title>edition:w&#45;&gt;manuscript:e</title>
<path fill="none" stroke="black" d="M234.56,-64.62C204.53,-67.45 190.33,-80.27 170,-109 141.44,-149.37 179.95,-328 130.5,-328"/>
<polygon fill="black" stroke="black" points="241.01,-64.34 249.15,-67.6 245,-64.17 249,-64 249,-64 249,-64 245,-64.17 248.85,-60.4 241.01,-64.34 241.01,-64.34"/>
<ellipse fill="none" stroke="black" cx="237.81" cy="-64.48" rx="3.2" ry="3.2"/>
</g>
<!-- iaa_edition_catalog -->
<g id="node3" class="node">
<title>iaa_edition_catalog</title>
<g id="a_node3"><a xlink:href="../../tables/iaa_edition_catalog.html" xlink:title="iaa_edition_catalog" target="_top">
<polygon fill="#ffffff" stroke="transparent" points="178,-459 178,-701 448,-701 448,-459 178,-459"/>
<polygon fill="#f5f5f5" stroke="transparent" points="180,-677 180,-699 446,-699 446,-677 180,-677"/>
<polygon fill="none" stroke="black" points="180,-677 180,-699 446,-699 446,-677 180,-677"/>
<text text-anchor="start" x="185" y="-686.2" font-family="Helvetica,sans-Serif" font-weight="bold" font-size="11.00">iaa_edition_catalog</text>
<text text-anchor="start" x="404" y="-685.2" font-family="Helvetica,sans-Serif" font-size="11.00">[table]</text>
<polygon fill="none" stroke="black" points="180,-655 180,-677 349,-677 349,-655 180,-655"/>
<image xlink:href="../../images/primaryKeys.png" width="11px" height="12px" preserveAspectRatio="xMinYMin meet" x="185" y="-672"/>
<text text-anchor="start" x="200" y="-663.2" font-family="Helvetica,sans-Serif" font-size="11.00">iaa_edition_catalog_id</text>
<polygon fill="none" stroke="black" points="349,-655 349,-677 446,-677 446,-655 349,-655"/>
<text text-anchor="start" x="352" y="-663.2" font-family="Helvetica,sans-Serif" font-size="11.00">int unsigned[10]</text>
<polygon fill="#ffffff" stroke="transparent" points="180,-633 180,-655 349,-655 349,-633 180,-633"/>
<polygon fill="none" stroke="black" points="180,-633 180,-655 349,-655 349,-633 180,-633"/>
<text text-anchor="start" x="200" y="-641.2" font-family="Helvetica,sans-Serif" font-size="11.00">manuscript</text>
<polygon fill="none" stroke="black" points="349,-633 349,-655 446,-655 446,-633 349,-633"/>
<text text-anchor="start" x="352" y="-641.2" font-family="Helvetica,sans-Serif" font-size="11.00">varchar[255]</text>
<polygon fill="#ffffff" stroke="transparent" points="180,-611 180,-633 349,-633 349,-611 180,-611"/>
<polygon fill="none" stroke="black" points="180,-611 180,-633 349,-633 349,-611 180,-611"/>
<text text-anchor="start" x="200" y="-619.2" font-family="Helvetica,sans-Serif" font-size="11.00">edition_name</text>
<polygon fill="none" stroke="black" points="349,-611 349,-633 446,-633 446,-611 349,-611"/>
<text text-anchor="start" x="352" y="-619.2" font-family="Helvetica,sans-Serif" font-size="11.00">varchar[255]</text>
<polygon fill="#ffffff" stroke="transparent" points="180,-589 180,-611 349,-611 349,-589 180,-589"/>
<polygon fill="none" stroke="black" points="180,-589 180,-611 349,-611 349,-589 180,-589"/>
<text text-anchor="start" x="200" y="-597.2" font-family="Helvetica,sans-Serif" font-size="11.00">edition_volume</text>
<polygon fill="none" stroke="black" points="349,-589 349,-611 446,-611 446,-589 349,-589"/>
<text text-anchor="start" x="352" y="-597.2" font-family="Helvetica,sans-Serif" font-size="11.00">varchar[128]</text>
<polygon fill="#ffffff" stroke="transparent" points="180,-567 180,-589 349,-589 349,-567 180,-567"/>
<polygon fill="none" stroke="black" points="180,-567 180,-589 349,-589 349,-567 180,-567"/>
<text text-anchor="start" x="200" y="-575.2" font-family="Helvetica,sans-Serif" font-size="11.00">edition_location_1</text>
<polygon fill="none" stroke="black" points="349,-567 349,-589 446,-589 446,-567 349,-567"/>
<text text-anchor="start" x="352" y="-575.2" font-family="Helvetica,sans-Serif" font-size="11.00">varchar[64]</text>
<polygon fill="#ffffff" stroke="transparent" points="180,-545 180,-567 349,-567 349,-545 180,-545"/>
<polygon fill="none" stroke="black" points="180,-545 180,-567 349,-567 349,-545 180,-545"/>
<text text-anchor="start" x="200" y="-553.2" font-family="Helvetica,sans-Serif" font-size="11.00">edition_location_2</text>
<polygon fill="none" stroke="black" points="349,-545 349,-567 446,-567 446,-545 349,-545"/>
<text text-anchor="start" x="352" y="-553.2" font-family="Helvetica,sans-Serif" font-size="11.00">varchar[64]</text>
<polygon fill="#ffffff" stroke="transparent" points="180,-523 180,-545 349,-545 349,-523 180,-523"/>
<polygon fill="none" stroke="black" points="180,-523 180,-545 349,-545 349,-523 180,-523"/>
<text text-anchor="start" x="200" y="-531.2" font-family="Helvetica,sans-Serif" font-size="11.00">edition_side</text>
<polygon fill="none" stroke="black" points="349,-523 349,-545 446,-545 446,-523 349,-523"/>
<text text-anchor="start" x="352" y="-531.2" font-family="Helvetica,sans-Serif" font-size="11.00">bit[3]</text>
<polygon fill="#ffffff" stroke="transparent" points="180,-501 180,-523 349,-523 349,-501 180,-501"/>
<polygon fill="none" stroke="black" points="180,-501 180,-523 349,-523 349,-501 180,-501"/>
<image xlink:href="../../images/foreignKeys.png" width="11px" height="12px" preserveAspectRatio="xMinYMin meet" x="185" y="-518"/>
<text text-anchor="start" x="200" y="-509.2" font-family="Helvetica,sans-Serif" font-size="11.00">manuscript_id</text>
<polygon fill="none" stroke="black" points="349,-501 349,-523 446,-523 446,-501 349,-501"/>
<text text-anchor="start" x="352" y="-509.2" font-family="Helvetica,sans-Serif" font-size="11.00">int unsigned[10]</text>
<polygon fill="none" stroke="black" points="180,-479 180,-501 349,-501 349,-479 180,-479"/>
<text text-anchor="start" x="200" y="-487.2" font-family="Helvetica,sans-Serif" font-size="11.00">comment</text>
<polygon fill="none" stroke="black" points="349,-479 349,-501 446,-501 446,-479 349,-479"/>
<text text-anchor="start" x="352" y="-487.2" font-family="Helvetica,sans-Serif" font-size="11.00">varchar[255]</text>
<polygon fill="#ffffff" stroke="transparent" points="180,-461 180,-479 240,-479 240,-461 180,-461"/>
<polygon fill="none" stroke="black" points="180,-461 180,-479 240,-479 240,-461 180,-461"/>
<text text-anchor="start" x="183" y="-467.2" font-family="Helvetica,sans-Serif" font-size="11.00">&lt; 1</text>
<polygon fill="#ffffff" stroke="transparent" points="240,-461 240,-479 349,-479 349,-461 240,-461"/>
<polygon fill="none" stroke="black" points="240,-461 240,-479 349,-479 349,-461 240,-461"/>
<text text-anchor="start" x="278" y="-467.2" font-family="Helvetica,sans-Serif" font-size="11.00">38,927 rows</text>
<polygon fill="#ffffff" stroke="transparent" points="349,-461 349,-479 446,-479 446,-461 349,-461"/>
<polygon fill="none" stroke="black" points="349,-461 349,-479 446,-479 446,-461 349,-461"/>
<text text-anchor="start" x="423" y="-467.2" font-family="Helvetica,sans-Serif" font-size="11.00">3 &gt;</text>
<polygon fill="none" stroke="black" stroke-width="2" points="179,-460 179,-700 447,-700 447,-460 179,-460"/>
</a>
</g>
</g>
<!-- iaa_edition_catalog&#45;&gt;manuscript -->
<g id="edge2" class="edge">
<title>iaa_edition_catalog:w&#45;&gt;manuscript:e</title>
<path fill="none" stroke="black" d="M164.75,-509.67C109.55,-488.37 209.45,-328 130.5,-328"/>
<polygon fill="black" stroke="black" points="171.1,-510.71 178.42,-515.55 175.05,-511.36 179,-512 179,-512 179,-512 175.05,-511.36 179.58,-508.45 171.1,-510.71 171.1,-510.71"/>
<ellipse fill="none" stroke="black" cx="167.95" cy="-510.2" rx="3.2" ry="3.2"/>
</g>
<!-- iaa_edition_catalog_author -->
<g id="node4" class="node">
<title>iaa_edition_catalog_author</title>
<g id="a_node4"><a xlink:href="../../tables/iaa_edition_catalog_author.html" xlink:title="iaa_edition_catalog_author" target="_top">
<polygon fill="#ffffff" stroke="transparent" points="910.5,-598 910.5,-682 1125.5,-682 1125.5,-598 910.5,-598"/>
<polygon fill="#f5f5f5" stroke="transparent" points="911,-660 911,-682 1126,-682 1126,-660 911,-660"/>
<polygon fill="none" stroke="black" points="911,-660 911,-682 1126,-682 1126,-660 911,-660"/>
<text text-anchor="start" x="916" y="-669.2" font-family="Helvetica,sans-Serif" font-weight="bold" font-size="11.00">iaa_edition_catalog_author</text>
<text text-anchor="start" x="1084" y="-668.2" font-family="Helvetica,sans-Serif" font-size="11.00">[table]</text>
<polygon fill="none" stroke="black" points="911,-638 911,-660 1126,-660 1126,-638 911,-638"/>
<image xlink:href="../../images/primaryKeys.png" width="11px" height="12px" preserveAspectRatio="xMinYMin meet" x="916" y="-655"/>
<text text-anchor="start" x="938" y="-646.2" font-family="Helvetica,sans-Serif" font-size="11.00">iaa_edition_catalog_id</text>
<polygon fill="#ffffff" stroke="transparent" points="911,-616 911,-638 1126,-638 1126,-616 911,-616"/>
<polygon fill="none" stroke="black" points="911,-616 911,-638 1126,-638 1126,-616 911,-616"/>
<image xlink:href="../../images/foreignKeys.png" width="11px" height="12px" preserveAspectRatio="xMinYMin meet" x="916" y="-633"/>
<text text-anchor="start" x="938" y="-624.2" font-family="Helvetica,sans-Serif" font-size="11.00">user_id</text>
<polygon fill="#ffffff" stroke="transparent" points="911,-598 911,-616 987,-616 987,-598 911,-598"/>
<polygon fill="none" stroke="black" points="911,-598 911,-616 987,-616 987,-598 911,-598"/>
<text text-anchor="start" x="914" y="-604.2" font-family="Helvetica,sans-Serif" font-size="11.00">&lt; 2</text>
<polygon fill="#ffffff" stroke="transparent" points="987,-598 987,-616 1086,-616 1086,-598 987,-598"/>
<polygon fill="none" stroke="black" points="987,-598 987,-616 1086,-616 1086,-598 987,-598"/>
<text text-anchor="start" x="1015" y="-604.2" font-family="Helvetica,sans-Serif" font-size="11.00">39,537 rows</text>
<polygon fill="#ffffff" stroke="transparent" points="1086,-598 1086,-616 1126,-616 1126,-598 1086,-598"/>
<polygon fill="none" stroke="black" points="1086,-598 1086,-616 1126,-616 1126,-598 1086,-598"/>
<text text-anchor="start" x="1115" y="-604.2" font-family="Helvetica,sans-Serif" font-size="11.00"> &#160;</text>
</a>
</g>
</g>
<!-- iaa_edition_catalog_author&#45;&gt;iaa_edition_catalog -->
<g id="edge3" class="edge">
<title>iaa_edition_catalog_author:w&#45;&gt;iaa_edition_catalog:e</title>
<path fill="none" stroke="black" d="M899.18,-649.31C829.82,-651.61 458.84,-666 447,-666"/>
<polygon fill="black" stroke="black" points="909.09,-645.02 909.31,-653.02 907.72,-653.07 907.49,-645.07 909.09,-645.02"/>
<polyline fill="none" stroke="black" points="910,-649 906,-649.11 "/>
<ellipse fill="none" stroke="black" cx="902.8" cy="-649.21" rx="3.2" ry="3.2"/>
</g>
<!-- user -->
<g id="node5" class="node">
<title>user</title>
<g id="a_node5"><a xlink:href="../../tables/user.html" xlink:title="user" target="_top">
<polygon fill="#ffffff" stroke="transparent" points="597.5,-584 597.5,-642 687.5,-642 687.5,-584 597.5,-584"/>
<polygon fill="#f5f5f5" stroke="transparent" points="597.5,-620 597.5,-642 687.5,-642 687.5,-620 597.5,-620"/>
<polygon fill="none" stroke="black" points="597.5,-620 597.5,-642 687.5,-642 687.5,-620 597.5,-620"/>
<text text-anchor="start" x="602.5" y="-629.2" font-family="Helvetica,sans-Serif" font-weight="bold" font-size="11.00">user</text>
<text text-anchor="start" x="645.5" y="-628.2" font-family="Helvetica,sans-Serif" font-size="11.00">[table]</text>
<polygon fill="none" stroke="black" points="597.5,-602 597.5,-620 687.5,-620 687.5,-602 597.5,-602"/>
<text text-anchor="start" x="600.5" y="-608.2" font-family="Helvetica,sans-Serif" font-size="11.00">...</text>
<polygon fill="#ffffff" stroke="transparent" points="597.5,-584 597.5,-602 611.5,-602 611.5,-584 597.5,-584"/>
<polygon fill="none" stroke="black" points="597.5,-584 597.5,-602 611.5,-602 611.5,-584 597.5,-584"/>
<text text-anchor="start" x="600.5" y="-590.2" font-family="Helvetica,sans-Serif" font-size="11.00"> &#160;</text>
<polygon fill="#ffffff" stroke="transparent" points="611.5,-584 611.5,-602 654.5,-602 654.5,-584 611.5,-584"/>
<polygon fill="none" stroke="black" points="611.5,-584 611.5,-602 654.5,-602 654.5,-584 611.5,-584"/>
<text text-anchor="start" x="614.5" y="-590.2" font-family="Helvetica,sans-Serif" font-size="11.00">0 rows</text>
<polygon fill="#ffffff" stroke="transparent" points="654.5,-584 654.5,-602 687.5,-602 687.5,-584 654.5,-584"/>
<polygon fill="none" stroke="black" points="654.5,-584 654.5,-602 687.5,-602 687.5,-584 654.5,-584"/>
<text text-anchor="start" x="657.5" y="-590.2" font-family="Helvetica,sans-Serif" font-size="11.00">10 &gt;</text>
</a>
</g>
</g>
<!-- iaa_edition_catalog_author&#45;&gt;user -->
<g id="edge4" class="edge">
<title>iaa_edition_catalog_author:w&#45;&gt;user:e</title>
<path fill="none" stroke="black" d="M895.52,-626.88C808.66,-625.42 782.19,-611 688.5,-611"/>
<polygon fill="black" stroke="black" points="902,-626.93 909.97,-630.6 906,-626.97 910,-627 910,-627 910,-627 906,-626.97 910.03,-623.4 902,-626.93 902,-626.93"/>
<ellipse fill="none" stroke="black" cx="898.8" cy="-626.91" rx="3.2" ry="3.2"/>
</g>
<!-- iaa_edition_catalog_to_text_fragment -->
<g id="node6" class="node">
<title>iaa_edition_catalog_to_text_fragment</title>
<g id="a_node6"><a xlink:href="../../tables/iaa_edition_catalog_to_text_fragment.html" xlink:title="iaa_edition_catalog_to_text_fragment" target="_top">
<polygon fill="#ffffff" stroke="transparent" points="497,-352 497,-458 788,-458 788,-352 497,-352"/>
<polygon fill="#f5f5f5" stroke="transparent" points="497.5,-436 497.5,-458 788.5,-458 788.5,-436 497.5,-436"/>
<polygon fill="none" stroke="black" points="497.5,-436 497.5,-458 788.5,-458 788.5,-436 497.5,-436"/>
<text text-anchor="start" x="502.5" y="-445.2" font-family="Helvetica,sans-Serif" font-weight="bold" font-size="11.00">iaa_edition_catalog_to_text_fragment</text>
<text text-anchor="start" x="746.5" y="-444.2" font-family="Helvetica,sans-Serif" font-size="11.00">[table]</text>
<polygon fill="none" stroke="black" points="497.5,-414 497.5,-436 788.5,-436 788.5,-414 497.5,-414"/>
<image xlink:href="../../images/primaryKeys.png" width="11px" height="12px" preserveAspectRatio="xMinYMin meet" x="502.5" y="-431"/>
<text text-anchor="start" x="517.5" y="-422.2" font-family="Helvetica,sans-Serif" font-size="11.00">iaa_edition_catalog_to_text_fragment_id</text>
<polygon fill="#ffffff" stroke="transparent" points="497.5,-392 497.5,-414 788.5,-414 788.5,-392 497.5,-392"/>
<polygon fill="none" stroke="black" points="497.5,-392 497.5,-414 788.5,-414 788.5,-392 497.5,-392"/>
<image xlink:href="../../images/foreignKeys.png" width="11px" height="12px" preserveAspectRatio="xMinYMin meet" x="502.5" y="-409"/>
<text text-anchor="start" x="517.5" y="-400.2" font-family="Helvetica,sans-Serif" font-size="11.00">iaa_edition_catalog_id</text>
<polygon fill="#ffffff" stroke="transparent" points="497.5,-370 497.5,-392 788.5,-392 788.5,-370 497.5,-370"/>
<polygon fill="none" stroke="black" points="497.5,-370 497.5,-392 788.5,-392 788.5,-370 497.5,-370"/>
<image xlink:href="../../images/foreignKeys.png" width="11px" height="12px" preserveAspectRatio="xMinYMin meet" x="502.5" y="-387"/>
<text text-anchor="start" x="517.5" y="-378.2" font-family="Helvetica,sans-Serif" font-size="11.00">text_fragment_id</text>
<polygon fill="#ffffff" stroke="transparent" points="497.5,-352 497.5,-370 605.5,-370 605.5,-352 497.5,-352"/>
<polygon fill="none" stroke="black" points="497.5,-352 497.5,-370 605.5,-370 605.5,-352 497.5,-352"/>
<text text-anchor="start" x="500.5" y="-358.2" font-family="Helvetica,sans-Serif" font-size="11.00">&lt; 2</text>
<polygon fill="#ffffff" stroke="transparent" points="605.5,-352 605.5,-370 720.5,-370 720.5,-352 605.5,-352"/>
<polygon fill="none" stroke="black" points="605.5,-352 605.5,-370 720.5,-370 720.5,-352 605.5,-352"/>
<text text-anchor="start" x="649.5" y="-358.2" font-family="Helvetica,sans-Serif" font-size="11.00">15,236 rows</text>
<polygon fill="#ffffff" stroke="transparent" points="720.5,-352 720.5,-370 788.5,-370 788.5,-352 720.5,-352"/>
<polygon fill="none" stroke="black" points="720.5,-352 720.5,-370 788.5,-370 788.5,-352 720.5,-352"/>
<text text-anchor="start" x="765.5" y="-358.2" font-family="Helvetica,sans-Serif" font-size="11.00">1 &gt;</text>
</a>
</g>
</g>
<!-- iaa_edition_catalog_to_text_fragment&#45;&gt;iaa_edition_catalog -->
<g id="edge5" class="edge">
<title>iaa_edition_catalog_to_text_fragment:w&#45;&gt;iaa_edition_catalog:e</title>
<path fill="none" stroke="black" d="M482.96,-409.5C448.92,-450 500.9,-666 447,-666"/>
<polygon fill="black" stroke="black" points="489.29,-406.46 498.06,-406.25 492.89,-404.73 496.5,-403 496.5,-403 496.5,-403 492.89,-404.73 494.94,-399.75 489.29,-406.46 489.29,-406.46"/>
<ellipse fill="none" stroke="black" cx="486.4" cy="-407.85" rx="3.2" ry="3.2"/>
</g>
<!-- text_fragment -->
<g id="node7" class="node">
<title>text_fragment</title>
<g id="a_node7"><a xlink:href="../../tables/text_fragment.html" xlink:title="text_fragment" target="_top">
<polygon fill="#ffffff" stroke="transparent" points="244,-143 244,-201 382,-201 382,-143 244,-143"/>
<polygon fill="#f5f5f5" stroke="transparent" points="244,-179 244,-201 382,-201 382,-179 244,-179"/>
<polygon fill="none" stroke="black" points="244,-179 244,-201 382,-201 382,-179 244,-179"/>
<text text-anchor="start" x="249" y="-188.2" font-family="Helvetica,sans-Serif" font-weight="bold" font-size="11.00">text_fragment</text>
<text text-anchor="start" x="340" y="-187.2" font-family="Helvetica,sans-Serif" font-size="11.00">[table]</text>
<polygon fill="none" stroke="black" points="244,-161 244,-179 382,-179 382,-161 244,-161"/>
<text text-anchor="start" x="247" y="-167.2" font-family="Helvetica,sans-Serif" font-size="11.00">...</text>
<polygon fill="#ffffff" stroke="transparent" points="244,-143 244,-161 270,-161 270,-143 244,-143"/>
<polygon fill="none" stroke="black" points="244,-143 244,-161 270,-161 270,-143 244,-143"/>
<text text-anchor="start" x="247" y="-149.2" font-family="Helvetica,sans-Serif" font-size="11.00"> &#160;</text>
<polygon fill="#ffffff" stroke="transparent" points="270,-143 270,-161 350,-161 350,-143 270,-143"/>
<polygon fill="none" stroke="black" points="270,-143 270,-161 350,-161 350,-143 270,-143"/>
<text text-anchor="start" x="279" y="-149.2" font-family="Helvetica,sans-Serif" font-size="11.00">11,176 rows</text>
<polygon fill="#ffffff" stroke="transparent" points="350,-143 350,-161 382,-161 382,-143 350,-143"/>
<polygon fill="none" stroke="black" points="350,-143 350,-161 382,-161 382,-143 350,-143"/>
<text text-anchor="start" x="359" y="-149.2" font-family="Helvetica,sans-Serif" font-size="11.00">6 &gt;</text>
</a>
</g>
</g>
<!-- iaa_edition_catalog_to_text_fragment&#45;&gt;text_fragment -->
<g id="edge6" class="edge">
<title>iaa_edition_catalog_to_text_fragment:w&#45;&gt;text_fragment:e</title>
<path fill="none" stroke="black" d="M482.08,-379.37C430.28,-365.63 499.41,-268.52 456,-211 433.58,-181.3 420.21,-170 383,-170"/>
<polygon fill="black" stroke="black" points="488.55,-380.1 496.09,-384.58 492.53,-380.55 496.5,-381 496.5,-381 496.5,-381 492.53,-380.55 496.91,-377.42 488.55,-380.1 488.55,-380.1"/>
<ellipse fill="none" stroke="black" cx="485.37" cy="-379.74" rx="3.2" ry="3.2"/>
</g>
<!-- iaa_edition_catalog_to_text_fragment_confirmation -->
<g id="node8" class="node">
<title>iaa_edition_catalog_to_text_fragment_confirmation</title>
<g id="a_node8"><a xlink:href="../../tables/iaa_edition_catalog_to_text_fragment_confirmation.html" xlink:title="iaa_edition_catalog_to_text_fragment_confirmation" target="_top">
<polygon fill="#ffffff" stroke="transparent" points="837,-467 837,-525 1199,-525 1199,-467 837,-467"/>
<polygon fill="#f5f5f5" stroke="transparent" points="837,-503 837,-525 1199,-525 1199,-503 837,-503"/>
<polygon fill="none" stroke="black" points="837,-503 837,-525 1199,-525 1199,-503 837,-503"/>
<text text-anchor="start" x="842" y="-512.2" font-family="Helvetica,sans-Serif" font-weight="bold" font-size="11.00">iaa_edition_catalog_to_text_fragment_confirmation</text>
<text text-anchor="start" x="1157" y="-511.2" font-family="Helvetica,sans-Serif" font-size="11.00">[table]</text>
<polygon fill="none" stroke="black" points="837,-485 837,-503 1199,-503 1199,-485 837,-485"/>
<text text-anchor="start" x="840" y="-491.2" font-family="Helvetica,sans-Serif" font-size="11.00">...</text>
<polygon fill="#ffffff" stroke="transparent" points="837,-467 837,-485 987,-485 987,-467 837,-467"/>
<polygon fill="none" stroke="black" points="837,-467 837,-485 987,-485 987,-467 837,-467"/>
<text text-anchor="start" x="840" y="-473.2" font-family="Helvetica,sans-Serif" font-size="11.00">&lt; 2</text>
<polygon fill="#ffffff" stroke="transparent" points="987,-467 987,-485 1123,-485 1123,-467 987,-467"/>
<polygon fill="none" stroke="black" points="987,-467 987,-485 1123,-485 1123,-467 987,-467"/>
<text text-anchor="start" x="1052" y="-473.2" font-family="Helvetica,sans-Serif" font-size="11.00">15,403 rows</text>
<polygon fill="#ffffff" stroke="transparent" points="1123,-467 1123,-485 1199,-485 1199,-467 1123,-467"/>
<polygon fill="none" stroke="black" points="1123,-467 1123,-485 1199,-485 1199,-467 1123,-467"/>
<text text-anchor="start" x="1188" y="-473.2" font-family="Helvetica,sans-Serif" font-size="11.00"> &#160;</text>
</a>
</g>
</g>
<!-- iaa_edition_catalog_to_text_fragment_confirmation&#45;&gt;user -->
<g id="edge8" class="edge">
<title>iaa_edition_catalog_to_text_fragment_confirmation:w&#45;&gt;user:e</title>
<path fill="none" stroke="black" d="M821.96,-497.63C804.06,-510.14 821.23,-551.9 796,-574 757.99,-607.29 739.03,-611 688.5,-611"/>
<polygon fill="black" stroke="black" points="828.25,-496 836.9,-497.49 832.13,-495 836,-494 836,-494 836,-494 832.13,-495 835.1,-490.51 828.25,-496 828.25,-496"/>
<ellipse fill="none" stroke="black" cx="825.16" cy="-496.8" rx="3.2" ry="3.2"/>
</g>
<!-- iaa_edition_catalog_to_text_fragment_confirmation&#45;&gt;iaa_edition_catalog_to_text_fragment -->
<g id="edge7" class="edge">
<title>iaa_edition_catalog_to_text_fragment_confirmation:w&#45;&gt;iaa_edition_catalog_to_text_fragment:e</title>
<path fill="none" stroke="black" d="M822.43,-489.04C806.3,-473.22 820.41,-425 789.5,-425"/>
<polygon fill="black" stroke="black" points="828.49,-491.25 834.76,-497.38 832.24,-492.63 836,-494 836,-494 836,-494 832.24,-492.63 837.24,-490.62 828.49,-491.25 828.49,-491.25"/>
<ellipse fill="none" stroke="black" cx="825.48" cy="-490.15" rx="3.2" ry="3.2"/>
</g>
<!-- image_to_iaa_edition_catalog -->
<g id="node9" class="node">
<title>image_to_iaa_edition_catalog</title>
<g id="a_node9"><a xlink:href="../../tables/image_to_iaa_edition_catalog.html" xlink:title="image_to_iaa_edition_catalog" target="_top">
<polygon fill="#ffffff" stroke="transparent" points="527.5,-479 527.5,-563 757.5,-563 757.5,-479 527.5,-479"/>
<polygon fill="#f5f5f5" stroke="transparent" points="527.5,-541 527.5,-563 757.5,-563 757.5,-541 527.5,-541"/>
<polygon fill="none" stroke="black" points="527.5,-541 527.5,-563 757.5,-563 757.5,-541 527.5,-541"/>
<text text-anchor="start" x="532.5" y="-550.2" font-family="Helvetica,sans-Serif" font-weight="bold" font-size="11.00">image_to_iaa_edition_catalog</text>
<text text-anchor="start" x="715.5" y="-549.2" font-family="Helvetica,sans-Serif" font-size="11.00">[table]</text>
<polygon fill="none" stroke="black" points="527.5,-519 527.5,-541 757.5,-541 757.5,-519 527.5,-519"/>
<image xlink:href="../../images/primaryKeys.png" width="11px" height="12px" preserveAspectRatio="xMinYMin meet" x="532.5" y="-536"/>
<text text-anchor="start" x="553.5" y="-527.2" font-family="Helvetica,sans-Serif" font-size="11.00">iaa_edition_catalog_id</text>
<polygon fill="none" stroke="black" points="527.5,-497 527.5,-519 757.5,-519 757.5,-497 527.5,-497"/>
<image xlink:href="../../images/primaryKeys.png" width="11px" height="12px" preserveAspectRatio="xMinYMin meet" x="532.5" y="-514"/>
<text text-anchor="start" x="553.5" y="-505.2" font-family="Helvetica,sans-Serif" font-size="11.00">image_catalog_id</text>
<polygon fill="#ffffff" stroke="transparent" points="527.5,-479 527.5,-497 611.5,-497 611.5,-479 527.5,-479"/>
<polygon fill="none" stroke="black" points="527.5,-479 527.5,-497 611.5,-497 611.5,-479 527.5,-479"/>
<text text-anchor="start" x="530.5" y="-485.2" font-family="Helvetica,sans-Serif" font-size="11.00">&lt; 2</text>
<polygon fill="#ffffff" stroke="transparent" points="611.5,-479 611.5,-497 714.5,-497 714.5,-479 611.5,-479"/>
<polygon fill="none" stroke="black" points="611.5,-479 611.5,-497 714.5,-497 714.5,-479 611.5,-479"/>
<text text-anchor="start" x="643.5" y="-485.2" font-family="Helvetica,sans-Serif" font-size="11.00">39,105 rows</text>
<polygon fill="#ffffff" stroke="transparent" points="714.5,-479 714.5,-497 757.5,-497 757.5,-479 714.5,-479"/>
<polygon fill="none" stroke="black" points="714.5,-479 714.5,-497 757.5,-497 757.5,-479 714.5,-479"/>
<text text-anchor="start" x="746.5" y="-485.2" font-family="Helvetica,sans-Serif" font-size="11.00"> &#160;</text>
</a>
</g>
</g>
<!-- image_to_iaa_edition_catalog&#45;&gt;iaa_edition_catalog -->
<g id="edge9" class="edge">
<title>image_to_iaa_edition_catalog:w&#45;&gt;iaa_edition_catalog:e</title>
<path fill="none" stroke="black" d="M512.06,-532.48C465.34,-550.91 511.41,-666 447,-666"/>
<polygon fill="black" stroke="black" points="518.62,-531.35 527.11,-533.55 522.56,-530.68 526.5,-530 526.5,-530 526.5,-530 522.56,-530.68 525.89,-526.45 518.62,-531.35 518.62,-531.35"/>
<ellipse fill="none" stroke="black" cx="515.46" cy="-531.89" rx="3.2" ry="3.2"/>
</g>
<!-- image_catalog -->
<g id="node10" class="node">
<title>image_catalog</title>
<g id="a_node10"><a xlink:href="../../tables/image_catalog.html" xlink:title="image_catalog" target="_top">
<polygon fill="#ffffff" stroke="transparent" points="243,-222 243,-280 383,-280 383,-222 243,-222"/>
<polygon fill="#f5f5f5" stroke="transparent" points="243,-258 243,-280 383,-280 383,-258 243,-258"/>
<polygon fill="none" stroke="black" points="243,-258 243,-280 383,-280 383,-258 243,-258"/>
<text text-anchor="start" x="248" y="-267.2" font-family="Helvetica,sans-Serif" font-weight="bold" font-size="11.00">image_catalog</text>
<text text-anchor="start" x="341" y="-266.2" font-family="Helvetica,sans-Serif" font-size="11.00">[table]</text>
<polygon fill="none" stroke="black" points="243,-240 243,-258 383,-258 383,-240 243,-240"/>
<text text-anchor="start" x="246" y="-246.2" font-family="Helvetica,sans-Serif" font-size="11.00">...</text>
<polygon fill="#ffffff" stroke="transparent" points="243,-222 243,-240 270,-240 270,-222 243,-222"/>
<polygon fill="none" stroke="black" points="243,-222 243,-240 270,-240 270,-222 243,-222"/>
<text text-anchor="start" x="246" y="-228.2" font-family="Helvetica,sans-Serif" font-size="11.00"> &#160;</text>
<polygon fill="#ffffff" stroke="transparent" points="270,-222 270,-240 350,-240 350,-222 270,-222"/>
<polygon fill="none" stroke="black" points="270,-222 270,-240 350,-240 350,-222 270,-222"/>
<text text-anchor="start" x="279" y="-228.2" font-family="Helvetica,sans-Serif" font-size="11.00">41,950 rows</text>
<polygon fill="#ffffff" stroke="transparent" points="350,-222 350,-240 383,-240 383,-222 350,-222"/>
<polygon fill="none" stroke="black" points="350,-222 350,-240 383,-240 383,-222 350,-222"/>
<text text-anchor="start" x="360" y="-228.2" font-family="Helvetica,sans-Serif" font-size="11.00">3 &gt;</text>
</a>
</g>
</g>
<!-- image_to_iaa_edition_catalog&#45;&gt;image_catalog -->
<g id="edge10" class="edge">
<title>image_to_iaa_edition_catalog:w&#45;&gt;image_catalog:e</title>
<path fill="none" stroke="black" d="M512.04,-504.91C500.68,-498.96 497.23,-485.05 489,-469 452.07,-397.02 502.85,-355.95 456,-290 434.67,-259.98 420.82,-249 384,-249"/>
<polygon fill="black" stroke="black" points="518.68,-506.33 525.75,-511.52 522.59,-507.17 526.5,-508 526.5,-508 526.5,-508 522.59,-507.17 527.25,-504.48 518.68,-506.33 518.68,-506.33"/>
<ellipse fill="none" stroke="black" cx="515.55" cy="-505.66" rx="3.2" ry="3.2"/>
</g>
<!-- manuscript_data -->
<g id="node11" class="node">
<title>manuscript_data</title>
<g id="a_node11"><a xlink:href="../../tables/manuscript_data.html" xlink:title="manuscript_data" target="_top">
<polygon fill="#ffffff" stroke="transparent" points="236,-380 236,-438 390,-438 390,-380 236,-380"/>
<polygon fill="#f5f5f5" stroke="transparent" points="236,-416 236,-438 390,-438 390,-416 236,-416"/>
<polygon fill="none" stroke="black" points="236,-416 236,-438 390,-438 390,-416 236,-416"/>
<text text-anchor="start" x="241" y="-425.2" font-family="Helvetica,sans-Serif" font-weight="bold" font-size="11.00">manuscript_data</text>
<text text-anchor="start" x="348" y="-424.2" font-family="Helvetica,sans-Serif" font-size="11.00">[table]</text>
<polygon fill="none" stroke="black" points="236,-398 236,-416 390,-416 390,-398 236,-398"/>
<text text-anchor="start" x="239" y="-404.2" font-family="Helvetica,sans-Serif" font-size="11.00">...</text>
<polygon fill="#ffffff" stroke="transparent" points="236,-380 236,-398 279,-398 279,-380 236,-380"/>
<polygon fill="none" stroke="black" points="236,-380 236,-398 279,-398 279,-380 236,-380"/>
<text text-anchor="start" x="239" y="-386.2" font-family="Helvetica,sans-Serif" font-size="11.00">&lt; 1</text>
<polygon fill="#ffffff" stroke="transparent" points="279,-380 279,-398 355,-398 355,-380 279,-380"/>
<polygon fill="none" stroke="black" points="279,-380 279,-398 355,-398 355,-380 279,-380"/>
<text text-anchor="start" x="291" y="-386.2" font-family="Helvetica,sans-Serif" font-size="11.00">1,371 rows</text>
<polygon fill="#ffffff" stroke="transparent" points="355,-380 355,-398 390,-398 390,-380 355,-380"/>
<polygon fill="none" stroke="black" points="355,-380 355,-398 390,-398 390,-380 355,-380"/>
<text text-anchor="start" x="367" y="-386.2" font-family="Helvetica,sans-Serif" font-size="11.00">1 &gt;</text>
</a>
</g>
</g>
<!-- manuscript_data&#45;&gt;manuscript -->
<g id="edge11" class="edge">
<title>manuscript_data:w&#45;&gt;manuscript:e</title>
<path fill="none" stroke="black" d="M220.66,-405.73C199.36,-401.49 191.84,-387.19 170,-370 149.86,-354.15 156.13,-328 130.5,-328"/>
<polygon fill="black" stroke="black" points="227.03,-406.29 234.68,-410.59 231.02,-406.65 235,-407 235,-407 235,-407 231.02,-406.65 235.32,-403.41 227.03,-406.29 227.03,-406.29"/>
<ellipse fill="none" stroke="black" cx="223.84" cy="-406.01" rx="3.2" ry="3.2"/>
</g>
<!-- manuscript_metrics -->
<g id="node12" class="node">
<title>manuscript_metrics</title>
<g id="a_node12"><a xlink:href="../../tables/manuscript_metrics.html" xlink:title="manuscript_metrics" target="_top">
<polygon fill="#ffffff" stroke="transparent" points="227,-301 227,-359 399,-359 399,-301 227,-301"/>
<polygon fill="#f5f5f5" stroke="transparent" points="227,-337 227,-359 399,-359 399,-337 227,-337"/>
<polygon fill="none" stroke="black" points="227,-337 227,-359 399,-359 399,-337 227,-337"/>
<text text-anchor="start" x="232" y="-346.2" font-family="Helvetica,sans-Serif" font-weight="bold" font-size="11.00">manuscript_metrics</text>
<text text-anchor="start" x="357" y="-345.2" font-family="Helvetica,sans-Serif" font-size="11.00">[table]</text>
<polygon fill="none" stroke="black" points="227,-319 227,-337 399,-337 399,-319 227,-319"/>
<text text-anchor="start" x="230" y="-325.2" font-family="Helvetica,sans-Serif" font-size="11.00">...</text>
<polygon fill="#ffffff" stroke="transparent" points="227,-301 227,-319 279,-319 279,-301 227,-301"/>
<polygon fill="none" stroke="black" points="227,-301 227,-319 279,-319 279,-301 227,-301"/>
<text text-anchor="start" x="230" y="-307.2" font-family="Helvetica,sans-Serif" font-size="11.00">&lt; 2</text>
<polygon fill="#ffffff" stroke="transparent" points="279,-301 279,-319 359,-319 359,-301 279,-301"/>
<polygon fill="none" stroke="black" points="279,-301 279,-319 359,-319 359,-301 279,-301"/>
<text text-anchor="start" x="295" y="-307.2" font-family="Helvetica,sans-Serif" font-size="11.00">1,371 rows</text>
<polygon fill="#ffffff" stroke="transparent" points="359,-301 359,-319 399,-319 399,-301 359,-301"/>
<polygon fill="none" stroke="black" points="359,-301 359,-319 399,-319 399,-301 359,-301"/>
<text text-anchor="start" x="376" y="-307.2" font-family="Helvetica,sans-Serif" font-size="11.00">1 &gt;</text>
</a>
</g>
</g>
<!-- manuscript_metrics&#45;&gt;manuscript -->
<g id="edge12" class="edge">
<title>manuscript_metrics:w&#45;&gt;manuscript:e</title>
<path fill="none" stroke="black" d="M211.45,-328C180.41,-328 167.64,-328 130.5,-328"/>
<polygon fill="black" stroke="black" points="218,-328 226,-331.6 222,-328 226,-328 226,-328 226,-328 222,-328 226,-324.4 218,-328 218,-328"/>
<ellipse fill="none" stroke="black" cx="214.8" cy="-328" rx="3.2" ry="3.2"/>
</g>
<!-- manuscript_to_text_fragment -->
<g id="node13" class="node">
<title>manuscript_to_text_fragment</title>
<g id="a_node13"><a xlink:href="../../tables/manuscript_to_text_fragment.html" xlink:title="manuscript_to_text_fragment" target="_top">
<polygon fill="#ffffff" stroke="transparent" points="527.5,-117 527.5,-175 757.5,-175 757.5,-117 527.5,-117"/>
<polygon fill="#f5f5f5" stroke="transparent" points="527.5,-153 527.5,-175 757.5,-175 757.5,-153 527.5,-153"/>
<polygon fill="none" stroke="black" points="527.5,-153 527.5,-175 757.5,-175 757.5,-153 527.5,-153"/>
<text text-anchor="start" x="532.5" y="-162.2" font-family="Helvetica,sans-Serif" font-weight="bold" font-size="11.00">manuscript_to_text_fragment</text>
<text text-anchor="start" x="715.5" y="-161.2" font-family="Helvetica,sans-Serif" font-size="11.00">[table]</text>
<polygon fill="none" stroke="black" points="527.5,-135 527.5,-153 757.5,-153 757.5,-135 527.5,-135"/>
<text text-anchor="start" x="530.5" y="-141.2" font-family="Helvetica,sans-Serif" font-size="11.00">...</text>
<polygon fill="#ffffff" stroke="transparent" points="527.5,-117 527.5,-135 605.5,-135 605.5,-117 527.5,-117"/>
<polygon fill="none" stroke="black" points="527.5,-117 527.5,-135 605.5,-135 605.5,-117 527.5,-117"/>
<text text-anchor="start" x="530.5" y="-123.2" font-family="Helvetica,sans-Serif" font-size="11.00">&lt; 2</text>
<polygon fill="#ffffff" stroke="transparent" points="605.5,-117 605.5,-135 705.5,-135 705.5,-117 605.5,-117"/>
<polygon fill="none" stroke="black" points="605.5,-117 605.5,-135 705.5,-135 705.5,-117 605.5,-117"/>
<text text-anchor="start" x="634.5" y="-123.2" font-family="Helvetica,sans-Serif" font-size="11.00">11,166 rows</text>
<polygon fill="#ffffff" stroke="transparent" points="705.5,-117 705.5,-135 757.5,-135 757.5,-117 705.5,-117"/>
<polygon fill="none" stroke="black" points="705.5,-117 705.5,-135 757.5,-135 757.5,-117 705.5,-117"/>
<text text-anchor="start" x="734.5" y="-123.2" font-family="Helvetica,sans-Serif" font-size="11.00">1 &gt;</text>
</a>
</g>
</g>
<!-- manuscript_to_text_fragment&#45;&gt;manuscript -->
<g id="edge13" class="edge">
<title>manuscript_to_text_fragment:w&#45;&gt;manuscript:e</title>
<path fill="none" stroke="black" d="M512.05,-143.25C491.57,-140.99 482.23,-134.22 456,-132 392.67,-126.65 219.18,-91.74 170,-132 101.24,-188.29 219.36,-328 130.5,-328"/>
<polygon fill="black" stroke="black" points="518.51,-143.59 526.31,-147.6 522.51,-143.79 526.5,-144 526.5,-144 526.5,-144 522.51,-143.79 526.69,-140.4 518.51,-143.59 518.51,-143.59"/>
<ellipse fill="none" stroke="black" cx="515.31" cy="-143.42" rx="3.2" ry="3.2"/>
</g>
<!-- manuscript_to_text_fragment&#45;&gt;text_fragment -->
<g id="edge14" class="edge">
<title>manuscript_to_text_fragment:w&#45;&gt;text_fragment:e</title>
<path fill="none" stroke="black" d="M511.86,-144.47C459.14,-148 442.63,-170 383,-170"/>
<polygon fill="black" stroke="black" points="518.5,-144.26 526.62,-147.6 522.5,-144.13 526.5,-144 526.5,-144 526.5,-144 522.5,-144.13 526.38,-140.4 518.5,-144.26 518.5,-144.26"/>
<ellipse fill="none" stroke="black" cx="515.31" cy="-144.36" rx="3.2" ry="3.2"/>
</g>
</g>
</svg>
