<?xml version="1.0" encoding="UTF-8" standalone="no"?>
<!DOCTYPE svg PUBLIC "-//W3C//DTD SVG 1.1//EN"
 "http://www.w3.org/Graphics/SVG/1.1/DTD/svg11.dtd">
<!-- Generated by graphviz version 2.43.0 (0)
 -->
<!-- Title: oneDegreeRelationshipsDiagramImplied Pages: 1 -->
<svg width="830pt" height="278pt"
 viewBox="0.00 0.00 830.00 278.00" xmlns="http://www.w3.org/2000/svg" xmlns:xlink="http://www.w3.org/1999/xlink">
<g id="graph0" class="graph" transform="scale(1 1) rotate(0) translate(4 274)">
<title>oneDegreeRelationshipsDiagramImplied</title>
<polygon fill="#ffffff" stroke="transparent" points="-4,4 -4,-274 826,-274 826,4 -4,4"/>
<text text-anchor="middle" x="79.5" y="-7.2" font-family="Helvetica,sans-Serif" font-size="11.00">Generated by SchemaSpy</text>
<!-- iaa_edition_catalog_to_text_fragment_confirmation -->
<g id="node1" class="node">
<title>iaa_edition_catalog_to_text_fragment_confirmation</title>
<g id="a_node1"><a xlink:href="../../tables/iaa_edition_catalog_to_text_fragment_confirmation.html" xlink:title="iaa_edition_catalog_to_text_fragment_confirmation" target="_top">
<polygon fill="#ffffff" stroke="transparent" points="348,-94 348,-226 814,-226 814,-94 348,-94"/>
<polygon fill="#f5f5f5" stroke="transparent" points="350,-202 350,-224 812,-224 812,-202 350,-202"/>
<polygon fill="none" stroke="black" points="350,-202 350,-224 812,-224 812,-202 350,-202"/>
<text text-anchor="start" x="355" y="-211.2" font-family="Helvetica,sans-Serif" font-weight="bold" font-size="11.00">iaa_edition_catalog_to_text_fragment_confirmation</text>
<text text-anchor="start" x="770" y="-210.2" font-family="Helvetica,sans-Serif" font-size="11.00">[table]</text>
<polygon fill="#ffffff" stroke="transparent" points="350,-180 350,-202 715,-202 715,-180 350,-180"/>
<polygon fill="none" stroke="black" points="350,-180 350,-202 715,-202 715,-180 350,-180"/>
<image xlink:href="../../images/foreignKeys.png" width="11px" height="12px" preserveAspectRatio="xMinYMin meet" x="355" y="-197"/>
<text text-anchor="start" x="370" y="-188.2" font-family="Helvetica,sans-Serif" font-size="11.00">iaa_edition_catalog_to_text_fragment_id</text>
<polygon fill="none" stroke="black" points="715,-180 715,-202 812,-202 812,-180 715,-180"/>
<text text-anchor="start" x="718" y="-188.2" font-family="Helvetica,sans-Serif" font-size="11.00">int unsigned[10]</text>
<polygon fill="#ffffff" stroke="transparent" points="350,-158 350,-180 715,-180 715,-158 350,-158"/>
<polygon fill="none" stroke="black" points="350,-158 350,-180 715,-180 715,-158 350,-158"/>
<text text-anchor="start" x="370" y="-166.2" font-family="Helvetica,sans-Serif" font-size="11.00">confirmed</text>
<polygon fill="none" stroke="black" points="715,-158 715,-180 812,-180 812,-158 715,-158"/>
<text text-anchor="start" x="718" y="-166.2" font-family="Helvetica,sans-Serif" font-size="11.00">bit[3]</text>
<polygon fill="#ffffff" stroke="transparent" points="350,-136 350,-158 715,-158 715,-136 350,-136"/>
<polygon fill="none" stroke="black" points="350,-136 350,-158 715,-158 715,-136 350,-136"/>
<image xlink:href="../../images/foreignKeys.png" width="11px" height="12px" preserveAspectRatio="xMinYMin meet" x="355" y="-153"/>
<text text-anchor="start" x="370" y="-144.2" font-family="Helvetica,sans-Serif" font-size="11.00">user_id</text>
<polygon fill="none" stroke="black" points="715,-136 715,-158 812,-158 812,-136 715,-136"/>
<text text-anchor="start" x="718" y="-144.2" font-family="Helvetica,sans-Serif" font-size="11.00">int unsigned[10]</text>
<polygon fill="#ffffff" stroke="transparent" points="350,-114 350,-136 715,-136 715,-114 350,-114"/>
<polygon fill="none" stroke="black" points="350,-114 350,-136 715,-136 715,-114 350,-114"/>
<text text-anchor="start" x="370" y="-122.2" font-family="Helvetica,sans-Serif" font-size="11.00">time</text>
<polygon fill="none" stroke="black" points="715,-114 715,-136 812,-136 812,-114 715,-114"/>
<text text-anchor="start" x="718" y="-122.2" font-family="Helvetica,sans-Serif" font-size="11.00">datetime[19]</text>
<polygon fill="#ffffff" stroke="transparent" points="350,-96 350,-114 508,-114 508,-96 350,-96"/>
<polygon fill="none" stroke="black" points="350,-96 350,-114 508,-114 508,-96 350,-96"/>
<text text-anchor="start" x="353" y="-102.2" font-family="Helvetica,sans-Serif" font-size="11.00">&lt; 2</text>
<polygon fill="#ffffff" stroke="transparent" points="508,-96 508,-114 715,-114 715,-96 508,-96"/>
<polygon fill="none" stroke="black" points="508,-96 508,-114 715,-114 715,-96 508,-96"/>
<text text-anchor="start" x="644" y="-102.2" font-family="Helvetica,sans-Serif" font-size="11.00">15,403 rows</text>
<polygon fill="#ffffff" stroke="transparent" points="715,-96 715,-114 812,-114 812,-96 715,-96"/>
<polygon fill="none" stroke="black" points="715,-96 715,-114 812,-114 812,-96 715,-96"/>
<text text-anchor="start" x="789" y="-102.2" font-family="Helvetica,sans-Serif" font-size="11.00">0 &gt;</text>
<polygon fill="none" stroke="black" stroke-width="2" points="349,-95 349,-225 813,-225 813,-95 349,-95"/>
</a>
</g>
</g>
<!-- iaa_edition_catalog_to_text_fragment -->
<g id="node2" class="node">
<title>iaa_edition_catalog_to_text_fragment</title>
<g id="a_node2"><a xlink:href="../../tables/iaa_edition_catalog_to_text_fragment.html" xlink:title="iaa_edition_catalog_to_text_fragment" target="_top">
<polygon fill="#ffffff" stroke="transparent" points="8,-160 8,-266 299,-266 299,-160 8,-160"/>
<polygon fill="#f5f5f5" stroke="transparent" points="8.5,-244 8.5,-266 299.5,-266 299.5,-244 8.5,-244"/>
<polygon fill="none" stroke="black" points="8.5,-244 8.5,-266 299.5,-266 299.5,-244 8.5,-244"/>
<text text-anchor="start" x="13.5" y="-253.2" font-family="Helvetica,sans-Serif" font-weight="bold" font-size="11.00">iaa_edition_catalog_to_text_fragment</text>
<text text-anchor="start" x="257.5" y="-252.2" font-family="Helvetica,sans-Serif" font-size="11.00">[table]</text>
<polygon fill="none" stroke="black" points="8.5,-222 8.5,-244 299.5,-244 299.5,-222 8.5,-222"/>
<image xlink:href="../../images/primaryKeys.png" width="11px" height="12px" preserveAspectRatio="xMinYMin meet" x="13.5" y="-239"/>
<text text-anchor="start" x="28.5" y="-230.2" font-family="Helvetica,sans-Serif" font-size="11.00">iaa_edition_catalog_to_text_fragment_id</text>
<polygon fill="#ffffff" stroke="transparent" points="8.5,-200 8.5,-222 299.5,-222 299.5,-200 8.5,-200"/>
<polygon fill="none" stroke="black" points="8.5,-200 8.5,-222 299.5,-222 299.5,-200 8.5,-200"/>
<image xlink:href="../../images/foreignKeys.png" width="11px" height="12px" preserveAspectRatio="xMinYMin meet" x="13.5" y="-217"/>
<text text-anchor="start" x="28.5" y="-208.2" font-family="Helvetica,sans-Serif" font-size="11.00">iaa_edition_catalog_id</text>
<polygon fill="#ffffff" stroke="transparent" points="8.5,-178 8.5,-200 299.5,-200 299.5,-178 8.5,-178"/>
<polygon fill="none" stroke="black" points="8.5,-178 8.5,-200 299.5,-200 299.5,-178 8.5,-178"/>
<image xlink:href="../../images/foreignKeys.png" width="11px" height="12px" preserveAspectRatio="xMinYMin meet" x="13.5" y="-195"/>
<text text-anchor="start" x="28.5" y="-186.2" font-family="Helvetica,sans-Serif" font-size="11.00">text_fragment_id</text>
<polygon fill="#ffffff" stroke="transparent" points="8.5,-160 8.5,-178 116.5,-178 116.5,-160 8.5,-160"/>
<polygon fill="none" stroke="black" points="8.5,-160 8.5,-178 116.5,-178 116.5,-160 8.5,-160"/>
<text text-anchor="start" x="11.5" y="-166.2" font-family="Helvetica,sans-Serif" font-size="11.00">&lt; 2</text>
<polygon fill="#ffffff" stroke="transparent" points="116.5,-160 116.5,-178 231.5,-178 231.5,-160 116.5,-160"/>
<polygon fill="none" stroke="black" points="116.5,-160 116.5,-178 231.5,-178 231.5,-160 116.5,-160"/>
<text text-anchor="start" x="160.5" y="-166.2" font-family="Helvetica,sans-Serif" font-size="11.00">15,236 rows</text>
<polygon fill="#ffffff" stroke="transparent" points="231.5,-160 231.5,-178 299.5,-178 299.5,-160 231.5,-160"/>
<polygon fill="none" stroke="black" points="231.5,-160 231.5,-178 299.5,-178 299.5,-160 231.5,-160"/>
<text text-anchor="start" x="276.5" y="-166.2" font-family="Helvetica,sans-Serif" font-size="11.00">1 &gt;</text>
</a>
</g>
</g>
<!-- iaa_edition_catalog_to_text_fragment_confirmation&#45;&gt;iaa_edition_catalog_to_text_fragment -->
<g id="edge1" class="edge">
<title>iaa_edition_catalog_to_text_fragment_confirmation:w&#45;&gt;iaa_edition_catalog_to_text_fragment:e</title>
<path fill="none" stroke="black" d="M335.2,-195.82C322.44,-206.85 323,-233 300.5,-233"/>
<polygon fill="black" stroke="black" points="341.45,-193.64 350.19,-194.4 345.22,-192.32 349,-191 349,-191 349,-191 345.22,-192.32 347.81,-187.6 341.45,-193.64 341.45,-193.64"/>
<ellipse fill="none" stroke="black" cx="338.43" cy="-194.69" rx="3.2" ry="3.2"/>
</g>
<!-- user -->
<g id="node3" class="node">
<title>user</title>
<g id="a_node3"><a xlink:href="../../tables/user.html" xlink:title="user" target="_top">
<polygon fill="#ffffff" stroke="transparent" points="72,-37 72,-139 235,-139 235,-37 72,-37"/>
<polygon fill="#f5f5f5" stroke="transparent" points="72.5,-117 72.5,-139 235.5,-139 235.5,-117 72.5,-117"/>
<polygon fill="none" stroke="black" points="72.5,-117 72.5,-139 235.5,-139 235.5,-117 72.5,-117"/>
<text text-anchor="start" x="77.5" y="-126.2" font-family="Helvetica,sans-Serif" font-weight="bold" font-size="11.00">user</text>
<text text-anchor="start" x="193.5" y="-125.2" font-family="Helvetica,sans-Serif" font-size="11.00">[table]</text>
<polygon fill="none" stroke="black" points="72.5,-95 72.5,-117 235.5,-117 235.5,-95 72.5,-95"/>
<image xlink:href="../../images/primaryKeys.png" width="11px" height="12px" preserveAspectRatio="xMinYMin meet" x="77.5" y="-112"/>
<text text-anchor="start" x="92.5" y="-103.2" font-family="Helvetica,sans-Serif" font-size="11.00">user_id</text>
<polygon fill="#ffffff" stroke="transparent" points="72.5,-73 72.5,-95 235.5,-95 235.5,-73 72.5,-73"/>
<polygon fill="none" stroke="black" points="72.5,-73 72.5,-95 235.5,-95 235.5,-73 72.5,-73"/>
<text text-anchor="start" x="92.5" y="-81.2" font-family="Helvetica,sans-Serif" font-size="11.00">email</text>
<polygon fill="none" stroke="black" points="72.5,-55 72.5,-73 235.5,-73 235.5,-55 72.5,-55"/>
<text text-anchor="start" x="75.5" y="-61.2" font-family="Helvetica,sans-Serif" font-size="11.00">...</text>
<polygon fill="#ffffff" stroke="transparent" points="72.5,-37 72.5,-55 122.5,-55 122.5,-37 72.5,-37"/>
<polygon fill="none" stroke="black" points="72.5,-37 72.5,-55 122.5,-55 122.5,-37 72.5,-37"/>
<text text-anchor="start" x="75.5" y="-43.2" font-family="Helvetica,sans-Serif" font-size="11.00"> &#160;</text>
<polygon fill="#ffffff" stroke="transparent" points="122.5,-37 122.5,-55 183.5,-55 183.5,-37 122.5,-37"/>
<polygon fill="none" stroke="black" points="122.5,-37 122.5,-55 183.5,-55 183.5,-37 122.5,-37"/>
<text text-anchor="start" x="143.5" y="-43.2" font-family="Helvetica,sans-Serif" font-size="11.00">0 rows</text>
<polygon fill="#ffffff" stroke="transparent" points="183.5,-37 183.5,-55 235.5,-55 235.5,-37 183.5,-37"/>
<polygon fill="none" stroke="black" points="183.5,-37 183.5,-55 235.5,-55 235.5,-37 183.5,-37"/>
<text text-anchor="start" x="205.5" y="-43.2" font-family="Helvetica,sans-Serif" font-size="11.00">10 &gt;</text>
</a>
</g>
</g>
<!-- iaa_edition_catalog_to_text_fragment_confirmation&#45;&gt;user -->
<g id="edge2" class="edge">
<title>iaa_edition_catalog_to_text_fragment_confirmation:w&#45;&gt;user:e</title>
<path fill="none" stroke="black" d="M334.41,-145.86C294.11,-139.24 284.42,-106 236.5,-106"/>
<polygon fill="black" stroke="black" points="341.02,-146.38 348.72,-150.59 345.01,-146.69 349,-147 349,-147 349,-147 345.01,-146.69 349.28,-143.41 341.02,-146.38 341.02,-146.38"/>
<ellipse fill="none" stroke="black" cx="337.83" cy="-146.13" rx="3.2" ry="3.2"/>
</g>
</g>
</svg>
