<?xml version="1.0" encoding="UTF-8" standalone="no"?>
<!DOCTYPE svg PUBLIC "-//W3C//DTD SVG 1.1//EN"
 "http://www.w3.org/Graphics/SVG/1.1/DTD/svg11.dtd">
<!-- Generated by graphviz version 2.40.1 (20161225.0304)
 -->
<!-- Title: twoDegreesRelationshipsDiagram Pages: 1 -->
<svg width="1147pt" height="738pt"
 viewBox="0.00 0.00 1147.00 738.00" xmlns="http://www.w3.org/2000/svg" xmlns:xlink="http://www.w3.org/1999/xlink">
<g id="graph0" class="graph" transform="scale(1 1) rotate(0) translate(4 734)">
<title>twoDegreesRelationshipsDiagram</title>
<polygon fill="#ffffff" stroke="transparent" points="-4,4 -4,-734 1143,-734 1143,4 -4,4"/>
<text text-anchor="middle" x="71.5" y="-7.2" font-family="Helvetica,sans-Serif" font-size="11.00" fill="#000000">Generated by SchemaSpy</text>
<!-- edition -->
<g id="node1" class="node">
<title>edition</title>
<g id="a_node1"><a xlink:href="../../tables/edition.html" xlink:title="edition" target="_top">
<polygon fill="#ffffff" stroke="transparent" points="245.5,-589 245.5,-647 355.5,-647 355.5,-589 245.5,-589"/>
<polygon fill="#f5f5f5" stroke="transparent" points="245.5,-625 245.5,-647 355.5,-647 355.5,-625 245.5,-625"/>
<polygon fill="none" stroke="#000000" points="245.5,-625 245.5,-647 355.5,-647 355.5,-625 245.5,-625"/>
<text text-anchor="start" x="250.5" y="-634.2" font-family="Helvetica,sans-Serif" font-weight="bold" font-size="11.00" fill="#000000">edition</text>
<text text-anchor="start" x="320.5" y="-633.2" font-family="Helvetica,sans-Serif" font-size="11.00" fill="#000000">[table]</text>
<polygon fill="none" stroke="#000000" points="245.5,-607 245.5,-625 355.5,-625 355.5,-607 245.5,-607"/>
<text text-anchor="start" x="248.5" y="-613.2" font-family="Helvetica,sans-Serif" font-size="11.00" fill="#000000">...</text>
<polygon fill="#ffffff" stroke="transparent" points="245.5,-589 245.5,-607 267.5,-607 267.5,-589 245.5,-589"/>
<polygon fill="none" stroke="#000000" points="245.5,-589 245.5,-607 267.5,-607 267.5,-589 245.5,-589"/>
<text text-anchor="start" x="248.5" y="-595.2" font-family="Helvetica,sans-Serif" font-size="11.00" fill="#000000">&lt; 1</text>
<polygon fill="#ffffff" stroke="transparent" points="267.5,-589 267.5,-607 327.5,-607 327.5,-589 267.5,-589"/>
<polygon fill="none" stroke="#000000" points="267.5,-589 267.5,-607 327.5,-607 327.5,-589 267.5,-589"/>
<text text-anchor="start" x="270.5" y="-595.2" font-family="Helvetica,sans-Serif" font-size="11.00" fill="#000000">1,645 rows</text>
<polygon fill="#ffffff" stroke="transparent" points="327.5,-589 327.5,-607 355.5,-607 355.5,-589 327.5,-589"/>
<polygon fill="none" stroke="#000000" points="327.5,-589 327.5,-607 355.5,-607 355.5,-589 327.5,-589"/>
<text text-anchor="start" x="330.5" y="-595.2" font-family="Helvetica,sans-Serif" font-size="11.00" fill="#000000">32 &gt;</text>
</a>
</g>
</g>
<!-- manuscript -->
<g id="node2" class="node">
<title>manuscript</title>
<g id="a_node2"><a xlink:href="../../tables/manuscript.html" xlink:title="manuscript" target="_top">
<polygon fill="#ffffff" stroke="transparent" points="8,-194 8,-256 124,-256 124,-194 8,-194"/>
<polygon fill="#f5f5f5" stroke="transparent" points="8,-234 8,-256 124,-256 124,-234 8,-234"/>
<polygon fill="none" stroke="#000000" points="8,-234 8,-256 124,-256 124,-234 8,-234"/>
<text text-anchor="start" x="13" y="-243.2" font-family="Helvetica,sans-Serif" font-weight="bold" font-size="11.00" fill="#000000">manuscript</text>
<text text-anchor="start" x="89" y="-242.2" font-family="Helvetica,sans-Serif" font-size="11.00" fill="#000000">[table]</text>
<polygon fill="none" stroke="#000000" points="8,-212 8,-234 124,-234 124,-212 8,-212"/>
<image xlink:href="../../images/primaryKeys.png" width="11px" height="12px" preserveAspectRatio="xMinYMin meet" x="13" y="-229"/>
<text text-anchor="start" x="28" y="-220.2" font-family="Helvetica,sans-Serif" font-size="11.00" fill="#000000">manuscript_id</text>
<polygon fill="#ffffff" stroke="transparent" points="8,-194 8,-212 31,-212 31,-194 8,-194"/>
<polygon fill="none" stroke="#000000" points="8,-194 8,-212 31,-212 31,-194 8,-194"/>
<text text-anchor="start" x="11" y="-200.2" font-family="Helvetica,sans-Serif" font-size="11.00" fill="#000000"> &#160;</text>
<polygon fill="#ffffff" stroke="transparent" points="31,-194 31,-212 96,-212 96,-194 31,-194"/>
<polygon fill="none" stroke="#000000" points="31,-194 31,-212 96,-212 96,-194 31,-194"/>
<text text-anchor="start" x="39" y="-200.2" font-family="Helvetica,sans-Serif" font-size="11.00" fill="#000000">1,645 rows</text>
<polygon fill="#ffffff" stroke="transparent" points="96,-194 96,-212 124,-212 124,-194 96,-194"/>
<polygon fill="none" stroke="#000000" points="96,-194 96,-212 124,-212 124,-194 96,-194"/>
<text text-anchor="start" x="105" y="-200.2" font-family="Helvetica,sans-Serif" font-size="11.00" fill="#000000">5 &gt;</text>
</a>
</g>
</g>
<!-- edition&#45;&gt;manuscript -->
<g id="edge1" class="edge">
<title>edition:w&#45;&gt;manuscript:e</title>
<path fill="none" stroke="#000000" d="M230.8797,-615.6783C201.2497,-614.1678 185.043,-606.6451 165,-579 118.257,-514.5277 203.634,-223 124,-223"/>
<polygon fill="#000000" stroke="#000000" points="237.5019,-615.824 245.4208,-619.5991 241.501,-615.912 245.5,-616 245.5,-616 245.5,-616 241.501,-615.912 245.5792,-612.4009 237.5019,-615.824 237.5019,-615.824"/>
<ellipse fill="none" stroke="#000000" cx="234.3027" cy="-615.7536" rx="3.2" ry="3.2"/>
</g>
<!-- iaa_edition_catalog -->
<g id="node3" class="node">
<title>iaa_edition_catalog</title>
<g id="a_node3"><a xlink:href="../../tables/iaa_edition_catalog.html" xlink:title="iaa_edition_catalog" target="_top">
<polygon fill="#ffffff" stroke="transparent" points="173,-326 173,-568 428,-568 428,-326 173,-326"/>
<polygon fill="#f5f5f5" stroke="transparent" points="175.5,-544 175.5,-566 426.5,-566 426.5,-544 175.5,-544"/>
<polygon fill="none" stroke="#000000" points="175.5,-544 175.5,-566 426.5,-566 426.5,-544 175.5,-544"/>
<text text-anchor="start" x="180.5" y="-553.2" font-family="Helvetica,sans-Serif" font-weight="bold" font-size="11.00" fill="#000000">iaa_edition_catalog</text>
<text text-anchor="start" x="391.5" y="-552.2" font-family="Helvetica,sans-Serif" font-size="11.00" fill="#000000">[table]</text>
<polygon fill="none" stroke="#000000" points="175.5,-522 175.5,-544 344.5,-544 344.5,-522 175.5,-522"/>
<image xlink:href="../../images/primaryKeys.png" width="11px" height="12px" preserveAspectRatio="xMinYMin meet" x="180.5" y="-539"/>
<text text-anchor="start" x="195.5" y="-530.2" font-family="Helvetica,sans-Serif" font-size="11.00" fill="#000000">iaa_edition_catalog_id</text>
<polygon fill="none" stroke="#000000" points="344.5,-522 344.5,-544 426.5,-544 426.5,-522 344.5,-522"/>
<text text-anchor="start" x="347.5" y="-530.2" font-family="Helvetica,sans-Serif" font-size="11.00" fill="#000000">int unsigned[10]</text>
<polygon fill="#ffffff" stroke="transparent" points="175.5,-500 175.5,-522 344.5,-522 344.5,-500 175.5,-500"/>
<polygon fill="none" stroke="#000000" points="175.5,-500 175.5,-522 344.5,-522 344.5,-500 175.5,-500"/>
<text text-anchor="start" x="195.5" y="-508.2" font-family="Helvetica,sans-Serif" font-size="11.00" fill="#000000">manuscript</text>
<polygon fill="none" stroke="#000000" points="344.5,-500 344.5,-522 426.5,-522 426.5,-500 344.5,-500"/>
<text text-anchor="start" x="347.5" y="-508.2" font-family="Helvetica,sans-Serif" font-size="11.00" fill="#000000">varchar[255]</text>
<polygon fill="#ffffff" stroke="transparent" points="175.5,-478 175.5,-500 344.5,-500 344.5,-478 175.5,-478"/>
<polygon fill="none" stroke="#000000" points="175.5,-478 175.5,-500 344.5,-500 344.5,-478 175.5,-478"/>
<text text-anchor="start" x="195.5" y="-486.2" font-family="Helvetica,sans-Serif" font-size="11.00" fill="#000000">edition_name</text>
<polygon fill="none" stroke="#000000" points="344.5,-478 344.5,-500 426.5,-500 426.5,-478 344.5,-478"/>
<text text-anchor="start" x="347.5" y="-486.2" font-family="Helvetica,sans-Serif" font-size="11.00" fill="#000000">varchar[255]</text>
<polygon fill="#ffffff" stroke="transparent" points="175.5,-456 175.5,-478 344.5,-478 344.5,-456 175.5,-456"/>
<polygon fill="none" stroke="#000000" points="175.5,-456 175.5,-478 344.5,-478 344.5,-456 175.5,-456"/>
<text text-anchor="start" x="195.5" y="-464.2" font-family="Helvetica,sans-Serif" font-size="11.00" fill="#000000">edition_volume</text>
<polygon fill="none" stroke="#000000" points="344.5,-456 344.5,-478 426.5,-478 426.5,-456 344.5,-456"/>
<text text-anchor="start" x="347.5" y="-464.2" font-family="Helvetica,sans-Serif" font-size="11.00" fill="#000000">varchar[128]</text>
<polygon fill="#ffffff" stroke="transparent" points="175.5,-434 175.5,-456 344.5,-456 344.5,-434 175.5,-434"/>
<polygon fill="none" stroke="#000000" points="175.5,-434 175.5,-456 344.5,-456 344.5,-434 175.5,-434"/>
<text text-anchor="start" x="195.5" y="-442.2" font-family="Helvetica,sans-Serif" font-size="11.00" fill="#000000">edition_location_1</text>
<polygon fill="none" stroke="#000000" points="344.5,-434 344.5,-456 426.5,-456 426.5,-434 344.5,-434"/>
<text text-anchor="start" x="347.5" y="-442.2" font-family="Helvetica,sans-Serif" font-size="11.00" fill="#000000">varchar[64]</text>
<polygon fill="#ffffff" stroke="transparent" points="175.5,-412 175.5,-434 344.5,-434 344.5,-412 175.5,-412"/>
<polygon fill="none" stroke="#000000" points="175.5,-412 175.5,-434 344.5,-434 344.5,-412 175.5,-412"/>
<text text-anchor="start" x="195.5" y="-420.2" font-family="Helvetica,sans-Serif" font-size="11.00" fill="#000000">edition_location_2</text>
<polygon fill="none" stroke="#000000" points="344.5,-412 344.5,-434 426.5,-434 426.5,-412 344.5,-412"/>
<text text-anchor="start" x="347.5" y="-420.2" font-family="Helvetica,sans-Serif" font-size="11.00" fill="#000000">varchar[64]</text>
<polygon fill="#ffffff" stroke="transparent" points="175.5,-390 175.5,-412 344.5,-412 344.5,-390 175.5,-390"/>
<polygon fill="none" stroke="#000000" points="175.5,-390 175.5,-412 344.5,-412 344.5,-390 175.5,-390"/>
<text text-anchor="start" x="195.5" y="-398.2" font-family="Helvetica,sans-Serif" font-size="11.00" fill="#000000">edition_side</text>
<polygon fill="none" stroke="#000000" points="344.5,-390 344.5,-412 426.5,-412 426.5,-390 344.5,-390"/>
<text text-anchor="start" x="347.5" y="-398.2" font-family="Helvetica,sans-Serif" font-size="11.00" fill="#000000">bit[3]</text>
<polygon fill="#ffffff" stroke="transparent" points="175.5,-368 175.5,-390 344.5,-390 344.5,-368 175.5,-368"/>
<polygon fill="none" stroke="#000000" points="175.5,-368 175.5,-390 344.5,-390 344.5,-368 175.5,-368"/>
<image xlink:href="../../images/foreignKeys.png" width="11px" height="12px" preserveAspectRatio="xMinYMin meet" x="180.5" y="-385"/>
<text text-anchor="start" x="195.5" y="-376.2" font-family="Helvetica,sans-Serif" font-size="11.00" fill="#000000">manuscript_id</text>
<polygon fill="none" stroke="#000000" points="344.5,-368 344.5,-390 426.5,-390 426.5,-368 344.5,-368"/>
<text text-anchor="start" x="347.5" y="-376.2" font-family="Helvetica,sans-Serif" font-size="11.00" fill="#000000">int unsigned[10]</text>
<polygon fill="none" stroke="#000000" points="175.5,-346 175.5,-368 344.5,-368 344.5,-346 175.5,-346"/>
<text text-anchor="start" x="195.5" y="-354.2" font-family="Helvetica,sans-Serif" font-size="11.00" fill="#000000">comment</text>
<polygon fill="none" stroke="#000000" points="344.5,-346 344.5,-368 426.5,-368 426.5,-346 344.5,-346"/>
<text text-anchor="start" x="347.5" y="-354.2" font-family="Helvetica,sans-Serif" font-size="11.00" fill="#000000">varchar[255]</text>
<polygon fill="#ffffff" stroke="transparent" points="175.5,-328 175.5,-346 237.5,-346 237.5,-328 175.5,-328"/>
<polygon fill="none" stroke="#000000" points="175.5,-328 175.5,-346 237.5,-346 237.5,-328 175.5,-328"/>
<text text-anchor="start" x="178.5" y="-334.2" font-family="Helvetica,sans-Serif" font-size="11.00" fill="#000000">&lt; 1</text>
<polygon fill="#ffffff" stroke="transparent" points="237.5,-328 237.5,-346 344.5,-346 344.5,-328 237.5,-328"/>
<polygon fill="none" stroke="#000000" points="237.5,-328 237.5,-346 344.5,-346 344.5,-328 237.5,-328"/>
<text text-anchor="start" x="281.5" y="-334.2" font-family="Helvetica,sans-Serif" font-size="11.00" fill="#000000">37,640 rows</text>
<polygon fill="#ffffff" stroke="transparent" points="344.5,-328 344.5,-346 426.5,-346 426.5,-328 344.5,-328"/>
<polygon fill="none" stroke="#000000" points="344.5,-328 344.5,-346 426.5,-346 426.5,-328 344.5,-328"/>
<text text-anchor="start" x="407.5" y="-334.2" font-family="Helvetica,sans-Serif" font-size="11.00" fill="#000000">3 &gt;</text>
<polygon fill="none" stroke="#000000" stroke-width="2" points="174,-327 174,-567 427,-567 427,-327 174,-327"/>
</a>
</g>
</g>
<!-- iaa_edition_catalog&#45;&gt;manuscript -->
<g id="edge2" class="edge">
<title>iaa_edition_catalog:w&#45;&gt;manuscript:e</title>
<path fill="none" stroke="#000000" d="M161.2954,-376.2923C116.2336,-355.5771 191.3096,-223 124,-223"/>
<polygon fill="#000000" stroke="#000000" points="167.6415,-377.502 174.8259,-382.5363 171.5707,-378.251 175.5,-379 175.5,-379 175.5,-379 171.5707,-378.251 176.1741,-375.4637 167.6415,-377.502 167.6415,-377.502"/>
<ellipse fill="none" stroke="#000000" cx="164.4981" cy="-376.9028" rx="3.2" ry="3.2"/>
</g>
<!-- iaa_edition_catalog_author -->
<g id="node4" class="node">
<title>iaa_edition_catalog_author</title>
<g id="a_node4"><a xlink:href="../../tables/iaa_edition_catalog_author.html" xlink:title="iaa_edition_catalog_author" target="_top">
<polygon fill="#ffffff" stroke="transparent" points="522,-301 522,-385 723,-385 723,-301 522,-301"/>
<polygon fill="#f5f5f5" stroke="transparent" points="522.5,-363 522.5,-385 723.5,-385 723.5,-363 522.5,-363"/>
<polygon fill="none" stroke="#000000" points="522.5,-363 522.5,-385 723.5,-385 723.5,-363 522.5,-363"/>
<text text-anchor="start" x="527.5" y="-372.2" font-family="Helvetica,sans-Serif" font-weight="bold" font-size="11.00" fill="#000000">iaa_edition_catalog_author</text>
<text text-anchor="start" x="688.5" y="-371.2" font-family="Helvetica,sans-Serif" font-size="11.00" fill="#000000">[table]</text>
<polygon fill="none" stroke="#000000" points="522.5,-341 522.5,-363 723.5,-363 723.5,-341 522.5,-341"/>
<image xlink:href="../../images/primaryKeys.png" width="11px" height="12px" preserveAspectRatio="xMinYMin meet" x="527.5" y="-358"/>
<text text-anchor="start" x="542.5" y="-349.2" font-family="Helvetica,sans-Serif" font-size="11.00" fill="#000000">iaa_edition_catalog_id</text>
<polygon fill="#ffffff" stroke="transparent" points="522.5,-319 522.5,-341 723.5,-341 723.5,-319 522.5,-319"/>
<polygon fill="none" stroke="#000000" points="522.5,-319 522.5,-341 723.5,-341 723.5,-319 522.5,-319"/>
<image xlink:href="../../images/foreignKeys.png" width="11px" height="12px" preserveAspectRatio="xMinYMin meet" x="527.5" y="-336"/>
<text text-anchor="start" x="542.5" y="-327.2" font-family="Helvetica,sans-Serif" font-size="11.00" fill="#000000">user_id</text>
<polygon fill="#ffffff" stroke="transparent" points="522.5,-301 522.5,-319 594.5,-319 594.5,-301 522.5,-301"/>
<polygon fill="none" stroke="#000000" points="522.5,-301 522.5,-319 594.5,-319 594.5,-301 522.5,-301"/>
<text text-anchor="start" x="525.5" y="-307.2" font-family="Helvetica,sans-Serif" font-size="11.00" fill="#000000">&lt; 2</text>
<polygon fill="#ffffff" stroke="transparent" points="594.5,-301 594.5,-319 685.5,-319 685.5,-301 594.5,-301"/>
<polygon fill="none" stroke="#000000" points="594.5,-301 594.5,-319 685.5,-319 685.5,-301 594.5,-301"/>
<text text-anchor="start" x="622.5" y="-307.2" font-family="Helvetica,sans-Serif" font-size="11.00" fill="#000000">38,546 rows</text>
<polygon fill="#ffffff" stroke="transparent" points="685.5,-301 685.5,-319 723.5,-319 723.5,-301 685.5,-301"/>
<polygon fill="none" stroke="#000000" points="685.5,-301 685.5,-319 723.5,-319 723.5,-301 685.5,-301"/>
<text text-anchor="start" x="713.5" y="-307.2" font-family="Helvetica,sans-Serif" font-size="11.00" fill="#000000"> &#160;</text>
</a>
</g>
</g>
<!-- iaa_edition_catalog_author&#45;&gt;iaa_edition_catalog -->
<g id="edge3" class="edge">
<title>iaa_edition_catalog_author:w&#45;&gt;iaa_edition_catalog:e</title>
<path fill="none" stroke="#000000" d="M512.0664,-352.8425C490.1462,-356.7228 484.0246,-373.641 469,-396 433.443,-448.9145 490.2514,-533 426.5,-533"/>
<polygon fill="#000000" stroke="#000000" points="521.3806,-348.0774 522.0246,-356.0514 520.4298,-356.1802 519.7858,-348.2062 521.3806,-348.0774"/>
<polyline fill="none" stroke="#000000" points="522.5,-352 518.513,-352.322 "/>
<ellipse fill="none" stroke="#000000" cx="515.3234" cy="-352.5796" rx="3.2" ry="3.2"/>
</g>
<!-- user -->
<g id="node5" class="node">
<title>user</title>
<g id="a_node5"><a xlink:href="../../tables/user.html" xlink:title="user" target="_top">
<polygon fill="#ffffff" stroke="transparent" points="260.5,-141 260.5,-199 340.5,-199 340.5,-141 260.5,-141"/>
<polygon fill="#f5f5f5" stroke="transparent" points="260.5,-177 260.5,-199 340.5,-199 340.5,-177 260.5,-177"/>
<polygon fill="none" stroke="#000000" points="260.5,-177 260.5,-199 340.5,-199 340.5,-177 260.5,-177"/>
<text text-anchor="start" x="265.5" y="-186.2" font-family="Helvetica,sans-Serif" font-weight="bold" font-size="11.00" fill="#000000">user</text>
<text text-anchor="start" x="305.5" y="-185.2" font-family="Helvetica,sans-Serif" font-size="11.00" fill="#000000">[table]</text>
<polygon fill="none" stroke="#000000" points="260.5,-159 260.5,-177 340.5,-177 340.5,-159 260.5,-159"/>
<text text-anchor="start" x="263.5" y="-165.2" font-family="Helvetica,sans-Serif" font-size="11.00" fill="#000000">...</text>
<polygon fill="#ffffff" stroke="transparent" points="260.5,-141 260.5,-159 273.5,-159 273.5,-141 260.5,-141"/>
<polygon fill="none" stroke="#000000" points="260.5,-141 260.5,-159 273.5,-159 273.5,-141 260.5,-141"/>
<text text-anchor="start" x="263.5" y="-147.2" font-family="Helvetica,sans-Serif" font-size="11.00" fill="#000000"> &#160;</text>
<polygon fill="#ffffff" stroke="transparent" points="273.5,-141 273.5,-159 312.5,-159 312.5,-141 273.5,-141"/>
<polygon fill="none" stroke="#000000" points="273.5,-141 273.5,-159 312.5,-159 312.5,-141 273.5,-141"/>
<text text-anchor="start" x="276.5" y="-147.2" font-family="Helvetica,sans-Serif" font-size="11.00" fill="#000000">3 rows</text>
<polygon fill="#ffffff" stroke="transparent" points="312.5,-141 312.5,-159 340.5,-159 340.5,-141 312.5,-141"/>
<polygon fill="none" stroke="#000000" points="312.5,-141 312.5,-159 340.5,-159 340.5,-141 312.5,-141"/>
<text text-anchor="start" x="315.5" y="-147.2" font-family="Helvetica,sans-Serif" font-size="11.00" fill="#000000">40 &gt;</text>
</a>
</g>
</g>
<!-- iaa_edition_catalog_author&#45;&gt;user -->
<g id="edge4" class="edge">
<title>iaa_edition_catalog_author:w&#45;&gt;user:e</title>
<path fill="none" stroke="#000000" d="M507.8471,-328.1103C490.8579,-323.0541 485.0481,-308.4098 469,-291 449.9367,-270.3191 455.107,-257.6406 436,-237 400.4282,-198.5732 392.8639,-168 340.5,-168"/>
<polygon fill="#000000" stroke="#000000" points="514.5657,-328.9767 522.0395,-333.5704 518.5329,-329.4884 522.5,-330 522.5,-330 522.5,-330 518.5329,-329.4884 522.9605,-326.4296 514.5657,-328.9767 514.5657,-328.9767"/>
<ellipse fill="none" stroke="#000000" cx="511.392" cy="-328.5674" rx="3.2" ry="3.2"/>
</g>
<!-- iaa_edition_catalog_to_text_fragment -->
<g id="node6" class="node">
<title>iaa_edition_catalog_to_text_fragment</title>
<g id="a_node6"><a xlink:href="../../tables/iaa_edition_catalog_to_text_fragment.html" xlink:title="iaa_edition_catalog_to_text_fragment" target="_top">
<polygon fill="#ffffff" stroke="transparent" points="477,-406 477,-512 768,-512 768,-406 477,-406"/>
<polygon fill="#f5f5f5" stroke="transparent" points="477.5,-490 477.5,-512 768.5,-512 768.5,-490 477.5,-490"/>
<polygon fill="none" stroke="#000000" points="477.5,-490 477.5,-512 768.5,-512 768.5,-490 477.5,-490"/>
<text text-anchor="start" x="482.5" y="-499.2" font-family="Helvetica,sans-Serif" font-weight="bold" font-size="11.00" fill="#000000">iaa_edition_catalog_to_text_fragment</text>
<text text-anchor="start" x="733.5" y="-498.2" font-family="Helvetica,sans-Serif" font-size="11.00" fill="#000000">[table]</text>
<polygon fill="none" stroke="#000000" points="477.5,-468 477.5,-490 768.5,-490 768.5,-468 477.5,-468"/>
<image xlink:href="../../images/primaryKeys.png" width="11px" height="12px" preserveAspectRatio="xMinYMin meet" x="482.5" y="-485"/>
<text text-anchor="start" x="497.5" y="-476.2" font-family="Helvetica,sans-Serif" font-size="11.00" fill="#000000">iaa_edition_catalog_to_text_fragment_id</text>
<polygon fill="#ffffff" stroke="transparent" points="477.5,-446 477.5,-468 768.5,-468 768.5,-446 477.5,-446"/>
<polygon fill="none" stroke="#000000" points="477.5,-446 477.5,-468 768.5,-468 768.5,-446 477.5,-446"/>
<image xlink:href="../../images/foreignKeys.png" width="11px" height="12px" preserveAspectRatio="xMinYMin meet" x="482.5" y="-463"/>
<text text-anchor="start" x="497.5" y="-454.2" font-family="Helvetica,sans-Serif" font-size="11.00" fill="#000000">iaa_edition_catalog_id</text>
<polygon fill="#ffffff" stroke="transparent" points="477.5,-424 477.5,-446 768.5,-446 768.5,-424 477.5,-424"/>
<polygon fill="none" stroke="#000000" points="477.5,-424 477.5,-446 768.5,-446 768.5,-424 477.5,-424"/>
<image xlink:href="../../images/foreignKeys.png" width="11px" height="12px" preserveAspectRatio="xMinYMin meet" x="482.5" y="-441"/>
<text text-anchor="start" x="497.5" y="-432.2" font-family="Helvetica,sans-Serif" font-size="11.00" fill="#000000">text_fragment_id</text>
<polygon fill="#ffffff" stroke="transparent" points="477.5,-406 477.5,-424 589.5,-424 589.5,-406 477.5,-406"/>
<polygon fill="none" stroke="#000000" points="477.5,-406 477.5,-424 589.5,-424 589.5,-406 477.5,-406"/>
<text text-anchor="start" x="480.5" y="-412.2" font-family="Helvetica,sans-Serif" font-size="11.00" fill="#000000">&lt; 2</text>
<polygon fill="#ffffff" stroke="transparent" points="589.5,-406 589.5,-424 700.5,-424 700.5,-406 589.5,-406"/>
<polygon fill="none" stroke="#000000" points="589.5,-406 589.5,-424 700.5,-424 700.5,-406 589.5,-406"/>
<text text-anchor="start" x="637.5" y="-412.2" font-family="Helvetica,sans-Serif" font-size="11.00" fill="#000000">15,236 rows</text>
<polygon fill="#ffffff" stroke="transparent" points="700.5,-406 700.5,-424 768.5,-424 768.5,-406 700.5,-406"/>
<polygon fill="none" stroke="#000000" points="700.5,-406 700.5,-424 768.5,-424 768.5,-406 700.5,-406"/>
<text text-anchor="start" x="749.5" y="-412.2" font-family="Helvetica,sans-Serif" font-size="11.00" fill="#000000">1 &gt;</text>
</a>
</g>
</g>
<!-- iaa_edition_catalog_to_text_fragment&#45;&gt;iaa_edition_catalog -->
<g id="edge5" class="edge">
<title>iaa_edition_catalog_to_text_fragment:w&#45;&gt;iaa_edition_catalog:e</title>
<path fill="none" stroke="#000000" d="M463.6163,-461.5265C444.2687,-477.8879 461.14,-533 426.5,-533"/>
<polygon fill="#000000" stroke="#000000" points="469.894,-459.4798 478.6159,-460.4227 473.697,-458.2399 477.5,-457 477.5,-457 477.5,-457 473.697,-458.2399 476.3841,-453.5773 469.894,-459.4798 469.894,-459.4798"/>
<ellipse fill="none" stroke="#000000" cx="466.8517" cy="-460.4718" rx="3.2" ry="3.2"/>
</g>
<!-- text_fragment -->
<g id="node7" class="node">
<title>text_fragment</title>
<g id="a_node7"><a xlink:href="../../tables/text_fragment.html" xlink:title="text_fragment" target="_top">
<polygon fill="#ffffff" stroke="transparent" points="242,-247 242,-305 359,-305 359,-247 242,-247"/>
<polygon fill="#f5f5f5" stroke="transparent" points="242.5,-283 242.5,-305 359.5,-305 359.5,-283 242.5,-283"/>
<polygon fill="none" stroke="#000000" points="242.5,-283 242.5,-305 359.5,-305 359.5,-283 242.5,-283"/>
<text text-anchor="start" x="247.5" y="-292.2" font-family="Helvetica,sans-Serif" font-weight="bold" font-size="11.00" fill="#000000">text_fragment</text>
<text text-anchor="start" x="324.5" y="-291.2" font-family="Helvetica,sans-Serif" font-size="11.00" fill="#000000">[table]</text>
<polygon fill="none" stroke="#000000" points="242.5,-265 242.5,-283 359.5,-283 359.5,-265 242.5,-265"/>
<text text-anchor="start" x="245.5" y="-271.2" font-family="Helvetica,sans-Serif" font-size="11.00" fill="#000000">...</text>
<polygon fill="#ffffff" stroke="transparent" points="242.5,-247 242.5,-265 263.5,-265 263.5,-247 242.5,-247"/>
<polygon fill="none" stroke="#000000" points="242.5,-247 242.5,-265 263.5,-265 263.5,-247 242.5,-247"/>
<text text-anchor="start" x="245.5" y="-253.2" font-family="Helvetica,sans-Serif" font-size="11.00" fill="#000000"> &#160;</text>
<polygon fill="#ffffff" stroke="transparent" points="263.5,-247 263.5,-265 333.5,-265 333.5,-247 263.5,-247"/>
<polygon fill="none" stroke="#000000" points="263.5,-247 263.5,-265 333.5,-265 333.5,-247 263.5,-247"/>
<text text-anchor="start" x="270.5" y="-253.2" font-family="Helvetica,sans-Serif" font-size="11.00" fill="#000000">11,176 rows</text>
<polygon fill="#ffffff" stroke="transparent" points="333.5,-247 333.5,-265 359.5,-265 359.5,-247 333.5,-247"/>
<polygon fill="none" stroke="#000000" points="333.5,-247 333.5,-265 359.5,-265 359.5,-247 333.5,-247"/>
<text text-anchor="start" x="340.5" y="-253.2" font-family="Helvetica,sans-Serif" font-size="11.00" fill="#000000">6 &gt;</text>
</a>
</g>
</g>
<!-- iaa_edition_catalog_to_text_fragment&#45;&gt;text_fragment -->
<g id="edge6" class="edge">
<title>iaa_edition_catalog_to_text_fragment:w&#45;&gt;text_fragment:e</title>
<path fill="none" stroke="#000000" d="M463.1108,-432.5846C431.213,-419.2913 468.3602,-354.2538 436,-316 410.9495,-286.3872 398.2872,-274 359.5,-274"/>
<polygon fill="#000000" stroke="#000000" points="469.6104,-433.6756 476.904,-438.5503 473.5552,-434.3378 477.5,-435 477.5,-435 477.5,-435 473.5552,-434.3378 478.096,-431.4497 469.6104,-433.6756 469.6104,-433.6756"/>
<ellipse fill="none" stroke="#000000" cx="466.4545" cy="-433.1458" rx="3.2" ry="3.2"/>
</g>
<!-- iaa_edition_catalog_to_text_fragment_confirmation -->
<g id="node8" class="node">
<title>iaa_edition_catalog_to_text_fragment_confirmation</title>
<g id="a_node8"><a xlink:href="../../tables/iaa_edition_catalog_to_text_fragment_confirmation.html" xlink:title="iaa_edition_catalog_to_text_fragment_confirmation" target="_top">
<polygon fill="#ffffff" stroke="transparent" points="817,-311 817,-369 1131,-369 1131,-311 817,-311"/>
<polygon fill="#f5f5f5" stroke="transparent" points="817,-347 817,-369 1131,-369 1131,-347 817,-347"/>
<polygon fill="none" stroke="#000000" points="817,-347 817,-369 1131,-369 1131,-347 817,-347"/>
<text text-anchor="start" x="822" y="-356.2" font-family="Helvetica,sans-Serif" font-weight="bold" font-size="11.00" fill="#000000">iaa_edition_catalog_to_text_fragment_confirmation</text>
<text text-anchor="start" x="1096" y="-355.2" font-family="Helvetica,sans-Serif" font-size="11.00" fill="#000000">[table]</text>
<polygon fill="none" stroke="#000000" points="817,-329 817,-347 1131,-347 1131,-329 817,-329"/>
<text text-anchor="start" x="820" y="-335.2" font-family="Helvetica,sans-Serif" font-size="11.00" fill="#000000">...</text>
<polygon fill="#ffffff" stroke="transparent" points="817,-311 817,-329 945,-329 945,-311 817,-311"/>
<polygon fill="none" stroke="#000000" points="817,-311 817,-329 945,-329 945,-311 817,-311"/>
<text text-anchor="start" x="820" y="-317.2" font-family="Helvetica,sans-Serif" font-size="11.00" fill="#000000">&lt; 2</text>
<polygon fill="#ffffff" stroke="transparent" points="945,-311 945,-329 1064,-329 1064,-311 945,-311"/>
<polygon fill="none" stroke="#000000" points="945,-311 945,-329 1064,-329 1064,-311 945,-311"/>
<text text-anchor="start" x="1001" y="-317.2" font-family="Helvetica,sans-Serif" font-size="11.00" fill="#000000">15,364 rows</text>
<polygon fill="#ffffff" stroke="transparent" points="1064,-311 1064,-329 1131,-329 1131,-311 1064,-311"/>
<polygon fill="none" stroke="#000000" points="1064,-311 1064,-329 1131,-329 1131,-311 1064,-311"/>
<text text-anchor="start" x="1121" y="-317.2" font-family="Helvetica,sans-Serif" font-size="11.00" fill="#000000"> &#160;</text>
</a>
</g>
</g>
<!-- iaa_edition_catalog_to_text_fragment_confirmation&#45;&gt;user -->
<g id="edge8" class="edge">
<title>iaa_edition_catalog_to_text_fragment_confirmation:w&#45;&gt;user:e</title>
<path fill="none" stroke="#000000" d="M802.615,-335.3842C769.97,-320.3963 817.4067,-244.9372 776,-212 722.4032,-169.3661 537.0744,-192.4928 469,-185 411.7371,-178.6972 398.1087,-168 340.5,-168"/>
<polygon fill="#000000" stroke="#000000" points="809.1291,-336.5687 816.3559,-341.5419 813.0645,-337.2843 817,-338 817,-338 817,-338 813.0645,-337.2843 817.6441,-334.4581 809.1291,-336.5687 809.1291,-336.5687"/>
<ellipse fill="none" stroke="#000000" cx="805.9807" cy="-335.9962" rx="3.2" ry="3.2"/>
</g>
<!-- iaa_edition_catalog_to_text_fragment_confirmation&#45;&gt;iaa_edition_catalog_to_text_fragment -->
<g id="edge7" class="edge">
<title>iaa_edition_catalog_to_text_fragment_confirmation:w&#45;&gt;iaa_edition_catalog_to_text_fragment:e</title>
<path fill="none" stroke="#000000" d="M802.56,-341.2099C764.6174,-362.1978 828.8163,-479 768.5,-479"/>
<polygon fill="#000000" stroke="#000000" points="809.1906,-339.736 817.7812,-341.5142 813.0953,-338.868 817,-338 817,-338 817,-338 813.0953,-338.868 816.2188,-334.4858 809.1906,-339.736 809.1906,-339.736"/>
<ellipse fill="none" stroke="#000000" cx="806.0669" cy="-340.4304" rx="3.2" ry="3.2"/>
</g>
<!-- image_to_iaa_edition_catalog -->
<g id="node9" class="node">
<title>image_to_iaa_edition_catalog</title>
<g id="a_node9"><a xlink:href="../../tables/image_to_iaa_edition_catalog.html" xlink:title="image_to_iaa_edition_catalog" target="_top">
<polygon fill="#ffffff" stroke="transparent" points="513.5,-587 513.5,-671 731.5,-671 731.5,-587 513.5,-587"/>
<polygon fill="#f5f5f5" stroke="transparent" points="513.5,-649 513.5,-671 731.5,-671 731.5,-649 513.5,-649"/>
<polygon fill="none" stroke="#000000" points="513.5,-649 513.5,-671 731.5,-671 731.5,-649 513.5,-649"/>
<text text-anchor="start" x="518.5" y="-658.2" font-family="Helvetica,sans-Serif" font-weight="bold" font-size="11.00" fill="#000000">image_to_iaa_edition_catalog</text>
<text text-anchor="start" x="696.5" y="-657.2" font-family="Helvetica,sans-Serif" font-size="11.00" fill="#000000">[table]</text>
<polygon fill="none" stroke="#000000" points="513.5,-627 513.5,-649 731.5,-649 731.5,-627 513.5,-627"/>
<image xlink:href="../../images/primaryKeys.png" width="11px" height="12px" preserveAspectRatio="xMinYMin meet" x="518.5" y="-644"/>
<text text-anchor="start" x="533.5" y="-635.2" font-family="Helvetica,sans-Serif" font-size="11.00" fill="#000000">iaa_edition_catalog_id</text>
<polygon fill="none" stroke="#000000" points="513.5,-605 513.5,-627 731.5,-627 731.5,-605 513.5,-605"/>
<image xlink:href="../../images/primaryKeys.png" width="11px" height="12px" preserveAspectRatio="xMinYMin meet" x="518.5" y="-622"/>
<text text-anchor="start" x="533.5" y="-613.2" font-family="Helvetica,sans-Serif" font-size="11.00" fill="#000000">image_catalog_id</text>
<polygon fill="#ffffff" stroke="transparent" points="513.5,-587 513.5,-605 593.5,-605 593.5,-587 513.5,-587"/>
<polygon fill="none" stroke="#000000" points="513.5,-587 513.5,-605 593.5,-605 593.5,-587 513.5,-587"/>
<text text-anchor="start" x="516.5" y="-593.2" font-family="Helvetica,sans-Serif" font-size="11.00" fill="#000000">&lt; 2</text>
<polygon fill="#ffffff" stroke="transparent" points="593.5,-587 593.5,-605 688.5,-605 688.5,-587 593.5,-587"/>
<polygon fill="none" stroke="#000000" points="593.5,-587 593.5,-605 688.5,-605 688.5,-587 593.5,-587"/>
<text text-anchor="start" x="625.5" y="-593.2" font-family="Helvetica,sans-Serif" font-size="11.00" fill="#000000">39,105 rows</text>
<polygon fill="#ffffff" stroke="transparent" points="688.5,-587 688.5,-605 731.5,-605 731.5,-587 688.5,-587"/>
<polygon fill="none" stroke="#000000" points="688.5,-587 688.5,-605 731.5,-605 731.5,-587 688.5,-587"/>
<text text-anchor="start" x="721.5" y="-593.2" font-family="Helvetica,sans-Serif" font-size="11.00" fill="#000000"> &#160;</text>
</a>
</g>
</g>
<!-- image_to_iaa_edition_catalog&#45;&gt;iaa_edition_catalog -->
<g id="edge9" class="edge">
<title>image_to_iaa_edition_catalog:w&#45;&gt;iaa_edition_catalog:e</title>
<path fill="none" stroke="#000000" d="M499.0603,-635.508C458.3772,-619.6075 481.5411,-533 426.5,-533"/>
<polygon fill="#000000" stroke="#000000" points="505.6165,-636.6395 512.8878,-641.5476 509.5583,-637.3197 513.5,-638 513.5,-638 513.5,-638 509.5583,-637.3197 514.1122,-634.4524 505.6165,-636.6395 505.6165,-636.6395"/>
<ellipse fill="none" stroke="#000000" cx="502.4631" cy="-636.0952" rx="3.2" ry="3.2"/>
</g>
<!-- image_catalog -->
<g id="node10" class="node">
<title>image_catalog</title>
<g id="a_node10"><a xlink:href="../../tables/image_catalog.html" xlink:title="image_catalog" target="_top">
<polygon fill="#ffffff" stroke="transparent" points="240.5,-668 240.5,-726 360.5,-726 360.5,-668 240.5,-668"/>
<polygon fill="#f5f5f5" stroke="transparent" points="240.5,-704 240.5,-726 360.5,-726 360.5,-704 240.5,-704"/>
<polygon fill="none" stroke="#000000" points="240.5,-704 240.5,-726 360.5,-726 360.5,-704 240.5,-704"/>
<text text-anchor="start" x="245.5" y="-713.2" font-family="Helvetica,sans-Serif" font-weight="bold" font-size="11.00" fill="#000000">image_catalog</text>
<text text-anchor="start" x="325.5" y="-712.2" font-family="Helvetica,sans-Serif" font-size="11.00" fill="#000000">[table]</text>
<polygon fill="none" stroke="#000000" points="240.5,-686 240.5,-704 360.5,-704 360.5,-686 240.5,-686"/>
<text text-anchor="start" x="243.5" y="-692.2" font-family="Helvetica,sans-Serif" font-size="11.00" fill="#000000">...</text>
<polygon fill="#ffffff" stroke="transparent" points="240.5,-668 240.5,-686 262.5,-686 262.5,-668 240.5,-668"/>
<polygon fill="none" stroke="#000000" points="240.5,-668 240.5,-686 262.5,-686 262.5,-668 240.5,-668"/>
<text text-anchor="start" x="243.5" y="-674.2" font-family="Helvetica,sans-Serif" font-size="11.00" fill="#000000"> &#160;</text>
<polygon fill="#ffffff" stroke="transparent" points="262.5,-668 262.5,-686 333.5,-686 333.5,-668 262.5,-668"/>
<polygon fill="none" stroke="#000000" points="262.5,-668 262.5,-686 333.5,-686 333.5,-668 262.5,-668"/>
<text text-anchor="start" x="270.5" y="-674.2" font-family="Helvetica,sans-Serif" font-size="11.00" fill="#000000">41,712 rows</text>
<polygon fill="#ffffff" stroke="transparent" points="333.5,-668 333.5,-686 360.5,-686 360.5,-668 333.5,-668"/>
<polygon fill="none" stroke="#000000" points="333.5,-668 333.5,-686 360.5,-686 360.5,-668 333.5,-668"/>
<text text-anchor="start" x="341.5" y="-674.2" font-family="Helvetica,sans-Serif" font-size="11.00" fill="#000000">3 &gt;</text>
</a>
</g>
</g>
<!-- image_to_iaa_edition_catalog&#45;&gt;image_catalog -->
<g id="edge10" class="edge">
<title>image_to_iaa_edition_catalog:w&#45;&gt;image_catalog:e</title>
<path fill="none" stroke="#000000" d="M498.9022,-617.3426C472.7181,-622.6417 465.923,-642.5679 436,-658 402.7883,-675.1282 397.8684,-695 360.5,-695"/>
<polygon fill="#000000" stroke="#000000" points="505.5336,-616.7327 513.8297,-619.5849 509.5168,-616.3664 513.5,-616 513.5,-616 513.5,-616 509.5168,-616.3664 513.1703,-612.4151 505.5336,-616.7327 505.5336,-616.7327"/>
<ellipse fill="none" stroke="#000000" cx="502.3471" cy="-617.0258" rx="3.2" ry="3.2"/>
</g>
<!-- manuscript_data -->
<g id="node11" class="node">
<title>manuscript_data</title>
<g id="a_node11"><a xlink:href="../../tables/manuscript_data.html" xlink:title="manuscript_data" target="_top">
<polygon fill="#ffffff" stroke="transparent" points="556.5,-116 556.5,-174 688.5,-174 688.5,-116 556.5,-116"/>
<polygon fill="#f5f5f5" stroke="transparent" points="556.5,-152 556.5,-174 688.5,-174 688.5,-152 556.5,-152"/>
<polygon fill="none" stroke="#000000" points="556.5,-152 556.5,-174 688.5,-174 688.5,-152 556.5,-152"/>
<text text-anchor="start" x="561.5" y="-161.2" font-family="Helvetica,sans-Serif" font-weight="bold" font-size="11.00" fill="#000000">manuscript_data</text>
<text text-anchor="start" x="653.5" y="-160.2" font-family="Helvetica,sans-Serif" font-size="11.00" fill="#000000">[table]</text>
<polygon fill="none" stroke="#000000" points="556.5,-134 556.5,-152 688.5,-152 688.5,-134 556.5,-134"/>
<text text-anchor="start" x="559.5" y="-140.2" font-family="Helvetica,sans-Serif" font-size="11.00" fill="#000000">...</text>
<polygon fill="#ffffff" stroke="transparent" points="556.5,-116 556.5,-134 592.5,-134 592.5,-116 556.5,-116"/>
<polygon fill="none" stroke="#000000" points="556.5,-116 556.5,-134 592.5,-134 592.5,-116 556.5,-116"/>
<text text-anchor="start" x="559.5" y="-122.2" font-family="Helvetica,sans-Serif" font-size="11.00" fill="#000000">&lt; 2</text>
<polygon fill="#ffffff" stroke="transparent" points="592.5,-116 592.5,-134 659.5,-134 659.5,-116 592.5,-116"/>
<polygon fill="none" stroke="#000000" points="592.5,-116 592.5,-134 659.5,-134 659.5,-116 592.5,-116"/>
<text text-anchor="start" x="602.5" y="-122.2" font-family="Helvetica,sans-Serif" font-size="11.00" fill="#000000">1,371 rows</text>
<polygon fill="#ffffff" stroke="transparent" points="659.5,-116 659.5,-134 688.5,-134 688.5,-116 659.5,-116"/>
<polygon fill="none" stroke="#000000" points="659.5,-116 659.5,-134 688.5,-134 688.5,-116 659.5,-116"/>
<text text-anchor="start" x="669.5" y="-122.2" font-family="Helvetica,sans-Serif" font-size="11.00" fill="#000000">1 &gt;</text>
</a>
</g>
</g>
<!-- manuscript_data&#45;&gt;manuscript -->
<g id="edge12" class="edge">
<title>manuscript_data:w&#45;&gt;manuscript:e</title>
<path fill="none" stroke="#000000" d="M541.8663,-142.5457C445.9247,-137.138 234.2283,-86.06 165,-131 127.4522,-155.3744 168.7655,-223 124,-223"/>
<polygon fill="#000000" stroke="#000000" points="548.5039,-142.7517 556.3883,-146.5983 552.5019,-142.8759 556.5,-143 556.5,-143 556.5,-143 552.5019,-142.8759 556.6117,-139.4017 548.5039,-142.7517 548.5039,-142.7517"/>
<ellipse fill="none" stroke="#000000" cx="545.3054" cy="-142.6524" rx="3.2" ry="3.2"/>
</g>
<!-- manuscript_data&#45;&gt;user -->
<g id="edge11" class="edge">
<title>manuscript_data:w&#45;&gt;user:e</title>
<path fill="none" stroke="#000000" d="M542.0678,-143.194C457.3094,-145.5209 432.1389,-168 340.5,-168"/>
<polygon fill="#000000" stroke="#000000" points="548.5007,-143.1076 556.5484,-146.5997 552.5004,-143.0538 556.5,-143 556.5,-143 556.5,-143 552.5004,-143.0538 556.4516,-139.4003 548.5007,-143.1076 548.5007,-143.1076"/>
<ellipse fill="none" stroke="#000000" cx="545.301" cy="-143.1506" rx="3.2" ry="3.2"/>
</g>
<!-- manuscript_metrics -->
<g id="node12" class="node">
<title>manuscript_metrics</title>
<g id="a_node12"><a xlink:href="../../tables/manuscript_metrics.html" xlink:title="manuscript_metrics" target="_top">
<polygon fill="#ffffff" stroke="transparent" points="548,-37 548,-95 697,-95 697,-37 548,-37"/>
<polygon fill="#f5f5f5" stroke="transparent" points="548.5,-73 548.5,-95 697.5,-95 697.5,-73 548.5,-73"/>
<polygon fill="none" stroke="#000000" points="548.5,-73 548.5,-95 697.5,-95 697.5,-73 548.5,-73"/>
<text text-anchor="start" x="553.5" y="-82.2" font-family="Helvetica,sans-Serif" font-weight="bold" font-size="11.00" fill="#000000">manuscript_metrics</text>
<text text-anchor="start" x="662.5" y="-81.2" font-family="Helvetica,sans-Serif" font-size="11.00" fill="#000000">[table]</text>
<polygon fill="none" stroke="#000000" points="548.5,-55 548.5,-73 697.5,-73 697.5,-55 548.5,-55"/>
<text text-anchor="start" x="551.5" y="-61.2" font-family="Helvetica,sans-Serif" font-size="11.00" fill="#000000">...</text>
<polygon fill="#ffffff" stroke="transparent" points="548.5,-37 548.5,-55 592.5,-55 592.5,-37 548.5,-37"/>
<polygon fill="none" stroke="#000000" points="548.5,-37 548.5,-55 592.5,-55 592.5,-37 548.5,-37"/>
<text text-anchor="start" x="551.5" y="-43.2" font-family="Helvetica,sans-Serif" font-size="11.00" fill="#000000">&lt; 3</text>
<polygon fill="#ffffff" stroke="transparent" points="592.5,-37 592.5,-55 663.5,-55 663.5,-37 592.5,-37"/>
<polygon fill="none" stroke="#000000" points="592.5,-37 592.5,-55 663.5,-55 663.5,-37 592.5,-37"/>
<text text-anchor="start" x="606.5" y="-43.2" font-family="Helvetica,sans-Serif" font-size="11.00" fill="#000000">1,371 rows</text>
<polygon fill="#ffffff" stroke="transparent" points="663.5,-37 663.5,-55 697.5,-55 697.5,-37 663.5,-37"/>
<polygon fill="none" stroke="#000000" points="663.5,-37 663.5,-55 697.5,-55 697.5,-37 663.5,-37"/>
<text text-anchor="start" x="678.5" y="-43.2" font-family="Helvetica,sans-Serif" font-size="11.00" fill="#000000">1 &gt;</text>
</a>
</g>
</g>
<!-- manuscript_metrics&#45;&gt;manuscript -->
<g id="edge14" class="edge">
<title>manuscript_metrics:w&#45;&gt;manuscript:e</title>
<path fill="none" stroke="#000000" d="M533.6511,-63.8493C372.2502,-60.5845 295.5042,-6.3828 165,-110 123.1587,-143.2209 177.4258,-223 124,-223"/>
<polygon fill="#000000" stroke="#000000" points="540.5004,-63.9188 548.4634,-67.5998 544.5002,-63.9594 548.5,-64 548.5,-64 548.5,-64 544.5002,-63.9594 548.5366,-60.4002 540.5004,-63.9188 540.5004,-63.9188"/>
<ellipse fill="none" stroke="#000000" cx="537.3006" cy="-63.8863" rx="3.2" ry="3.2"/>
</g>
<!-- manuscript_metrics&#45;&gt;user -->
<g id="edge13" class="edge">
<title>manuscript_metrics:w&#45;&gt;user:e</title>
<path fill="none" stroke="#000000" d="M534.0662,-64.7197C444.7748,-73.9083 438.8093,-168 340.5,-168"/>
<polygon fill="#000000" stroke="#000000" points="540.5099,-64.3984 548.6793,-67.5955 544.505,-64.1992 548.5,-64 548.5,-64 548.5,-64 544.505,-64.1992 548.3207,-60.4045 540.5099,-64.3984 540.5099,-64.3984"/>
<ellipse fill="none" stroke="#000000" cx="537.3139" cy="-64.5578" rx="3.2" ry="3.2"/>
</g>
<!-- manuscript_to_text_fragment -->
<g id="node13" class="node">
<title>manuscript_to_text_fragment</title>
<g id="a_node13"><a xlink:href="../../tables/manuscript_to_text_fragment.html" xlink:title="manuscript_to_text_fragment" target="_top">
<polygon fill="#ffffff" stroke="transparent" points="523,-222 523,-280 722,-280 722,-222 523,-222"/>
<polygon fill="#f5f5f5" stroke="transparent" points="523.5,-258 523.5,-280 722.5,-280 722.5,-258 523.5,-258"/>
<polygon fill="none" stroke="#000000" points="523.5,-258 523.5,-280 722.5,-280 722.5,-258 523.5,-258"/>
<text text-anchor="start" x="528.5" y="-267.2" font-family="Helvetica,sans-Serif" font-weight="bold" font-size="11.00" fill="#000000">manuscript_to_text_fragment</text>
<text text-anchor="start" x="687.5" y="-266.2" font-family="Helvetica,sans-Serif" font-size="11.00" fill="#000000">[table]</text>
<polygon fill="none" stroke="#000000" points="523.5,-240 523.5,-258 722.5,-258 722.5,-240 523.5,-240"/>
<text text-anchor="start" x="526.5" y="-246.2" font-family="Helvetica,sans-Serif" font-size="11.00" fill="#000000">...</text>
<polygon fill="#ffffff" stroke="transparent" points="523.5,-222 523.5,-240 589.5,-240 589.5,-222 523.5,-222"/>
<polygon fill="none" stroke="#000000" points="523.5,-222 523.5,-240 589.5,-240 589.5,-222 523.5,-222"/>
<text text-anchor="start" x="526.5" y="-228.2" font-family="Helvetica,sans-Serif" font-size="11.00" fill="#000000">&lt; 3</text>
<polygon fill="#ffffff" stroke="transparent" points="589.5,-222 589.5,-240 677.5,-240 677.5,-222 589.5,-222"/>
<polygon fill="none" stroke="#000000" points="589.5,-222 589.5,-240 677.5,-240 677.5,-222 589.5,-222"/>
<text text-anchor="start" x="614.5" y="-228.2" font-family="Helvetica,sans-Serif" font-size="11.00" fill="#000000">11,152 rows</text>
<polygon fill="#ffffff" stroke="transparent" points="677.5,-222 677.5,-240 722.5,-240 722.5,-222 677.5,-222"/>
<polygon fill="none" stroke="#000000" points="677.5,-222 677.5,-240 722.5,-240 722.5,-222 677.5,-222"/>
<text text-anchor="start" x="703.5" y="-228.2" font-family="Helvetica,sans-Serif" font-size="11.00" fill="#000000">1 &gt;</text>
</a>
</g>
</g>
<!-- manuscript_to_text_fragment&#45;&gt;manuscript -->
<g id="edge16" class="edge">
<title>manuscript_to_text_fragment:w&#45;&gt;manuscript:e</title>
<path fill="none" stroke="#000000" d="M508.9345,-248.5603C481.1842,-246.7811 469.7474,-240.0648 436,-237 297.7627,-224.4459 262.8062,-223 124,-223"/>
<polygon fill="#000000" stroke="#000000" points="515.5036,-248.7585 523.3913,-252.5984 519.5018,-248.8793 523.5,-249 523.5,-249 523.5,-249 519.5018,-248.8793 523.6087,-245.4016 515.5036,-248.7585 515.5036,-248.7585"/>
<ellipse fill="none" stroke="#000000" cx="512.3051" cy="-248.662" rx="3.2" ry="3.2"/>
</g>
<!-- manuscript_to_text_fragment&#45;&gt;user -->
<g id="edge15" class="edge">
<title>manuscript_to_text_fragment:w&#45;&gt;user:e</title>
<path fill="none" stroke="#000000" d="M508.695,-248.1983C433.6688,-239.7859 424.2328,-168 340.5,-168"/>
<polygon fill="#000000" stroke="#000000" points="515.5117,-248.5674 523.3053,-252.5947 519.5059,-248.7837 523.5,-249 523.5,-249 523.5,-249 519.5059,-248.7837 523.6947,-245.4053 515.5117,-248.5674 515.5117,-248.5674"/>
<ellipse fill="none" stroke="#000000" cx="512.3164" cy="-248.3943" rx="3.2" ry="3.2"/>
</g>
<!-- manuscript_to_text_fragment&#45;&gt;text_fragment -->
<g id="edge17" class="edge">
<title>manuscript_to_text_fragment:w&#45;&gt;text_fragment:e</title>
<path fill="none" stroke="#000000" d="M508.7559,-249.3534C447.1607,-252.392 428.0467,-274 359.5,-274"/>
<polygon fill="#000000" stroke="#000000" points="515.5023,-249.1918 523.5863,-252.599 519.5011,-249.0959 523.5,-249 523.5,-249 523.5,-249 519.5011,-249.0959 523.4137,-245.401 515.5023,-249.1918 515.5023,-249.1918"/>
<ellipse fill="none" stroke="#000000" cx="512.3032" cy="-249.2685" rx="3.2" ry="3.2"/>
</g>
</g>
</svg>
