<?xml version="1.0" encoding="UTF-8" standalone="no"?>
<!DOCTYPE svg PUBLIC "-//W3C//DTD SVG 1.1//EN"
 "http://www.w3.org/Graphics/SVG/1.1/DTD/svg11.dtd">
<!-- Generated by graphviz version 2.43.0 (0)
 -->
<!-- Title: twoDegreesRelationshipsDiagram Pages: 1 -->
<svg width="1286pt" height="773pt"
 viewBox="0.00 0.00 1286.00 773.00" xmlns="http://www.w3.org/2000/svg" xmlns:xlink="http://www.w3.org/1999/xlink">
<g id="graph0" class="graph" transform="scale(1 1) rotate(0) translate(4 769)">
<title>twoDegreesRelationshipsDiagram</title>
<polygon fill="#ffffff" stroke="transparent" points="-4,4 -4,-769 1282,-769 1282,4 -4,4"/>
<text text-anchor="middle" x="79.5" y="-7.2" font-family="Helvetica,sans-Serif" font-size="11.00">Generated by SchemaSpy</text>
<!-- edition_editor -->
<g id="node1" class="node">
<title>edition_editor</title>
<g id="a_node1"><a xlink:href="../../tables/edition_editor.html" xlink:title="edition_editor" target="_top">
<polygon fill="#ffffff" stroke="transparent" points="731,-269 731,-327 867,-327 867,-269 731,-269"/>
<polygon fill="#f5f5f5" stroke="transparent" points="731,-305 731,-327 867,-327 867,-305 731,-305"/>
<polygon fill="none" stroke="black" points="731,-305 731,-327 867,-327 867,-305 731,-305"/>
<text text-anchor="start" x="736" y="-314.2" font-family="Helvetica,sans-Serif" font-weight="bold" font-size="11.00">edition_editor</text>
<text text-anchor="start" x="825" y="-313.2" font-family="Helvetica,sans-Serif" font-size="11.00">[table]</text>
<polygon fill="none" stroke="black" points="731,-287 731,-305 867,-305 867,-287 731,-287"/>
<text text-anchor="start" x="734" y="-293.2" font-family="Helvetica,sans-Serif" font-size="11.00">...</text>
<polygon fill="#ffffff" stroke="transparent" points="731,-269 731,-287 762,-287 762,-269 731,-269"/>
<polygon fill="none" stroke="black" points="731,-269 731,-287 762,-287 762,-269 731,-269"/>
<text text-anchor="start" x="734" y="-275.2" font-family="Helvetica,sans-Serif" font-size="11.00">&lt; 2</text>
<polygon fill="#ffffff" stroke="transparent" points="762,-269 762,-287 831,-287 831,-269 762,-269"/>
<polygon fill="none" stroke="black" points="762,-269 762,-287 831,-287 831,-269 762,-269"/>
<text text-anchor="start" x="767" y="-275.2" font-family="Helvetica,sans-Serif" font-size="11.00">1,645 rows</text>
<polygon fill="#ffffff" stroke="transparent" points="831,-269 831,-287 867,-287 867,-269 831,-269"/>
<polygon fill="none" stroke="black" points="831,-269 831,-287 867,-287 867,-269 831,-269"/>
<text text-anchor="start" x="837" y="-275.2" font-family="Helvetica,sans-Serif" font-size="11.00">33 &gt;</text>
</a>
</g>
</g>
<!-- user -->
<g id="node2" class="node">
<title>user</title>
<g id="a_node2"><a xlink:href="../../tables/user.html" xlink:title="user" target="_top">
<polygon fill="#ffffff" stroke="transparent" points="290,-424 290,-526 453,-526 453,-424 290,-424"/>
<polygon fill="#f5f5f5" stroke="transparent" points="290.5,-504 290.5,-526 453.5,-526 453.5,-504 290.5,-504"/>
<polygon fill="none" stroke="black" points="290.5,-504 290.5,-526 453.5,-526 453.5,-504 290.5,-504"/>
<text text-anchor="start" x="295.5" y="-513.2" font-family="Helvetica,sans-Serif" font-weight="bold" font-size="11.00">user</text>
<text text-anchor="start" x="411.5" y="-512.2" font-family="Helvetica,sans-Serif" font-size="11.00">[table]</text>
<polygon fill="none" stroke="black" points="290.5,-482 290.5,-504 453.5,-504 453.5,-482 290.5,-482"/>
<image xlink:href="../../images/primaryKeys.png" width="11px" height="12px" preserveAspectRatio="xMinYMin meet" x="295.5" y="-499"/>
<text text-anchor="start" x="310.5" y="-490.2" font-family="Helvetica,sans-Serif" font-size="11.00">user_id</text>
<polygon fill="#ffffff" stroke="transparent" points="290.5,-460 290.5,-482 453.5,-482 453.5,-460 290.5,-460"/>
<polygon fill="none" stroke="black" points="290.5,-460 290.5,-482 453.5,-482 453.5,-460 290.5,-460"/>
<text text-anchor="start" x="310.5" y="-468.2" font-family="Helvetica,sans-Serif" font-size="11.00">email</text>
<polygon fill="none" stroke="black" points="290.5,-442 290.5,-460 453.5,-460 453.5,-442 290.5,-442"/>
<text text-anchor="start" x="293.5" y="-448.2" font-family="Helvetica,sans-Serif" font-size="11.00">...</text>
<polygon fill="#ffffff" stroke="transparent" points="290.5,-424 290.5,-442 340.5,-442 340.5,-424 290.5,-424"/>
<polygon fill="none" stroke="black" points="290.5,-424 290.5,-442 340.5,-442 340.5,-424 290.5,-424"/>
<text text-anchor="start" x="293.5" y="-430.2" font-family="Helvetica,sans-Serif" font-size="11.00"> &#160;</text>
<polygon fill="#ffffff" stroke="transparent" points="340.5,-424 340.5,-442 401.5,-442 401.5,-424 340.5,-424"/>
<polygon fill="none" stroke="black" points="340.5,-424 340.5,-442 401.5,-442 401.5,-424 340.5,-424"/>
<text text-anchor="start" x="361.5" y="-430.2" font-family="Helvetica,sans-Serif" font-size="11.00">0 rows</text>
<polygon fill="#ffffff" stroke="transparent" points="401.5,-424 401.5,-442 453.5,-442 453.5,-424 401.5,-424"/>
<polygon fill="none" stroke="black" points="401.5,-424 401.5,-442 453.5,-442 453.5,-424 401.5,-424"/>
<text text-anchor="start" x="423.5" y="-430.2" font-family="Helvetica,sans-Serif" font-size="11.00">10 &gt;</text>
</a>
</g>
</g>
<!-- edition_editor&#45;&gt;user -->
<g id="edge1" class="edge">
<title>edition_editor:w&#45;&gt;user:e</title>
<path fill="none" stroke="black" d="M715.38,-295.97C647.44,-295.8 618.31,-295.78 558,-338 490.14,-385.51 537.34,-493 454.5,-493"/>
<polygon fill="black" stroke="black" points="722,-295.99 729.99,-299.6 726,-295.99 730,-296 730,-296 730,-296 726,-295.99 730.01,-292.4 722,-295.99 722,-295.99"/>
<ellipse fill="none" stroke="black" cx="718.8" cy="-295.98" rx="3.2" ry="3.2"/>
</g>
<!-- edition_editor_request -->
<g id="node3" class="node">
<title>edition_editor_request</title>
<g id="a_node3"><a xlink:href="../../tables/edition_editor_request.html" xlink:title="edition_editor_request" target="_top">
<polygon fill="#ffffff" stroke="transparent" points="1081,-646 1081,-704 1270,-704 1270,-646 1081,-646"/>
<polygon fill="#f5f5f5" stroke="transparent" points="1081.5,-682 1081.5,-704 1270.5,-704 1270.5,-682 1081.5,-682"/>
<polygon fill="none" stroke="black" points="1081.5,-682 1081.5,-704 1270.5,-704 1270.5,-682 1081.5,-682"/>
<text text-anchor="start" x="1086.5" y="-691.2" font-family="Helvetica,sans-Serif" font-weight="bold" font-size="11.00">edition_editor_request</text>
<text text-anchor="start" x="1228.5" y="-690.2" font-family="Helvetica,sans-Serif" font-size="11.00">[table]</text>
<polygon fill="none" stroke="black" points="1081.5,-664 1081.5,-682 1270.5,-682 1270.5,-664 1081.5,-664"/>
<text text-anchor="start" x="1084.5" y="-670.2" font-family="Helvetica,sans-Serif" font-size="11.00">...</text>
<polygon fill="#ffffff" stroke="transparent" points="1081.5,-646 1081.5,-664 1160.5,-664 1160.5,-646 1081.5,-646"/>
<polygon fill="none" stroke="black" points="1081.5,-646 1081.5,-664 1160.5,-664 1160.5,-646 1081.5,-646"/>
<text text-anchor="start" x="1084.5" y="-652.2" font-family="Helvetica,sans-Serif" font-size="11.00">&lt; 4</text>
<polygon fill="#ffffff" stroke="transparent" points="1160.5,-646 1160.5,-664 1229.5,-664 1229.5,-646 1160.5,-646"/>
<polygon fill="none" stroke="black" points="1160.5,-646 1160.5,-664 1229.5,-664 1229.5,-646 1160.5,-646"/>
<text text-anchor="start" x="1189.5" y="-652.2" font-family="Helvetica,sans-Serif" font-size="11.00">0 rows</text>
<polygon fill="#ffffff" stroke="transparent" points="1229.5,-646 1229.5,-664 1270.5,-664 1270.5,-646 1229.5,-646"/>
<polygon fill="none" stroke="black" points="1229.5,-646 1229.5,-664 1270.5,-664 1270.5,-646 1229.5,-646"/>
<text text-anchor="start" x="1259.5" y="-652.2" font-family="Helvetica,sans-Serif" font-size="11.00"> &#160;</text>
</a>
</g>
</g>
<!-- edition_editor_request&#45;&gt;user -->
<g id="edge2" class="edge">
<title>edition_editor_request:w&#45;&gt;user:e</title>
<path fill="none" stroke="black" d="M1066.04,-673.17C940.77,-675.86 655.01,-709.27 558,-654 484.09,-611.89 539.57,-493 454.5,-493"/>
<polygon fill="black" stroke="black" points="1072.5,-673.09 1080.54,-676.6 1076.5,-673.05 1080.5,-673 1080.5,-673 1080.5,-673 1076.5,-673.05 1080.46,-669.4 1072.5,-673.09 1072.5,-673.09"/>
<ellipse fill="none" stroke="black" cx="1069.3" cy="-673.13" rx="3.2" ry="3.2"/>
</g>
<!-- edition_editor_request&#45;&gt;user -->
<g id="edge3" class="edge">
<title>edition_editor_request:w&#45;&gt;user:e</title>
<path fill="none" stroke="black" d="M1066.04,-673.15C940.75,-675.54 655.14,-705.1 558,-650 485.3,-608.77 538.08,-493 454.5,-493"/>
<polygon fill="black" stroke="black" points="1072.5,-673.08 1080.54,-676.6 1076.5,-673.04 1080.5,-673 1080.5,-673 1080.5,-673 1076.5,-673.04 1080.46,-669.4 1072.5,-673.08 1072.5,-673.08"/>
<ellipse fill="none" stroke="black" cx="1069.3" cy="-673.12" rx="3.2" ry="3.2"/>
</g>
<!-- user_email_token -->
<g id="node4" class="node">
<title>user_email_token</title>
<g id="a_node4"><a xlink:href="../../tables/user_email_token.html" xlink:title="user_email_token" target="_top">
<polygon fill="#ffffff" stroke="transparent" points="720.5,-703 720.5,-761 877.5,-761 877.5,-703 720.5,-703"/>
<polygon fill="#f5f5f5" stroke="transparent" points="721,-739 721,-761 878,-761 878,-739 721,-739"/>
<polygon fill="none" stroke="black" points="721,-739 721,-761 878,-761 878,-739 721,-739"/>
<text text-anchor="start" x="726" y="-748.2" font-family="Helvetica,sans-Serif" font-weight="bold" font-size="11.00">user_email_token</text>
<text text-anchor="start" x="836" y="-747.2" font-family="Helvetica,sans-Serif" font-size="11.00">[table]</text>
<polygon fill="none" stroke="black" points="721,-721 721,-739 878,-739 878,-721 721,-721"/>
<text text-anchor="start" x="724" y="-727.2" font-family="Helvetica,sans-Serif" font-size="11.00">...</text>
<polygon fill="#ffffff" stroke="transparent" points="721,-703 721,-721 778,-721 778,-703 721,-703"/>
<polygon fill="none" stroke="black" points="721,-703 721,-721 778,-721 778,-703 721,-703"/>
<text text-anchor="start" x="724" y="-709.2" font-family="Helvetica,sans-Serif" font-size="11.00">&lt; 1</text>
<polygon fill="#ffffff" stroke="transparent" points="778,-703 778,-721 836,-721 836,-703 778,-703"/>
<polygon fill="none" stroke="black" points="778,-703 778,-721 836,-721 836,-703 778,-703"/>
<text text-anchor="start" x="796" y="-709.2" font-family="Helvetica,sans-Serif" font-size="11.00">0 rows</text>
<polygon fill="#ffffff" stroke="transparent" points="836,-703 836,-721 878,-721 878,-703 836,-703"/>
<polygon fill="none" stroke="black" points="836,-703 836,-721 878,-721 878,-703 836,-703"/>
<text text-anchor="start" x="855" y="-709.2" font-family="Helvetica,sans-Serif" font-size="11.00">1 &gt;</text>
</a>
</g>
</g>
<!-- edition_editor_request&#45;&gt;user_email_token -->
<g id="edge4" class="edge">
<title>edition_editor_request:w&#45;&gt;user_email_token:e</title>
<path fill="none" stroke="black" d="M1066.24,-675.51C1057.91,-678.88 1052.66,-684.91 1040,-689 969.74,-711.72 952.84,-730 879,-730"/>
<polygon fill="black" stroke="black" points="1072.62,-674.39 1081.12,-676.55 1076.56,-673.69 1080.5,-673 1080.5,-673 1080.5,-673 1076.56,-673.69 1079.88,-669.45 1072.62,-674.39 1072.62,-674.39"/>
<ellipse fill="none" stroke="black" cx="1069.47" cy="-674.94" rx="3.2" ry="3.2"/>
</g>
<!-- user_email_token&#45;&gt;user -->
<g id="edge15" class="edge">
<title>user_email_token:w&#45;&gt;user:e</title>
<path fill="none" stroke="black" d="M705.37,-730.05C641.58,-730.43 612.39,-731.77 558,-689 480.57,-628.1 553.01,-493 454.5,-493"/>
<polygon fill="black" stroke="black" points="712,-730.03 720.01,-733.6 716,-730.01 720,-730 720,-730 720,-730 716,-730.01 719.99,-726.4 712,-730.03 712,-730.03"/>
<ellipse fill="none" stroke="black" cx="708.8" cy="-730.04" rx="3.2" ry="3.2"/>
</g>
<!-- iaa_edition_catalog_author -->
<g id="node5" class="node">
<title>iaa_edition_catalog_author</title>
<g id="a_node5"><a xlink:href="../../tables/iaa_edition_catalog_author.html" xlink:title="iaa_edition_catalog_author" target="_top">
<polygon fill="#ffffff" stroke="transparent" points="691.5,-190 691.5,-248 906.5,-248 906.5,-190 691.5,-190"/>
<polygon fill="#f5f5f5" stroke="transparent" points="692,-226 692,-248 907,-248 907,-226 692,-226"/>
<polygon fill="none" stroke="black" points="692,-226 692,-248 907,-248 907,-226 692,-226"/>
<text text-anchor="start" x="697" y="-235.2" font-family="Helvetica,sans-Serif" font-weight="bold" font-size="11.00">iaa_edition_catalog_author</text>
<text text-anchor="start" x="865" y="-234.2" font-family="Helvetica,sans-Serif" font-size="11.00">[table]</text>
<polygon fill="none" stroke="black" points="692,-208 692,-226 907,-226 907,-208 692,-208"/>
<text text-anchor="start" x="695" y="-214.2" font-family="Helvetica,sans-Serif" font-size="11.00">...</text>
<polygon fill="#ffffff" stroke="transparent" points="692,-190 692,-208 768,-208 768,-190 692,-190"/>
<polygon fill="none" stroke="black" points="692,-190 692,-208 768,-208 768,-190 692,-190"/>
<text text-anchor="start" x="695" y="-196.2" font-family="Helvetica,sans-Serif" font-size="11.00">&lt; 2</text>
<polygon fill="#ffffff" stroke="transparent" points="768,-190 768,-208 867,-208 867,-190 768,-190"/>
<polygon fill="none" stroke="black" points="768,-190 768,-208 867,-208 867,-190 768,-190"/>
<text text-anchor="start" x="796" y="-196.2" font-family="Helvetica,sans-Serif" font-size="11.00">39,537 rows</text>
<polygon fill="#ffffff" stroke="transparent" points="867,-190 867,-208 907,-208 907,-190 867,-190"/>
<polygon fill="none" stroke="black" points="867,-190 867,-208 907,-208 907,-190 867,-190"/>
<text text-anchor="start" x="896" y="-196.2" font-family="Helvetica,sans-Serif" font-size="11.00"> &#160;</text>
</a>
</g>
</g>
<!-- iaa_edition_catalog_author&#45;&gt;user -->
<g id="edge6" class="edge">
<title>iaa_edition_catalog_author:w&#45;&gt;user:e</title>
<path fill="none" stroke="black" d="M676.46,-217.04C624.8,-217.38 600.4,-221.05 558,-259 473.27,-334.85 568.22,-493 454.5,-493"/>
<polygon fill="black" stroke="black" points="683,-217.02 691.01,-220.6 687,-217.01 691,-217 691,-217 691,-217 687,-217.01 690.99,-213.4 683,-217.02 683,-217.02"/>
<ellipse fill="none" stroke="black" cx="679.8" cy="-217.03" rx="3.2" ry="3.2"/>
</g>
<!-- iaa_edition_catalog -->
<g id="node6" class="node">
<title>iaa_edition_catalog</title>
<g id="a_node6"><a xlink:href="../../tables/iaa_edition_catalog.html" xlink:title="iaa_edition_catalog" target="_top">
<polygon fill="#ffffff" stroke="transparent" points="8,-165 8,-223 177,-223 177,-165 8,-165"/>
<polygon fill="#f5f5f5" stroke="transparent" points="8.5,-201 8.5,-223 177.5,-223 177.5,-201 8.5,-201"/>
<polygon fill="none" stroke="black" points="8.5,-201 8.5,-223 177.5,-223 177.5,-201 8.5,-201"/>
<text text-anchor="start" x="13.5" y="-210.2" font-family="Helvetica,sans-Serif" font-weight="bold" font-size="11.00">iaa_edition_catalog</text>
<text text-anchor="start" x="135.5" y="-209.2" font-family="Helvetica,sans-Serif" font-size="11.00">[table]</text>
<polygon fill="none" stroke="black" points="8.5,-183 8.5,-201 177.5,-201 177.5,-183 8.5,-183"/>
<text text-anchor="start" x="11.5" y="-189.2" font-family="Helvetica,sans-Serif" font-size="11.00">...</text>
<polygon fill="#ffffff" stroke="transparent" points="8.5,-165 8.5,-183 55.5,-183 55.5,-165 8.5,-165"/>
<polygon fill="none" stroke="black" points="8.5,-165 8.5,-183 55.5,-183 55.5,-165 8.5,-165"/>
<text text-anchor="start" x="11.5" y="-171.2" font-family="Helvetica,sans-Serif" font-size="11.00">&lt; 1</text>
<polygon fill="#ffffff" stroke="transparent" points="55.5,-165 55.5,-183 140.5,-183 140.5,-165 55.5,-165"/>
<polygon fill="none" stroke="black" points="55.5,-165 55.5,-183 140.5,-183 140.5,-165 55.5,-165"/>
<text text-anchor="start" x="69.5" y="-171.2" font-family="Helvetica,sans-Serif" font-size="11.00">38,927 rows</text>
<polygon fill="#ffffff" stroke="transparent" points="140.5,-165 140.5,-183 177.5,-183 177.5,-165 140.5,-165"/>
<polygon fill="none" stroke="black" points="140.5,-165 140.5,-183 177.5,-183 177.5,-165 140.5,-165"/>
<text text-anchor="start" x="154.5" y="-171.2" font-family="Helvetica,sans-Serif" font-size="11.00">3 &gt;</text>
</a>
</g>
</g>
<!-- iaa_edition_catalog_author&#45;&gt;iaa_edition_catalog -->
<g id="edge5" class="edge">
<title>iaa_edition_catalog_author:w&#45;&gt;iaa_edition_catalog:e</title>
<path fill="none" stroke="black" d="M680.43,-216.98C461.15,-216.22 402.99,-192 178.5,-192"/>
<polygon fill="black" stroke="black" points="690.21,-213 690.19,-221 688.59,-221 688.61,-213 690.21,-213"/>
<polyline fill="none" stroke="black" points="691,-217 687,-216.99 "/>
<ellipse fill="none" stroke="black" cx="683.8" cy="-216.99" rx="3.2" ry="3.2"/>
</g>
<!-- iaa_edition_catalog_to_text_fragment -->
<g id="node7" class="node">
<title>iaa_edition_catalog_to_text_fragment</title>
<g id="a_node7"><a xlink:href="../../tables/iaa_edition_catalog_to_text_fragment.html" xlink:title="iaa_edition_catalog_to_text_fragment" target="_top">
<polygon fill="#ffffff" stroke="transparent" points="226,-67 226,-173 517,-173 517,-67 226,-67"/>
<polygon fill="#f5f5f5" stroke="transparent" points="226.5,-151 226.5,-173 517.5,-173 517.5,-151 226.5,-151"/>
<polygon fill="none" stroke="black" points="226.5,-151 226.5,-173 517.5,-173 517.5,-151 226.5,-151"/>
<text text-anchor="start" x="231.5" y="-160.2" font-family="Helvetica,sans-Serif" font-weight="bold" font-size="11.00">iaa_edition_catalog_to_text_fragment</text>
<text text-anchor="start" x="475.5" y="-159.2" font-family="Helvetica,sans-Serif" font-size="11.00">[table]</text>
<polygon fill="none" stroke="black" points="226.5,-129 226.5,-151 517.5,-151 517.5,-129 226.5,-129"/>
<image xlink:href="../../images/primaryKeys.png" width="11px" height="12px" preserveAspectRatio="xMinYMin meet" x="231.5" y="-146"/>
<text text-anchor="start" x="246.5" y="-137.2" font-family="Helvetica,sans-Serif" font-size="11.00">iaa_edition_catalog_to_text_fragment_id</text>
<polygon fill="#ffffff" stroke="transparent" points="226.5,-107 226.5,-129 517.5,-129 517.5,-107 226.5,-107"/>
<polygon fill="none" stroke="black" points="226.5,-107 226.5,-129 517.5,-129 517.5,-107 226.5,-107"/>
<image xlink:href="../../images/foreignKeys.png" width="11px" height="12px" preserveAspectRatio="xMinYMin meet" x="231.5" y="-124"/>
<text text-anchor="start" x="246.5" y="-115.2" font-family="Helvetica,sans-Serif" font-size="11.00">iaa_edition_catalog_id</text>
<polygon fill="#ffffff" stroke="transparent" points="226.5,-85 226.5,-107 517.5,-107 517.5,-85 226.5,-85"/>
<polygon fill="none" stroke="black" points="226.5,-85 226.5,-107 517.5,-107 517.5,-85 226.5,-85"/>
<image xlink:href="../../images/foreignKeys.png" width="11px" height="12px" preserveAspectRatio="xMinYMin meet" x="231.5" y="-102"/>
<text text-anchor="start" x="246.5" y="-93.2" font-family="Helvetica,sans-Serif" font-size="11.00">text_fragment_id</text>
<polygon fill="#ffffff" stroke="transparent" points="226.5,-67 226.5,-85 334.5,-85 334.5,-67 226.5,-67"/>
<polygon fill="none" stroke="black" points="226.5,-67 226.5,-85 334.5,-85 334.5,-67 226.5,-67"/>
<text text-anchor="start" x="229.5" y="-73.2" font-family="Helvetica,sans-Serif" font-size="11.00">&lt; 2</text>
<polygon fill="#ffffff" stroke="transparent" points="334.5,-67 334.5,-85 449.5,-85 449.5,-67 334.5,-67"/>
<polygon fill="none" stroke="black" points="334.5,-67 334.5,-85 449.5,-85 449.5,-67 334.5,-67"/>
<text text-anchor="start" x="378.5" y="-73.2" font-family="Helvetica,sans-Serif" font-size="11.00">15,236 rows</text>
<polygon fill="#ffffff" stroke="transparent" points="449.5,-67 449.5,-85 517.5,-85 517.5,-67 449.5,-67"/>
<polygon fill="none" stroke="black" points="449.5,-67 449.5,-85 517.5,-85 517.5,-67 449.5,-67"/>
<text text-anchor="start" x="494.5" y="-73.2" font-family="Helvetica,sans-Serif" font-size="11.00">1 &gt;</text>
</a>
</g>
</g>
<!-- iaa_edition_catalog_to_text_fragment&#45;&gt;iaa_edition_catalog -->
<g id="edge7" class="edge">
<title>iaa_edition_catalog_to_text_fragment:w&#45;&gt;iaa_edition_catalog:e</title>
<path fill="none" stroke="black" d="M211.82,-122.86C194.5,-139.32 211.37,-192 178.5,-192"/>
<polygon fill="black" stroke="black" points="217.96,-120.68 226.7,-121.39 221.73,-119.34 225.5,-118 225.5,-118 225.5,-118 221.73,-119.34 224.3,-114.61 217.96,-120.68 217.96,-120.68"/>
<ellipse fill="none" stroke="black" cx="214.95" cy="-121.75" rx="3.2" ry="3.2"/>
</g>
<!-- text_fragment -->
<g id="node8" class="node">
<title>text_fragment</title>
<g id="a_node8"><a xlink:href="../../tables/text_fragment.html" xlink:title="text_fragment" target="_top">
<polygon fill="#ffffff" stroke="transparent" points="23.5,-69 23.5,-127 161.5,-127 161.5,-69 23.5,-69"/>
<polygon fill="#f5f5f5" stroke="transparent" points="23.5,-105 23.5,-127 161.5,-127 161.5,-105 23.5,-105"/>
<polygon fill="none" stroke="black" points="23.5,-105 23.5,-127 161.5,-127 161.5,-105 23.5,-105"/>
<text text-anchor="start" x="28.5" y="-114.2" font-family="Helvetica,sans-Serif" font-weight="bold" font-size="11.00">text_fragment</text>
<text text-anchor="start" x="119.5" y="-113.2" font-family="Helvetica,sans-Serif" font-size="11.00">[table]</text>
<polygon fill="none" stroke="black" points="23.5,-87 23.5,-105 161.5,-105 161.5,-87 23.5,-87"/>
<text text-anchor="start" x="26.5" y="-93.2" font-family="Helvetica,sans-Serif" font-size="11.00">...</text>
<polygon fill="#ffffff" stroke="transparent" points="23.5,-69 23.5,-87 49.5,-87 49.5,-69 23.5,-69"/>
<polygon fill="none" stroke="black" points="23.5,-69 23.5,-87 49.5,-87 49.5,-69 23.5,-69"/>
<text text-anchor="start" x="26.5" y="-75.2" font-family="Helvetica,sans-Serif" font-size="11.00"> &#160;</text>
<polygon fill="#ffffff" stroke="transparent" points="49.5,-69 49.5,-87 129.5,-87 129.5,-69 49.5,-69"/>
<polygon fill="none" stroke="black" points="49.5,-69 49.5,-87 129.5,-87 129.5,-69 49.5,-69"/>
<text text-anchor="start" x="58.5" y="-75.2" font-family="Helvetica,sans-Serif" font-size="11.00">11,176 rows</text>
<polygon fill="#ffffff" stroke="transparent" points="129.5,-69 129.5,-87 161.5,-87 161.5,-69 129.5,-69"/>
<polygon fill="none" stroke="black" points="129.5,-69 129.5,-87 161.5,-87 161.5,-69 129.5,-69"/>
<text text-anchor="start" x="138.5" y="-75.2" font-family="Helvetica,sans-Serif" font-size="11.00">6 &gt;</text>
</a>
</g>
</g>
<!-- iaa_edition_catalog_to_text_fragment&#45;&gt;text_fragment -->
<g id="edge8" class="edge">
<title>iaa_edition_catalog_to_text_fragment:w&#45;&gt;text_fragment:e</title>
<path fill="none" stroke="black" d="M210.68,-96C193.79,-96 184.81,-96 162.5,-96"/>
<polygon fill="black" stroke="black" points="217.5,-96 225.5,-99.6 221.5,-96 225.5,-96 225.5,-96 225.5,-96 221.5,-96 225.5,-92.4 217.5,-96 217.5,-96"/>
<ellipse fill="none" stroke="black" cx="214.3" cy="-96" rx="3.2" ry="3.2"/>
</g>
<!-- iaa_edition_catalog_to_text_fragment_confirmation -->
<g id="node9" class="node">
<title>iaa_edition_catalog_to_text_fragment_confirmation</title>
<g id="a_node9"><a xlink:href="../../tables/iaa_edition_catalog_to_text_fragment_confirmation.html" xlink:title="iaa_edition_catalog_to_text_fragment_confirmation" target="_top">
<polygon fill="#ffffff" stroke="transparent" points="566,-37 566,-169 1032,-169 1032,-37 566,-37"/>
<polygon fill="#f5f5f5" stroke="transparent" points="568,-145 568,-167 1030,-167 1030,-145 568,-145"/>
<polygon fill="none" stroke="black" points="568,-145 568,-167 1030,-167 1030,-145 568,-145"/>
<text text-anchor="start" x="573" y="-154.2" font-family="Helvetica,sans-Serif" font-weight="bold" font-size="11.00">iaa_edition_catalog_to_text_fragment_confirmation</text>
<text text-anchor="start" x="988" y="-153.2" font-family="Helvetica,sans-Serif" font-size="11.00">[table]</text>
<polygon fill="#ffffff" stroke="transparent" points="568,-123 568,-145 933,-145 933,-123 568,-123"/>
<polygon fill="none" stroke="black" points="568,-123 568,-145 933,-145 933,-123 568,-123"/>
<image xlink:href="../../images/foreignKeys.png" width="11px" height="12px" preserveAspectRatio="xMinYMin meet" x="573" y="-140"/>
<text text-anchor="start" x="588" y="-131.2" font-family="Helvetica,sans-Serif" font-size="11.00">iaa_edition_catalog_to_text_fragment_id</text>
<polygon fill="none" stroke="black" points="933,-123 933,-145 1030,-145 1030,-123 933,-123"/>
<text text-anchor="start" x="936" y="-131.2" font-family="Helvetica,sans-Serif" font-size="11.00">int unsigned[10]</text>
<polygon fill="#ffffff" stroke="transparent" points="568,-101 568,-123 933,-123 933,-101 568,-101"/>
<polygon fill="none" stroke="black" points="568,-101 568,-123 933,-123 933,-101 568,-101"/>
<text text-anchor="start" x="588" y="-109.2" font-family="Helvetica,sans-Serif" font-size="11.00">confirmed</text>
<polygon fill="none" stroke="black" points="933,-101 933,-123 1030,-123 1030,-101 933,-101"/>
<text text-anchor="start" x="936" y="-109.2" font-family="Helvetica,sans-Serif" font-size="11.00">bit[3]</text>
<polygon fill="#ffffff" stroke="transparent" points="568,-79 568,-101 933,-101 933,-79 568,-79"/>
<polygon fill="none" stroke="black" points="568,-79 568,-101 933,-101 933,-79 568,-79"/>
<image xlink:href="../../images/foreignKeys.png" width="11px" height="12px" preserveAspectRatio="xMinYMin meet" x="573" y="-96"/>
<text text-anchor="start" x="588" y="-87.2" font-family="Helvetica,sans-Serif" font-size="11.00">user_id</text>
<polygon fill="none" stroke="black" points="933,-79 933,-101 1030,-101 1030,-79 933,-79"/>
<text text-anchor="start" x="936" y="-87.2" font-family="Helvetica,sans-Serif" font-size="11.00">int unsigned[10]</text>
<polygon fill="#ffffff" stroke="transparent" points="568,-57 568,-79 933,-79 933,-57 568,-57"/>
<polygon fill="none" stroke="black" points="568,-57 568,-79 933,-79 933,-57 568,-57"/>
<text text-anchor="start" x="588" y="-65.2" font-family="Helvetica,sans-Serif" font-size="11.00">time</text>
<polygon fill="none" stroke="black" points="933,-57 933,-79 1030,-79 1030,-57 933,-57"/>
<text text-anchor="start" x="936" y="-65.2" font-family="Helvetica,sans-Serif" font-size="11.00">datetime[19]</text>
<polygon fill="#ffffff" stroke="transparent" points="568,-39 568,-57 726,-57 726,-39 568,-39"/>
<polygon fill="none" stroke="black" points="568,-39 568,-57 726,-57 726,-39 568,-39"/>
<text text-anchor="start" x="571" y="-45.2" font-family="Helvetica,sans-Serif" font-size="11.00">&lt; 2</text>
<polygon fill="#ffffff" stroke="transparent" points="726,-39 726,-57 933,-57 933,-39 726,-39"/>
<polygon fill="none" stroke="black" points="726,-39 726,-57 933,-57 933,-39 726,-39"/>
<text text-anchor="start" x="862" y="-45.2" font-family="Helvetica,sans-Serif" font-size="11.00">15,403 rows</text>
<polygon fill="#ffffff" stroke="transparent" points="933,-39 933,-57 1030,-57 1030,-39 933,-39"/>
<polygon fill="none" stroke="black" points="933,-39 933,-57 1030,-57 1030,-39 933,-39"/>
<text text-anchor="start" x="1007" y="-45.2" font-family="Helvetica,sans-Serif" font-size="11.00">0 &gt;</text>
<polygon fill="none" stroke="black" stroke-width="2" points="567,-38 567,-168 1031,-168 1031,-38 567,-38"/>
</a>
</g>
</g>
<!-- iaa_edition_catalog_to_text_fragment_confirmation&#45;&gt;user -->
<g id="edge10" class="edge">
<title>iaa_edition_catalog_to_text_fragment_confirmation:w&#45;&gt;user:e</title>
<path fill="none" stroke="black" d="M555.33,-98.79C516.87,-157.73 496.9,-493 454.5,-493"/>
<polygon fill="black" stroke="black" points="560.61,-94.81 569.17,-92.88 563.81,-92.41 567,-90 567,-90 567,-90 563.81,-92.41 564.83,-87.12 560.61,-94.81 560.61,-94.81"/>
<ellipse fill="none" stroke="black" cx="558.05" cy="-96.74" rx="3.2" ry="3.2"/>
</g>
<!-- iaa_edition_catalog_to_text_fragment_confirmation&#45;&gt;iaa_edition_catalog_to_text_fragment -->
<g id="edge9" class="edge">
<title>iaa_edition_catalog_to_text_fragment_confirmation:w&#45;&gt;iaa_edition_catalog_to_text_fragment:e</title>
<path fill="none" stroke="black" d="M552.59,-135.05C541.42,-136.76 534.45,-140 518.5,-140"/>
<polygon fill="black" stroke="black" points="559.02,-134.58 567.26,-137.59 563.01,-134.29 567,-134 567,-134 567,-134 563.01,-134.29 566.74,-130.41 559.02,-134.58 559.02,-134.58"/>
<ellipse fill="none" stroke="black" cx="555.83" cy="-134.81" rx="3.2" ry="3.2"/>
</g>
<!-- image_catalog_author -->
<g id="node10" class="node">
<title>image_catalog_author</title>
<g id="a_node10"><a xlink:href="../../tables/image_catalog_author.html" xlink:title="image_catalog_author" target="_top">
<polygon fill="#ffffff" stroke="transparent" points="706,-585 706,-643 892,-643 892,-585 706,-585"/>
<polygon fill="#f5f5f5" stroke="transparent" points="706,-621 706,-643 892,-643 892,-621 706,-621"/>
<polygon fill="none" stroke="black" points="706,-621 706,-643 892,-643 892,-621 706,-621"/>
<text text-anchor="start" x="711" y="-630.2" font-family="Helvetica,sans-Serif" font-weight="bold" font-size="11.00">image_catalog_author</text>
<text text-anchor="start" x="850" y="-629.2" font-family="Helvetica,sans-Serif" font-size="11.00">[table]</text>
<polygon fill="none" stroke="black" points="706,-603 706,-621 892,-621 892,-603 706,-603"/>
<text text-anchor="start" x="709" y="-609.2" font-family="Helvetica,sans-Serif" font-size="11.00">...</text>
<polygon fill="#ffffff" stroke="transparent" points="706,-585 706,-603 768,-603 768,-585 706,-585"/>
<polygon fill="none" stroke="black" points="706,-585 706,-603 768,-603 768,-585 706,-585"/>
<text text-anchor="start" x="709" y="-591.2" font-family="Helvetica,sans-Serif" font-size="11.00">&lt; 2</text>
<polygon fill="#ffffff" stroke="transparent" points="768,-585 768,-603 860,-603 860,-585 768,-585"/>
<polygon fill="none" stroke="black" points="768,-585 768,-603 860,-603 860,-585 768,-585"/>
<text text-anchor="start" x="789" y="-591.2" font-family="Helvetica,sans-Serif" font-size="11.00">41,829 rows</text>
<polygon fill="#ffffff" stroke="transparent" points="860,-585 860,-603 892,-603 892,-585 860,-585"/>
<polygon fill="none" stroke="black" points="860,-585 860,-603 892,-603 892,-585 860,-585"/>
<text text-anchor="start" x="881" y="-591.2" font-family="Helvetica,sans-Serif" font-size="11.00"> &#160;</text>
</a>
</g>
</g>
<!-- image_catalog_author&#45;&gt;user -->
<g id="edge11" class="edge">
<title>image_catalog_author:w&#45;&gt;user:e</title>
<path fill="none" stroke="black" d="M690.4,-611.87C634.46,-610.77 613.82,-602.54 558,-575 505.37,-549.04 513.19,-493 454.5,-493"/>
<polygon fill="black" stroke="black" points="697,-611.93 704.97,-615.6 701,-611.96 705,-612 705,-612 705,-612 701,-611.96 705.03,-608.4 697,-611.93 697,-611.93"/>
<ellipse fill="none" stroke="black" cx="693.8" cy="-611.9" rx="3.2" ry="3.2"/>
</g>
<!-- image_to_image_map_author -->
<g id="node11" class="node">
<title>image_to_image_map_author</title>
<g id="a_node11"><a xlink:href="../../tables/image_to_image_map_author.html" xlink:title="image_to_image_map_author" target="_top">
<polygon fill="#ffffff" stroke="transparent" points="685.5,-506 685.5,-564 912.5,-564 912.5,-506 685.5,-506"/>
<polygon fill="#f5f5f5" stroke="transparent" points="686,-542 686,-564 913,-564 913,-542 686,-542"/>
<polygon fill="none" stroke="black" points="686,-542 686,-564 913,-564 913,-542 686,-542"/>
<text text-anchor="start" x="691" y="-551.2" font-family="Helvetica,sans-Serif" font-weight="bold" font-size="11.00">image_to_image_map_author</text>
<text text-anchor="start" x="871" y="-550.2" font-family="Helvetica,sans-Serif" font-size="11.00">[table]</text>
<polygon fill="none" stroke="black" points="686,-524 686,-542 913,-542 913,-524 686,-524"/>
<text text-anchor="start" x="689" y="-530.2" font-family="Helvetica,sans-Serif" font-size="11.00">...</text>
<polygon fill="#ffffff" stroke="transparent" points="686,-506 686,-524 768,-524 768,-506 686,-506"/>
<polygon fill="none" stroke="black" points="686,-506 686,-524 768,-524 768,-506 686,-506"/>
<text text-anchor="start" x="689" y="-512.2" font-family="Helvetica,sans-Serif" font-size="11.00">&lt; 2</text>
<polygon fill="#ffffff" stroke="transparent" points="768,-506 768,-524 870,-524 870,-506 768,-506"/>
<polygon fill="none" stroke="black" points="768,-506 768,-524 870,-524 870,-506 768,-506"/>
<text text-anchor="start" x="799" y="-512.2" font-family="Helvetica,sans-Serif" font-size="11.00">72,198 rows</text>
<polygon fill="#ffffff" stroke="transparent" points="870,-506 870,-524 913,-524 913,-506 870,-506"/>
<polygon fill="none" stroke="black" points="870,-506 870,-524 913,-524 913,-506 870,-506"/>
<text text-anchor="start" x="902" y="-512.2" font-family="Helvetica,sans-Serif" font-size="11.00"> &#160;</text>
</a>
</g>
</g>
<!-- image_to_image_map_author&#45;&gt;user -->
<g id="edge12" class="edge">
<title>image_to_image_map_author:w&#45;&gt;user:e</title>
<path fill="none" stroke="black" d="M670.33,-532.72C578.63,-529.19 553.4,-493 454.5,-493"/>
<polygon fill="black" stroke="black" points="677,-532.85 684.93,-536.6 681,-532.92 685,-533 685,-533 685,-533 681,-532.92 685.07,-529.4 677,-532.85 677,-532.85"/>
<ellipse fill="none" stroke="black" cx="673.8" cy="-532.79" rx="3.2" ry="3.2"/>
</g>
<!-- SQE_image_author -->
<g id="node12" class="node">
<title>SQE_image_author</title>
<g id="a_node12"><a xlink:href="../../tables/SQE_image_author.html" xlink:title="SQE_image_author" target="_top">
<polygon fill="#ffffff" stroke="transparent" points="716.5,-427 716.5,-485 881.5,-485 881.5,-427 716.5,-427"/>
<polygon fill="#f5f5f5" stroke="transparent" points="717,-463 717,-485 882,-485 882,-463 717,-463"/>
<polygon fill="none" stroke="black" points="717,-463 717,-485 882,-485 882,-463 717,-463"/>
<text text-anchor="start" x="722" y="-472.2" font-family="Helvetica,sans-Serif" font-weight="bold" font-size="11.00">SQE_image_author</text>
<text text-anchor="start" x="840" y="-471.2" font-family="Helvetica,sans-Serif" font-size="11.00">[table]</text>
<polygon fill="none" stroke="black" points="717,-445 717,-463 882,-463 882,-445 717,-445"/>
<text text-anchor="start" x="720" y="-451.2" font-family="Helvetica,sans-Serif" font-size="11.00">...</text>
<polygon fill="#ffffff" stroke="transparent" points="717,-427 717,-445 768,-445 768,-427 717,-427"/>
<polygon fill="none" stroke="black" points="717,-427 717,-445 768,-445 768,-427 717,-427"/>
<text text-anchor="start" x="720" y="-433.2" font-family="Helvetica,sans-Serif" font-size="11.00">&lt; 2</text>
<polygon fill="#ffffff" stroke="transparent" points="768,-427 768,-445 855,-445 855,-427 768,-427"/>
<polygon fill="none" stroke="black" points="768,-427 768,-445 855,-445 855,-427 768,-427"/>
<text text-anchor="start" x="784" y="-433.2" font-family="Helvetica,sans-Serif" font-size="11.00">97,205 rows</text>
<polygon fill="#ffffff" stroke="transparent" points="855,-427 855,-445 882,-445 882,-427 855,-427"/>
<polygon fill="none" stroke="black" points="855,-427 855,-445 882,-445 882,-427 855,-427"/>
<text text-anchor="start" x="871" y="-433.2" font-family="Helvetica,sans-Serif" font-size="11.00"> &#160;</text>
</a>
</g>
</g>
<!-- SQE_image_author&#45;&gt;user -->
<g id="edge13" class="edge">
<title>SQE_image_author:w&#45;&gt;user:e</title>
<path fill="none" stroke="black" d="M701.34,-454.21C596.05,-457.28 566.96,-493 454.5,-493"/>
<polygon fill="black" stroke="black" points="708,-454.11 716.05,-457.6 712,-454.06 716,-454 716,-454 716,-454 712,-454.06 715.95,-450.4 708,-454.11 708,-454.11"/>
<ellipse fill="none" stroke="black" cx="704.8" cy="-454.16" rx="3.2" ry="3.2"/>
</g>
<!-- user_contributions -->
<g id="node13" class="node">
<title>user_contributions</title>
<g id="a_node13"><a xlink:href="../../tables/user_contributions.html" xlink:title="user_contributions" target="_top">
<polygon fill="#ffffff" stroke="transparent" points="716,-348 716,-406 882,-406 882,-348 716,-348"/>
<polygon fill="#f5f5f5" stroke="transparent" points="716,-384 716,-406 882,-406 882,-384 716,-384"/>
<polygon fill="none" stroke="black" points="716,-384 716,-406 882,-406 882,-384 716,-384"/>
<text text-anchor="start" x="721" y="-393.2" font-family="Helvetica,sans-Serif" font-weight="bold" font-size="11.00">user_contributions</text>
<text text-anchor="start" x="840" y="-392.2" font-family="Helvetica,sans-Serif" font-size="11.00">[table]</text>
<polygon fill="none" stroke="black" points="716,-366 716,-384 882,-384 882,-366 716,-366"/>
<text text-anchor="start" x="719" y="-372.2" font-family="Helvetica,sans-Serif" font-size="11.00">...</text>
<polygon fill="#ffffff" stroke="transparent" points="716,-348 716,-366 783,-366 783,-348 716,-348"/>
<polygon fill="none" stroke="black" points="716,-348 716,-366 783,-366 783,-348 716,-348"/>
<text text-anchor="start" x="719" y="-354.2" font-family="Helvetica,sans-Serif" font-size="11.00">&lt; 1</text>
<polygon fill="#ffffff" stroke="transparent" points="783,-348 783,-366 847,-366 847,-348 783,-348"/>
<polygon fill="none" stroke="black" points="783,-348 783,-366 847,-366 847,-348 783,-348"/>
<text text-anchor="start" x="807" y="-354.2" font-family="Helvetica,sans-Serif" font-size="11.00">0 rows</text>
<polygon fill="#ffffff" stroke="transparent" points="847,-348 847,-366 882,-366 882,-348 847,-348"/>
<polygon fill="none" stroke="black" points="847,-348 847,-366 882,-366 882,-348 847,-348"/>
<text text-anchor="start" x="871" y="-354.2" font-family="Helvetica,sans-Serif" font-size="11.00"> &#160;</text>
</a>
</g>
</g>
<!-- user_contributions&#45;&gt;user -->
<g id="edge14" class="edge">
<title>user_contributions:w&#45;&gt;user:e</title>
<path fill="none" stroke="black" d="M700.51,-375.16C639.78,-376.61 618.54,-387.95 558,-417 506.55,-441.69 511.57,-493 454.5,-493"/>
<polygon fill="black" stroke="black" points="707,-375.09 715.04,-378.6 711,-375.04 715,-375 715,-375 715,-375 711,-375.04 714.96,-371.4 707,-375.09 707,-375.09"/>
<ellipse fill="none" stroke="black" cx="703.8" cy="-375.13" rx="3.2" ry="3.2"/>
</g>
</g>
</svg>
