<?xml version="1.0" encoding="UTF-8" standalone="no"?>
<!DOCTYPE svg PUBLIC "-//W3C//DTD SVG 1.1//EN"
 "http://www.w3.org/Graphics/SVG/1.1/DTD/svg11.dtd">
<!-- Generated by graphviz version 2.40.1 (20161225.0304)
 -->
<!-- Title: oneDegreeRelationshipsDiagramImplied Pages: 1 -->
<svg width="784pt" height="416pt"
 viewBox="0.00 0.00 784.00 416.00" xmlns="http://www.w3.org/2000/svg" xmlns:xlink="http://www.w3.org/1999/xlink">
<g id="graph0" class="graph" transform="scale(1 1) rotate(0) translate(4 412)">
<title>oneDegreeRelationshipsDiagramImplied</title>
<polygon fill="#ffffff" stroke="transparent" points="-4,4 -4,-412 780,-412 780,4 -4,4"/>
<text text-anchor="middle" x="71.5" y="-7.2" font-family="Helvetica,sans-Serif" font-size="11.00" fill="#000000">Generated by SchemaSpy</text>
<!-- iaa_edition_catalog -->
<g id="node1" class="node">
<title>iaa_edition_catalog</title>
<g id="a_node1"><a xlink:href="../../tables/iaa_edition_catalog.html" xlink:title="iaa_edition_catalog" target="_top">
<polygon fill="#ffffff" stroke="transparent" points="173,-37 173,-279 428,-279 428,-37 173,-37"/>
<polygon fill="#f5f5f5" stroke="transparent" points="175.5,-255 175.5,-277 426.5,-277 426.5,-255 175.5,-255"/>
<polygon fill="none" stroke="#000000" points="175.5,-255 175.5,-277 426.5,-277 426.5,-255 175.5,-255"/>
<text text-anchor="start" x="180.5" y="-264.2" font-family="Helvetica,sans-Serif" font-weight="bold" font-size="11.00" fill="#000000">iaa_edition_catalog</text>
<text text-anchor="start" x="391.5" y="-263.2" font-family="Helvetica,sans-Serif" font-size="11.00" fill="#000000">[table]</text>
<polygon fill="none" stroke="#000000" points="175.5,-233 175.5,-255 344.5,-255 344.5,-233 175.5,-233"/>
<image xlink:href="../../images/primaryKeys.png" width="11px" height="12px" preserveAspectRatio="xMinYMin meet" x="180.5" y="-250"/>
<text text-anchor="start" x="195.5" y="-241.2" font-family="Helvetica,sans-Serif" font-size="11.00" fill="#000000">iaa_edition_catalog_id</text>
<polygon fill="none" stroke="#000000" points="344.5,-233 344.5,-255 426.5,-255 426.5,-233 344.5,-233"/>
<text text-anchor="start" x="347.5" y="-241.2" font-family="Helvetica,sans-Serif" font-size="11.00" fill="#000000">int unsigned[10]</text>
<polygon fill="#ffffff" stroke="transparent" points="175.5,-211 175.5,-233 344.5,-233 344.5,-211 175.5,-211"/>
<polygon fill="none" stroke="#000000" points="175.5,-211 175.5,-233 344.5,-233 344.5,-211 175.5,-211"/>
<text text-anchor="start" x="195.5" y="-219.2" font-family="Helvetica,sans-Serif" font-size="11.00" fill="#000000">manuscript</text>
<polygon fill="none" stroke="#000000" points="344.5,-211 344.5,-233 426.5,-233 426.5,-211 344.5,-211"/>
<text text-anchor="start" x="347.5" y="-219.2" font-family="Helvetica,sans-Serif" font-size="11.00" fill="#000000">varchar[255]</text>
<polygon fill="#ffffff" stroke="transparent" points="175.5,-189 175.5,-211 344.5,-211 344.5,-189 175.5,-189"/>
<polygon fill="none" stroke="#000000" points="175.5,-189 175.5,-211 344.5,-211 344.5,-189 175.5,-189"/>
<text text-anchor="start" x="195.5" y="-197.2" font-family="Helvetica,sans-Serif" font-size="11.00" fill="#000000">edition_name</text>
<polygon fill="none" stroke="#000000" points="344.5,-189 344.5,-211 426.5,-211 426.5,-189 344.5,-189"/>
<text text-anchor="start" x="347.5" y="-197.2" font-family="Helvetica,sans-Serif" font-size="11.00" fill="#000000">varchar[255]</text>
<polygon fill="#ffffff" stroke="transparent" points="175.5,-167 175.5,-189 344.5,-189 344.5,-167 175.5,-167"/>
<polygon fill="none" stroke="#000000" points="175.5,-167 175.5,-189 344.5,-189 344.5,-167 175.5,-167"/>
<text text-anchor="start" x="195.5" y="-175.2" font-family="Helvetica,sans-Serif" font-size="11.00" fill="#000000">edition_volume</text>
<polygon fill="none" stroke="#000000" points="344.5,-167 344.5,-189 426.5,-189 426.5,-167 344.5,-167"/>
<text text-anchor="start" x="347.5" y="-175.2" font-family="Helvetica,sans-Serif" font-size="11.00" fill="#000000">varchar[128]</text>
<polygon fill="#ffffff" stroke="transparent" points="175.5,-145 175.5,-167 344.5,-167 344.5,-145 175.5,-145"/>
<polygon fill="none" stroke="#000000" points="175.5,-145 175.5,-167 344.5,-167 344.5,-145 175.5,-145"/>
<text text-anchor="start" x="195.5" y="-153.2" font-family="Helvetica,sans-Serif" font-size="11.00" fill="#000000">edition_location_1</text>
<polygon fill="none" stroke="#000000" points="344.5,-145 344.5,-167 426.5,-167 426.5,-145 344.5,-145"/>
<text text-anchor="start" x="347.5" y="-153.2" font-family="Helvetica,sans-Serif" font-size="11.00" fill="#000000">varchar[64]</text>
<polygon fill="#ffffff" stroke="transparent" points="175.5,-123 175.5,-145 344.5,-145 344.5,-123 175.5,-123"/>
<polygon fill="none" stroke="#000000" points="175.5,-123 175.5,-145 344.5,-145 344.5,-123 175.5,-123"/>
<text text-anchor="start" x="195.5" y="-131.2" font-family="Helvetica,sans-Serif" font-size="11.00" fill="#000000">edition_location_2</text>
<polygon fill="none" stroke="#000000" points="344.5,-123 344.5,-145 426.5,-145 426.5,-123 344.5,-123"/>
<text text-anchor="start" x="347.5" y="-131.2" font-family="Helvetica,sans-Serif" font-size="11.00" fill="#000000">varchar[64]</text>
<polygon fill="#ffffff" stroke="transparent" points="175.5,-101 175.5,-123 344.5,-123 344.5,-101 175.5,-101"/>
<polygon fill="none" stroke="#000000" points="175.5,-101 175.5,-123 344.5,-123 344.5,-101 175.5,-101"/>
<text text-anchor="start" x="195.5" y="-109.2" font-family="Helvetica,sans-Serif" font-size="11.00" fill="#000000">edition_side</text>
<polygon fill="none" stroke="#000000" points="344.5,-101 344.5,-123 426.5,-123 426.5,-101 344.5,-101"/>
<text text-anchor="start" x="347.5" y="-109.2" font-family="Helvetica,sans-Serif" font-size="11.00" fill="#000000">bit[3]</text>
<polygon fill="#ffffff" stroke="transparent" points="175.5,-79 175.5,-101 344.5,-101 344.5,-79 175.5,-79"/>
<polygon fill="none" stroke="#000000" points="175.5,-79 175.5,-101 344.5,-101 344.5,-79 175.5,-79"/>
<image xlink:href="../../images/foreignKeys.png" width="11px" height="12px" preserveAspectRatio="xMinYMin meet" x="180.5" y="-96"/>
<text text-anchor="start" x="195.5" y="-87.2" font-family="Helvetica,sans-Serif" font-size="11.00" fill="#000000">manuscript_id</text>
<polygon fill="none" stroke="#000000" points="344.5,-79 344.5,-101 426.5,-101 426.5,-79 344.5,-79"/>
<text text-anchor="start" x="347.5" y="-87.2" font-family="Helvetica,sans-Serif" font-size="11.00" fill="#000000">int unsigned[10]</text>
<polygon fill="none" stroke="#000000" points="175.5,-57 175.5,-79 344.5,-79 344.5,-57 175.5,-57"/>
<text text-anchor="start" x="195.5" y="-65.2" font-family="Helvetica,sans-Serif" font-size="11.00" fill="#000000">comment</text>
<polygon fill="none" stroke="#000000" points="344.5,-57 344.5,-79 426.5,-79 426.5,-57 344.5,-57"/>
<text text-anchor="start" x="347.5" y="-65.2" font-family="Helvetica,sans-Serif" font-size="11.00" fill="#000000">varchar[255]</text>
<polygon fill="#ffffff" stroke="transparent" points="175.5,-39 175.5,-57 237.5,-57 237.5,-39 175.5,-39"/>
<polygon fill="none" stroke="#000000" points="175.5,-39 175.5,-57 237.5,-57 237.5,-39 175.5,-39"/>
<text text-anchor="start" x="178.5" y="-45.2" font-family="Helvetica,sans-Serif" font-size="11.00" fill="#000000">&lt; 1</text>
<polygon fill="#ffffff" stroke="transparent" points="237.5,-39 237.5,-57 344.5,-57 344.5,-39 237.5,-39"/>
<polygon fill="none" stroke="#000000" points="237.5,-39 237.5,-57 344.5,-57 344.5,-39 237.5,-39"/>
<text text-anchor="start" x="281.5" y="-45.2" font-family="Helvetica,sans-Serif" font-size="11.00" fill="#000000">37,640 rows</text>
<polygon fill="#ffffff" stroke="transparent" points="344.5,-39 344.5,-57 426.5,-57 426.5,-39 344.5,-39"/>
<polygon fill="none" stroke="#000000" points="344.5,-39 344.5,-57 426.5,-57 426.5,-39 344.5,-39"/>
<text text-anchor="start" x="407.5" y="-45.2" font-family="Helvetica,sans-Serif" font-size="11.00" fill="#000000">3 &gt;</text>
<polygon fill="none" stroke="#000000" stroke-width="2" points="174,-38 174,-278 427,-278 427,-38 174,-38"/>
</a>
</g>
</g>
<!-- manuscript -->
<g id="node2" class="node">
<title>manuscript</title>
<g id="a_node2"><a xlink:href="../../tables/manuscript.html" xlink:title="manuscript" target="_top">
<polygon fill="#ffffff" stroke="transparent" points="8,-61 8,-123 124,-123 124,-61 8,-61"/>
<polygon fill="#f5f5f5" stroke="transparent" points="8,-101 8,-123 124,-123 124,-101 8,-101"/>
<polygon fill="none" stroke="#000000" points="8,-101 8,-123 124,-123 124,-101 8,-101"/>
<text text-anchor="start" x="13" y="-110.2" font-family="Helvetica,sans-Serif" font-weight="bold" font-size="11.00" fill="#000000">manuscript</text>
<text text-anchor="start" x="89" y="-109.2" font-family="Helvetica,sans-Serif" font-size="11.00" fill="#000000">[table]</text>
<polygon fill="none" stroke="#000000" points="8,-79 8,-101 124,-101 124,-79 8,-79"/>
<image xlink:href="../../images/primaryKeys.png" width="11px" height="12px" preserveAspectRatio="xMinYMin meet" x="13" y="-96"/>
<text text-anchor="start" x="28" y="-87.2" font-family="Helvetica,sans-Serif" font-size="11.00" fill="#000000">manuscript_id</text>
<polygon fill="#ffffff" stroke="transparent" points="8,-61 8,-79 31,-79 31,-61 8,-61"/>
<polygon fill="none" stroke="#000000" points="8,-61 8,-79 31,-79 31,-61 8,-61"/>
<text text-anchor="start" x="11" y="-67.2" font-family="Helvetica,sans-Serif" font-size="11.00" fill="#000000"> &#160;</text>
<polygon fill="#ffffff" stroke="transparent" points="31,-61 31,-79 96,-79 96,-61 31,-61"/>
<polygon fill="none" stroke="#000000" points="31,-61 31,-79 96,-79 96,-61 31,-61"/>
<text text-anchor="start" x="39" y="-67.2" font-family="Helvetica,sans-Serif" font-size="11.00" fill="#000000">1,645 rows</text>
<polygon fill="#ffffff" stroke="transparent" points="96,-61 96,-79 124,-79 124,-61 96,-61"/>
<polygon fill="none" stroke="#000000" points="96,-61 96,-79 124,-79 124,-61 96,-61"/>
<text text-anchor="start" x="105" y="-67.2" font-family="Helvetica,sans-Serif" font-size="11.00" fill="#000000">5 &gt;</text>
</a>
</g>
</g>
<!-- iaa_edition_catalog&#45;&gt;manuscript -->
<g id="edge1" class="edge">
<title>iaa_edition_catalog:w&#45;&gt;manuscript:e</title>
<path fill="none" stroke="#000000" d="M161.0156,-90C148.6771,-90 141.1667,-90 124,-90"/>
<polygon fill="#000000" stroke="#000000" points="167.5,-90.0001 175.5,-93.6 171.5,-90 175.5,-90 175.5,-90 175.5,-90 171.5,-90 175.5,-86.4 167.5,-90.0001 167.5,-90.0001"/>
<ellipse fill="none" stroke="#000000" cx="164.3" cy="-90.0001" rx="3.2" ry="3.2"/>
</g>
<!-- iaa_edition_catalog_author -->
<g id="node3" class="node">
<title>iaa_edition_catalog_author</title>
<g id="a_node3"><a xlink:href="../../tables/iaa_edition_catalog_author.html" xlink:title="iaa_edition_catalog_author" target="_top">
<polygon fill="#ffffff" stroke="transparent" points="522,-320 522,-404 723,-404 723,-320 522,-320"/>
<polygon fill="#f5f5f5" stroke="transparent" points="522.5,-382 522.5,-404 723.5,-404 723.5,-382 522.5,-382"/>
<polygon fill="none" stroke="#000000" points="522.5,-382 522.5,-404 723.5,-404 723.5,-382 522.5,-382"/>
<text text-anchor="start" x="527.5" y="-391.2" font-family="Helvetica,sans-Serif" font-weight="bold" font-size="11.00" fill="#000000">iaa_edition_catalog_author</text>
<text text-anchor="start" x="688.5" y="-390.2" font-family="Helvetica,sans-Serif" font-size="11.00" fill="#000000">[table]</text>
<polygon fill="none" stroke="#000000" points="522.5,-360 522.5,-382 723.5,-382 723.5,-360 522.5,-360"/>
<image xlink:href="../../images/primaryKeys.png" width="11px" height="12px" preserveAspectRatio="xMinYMin meet" x="527.5" y="-377"/>
<text text-anchor="start" x="542.5" y="-368.2" font-family="Helvetica,sans-Serif" font-size="11.00" fill="#000000">iaa_edition_catalog_id</text>
<polygon fill="#ffffff" stroke="transparent" points="522.5,-338 522.5,-360 723.5,-360 723.5,-338 522.5,-338"/>
<polygon fill="none" stroke="#000000" points="522.5,-338 522.5,-360 723.5,-360 723.5,-338 522.5,-338"/>
<image xlink:href="../../images/foreignKeys.png" width="11px" height="12px" preserveAspectRatio="xMinYMin meet" x="527.5" y="-355"/>
<text text-anchor="start" x="542.5" y="-346.2" font-family="Helvetica,sans-Serif" font-size="11.00" fill="#000000">user_id</text>
<polygon fill="#ffffff" stroke="transparent" points="522.5,-320 522.5,-338 594.5,-338 594.5,-320 522.5,-320"/>
<polygon fill="none" stroke="#000000" points="522.5,-320 522.5,-338 594.5,-338 594.5,-320 522.5,-320"/>
<text text-anchor="start" x="525.5" y="-326.2" font-family="Helvetica,sans-Serif" font-size="11.00" fill="#000000">&lt; 2</text>
<polygon fill="#ffffff" stroke="transparent" points="594.5,-320 594.5,-338 685.5,-338 685.5,-320 594.5,-320"/>
<polygon fill="none" stroke="#000000" points="594.5,-320 594.5,-338 685.5,-338 685.5,-320 594.5,-320"/>
<text text-anchor="start" x="622.5" y="-326.2" font-family="Helvetica,sans-Serif" font-size="11.00" fill="#000000">38,546 rows</text>
<polygon fill="#ffffff" stroke="transparent" points="685.5,-320 685.5,-338 723.5,-338 723.5,-320 685.5,-320"/>
<polygon fill="none" stroke="#000000" points="685.5,-320 685.5,-338 723.5,-338 723.5,-320 685.5,-320"/>
<text text-anchor="start" x="713.5" y="-326.2" font-family="Helvetica,sans-Serif" font-size="11.00" fill="#000000"> &#160;</text>
</a>
</g>
</g>
<!-- iaa_edition_catalog_author&#45;&gt;iaa_edition_catalog -->
<g id="edge2" class="edge">
<title>iaa_edition_catalog_author:w&#45;&gt;iaa_edition_catalog:e</title>
<path fill="none" stroke="#000000" d="M512.0282,-369.8908C487.0625,-363.9957 488.3354,-335.6443 469,-310 447.9957,-282.1423 461.3889,-244 426.5,-244"/>
<polygon fill="#000000" stroke="#000000" points="522.1258,-366.938 521.2831,-374.8935 519.692,-374.7249 520.5347,-366.7694 522.1258,-366.938"/>
<polyline fill="none" stroke="#000000" points="522.5,-371 518.5223,-370.5786 "/>
<ellipse fill="none" stroke="#000000" cx="515.3401" cy="-370.2415" rx="3.2" ry="3.2"/>
</g>
<!-- iaa_edition_catalog_to_text_fragment -->
<g id="node4" class="node">
<title>iaa_edition_catalog_to_text_fragment</title>
<g id="a_node4"><a xlink:href="../../tables/iaa_edition_catalog_to_text_fragment.html" xlink:title="iaa_edition_catalog_to_text_fragment" target="_top">
<polygon fill="#ffffff" stroke="transparent" points="477,-193 477,-299 768,-299 768,-193 477,-193"/>
<polygon fill="#f5f5f5" stroke="transparent" points="477.5,-277 477.5,-299 768.5,-299 768.5,-277 477.5,-277"/>
<polygon fill="none" stroke="#000000" points="477.5,-277 477.5,-299 768.5,-299 768.5,-277 477.5,-277"/>
<text text-anchor="start" x="482.5" y="-286.2" font-family="Helvetica,sans-Serif" font-weight="bold" font-size="11.00" fill="#000000">iaa_edition_catalog_to_text_fragment</text>
<text text-anchor="start" x="733.5" y="-285.2" font-family="Helvetica,sans-Serif" font-size="11.00" fill="#000000">[table]</text>
<polygon fill="none" stroke="#000000" points="477.5,-255 477.5,-277 768.5,-277 768.5,-255 477.5,-255"/>
<image xlink:href="../../images/primaryKeys.png" width="11px" height="12px" preserveAspectRatio="xMinYMin meet" x="482.5" y="-272"/>
<text text-anchor="start" x="497.5" y="-263.2" font-family="Helvetica,sans-Serif" font-size="11.00" fill="#000000">iaa_edition_catalog_to_text_fragment_id</text>
<polygon fill="#ffffff" stroke="transparent" points="477.5,-233 477.5,-255 768.5,-255 768.5,-233 477.5,-233"/>
<polygon fill="none" stroke="#000000" points="477.5,-233 477.5,-255 768.5,-255 768.5,-233 477.5,-233"/>
<image xlink:href="../../images/foreignKeys.png" width="11px" height="12px" preserveAspectRatio="xMinYMin meet" x="482.5" y="-250"/>
<text text-anchor="start" x="497.5" y="-241.2" font-family="Helvetica,sans-Serif" font-size="11.00" fill="#000000">iaa_edition_catalog_id</text>
<polygon fill="#ffffff" stroke="transparent" points="477.5,-211 477.5,-233 768.5,-233 768.5,-211 477.5,-211"/>
<polygon fill="none" stroke="#000000" points="477.5,-211 477.5,-233 768.5,-233 768.5,-211 477.5,-211"/>
<image xlink:href="../../images/foreignKeys.png" width="11px" height="12px" preserveAspectRatio="xMinYMin meet" x="482.5" y="-228"/>
<text text-anchor="start" x="497.5" y="-219.2" font-family="Helvetica,sans-Serif" font-size="11.00" fill="#000000">text_fragment_id</text>
<polygon fill="#ffffff" stroke="transparent" points="477.5,-193 477.5,-211 589.5,-211 589.5,-193 477.5,-193"/>
<polygon fill="none" stroke="#000000" points="477.5,-193 477.5,-211 589.5,-211 589.5,-193 477.5,-193"/>
<text text-anchor="start" x="480.5" y="-199.2" font-family="Helvetica,sans-Serif" font-size="11.00" fill="#000000">&lt; 2</text>
<polygon fill="#ffffff" stroke="transparent" points="589.5,-193 589.5,-211 700.5,-211 700.5,-193 589.5,-193"/>
<polygon fill="none" stroke="#000000" points="589.5,-193 589.5,-211 700.5,-211 700.5,-193 589.5,-193"/>
<text text-anchor="start" x="637.5" y="-199.2" font-family="Helvetica,sans-Serif" font-size="11.00" fill="#000000">15,236 rows</text>
<polygon fill="#ffffff" stroke="transparent" points="700.5,-193 700.5,-211 768.5,-211 768.5,-193 700.5,-193"/>
<polygon fill="none" stroke="#000000" points="700.5,-193 700.5,-211 768.5,-211 768.5,-193 700.5,-193"/>
<text text-anchor="start" x="749.5" y="-199.2" font-family="Helvetica,sans-Serif" font-size="11.00" fill="#000000">1 &gt;</text>
</a>
</g>
</g>
<!-- iaa_edition_catalog_to_text_fragment&#45;&gt;iaa_edition_catalog -->
<g id="edge3" class="edge">
<title>iaa_edition_catalog_to_text_fragment:w&#45;&gt;iaa_edition_catalog:e</title>
<path fill="none" stroke="#000000" d="M462.776,-244C450.7815,-244 443.3229,-244 426.5,-244"/>
<polygon fill="#000000" stroke="#000000" points="469.5,-244.0001 477.5,-247.6 473.5,-244 477.5,-244 477.5,-244 477.5,-244 473.5,-244 477.5,-240.4 469.5,-244.0001 469.5,-244.0001"/>
<ellipse fill="none" stroke="#000000" cx="466.3" cy="-244.0001" rx="3.2" ry="3.2"/>
</g>
<!-- image_to_iaa_edition_catalog -->
<g id="node5" class="node">
<title>image_to_iaa_edition_catalog</title>
<g id="a_node5"><a xlink:href="../../tables/image_to_iaa_edition_catalog.html" xlink:title="image_to_iaa_edition_catalog" target="_top">
<polygon fill="#ffffff" stroke="transparent" points="513.5,-88 513.5,-172 731.5,-172 731.5,-88 513.5,-88"/>
<polygon fill="#f5f5f5" stroke="transparent" points="513.5,-150 513.5,-172 731.5,-172 731.5,-150 513.5,-150"/>
<polygon fill="none" stroke="#000000" points="513.5,-150 513.5,-172 731.5,-172 731.5,-150 513.5,-150"/>
<text text-anchor="start" x="518.5" y="-159.2" font-family="Helvetica,sans-Serif" font-weight="bold" font-size="11.00" fill="#000000">image_to_iaa_edition_catalog</text>
<text text-anchor="start" x="696.5" y="-158.2" font-family="Helvetica,sans-Serif" font-size="11.00" fill="#000000">[table]</text>
<polygon fill="none" stroke="#000000" points="513.5,-128 513.5,-150 731.5,-150 731.5,-128 513.5,-128"/>
<image xlink:href="../../images/primaryKeys.png" width="11px" height="12px" preserveAspectRatio="xMinYMin meet" x="518.5" y="-145"/>
<text text-anchor="start" x="533.5" y="-136.2" font-family="Helvetica,sans-Serif" font-size="11.00" fill="#000000">iaa_edition_catalog_id</text>
<polygon fill="none" stroke="#000000" points="513.5,-106 513.5,-128 731.5,-128 731.5,-106 513.5,-106"/>
<image xlink:href="../../images/primaryKeys.png" width="11px" height="12px" preserveAspectRatio="xMinYMin meet" x="518.5" y="-123"/>
<text text-anchor="start" x="533.5" y="-114.2" font-family="Helvetica,sans-Serif" font-size="11.00" fill="#000000">image_catalog_id</text>
<polygon fill="#ffffff" stroke="transparent" points="513.5,-88 513.5,-106 593.5,-106 593.5,-88 513.5,-88"/>
<polygon fill="none" stroke="#000000" points="513.5,-88 513.5,-106 593.5,-106 593.5,-88 513.5,-88"/>
<text text-anchor="start" x="516.5" y="-94.2" font-family="Helvetica,sans-Serif" font-size="11.00" fill="#000000">&lt; 2</text>
<polygon fill="#ffffff" stroke="transparent" points="593.5,-88 593.5,-106 688.5,-106 688.5,-88 593.5,-88"/>
<polygon fill="none" stroke="#000000" points="593.5,-88 593.5,-106 688.5,-106 688.5,-88 593.5,-88"/>
<text text-anchor="start" x="625.5" y="-94.2" font-family="Helvetica,sans-Serif" font-size="11.00" fill="#000000">39,105 rows</text>
<polygon fill="#ffffff" stroke="transparent" points="688.5,-88 688.5,-106 731.5,-106 731.5,-88 688.5,-88"/>
<polygon fill="none" stroke="#000000" points="688.5,-88 688.5,-106 731.5,-106 731.5,-88 688.5,-88"/>
<text text-anchor="start" x="721.5" y="-94.2" font-family="Helvetica,sans-Serif" font-size="11.00" fill="#000000"> &#160;</text>
</a>
</g>
</g>
<!-- image_to_iaa_edition_catalog&#45;&gt;iaa_edition_catalog -->
<g id="edge4" class="edge">
<title>image_to_iaa_edition_catalog:w&#45;&gt;iaa_edition_catalog:e</title>
<path fill="none" stroke="#000000" d="M499.3235,-141.8064C485.3525,-148.522 483.1347,-166.2114 469,-183 447.7189,-208.2768 459.5424,-244 426.5,-244"/>
<polygon fill="#000000" stroke="#000000" points="505.6523,-140.5536 514.1991,-142.5315 509.5761,-139.7768 513.5,-139 513.5,-139 513.5,-139 509.5761,-139.7768 512.8009,-135.4685 505.6523,-140.5536 505.6523,-140.5536"/>
<ellipse fill="none" stroke="#000000" cx="502.5132" cy="-141.175" rx="3.2" ry="3.2"/>
</g>
</g>
</svg>
