<?xml version="1.0" encoding="UTF-8" standalone="no"?>
<!DOCTYPE svg PUBLIC "-//W3C//DTD SVG 1.1//EN"
 "http://www.w3.org/Graphics/SVG/1.1/DTD/svg11.dtd">
<!-- Generated by graphviz version 2.40.1 (20161225.0304)
 -->
<!-- Title: oneDegreeRelationshipsDiagramImplied Pages: 1 -->
<svg width="529pt" height="406pt"
 viewBox="0.00 0.00 529.00 406.00" xmlns="http://www.w3.org/2000/svg" xmlns:xlink="http://www.w3.org/1999/xlink">
<g id="graph0" class="graph" transform="scale(1 1) rotate(0) translate(4 402)">
<title>oneDegreeRelationshipsDiagramImplied</title>
<polygon fill="#ffffff" stroke="transparent" points="-4,4 -4,-402 525,-402 525,4 -4,4"/>
<text text-anchor="middle" x="71.5" y="-7.2" font-family="Helvetica,sans-Serif" font-size="11.00" fill="#000000">Generated by SchemaSpy</text>
<!-- iaa_edition_catalog_author -->
<g id="node1" class="node">
<title>iaa_edition_catalog_author</title>
<g id="a_node1"><a xlink:href="../../tables/iaa_edition_catalog_author.html" xlink:title="iaa_edition_catalog_author" target="_top">
<polygon fill="#ffffff" stroke="transparent" points="226,-191 226,-279 513,-279 513,-191 226,-191"/>
<polygon fill="#f5f5f5" stroke="transparent" points="228.5,-255 228.5,-277 511.5,-277 511.5,-255 228.5,-255"/>
<polygon fill="none" stroke="#000000" points="228.5,-255 228.5,-277 511.5,-277 511.5,-255 228.5,-255"/>
<text text-anchor="start" x="233.5" y="-264.2" font-family="Helvetica,sans-Serif" font-weight="bold" font-size="11.00" fill="#000000">iaa_edition_catalog_author</text>
<text text-anchor="start" x="476.5" y="-263.2" font-family="Helvetica,sans-Serif" font-size="11.00" fill="#000000">[table]</text>
<polygon fill="none" stroke="#000000" points="228.5,-233 228.5,-255 429.5,-255 429.5,-233 228.5,-233"/>
<image xlink:href="../../images/primaryKeys.png" width="11px" height="12px" preserveAspectRatio="xMinYMin meet" x="233.5" y="-250"/>
<text text-anchor="start" x="248.5" y="-241.2" font-family="Helvetica,sans-Serif" font-size="11.00" fill="#000000">iaa_edition_catalog_id</text>
<polygon fill="none" stroke="#000000" points="429.5,-233 429.5,-255 511.5,-255 511.5,-233 429.5,-233"/>
<text text-anchor="start" x="432.5" y="-241.2" font-family="Helvetica,sans-Serif" font-size="11.00" fill="#000000">int unsigned[10]</text>
<polygon fill="#ffffff" stroke="transparent" points="228.5,-211 228.5,-233 429.5,-233 429.5,-211 228.5,-211"/>
<polygon fill="none" stroke="#000000" points="228.5,-211 228.5,-233 429.5,-233 429.5,-211 228.5,-211"/>
<image xlink:href="../../images/foreignKeys.png" width="11px" height="12px" preserveAspectRatio="xMinYMin meet" x="233.5" y="-228"/>
<text text-anchor="start" x="248.5" y="-219.2" font-family="Helvetica,sans-Serif" font-size="11.00" fill="#000000">user_id</text>
<polygon fill="none" stroke="#000000" points="429.5,-211 429.5,-233 511.5,-233 511.5,-211 429.5,-211"/>
<text text-anchor="start" x="432.5" y="-219.2" font-family="Helvetica,sans-Serif" font-size="11.00" fill="#000000">int unsigned[10]</text>
<polygon fill="#ffffff" stroke="transparent" points="228.5,-193 228.5,-211 306.5,-211 306.5,-193 228.5,-193"/>
<polygon fill="none" stroke="#000000" points="228.5,-193 228.5,-211 306.5,-211 306.5,-193 228.5,-193"/>
<text text-anchor="start" x="231.5" y="-199.2" font-family="Helvetica,sans-Serif" font-size="11.00" fill="#000000">&lt; 2</text>
<polygon fill="#ffffff" stroke="transparent" points="306.5,-193 306.5,-211 429.5,-211 429.5,-193 306.5,-193"/>
<polygon fill="none" stroke="#000000" points="306.5,-193 306.5,-211 429.5,-211 429.5,-193 306.5,-193"/>
<text text-anchor="start" x="366.5" y="-199.2" font-family="Helvetica,sans-Serif" font-size="11.00" fill="#000000">38,546 rows</text>
<polygon fill="#ffffff" stroke="transparent" points="429.5,-193 429.5,-211 511.5,-211 511.5,-193 429.5,-193"/>
<polygon fill="none" stroke="#000000" points="429.5,-193 429.5,-211 511.5,-211 511.5,-193 429.5,-193"/>
<text text-anchor="start" x="492.5" y="-199.2" font-family="Helvetica,sans-Serif" font-size="11.00" fill="#000000">0 &gt;</text>
<polygon fill="none" stroke="#000000" stroke-width="2" points="227,-192 227,-278 512,-278 512,-192 227,-192"/>
</a>
</g>
</g>
<!-- iaa_edition_catalog -->
<g id="node2" class="node">
<title>iaa_edition_catalog</title>
<g id="a_node2"><a xlink:href="../../tables/iaa_edition_catalog.html" xlink:title="iaa_edition_catalog" target="_top">
<polygon fill="#ffffff" stroke="transparent" points="8,-160 8,-394 177,-394 177,-160 8,-160"/>
<polygon fill="#f5f5f5" stroke="transparent" points="8.5,-372 8.5,-394 177.5,-394 177.5,-372 8.5,-372"/>
<polygon fill="none" stroke="#000000" points="8.5,-372 8.5,-394 177.5,-394 177.5,-372 8.5,-372"/>
<text text-anchor="start" x="13.5" y="-381.2" font-family="Helvetica,sans-Serif" font-weight="bold" font-size="11.00" fill="#000000">iaa_edition_catalog</text>
<text text-anchor="start" x="142.5" y="-380.2" font-family="Helvetica,sans-Serif" font-size="11.00" fill="#000000">[table]</text>
<polygon fill="none" stroke="#000000" points="8.5,-350 8.5,-372 177.5,-372 177.5,-350 8.5,-350"/>
<image xlink:href="../../images/primaryKeys.png" width="11px" height="12px" preserveAspectRatio="xMinYMin meet" x="13.5" y="-367"/>
<text text-anchor="start" x="28.5" y="-358.2" font-family="Helvetica,sans-Serif" font-size="11.00" fill="#000000">iaa_edition_catalog_id</text>
<polygon fill="#ffffff" stroke="transparent" points="8.5,-328 8.5,-350 177.5,-350 177.5,-328 8.5,-328"/>
<polygon fill="none" stroke="#000000" points="8.5,-328 8.5,-350 177.5,-350 177.5,-328 8.5,-328"/>
<text text-anchor="start" x="28.5" y="-336.2" font-family="Helvetica,sans-Serif" font-size="11.00" fill="#000000">manuscript</text>
<polygon fill="#ffffff" stroke="transparent" points="8.5,-306 8.5,-328 177.5,-328 177.5,-306 8.5,-306"/>
<polygon fill="none" stroke="#000000" points="8.5,-306 8.5,-328 177.5,-328 177.5,-306 8.5,-306"/>
<text text-anchor="start" x="28.5" y="-314.2" font-family="Helvetica,sans-Serif" font-size="11.00" fill="#000000">edition_name</text>
<polygon fill="#ffffff" stroke="transparent" points="8.5,-284 8.5,-306 177.5,-306 177.5,-284 8.5,-284"/>
<polygon fill="none" stroke="#000000" points="8.5,-284 8.5,-306 177.5,-306 177.5,-284 8.5,-284"/>
<text text-anchor="start" x="28.5" y="-292.2" font-family="Helvetica,sans-Serif" font-size="11.00" fill="#000000">edition_volume</text>
<polygon fill="#ffffff" stroke="transparent" points="8.5,-262 8.5,-284 177.5,-284 177.5,-262 8.5,-262"/>
<polygon fill="none" stroke="#000000" points="8.5,-262 8.5,-284 177.5,-284 177.5,-262 8.5,-262"/>
<text text-anchor="start" x="28.5" y="-270.2" font-family="Helvetica,sans-Serif" font-size="11.00" fill="#000000">edition_location_1</text>
<polygon fill="#ffffff" stroke="transparent" points="8.5,-240 8.5,-262 177.5,-262 177.5,-240 8.5,-240"/>
<polygon fill="none" stroke="#000000" points="8.5,-240 8.5,-262 177.5,-262 177.5,-240 8.5,-240"/>
<text text-anchor="start" x="28.5" y="-248.2" font-family="Helvetica,sans-Serif" font-size="11.00" fill="#000000">edition_location_2</text>
<polygon fill="#ffffff" stroke="transparent" points="8.5,-218 8.5,-240 177.5,-240 177.5,-218 8.5,-218"/>
<polygon fill="none" stroke="#000000" points="8.5,-218 8.5,-240 177.5,-240 177.5,-218 8.5,-218"/>
<text text-anchor="start" x="28.5" y="-226.2" font-family="Helvetica,sans-Serif" font-size="11.00" fill="#000000">edition_side</text>
<polygon fill="#ffffff" stroke="transparent" points="8.5,-196 8.5,-218 177.5,-218 177.5,-196 8.5,-196"/>
<polygon fill="none" stroke="#000000" points="8.5,-196 8.5,-218 177.5,-218 177.5,-196 8.5,-196"/>
<image xlink:href="../../images/foreignKeys.png" width="11px" height="12px" preserveAspectRatio="xMinYMin meet" x="13.5" y="-213"/>
<text text-anchor="start" x="28.5" y="-204.2" font-family="Helvetica,sans-Serif" font-size="11.00" fill="#000000">manuscript_id</text>
<polygon fill="none" stroke="#000000" points="8.5,-178 8.5,-196 177.5,-196 177.5,-178 8.5,-178"/>
<text text-anchor="start" x="11.5" y="-184.2" font-family="Helvetica,sans-Serif" font-size="11.00" fill="#000000">...</text>
<polygon fill="#ffffff" stroke="transparent" points="8.5,-160 8.5,-178 59.5,-178 59.5,-160 8.5,-160"/>
<polygon fill="none" stroke="#000000" points="8.5,-160 8.5,-178 59.5,-178 59.5,-160 8.5,-160"/>
<text text-anchor="start" x="11.5" y="-166.2" font-family="Helvetica,sans-Serif" font-size="11.00" fill="#000000">&lt; 1</text>
<polygon fill="#ffffff" stroke="transparent" points="59.5,-160 59.5,-178 140.5,-178 140.5,-160 59.5,-160"/>
<polygon fill="none" stroke="#000000" points="59.5,-160 59.5,-178 140.5,-178 140.5,-160 59.5,-160"/>
<text text-anchor="start" x="77.5" y="-166.2" font-family="Helvetica,sans-Serif" font-size="11.00" fill="#000000">37,640 rows</text>
<polygon fill="#ffffff" stroke="transparent" points="140.5,-160 140.5,-178 177.5,-178 177.5,-160 140.5,-160"/>
<polygon fill="none" stroke="#000000" points="140.5,-160 140.5,-178 177.5,-178 177.5,-160 140.5,-160"/>
<text text-anchor="start" x="158.5" y="-166.2" font-family="Helvetica,sans-Serif" font-size="11.00" fill="#000000">3 &gt;</text>
</a>
</g>
</g>
<!-- iaa_edition_catalog_author&#45;&gt;iaa_edition_catalog -->
<g id="edge1" class="edge">
<title>iaa_edition_catalog_author:w&#45;&gt;iaa_edition_catalog:e</title>
<path fill="none" stroke="#000000" d="M218.2192,-245.6539C179.9675,-259.8747 230.237,-361 177.5,-361"/>
<polygon fill="#000000" stroke="#000000" points="227.0748,-240.1779 228.3455,-248.0763 226.7658,-248.3304 225.4951,-240.432 227.0748,-240.1779"/>
<polyline fill="none" stroke="#000000" points="228.5,-244 224.5508,-244.6354 "/>
<ellipse fill="none" stroke="#000000" cx="221.3914" cy="-245.1437" rx="3.2" ry="3.2"/>
</g>
<!-- user -->
<g id="node3" class="node">
<title>user</title>
<g id="a_node3"><a xlink:href="../../tables/user.html" xlink:title="user" target="_top">
<polygon fill="#ffffff" stroke="transparent" points="11,-37 11,-139 174,-139 174,-37 11,-37"/>
<polygon fill="#f5f5f5" stroke="transparent" points="11.5,-117 11.5,-139 174.5,-139 174.5,-117 11.5,-117"/>
<polygon fill="none" stroke="#000000" points="11.5,-117 11.5,-139 174.5,-139 174.5,-117 11.5,-117"/>
<text text-anchor="start" x="16.5" y="-126.2" font-family="Helvetica,sans-Serif" font-weight="bold" font-size="11.00" fill="#000000">user</text>
<text text-anchor="start" x="139.5" y="-125.2" font-family="Helvetica,sans-Serif" font-size="11.00" fill="#000000">[table]</text>
<polygon fill="none" stroke="#000000" points="11.5,-95 11.5,-117 174.5,-117 174.5,-95 11.5,-95"/>
<image xlink:href="../../images/primaryKeys.png" width="11px" height="12px" preserveAspectRatio="xMinYMin meet" x="16.5" y="-112"/>
<text text-anchor="start" x="31.5" y="-103.2" font-family="Helvetica,sans-Serif" font-size="11.00" fill="#000000">user_id</text>
<polygon fill="#ffffff" stroke="transparent" points="11.5,-73 11.5,-95 174.5,-95 174.5,-73 11.5,-73"/>
<polygon fill="none" stroke="#000000" points="11.5,-73 11.5,-95 174.5,-95 174.5,-73 11.5,-73"/>
<text text-anchor="start" x="31.5" y="-81.2" font-family="Helvetica,sans-Serif" font-size="11.00" fill="#000000">email</text>
<polygon fill="none" stroke="#000000" points="11.5,-55 11.5,-73 174.5,-73 174.5,-55 11.5,-55"/>
<text text-anchor="start" x="14.5" y="-61.2" font-family="Helvetica,sans-Serif" font-size="11.00" fill="#000000">...</text>
<polygon fill="#ffffff" stroke="transparent" points="11.5,-37 11.5,-55 65.5,-55 65.5,-37 11.5,-37"/>
<polygon fill="none" stroke="#000000" points="11.5,-37 11.5,-55 65.5,-55 65.5,-37 11.5,-37"/>
<text text-anchor="start" x="14.5" y="-43.2" font-family="Helvetica,sans-Serif" font-size="11.00" fill="#000000"> &#160;</text>
<polygon fill="#ffffff" stroke="transparent" points="65.5,-37 65.5,-55 125.5,-55 125.5,-37 65.5,-37"/>
<polygon fill="none" stroke="#000000" points="65.5,-37 65.5,-55 125.5,-55 125.5,-37 65.5,-37"/>
<text text-anchor="start" x="89.5" y="-43.2" font-family="Helvetica,sans-Serif" font-size="11.00" fill="#000000">3 rows</text>
<polygon fill="#ffffff" stroke="transparent" points="125.5,-37 125.5,-55 174.5,-55 174.5,-37 125.5,-37"/>
<polygon fill="none" stroke="#000000" points="125.5,-37 125.5,-55 174.5,-55 174.5,-37 125.5,-37"/>
<text text-anchor="start" x="149.5" y="-43.2" font-family="Helvetica,sans-Serif" font-size="11.00" fill="#000000">40 &gt;</text>
</a>
</g>
</g>
<!-- iaa_edition_catalog_author&#45;&gt;user -->
<g id="edge2" class="edge">
<title>iaa_edition_catalog_author:w&#45;&gt;user:e</title>
<path fill="none" stroke="#000000" d="M214.1242,-218.4011C182.9355,-198.8216 225.3702,-106 174.5,-106"/>
<polygon fill="#000000" stroke="#000000" points="220.7395,-220.0572 227.6257,-225.4922 224.6197,-221.0286 228.5,-222 228.5,-222 228.5,-222 224.6197,-221.0286 229.3743,-218.5078 220.7395,-220.0572 220.7395,-220.0572"/>
<ellipse fill="none" stroke="#000000" cx="217.6353" cy="-219.2801" rx="3.2" ry="3.2"/>
</g>
</g>
</svg>
