<?xml version="1.0" encoding="UTF-8" standalone="no"?>
<!DOCTYPE svg PUBLIC "-//W3C//DTD SVG 1.1//EN"
 "http://www.w3.org/Graphics/SVG/1.1/DTD/svg11.dtd">
<!-- Generated by graphviz version 2.43.0 (0)
 -->
<!-- Title: oneDegreeRelationshipsDiagram Pages: 1 -->
<svg width="544pt" height="406pt"
 viewBox="0.00 0.00 544.00 406.00" xmlns="http://www.w3.org/2000/svg" xmlns:xlink="http://www.w3.org/1999/xlink">
<g id="graph0" class="graph" transform="scale(1 1) rotate(0) translate(4 402)">
<title>oneDegreeRelationshipsDiagram</title>
<polygon fill="#ffffff" stroke="transparent" points="-4,4 -4,-402 540,-402 540,4 -4,4"/>
<text text-anchor="middle" x="79.5" y="-7.2" font-family="Helvetica,sans-Serif" font-size="11.00">Generated by SchemaSpy</text>
<!-- iaa_edition_catalog_author -->
<g id="node1" class="node">
<title>iaa_edition_catalog_author</title>
<g id="a_node1"><a xlink:href="../../tables/iaa_edition_catalog_author.html" xlink:title="iaa_edition_catalog_author" target="_top">
<polygon fill="#ffffff" stroke="transparent" points="226,-191 226,-279 528,-279 528,-191 226,-191"/>
<polygon fill="#f5f5f5" stroke="transparent" points="228,-255 228,-277 526,-277 526,-255 228,-255"/>
<polygon fill="none" stroke="black" points="228,-255 228,-277 526,-277 526,-255 228,-255"/>
<text text-anchor="start" x="233" y="-264.2" font-family="Helvetica,sans-Serif" font-weight="bold" font-size="11.00">iaa_edition_catalog_author</text>
<text text-anchor="start" x="484" y="-263.2" font-family="Helvetica,sans-Serif" font-size="11.00">[table]</text>
<polygon fill="none" stroke="black" points="228,-233 228,-255 429,-255 429,-233 228,-233"/>
<image xlink:href="../../images/primaryKeys.png" width="11px" height="12px" preserveAspectRatio="xMinYMin meet" x="233" y="-250"/>
<text text-anchor="start" x="248" y="-241.2" font-family="Helvetica,sans-Serif" font-size="11.00">iaa_edition_catalog_id</text>
<polygon fill="none" stroke="black" points="429,-233 429,-255 526,-255 526,-233 429,-233"/>
<text text-anchor="start" x="432" y="-241.2" font-family="Helvetica,sans-Serif" font-size="11.00">int unsigned[10]</text>
<polygon fill="#ffffff" stroke="transparent" points="228,-211 228,-233 429,-233 429,-211 228,-211"/>
<polygon fill="none" stroke="black" points="228,-211 228,-233 429,-233 429,-211 228,-211"/>
<image xlink:href="../../images/foreignKeys.png" width="11px" height="12px" preserveAspectRatio="xMinYMin meet" x="233" y="-228"/>
<text text-anchor="start" x="248" y="-219.2" font-family="Helvetica,sans-Serif" font-size="11.00">user_id</text>
<polygon fill="none" stroke="black" points="429,-211 429,-233 526,-233 526,-211 429,-211"/>
<text text-anchor="start" x="432" y="-219.2" font-family="Helvetica,sans-Serif" font-size="11.00">int unsigned[10]</text>
<polygon fill="#ffffff" stroke="transparent" points="228,-193 228,-211 304,-211 304,-193 228,-193"/>
<polygon fill="none" stroke="black" points="228,-193 228,-211 304,-211 304,-193 228,-193"/>
<text text-anchor="start" x="231" y="-199.2" font-family="Helvetica,sans-Serif" font-size="11.00">&lt; 2</text>
<polygon fill="#ffffff" stroke="transparent" points="304,-193 304,-211 429,-211 429,-193 304,-193"/>
<polygon fill="none" stroke="black" points="304,-193 304,-211 429,-211 429,-193 304,-193"/>
<text text-anchor="start" x="358" y="-199.2" font-family="Helvetica,sans-Serif" font-size="11.00">39,537 rows</text>
<polygon fill="#ffffff" stroke="transparent" points="429,-193 429,-211 526,-211 526,-193 429,-193"/>
<polygon fill="none" stroke="black" points="429,-193 429,-211 526,-211 526,-193 429,-193"/>
<text text-anchor="start" x="503" y="-199.2" font-family="Helvetica,sans-Serif" font-size="11.00">0 &gt;</text>
<polygon fill="none" stroke="black" stroke-width="2" points="227,-192 227,-278 527,-278 527,-192 227,-192"/>
</a>
</g>
</g>
<!-- iaa_edition_catalog -->
<g id="node2" class="node">
<title>iaa_edition_catalog</title>
<g id="a_node2"><a xlink:href="../../tables/iaa_edition_catalog.html" xlink:title="iaa_edition_catalog" target="_top">
<polygon fill="#ffffff" stroke="transparent" points="8,-160 8,-394 177,-394 177,-160 8,-160"/>
<polygon fill="#f5f5f5" stroke="transparent" points="8.5,-372 8.5,-394 177.5,-394 177.5,-372 8.5,-372"/>
<polygon fill="none" stroke="black" points="8.5,-372 8.5,-394 177.5,-394 177.5,-372 8.5,-372"/>
<text text-anchor="start" x="13.5" y="-381.2" font-family="Helvetica,sans-Serif" font-weight="bold" font-size="11.00">iaa_edition_catalog</text>
<text text-anchor="start" x="135.5" y="-380.2" font-family="Helvetica,sans-Serif" font-size="11.00">[table]</text>
<polygon fill="none" stroke="black" points="8.5,-350 8.5,-372 177.5,-372 177.5,-350 8.5,-350"/>
<image xlink:href="../../images/primaryKeys.png" width="11px" height="12px" preserveAspectRatio="xMinYMin meet" x="13.5" y="-367"/>
<text text-anchor="start" x="28.5" y="-358.2" font-family="Helvetica,sans-Serif" font-size="11.00">iaa_edition_catalog_id</text>
<polygon fill="#ffffff" stroke="transparent" points="8.5,-328 8.5,-350 177.5,-350 177.5,-328 8.5,-328"/>
<polygon fill="none" stroke="black" points="8.5,-328 8.5,-350 177.5,-350 177.5,-328 8.5,-328"/>
<text text-anchor="start" x="28.5" y="-336.2" font-family="Helvetica,sans-Serif" font-size="11.00">manuscript</text>
<polygon fill="#ffffff" stroke="transparent" points="8.5,-306 8.5,-328 177.5,-328 177.5,-306 8.5,-306"/>
<polygon fill="none" stroke="black" points="8.5,-306 8.5,-328 177.5,-328 177.5,-306 8.5,-306"/>
<text text-anchor="start" x="28.5" y="-314.2" font-family="Helvetica,sans-Serif" font-size="11.00">edition_name</text>
<polygon fill="#ffffff" stroke="transparent" points="8.5,-284 8.5,-306 177.5,-306 177.5,-284 8.5,-284"/>
<polygon fill="none" stroke="black" points="8.5,-284 8.5,-306 177.5,-306 177.5,-284 8.5,-284"/>
<text text-anchor="start" x="28.5" y="-292.2" font-family="Helvetica,sans-Serif" font-size="11.00">edition_volume</text>
<polygon fill="#ffffff" stroke="transparent" points="8.5,-262 8.5,-284 177.5,-284 177.5,-262 8.5,-262"/>
<polygon fill="none" stroke="black" points="8.5,-262 8.5,-284 177.5,-284 177.5,-262 8.5,-262"/>
<text text-anchor="start" x="28.5" y="-270.2" font-family="Helvetica,sans-Serif" font-size="11.00">edition_location_1</text>
<polygon fill="#ffffff" stroke="transparent" points="8.5,-240 8.5,-262 177.5,-262 177.5,-240 8.5,-240"/>
<polygon fill="none" stroke="black" points="8.5,-240 8.5,-262 177.5,-262 177.5,-240 8.5,-240"/>
<text text-anchor="start" x="28.5" y="-248.2" font-family="Helvetica,sans-Serif" font-size="11.00">edition_location_2</text>
<polygon fill="#ffffff" stroke="transparent" points="8.5,-218 8.5,-240 177.5,-240 177.5,-218 8.5,-218"/>
<polygon fill="none" stroke="black" points="8.5,-218 8.5,-240 177.5,-240 177.5,-218 8.5,-218"/>
<text text-anchor="start" x="28.5" y="-226.2" font-family="Helvetica,sans-Serif" font-size="11.00">edition_side</text>
<polygon fill="#ffffff" stroke="transparent" points="8.5,-196 8.5,-218 177.5,-218 177.5,-196 8.5,-196"/>
<polygon fill="none" stroke="black" points="8.5,-196 8.5,-218 177.5,-218 177.5,-196 8.5,-196"/>
<image xlink:href="../../images/foreignKeys.png" width="11px" height="12px" preserveAspectRatio="xMinYMin meet" x="13.5" y="-213"/>
<text text-anchor="start" x="28.5" y="-204.2" font-family="Helvetica,sans-Serif" font-size="11.00">manuscript_id</text>
<polygon fill="none" stroke="black" points="8.5,-178 8.5,-196 177.5,-196 177.5,-178 8.5,-178"/>
<text text-anchor="start" x="11.5" y="-184.2" font-family="Helvetica,sans-Serif" font-size="11.00">...</text>
<polygon fill="#ffffff" stroke="transparent" points="8.5,-160 8.5,-178 55.5,-178 55.5,-160 8.5,-160"/>
<polygon fill="none" stroke="black" points="8.5,-160 8.5,-178 55.5,-178 55.5,-160 8.5,-160"/>
<text text-anchor="start" x="11.5" y="-166.2" font-family="Helvetica,sans-Serif" font-size="11.00">&lt; 1</text>
<polygon fill="#ffffff" stroke="transparent" points="55.5,-160 55.5,-178 140.5,-178 140.5,-160 55.5,-160"/>
<polygon fill="none" stroke="black" points="55.5,-160 55.5,-178 140.5,-178 140.5,-160 55.5,-160"/>
<text text-anchor="start" x="69.5" y="-166.2" font-family="Helvetica,sans-Serif" font-size="11.00">38,927 rows</text>
<polygon fill="#ffffff" stroke="transparent" points="140.5,-160 140.5,-178 177.5,-178 177.5,-160 140.5,-160"/>
<polygon fill="none" stroke="black" points="140.5,-160 140.5,-178 177.5,-178 177.5,-160 140.5,-160"/>
<text text-anchor="start" x="154.5" y="-166.2" font-family="Helvetica,sans-Serif" font-size="11.00">3 &gt;</text>
</a>
</g>
</g>
<!-- iaa_edition_catalog_author&#45;&gt;iaa_edition_catalog -->
<g id="edge1" class="edge">
<title>iaa_edition_catalog_author:w&#45;&gt;iaa_edition_catalog:e</title>
<path fill="none" stroke="black" d="M216.36,-245.84C179.56,-260.72 230.61,-361 178.5,-361"/>
<polygon fill="black" stroke="black" points="225.53,-240.19 226.89,-248.08 225.32,-248.35 223.95,-240.47 225.53,-240.19"/>
<polyline fill="none" stroke="black" points="227,-244 223.06,-244.68 "/>
<ellipse fill="none" stroke="black" cx="219.91" cy="-245.23" rx="3.2" ry="3.2"/>
</g>
<!-- user -->
<g id="node3" class="node">
<title>user</title>
<g id="a_node3"><a xlink:href="../../tables/user.html" xlink:title="user" target="_top">
<polygon fill="#ffffff" stroke="transparent" points="11,-37 11,-139 174,-139 174,-37 11,-37"/>
<polygon fill="#f5f5f5" stroke="transparent" points="11.5,-117 11.5,-139 174.5,-139 174.5,-117 11.5,-117"/>
<polygon fill="none" stroke="black" points="11.5,-117 11.5,-139 174.5,-139 174.5,-117 11.5,-117"/>
<text text-anchor="start" x="16.5" y="-126.2" font-family="Helvetica,sans-Serif" font-weight="bold" font-size="11.00">user</text>
<text text-anchor="start" x="132.5" y="-125.2" font-family="Helvetica,sans-Serif" font-size="11.00">[table]</text>
<polygon fill="none" stroke="black" points="11.5,-95 11.5,-117 174.5,-117 174.5,-95 11.5,-95"/>
<image xlink:href="../../images/primaryKeys.png" width="11px" height="12px" preserveAspectRatio="xMinYMin meet" x="16.5" y="-112"/>
<text text-anchor="start" x="31.5" y="-103.2" font-family="Helvetica,sans-Serif" font-size="11.00">user_id</text>
<polygon fill="#ffffff" stroke="transparent" points="11.5,-73 11.5,-95 174.5,-95 174.5,-73 11.5,-73"/>
<polygon fill="none" stroke="black" points="11.5,-73 11.5,-95 174.5,-95 174.5,-73 11.5,-73"/>
<text text-anchor="start" x="31.5" y="-81.2" font-family="Helvetica,sans-Serif" font-size="11.00">email</text>
<polygon fill="none" stroke="black" points="11.5,-55 11.5,-73 174.5,-73 174.5,-55 11.5,-55"/>
<text text-anchor="start" x="14.5" y="-61.2" font-family="Helvetica,sans-Serif" font-size="11.00">...</text>
<polygon fill="#ffffff" stroke="transparent" points="11.5,-37 11.5,-55 61.5,-55 61.5,-37 11.5,-37"/>
<polygon fill="none" stroke="black" points="11.5,-37 11.5,-55 61.5,-55 61.5,-37 11.5,-37"/>
<text text-anchor="start" x="14.5" y="-43.2" font-family="Helvetica,sans-Serif" font-size="11.00"> &#160;</text>
<polygon fill="#ffffff" stroke="transparent" points="61.5,-37 61.5,-55 122.5,-55 122.5,-37 61.5,-37"/>
<polygon fill="none" stroke="black" points="61.5,-37 61.5,-55 122.5,-55 122.5,-37 61.5,-37"/>
<text text-anchor="start" x="82.5" y="-43.2" font-family="Helvetica,sans-Serif" font-size="11.00">0 rows</text>
<polygon fill="#ffffff" stroke="transparent" points="122.5,-37 122.5,-55 174.5,-55 174.5,-37 122.5,-37"/>
<polygon fill="none" stroke="black" points="122.5,-37 122.5,-55 174.5,-55 174.5,-37 122.5,-37"/>
<text text-anchor="start" x="144.5" y="-43.2" font-family="Helvetica,sans-Serif" font-size="11.00">10 &gt;</text>
</a>
</g>
</g>
<!-- iaa_edition_catalog_author&#45;&gt;user -->
<g id="edge2" class="edge">
<title>iaa_edition_catalog_author:w&#45;&gt;user:e</title>
<path fill="none" stroke="black" d="M212.8,-218.4C182.22,-198.82 225.96,-106 175.5,-106"/>
<polygon fill="black" stroke="black" points="219.25,-220.03 226.12,-225.49 223.12,-221.02 227,-222 227,-222 227,-222 223.12,-221.02 227.88,-218.51 219.25,-220.03 219.25,-220.03"/>
<ellipse fill="none" stroke="black" cx="216.14" cy="-219.25" rx="3.2" ry="3.2"/>
</g>
</g>
</svg>
