<?xml version="1.0" encoding="UTF-8" standalone="no"?>
<!DOCTYPE svg PUBLIC "-//W3C//DTD SVG 1.1//EN"
 "http://www.w3.org/Graphics/SVG/1.1/DTD/svg11.dtd">
<!-- Generated by graphviz version 2.43.0 (0)
 -->
<!-- Title: oneDegreeRelationshipsDiagramImplied Pages: 1 -->
<svg width="573pt" height="362pt"
 viewBox="0.00 0.00 573.00 362.00" xmlns="http://www.w3.org/2000/svg" xmlns:xlink="http://www.w3.org/1999/xlink">
<g id="graph0" class="graph" transform="scale(1 1) rotate(0) translate(4 358)">
<title>oneDegreeRelationshipsDiagramImplied</title>
<polygon fill="#ffffff" stroke="transparent" points="-4,4 -4,-358 569,-358 569,4 -4,4"/>
<text text-anchor="middle" x="79.5" y="-7.2" font-family="Helvetica,sans-Serif" font-size="11.00">Generated by SchemaSpy</text>
<!-- image_to_image_map_author -->
<g id="node1" class="node">
<title>image_to_image_map_author</title>
<g id="a_node1"><a xlink:href="../../tables/image_to_image_map_author.html" xlink:title="image_to_image_map_author" target="_top">
<polygon fill="#ffffff" stroke="transparent" points="240,-169 240,-257 557,-257 557,-169 240,-169"/>
<polygon fill="#f5f5f5" stroke="transparent" points="242.5,-233 242.5,-255 555.5,-255 555.5,-233 242.5,-233"/>
<polygon fill="none" stroke="black" points="242.5,-233 242.5,-255 555.5,-255 555.5,-233 242.5,-233"/>
<text text-anchor="start" x="247.5" y="-242.2" font-family="Helvetica,sans-Serif" font-weight="bold" font-size="11.00">image_to_image_map_author</text>
<text text-anchor="start" x="513.5" y="-241.2" font-family="Helvetica,sans-Serif" font-size="11.00">[table]</text>
<polygon fill="none" stroke="black" points="242.5,-211 242.5,-233 458.5,-233 458.5,-211 242.5,-211"/>
<image xlink:href="../../images/primaryKeys.png" width="11px" height="12px" preserveAspectRatio="xMinYMin meet" x="247.5" y="-228"/>
<text text-anchor="start" x="262.5" y="-219.2" font-family="Helvetica,sans-Serif" font-size="11.00">image_to_image_map_id</text>
<polygon fill="none" stroke="black" points="458.5,-211 458.5,-233 555.5,-233 555.5,-211 458.5,-211"/>
<text text-anchor="start" x="461.5" y="-219.2" font-family="Helvetica,sans-Serif" font-size="11.00">int unsigned[10]</text>
<polygon fill="none" stroke="black" points="242.5,-189 242.5,-211 458.5,-211 458.5,-189 242.5,-189"/>
<image xlink:href="../../images/primaryKeys.png" width="11px" height="12px" preserveAspectRatio="xMinYMin meet" x="247.5" y="-206"/>
<text text-anchor="start" x="262.5" y="-197.2" font-family="Helvetica,sans-Serif" font-size="11.00">user_id</text>
<polygon fill="none" stroke="black" points="458.5,-189 458.5,-211 555.5,-211 555.5,-189 458.5,-189"/>
<text text-anchor="start" x="461.5" y="-197.2" font-family="Helvetica,sans-Serif" font-size="11.00">int unsigned[10]</text>
<polygon fill="#ffffff" stroke="transparent" points="242.5,-171 242.5,-189 326.5,-189 326.5,-171 242.5,-171"/>
<polygon fill="none" stroke="black" points="242.5,-171 242.5,-189 326.5,-189 326.5,-171 242.5,-171"/>
<text text-anchor="start" x="245.5" y="-177.2" font-family="Helvetica,sans-Serif" font-size="11.00">&lt; 2</text>
<polygon fill="#ffffff" stroke="transparent" points="326.5,-171 326.5,-189 458.5,-189 458.5,-171 326.5,-171"/>
<polygon fill="none" stroke="black" points="326.5,-171 326.5,-189 458.5,-189 458.5,-171 326.5,-171"/>
<text text-anchor="start" x="387.5" y="-177.2" font-family="Helvetica,sans-Serif" font-size="11.00">72,198 rows</text>
<polygon fill="#ffffff" stroke="transparent" points="458.5,-171 458.5,-189 555.5,-189 555.5,-171 458.5,-171"/>
<polygon fill="none" stroke="black" points="458.5,-171 458.5,-189 555.5,-189 555.5,-171 458.5,-171"/>
<text text-anchor="start" x="532.5" y="-177.2" font-family="Helvetica,sans-Serif" font-size="11.00">0 &gt;</text>
<polygon fill="none" stroke="black" stroke-width="2" points="241,-170 241,-256 556,-256 556,-170 241,-170"/>
</a>
</g>
</g>
<!-- image_to_image_map -->
<g id="node2" class="node">
<title>image_to_image_map</title>
<g id="a_node2"><a xlink:href="../../tables/image_to_image_map.html" xlink:title="image_to_image_map" target="_top">
<polygon fill="#ffffff" stroke="transparent" points="8,-160 8,-350 191,-350 191,-160 8,-160"/>
<polygon fill="#f5f5f5" stroke="transparent" points="8.5,-328 8.5,-350 191.5,-350 191.5,-328 8.5,-328"/>
<polygon fill="none" stroke="black" points="8.5,-328 8.5,-350 191.5,-350 191.5,-328 8.5,-328"/>
<text text-anchor="start" x="13.5" y="-337.2" font-family="Helvetica,sans-Serif" font-weight="bold" font-size="11.00">image_to_image_map</text>
<text text-anchor="start" x="149.5" y="-336.2" font-family="Helvetica,sans-Serif" font-size="11.00">[table]</text>
<polygon fill="none" stroke="black" points="8.5,-306 8.5,-328 191.5,-328 191.5,-306 8.5,-306"/>
<image xlink:href="../../images/primaryKeys.png" width="11px" height="12px" preserveAspectRatio="xMinYMin meet" x="13.5" y="-323"/>
<text text-anchor="start" x="28.5" y="-314.2" font-family="Helvetica,sans-Serif" font-size="11.00">image_to_image_map_id</text>
<polygon fill="#ffffff" stroke="transparent" points="8.5,-284 8.5,-306 191.5,-306 191.5,-284 8.5,-284"/>
<polygon fill="none" stroke="black" points="8.5,-284 8.5,-306 191.5,-306 191.5,-284 8.5,-284"/>
<image xlink:href="../../images/foreignKeys.png" width="11px" height="12px" preserveAspectRatio="xMinYMin meet" x="13.5" y="-301"/>
<text text-anchor="start" x="28.5" y="-292.2" font-family="Helvetica,sans-Serif" font-size="11.00">image1_id</text>
<polygon fill="#ffffff" stroke="transparent" points="8.5,-262 8.5,-284 191.5,-284 191.5,-262 8.5,-262"/>
<polygon fill="none" stroke="black" points="8.5,-262 8.5,-284 191.5,-284 191.5,-262 8.5,-262"/>
<image xlink:href="../../images/foreignKeys.png" width="11px" height="12px" preserveAspectRatio="xMinYMin meet" x="13.5" y="-279"/>
<text text-anchor="start" x="28.5" y="-270.2" font-family="Helvetica,sans-Serif" font-size="11.00">image2_id</text>
<polygon fill="#ffffff" stroke="transparent" points="8.5,-240 8.5,-262 191.5,-262 191.5,-240 8.5,-240"/>
<polygon fill="none" stroke="black" points="8.5,-240 8.5,-262 191.5,-262 191.5,-240 8.5,-240"/>
<text text-anchor="start" x="28.5" y="-248.2" font-family="Helvetica,sans-Serif" font-size="11.00">transform_matrix</text>
<polygon fill="#ffffff" stroke="transparent" points="8.5,-218 8.5,-240 191.5,-240 191.5,-218 8.5,-218"/>
<polygon fill="none" stroke="black" points="8.5,-218 8.5,-240 191.5,-240 191.5,-218 8.5,-218"/>
<text text-anchor="start" x="28.5" y="-226.2" font-family="Helvetica,sans-Serif" font-size="11.00">region1_hash</text>
<polygon fill="#ffffff" stroke="transparent" points="8.5,-196 8.5,-218 191.5,-218 191.5,-196 8.5,-196"/>
<polygon fill="none" stroke="black" points="8.5,-196 8.5,-218 191.5,-218 191.5,-196 8.5,-196"/>
<text text-anchor="start" x="28.5" y="-204.2" font-family="Helvetica,sans-Serif" font-size="11.00">region2_hash</text>
<polygon fill="none" stroke="black" points="8.5,-178 8.5,-196 191.5,-196 191.5,-178 8.5,-178"/>
<text text-anchor="start" x="11.5" y="-184.2" font-family="Helvetica,sans-Serif" font-size="11.00">...</text>
<polygon fill="#ffffff" stroke="transparent" points="8.5,-160 8.5,-178 62.5,-178 62.5,-160 8.5,-160"/>
<polygon fill="none" stroke="black" points="8.5,-160 8.5,-178 62.5,-178 62.5,-160 8.5,-160"/>
<text text-anchor="start" x="11.5" y="-166.2" font-family="Helvetica,sans-Serif" font-size="11.00">&lt; 2</text>
<polygon fill="#ffffff" stroke="transparent" points="62.5,-160 62.5,-178 150.5,-178 150.5,-160 62.5,-160"/>
<polygon fill="none" stroke="black" points="62.5,-160 62.5,-178 150.5,-178 150.5,-160 62.5,-160"/>
<text text-anchor="start" x="79.5" y="-166.2" font-family="Helvetica,sans-Serif" font-size="11.00">69,272 rows</text>
<polygon fill="#ffffff" stroke="transparent" points="150.5,-160 150.5,-178 191.5,-178 191.5,-160 150.5,-160"/>
<polygon fill="none" stroke="black" points="150.5,-160 150.5,-178 191.5,-178 191.5,-160 150.5,-160"/>
<text text-anchor="start" x="168.5" y="-166.2" font-family="Helvetica,sans-Serif" font-size="11.00">2 &gt;</text>
</a>
</g>
</g>
<!-- image_to_image_map_author&#45;&gt;image_to_image_map -->
<g id="edge1" class="edge">
<title>image_to_image_map_author:w&#45;&gt;image_to_image_map:e</title>
<path fill="none" stroke="black" d="M227.39,-226.33C204.3,-244.91 233.88,-317 192.5,-317"/>
<polygon fill="black" stroke="black" points="233.85,-224.35 242.56,-225.44 237.68,-223.17 241.5,-222 241.5,-222 241.5,-222 237.68,-223.17 240.44,-218.56 233.85,-224.35 233.85,-224.35"/>
<ellipse fill="none" stroke="black" cx="230.79" cy="-225.28" rx="3.2" ry="3.2"/>
</g>
<!-- user -->
<g id="node3" class="node">
<title>user</title>
<g id="a_node3"><a xlink:href="../../tables/user.html" xlink:title="user" target="_top">
<polygon fill="#ffffff" stroke="transparent" points="18,-37 18,-139 181,-139 181,-37 18,-37"/>
<polygon fill="#f5f5f5" stroke="transparent" points="18.5,-117 18.5,-139 181.5,-139 181.5,-117 18.5,-117"/>
<polygon fill="none" stroke="black" points="18.5,-117 18.5,-139 181.5,-139 181.5,-117 18.5,-117"/>
<text text-anchor="start" x="23.5" y="-126.2" font-family="Helvetica,sans-Serif" font-weight="bold" font-size="11.00">user</text>
<text text-anchor="start" x="139.5" y="-125.2" font-family="Helvetica,sans-Serif" font-size="11.00">[table]</text>
<polygon fill="none" stroke="black" points="18.5,-95 18.5,-117 181.5,-117 181.5,-95 18.5,-95"/>
<image xlink:href="../../images/primaryKeys.png" width="11px" height="12px" preserveAspectRatio="xMinYMin meet" x="23.5" y="-112"/>
<text text-anchor="start" x="38.5" y="-103.2" font-family="Helvetica,sans-Serif" font-size="11.00">user_id</text>
<polygon fill="#ffffff" stroke="transparent" points="18.5,-73 18.5,-95 181.5,-95 181.5,-73 18.5,-73"/>
<polygon fill="none" stroke="black" points="18.5,-73 18.5,-95 181.5,-95 181.5,-73 18.5,-73"/>
<text text-anchor="start" x="38.5" y="-81.2" font-family="Helvetica,sans-Serif" font-size="11.00">email</text>
<polygon fill="none" stroke="black" points="18.5,-55 18.5,-73 181.5,-73 181.5,-55 18.5,-55"/>
<text text-anchor="start" x="21.5" y="-61.2" font-family="Helvetica,sans-Serif" font-size="11.00">...</text>
<polygon fill="#ffffff" stroke="transparent" points="18.5,-37 18.5,-55 68.5,-55 68.5,-37 18.5,-37"/>
<polygon fill="none" stroke="black" points="18.5,-37 18.5,-55 68.5,-55 68.5,-37 18.5,-37"/>
<text text-anchor="start" x="21.5" y="-43.2" font-family="Helvetica,sans-Serif" font-size="11.00"> &#160;</text>
<polygon fill="#ffffff" stroke="transparent" points="68.5,-37 68.5,-55 129.5,-55 129.5,-37 68.5,-37"/>
<polygon fill="none" stroke="black" points="68.5,-37 68.5,-55 129.5,-55 129.5,-37 68.5,-37"/>
<text text-anchor="start" x="89.5" y="-43.2" font-family="Helvetica,sans-Serif" font-size="11.00">0 rows</text>
<polygon fill="#ffffff" stroke="transparent" points="129.5,-37 129.5,-55 181.5,-55 181.5,-37 129.5,-37"/>
<polygon fill="none" stroke="black" points="129.5,-37 129.5,-55 181.5,-55 181.5,-37 129.5,-37"/>
<text text-anchor="start" x="151.5" y="-43.2" font-family="Helvetica,sans-Serif" font-size="11.00">10 &gt;</text>
</a>
</g>
</g>
<!-- image_to_image_map_author&#45;&gt;user -->
<g id="edge2" class="edge">
<title>image_to_image_map_author:w&#45;&gt;user:e</title>
<path fill="none" stroke="black" d="M227.54,-196.43C200.25,-179.26 226.05,-106 182.5,-106"/>
<polygon fill="black" stroke="black" points="233.75,-198.02 240.61,-203.49 237.62,-199.01 241.5,-200 241.5,-200 241.5,-200 237.62,-199.01 242.39,-196.51 233.75,-198.02 233.75,-198.02"/>
<ellipse fill="none" stroke="black" cx="230.65" cy="-197.23" rx="3.2" ry="3.2"/>
</g>
</g>
</svg>
