<?xml version="1.0" encoding="UTF-8" standalone="no"?>
<!DOCTYPE svg PUBLIC "-//W3C//DTD SVG 1.1//EN"
 "http://www.w3.org/Graphics/SVG/1.1/DTD/svg11.dtd">
<!-- Generated by graphviz version 2.43.0 (0)
 -->
<!-- Title: twoDegreesRelationshipsDiagram Pages: 1 -->
<svg width="782pt" height="594pt"
 viewBox="0.00 0.00 782.00 594.00" xmlns="http://www.w3.org/2000/svg" xmlns:xlink="http://www.w3.org/1999/xlink">
<g id="graph0" class="graph" transform="scale(1 1) rotate(0) translate(4 590)">
<title>twoDegreesRelationshipsDiagram</title>
<polygon fill="#ffffff" stroke="transparent" points="-4,4 -4,-590 778,-590 778,4 -4,4"/>
<text text-anchor="middle" x="79.5" y="-7.2" font-family="Helvetica,sans-Serif" font-size="11.00">Generated by SchemaSpy</text>
<!-- artefact_shape -->
<g id="node1" class="node">
<title>artefact_shape</title>
<g id="a_node1"><a xlink:href="../../tables/artefact_shape.html" xlink:title="artefact_shape" target="_top">
<polygon fill="#ffffff" stroke="transparent" points="601.5,-524 601.5,-582 744.5,-582 744.5,-524 601.5,-524"/>
<polygon fill="#f5f5f5" stroke="transparent" points="602,-560 602,-582 745,-582 745,-560 602,-560"/>
<polygon fill="none" stroke="black" points="602,-560 602,-582 745,-582 745,-560 602,-560"/>
<text text-anchor="start" x="607" y="-569.2" font-family="Helvetica,sans-Serif" font-weight="bold" font-size="11.00">artefact_shape</text>
<text text-anchor="start" x="703" y="-568.2" font-family="Helvetica,sans-Serif" font-size="11.00">[table]</text>
<polygon fill="none" stroke="black" points="602,-542 602,-560 745,-560 745,-542 602,-542"/>
<text text-anchor="start" x="605" y="-548.2" font-family="Helvetica,sans-Serif" font-size="11.00">...</text>
<polygon fill="#ffffff" stroke="transparent" points="602,-524 602,-542 636,-542 636,-524 602,-524"/>
<polygon fill="none" stroke="black" points="602,-524 602,-542 636,-542 636,-524 602,-524"/>
<text text-anchor="start" x="605" y="-530.2" font-family="Helvetica,sans-Serif" font-size="11.00">&lt; 2</text>
<polygon fill="#ffffff" stroke="transparent" points="636,-524 636,-542 714,-542 714,-524 636,-524"/>
<polygon fill="none" stroke="black" points="636,-524 636,-542 714,-542 714,-524 636,-524"/>
<text text-anchor="start" x="643" y="-530.2" font-family="Helvetica,sans-Serif" font-size="11.00">27,685 rows</text>
<polygon fill="#ffffff" stroke="transparent" points="714,-524 714,-542 745,-542 745,-524 714,-524"/>
<polygon fill="none" stroke="black" points="714,-524 714,-542 745,-542 745,-524 714,-524"/>
<text text-anchor="start" x="722" y="-530.2" font-family="Helvetica,sans-Serif" font-size="11.00">1 &gt;</text>
</a>
</g>
</g>
<!-- SQE_image -->
<g id="node2" class="node">
<title>SQE_image</title>
<g id="a_node2"><a xlink:href="../../tables/SQE_image.html" xlink:title="SQE_image" target="_top">
<polygon fill="#ffffff" stroke="transparent" points="347,-359 347,-505 485,-505 485,-359 347,-359"/>
<polygon fill="#f5f5f5" stroke="transparent" points="347,-483 347,-505 485,-505 485,-483 347,-483"/>
<polygon fill="none" stroke="black" points="347,-483 347,-505 485,-505 485,-483 347,-483"/>
<text text-anchor="start" x="352" y="-492.2" font-family="Helvetica,sans-Serif" font-weight="bold" font-size="11.00">SQE_image</text>
<text text-anchor="start" x="443" y="-491.2" font-family="Helvetica,sans-Serif" font-size="11.00">[table]</text>
<polygon fill="none" stroke="black" points="347,-461 347,-483 485,-483 485,-461 347,-461"/>
<image xlink:href="../../images/primaryKeys.png" width="11px" height="12px" preserveAspectRatio="xMinYMin meet" x="352" y="-478"/>
<text text-anchor="start" x="367" y="-469.2" font-family="Helvetica,sans-Serif" font-size="11.00">sqe_image_id</text>
<polygon fill="#ffffff" stroke="transparent" points="347,-439 347,-461 485,-461 485,-439 347,-439"/>
<polygon fill="none" stroke="black" points="347,-439 347,-461 485,-461 485,-439 347,-439"/>
<image xlink:href="../../images/foreignKeys.png" width="11px" height="12px" preserveAspectRatio="xMinYMin meet" x="352" y="-456"/>
<text text-anchor="start" x="367" y="-447.2" font-family="Helvetica,sans-Serif" font-size="11.00">image_urls_id</text>
<polygon fill="#ffffff" stroke="transparent" points="347,-417 347,-439 485,-439 485,-417 347,-417"/>
<polygon fill="none" stroke="black" points="347,-417 347,-439 485,-439 485,-417 347,-417"/>
<text text-anchor="start" x="367" y="-425.2" font-family="Helvetica,sans-Serif" font-size="11.00">filename</text>
<polygon fill="#ffffff" stroke="transparent" points="347,-395 347,-417 485,-417 485,-395 347,-395"/>
<polygon fill="none" stroke="black" points="347,-395 347,-417 485,-417 485,-395 347,-395"/>
<image xlink:href="../../images/foreignKeys.png" width="11px" height="12px" preserveAspectRatio="xMinYMin meet" x="352" y="-412"/>
<text text-anchor="start" x="367" y="-403.2" font-family="Helvetica,sans-Serif" font-size="11.00">image_catalog_id</text>
<polygon fill="none" stroke="black" points="347,-377 347,-395 485,-395 485,-377 347,-377"/>
<text text-anchor="start" x="350" y="-383.2" font-family="Helvetica,sans-Serif" font-size="11.00">...</text>
<polygon fill="#ffffff" stroke="transparent" points="347,-359 347,-377 375,-377 375,-359 347,-359"/>
<polygon fill="none" stroke="black" points="347,-359 347,-377 375,-377 375,-359 347,-359"/>
<text text-anchor="start" x="350" y="-365.2" font-family="Helvetica,sans-Serif" font-size="11.00">&lt; 2</text>
<polygon fill="#ffffff" stroke="transparent" points="375,-359 375,-377 457,-377 457,-359 375,-359"/>
<polygon fill="none" stroke="black" points="375,-359 375,-377 457,-377 457,-359 375,-359"/>
<text text-anchor="start" x="379" y="-365.2" font-family="Helvetica,sans-Serif" font-size="11.00">101,504 rows</text>
<polygon fill="#ffffff" stroke="transparent" points="457,-359 457,-377 485,-377 485,-359 457,-359"/>
<polygon fill="none" stroke="black" points="457,-359 457,-377 485,-377 485,-359 457,-359"/>
<text text-anchor="start" x="462" y="-365.2" font-family="Helvetica,sans-Serif" font-size="11.00">4 &gt;</text>
</a>
</g>
</g>
<!-- artefact_shape&#45;&gt;SQE_image -->
<g id="edge1" class="edge">
<title>artefact_shape:w&#45;&gt;SQE_image:e</title>
<path fill="none" stroke="black" d="M586.5,-549.35C540.02,-538.01 542.68,-472 486,-472"/>
<polygon fill="black" stroke="black" points="593.05,-550.1 600.59,-554.58 597.03,-550.55 601,-551 601,-551 601,-551 597.03,-550.55 601.41,-547.42 593.05,-550.1 593.05,-550.1"/>
<ellipse fill="none" stroke="black" cx="589.87" cy="-549.73" rx="3.2" ry="3.2"/>
</g>
<!-- image_catalog -->
<g id="node4" class="node">
<title>image_catalog</title>
<g id="a_node4"><a xlink:href="../../tables/image_catalog.html" xlink:title="image_catalog" target="_top">
<polygon fill="#ffffff" stroke="transparent" points="8,-37 8,-213 252,-213 252,-37 8,-37"/>
<polygon fill="#f5f5f5" stroke="transparent" points="10,-189 10,-211 250,-211 250,-189 10,-189"/>
<polygon fill="none" stroke="black" points="10,-189 10,-211 250,-211 250,-189 10,-189"/>
<text text-anchor="start" x="15" y="-198.2" font-family="Helvetica,sans-Serif" font-weight="bold" font-size="11.00">image_catalog</text>
<text text-anchor="start" x="208" y="-197.2" font-family="Helvetica,sans-Serif" font-size="11.00">[table]</text>
<polygon fill="none" stroke="black" points="10,-167 10,-189 153,-189 153,-167 10,-167"/>
<image xlink:href="../../images/primaryKeys.png" width="11px" height="12px" preserveAspectRatio="xMinYMin meet" x="15" y="-184"/>
<text text-anchor="start" x="30" y="-175.2" font-family="Helvetica,sans-Serif" font-size="11.00">image_catalog_id</text>
<polygon fill="none" stroke="black" points="153,-167 153,-189 250,-189 250,-167 153,-167"/>
<text text-anchor="start" x="156" y="-175.2" font-family="Helvetica,sans-Serif" font-size="11.00">int unsigned[10]</text>
<polygon fill="#ffffff" stroke="transparent" points="10,-145 10,-167 153,-167 153,-145 10,-145"/>
<polygon fill="none" stroke="black" points="10,-145 10,-167 153,-167 153,-145 10,-145"/>
<text text-anchor="start" x="30" y="-153.2" font-family="Helvetica,sans-Serif" font-size="11.00">institution</text>
<polygon fill="none" stroke="black" points="153,-145 153,-167 250,-167 250,-145 153,-145"/>
<text text-anchor="start" x="156" y="-153.2" font-family="Helvetica,sans-Serif" font-size="11.00">varchar[255]</text>
<polygon fill="#ffffff" stroke="transparent" points="10,-123 10,-145 153,-145 153,-123 10,-123"/>
<polygon fill="none" stroke="black" points="10,-123 10,-145 153,-145 153,-123 10,-123"/>
<text text-anchor="start" x="30" y="-131.2" font-family="Helvetica,sans-Serif" font-size="11.00">catalog_number_1</text>
<polygon fill="none" stroke="black" points="153,-123 153,-145 250,-145 250,-123 153,-123"/>
<text text-anchor="start" x="156" y="-131.2" font-family="Helvetica,sans-Serif" font-size="11.00">varchar[255]</text>
<polygon fill="#ffffff" stroke="transparent" points="10,-101 10,-123 153,-123 153,-101 10,-101"/>
<polygon fill="none" stroke="black" points="10,-101 10,-123 153,-123 153,-101 10,-101"/>
<text text-anchor="start" x="30" y="-109.2" font-family="Helvetica,sans-Serif" font-size="11.00">catalog_number_2</text>
<polygon fill="none" stroke="black" points="153,-101 153,-123 250,-123 250,-101 153,-101"/>
<text text-anchor="start" x="156" y="-109.2" font-family="Helvetica,sans-Serif" font-size="11.00">varchar[255]</text>
<polygon fill="#ffffff" stroke="transparent" points="10,-79 10,-101 153,-101 153,-79 10,-79"/>
<polygon fill="none" stroke="black" points="10,-79 10,-101 153,-101 153,-79 10,-79"/>
<text text-anchor="start" x="30" y="-87.2" font-family="Helvetica,sans-Serif" font-size="11.00">catalog_side</text>
<polygon fill="none" stroke="black" points="153,-79 153,-101 250,-101 250,-79 153,-79"/>
<text text-anchor="start" x="156" y="-87.2" font-family="Helvetica,sans-Serif" font-size="11.00">bit[3]</text>
<polygon fill="none" stroke="black" points="10,-57 10,-79 153,-79 153,-57 10,-57"/>
<text text-anchor="start" x="30" y="-65.2" font-family="Helvetica,sans-Serif" font-size="11.00">object_id</text>
<polygon fill="none" stroke="black" points="153,-57 153,-79 250,-79 250,-57 153,-57"/>
<text text-anchor="start" x="156" y="-65.2" font-family="Helvetica,sans-Serif" font-size="11.00">varchar[255]</text>
<polygon fill="#ffffff" stroke="transparent" points="10,-39 10,-57 57,-57 57,-39 10,-39"/>
<polygon fill="none" stroke="black" points="10,-39 10,-57 57,-57 57,-39 10,-39"/>
<text text-anchor="start" x="13" y="-45.2" font-family="Helvetica,sans-Serif" font-size="11.00">&lt; 0</text>
<polygon fill="#ffffff" stroke="transparent" points="57,-39 57,-57 153,-57 153,-39 57,-39"/>
<polygon fill="none" stroke="black" points="57,-39 57,-57 153,-57 153,-39 57,-39"/>
<text text-anchor="start" x="82" y="-45.2" font-family="Helvetica,sans-Serif" font-size="11.00">41,950 rows</text>
<polygon fill="#ffffff" stroke="transparent" points="153,-39 153,-57 250,-57 250,-39 153,-39"/>
<polygon fill="none" stroke="black" points="153,-39 153,-57 250,-57 250,-39 153,-39"/>
<text text-anchor="start" x="227" y="-45.2" font-family="Helvetica,sans-Serif" font-size="11.00">3 &gt;</text>
<polygon fill="none" stroke="black" stroke-width="2" points="9,-38 9,-212 251,-212 251,-38 9,-38"/>
</a>
</g>
</g>
<!-- SQE_image&#45;&gt;image_catalog -->
<g id="edge8" class="edge">
<title>SQE_image:w&#45;&gt;image_catalog:e</title>
<path fill="none" stroke="black" d="M331.7,-404.05C310.4,-397.39 306.8,-374.57 293,-349 255.83,-280.13 329.26,-178 251,-178"/>
<polygon fill="black" stroke="black" points="338.07,-404.92 345.51,-409.57 342.04,-405.46 346,-406 346,-406 346,-406 342.04,-405.46 346.49,-402.43 338.07,-404.92 338.07,-404.92"/>
<ellipse fill="none" stroke="black" cx="334.9" cy="-404.49" rx="3.2" ry="3.2"/>
</g>
<!-- image_urls -->
<g id="node9" class="node">
<title>image_urls</title>
<g id="a_node9"><a xlink:href="../../tables/image_urls.html" xlink:title="image_urls" target="_top">
<polygon fill="#ffffff" stroke="transparent" points="71,-423 71,-481 189,-481 189,-423 71,-423"/>
<polygon fill="#f5f5f5" stroke="transparent" points="71,-459 71,-481 189,-481 189,-459 71,-459"/>
<polygon fill="none" stroke="black" points="71,-459 71,-481 189,-481 189,-459 71,-459"/>
<text text-anchor="start" x="76" y="-468.2" font-family="Helvetica,sans-Serif" font-weight="bold" font-size="11.00">image_urls</text>
<text text-anchor="start" x="147" y="-467.2" font-family="Helvetica,sans-Serif" font-size="11.00">[table]</text>
<polygon fill="none" stroke="black" points="71,-441 71,-459 189,-459 189,-441 71,-441"/>
<text text-anchor="start" x="74" y="-447.2" font-family="Helvetica,sans-Serif" font-size="11.00">...</text>
<polygon fill="#ffffff" stroke="transparent" points="71,-423 71,-441 102,-441 102,-423 71,-423"/>
<polygon fill="none" stroke="black" points="71,-423 71,-441 102,-441 102,-423 71,-423"/>
<text text-anchor="start" x="74" y="-429.2" font-family="Helvetica,sans-Serif" font-size="11.00"> &#160;</text>
<polygon fill="#ffffff" stroke="transparent" points="102,-423 102,-441 154,-441 154,-423 102,-423"/>
<polygon fill="none" stroke="black" points="102,-423 102,-441 154,-441 154,-423 102,-423"/>
<text text-anchor="start" x="114" y="-429.2" font-family="Helvetica,sans-Serif" font-size="11.00">3 rows</text>
<polygon fill="#ffffff" stroke="transparent" points="154,-423 154,-441 189,-441 189,-423 154,-423"/>
<polygon fill="none" stroke="black" points="154,-423 154,-441 189,-441 189,-423 154,-423"/>
<text text-anchor="start" x="166" y="-429.2" font-family="Helvetica,sans-Serif" font-size="11.00">1 &gt;</text>
</a>
</g>
</g>
<!-- SQE_image&#45;&gt;image_urls -->
<g id="edge9" class="edge">
<title>SQE_image:w&#45;&gt;image_urls:e</title>
<path fill="none" stroke="black" d="M331.38,-450C273.81,-450 254.19,-450 190,-450"/>
<polygon fill="black" stroke="black" points="338,-450 346,-453.6 342,-450 346,-450 346,-450 346,-450 342,-450 346,-446.4 338,-450 338,-450"/>
<ellipse fill="none" stroke="black" cx="334.8" cy="-450" rx="3.2" ry="3.2"/>
</g>
<!-- image_catalog_author -->
<g id="node3" class="node">
<title>image_catalog_author</title>
<g id="a_node3"><a xlink:href="../../tables/image_catalog_author.html" xlink:title="image_catalog_author" target="_top">
<polygon fill="#ffffff" stroke="transparent" points="580,-159 580,-243 766,-243 766,-159 580,-159"/>
<polygon fill="#f5f5f5" stroke="transparent" points="580,-221 580,-243 766,-243 766,-221 580,-221"/>
<polygon fill="none" stroke="black" points="580,-221 580,-243 766,-243 766,-221 580,-221"/>
<text text-anchor="start" x="585" y="-230.2" font-family="Helvetica,sans-Serif" font-weight="bold" font-size="11.00">image_catalog_author</text>
<text text-anchor="start" x="724" y="-229.2" font-family="Helvetica,sans-Serif" font-size="11.00">[table]</text>
<polygon fill="none" stroke="black" points="580,-199 580,-221 766,-221 766,-199 580,-199"/>
<image xlink:href="../../images/primaryKeys.png" width="11px" height="12px" preserveAspectRatio="xMinYMin meet" x="585" y="-216"/>
<text text-anchor="start" x="609" y="-207.2" font-family="Helvetica,sans-Serif" font-size="11.00">image_catalog_id</text>
<polygon fill="#ffffff" stroke="transparent" points="580,-177 580,-199 766,-199 766,-177 580,-177"/>
<polygon fill="none" stroke="black" points="580,-177 580,-199 766,-199 766,-177 580,-177"/>
<image xlink:href="../../images/foreignKeys.png" width="11px" height="12px" preserveAspectRatio="xMinYMin meet" x="585" y="-194"/>
<text text-anchor="start" x="609" y="-185.2" font-family="Helvetica,sans-Serif" font-size="11.00">user_id</text>
<polygon fill="#ffffff" stroke="transparent" points="580,-159 580,-177 642,-177 642,-159 580,-159"/>
<polygon fill="none" stroke="black" points="580,-159 580,-177 642,-177 642,-159 580,-159"/>
<text text-anchor="start" x="583" y="-165.2" font-family="Helvetica,sans-Serif" font-size="11.00">&lt; 2</text>
<polygon fill="#ffffff" stroke="transparent" points="642,-159 642,-177 734,-177 734,-159 642,-159"/>
<polygon fill="none" stroke="black" points="642,-159 642,-177 734,-177 734,-159 642,-159"/>
<text text-anchor="start" x="663" y="-165.2" font-family="Helvetica,sans-Serif" font-size="11.00">41,829 rows</text>
<polygon fill="#ffffff" stroke="transparent" points="734,-159 734,-177 766,-177 766,-159 734,-159"/>
<polygon fill="none" stroke="black" points="734,-159 734,-177 766,-177 766,-159 734,-159"/>
<text text-anchor="start" x="755" y="-165.2" font-family="Helvetica,sans-Serif" font-size="11.00"> &#160;</text>
</a>
</g>
</g>
<!-- image_catalog_author&#45;&gt;image_catalog -->
<g id="edge2" class="edge">
<title>image_catalog_author:w&#45;&gt;image_catalog:e</title>
<path fill="none" stroke="black" d="M568.86,-207.68C554.69,-199.71 559.8,-173.48 539,-164 439.51,-118.67 400.92,-146.49 293,-164 273.58,-167.15 270.68,-178 251,-178"/>
<polygon fill="black" stroke="black" points="579.11,-205.92 577.33,-213.72 575.77,-213.36 577.55,-205.56 579.11,-205.92"/>
<polyline fill="none" stroke="black" points="579,-210 575.1,-209.11 "/>
<ellipse fill="none" stroke="black" cx="571.98" cy="-208.39" rx="3.2" ry="3.2"/>
</g>
<!-- user -->
<g id="node5" class="node">
<title>user</title>
<g id="a_node5"><a xlink:href="../../tables/user.html" xlink:title="user" target="_top">
<polygon fill="#ffffff" stroke="transparent" points="371,-280 371,-338 461,-338 461,-280 371,-280"/>
<polygon fill="#f5f5f5" stroke="transparent" points="371,-316 371,-338 461,-338 461,-316 371,-316"/>
<polygon fill="none" stroke="black" points="371,-316 371,-338 461,-338 461,-316 371,-316"/>
<text text-anchor="start" x="376" y="-325.2" font-family="Helvetica,sans-Serif" font-weight="bold" font-size="11.00">user</text>
<text text-anchor="start" x="419" y="-324.2" font-family="Helvetica,sans-Serif" font-size="11.00">[table]</text>
<polygon fill="none" stroke="black" points="371,-298 371,-316 461,-316 461,-298 371,-298"/>
<text text-anchor="start" x="374" y="-304.2" font-family="Helvetica,sans-Serif" font-size="11.00">...</text>
<polygon fill="#ffffff" stroke="transparent" points="371,-280 371,-298 385,-298 385,-280 371,-280"/>
<polygon fill="none" stroke="black" points="371,-280 371,-298 385,-298 385,-280 371,-280"/>
<text text-anchor="start" x="374" y="-286.2" font-family="Helvetica,sans-Serif" font-size="11.00"> &#160;</text>
<polygon fill="#ffffff" stroke="transparent" points="385,-280 385,-298 428,-298 428,-280 385,-280"/>
<polygon fill="none" stroke="black" points="385,-280 385,-298 428,-298 428,-280 385,-280"/>
<text text-anchor="start" x="388" y="-286.2" font-family="Helvetica,sans-Serif" font-size="11.00">0 rows</text>
<polygon fill="#ffffff" stroke="transparent" points="428,-280 428,-298 461,-298 461,-280 428,-280"/>
<polygon fill="none" stroke="black" points="428,-280 428,-298 461,-298 461,-280 428,-280"/>
<text text-anchor="start" x="431" y="-286.2" font-family="Helvetica,sans-Serif" font-size="11.00">10 &gt;</text>
</a>
</g>
</g>
<!-- image_catalog_author&#45;&gt;user -->
<g id="edge3" class="edge">
<title>image_catalog_author:w&#45;&gt;user:e</title>
<path fill="none" stroke="black" d="M564.99,-191.39C546.23,-203.47 563.07,-244.94 539,-269 512.01,-295.98 500.16,-307 462,-307"/>
<polygon fill="black" stroke="black" points="571.22,-189.88 579.85,-191.5 575.11,-188.94 579,-188 579,-188 579,-188 575.11,-188.94 578.15,-184.5 571.22,-189.88 571.22,-189.88"/>
<ellipse fill="none" stroke="black" cx="568.11" cy="-190.64" rx="3.2" ry="3.2"/>
</g>
<!-- image_to_iaa_edition_catalog -->
<g id="node6" class="node">
<title>image_to_iaa_edition_catalog</title>
<g id="a_node6"><a xlink:href="../../tables/image_to_iaa_edition_catalog.html" xlink:title="image_to_iaa_edition_catalog" target="_top">
<polygon fill="#ffffff" stroke="transparent" points="301,-175 301,-259 531,-259 531,-175 301,-175"/>
<polygon fill="#f5f5f5" stroke="transparent" points="301,-237 301,-259 531,-259 531,-237 301,-237"/>
<polygon fill="none" stroke="black" points="301,-237 301,-259 531,-259 531,-237 301,-237"/>
<text text-anchor="start" x="306" y="-246.2" font-family="Helvetica,sans-Serif" font-weight="bold" font-size="11.00">image_to_iaa_edition_catalog</text>
<text text-anchor="start" x="489" y="-245.2" font-family="Helvetica,sans-Serif" font-size="11.00">[table]</text>
<polygon fill="none" stroke="black" points="301,-215 301,-237 531,-237 531,-215 301,-215"/>
<image xlink:href="../../images/primaryKeys.png" width="11px" height="12px" preserveAspectRatio="xMinYMin meet" x="306" y="-232"/>
<text text-anchor="start" x="327" y="-223.2" font-family="Helvetica,sans-Serif" font-size="11.00">iaa_edition_catalog_id</text>
<polygon fill="none" stroke="black" points="301,-193 301,-215 531,-215 531,-193 301,-193"/>
<image xlink:href="../../images/primaryKeys.png" width="11px" height="12px" preserveAspectRatio="xMinYMin meet" x="306" y="-210"/>
<text text-anchor="start" x="327" y="-201.2" font-family="Helvetica,sans-Serif" font-size="11.00">image_catalog_id</text>
<polygon fill="#ffffff" stroke="transparent" points="301,-175 301,-193 385,-193 385,-175 301,-175"/>
<polygon fill="none" stroke="black" points="301,-175 301,-193 385,-193 385,-175 301,-175"/>
<text text-anchor="start" x="304" y="-181.2" font-family="Helvetica,sans-Serif" font-size="11.00">&lt; 2</text>
<polygon fill="#ffffff" stroke="transparent" points="385,-175 385,-193 488,-193 488,-175 385,-175"/>
<polygon fill="none" stroke="black" points="385,-175 385,-193 488,-193 488,-175 385,-175"/>
<text text-anchor="start" x="417" y="-181.2" font-family="Helvetica,sans-Serif" font-size="11.00">39,105 rows</text>
<polygon fill="#ffffff" stroke="transparent" points="488,-175 488,-193 531,-193 531,-175 488,-175"/>
<polygon fill="none" stroke="black" points="488,-175 488,-193 531,-193 531,-175 488,-175"/>
<text text-anchor="start" x="520" y="-181.2" font-family="Helvetica,sans-Serif" font-size="11.00"> &#160;</text>
</a>
</g>
</g>
<!-- image_to_iaa_edition_catalog&#45;&gt;image_catalog -->
<g id="edge5" class="edge">
<title>image_to_iaa_edition_catalog:w&#45;&gt;image_catalog:e</title>
<path fill="none" stroke="black" d="M285.77,-200.16C274.03,-192.93 269.68,-178 251,-178"/>
<polygon fill="black" stroke="black" points="292.28,-201.92 299.06,-207.48 296.14,-202.96 300,-204 300,-204 300,-204 296.14,-202.96 300.94,-200.52 292.28,-201.92 292.28,-201.92"/>
<ellipse fill="none" stroke="black" cx="289.19" cy="-201.08" rx="3.2" ry="3.2"/>
</g>
<!-- iaa_edition_catalog -->
<g id="node7" class="node">
<title>iaa_edition_catalog</title>
<g id="a_node7"><a xlink:href="../../tables/iaa_edition_catalog.html" xlink:title="iaa_edition_catalog" target="_top">
<polygon fill="#ffffff" stroke="transparent" points="45.5,-234 45.5,-292 214.5,-292 214.5,-234 45.5,-234"/>
<polygon fill="#f5f5f5" stroke="transparent" points="46,-270 46,-292 215,-292 215,-270 46,-270"/>
<polygon fill="none" stroke="black" points="46,-270 46,-292 215,-292 215,-270 46,-270"/>
<text text-anchor="start" x="51" y="-279.2" font-family="Helvetica,sans-Serif" font-weight="bold" font-size="11.00">iaa_edition_catalog</text>
<text text-anchor="start" x="173" y="-278.2" font-family="Helvetica,sans-Serif" font-size="11.00">[table]</text>
<polygon fill="none" stroke="black" points="46,-252 46,-270 215,-270 215,-252 46,-252"/>
<text text-anchor="start" x="49" y="-258.2" font-family="Helvetica,sans-Serif" font-size="11.00">...</text>
<polygon fill="#ffffff" stroke="transparent" points="46,-234 46,-252 93,-252 93,-234 46,-234"/>
<polygon fill="none" stroke="black" points="46,-234 46,-252 93,-252 93,-234 46,-234"/>
<text text-anchor="start" x="49" y="-240.2" font-family="Helvetica,sans-Serif" font-size="11.00">&lt; 1</text>
<polygon fill="#ffffff" stroke="transparent" points="93,-234 93,-252 178,-252 178,-234 93,-234"/>
<polygon fill="none" stroke="black" points="93,-234 93,-252 178,-252 178,-234 93,-234"/>
<text text-anchor="start" x="107" y="-240.2" font-family="Helvetica,sans-Serif" font-size="11.00">38,927 rows</text>
<polygon fill="#ffffff" stroke="transparent" points="178,-234 178,-252 215,-252 215,-234 178,-234"/>
<polygon fill="none" stroke="black" points="178,-234 178,-252 215,-252 215,-234 178,-234"/>
<text text-anchor="start" x="192" y="-240.2" font-family="Helvetica,sans-Serif" font-size="11.00">3 &gt;</text>
</a>
</g>
</g>
<!-- image_to_iaa_edition_catalog&#45;&gt;iaa_edition_catalog -->
<g id="edge4" class="edge">
<title>image_to_iaa_edition_catalog:w&#45;&gt;iaa_edition_catalog:e</title>
<path fill="none" stroke="black" d="M285.69,-227.69C258.07,-234.68 251.07,-261 216,-261"/>
<polygon fill="black" stroke="black" points="292.06,-226.94 300.42,-229.58 296.03,-226.47 300,-226 300,-226 300,-226 296.03,-226.47 299.58,-222.42 292.06,-226.94 292.06,-226.94"/>
<ellipse fill="none" stroke="black" cx="288.88" cy="-227.31" rx="3.2" ry="3.2"/>
</g>
<!-- image_to_image_map -->
<g id="node8" class="node">
<title>image_to_image_map</title>
<g id="a_node8"><a xlink:href="../../tables/image_to_image_map.html" xlink:title="image_to_image_map" target="_top">
<polygon fill="#ffffff" stroke="transparent" points="582.5,-445 582.5,-503 763.5,-503 763.5,-445 582.5,-445"/>
<polygon fill="#f5f5f5" stroke="transparent" points="583,-481 583,-503 764,-503 764,-481 583,-481"/>
<polygon fill="none" stroke="black" points="583,-481 583,-503 764,-503 764,-481 583,-481"/>
<text text-anchor="start" x="588" y="-490.2" font-family="Helvetica,sans-Serif" font-weight="bold" font-size="11.00">image_to_image_map</text>
<text text-anchor="start" x="722" y="-489.2" font-family="Helvetica,sans-Serif" font-size="11.00">[table]</text>
<polygon fill="none" stroke="black" points="583,-463 583,-481 764,-481 764,-463 583,-463"/>
<text text-anchor="start" x="586" y="-469.2" font-family="Helvetica,sans-Serif" font-size="11.00">...</text>
<polygon fill="#ffffff" stroke="transparent" points="583,-445 583,-463 636,-463 636,-445 583,-445"/>
<polygon fill="none" stroke="black" points="583,-445 583,-463 636,-463 636,-445 583,-445"/>
<text text-anchor="start" x="586" y="-451.2" font-family="Helvetica,sans-Serif" font-size="11.00">&lt; 2</text>
<polygon fill="#ffffff" stroke="transparent" points="636,-445 636,-463 724,-463 724,-445 636,-445"/>
<polygon fill="none" stroke="black" points="636,-445 636,-463 724,-463 724,-445 636,-445"/>
<text text-anchor="start" x="653" y="-451.2" font-family="Helvetica,sans-Serif" font-size="11.00">69,272 rows</text>
<polygon fill="#ffffff" stroke="transparent" points="724,-445 724,-463 764,-463 764,-445 724,-445"/>
<polygon fill="none" stroke="black" points="724,-445 724,-463 764,-463 764,-445 724,-445"/>
<text text-anchor="start" x="741" y="-451.2" font-family="Helvetica,sans-Serif" font-size="11.00">2 &gt;</text>
</a>
</g>
</g>
<!-- image_to_image_map&#45;&gt;SQE_image -->
<g id="edge6" class="edge">
<title>image_to_image_map:w&#45;&gt;SQE_image:e</title>
<path fill="none" stroke="black" d="M567.38,-470.03C536.17,-466.09 523.33,-466.75 486,-472"/>
<polygon fill="black" stroke="black" points="574.07,-470.93 581.52,-475.57 578.04,-471.47 582,-472 582,-472 582,-472 578.04,-471.47 582.48,-468.43 574.07,-470.93 574.07,-470.93"/>
<ellipse fill="none" stroke="black" cx="570.9" cy="-470.51" rx="3.2" ry="3.2"/>
</g>
<!-- image_to_image_map&#45;&gt;SQE_image -->
<g id="edge7" class="edge">
<title>image_to_image_map:w&#45;&gt;SQE_image:e</title>
<path fill="none" stroke="black" d="M567.38,-474.3C536.17,-478.89 523.33,-478.12 486,-472"/>
<polygon fill="black" stroke="black" points="574.1,-473.24 582.56,-475.56 578.05,-472.62 582,-472 582,-472 582,-472 578.05,-472.62 581.44,-468.44 574.1,-473.24 574.1,-473.24"/>
<ellipse fill="none" stroke="black" cx="570.94" cy="-473.74" rx="3.2" ry="3.2"/>
</g>
<!-- SQE_image_author -->
<g id="node10" class="node">
<title>SQE_image_author</title>
<g id="a_node10"><a xlink:href="../../tables/SQE_image_author.html" xlink:title="SQE_image_author" target="_top">
<polygon fill="#ffffff" stroke="transparent" points="590.5,-323 590.5,-381 755.5,-381 755.5,-323 590.5,-323"/>
<polygon fill="#f5f5f5" stroke="transparent" points="591,-359 591,-381 756,-381 756,-359 591,-359"/>
<polygon fill="none" stroke="black" points="591,-359 591,-381 756,-381 756,-359 591,-359"/>
<text text-anchor="start" x="596" y="-368.2" font-family="Helvetica,sans-Serif" font-weight="bold" font-size="11.00">SQE_image_author</text>
<text text-anchor="start" x="714" y="-367.2" font-family="Helvetica,sans-Serif" font-size="11.00">[table]</text>
<polygon fill="none" stroke="black" points="591,-341 591,-359 756,-359 756,-341 591,-341"/>
<text text-anchor="start" x="594" y="-347.2" font-family="Helvetica,sans-Serif" font-size="11.00">...</text>
<polygon fill="#ffffff" stroke="transparent" points="591,-323 591,-341 642,-341 642,-323 591,-323"/>
<polygon fill="none" stroke="black" points="591,-323 591,-341 642,-341 642,-323 591,-323"/>
<text text-anchor="start" x="594" y="-329.2" font-family="Helvetica,sans-Serif" font-size="11.00">&lt; 2</text>
<polygon fill="#ffffff" stroke="transparent" points="642,-323 642,-341 729,-341 729,-323 642,-323"/>
<polygon fill="none" stroke="black" points="642,-323 642,-341 729,-341 729,-323 642,-323"/>
<text text-anchor="start" x="658" y="-329.2" font-family="Helvetica,sans-Serif" font-size="11.00">97,205 rows</text>
<polygon fill="#ffffff" stroke="transparent" points="729,-323 729,-341 756,-341 756,-323 729,-323"/>
<polygon fill="none" stroke="black" points="729,-323 729,-341 756,-341 756,-323 729,-323"/>
<text text-anchor="start" x="745" y="-329.2" font-family="Helvetica,sans-Serif" font-size="11.00"> &#160;</text>
</a>
</g>
</g>
<!-- SQE_image_author&#45;&gt;SQE_image -->
<g id="edge10" class="edge">
<title>SQE_image_author:w&#45;&gt;SQE_image:e</title>
<path fill="none" stroke="black" d="M579.61,-350.98C522.51,-362.53 553.49,-472 486,-472"/>
<polygon fill="black" stroke="black" points="588.83,-346.09 589.58,-354.06 587.99,-354.21 587.23,-346.24 588.83,-346.09"/>
<polyline fill="none" stroke="black" points="590,-350 586.02,-350.38 "/>
<ellipse fill="none" stroke="black" cx="582.83" cy="-350.68" rx="3.2" ry="3.2"/>
</g>
<!-- SQE_image_author&#45;&gt;user -->
<g id="edge11" class="edge">
<title>SQE_image_author:w&#45;&gt;user:e</title>
<path fill="none" stroke="black" d="M575.61,-349.1C528.23,-342.93 516.86,-307 462,-307"/>
<polygon fill="black" stroke="black" points="582.02,-349.5 589.78,-353.59 586.01,-349.75 590,-350 590,-350 590,-350 586.01,-349.75 590.22,-346.41 582.02,-349.5 582.02,-349.5"/>
<ellipse fill="none" stroke="black" cx="578.82" cy="-349.3" rx="3.2" ry="3.2"/>
</g>
</g>
</svg>
