<?xml version="1.0" encoding="UTF-8" standalone="no"?>
<!DOCTYPE svg PUBLIC "-//W3C//DTD SVG 1.1//EN"
 "http://www.w3.org/Graphics/SVG/1.1/DTD/svg11.dtd">
<!-- Generated by graphviz version 2.40.1 (20161225.0304)
 -->
<!-- Title: oneDegreeRelationshipsDiagramImplied Pages: 1 -->
<svg width="750pt" height="681pt"
 viewBox="0.00 0.00 750.00 681.00" xmlns="http://www.w3.org/2000/svg" xmlns:xlink="http://www.w3.org/1999/xlink">
<g id="graph0" class="graph" transform="scale(1 1) rotate(0) translate(4 677)">
<title>oneDegreeRelationshipsDiagramImplied</title>
<polygon fill="#ffffff" stroke="transparent" points="-4,4 -4,-677 746,-677 746,4 -4,4"/>
<text text-anchor="middle" x="71.5" y="-7.2" font-family="Helvetica,sans-Serif" font-size="11.00" fill="#000000">Generated by SchemaSpy</text>
<!-- edition -->
<g id="node1" class="node">
<title>edition</title>
<g id="a_node1"><a xlink:href="../../tables/edition.html" xlink:title="edition" target="_top">
<polygon fill="#ffffff" stroke="transparent" points="173,-37 173,-139 308,-139 308,-37 173,-37"/>
<polygon fill="#f5f5f5" stroke="transparent" points="173.5,-117 173.5,-139 308.5,-139 308.5,-117 173.5,-117"/>
<polygon fill="none" stroke="#000000" points="173.5,-117 173.5,-139 308.5,-139 308.5,-117 173.5,-117"/>
<text text-anchor="start" x="178.5" y="-126.2" font-family="Helvetica,sans-Serif" font-weight="bold" font-size="11.00" fill="#000000">edition</text>
<text text-anchor="start" x="273.5" y="-125.2" font-family="Helvetica,sans-Serif" font-size="11.00" fill="#000000">[table]</text>
<polygon fill="none" stroke="#000000" points="173.5,-95 173.5,-117 308.5,-117 308.5,-95 173.5,-95"/>
<image xlink:href="../../images/primaryKeys.png" width="11px" height="12px" preserveAspectRatio="xMinYMin meet" x="178.5" y="-112"/>
<text text-anchor="start" x="193.5" y="-103.2" font-family="Helvetica,sans-Serif" font-size="11.00" fill="#000000">edition_id</text>
<polygon fill="#ffffff" stroke="transparent" points="173.5,-73 173.5,-95 308.5,-95 308.5,-73 173.5,-73"/>
<polygon fill="none" stroke="#000000" points="173.5,-73 173.5,-95 308.5,-95 308.5,-73 173.5,-73"/>
<image xlink:href="../../images/foreignKeys.png" width="11px" height="12px" preserveAspectRatio="xMinYMin meet" x="178.5" y="-90"/>
<text text-anchor="start" x="193.5" y="-81.2" font-family="Helvetica,sans-Serif" font-size="11.00" fill="#000000">manuscript_id</text>
<polygon fill="none" stroke="#000000" points="173.5,-55 173.5,-73 308.5,-73 308.5,-55 173.5,-55"/>
<text text-anchor="start" x="176.5" y="-61.2" font-family="Helvetica,sans-Serif" font-size="11.00" fill="#000000">...</text>
<polygon fill="#ffffff" stroke="transparent" points="173.5,-37 173.5,-55 207.5,-55 207.5,-37 173.5,-37"/>
<polygon fill="none" stroke="#000000" points="173.5,-37 173.5,-55 207.5,-55 207.5,-37 173.5,-37"/>
<text text-anchor="start" x="176.5" y="-43.2" font-family="Helvetica,sans-Serif" font-size="11.00" fill="#000000">&lt; 1</text>
<polygon fill="#ffffff" stroke="transparent" points="207.5,-37 207.5,-55 273.5,-55 273.5,-37 207.5,-37"/>
<polygon fill="none" stroke="#000000" points="207.5,-37 207.5,-55 273.5,-55 273.5,-37 207.5,-37"/>
<text text-anchor="start" x="216.5" y="-43.2" font-family="Helvetica,sans-Serif" font-size="11.00" fill="#000000">1,645 rows</text>
<polygon fill="#ffffff" stroke="transparent" points="273.5,-37 273.5,-55 308.5,-55 308.5,-37 273.5,-37"/>
<polygon fill="none" stroke="#000000" points="273.5,-37 273.5,-55 308.5,-55 308.5,-37 273.5,-37"/>
<text text-anchor="start" x="283.5" y="-43.2" font-family="Helvetica,sans-Serif" font-size="11.00" fill="#000000">33 &gt;</text>
</a>
</g>
</g>
<!-- manuscript -->
<g id="node2" class="node">
<title>manuscript</title>
<g id="a_node2"><a xlink:href="../../tables/manuscript.html" xlink:title="manuscript" target="_top">
<polygon fill="#ffffff" stroke="transparent" points="8,-161 8,-223 124,-223 124,-161 8,-161"/>
<polygon fill="#f5f5f5" stroke="transparent" points="8,-201 8,-223 124,-223 124,-201 8,-201"/>
<polygon fill="none" stroke="#000000" points="8,-201 8,-223 124,-223 124,-201 8,-201"/>
<text text-anchor="start" x="13" y="-210.2" font-family="Helvetica,sans-Serif" font-weight="bold" font-size="11.00" fill="#000000">manuscript</text>
<text text-anchor="start" x="89" y="-209.2" font-family="Helvetica,sans-Serif" font-size="11.00" fill="#000000">[table]</text>
<polygon fill="none" stroke="#000000" points="8,-179 8,-201 124,-201 124,-179 8,-179"/>
<image xlink:href="../../images/primaryKeys.png" width="11px" height="12px" preserveAspectRatio="xMinYMin meet" x="13" y="-196"/>
<text text-anchor="start" x="28" y="-187.2" font-family="Helvetica,sans-Serif" font-size="11.00" fill="#000000">manuscript_id</text>
<polygon fill="#ffffff" stroke="transparent" points="8,-161 8,-179 31,-179 31,-161 8,-161"/>
<polygon fill="none" stroke="#000000" points="8,-161 8,-179 31,-179 31,-161 8,-161"/>
<text text-anchor="start" x="11" y="-167.2" font-family="Helvetica,sans-Serif" font-size="11.00" fill="#000000"> &#160;</text>
<polygon fill="#ffffff" stroke="transparent" points="31,-161 31,-179 96,-179 96,-161 31,-161"/>
<polygon fill="none" stroke="#000000" points="31,-161 31,-179 96,-179 96,-161 31,-161"/>
<text text-anchor="start" x="39" y="-167.2" font-family="Helvetica,sans-Serif" font-size="11.00" fill="#000000">1,645 rows</text>
<polygon fill="#ffffff" stroke="transparent" points="96,-161 96,-179 124,-179 124,-161 96,-161"/>
<polygon fill="none" stroke="#000000" points="96,-161 96,-179 124,-179 124,-161 96,-161"/>
<text text-anchor="start" x="105" y="-167.2" font-family="Helvetica,sans-Serif" font-size="11.00" fill="#000000">6 &gt;</text>
</a>
</g>
</g>
<!-- edition&#45;&gt;manuscript -->
<g id="edge1" class="edge">
<title>edition:w&#45;&gt;manuscript:e</title>
<path fill="none" stroke="#000000" d="M159.2649,-88.0259C132.8139,-107.3881 169.9016,-190 124,-190"/>
<polygon fill="#000000" stroke="#000000" points="165.8019,-86.1772 174.4797,-87.4641 169.651,-85.0886 173.5,-84 173.5,-84 173.5,-84 169.651,-85.0886 172.5203,-80.5359 165.8019,-86.1772 165.8019,-86.1772"/>
<ellipse fill="none" stroke="#000000" cx="162.7227" cy="-87.048" rx="3.2" ry="3.2"/>
</g>
<!-- image_text_fragment_match_catalogue -->
<g id="node3" class="node">
<title>image_text_fragment_match_catalogue</title>
<g id="a_node3"><a xlink:href="../../tables/image_text_fragment_match_catalogue.html" xlink:title="image_text_fragment_match_catalogue" target="_top">
<polygon fill="#ffffff" stroke="transparent" points="357,-93 357,-669 734,-669 734,-93 357,-93"/>
<polygon fill="#f5f5f5" stroke="transparent" points="359.5,-645 359.5,-667 732.5,-667 732.5,-645 359.5,-645"/>
<polygon fill="none" stroke="#000000" points="359.5,-645 359.5,-667 732.5,-667 732.5,-645 359.5,-645"/>
<text text-anchor="start" x="364.5" y="-654.2" font-family="Helvetica,sans-Serif" font-weight="bold" font-size="11.00" fill="#000000">image_text_fragment_match_catalogue</text>
<text text-anchor="start" x="699.5" y="-653.2" font-family="Helvetica,sans-Serif" font-size="11.00" fill="#000000">[view]</text>
<polygon fill="none" stroke="#000000" points="359.5,-623 359.5,-645 650.5,-645 650.5,-623 359.5,-623"/>
<text text-anchor="start" x="379.5" y="-631.2" font-family="Helvetica,sans-Serif" font-size="11.00" fill="#000000">image_catalog_id</text>
<polygon fill="none" stroke="#000000" points="650.5,-623 650.5,-645 732.5,-645 732.5,-623 650.5,-623"/>
<text text-anchor="start" x="653.5" y="-631.2" font-family="Helvetica,sans-Serif" font-size="11.00" fill="#000000">int unsigned[10]</text>
<polygon fill="none" stroke="#000000" points="359.5,-601 359.5,-623 650.5,-623 650.5,-601 359.5,-601"/>
<text text-anchor="start" x="379.5" y="-609.2" font-family="Helvetica,sans-Serif" font-size="11.00" fill="#000000">institution</text>
<polygon fill="none" stroke="#000000" points="650.5,-601 650.5,-623 732.5,-623 732.5,-601 650.5,-601"/>
<text text-anchor="start" x="653.5" y="-609.2" font-family="Helvetica,sans-Serif" font-size="11.00" fill="#000000">varchar[255]</text>
<polygon fill="none" stroke="#000000" points="359.5,-579 359.5,-601 650.5,-601 650.5,-579 359.5,-579"/>
<text text-anchor="start" x="379.5" y="-587.2" font-family="Helvetica,sans-Serif" font-size="11.00" fill="#000000">catalog_number_1</text>
<polygon fill="none" stroke="#000000" points="650.5,-579 650.5,-601 732.5,-601 732.5,-579 650.5,-579"/>
<text text-anchor="start" x="653.5" y="-587.2" font-family="Helvetica,sans-Serif" font-size="11.00" fill="#000000">varchar[255]</text>
<polygon fill="none" stroke="#000000" points="359.5,-557 359.5,-579 650.5,-579 650.5,-557 359.5,-557"/>
<text text-anchor="start" x="379.5" y="-565.2" font-family="Helvetica,sans-Serif" font-size="11.00" fill="#000000">catalog_number_2</text>
<polygon fill="none" stroke="#000000" points="650.5,-557 650.5,-579 732.5,-579 732.5,-557 650.5,-557"/>
<text text-anchor="start" x="653.5" y="-565.2" font-family="Helvetica,sans-Serif" font-size="11.00" fill="#000000">varchar[255]</text>
<polygon fill="none" stroke="#000000" points="359.5,-535 359.5,-557 650.5,-557 650.5,-535 359.5,-535"/>
<text text-anchor="start" x="379.5" y="-543.2" font-family="Helvetica,sans-Serif" font-size="11.00" fill="#000000">catalog_side</text>
<polygon fill="none" stroke="#000000" points="650.5,-535 650.5,-557 732.5,-557 732.5,-535 650.5,-535"/>
<text text-anchor="start" x="653.5" y="-543.2" font-family="Helvetica,sans-Serif" font-size="11.00" fill="#000000">bit[3]</text>
<polygon fill="none" stroke="#000000" points="359.5,-513 359.5,-535 650.5,-535 650.5,-513 359.5,-513"/>
<text text-anchor="start" x="379.5" y="-521.2" font-family="Helvetica,sans-Serif" font-size="11.00" fill="#000000">object_id</text>
<polygon fill="none" stroke="#000000" points="650.5,-513 650.5,-535 732.5,-535 732.5,-513 650.5,-513"/>
<text text-anchor="start" x="653.5" y="-521.2" font-family="Helvetica,sans-Serif" font-size="11.00" fill="#000000">varchar[255]</text>
<polygon fill="none" stroke="#000000" points="359.5,-491 359.5,-513 650.5,-513 650.5,-491 359.5,-491"/>
<text text-anchor="start" x="379.5" y="-499.2" font-family="Helvetica,sans-Serif" font-size="11.00" fill="#000000">image_urls_id</text>
<polygon fill="none" stroke="#000000" points="650.5,-491 650.5,-513 732.5,-513 732.5,-491 650.5,-491"/>
<text text-anchor="start" x="653.5" y="-499.2" font-family="Helvetica,sans-Serif" font-size="11.00" fill="#000000">int unsigned[10]</text>
<polygon fill="none" stroke="#000000" points="359.5,-469 359.5,-491 650.5,-491 650.5,-469 359.5,-469"/>
<text text-anchor="start" x="379.5" y="-477.2" font-family="Helvetica,sans-Serif" font-size="11.00" fill="#000000">url</text>
<polygon fill="none" stroke="#000000" points="650.5,-469 650.5,-491 732.5,-491 732.5,-469 650.5,-469"/>
<text text-anchor="start" x="653.5" y="-477.2" font-family="Helvetica,sans-Serif" font-size="11.00" fill="#000000">varchar[255]</text>
<polygon fill="none" stroke="#000000" points="359.5,-447 359.5,-469 650.5,-469 650.5,-447 359.5,-447"/>
<text text-anchor="start" x="379.5" y="-455.2" font-family="Helvetica,sans-Serif" font-size="11.00" fill="#000000">proxy</text>
<polygon fill="none" stroke="#000000" points="650.5,-447 650.5,-469 732.5,-469 732.5,-447 650.5,-447"/>
<text text-anchor="start" x="653.5" y="-455.2" font-family="Helvetica,sans-Serif" font-size="11.00" fill="#000000">varchar[255]</text>
<polygon fill="none" stroke="#000000" points="359.5,-425 359.5,-447 650.5,-447 650.5,-425 359.5,-425"/>
<text text-anchor="start" x="379.5" y="-433.2" font-family="Helvetica,sans-Serif" font-size="11.00" fill="#000000">suffix</text>
<polygon fill="none" stroke="#000000" points="650.5,-425 650.5,-447 732.5,-447 732.5,-425 650.5,-425"/>
<text text-anchor="start" x="653.5" y="-433.2" font-family="Helvetica,sans-Serif" font-size="11.00" fill="#000000">varchar[255]</text>
<polygon fill="none" stroke="#000000" points="359.5,-403 359.5,-425 650.5,-425 650.5,-403 359.5,-403"/>
<text text-anchor="start" x="379.5" y="-411.2" font-family="Helvetica,sans-Serif" font-size="11.00" fill="#000000">license</text>
<polygon fill="none" stroke="#000000" points="650.5,-403 650.5,-425 732.5,-425 732.5,-403 650.5,-403"/>
<text text-anchor="start" x="653.5" y="-411.2" font-family="Helvetica,sans-Serif" font-size="11.00" fill="#000000">text[65535]</text>
<polygon fill="none" stroke="#000000" points="359.5,-381 359.5,-403 650.5,-403 650.5,-381 359.5,-381"/>
<text text-anchor="start" x="379.5" y="-389.2" font-family="Helvetica,sans-Serif" font-size="11.00" fill="#000000">filename</text>
<polygon fill="none" stroke="#000000" points="650.5,-381 650.5,-403 732.5,-403 732.5,-381 650.5,-381"/>
<text text-anchor="start" x="653.5" y="-389.2" font-family="Helvetica,sans-Serif" font-size="11.00" fill="#000000">varchar[255]</text>
<polygon fill="none" stroke="#000000" points="359.5,-359 359.5,-381 650.5,-381 650.5,-359 359.5,-359"/>
<text text-anchor="start" x="379.5" y="-367.2" font-family="Helvetica,sans-Serif" font-size="11.00" fill="#000000">iaa_edition_catalog_id</text>
<polygon fill="none" stroke="#000000" points="650.5,-359 650.5,-381 732.5,-381 732.5,-359 650.5,-359"/>
<text text-anchor="start" x="653.5" y="-367.2" font-family="Helvetica,sans-Serif" font-size="11.00" fill="#000000">int unsigned[10]</text>
<polygon fill="none" stroke="#000000" points="359.5,-337 359.5,-359 650.5,-359 650.5,-337 359.5,-337"/>
<image xlink:href="../../images/foreignKeys.png" width="11px" height="12px" preserveAspectRatio="xMinYMin meet" x="364.5" y="-354"/>
<text text-anchor="start" x="379.5" y="-345.2" font-family="Helvetica,sans-Serif" font-size="11.00" fill="#000000">manuscript_id</text>
<polygon fill="none" stroke="#000000" points="650.5,-337 650.5,-359 732.5,-359 732.5,-337 650.5,-337"/>
<text text-anchor="start" x="653.5" y="-345.2" font-family="Helvetica,sans-Serif" font-size="11.00" fill="#000000">int unsigned[10]</text>
<polygon fill="none" stroke="#000000" points="359.5,-315 359.5,-337 650.5,-337 650.5,-315 359.5,-315"/>
<text text-anchor="start" x="379.5" y="-323.2" font-family="Helvetica,sans-Serif" font-size="11.00" fill="#000000">edition_name</text>
<polygon fill="none" stroke="#000000" points="650.5,-315 650.5,-337 732.5,-337 732.5,-315 650.5,-315"/>
<text text-anchor="start" x="653.5" y="-323.2" font-family="Helvetica,sans-Serif" font-size="11.00" fill="#000000">varchar[255]</text>
<polygon fill="none" stroke="#000000" points="359.5,-293 359.5,-315 650.5,-315 650.5,-293 359.5,-293"/>
<text text-anchor="start" x="379.5" y="-301.2" font-family="Helvetica,sans-Serif" font-size="11.00" fill="#000000">edition_volume</text>
<polygon fill="none" stroke="#000000" points="650.5,-293 650.5,-315 732.5,-315 732.5,-293 650.5,-293"/>
<text text-anchor="start" x="653.5" y="-301.2" font-family="Helvetica,sans-Serif" font-size="11.00" fill="#000000">varchar[128]</text>
<polygon fill="none" stroke="#000000" points="359.5,-271 359.5,-293 650.5,-293 650.5,-271 359.5,-271"/>
<text text-anchor="start" x="379.5" y="-279.2" font-family="Helvetica,sans-Serif" font-size="11.00" fill="#000000">edition_location_1</text>
<polygon fill="none" stroke="#000000" points="650.5,-271 650.5,-293 732.5,-293 732.5,-271 650.5,-271"/>
<text text-anchor="start" x="653.5" y="-279.2" font-family="Helvetica,sans-Serif" font-size="11.00" fill="#000000">varchar[64]</text>
<polygon fill="none" stroke="#000000" points="359.5,-249 359.5,-271 650.5,-271 650.5,-249 359.5,-249"/>
<text text-anchor="start" x="379.5" y="-257.2" font-family="Helvetica,sans-Serif" font-size="11.00" fill="#000000">edition_location_2</text>
<polygon fill="none" stroke="#000000" points="650.5,-249 650.5,-271 732.5,-271 732.5,-249 650.5,-249"/>
<text text-anchor="start" x="653.5" y="-257.2" font-family="Helvetica,sans-Serif" font-size="11.00" fill="#000000">varchar[64]</text>
<polygon fill="none" stroke="#000000" points="359.5,-227 359.5,-249 650.5,-249 650.5,-227 359.5,-227"/>
<text text-anchor="start" x="379.5" y="-235.2" font-family="Helvetica,sans-Serif" font-size="11.00" fill="#000000">edition_side</text>
<polygon fill="none" stroke="#000000" points="650.5,-227 650.5,-249 732.5,-249 732.5,-227 650.5,-227"/>
<text text-anchor="start" x="653.5" y="-235.2" font-family="Helvetica,sans-Serif" font-size="11.00" fill="#000000">bit[3]</text>
<polygon fill="none" stroke="#000000" points="359.5,-205 359.5,-227 650.5,-227 650.5,-205 359.5,-205"/>
<text text-anchor="start" x="379.5" y="-213.2" font-family="Helvetica,sans-Serif" font-size="11.00" fill="#000000">comment</text>
<polygon fill="none" stroke="#000000" points="650.5,-205 650.5,-227 732.5,-227 732.5,-205 650.5,-205"/>
<text text-anchor="start" x="653.5" y="-213.2" font-family="Helvetica,sans-Serif" font-size="11.00" fill="#000000">varchar[255]</text>
<polygon fill="none" stroke="#000000" points="359.5,-183 359.5,-205 650.5,-205 650.5,-183 359.5,-183"/>
<text text-anchor="start" x="379.5" y="-191.2" font-family="Helvetica,sans-Serif" font-size="11.00" fill="#000000">iaa_edition_catalog_to_text_fragment_id</text>
<polygon fill="none" stroke="#000000" points="650.5,-183 650.5,-205 732.5,-205 732.5,-183 650.5,-183"/>
<text text-anchor="start" x="653.5" y="-191.2" font-family="Helvetica,sans-Serif" font-size="11.00" fill="#000000">int unsigned[10]</text>
<polygon fill="none" stroke="#000000" points="359.5,-161 359.5,-183 650.5,-183 650.5,-161 359.5,-161"/>
<image xlink:href="../../images/foreignKeys.png" width="11px" height="12px" preserveAspectRatio="xMinYMin meet" x="364.5" y="-178"/>
<text text-anchor="start" x="379.5" y="-169.2" font-family="Helvetica,sans-Serif" font-size="11.00" fill="#000000">text_fragment_id</text>
<polygon fill="none" stroke="#000000" points="650.5,-161 650.5,-183 732.5,-183 732.5,-161 650.5,-161"/>
<text text-anchor="start" x="653.5" y="-169.2" font-family="Helvetica,sans-Serif" font-size="11.00" fill="#000000">int unsigned[10]</text>
<polygon fill="none" stroke="#000000" points="359.5,-139 359.5,-161 650.5,-161 650.5,-139 359.5,-139"/>
<text text-anchor="start" x="379.5" y="-147.2" font-family="Helvetica,sans-Serif" font-size="11.00" fill="#000000">name</text>
<polygon fill="none" stroke="#000000" points="650.5,-139 650.5,-161 732.5,-161 732.5,-139 650.5,-139"/>
<text text-anchor="start" x="653.5" y="-147.2" font-family="Helvetica,sans-Serif" font-size="11.00" fill="#000000">varchar[255]</text>
<polygon fill="none" stroke="#000000" points="359.5,-117 359.5,-139 650.5,-139 650.5,-117 359.5,-117"/>
<text text-anchor="start" x="379.5" y="-125.2" font-family="Helvetica,sans-Serif" font-size="11.00" fill="#000000">manuscript_name</text>
<polygon fill="none" stroke="#000000" points="650.5,-117 650.5,-139 732.5,-139 732.5,-117 650.5,-117"/>
<text text-anchor="start" x="653.5" y="-125.2" font-family="Helvetica,sans-Serif" font-size="11.00" fill="#000000">varchar[255]</text>
<polygon fill="none" stroke="#000000" points="359.5,-95 359.5,-117 650.5,-117 650.5,-95 359.5,-95"/>
<image xlink:href="../../images/foreignKeys.png" width="11px" height="12px" preserveAspectRatio="xMinYMin meet" x="364.5" y="-112"/>
<text text-anchor="start" x="379.5" y="-103.2" font-family="Helvetica,sans-Serif" font-size="11.00" fill="#000000">edition_id</text>
<polygon fill="none" stroke="#000000" points="650.5,-95 650.5,-117 732.5,-117 732.5,-95 650.5,-95"/>
<text text-anchor="start" x="653.5" y="-103.2" font-family="Helvetica,sans-Serif" font-size="11.00" fill="#000000">int unsigned[10]</text>
<polygon fill="none" stroke="#000000" stroke-width="2" points="358,-94 358,-668 733,-668 733,-94 358,-94"/>
</a>
</g>
</g>
<!-- image_text_fragment_match_catalogue&#45;&gt;edition -->
<g id="edge2" class="edge">
<title>image_text_fragment_match_catalogue:w&#45;&gt;edition:e</title>
<path fill="none" stroke="#000000" stroke-dasharray="5,2" d="M344.776,-106C332.7815,-106 325.3229,-106 308.5,-106"/>
<polygon fill="#000000" stroke="#000000" points="351.5,-106.0001 359.5,-109.6 355.5,-106 359.5,-106 359.5,-106 359.5,-106 355.5,-106 359.5,-102.4 351.5,-106.0001 351.5,-106.0001"/>
<ellipse fill="none" stroke="#000000" cx="348.3" cy="-106.0001" rx="3.2" ry="3.2"/>
</g>
<!-- image_text_fragment_match_catalogue&#45;&gt;manuscript -->
<g id="edge3" class="edge">
<title>image_text_fragment_match_catalogue:w&#45;&gt;manuscript:e</title>
<path fill="none" stroke="#000000" stroke-dasharray="5,2" d="M344.8389,-347.5993C257.3429,-342.6409 239.6234,-292.3135 165,-233 144.3283,-216.5694 150.4061,-190 124,-190"/>
<polygon fill="#000000" stroke="#000000" points="351.503,-347.7814 359.4016,-351.5987 355.5015,-347.8907 359.5,-348 359.5,-348 359.5,-348 355.5015,-347.8907 359.5984,-344.4013 351.503,-347.7814 351.503,-347.7814"/>
<ellipse fill="none" stroke="#000000" cx="348.3042" cy="-347.6939" rx="3.2" ry="3.2"/>
</g>
<!-- text_fragment -->
<g id="node4" class="node">
<title>text_fragment</title>
<g id="a_node4"><a xlink:href="../../tables/text_fragment.html" xlink:title="text_fragment" target="_top">
<polygon fill="#ffffff" stroke="transparent" points="173,-160 173,-222 308,-222 308,-160 173,-160"/>
<polygon fill="#f5f5f5" stroke="transparent" points="173.5,-200 173.5,-222 308.5,-222 308.5,-200 173.5,-200"/>
<polygon fill="none" stroke="#000000" points="173.5,-200 173.5,-222 308.5,-222 308.5,-200 173.5,-200"/>
<text text-anchor="start" x="178.5" y="-209.2" font-family="Helvetica,sans-Serif" font-weight="bold" font-size="11.00" fill="#000000">text_fragment</text>
<text text-anchor="start" x="273.5" y="-208.2" font-family="Helvetica,sans-Serif" font-size="11.00" fill="#000000">[table]</text>
<polygon fill="none" stroke="#000000" points="173.5,-178 173.5,-200 308.5,-200 308.5,-178 173.5,-178"/>
<image xlink:href="../../images/primaryKeys.png" width="11px" height="12px" preserveAspectRatio="xMinYMin meet" x="178.5" y="-195"/>
<text text-anchor="start" x="193.5" y="-186.2" font-family="Helvetica,sans-Serif" font-size="11.00" fill="#000000">text_fragment_id</text>
<polygon fill="#ffffff" stroke="transparent" points="173.5,-160 173.5,-178 203.5,-178 203.5,-160 173.5,-160"/>
<polygon fill="none" stroke="#000000" points="173.5,-160 173.5,-178 203.5,-178 203.5,-160 173.5,-160"/>
<text text-anchor="start" x="176.5" y="-166.2" font-family="Helvetica,sans-Serif" font-size="11.00" fill="#000000"> &#160;</text>
<polygon fill="#ffffff" stroke="transparent" points="203.5,-160 203.5,-178 277.5,-178 277.5,-160 203.5,-160"/>
<polygon fill="none" stroke="#000000" points="203.5,-160 203.5,-178 277.5,-178 277.5,-160 203.5,-160"/>
<text text-anchor="start" x="214.5" y="-166.2" font-family="Helvetica,sans-Serif" font-size="11.00" fill="#000000">11,176 rows</text>
<polygon fill="#ffffff" stroke="transparent" points="277.5,-160 277.5,-178 308.5,-178 308.5,-160 277.5,-160"/>
<polygon fill="none" stroke="#000000" points="277.5,-160 277.5,-178 308.5,-178 308.5,-160 277.5,-160"/>
<text text-anchor="start" x="289.5" y="-166.2" font-family="Helvetica,sans-Serif" font-size="11.00" fill="#000000">7 &gt;</text>
</a>
</g>
</g>
<!-- image_text_fragment_match_catalogue&#45;&gt;text_fragment -->
<g id="edge4" class="edge">
<title>image_text_fragment_match_catalogue:w&#45;&gt;text_fragment:e</title>
<path fill="none" stroke="#000000" stroke-dasharray="5,2" d="M345.1916,-174.5084C332.8373,-179.2372 326.6062,-189 308.5,-189"/>
<polygon fill="#000000" stroke="#000000" points="351.6202,-173.3815 360.1217,-175.5459 355.5601,-172.6907 359.5,-172 359.5,-172 359.5,-172 355.5601,-172.6907 358.8783,-168.4541 351.6202,-173.3815 351.6202,-173.3815"/>
<ellipse fill="none" stroke="#000000" cx="348.4682" cy="-173.934" rx="3.2" ry="3.2"/>
</g>
</g>
</svg>
