<?xml version="1.0" encoding="UTF-8" standalone="no"?>
<!DOCTYPE svg PUBLIC "-//W3C//DTD SVG 1.1//EN"
 "http://www.w3.org/Graphics/SVG/1.1/DTD/svg11.dtd">
<!-- Generated by graphviz version 2.43.0 (0)
 -->
<!-- Title: twoDegreesRelationshipsDiagramImplied Pages: 1 -->
<svg width="836pt" height="925pt"
 viewBox="0.00 0.00 836.00 925.00" xmlns="http://www.w3.org/2000/svg" xmlns:xlink="http://www.w3.org/1999/xlink">
<g id="graph0" class="graph" transform="scale(1 1) rotate(0) translate(4 921)">
<title>twoDegreesRelationshipsDiagramImplied</title>
<polygon fill="#ffffff" stroke="transparent" points="-4,4 -4,-921 832,-921 832,4 -4,4"/>
<text text-anchor="middle" x="79.5" y="-7.2" font-family="Helvetica,sans-Serif" font-size="11.00">Generated by SchemaSpy</text>
<!-- edition_editor -->
<g id="node1" class="node">
<title>edition_editor</title>
<g id="a_node1"><a xlink:href="../../tables/edition_editor.html" xlink:title="edition_editor" target="_top">
<polygon fill="#ffffff" stroke="transparent" points="333,-855 333,-913 469,-913 469,-855 333,-855"/>
<polygon fill="#f5f5f5" stroke="transparent" points="333,-891 333,-913 469,-913 469,-891 333,-891"/>
<polygon fill="none" stroke="black" points="333,-891 333,-913 469,-913 469,-891 333,-891"/>
<text text-anchor="start" x="338" y="-900.2" font-family="Helvetica,sans-Serif" font-weight="bold" font-size="11.00">edition_editor</text>
<text text-anchor="start" x="427" y="-899.2" font-family="Helvetica,sans-Serif" font-size="11.00">[table]</text>
<polygon fill="none" stroke="black" points="333,-873 333,-891 469,-891 469,-873 333,-873"/>
<text text-anchor="start" x="336" y="-879.2" font-family="Helvetica,sans-Serif" font-size="11.00">...</text>
<polygon fill="#ffffff" stroke="transparent" points="333,-855 333,-873 364,-873 364,-855 333,-855"/>
<polygon fill="none" stroke="black" points="333,-855 333,-873 364,-873 364,-855 333,-855"/>
<text text-anchor="start" x="336" y="-861.2" font-family="Helvetica,sans-Serif" font-size="11.00">&lt; 2</text>
<polygon fill="#ffffff" stroke="transparent" points="364,-855 364,-873 433,-873 433,-855 364,-855"/>
<polygon fill="none" stroke="black" points="364,-855 364,-873 433,-873 433,-855 364,-855"/>
<text text-anchor="start" x="369" y="-861.2" font-family="Helvetica,sans-Serif" font-size="11.00">1,645 rows</text>
<polygon fill="#ffffff" stroke="transparent" points="433,-855 433,-873 469,-873 469,-855 433,-855"/>
<polygon fill="none" stroke="black" points="433,-855 433,-873 469,-873 469,-855 433,-855"/>
<text text-anchor="start" x="439" y="-861.2" font-family="Helvetica,sans-Serif" font-size="11.00">33 &gt;</text>
</a>
</g>
</g>
<!-- user -->
<g id="node2" class="node">
<title>user</title>
<g id="a_node2"><a xlink:href="../../tables/user.html" xlink:title="user" target="_top">
<polygon fill="#ffffff" stroke="transparent" points="8,-537 8,-639 171,-639 171,-537 8,-537"/>
<polygon fill="#f5f5f5" stroke="transparent" points="8.5,-617 8.5,-639 171.5,-639 171.5,-617 8.5,-617"/>
<polygon fill="none" stroke="black" points="8.5,-617 8.5,-639 171.5,-639 171.5,-617 8.5,-617"/>
<text text-anchor="start" x="13.5" y="-626.2" font-family="Helvetica,sans-Serif" font-weight="bold" font-size="11.00">user</text>
<text text-anchor="start" x="129.5" y="-625.2" font-family="Helvetica,sans-Serif" font-size="11.00">[table]</text>
<polygon fill="none" stroke="black" points="8.5,-595 8.5,-617 171.5,-617 171.5,-595 8.5,-595"/>
<image xlink:href="../../images/primaryKeys.png" width="11px" height="12px" preserveAspectRatio="xMinYMin meet" x="13.5" y="-612"/>
<text text-anchor="start" x="28.5" y="-603.2" font-family="Helvetica,sans-Serif" font-size="11.00">user_id</text>
<polygon fill="#ffffff" stroke="transparent" points="8.5,-573 8.5,-595 171.5,-595 171.5,-573 8.5,-573"/>
<polygon fill="none" stroke="black" points="8.5,-573 8.5,-595 171.5,-595 171.5,-573 8.5,-573"/>
<text text-anchor="start" x="28.5" y="-581.2" font-family="Helvetica,sans-Serif" font-size="11.00">email</text>
<polygon fill="none" stroke="black" points="8.5,-555 8.5,-573 171.5,-573 171.5,-555 8.5,-555"/>
<text text-anchor="start" x="11.5" y="-561.2" font-family="Helvetica,sans-Serif" font-size="11.00">...</text>
<polygon fill="#ffffff" stroke="transparent" points="8.5,-537 8.5,-555 58.5,-555 58.5,-537 8.5,-537"/>
<polygon fill="none" stroke="black" points="8.5,-537 8.5,-555 58.5,-555 58.5,-537 8.5,-537"/>
<text text-anchor="start" x="11.5" y="-543.2" font-family="Helvetica,sans-Serif" font-size="11.00"> &#160;</text>
<polygon fill="#ffffff" stroke="transparent" points="58.5,-537 58.5,-555 119.5,-555 119.5,-537 58.5,-537"/>
<polygon fill="none" stroke="black" points="58.5,-537 58.5,-555 119.5,-555 119.5,-537 58.5,-537"/>
<text text-anchor="start" x="79.5" y="-543.2" font-family="Helvetica,sans-Serif" font-size="11.00">0 rows</text>
<polygon fill="#ffffff" stroke="transparent" points="119.5,-537 119.5,-555 171.5,-555 171.5,-537 119.5,-537"/>
<polygon fill="none" stroke="black" points="119.5,-537 119.5,-555 171.5,-555 171.5,-537 119.5,-537"/>
<text text-anchor="start" x="141.5" y="-543.2" font-family="Helvetica,sans-Serif" font-size="11.00">11 &gt;</text>
</a>
</g>
</g>
<!-- edition_editor&#45;&gt;user -->
<g id="edge1" class="edge">
<title>edition_editor:w&#45;&gt;user:e</title>
<path fill="none" stroke="black" d="M317.32,-882.09C271.07,-882.53 245.34,-883.18 212,-845 176.6,-804.45 226.33,-606 172.5,-606"/>
<polygon fill="black" stroke="black" points="324,-882.05 332.02,-885.6 328,-882.02 332,-882 332,-882 332,-882 328,-882.02 331.98,-878.4 324,-882.05 324,-882.05"/>
<ellipse fill="none" stroke="black" cx="320.8" cy="-882.07" rx="3.2" ry="3.2"/>
</g>
<!-- edition_editor_request -->
<g id="node3" class="node">
<title>edition_editor_request</title>
<g id="a_node3"><a xlink:href="../../tables/edition_editor_request.html" xlink:title="edition_editor_request" target="_top">
<polygon fill="#ffffff" stroke="transparent" points="631,-719 631,-777 820,-777 820,-719 631,-719"/>
<polygon fill="#f5f5f5" stroke="transparent" points="631.5,-755 631.5,-777 820.5,-777 820.5,-755 631.5,-755"/>
<polygon fill="none" stroke="black" points="631.5,-755 631.5,-777 820.5,-777 820.5,-755 631.5,-755"/>
<text text-anchor="start" x="636.5" y="-764.2" font-family="Helvetica,sans-Serif" font-weight="bold" font-size="11.00">edition_editor_request</text>
<text text-anchor="start" x="778.5" y="-763.2" font-family="Helvetica,sans-Serif" font-size="11.00">[table]</text>
<polygon fill="none" stroke="black" points="631.5,-737 631.5,-755 820.5,-755 820.5,-737 631.5,-737"/>
<text text-anchor="start" x="634.5" y="-743.2" font-family="Helvetica,sans-Serif" font-size="11.00">...</text>
<polygon fill="#ffffff" stroke="transparent" points="631.5,-719 631.5,-737 710.5,-737 710.5,-719 631.5,-719"/>
<polygon fill="none" stroke="black" points="631.5,-719 631.5,-737 710.5,-737 710.5,-719 631.5,-719"/>
<text text-anchor="start" x="634.5" y="-725.2" font-family="Helvetica,sans-Serif" font-size="11.00">&lt; 4</text>
<polygon fill="#ffffff" stroke="transparent" points="710.5,-719 710.5,-737 779.5,-737 779.5,-719 710.5,-719"/>
<polygon fill="none" stroke="black" points="710.5,-719 710.5,-737 779.5,-737 779.5,-719 710.5,-719"/>
<text text-anchor="start" x="739.5" y="-725.2" font-family="Helvetica,sans-Serif" font-size="11.00">0 rows</text>
<polygon fill="#ffffff" stroke="transparent" points="779.5,-719 779.5,-737 820.5,-737 820.5,-719 779.5,-719"/>
<polygon fill="none" stroke="black" points="779.5,-719 779.5,-737 820.5,-737 820.5,-719 779.5,-719"/>
<text text-anchor="start" x="809.5" y="-725.2" font-family="Helvetica,sans-Serif" font-size="11.00"> &#160;</text>
</a>
</g>
</g>
<!-- edition_editor_request&#45;&gt;user -->
<g id="edge2" class="edge">
<title>edition_editor_request:w&#45;&gt;user:e</title>
<path fill="none" stroke="black" d="M616.09,-746.24C513.76,-749.36 282.55,-780.67 212,-727 166.98,-692.75 229.07,-606 172.5,-606"/>
<polygon fill="black" stroke="black" points="622.5,-746.13 630.56,-749.6 626.5,-746.07 630.5,-746 630.5,-746 630.5,-746 626.5,-746.07 630.44,-742.4 622.5,-746.13 622.5,-746.13"/>
<ellipse fill="none" stroke="black" cx="619.3" cy="-746.19" rx="3.2" ry="3.2"/>
</g>
<!-- edition_editor_request&#45;&gt;user -->
<g id="edge3" class="edge">
<title>edition_editor_request:w&#45;&gt;user:e</title>
<path fill="none" stroke="black" d="M616.08,-746.22C513.72,-748.99 282.6,-776.67 212,-723 168.31,-689.78 227.38,-606 172.5,-606"/>
<polygon fill="black" stroke="black" points="622.5,-746.12 630.55,-749.6 626.5,-746.06 630.5,-746 630.5,-746 630.5,-746 626.5,-746.06 630.45,-742.4 622.5,-746.12 622.5,-746.12"/>
<ellipse fill="none" stroke="black" cx="619.3" cy="-746.17" rx="3.2" ry="3.2"/>
</g>
<!-- user_email_token -->
<g id="node4" class="node">
<title>user_email_token</title>
<g id="a_node4"><a xlink:href="../../tables/user_email_token.html" xlink:title="user_email_token" target="_top">
<polygon fill="#ffffff" stroke="transparent" points="322.5,-776 322.5,-834 479.5,-834 479.5,-776 322.5,-776"/>
<polygon fill="#f5f5f5" stroke="transparent" points="323,-812 323,-834 480,-834 480,-812 323,-812"/>
<polygon fill="none" stroke="black" points="323,-812 323,-834 480,-834 480,-812 323,-812"/>
<text text-anchor="start" x="328" y="-821.2" font-family="Helvetica,sans-Serif" font-weight="bold" font-size="11.00">user_email_token</text>
<text text-anchor="start" x="438" y="-820.2" font-family="Helvetica,sans-Serif" font-size="11.00">[table]</text>
<polygon fill="none" stroke="black" points="323,-794 323,-812 480,-812 480,-794 323,-794"/>
<text text-anchor="start" x="326" y="-800.2" font-family="Helvetica,sans-Serif" font-size="11.00">...</text>
<polygon fill="#ffffff" stroke="transparent" points="323,-776 323,-794 380,-794 380,-776 323,-776"/>
<polygon fill="none" stroke="black" points="323,-776 323,-794 380,-794 380,-776 323,-776"/>
<text text-anchor="start" x="326" y="-782.2" font-family="Helvetica,sans-Serif" font-size="11.00">&lt; 1</text>
<polygon fill="#ffffff" stroke="transparent" points="380,-776 380,-794 438,-794 438,-776 380,-776"/>
<polygon fill="none" stroke="black" points="380,-776 380,-794 438,-794 438,-776 380,-776"/>
<text text-anchor="start" x="398" y="-782.2" font-family="Helvetica,sans-Serif" font-size="11.00">0 rows</text>
<polygon fill="#ffffff" stroke="transparent" points="438,-776 438,-794 480,-794 480,-776 438,-776"/>
<polygon fill="none" stroke="black" points="438,-776 438,-794 480,-794 480,-776 438,-776"/>
<text text-anchor="start" x="457" y="-782.2" font-family="Helvetica,sans-Serif" font-size="11.00">1 &gt;</text>
</a>
</g>
</g>
<!-- edition_editor_request&#45;&gt;user_email_token -->
<g id="edge4" class="edge">
<title>edition_editor_request:w&#45;&gt;user_email_token:e</title>
<path fill="none" stroke="black" d="M616.17,-748.31C607.75,-751.45 602.41,-757.21 590,-762 541.71,-780.62 532.76,-803 481,-803"/>
<polygon fill="black" stroke="black" points="622.6,-747.27 631.07,-749.55 626.55,-746.64 630.5,-746 630.5,-746 630.5,-746 626.55,-746.64 629.93,-742.45 622.6,-747.27 622.6,-747.27"/>
<ellipse fill="none" stroke="black" cx="619.44" cy="-747.78" rx="3.2" ry="3.2"/>
</g>
<!-- user_email_token&#45;&gt;user -->
<g id="edge16" class="edge">
<title>user_email_token:w&#45;&gt;user:e</title>
<path fill="none" stroke="black" d="M307.51,-802.91C265.22,-802.23 243.43,-797.05 212,-762 164.25,-708.75 244.02,-606 172.5,-606"/>
<polygon fill="black" stroke="black" points="314,-802.95 321.98,-806.6 318,-802.97 322,-803 322,-803 322,-803 318,-802.97 322.02,-799.4 314,-802.95 314,-802.95"/>
<ellipse fill="none" stroke="black" cx="310.8" cy="-802.93" rx="3.2" ry="3.2"/>
</g>
<!-- iaa_edition_catalog_author -->
<g id="node5" class="node">
<title>iaa_edition_catalog_author</title>
<g id="a_node5"><a xlink:href="../../tables/iaa_edition_catalog_author.html" xlink:title="iaa_edition_catalog_author" target="_top">
<polygon fill="#ffffff" stroke="transparent" points="293.5,-658 293.5,-716 508.5,-716 508.5,-658 293.5,-658"/>
<polygon fill="#f5f5f5" stroke="transparent" points="294,-694 294,-716 509,-716 509,-694 294,-694"/>
<polygon fill="none" stroke="black" points="294,-694 294,-716 509,-716 509,-694 294,-694"/>
<text text-anchor="start" x="299" y="-703.2" font-family="Helvetica,sans-Serif" font-weight="bold" font-size="11.00">iaa_edition_catalog_author</text>
<text text-anchor="start" x="467" y="-702.2" font-family="Helvetica,sans-Serif" font-size="11.00">[table]</text>
<polygon fill="none" stroke="black" points="294,-676 294,-694 509,-694 509,-676 294,-676"/>
<text text-anchor="start" x="297" y="-682.2" font-family="Helvetica,sans-Serif" font-size="11.00">...</text>
<polygon fill="#ffffff" stroke="transparent" points="294,-658 294,-676 370,-676 370,-658 294,-658"/>
<polygon fill="none" stroke="black" points="294,-658 294,-676 370,-676 370,-658 294,-658"/>
<text text-anchor="start" x="297" y="-664.2" font-family="Helvetica,sans-Serif" font-size="11.00">&lt; 2</text>
<polygon fill="#ffffff" stroke="transparent" points="370,-658 370,-676 469,-676 469,-658 370,-658"/>
<polygon fill="none" stroke="black" points="370,-658 370,-676 469,-676 469,-658 370,-658"/>
<text text-anchor="start" x="398" y="-664.2" font-family="Helvetica,sans-Serif" font-size="11.00">39,537 rows</text>
<polygon fill="#ffffff" stroke="transparent" points="469,-658 469,-676 509,-676 509,-658 469,-658"/>
<polygon fill="none" stroke="black" points="469,-658 469,-676 509,-676 509,-658 469,-658"/>
<text text-anchor="start" x="498" y="-664.2" font-family="Helvetica,sans-Serif" font-size="11.00"> &#160;</text>
</a>
</g>
</g>
<!-- iaa_edition_catalog_author&#45;&gt;user -->
<g id="edge5" class="edge">
<title>iaa_edition_catalog_author:w&#45;&gt;user:e</title>
<path fill="none" stroke="black" d="M278.33,-684.23C250.46,-681.02 239.76,-667.92 212,-648 191.18,-633.06 198.13,-606 172.5,-606"/>
<polygon fill="black" stroke="black" points="285.01,-684.58 292.81,-688.6 289.01,-684.79 293,-685 293,-685 293,-685 289.01,-684.79 293.19,-681.4 285.01,-684.58 285.01,-684.58"/>
<ellipse fill="none" stroke="black" cx="281.82" cy="-684.41" rx="3.2" ry="3.2"/>
</g>
<!-- iaa_edition_catalog_to_text_fragment_confirmation -->
<g id="node6" class="node">
<title>iaa_edition_catalog_to_text_fragment_confirmation</title>
<g id="a_node6"><a xlink:href="../../tables/iaa_edition_catalog_to_text_fragment_confirmation.html" xlink:title="iaa_edition_catalog_to_text_fragment_confirmation" target="_top">
<polygon fill="#ffffff" stroke="transparent" points="220,-579 220,-637 582,-637 582,-579 220,-579"/>
<polygon fill="#f5f5f5" stroke="transparent" points="220,-615 220,-637 582,-637 582,-615 220,-615"/>
<polygon fill="none" stroke="black" points="220,-615 220,-637 582,-637 582,-615 220,-615"/>
<text text-anchor="start" x="225" y="-624.2" font-family="Helvetica,sans-Serif" font-weight="bold" font-size="11.00">iaa_edition_catalog_to_text_fragment_confirmation</text>
<text text-anchor="start" x="540" y="-623.2" font-family="Helvetica,sans-Serif" font-size="11.00">[table]</text>
<polygon fill="none" stroke="black" points="220,-597 220,-615 582,-615 582,-597 220,-597"/>
<text text-anchor="start" x="223" y="-603.2" font-family="Helvetica,sans-Serif" font-size="11.00">...</text>
<polygon fill="#ffffff" stroke="transparent" points="220,-579 220,-597 370,-597 370,-579 220,-579"/>
<polygon fill="none" stroke="black" points="220,-579 220,-597 370,-597 370,-579 220,-579"/>
<text text-anchor="start" x="223" y="-585.2" font-family="Helvetica,sans-Serif" font-size="11.00">&lt; 2</text>
<polygon fill="#ffffff" stroke="transparent" points="370,-579 370,-597 506,-597 506,-579 370,-579"/>
<polygon fill="none" stroke="black" points="370,-579 370,-597 506,-597 506,-579 370,-579"/>
<text text-anchor="start" x="435" y="-585.2" font-family="Helvetica,sans-Serif" font-size="11.00">15,403 rows</text>
<polygon fill="#ffffff" stroke="transparent" points="506,-579 506,-597 582,-597 582,-579 506,-579"/>
<polygon fill="none" stroke="black" points="506,-579 506,-597 582,-597 582,-579 506,-579"/>
<text text-anchor="start" x="571" y="-585.2" font-family="Helvetica,sans-Serif" font-size="11.00"> &#160;</text>
</a>
</g>
</g>
<!-- iaa_edition_catalog_to_text_fragment_confirmation&#45;&gt;user -->
<g id="edge6" class="edge">
<title>iaa_edition_catalog_to_text_fragment_confirmation:w&#45;&gt;user:e</title>
<path fill="none" stroke="black" d="M204.55,-606C194.2,-606 187.35,-606 172.5,-606"/>
<polygon fill="black" stroke="black" points="211,-606 219,-609.6 215,-606 219,-606 219,-606 219,-606 215,-606 219,-602.4 211,-606 211,-606"/>
<ellipse fill="none" stroke="black" cx="207.8" cy="-606" rx="3.2" ry="3.2"/>
</g>
<!-- image_catalog_author -->
<g id="node7" class="node">
<title>image_catalog_author</title>
<g id="a_node7"><a xlink:href="../../tables/image_catalog_author.html" xlink:title="image_catalog_author" target="_top">
<polygon fill="#ffffff" stroke="transparent" points="266,-224 266,-312 536,-312 536,-224 266,-224"/>
<polygon fill="#f5f5f5" stroke="transparent" points="268,-288 268,-310 534,-310 534,-288 268,-288"/>
<polygon fill="none" stroke="black" points="268,-288 268,-310 534,-310 534,-288 268,-288"/>
<text text-anchor="start" x="273" y="-297.2" font-family="Helvetica,sans-Serif" font-weight="bold" font-size="11.00">image_catalog_author</text>
<text text-anchor="start" x="492" y="-296.2" font-family="Helvetica,sans-Serif" font-size="11.00">[table]</text>
<polygon fill="none" stroke="black" points="268,-266 268,-288 437,-288 437,-266 268,-266"/>
<image xlink:href="../../images/primaryKeys.png" width="11px" height="12px" preserveAspectRatio="xMinYMin meet" x="273" y="-283"/>
<text text-anchor="start" x="288" y="-274.2" font-family="Helvetica,sans-Serif" font-size="11.00">image_catalog_id</text>
<polygon fill="none" stroke="black" points="437,-266 437,-288 534,-288 534,-266 437,-266"/>
<text text-anchor="start" x="440" y="-274.2" font-family="Helvetica,sans-Serif" font-size="11.00">int unsigned[10]</text>
<polygon fill="#ffffff" stroke="transparent" points="268,-244 268,-266 437,-266 437,-244 268,-244"/>
<polygon fill="none" stroke="black" points="268,-244 268,-266 437,-266 437,-244 268,-244"/>
<image xlink:href="../../images/foreignKeys.png" width="11px" height="12px" preserveAspectRatio="xMinYMin meet" x="273" y="-261"/>
<text text-anchor="start" x="288" y="-252.2" font-family="Helvetica,sans-Serif" font-size="11.00">user_id</text>
<polygon fill="none" stroke="black" points="437,-244 437,-266 534,-266 534,-244 437,-244"/>
<text text-anchor="start" x="440" y="-252.2" font-family="Helvetica,sans-Serif" font-size="11.00">int unsigned[10]</text>
<polygon fill="#ffffff" stroke="transparent" points="268,-226 268,-244 328,-244 328,-226 268,-226"/>
<polygon fill="none" stroke="black" points="268,-226 268,-244 328,-244 328,-226 268,-226"/>
<text text-anchor="start" x="271" y="-232.2" font-family="Helvetica,sans-Serif" font-size="11.00">&lt; 2</text>
<polygon fill="#ffffff" stroke="transparent" points="328,-226 328,-244 437,-244 437,-226 328,-226"/>
<polygon fill="none" stroke="black" points="328,-226 328,-244 437,-244 437,-226 328,-226"/>
<text text-anchor="start" x="366" y="-232.2" font-family="Helvetica,sans-Serif" font-size="11.00">41,829 rows</text>
<polygon fill="#ffffff" stroke="transparent" points="437,-226 437,-244 534,-244 534,-226 437,-226"/>
<polygon fill="none" stroke="black" points="437,-226 437,-244 534,-244 534,-226 437,-226"/>
<text text-anchor="start" x="511" y="-232.2" font-family="Helvetica,sans-Serif" font-size="11.00">0 &gt;</text>
<polygon fill="none" stroke="black" stroke-width="2" points="267,-225 267,-311 535,-311 535,-225 267,-225"/>
</a>
</g>
</g>
<!-- image_catalog_author&#45;&gt;user -->
<g id="edge8" class="edge">
<title>image_catalog_author:w&#45;&gt;user:e</title>
<path fill="none" stroke="black" d="M252.38,-256.94C227.63,-264.42 225.24,-292.5 212,-323 186.72,-381.25 236,-606 172.5,-606"/>
<polygon fill="black" stroke="black" points="259.07,-256.05 267.47,-258.57 263.03,-255.53 267,-255 267,-255 267,-255 263.03,-255.53 266.53,-251.43 259.07,-256.05 259.07,-256.05"/>
<ellipse fill="none" stroke="black" cx="255.9" cy="-256.47" rx="3.2" ry="3.2"/>
</g>
<!-- image_catalog -->
<g id="node8" class="node">
<title>image_catalog</title>
<g id="a_node8"><a xlink:href="../../tables/image_catalog.html" xlink:title="image_catalog" target="_top">
<polygon fill="#ffffff" stroke="transparent" points="18,-37 18,-205 161,-205 161,-37 18,-37"/>
<polygon fill="#f5f5f5" stroke="transparent" points="18.5,-183 18.5,-205 161.5,-205 161.5,-183 18.5,-183"/>
<polygon fill="none" stroke="black" points="18.5,-183 18.5,-205 161.5,-205 161.5,-183 18.5,-183"/>
<text text-anchor="start" x="23.5" y="-192.2" font-family="Helvetica,sans-Serif" font-weight="bold" font-size="11.00">image_catalog</text>
<text text-anchor="start" x="119.5" y="-191.2" font-family="Helvetica,sans-Serif" font-size="11.00">[table]</text>
<polygon fill="none" stroke="black" points="18.5,-161 18.5,-183 161.5,-183 161.5,-161 18.5,-161"/>
<image xlink:href="../../images/primaryKeys.png" width="11px" height="12px" preserveAspectRatio="xMinYMin meet" x="23.5" y="-178"/>
<text text-anchor="start" x="38.5" y="-169.2" font-family="Helvetica,sans-Serif" font-size="11.00">image_catalog_id</text>
<polygon fill="#ffffff" stroke="transparent" points="18.5,-139 18.5,-161 161.5,-161 161.5,-139 18.5,-139"/>
<polygon fill="none" stroke="black" points="18.5,-139 18.5,-161 161.5,-161 161.5,-139 18.5,-139"/>
<text text-anchor="start" x="38.5" y="-147.2" font-family="Helvetica,sans-Serif" font-size="11.00">institution</text>
<polygon fill="#ffffff" stroke="transparent" points="18.5,-117 18.5,-139 161.5,-139 161.5,-117 18.5,-117"/>
<polygon fill="none" stroke="black" points="18.5,-117 18.5,-139 161.5,-139 161.5,-117 18.5,-117"/>
<text text-anchor="start" x="38.5" y="-125.2" font-family="Helvetica,sans-Serif" font-size="11.00">catalog_number_1</text>
<polygon fill="#ffffff" stroke="transparent" points="18.5,-95 18.5,-117 161.5,-117 161.5,-95 18.5,-95"/>
<polygon fill="none" stroke="black" points="18.5,-95 18.5,-117 161.5,-117 161.5,-95 18.5,-95"/>
<text text-anchor="start" x="38.5" y="-103.2" font-family="Helvetica,sans-Serif" font-size="11.00">catalog_number_2</text>
<polygon fill="#ffffff" stroke="transparent" points="18.5,-73 18.5,-95 161.5,-95 161.5,-73 18.5,-73"/>
<polygon fill="none" stroke="black" points="18.5,-73 18.5,-95 161.5,-95 161.5,-73 18.5,-73"/>
<text text-anchor="start" x="38.5" y="-81.2" font-family="Helvetica,sans-Serif" font-size="11.00">catalog_side</text>
<polygon fill="none" stroke="black" points="18.5,-55 18.5,-73 161.5,-73 161.5,-55 18.5,-55"/>
<text text-anchor="start" x="21.5" y="-61.2" font-family="Helvetica,sans-Serif" font-size="11.00">...</text>
<polygon fill="#ffffff" stroke="transparent" points="18.5,-37 18.5,-55 46.5,-55 46.5,-37 18.5,-37"/>
<polygon fill="none" stroke="black" points="18.5,-37 18.5,-55 46.5,-55 46.5,-37 18.5,-37"/>
<text text-anchor="start" x="21.5" y="-43.2" font-family="Helvetica,sans-Serif" font-size="11.00"> &#160;</text>
<polygon fill="#ffffff" stroke="transparent" points="46.5,-37 46.5,-55 127.5,-55 127.5,-37 46.5,-37"/>
<polygon fill="none" stroke="black" points="46.5,-37 46.5,-55 127.5,-55 127.5,-37 46.5,-37"/>
<text text-anchor="start" x="56.5" y="-43.2" font-family="Helvetica,sans-Serif" font-size="11.00">41,950 rows</text>
<polygon fill="#ffffff" stroke="transparent" points="127.5,-37 127.5,-55 161.5,-55 161.5,-37 127.5,-37"/>
<polygon fill="none" stroke="black" points="127.5,-37 127.5,-55 161.5,-55 161.5,-37 127.5,-37"/>
<text text-anchor="start" x="138.5" y="-43.2" font-family="Helvetica,sans-Serif" font-size="11.00">3 &gt;</text>
</a>
</g>
</g>
<!-- image_catalog_author&#45;&gt;image_catalog -->
<g id="edge7" class="edge">
<title>image_catalog_author:w&#45;&gt;image_catalog:e</title>
<path fill="none" stroke="black" d="M256.35,-275.96C204.03,-265.06 224.48,-172 162.5,-172"/>
<polygon fill="black" stroke="black" points="266.59,-272.94 265.82,-280.9 264.22,-280.75 265,-272.79 266.59,-272.94"/>
<polyline fill="none" stroke="black" points="267,-277 263.02,-276.61 "/>
<ellipse fill="none" stroke="black" cx="259.83" cy="-276.3" rx="3.2" ry="3.2"/>
</g>
<!-- image_to_iaa_edition_catalog -->
<g id="node9" class="node">
<title>image_to_iaa_edition_catalog</title>
<g id="a_node9"><a xlink:href="../../tables/image_to_iaa_edition_catalog.html" xlink:title="image_to_iaa_edition_catalog" target="_top">
<polygon fill="#ffffff" stroke="transparent" points="286,-145 286,-203 516,-203 516,-145 286,-145"/>
<polygon fill="#f5f5f5" stroke="transparent" points="286,-181 286,-203 516,-203 516,-181 286,-181"/>
<polygon fill="none" stroke="black" points="286,-181 286,-203 516,-203 516,-181 286,-181"/>
<text text-anchor="start" x="291" y="-190.2" font-family="Helvetica,sans-Serif" font-weight="bold" font-size="11.00">image_to_iaa_edition_catalog</text>
<text text-anchor="start" x="474" y="-189.2" font-family="Helvetica,sans-Serif" font-size="11.00">[table]</text>
<polygon fill="none" stroke="black" points="286,-163 286,-181 516,-181 516,-163 286,-163"/>
<text text-anchor="start" x="289" y="-169.2" font-family="Helvetica,sans-Serif" font-size="11.00">...</text>
<polygon fill="#ffffff" stroke="transparent" points="286,-145 286,-163 370,-163 370,-145 286,-145"/>
<polygon fill="none" stroke="black" points="286,-145 286,-163 370,-163 370,-145 286,-145"/>
<text text-anchor="start" x="289" y="-151.2" font-family="Helvetica,sans-Serif" font-size="11.00">&lt; 2</text>
<polygon fill="#ffffff" stroke="transparent" points="370,-145 370,-163 473,-163 473,-145 370,-145"/>
<polygon fill="none" stroke="black" points="370,-145 370,-163 473,-163 473,-145 370,-145"/>
<text text-anchor="start" x="402" y="-151.2" font-family="Helvetica,sans-Serif" font-size="11.00">39,105 rows</text>
<polygon fill="#ffffff" stroke="transparent" points="473,-145 473,-163 516,-163 516,-145 473,-145"/>
<polygon fill="none" stroke="black" points="473,-145 473,-163 516,-163 516,-145 473,-145"/>
<text text-anchor="start" x="505" y="-151.2" font-family="Helvetica,sans-Serif" font-size="11.00"> &#160;</text>
</a>
</g>
</g>
<!-- image_to_iaa_edition_catalog&#45;&gt;image_catalog -->
<g id="edge9" class="edge">
<title>image_to_iaa_edition_catalog:w&#45;&gt;image_catalog:e</title>
<path fill="none" stroke="black" d="M270.42,-172C227.58,-172 211.73,-172 162.5,-172"/>
<polygon fill="black" stroke="black" points="277,-172 285,-175.6 281,-172 285,-172 285,-172 285,-172 281,-172 285,-168.4 277,-172 277,-172"/>
<ellipse fill="none" stroke="black" cx="273.8" cy="-172" rx="3.2" ry="3.2"/>
</g>
<!-- image_to_image_map_author -->
<g id="node10" class="node">
<title>image_to_image_map_author</title>
<g id="a_node10"><a xlink:href="../../tables/image_to_image_map_author.html" xlink:title="image_to_image_map_author" target="_top">
<polygon fill="#ffffff" stroke="transparent" points="287.5,-500 287.5,-558 514.5,-558 514.5,-500 287.5,-500"/>
<polygon fill="#f5f5f5" stroke="transparent" points="288,-536 288,-558 515,-558 515,-536 288,-536"/>
<polygon fill="none" stroke="black" points="288,-536 288,-558 515,-558 515,-536 288,-536"/>
<text text-anchor="start" x="293" y="-545.2" font-family="Helvetica,sans-Serif" font-weight="bold" font-size="11.00">image_to_image_map_author</text>
<text text-anchor="start" x="473" y="-544.2" font-family="Helvetica,sans-Serif" font-size="11.00">[table]</text>
<polygon fill="none" stroke="black" points="288,-518 288,-536 515,-536 515,-518 288,-518"/>
<text text-anchor="start" x="291" y="-524.2" font-family="Helvetica,sans-Serif" font-size="11.00">...</text>
<polygon fill="#ffffff" stroke="transparent" points="288,-500 288,-518 370,-518 370,-500 288,-500"/>
<polygon fill="none" stroke="black" points="288,-500 288,-518 370,-518 370,-500 288,-500"/>
<text text-anchor="start" x="291" y="-506.2" font-family="Helvetica,sans-Serif" font-size="11.00">&lt; 2</text>
<polygon fill="#ffffff" stroke="transparent" points="370,-500 370,-518 472,-518 472,-500 370,-500"/>
<polygon fill="none" stroke="black" points="370,-500 370,-518 472,-518 472,-500 370,-500"/>
<text text-anchor="start" x="401" y="-506.2" font-family="Helvetica,sans-Serif" font-size="11.00">72,198 rows</text>
<polygon fill="#ffffff" stroke="transparent" points="472,-500 472,-518 515,-518 515,-500 472,-500"/>
<polygon fill="none" stroke="black" points="472,-500 472,-518 515,-518 515,-500 472,-500"/>
<text text-anchor="start" x="504" y="-506.2" font-family="Helvetica,sans-Serif" font-size="11.00"> &#160;</text>
</a>
</g>
</g>
<!-- image_to_image_map_author&#45;&gt;user -->
<g id="edge10" class="edge">
<title>image_to_image_map_author:w&#45;&gt;user:e</title>
<path fill="none" stroke="black" d="M272.64,-528.11C246.63,-532.53 238.5,-549.61 212,-569 192.59,-583.2 196.55,-606 172.5,-606"/>
<polygon fill="black" stroke="black" points="279.02,-527.62 287.28,-530.59 283.01,-527.31 287,-527 287,-527 287,-527 283.01,-527.31 286.72,-523.41 279.02,-527.62 279.02,-527.62"/>
<ellipse fill="none" stroke="black" cx="275.83" cy="-527.86" rx="3.2" ry="3.2"/>
</g>
<!-- recent_edition_catalog_to_col_confirmation -->
<g id="node11" class="node">
<title>recent_edition_catalog_to_col_confirmation</title>
<g id="a_node11"><a xlink:href="../../tables/recent_edition_catalog_to_col_confirmation.html" xlink:title="recent_edition_catalog_to_col_confirmation" target="_top">
<polygon fill="#ffffff" stroke="transparent" points="244.5,-439 244.5,-479 557.5,-479 557.5,-439 244.5,-439"/>
<polygon fill="#f5f5f5" stroke="transparent" points="245,-457 245,-479 558,-479 558,-457 245,-457"/>
<polygon fill="none" stroke="black" points="245,-457 245,-479 558,-479 558,-457 245,-457"/>
<text text-anchor="start" x="250" y="-466.2" font-family="Helvetica,sans-Serif" font-weight="bold" font-size="11.00">recent_edition_catalog_to_col_confirmation</text>
<text text-anchor="start" x="518" y="-465.2" font-family="Helvetica,sans-Serif" font-size="11.00">[view]</text>
<polygon fill="none" stroke="black" points="245,-439 245,-457 558,-457 558,-439 245,-439"/>
<text text-anchor="start" x="248" y="-445.2" font-family="Helvetica,sans-Serif" font-size="11.00">...</text>
</a>
</g>
</g>
<!-- recent_edition_catalog_to_col_confirmation&#45;&gt;user -->
<g id="edge11" class="edge">
<title>recent_edition_catalog_to_col_confirmation:w&#45;&gt;user:e</title>
<path fill="none" stroke="black" stroke-dasharray="5,2" d="M229.67,-450.36C178.03,-470.01 244.01,-606 172.5,-606"/>
<polygon fill="black" stroke="black" points="236.11,-449.3 244.58,-451.55 240.05,-448.65 244,-448 244,-448 244,-448 240.05,-448.65 243.42,-444.45 236.11,-449.3 236.11,-449.3"/>
<ellipse fill="none" stroke="black" cx="232.95" cy="-449.82" rx="3.2" ry="3.2"/>
</g>
<!-- SQE_image -->
<g id="node12" class="node">
<title>SQE_image</title>
<g id="a_node12"><a xlink:href="../../tables/SQE_image.html" xlink:title="SQE_image" target="_top">
<polygon fill="#ffffff" stroke="transparent" points="334.5,-66 334.5,-124 467.5,-124 467.5,-66 334.5,-66"/>
<polygon fill="#f5f5f5" stroke="transparent" points="335,-102 335,-124 468,-124 468,-102 335,-102"/>
<polygon fill="none" stroke="black" points="335,-102 335,-124 468,-124 468,-102 335,-102"/>
<text text-anchor="start" x="340" y="-111.2" font-family="Helvetica,sans-Serif" font-weight="bold" font-size="11.00">SQE_image</text>
<text text-anchor="start" x="426" y="-110.2" font-family="Helvetica,sans-Serif" font-size="11.00">[table]</text>
<polygon fill="none" stroke="black" points="335,-84 335,-102 468,-102 468,-84 335,-84"/>
<text text-anchor="start" x="338" y="-90.2" font-family="Helvetica,sans-Serif" font-size="11.00">...</text>
<polygon fill="#ffffff" stroke="transparent" points="335,-66 335,-84 361,-84 361,-66 335,-66"/>
<polygon fill="none" stroke="black" points="335,-66 335,-84 361,-84 361,-66 335,-66"/>
<text text-anchor="start" x="338" y="-72.2" font-family="Helvetica,sans-Serif" font-size="11.00">&lt; 2</text>
<polygon fill="#ffffff" stroke="transparent" points="361,-66 361,-84 442,-84 442,-66 361,-66"/>
<polygon fill="none" stroke="black" points="361,-66 361,-84 442,-84 442,-66 361,-66"/>
<text text-anchor="start" x="364" y="-72.2" font-family="Helvetica,sans-Serif" font-size="11.00">101,504 rows</text>
<polygon fill="#ffffff" stroke="transparent" points="442,-66 442,-84 468,-84 468,-66 442,-66"/>
<polygon fill="none" stroke="black" points="442,-66 442,-84 468,-84 468,-66 442,-66"/>
<text text-anchor="start" x="445" y="-72.2" font-family="Helvetica,sans-Serif" font-size="11.00">4 &gt;</text>
</a>
</g>
</g>
<!-- SQE_image&#45;&gt;image_catalog -->
<g id="edge12" class="edge">
<title>SQE_image:w&#45;&gt;image_catalog:e</title>
<path fill="none" stroke="black" d="M319.56,-93.34C273.93,-95.64 257.95,-109.52 212,-134 187.52,-147.04 190.24,-172 162.5,-172"/>
<polygon fill="black" stroke="black" points="326,-93.19 334.08,-96.6 330,-93.09 334,-93 334,-93 334,-93 330,-93.09 333.92,-89.4 326,-93.19 326,-93.19"/>
<ellipse fill="none" stroke="black" cx="322.8" cy="-93.26" rx="3.2" ry="3.2"/>
</g>
<!-- SQE_image_author -->
<g id="node13" class="node">
<title>SQE_image_author</title>
<g id="a_node13"><a xlink:href="../../tables/SQE_image_author.html" xlink:title="SQE_image_author" target="_top">
<polygon fill="#ffffff" stroke="transparent" points="643,-227 643,-285 808,-285 808,-227 643,-227"/>
<polygon fill="#f5f5f5" stroke="transparent" points="643.5,-263 643.5,-285 808.5,-285 808.5,-263 643.5,-263"/>
<polygon fill="none" stroke="black" points="643.5,-263 643.5,-285 808.5,-285 808.5,-263 643.5,-263"/>
<text text-anchor="start" x="648.5" y="-272.2" font-family="Helvetica,sans-Serif" font-weight="bold" font-size="11.00">SQE_image_author</text>
<text text-anchor="start" x="766.5" y="-271.2" font-family="Helvetica,sans-Serif" font-size="11.00">[table]</text>
<polygon fill="none" stroke="black" points="643.5,-245 643.5,-263 808.5,-263 808.5,-245 643.5,-245"/>
<text text-anchor="start" x="646.5" y="-251.2" font-family="Helvetica,sans-Serif" font-size="11.00">...</text>
<polygon fill="#ffffff" stroke="transparent" points="643.5,-227 643.5,-245 694.5,-245 694.5,-227 643.5,-227"/>
<polygon fill="none" stroke="black" points="643.5,-227 643.5,-245 694.5,-245 694.5,-227 643.5,-227"/>
<text text-anchor="start" x="646.5" y="-233.2" font-family="Helvetica,sans-Serif" font-size="11.00">&lt; 2</text>
<polygon fill="#ffffff" stroke="transparent" points="694.5,-227 694.5,-245 781.5,-245 781.5,-227 694.5,-227"/>
<polygon fill="none" stroke="black" points="694.5,-227 694.5,-245 781.5,-245 781.5,-227 694.5,-227"/>
<text text-anchor="start" x="710.5" y="-233.2" font-family="Helvetica,sans-Serif" font-size="11.00">97,205 rows</text>
<polygon fill="#ffffff" stroke="transparent" points="781.5,-227 781.5,-245 808.5,-245 808.5,-227 781.5,-227"/>
<polygon fill="none" stroke="black" points="781.5,-227 781.5,-245 808.5,-245 808.5,-227 781.5,-227"/>
<text text-anchor="start" x="797.5" y="-233.2" font-family="Helvetica,sans-Serif" font-size="11.00"> &#160;</text>
</a>
</g>
</g>
<!-- SQE_image_author&#45;&gt;user -->
<g id="edge14" class="edge">
<title>SQE_image_author:w&#45;&gt;user:e</title>
<path fill="none" stroke="black" d="M628.05,-256.04C583.79,-270.92 640.98,-363.2 590,-402 522.99,-453.01 275.79,-374.03 212,-429 150.94,-481.62 253.1,-606 172.5,-606"/>
<polygon fill="black" stroke="black" points="634.58,-255.12 643,-257.56 638.54,-254.56 642.5,-254 642.5,-254 642.5,-254 638.54,-254.56 642,-250.44 634.58,-255.12 634.58,-255.12"/>
<ellipse fill="none" stroke="black" cx="631.41" cy="-255.57" rx="3.2" ry="3.2"/>
</g>
<!-- SQE_image_author&#45;&gt;SQE_image -->
<g id="edge13" class="edge">
<title>SQE_image_author:w&#45;&gt;SQE_image:e</title>
<path fill="none" stroke="black" d="M632,-252.91C590.5,-243.17 629.96,-170.67 590,-134 548.17,-95.61 525.78,-93 469,-93"/>
<polygon fill="black" stroke="black" points="642.12,-249.94 641.29,-257.9 639.7,-257.73 640.53,-249.77 642.12,-249.94"/>
<polyline fill="none" stroke="black" points="642.5,-254 638.52,-253.59 "/>
<ellipse fill="none" stroke="black" cx="635.34" cy="-253.26" rx="3.2" ry="3.2"/>
</g>
<!-- user_contributions -->
<g id="node14" class="node">
<title>user_contributions</title>
<g id="a_node14"><a xlink:href="../../tables/user_contributions.html" xlink:title="user_contributions" target="_top">
<polygon fill="#ffffff" stroke="transparent" points="318,-333 318,-391 484,-391 484,-333 318,-333"/>
<polygon fill="#f5f5f5" stroke="transparent" points="318,-369 318,-391 484,-391 484,-369 318,-369"/>
<polygon fill="none" stroke="black" points="318,-369 318,-391 484,-391 484,-369 318,-369"/>
<text text-anchor="start" x="323" y="-378.2" font-family="Helvetica,sans-Serif" font-weight="bold" font-size="11.00">user_contributions</text>
<text text-anchor="start" x="442" y="-377.2" font-family="Helvetica,sans-Serif" font-size="11.00">[table]</text>
<polygon fill="none" stroke="black" points="318,-351 318,-369 484,-369 484,-351 318,-351"/>
<text text-anchor="start" x="321" y="-357.2" font-family="Helvetica,sans-Serif" font-size="11.00">...</text>
<polygon fill="#ffffff" stroke="transparent" points="318,-333 318,-351 385,-351 385,-333 318,-333"/>
<polygon fill="none" stroke="black" points="318,-333 318,-351 385,-351 385,-333 318,-333"/>
<text text-anchor="start" x="321" y="-339.2" font-family="Helvetica,sans-Serif" font-size="11.00">&lt; 1</text>
<polygon fill="#ffffff" stroke="transparent" points="385,-333 385,-351 449,-351 449,-333 385,-333"/>
<polygon fill="none" stroke="black" points="385,-333 385,-351 449,-351 449,-333 385,-333"/>
<text text-anchor="start" x="409" y="-339.2" font-family="Helvetica,sans-Serif" font-size="11.00">0 rows</text>
<polygon fill="#ffffff" stroke="transparent" points="449,-333 449,-351 484,-351 484,-333 449,-333"/>
<polygon fill="none" stroke="black" points="449,-333 449,-351 484,-351 484,-333 449,-333"/>
<text text-anchor="start" x="473" y="-339.2" font-family="Helvetica,sans-Serif" font-size="11.00"> &#160;</text>
</a>
</g>
</g>
<!-- user_contributions&#45;&gt;user -->
<g id="edge15" class="edge">
<title>user_contributions:w&#45;&gt;user:e</title>
<path fill="none" stroke="black" d="M302.37,-360.2C261.6,-361.47 240.68,-369.53 212,-405 154.76,-475.79 263.54,-606 172.5,-606"/>
<polygon fill="black" stroke="black" points="309,-360.11 317.05,-363.6 313,-360.05 317,-360 317,-360 317,-360 313,-360.05 316.95,-356.4 309,-360.11 309,-360.11"/>
<ellipse fill="none" stroke="black" cx="305.8" cy="-360.15" rx="3.2" ry="3.2"/>
</g>
</g>
</svg>
