<?xml version="1.0" encoding="UTF-8" standalone="no"?>
<!DOCTYPE svg PUBLIC "-//W3C//DTD SVG 1.1//EN"
 "http://www.w3.org/Graphics/SVG/1.1/DTD/svg11.dtd">
<!-- Generated by graphviz version 2.43.0 (0)
 -->
<!-- Title: oneDegreeRelationshipsDiagram Pages: 1 -->
<svg width="506pt" height="340pt"
 viewBox="0.00 0.00 506.00 340.00" xmlns="http://www.w3.org/2000/svg" xmlns:xlink="http://www.w3.org/1999/xlink">
<g id="graph0" class="graph" transform="scale(1 1) rotate(0) translate(4 336)">
<title>oneDegreeRelationshipsDiagram</title>
<polygon fill="#ffffff" stroke="transparent" points="-4,4 -4,-336 502,-336 502,4 -4,4"/>
<text text-anchor="middle" x="79.5" y="-7.2" font-family="Helvetica,sans-Serif" font-size="11.00">Generated by SchemaSpy</text>
<!-- image_catalog_author -->
<g id="node1" class="node">
<title>image_catalog_author</title>
<g id="a_node1"><a xlink:href="../../tables/image_catalog_author.html" xlink:title="image_catalog_author" target="_top">
<polygon fill="#ffffff" stroke="transparent" points="220,-158 220,-246 490,-246 490,-158 220,-158"/>
<polygon fill="#f5f5f5" stroke="transparent" points="222,-222 222,-244 488,-244 488,-222 222,-222"/>
<polygon fill="none" stroke="black" points="222,-222 222,-244 488,-244 488,-222 222,-222"/>
<text text-anchor="start" x="227" y="-231.2" font-family="Helvetica,sans-Serif" font-weight="bold" font-size="11.00">image_catalog_author</text>
<text text-anchor="start" x="446" y="-230.2" font-family="Helvetica,sans-Serif" font-size="11.00">[table]</text>
<polygon fill="none" stroke="black" points="222,-200 222,-222 391,-222 391,-200 222,-200"/>
<image xlink:href="../../images/primaryKeys.png" width="11px" height="12px" preserveAspectRatio="xMinYMin meet" x="227" y="-217"/>
<text text-anchor="start" x="242" y="-208.2" font-family="Helvetica,sans-Serif" font-size="11.00">image_catalog_id</text>
<polygon fill="none" stroke="black" points="391,-200 391,-222 488,-222 488,-200 391,-200"/>
<text text-anchor="start" x="394" y="-208.2" font-family="Helvetica,sans-Serif" font-size="11.00">int unsigned[10]</text>
<polygon fill="#ffffff" stroke="transparent" points="222,-178 222,-200 391,-200 391,-178 222,-178"/>
<polygon fill="none" stroke="black" points="222,-178 222,-200 391,-200 391,-178 222,-178"/>
<image xlink:href="../../images/foreignKeys.png" width="11px" height="12px" preserveAspectRatio="xMinYMin meet" x="227" y="-195"/>
<text text-anchor="start" x="242" y="-186.2" font-family="Helvetica,sans-Serif" font-size="11.00">user_id</text>
<polygon fill="none" stroke="black" points="391,-178 391,-200 488,-200 488,-178 391,-178"/>
<text text-anchor="start" x="394" y="-186.2" font-family="Helvetica,sans-Serif" font-size="11.00">int unsigned[10]</text>
<polygon fill="#ffffff" stroke="transparent" points="222,-160 222,-178 282,-178 282,-160 222,-160"/>
<polygon fill="none" stroke="black" points="222,-160 222,-178 282,-178 282,-160 222,-160"/>
<text text-anchor="start" x="225" y="-166.2" font-family="Helvetica,sans-Serif" font-size="11.00">&lt; 2</text>
<polygon fill="#ffffff" stroke="transparent" points="282,-160 282,-178 391,-178 391,-160 282,-160"/>
<polygon fill="none" stroke="black" points="282,-160 282,-178 391,-178 391,-160 282,-160"/>
<text text-anchor="start" x="320" y="-166.2" font-family="Helvetica,sans-Serif" font-size="11.00">41,829 rows</text>
<polygon fill="#ffffff" stroke="transparent" points="391,-160 391,-178 488,-178 488,-160 391,-160"/>
<polygon fill="none" stroke="black" points="391,-160 391,-178 488,-178 488,-160 391,-160"/>
<text text-anchor="start" x="465" y="-166.2" font-family="Helvetica,sans-Serif" font-size="11.00">0 &gt;</text>
<polygon fill="none" stroke="black" stroke-width="2" points="221,-159 221,-245 489,-245 489,-159 221,-159"/>
</a>
</g>
</g>
<!-- image_catalog -->
<g id="node2" class="node">
<title>image_catalog</title>
<g id="a_node2"><a xlink:href="../../tables/image_catalog.html" xlink:title="image_catalog" target="_top">
<polygon fill="#ffffff" stroke="transparent" points="18,-160 18,-328 161,-328 161,-160 18,-160"/>
<polygon fill="#f5f5f5" stroke="transparent" points="18.5,-306 18.5,-328 161.5,-328 161.5,-306 18.5,-306"/>
<polygon fill="none" stroke="black" points="18.5,-306 18.5,-328 161.5,-328 161.5,-306 18.5,-306"/>
<text text-anchor="start" x="23.5" y="-315.2" font-family="Helvetica,sans-Serif" font-weight="bold" font-size="11.00">image_catalog</text>
<text text-anchor="start" x="119.5" y="-314.2" font-family="Helvetica,sans-Serif" font-size="11.00">[table]</text>
<polygon fill="none" stroke="black" points="18.5,-284 18.5,-306 161.5,-306 161.5,-284 18.5,-284"/>
<image xlink:href="../../images/primaryKeys.png" width="11px" height="12px" preserveAspectRatio="xMinYMin meet" x="23.5" y="-301"/>
<text text-anchor="start" x="38.5" y="-292.2" font-family="Helvetica,sans-Serif" font-size="11.00">image_catalog_id</text>
<polygon fill="#ffffff" stroke="transparent" points="18.5,-262 18.5,-284 161.5,-284 161.5,-262 18.5,-262"/>
<polygon fill="none" stroke="black" points="18.5,-262 18.5,-284 161.5,-284 161.5,-262 18.5,-262"/>
<text text-anchor="start" x="38.5" y="-270.2" font-family="Helvetica,sans-Serif" font-size="11.00">institution</text>
<polygon fill="#ffffff" stroke="transparent" points="18.5,-240 18.5,-262 161.5,-262 161.5,-240 18.5,-240"/>
<polygon fill="none" stroke="black" points="18.5,-240 18.5,-262 161.5,-262 161.5,-240 18.5,-240"/>
<text text-anchor="start" x="38.5" y="-248.2" font-family="Helvetica,sans-Serif" font-size="11.00">catalog_number_1</text>
<polygon fill="#ffffff" stroke="transparent" points="18.5,-218 18.5,-240 161.5,-240 161.5,-218 18.5,-218"/>
<polygon fill="none" stroke="black" points="18.5,-218 18.5,-240 161.5,-240 161.5,-218 18.5,-218"/>
<text text-anchor="start" x="38.5" y="-226.2" font-family="Helvetica,sans-Serif" font-size="11.00">catalog_number_2</text>
<polygon fill="#ffffff" stroke="transparent" points="18.5,-196 18.5,-218 161.5,-218 161.5,-196 18.5,-196"/>
<polygon fill="none" stroke="black" points="18.5,-196 18.5,-218 161.5,-218 161.5,-196 18.5,-196"/>
<text text-anchor="start" x="38.5" y="-204.2" font-family="Helvetica,sans-Serif" font-size="11.00">catalog_side</text>
<polygon fill="none" stroke="black" points="18.5,-178 18.5,-196 161.5,-196 161.5,-178 18.5,-178"/>
<text text-anchor="start" x="21.5" y="-184.2" font-family="Helvetica,sans-Serif" font-size="11.00">...</text>
<polygon fill="#ffffff" stroke="transparent" points="18.5,-160 18.5,-178 46.5,-178 46.5,-160 18.5,-160"/>
<polygon fill="none" stroke="black" points="18.5,-160 18.5,-178 46.5,-178 46.5,-160 18.5,-160"/>
<text text-anchor="start" x="21.5" y="-166.2" font-family="Helvetica,sans-Serif" font-size="11.00"> &#160;</text>
<polygon fill="#ffffff" stroke="transparent" points="46.5,-160 46.5,-178 127.5,-178 127.5,-160 46.5,-160"/>
<polygon fill="none" stroke="black" points="46.5,-160 46.5,-178 127.5,-178 127.5,-160 46.5,-160"/>
<text text-anchor="start" x="56.5" y="-166.2" font-family="Helvetica,sans-Serif" font-size="11.00">41,950 rows</text>
<polygon fill="#ffffff" stroke="transparent" points="127.5,-160 127.5,-178 161.5,-178 161.5,-160 127.5,-160"/>
<polygon fill="none" stroke="black" points="127.5,-160 127.5,-178 161.5,-178 161.5,-160 127.5,-160"/>
<text text-anchor="start" x="138.5" y="-166.2" font-family="Helvetica,sans-Serif" font-size="11.00">3 &gt;</text>
</a>
</g>
</g>
<!-- image_catalog_author&#45;&gt;image_catalog -->
<g id="edge1" class="edge">
<title>image_catalog_author:w&#45;&gt;image_catalog:e</title>
<path fill="none" stroke="black" d="M210.51,-212.91C180.71,-225.42 203.91,-295 162.5,-295"/>
<polygon fill="black" stroke="black" points="219.5,-207.21 220.93,-215.08 219.36,-215.37 217.92,-207.5 219.5,-207.21"/>
<polyline fill="none" stroke="black" points="221,-211 217.06,-211.72 "/>
<ellipse fill="none" stroke="black" cx="213.92" cy="-212.29" rx="3.2" ry="3.2"/>
</g>
<!-- user -->
<g id="node3" class="node">
<title>user</title>
<g id="a_node3"><a xlink:href="../../tables/user.html" xlink:title="user" target="_top">
<polygon fill="#ffffff" stroke="transparent" points="8,-37 8,-139 171,-139 171,-37 8,-37"/>
<polygon fill="#f5f5f5" stroke="transparent" points="8.5,-117 8.5,-139 171.5,-139 171.5,-117 8.5,-117"/>
<polygon fill="none" stroke="black" points="8.5,-117 8.5,-139 171.5,-139 171.5,-117 8.5,-117"/>
<text text-anchor="start" x="13.5" y="-126.2" font-family="Helvetica,sans-Serif" font-weight="bold" font-size="11.00">user</text>
<text text-anchor="start" x="129.5" y="-125.2" font-family="Helvetica,sans-Serif" font-size="11.00">[table]</text>
<polygon fill="none" stroke="black" points="8.5,-95 8.5,-117 171.5,-117 171.5,-95 8.5,-95"/>
<image xlink:href="../../images/primaryKeys.png" width="11px" height="12px" preserveAspectRatio="xMinYMin meet" x="13.5" y="-112"/>
<text text-anchor="start" x="28.5" y="-103.2" font-family="Helvetica,sans-Serif" font-size="11.00">user_id</text>
<polygon fill="#ffffff" stroke="transparent" points="8.5,-73 8.5,-95 171.5,-95 171.5,-73 8.5,-73"/>
<polygon fill="none" stroke="black" points="8.5,-73 8.5,-95 171.5,-95 171.5,-73 8.5,-73"/>
<text text-anchor="start" x="28.5" y="-81.2" font-family="Helvetica,sans-Serif" font-size="11.00">email</text>
<polygon fill="none" stroke="black" points="8.5,-55 8.5,-73 171.5,-73 171.5,-55 8.5,-55"/>
<text text-anchor="start" x="11.5" y="-61.2" font-family="Helvetica,sans-Serif" font-size="11.00">...</text>
<polygon fill="#ffffff" stroke="transparent" points="8.5,-37 8.5,-55 58.5,-55 58.5,-37 8.5,-37"/>
<polygon fill="none" stroke="black" points="8.5,-37 8.5,-55 58.5,-55 58.5,-37 8.5,-37"/>
<text text-anchor="start" x="11.5" y="-43.2" font-family="Helvetica,sans-Serif" font-size="11.00"> &#160;</text>
<polygon fill="#ffffff" stroke="transparent" points="58.5,-37 58.5,-55 119.5,-55 119.5,-37 58.5,-37"/>
<polygon fill="none" stroke="black" points="58.5,-37 58.5,-55 119.5,-55 119.5,-37 58.5,-37"/>
<text text-anchor="start" x="79.5" y="-43.2" font-family="Helvetica,sans-Serif" font-size="11.00">0 rows</text>
<polygon fill="#ffffff" stroke="transparent" points="119.5,-37 119.5,-55 171.5,-55 171.5,-37 119.5,-37"/>
<polygon fill="none" stroke="black" points="119.5,-37 119.5,-55 171.5,-55 171.5,-37 119.5,-37"/>
<text text-anchor="start" x="141.5" y="-43.2" font-family="Helvetica,sans-Serif" font-size="11.00">10 &gt;</text>
</a>
</g>
</g>
<!-- image_catalog_author&#45;&gt;user -->
<g id="edge2" class="edge">
<title>image_catalog_author:w&#45;&gt;user:e</title>
<path fill="none" stroke="black" d="M207.26,-184.54C187.09,-167.3 209.22,-106 172.5,-106"/>
<polygon fill="black" stroke="black" points="213.39,-186.53 219.89,-192.42 217.2,-187.76 221,-189 221,-189 221,-189 217.2,-187.76 222.11,-185.58 213.39,-186.53 213.39,-186.53"/>
<ellipse fill="none" stroke="black" cx="210.35" cy="-185.54" rx="3.2" ry="3.2"/>
</g>
</g>
</svg>
