<?xml version="1.0" encoding="UTF-8" standalone="no"?>
<!DOCTYPE svg PUBLIC "-//W3C//DTD SVG 1.1//EN"
 "http://www.w3.org/Graphics/SVG/1.1/DTD/svg11.dtd">
<!-- Generated by graphviz version 2.40.1 (20161225.0304)
 -->
<!-- Title: oneDegreeRelationshipsDiagramImplied Pages: 1 -->
<svg width="558pt" height="362pt"
 viewBox="0.00 0.00 558.00 362.00" xmlns="http://www.w3.org/2000/svg" xmlns:xlink="http://www.w3.org/1999/xlink">
<g id="graph0" class="graph" transform="scale(1 1) rotate(0) translate(4 358)">
<title>oneDegreeRelationshipsDiagramImplied</title>
<polygon fill="#ffffff" stroke="transparent" points="-4,4 -4,-358 554,-358 554,4 -4,4"/>
<text text-anchor="middle" x="71.5" y="-7.2" font-family="Helvetica,sans-Serif" font-size="11.00" fill="#000000">Generated by SchemaSpy</text>
<!-- image_to_image_map_author -->
<g id="node1" class="node">
<title>image_to_image_map_author</title>
<g id="a_node1"><a xlink:href="../../tables/image_to_image_map_author.html" xlink:title="image_to_image_map_author" target="_top">
<polygon fill="#ffffff" stroke="transparent" points="240,-169 240,-257 542,-257 542,-169 240,-169"/>
<polygon fill="#f5f5f5" stroke="transparent" points="242,-233 242,-255 540,-255 540,-233 242,-233"/>
<polygon fill="none" stroke="#000000" points="242,-233 242,-255 540,-255 540,-233 242,-233"/>
<text text-anchor="start" x="247" y="-242.2" font-family="Helvetica,sans-Serif" font-weight="bold" font-size="11.00" fill="#000000">image_to_image_map_author</text>
<text text-anchor="start" x="505" y="-241.2" font-family="Helvetica,sans-Serif" font-size="11.00" fill="#000000">[table]</text>
<polygon fill="none" stroke="#000000" points="242,-211 242,-233 458,-233 458,-211 242,-211"/>
<image xlink:href="../../images/primaryKeys.png" width="11px" height="12px" preserveAspectRatio="xMinYMin meet" x="247" y="-228"/>
<text text-anchor="start" x="262" y="-219.2" font-family="Helvetica,sans-Serif" font-size="11.00" fill="#000000">image_to_image_map_id</text>
<polygon fill="none" stroke="#000000" points="458,-211 458,-233 540,-233 540,-211 458,-211"/>
<text text-anchor="start" x="461" y="-219.2" font-family="Helvetica,sans-Serif" font-size="11.00" fill="#000000">int unsigned[10]</text>
<polygon fill="none" stroke="#000000" points="242,-189 242,-211 458,-211 458,-189 242,-189"/>
<image xlink:href="../../images/primaryKeys.png" width="11px" height="12px" preserveAspectRatio="xMinYMin meet" x="247" y="-206"/>
<text text-anchor="start" x="262" y="-197.2" font-family="Helvetica,sans-Serif" font-size="11.00" fill="#000000">user_id</text>
<polygon fill="none" stroke="#000000" points="458,-189 458,-211 540,-211 540,-189 458,-189"/>
<text text-anchor="start" x="461" y="-197.2" font-family="Helvetica,sans-Serif" font-size="11.00" fill="#000000">int unsigned[10]</text>
<polygon fill="#ffffff" stroke="transparent" points="242,-171 242,-189 328,-189 328,-171 242,-171"/>
<polygon fill="none" stroke="#000000" points="242,-171 242,-189 328,-189 328,-171 242,-171"/>
<text text-anchor="start" x="245" y="-177.2" font-family="Helvetica,sans-Serif" font-size="11.00" fill="#000000">&lt; 2</text>
<polygon fill="#ffffff" stroke="transparent" points="328,-171 328,-189 458,-189 458,-171 328,-171"/>
<polygon fill="none" stroke="#000000" points="328,-171 328,-189 458,-189 458,-171 328,-171"/>
<text text-anchor="start" x="395" y="-177.2" font-family="Helvetica,sans-Serif" font-size="11.00" fill="#000000">72,198 rows</text>
<polygon fill="#ffffff" stroke="transparent" points="458,-171 458,-189 540,-189 540,-171 458,-171"/>
<polygon fill="none" stroke="#000000" points="458,-171 458,-189 540,-189 540,-171 458,-171"/>
<text text-anchor="start" x="521" y="-177.2" font-family="Helvetica,sans-Serif" font-size="11.00" fill="#000000">0 &gt;</text>
<polygon fill="none" stroke="#000000" stroke-width="2" points="241,-170 241,-256 541,-256 541,-170 241,-170"/>
</a>
</g>
</g>
<!-- image_to_image_map -->
<g id="node2" class="node">
<title>image_to_image_map</title>
<g id="a_node2"><a xlink:href="../../tables/image_to_image_map.html" xlink:title="image_to_image_map" target="_top">
<polygon fill="#ffffff" stroke="transparent" points="8,-160 8,-350 191,-350 191,-160 8,-160"/>
<polygon fill="#f5f5f5" stroke="transparent" points="8.5,-328 8.5,-350 191.5,-350 191.5,-328 8.5,-328"/>
<polygon fill="none" stroke="#000000" points="8.5,-328 8.5,-350 191.5,-350 191.5,-328 8.5,-328"/>
<text text-anchor="start" x="13.5" y="-337.2" font-family="Helvetica,sans-Serif" font-weight="bold" font-size="11.00" fill="#000000">image_to_image_map</text>
<text text-anchor="start" x="156.5" y="-336.2" font-family="Helvetica,sans-Serif" font-size="11.00" fill="#000000">[table]</text>
<polygon fill="none" stroke="#000000" points="8.5,-306 8.5,-328 191.5,-328 191.5,-306 8.5,-306"/>
<image xlink:href="../../images/primaryKeys.png" width="11px" height="12px" preserveAspectRatio="xMinYMin meet" x="13.5" y="-323"/>
<text text-anchor="start" x="28.5" y="-314.2" font-family="Helvetica,sans-Serif" font-size="11.00" fill="#000000">image_to_image_map_id</text>
<polygon fill="#ffffff" stroke="transparent" points="8.5,-284 8.5,-306 191.5,-306 191.5,-284 8.5,-284"/>
<polygon fill="none" stroke="#000000" points="8.5,-284 8.5,-306 191.5,-306 191.5,-284 8.5,-284"/>
<image xlink:href="../../images/foreignKeys.png" width="11px" height="12px" preserveAspectRatio="xMinYMin meet" x="13.5" y="-301"/>
<text text-anchor="start" x="28.5" y="-292.2" font-family="Helvetica,sans-Serif" font-size="11.00" fill="#000000">image1_id</text>
<polygon fill="#ffffff" stroke="transparent" points="8.5,-262 8.5,-284 191.5,-284 191.5,-262 8.5,-262"/>
<polygon fill="none" stroke="#000000" points="8.5,-262 8.5,-284 191.5,-284 191.5,-262 8.5,-262"/>
<image xlink:href="../../images/foreignKeys.png" width="11px" height="12px" preserveAspectRatio="xMinYMin meet" x="13.5" y="-279"/>
<text text-anchor="start" x="28.5" y="-270.2" font-family="Helvetica,sans-Serif" font-size="11.00" fill="#000000">image2_id</text>
<polygon fill="#ffffff" stroke="transparent" points="8.5,-240 8.5,-262 191.5,-262 191.5,-240 8.5,-240"/>
<polygon fill="none" stroke="#000000" points="8.5,-240 8.5,-262 191.5,-262 191.5,-240 8.5,-240"/>
<text text-anchor="start" x="28.5" y="-248.2" font-family="Helvetica,sans-Serif" font-size="11.00" fill="#000000">transform_matrix</text>
<polygon fill="#ffffff" stroke="transparent" points="8.5,-218 8.5,-240 191.5,-240 191.5,-218 8.5,-218"/>
<polygon fill="none" stroke="#000000" points="8.5,-218 8.5,-240 191.5,-240 191.5,-218 8.5,-218"/>
<text text-anchor="start" x="28.5" y="-226.2" font-family="Helvetica,sans-Serif" font-size="11.00" fill="#000000">region1_hash</text>
<polygon fill="#ffffff" stroke="transparent" points="8.5,-196 8.5,-218 191.5,-218 191.5,-196 8.5,-196"/>
<polygon fill="none" stroke="#000000" points="8.5,-196 8.5,-218 191.5,-218 191.5,-196 8.5,-196"/>
<text text-anchor="start" x="28.5" y="-204.2" font-family="Helvetica,sans-Serif" font-size="11.00" fill="#000000">region2_hash</text>
<polygon fill="none" stroke="#000000" points="8.5,-178 8.5,-196 191.5,-196 191.5,-178 8.5,-178"/>
<text text-anchor="start" x="11.5" y="-184.2" font-family="Helvetica,sans-Serif" font-size="11.00" fill="#000000">...</text>
<polygon fill="#ffffff" stroke="transparent" points="8.5,-160 8.5,-178 66.5,-178 66.5,-160 8.5,-160"/>
<polygon fill="none" stroke="#000000" points="8.5,-160 8.5,-178 66.5,-178 66.5,-160 8.5,-160"/>
<text text-anchor="start" x="11.5" y="-166.2" font-family="Helvetica,sans-Serif" font-size="11.00" fill="#000000">&lt; 2</text>
<polygon fill="#ffffff" stroke="transparent" points="66.5,-160 66.5,-178 150.5,-178 150.5,-160 66.5,-160"/>
<polygon fill="none" stroke="#000000" points="66.5,-160 66.5,-178 150.5,-178 150.5,-160 66.5,-160"/>
<text text-anchor="start" x="87.5" y="-166.2" font-family="Helvetica,sans-Serif" font-size="11.00" fill="#000000">69,272 rows</text>
<polygon fill="#ffffff" stroke="transparent" points="150.5,-160 150.5,-178 191.5,-178 191.5,-160 150.5,-160"/>
<polygon fill="none" stroke="#000000" points="150.5,-160 150.5,-178 191.5,-178 191.5,-160 150.5,-160"/>
<text text-anchor="start" x="172.5" y="-166.2" font-family="Helvetica,sans-Serif" font-size="11.00" fill="#000000">2 &gt;</text>
</a>
</g>
</g>
<!-- image_to_image_map_author&#45;&gt;image_to_image_map -->
<g id="edge1" class="edge">
<title>image_to_image_map_author:w&#45;&gt;image_to_image_map:e</title>
<path fill="none" stroke="#000000" d="M228.0626,-226.082C204.0141,-244.2656 233.3399,-317 191.5,-317"/>
<polygon fill="#000000" stroke="#000000" points="234.3225,-224.2486 243.0119,-225.4549 238.1613,-223.1243 242,-222 242,-222 242,-222 238.1613,-223.1243 240.9881,-218.5451 234.3225,-224.2486 234.3225,-224.2486"/>
<ellipse fill="none" stroke="#000000" cx="231.2515" cy="-225.1481" rx="3.2" ry="3.2"/>
</g>
<!-- user -->
<g id="node3" class="node">
<title>user</title>
<g id="a_node3"><a xlink:href="../../tables/user.html" xlink:title="user" target="_top">
<polygon fill="#ffffff" stroke="transparent" points="18,-37 18,-139 181,-139 181,-37 18,-37"/>
<polygon fill="#f5f5f5" stroke="transparent" points="18.5,-117 18.5,-139 181.5,-139 181.5,-117 18.5,-117"/>
<polygon fill="none" stroke="#000000" points="18.5,-117 18.5,-139 181.5,-139 181.5,-117 18.5,-117"/>
<text text-anchor="start" x="23.5" y="-126.2" font-family="Helvetica,sans-Serif" font-weight="bold" font-size="11.00" fill="#000000">user</text>
<text text-anchor="start" x="146.5" y="-125.2" font-family="Helvetica,sans-Serif" font-size="11.00" fill="#000000">[table]</text>
<polygon fill="none" stroke="#000000" points="18.5,-95 18.5,-117 181.5,-117 181.5,-95 18.5,-95"/>
<image xlink:href="../../images/primaryKeys.png" width="11px" height="12px" preserveAspectRatio="xMinYMin meet" x="23.5" y="-112"/>
<text text-anchor="start" x="38.5" y="-103.2" font-family="Helvetica,sans-Serif" font-size="11.00" fill="#000000">user_id</text>
<polygon fill="#ffffff" stroke="transparent" points="18.5,-73 18.5,-95 181.5,-95 181.5,-73 18.5,-73"/>
<polygon fill="none" stroke="#000000" points="18.5,-73 18.5,-95 181.5,-95 181.5,-73 18.5,-73"/>
<text text-anchor="start" x="38.5" y="-81.2" font-family="Helvetica,sans-Serif" font-size="11.00" fill="#000000">email</text>
<polygon fill="none" stroke="#000000" points="18.5,-55 18.5,-73 181.5,-73 181.5,-55 18.5,-55"/>
<text text-anchor="start" x="21.5" y="-61.2" font-family="Helvetica,sans-Serif" font-size="11.00" fill="#000000">...</text>
<polygon fill="#ffffff" stroke="transparent" points="18.5,-37 18.5,-55 72.5,-55 72.5,-37 18.5,-37"/>
<polygon fill="none" stroke="#000000" points="18.5,-37 18.5,-55 72.5,-55 72.5,-37 18.5,-37"/>
<text text-anchor="start" x="21.5" y="-43.2" font-family="Helvetica,sans-Serif" font-size="11.00" fill="#000000"> &#160;</text>
<polygon fill="#ffffff" stroke="transparent" points="72.5,-37 72.5,-55 132.5,-55 132.5,-37 72.5,-37"/>
<polygon fill="none" stroke="#000000" points="72.5,-37 72.5,-55 132.5,-55 132.5,-37 72.5,-37"/>
<text text-anchor="start" x="96.5" y="-43.2" font-family="Helvetica,sans-Serif" font-size="11.00" fill="#000000">3 rows</text>
<polygon fill="#ffffff" stroke="transparent" points="132.5,-37 132.5,-55 181.5,-55 181.5,-37 132.5,-37"/>
<polygon fill="none" stroke="#000000" points="132.5,-37 132.5,-55 181.5,-55 181.5,-37 132.5,-37"/>
<text text-anchor="start" x="156.5" y="-43.2" font-family="Helvetica,sans-Serif" font-size="11.00" fill="#000000">40 &gt;</text>
</a>
</g>
</g>
<!-- image_to_image_map_author&#45;&gt;user -->
<g id="edge2" class="edge">
<title>image_to_image_map_author:w&#45;&gt;user:e</title>
<path fill="none" stroke="#000000" d="M227.8964,-196.4299C200.2102,-179.2596 225.3607,-106 181.5,-106"/>
<polygon fill="#000000" stroke="#000000" points="234.2446,-198.0368 241.1166,-203.4899 238.1223,-199.0184 242,-200 242,-200 242,-200 238.1223,-199.0184 242.8834,-196.5101 234.2446,-198.0368 234.2446,-198.0368"/>
<ellipse fill="none" stroke="#000000" cx="231.1425" cy="-197.2515" rx="3.2" ry="3.2"/>
</g>
</g>
</svg>
