<?xml version="1.0" encoding="UTF-8" standalone="no"?>
<!DOCTYPE svg PUBLIC "-//W3C//DTD SVG 1.1//EN"
 "http://www.w3.org/Graphics/SVG/1.1/DTD/svg11.dtd">
<!-- Generated by graphviz version 2.40.1 (20161225.0304)
 -->
<!-- Title: oneDegreeRelationshipsDiagram Pages: 1 -->
<svg width="520pt" height="405pt"
 viewBox="0.00 0.00 520.00 405.00" xmlns="http://www.w3.org/2000/svg" xmlns:xlink="http://www.w3.org/1999/xlink">
<g id="graph0" class="graph" transform="scale(1 1) rotate(0) translate(4 401)">
<title>oneDegreeRelationshipsDiagram</title>
<polygon fill="#ffffff" stroke="transparent" points="-4,4 -4,-401 516,-401 516,4 -4,4"/>
<text text-anchor="middle" x="71.5" y="-7.2" font-family="Helvetica,sans-Serif" font-size="11.00" fill="#000000">Generated by SchemaSpy</text>
<!-- image_catalog_author -->
<g id="node1" class="node">
<title>image_catalog_author</title>
<g id="a_node1"><a xlink:href="../../tables/image_catalog_author.html" xlink:title="image_catalog_author" target="_top">
<polygon fill="#ffffff" stroke="transparent" points="310.5,-309 310.5,-393 479.5,-393 479.5,-309 310.5,-309"/>
<polygon fill="#f5f5f5" stroke="transparent" points="311,-371 311,-393 480,-393 480,-371 311,-371"/>
<polygon fill="none" stroke="#000000" points="311,-371 311,-393 480,-393 480,-371 311,-371"/>
<text text-anchor="start" x="316" y="-380.2" font-family="Helvetica,sans-Serif" font-weight="bold" font-size="11.00" fill="#000000">image_catalog_author</text>
<text text-anchor="start" x="445" y="-379.2" font-family="Helvetica,sans-Serif" font-size="11.00" fill="#000000">[table]</text>
<polygon fill="none" stroke="#000000" points="311,-349 311,-371 480,-371 480,-349 311,-349"/>
<image xlink:href="../../images/primaryKeys.png" width="11px" height="12px" preserveAspectRatio="xMinYMin meet" x="316" y="-366"/>
<text text-anchor="start" x="331" y="-357.2" font-family="Helvetica,sans-Serif" font-size="11.00" fill="#000000">image_catalog_id</text>
<polygon fill="#ffffff" stroke="transparent" points="311,-327 311,-349 480,-349 480,-327 311,-327"/>
<polygon fill="none" stroke="#000000" points="311,-327 311,-349 480,-349 480,-327 311,-327"/>
<image xlink:href="../../images/foreignKeys.png" width="11px" height="12px" preserveAspectRatio="xMinYMin meet" x="316" y="-344"/>
<text text-anchor="start" x="331" y="-335.2" font-family="Helvetica,sans-Serif" font-size="11.00" fill="#000000">user_id</text>
<polygon fill="#ffffff" stroke="transparent" points="311,-309 311,-327 367,-327 367,-309 311,-309"/>
<polygon fill="none" stroke="#000000" points="311,-309 311,-327 367,-327 367,-309 311,-309"/>
<text text-anchor="start" x="314" y="-315.2" font-family="Helvetica,sans-Serif" font-size="11.00" fill="#000000">&lt; 2</text>
<polygon fill="#ffffff" stroke="transparent" points="367,-309 367,-327 450,-327 450,-309 367,-309"/>
<polygon fill="none" stroke="#000000" points="367,-309 367,-327 450,-327 450,-309 367,-309"/>
<text text-anchor="start" x="387" y="-315.2" font-family="Helvetica,sans-Serif" font-size="11.00" fill="#000000">40,781 rows</text>
<polygon fill="#ffffff" stroke="transparent" points="450,-309 450,-327 480,-327 480,-309 450,-309"/>
<polygon fill="none" stroke="#000000" points="450,-309 450,-327 480,-327 480,-309 450,-309"/>
<text text-anchor="start" x="470" y="-315.2" font-family="Helvetica,sans-Serif" font-size="11.00" fill="#000000"> &#160;</text>
</a>
</g>
</g>
<!-- image_catalog -->
<g id="node2" class="node">
<title>image_catalog</title>
<g id="a_node2"><a xlink:href="../../tables/image_catalog.html" xlink:title="image_catalog" target="_top">
<polygon fill="#ffffff" stroke="transparent" points="8,-92 8,-268 237,-268 237,-92 8,-92"/>
<polygon fill="#f5f5f5" stroke="transparent" points="10.5,-244 10.5,-266 235.5,-266 235.5,-244 10.5,-244"/>
<polygon fill="none" stroke="#000000" points="10.5,-244 10.5,-266 235.5,-266 235.5,-244 10.5,-244"/>
<text text-anchor="start" x="15.5" y="-253.2" font-family="Helvetica,sans-Serif" font-weight="bold" font-size="11.00" fill="#000000">image_catalog</text>
<text text-anchor="start" x="200.5" y="-252.2" font-family="Helvetica,sans-Serif" font-size="11.00" fill="#000000">[table]</text>
<polygon fill="none" stroke="#000000" points="10.5,-222 10.5,-244 153.5,-244 153.5,-222 10.5,-222"/>
<image xlink:href="../../images/primaryKeys.png" width="11px" height="12px" preserveAspectRatio="xMinYMin meet" x="15.5" y="-239"/>
<text text-anchor="start" x="30.5" y="-230.2" font-family="Helvetica,sans-Serif" font-size="11.00" fill="#000000">image_catalog_id</text>
<polygon fill="none" stroke="#000000" points="153.5,-222 153.5,-244 235.5,-244 235.5,-222 153.5,-222"/>
<text text-anchor="start" x="156.5" y="-230.2" font-family="Helvetica,sans-Serif" font-size="11.00" fill="#000000">int unsigned[10]</text>
<polygon fill="#ffffff" stroke="transparent" points="10.5,-200 10.5,-222 153.5,-222 153.5,-200 10.5,-200"/>
<polygon fill="none" stroke="#000000" points="10.5,-200 10.5,-222 153.5,-222 153.5,-200 10.5,-200"/>
<text text-anchor="start" x="30.5" y="-208.2" font-family="Helvetica,sans-Serif" font-size="11.00" fill="#000000">institution</text>
<polygon fill="none" stroke="#000000" points="153.5,-200 153.5,-222 235.5,-222 235.5,-200 153.5,-200"/>
<text text-anchor="start" x="156.5" y="-208.2" font-family="Helvetica,sans-Serif" font-size="11.00" fill="#000000">varchar[255]</text>
<polygon fill="#ffffff" stroke="transparent" points="10.5,-178 10.5,-200 153.5,-200 153.5,-178 10.5,-178"/>
<polygon fill="none" stroke="#000000" points="10.5,-178 10.5,-200 153.5,-200 153.5,-178 10.5,-178"/>
<text text-anchor="start" x="30.5" y="-186.2" font-family="Helvetica,sans-Serif" font-size="11.00" fill="#000000">catalog_number_1</text>
<polygon fill="none" stroke="#000000" points="153.5,-178 153.5,-200 235.5,-200 235.5,-178 153.5,-178"/>
<text text-anchor="start" x="156.5" y="-186.2" font-family="Helvetica,sans-Serif" font-size="11.00" fill="#000000">varchar[255]</text>
<polygon fill="#ffffff" stroke="transparent" points="10.5,-156 10.5,-178 153.5,-178 153.5,-156 10.5,-156"/>
<polygon fill="none" stroke="#000000" points="10.5,-156 10.5,-178 153.5,-178 153.5,-156 10.5,-156"/>
<text text-anchor="start" x="30.5" y="-164.2" font-family="Helvetica,sans-Serif" font-size="11.00" fill="#000000">catalog_number_2</text>
<polygon fill="none" stroke="#000000" points="153.5,-156 153.5,-178 235.5,-178 235.5,-156 153.5,-156"/>
<text text-anchor="start" x="156.5" y="-164.2" font-family="Helvetica,sans-Serif" font-size="11.00" fill="#000000">varchar[255]</text>
<polygon fill="#ffffff" stroke="transparent" points="10.5,-134 10.5,-156 153.5,-156 153.5,-134 10.5,-134"/>
<polygon fill="none" stroke="#000000" points="10.5,-134 10.5,-156 153.5,-156 153.5,-134 10.5,-134"/>
<text text-anchor="start" x="30.5" y="-142.2" font-family="Helvetica,sans-Serif" font-size="11.00" fill="#000000">catalog_side</text>
<polygon fill="none" stroke="#000000" points="153.5,-134 153.5,-156 235.5,-156 235.5,-134 153.5,-134"/>
<text text-anchor="start" x="156.5" y="-142.2" font-family="Helvetica,sans-Serif" font-size="11.00" fill="#000000">bit[3]</text>
<polygon fill="none" stroke="#000000" points="10.5,-112 10.5,-134 153.5,-134 153.5,-112 10.5,-112"/>
<text text-anchor="start" x="30.5" y="-120.2" font-family="Helvetica,sans-Serif" font-size="11.00" fill="#000000">object_id</text>
<polygon fill="none" stroke="#000000" points="153.5,-112 153.5,-134 235.5,-134 235.5,-112 153.5,-112"/>
<text text-anchor="start" x="156.5" y="-120.2" font-family="Helvetica,sans-Serif" font-size="11.00" fill="#000000">varchar[255]</text>
<polygon fill="#ffffff" stroke="transparent" points="10.5,-94 10.5,-112 59.5,-112 59.5,-94 10.5,-94"/>
<polygon fill="none" stroke="#000000" points="10.5,-94 10.5,-112 59.5,-112 59.5,-94 10.5,-94"/>
<text text-anchor="start" x="13.5" y="-100.2" font-family="Helvetica,sans-Serif" font-size="11.00" fill="#000000">&lt; 0</text>
<polygon fill="#ffffff" stroke="transparent" points="59.5,-94 59.5,-112 153.5,-112 153.5,-94 59.5,-94"/>
<polygon fill="none" stroke="#000000" points="59.5,-94 59.5,-112 153.5,-112 153.5,-94 59.5,-94"/>
<text text-anchor="start" x="90.5" y="-100.2" font-family="Helvetica,sans-Serif" font-size="11.00" fill="#000000">41,712 rows</text>
<polygon fill="#ffffff" stroke="transparent" points="153.5,-94 153.5,-112 235.5,-112 235.5,-94 153.5,-94"/>
<polygon fill="none" stroke="#000000" points="153.5,-94 153.5,-112 235.5,-112 235.5,-94 153.5,-94"/>
<text text-anchor="start" x="216.5" y="-100.2" font-family="Helvetica,sans-Serif" font-size="11.00" fill="#000000">3 &gt;</text>
<polygon fill="none" stroke="#000000" stroke-width="2" points="9,-93 9,-267 236,-267 236,-93 9,-93"/>
</a>
</g>
</g>
<!-- image_catalog_author&#45;&gt;image_catalog -->
<g id="edge1" class="edge">
<title>image_catalog_author:w&#45;&gt;image_catalog:e</title>
<path fill="none" stroke="#000000" d="M300.6597,-358.743C251.4601,-345.5532 297.3179,-233 235.5,-233"/>
<polygon fill="#000000" stroke="#000000" points="310.6886,-355.9327 309.7231,-363.8742 308.1348,-363.6811 309.1003,-355.7396 310.6886,-355.9327"/>
<polyline fill="none" stroke="#000000" points="311,-360 307.0292,-359.5173 "/>
<ellipse fill="none" stroke="#000000" cx="303.8526" cy="-359.1311" rx="3.2" ry="3.2"/>
</g>
<!-- image_to_iaa_edition_catalog -->
<g id="node3" class="node">
<title>image_to_iaa_edition_catalog</title>
<g id="a_node3"><a xlink:href="../../tables/image_to_iaa_edition_catalog.html" xlink:title="image_to_iaa_edition_catalog" target="_top">
<polygon fill="#ffffff" stroke="transparent" points="286,-204 286,-288 504,-288 504,-204 286,-204"/>
<polygon fill="#f5f5f5" stroke="transparent" points="286,-266 286,-288 504,-288 504,-266 286,-266"/>
<polygon fill="none" stroke="#000000" points="286,-266 286,-288 504,-288 504,-266 286,-266"/>
<text text-anchor="start" x="291" y="-275.2" font-family="Helvetica,sans-Serif" font-weight="bold" font-size="11.00" fill="#000000">image_to_iaa_edition_catalog</text>
<text text-anchor="start" x="469" y="-274.2" font-family="Helvetica,sans-Serif" font-size="11.00" fill="#000000">[table]</text>
<polygon fill="none" stroke="#000000" points="286,-244 286,-266 504,-266 504,-244 286,-244"/>
<image xlink:href="../../images/primaryKeys.png" width="11px" height="12px" preserveAspectRatio="xMinYMin meet" x="291" y="-261"/>
<text text-anchor="start" x="306" y="-252.2" font-family="Helvetica,sans-Serif" font-size="11.00" fill="#000000">iaa_edition_catalog_id</text>
<polygon fill="none" stroke="#000000" points="286,-222 286,-244 504,-244 504,-222 286,-222"/>
<image xlink:href="../../images/primaryKeys.png" width="11px" height="12px" preserveAspectRatio="xMinYMin meet" x="291" y="-239"/>
<text text-anchor="start" x="306" y="-230.2" font-family="Helvetica,sans-Serif" font-size="11.00" fill="#000000">image_catalog_id</text>
<polygon fill="#ffffff" stroke="transparent" points="286,-204 286,-222 366,-222 366,-204 286,-204"/>
<polygon fill="none" stroke="#000000" points="286,-204 286,-222 366,-222 366,-204 286,-204"/>
<text text-anchor="start" x="289" y="-210.2" font-family="Helvetica,sans-Serif" font-size="11.00" fill="#000000">&lt; 2</text>
<polygon fill="#ffffff" stroke="transparent" points="366,-204 366,-222 461,-222 461,-204 366,-204"/>
<polygon fill="none" stroke="#000000" points="366,-204 366,-222 461,-222 461,-204 366,-204"/>
<text text-anchor="start" x="398" y="-210.2" font-family="Helvetica,sans-Serif" font-size="11.00" fill="#000000">39,105 rows</text>
<polygon fill="#ffffff" stroke="transparent" points="461,-204 461,-222 504,-222 504,-204 461,-204"/>
<polygon fill="none" stroke="#000000" points="461,-204 461,-222 504,-222 504,-204 461,-204"/>
<text text-anchor="start" x="494" y="-210.2" font-family="Helvetica,sans-Serif" font-size="11.00" fill="#000000"> &#160;</text>
</a>
</g>
</g>
<!-- image_to_iaa_edition_catalog&#45;&gt;image_catalog -->
<g id="edge2" class="edge">
<title>image_to_iaa_edition_catalog:w&#45;&gt;image_catalog:e</title>
<path fill="none" stroke="#000000" d="M271.4203,-233C259.5435,-233 252.158,-233 235.5,-233"/>
<polygon fill="#000000" stroke="#000000" points="278,-233.0001 286,-236.6 282,-233 286,-233 286,-233 286,-233 282,-233 286,-229.4 278,-233.0001 278,-233.0001"/>
<ellipse fill="none" stroke="#000000" cx="274.8" cy="-233.0001" rx="3.2" ry="3.2"/>
</g>
<!-- SQE_image -->
<g id="node4" class="node">
<title>SQE_image</title>
<g id="a_node4"><a xlink:href="../../tables/SQE_image.html" xlink:title="SQE_image" target="_top">
<polygon fill="#ffffff" stroke="transparent" points="326,-37 326,-183 464,-183 464,-37 326,-37"/>
<polygon fill="#f5f5f5" stroke="transparent" points="326,-161 326,-183 464,-183 464,-161 326,-161"/>
<polygon fill="none" stroke="#000000" points="326,-161 326,-183 464,-183 464,-161 326,-161"/>
<text text-anchor="start" x="331" y="-170.2" font-family="Helvetica,sans-Serif" font-weight="bold" font-size="11.00" fill="#000000">SQE_image</text>
<text text-anchor="start" x="429" y="-169.2" font-family="Helvetica,sans-Serif" font-size="11.00" fill="#000000">[table]</text>
<polygon fill="none" stroke="#000000" points="326,-139 326,-161 464,-161 464,-139 326,-139"/>
<image xlink:href="../../images/primaryKeys.png" width="11px" height="12px" preserveAspectRatio="xMinYMin meet" x="331" y="-156"/>
<text text-anchor="start" x="346" y="-147.2" font-family="Helvetica,sans-Serif" font-size="11.00" fill="#000000">sqe_image_id</text>
<polygon fill="#ffffff" stroke="transparent" points="326,-117 326,-139 464,-139 464,-117 326,-117"/>
<polygon fill="none" stroke="#000000" points="326,-117 326,-139 464,-139 464,-117 326,-117"/>
<image xlink:href="../../images/foreignKeys.png" width="11px" height="12px" preserveAspectRatio="xMinYMin meet" x="331" y="-134"/>
<text text-anchor="start" x="346" y="-125.2" font-family="Helvetica,sans-Serif" font-size="11.00" fill="#000000">image_urls_id</text>
<polygon fill="#ffffff" stroke="transparent" points="326,-95 326,-117 464,-117 464,-95 326,-95"/>
<polygon fill="none" stroke="#000000" points="326,-95 326,-117 464,-117 464,-95 326,-95"/>
<text text-anchor="start" x="346" y="-103.2" font-family="Helvetica,sans-Serif" font-size="11.00" fill="#000000">filename</text>
<polygon fill="#ffffff" stroke="transparent" points="326,-73 326,-95 464,-95 464,-73 326,-73"/>
<polygon fill="none" stroke="#000000" points="326,-73 326,-95 464,-95 464,-73 326,-73"/>
<image xlink:href="../../images/foreignKeys.png" width="11px" height="12px" preserveAspectRatio="xMinYMin meet" x="331" y="-90"/>
<text text-anchor="start" x="346" y="-81.2" font-family="Helvetica,sans-Serif" font-size="11.00" fill="#000000">image_catalog_id</text>
<polygon fill="none" stroke="#000000" points="326,-55 326,-73 464,-73 464,-55 326,-55"/>
<text text-anchor="start" x="329" y="-61.2" font-family="Helvetica,sans-Serif" font-size="11.00" fill="#000000">...</text>
<polygon fill="#ffffff" stroke="transparent" points="326,-37 326,-55 362,-55 362,-37 326,-37"/>
<polygon fill="none" stroke="#000000" points="326,-37 326,-55 362,-55 362,-37 326,-37"/>
<text text-anchor="start" x="329" y="-43.2" font-family="Helvetica,sans-Serif" font-size="11.00" fill="#000000">&lt; 2</text>
<polygon fill="#ffffff" stroke="transparent" points="362,-37 362,-55 435,-55 435,-37 362,-37"/>
<polygon fill="none" stroke="#000000" points="362,-37 362,-55 435,-55 435,-37 362,-37"/>
<text text-anchor="start" x="372" y="-43.2" font-family="Helvetica,sans-Serif" font-size="11.00" fill="#000000">97,684 rows</text>
<polygon fill="#ffffff" stroke="transparent" points="435,-37 435,-55 464,-55 464,-37 435,-37"/>
<polygon fill="none" stroke="#000000" points="435,-37 435,-55 464,-55 464,-37 435,-37"/>
<text text-anchor="start" x="445" y="-43.2" font-family="Helvetica,sans-Serif" font-size="11.00" fill="#000000">4 &gt;</text>
</a>
</g>
</g>
<!-- SQE_image&#45;&gt;image_catalog -->
<g id="edge3" class="edge">
<title>SQE_image:w&#45;&gt;image_catalog:e</title>
<path fill="none" stroke="#000000" d="M311.663,-86.1063C256.8827,-104.2165 307.5325,-233 235.5,-233"/>
<polygon fill="#000000" stroke="#000000" points="318.085,-85.1629 326.5233,-87.5618 322.0425,-84.5814 326,-84 326,-84 326,-84 322.0425,-84.5814 325.4767,-80.4382 318.085,-85.1629 318.085,-85.1629"/>
<ellipse fill="none" stroke="#000000" cx="314.9189" cy="-85.628" rx="3.2" ry="3.2"/>
</g>
</g>
</svg>
