<?xml version="1.0" encoding="UTF-8" standalone="no"?>
<!DOCTYPE svg PUBLIC "-//W3C//DTD SVG 1.1//EN"
 "http://www.w3.org/Graphics/SVG/1.1/DTD/svg11.dtd">
<!-- Generated by graphviz version 2.43.0 (0)
 -->
<!-- Title: twoDegreesRelationshipsDiagram Pages: 1 -->
<svg width="964pt" height="858pt"
 viewBox="0.00 0.00 964.00 858.00" xmlns="http://www.w3.org/2000/svg" xmlns:xlink="http://www.w3.org/1999/xlink">
<g id="graph0" class="graph" transform="scale(1 1) rotate(0) translate(4 854)">
<title>twoDegreesRelationshipsDiagram</title>
<polygon fill="#ffffff" stroke="transparent" points="-4,4 -4,-854 960,-854 960,4 -4,4"/>
<text text-anchor="middle" x="79.5" y="-7.2" font-family="Helvetica,sans-Serif" font-size="11.00">Generated by SchemaSpy</text>
<!-- edition_editor -->
<g id="node1" class="node">
<title>edition_editor</title>
<g id="a_node1"><a xlink:href="../../tables/edition_editor.html" xlink:title="edition_editor" target="_top">
<polygon fill="#ffffff" stroke="transparent" points="333,-155 333,-213 469,-213 469,-155 333,-155"/>
<polygon fill="#f5f5f5" stroke="transparent" points="333,-191 333,-213 469,-213 469,-191 333,-191"/>
<polygon fill="none" stroke="black" points="333,-191 333,-213 469,-213 469,-191 333,-191"/>
<text text-anchor="start" x="338" y="-200.2" font-family="Helvetica,sans-Serif" font-weight="bold" font-size="11.00">edition_editor</text>
<text text-anchor="start" x="427" y="-199.2" font-family="Helvetica,sans-Serif" font-size="11.00">[table]</text>
<polygon fill="none" stroke="black" points="333,-173 333,-191 469,-191 469,-173 333,-173"/>
<text text-anchor="start" x="336" y="-179.2" font-family="Helvetica,sans-Serif" font-size="11.00">...</text>
<polygon fill="#ffffff" stroke="transparent" points="333,-155 333,-173 364,-173 364,-155 333,-155"/>
<polygon fill="none" stroke="black" points="333,-155 333,-173 364,-173 364,-155 333,-155"/>
<text text-anchor="start" x="336" y="-161.2" font-family="Helvetica,sans-Serif" font-size="11.00">&lt; 2</text>
<polygon fill="#ffffff" stroke="transparent" points="364,-155 364,-173 433,-173 433,-155 364,-155"/>
<polygon fill="none" stroke="black" points="364,-155 364,-173 433,-173 433,-155 364,-155"/>
<text text-anchor="start" x="369" y="-161.2" font-family="Helvetica,sans-Serif" font-size="11.00">1,645 rows</text>
<polygon fill="#ffffff" stroke="transparent" points="433,-155 433,-173 469,-173 469,-155 433,-155"/>
<polygon fill="none" stroke="black" points="433,-155 433,-173 469,-173 469,-155 433,-155"/>
<text text-anchor="start" x="439" y="-161.2" font-family="Helvetica,sans-Serif" font-size="11.00">33 &gt;</text>
</a>
</g>
</g>
<!-- user -->
<g id="node2" class="node">
<title>user</title>
<g id="a_node2"><a xlink:href="../../tables/user.html" xlink:title="user" target="_top">
<polygon fill="#ffffff" stroke="transparent" points="8,-232 8,-334 171,-334 171,-232 8,-232"/>
<polygon fill="#f5f5f5" stroke="transparent" points="8.5,-312 8.5,-334 171.5,-334 171.5,-312 8.5,-312"/>
<polygon fill="none" stroke="black" points="8.5,-312 8.5,-334 171.5,-334 171.5,-312 8.5,-312"/>
<text text-anchor="start" x="13.5" y="-321.2" font-family="Helvetica,sans-Serif" font-weight="bold" font-size="11.00">user</text>
<text text-anchor="start" x="129.5" y="-320.2" font-family="Helvetica,sans-Serif" font-size="11.00">[table]</text>
<polygon fill="none" stroke="black" points="8.5,-290 8.5,-312 171.5,-312 171.5,-290 8.5,-290"/>
<image xlink:href="../../images/primaryKeys.png" width="11px" height="12px" preserveAspectRatio="xMinYMin meet" x="13.5" y="-307"/>
<text text-anchor="start" x="28.5" y="-298.2" font-family="Helvetica,sans-Serif" font-size="11.00">user_id</text>
<polygon fill="#ffffff" stroke="transparent" points="8.5,-268 8.5,-290 171.5,-290 171.5,-268 8.5,-268"/>
<polygon fill="none" stroke="black" points="8.5,-268 8.5,-290 171.5,-290 171.5,-268 8.5,-268"/>
<text text-anchor="start" x="28.5" y="-276.2" font-family="Helvetica,sans-Serif" font-size="11.00">email</text>
<polygon fill="none" stroke="black" points="8.5,-250 8.5,-268 171.5,-268 171.5,-250 8.5,-250"/>
<text text-anchor="start" x="11.5" y="-256.2" font-family="Helvetica,sans-Serif" font-size="11.00">...</text>
<polygon fill="#ffffff" stroke="transparent" points="8.5,-232 8.5,-250 58.5,-250 58.5,-232 8.5,-232"/>
<polygon fill="none" stroke="black" points="8.5,-232 8.5,-250 58.5,-250 58.5,-232 8.5,-232"/>
<text text-anchor="start" x="11.5" y="-238.2" font-family="Helvetica,sans-Serif" font-size="11.00"> &#160;</text>
<polygon fill="#ffffff" stroke="transparent" points="58.5,-232 58.5,-250 119.5,-250 119.5,-232 58.5,-232"/>
<polygon fill="none" stroke="black" points="58.5,-232 58.5,-250 119.5,-250 119.5,-232 58.5,-232"/>
<text text-anchor="start" x="79.5" y="-238.2" font-family="Helvetica,sans-Serif" font-size="11.00">0 rows</text>
<polygon fill="#ffffff" stroke="transparent" points="119.5,-232 119.5,-250 171.5,-250 171.5,-232 119.5,-232"/>
<polygon fill="none" stroke="black" points="119.5,-232 119.5,-250 171.5,-250 171.5,-232 119.5,-232"/>
<text text-anchor="start" x="141.5" y="-238.2" font-family="Helvetica,sans-Serif" font-size="11.00">10 &gt;</text>
</a>
</g>
</g>
<!-- edition_editor&#45;&gt;user -->
<g id="edge1" class="edge">
<title>edition_editor:w&#45;&gt;user:e</title>
<path fill="none" stroke="black" d="M317.33,-182.12C271.58,-183.02 250.63,-189.42 212,-223 182.67,-248.49 211.36,-301 172.5,-301"/>
<polygon fill="black" stroke="black" points="324,-182.07 332.03,-185.6 328,-182.03 332,-182 332,-182 332,-182 328,-182.03 331.97,-178.4 324,-182.07 324,-182.07"/>
<ellipse fill="none" stroke="black" cx="320.8" cy="-182.09" rx="3.2" ry="3.2"/>
</g>
<!-- edition_editor_request -->
<g id="node3" class="node">
<title>edition_editor_request</title>
<g id="a_node3"><a xlink:href="../../tables/edition_editor_request.html" xlink:title="edition_editor_request" target="_top">
<polygon fill="#ffffff" stroke="transparent" points="695,-98 695,-156 884,-156 884,-98 695,-98"/>
<polygon fill="#f5f5f5" stroke="transparent" points="695.5,-134 695.5,-156 884.5,-156 884.5,-134 695.5,-134"/>
<polygon fill="none" stroke="black" points="695.5,-134 695.5,-156 884.5,-156 884.5,-134 695.5,-134"/>
<text text-anchor="start" x="700.5" y="-143.2" font-family="Helvetica,sans-Serif" font-weight="bold" font-size="11.00">edition_editor_request</text>
<text text-anchor="start" x="842.5" y="-142.2" font-family="Helvetica,sans-Serif" font-size="11.00">[table]</text>
<polygon fill="none" stroke="black" points="695.5,-116 695.5,-134 884.5,-134 884.5,-116 695.5,-116"/>
<text text-anchor="start" x="698.5" y="-122.2" font-family="Helvetica,sans-Serif" font-size="11.00">...</text>
<polygon fill="#ffffff" stroke="transparent" points="695.5,-98 695.5,-116 774.5,-116 774.5,-98 695.5,-98"/>
<polygon fill="none" stroke="black" points="695.5,-98 695.5,-116 774.5,-116 774.5,-98 695.5,-98"/>
<text text-anchor="start" x="698.5" y="-104.2" font-family="Helvetica,sans-Serif" font-size="11.00">&lt; 4</text>
<polygon fill="#ffffff" stroke="transparent" points="774.5,-98 774.5,-116 843.5,-116 843.5,-98 774.5,-98"/>
<polygon fill="none" stroke="black" points="774.5,-98 774.5,-116 843.5,-116 843.5,-98 774.5,-98"/>
<text text-anchor="start" x="803.5" y="-104.2" font-family="Helvetica,sans-Serif" font-size="11.00">0 rows</text>
<polygon fill="#ffffff" stroke="transparent" points="843.5,-98 843.5,-116 884.5,-116 884.5,-98 843.5,-98"/>
<polygon fill="none" stroke="black" points="843.5,-98 843.5,-116 884.5,-116 884.5,-98 843.5,-98"/>
<text text-anchor="start" x="873.5" y="-104.2" font-family="Helvetica,sans-Serif" font-size="11.00"> &#160;</text>
</a>
</g>
</g>
<!-- edition_editor_request&#45;&gt;user -->
<g id="edge2" class="edge">
<title>edition_editor_request:w&#45;&gt;user:e</title>
<path fill="none" stroke="black" d="M680.03,-124.75C563.05,-121.12 291.81,-79.21 212,-144 156.14,-189.35 244.45,-301 172.5,-301"/>
<polygon fill="black" stroke="black" points="686.5,-124.86 694.44,-128.6 690.5,-124.93 694.5,-125 694.5,-125 694.5,-125 690.5,-124.93 694.56,-121.4 686.5,-124.86 686.5,-124.86"/>
<ellipse fill="none" stroke="black" cx="683.3" cy="-124.81" rx="3.2" ry="3.2"/>
</g>
<!-- edition_editor_request&#45;&gt;user -->
<g id="edge3" class="edge">
<title>edition_editor_request:w&#45;&gt;user:e</title>
<path fill="none" stroke="black" d="M680.03,-124.77C563.01,-121.44 291.78,-83.11 212,-148 157.52,-192.32 242.73,-301 172.5,-301"/>
<polygon fill="black" stroke="black" points="686.5,-124.88 694.44,-128.6 690.5,-124.94 694.5,-125 694.5,-125 694.5,-125 690.5,-124.94 694.56,-121.4 686.5,-124.88 686.5,-124.88"/>
<ellipse fill="none" stroke="black" cx="683.3" cy="-124.83" rx="3.2" ry="3.2"/>
</g>
<!-- user_email_token -->
<g id="node4" class="node">
<title>user_email_token</title>
<g id="a_node4"><a xlink:href="../../tables/user_email_token.html" xlink:title="user_email_token" target="_top">
<polygon fill="#ffffff" stroke="transparent" points="322.5,-37 322.5,-95 479.5,-95 479.5,-37 322.5,-37"/>
<polygon fill="#f5f5f5" stroke="transparent" points="323,-73 323,-95 480,-95 480,-73 323,-73"/>
<polygon fill="none" stroke="black" points="323,-73 323,-95 480,-95 480,-73 323,-73"/>
<text text-anchor="start" x="328" y="-82.2" font-family="Helvetica,sans-Serif" font-weight="bold" font-size="11.00">user_email_token</text>
<text text-anchor="start" x="438" y="-81.2" font-family="Helvetica,sans-Serif" font-size="11.00">[table]</text>
<polygon fill="none" stroke="black" points="323,-55 323,-73 480,-73 480,-55 323,-55"/>
<text text-anchor="start" x="326" y="-61.2" font-family="Helvetica,sans-Serif" font-size="11.00">...</text>
<polygon fill="#ffffff" stroke="transparent" points="323,-37 323,-55 380,-55 380,-37 323,-37"/>
<polygon fill="none" stroke="black" points="323,-37 323,-55 380,-55 380,-37 323,-37"/>
<text text-anchor="start" x="326" y="-43.2" font-family="Helvetica,sans-Serif" font-size="11.00">&lt; 1</text>
<polygon fill="#ffffff" stroke="transparent" points="380,-37 380,-55 438,-55 438,-37 380,-37"/>
<polygon fill="none" stroke="black" points="380,-37 380,-55 438,-55 438,-37 380,-37"/>
<text text-anchor="start" x="398" y="-43.2" font-family="Helvetica,sans-Serif" font-size="11.00">0 rows</text>
<polygon fill="#ffffff" stroke="transparent" points="438,-37 438,-55 480,-55 480,-37 438,-37"/>
<polygon fill="none" stroke="black" points="438,-37 438,-55 480,-55 480,-37 438,-37"/>
<text text-anchor="start" x="457" y="-43.2" font-family="Helvetica,sans-Serif" font-size="11.00">1 &gt;</text>
</a>
</g>
</g>
<!-- edition_editor_request&#45;&gt;user_email_token -->
<g id="edge4" class="edge">
<title>edition_editor_request:w&#45;&gt;user_email_token:e</title>
<path fill="none" stroke="black" d="M680.08,-124.54C593.96,-118.96 574.67,-64 481,-64"/>
<polygon fill="black" stroke="black" points="686.5,-124.75 694.39,-128.6 690.5,-124.87 694.5,-125 694.5,-125 694.5,-125 690.5,-124.87 694.61,-121.4 686.5,-124.75 686.5,-124.75"/>
<ellipse fill="none" stroke="black" cx="683.31" cy="-124.65" rx="3.2" ry="3.2"/>
</g>
<!-- user_email_token&#45;&gt;user -->
<g id="edge16" class="edge">
<title>user_email_token:w&#45;&gt;user:e</title>
<path fill="none" stroke="black" d="M307.33,-64.15C264.5,-65.2 242.44,-72.32 212,-109 156.36,-176.04 259.62,-301 172.5,-301"/>
<polygon fill="black" stroke="black" points="314,-64.08 322.04,-67.6 318,-64.04 322,-64 322,-64 322,-64 318,-64.04 321.96,-60.4 314,-64.08 314,-64.08"/>
<ellipse fill="none" stroke="black" cx="310.8" cy="-64.12" rx="3.2" ry="3.2"/>
</g>
<!-- iaa_edition_catalog_author -->
<g id="node5" class="node">
<title>iaa_edition_catalog_author</title>
<g id="a_node5"><a xlink:href="../../tables/iaa_edition_catalog_author.html" xlink:title="iaa_edition_catalog_author" target="_top">
<polygon fill="#ffffff" stroke="transparent" points="293.5,-471 293.5,-529 508.5,-529 508.5,-471 293.5,-471"/>
<polygon fill="#f5f5f5" stroke="transparent" points="294,-507 294,-529 509,-529 509,-507 294,-507"/>
<polygon fill="none" stroke="black" points="294,-507 294,-529 509,-529 509,-507 294,-507"/>
<text text-anchor="start" x="299" y="-516.2" font-family="Helvetica,sans-Serif" font-weight="bold" font-size="11.00">iaa_edition_catalog_author</text>
<text text-anchor="start" x="467" y="-515.2" font-family="Helvetica,sans-Serif" font-size="11.00">[table]</text>
<polygon fill="none" stroke="black" points="294,-489 294,-507 509,-507 509,-489 294,-489"/>
<text text-anchor="start" x="297" y="-495.2" font-family="Helvetica,sans-Serif" font-size="11.00">...</text>
<polygon fill="#ffffff" stroke="transparent" points="294,-471 294,-489 370,-489 370,-471 294,-471"/>
<polygon fill="none" stroke="black" points="294,-471 294,-489 370,-489 370,-471 294,-471"/>
<text text-anchor="start" x="297" y="-477.2" font-family="Helvetica,sans-Serif" font-size="11.00">&lt; 2</text>
<polygon fill="#ffffff" stroke="transparent" points="370,-471 370,-489 469,-489 469,-471 370,-471"/>
<polygon fill="none" stroke="black" points="370,-471 370,-489 469,-489 469,-471 370,-471"/>
<text text-anchor="start" x="398" y="-477.2" font-family="Helvetica,sans-Serif" font-size="11.00">39,537 rows</text>
<polygon fill="#ffffff" stroke="transparent" points="469,-471 469,-489 509,-489 509,-471 469,-471"/>
<polygon fill="none" stroke="black" points="469,-471 469,-489 509,-489 509,-471 469,-471"/>
<text text-anchor="start" x="498" y="-477.2" font-family="Helvetica,sans-Serif" font-size="11.00"> &#160;</text>
</a>
</g>
</g>
<!-- iaa_edition_catalog_author&#45;&gt;user -->
<g id="edge5" class="edge">
<title>iaa_edition_catalog_author:w&#45;&gt;user:e</title>
<path fill="none" stroke="black" d="M278.39,-497.61C248.97,-495.84 233.9,-487.42 212,-461 165.25,-404.61 245.75,-301 172.5,-301"/>
<polygon fill="black" stroke="black" points="285,-497.79 292.9,-501.6 289,-497.89 293,-498 293,-498 293,-498 289,-497.89 293.1,-494.4 285,-497.79 285,-497.79"/>
<ellipse fill="none" stroke="black" cx="281.8" cy="-497.7" rx="3.2" ry="3.2"/>
</g>
<!-- iaa_edition_catalog_to_text_fragment_confirmation -->
<g id="node6" class="node">
<title>iaa_edition_catalog_to_text_fragment_confirmation</title>
<g id="a_node6"><a xlink:href="../../tables/iaa_edition_catalog_to_text_fragment_confirmation.html" xlink:title="iaa_edition_catalog_to_text_fragment_confirmation" target="_top">
<polygon fill="#ffffff" stroke="transparent" points="220,-392 220,-450 582,-450 582,-392 220,-392"/>
<polygon fill="#f5f5f5" stroke="transparent" points="220,-428 220,-450 582,-450 582,-428 220,-428"/>
<polygon fill="none" stroke="black" points="220,-428 220,-450 582,-450 582,-428 220,-428"/>
<text text-anchor="start" x="225" y="-437.2" font-family="Helvetica,sans-Serif" font-weight="bold" font-size="11.00">iaa_edition_catalog_to_text_fragment_confirmation</text>
<text text-anchor="start" x="540" y="-436.2" font-family="Helvetica,sans-Serif" font-size="11.00">[table]</text>
<polygon fill="none" stroke="black" points="220,-410 220,-428 582,-428 582,-410 220,-410"/>
<text text-anchor="start" x="223" y="-416.2" font-family="Helvetica,sans-Serif" font-size="11.00">...</text>
<polygon fill="#ffffff" stroke="transparent" points="220,-392 220,-410 370,-410 370,-392 220,-392"/>
<polygon fill="none" stroke="black" points="220,-392 220,-410 370,-410 370,-392 220,-392"/>
<text text-anchor="start" x="223" y="-398.2" font-family="Helvetica,sans-Serif" font-size="11.00">&lt; 2</text>
<polygon fill="#ffffff" stroke="transparent" points="370,-392 370,-410 506,-410 506,-392 370,-392"/>
<polygon fill="none" stroke="black" points="370,-392 370,-410 506,-410 506,-392 370,-392"/>
<text text-anchor="start" x="435" y="-398.2" font-family="Helvetica,sans-Serif" font-size="11.00">15,403 rows</text>
<polygon fill="#ffffff" stroke="transparent" points="506,-392 506,-410 582,-410 582,-392 506,-392"/>
<polygon fill="none" stroke="black" points="506,-392 506,-410 582,-410 582,-392 506,-392"/>
<text text-anchor="start" x="571" y="-398.2" font-family="Helvetica,sans-Serif" font-size="11.00"> &#160;</text>
</a>
</g>
</g>
<!-- iaa_edition_catalog_to_text_fragment_confirmation&#45;&gt;user -->
<g id="edge6" class="edge">
<title>iaa_edition_catalog_to_text_fragment_confirmation:w&#45;&gt;user:e</title>
<path fill="none" stroke="black" d="M204.97,-415.34C175.24,-395.42 222.92,-301 172.5,-301"/>
<polygon fill="black" stroke="black" points="211.26,-416.98 218.09,-422.48 215.13,-417.99 219,-419 219,-419 219,-419 215.13,-417.99 219.91,-415.52 211.26,-416.98 211.26,-416.98"/>
<ellipse fill="none" stroke="black" cx="208.16" cy="-416.17" rx="3.2" ry="3.2"/>
</g>
<!-- image_catalog_author -->
<g id="node7" class="node">
<title>image_catalog_author</title>
<g id="a_node7"><a xlink:href="../../tables/image_catalog_author.html" xlink:title="image_catalog_author" target="_top">
<polygon fill="#ffffff" stroke="transparent" points="308,-313 308,-371 494,-371 494,-313 308,-313"/>
<polygon fill="#f5f5f5" stroke="transparent" points="308,-349 308,-371 494,-371 494,-349 308,-349"/>
<polygon fill="none" stroke="black" points="308,-349 308,-371 494,-371 494,-349 308,-349"/>
<text text-anchor="start" x="313" y="-358.2" font-family="Helvetica,sans-Serif" font-weight="bold" font-size="11.00">image_catalog_author</text>
<text text-anchor="start" x="452" y="-357.2" font-family="Helvetica,sans-Serif" font-size="11.00">[table]</text>
<polygon fill="none" stroke="black" points="308,-331 308,-349 494,-349 494,-331 308,-331"/>
<text text-anchor="start" x="311" y="-337.2" font-family="Helvetica,sans-Serif" font-size="11.00">...</text>
<polygon fill="#ffffff" stroke="transparent" points="308,-313 308,-331 370,-331 370,-313 308,-313"/>
<polygon fill="none" stroke="black" points="308,-313 308,-331 370,-331 370,-313 308,-313"/>
<text text-anchor="start" x="311" y="-319.2" font-family="Helvetica,sans-Serif" font-size="11.00">&lt; 2</text>
<polygon fill="#ffffff" stroke="transparent" points="370,-313 370,-331 462,-331 462,-313 370,-313"/>
<polygon fill="none" stroke="black" points="370,-313 370,-331 462,-331 462,-313 370,-313"/>
<text text-anchor="start" x="391" y="-319.2" font-family="Helvetica,sans-Serif" font-size="11.00">41,829 rows</text>
<polygon fill="#ffffff" stroke="transparent" points="462,-313 462,-331 494,-331 494,-313 462,-313"/>
<polygon fill="none" stroke="black" points="462,-313 462,-331 494,-331 494,-313 462,-313"/>
<text text-anchor="start" x="483" y="-319.2" font-family="Helvetica,sans-Serif" font-size="11.00"> &#160;</text>
</a>
</g>
</g>
<!-- image_catalog_author&#45;&gt;user -->
<g id="edge7" class="edge">
<title>image_catalog_author:w&#45;&gt;user:e</title>
<path fill="none" stroke="black" d="M292.36,-339.22C242.71,-333.72 229.51,-301 172.5,-301"/>
<polygon fill="black" stroke="black" points="299.01,-339.57 306.81,-343.59 303.01,-339.79 307,-340 307,-340 307,-340 303.01,-339.79 307.19,-336.41 299.01,-339.57 299.01,-339.57"/>
<ellipse fill="none" stroke="black" cx="295.82" cy="-339.4" rx="3.2" ry="3.2"/>
</g>
<!-- image_to_image_map -->
<g id="node8" class="node">
<title>image_to_image_map</title>
<g id="a_node8"><a xlink:href="../../tables/image_to_image_map.html" xlink:title="image_to_image_map" target="_top">
<polygon fill="#ffffff" stroke="transparent" points="309.5,-656 309.5,-846 492.5,-846 492.5,-656 309.5,-656"/>
<polygon fill="#f5f5f5" stroke="transparent" points="310,-824 310,-846 493,-846 493,-824 310,-824"/>
<polygon fill="none" stroke="black" points="310,-824 310,-846 493,-846 493,-824 310,-824"/>
<text text-anchor="start" x="315" y="-833.2" font-family="Helvetica,sans-Serif" font-weight="bold" font-size="11.00">image_to_image_map</text>
<text text-anchor="start" x="451" y="-832.2" font-family="Helvetica,sans-Serif" font-size="11.00">[table]</text>
<polygon fill="none" stroke="black" points="310,-802 310,-824 493,-824 493,-802 310,-802"/>
<image xlink:href="../../images/primaryKeys.png" width="11px" height="12px" preserveAspectRatio="xMinYMin meet" x="315" y="-819"/>
<text text-anchor="start" x="330" y="-810.2" font-family="Helvetica,sans-Serif" font-size="11.00">image_to_image_map_id</text>
<polygon fill="#ffffff" stroke="transparent" points="310,-780 310,-802 493,-802 493,-780 310,-780"/>
<polygon fill="none" stroke="black" points="310,-780 310,-802 493,-802 493,-780 310,-780"/>
<image xlink:href="../../images/foreignKeys.png" width="11px" height="12px" preserveAspectRatio="xMinYMin meet" x="315" y="-797"/>
<text text-anchor="start" x="330" y="-788.2" font-family="Helvetica,sans-Serif" font-size="11.00">image1_id</text>
<polygon fill="#ffffff" stroke="transparent" points="310,-758 310,-780 493,-780 493,-758 310,-758"/>
<polygon fill="none" stroke="black" points="310,-758 310,-780 493,-780 493,-758 310,-758"/>
<image xlink:href="../../images/foreignKeys.png" width="11px" height="12px" preserveAspectRatio="xMinYMin meet" x="315" y="-775"/>
<text text-anchor="start" x="330" y="-766.2" font-family="Helvetica,sans-Serif" font-size="11.00">image2_id</text>
<polygon fill="#ffffff" stroke="transparent" points="310,-736 310,-758 493,-758 493,-736 310,-736"/>
<polygon fill="none" stroke="black" points="310,-736 310,-758 493,-758 493,-736 310,-736"/>
<text text-anchor="start" x="330" y="-744.2" font-family="Helvetica,sans-Serif" font-size="11.00">transform_matrix</text>
<polygon fill="#ffffff" stroke="transparent" points="310,-714 310,-736 493,-736 493,-714 310,-714"/>
<polygon fill="none" stroke="black" points="310,-714 310,-736 493,-736 493,-714 310,-714"/>
<text text-anchor="start" x="330" y="-722.2" font-family="Helvetica,sans-Serif" font-size="11.00">region1_hash</text>
<polygon fill="#ffffff" stroke="transparent" points="310,-692 310,-714 493,-714 493,-692 310,-692"/>
<polygon fill="none" stroke="black" points="310,-692 310,-714 493,-714 493,-692 310,-692"/>
<text text-anchor="start" x="330" y="-700.2" font-family="Helvetica,sans-Serif" font-size="11.00">region2_hash</text>
<polygon fill="none" stroke="black" points="310,-674 310,-692 493,-692 493,-674 310,-674"/>
<text text-anchor="start" x="313" y="-680.2" font-family="Helvetica,sans-Serif" font-size="11.00">...</text>
<polygon fill="#ffffff" stroke="transparent" points="310,-656 310,-674 364,-674 364,-656 310,-656"/>
<polygon fill="none" stroke="black" points="310,-656 310,-674 364,-674 364,-656 310,-656"/>
<text text-anchor="start" x="313" y="-662.2" font-family="Helvetica,sans-Serif" font-size="11.00">&lt; 2</text>
<polygon fill="#ffffff" stroke="transparent" points="364,-656 364,-674 452,-674 452,-656 364,-656"/>
<polygon fill="none" stroke="black" points="364,-656 364,-674 452,-674 452,-656 364,-656"/>
<text text-anchor="start" x="381" y="-662.2" font-family="Helvetica,sans-Serif" font-size="11.00">69,272 rows</text>
<polygon fill="#ffffff" stroke="transparent" points="452,-656 452,-674 493,-674 493,-656 452,-656"/>
<polygon fill="none" stroke="black" points="452,-656 452,-674 493,-674 493,-656 452,-656"/>
<text text-anchor="start" x="470" y="-662.2" font-family="Helvetica,sans-Serif" font-size="11.00">2 &gt;</text>
</a>
</g>
</g>
<!-- SQE_image -->
<g id="node9" class="node">
<title>SQE_image</title>
<g id="a_node9"><a xlink:href="../../tables/SQE_image.html" xlink:title="SQE_image" target="_top">
<polygon fill="#ffffff" stroke="transparent" points="23,-742 23,-800 156,-800 156,-742 23,-742"/>
<polygon fill="#f5f5f5" stroke="transparent" points="23.5,-778 23.5,-800 156.5,-800 156.5,-778 23.5,-778"/>
<polygon fill="none" stroke="black" points="23.5,-778 23.5,-800 156.5,-800 156.5,-778 23.5,-778"/>
<text text-anchor="start" x="28.5" y="-787.2" font-family="Helvetica,sans-Serif" font-weight="bold" font-size="11.00">SQE_image</text>
<text text-anchor="start" x="114.5" y="-786.2" font-family="Helvetica,sans-Serif" font-size="11.00">[table]</text>
<polygon fill="none" stroke="black" points="23.5,-760 23.5,-778 156.5,-778 156.5,-760 23.5,-760"/>
<text text-anchor="start" x="26.5" y="-766.2" font-family="Helvetica,sans-Serif" font-size="11.00">...</text>
<polygon fill="#ffffff" stroke="transparent" points="23.5,-742 23.5,-760 49.5,-760 49.5,-742 23.5,-742"/>
<polygon fill="none" stroke="black" points="23.5,-742 23.5,-760 49.5,-760 49.5,-742 23.5,-742"/>
<text text-anchor="start" x="26.5" y="-748.2" font-family="Helvetica,sans-Serif" font-size="11.00">&lt; 2</text>
<polygon fill="#ffffff" stroke="transparent" points="49.5,-742 49.5,-760 130.5,-760 130.5,-742 49.5,-742"/>
<polygon fill="none" stroke="black" points="49.5,-742 49.5,-760 130.5,-760 130.5,-742 49.5,-742"/>
<text text-anchor="start" x="52.5" y="-748.2" font-family="Helvetica,sans-Serif" font-size="11.00">101,504 rows</text>
<polygon fill="#ffffff" stroke="transparent" points="130.5,-742 130.5,-760 156.5,-760 156.5,-742 130.5,-742"/>
<polygon fill="none" stroke="black" points="130.5,-742 130.5,-760 156.5,-760 156.5,-742 130.5,-742"/>
<text text-anchor="start" x="133.5" y="-748.2" font-family="Helvetica,sans-Serif" font-size="11.00">4 &gt;</text>
</a>
</g>
</g>
<!-- image_to_image_map&#45;&gt;SQE_image -->
<g id="edge8" class="edge">
<title>image_to_image_map:w&#45;&gt;SQE_image:e</title>
<path fill="none" stroke="black" d="M294.32,-790.64C238.31,-787.78 220.36,-769 157.5,-769"/>
<polygon fill="black" stroke="black" points="301,-790.8 308.91,-794.6 305,-790.9 309,-791 309,-791 309,-791 305,-790.9 309.09,-787.4 301,-790.8 301,-790.8"/>
<ellipse fill="none" stroke="black" cx="297.8" cy="-790.72" rx="3.2" ry="3.2"/>
</g>
<!-- image_to_image_map&#45;&gt;SQE_image -->
<g id="edge9" class="edge">
<title>image_to_image_map:w&#45;&gt;SQE_image:e</title>
<path fill="none" stroke="black" d="M294.45,-769C238.81,-769 219.7,-769 157.5,-769"/>
<polygon fill="black" stroke="black" points="301,-769 309,-772.6 305,-769 309,-769 309,-769 309,-769 305,-769 309,-765.4 301,-769 301,-769"/>
<ellipse fill="none" stroke="black" cx="297.8" cy="-769" rx="3.2" ry="3.2"/>
</g>
<!-- image_to_image_map_author -->
<g id="node10" class="node">
<title>image_to_image_map_author</title>
<g id="a_node10"><a xlink:href="../../tables/image_to_image_map_author.html" xlink:title="image_to_image_map_author" target="_top">
<polygon fill="#ffffff" stroke="transparent" points="631,-599 631,-687 948,-687 948,-599 631,-599"/>
<polygon fill="#f5f5f5" stroke="transparent" points="633.5,-663 633.5,-685 946.5,-685 946.5,-663 633.5,-663"/>
<polygon fill="none" stroke="black" points="633.5,-663 633.5,-685 946.5,-685 946.5,-663 633.5,-663"/>
<text text-anchor="start" x="638.5" y="-672.2" font-family="Helvetica,sans-Serif" font-weight="bold" font-size="11.00">image_to_image_map_author</text>
<text text-anchor="start" x="904.5" y="-671.2" font-family="Helvetica,sans-Serif" font-size="11.00">[table]</text>
<polygon fill="none" stroke="black" points="633.5,-641 633.5,-663 849.5,-663 849.5,-641 633.5,-641"/>
<image xlink:href="../../images/primaryKeys.png" width="11px" height="12px" preserveAspectRatio="xMinYMin meet" x="638.5" y="-658"/>
<text text-anchor="start" x="653.5" y="-649.2" font-family="Helvetica,sans-Serif" font-size="11.00">image_to_image_map_id</text>
<polygon fill="none" stroke="black" points="849.5,-641 849.5,-663 946.5,-663 946.5,-641 849.5,-641"/>
<text text-anchor="start" x="852.5" y="-649.2" font-family="Helvetica,sans-Serif" font-size="11.00">int unsigned[10]</text>
<polygon fill="none" stroke="black" points="633.5,-619 633.5,-641 849.5,-641 849.5,-619 633.5,-619"/>
<image xlink:href="../../images/primaryKeys.png" width="11px" height="12px" preserveAspectRatio="xMinYMin meet" x="638.5" y="-636"/>
<text text-anchor="start" x="653.5" y="-627.2" font-family="Helvetica,sans-Serif" font-size="11.00">user_id</text>
<polygon fill="none" stroke="black" points="849.5,-619 849.5,-641 946.5,-641 946.5,-619 849.5,-619"/>
<text text-anchor="start" x="852.5" y="-627.2" font-family="Helvetica,sans-Serif" font-size="11.00">int unsigned[10]</text>
<polygon fill="#ffffff" stroke="transparent" points="633.5,-601 633.5,-619 717.5,-619 717.5,-601 633.5,-601"/>
<polygon fill="none" stroke="black" points="633.5,-601 633.5,-619 717.5,-619 717.5,-601 633.5,-601"/>
<text text-anchor="start" x="636.5" y="-607.2" font-family="Helvetica,sans-Serif" font-size="11.00">&lt; 2</text>
<polygon fill="#ffffff" stroke="transparent" points="717.5,-601 717.5,-619 849.5,-619 849.5,-601 717.5,-601"/>
<polygon fill="none" stroke="black" points="717.5,-601 717.5,-619 849.5,-619 849.5,-601 717.5,-601"/>
<text text-anchor="start" x="778.5" y="-607.2" font-family="Helvetica,sans-Serif" font-size="11.00">72,198 rows</text>
<polygon fill="#ffffff" stroke="transparent" points="849.5,-601 849.5,-619 946.5,-619 946.5,-601 849.5,-601"/>
<polygon fill="none" stroke="black" points="849.5,-601 849.5,-619 946.5,-619 946.5,-601 849.5,-601"/>
<text text-anchor="start" x="923.5" y="-607.2" font-family="Helvetica,sans-Serif" font-size="11.00">0 &gt;</text>
<polygon fill="none" stroke="black" stroke-width="2" points="632,-600 632,-686 947,-686 947,-600 632,-600"/>
</a>
</g>
</g>
<!-- image_to_image_map_author&#45;&gt;user -->
<g id="edge11" class="edge">
<title>image_to_image_map_author:w&#45;&gt;user:e</title>
<path fill="none" stroke="black" d="M618.54,-625.63C604.67,-613.74 613.76,-580.74 590,-567 517.1,-524.84 274.24,-596.73 212,-540 172.22,-503.74 226.33,-301 172.5,-301"/>
<polygon fill="black" stroke="black" points="624.86,-627.61 631.43,-633.44 628.68,-628.81 632.5,-630 632.5,-630 632.5,-630 628.68,-628.81 633.57,-626.56 624.86,-627.61 624.86,-627.61"/>
<ellipse fill="none" stroke="black" cx="621.81" cy="-626.66" rx="3.2" ry="3.2"/>
</g>
<!-- image_to_image_map_author&#45;&gt;image_to_image_map -->
<g id="edge10" class="edge">
<title>image_to_image_map_author:w&#45;&gt;image_to_image_map:e</title>
<path fill="none" stroke="black" d="M617.8,-653.49C543.34,-669.72 583.04,-813 494,-813"/>
<polygon fill="black" stroke="black" points="624.54,-652.81 632.86,-655.58 628.52,-652.4 632.5,-652 632.5,-652 632.5,-652 628.52,-652.4 632.14,-648.42 624.54,-652.81 624.54,-652.81"/>
<ellipse fill="none" stroke="black" cx="621.36" cy="-653.13" rx="3.2" ry="3.2"/>
</g>
<!-- point_to_point_map -->
<g id="node11" class="node">
<title>point_to_point_map</title>
<g id="a_node11"><a xlink:href="../../tables/point_to_point_map.html" xlink:title="point_to_point_map" target="_top">
<polygon fill="#ffffff" stroke="transparent" points="705,-786 705,-844 874,-844 874,-786 705,-786"/>
<polygon fill="#f5f5f5" stroke="transparent" points="705.5,-822 705.5,-844 874.5,-844 874.5,-822 705.5,-822"/>
<polygon fill="none" stroke="black" points="705.5,-822 705.5,-844 874.5,-844 874.5,-822 705.5,-822"/>
<text text-anchor="start" x="710.5" y="-831.2" font-family="Helvetica,sans-Serif" font-weight="bold" font-size="11.00">point_to_point_map</text>
<text text-anchor="start" x="832.5" y="-830.2" font-family="Helvetica,sans-Serif" font-size="11.00">[table]</text>
<polygon fill="none" stroke="black" points="705.5,-804 705.5,-822 874.5,-822 874.5,-804 705.5,-804"/>
<text text-anchor="start" x="708.5" y="-810.2" font-family="Helvetica,sans-Serif" font-size="11.00">...</text>
<polygon fill="#ffffff" stroke="transparent" points="705.5,-786 705.5,-804 774.5,-804 774.5,-786 705.5,-786"/>
<polygon fill="none" stroke="black" points="705.5,-786 705.5,-804 774.5,-804 774.5,-786 705.5,-786"/>
<text text-anchor="start" x="708.5" y="-792.2" font-family="Helvetica,sans-Serif" font-size="11.00">&lt; 1</text>
<polygon fill="#ffffff" stroke="transparent" points="774.5,-786 774.5,-804 838.5,-804 838.5,-786 774.5,-786"/>
<polygon fill="none" stroke="black" points="774.5,-786 774.5,-804 838.5,-804 838.5,-786 774.5,-786"/>
<text text-anchor="start" x="798.5" y="-792.2" font-family="Helvetica,sans-Serif" font-size="11.00">0 rows</text>
<polygon fill="#ffffff" stroke="transparent" points="838.5,-786 838.5,-804 874.5,-804 874.5,-786 838.5,-786"/>
<polygon fill="none" stroke="black" points="838.5,-786 838.5,-804 874.5,-804 874.5,-786 838.5,-786"/>
<text text-anchor="start" x="863.5" y="-792.2" font-family="Helvetica,sans-Serif" font-size="11.00"> &#160;</text>
</a>
</g>
</g>
<!-- point_to_point_map&#45;&gt;image_to_image_map -->
<g id="edge12" class="edge">
<title>point_to_point_map:w&#45;&gt;image_to_image_map:e</title>
<path fill="none" stroke="black" d="M690.01,-813C608.23,-813 582.53,-813 494,-813"/>
<polygon fill="black" stroke="black" points="696.5,-813 704.5,-816.6 700.5,-813 704.5,-813 704.5,-813 704.5,-813 700.5,-813 704.5,-809.4 696.5,-813 696.5,-813"/>
<ellipse fill="none" stroke="black" cx="693.3" cy="-813" rx="3.2" ry="3.2"/>
</g>
<!-- SQE_image_author -->
<g id="node12" class="node">
<title>SQE_image_author</title>
<g id="a_node12"><a xlink:href="../../tables/SQE_image_author.html" xlink:title="SQE_image_author" target="_top">
<polygon fill="#ffffff" stroke="transparent" points="318.5,-577 318.5,-635 483.5,-635 483.5,-577 318.5,-577"/>
<polygon fill="#f5f5f5" stroke="transparent" points="319,-613 319,-635 484,-635 484,-613 319,-613"/>
<polygon fill="none" stroke="black" points="319,-613 319,-635 484,-635 484,-613 319,-613"/>
<text text-anchor="start" x="324" y="-622.2" font-family="Helvetica,sans-Serif" font-weight="bold" font-size="11.00">SQE_image_author</text>
<text text-anchor="start" x="442" y="-621.2" font-family="Helvetica,sans-Serif" font-size="11.00">[table]</text>
<polygon fill="none" stroke="black" points="319,-595 319,-613 484,-613 484,-595 319,-595"/>
<text text-anchor="start" x="322" y="-601.2" font-family="Helvetica,sans-Serif" font-size="11.00">...</text>
<polygon fill="#ffffff" stroke="transparent" points="319,-577 319,-595 370,-595 370,-577 319,-577"/>
<polygon fill="none" stroke="black" points="319,-577 319,-595 370,-595 370,-577 319,-577"/>
<text text-anchor="start" x="322" y="-583.2" font-family="Helvetica,sans-Serif" font-size="11.00">&lt; 2</text>
<polygon fill="#ffffff" stroke="transparent" points="370,-577 370,-595 457,-595 457,-577 370,-577"/>
<polygon fill="none" stroke="black" points="370,-577 370,-595 457,-595 457,-577 370,-577"/>
<text text-anchor="start" x="386" y="-583.2" font-family="Helvetica,sans-Serif" font-size="11.00">97,205 rows</text>
<polygon fill="#ffffff" stroke="transparent" points="457,-577 457,-595 484,-595 484,-577 457,-577"/>
<polygon fill="none" stroke="black" points="457,-577 457,-595 484,-595 484,-577 457,-577"/>
<text text-anchor="start" x="473" y="-583.2" font-family="Helvetica,sans-Serif" font-size="11.00"> &#160;</text>
</a>
</g>
</g>
<!-- SQE_image_author&#45;&gt;user -->
<g id="edge14" class="edge">
<title>SQE_image_author:w&#45;&gt;user:e</title>
<path fill="none" stroke="black" d="M303.4,-603.91C262.55,-603.29 240.38,-598.41 212,-563 175.17,-517.06 231.38,-301 172.5,-301"/>
<polygon fill="black" stroke="black" points="310,-603.95 317.98,-607.6 314,-603.98 318,-604 318,-604 318,-604 314,-603.98 318.02,-600.4 310,-603.95 310,-603.95"/>
<ellipse fill="none" stroke="black" cx="306.8" cy="-603.93" rx="3.2" ry="3.2"/>
</g>
<!-- SQE_image_author&#45;&gt;SQE_image -->
<g id="edge13" class="edge">
<title>SQE_image_author:w&#45;&gt;SQE_image:e</title>
<path fill="none" stroke="black" d="M307.49,-604.12C264.52,-605.14 245.9,-613.43 212,-646 168.89,-687.43 217.29,-769 157.5,-769"/>
<polygon fill="black" stroke="black" points="317.16,-600.01 317.24,-608.01 315.64,-608.03 315.56,-600.03 317.16,-600.01"/>
<polyline fill="none" stroke="black" points="318,-604 314,-604.04 "/>
<ellipse fill="none" stroke="black" cx="310.8" cy="-604.08" rx="3.2" ry="3.2"/>
</g>
<!-- user_contributions -->
<g id="node13" class="node">
<title>user_contributions</title>
<g id="a_node13"><a xlink:href="../../tables/user_contributions.html" xlink:title="user_contributions" target="_top">
<polygon fill="#ffffff" stroke="transparent" points="318,-234 318,-292 484,-292 484,-234 318,-234"/>
<polygon fill="#f5f5f5" stroke="transparent" points="318,-270 318,-292 484,-292 484,-270 318,-270"/>
<polygon fill="none" stroke="black" points="318,-270 318,-292 484,-292 484,-270 318,-270"/>
<text text-anchor="start" x="323" y="-279.2" font-family="Helvetica,sans-Serif" font-weight="bold" font-size="11.00">user_contributions</text>
<text text-anchor="start" x="442" y="-278.2" font-family="Helvetica,sans-Serif" font-size="11.00">[table]</text>
<polygon fill="none" stroke="black" points="318,-252 318,-270 484,-270 484,-252 318,-252"/>
<text text-anchor="start" x="321" y="-258.2" font-family="Helvetica,sans-Serif" font-size="11.00">...</text>
<polygon fill="#ffffff" stroke="transparent" points="318,-234 318,-252 385,-252 385,-234 318,-234"/>
<polygon fill="none" stroke="black" points="318,-234 318,-252 385,-252 385,-234 318,-234"/>
<text text-anchor="start" x="321" y="-240.2" font-family="Helvetica,sans-Serif" font-size="11.00">&lt; 1</text>
<polygon fill="#ffffff" stroke="transparent" points="385,-234 385,-252 449,-252 449,-234 385,-234"/>
<polygon fill="none" stroke="black" points="385,-234 385,-252 449,-252 449,-234 385,-234"/>
<text text-anchor="start" x="409" y="-240.2" font-family="Helvetica,sans-Serif" font-size="11.00">0 rows</text>
<polygon fill="#ffffff" stroke="transparent" points="449,-234 449,-252 484,-252 484,-234 449,-234"/>
<polygon fill="none" stroke="black" points="449,-234 449,-252 484,-252 484,-234 449,-234"/>
<text text-anchor="start" x="473" y="-240.2" font-family="Helvetica,sans-Serif" font-size="11.00"> &#160;</text>
</a>
</g>
</g>
<!-- user_contributions&#45;&gt;user -->
<g id="edge15" class="edge">
<title>user_contributions:w&#45;&gt;user:e</title>
<path fill="none" stroke="black" d="M302.34,-261.69C248.27,-267.01 233.93,-301 172.5,-301"/>
<polygon fill="black" stroke="black" points="309.01,-261.38 317.17,-264.6 313,-261.19 317,-261 317,-261 317,-261 313,-261.19 316.83,-257.4 309.01,-261.38 309.01,-261.38"/>
<ellipse fill="none" stroke="black" cx="305.81" cy="-261.53" rx="3.2" ry="3.2"/>
</g>
</g>
</svg>
