<?xml version="1.0" encoding="UTF-8" standalone="no"?>
<!DOCTYPE svg PUBLIC "-//W3C//DTD SVG 1.1//EN"
 "http://www.w3.org/Graphics/SVG/1.1/DTD/svg11.dtd">
<!-- Generated by graphviz version 2.43.0 (0)
 -->
<!-- Title: oneDegreeRelationshipsDiagram Pages: 1 -->
<svg width="424pt" height="223pt"
 viewBox="0.00 0.00 424.00 223.00" xmlns="http://www.w3.org/2000/svg" xmlns:xlink="http://www.w3.org/1999/xlink">
<g id="graph0" class="graph" transform="scale(1 1) rotate(0) translate(4 219)">
<title>oneDegreeRelationshipsDiagram</title>
<polygon fill="#ffffff" stroke="transparent" points="-4,4 -4,-219 420,-219 420,4 -4,4"/>
<text text-anchor="middle" x="79.5" y="-7.2" font-family="Helvetica,sans-Serif" font-size="11.00">Generated by SchemaSpy</text>
<!-- SQE_image -->
<g id="node1" class="node">
<title>SQE_image</title>
<g id="a_node1"><a xlink:href="../../tables/SQE_image.html" xlink:title="SQE_image" target="_top">
<polygon fill="#ffffff" stroke="transparent" points="270,-65 270,-211 408,-211 408,-65 270,-65"/>
<polygon fill="#f5f5f5" stroke="transparent" points="270,-189 270,-211 408,-211 408,-189 270,-189"/>
<polygon fill="none" stroke="black" points="270,-189 270,-211 408,-211 408,-189 270,-189"/>
<text text-anchor="start" x="275" y="-198.2" font-family="Helvetica,sans-Serif" font-weight="bold" font-size="11.00">SQE_image</text>
<text text-anchor="start" x="366" y="-197.2" font-family="Helvetica,sans-Serif" font-size="11.00">[table]</text>
<polygon fill="none" stroke="black" points="270,-167 270,-189 408,-189 408,-167 270,-167"/>
<image xlink:href="../../images/primaryKeys.png" width="11px" height="12px" preserveAspectRatio="xMinYMin meet" x="275" y="-184"/>
<text text-anchor="start" x="290" y="-175.2" font-family="Helvetica,sans-Serif" font-size="11.00">sqe_image_id</text>
<polygon fill="#ffffff" stroke="transparent" points="270,-145 270,-167 408,-167 408,-145 270,-145"/>
<polygon fill="none" stroke="black" points="270,-145 270,-167 408,-167 408,-145 270,-145"/>
<image xlink:href="../../images/foreignKeys.png" width="11px" height="12px" preserveAspectRatio="xMinYMin meet" x="275" y="-162"/>
<text text-anchor="start" x="290" y="-153.2" font-family="Helvetica,sans-Serif" font-size="11.00">image_urls_id</text>
<polygon fill="#ffffff" stroke="transparent" points="270,-123 270,-145 408,-145 408,-123 270,-123"/>
<polygon fill="none" stroke="black" points="270,-123 270,-145 408,-145 408,-123 270,-123"/>
<text text-anchor="start" x="290" y="-131.2" font-family="Helvetica,sans-Serif" font-size="11.00">filename</text>
<polygon fill="#ffffff" stroke="transparent" points="270,-101 270,-123 408,-123 408,-101 270,-101"/>
<polygon fill="none" stroke="black" points="270,-101 270,-123 408,-123 408,-101 270,-101"/>
<image xlink:href="../../images/foreignKeys.png" width="11px" height="12px" preserveAspectRatio="xMinYMin meet" x="275" y="-118"/>
<text text-anchor="start" x="290" y="-109.2" font-family="Helvetica,sans-Serif" font-size="11.00">image_catalog_id</text>
<polygon fill="none" stroke="black" points="270,-83 270,-101 408,-101 408,-83 270,-83"/>
<text text-anchor="start" x="273" y="-89.2" font-family="Helvetica,sans-Serif" font-size="11.00">...</text>
<polygon fill="#ffffff" stroke="transparent" points="270,-65 270,-83 298,-83 298,-65 270,-65"/>
<polygon fill="none" stroke="black" points="270,-65 270,-83 298,-83 298,-65 270,-65"/>
<text text-anchor="start" x="273" y="-71.2" font-family="Helvetica,sans-Serif" font-size="11.00">&lt; 2</text>
<polygon fill="#ffffff" stroke="transparent" points="298,-65 298,-83 380,-83 380,-65 298,-65"/>
<polygon fill="none" stroke="black" points="298,-65 298,-83 380,-83 380,-65 298,-65"/>
<text text-anchor="start" x="302" y="-71.2" font-family="Helvetica,sans-Serif" font-size="11.00">101,504 rows</text>
<polygon fill="#ffffff" stroke="transparent" points="380,-65 380,-83 408,-83 408,-65 380,-65"/>
<polygon fill="none" stroke="black" points="380,-65 380,-83 408,-83 408,-65 380,-65"/>
<text text-anchor="start" x="385" y="-71.2" font-family="Helvetica,sans-Serif" font-size="11.00">4 &gt;</text>
</a>
</g>
</g>
<!-- image_urls -->
<g id="node2" class="node">
<title>image_urls</title>
<g id="a_node2"><a xlink:href="../../tables/image_urls.html" xlink:title="image_urls" target="_top">
<polygon fill="#ffffff" stroke="transparent" points="8,-37 8,-191 221,-191 221,-37 8,-37"/>
<polygon fill="#f5f5f5" stroke="transparent" points="10.5,-167 10.5,-189 219.5,-189 219.5,-167 10.5,-167"/>
<polygon fill="none" stroke="black" points="10.5,-167 10.5,-189 219.5,-189 219.5,-167 10.5,-167"/>
<text text-anchor="start" x="15.5" y="-176.2" font-family="Helvetica,sans-Serif" font-weight="bold" font-size="11.00">image_urls</text>
<text text-anchor="start" x="177.5" y="-175.2" font-family="Helvetica,sans-Serif" font-size="11.00">[table]</text>
<polygon fill="none" stroke="black" points="10.5,-145 10.5,-167 122.5,-167 122.5,-145 10.5,-145"/>
<image xlink:href="../../images/primaryKeys.png" width="11px" height="12px" preserveAspectRatio="xMinYMin meet" x="15.5" y="-162"/>
<text text-anchor="start" x="30.5" y="-153.2" font-family="Helvetica,sans-Serif" font-size="11.00">image_urls_id</text>
<polygon fill="none" stroke="black" points="122.5,-145 122.5,-167 219.5,-167 219.5,-145 122.5,-145"/>
<text text-anchor="start" x="125.5" y="-153.2" font-family="Helvetica,sans-Serif" font-size="11.00">int unsigned[10]</text>
<polygon fill="none" stroke="black" points="10.5,-123 10.5,-145 122.5,-145 122.5,-123 10.5,-123"/>
<image xlink:href="../../images/primaryKeys.png" width="11px" height="12px" preserveAspectRatio="xMinYMin meet" x="15.5" y="-140"/>
<text text-anchor="start" x="30.5" y="-131.2" font-family="Helvetica,sans-Serif" font-size="11.00">url</text>
<polygon fill="none" stroke="black" points="122.5,-123 122.5,-145 219.5,-145 219.5,-123 122.5,-123"/>
<text text-anchor="start" x="125.5" y="-131.2" font-family="Helvetica,sans-Serif" font-size="11.00">varchar[255]</text>
<polygon fill="none" stroke="black" points="10.5,-101 10.5,-123 122.5,-123 122.5,-101 10.5,-101"/>
<text text-anchor="start" x="30.5" y="-109.2" font-family="Helvetica,sans-Serif" font-size="11.00">suffix</text>
<polygon fill="none" stroke="black" points="122.5,-101 122.5,-123 219.5,-123 219.5,-101 122.5,-101"/>
<text text-anchor="start" x="125.5" y="-109.2" font-family="Helvetica,sans-Serif" font-size="11.00">varchar[255]</text>
<polygon fill="none" stroke="black" points="10.5,-79 10.5,-101 122.5,-101 122.5,-79 10.5,-79"/>
<text text-anchor="start" x="30.5" y="-87.2" font-family="Helvetica,sans-Serif" font-size="11.00">proxy</text>
<polygon fill="none" stroke="black" points="122.5,-79 122.5,-101 219.5,-101 219.5,-79 122.5,-79"/>
<text text-anchor="start" x="125.5" y="-87.2" font-family="Helvetica,sans-Serif" font-size="11.00">varchar[255]</text>
<polygon fill="none" stroke="black" points="10.5,-57 10.5,-79 122.5,-79 122.5,-57 10.5,-57"/>
<text text-anchor="start" x="30.5" y="-65.2" font-family="Helvetica,sans-Serif" font-size="11.00">license</text>
<polygon fill="none" stroke="black" points="122.5,-57 122.5,-79 219.5,-79 219.5,-57 122.5,-57"/>
<text text-anchor="start" x="125.5" y="-65.2" font-family="Helvetica,sans-Serif" font-size="11.00">text[65535]</text>
<polygon fill="#ffffff" stroke="transparent" points="10.5,-39 10.5,-57 57.5,-57 57.5,-39 10.5,-39"/>
<polygon fill="none" stroke="black" points="10.5,-39 10.5,-57 57.5,-57 57.5,-39 10.5,-39"/>
<text text-anchor="start" x="13.5" y="-45.2" font-family="Helvetica,sans-Serif" font-size="11.00">&lt; 0</text>
<polygon fill="#ffffff" stroke="transparent" points="57.5,-39 57.5,-57 122.5,-57 122.5,-39 57.5,-39"/>
<polygon fill="none" stroke="black" points="57.5,-39 57.5,-57 122.5,-57 122.5,-39 57.5,-39"/>
<text text-anchor="start" x="82.5" y="-45.2" font-family="Helvetica,sans-Serif" font-size="11.00">3 rows</text>
<polygon fill="#ffffff" stroke="transparent" points="122.5,-39 122.5,-57 219.5,-57 219.5,-39 122.5,-39"/>
<polygon fill="none" stroke="black" points="122.5,-39 122.5,-57 219.5,-57 219.5,-39 122.5,-39"/>
<text text-anchor="start" x="196.5" y="-45.2" font-family="Helvetica,sans-Serif" font-size="11.00">1 &gt;</text>
<polygon fill="none" stroke="black" stroke-width="2" points="9,-38 9,-190 220,-190 220,-38 9,-38"/>
</a>
</g>
</g>
<!-- SQE_image&#45;&gt;image_urls -->
<g id="edge1" class="edge">
<title>SQE_image:w&#45;&gt;image_urls:e</title>
<path fill="none" stroke="black" d="M254.28,-156C243.29,-156 236.16,-156 220.5,-156"/>
<polygon fill="black" stroke="black" points="261,-156 269,-159.6 265,-156 269,-156 269,-156 269,-156 265,-156 269,-152.4 261,-156 261,-156"/>
<ellipse fill="none" stroke="black" cx="257.8" cy="-156" rx="3.2" ry="3.2"/>
</g>
</g>
</svg>
