<?xml version="1.0" encoding="UTF-8" standalone="no"?>
<!DOCTYPE svg PUBLIC "-//W3C//DTD SVG 1.1//EN"
 "http://www.w3.org/Graphics/SVG/1.1/DTD/svg11.dtd">
<!-- Generated by graphviz version 2.40.1 (20161225.0304)
 -->
<!-- Title: oneDegreeRelationshipsDiagramImplied Pages: 1 -->
<svg width="491pt" height="340pt"
 viewBox="0.00 0.00 491.00 340.00" xmlns="http://www.w3.org/2000/svg" xmlns:xlink="http://www.w3.org/1999/xlink">
<g id="graph0" class="graph" transform="scale(1 1) rotate(0) translate(4 336)">
<title>oneDegreeRelationshipsDiagramImplied</title>
<polygon fill="#ffffff" stroke="transparent" points="-4,4 -4,-336 487,-336 487,4 -4,4"/>
<text text-anchor="middle" x="71.5" y="-7.2" font-family="Helvetica,sans-Serif" font-size="11.00" fill="#000000">Generated by SchemaSpy</text>
<!-- image_catalog_author -->
<g id="node1" class="node">
<title>image_catalog_author</title>
<g id="a_node1"><a xlink:href="../../tables/image_catalog_author.html" xlink:title="image_catalog_author" target="_top">
<polygon fill="#ffffff" stroke="transparent" points="220,-158 220,-246 475,-246 475,-158 220,-158"/>
<polygon fill="#f5f5f5" stroke="transparent" points="222.5,-222 222.5,-244 473.5,-244 473.5,-222 222.5,-222"/>
<polygon fill="none" stroke="#000000" points="222.5,-222 222.5,-244 473.5,-244 473.5,-222 222.5,-222"/>
<text text-anchor="start" x="227.5" y="-231.2" font-family="Helvetica,sans-Serif" font-weight="bold" font-size="11.00" fill="#000000">image_catalog_author</text>
<text text-anchor="start" x="438.5" y="-230.2" font-family="Helvetica,sans-Serif" font-size="11.00" fill="#000000">[table]</text>
<polygon fill="none" stroke="#000000" points="222.5,-200 222.5,-222 391.5,-222 391.5,-200 222.5,-200"/>
<image xlink:href="../../images/primaryKeys.png" width="11px" height="12px" preserveAspectRatio="xMinYMin meet" x="227.5" y="-217"/>
<text text-anchor="start" x="242.5" y="-208.2" font-family="Helvetica,sans-Serif" font-size="11.00" fill="#000000">image_catalog_id</text>
<polygon fill="none" stroke="#000000" points="391.5,-200 391.5,-222 473.5,-222 473.5,-200 391.5,-200"/>
<text text-anchor="start" x="394.5" y="-208.2" font-family="Helvetica,sans-Serif" font-size="11.00" fill="#000000">int unsigned[10]</text>
<polygon fill="#ffffff" stroke="transparent" points="222.5,-178 222.5,-200 391.5,-200 391.5,-178 222.5,-178"/>
<polygon fill="none" stroke="#000000" points="222.5,-178 222.5,-200 391.5,-200 391.5,-178 222.5,-178"/>
<image xlink:href="../../images/foreignKeys.png" width="11px" height="12px" preserveAspectRatio="xMinYMin meet" x="227.5" y="-195"/>
<text text-anchor="start" x="242.5" y="-186.2" font-family="Helvetica,sans-Serif" font-size="11.00" fill="#000000">user_id</text>
<polygon fill="none" stroke="#000000" points="391.5,-178 391.5,-200 473.5,-200 473.5,-178 391.5,-178"/>
<text text-anchor="start" x="394.5" y="-186.2" font-family="Helvetica,sans-Serif" font-size="11.00" fill="#000000">int unsigned[10]</text>
<polygon fill="#ffffff" stroke="transparent" points="222.5,-160 222.5,-178 284.5,-178 284.5,-160 222.5,-160"/>
<polygon fill="none" stroke="#000000" points="222.5,-160 222.5,-178 284.5,-178 284.5,-160 222.5,-160"/>
<text text-anchor="start" x="225.5" y="-166.2" font-family="Helvetica,sans-Serif" font-size="11.00" fill="#000000">&lt; 2</text>
<polygon fill="#ffffff" stroke="transparent" points="284.5,-160 284.5,-178 391.5,-178 391.5,-160 284.5,-160"/>
<polygon fill="none" stroke="#000000" points="284.5,-160 284.5,-178 391.5,-178 391.5,-160 284.5,-160"/>
<text text-anchor="start" x="328.5" y="-166.2" font-family="Helvetica,sans-Serif" font-size="11.00" fill="#000000">40,781 rows</text>
<polygon fill="#ffffff" stroke="transparent" points="391.5,-160 391.5,-178 473.5,-178 473.5,-160 391.5,-160"/>
<polygon fill="none" stroke="#000000" points="391.5,-160 391.5,-178 473.5,-178 473.5,-160 391.5,-160"/>
<text text-anchor="start" x="454.5" y="-166.2" font-family="Helvetica,sans-Serif" font-size="11.00" fill="#000000">0 &gt;</text>
<polygon fill="none" stroke="#000000" stroke-width="2" points="221,-159 221,-245 474,-245 474,-159 221,-159"/>
</a>
</g>
</g>
<!-- image_catalog -->
<g id="node2" class="node">
<title>image_catalog</title>
<g id="a_node2"><a xlink:href="../../tables/image_catalog.html" xlink:title="image_catalog" target="_top">
<polygon fill="#ffffff" stroke="transparent" points="18,-160 18,-328 161,-328 161,-160 18,-160"/>
<polygon fill="#f5f5f5" stroke="transparent" points="18.5,-306 18.5,-328 161.5,-328 161.5,-306 18.5,-306"/>
<polygon fill="none" stroke="#000000" points="18.5,-306 18.5,-328 161.5,-328 161.5,-306 18.5,-306"/>
<text text-anchor="start" x="23.5" y="-315.2" font-family="Helvetica,sans-Serif" font-weight="bold" font-size="11.00" fill="#000000">image_catalog</text>
<text text-anchor="start" x="126.5" y="-314.2" font-family="Helvetica,sans-Serif" font-size="11.00" fill="#000000">[table]</text>
<polygon fill="none" stroke="#000000" points="18.5,-284 18.5,-306 161.5,-306 161.5,-284 18.5,-284"/>
<image xlink:href="../../images/primaryKeys.png" width="11px" height="12px" preserveAspectRatio="xMinYMin meet" x="23.5" y="-301"/>
<text text-anchor="start" x="38.5" y="-292.2" font-family="Helvetica,sans-Serif" font-size="11.00" fill="#000000">image_catalog_id</text>
<polygon fill="#ffffff" stroke="transparent" points="18.5,-262 18.5,-284 161.5,-284 161.5,-262 18.5,-262"/>
<polygon fill="none" stroke="#000000" points="18.5,-262 18.5,-284 161.5,-284 161.5,-262 18.5,-262"/>
<text text-anchor="start" x="38.5" y="-270.2" font-family="Helvetica,sans-Serif" font-size="11.00" fill="#000000">institution</text>
<polygon fill="#ffffff" stroke="transparent" points="18.5,-240 18.5,-262 161.5,-262 161.5,-240 18.5,-240"/>
<polygon fill="none" stroke="#000000" points="18.5,-240 18.5,-262 161.5,-262 161.5,-240 18.5,-240"/>
<text text-anchor="start" x="38.5" y="-248.2" font-family="Helvetica,sans-Serif" font-size="11.00" fill="#000000">catalog_number_1</text>
<polygon fill="#ffffff" stroke="transparent" points="18.5,-218 18.5,-240 161.5,-240 161.5,-218 18.5,-218"/>
<polygon fill="none" stroke="#000000" points="18.5,-218 18.5,-240 161.5,-240 161.5,-218 18.5,-218"/>
<text text-anchor="start" x="38.5" y="-226.2" font-family="Helvetica,sans-Serif" font-size="11.00" fill="#000000">catalog_number_2</text>
<polygon fill="#ffffff" stroke="transparent" points="18.5,-196 18.5,-218 161.5,-218 161.5,-196 18.5,-196"/>
<polygon fill="none" stroke="#000000" points="18.5,-196 18.5,-218 161.5,-218 161.5,-196 18.5,-196"/>
<text text-anchor="start" x="38.5" y="-204.2" font-family="Helvetica,sans-Serif" font-size="11.00" fill="#000000">catalog_side</text>
<polygon fill="none" stroke="#000000" points="18.5,-178 18.5,-196 161.5,-196 161.5,-178 18.5,-178"/>
<text text-anchor="start" x="21.5" y="-184.2" font-family="Helvetica,sans-Serif" font-size="11.00" fill="#000000">...</text>
<polygon fill="#ffffff" stroke="transparent" points="18.5,-160 18.5,-178 52.5,-178 52.5,-160 18.5,-160"/>
<polygon fill="none" stroke="#000000" points="18.5,-160 18.5,-178 52.5,-178 52.5,-160 18.5,-160"/>
<text text-anchor="start" x="21.5" y="-166.2" font-family="Helvetica,sans-Serif" font-size="11.00" fill="#000000"> &#160;</text>
<polygon fill="#ffffff" stroke="transparent" points="52.5,-160 52.5,-178 128.5,-178 128.5,-160 52.5,-160"/>
<polygon fill="none" stroke="#000000" points="52.5,-160 52.5,-178 128.5,-178 128.5,-160 52.5,-160"/>
<text text-anchor="start" x="65.5" y="-166.2" font-family="Helvetica,sans-Serif" font-size="11.00" fill="#000000">41,712 rows</text>
<polygon fill="#ffffff" stroke="transparent" points="128.5,-160 128.5,-178 161.5,-178 161.5,-160 128.5,-160"/>
<polygon fill="none" stroke="#000000" points="128.5,-160 128.5,-178 161.5,-178 161.5,-160 128.5,-160"/>
<text text-anchor="start" x="142.5" y="-166.2" font-family="Helvetica,sans-Serif" font-size="11.00" fill="#000000">3 &gt;</text>
</a>
</g>
</g>
<!-- image_catalog_author&#45;&gt;image_catalog -->
<g id="edge1" class="edge">
<title>image_catalog_author:w&#45;&gt;image_catalog:e</title>
<path fill="none" stroke="#000000" d="M212.2218,-212.7545C181.1653,-224.8171 203.6738,-295 161.5,-295"/>
<polygon fill="#000000" stroke="#000000" points="221.0383,-207.1916 222.3845,-215.0776 220.8073,-215.3468 219.4611,-207.4609 221.0383,-207.1916"/>
<polyline fill="none" stroke="#000000" points="222.5,-211 218.557,-211.6731 "/>
<ellipse fill="none" stroke="#000000" cx="215.4027" cy="-212.2116" rx="3.2" ry="3.2"/>
</g>
<!-- user -->
<g id="node3" class="node">
<title>user</title>
<g id="a_node3"><a xlink:href="../../tables/user.html" xlink:title="user" target="_top">
<polygon fill="#ffffff" stroke="transparent" points="8,-37 8,-139 171,-139 171,-37 8,-37"/>
<polygon fill="#f5f5f5" stroke="transparent" points="8.5,-117 8.5,-139 171.5,-139 171.5,-117 8.5,-117"/>
<polygon fill="none" stroke="#000000" points="8.5,-117 8.5,-139 171.5,-139 171.5,-117 8.5,-117"/>
<text text-anchor="start" x="13.5" y="-126.2" font-family="Helvetica,sans-Serif" font-weight="bold" font-size="11.00" fill="#000000">user</text>
<text text-anchor="start" x="136.5" y="-125.2" font-family="Helvetica,sans-Serif" font-size="11.00" fill="#000000">[table]</text>
<polygon fill="none" stroke="#000000" points="8.5,-95 8.5,-117 171.5,-117 171.5,-95 8.5,-95"/>
<image xlink:href="../../images/primaryKeys.png" width="11px" height="12px" preserveAspectRatio="xMinYMin meet" x="13.5" y="-112"/>
<text text-anchor="start" x="28.5" y="-103.2" font-family="Helvetica,sans-Serif" font-size="11.00" fill="#000000">user_id</text>
<polygon fill="#ffffff" stroke="transparent" points="8.5,-73 8.5,-95 171.5,-95 171.5,-73 8.5,-73"/>
<polygon fill="none" stroke="#000000" points="8.5,-73 8.5,-95 171.5,-95 171.5,-73 8.5,-73"/>
<text text-anchor="start" x="28.5" y="-81.2" font-family="Helvetica,sans-Serif" font-size="11.00" fill="#000000">email</text>
<polygon fill="none" stroke="#000000" points="8.5,-55 8.5,-73 171.5,-73 171.5,-55 8.5,-55"/>
<text text-anchor="start" x="11.5" y="-61.2" font-family="Helvetica,sans-Serif" font-size="11.00" fill="#000000">...</text>
<polygon fill="#ffffff" stroke="transparent" points="8.5,-37 8.5,-55 62.5,-55 62.5,-37 8.5,-37"/>
<polygon fill="none" stroke="#000000" points="8.5,-37 8.5,-55 62.5,-55 62.5,-37 8.5,-37"/>
<text text-anchor="start" x="11.5" y="-43.2" font-family="Helvetica,sans-Serif" font-size="11.00" fill="#000000"> &#160;</text>
<polygon fill="#ffffff" stroke="transparent" points="62.5,-37 62.5,-55 122.5,-55 122.5,-37 62.5,-37"/>
<polygon fill="none" stroke="#000000" points="62.5,-37 62.5,-55 122.5,-55 122.5,-37 62.5,-37"/>
<text text-anchor="start" x="86.5" y="-43.2" font-family="Helvetica,sans-Serif" font-size="11.00" fill="#000000">3 rows</text>
<polygon fill="#ffffff" stroke="transparent" points="122.5,-37 122.5,-55 171.5,-55 171.5,-37 122.5,-37"/>
<polygon fill="none" stroke="#000000" points="122.5,-37 122.5,-55 171.5,-55 171.5,-37 122.5,-37"/>
<text text-anchor="start" x="146.5" y="-43.2" font-family="Helvetica,sans-Serif" font-size="11.00" fill="#000000">40 &gt;</text>
</a>
</g>
</g>
<!-- image_catalog_author&#45;&gt;user -->
<g id="edge2" class="edge">
<title>image_catalog_author:w&#45;&gt;user:e</title>
<path fill="none" stroke="#000000" d="M208.4758,-184.5376C187.6541,-167.2976 208.7077,-106 171.5,-106"/>
<polygon fill="#000000" stroke="#000000" points="214.8766,-186.5742 221.4084,-192.4305 218.6883,-187.7871 222.5,-189 222.5,-189 222.5,-189 218.6883,-187.7871 223.5916,-185.5695 214.8766,-186.5742 214.8766,-186.5742"/>
<ellipse fill="none" stroke="#000000" cx="211.8273" cy="-185.6039" rx="3.2" ry="3.2"/>
</g>
</g>
</svg>
