<?xml version="1.0" encoding="UTF-8" standalone="no"?>
<!DOCTYPE svg PUBLIC "-//W3C//DTD SVG 1.1//EN"
 "http://www.w3.org/Graphics/SVG/1.1/DTD/svg11.dtd">
<!-- Generated by graphviz version 2.40.1 (20161225.0304)
 -->
<!-- Title: oneDegreeRelationshipsDiagram Pages: 1 -->
<svg width="401pt" height="625pt"
 viewBox="0.00 0.00 401.00 625.00" xmlns="http://www.w3.org/2000/svg" xmlns:xlink="http://www.w3.org/1999/xlink">
<g id="graph0" class="graph" transform="scale(1 1) rotate(0) translate(4 621)">
<title>oneDegreeRelationshipsDiagram</title>
<polygon fill="#ffffff" stroke="transparent" points="-4,4 -4,-621 397,-621 397,4 -4,4"/>
<text text-anchor="middle" x="71.5" y="-7.2" font-family="Helvetica,sans-Serif" font-size="11.00" fill="#000000">Generated by SchemaSpy</text>
<!-- image_text_fragment_match_catalogue -->
<g id="node1" class="node">
<title>image_text_fragment_match_catalogue</title>
<g id="a_node1"><a xlink:href="../../tables/image_text_fragment_match_catalogue.html" xlink:title="image_text_fragment_match_catalogue" target="_top">
<polygon fill="#ffffff" stroke="transparent" points="8,-37 8,-613 385,-613 385,-37 8,-37"/>
<polygon fill="#f5f5f5" stroke="transparent" points="10.5,-589 10.5,-611 383.5,-611 383.5,-589 10.5,-589"/>
<polygon fill="none" stroke="#000000" points="10.5,-589 10.5,-611 383.5,-611 383.5,-589 10.5,-589"/>
<text text-anchor="start" x="15.5" y="-598.2" font-family="Helvetica,sans-Serif" font-weight="bold" font-size="11.00" fill="#000000">image_text_fragment_match_catalogue</text>
<text text-anchor="start" x="350.5" y="-597.2" font-family="Helvetica,sans-Serif" font-size="11.00" fill="#000000">[view]</text>
<polygon fill="none" stroke="#000000" points="10.5,-567 10.5,-589 301.5,-589 301.5,-567 10.5,-567"/>
<text text-anchor="start" x="30.5" y="-575.2" font-family="Helvetica,sans-Serif" font-size="11.00" fill="#000000">image_catalog_id</text>
<polygon fill="none" stroke="#000000" points="301.5,-567 301.5,-589 383.5,-589 383.5,-567 301.5,-567"/>
<text text-anchor="start" x="304.5" y="-575.2" font-family="Helvetica,sans-Serif" font-size="11.00" fill="#000000">int unsigned[10]</text>
<polygon fill="none" stroke="#000000" points="10.5,-545 10.5,-567 301.5,-567 301.5,-545 10.5,-545"/>
<text text-anchor="start" x="30.5" y="-553.2" font-family="Helvetica,sans-Serif" font-size="11.00" fill="#000000">institution</text>
<polygon fill="none" stroke="#000000" points="301.5,-545 301.5,-567 383.5,-567 383.5,-545 301.5,-545"/>
<text text-anchor="start" x="304.5" y="-553.2" font-family="Helvetica,sans-Serif" font-size="11.00" fill="#000000">varchar[255]</text>
<polygon fill="none" stroke="#000000" points="10.5,-523 10.5,-545 301.5,-545 301.5,-523 10.5,-523"/>
<text text-anchor="start" x="30.5" y="-531.2" font-family="Helvetica,sans-Serif" font-size="11.00" fill="#000000">catalog_number_1</text>
<polygon fill="none" stroke="#000000" points="301.5,-523 301.5,-545 383.5,-545 383.5,-523 301.5,-523"/>
<text text-anchor="start" x="304.5" y="-531.2" font-family="Helvetica,sans-Serif" font-size="11.00" fill="#000000">varchar[255]</text>
<polygon fill="none" stroke="#000000" points="10.5,-501 10.5,-523 301.5,-523 301.5,-501 10.5,-501"/>
<text text-anchor="start" x="30.5" y="-509.2" font-family="Helvetica,sans-Serif" font-size="11.00" fill="#000000">catalog_number_2</text>
<polygon fill="none" stroke="#000000" points="301.5,-501 301.5,-523 383.5,-523 383.5,-501 301.5,-501"/>
<text text-anchor="start" x="304.5" y="-509.2" font-family="Helvetica,sans-Serif" font-size="11.00" fill="#000000">varchar[255]</text>
<polygon fill="none" stroke="#000000" points="10.5,-479 10.5,-501 301.5,-501 301.5,-479 10.5,-479"/>
<text text-anchor="start" x="30.5" y="-487.2" font-family="Helvetica,sans-Serif" font-size="11.00" fill="#000000">catalog_side</text>
<polygon fill="none" stroke="#000000" points="301.5,-479 301.5,-501 383.5,-501 383.5,-479 301.5,-479"/>
<text text-anchor="start" x="304.5" y="-487.2" font-family="Helvetica,sans-Serif" font-size="11.00" fill="#000000">bit[3]</text>
<polygon fill="none" stroke="#000000" points="10.5,-457 10.5,-479 301.5,-479 301.5,-457 10.5,-457"/>
<text text-anchor="start" x="30.5" y="-465.2" font-family="Helvetica,sans-Serif" font-size="11.00" fill="#000000">object_id</text>
<polygon fill="none" stroke="#000000" points="301.5,-457 301.5,-479 383.5,-479 383.5,-457 301.5,-457"/>
<text text-anchor="start" x="304.5" y="-465.2" font-family="Helvetica,sans-Serif" font-size="11.00" fill="#000000">varchar[255]</text>
<polygon fill="none" stroke="#000000" points="10.5,-435 10.5,-457 301.5,-457 301.5,-435 10.5,-435"/>
<text text-anchor="start" x="30.5" y="-443.2" font-family="Helvetica,sans-Serif" font-size="11.00" fill="#000000">image_urls_id</text>
<polygon fill="none" stroke="#000000" points="301.5,-435 301.5,-457 383.5,-457 383.5,-435 301.5,-435"/>
<text text-anchor="start" x="304.5" y="-443.2" font-family="Helvetica,sans-Serif" font-size="11.00" fill="#000000">int unsigned[10]</text>
<polygon fill="none" stroke="#000000" points="10.5,-413 10.5,-435 301.5,-435 301.5,-413 10.5,-413"/>
<text text-anchor="start" x="30.5" y="-421.2" font-family="Helvetica,sans-Serif" font-size="11.00" fill="#000000">url</text>
<polygon fill="none" stroke="#000000" points="301.5,-413 301.5,-435 383.5,-435 383.5,-413 301.5,-413"/>
<text text-anchor="start" x="304.5" y="-421.2" font-family="Helvetica,sans-Serif" font-size="11.00" fill="#000000">varchar[255]</text>
<polygon fill="none" stroke="#000000" points="10.5,-391 10.5,-413 301.5,-413 301.5,-391 10.5,-391"/>
<text text-anchor="start" x="30.5" y="-399.2" font-family="Helvetica,sans-Serif" font-size="11.00" fill="#000000">proxy</text>
<polygon fill="none" stroke="#000000" points="301.5,-391 301.5,-413 383.5,-413 383.5,-391 301.5,-391"/>
<text text-anchor="start" x="304.5" y="-399.2" font-family="Helvetica,sans-Serif" font-size="11.00" fill="#000000">varchar[255]</text>
<polygon fill="none" stroke="#000000" points="10.5,-369 10.5,-391 301.5,-391 301.5,-369 10.5,-369"/>
<text text-anchor="start" x="30.5" y="-377.2" font-family="Helvetica,sans-Serif" font-size="11.00" fill="#000000">suffix</text>
<polygon fill="none" stroke="#000000" points="301.5,-369 301.5,-391 383.5,-391 383.5,-369 301.5,-369"/>
<text text-anchor="start" x="304.5" y="-377.2" font-family="Helvetica,sans-Serif" font-size="11.00" fill="#000000">varchar[255]</text>
<polygon fill="none" stroke="#000000" points="10.5,-347 10.5,-369 301.5,-369 301.5,-347 10.5,-347"/>
<text text-anchor="start" x="30.5" y="-355.2" font-family="Helvetica,sans-Serif" font-size="11.00" fill="#000000">license</text>
<polygon fill="none" stroke="#000000" points="301.5,-347 301.5,-369 383.5,-369 383.5,-347 301.5,-347"/>
<text text-anchor="start" x="304.5" y="-355.2" font-family="Helvetica,sans-Serif" font-size="11.00" fill="#000000">text[65535]</text>
<polygon fill="none" stroke="#000000" points="10.5,-325 10.5,-347 301.5,-347 301.5,-325 10.5,-325"/>
<text text-anchor="start" x="30.5" y="-333.2" font-family="Helvetica,sans-Serif" font-size="11.00" fill="#000000">filename</text>
<polygon fill="none" stroke="#000000" points="301.5,-325 301.5,-347 383.5,-347 383.5,-325 301.5,-325"/>
<text text-anchor="start" x="304.5" y="-333.2" font-family="Helvetica,sans-Serif" font-size="11.00" fill="#000000">varchar[255]</text>
<polygon fill="none" stroke="#000000" points="10.5,-303 10.5,-325 301.5,-325 301.5,-303 10.5,-303"/>
<text text-anchor="start" x="30.5" y="-311.2" font-family="Helvetica,sans-Serif" font-size="11.00" fill="#000000">iaa_edition_catalog_id</text>
<polygon fill="none" stroke="#000000" points="301.5,-303 301.5,-325 383.5,-325 383.5,-303 301.5,-303"/>
<text text-anchor="start" x="304.5" y="-311.2" font-family="Helvetica,sans-Serif" font-size="11.00" fill="#000000">int unsigned[10]</text>
<polygon fill="none" stroke="#000000" points="10.5,-281 10.5,-303 301.5,-303 301.5,-281 10.5,-281"/>
<image xlink:href="../../images/foreignKeys.png" width="11px" height="12px" preserveAspectRatio="xMinYMin meet" x="15.5" y="-298"/>
<text text-anchor="start" x="30.5" y="-289.2" font-family="Helvetica,sans-Serif" font-size="11.00" fill="#000000">manuscript_id</text>
<polygon fill="none" stroke="#000000" points="301.5,-281 301.5,-303 383.5,-303 383.5,-281 301.5,-281"/>
<text text-anchor="start" x="304.5" y="-289.2" font-family="Helvetica,sans-Serif" font-size="11.00" fill="#000000">int unsigned[10]</text>
<polygon fill="none" stroke="#000000" points="10.5,-259 10.5,-281 301.5,-281 301.5,-259 10.5,-259"/>
<text text-anchor="start" x="30.5" y="-267.2" font-family="Helvetica,sans-Serif" font-size="11.00" fill="#000000">edition_name</text>
<polygon fill="none" stroke="#000000" points="301.5,-259 301.5,-281 383.5,-281 383.5,-259 301.5,-259"/>
<text text-anchor="start" x="304.5" y="-267.2" font-family="Helvetica,sans-Serif" font-size="11.00" fill="#000000">varchar[255]</text>
<polygon fill="none" stroke="#000000" points="10.5,-237 10.5,-259 301.5,-259 301.5,-237 10.5,-237"/>
<text text-anchor="start" x="30.5" y="-245.2" font-family="Helvetica,sans-Serif" font-size="11.00" fill="#000000">edition_volume</text>
<polygon fill="none" stroke="#000000" points="301.5,-237 301.5,-259 383.5,-259 383.5,-237 301.5,-237"/>
<text text-anchor="start" x="304.5" y="-245.2" font-family="Helvetica,sans-Serif" font-size="11.00" fill="#000000">varchar[128]</text>
<polygon fill="none" stroke="#000000" points="10.5,-215 10.5,-237 301.5,-237 301.5,-215 10.5,-215"/>
<text text-anchor="start" x="30.5" y="-223.2" font-family="Helvetica,sans-Serif" font-size="11.00" fill="#000000">edition_location_1</text>
<polygon fill="none" stroke="#000000" points="301.5,-215 301.5,-237 383.5,-237 383.5,-215 301.5,-215"/>
<text text-anchor="start" x="304.5" y="-223.2" font-family="Helvetica,sans-Serif" font-size="11.00" fill="#000000">varchar[64]</text>
<polygon fill="none" stroke="#000000" points="10.5,-193 10.5,-215 301.5,-215 301.5,-193 10.5,-193"/>
<text text-anchor="start" x="30.5" y="-201.2" font-family="Helvetica,sans-Serif" font-size="11.00" fill="#000000">edition_location_2</text>
<polygon fill="none" stroke="#000000" points="301.5,-193 301.5,-215 383.5,-215 383.5,-193 301.5,-193"/>
<text text-anchor="start" x="304.5" y="-201.2" font-family="Helvetica,sans-Serif" font-size="11.00" fill="#000000">varchar[64]</text>
<polygon fill="none" stroke="#000000" points="10.5,-171 10.5,-193 301.5,-193 301.5,-171 10.5,-171"/>
<text text-anchor="start" x="30.5" y="-179.2" font-family="Helvetica,sans-Serif" font-size="11.00" fill="#000000">edition_side</text>
<polygon fill="none" stroke="#000000" points="301.5,-171 301.5,-193 383.5,-193 383.5,-171 301.5,-171"/>
<text text-anchor="start" x="304.5" y="-179.2" font-family="Helvetica,sans-Serif" font-size="11.00" fill="#000000">bit[3]</text>
<polygon fill="none" stroke="#000000" points="10.5,-149 10.5,-171 301.5,-171 301.5,-149 10.5,-149"/>
<text text-anchor="start" x="30.5" y="-157.2" font-family="Helvetica,sans-Serif" font-size="11.00" fill="#000000">comment</text>
<polygon fill="none" stroke="#000000" points="301.5,-149 301.5,-171 383.5,-171 383.5,-149 301.5,-149"/>
<text text-anchor="start" x="304.5" y="-157.2" font-family="Helvetica,sans-Serif" font-size="11.00" fill="#000000">varchar[255]</text>
<polygon fill="none" stroke="#000000" points="10.5,-127 10.5,-149 301.5,-149 301.5,-127 10.5,-127"/>
<text text-anchor="start" x="30.5" y="-135.2" font-family="Helvetica,sans-Serif" font-size="11.00" fill="#000000">iaa_edition_catalog_to_text_fragment_id</text>
<polygon fill="none" stroke="#000000" points="301.5,-127 301.5,-149 383.5,-149 383.5,-127 301.5,-127"/>
<text text-anchor="start" x="304.5" y="-135.2" font-family="Helvetica,sans-Serif" font-size="11.00" fill="#000000">int unsigned[10]</text>
<polygon fill="none" stroke="#000000" points="10.5,-105 10.5,-127 301.5,-127 301.5,-105 10.5,-105"/>
<image xlink:href="../../images/foreignKeys.png" width="11px" height="12px" preserveAspectRatio="xMinYMin meet" x="15.5" y="-122"/>
<text text-anchor="start" x="30.5" y="-113.2" font-family="Helvetica,sans-Serif" font-size="11.00" fill="#000000">text_fragment_id</text>
<polygon fill="none" stroke="#000000" points="301.5,-105 301.5,-127 383.5,-127 383.5,-105 301.5,-105"/>
<text text-anchor="start" x="304.5" y="-113.2" font-family="Helvetica,sans-Serif" font-size="11.00" fill="#000000">int unsigned[10]</text>
<polygon fill="none" stroke="#000000" points="10.5,-83 10.5,-105 301.5,-105 301.5,-83 10.5,-83"/>
<text text-anchor="start" x="30.5" y="-91.2" font-family="Helvetica,sans-Serif" font-size="11.00" fill="#000000">name</text>
<polygon fill="none" stroke="#000000" points="301.5,-83 301.5,-105 383.5,-105 383.5,-83 301.5,-83"/>
<text text-anchor="start" x="304.5" y="-91.2" font-family="Helvetica,sans-Serif" font-size="11.00" fill="#000000">varchar[255]</text>
<polygon fill="none" stroke="#000000" points="10.5,-61 10.5,-83 301.5,-83 301.5,-61 10.5,-61"/>
<text text-anchor="start" x="30.5" y="-69.2" font-family="Helvetica,sans-Serif" font-size="11.00" fill="#000000">manuscript_name</text>
<polygon fill="none" stroke="#000000" points="301.5,-61 301.5,-83 383.5,-83 383.5,-61 301.5,-61"/>
<text text-anchor="start" x="304.5" y="-69.2" font-family="Helvetica,sans-Serif" font-size="11.00" fill="#000000">varchar[255]</text>
<polygon fill="none" stroke="#000000" points="10.5,-39 10.5,-61 301.5,-61 301.5,-39 10.5,-39"/>
<image xlink:href="../../images/foreignKeys.png" width="11px" height="12px" preserveAspectRatio="xMinYMin meet" x="15.5" y="-56"/>
<text text-anchor="start" x="30.5" y="-47.2" font-family="Helvetica,sans-Serif" font-size="11.00" fill="#000000">edition_id</text>
<polygon fill="none" stroke="#000000" points="301.5,-39 301.5,-61 383.5,-61 383.5,-39 301.5,-39"/>
<text text-anchor="start" x="304.5" y="-47.2" font-family="Helvetica,sans-Serif" font-size="11.00" fill="#000000">int unsigned[10]</text>
<polygon fill="none" stroke="#000000" stroke-width="2" points="9,-38 9,-612 384,-612 384,-38 9,-38"/>
</a>
</g>
</g>
</g>
</svg>
