<?xml version="1.0" encoding="UTF-8" standalone="no"?>
<!DOCTYPE svg PUBLIC "-//W3C//DTD SVG 1.1//EN"
 "http://www.w3.org/Graphics/SVG/1.1/DTD/svg11.dtd">
<!-- Generated by graphviz version 2.40.1 (20161225.0304)
 -->
<!-- Title: oneDegreeRelationshipsDiagram Pages: 1 -->
<svg width="409pt" height="223pt"
 viewBox="0.00 0.00 409.00 223.00" xmlns="http://www.w3.org/2000/svg" xmlns:xlink="http://www.w3.org/1999/xlink">
<g id="graph0" class="graph" transform="scale(1 1) rotate(0) translate(4 219)">
<title>oneDegreeRelationshipsDiagram</title>
<polygon fill="#ffffff" stroke="transparent" points="-4,4 -4,-219 405,-219 405,4 -4,4"/>
<text text-anchor="middle" x="71.5" y="-7.2" font-family="Helvetica,sans-Serif" font-size="11.00" fill="#000000">Generated by SchemaSpy</text>
<!-- SQE_image -->
<g id="node1" class="node">
<title>SQE_image</title>
<g id="a_node1"><a xlink:href="../../tables/SQE_image.html" xlink:title="SQE_image" target="_top">
<polygon fill="#ffffff" stroke="transparent" points="255,-65 255,-211 393,-211 393,-65 255,-65"/>
<polygon fill="#f5f5f5" stroke="transparent" points="255,-189 255,-211 393,-211 393,-189 255,-189"/>
<polygon fill="none" stroke="#000000" points="255,-189 255,-211 393,-211 393,-189 255,-189"/>
<text text-anchor="start" x="260" y="-198.2" font-family="Helvetica,sans-Serif" font-weight="bold" font-size="11.00" fill="#000000">SQE_image</text>
<text text-anchor="start" x="358" y="-197.2" font-family="Helvetica,sans-Serif" font-size="11.00" fill="#000000">[table]</text>
<polygon fill="none" stroke="#000000" points="255,-167 255,-189 393,-189 393,-167 255,-167"/>
<image xlink:href="../../images/primaryKeys.png" width="11px" height="12px" preserveAspectRatio="xMinYMin meet" x="260" y="-184"/>
<text text-anchor="start" x="275" y="-175.2" font-family="Helvetica,sans-Serif" font-size="11.00" fill="#000000">sqe_image_id</text>
<polygon fill="#ffffff" stroke="transparent" points="255,-145 255,-167 393,-167 393,-145 255,-145"/>
<polygon fill="none" stroke="#000000" points="255,-145 255,-167 393,-167 393,-145 255,-145"/>
<image xlink:href="../../images/foreignKeys.png" width="11px" height="12px" preserveAspectRatio="xMinYMin meet" x="260" y="-162"/>
<text text-anchor="start" x="275" y="-153.2" font-family="Helvetica,sans-Serif" font-size="11.00" fill="#000000">image_urls_id</text>
<polygon fill="#ffffff" stroke="transparent" points="255,-123 255,-145 393,-145 393,-123 255,-123"/>
<polygon fill="none" stroke="#000000" points="255,-123 255,-145 393,-145 393,-123 255,-123"/>
<text text-anchor="start" x="275" y="-131.2" font-family="Helvetica,sans-Serif" font-size="11.00" fill="#000000">filename</text>
<polygon fill="#ffffff" stroke="transparent" points="255,-101 255,-123 393,-123 393,-101 255,-101"/>
<polygon fill="none" stroke="#000000" points="255,-101 255,-123 393,-123 393,-101 255,-101"/>
<image xlink:href="../../images/foreignKeys.png" width="11px" height="12px" preserveAspectRatio="xMinYMin meet" x="260" y="-118"/>
<text text-anchor="start" x="275" y="-109.2" font-family="Helvetica,sans-Serif" font-size="11.00" fill="#000000">image_catalog_id</text>
<polygon fill="none" stroke="#000000" points="255,-83 255,-101 393,-101 393,-83 255,-83"/>
<text text-anchor="start" x="258" y="-89.2" font-family="Helvetica,sans-Serif" font-size="11.00" fill="#000000">...</text>
<polygon fill="#ffffff" stroke="transparent" points="255,-65 255,-83 291,-83 291,-65 255,-65"/>
<polygon fill="none" stroke="#000000" points="255,-65 255,-83 291,-83 291,-65 255,-65"/>
<text text-anchor="start" x="258" y="-71.2" font-family="Helvetica,sans-Serif" font-size="11.00" fill="#000000">&lt; 2</text>
<polygon fill="#ffffff" stroke="transparent" points="291,-65 291,-83 364,-83 364,-65 291,-65"/>
<polygon fill="none" stroke="#000000" points="291,-65 291,-83 364,-83 364,-65 291,-65"/>
<text text-anchor="start" x="301" y="-71.2" font-family="Helvetica,sans-Serif" font-size="11.00" fill="#000000">97,684 rows</text>
<polygon fill="#ffffff" stroke="transparent" points="364,-65 364,-83 393,-83 393,-65 364,-65"/>
<polygon fill="none" stroke="#000000" points="364,-65 364,-83 393,-83 393,-65 364,-65"/>
<text text-anchor="start" x="374" y="-71.2" font-family="Helvetica,sans-Serif" font-size="11.00" fill="#000000">4 &gt;</text>
</a>
</g>
</g>
<!-- image_urls -->
<g id="node2" class="node">
<title>image_urls</title>
<g id="a_node2"><a xlink:href="../../tables/image_urls.html" xlink:title="image_urls" target="_top">
<polygon fill="#ffffff" stroke="transparent" points="8,-37 8,-191 206,-191 206,-37 8,-37"/>
<polygon fill="#f5f5f5" stroke="transparent" points="10,-167 10,-189 204,-189 204,-167 10,-167"/>
<polygon fill="none" stroke="#000000" points="10,-167 10,-189 204,-189 204,-167 10,-167"/>
<text text-anchor="start" x="15" y="-176.2" font-family="Helvetica,sans-Serif" font-weight="bold" font-size="11.00" fill="#000000">image_urls</text>
<text text-anchor="start" x="169" y="-175.2" font-family="Helvetica,sans-Serif" font-size="11.00" fill="#000000">[table]</text>
<polygon fill="none" stroke="#000000" points="10,-145 10,-167 122,-167 122,-145 10,-145"/>
<image xlink:href="../../images/primaryKeys.png" width="11px" height="12px" preserveAspectRatio="xMinYMin meet" x="15" y="-162"/>
<text text-anchor="start" x="30" y="-153.2" font-family="Helvetica,sans-Serif" font-size="11.00" fill="#000000">image_urls_id</text>
<polygon fill="none" stroke="#000000" points="122,-145 122,-167 204,-167 204,-145 122,-145"/>
<text text-anchor="start" x="125" y="-153.2" font-family="Helvetica,sans-Serif" font-size="11.00" fill="#000000">int unsigned[10]</text>
<polygon fill="none" stroke="#000000" points="10,-123 10,-145 122,-145 122,-123 10,-123"/>
<image xlink:href="../../images/primaryKeys.png" width="11px" height="12px" preserveAspectRatio="xMinYMin meet" x="15" y="-140"/>
<text text-anchor="start" x="30" y="-131.2" font-family="Helvetica,sans-Serif" font-size="11.00" fill="#000000">url</text>
<polygon fill="none" stroke="#000000" points="122,-123 122,-145 204,-145 204,-123 122,-123"/>
<text text-anchor="start" x="125" y="-131.2" font-family="Helvetica,sans-Serif" font-size="11.00" fill="#000000">varchar[255]</text>
<polygon fill="none" stroke="#000000" points="10,-101 10,-123 122,-123 122,-101 10,-101"/>
<text text-anchor="start" x="30" y="-109.2" font-family="Helvetica,sans-Serif" font-size="11.00" fill="#000000">suffix</text>
<polygon fill="none" stroke="#000000" points="122,-101 122,-123 204,-123 204,-101 122,-101"/>
<text text-anchor="start" x="125" y="-109.2" font-family="Helvetica,sans-Serif" font-size="11.00" fill="#000000">varchar[255]</text>
<polygon fill="none" stroke="#000000" points="10,-79 10,-101 122,-101 122,-79 10,-79"/>
<text text-anchor="start" x="30" y="-87.2" font-family="Helvetica,sans-Serif" font-size="11.00" fill="#000000">proxy</text>
<polygon fill="none" stroke="#000000" points="122,-79 122,-101 204,-101 204,-79 122,-79"/>
<text text-anchor="start" x="125" y="-87.2" font-family="Helvetica,sans-Serif" font-size="11.00" fill="#000000">varchar[255]</text>
<polygon fill="none" stroke="#000000" points="10,-57 10,-79 122,-79 122,-57 10,-57"/>
<text text-anchor="start" x="30" y="-65.2" font-family="Helvetica,sans-Serif" font-size="11.00" fill="#000000">license</text>
<polygon fill="none" stroke="#000000" points="122,-57 122,-79 204,-79 204,-57 122,-57"/>
<text text-anchor="start" x="125" y="-65.2" font-family="Helvetica,sans-Serif" font-size="11.00" fill="#000000">text[65535]</text>
<polygon fill="#ffffff" stroke="transparent" points="10,-39 10,-57 57,-57 57,-39 10,-39"/>
<polygon fill="none" stroke="#000000" points="10,-39 10,-57 57,-57 57,-39 10,-39"/>
<text text-anchor="start" x="13" y="-45.2" font-family="Helvetica,sans-Serif" font-size="11.00" fill="#000000">&lt; 0</text>
<polygon fill="#ffffff" stroke="transparent" points="57,-39 57,-57 122,-57 122,-39 57,-39"/>
<polygon fill="none" stroke="#000000" points="57,-39 57,-57 122,-57 122,-39 57,-39"/>
<text text-anchor="start" x="86" y="-45.2" font-family="Helvetica,sans-Serif" font-size="11.00" fill="#000000">3 rows</text>
<polygon fill="#ffffff" stroke="transparent" points="122,-39 122,-57 204,-57 204,-39 122,-39"/>
<polygon fill="none" stroke="#000000" points="122,-39 122,-57 204,-57 204,-39 122,-39"/>
<text text-anchor="start" x="185" y="-45.2" font-family="Helvetica,sans-Serif" font-size="11.00" fill="#000000">1 &gt;</text>
<polygon fill="none" stroke="#000000" stroke-width="2" points="9,-38 9,-190 205,-190 205,-38 9,-38"/>
</a>
</g>
</g>
<!-- SQE_image&#45;&gt;image_urls -->
<g id="edge1" class="edge">
<title>SQE_image:w&#45;&gt;image_urls:e</title>
<path fill="none" stroke="#000000" d="M240.276,-156C228.2815,-156 220.8229,-156 204,-156"/>
<polygon fill="#000000" stroke="#000000" points="247,-156.0001 255,-159.6 251,-156 255,-156 255,-156 255,-156 251,-156 255,-152.4 247,-156.0001 247,-156.0001"/>
<ellipse fill="none" stroke="#000000" cx="243.8" cy="-156.0001" rx="3.2" ry="3.2"/>
</g>
</g>
</svg>
