<?xml version="1.0" encoding="UTF-8" standalone="no"?>
<!DOCTYPE svg PUBLIC "-//W3C//DTD SVG 1.1//EN"
 "http://www.w3.org/Graphics/SVG/1.1/DTD/svg11.dtd">
<!-- Generated by graphviz version 2.40.1 (20161225.0304)
 -->
<!-- Title: oneDegreeRelationshipsDiagram Pages: 1 -->
<svg width="546pt" height="472pt"
 viewBox="0.00 0.00 546.00 472.00" xmlns="http://www.w3.org/2000/svg" xmlns:xlink="http://www.w3.org/1999/xlink">
<g id="graph0" class="graph" transform="scale(1 1) rotate(0) translate(4 468)">
<title>oneDegreeRelationshipsDiagram</title>
<polygon fill="#ffffff" stroke="transparent" points="-4,4 -4,-468 542,-468 542,4 -4,4"/>
<text text-anchor="middle" x="71.5" y="-7.2" font-family="Helvetica,sans-Serif" font-size="11.00" fill="#000000">Generated by SchemaSpy</text>
<!-- image_to_iaa_edition_catalog -->
<g id="node1" class="node">
<title>image_to_iaa_edition_catalog</title>
<g id="a_node1"><a xlink:href="../../tables/image_to_iaa_edition_catalog.html" xlink:title="image_to_iaa_edition_catalog" target="_top">
<polygon fill="#ffffff" stroke="transparent" points="226,-257 226,-345 530,-345 530,-257 226,-257"/>
<polygon fill="#f5f5f5" stroke="transparent" points="228,-321 228,-343 528,-343 528,-321 228,-321"/>
<polygon fill="none" stroke="#000000" points="228,-321 228,-343 528,-343 528,-321 228,-321"/>
<text text-anchor="start" x="233" y="-330.2" font-family="Helvetica,sans-Serif" font-weight="bold" font-size="11.00" fill="#000000">image_to_iaa_edition_catalog</text>
<text text-anchor="start" x="493" y="-329.2" font-family="Helvetica,sans-Serif" font-size="11.00" fill="#000000">[table]</text>
<polygon fill="none" stroke="#000000" points="228,-299 228,-321 446,-321 446,-299 228,-299"/>
<image xlink:href="../../images/primaryKeys.png" width="11px" height="12px" preserveAspectRatio="xMinYMin meet" x="233" y="-316"/>
<text text-anchor="start" x="248" y="-307.2" font-family="Helvetica,sans-Serif" font-size="11.00" fill="#000000">iaa_edition_catalog_id</text>
<polygon fill="none" stroke="#000000" points="446,-299 446,-321 528,-321 528,-299 446,-299"/>
<text text-anchor="start" x="449" y="-307.2" font-family="Helvetica,sans-Serif" font-size="11.00" fill="#000000">int unsigned[10]</text>
<polygon fill="none" stroke="#000000" points="228,-277 228,-299 446,-299 446,-277 228,-277"/>
<image xlink:href="../../images/primaryKeys.png" width="11px" height="12px" preserveAspectRatio="xMinYMin meet" x="233" y="-294"/>
<text text-anchor="start" x="248" y="-285.2" font-family="Helvetica,sans-Serif" font-size="11.00" fill="#000000">image_catalog_id</text>
<polygon fill="none" stroke="#000000" points="446,-277 446,-299 528,-299 528,-277 446,-277"/>
<text text-anchor="start" x="449" y="-285.2" font-family="Helvetica,sans-Serif" font-size="11.00" fill="#000000">int unsigned[10]</text>
<polygon fill="#ffffff" stroke="transparent" points="228,-259 228,-277 315,-277 315,-259 228,-259"/>
<polygon fill="none" stroke="#000000" points="228,-259 228,-277 315,-277 315,-259 228,-259"/>
<text text-anchor="start" x="231" y="-265.2" font-family="Helvetica,sans-Serif" font-size="11.00" fill="#000000">&lt; 2</text>
<polygon fill="#ffffff" stroke="transparent" points="315,-259 315,-277 446,-277 446,-259 315,-259"/>
<polygon fill="none" stroke="#000000" points="315,-259 315,-277 446,-277 446,-259 315,-259"/>
<text text-anchor="start" x="383" y="-265.2" font-family="Helvetica,sans-Serif" font-size="11.00" fill="#000000">39,105 rows</text>
<polygon fill="#ffffff" stroke="transparent" points="446,-259 446,-277 528,-277 528,-259 446,-259"/>
<polygon fill="none" stroke="#000000" points="446,-259 446,-277 528,-277 528,-259 446,-259"/>
<text text-anchor="start" x="509" y="-265.2" font-family="Helvetica,sans-Serif" font-size="11.00" fill="#000000">0 &gt;</text>
<polygon fill="none" stroke="#000000" stroke-width="2" points="227,-258 227,-344 529,-344 529,-258 227,-258"/>
</a>
</g>
</g>
<!-- iaa_edition_catalog -->
<g id="node2" class="node">
<title>iaa_edition_catalog</title>
<g id="a_node2"><a xlink:href="../../tables/iaa_edition_catalog.html" xlink:title="iaa_edition_catalog" target="_top">
<polygon fill="#ffffff" stroke="transparent" points="8,-226 8,-460 177,-460 177,-226 8,-226"/>
<polygon fill="#f5f5f5" stroke="transparent" points="8.5,-438 8.5,-460 177.5,-460 177.5,-438 8.5,-438"/>
<polygon fill="none" stroke="#000000" points="8.5,-438 8.5,-460 177.5,-460 177.5,-438 8.5,-438"/>
<text text-anchor="start" x="13.5" y="-447.2" font-family="Helvetica,sans-Serif" font-weight="bold" font-size="11.00" fill="#000000">iaa_edition_catalog</text>
<text text-anchor="start" x="142.5" y="-446.2" font-family="Helvetica,sans-Serif" font-size="11.00" fill="#000000">[table]</text>
<polygon fill="none" stroke="#000000" points="8.5,-416 8.5,-438 177.5,-438 177.5,-416 8.5,-416"/>
<image xlink:href="../../images/primaryKeys.png" width="11px" height="12px" preserveAspectRatio="xMinYMin meet" x="13.5" y="-433"/>
<text text-anchor="start" x="28.5" y="-424.2" font-family="Helvetica,sans-Serif" font-size="11.00" fill="#000000">iaa_edition_catalog_id</text>
<polygon fill="#ffffff" stroke="transparent" points="8.5,-394 8.5,-416 177.5,-416 177.5,-394 8.5,-394"/>
<polygon fill="none" stroke="#000000" points="8.5,-394 8.5,-416 177.5,-416 177.5,-394 8.5,-394"/>
<text text-anchor="start" x="28.5" y="-402.2" font-family="Helvetica,sans-Serif" font-size="11.00" fill="#000000">manuscript</text>
<polygon fill="#ffffff" stroke="transparent" points="8.5,-372 8.5,-394 177.5,-394 177.5,-372 8.5,-372"/>
<polygon fill="none" stroke="#000000" points="8.5,-372 8.5,-394 177.5,-394 177.5,-372 8.5,-372"/>
<text text-anchor="start" x="28.5" y="-380.2" font-family="Helvetica,sans-Serif" font-size="11.00" fill="#000000">edition_name</text>
<polygon fill="#ffffff" stroke="transparent" points="8.5,-350 8.5,-372 177.5,-372 177.5,-350 8.5,-350"/>
<polygon fill="none" stroke="#000000" points="8.5,-350 8.5,-372 177.5,-372 177.5,-350 8.5,-350"/>
<text text-anchor="start" x="28.5" y="-358.2" font-family="Helvetica,sans-Serif" font-size="11.00" fill="#000000">edition_volume</text>
<polygon fill="#ffffff" stroke="transparent" points="8.5,-328 8.5,-350 177.5,-350 177.5,-328 8.5,-328"/>
<polygon fill="none" stroke="#000000" points="8.5,-328 8.5,-350 177.5,-350 177.5,-328 8.5,-328"/>
<text text-anchor="start" x="28.5" y="-336.2" font-family="Helvetica,sans-Serif" font-size="11.00" fill="#000000">edition_location_1</text>
<polygon fill="#ffffff" stroke="transparent" points="8.5,-306 8.5,-328 177.5,-328 177.5,-306 8.5,-306"/>
<polygon fill="none" stroke="#000000" points="8.5,-306 8.5,-328 177.5,-328 177.5,-306 8.5,-306"/>
<text text-anchor="start" x="28.5" y="-314.2" font-family="Helvetica,sans-Serif" font-size="11.00" fill="#000000">edition_location_2</text>
<polygon fill="#ffffff" stroke="transparent" points="8.5,-284 8.5,-306 177.5,-306 177.5,-284 8.5,-284"/>
<polygon fill="none" stroke="#000000" points="8.5,-284 8.5,-306 177.5,-306 177.5,-284 8.5,-284"/>
<text text-anchor="start" x="28.5" y="-292.2" font-family="Helvetica,sans-Serif" font-size="11.00" fill="#000000">edition_side</text>
<polygon fill="#ffffff" stroke="transparent" points="8.5,-262 8.5,-284 177.5,-284 177.5,-262 8.5,-262"/>
<polygon fill="none" stroke="#000000" points="8.5,-262 8.5,-284 177.5,-284 177.5,-262 8.5,-262"/>
<image xlink:href="../../images/foreignKeys.png" width="11px" height="12px" preserveAspectRatio="xMinYMin meet" x="13.5" y="-279"/>
<text text-anchor="start" x="28.5" y="-270.2" font-family="Helvetica,sans-Serif" font-size="11.00" fill="#000000">manuscript_id</text>
<polygon fill="none" stroke="#000000" points="8.5,-244 8.5,-262 177.5,-262 177.5,-244 8.5,-244"/>
<text text-anchor="start" x="11.5" y="-250.2" font-family="Helvetica,sans-Serif" font-size="11.00" fill="#000000">...</text>
<polygon fill="#ffffff" stroke="transparent" points="8.5,-226 8.5,-244 59.5,-244 59.5,-226 8.5,-226"/>
<polygon fill="none" stroke="#000000" points="8.5,-226 8.5,-244 59.5,-244 59.5,-226 8.5,-226"/>
<text text-anchor="start" x="11.5" y="-232.2" font-family="Helvetica,sans-Serif" font-size="11.00" fill="#000000">&lt; 1</text>
<polygon fill="#ffffff" stroke="transparent" points="59.5,-226 59.5,-244 140.5,-244 140.5,-226 59.5,-226"/>
<polygon fill="none" stroke="#000000" points="59.5,-226 59.5,-244 140.5,-244 140.5,-226 59.5,-226"/>
<text text-anchor="start" x="77.5" y="-232.2" font-family="Helvetica,sans-Serif" font-size="11.00" fill="#000000">37,640 rows</text>
<polygon fill="#ffffff" stroke="transparent" points="140.5,-226 140.5,-244 177.5,-244 177.5,-226 140.5,-226"/>
<polygon fill="none" stroke="#000000" points="140.5,-226 140.5,-244 177.5,-244 177.5,-226 140.5,-226"/>
<text text-anchor="start" x="158.5" y="-232.2" font-family="Helvetica,sans-Serif" font-size="11.00" fill="#000000">3 &gt;</text>
</a>
</g>
</g>
<!-- image_to_iaa_edition_catalog&#45;&gt;iaa_edition_catalog -->
<g id="edge1" class="edge">
<title>image_to_iaa_edition_catalog:w&#45;&gt;iaa_edition_catalog:e</title>
<path fill="none" stroke="#000000" d="M213.7844,-313.6299C183.2761,-333.3782 228.1636,-427 177.5,-427"/>
<polygon fill="#000000" stroke="#000000" points="220.2487,-311.9793 228.8907,-313.4881 224.1244,-310.9896 228,-310 228,-310 228,-310 224.1244,-310.9896 227.1093,-306.5119 220.2487,-311.9793 220.2487,-311.9793"/>
<ellipse fill="none" stroke="#000000" cx="217.1482" cy="-312.771" rx="3.2" ry="3.2"/>
</g>
<!-- image_catalog -->
<g id="node3" class="node">
<title>image_catalog</title>
<g id="a_node3"><a xlink:href="../../tables/image_catalog.html" xlink:title="image_catalog" target="_top">
<polygon fill="#ffffff" stroke="transparent" points="21,-37 21,-205 164,-205 164,-37 21,-37"/>
<polygon fill="#f5f5f5" stroke="transparent" points="21.5,-183 21.5,-205 164.5,-205 164.5,-183 21.5,-183"/>
<polygon fill="none" stroke="#000000" points="21.5,-183 21.5,-205 164.5,-205 164.5,-183 21.5,-183"/>
<text text-anchor="start" x="26.5" y="-192.2" font-family="Helvetica,sans-Serif" font-weight="bold" font-size="11.00" fill="#000000">image_catalog</text>
<text text-anchor="start" x="129.5" y="-191.2" font-family="Helvetica,sans-Serif" font-size="11.00" fill="#000000">[table]</text>
<polygon fill="none" stroke="#000000" points="21.5,-161 21.5,-183 164.5,-183 164.5,-161 21.5,-161"/>
<image xlink:href="../../images/primaryKeys.png" width="11px" height="12px" preserveAspectRatio="xMinYMin meet" x="26.5" y="-178"/>
<text text-anchor="start" x="41.5" y="-169.2" font-family="Helvetica,sans-Serif" font-size="11.00" fill="#000000">image_catalog_id</text>
<polygon fill="#ffffff" stroke="transparent" points="21.5,-139 21.5,-161 164.5,-161 164.5,-139 21.5,-139"/>
<polygon fill="none" stroke="#000000" points="21.5,-139 21.5,-161 164.5,-161 164.5,-139 21.5,-139"/>
<text text-anchor="start" x="41.5" y="-147.2" font-family="Helvetica,sans-Serif" font-size="11.00" fill="#000000">institution</text>
<polygon fill="#ffffff" stroke="transparent" points="21.5,-117 21.5,-139 164.5,-139 164.5,-117 21.5,-117"/>
<polygon fill="none" stroke="#000000" points="21.5,-117 21.5,-139 164.5,-139 164.5,-117 21.5,-117"/>
<text text-anchor="start" x="41.5" y="-125.2" font-family="Helvetica,sans-Serif" font-size="11.00" fill="#000000">catalog_number_1</text>
<polygon fill="#ffffff" stroke="transparent" points="21.5,-95 21.5,-117 164.5,-117 164.5,-95 21.5,-95"/>
<polygon fill="none" stroke="#000000" points="21.5,-95 21.5,-117 164.5,-117 164.5,-95 21.5,-95"/>
<text text-anchor="start" x="41.5" y="-103.2" font-family="Helvetica,sans-Serif" font-size="11.00" fill="#000000">catalog_number_2</text>
<polygon fill="#ffffff" stroke="transparent" points="21.5,-73 21.5,-95 164.5,-95 164.5,-73 21.5,-73"/>
<polygon fill="none" stroke="#000000" points="21.5,-73 21.5,-95 164.5,-95 164.5,-73 21.5,-73"/>
<text text-anchor="start" x="41.5" y="-81.2" font-family="Helvetica,sans-Serif" font-size="11.00" fill="#000000">catalog_side</text>
<polygon fill="none" stroke="#000000" points="21.5,-55 21.5,-73 164.5,-73 164.5,-55 21.5,-55"/>
<text text-anchor="start" x="24.5" y="-61.2" font-family="Helvetica,sans-Serif" font-size="11.00" fill="#000000">...</text>
<polygon fill="#ffffff" stroke="transparent" points="21.5,-37 21.5,-55 55.5,-55 55.5,-37 21.5,-37"/>
<polygon fill="none" stroke="#000000" points="21.5,-37 21.5,-55 55.5,-55 55.5,-37 21.5,-37"/>
<text text-anchor="start" x="24.5" y="-43.2" font-family="Helvetica,sans-Serif" font-size="11.00" fill="#000000"> &#160;</text>
<polygon fill="#ffffff" stroke="transparent" points="55.5,-37 55.5,-55 131.5,-55 131.5,-37 55.5,-37"/>
<polygon fill="none" stroke="#000000" points="55.5,-37 55.5,-55 131.5,-55 131.5,-37 55.5,-37"/>
<text text-anchor="start" x="68.5" y="-43.2" font-family="Helvetica,sans-Serif" font-size="11.00" fill="#000000">41,712 rows</text>
<polygon fill="#ffffff" stroke="transparent" points="131.5,-37 131.5,-55 164.5,-55 164.5,-37 131.5,-37"/>
<polygon fill="none" stroke="#000000" points="131.5,-37 131.5,-55 164.5,-55 164.5,-37 131.5,-37"/>
<text text-anchor="start" x="145.5" y="-43.2" font-family="Helvetica,sans-Serif" font-size="11.00" fill="#000000">3 &gt;</text>
</a>
</g>
</g>
<!-- image_to_iaa_edition_catalog&#45;&gt;image_catalog -->
<g id="edge2" class="edge">
<title>image_to_iaa_edition_catalog:w&#45;&gt;image_catalog:e</title>
<path fill="none" stroke="#000000" d="M213.7986,-284.8973C178.7058,-266.45 217.535,-172 164.5,-172"/>
<polygon fill="#000000" stroke="#000000" points="220.1844,-286.2924 227.2316,-291.517 224.0922,-287.1462 228,-288 228,-288 228,-288 224.0922,-287.1462 228.7684,-284.483 220.1844,-286.2924 220.1844,-286.2924"/>
<ellipse fill="none" stroke="#000000" cx="217.0581" cy="-285.6094" rx="3.2" ry="3.2"/>
</g>
</g>
</svg>
