<?xml version="1.0" encoding="UTF-8" standalone="no"?>
<!DOCTYPE svg PUBLIC "-//W3C//DTD SVG 1.1//EN"
 "http://www.w3.org/Graphics/SVG/1.1/DTD/svg11.dtd">
<!-- Generated by graphviz version 2.40.1 (20161225.0304)
 -->
<!-- Title: twoDegreesRelationshipsDiagram Pages: 1 -->
<svg width="914pt" height="466pt"
 viewBox="0.00 0.00 914.00 465.88" xmlns="http://www.w3.org/2000/svg" xmlns:xlink="http://www.w3.org/1999/xlink">
<g id="graph0" class="graph" transform="scale(1 1) rotate(0) translate(4 461.8794)">
<title>twoDegreesRelationshipsDiagram</title>
<polygon fill="#ffffff" stroke="transparent" points="-4,4 -4,-461.8794 910,-461.8794 910,4 -4,4"/>
<text text-anchor="middle" x="71.5" y="-7.2" font-family="Helvetica,sans-Serif" font-size="11.00" fill="#000000">Generated by SchemaSpy</text>
<!-- artefact_shape -->
<g id="node1" class="node">
<title>artefact_shape</title>
<g id="a_node1"><a xlink:href="../../tables/artefact_shape.html" xlink:title="artefact_shape" target="_top">
<polygon fill="#ffffff" stroke="transparent" points="437.5,-357 437.5,-415 559.5,-415 559.5,-357 437.5,-357"/>
<polygon fill="#f5f5f5" stroke="transparent" points="437.5,-393 437.5,-415 559.5,-415 559.5,-393 437.5,-393"/>
<polygon fill="none" stroke="#000000" points="437.5,-393 437.5,-415 559.5,-415 559.5,-393 437.5,-393"/>
<text text-anchor="start" x="442.5" y="-402.2" font-family="Helvetica,sans-Serif" font-weight="bold" font-size="11.00" fill="#000000">artefact_shape</text>
<text text-anchor="start" x="524.5" y="-401.2" font-family="Helvetica,sans-Serif" font-size="11.00" fill="#000000">[table]</text>
<polygon fill="none" stroke="#000000" points="437.5,-375 437.5,-393 559.5,-393 559.5,-375 437.5,-375"/>
<text text-anchor="start" x="440.5" y="-381.2" font-family="Helvetica,sans-Serif" font-size="11.00" fill="#000000">...</text>
<polygon fill="#ffffff" stroke="transparent" points="437.5,-357 437.5,-375 465.5,-375 465.5,-357 437.5,-357"/>
<polygon fill="none" stroke="#000000" points="437.5,-357 437.5,-375 465.5,-375 465.5,-357 437.5,-357"/>
<text text-anchor="start" x="440.5" y="-363.2" font-family="Helvetica,sans-Serif" font-size="11.00" fill="#000000">&lt; 3</text>
<polygon fill="#ffffff" stroke="transparent" points="465.5,-357 465.5,-375 534.5,-375 534.5,-357 465.5,-357"/>
<polygon fill="none" stroke="#000000" points="465.5,-357 465.5,-375 534.5,-375 534.5,-357 465.5,-357"/>
<text text-anchor="start" x="471.5" y="-363.2" font-family="Helvetica,sans-Serif" font-size="11.00" fill="#000000">23,787 rows</text>
<polygon fill="#ffffff" stroke="transparent" points="534.5,-357 534.5,-375 559.5,-375 559.5,-357 534.5,-357"/>
<polygon fill="none" stroke="#000000" points="534.5,-357 534.5,-375 559.5,-375 559.5,-357 534.5,-357"/>
<text text-anchor="start" x="540.5" y="-363.2" font-family="Helvetica,sans-Serif" font-size="11.00" fill="#000000">1 &gt;</text>
</a>
</g>
</g>
<!-- user -->
<g id="node2" class="node">
<title>user</title>
<g id="a_node2"><a xlink:href="../../tables/user.html" xlink:title="user" target="_top">
<polygon fill="#ffffff" stroke="transparent" points="206,-357 206,-415 286,-415 286,-357 206,-357"/>
<polygon fill="#f5f5f5" stroke="transparent" points="206,-393 206,-415 286,-415 286,-393 206,-393"/>
<polygon fill="none" stroke="#000000" points="206,-393 206,-415 286,-415 286,-393 206,-393"/>
<text text-anchor="start" x="211" y="-402.2" font-family="Helvetica,sans-Serif" font-weight="bold" font-size="11.00" fill="#000000">user</text>
<text text-anchor="start" x="251" y="-401.2" font-family="Helvetica,sans-Serif" font-size="11.00" fill="#000000">[table]</text>
<polygon fill="none" stroke="#000000" points="206,-375 206,-393 286,-393 286,-375 206,-375"/>
<text text-anchor="start" x="209" y="-381.2" font-family="Helvetica,sans-Serif" font-size="11.00" fill="#000000">...</text>
<polygon fill="#ffffff" stroke="transparent" points="206,-357 206,-375 219,-375 219,-357 206,-357"/>
<polygon fill="none" stroke="#000000" points="206,-357 206,-375 219,-375 219,-357 206,-357"/>
<text text-anchor="start" x="209" y="-363.2" font-family="Helvetica,sans-Serif" font-size="11.00" fill="#000000"> &#160;</text>
<polygon fill="#ffffff" stroke="transparent" points="219,-357 219,-375 258,-375 258,-357 219,-357"/>
<polygon fill="none" stroke="#000000" points="219,-357 219,-375 258,-375 258,-357 219,-357"/>
<text text-anchor="start" x="222" y="-363.2" font-family="Helvetica,sans-Serif" font-size="11.00" fill="#000000">3 rows</text>
<polygon fill="#ffffff" stroke="transparent" points="258,-357 258,-375 286,-375 286,-357 258,-357"/>
<polygon fill="none" stroke="#000000" points="258,-357 258,-375 286,-375 286,-357 258,-357"/>
<text text-anchor="start" x="261" y="-363.2" font-family="Helvetica,sans-Serif" font-size="11.00" fill="#000000">40 &gt;</text>
</a>
</g>
</g>
<!-- artefact_shape&#45;&gt;user -->
<g id="edge1" class="edge">
<title>artefact_shape:w&#45;&gt;user:e</title>
<path fill="none" stroke="#000000" d="M422.9477,-384C367.3092,-384 348.2044,-384 286,-384"/>
<polygon fill="#000000" stroke="#000000" points="429.5,-384.0001 437.5,-387.6 433.5,-384 437.5,-384 437.5,-384 437.5,-384 433.5,-384 437.5,-380.4 429.5,-384.0001 429.5,-384.0001"/>
<ellipse fill="none" stroke="#000000" cx="426.3" cy="-384.0001" rx="3.2" ry="3.2"/>
</g>
<!-- SQE_image -->
<g id="node3" class="node">
<title>SQE_image</title>
<g id="a_node3"><a xlink:href="../../tables/SQE_image.html" xlink:title="SQE_image" target="_top">
<polygon fill="#ffffff" stroke="transparent" points="177,-139 177,-285 315,-285 315,-139 177,-139"/>
<polygon fill="#f5f5f5" stroke="transparent" points="177,-263 177,-285 315,-285 315,-263 177,-263"/>
<polygon fill="none" stroke="#000000" points="177,-263 177,-285 315,-285 315,-263 177,-263"/>
<text text-anchor="start" x="182" y="-272.2" font-family="Helvetica,sans-Serif" font-weight="bold" font-size="11.00" fill="#000000">SQE_image</text>
<text text-anchor="start" x="280" y="-271.2" font-family="Helvetica,sans-Serif" font-size="11.00" fill="#000000">[table]</text>
<polygon fill="none" stroke="#000000" points="177,-241 177,-263 315,-263 315,-241 177,-241"/>
<image xlink:href="../../images/primaryKeys.png" width="11px" height="12px" preserveAspectRatio="xMinYMin meet" x="182" y="-258"/>
<text text-anchor="start" x="197" y="-249.2" font-family="Helvetica,sans-Serif" font-size="11.00" fill="#000000">sqe_image_id</text>
<polygon fill="#ffffff" stroke="transparent" points="177,-219 177,-241 315,-241 315,-219 177,-219"/>
<polygon fill="none" stroke="#000000" points="177,-219 177,-241 315,-241 315,-219 177,-219"/>
<image xlink:href="../../images/foreignKeys.png" width="11px" height="12px" preserveAspectRatio="xMinYMin meet" x="182" y="-236"/>
<text text-anchor="start" x="197" y="-227.2" font-family="Helvetica,sans-Serif" font-size="11.00" fill="#000000">image_urls_id</text>
<polygon fill="#ffffff" stroke="transparent" points="177,-197 177,-219 315,-219 315,-197 177,-197"/>
<polygon fill="none" stroke="#000000" points="177,-197 177,-219 315,-219 315,-197 177,-197"/>
<text text-anchor="start" x="197" y="-205.2" font-family="Helvetica,sans-Serif" font-size="11.00" fill="#000000">filename</text>
<polygon fill="#ffffff" stroke="transparent" points="177,-175 177,-197 315,-197 315,-175 177,-175"/>
<polygon fill="none" stroke="#000000" points="177,-175 177,-197 315,-197 315,-175 177,-175"/>
<image xlink:href="../../images/foreignKeys.png" width="11px" height="12px" preserveAspectRatio="xMinYMin meet" x="182" y="-192"/>
<text text-anchor="start" x="197" y="-183.2" font-family="Helvetica,sans-Serif" font-size="11.00" fill="#000000">image_catalog_id</text>
<polygon fill="none" stroke="#000000" points="177,-157 177,-175 315,-175 315,-157 177,-157"/>
<text text-anchor="start" x="180" y="-163.2" font-family="Helvetica,sans-Serif" font-size="11.00" fill="#000000">...</text>
<polygon fill="#ffffff" stroke="transparent" points="177,-139 177,-157 213,-157 213,-139 177,-139"/>
<polygon fill="none" stroke="#000000" points="177,-139 177,-157 213,-157 213,-139 177,-139"/>
<text text-anchor="start" x="180" y="-145.2" font-family="Helvetica,sans-Serif" font-size="11.00" fill="#000000">&lt; 2</text>
<polygon fill="#ffffff" stroke="transparent" points="213,-139 213,-157 286,-157 286,-139 213,-139"/>
<polygon fill="none" stroke="#000000" points="213,-139 213,-157 286,-157 286,-139 213,-139"/>
<text text-anchor="start" x="223" y="-145.2" font-family="Helvetica,sans-Serif" font-size="11.00" fill="#000000">97,684 rows</text>
<polygon fill="#ffffff" stroke="transparent" points="286,-139 286,-157 315,-157 315,-139 286,-139"/>
<polygon fill="none" stroke="#000000" points="286,-139 286,-157 315,-157 315,-139 286,-139"/>
<text text-anchor="start" x="296" y="-145.2" font-family="Helvetica,sans-Serif" font-size="11.00" fill="#000000">4 &gt;</text>
</a>
</g>
</g>
<!-- artefact_shape&#45;&gt;SQE_image -->
<g id="edge2" class="edge">
<title>artefact_shape:w&#45;&gt;SQE_image:e</title>
<path fill="none" stroke="#000000" d="M422.9284,-383.5183C393.7923,-381.3643 380.1635,-371.6205 356,-347 323.7886,-314.1794 360.9866,-252 315,-252"/>
<polygon fill="#000000" stroke="#000000" points="429.5044,-383.7356 437.381,-387.598 433.5022,-383.8678 437.5,-384 437.5,-384 437.5,-384 433.5022,-383.8678 437.619,-380.402 429.5044,-383.7356 429.5044,-383.7356"/>
<ellipse fill="none" stroke="#000000" cx="426.3061" cy="-383.6299" rx="3.2" ry="3.2"/>
</g>
<!-- image_catalog -->
<g id="node7" class="node">
<title>image_catalog</title>
<g id="a_node7"><a xlink:href="../../tables/image_catalog.html" xlink:title="image_catalog" target="_top">
<polygon fill="#ffffff" stroke="transparent" points="8,-142 8,-200 128,-200 128,-142 8,-142"/>
<polygon fill="#f5f5f5" stroke="transparent" points="8,-178 8,-200 128,-200 128,-178 8,-178"/>
<polygon fill="none" stroke="#000000" points="8,-178 8,-200 128,-200 128,-178 8,-178"/>
<text text-anchor="start" x="13" y="-187.2" font-family="Helvetica,sans-Serif" font-weight="bold" font-size="11.00" fill="#000000">image_catalog</text>
<text text-anchor="start" x="93" y="-186.2" font-family="Helvetica,sans-Serif" font-size="11.00" fill="#000000">[table]</text>
<polygon fill="none" stroke="#000000" points="8,-160 8,-178 128,-178 128,-160 8,-160"/>
<text text-anchor="start" x="11" y="-166.2" font-family="Helvetica,sans-Serif" font-size="11.00" fill="#000000">...</text>
<polygon fill="#ffffff" stroke="transparent" points="8,-142 8,-160 30,-160 30,-142 8,-142"/>
<polygon fill="none" stroke="#000000" points="8,-142 8,-160 30,-160 30,-142 8,-142"/>
<text text-anchor="start" x="11" y="-148.2" font-family="Helvetica,sans-Serif" font-size="11.00" fill="#000000"> &#160;</text>
<polygon fill="#ffffff" stroke="transparent" points="30,-142 30,-160 101,-160 101,-142 30,-142"/>
<polygon fill="none" stroke="#000000" points="30,-142 30,-160 101,-160 101,-142 30,-142"/>
<text text-anchor="start" x="38" y="-148.2" font-family="Helvetica,sans-Serif" font-size="11.00" fill="#000000">41,712 rows</text>
<polygon fill="#ffffff" stroke="transparent" points="101,-142 101,-160 128,-160 128,-142 101,-142"/>
<polygon fill="none" stroke="#000000" points="101,-142 101,-160 128,-160 128,-142 101,-142"/>
<text text-anchor="start" x="109" y="-148.2" font-family="Helvetica,sans-Serif" font-size="11.00" fill="#000000">3 &gt;</text>
</a>
</g>
</g>
<!-- SQE_image&#45;&gt;image_catalog -->
<g id="edge8" class="edge">
<title>SQE_image:w&#45;&gt;image_catalog:e</title>
<path fill="none" stroke="#000000" d="M162.4993,-183.1928C151.1152,-178.3643 145.1083,-169 128,-169"/>
<polygon fill="#000000" stroke="#000000" points="169.1458,-184.4795 176.3158,-189.5344 173.0729,-185.2397 177,-186 177,-186 177,-186 173.0729,-185.2397 177.6842,-182.4656 169.1458,-184.4795 169.1458,-184.4795"/>
<ellipse fill="none" stroke="#000000" cx="166.0042" cy="-183.8712" rx="3.2" ry="3.2"/>
</g>
<!-- image_urls -->
<g id="node8" class="node">
<title>image_urls</title>
<g id="a_node8"><a xlink:href="../../tables/image_urls.html" xlink:title="image_urls" target="_top">
<polygon fill="#ffffff" stroke="transparent" points="17,-221 17,-279 119,-279 119,-221 17,-221"/>
<polygon fill="#f5f5f5" stroke="transparent" points="17,-257 17,-279 119,-279 119,-257 17,-257"/>
<polygon fill="none" stroke="#000000" points="17,-257 17,-279 119,-279 119,-257 17,-257"/>
<text text-anchor="start" x="22" y="-266.2" font-family="Helvetica,sans-Serif" font-weight="bold" font-size="11.00" fill="#000000">image_urls</text>
<text text-anchor="start" x="84" y="-265.2" font-family="Helvetica,sans-Serif" font-size="11.00" fill="#000000">[table]</text>
<polygon fill="none" stroke="#000000" points="17,-239 17,-257 119,-257 119,-239 17,-239"/>
<text text-anchor="start" x="20" y="-245.2" font-family="Helvetica,sans-Serif" font-size="11.00" fill="#000000">...</text>
<polygon fill="#ffffff" stroke="transparent" points="17,-221 17,-239 44,-239 44,-221 17,-221"/>
<polygon fill="none" stroke="#000000" points="17,-221 17,-239 44,-239 44,-221 17,-221"/>
<text text-anchor="start" x="20" y="-227.2" font-family="Helvetica,sans-Serif" font-size="11.00" fill="#000000"> &#160;</text>
<polygon fill="#ffffff" stroke="transparent" points="44,-221 44,-239 90,-239 90,-221 44,-221"/>
<polygon fill="none" stroke="#000000" points="44,-221 44,-239 90,-239 90,-221 44,-221"/>
<text text-anchor="start" x="54" y="-227.2" font-family="Helvetica,sans-Serif" font-size="11.00" fill="#000000">3 rows</text>
<polygon fill="#ffffff" stroke="transparent" points="90,-221 90,-239 119,-239 119,-221 90,-221"/>
<polygon fill="none" stroke="#000000" points="90,-221 90,-239 119,-239 119,-221 90,-221"/>
<text text-anchor="start" x="100" y="-227.2" font-family="Helvetica,sans-Serif" font-size="11.00" fill="#000000">1 &gt;</text>
</a>
</g>
</g>
<!-- SQE_image&#45;&gt;image_urls -->
<g id="edge9" class="edge">
<title>SQE_image:w&#45;&gt;image_urls:e</title>
<path fill="none" stroke="#000000" d="M162.5552,-232.0648C147.2918,-236.7928 140.2973,-248 119,-248"/>
<polygon fill="#000000" stroke="#000000" points="169.0805,-231.1321 177.5094,-233.5638 173.0403,-230.5661 177,-230 177,-230 177,-230 173.0403,-230.5661 176.4906,-226.4362 169.0805,-231.1321 169.0805,-231.1321"/>
<ellipse fill="none" stroke="#000000" cx="165.9127" cy="-231.5849" rx="3.2" ry="3.2"/>
</g>
<!-- image_to_image_map -->
<g id="node4" class="node">
<title>image_to_image_map</title>
<g id="a_node4"><a xlink:href="../../tables/image_to_image_map.html" xlink:title="image_to_image_map" target="_top">
<polygon fill="#ffffff" stroke="transparent" points="364,-37 364,-257 633,-257 633,-37 364,-37"/>
<polygon fill="#f5f5f5" stroke="transparent" points="366.5,-233 366.5,-255 631.5,-255 631.5,-233 366.5,-233"/>
<polygon fill="none" stroke="#000000" points="366.5,-233 366.5,-255 631.5,-255 631.5,-233 366.5,-233"/>
<text text-anchor="start" x="371.5" y="-242.2" font-family="Helvetica,sans-Serif" font-weight="bold" font-size="11.00" fill="#000000">image_to_image_map</text>
<text text-anchor="start" x="596.5" y="-241.2" font-family="Helvetica,sans-Serif" font-size="11.00" fill="#000000">[table]</text>
<polygon fill="none" stroke="#000000" points="366.5,-211 366.5,-233 549.5,-233 549.5,-211 366.5,-211"/>
<image xlink:href="../../images/primaryKeys.png" width="11px" height="12px" preserveAspectRatio="xMinYMin meet" x="371.5" y="-228"/>
<text text-anchor="start" x="386.5" y="-219.2" font-family="Helvetica,sans-Serif" font-size="11.00" fill="#000000">image_to_image_map_id</text>
<polygon fill="none" stroke="#000000" points="549.5,-211 549.5,-233 631.5,-233 631.5,-211 549.5,-211"/>
<text text-anchor="start" x="552.5" y="-219.2" font-family="Helvetica,sans-Serif" font-size="11.00" fill="#000000">int unsigned[10]</text>
<polygon fill="#ffffff" stroke="transparent" points="366.5,-189 366.5,-211 549.5,-211 549.5,-189 366.5,-189"/>
<polygon fill="none" stroke="#000000" points="366.5,-189 366.5,-211 549.5,-211 549.5,-189 366.5,-189"/>
<image xlink:href="../../images/foreignKeys.png" width="11px" height="12px" preserveAspectRatio="xMinYMin meet" x="371.5" y="-206"/>
<text text-anchor="start" x="386.5" y="-197.2" font-family="Helvetica,sans-Serif" font-size="11.00" fill="#000000">image1_id</text>
<polygon fill="none" stroke="#000000" points="549.5,-189 549.5,-211 631.5,-211 631.5,-189 549.5,-189"/>
<text text-anchor="start" x="552.5" y="-197.2" font-family="Helvetica,sans-Serif" font-size="11.00" fill="#000000">int unsigned[10]</text>
<polygon fill="#ffffff" stroke="transparent" points="366.5,-167 366.5,-189 549.5,-189 549.5,-167 366.5,-167"/>
<polygon fill="none" stroke="#000000" points="366.5,-167 366.5,-189 549.5,-189 549.5,-167 366.5,-167"/>
<image xlink:href="../../images/foreignKeys.png" width="11px" height="12px" preserveAspectRatio="xMinYMin meet" x="371.5" y="-184"/>
<text text-anchor="start" x="386.5" y="-175.2" font-family="Helvetica,sans-Serif" font-size="11.00" fill="#000000">image2_id</text>
<polygon fill="none" stroke="#000000" points="549.5,-167 549.5,-189 631.5,-189 631.5,-167 549.5,-167"/>
<text text-anchor="start" x="552.5" y="-175.2" font-family="Helvetica,sans-Serif" font-size="11.00" fill="#000000">int unsigned[10]</text>
<polygon fill="none" stroke="#000000" points="366.5,-145 366.5,-167 549.5,-167 549.5,-145 366.5,-145"/>
<text text-anchor="start" x="386.5" y="-153.2" font-family="Helvetica,sans-Serif" font-size="11.00" fill="#000000">region_on_image1</text>
<polygon fill="none" stroke="#000000" points="549.5,-145 549.5,-167 631.5,-167 631.5,-145 549.5,-145"/>
<text text-anchor="start" x="552.5" y="-153.2" font-family="Helvetica,sans-Serif" font-size="11.00" fill="#000000">polygon[0]</text>
<polygon fill="none" stroke="#000000" points="366.5,-123 366.5,-145 549.5,-145 549.5,-123 366.5,-123"/>
<text text-anchor="start" x="386.5" y="-131.2" font-family="Helvetica,sans-Serif" font-size="11.00" fill="#000000">region_on_image2</text>
<polygon fill="none" stroke="#000000" points="549.5,-123 549.5,-145 631.5,-145 631.5,-123 549.5,-123"/>
<text text-anchor="start" x="552.5" y="-131.2" font-family="Helvetica,sans-Serif" font-size="11.00" fill="#000000">polygon[0]</text>
<polygon fill="#ffffff" stroke="transparent" points="366.5,-101 366.5,-123 549.5,-123 549.5,-101 366.5,-101"/>
<polygon fill="none" stroke="#000000" points="366.5,-101 366.5,-123 549.5,-123 549.5,-101 366.5,-101"/>
<text text-anchor="start" x="386.5" y="-109.2" font-family="Helvetica,sans-Serif" font-size="11.00" fill="#000000">transform_matrix</text>
<polygon fill="none" stroke="#000000" points="549.5,-101 549.5,-123 631.5,-123 631.5,-101 549.5,-101"/>
<text text-anchor="start" x="552.5" y="-109.2" font-family="Helvetica,sans-Serif" font-size="11.00" fill="#000000">varchar[255]</text>
<polygon fill="#ffffff" stroke="transparent" points="366.5,-79 366.5,-101 549.5,-101 549.5,-79 366.5,-79"/>
<polygon fill="none" stroke="#000000" points="366.5,-79 366.5,-101 549.5,-101 549.5,-79 366.5,-79"/>
<text text-anchor="start" x="386.5" y="-87.2" font-family="Helvetica,sans-Serif" font-size="11.00" fill="#000000">region1_hash</text>
<polygon fill="none" stroke="#000000" points="549.5,-79 549.5,-101 631.5,-101 631.5,-79 549.5,-79"/>
<text text-anchor="start" x="552.5" y="-87.2" font-family="Helvetica,sans-Serif" font-size="11.00" fill="#000000">binary[128]</text>
<polygon fill="#ffffff" stroke="transparent" points="366.5,-57 366.5,-79 549.5,-79 549.5,-57 366.5,-57"/>
<polygon fill="none" stroke="#000000" points="366.5,-57 366.5,-79 549.5,-79 549.5,-57 366.5,-57"/>
<text text-anchor="start" x="386.5" y="-65.2" font-family="Helvetica,sans-Serif" font-size="11.00" fill="#000000">region2_hash</text>
<polygon fill="none" stroke="#000000" points="549.5,-57 549.5,-79 631.5,-79 631.5,-57 549.5,-57"/>
<text text-anchor="start" x="552.5" y="-65.2" font-family="Helvetica,sans-Serif" font-size="11.00" fill="#000000">binary[128]</text>
<polygon fill="#ffffff" stroke="transparent" points="366.5,-39 366.5,-57 435.5,-57 435.5,-39 366.5,-39"/>
<polygon fill="none" stroke="#000000" points="366.5,-39 366.5,-57 435.5,-57 435.5,-39 366.5,-39"/>
<text text-anchor="start" x="369.5" y="-45.2" font-family="Helvetica,sans-Serif" font-size="11.00" fill="#000000">&lt; 2</text>
<polygon fill="#ffffff" stroke="transparent" points="435.5,-39 435.5,-57 549.5,-57 549.5,-39 435.5,-39"/>
<polygon fill="none" stroke="#000000" points="435.5,-39 435.5,-57 549.5,-57 549.5,-39 435.5,-39"/>
<text text-anchor="start" x="486.5" y="-45.2" font-family="Helvetica,sans-Serif" font-size="11.00" fill="#000000">69,272 rows</text>
<polygon fill="#ffffff" stroke="transparent" points="549.5,-39 549.5,-57 631.5,-57 631.5,-39 549.5,-39"/>
<polygon fill="none" stroke="#000000" points="549.5,-39 549.5,-57 631.5,-57 631.5,-39 549.5,-39"/>
<text text-anchor="start" x="612.5" y="-45.2" font-family="Helvetica,sans-Serif" font-size="11.00" fill="#000000">2 &gt;</text>
<polygon fill="none" stroke="#000000" stroke-width="2" points="365,-38 365,-256 632,-256 632,-38 365,-38"/>
</a>
</g>
</g>
<!-- image_to_image_map&#45;&gt;SQE_image -->
<g id="edge3" class="edge">
<title>image_to_image_map:w&#45;&gt;SQE_image:e</title>
<path fill="none" stroke="#000000" d="M352.4561,-204.7988C337.4356,-217.6719 341.4284,-252 315,-252"/>
<polygon fill="#000000" stroke="#000000" points="358.9297,-202.5868 367.6641,-203.4066 362.7149,-201.2934 366.5,-200 366.5,-200 366.5,-200 362.7149,-201.2934 365.3359,-196.5934 358.9297,-202.5868 358.9297,-202.5868"/>
<ellipse fill="none" stroke="#000000" cx="355.9016" cy="-203.6215" rx="3.2" ry="3.2"/>
</g>
<!-- image_to_image_map&#45;&gt;SQE_image -->
<g id="edge4" class="edge">
<title>image_to_image_map:w&#45;&gt;SQE_image:e</title>
<path fill="none" stroke="#000000" d="M352.7488,-182.4074C333.4187,-198.3383 349.1218,-252 315,-252"/>
<polygon fill="#000000" stroke="#000000" points="358.8817,-180.4418 367.5988,-181.4282 362.6909,-179.2209 366.5,-178 366.5,-178 366.5,-178 362.6909,-179.2209 365.4012,-174.5718 358.8817,-180.4418 358.8817,-180.4418"/>
<ellipse fill="none" stroke="#000000" cx="355.8344" cy="-181.4185" rx="3.2" ry="3.2"/>
</g>
<!-- image_to_image_map_author -->
<g id="node5" class="node">
<title>image_to_image_map_author</title>
<g id="a_node5"><a xlink:href="../../tables/image_to_image_map_author.html" xlink:title="image_to_image_map_author" target="_top">
<polygon fill="#ffffff" stroke="transparent" points="682,-354 682,-438 898,-438 898,-354 682,-354"/>
<polygon fill="#f5f5f5" stroke="transparent" points="682,-416 682,-438 898,-438 898,-416 682,-416"/>
<polygon fill="none" stroke="#000000" points="682,-416 682,-438 898,-438 898,-416 682,-416"/>
<text text-anchor="start" x="687" y="-425.2" font-family="Helvetica,sans-Serif" font-weight="bold" font-size="11.00" fill="#000000">image_to_image_map_author</text>
<text text-anchor="start" x="863" y="-424.2" font-family="Helvetica,sans-Serif" font-size="11.00" fill="#000000">[table]</text>
<polygon fill="none" stroke="#000000" points="682,-394 682,-416 898,-416 898,-394 682,-394"/>
<image xlink:href="../../images/primaryKeys.png" width="11px" height="12px" preserveAspectRatio="xMinYMin meet" x="687" y="-411"/>
<text text-anchor="start" x="702" y="-402.2" font-family="Helvetica,sans-Serif" font-size="11.00" fill="#000000">image_to_image_map_id</text>
<polygon fill="none" stroke="#000000" points="682,-372 682,-394 898,-394 898,-372 682,-372"/>
<image xlink:href="../../images/primaryKeys.png" width="11px" height="12px" preserveAspectRatio="xMinYMin meet" x="687" y="-389"/>
<text text-anchor="start" x="702" y="-380.2" font-family="Helvetica,sans-Serif" font-size="11.00" fill="#000000">user_id</text>
<polygon fill="#ffffff" stroke="transparent" points="682,-354 682,-372 761,-372 761,-354 682,-354"/>
<polygon fill="none" stroke="#000000" points="682,-354 682,-372 761,-372 761,-354 682,-354"/>
<text text-anchor="start" x="685" y="-360.2" font-family="Helvetica,sans-Serif" font-size="11.00" fill="#000000">&lt; 2</text>
<polygon fill="#ffffff" stroke="transparent" points="761,-354 761,-372 856,-372 856,-354 761,-354"/>
<polygon fill="none" stroke="#000000" points="761,-354 761,-372 856,-372 856,-354 761,-354"/>
<text text-anchor="start" x="793" y="-360.2" font-family="Helvetica,sans-Serif" font-size="11.00" fill="#000000">72,198 rows</text>
<polygon fill="#ffffff" stroke="transparent" points="856,-354 856,-372 898,-372 898,-354 856,-354"/>
<polygon fill="none" stroke="#000000" points="856,-354 856,-372 898,-372 898,-354 856,-354"/>
<text text-anchor="start" x="888" y="-360.2" font-family="Helvetica,sans-Serif" font-size="11.00" fill="#000000"> &#160;</text>
</a>
</g>
</g>
<!-- image_to_image_map_author&#45;&gt;user -->
<g id="edge6" class="edge">
<title>image_to_image_map_author:w&#45;&gt;user:e</title>
<path fill="none" stroke="#000000" d="M668.1692,-387.9587C658.2911,-397.4904 659.3952,-418.1227 641,-426 524.5605,-475.8627 478.0706,-459.8116 356,-426 321.035,-416.3153 322.2815,-384 286,-384"/>
<polygon fill="#000000" stroke="#000000" points="674.4694,-385.7 683.215,-386.3888 678.2347,-384.35 682,-383 682,-383 682,-383 678.2347,-384.35 680.785,-379.6112 674.4694,-385.7 674.4694,-385.7"/>
<ellipse fill="none" stroke="#000000" cx="671.4571" cy="-386.7799" rx="3.2" ry="3.2"/>
</g>
<!-- image_to_image_map_author&#45;&gt;image_to_image_map -->
<g id="edge5" class="edge">
<title>image_to_image_map_author:w&#45;&gt;image_to_image_map:e</title>
<path fill="none" stroke="#000000" d="M667.7531,-402.6862C612.4378,-381.5023 710.2704,-222 631.5,-222"/>
<polygon fill="#000000" stroke="#000000" points="674.1035,-403.7175 681.4229,-408.5534 678.0517,-404.3587 682,-405 682,-405 682,-405 678.0517,-404.3587 682.5771,-401.4466 674.1035,-403.7175 674.1035,-403.7175"/>
<ellipse fill="none" stroke="#000000" cx="670.9448" cy="-403.2045" rx="3.2" ry="3.2"/>
</g>
<!-- point_to_point_map -->
<g id="node6" class="node">
<title>point_to_point_map</title>
<g id="a_node6"><a xlink:href="../../tables/point_to_point_map.html" xlink:title="point_to_point_map" target="_top">
<polygon fill="#ffffff" stroke="transparent" points="698.5,-175 698.5,-277 881.5,-277 881.5,-175 698.5,-175"/>
<polygon fill="#f5f5f5" stroke="transparent" points="699,-255 699,-277 882,-277 882,-255 699,-255"/>
<polygon fill="none" stroke="#000000" points="699,-255 699,-277 882,-277 882,-255 699,-255"/>
<text text-anchor="start" x="704" y="-264.2" font-family="Helvetica,sans-Serif" font-weight="bold" font-size="11.00" fill="#000000">point_to_point_map</text>
<text text-anchor="start" x="847" y="-263.2" font-family="Helvetica,sans-Serif" font-size="11.00" fill="#000000">[table]</text>
<polygon fill="none" stroke="#000000" points="699,-233 699,-255 882,-255 882,-233 699,-233"/>
<image xlink:href="../../images/primaryKeys.png" width="11px" height="12px" preserveAspectRatio="xMinYMin meet" x="704" y="-250"/>
<text text-anchor="start" x="719" y="-241.2" font-family="Helvetica,sans-Serif" font-size="11.00" fill="#000000">point_to_point_map_id</text>
<polygon fill="#ffffff" stroke="transparent" points="699,-211 699,-233 882,-233 882,-211 699,-211"/>
<polygon fill="none" stroke="#000000" points="699,-211 699,-233 882,-233 882,-211 699,-211"/>
<image xlink:href="../../images/foreignKeys.png" width="11px" height="12px" preserveAspectRatio="xMinYMin meet" x="704" y="-228"/>
<text text-anchor="start" x="719" y="-219.2" font-family="Helvetica,sans-Serif" font-size="11.00" fill="#000000">image_to_image_map_id</text>
<polygon fill="none" stroke="#000000" points="699,-193 699,-211 882,-211 882,-193 699,-193"/>
<text text-anchor="start" x="702" y="-199.2" font-family="Helvetica,sans-Serif" font-size="11.00" fill="#000000">...</text>
<polygon fill="#ffffff" stroke="transparent" points="699,-175 699,-193 775,-193 775,-175 699,-175"/>
<polygon fill="none" stroke="#000000" points="699,-175 699,-193 775,-193 775,-175 699,-175"/>
<text text-anchor="start" x="702" y="-181.2" font-family="Helvetica,sans-Serif" font-size="11.00" fill="#000000">&lt; 1</text>
<polygon fill="#ffffff" stroke="transparent" points="775,-175 775,-193 841,-193 841,-175 775,-175"/>
<polygon fill="none" stroke="#000000" points="775,-175 775,-193 841,-193 841,-175 775,-175"/>
<text text-anchor="start" x="805" y="-181.2" font-family="Helvetica,sans-Serif" font-size="11.00" fill="#000000">0 rows</text>
<polygon fill="#ffffff" stroke="transparent" points="841,-175 841,-193 882,-193 882,-175 841,-175"/>
<polygon fill="none" stroke="#000000" points="841,-175 841,-193 882,-193 882,-175 841,-175"/>
<text text-anchor="start" x="872" y="-181.2" font-family="Helvetica,sans-Serif" font-size="11.00" fill="#000000"> &#160;</text>
</a>
</g>
</g>
<!-- point_to_point_map&#45;&gt;image_to_image_map -->
<g id="edge7" class="edge">
<title>point_to_point_map:w&#45;&gt;image_to_image_map:e</title>
<path fill="none" stroke="#000000" d="M684.4733,-222C665.4877,-222 655.9922,-222 631.5,-222"/>
<polygon fill="#000000" stroke="#000000" points="691,-222.0001 699,-225.6 695,-222 699,-222 699,-222 699,-222 695,-222 699,-218.4 691,-222.0001 691,-222.0001"/>
<ellipse fill="none" stroke="#000000" cx="687.8" cy="-222.0001" rx="3.2" ry="3.2"/>
</g>
<!-- SQE_image_author -->
<g id="node9" class="node">
<title>SQE_image_author</title>
<g id="a_node9"><a xlink:href="../../tables/SQE_image_author.html" xlink:title="SQE_image_author" target="_top">
<polygon fill="#ffffff" stroke="transparent" points="425.5,-278 425.5,-336 571.5,-336 571.5,-278 425.5,-278"/>
<polygon fill="#f5f5f5" stroke="transparent" points="425.5,-314 425.5,-336 571.5,-336 571.5,-314 425.5,-314"/>
<polygon fill="none" stroke="#000000" points="425.5,-314 425.5,-336 571.5,-336 571.5,-314 425.5,-314"/>
<text text-anchor="start" x="430.5" y="-323.2" font-family="Helvetica,sans-Serif" font-weight="bold" font-size="11.00" fill="#000000">SQE_image_author</text>
<text text-anchor="start" x="536.5" y="-322.2" font-family="Helvetica,sans-Serif" font-size="11.00" fill="#000000">[table]</text>
<polygon fill="none" stroke="#000000" points="425.5,-296 425.5,-314 571.5,-314 571.5,-296 425.5,-296"/>
<text text-anchor="start" x="428.5" y="-302.2" font-family="Helvetica,sans-Serif" font-size="11.00" fill="#000000">...</text>
<polygon fill="#ffffff" stroke="transparent" points="425.5,-278 425.5,-296 469.5,-296 469.5,-278 425.5,-278"/>
<polygon fill="none" stroke="#000000" points="425.5,-278 425.5,-296 469.5,-296 469.5,-278 425.5,-278"/>
<text text-anchor="start" x="428.5" y="-284.2" font-family="Helvetica,sans-Serif" font-size="11.00" fill="#000000">&lt; 2</text>
<polygon fill="#ffffff" stroke="transparent" points="469.5,-278 469.5,-296 546.5,-296 546.5,-278 469.5,-278"/>
<polygon fill="none" stroke="#000000" points="469.5,-278 469.5,-296 546.5,-296 546.5,-278 469.5,-278"/>
<text text-anchor="start" x="483.5" y="-284.2" font-family="Helvetica,sans-Serif" font-size="11.00" fill="#000000">99,702 rows</text>
<polygon fill="#ffffff" stroke="transparent" points="546.5,-278 546.5,-296 571.5,-296 571.5,-278 546.5,-278"/>
<polygon fill="none" stroke="#000000" points="546.5,-278 546.5,-296 571.5,-296 571.5,-278 546.5,-278"/>
<text text-anchor="start" x="561.5" y="-284.2" font-family="Helvetica,sans-Serif" font-size="11.00" fill="#000000"> &#160;</text>
</a>
</g>
</g>
<!-- SQE_image_author&#45;&gt;user -->
<g id="edge11" class="edge">
<title>SQE_image_author:w&#45;&gt;user:e</title>
<path fill="none" stroke="#000000" d="M410.8018,-306.2409C354.2852,-316.2914 351.9634,-384 286,-384"/>
<polygon fill="#000000" stroke="#000000" points="417.5284,-305.6731 425.8029,-308.5872 421.5142,-305.3365 425.5,-305 425.5,-305 425.5,-305 421.5142,-305.3365 425.1971,-301.4128 417.5284,-305.6731 417.5284,-305.6731"/>
<ellipse fill="none" stroke="#000000" cx="414.3397" cy="-305.9423" rx="3.2" ry="3.2"/>
</g>
<!-- SQE_image_author&#45;&gt;SQE_image -->
<g id="edge10" class="edge">
<title>SQE_image_author:w&#45;&gt;SQE_image:e</title>
<path fill="none" stroke="#000000" d="M415.2198,-303.1137C385.9408,-293.6723 339.1489,-252 315,-252"/>
<polygon fill="#000000" stroke="#000000" points="425.4351,-300.9213 423.9912,-308.7899 422.4175,-308.5012 423.8613,-300.6325 425.4351,-300.9213"/>
<polyline fill="none" stroke="#000000" points="425.5,-305 421.5657,-304.2781 "/>
<ellipse fill="none" stroke="#000000" cx="418.4182" cy="-303.7005" rx="3.2" ry="3.2"/>
</g>
</g>
</svg>
