<?xml version="1.0" encoding="UTF-8" standalone="no"?>
<!DOCTYPE svg PUBLIC "-//W3C//DTD SVG 1.1//EN"
 "http://www.w3.org/Graphics/SVG/1.1/DTD/svg11.dtd">
<!-- Generated by graphviz version 2.40.1 (20161225.0304)
 -->
<!-- Title: oneDegreeRelationshipsDiagram Pages: 1 -->
<svg width="745pt" height="330pt"
 viewBox="0.00 0.00 745.00 330.00" xmlns="http://www.w3.org/2000/svg" xmlns:xlink="http://www.w3.org/1999/xlink">
<g id="graph0" class="graph" transform="scale(1 1) rotate(0) translate(4 326)">
<title>oneDegreeRelationshipsDiagram</title>
<polygon fill="#ffffff" stroke="transparent" points="-4,4 -4,-326 741,-326 741,4 -4,4"/>
<text text-anchor="middle" x="71.5" y="-7.2" font-family="Helvetica,sans-Serif" font-size="11.00" fill="#000000">Generated by SchemaSpy</text>
<!-- image_to_image_map -->
<g id="node1" class="node">
<title>image_to_image_map</title>
<g id="a_node1"><a xlink:href="../../tables/image_to_image_map.html" xlink:title="image_to_image_map" target="_top">
<polygon fill="#ffffff" stroke="transparent" points="195,-37 195,-257 464,-257 464,-37 195,-37"/>
<polygon fill="#f5f5f5" stroke="transparent" points="197.5,-233 197.5,-255 462.5,-255 462.5,-233 197.5,-233"/>
<polygon fill="none" stroke="#000000" points="197.5,-233 197.5,-255 462.5,-255 462.5,-233 197.5,-233"/>
<text text-anchor="start" x="202.5" y="-242.2" font-family="Helvetica,sans-Serif" font-weight="bold" font-size="11.00" fill="#000000">image_to_image_map</text>
<text text-anchor="start" x="427.5" y="-241.2" font-family="Helvetica,sans-Serif" font-size="11.00" fill="#000000">[table]</text>
<polygon fill="none" stroke="#000000" points="197.5,-211 197.5,-233 380.5,-233 380.5,-211 197.5,-211"/>
<image xlink:href="../../images/primaryKeys.png" width="11px" height="12px" preserveAspectRatio="xMinYMin meet" x="202.5" y="-228"/>
<text text-anchor="start" x="217.5" y="-219.2" font-family="Helvetica,sans-Serif" font-size="11.00" fill="#000000">image_to_image_map_id</text>
<polygon fill="none" stroke="#000000" points="380.5,-211 380.5,-233 462.5,-233 462.5,-211 380.5,-211"/>
<text text-anchor="start" x="383.5" y="-219.2" font-family="Helvetica,sans-Serif" font-size="11.00" fill="#000000">int unsigned[10]</text>
<polygon fill="#ffffff" stroke="transparent" points="197.5,-189 197.5,-211 380.5,-211 380.5,-189 197.5,-189"/>
<polygon fill="none" stroke="#000000" points="197.5,-189 197.5,-211 380.5,-211 380.5,-189 197.5,-189"/>
<image xlink:href="../../images/foreignKeys.png" width="11px" height="12px" preserveAspectRatio="xMinYMin meet" x="202.5" y="-206"/>
<text text-anchor="start" x="217.5" y="-197.2" font-family="Helvetica,sans-Serif" font-size="11.00" fill="#000000">image1_id</text>
<polygon fill="none" stroke="#000000" points="380.5,-189 380.5,-211 462.5,-211 462.5,-189 380.5,-189"/>
<text text-anchor="start" x="383.5" y="-197.2" font-family="Helvetica,sans-Serif" font-size="11.00" fill="#000000">int unsigned[10]</text>
<polygon fill="#ffffff" stroke="transparent" points="197.5,-167 197.5,-189 380.5,-189 380.5,-167 197.5,-167"/>
<polygon fill="none" stroke="#000000" points="197.5,-167 197.5,-189 380.5,-189 380.5,-167 197.5,-167"/>
<image xlink:href="../../images/foreignKeys.png" width="11px" height="12px" preserveAspectRatio="xMinYMin meet" x="202.5" y="-184"/>
<text text-anchor="start" x="217.5" y="-175.2" font-family="Helvetica,sans-Serif" font-size="11.00" fill="#000000">image2_id</text>
<polygon fill="none" stroke="#000000" points="380.5,-167 380.5,-189 462.5,-189 462.5,-167 380.5,-167"/>
<text text-anchor="start" x="383.5" y="-175.2" font-family="Helvetica,sans-Serif" font-size="11.00" fill="#000000">int unsigned[10]</text>
<polygon fill="none" stroke="#000000" points="197.5,-145 197.5,-167 380.5,-167 380.5,-145 197.5,-145"/>
<text text-anchor="start" x="217.5" y="-153.2" font-family="Helvetica,sans-Serif" font-size="11.00" fill="#000000">region_on_image1</text>
<polygon fill="none" stroke="#000000" points="380.5,-145 380.5,-167 462.5,-167 462.5,-145 380.5,-145"/>
<text text-anchor="start" x="383.5" y="-153.2" font-family="Helvetica,sans-Serif" font-size="11.00" fill="#000000">polygon[0]</text>
<polygon fill="none" stroke="#000000" points="197.5,-123 197.5,-145 380.5,-145 380.5,-123 197.5,-123"/>
<text text-anchor="start" x="217.5" y="-131.2" font-family="Helvetica,sans-Serif" font-size="11.00" fill="#000000">region_on_image2</text>
<polygon fill="none" stroke="#000000" points="380.5,-123 380.5,-145 462.5,-145 462.5,-123 380.5,-123"/>
<text text-anchor="start" x="383.5" y="-131.2" font-family="Helvetica,sans-Serif" font-size="11.00" fill="#000000">polygon[0]</text>
<polygon fill="#ffffff" stroke="transparent" points="197.5,-101 197.5,-123 380.5,-123 380.5,-101 197.5,-101"/>
<polygon fill="none" stroke="#000000" points="197.5,-101 197.5,-123 380.5,-123 380.5,-101 197.5,-101"/>
<text text-anchor="start" x="217.5" y="-109.2" font-family="Helvetica,sans-Serif" font-size="11.00" fill="#000000">transform_matrix</text>
<polygon fill="none" stroke="#000000" points="380.5,-101 380.5,-123 462.5,-123 462.5,-101 380.5,-101"/>
<text text-anchor="start" x="383.5" y="-109.2" font-family="Helvetica,sans-Serif" font-size="11.00" fill="#000000">varchar[255]</text>
<polygon fill="#ffffff" stroke="transparent" points="197.5,-79 197.5,-101 380.5,-101 380.5,-79 197.5,-79"/>
<polygon fill="none" stroke="#000000" points="197.5,-79 197.5,-101 380.5,-101 380.5,-79 197.5,-79"/>
<text text-anchor="start" x="217.5" y="-87.2" font-family="Helvetica,sans-Serif" font-size="11.00" fill="#000000">region1_hash</text>
<polygon fill="none" stroke="#000000" points="380.5,-79 380.5,-101 462.5,-101 462.5,-79 380.5,-79"/>
<text text-anchor="start" x="383.5" y="-87.2" font-family="Helvetica,sans-Serif" font-size="11.00" fill="#000000">binary[128]</text>
<polygon fill="#ffffff" stroke="transparent" points="197.5,-57 197.5,-79 380.5,-79 380.5,-57 197.5,-57"/>
<polygon fill="none" stroke="#000000" points="197.5,-57 197.5,-79 380.5,-79 380.5,-57 197.5,-57"/>
<text text-anchor="start" x="217.5" y="-65.2" font-family="Helvetica,sans-Serif" font-size="11.00" fill="#000000">region2_hash</text>
<polygon fill="none" stroke="#000000" points="380.5,-57 380.5,-79 462.5,-79 462.5,-57 380.5,-57"/>
<text text-anchor="start" x="383.5" y="-65.2" font-family="Helvetica,sans-Serif" font-size="11.00" fill="#000000">binary[128]</text>
<polygon fill="#ffffff" stroke="transparent" points="197.5,-39 197.5,-57 266.5,-57 266.5,-39 197.5,-39"/>
<polygon fill="none" stroke="#000000" points="197.5,-39 197.5,-57 266.5,-57 266.5,-39 197.5,-39"/>
<text text-anchor="start" x="200.5" y="-45.2" font-family="Helvetica,sans-Serif" font-size="11.00" fill="#000000">&lt; 2</text>
<polygon fill="#ffffff" stroke="transparent" points="266.5,-39 266.5,-57 380.5,-57 380.5,-39 266.5,-39"/>
<polygon fill="none" stroke="#000000" points="266.5,-39 266.5,-57 380.5,-57 380.5,-39 266.5,-39"/>
<text text-anchor="start" x="317.5" y="-45.2" font-family="Helvetica,sans-Serif" font-size="11.00" fill="#000000">69,272 rows</text>
<polygon fill="#ffffff" stroke="transparent" points="380.5,-39 380.5,-57 462.5,-57 462.5,-39 380.5,-39"/>
<polygon fill="none" stroke="#000000" points="380.5,-39 380.5,-57 462.5,-57 462.5,-39 380.5,-39"/>
<text text-anchor="start" x="443.5" y="-45.2" font-family="Helvetica,sans-Serif" font-size="11.00" fill="#000000">2 &gt;</text>
<polygon fill="none" stroke="#000000" stroke-width="2" points="196,-38 196,-256 463,-256 463,-38 196,-38"/>
</a>
</g>
</g>
<!-- SQE_image -->
<g id="node2" class="node">
<title>SQE_image</title>
<g id="a_node2"><a xlink:href="../../tables/SQE_image.html" xlink:title="SQE_image" target="_top">
<polygon fill="#ffffff" stroke="transparent" points="8,-76 8,-222 146,-222 146,-76 8,-76"/>
<polygon fill="#f5f5f5" stroke="transparent" points="8,-200 8,-222 146,-222 146,-200 8,-200"/>
<polygon fill="none" stroke="#000000" points="8,-200 8,-222 146,-222 146,-200 8,-200"/>
<text text-anchor="start" x="13" y="-209.2" font-family="Helvetica,sans-Serif" font-weight="bold" font-size="11.00" fill="#000000">SQE_image</text>
<text text-anchor="start" x="111" y="-208.2" font-family="Helvetica,sans-Serif" font-size="11.00" fill="#000000">[table]</text>
<polygon fill="none" stroke="#000000" points="8,-178 8,-200 146,-200 146,-178 8,-178"/>
<image xlink:href="../../images/primaryKeys.png" width="11px" height="12px" preserveAspectRatio="xMinYMin meet" x="13" y="-195"/>
<text text-anchor="start" x="28" y="-186.2" font-family="Helvetica,sans-Serif" font-size="11.00" fill="#000000">sqe_image_id</text>
<polygon fill="#ffffff" stroke="transparent" points="8,-156 8,-178 146,-178 146,-156 8,-156"/>
<polygon fill="none" stroke="#000000" points="8,-156 8,-178 146,-178 146,-156 8,-156"/>
<image xlink:href="../../images/foreignKeys.png" width="11px" height="12px" preserveAspectRatio="xMinYMin meet" x="13" y="-173"/>
<text text-anchor="start" x="28" y="-164.2" font-family="Helvetica,sans-Serif" font-size="11.00" fill="#000000">image_urls_id</text>
<polygon fill="#ffffff" stroke="transparent" points="8,-134 8,-156 146,-156 146,-134 8,-134"/>
<polygon fill="none" stroke="#000000" points="8,-134 8,-156 146,-156 146,-134 8,-134"/>
<text text-anchor="start" x="28" y="-142.2" font-family="Helvetica,sans-Serif" font-size="11.00" fill="#000000">filename</text>
<polygon fill="#ffffff" stroke="transparent" points="8,-112 8,-134 146,-134 146,-112 8,-112"/>
<polygon fill="none" stroke="#000000" points="8,-112 8,-134 146,-134 146,-112 8,-112"/>
<image xlink:href="../../images/foreignKeys.png" width="11px" height="12px" preserveAspectRatio="xMinYMin meet" x="13" y="-129"/>
<text text-anchor="start" x="28" y="-120.2" font-family="Helvetica,sans-Serif" font-size="11.00" fill="#000000">image_catalog_id</text>
<polygon fill="none" stroke="#000000" points="8,-94 8,-112 146,-112 146,-94 8,-94"/>
<text text-anchor="start" x="11" y="-100.2" font-family="Helvetica,sans-Serif" font-size="11.00" fill="#000000">...</text>
<polygon fill="#ffffff" stroke="transparent" points="8,-76 8,-94 44,-94 44,-76 8,-76"/>
<polygon fill="none" stroke="#000000" points="8,-76 8,-94 44,-94 44,-76 8,-76"/>
<text text-anchor="start" x="11" y="-82.2" font-family="Helvetica,sans-Serif" font-size="11.00" fill="#000000">&lt; 2</text>
<polygon fill="#ffffff" stroke="transparent" points="44,-76 44,-94 117,-94 117,-76 44,-76"/>
<polygon fill="none" stroke="#000000" points="44,-76 44,-94 117,-94 117,-76 44,-76"/>
<text text-anchor="start" x="54" y="-82.2" font-family="Helvetica,sans-Serif" font-size="11.00" fill="#000000">97,684 rows</text>
<polygon fill="#ffffff" stroke="transparent" points="117,-76 117,-94 146,-94 146,-76 117,-76"/>
<polygon fill="none" stroke="#000000" points="117,-76 117,-94 146,-94 146,-76 117,-76"/>
<text text-anchor="start" x="127" y="-82.2" font-family="Helvetica,sans-Serif" font-size="11.00" fill="#000000">4 &gt;</text>
</a>
</g>
</g>
<!-- image_to_image_map&#45;&gt;SQE_image -->
<g id="edge1" class="edge">
<title>image_to_image_map:w&#45;&gt;SQE_image:e</title>
<path fill="none" stroke="#000000" d="M182.8704,-198.2813C170.5803,-195.1875 163.5539,-189 146,-189"/>
<polygon fill="#000000" stroke="#000000" points="189.5546,-199.0665 197.0799,-203.5754 193.5273,-199.5332 197.5,-200 197.5,-200 197.5,-200 193.5273,-199.5332 197.9201,-196.4246 189.5546,-199.0665 189.5546,-199.0665"/>
<ellipse fill="none" stroke="#000000" cx="186.3765" cy="-198.6931" rx="3.2" ry="3.2"/>
</g>
<!-- image_to_image_map&#45;&gt;SQE_image -->
<g id="edge2" class="edge">
<title>image_to_image_map:w&#45;&gt;SQE_image:e</title>
<path fill="none" stroke="#000000" d="M182.8704,-179.7188C170.5803,-182.8125 163.5539,-189 146,-189"/>
<polygon fill="#000000" stroke="#000000" points="189.5546,-178.9335 197.9201,-181.5754 193.5273,-178.4668 197.5,-178 197.5,-178 197.5,-178 193.5273,-178.4668 197.0799,-174.4246 189.5546,-178.9335 189.5546,-178.9335"/>
<ellipse fill="none" stroke="#000000" cx="186.3765" cy="-179.3069" rx="3.2" ry="3.2"/>
</g>
<!-- image_to_image_map_author -->
<g id="node3" class="node">
<title>image_to_image_map_author</title>
<g id="a_node3"><a xlink:href="../../tables/image_to_image_map_author.html" xlink:title="image_to_image_map_author" target="_top">
<polygon fill="#ffffff" stroke="transparent" points="513,-234 513,-318 729,-318 729,-234 513,-234"/>
<polygon fill="#f5f5f5" stroke="transparent" points="513,-296 513,-318 729,-318 729,-296 513,-296"/>
<polygon fill="none" stroke="#000000" points="513,-296 513,-318 729,-318 729,-296 513,-296"/>
<text text-anchor="start" x="518" y="-305.2" font-family="Helvetica,sans-Serif" font-weight="bold" font-size="11.00" fill="#000000">image_to_image_map_author</text>
<text text-anchor="start" x="694" y="-304.2" font-family="Helvetica,sans-Serif" font-size="11.00" fill="#000000">[table]</text>
<polygon fill="none" stroke="#000000" points="513,-274 513,-296 729,-296 729,-274 513,-274"/>
<image xlink:href="../../images/primaryKeys.png" width="11px" height="12px" preserveAspectRatio="xMinYMin meet" x="518" y="-291"/>
<text text-anchor="start" x="533" y="-282.2" font-family="Helvetica,sans-Serif" font-size="11.00" fill="#000000">image_to_image_map_id</text>
<polygon fill="none" stroke="#000000" points="513,-252 513,-274 729,-274 729,-252 513,-252"/>
<image xlink:href="../../images/primaryKeys.png" width="11px" height="12px" preserveAspectRatio="xMinYMin meet" x="518" y="-269"/>
<text text-anchor="start" x="533" y="-260.2" font-family="Helvetica,sans-Serif" font-size="11.00" fill="#000000">user_id</text>
<polygon fill="#ffffff" stroke="transparent" points="513,-234 513,-252 592,-252 592,-234 513,-234"/>
<polygon fill="none" stroke="#000000" points="513,-234 513,-252 592,-252 592,-234 513,-234"/>
<text text-anchor="start" x="516" y="-240.2" font-family="Helvetica,sans-Serif" font-size="11.00" fill="#000000">&lt; 2</text>
<polygon fill="#ffffff" stroke="transparent" points="592,-234 592,-252 687,-252 687,-234 592,-234"/>
<polygon fill="none" stroke="#000000" points="592,-234 592,-252 687,-252 687,-234 592,-234"/>
<text text-anchor="start" x="624" y="-240.2" font-family="Helvetica,sans-Serif" font-size="11.00" fill="#000000">72,198 rows</text>
<polygon fill="#ffffff" stroke="transparent" points="687,-234 687,-252 729,-252 729,-234 687,-234"/>
<polygon fill="none" stroke="#000000" points="687,-234 687,-252 729,-252 729,-234 687,-234"/>
<text text-anchor="start" x="719" y="-240.2" font-family="Helvetica,sans-Serif" font-size="11.00" fill="#000000"> &#160;</text>
</a>
</g>
</g>
<!-- image_to_image_map_author&#45;&gt;image_to_image_map -->
<g id="edge3" class="edge">
<title>image_to_image_map_author:w&#45;&gt;image_to_image_map:e</title>
<path fill="none" stroke="#000000" d="M498.9816,-280.0565C482.738,-265.2048 492.2175,-222 462.5,-222"/>
<polygon fill="#000000" stroke="#000000" points="505.4554,-282.3394 511.8027,-288.3951 509.2277,-283.6697 513,-285 513,-285 513,-285 509.2277,-283.6697 514.1973,-281.6049 505.4554,-282.3394 505.4554,-282.3394"/>
<ellipse fill="none" stroke="#000000" cx="502.4375" cy="-281.2752" rx="3.2" ry="3.2"/>
</g>
<!-- point_to_point_map -->
<g id="node4" class="node">
<title>point_to_point_map</title>
<g id="a_node4"><a xlink:href="../../tables/point_to_point_map.html" xlink:title="point_to_point_map" target="_top">
<polygon fill="#ffffff" stroke="transparent" points="529.5,-111 529.5,-213 712.5,-213 712.5,-111 529.5,-111"/>
<polygon fill="#f5f5f5" stroke="transparent" points="530,-191 530,-213 713,-213 713,-191 530,-191"/>
<polygon fill="none" stroke="#000000" points="530,-191 530,-213 713,-213 713,-191 530,-191"/>
<text text-anchor="start" x="535" y="-200.2" font-family="Helvetica,sans-Serif" font-weight="bold" font-size="11.00" fill="#000000">point_to_point_map</text>
<text text-anchor="start" x="678" y="-199.2" font-family="Helvetica,sans-Serif" font-size="11.00" fill="#000000">[table]</text>
<polygon fill="none" stroke="#000000" points="530,-169 530,-191 713,-191 713,-169 530,-169"/>
<image xlink:href="../../images/primaryKeys.png" width="11px" height="12px" preserveAspectRatio="xMinYMin meet" x="535" y="-186"/>
<text text-anchor="start" x="550" y="-177.2" font-family="Helvetica,sans-Serif" font-size="11.00" fill="#000000">point_to_point_map_id</text>
<polygon fill="#ffffff" stroke="transparent" points="530,-147 530,-169 713,-169 713,-147 530,-147"/>
<polygon fill="none" stroke="#000000" points="530,-147 530,-169 713,-169 713,-147 530,-147"/>
<image xlink:href="../../images/foreignKeys.png" width="11px" height="12px" preserveAspectRatio="xMinYMin meet" x="535" y="-164"/>
<text text-anchor="start" x="550" y="-155.2" font-family="Helvetica,sans-Serif" font-size="11.00" fill="#000000">image_to_image_map_id</text>
<polygon fill="none" stroke="#000000" points="530,-129 530,-147 713,-147 713,-129 530,-129"/>
<text text-anchor="start" x="533" y="-135.2" font-family="Helvetica,sans-Serif" font-size="11.00" fill="#000000">...</text>
<polygon fill="#ffffff" stroke="transparent" points="530,-111 530,-129 606,-129 606,-111 530,-111"/>
<polygon fill="none" stroke="#000000" points="530,-111 530,-129 606,-129 606,-111 530,-111"/>
<text text-anchor="start" x="533" y="-117.2" font-family="Helvetica,sans-Serif" font-size="11.00" fill="#000000">&lt; 1</text>
<polygon fill="#ffffff" stroke="transparent" points="606,-111 606,-129 672,-129 672,-111 606,-111"/>
<polygon fill="none" stroke="#000000" points="606,-111 606,-129 672,-129 672,-111 606,-111"/>
<text text-anchor="start" x="636" y="-117.2" font-family="Helvetica,sans-Serif" font-size="11.00" fill="#000000">0 rows</text>
<polygon fill="#ffffff" stroke="transparent" points="672,-111 672,-129 713,-129 713,-111 672,-111"/>
<polygon fill="none" stroke="#000000" points="672,-111 672,-129 713,-129 713,-111 672,-111"/>
<text text-anchor="start" x="703" y="-117.2" font-family="Helvetica,sans-Serif" font-size="11.00" fill="#000000"> &#160;</text>
</a>
</g>
</g>
<!-- point_to_point_map&#45;&gt;image_to_image_map -->
<g id="edge4" class="edge">
<title>point_to_point_map:w&#45;&gt;image_to_image_map:e</title>
<path fill="none" stroke="#000000" d="M515.9244,-161.2618C491.7537,-174.3037 498.189,-222 462.5,-222"/>
<polygon fill="#000000" stroke="#000000" points="522.2065,-159.806 530.8127,-161.5071 526.1033,-158.903 530,-158 530,-158 530,-158 526.1033,-158.903 529.1873,-154.4929 522.2065,-159.806 522.2065,-159.806"/>
<ellipse fill="none" stroke="#000000" cx="519.0891" cy="-160.5285" rx="3.2" ry="3.2"/>
</g>
</g>
</svg>
