<?xml version="1.0" encoding="UTF-8" standalone="no"?>
<!DOCTYPE svg PUBLIC "-//W3C//DTD SVG 1.1//EN"
 "http://www.w3.org/Graphics/SVG/1.1/DTD/svg11.dtd">
<!-- Generated by graphviz version 2.40.1 (20161225.0304)
 -->
<!-- Title: twoDegreesRelationshipsDiagram Pages: 1 -->
<svg width="699pt" height="541pt"
 viewBox="0.00 0.00 699.00 541.00" xmlns="http://www.w3.org/2000/svg" xmlns:xlink="http://www.w3.org/1999/xlink">
<g id="graph0" class="graph" transform="scale(1 1) rotate(0) translate(4 537)">
<title>twoDegreesRelationshipsDiagram</title>
<polygon fill="#ffffff" stroke="transparent" points="-4,4 -4,-537 695,-537 695,4 -4,4"/>
<text text-anchor="middle" x="71.5" y="-7.2" font-family="Helvetica,sans-Serif" font-size="11.00" fill="#000000">Generated by SchemaSpy</text>
<!-- iaa_edition_catalog -->
<g id="node1" class="node">
<title>iaa_edition_catalog</title>
<g id="a_node1"><a xlink:href="../../tables/iaa_edition_catalog.html" xlink:title="iaa_edition_catalog" target="_top">
<polygon fill="#ffffff" stroke="transparent" points="161,-226 161,-460 330,-460 330,-226 161,-226"/>
<polygon fill="#f5f5f5" stroke="transparent" points="161.5,-438 161.5,-460 330.5,-460 330.5,-438 161.5,-438"/>
<polygon fill="none" stroke="#000000" points="161.5,-438 161.5,-460 330.5,-460 330.5,-438 161.5,-438"/>
<text text-anchor="start" x="166.5" y="-447.2" font-family="Helvetica,sans-Serif" font-weight="bold" font-size="11.00" fill="#000000">iaa_edition_catalog</text>
<text text-anchor="start" x="295.5" y="-446.2" font-family="Helvetica,sans-Serif" font-size="11.00" fill="#000000">[table]</text>
<polygon fill="none" stroke="#000000" points="161.5,-416 161.5,-438 330.5,-438 330.5,-416 161.5,-416"/>
<image xlink:href="../../images/primaryKeys.png" width="11px" height="12px" preserveAspectRatio="xMinYMin meet" x="166.5" y="-433"/>
<text text-anchor="start" x="181.5" y="-424.2" font-family="Helvetica,sans-Serif" font-size="11.00" fill="#000000">iaa_edition_catalog_id</text>
<polygon fill="#ffffff" stroke="transparent" points="161.5,-394 161.5,-416 330.5,-416 330.5,-394 161.5,-394"/>
<polygon fill="none" stroke="#000000" points="161.5,-394 161.5,-416 330.5,-416 330.5,-394 161.5,-394"/>
<text text-anchor="start" x="181.5" y="-402.2" font-family="Helvetica,sans-Serif" font-size="11.00" fill="#000000">manuscript</text>
<polygon fill="#ffffff" stroke="transparent" points="161.5,-372 161.5,-394 330.5,-394 330.5,-372 161.5,-372"/>
<polygon fill="none" stroke="#000000" points="161.5,-372 161.5,-394 330.5,-394 330.5,-372 161.5,-372"/>
<text text-anchor="start" x="181.5" y="-380.2" font-family="Helvetica,sans-Serif" font-size="11.00" fill="#000000">edition_name</text>
<polygon fill="#ffffff" stroke="transparent" points="161.5,-350 161.5,-372 330.5,-372 330.5,-350 161.5,-350"/>
<polygon fill="none" stroke="#000000" points="161.5,-350 161.5,-372 330.5,-372 330.5,-350 161.5,-350"/>
<text text-anchor="start" x="181.5" y="-358.2" font-family="Helvetica,sans-Serif" font-size="11.00" fill="#000000">edition_volume</text>
<polygon fill="#ffffff" stroke="transparent" points="161.5,-328 161.5,-350 330.5,-350 330.5,-328 161.5,-328"/>
<polygon fill="none" stroke="#000000" points="161.5,-328 161.5,-350 330.5,-350 330.5,-328 161.5,-328"/>
<text text-anchor="start" x="181.5" y="-336.2" font-family="Helvetica,sans-Serif" font-size="11.00" fill="#000000">edition_location_1</text>
<polygon fill="#ffffff" stroke="transparent" points="161.5,-306 161.5,-328 330.5,-328 330.5,-306 161.5,-306"/>
<polygon fill="none" stroke="#000000" points="161.5,-306 161.5,-328 330.5,-328 330.5,-306 161.5,-306"/>
<text text-anchor="start" x="181.5" y="-314.2" font-family="Helvetica,sans-Serif" font-size="11.00" fill="#000000">edition_location_2</text>
<polygon fill="#ffffff" stroke="transparent" points="161.5,-284 161.5,-306 330.5,-306 330.5,-284 161.5,-284"/>
<polygon fill="none" stroke="#000000" points="161.5,-284 161.5,-306 330.5,-306 330.5,-284 161.5,-284"/>
<text text-anchor="start" x="181.5" y="-292.2" font-family="Helvetica,sans-Serif" font-size="11.00" fill="#000000">edition_side</text>
<polygon fill="#ffffff" stroke="transparent" points="161.5,-262 161.5,-284 330.5,-284 330.5,-262 161.5,-262"/>
<polygon fill="none" stroke="#000000" points="161.5,-262 161.5,-284 330.5,-284 330.5,-262 161.5,-262"/>
<image xlink:href="../../images/foreignKeys.png" width="11px" height="12px" preserveAspectRatio="xMinYMin meet" x="166.5" y="-279"/>
<text text-anchor="start" x="181.5" y="-270.2" font-family="Helvetica,sans-Serif" font-size="11.00" fill="#000000">manuscript_id</text>
<polygon fill="none" stroke="#000000" points="161.5,-244 161.5,-262 330.5,-262 330.5,-244 161.5,-244"/>
<text text-anchor="start" x="164.5" y="-250.2" font-family="Helvetica,sans-Serif" font-size="11.00" fill="#000000">...</text>
<polygon fill="#ffffff" stroke="transparent" points="161.5,-226 161.5,-244 212.5,-244 212.5,-226 161.5,-226"/>
<polygon fill="none" stroke="#000000" points="161.5,-226 161.5,-244 212.5,-244 212.5,-226 161.5,-226"/>
<text text-anchor="start" x="164.5" y="-232.2" font-family="Helvetica,sans-Serif" font-size="11.00" fill="#000000">&lt; 1</text>
<polygon fill="#ffffff" stroke="transparent" points="212.5,-226 212.5,-244 293.5,-244 293.5,-226 212.5,-226"/>
<polygon fill="none" stroke="#000000" points="212.5,-226 212.5,-244 293.5,-244 293.5,-226 212.5,-226"/>
<text text-anchor="start" x="230.5" y="-232.2" font-family="Helvetica,sans-Serif" font-size="11.00" fill="#000000">37,640 rows</text>
<polygon fill="#ffffff" stroke="transparent" points="293.5,-226 293.5,-244 330.5,-244 330.5,-226 293.5,-226"/>
<polygon fill="none" stroke="#000000" points="293.5,-226 293.5,-244 330.5,-244 330.5,-226 293.5,-226"/>
<text text-anchor="start" x="311.5" y="-232.2" font-family="Helvetica,sans-Serif" font-size="11.00" fill="#000000">3 &gt;</text>
</a>
</g>
</g>
<!-- manuscript -->
<g id="node2" class="node">
<title>manuscript</title>
<g id="a_node2"><a xlink:href="../../tables/manuscript.html" xlink:title="manuscript" target="_top">
<polygon fill="#ffffff" stroke="transparent" points="8,-246 8,-304 112,-304 112,-246 8,-246"/>
<polygon fill="#f5f5f5" stroke="transparent" points="8,-282 8,-304 112,-304 112,-282 8,-282"/>
<polygon fill="none" stroke="#000000" points="8,-282 8,-304 112,-304 112,-282 8,-282"/>
<text text-anchor="start" x="13" y="-291.2" font-family="Helvetica,sans-Serif" font-weight="bold" font-size="11.00" fill="#000000">manuscript</text>
<text text-anchor="start" x="77" y="-290.2" font-family="Helvetica,sans-Serif" font-size="11.00" fill="#000000">[table]</text>
<polygon fill="none" stroke="#000000" points="8,-264 8,-282 112,-282 112,-264 8,-264"/>
<text text-anchor="start" x="11" y="-270.2" font-family="Helvetica,sans-Serif" font-size="11.00" fill="#000000">...</text>
<polygon fill="#ffffff" stroke="transparent" points="8,-246 8,-264 25,-264 25,-246 8,-246"/>
<polygon fill="none" stroke="#000000" points="8,-246 8,-264 25,-264 25,-246 8,-246"/>
<text text-anchor="start" x="11" y="-252.2" font-family="Helvetica,sans-Serif" font-size="11.00" fill="#000000"> &#160;</text>
<polygon fill="#ffffff" stroke="transparent" points="25,-246 25,-264 87,-264 87,-246 25,-246"/>
<polygon fill="none" stroke="#000000" points="25,-246 25,-264 87,-264 87,-246 25,-246"/>
<text text-anchor="start" x="30" y="-252.2" font-family="Helvetica,sans-Serif" font-size="11.00" fill="#000000">1,645 rows</text>
<polygon fill="#ffffff" stroke="transparent" points="87,-246 87,-264 112,-264 112,-246 87,-246"/>
<polygon fill="none" stroke="#000000" points="87,-246 87,-264 112,-264 112,-246 87,-246"/>
<text text-anchor="start" x="93" y="-252.2" font-family="Helvetica,sans-Serif" font-size="11.00" fill="#000000">5 &gt;</text>
</a>
</g>
</g>
<!-- iaa_edition_catalog&#45;&gt;manuscript -->
<g id="edge1" class="edge">
<title>iaa_edition_catalog:w&#45;&gt;manuscript:e</title>
<path fill="none" stroke="#000000" d="M146.8428,-273C135.4139,-273 128.1563,-273 112,-273"/>
<polygon fill="#000000" stroke="#000000" points="153.5,-273.0001 161.5,-276.6 157.5,-273 161.5,-273 161.5,-273 161.5,-273 157.5,-273 161.5,-269.4 153.5,-273.0001 153.5,-273.0001"/>
<ellipse fill="none" stroke="#000000" cx="150.3" cy="-273.0001" rx="3.2" ry="3.2"/>
</g>
<!-- iaa_edition_catalog_author -->
<g id="node3" class="node">
<title>iaa_edition_catalog_author</title>
<g id="a_node3"><a xlink:href="../../tables/iaa_edition_catalog_author.html" xlink:title="iaa_edition_catalog_author" target="_top">
<polygon fill="#ffffff" stroke="transparent" points="438,-471 438,-529 624,-529 624,-471 438,-471"/>
<polygon fill="#f5f5f5" stroke="transparent" points="438,-507 438,-529 624,-529 624,-507 438,-507"/>
<polygon fill="none" stroke="#000000" points="438,-507 438,-529 624,-529 624,-507 438,-507"/>
<text text-anchor="start" x="443" y="-516.2" font-family="Helvetica,sans-Serif" font-weight="bold" font-size="11.00" fill="#000000">iaa_edition_catalog_author</text>
<text text-anchor="start" x="589" y="-515.2" font-family="Helvetica,sans-Serif" font-size="11.00" fill="#000000">[table]</text>
<polygon fill="none" stroke="#000000" points="438,-489 438,-507 624,-507 624,-489 438,-489"/>
<text text-anchor="start" x="441" y="-495.2" font-family="Helvetica,sans-Serif" font-size="11.00" fill="#000000">...</text>
<polygon fill="#ffffff" stroke="transparent" points="438,-471 438,-489 502,-489 502,-471 438,-471"/>
<polygon fill="none" stroke="#000000" points="438,-471 438,-489 502,-489 502,-471 438,-471"/>
<text text-anchor="start" x="441" y="-477.2" font-family="Helvetica,sans-Serif" font-size="11.00" fill="#000000">&lt; 2</text>
<polygon fill="#ffffff" stroke="transparent" points="502,-471 502,-489 589,-489 589,-471 502,-471"/>
<polygon fill="none" stroke="#000000" points="502,-471 502,-489 589,-489 589,-471 502,-471"/>
<text text-anchor="start" x="526" y="-477.2" font-family="Helvetica,sans-Serif" font-size="11.00" fill="#000000">38,546 rows</text>
<polygon fill="#ffffff" stroke="transparent" points="589,-471 589,-489 624,-489 624,-471 589,-471"/>
<polygon fill="none" stroke="#000000" points="589,-471 589,-489 624,-489 624,-471 589,-471"/>
<text text-anchor="start" x="614" y="-477.2" font-family="Helvetica,sans-Serif" font-size="11.00" fill="#000000"> &#160;</text>
</a>
</g>
</g>
<!-- iaa_edition_catalog_author&#45;&gt;iaa_edition_catalog -->
<g id="edge2" class="edge">
<title>iaa_edition_catalog_author:w&#45;&gt;iaa_edition_catalog:e</title>
<path fill="none" stroke="#000000" d="M427.4833,-497.3402C402.5684,-493.9589 395.8698,-478.0679 371,-461 351.6224,-447.7013 354.002,-427 330.5,-427"/>
<polygon fill="#000000" stroke="#000000" points="437.4521,-493.9578 436.9511,-501.9421 435.3542,-501.8419 435.8552,-493.8576 437.4521,-493.9578"/>
<polyline fill="none" stroke="#000000" points="438,-498 434.0078,-497.7495 "/>
<ellipse fill="none" stroke="#000000" cx="430.8141" cy="-497.5491" rx="3.2" ry="3.2"/>
</g>
<!-- iaa_edition_catalog_to_text_fragment -->
<g id="node4" class="node">
<title>iaa_edition_catalog_to_text_fragment</title>
<g id="a_node4"><a xlink:href="../../tables/iaa_edition_catalog_to_text_fragment.html" xlink:title="iaa_edition_catalog_to_text_fragment" target="_top">
<polygon fill="#ffffff" stroke="transparent" points="410.5,-392 410.5,-450 651.5,-450 651.5,-392 410.5,-392"/>
<polygon fill="#f5f5f5" stroke="transparent" points="411,-428 411,-450 652,-450 652,-428 411,-428"/>
<polygon fill="none" stroke="#000000" points="411,-428 411,-450 652,-450 652,-428 411,-428"/>
<text text-anchor="start" x="416" y="-437.2" font-family="Helvetica,sans-Serif" font-weight="bold" font-size="11.00" fill="#000000">iaa_edition_catalog_to_text_fragment</text>
<text text-anchor="start" x="617" y="-436.2" font-family="Helvetica,sans-Serif" font-size="11.00" fill="#000000">[table]</text>
<polygon fill="none" stroke="#000000" points="411,-410 411,-428 652,-428 652,-410 411,-410"/>
<text text-anchor="start" x="414" y="-416.2" font-family="Helvetica,sans-Serif" font-size="11.00" fill="#000000">...</text>
<polygon fill="#ffffff" stroke="transparent" points="411,-392 411,-410 498,-410 498,-392 411,-392"/>
<polygon fill="none" stroke="#000000" points="411,-392 411,-410 498,-410 498,-392 411,-392"/>
<text text-anchor="start" x="414" y="-398.2" font-family="Helvetica,sans-Serif" font-size="11.00" fill="#000000">&lt; 2</text>
<polygon fill="#ffffff" stroke="transparent" points="498,-392 498,-410 597,-410 597,-392 498,-392"/>
<polygon fill="none" stroke="#000000" points="498,-392 498,-410 597,-410 597,-392 498,-392"/>
<text text-anchor="start" x="534" y="-398.2" font-family="Helvetica,sans-Serif" font-size="11.00" fill="#000000">15,236 rows</text>
<polygon fill="#ffffff" stroke="transparent" points="597,-392 597,-410 652,-410 652,-392 597,-392"/>
<polygon fill="none" stroke="#000000" points="597,-392 597,-410 652,-410 652,-392 597,-392"/>
<text text-anchor="start" x="633" y="-398.2" font-family="Helvetica,sans-Serif" font-size="11.00" fill="#000000">1 &gt;</text>
</a>
</g>
</g>
<!-- iaa_edition_catalog_to_text_fragment&#45;&gt;iaa_edition_catalog -->
<g id="edge3" class="edge">
<title>iaa_edition_catalog_to_text_fragment:w&#45;&gt;iaa_edition_catalog:e</title>
<path fill="none" stroke="#000000" d="M396.2795,-419.5004C371.7931,-421.2518 360.9766,-427 330.5,-427"/>
<polygon fill="#000000" stroke="#000000" points="403.0046,-419.2719 411.1223,-422.5979 407.0023,-419.1359 411,-419 411,-419 411,-419 407.0023,-419.1359 410.8777,-415.4021 403.0046,-419.2719 403.0046,-419.2719"/>
<ellipse fill="none" stroke="#000000" cx="399.8065" cy="-419.3806" rx="3.2" ry="3.2"/>
</g>
<!-- image_catalog_author -->
<g id="node5" class="node">
<title>image_catalog_author</title>
<g id="a_node5"><a xlink:href="../../tables/image_catalog_author.html" xlink:title="image_catalog_author" target="_top">
<polygon fill="#ffffff" stroke="transparent" points="450.5,-154 450.5,-212 611.5,-212 611.5,-154 450.5,-154"/>
<polygon fill="#f5f5f5" stroke="transparent" points="451,-190 451,-212 612,-212 612,-190 451,-190"/>
<polygon fill="none" stroke="#000000" points="451,-190 451,-212 612,-212 612,-190 451,-190"/>
<text text-anchor="start" x="456" y="-199.2" font-family="Helvetica,sans-Serif" font-weight="bold" font-size="11.00" fill="#000000">image_catalog_author</text>
<text text-anchor="start" x="577" y="-198.2" font-family="Helvetica,sans-Serif" font-size="11.00" fill="#000000">[table]</text>
<polygon fill="none" stroke="#000000" points="451,-172 451,-190 612,-190 612,-172 451,-172"/>
<text text-anchor="start" x="454" y="-178.2" font-family="Helvetica,sans-Serif" font-size="11.00" fill="#000000">...</text>
<polygon fill="#ffffff" stroke="transparent" points="451,-154 451,-172 503,-172 503,-154 451,-154"/>
<polygon fill="none" stroke="#000000" points="451,-154 451,-172 503,-172 503,-154 451,-154"/>
<text text-anchor="start" x="454" y="-160.2" font-family="Helvetica,sans-Serif" font-size="11.00" fill="#000000">&lt; 2</text>
<polygon fill="#ffffff" stroke="transparent" points="503,-154 503,-172 584,-172 584,-154 503,-154"/>
<polygon fill="none" stroke="#000000" points="503,-154 503,-172 584,-172 584,-154 503,-154"/>
<text text-anchor="start" x="521" y="-160.2" font-family="Helvetica,sans-Serif" font-size="11.00" fill="#000000">40,781 rows</text>
<polygon fill="#ffffff" stroke="transparent" points="584,-154 584,-172 612,-172 612,-154 584,-154"/>
<polygon fill="none" stroke="#000000" points="584,-154 584,-172 612,-172 612,-154 584,-154"/>
<text text-anchor="start" x="602" y="-160.2" font-family="Helvetica,sans-Serif" font-size="11.00" fill="#000000"> &#160;</text>
</a>
</g>
</g>
<!-- image_catalog -->
<g id="node6" class="node">
<title>image_catalog</title>
<g id="a_node6"><a xlink:href="../../tables/image_catalog.html" xlink:title="image_catalog" target="_top">
<polygon fill="#ffffff" stroke="transparent" points="174,-37 174,-205 317,-205 317,-37 174,-37"/>
<polygon fill="#f5f5f5" stroke="transparent" points="174.5,-183 174.5,-205 317.5,-205 317.5,-183 174.5,-183"/>
<polygon fill="none" stroke="#000000" points="174.5,-183 174.5,-205 317.5,-205 317.5,-183 174.5,-183"/>
<text text-anchor="start" x="179.5" y="-192.2" font-family="Helvetica,sans-Serif" font-weight="bold" font-size="11.00" fill="#000000">image_catalog</text>
<text text-anchor="start" x="282.5" y="-191.2" font-family="Helvetica,sans-Serif" font-size="11.00" fill="#000000">[table]</text>
<polygon fill="none" stroke="#000000" points="174.5,-161 174.5,-183 317.5,-183 317.5,-161 174.5,-161"/>
<image xlink:href="../../images/primaryKeys.png" width="11px" height="12px" preserveAspectRatio="xMinYMin meet" x="179.5" y="-178"/>
<text text-anchor="start" x="194.5" y="-169.2" font-family="Helvetica,sans-Serif" font-size="11.00" fill="#000000">image_catalog_id</text>
<polygon fill="#ffffff" stroke="transparent" points="174.5,-139 174.5,-161 317.5,-161 317.5,-139 174.5,-139"/>
<polygon fill="none" stroke="#000000" points="174.5,-139 174.5,-161 317.5,-161 317.5,-139 174.5,-139"/>
<text text-anchor="start" x="194.5" y="-147.2" font-family="Helvetica,sans-Serif" font-size="11.00" fill="#000000">institution</text>
<polygon fill="#ffffff" stroke="transparent" points="174.5,-117 174.5,-139 317.5,-139 317.5,-117 174.5,-117"/>
<polygon fill="none" stroke="#000000" points="174.5,-117 174.5,-139 317.5,-139 317.5,-117 174.5,-117"/>
<text text-anchor="start" x="194.5" y="-125.2" font-family="Helvetica,sans-Serif" font-size="11.00" fill="#000000">catalog_number_1</text>
<polygon fill="#ffffff" stroke="transparent" points="174.5,-95 174.5,-117 317.5,-117 317.5,-95 174.5,-95"/>
<polygon fill="none" stroke="#000000" points="174.5,-95 174.5,-117 317.5,-117 317.5,-95 174.5,-95"/>
<text text-anchor="start" x="194.5" y="-103.2" font-family="Helvetica,sans-Serif" font-size="11.00" fill="#000000">catalog_number_2</text>
<polygon fill="#ffffff" stroke="transparent" points="174.5,-73 174.5,-95 317.5,-95 317.5,-73 174.5,-73"/>
<polygon fill="none" stroke="#000000" points="174.5,-73 174.5,-95 317.5,-95 317.5,-73 174.5,-73"/>
<text text-anchor="start" x="194.5" y="-81.2" font-family="Helvetica,sans-Serif" font-size="11.00" fill="#000000">catalog_side</text>
<polygon fill="none" stroke="#000000" points="174.5,-55 174.5,-73 317.5,-73 317.5,-55 174.5,-55"/>
<text text-anchor="start" x="177.5" y="-61.2" font-family="Helvetica,sans-Serif" font-size="11.00" fill="#000000">...</text>
<polygon fill="#ffffff" stroke="transparent" points="174.5,-37 174.5,-55 208.5,-55 208.5,-37 174.5,-37"/>
<polygon fill="none" stroke="#000000" points="174.5,-37 174.5,-55 208.5,-55 208.5,-37 174.5,-37"/>
<text text-anchor="start" x="177.5" y="-43.2" font-family="Helvetica,sans-Serif" font-size="11.00" fill="#000000"> &#160;</text>
<polygon fill="#ffffff" stroke="transparent" points="208.5,-37 208.5,-55 284.5,-55 284.5,-37 208.5,-37"/>
<polygon fill="none" stroke="#000000" points="208.5,-37 208.5,-55 284.5,-55 284.5,-37 208.5,-37"/>
<text text-anchor="start" x="221.5" y="-43.2" font-family="Helvetica,sans-Serif" font-size="11.00" fill="#000000">41,712 rows</text>
<polygon fill="#ffffff" stroke="transparent" points="284.5,-37 284.5,-55 317.5,-55 317.5,-37 284.5,-37"/>
<polygon fill="none" stroke="#000000" points="284.5,-37 284.5,-55 317.5,-55 317.5,-37 284.5,-37"/>
<text text-anchor="start" x="298.5" y="-43.2" font-family="Helvetica,sans-Serif" font-size="11.00" fill="#000000">3 &gt;</text>
</a>
</g>
</g>
<!-- image_catalog_author&#45;&gt;image_catalog -->
<g id="edge4" class="edge">
<title>image_catalog_author:w&#45;&gt;image_catalog:e</title>
<path fill="none" stroke="#000000" d="M440.354,-180.8989C389.5361,-179.9102 373.2513,-172 317.5,-172"/>
<polygon fill="#000000" stroke="#000000" points="450.238,-176.9926 450.162,-184.9922 448.5621,-184.977 448.6381,-176.9774 450.238,-176.9926"/>
<polyline fill="none" stroke="#000000" points="451,-181 447.0002,-180.962 "/>
<ellipse fill="none" stroke="#000000" cx="443.8003" cy="-180.9316" rx="3.2" ry="3.2"/>
</g>
<!-- image_to_iaa_edition_catalog -->
<g id="node7" class="node">
<title>image_to_iaa_edition_catalog</title>
<g id="a_node7"><a xlink:href="../../tables/image_to_iaa_edition_catalog.html" xlink:title="image_to_iaa_edition_catalog" target="_top">
<polygon fill="#ffffff" stroke="transparent" points="379,-266 379,-354 683,-354 683,-266 379,-266"/>
<polygon fill="#f5f5f5" stroke="transparent" points="381,-330 381,-352 681,-352 681,-330 381,-330"/>
<polygon fill="none" stroke="#000000" points="381,-330 381,-352 681,-352 681,-330 381,-330"/>
<text text-anchor="start" x="386" y="-339.2" font-family="Helvetica,sans-Serif" font-weight="bold" font-size="11.00" fill="#000000">image_to_iaa_edition_catalog</text>
<text text-anchor="start" x="646" y="-338.2" font-family="Helvetica,sans-Serif" font-size="11.00" fill="#000000">[table]</text>
<polygon fill="none" stroke="#000000" points="381,-308 381,-330 599,-330 599,-308 381,-308"/>
<image xlink:href="../../images/primaryKeys.png" width="11px" height="12px" preserveAspectRatio="xMinYMin meet" x="386" y="-325"/>
<text text-anchor="start" x="401" y="-316.2" font-family="Helvetica,sans-Serif" font-size="11.00" fill="#000000">iaa_edition_catalog_id</text>
<polygon fill="none" stroke="#000000" points="599,-308 599,-330 681,-330 681,-308 599,-308"/>
<text text-anchor="start" x="602" y="-316.2" font-family="Helvetica,sans-Serif" font-size="11.00" fill="#000000">int unsigned[10]</text>
<polygon fill="none" stroke="#000000" points="381,-286 381,-308 599,-308 599,-286 381,-286"/>
<image xlink:href="../../images/primaryKeys.png" width="11px" height="12px" preserveAspectRatio="xMinYMin meet" x="386" y="-303"/>
<text text-anchor="start" x="401" y="-294.2" font-family="Helvetica,sans-Serif" font-size="11.00" fill="#000000">image_catalog_id</text>
<polygon fill="none" stroke="#000000" points="599,-286 599,-308 681,-308 681,-286 599,-286"/>
<text text-anchor="start" x="602" y="-294.2" font-family="Helvetica,sans-Serif" font-size="11.00" fill="#000000">int unsigned[10]</text>
<polygon fill="#ffffff" stroke="transparent" points="381,-268 381,-286 468,-286 468,-268 381,-268"/>
<polygon fill="none" stroke="#000000" points="381,-268 381,-286 468,-286 468,-268 381,-268"/>
<text text-anchor="start" x="384" y="-274.2" font-family="Helvetica,sans-Serif" font-size="11.00" fill="#000000">&lt; 2</text>
<polygon fill="#ffffff" stroke="transparent" points="468,-268 468,-286 599,-286 599,-268 468,-268"/>
<polygon fill="none" stroke="#000000" points="468,-268 468,-286 599,-286 599,-268 468,-268"/>
<text text-anchor="start" x="536" y="-274.2" font-family="Helvetica,sans-Serif" font-size="11.00" fill="#000000">39,105 rows</text>
<polygon fill="#ffffff" stroke="transparent" points="599,-268 599,-286 681,-286 681,-268 599,-268"/>
<polygon fill="none" stroke="#000000" points="599,-268 599,-286 681,-286 681,-268 599,-268"/>
<text text-anchor="start" x="662" y="-274.2" font-family="Helvetica,sans-Serif" font-size="11.00" fill="#000000">0 &gt;</text>
<polygon fill="none" stroke="#000000" stroke-width="2" points="380,-267 380,-353 682,-353 682,-267 380,-267"/>
</a>
</g>
</g>
<!-- image_to_iaa_edition_catalog&#45;&gt;iaa_edition_catalog -->
<g id="edge5" class="edge">
<title>image_to_iaa_edition_catalog:w&#45;&gt;iaa_edition_catalog:e</title>
<path fill="none" stroke="#000000" d="M366.8526,-322.8438C339.1888,-342.0828 377.4857,-427 330.5,-427"/>
<polygon fill="#000000" stroke="#000000" points="373.2799,-321.0976 381.9439,-322.4741 377.1399,-320.0488 381,-319 381,-319 381,-319 377.1399,-320.0488 380.0561,-315.5259 373.2799,-321.0976 373.2799,-321.0976"/>
<ellipse fill="none" stroke="#000000" cx="370.1918" cy="-321.9366" rx="3.2" ry="3.2"/>
</g>
<!-- image_to_iaa_edition_catalog&#45;&gt;image_catalog -->
<g id="edge6" class="edge">
<title>image_to_iaa_edition_catalog:w&#45;&gt;image_catalog:e</title>
<path fill="none" stroke="#000000" d="M366.5258,-293.9101C329.0632,-274.6611 373.9712,-172 317.5,-172"/>
<polygon fill="#000000" stroke="#000000" points="373.1763,-295.3298 380.2484,-300.5207 377.0881,-296.1649 381,-297 381,-297 381,-297 377.0881,-296.1649 381.7516,-293.4793 373.1763,-295.3298 373.1763,-295.3298"/>
<ellipse fill="none" stroke="#000000" cx="370.0468" cy="-294.6617" rx="3.2" ry="3.2"/>
</g>
<!-- SQE_image -->
<g id="node8" class="node">
<title>SQE_image</title>
<g id="a_node8"><a xlink:href="../../tables/SQE_image.html" xlink:title="SQE_image" target="_top">
<polygon fill="#ffffff" stroke="transparent" points="476,-75 476,-133 586,-133 586,-75 476,-75"/>
<polygon fill="#f5f5f5" stroke="transparent" points="476,-111 476,-133 586,-133 586,-111 476,-111"/>
<polygon fill="none" stroke="#000000" points="476,-111 476,-133 586,-133 586,-111 476,-111"/>
<text text-anchor="start" x="481" y="-120.2" font-family="Helvetica,sans-Serif" font-weight="bold" font-size="11.00" fill="#000000">SQE_image</text>
<text text-anchor="start" x="551" y="-119.2" font-family="Helvetica,sans-Serif" font-size="11.00" fill="#000000">[table]</text>
<polygon fill="none" stroke="#000000" points="476,-93 476,-111 586,-111 586,-93 476,-93"/>
<text text-anchor="start" x="479" y="-99.2" font-family="Helvetica,sans-Serif" font-size="11.00" fill="#000000">...</text>
<polygon fill="#ffffff" stroke="transparent" points="476,-75 476,-93 498,-93 498,-75 476,-75"/>
<polygon fill="none" stroke="#000000" points="476,-75 476,-93 498,-93 498,-75 476,-75"/>
<text text-anchor="start" x="479" y="-81.2" font-family="Helvetica,sans-Serif" font-size="11.00" fill="#000000">&lt; 2</text>
<polygon fill="#ffffff" stroke="transparent" points="498,-75 498,-93 564,-93 564,-75 498,-75"/>
<polygon fill="none" stroke="#000000" points="498,-75 498,-93 564,-93 564,-75 498,-75"/>
<text text-anchor="start" x="501" y="-81.2" font-family="Helvetica,sans-Serif" font-size="11.00" fill="#000000">97,684 rows</text>
<polygon fill="#ffffff" stroke="transparent" points="564,-75 564,-93 586,-93 586,-75 564,-75"/>
<polygon fill="none" stroke="#000000" points="564,-75 564,-93 586,-93 586,-75 564,-75"/>
<text text-anchor="start" x="567" y="-81.2" font-family="Helvetica,sans-Serif" font-size="11.00" fill="#000000">4 &gt;</text>
</a>
</g>
</g>
<!-- SQE_image&#45;&gt;image_catalog -->
<g id="edge7" class="edge">
<title>SQE_image:w&#45;&gt;image_catalog:e</title>
<path fill="none" stroke="#000000" d="M461.4149,-102.6425C423.5064,-106.2131 411.6503,-124.1352 371,-143 346.4667,-154.3853 344.5464,-172 317.5,-172"/>
<polygon fill="#000000" stroke="#000000" points="468.0078,-102.3521 476.1584,-105.5965 472.0039,-102.1761 476,-102 476,-102 476,-102 472.0039,-102.1761 475.8416,-98.4035 468.0078,-102.3521 468.0078,-102.3521"/>
<ellipse fill="none" stroke="#000000" cx="464.8109" cy="-102.493" rx="3.2" ry="3.2"/>
</g>
</g>
</svg>
