<?xml version="1.0" encoding="UTF-8" standalone="no"?>
<!DOCTYPE svg PUBLIC "-//W3C//DTD SVG 1.1//EN"
 "http://www.w3.org/Graphics/SVG/1.1/DTD/svg11.dtd">
<!-- Generated by graphviz version 2.43.0 (0)
 -->
<!-- Title: twoDegreesRelationshipsDiagram Pages: 1 -->
<svg width="773pt" height="238pt"
 viewBox="0.00 0.00 773.00 238.00" xmlns="http://www.w3.org/2000/svg" xmlns:xlink="http://www.w3.org/1999/xlink">
<g id="graph0" class="graph" transform="scale(1 1) rotate(0) translate(4 234)">
<title>twoDegreesRelationshipsDiagram</title>
<polygon fill="#ffffff" stroke="transparent" points="-4,4 -4,-234 769,-234 769,4 -4,4"/>
<text text-anchor="middle" x="79.5" y="-7.2" font-family="Helvetica,sans-Serif" font-size="11.00">Generated by SchemaSpy</text>
<!-- char_of_writing -->
<g id="node1" class="node">
<title>char_of_writing</title>
<g id="a_node1"><a xlink:href="../../tables/char_of_writing.html" xlink:title="char_of_writing" target="_top">
<polygon fill="#ffffff" stroke="transparent" points="203,-40 203,-164 348,-164 348,-40 203,-40"/>
<polygon fill="#f5f5f5" stroke="transparent" points="203.5,-142 203.5,-164 348.5,-164 348.5,-142 203.5,-142"/>
<polygon fill="none" stroke="black" points="203.5,-142 203.5,-164 348.5,-164 348.5,-142 203.5,-142"/>
<text text-anchor="start" x="208.5" y="-151.2" font-family="Helvetica,sans-Serif" font-weight="bold" font-size="11.00">char_of_writing</text>
<text text-anchor="start" x="306.5" y="-150.2" font-family="Helvetica,sans-Serif" font-size="11.00">[table]</text>
<polygon fill="none" stroke="black" points="203.5,-120 203.5,-142 348.5,-142 348.5,-120 203.5,-120"/>
<image xlink:href="../../images/primaryKeys.png" width="11px" height="12px" preserveAspectRatio="xMinYMin meet" x="208.5" y="-137"/>
<text text-anchor="start" x="223.5" y="-128.2" font-family="Helvetica,sans-Serif" font-size="11.00">char_of_writing_id</text>
<polygon fill="none" stroke="black" points="203.5,-98 203.5,-120 348.5,-120 348.5,-98 203.5,-98"/>
<image xlink:href="../../images/primaryKeys.png" width="11px" height="12px" preserveAspectRatio="xMinYMin meet" x="208.5" y="-115"/>
<text text-anchor="start" x="223.5" y="-106.2" font-family="Helvetica,sans-Serif" font-size="11.00">form_of_writing_id</text>
<polygon fill="#ffffff" stroke="transparent" points="203.5,-76 203.5,-98 348.5,-98 348.5,-76 203.5,-76"/>
<polygon fill="none" stroke="black" points="203.5,-76 203.5,-98 348.5,-98 348.5,-76 203.5,-76"/>
<text text-anchor="start" x="223.5" y="-84.2" font-family="Helvetica,sans-Serif" font-size="11.00">unicode_char</text>
<polygon fill="none" stroke="black" points="203.5,-58 203.5,-76 348.5,-76 348.5,-58 203.5,-58"/>
<text text-anchor="start" x="206.5" y="-64.2" font-family="Helvetica,sans-Serif" font-size="11.00">...</text>
<polygon fill="#ffffff" stroke="transparent" points="203.5,-40 203.5,-58 254.5,-58 254.5,-40 203.5,-40"/>
<polygon fill="none" stroke="black" points="203.5,-40 203.5,-58 254.5,-58 254.5,-40 203.5,-40"/>
<text text-anchor="start" x="206.5" y="-46.2" font-family="Helvetica,sans-Serif" font-size="11.00">&lt; 1</text>
<polygon fill="#ffffff" stroke="transparent" points="254.5,-40 254.5,-58 309.5,-58 309.5,-40 254.5,-40"/>
<polygon fill="none" stroke="black" points="254.5,-40 254.5,-58 309.5,-58 309.5,-40 254.5,-40"/>
<text text-anchor="start" x="269.5" y="-46.2" font-family="Helvetica,sans-Serif" font-size="11.00">0 rows</text>
<polygon fill="#ffffff" stroke="transparent" points="309.5,-40 309.5,-58 348.5,-58 348.5,-40 309.5,-40"/>
<polygon fill="none" stroke="black" points="309.5,-40 309.5,-58 348.5,-58 348.5,-40 309.5,-40"/>
<text text-anchor="start" x="325.5" y="-46.2" font-family="Helvetica,sans-Serif" font-size="11.00">2 &gt;</text>
</a>
</g>
</g>
<!-- form_of_writing -->
<g id="node2" class="node">
<title>form_of_writing</title>
<g id="a_node2"><a xlink:href="../../tables/form_of_writing.html" xlink:title="form_of_writing" target="_top">
<polygon fill="#ffffff" stroke="transparent" points="8,-82 8,-140 154,-140 154,-82 8,-82"/>
<polygon fill="#f5f5f5" stroke="transparent" points="8,-118 8,-140 154,-140 154,-118 8,-118"/>
<polygon fill="none" stroke="black" points="8,-118 8,-140 154,-140 154,-118 8,-118"/>
<text text-anchor="start" x="13" y="-127.2" font-family="Helvetica,sans-Serif" font-weight="bold" font-size="11.00">form_of_writing</text>
<text text-anchor="start" x="112" y="-126.2" font-family="Helvetica,sans-Serif" font-size="11.00">[table]</text>
<polygon fill="none" stroke="black" points="8,-100 8,-118 154,-118 154,-100 8,-100"/>
<text text-anchor="start" x="11" y="-106.2" font-family="Helvetica,sans-Serif" font-size="11.00">...</text>
<polygon fill="#ffffff" stroke="transparent" points="8,-82 8,-100 59,-100 59,-82 8,-82"/>
<polygon fill="none" stroke="black" points="8,-82 8,-100 59,-100 59,-82 8,-82"/>
<text text-anchor="start" x="11" y="-88.2" font-family="Helvetica,sans-Serif" font-size="11.00">&lt; 2</text>
<polygon fill="#ffffff" stroke="transparent" points="59,-82 59,-100 115,-100 115,-82 59,-82"/>
<polygon fill="none" stroke="black" points="59,-82 59,-100 115,-100 115,-82 59,-82"/>
<text text-anchor="start" x="75" y="-88.2" font-family="Helvetica,sans-Serif" font-size="11.00">0 rows</text>
<polygon fill="#ffffff" stroke="transparent" points="115,-82 115,-100 154,-100 154,-82 115,-82"/>
<polygon fill="none" stroke="black" points="115,-82 115,-100 154,-100 154,-82 115,-82"/>
<text text-anchor="start" x="131" y="-88.2" font-family="Helvetica,sans-Serif" font-size="11.00">2 &gt;</text>
</a>
</g>
</g>
<!-- char_of_writing&#45;&gt;form_of_writing -->
<g id="edge1" class="edge">
<title>char_of_writing:w&#45;&gt;form_of_writing:e</title>
<path fill="none" stroke="black" d="M188.09,-109C177.32,-109 170.34,-109 155,-109"/>
<polygon fill="black" stroke="black" points="194.5,-109 202.5,-112.6 198.5,-109 202.5,-109 202.5,-109 202.5,-109 198.5,-109 202.5,-105.4 194.5,-109 194.5,-109"/>
<ellipse fill="none" stroke="black" cx="191.3" cy="-109" rx="3.2" ry="3.2"/>
</g>
<!-- char_of_writing_owner -->
<g id="node3" class="node">
<title>char_of_writing_owner</title>
<g id="a_node3"><a xlink:href="../../tables/char_of_writing_owner.html" xlink:title="char_of_writing_owner" target="_top">
<polygon fill="#ffffff" stroke="transparent" points="483,-168 483,-226 671,-226 671,-168 483,-168"/>
<polygon fill="#f5f5f5" stroke="transparent" points="483,-204 483,-226 671,-226 671,-204 483,-204"/>
<polygon fill="none" stroke="black" points="483,-204 483,-226 671,-226 671,-204 483,-204"/>
<text text-anchor="start" x="488" y="-213.2" font-family="Helvetica,sans-Serif" font-weight="bold" font-size="11.00">char_of_writing_owner</text>
<text text-anchor="start" x="629" y="-212.2" font-family="Helvetica,sans-Serif" font-size="11.00">[table]</text>
<polygon fill="none" stroke="black" points="483,-186 483,-204 671,-204 671,-186 483,-186"/>
<text text-anchor="start" x="486" y="-192.2" font-family="Helvetica,sans-Serif" font-size="11.00">...</text>
<polygon fill="#ffffff" stroke="transparent" points="483,-168 483,-186 561,-186 561,-168 483,-168"/>
<polygon fill="none" stroke="black" points="483,-168 483,-186 561,-186 561,-168 483,-168"/>
<text text-anchor="start" x="486" y="-174.2" font-family="Helvetica,sans-Serif" font-size="11.00">&lt; 3</text>
<polygon fill="#ffffff" stroke="transparent" points="561,-168 561,-186 630,-186 630,-168 561,-168"/>
<polygon fill="none" stroke="black" points="561,-168 561,-186 630,-186 630,-168 561,-168"/>
<text text-anchor="start" x="590" y="-174.2" font-family="Helvetica,sans-Serif" font-size="11.00">0 rows</text>
<polygon fill="#ffffff" stroke="transparent" points="630,-168 630,-186 671,-186 671,-168 630,-168"/>
<polygon fill="none" stroke="black" points="630,-168 630,-186 671,-186 671,-168 630,-168"/>
<text text-anchor="start" x="660" y="-174.2" font-family="Helvetica,sans-Serif" font-size="11.00"> &#160;</text>
</a>
</g>
</g>
<!-- char_of_writing_owner&#45;&gt;char_of_writing -->
<g id="edge2" class="edge">
<title>char_of_writing_owner:w&#45;&gt;char_of_writing:e</title>
<path fill="none" stroke="black" d="M467.27,-194.31C434.84,-191.03 423.51,-176.37 389,-158 370.23,-148.01 370.76,-131 349.5,-131"/>
<polygon fill="black" stroke="black" points="474.01,-194.63 481.83,-198.6 478,-194.81 482,-195 482,-195 482,-195 478,-194.81 482.17,-191.4 474.01,-194.63 474.01,-194.63"/>
<ellipse fill="none" stroke="black" cx="470.81" cy="-194.48" rx="3.2" ry="3.2"/>
</g>
<!-- kerning_of_char -->
<g id="node4" class="node">
<title>kerning_of_char</title>
<g id="a_node4"><a xlink:href="../../tables/kerning_of_char.html" xlink:title="kerning_of_char" target="_top">
<polygon fill="#ffffff" stroke="transparent" points="397,-37 397,-147 757,-147 757,-37 397,-37"/>
<polygon fill="#f5f5f5" stroke="transparent" points="399,-123 399,-145 755,-145 755,-123 399,-123"/>
<polygon fill="none" stroke="black" points="399,-123 399,-145 755,-145 755,-123 399,-123"/>
<text text-anchor="start" x="404" y="-132.2" font-family="Helvetica,sans-Serif" font-weight="bold" font-size="11.00">kerning_of_char</text>
<text text-anchor="start" x="713" y="-131.2" font-family="Helvetica,sans-Serif" font-size="11.00">[table]</text>
<polygon fill="none" stroke="black" points="399,-101 399,-123 658,-123 658,-101 399,-101"/>
<text text-anchor="start" x="419" y="-109.2" font-family="Helvetica,sans-Serif" font-size="11.00">kerning</text>
<polygon fill="none" stroke="black" points="658,-101 658,-123 755,-123 755,-101 658,-101"/>
<text text-anchor="start" x="661" y="-109.2" font-family="Helvetica,sans-Serif" font-size="11.00">smallint[5]</text>
<polygon fill="none" stroke="black" points="399,-79 399,-101 658,-101 658,-79 399,-79"/>
<image xlink:href="../../images/primaryKeys.png" width="11px" height="12px" preserveAspectRatio="xMinYMin meet" x="404" y="-96"/>
<text text-anchor="start" x="419" y="-87.2" font-family="Helvetica,sans-Serif" font-size="11.00">previous_char</text>
<polygon fill="none" stroke="black" points="658,-79 658,-101 755,-101 755,-79 658,-79"/>
<text text-anchor="start" x="661" y="-87.2" font-family="Helvetica,sans-Serif" font-size="11.00">char[1]</text>
<polygon fill="none" stroke="black" points="399,-57 399,-79 658,-79 658,-57 399,-57"/>
<image xlink:href="../../images/primaryKeys.png" width="11px" height="12px" preserveAspectRatio="xMinYMin meet" x="404" y="-74"/>
<text text-anchor="start" x="419" y="-65.2" font-family="Helvetica,sans-Serif" font-size="11.00">chars_of_writing_char_of_writing_id</text>
<polygon fill="none" stroke="black" points="658,-57 658,-79 755,-79 755,-57 658,-57"/>
<text text-anchor="start" x="661" y="-65.2" font-family="Helvetica,sans-Serif" font-size="11.00">int unsigned[10]</text>
<polygon fill="#ffffff" stroke="transparent" points="399,-39 399,-57 520,-57 520,-39 399,-39"/>
<polygon fill="none" stroke="black" points="399,-39 399,-57 520,-57 520,-39 399,-39"/>
<text text-anchor="start" x="402" y="-45.2" font-family="Helvetica,sans-Serif" font-size="11.00">&lt; 1</text>
<polygon fill="#ffffff" stroke="transparent" points="520,-39 520,-57 658,-57 658,-39 520,-39"/>
<polygon fill="none" stroke="black" points="520,-39 520,-57 658,-57 658,-39 520,-39"/>
<text text-anchor="start" x="618" y="-45.2" font-family="Helvetica,sans-Serif" font-size="11.00">0 rows</text>
<polygon fill="#ffffff" stroke="transparent" points="658,-39 658,-57 755,-57 755,-39 658,-39"/>
<polygon fill="none" stroke="black" points="658,-39 658,-57 755,-57 755,-39 658,-39"/>
<text text-anchor="start" x="732" y="-45.2" font-family="Helvetica,sans-Serif" font-size="11.00">0 &gt;</text>
<polygon fill="none" stroke="black" stroke-width="2" points="398,-38 398,-146 756,-146 756,-38 398,-38"/>
</a>
</g>
</g>
<!-- kerning_of_char&#45;&gt;char_of_writing -->
<g id="edge3" class="edge">
<title>kerning_of_char:w&#45;&gt;char_of_writing:e</title>
<path fill="none" stroke="black" d="M384.29,-72.94C368.59,-87.8 378.76,-131 349.5,-131"/>
<polygon fill="black" stroke="black" points="390.47,-70.71 399.22,-71.39 394.24,-69.36 398,-68 398,-68 398,-68 394.24,-69.36 396.78,-64.61 390.47,-70.71 390.47,-70.71"/>
<ellipse fill="none" stroke="black" cx="387.46" cy="-71.8" rx="3.2" ry="3.2"/>
</g>
</g>
</svg>
