<?xml version="1.0" encoding="UTF-8" standalone="no"?>
<!DOCTYPE svg PUBLIC "-//W3C//DTD SVG 1.1//EN"
 "http://www.w3.org/Graphics/SVG/1.1/DTD/svg11.dtd">
<!-- Generated by graphviz version 2.43.0 (0)
 -->
<!-- Title: twoDegreesRelationshipsDiagram Pages: 1 -->
<svg width="736pt" height="409pt"
 viewBox="0.00 0.00 736.00 409.00" xmlns="http://www.w3.org/2000/svg" xmlns:xlink="http://www.w3.org/1999/xlink">
<g id="graph0" class="graph" transform="scale(1 1) rotate(0) translate(4 405)">
<title>twoDegreesRelationshipsDiagram</title>
<polygon fill="#ffffff" stroke="transparent" points="-4,4 -4,-405 732,-405 732,4 -4,4"/>
<text text-anchor="middle" x="79.5" y="-7.2" font-family="Helvetica,sans-Serif" font-size="11.00">Generated by SchemaSpy</text>
<!-- line_data -->
<g id="node1" class="node">
<title>line_data</title>
<g id="a_node1"><a xlink:href="../../tables/line_data.html" xlink:title="line_data" target="_top">
<polygon fill="#ffffff" stroke="transparent" points="288,-164 288,-270 414,-270 414,-164 288,-164"/>
<polygon fill="#f5f5f5" stroke="transparent" points="288,-248 288,-270 414,-270 414,-248 288,-248"/>
<polygon fill="none" stroke="black" points="288,-248 288,-270 414,-270 414,-248 288,-248"/>
<text text-anchor="start" x="293" y="-257.2" font-family="Helvetica,sans-Serif" font-weight="bold" font-size="11.00">line_data</text>
<text text-anchor="start" x="372" y="-256.2" font-family="Helvetica,sans-Serif" font-size="11.00">[table]</text>
<polygon fill="none" stroke="black" points="288,-226 288,-248 414,-248 414,-226 288,-226"/>
<image xlink:href="../../images/primaryKeys.png" width="11px" height="12px" preserveAspectRatio="xMinYMin meet" x="293" y="-243"/>
<text text-anchor="start" x="321" y="-234.2" font-family="Helvetica,sans-Serif" font-size="11.00">line_data_id</text>
<polygon fill="#ffffff" stroke="transparent" points="288,-204 288,-226 414,-226 414,-204 288,-204"/>
<polygon fill="none" stroke="black" points="288,-204 288,-226 414,-226 414,-204 288,-204"/>
<image xlink:href="../../images/foreignKeys.png" width="11px" height="12px" preserveAspectRatio="xMinYMin meet" x="293" y="-221"/>
<text text-anchor="start" x="321" y="-212.2" font-family="Helvetica,sans-Serif" font-size="11.00">line_id</text>
<polygon fill="#ffffff" stroke="transparent" points="288,-182 288,-204 414,-204 414,-182 288,-182"/>
<polygon fill="none" stroke="black" points="288,-182 288,-204 414,-204 414,-182 288,-182"/>
<text text-anchor="start" x="321" y="-190.2" font-family="Helvetica,sans-Serif" font-size="11.00">name</text>
<polygon fill="#ffffff" stroke="transparent" points="288,-164 288,-182 314,-182 314,-164 288,-164"/>
<polygon fill="none" stroke="black" points="288,-164 288,-182 314,-182 314,-164 288,-164"/>
<text text-anchor="start" x="291" y="-170.2" font-family="Helvetica,sans-Serif" font-size="11.00">&lt; 1</text>
<polygon fill="#ffffff" stroke="transparent" points="314,-164 314,-182 388,-182 388,-164 314,-164"/>
<polygon fill="none" stroke="black" points="314,-164 314,-182 388,-182 388,-164 314,-164"/>
<text text-anchor="start" x="317" y="-170.2" font-family="Helvetica,sans-Serif" font-size="11.00">55,080 rows</text>
<polygon fill="#ffffff" stroke="transparent" points="388,-164 388,-182 414,-182 414,-164 388,-164"/>
<polygon fill="none" stroke="black" points="388,-164 388,-182 414,-182 414,-164 388,-164"/>
<text text-anchor="start" x="391" y="-170.2" font-family="Helvetica,sans-Serif" font-size="11.00">1 &gt;</text>
</a>
</g>
</g>
<!-- line -->
<g id="node2" class="node">
<title>line</title>
<g id="a_node2"><a xlink:href="../../tables/line.html" xlink:title="line" target="_top">
<polygon fill="#ffffff" stroke="transparent" points="8,-184 8,-250 209,-250 209,-184 8,-184"/>
<polygon fill="#f5f5f5" stroke="transparent" points="10.5,-226 10.5,-248 207.5,-248 207.5,-226 10.5,-226"/>
<polygon fill="none" stroke="black" points="10.5,-226 10.5,-248 207.5,-248 207.5,-226 10.5,-226"/>
<text text-anchor="start" x="15.5" y="-235.2" font-family="Helvetica,sans-Serif" font-weight="bold" font-size="11.00">line</text>
<text text-anchor="start" x="165.5" y="-234.2" font-family="Helvetica,sans-Serif" font-size="11.00">[table]</text>
<polygon fill="none" stroke="black" points="10.5,-204 10.5,-226 110.5,-226 110.5,-204 10.5,-204"/>
<image xlink:href="../../images/primaryKeys.png" width="11px" height="12px" preserveAspectRatio="xMinYMin meet" x="15.5" y="-221"/>
<text text-anchor="start" x="48.5" y="-212.2" font-family="Helvetica,sans-Serif" font-size="11.00">line_id</text>
<polygon fill="none" stroke="black" points="110.5,-204 110.5,-226 207.5,-226 207.5,-204 110.5,-204"/>
<text text-anchor="start" x="113.5" y="-212.2" font-family="Helvetica,sans-Serif" font-size="11.00">int unsigned[10]</text>
<polygon fill="#ffffff" stroke="transparent" points="10.5,-186 10.5,-204 36.5,-204 36.5,-186 10.5,-186"/>
<polygon fill="none" stroke="black" points="10.5,-186 10.5,-204 36.5,-204 36.5,-186 10.5,-186"/>
<text text-anchor="start" x="13.5" y="-192.2" font-family="Helvetica,sans-Serif" font-size="11.00">&lt; 0</text>
<polygon fill="#ffffff" stroke="transparent" points="36.5,-186 36.5,-204 110.5,-204 110.5,-186 36.5,-186"/>
<polygon fill="none" stroke="black" points="36.5,-186 36.5,-204 110.5,-204 110.5,-186 36.5,-186"/>
<text text-anchor="start" x="39.5" y="-192.2" font-family="Helvetica,sans-Serif" font-size="11.00">53,964 rows</text>
<polygon fill="#ffffff" stroke="transparent" points="110.5,-186 110.5,-204 207.5,-204 207.5,-186 110.5,-186"/>
<polygon fill="none" stroke="black" points="110.5,-186 110.5,-204 207.5,-204 207.5,-186 110.5,-186"/>
<text text-anchor="start" x="184.5" y="-192.2" font-family="Helvetica,sans-Serif" font-size="11.00">3 &gt;</text>
<polygon fill="none" stroke="black" stroke-width="2" points="9,-185 9,-249 208,-249 208,-185 9,-185"/>
</a>
</g>
</g>
<!-- line_data&#45;&gt;line -->
<g id="edge1" class="edge">
<title>line_data:w&#45;&gt;line:e</title>
<path fill="none" stroke="black" d="M272.36,-215C248.75,-215 237.94,-215 208.5,-215"/>
<polygon fill="black" stroke="black" points="279,-215 287,-218.6 283,-215 287,-215 287,-215 287,-215 283,-215 287,-211.4 279,-215 279,-215"/>
<ellipse fill="none" stroke="black" cx="275.8" cy="-215" rx="3.2" ry="3.2"/>
</g>
<!-- line_data_owner -->
<g id="node3" class="node">
<title>line_data_owner</title>
<g id="a_node3"><a xlink:href="../../tables/line_data_owner.html" xlink:title="line_data_owner" target="_top">
<polygon fill="#ffffff" stroke="transparent" points="531,-210 531,-268 682,-268 682,-210 531,-210"/>
<polygon fill="#f5f5f5" stroke="transparent" points="531.5,-246 531.5,-268 682.5,-268 682.5,-246 531.5,-246"/>
<polygon fill="none" stroke="black" points="531.5,-246 531.5,-268 682.5,-268 682.5,-246 531.5,-246"/>
<text text-anchor="start" x="536.5" y="-255.2" font-family="Helvetica,sans-Serif" font-weight="bold" font-size="11.00">line_data_owner</text>
<text text-anchor="start" x="640.5" y="-254.2" font-family="Helvetica,sans-Serif" font-size="11.00">[table]</text>
<polygon fill="none" stroke="black" points="531.5,-228 531.5,-246 682.5,-246 682.5,-228 531.5,-228"/>
<text text-anchor="start" x="534.5" y="-234.2" font-family="Helvetica,sans-Serif" font-size="11.00">...</text>
<polygon fill="#ffffff" stroke="transparent" points="531.5,-210 531.5,-228 575.5,-228 575.5,-210 531.5,-210"/>
<polygon fill="none" stroke="black" points="531.5,-210 531.5,-228 575.5,-228 575.5,-210 531.5,-210"/>
<text text-anchor="start" x="534.5" y="-216.2" font-family="Helvetica,sans-Serif" font-size="11.00">&lt; 3</text>
<polygon fill="#ffffff" stroke="transparent" points="575.5,-210 575.5,-228 658.5,-228 658.5,-210 575.5,-210"/>
<polygon fill="none" stroke="black" points="575.5,-210 575.5,-228 658.5,-228 658.5,-210 575.5,-210"/>
<text text-anchor="start" x="587.5" y="-216.2" font-family="Helvetica,sans-Serif" font-size="11.00">53,405 rows</text>
<polygon fill="#ffffff" stroke="transparent" points="658.5,-210 658.5,-228 682.5,-228 682.5,-210 658.5,-210"/>
<polygon fill="none" stroke="black" points="658.5,-210 658.5,-228 682.5,-228 682.5,-210 658.5,-210"/>
<text text-anchor="start" x="671.5" y="-216.2" font-family="Helvetica,sans-Serif" font-size="11.00"> &#160;</text>
</a>
</g>
</g>
<!-- line_data_owner&#45;&gt;line_data -->
<g id="edge2" class="edge">
<title>line_data_owner:w&#45;&gt;line_data:e</title>
<path fill="none" stroke="black" d="M515.97,-237C476.16,-237 461.12,-237 415,-237"/>
<polygon fill="black" stroke="black" points="522.5,-237 530.5,-240.6 526.5,-237 530.5,-237 530.5,-237 530.5,-237 526.5,-237 530.5,-233.4 522.5,-237 522.5,-237"/>
<ellipse fill="none" stroke="black" cx="519.3" cy="-237" rx="3.2" ry="3.2"/>
</g>
<!-- line_to_sign -->
<g id="node4" class="node">
<title>line_to_sign</title>
<g id="a_node4"><a xlink:href="../../tables/line_to_sign.html" xlink:title="line_to_sign" target="_top">
<polygon fill="#ffffff" stroke="transparent" points="279.5,-291 279.5,-397 422.5,-397 422.5,-291 279.5,-291"/>
<polygon fill="#f5f5f5" stroke="transparent" points="280,-375 280,-397 423,-397 423,-375 280,-375"/>
<polygon fill="none" stroke="black" points="280,-375 280,-397 423,-397 423,-375 280,-375"/>
<text text-anchor="start" x="285" y="-384.2" font-family="Helvetica,sans-Serif" font-weight="bold" font-size="11.00">line_to_sign</text>
<text text-anchor="start" x="381" y="-383.2" font-family="Helvetica,sans-Serif" font-size="11.00">[table]</text>
<polygon fill="none" stroke="black" points="280,-353 280,-375 423,-375 423,-353 280,-353"/>
<image xlink:href="../../images/primaryKeys.png" width="11px" height="12px" preserveAspectRatio="xMinYMin meet" x="285" y="-370"/>
<text text-anchor="start" x="313" y="-361.2" font-family="Helvetica,sans-Serif" font-size="11.00">line_to_sign_id</text>
<polygon fill="#ffffff" stroke="transparent" points="280,-331 280,-353 423,-353 423,-331 280,-331"/>
<polygon fill="none" stroke="black" points="280,-331 280,-353 423,-353 423,-331 280,-331"/>
<image xlink:href="../../images/foreignKeys.png" width="11px" height="12px" preserveAspectRatio="xMinYMin meet" x="285" y="-348"/>
<text text-anchor="start" x="313" y="-339.2" font-family="Helvetica,sans-Serif" font-size="11.00">sign_id</text>
<polygon fill="#ffffff" stroke="transparent" points="280,-309 280,-331 423,-331 423,-309 280,-309"/>
<polygon fill="none" stroke="black" points="280,-309 280,-331 423,-331 423,-309 280,-309"/>
<image xlink:href="../../images/foreignKeys.png" width="11px" height="12px" preserveAspectRatio="xMinYMin meet" x="285" y="-326"/>
<text text-anchor="start" x="313" y="-317.2" font-family="Helvetica,sans-Serif" font-size="11.00">line_id</text>
<polygon fill="#ffffff" stroke="transparent" points="280,-291 280,-309 306,-309 306,-291 280,-291"/>
<polygon fill="none" stroke="black" points="280,-291 280,-309 306,-309 306,-291 280,-291"/>
<text text-anchor="start" x="283" y="-297.2" font-family="Helvetica,sans-Serif" font-size="11.00">&lt; 2</text>
<polygon fill="#ffffff" stroke="transparent" points="306,-291 306,-309 397,-309 397,-291 306,-291"/>
<polygon fill="none" stroke="black" points="306,-291 306,-309 397,-309 397,-291 306,-291"/>
<text text-anchor="start" x="309" y="-297.2" font-family="Helvetica,sans-Serif" font-size="11.00">1,730,550 rows</text>
<polygon fill="#ffffff" stroke="transparent" points="397,-291 397,-309 423,-309 423,-291 397,-291"/>
<polygon fill="none" stroke="black" points="397,-291 397,-309 423,-309 423,-291 397,-291"/>
<text text-anchor="start" x="400" y="-297.2" font-family="Helvetica,sans-Serif" font-size="11.00">1 &gt;</text>
</a>
</g>
</g>
<!-- line_to_sign&#45;&gt;line -->
<g id="edge3" class="edge">
<title>line_to_sign:w&#45;&gt;line:e</title>
<path fill="none" stroke="black" d="M264.7,-316.97C230.29,-299.75 259,-215 208.5,-215"/>
<polygon fill="black" stroke="black" points="271.17,-318.34 278.25,-323.52 275.09,-319.17 279,-320 279,-320 279,-320 275.09,-319.17 279.75,-316.48 271.17,-318.34 271.17,-318.34"/>
<ellipse fill="none" stroke="black" cx="268.04" cy="-317.68" rx="3.2" ry="3.2"/>
</g>
<!-- sign -->
<g id="node5" class="node">
<title>sign</title>
<g id="a_node5"><a xlink:href="../../tables/sign.html" xlink:title="sign" target="_top">
<polygon fill="#ffffff" stroke="transparent" points="43,-315 43,-373 174,-373 174,-315 43,-315"/>
<polygon fill="#f5f5f5" stroke="transparent" points="43.5,-351 43.5,-373 174.5,-373 174.5,-351 43.5,-351"/>
<polygon fill="none" stroke="black" points="43.5,-351 43.5,-373 174.5,-373 174.5,-351 43.5,-351"/>
<text text-anchor="start" x="48.5" y="-360.2" font-family="Helvetica,sans-Serif" font-weight="bold" font-size="11.00">sign</text>
<text text-anchor="start" x="132.5" y="-359.2" font-family="Helvetica,sans-Serif" font-size="11.00">[table]</text>
<polygon fill="none" stroke="black" points="43.5,-333 43.5,-351 174.5,-351 174.5,-333 43.5,-333"/>
<text text-anchor="start" x="46.5" y="-339.2" font-family="Helvetica,sans-Serif" font-size="11.00">...</text>
<polygon fill="#ffffff" stroke="transparent" points="43.5,-315 43.5,-333 57.5,-333 57.5,-315 43.5,-315"/>
<polygon fill="none" stroke="black" points="43.5,-315 43.5,-333 57.5,-333 57.5,-315 43.5,-315"/>
<text text-anchor="start" x="46.5" y="-321.2" font-family="Helvetica,sans-Serif" font-size="11.00"> &#160;</text>
<polygon fill="#ffffff" stroke="transparent" points="57.5,-315 57.5,-333 148.5,-333 148.5,-315 57.5,-315"/>
<polygon fill="none" stroke="black" points="57.5,-315 57.5,-333 148.5,-333 148.5,-315 57.5,-315"/>
<text text-anchor="start" x="60.5" y="-321.2" font-family="Helvetica,sans-Serif" font-size="11.00">1,732,050 rows</text>
<polygon fill="#ffffff" stroke="transparent" points="148.5,-315 148.5,-333 174.5,-333 174.5,-315 148.5,-315"/>
<polygon fill="none" stroke="black" points="148.5,-315 148.5,-333 174.5,-333 174.5,-315 148.5,-315"/>
<text text-anchor="start" x="151.5" y="-321.2" font-family="Helvetica,sans-Serif" font-size="11.00">2 &gt;</text>
</a>
</g>
</g>
<!-- line_to_sign&#45;&gt;sign -->
<g id="edge4" class="edge">
<title>line_to_sign:w&#45;&gt;sign:e</title>
<path fill="none" stroke="black" d="M264.6,-342C229.95,-342 216.29,-342 175.5,-342"/>
<polygon fill="black" stroke="black" points="271,-342 279,-345.6 275,-342 279,-342 279,-342 279,-342 275,-342 279,-338.4 271,-342 271,-342"/>
<ellipse fill="none" stroke="black" cx="267.8" cy="-342" rx="3.2" ry="3.2"/>
</g>
<!-- line_to_sign_owner -->
<g id="node6" class="node">
<title>line_to_sign_owner</title>
<g id="a_node6"><a xlink:href="../../tables/line_to_sign_owner.html" xlink:title="line_to_sign_owner" target="_top">
<polygon fill="#ffffff" stroke="transparent" points="523.5,-337 523.5,-395 689.5,-395 689.5,-337 523.5,-337"/>
<polygon fill="#f5f5f5" stroke="transparent" points="523.5,-373 523.5,-395 689.5,-395 689.5,-373 523.5,-373"/>
<polygon fill="none" stroke="black" points="523.5,-373 523.5,-395 689.5,-395 689.5,-373 523.5,-373"/>
<text text-anchor="start" x="528.5" y="-382.2" font-family="Helvetica,sans-Serif" font-weight="bold" font-size="11.00">line_to_sign_owner</text>
<text text-anchor="start" x="647.5" y="-381.2" font-family="Helvetica,sans-Serif" font-size="11.00">[table]</text>
<polygon fill="none" stroke="black" points="523.5,-355 523.5,-373 689.5,-373 689.5,-355 523.5,-355"/>
<text text-anchor="start" x="526.5" y="-361.2" font-family="Helvetica,sans-Serif" font-size="11.00">...</text>
<polygon fill="#ffffff" stroke="transparent" points="523.5,-337 523.5,-355 566.5,-355 566.5,-337 523.5,-337"/>
<polygon fill="none" stroke="black" points="523.5,-337 523.5,-355 566.5,-355 566.5,-337 523.5,-337"/>
<text text-anchor="start" x="526.5" y="-343.2" font-family="Helvetica,sans-Serif" font-size="11.00">&lt; 3</text>
<polygon fill="#ffffff" stroke="transparent" points="566.5,-337 566.5,-355 666.5,-355 666.5,-337 566.5,-337"/>
<polygon fill="none" stroke="black" points="566.5,-337 566.5,-355 666.5,-355 666.5,-337 566.5,-337"/>
<text text-anchor="start" x="578.5" y="-343.2" font-family="Helvetica,sans-Serif" font-size="11.00">1,730,550 rows</text>
<polygon fill="#ffffff" stroke="transparent" points="666.5,-337 666.5,-355 689.5,-355 689.5,-337 666.5,-337"/>
<polygon fill="none" stroke="black" points="666.5,-337 666.5,-355 689.5,-355 689.5,-337 666.5,-337"/>
<text text-anchor="start" x="678.5" y="-343.2" font-family="Helvetica,sans-Serif" font-size="11.00"> &#160;</text>
</a>
</g>
</g>
<!-- line_to_sign_owner&#45;&gt;line_to_sign -->
<g id="edge5" class="edge">
<title>line_to_sign_owner:w&#45;&gt;line_to_sign:e</title>
<path fill="none" stroke="black" d="M507.92,-364C475.59,-364 462.48,-364 424,-364"/>
<polygon fill="black" stroke="black" points="514.5,-364 522.5,-367.6 518.5,-364 522.5,-364 522.5,-364 522.5,-364 518.5,-364 522.5,-360.4 514.5,-364 514.5,-364"/>
<ellipse fill="none" stroke="black" cx="511.3" cy="-364" rx="3.2" ry="3.2"/>
</g>
<!-- text_fragment_to_line -->
<g id="node7" class="node">
<title>text_fragment_to_line</title>
<g id="a_node7"><a xlink:href="../../tables/text_fragment_to_line.html" xlink:title="text_fragment_to_line" target="_top">
<polygon fill="#ffffff" stroke="transparent" points="258,-37 258,-143 444,-143 444,-37 258,-37"/>
<polygon fill="#f5f5f5" stroke="transparent" points="258,-121 258,-143 444,-143 444,-121 258,-121"/>
<polygon fill="none" stroke="black" points="258,-121 258,-143 444,-143 444,-121 258,-121"/>
<text text-anchor="start" x="263" y="-130.2" font-family="Helvetica,sans-Serif" font-weight="bold" font-size="11.00">text_fragment_to_line</text>
<text text-anchor="start" x="402" y="-129.2" font-family="Helvetica,sans-Serif" font-size="11.00">[table]</text>
<polygon fill="none" stroke="black" points="258,-99 258,-121 444,-121 444,-99 258,-99"/>
<image xlink:href="../../images/primaryKeys.png" width="11px" height="12px" preserveAspectRatio="xMinYMin meet" x="263" y="-116"/>
<text text-anchor="start" x="278" y="-107.2" font-family="Helvetica,sans-Serif" font-size="11.00">text_fragment_to_line_id</text>
<polygon fill="#ffffff" stroke="transparent" points="258,-77 258,-99 444,-99 444,-77 258,-77"/>
<polygon fill="none" stroke="black" points="258,-77 258,-99 444,-99 444,-77 258,-77"/>
<image xlink:href="../../images/foreignKeys.png" width="11px" height="12px" preserveAspectRatio="xMinYMin meet" x="263" y="-94"/>
<text text-anchor="start" x="278" y="-85.2" font-family="Helvetica,sans-Serif" font-size="11.00">text_fragment_id</text>
<polygon fill="#ffffff" stroke="transparent" points="258,-55 258,-77 444,-77 444,-55 258,-55"/>
<polygon fill="none" stroke="black" points="258,-55 258,-77 444,-77 444,-55 258,-55"/>
<image xlink:href="../../images/foreignKeys.png" width="11px" height="12px" preserveAspectRatio="xMinYMin meet" x="263" y="-72"/>
<text text-anchor="start" x="278" y="-63.2" font-family="Helvetica,sans-Serif" font-size="11.00">line_id</text>
<polygon fill="#ffffff" stroke="transparent" points="258,-37 258,-55 314,-55 314,-37 258,-37"/>
<polygon fill="none" stroke="black" points="258,-37 258,-55 314,-55 314,-37 258,-37"/>
<text text-anchor="start" x="261" y="-43.2" font-family="Helvetica,sans-Serif" font-size="11.00">&lt; 2</text>
<polygon fill="#ffffff" stroke="transparent" points="314,-37 314,-55 403,-55 403,-37 314,-37"/>
<polygon fill="none" stroke="black" points="314,-37 314,-55 403,-55 403,-37 314,-37"/>
<text text-anchor="start" x="332" y="-43.2" font-family="Helvetica,sans-Serif" font-size="11.00">53,405 rows</text>
<polygon fill="#ffffff" stroke="transparent" points="403,-37 403,-55 444,-55 444,-37 403,-37"/>
<polygon fill="none" stroke="black" points="403,-37 403,-55 444,-55 444,-37 403,-37"/>
<text text-anchor="start" x="421" y="-43.2" font-family="Helvetica,sans-Serif" font-size="11.00">1 &gt;</text>
</a>
</g>
</g>
<!-- text_fragment_to_line&#45;&gt;line -->
<g id="edge6" class="edge">
<title>text_fragment_to_line:w&#45;&gt;line:e</title>
<path fill="none" stroke="black" d="M242.66,-68.98C201.48,-89.98 272.29,-215 208.5,-215"/>
<polygon fill="black" stroke="black" points="249.17,-67.63 257.73,-69.52 253.08,-66.81 257,-66 257,-66 257,-66 253.08,-66.81 256.27,-62.48 249.17,-67.63 249.17,-67.63"/>
<ellipse fill="none" stroke="black" cx="246.03" cy="-68.28" rx="3.2" ry="3.2"/>
</g>
<!-- text_fragment -->
<g id="node8" class="node">
<title>text_fragment</title>
<g id="a_node8"><a xlink:href="../../tables/text_fragment.html" xlink:title="text_fragment" target="_top">
<polygon fill="#ffffff" stroke="transparent" points="39.5,-61 39.5,-119 177.5,-119 177.5,-61 39.5,-61"/>
<polygon fill="#f5f5f5" stroke="transparent" points="39.5,-97 39.5,-119 177.5,-119 177.5,-97 39.5,-97"/>
<polygon fill="none" stroke="black" points="39.5,-97 39.5,-119 177.5,-119 177.5,-97 39.5,-97"/>
<text text-anchor="start" x="44.5" y="-106.2" font-family="Helvetica,sans-Serif" font-weight="bold" font-size="11.00">text_fragment</text>
<text text-anchor="start" x="135.5" y="-105.2" font-family="Helvetica,sans-Serif" font-size="11.00">[table]</text>
<polygon fill="none" stroke="black" points="39.5,-79 39.5,-97 177.5,-97 177.5,-79 39.5,-79"/>
<text text-anchor="start" x="42.5" y="-85.2" font-family="Helvetica,sans-Serif" font-size="11.00">...</text>
<polygon fill="#ffffff" stroke="transparent" points="39.5,-61 39.5,-79 65.5,-79 65.5,-61 39.5,-61"/>
<polygon fill="none" stroke="black" points="39.5,-61 39.5,-79 65.5,-79 65.5,-61 39.5,-61"/>
<text text-anchor="start" x="42.5" y="-67.2" font-family="Helvetica,sans-Serif" font-size="11.00"> &#160;</text>
<polygon fill="#ffffff" stroke="transparent" points="65.5,-61 65.5,-79 145.5,-79 145.5,-61 65.5,-61"/>
<polygon fill="none" stroke="black" points="65.5,-61 65.5,-79 145.5,-79 145.5,-61 65.5,-61"/>
<text text-anchor="start" x="74.5" y="-67.2" font-family="Helvetica,sans-Serif" font-size="11.00">11,176 rows</text>
<polygon fill="#ffffff" stroke="transparent" points="145.5,-61 145.5,-79 177.5,-79 177.5,-61 145.5,-61"/>
<polygon fill="none" stroke="black" points="145.5,-61 145.5,-79 177.5,-79 177.5,-61 145.5,-61"/>
<text text-anchor="start" x="154.5" y="-67.2" font-family="Helvetica,sans-Serif" font-size="11.00">6 &gt;</text>
</a>
</g>
</g>
<!-- text_fragment_to_line&#45;&gt;text_fragment -->
<g id="edge7" class="edge">
<title>text_fragment_to_line:w&#45;&gt;text_fragment:e</title>
<path fill="none" stroke="black" d="M242.36,-88C218.75,-88 207.94,-88 178.5,-88"/>
<polygon fill="black" stroke="black" points="249,-88 257,-91.6 253,-88 257,-88 257,-88 257,-88 253,-88 257,-84.4 249,-88 249,-88"/>
<ellipse fill="none" stroke="black" cx="245.8" cy="-88" rx="3.2" ry="3.2"/>
</g>
<!-- text_fragment_to_line_owner -->
<g id="node9" class="node">
<title>text_fragment_to_line_owner</title>
<g id="a_node9"><a xlink:href="../../tables/text_fragment_to_line_owner.html" xlink:title="text_fragment_to_line_owner" target="_top">
<polygon fill="#ffffff" stroke="transparent" points="493,-83 493,-141 720,-141 720,-83 493,-83"/>
<polygon fill="#f5f5f5" stroke="transparent" points="493.5,-119 493.5,-141 720.5,-141 720.5,-119 493.5,-119"/>
<polygon fill="none" stroke="black" points="493.5,-119 493.5,-141 720.5,-141 720.5,-119 493.5,-119"/>
<text text-anchor="start" x="498.5" y="-128.2" font-family="Helvetica,sans-Serif" font-weight="bold" font-size="11.00">text_fragment_to_line_owner</text>
<text text-anchor="start" x="678.5" y="-127.2" font-family="Helvetica,sans-Serif" font-size="11.00">[table]</text>
<polygon fill="none" stroke="black" points="493.5,-101 493.5,-119 720.5,-119 720.5,-101 493.5,-101"/>
<text text-anchor="start" x="496.5" y="-107.2" font-family="Helvetica,sans-Serif" font-size="11.00">...</text>
<polygon fill="#ffffff" stroke="transparent" points="493.5,-83 493.5,-101 591.5,-101 591.5,-83 493.5,-83"/>
<polygon fill="none" stroke="black" points="493.5,-83 493.5,-101 591.5,-101 591.5,-83 493.5,-83"/>
<text text-anchor="start" x="496.5" y="-89.2" font-family="Helvetica,sans-Serif" font-size="11.00">&lt; 3</text>
<polygon fill="#ffffff" stroke="transparent" points="591.5,-83 591.5,-101 670.5,-101 670.5,-83 591.5,-83"/>
<polygon fill="none" stroke="black" points="591.5,-83 591.5,-101 670.5,-101 670.5,-83 591.5,-83"/>
<text text-anchor="start" x="630.5" y="-89.2" font-family="Helvetica,sans-Serif" font-size="11.00">0 rows</text>
<polygon fill="#ffffff" stroke="transparent" points="670.5,-83 670.5,-101 720.5,-101 720.5,-83 670.5,-83"/>
<polygon fill="none" stroke="black" points="670.5,-83 670.5,-101 720.5,-101 720.5,-83 670.5,-83"/>
<text text-anchor="start" x="709.5" y="-89.2" font-family="Helvetica,sans-Serif" font-size="11.00"> &#160;</text>
</a>
</g>
</g>
<!-- text_fragment_to_line_owner&#45;&gt;text_fragment_to_line -->
<g id="edge8" class="edge">
<title>text_fragment_to_line_owner:w&#45;&gt;text_fragment_to_line:e</title>
<path fill="none" stroke="black" d="M478.09,-110C467.32,-110 460.34,-110 445,-110"/>
<polygon fill="black" stroke="black" points="484.5,-110 492.5,-113.6 488.5,-110 492.5,-110 492.5,-110 492.5,-110 488.5,-110 492.5,-106.4 484.5,-110 484.5,-110"/>
<ellipse fill="none" stroke="black" cx="481.3" cy="-110" rx="3.2" ry="3.2"/>
</g>
</g>
</svg>
