<?xml version="1.0" encoding="UTF-8" standalone="no"?>
<!DOCTYPE svg PUBLIC "-//W3C//DTD SVG 1.1//EN"
 "http://www.w3.org/Graphics/SVG/1.1/DTD/svg11.dtd">
<!-- Generated by graphviz version 2.43.0 (0)
 -->
<!-- Title: twoDegreesRelationshipsDiagram Pages: 1 -->
<svg width="601pt" height="423pt"
 viewBox="0.00 0.00 601.00 423.00" xmlns="http://www.w3.org/2000/svg" xmlns:xlink="http://www.w3.org/1999/xlink">
<g id="graph0" class="graph" transform="scale(1 1) rotate(0) translate(4 419)">
<title>twoDegreesRelationshipsDiagram</title>
<polygon fill="#ffffff" stroke="transparent" points="-4,4 -4,-419 597,-419 597,4 -4,4"/>
<text text-anchor="middle" x="79.5" y="-7.2" font-family="Helvetica,sans-Serif" font-size="11.00">Generated by SchemaSpy</text>
<!-- edition_editor -->
<g id="node1" class="node">
<title>edition_editor</title>
<g id="a_node1"><a xlink:href="../../tables/edition_editor.html" xlink:title="edition_editor" target="_top">
<polygon fill="#ffffff" stroke="transparent" points="216,-222 216,-280 352,-280 352,-222 216,-222"/>
<polygon fill="#f5f5f5" stroke="transparent" points="216,-258 216,-280 352,-280 352,-258 216,-258"/>
<polygon fill="none" stroke="black" points="216,-258 216,-280 352,-280 352,-258 216,-258"/>
<text text-anchor="start" x="221" y="-267.2" font-family="Helvetica,sans-Serif" font-weight="bold" font-size="11.00">edition_editor</text>
<text text-anchor="start" x="310" y="-266.2" font-family="Helvetica,sans-Serif" font-size="11.00">[table]</text>
<polygon fill="none" stroke="black" points="216,-240 216,-258 352,-258 352,-240 216,-240"/>
<text text-anchor="start" x="219" y="-246.2" font-family="Helvetica,sans-Serif" font-size="11.00">...</text>
<polygon fill="#ffffff" stroke="transparent" points="216,-222 216,-240 247,-240 247,-222 216,-222"/>
<polygon fill="none" stroke="black" points="216,-222 216,-240 247,-240 247,-222 216,-222"/>
<text text-anchor="start" x="219" y="-228.2" font-family="Helvetica,sans-Serif" font-size="11.00">&lt; 2</text>
<polygon fill="#ffffff" stroke="transparent" points="247,-222 247,-240 316,-240 316,-222 247,-222"/>
<polygon fill="none" stroke="black" points="247,-222 247,-240 316,-240 316,-222 247,-222"/>
<text text-anchor="start" x="252" y="-228.2" font-family="Helvetica,sans-Serif" font-size="11.00">1,645 rows</text>
<polygon fill="#ffffff" stroke="transparent" points="316,-222 316,-240 352,-240 352,-222 316,-222"/>
<polygon fill="none" stroke="black" points="316,-222 316,-240 352,-240 352,-222 316,-222"/>
<text text-anchor="start" x="322" y="-228.2" font-family="Helvetica,sans-Serif" font-size="11.00">33 &gt;</text>
</a>
</g>
</g>
<!-- edition -->
<g id="node2" class="node">
<title>edition</title>
<g id="a_node2"><a xlink:href="../../tables/edition.html" xlink:title="edition" target="_top">
<polygon fill="#ffffff" stroke="transparent" points="8,-209 8,-267 134,-267 134,-209 8,-209"/>
<polygon fill="#f5f5f5" stroke="transparent" points="8,-245 8,-267 134,-267 134,-245 8,-245"/>
<polygon fill="none" stroke="black" points="8,-245 8,-267 134,-267 134,-245 8,-245"/>
<text text-anchor="start" x="13" y="-254.2" font-family="Helvetica,sans-Serif" font-weight="bold" font-size="11.00">edition</text>
<text text-anchor="start" x="92" y="-253.2" font-family="Helvetica,sans-Serif" font-size="11.00">[table]</text>
<polygon fill="none" stroke="black" points="8,-227 8,-245 134,-245 134,-227 8,-227"/>
<text text-anchor="start" x="11" y="-233.2" font-family="Helvetica,sans-Serif" font-size="11.00">...</text>
<polygon fill="#ffffff" stroke="transparent" points="8,-209 8,-227 34,-227 34,-209 8,-209"/>
<polygon fill="none" stroke="black" points="8,-209 8,-227 34,-227 34,-209 8,-209"/>
<text text-anchor="start" x="11" y="-215.2" font-family="Helvetica,sans-Serif" font-size="11.00">&lt; 1</text>
<polygon fill="#ffffff" stroke="transparent" points="34,-209 34,-227 101,-227 101,-209 34,-209"/>
<polygon fill="none" stroke="black" points="34,-209 34,-227 101,-227 101,-209 34,-209"/>
<text text-anchor="start" x="37" y="-215.2" font-family="Helvetica,sans-Serif" font-size="11.00">1,645 rows</text>
<polygon fill="#ffffff" stroke="transparent" points="101,-209 101,-227 134,-227 134,-209 101,-209"/>
<polygon fill="none" stroke="black" points="101,-209 101,-227 134,-227 134,-209 101,-209"/>
<text text-anchor="start" x="104" y="-215.2" font-family="Helvetica,sans-Serif" font-size="11.00">35 &gt;</text>
</a>
</g>
</g>
<!-- edition_editor&#45;&gt;edition -->
<g id="edge1" class="edge">
<title>edition_editor:w&#45;&gt;edition:e</title>
<path fill="none" stroke="black" d="M200.29,-248.19C175.9,-245.34 165.53,-236 135,-236"/>
<polygon fill="black" stroke="black" points="207.01,-248.56 214.8,-252.59 211.01,-248.78 215,-249 215,-249 215,-249 211.01,-248.78 215.2,-245.41 207.01,-248.56 207.01,-248.56"/>
<ellipse fill="none" stroke="black" cx="203.82" cy="-248.38" rx="3.2" ry="3.2"/>
</g>
<!-- line_data -->
<g id="node3" class="node">
<title>line_data</title>
<g id="a_node3"><a xlink:href="../../tables/line_data.html" xlink:title="line_data" target="_top">
<polygon fill="#ffffff" stroke="transparent" points="183,-301 183,-411 385,-411 385,-301 183,-301"/>
<polygon fill="#f5f5f5" stroke="transparent" points="185,-387 185,-409 383,-409 383,-387 185,-387"/>
<polygon fill="none" stroke="black" points="185,-387 185,-409 383,-409 383,-387 185,-387"/>
<text text-anchor="start" x="190" y="-396.2" font-family="Helvetica,sans-Serif" font-weight="bold" font-size="11.00">line_data</text>
<text text-anchor="start" x="341" y="-395.2" font-family="Helvetica,sans-Serif" font-size="11.00">[table]</text>
<polygon fill="none" stroke="black" points="185,-365 185,-387 286,-387 286,-365 185,-365"/>
<image xlink:href="../../images/primaryKeys.png" width="11px" height="12px" preserveAspectRatio="xMinYMin meet" x="190" y="-382"/>
<text text-anchor="start" x="205" y="-373.2" font-family="Helvetica,sans-Serif" font-size="11.00">line_data_id</text>
<polygon fill="none" stroke="black" points="286,-365 286,-387 383,-387 383,-365 286,-365"/>
<text text-anchor="start" x="289" y="-373.2" font-family="Helvetica,sans-Serif" font-size="11.00">int unsigned[10]</text>
<polygon fill="#ffffff" stroke="transparent" points="185,-343 185,-365 286,-365 286,-343 185,-343"/>
<polygon fill="none" stroke="black" points="185,-343 185,-365 286,-365 286,-343 185,-343"/>
<image xlink:href="../../images/foreignKeys.png" width="11px" height="12px" preserveAspectRatio="xMinYMin meet" x="190" y="-360"/>
<text text-anchor="start" x="205" y="-351.2" font-family="Helvetica,sans-Serif" font-size="11.00">line_id</text>
<polygon fill="none" stroke="black" points="286,-343 286,-365 383,-365 383,-343 286,-343"/>
<text text-anchor="start" x="289" y="-351.2" font-family="Helvetica,sans-Serif" font-size="11.00">int unsigned[10]</text>
<polygon fill="#ffffff" stroke="transparent" points="185,-321 185,-343 286,-343 286,-321 185,-321"/>
<polygon fill="none" stroke="black" points="185,-321 185,-343 286,-343 286,-321 185,-321"/>
<text text-anchor="start" x="205" y="-329.2" font-family="Helvetica,sans-Serif" font-size="11.00">name</text>
<polygon fill="none" stroke="black" points="286,-321 286,-343 383,-343 383,-321 286,-321"/>
<text text-anchor="start" x="289" y="-329.2" font-family="Helvetica,sans-Serif" font-size="11.00">varchar[255]</text>
<polygon fill="#ffffff" stroke="transparent" points="185,-303 185,-321 211,-321 211,-303 185,-303"/>
<polygon fill="none" stroke="black" points="185,-303 185,-321 211,-321 211,-303 185,-303"/>
<text text-anchor="start" x="188" y="-309.2" font-family="Helvetica,sans-Serif" font-size="11.00">&lt; 1</text>
<polygon fill="#ffffff" stroke="transparent" points="211,-303 211,-321 286,-321 286,-303 211,-303"/>
<polygon fill="none" stroke="black" points="211,-303 211,-321 286,-321 286,-303 211,-303"/>
<text text-anchor="start" x="215" y="-309.2" font-family="Helvetica,sans-Serif" font-size="11.00">55,080 rows</text>
<polygon fill="#ffffff" stroke="transparent" points="286,-303 286,-321 383,-321 383,-303 286,-303"/>
<polygon fill="none" stroke="black" points="286,-303 286,-321 383,-321 383,-303 286,-303"/>
<text text-anchor="start" x="360" y="-309.2" font-family="Helvetica,sans-Serif" font-size="11.00">1 &gt;</text>
<polygon fill="none" stroke="black" stroke-width="2" points="184,-302 184,-410 384,-410 384,-302 184,-302"/>
</a>
</g>
</g>
<!-- line -->
<g id="node4" class="node">
<title>line</title>
<g id="a_node4"><a xlink:href="../../tables/line.html" xlink:title="line" target="_top">
<polygon fill="#ffffff" stroke="transparent" points="14,-114 14,-176 128,-176 128,-114 14,-114"/>
<polygon fill="#f5f5f5" stroke="transparent" points="14,-154 14,-176 128,-176 128,-154 14,-154"/>
<polygon fill="none" stroke="black" points="14,-154 14,-176 128,-176 128,-154 14,-154"/>
<text text-anchor="start" x="19" y="-163.2" font-family="Helvetica,sans-Serif" font-weight="bold" font-size="11.00">line</text>
<text text-anchor="start" x="86" y="-162.2" font-family="Helvetica,sans-Serif" font-size="11.00">[table]</text>
<polygon fill="none" stroke="black" points="14,-132 14,-154 128,-154 128,-132 14,-132"/>
<image xlink:href="../../images/primaryKeys.png" width="11px" height="12px" preserveAspectRatio="xMinYMin meet" x="19" y="-149"/>
<text text-anchor="start" x="59" y="-140.2" font-family="Helvetica,sans-Serif" font-size="11.00">line_id</text>
<polygon fill="#ffffff" stroke="transparent" points="14,-114 14,-132 28,-132 28,-114 14,-114"/>
<polygon fill="none" stroke="black" points="14,-114 14,-132 28,-132 28,-114 14,-114"/>
<text text-anchor="start" x="17" y="-120.2" font-family="Helvetica,sans-Serif" font-size="11.00"> &#160;</text>
<polygon fill="#ffffff" stroke="transparent" points="28,-114 28,-132 102,-132 102,-114 28,-114"/>
<polygon fill="none" stroke="black" points="28,-114 28,-132 102,-132 102,-114 28,-114"/>
<text text-anchor="start" x="31" y="-120.2" font-family="Helvetica,sans-Serif" font-size="11.00">53,964 rows</text>
<polygon fill="#ffffff" stroke="transparent" points="102,-114 102,-132 128,-132 128,-114 102,-114"/>
<polygon fill="none" stroke="black" points="102,-114 102,-132 128,-132 128,-114 102,-114"/>
<text text-anchor="start" x="105" y="-120.2" font-family="Helvetica,sans-Serif" font-size="11.00">3 &gt;</text>
</a>
</g>
</g>
<!-- line_data&#45;&gt;line -->
<g id="edge2" class="edge">
<title>line_data:w&#45;&gt;line:e</title>
<path fill="none" stroke="black" d="M169.72,-352.05C102.06,-330.77 220.42,-143 129,-143"/>
<polygon fill="black" stroke="black" points="176.07,-352.92 183.51,-357.57 180.04,-353.46 184,-354 184,-354 184,-354 180.04,-353.46 184.49,-350.43 176.07,-352.92 176.07,-352.92"/>
<ellipse fill="none" stroke="black" cx="172.9" cy="-352.48" rx="3.2" ry="3.2"/>
</g>
<!-- line_data_owner -->
<g id="node5" class="node">
<title>line_data_owner</title>
<g id="a_node5"><a xlink:href="../../tables/line_data_owner.html" xlink:title="line_data_owner" target="_top">
<polygon fill="#ffffff" stroke="transparent" points="434,-198 434,-304 585,-304 585,-198 434,-198"/>
<polygon fill="#f5f5f5" stroke="transparent" points="434.5,-282 434.5,-304 585.5,-304 585.5,-282 434.5,-282"/>
<polygon fill="none" stroke="black" points="434.5,-282 434.5,-304 585.5,-304 585.5,-282 434.5,-282"/>
<text text-anchor="start" x="439.5" y="-291.2" font-family="Helvetica,sans-Serif" font-weight="bold" font-size="11.00">line_data_owner</text>
<text text-anchor="start" x="543.5" y="-290.2" font-family="Helvetica,sans-Serif" font-size="11.00">[table]</text>
<polygon fill="none" stroke="black" points="434.5,-260 434.5,-282 585.5,-282 585.5,-260 434.5,-260"/>
<image xlink:href="../../images/primaryKeys.png" width="11px" height="12px" preserveAspectRatio="xMinYMin meet" x="439.5" y="-277"/>
<text text-anchor="start" x="463.5" y="-268.2" font-family="Helvetica,sans-Serif" font-size="11.00">line_data_id</text>
<polygon fill="#ffffff" stroke="transparent" points="434.5,-238 434.5,-260 585.5,-260 585.5,-238 434.5,-238"/>
<polygon fill="none" stroke="black" points="434.5,-238 434.5,-260 585.5,-260 585.5,-238 434.5,-238"/>
<image xlink:href="../../images/foreignKeys.png" width="11px" height="12px" preserveAspectRatio="xMinYMin meet" x="439.5" y="-255"/>
<text text-anchor="start" x="463.5" y="-246.2" font-family="Helvetica,sans-Serif" font-size="11.00">edition_editor_id</text>
<polygon fill="none" stroke="black" points="434.5,-216 434.5,-238 585.5,-238 585.5,-216 434.5,-216"/>
<image xlink:href="../../images/primaryKeys.png" width="11px" height="12px" preserveAspectRatio="xMinYMin meet" x="439.5" y="-233"/>
<text text-anchor="start" x="463.5" y="-224.2" font-family="Helvetica,sans-Serif" font-size="11.00">edition_id</text>
<polygon fill="#ffffff" stroke="transparent" points="434.5,-198 434.5,-216 478.5,-216 478.5,-198 434.5,-198"/>
<polygon fill="none" stroke="black" points="434.5,-198 434.5,-216 478.5,-216 478.5,-198 434.5,-198"/>
<text text-anchor="start" x="437.5" y="-204.2" font-family="Helvetica,sans-Serif" font-size="11.00">&lt; 3</text>
<polygon fill="#ffffff" stroke="transparent" points="478.5,-198 478.5,-216 561.5,-216 561.5,-198 478.5,-198"/>
<polygon fill="none" stroke="black" points="478.5,-198 478.5,-216 561.5,-216 561.5,-198 478.5,-198"/>
<text text-anchor="start" x="490.5" y="-204.2" font-family="Helvetica,sans-Serif" font-size="11.00">53,405 rows</text>
<polygon fill="#ffffff" stroke="transparent" points="561.5,-198 561.5,-216 585.5,-216 585.5,-198 561.5,-198"/>
<polygon fill="none" stroke="black" points="561.5,-198 561.5,-216 585.5,-216 585.5,-198 561.5,-198"/>
<text text-anchor="start" x="574.5" y="-204.2" font-family="Helvetica,sans-Serif" font-size="11.00"> &#160;</text>
</a>
</g>
</g>
<!-- line_data_owner&#45;&gt;edition_editor -->
<g id="edge3" class="edge">
<title>line_data_owner:w&#45;&gt;edition_editor:e</title>
<path fill="none" stroke="black" d="M418.83,-249C394.37,-249 383.33,-249 353,-249"/>
<polygon fill="black" stroke="black" points="425.5,-249 433.5,-252.6 429.5,-249 433.5,-249 433.5,-249 433.5,-249 429.5,-249 433.5,-245.4 425.5,-249 425.5,-249"/>
<ellipse fill="none" stroke="black" cx="422.3" cy="-249" rx="3.2" ry="3.2"/>
</g>
<!-- line_data_owner&#45;&gt;edition -->
<g id="edge4" class="edge">
<title>line_data_owner:w&#45;&gt;edition:e</title>
<path fill="none" stroke="black" d="M419.36,-224.02C411.16,-220.12 406.07,-213.49 393,-211 297.82,-192.88 268.13,-184.29 175,-211 154.85,-216.78 155.96,-236 135,-236"/>
<polygon fill="black" stroke="black" points="425.67,-225.35 432.76,-230.52 429.59,-226.17 433.5,-227 433.5,-227 433.5,-227 429.59,-226.17 434.24,-223.48 425.67,-225.35 425.67,-225.35"/>
<ellipse fill="none" stroke="black" cx="422.54" cy="-224.69" rx="3.2" ry="3.2"/>
</g>
<!-- line_data_owner&#45;&gt;line_data -->
<g id="edge5" class="edge">
<title>line_data_owner:w&#45;&gt;line_data:e</title>
<path fill="none" stroke="black" d="M419.36,-274.99C393.04,-294.17 429.55,-376 384,-376"/>
<polygon fill="black" stroke="black" points="425.8,-273.17 434.48,-274.46 429.65,-272.09 433.5,-271 433.5,-271 433.5,-271 429.65,-272.09 432.52,-267.54 425.8,-273.17 425.8,-273.17"/>
<ellipse fill="none" stroke="black" cx="422.72" cy="-274.04" rx="3.2" ry="3.2"/>
</g>
<!-- line_to_sign -->
<g id="node6" class="node">
<title>line_to_sign</title>
<g id="a_node6"><a xlink:href="../../tables/line_to_sign.html" xlink:title="line_to_sign" target="_top">
<polygon fill="#ffffff" stroke="transparent" points="212.5,-116 212.5,-174 355.5,-174 355.5,-116 212.5,-116"/>
<polygon fill="#f5f5f5" stroke="transparent" points="213,-152 213,-174 356,-174 356,-152 213,-152"/>
<polygon fill="none" stroke="black" points="213,-152 213,-174 356,-174 356,-152 213,-152"/>
<text text-anchor="start" x="218" y="-161.2" font-family="Helvetica,sans-Serif" font-weight="bold" font-size="11.00">line_to_sign</text>
<text text-anchor="start" x="314" y="-160.2" font-family="Helvetica,sans-Serif" font-size="11.00">[table]</text>
<polygon fill="none" stroke="black" points="213,-134 213,-152 356,-152 356,-134 213,-134"/>
<text text-anchor="start" x="216" y="-140.2" font-family="Helvetica,sans-Serif" font-size="11.00">...</text>
<polygon fill="#ffffff" stroke="transparent" points="213,-116 213,-134 239,-134 239,-116 213,-116"/>
<polygon fill="none" stroke="black" points="213,-116 213,-134 239,-134 239,-116 213,-116"/>
<text text-anchor="start" x="216" y="-122.2" font-family="Helvetica,sans-Serif" font-size="11.00">&lt; 2</text>
<polygon fill="#ffffff" stroke="transparent" points="239,-116 239,-134 330,-134 330,-116 239,-116"/>
<polygon fill="none" stroke="black" points="239,-116 239,-134 330,-134 330,-116 239,-116"/>
<text text-anchor="start" x="242" y="-122.2" font-family="Helvetica,sans-Serif" font-size="11.00">1,730,550 rows</text>
<polygon fill="#ffffff" stroke="transparent" points="330,-116 330,-134 356,-134 356,-116 330,-116"/>
<polygon fill="none" stroke="black" points="330,-116 330,-134 356,-134 356,-116 330,-116"/>
<text text-anchor="start" x="333" y="-122.2" font-family="Helvetica,sans-Serif" font-size="11.00">1 &gt;</text>
</a>
</g>
</g>
<!-- line_to_sign&#45;&gt;line -->
<g id="edge6" class="edge">
<title>line_to_sign:w&#45;&gt;line:e</title>
<path fill="none" stroke="black" d="M197.57,-143C171.87,-143 160.56,-143 129,-143"/>
<polygon fill="black" stroke="black" points="204,-143 212,-146.6 208,-143 212,-143 212,-143 212,-143 208,-143 212,-139.4 204,-143 204,-143"/>
<ellipse fill="none" stroke="black" cx="200.8" cy="-143" rx="3.2" ry="3.2"/>
</g>
<!-- text_fragment_to_line -->
<g id="node7" class="node">
<title>text_fragment_to_line</title>
<g id="a_node7"><a xlink:href="../../tables/text_fragment_to_line.html" xlink:title="text_fragment_to_line" target="_top">
<polygon fill="#ffffff" stroke="transparent" points="192,-37 192,-95 376,-95 376,-37 192,-37"/>
<polygon fill="#f5f5f5" stroke="transparent" points="192,-73 192,-95 376,-95 376,-73 192,-73"/>
<polygon fill="none" stroke="black" points="192,-73 192,-95 376,-95 376,-73 192,-73"/>
<text text-anchor="start" x="197" y="-82.2" font-family="Helvetica,sans-Serif" font-weight="bold" font-size="11.00">text_fragment_to_line</text>
<text text-anchor="start" x="334" y="-81.2" font-family="Helvetica,sans-Serif" font-size="11.00">[table]</text>
<polygon fill="none" stroke="black" points="192,-55 192,-73 376,-73 376,-55 192,-55"/>
<text text-anchor="start" x="195" y="-61.2" font-family="Helvetica,sans-Serif" font-size="11.00">...</text>
<polygon fill="#ffffff" stroke="transparent" points="192,-37 192,-55 247,-55 247,-37 192,-37"/>
<polygon fill="none" stroke="black" points="192,-37 192,-55 247,-55 247,-37 192,-37"/>
<text text-anchor="start" x="195" y="-43.2" font-family="Helvetica,sans-Serif" font-size="11.00">&lt; 2</text>
<polygon fill="#ffffff" stroke="transparent" points="247,-37 247,-55 335,-55 335,-37 247,-37"/>
<polygon fill="none" stroke="black" points="247,-37 247,-55 335,-55 335,-37 247,-37"/>
<text text-anchor="start" x="264" y="-43.2" font-family="Helvetica,sans-Serif" font-size="11.00">53,405 rows</text>
<polygon fill="#ffffff" stroke="transparent" points="335,-37 335,-55 376,-55 376,-37 335,-37"/>
<polygon fill="none" stroke="black" points="335,-37 335,-55 376,-55 376,-37 335,-37"/>
<text text-anchor="start" x="353" y="-43.2" font-family="Helvetica,sans-Serif" font-size="11.00">1 &gt;</text>
</a>
</g>
</g>
<!-- text_fragment_to_line&#45;&gt;line -->
<g id="edge7" class="edge">
<title>text_fragment_to_line:w&#45;&gt;line:e</title>
<path fill="none" stroke="black" d="M177.02,-67.6C152.2,-83.05 167.88,-143 129,-143"/>
<polygon fill="black" stroke="black" points="183.25,-65.99 191.9,-67.49 187.13,-65 191,-64 191,-64 191,-64 187.13,-65 190.1,-60.51 183.25,-65.99 183.25,-65.99"/>
<ellipse fill="none" stroke="black" cx="180.15" cy="-66.79" rx="3.2" ry="3.2"/>
</g>
</g>
</svg>
