<?xml version="1.0" encoding="UTF-8" standalone="no"?>
<!DOCTYPE svg PUBLIC "-//W3C//DTD SVG 1.1//EN"
 "http://www.w3.org/Graphics/SVG/1.1/DTD/svg11.dtd">
<!-- Generated by graphviz version 2.43.0 (0)
 -->
<!-- Title: twoDegreesRelationshipsDiagramImplied Pages: 1 -->
<svg width="601pt" height="502pt"
 viewBox="0.00 0.00 601.00 502.00" xmlns="http://www.w3.org/2000/svg" xmlns:xlink="http://www.w3.org/1999/xlink">
<g id="graph0" class="graph" transform="scale(1 1) rotate(0) translate(4 498)">
<title>twoDegreesRelationshipsDiagramImplied</title>
<polygon fill="#ffffff" stroke="transparent" points="-4,4 -4,-498 597,-498 597,4 -4,4"/>
<text text-anchor="middle" x="79.5" y="-7.2" font-family="Helvetica,sans-Serif" font-size="11.00">Generated by SchemaSpy</text>
<!-- edition_editor -->
<g id="node1" class="node">
<title>edition_editor</title>
<g id="a_node1"><a xlink:href="../../tables/edition_editor.html" xlink:title="edition_editor" target="_top">
<polygon fill="#ffffff" stroke="transparent" points="216,-301 216,-359 352,-359 352,-301 216,-301"/>
<polygon fill="#f5f5f5" stroke="transparent" points="216,-337 216,-359 352,-359 352,-337 216,-337"/>
<polygon fill="none" stroke="black" points="216,-337 216,-359 352,-359 352,-337 216,-337"/>
<text text-anchor="start" x="221" y="-346.2" font-family="Helvetica,sans-Serif" font-weight="bold" font-size="11.00">edition_editor</text>
<text text-anchor="start" x="310" y="-345.2" font-family="Helvetica,sans-Serif" font-size="11.00">[table]</text>
<polygon fill="none" stroke="black" points="216,-319 216,-337 352,-337 352,-319 216,-319"/>
<text text-anchor="start" x="219" y="-325.2" font-family="Helvetica,sans-Serif" font-size="11.00">...</text>
<polygon fill="#ffffff" stroke="transparent" points="216,-301 216,-319 247,-319 247,-301 216,-301"/>
<polygon fill="none" stroke="black" points="216,-301 216,-319 247,-319 247,-301 216,-301"/>
<text text-anchor="start" x="219" y="-307.2" font-family="Helvetica,sans-Serif" font-size="11.00">&lt; 2</text>
<polygon fill="#ffffff" stroke="transparent" points="247,-301 247,-319 316,-319 316,-301 247,-301"/>
<polygon fill="none" stroke="black" points="247,-301 247,-319 316,-319 316,-301 247,-301"/>
<text text-anchor="start" x="252" y="-307.2" font-family="Helvetica,sans-Serif" font-size="11.00">1,645 rows</text>
<polygon fill="#ffffff" stroke="transparent" points="316,-301 316,-319 352,-319 352,-301 316,-301"/>
<polygon fill="none" stroke="black" points="316,-301 316,-319 352,-319 352,-301 316,-301"/>
<text text-anchor="start" x="322" y="-307.2" font-family="Helvetica,sans-Serif" font-size="11.00">33 &gt;</text>
</a>
</g>
</g>
<!-- edition -->
<g id="node2" class="node">
<title>edition</title>
<g id="a_node2"><a xlink:href="../../tables/edition.html" xlink:title="edition" target="_top">
<polygon fill="#ffffff" stroke="transparent" points="8,-275 8,-333 134,-333 134,-275 8,-275"/>
<polygon fill="#f5f5f5" stroke="transparent" points="8,-311 8,-333 134,-333 134,-311 8,-311"/>
<polygon fill="none" stroke="black" points="8,-311 8,-333 134,-333 134,-311 8,-311"/>
<text text-anchor="start" x="13" y="-320.2" font-family="Helvetica,sans-Serif" font-weight="bold" font-size="11.00">edition</text>
<text text-anchor="start" x="92" y="-319.2" font-family="Helvetica,sans-Serif" font-size="11.00">[table]</text>
<polygon fill="none" stroke="black" points="8,-293 8,-311 134,-311 134,-293 8,-293"/>
<text text-anchor="start" x="11" y="-299.2" font-family="Helvetica,sans-Serif" font-size="11.00">...</text>
<polygon fill="#ffffff" stroke="transparent" points="8,-275 8,-293 34,-293 34,-275 8,-275"/>
<polygon fill="none" stroke="black" points="8,-275 8,-293 34,-293 34,-275 8,-275"/>
<text text-anchor="start" x="11" y="-281.2" font-family="Helvetica,sans-Serif" font-size="11.00">&lt; 1</text>
<polygon fill="#ffffff" stroke="transparent" points="34,-275 34,-293 101,-293 101,-275 34,-275"/>
<polygon fill="none" stroke="black" points="34,-275 34,-293 101,-293 101,-275 34,-275"/>
<text text-anchor="start" x="37" y="-281.2" font-family="Helvetica,sans-Serif" font-size="11.00">1,645 rows</text>
<polygon fill="#ffffff" stroke="transparent" points="101,-275 101,-293 134,-293 134,-275 101,-275"/>
<polygon fill="none" stroke="black" points="101,-275 101,-293 134,-293 134,-275 101,-275"/>
<text text-anchor="start" x="104" y="-281.2" font-family="Helvetica,sans-Serif" font-size="11.00">35 &gt;</text>
</a>
</g>
</g>
<!-- edition_editor&#45;&gt;edition -->
<g id="edge1" class="edge">
<title>edition_editor:w&#45;&gt;edition:e</title>
<path fill="none" stroke="black" d="M200.61,-326.53C175.43,-321.03 166.98,-302 135,-302"/>
<polygon fill="black" stroke="black" points="207.04,-327.19 214.63,-331.58 211.02,-327.59 215,-328 215,-328 215,-328 211.02,-327.59 215.37,-324.42 207.04,-327.19 207.04,-327.19"/>
<ellipse fill="none" stroke="black" cx="203.86" cy="-326.86" rx="3.2" ry="3.2"/>
</g>
<!-- line_data -->
<g id="node3" class="node">
<title>line_data</title>
<g id="a_node3"><a xlink:href="../../tables/line_data.html" xlink:title="line_data" target="_top">
<polygon fill="#ffffff" stroke="transparent" points="183,-380 183,-490 385,-490 385,-380 183,-380"/>
<polygon fill="#f5f5f5" stroke="transparent" points="185,-466 185,-488 383,-488 383,-466 185,-466"/>
<polygon fill="none" stroke="black" points="185,-466 185,-488 383,-488 383,-466 185,-466"/>
<text text-anchor="start" x="190" y="-475.2" font-family="Helvetica,sans-Serif" font-weight="bold" font-size="11.00">line_data</text>
<text text-anchor="start" x="341" y="-474.2" font-family="Helvetica,sans-Serif" font-size="11.00">[table]</text>
<polygon fill="none" stroke="black" points="185,-444 185,-466 286,-466 286,-444 185,-444"/>
<image xlink:href="../../images/primaryKeys.png" width="11px" height="12px" preserveAspectRatio="xMinYMin meet" x="190" y="-461"/>
<text text-anchor="start" x="205" y="-452.2" font-family="Helvetica,sans-Serif" font-size="11.00">line_data_id</text>
<polygon fill="none" stroke="black" points="286,-444 286,-466 383,-466 383,-444 286,-444"/>
<text text-anchor="start" x="289" y="-452.2" font-family="Helvetica,sans-Serif" font-size="11.00">int unsigned[10]</text>
<polygon fill="#ffffff" stroke="transparent" points="185,-422 185,-444 286,-444 286,-422 185,-422"/>
<polygon fill="none" stroke="black" points="185,-422 185,-444 286,-444 286,-422 185,-422"/>
<image xlink:href="../../images/foreignKeys.png" width="11px" height="12px" preserveAspectRatio="xMinYMin meet" x="190" y="-439"/>
<text text-anchor="start" x="205" y="-430.2" font-family="Helvetica,sans-Serif" font-size="11.00">line_id</text>
<polygon fill="none" stroke="black" points="286,-422 286,-444 383,-444 383,-422 286,-422"/>
<text text-anchor="start" x="289" y="-430.2" font-family="Helvetica,sans-Serif" font-size="11.00">int unsigned[10]</text>
<polygon fill="#ffffff" stroke="transparent" points="185,-400 185,-422 286,-422 286,-400 185,-400"/>
<polygon fill="none" stroke="black" points="185,-400 185,-422 286,-422 286,-400 185,-400"/>
<text text-anchor="start" x="205" y="-408.2" font-family="Helvetica,sans-Serif" font-size="11.00">name</text>
<polygon fill="none" stroke="black" points="286,-400 286,-422 383,-422 383,-400 286,-400"/>
<text text-anchor="start" x="289" y="-408.2" font-family="Helvetica,sans-Serif" font-size="11.00">varchar[255]</text>
<polygon fill="#ffffff" stroke="transparent" points="185,-382 185,-400 211,-400 211,-382 185,-382"/>
<polygon fill="none" stroke="black" points="185,-382 185,-400 211,-400 211,-382 185,-382"/>
<text text-anchor="start" x="188" y="-388.2" font-family="Helvetica,sans-Serif" font-size="11.00">&lt; 1</text>
<polygon fill="#ffffff" stroke="transparent" points="211,-382 211,-400 286,-400 286,-382 211,-382"/>
<polygon fill="none" stroke="black" points="211,-382 211,-400 286,-400 286,-382 211,-382"/>
<text text-anchor="start" x="215" y="-388.2" font-family="Helvetica,sans-Serif" font-size="11.00">55,080 rows</text>
<polygon fill="#ffffff" stroke="transparent" points="286,-382 286,-400 383,-400 383,-382 286,-382"/>
<polygon fill="none" stroke="black" points="286,-382 286,-400 383,-400 383,-382 286,-382"/>
<text text-anchor="start" x="360" y="-388.2" font-family="Helvetica,sans-Serif" font-size="11.00">1 &gt;</text>
<polygon fill="none" stroke="black" stroke-width="2" points="184,-381 184,-489 384,-489 384,-381 184,-381"/>
</a>
</g>
</g>
<!-- line -->
<g id="node4" class="node">
<title>line</title>
<g id="a_node4"><a xlink:href="../../tables/line.html" xlink:title="line" target="_top">
<polygon fill="#ffffff" stroke="transparent" points="14,-166 14,-228 128,-228 128,-166 14,-166"/>
<polygon fill="#f5f5f5" stroke="transparent" points="14,-206 14,-228 128,-228 128,-206 14,-206"/>
<polygon fill="none" stroke="black" points="14,-206 14,-228 128,-228 128,-206 14,-206"/>
<text text-anchor="start" x="19" y="-215.2" font-family="Helvetica,sans-Serif" font-weight="bold" font-size="11.00">line</text>
<text text-anchor="start" x="86" y="-214.2" font-family="Helvetica,sans-Serif" font-size="11.00">[table]</text>
<polygon fill="none" stroke="black" points="14,-184 14,-206 128,-206 128,-184 14,-184"/>
<image xlink:href="../../images/primaryKeys.png" width="11px" height="12px" preserveAspectRatio="xMinYMin meet" x="19" y="-201"/>
<text text-anchor="start" x="59" y="-192.2" font-family="Helvetica,sans-Serif" font-size="11.00">line_id</text>
<polygon fill="#ffffff" stroke="transparent" points="14,-166 14,-184 28,-184 28,-166 14,-166"/>
<polygon fill="none" stroke="black" points="14,-166 14,-184 28,-184 28,-166 14,-166"/>
<text text-anchor="start" x="17" y="-172.2" font-family="Helvetica,sans-Serif" font-size="11.00"> &#160;</text>
<polygon fill="#ffffff" stroke="transparent" points="28,-166 28,-184 102,-184 102,-166 28,-166"/>
<polygon fill="none" stroke="black" points="28,-166 28,-184 102,-184 102,-166 28,-166"/>
<text text-anchor="start" x="31" y="-172.2" font-family="Helvetica,sans-Serif" font-size="11.00">53,964 rows</text>
<polygon fill="#ffffff" stroke="transparent" points="102,-166 102,-184 128,-184 128,-166 102,-166"/>
<polygon fill="none" stroke="black" points="102,-166 102,-184 128,-184 128,-166 102,-166"/>
<text text-anchor="start" x="105" y="-172.2" font-family="Helvetica,sans-Serif" font-size="11.00">4 &gt;</text>
</a>
</g>
</g>
<!-- line_data&#45;&gt;line -->
<g id="edge2" class="edge">
<title>line_data:w&#45;&gt;line:e</title>
<path fill="none" stroke="black" d="M169.48,-431.22C91.2,-409.44 232.05,-195 129,-195"/>
<polygon fill="black" stroke="black" points="176.06,-432.03 183.56,-436.57 180.03,-432.51 184,-433 184,-433 184,-433 180.03,-432.51 184.44,-429.43 176.06,-432.03 176.06,-432.03"/>
<ellipse fill="none" stroke="black" cx="172.88" cy="-431.64" rx="3.2" ry="3.2"/>
</g>
<!-- line_data_owner -->
<g id="node5" class="node">
<title>line_data_owner</title>
<g id="a_node5"><a xlink:href="../../tables/line_data_owner.html" xlink:title="line_data_owner" target="_top">
<polygon fill="#ffffff" stroke="transparent" points="434,-277 434,-383 585,-383 585,-277 434,-277"/>
<polygon fill="#f5f5f5" stroke="transparent" points="434.5,-361 434.5,-383 585.5,-383 585.5,-361 434.5,-361"/>
<polygon fill="none" stroke="black" points="434.5,-361 434.5,-383 585.5,-383 585.5,-361 434.5,-361"/>
<text text-anchor="start" x="439.5" y="-370.2" font-family="Helvetica,sans-Serif" font-weight="bold" font-size="11.00">line_data_owner</text>
<text text-anchor="start" x="543.5" y="-369.2" font-family="Helvetica,sans-Serif" font-size="11.00">[table]</text>
<polygon fill="none" stroke="black" points="434.5,-339 434.5,-361 585.5,-361 585.5,-339 434.5,-339"/>
<image xlink:href="../../images/primaryKeys.png" width="11px" height="12px" preserveAspectRatio="xMinYMin meet" x="439.5" y="-356"/>
<text text-anchor="start" x="463.5" y="-347.2" font-family="Helvetica,sans-Serif" font-size="11.00">line_data_id</text>
<polygon fill="#ffffff" stroke="transparent" points="434.5,-317 434.5,-339 585.5,-339 585.5,-317 434.5,-317"/>
<polygon fill="none" stroke="black" points="434.5,-317 434.5,-339 585.5,-339 585.5,-317 434.5,-317"/>
<image xlink:href="../../images/foreignKeys.png" width="11px" height="12px" preserveAspectRatio="xMinYMin meet" x="439.5" y="-334"/>
<text text-anchor="start" x="463.5" y="-325.2" font-family="Helvetica,sans-Serif" font-size="11.00">edition_editor_id</text>
<polygon fill="none" stroke="black" points="434.5,-295 434.5,-317 585.5,-317 585.5,-295 434.5,-295"/>
<image xlink:href="../../images/primaryKeys.png" width="11px" height="12px" preserveAspectRatio="xMinYMin meet" x="439.5" y="-312"/>
<text text-anchor="start" x="463.5" y="-303.2" font-family="Helvetica,sans-Serif" font-size="11.00">edition_id</text>
<polygon fill="#ffffff" stroke="transparent" points="434.5,-277 434.5,-295 478.5,-295 478.5,-277 434.5,-277"/>
<polygon fill="none" stroke="black" points="434.5,-277 434.5,-295 478.5,-295 478.5,-277 434.5,-277"/>
<text text-anchor="start" x="437.5" y="-283.2" font-family="Helvetica,sans-Serif" font-size="11.00">&lt; 3</text>
<polygon fill="#ffffff" stroke="transparent" points="478.5,-277 478.5,-295 561.5,-295 561.5,-277 478.5,-277"/>
<polygon fill="none" stroke="black" points="478.5,-277 478.5,-295 561.5,-295 561.5,-277 478.5,-277"/>
<text text-anchor="start" x="490.5" y="-283.2" font-family="Helvetica,sans-Serif" font-size="11.00">53,405 rows</text>
<polygon fill="#ffffff" stroke="transparent" points="561.5,-277 561.5,-295 585.5,-295 585.5,-277 561.5,-277"/>
<polygon fill="none" stroke="black" points="561.5,-277 561.5,-295 585.5,-295 585.5,-277 561.5,-277"/>
<text text-anchor="start" x="574.5" y="-283.2" font-family="Helvetica,sans-Serif" font-size="11.00"> &#160;</text>
</a>
</g>
</g>
<!-- line_data_owner&#45;&gt;edition_editor -->
<g id="edge3" class="edge">
<title>line_data_owner:w&#45;&gt;edition_editor:e</title>
<path fill="none" stroke="black" d="M418.83,-328C394.37,-328 383.33,-328 353,-328"/>
<polygon fill="black" stroke="black" points="425.5,-328 433.5,-331.6 429.5,-328 433.5,-328 433.5,-328 433.5,-328 429.5,-328 433.5,-324.4 425.5,-328 425.5,-328"/>
<ellipse fill="none" stroke="black" cx="422.3" cy="-328" rx="3.2" ry="3.2"/>
</g>
<!-- line_data_owner&#45;&gt;edition -->
<g id="edge4" class="edge">
<title>line_data_owner:w&#45;&gt;edition:e</title>
<path fill="none" stroke="black" d="M419.36,-303.02C411.16,-299.12 406.07,-292.49 393,-290 297.82,-271.88 270.86,-275.93 175,-290 156.64,-292.7 153.56,-302 135,-302"/>
<polygon fill="black" stroke="black" points="425.67,-304.35 432.76,-309.52 429.59,-305.17 433.5,-306 433.5,-306 433.5,-306 429.59,-305.17 434.24,-302.48 425.67,-304.35 425.67,-304.35"/>
<ellipse fill="none" stroke="black" cx="422.54" cy="-303.69" rx="3.2" ry="3.2"/>
</g>
<!-- line_data_owner&#45;&gt;line_data -->
<g id="edge5" class="edge">
<title>line_data_owner:w&#45;&gt;line_data:e</title>
<path fill="none" stroke="black" d="M419.36,-353.99C393.04,-373.17 429.55,-455 384,-455"/>
<polygon fill="black" stroke="black" points="425.8,-352.17 434.48,-353.46 429.65,-351.09 433.5,-350 433.5,-350 433.5,-350 429.65,-351.09 432.52,-346.54 425.8,-352.17 425.8,-352.17"/>
<ellipse fill="none" stroke="black" cx="422.72" cy="-353.04" rx="3.2" ry="3.2"/>
</g>
<!-- line_to_sign -->
<g id="node6" class="node">
<title>line_to_sign</title>
<g id="a_node6"><a xlink:href="../../tables/line_to_sign.html" xlink:title="line_to_sign" target="_top">
<polygon fill="#ffffff" stroke="transparent" points="212.5,-195 212.5,-253 355.5,-253 355.5,-195 212.5,-195"/>
<polygon fill="#f5f5f5" stroke="transparent" points="213,-231 213,-253 356,-253 356,-231 213,-231"/>
<polygon fill="none" stroke="black" points="213,-231 213,-253 356,-253 356,-231 213,-231"/>
<text text-anchor="start" x="218" y="-240.2" font-family="Helvetica,sans-Serif" font-weight="bold" font-size="11.00">line_to_sign</text>
<text text-anchor="start" x="314" y="-239.2" font-family="Helvetica,sans-Serif" font-size="11.00">[table]</text>
<polygon fill="none" stroke="black" points="213,-213 213,-231 356,-231 356,-213 213,-213"/>
<text text-anchor="start" x="216" y="-219.2" font-family="Helvetica,sans-Serif" font-size="11.00">...</text>
<polygon fill="#ffffff" stroke="transparent" points="213,-195 213,-213 239,-213 239,-195 213,-195"/>
<polygon fill="none" stroke="black" points="213,-195 213,-213 239,-213 239,-195 213,-195"/>
<text text-anchor="start" x="216" y="-201.2" font-family="Helvetica,sans-Serif" font-size="11.00">&lt; 2</text>
<polygon fill="#ffffff" stroke="transparent" points="239,-195 239,-213 330,-213 330,-195 239,-195"/>
<polygon fill="none" stroke="black" points="239,-195 239,-213 330,-213 330,-195 239,-195"/>
<text text-anchor="start" x="242" y="-201.2" font-family="Helvetica,sans-Serif" font-size="11.00">1,730,550 rows</text>
<polygon fill="#ffffff" stroke="transparent" points="330,-195 330,-213 356,-213 356,-195 330,-195"/>
<polygon fill="none" stroke="black" points="330,-195 330,-213 356,-213 356,-195 330,-195"/>
<text text-anchor="start" x="333" y="-201.2" font-family="Helvetica,sans-Serif" font-size="11.00">1 &gt;</text>
</a>
</g>
</g>
<!-- line_to_sign&#45;&gt;line -->
<g id="edge6" class="edge">
<title>line_to_sign:w&#45;&gt;line:e</title>
<path fill="none" stroke="black" d="M197.43,-220.55C171.02,-214.94 162.34,-195 129,-195"/>
<polygon fill="black" stroke="black" points="204.04,-221.21 211.64,-225.58 208.02,-221.6 212,-222 212,-222 212,-222 208.02,-221.6 212.36,-218.42 204.04,-221.21 204.04,-221.21"/>
<ellipse fill="none" stroke="black" cx="200.86" cy="-220.89" rx="3.2" ry="3.2"/>
</g>
<!-- qwb_ref -->
<g id="node7" class="node">
<title>qwb_ref</title>
<g id="a_node7"><a xlink:href="../../tables/qwb_ref.html" xlink:title="qwb_ref" target="_top">
<polygon fill="#ffffff" stroke="transparent" points="227,-116 227,-174 341,-174 341,-116 227,-116"/>
<polygon fill="#f5f5f5" stroke="transparent" points="227,-152 227,-174 341,-174 341,-152 227,-152"/>
<polygon fill="none" stroke="black" points="227,-152 227,-174 341,-174 341,-152 227,-152"/>
<text text-anchor="start" x="232" y="-161.2" font-family="Helvetica,sans-Serif" font-weight="bold" font-size="11.00">qwb_ref</text>
<text text-anchor="start" x="299" y="-160.2" font-family="Helvetica,sans-Serif" font-size="11.00">[table]</text>
<polygon fill="none" stroke="black" points="227,-134 227,-152 341,-152 341,-134 227,-134"/>
<text text-anchor="start" x="230" y="-140.2" font-family="Helvetica,sans-Serif" font-size="11.00">...</text>
<polygon fill="#ffffff" stroke="transparent" points="227,-116 227,-134 253,-134 253,-116 227,-116"/>
<polygon fill="none" stroke="black" points="227,-116 227,-134 253,-134 253,-116 227,-116"/>
<text text-anchor="start" x="230" y="-122.2" font-family="Helvetica,sans-Serif" font-size="11.00">&lt; 1</text>
<polygon fill="#ffffff" stroke="transparent" points="253,-116 253,-134 327,-134 327,-116 253,-116"/>
<polygon fill="none" stroke="black" points="253,-116 253,-134 327,-134 327,-116 253,-116"/>
<text text-anchor="start" x="256" y="-122.2" font-family="Helvetica,sans-Serif" font-size="11.00">54,165 rows</text>
<polygon fill="#ffffff" stroke="transparent" points="327,-116 327,-134 341,-134 341,-116 327,-116"/>
<polygon fill="none" stroke="black" points="327,-116 327,-134 341,-134 341,-116 327,-116"/>
<text text-anchor="start" x="330" y="-122.2" font-family="Helvetica,sans-Serif" font-size="11.00"> &#160;</text>
</a>
</g>
</g>
<!-- qwb_ref&#45;&gt;line -->
<g id="edge7" class="edge">
<title>qwb_ref:w&#45;&gt;line:e</title>
<path fill="none" stroke="black" stroke-dasharray="5,2" d="M211.6,-144.73C176.67,-153.75 172.57,-195 129,-195"/>
<polygon fill="black" stroke="black" points="218.06,-143.95 226.43,-146.57 222.03,-143.48 226,-143 226,-143 226,-143 222.03,-143.48 225.57,-139.43 218.06,-143.95 218.06,-143.95"/>
<ellipse fill="none" stroke="black" cx="214.88" cy="-144.34" rx="3.2" ry="3.2"/>
</g>
<!-- text_fragment_to_line -->
<g id="node8" class="node">
<title>text_fragment_to_line</title>
<g id="a_node8"><a xlink:href="../../tables/text_fragment_to_line.html" xlink:title="text_fragment_to_line" target="_top">
<polygon fill="#ffffff" stroke="transparent" points="192,-37 192,-95 376,-95 376,-37 192,-37"/>
<polygon fill="#f5f5f5" stroke="transparent" points="192,-73 192,-95 376,-95 376,-73 192,-73"/>
<polygon fill="none" stroke="black" points="192,-73 192,-95 376,-95 376,-73 192,-73"/>
<text text-anchor="start" x="197" y="-82.2" font-family="Helvetica,sans-Serif" font-weight="bold" font-size="11.00">text_fragment_to_line</text>
<text text-anchor="start" x="334" y="-81.2" font-family="Helvetica,sans-Serif" font-size="11.00">[table]</text>
<polygon fill="none" stroke="black" points="192,-55 192,-73 376,-73 376,-55 192,-55"/>
<text text-anchor="start" x="195" y="-61.2" font-family="Helvetica,sans-Serif" font-size="11.00">...</text>
<polygon fill="#ffffff" stroke="transparent" points="192,-37 192,-55 247,-55 247,-37 192,-37"/>
<polygon fill="none" stroke="black" points="192,-37 192,-55 247,-55 247,-37 192,-37"/>
<text text-anchor="start" x="195" y="-43.2" font-family="Helvetica,sans-Serif" font-size="11.00">&lt; 2</text>
<polygon fill="#ffffff" stroke="transparent" points="247,-37 247,-55 335,-55 335,-37 247,-37"/>
<polygon fill="none" stroke="black" points="247,-37 247,-55 335,-55 335,-37 247,-37"/>
<text text-anchor="start" x="264" y="-43.2" font-family="Helvetica,sans-Serif" font-size="11.00">53,405 rows</text>
<polygon fill="#ffffff" stroke="transparent" points="335,-37 335,-55 376,-55 376,-37 335,-37"/>
<polygon fill="none" stroke="black" points="335,-37 335,-55 376,-55 376,-37 335,-37"/>
<text text-anchor="start" x="353" y="-43.2" font-family="Helvetica,sans-Serif" font-size="11.00">1 &gt;</text>
</a>
</g>
</g>
<!-- text_fragment_to_line&#45;&gt;line -->
<g id="edge8" class="edge">
<title>text_fragment_to_line:w&#45;&gt;line:e</title>
<path fill="none" stroke="black" d="M176.88,-66.86C137.32,-86.02 187.75,-195 129,-195"/>
<polygon fill="black" stroke="black" points="183.16,-65.59 191.71,-67.53 187.08,-64.79 191,-64 191,-64 191,-64 187.08,-64.79 190.29,-60.47 183.16,-65.59 183.16,-65.59"/>
<ellipse fill="none" stroke="black" cx="180.02" cy="-66.22" rx="3.2" ry="3.2"/>
</g>
</g>
</svg>
