<?xml version="1.0" encoding="UTF-8" standalone="no"?>
<!DOCTYPE svg PUBLIC "-//W3C//DTD SVG 1.1//EN"
 "http://www.w3.org/Graphics/SVG/1.1/DTD/svg11.dtd">
<!-- Generated by graphviz version 2.43.0 (0)
 -->
<!-- Title: oneDegreeRelationshipsDiagramImplied Pages: 1 -->
<svg width="638pt" height="194pt"
 viewBox="0.00 0.00 638.00 194.00" xmlns="http://www.w3.org/2000/svg" xmlns:xlink="http://www.w3.org/1999/xlink">
<g id="graph0" class="graph" transform="scale(1 1) rotate(0) translate(4 190)">
<title>oneDegreeRelationshipsDiagramImplied</title>
<polygon fill="#ffffff" stroke="transparent" points="-4,4 -4,-190 634,-190 634,4 -4,4"/>
<text text-anchor="middle" x="79.5" y="-7.2" font-family="Helvetica,sans-Serif" font-size="11.00">Generated by SchemaSpy</text>
<!-- line_to_sign -->
<g id="node1" class="node">
<title>line_to_sign</title>
<g id="a_node1"><a xlink:href="../../tables/line_to_sign.html" xlink:title="line_to_sign" target="_top">
<polygon fill="#ffffff" stroke="transparent" points="188,-65 188,-175 407,-175 407,-65 188,-65"/>
<polygon fill="#f5f5f5" stroke="transparent" points="190.5,-151 190.5,-173 405.5,-173 405.5,-151 190.5,-151"/>
<polygon fill="none" stroke="black" points="190.5,-151 190.5,-173 405.5,-173 405.5,-151 190.5,-151"/>
<text text-anchor="start" x="195.5" y="-160.2" font-family="Helvetica,sans-Serif" font-weight="bold" font-size="11.00">line_to_sign</text>
<text text-anchor="start" x="363.5" y="-159.2" font-family="Helvetica,sans-Serif" font-size="11.00">[table]</text>
<polygon fill="none" stroke="black" points="190.5,-129 190.5,-151 308.5,-151 308.5,-129 190.5,-129"/>
<image xlink:href="../../images/primaryKeys.png" width="11px" height="12px" preserveAspectRatio="xMinYMin meet" x="195.5" y="-146"/>
<text text-anchor="start" x="210.5" y="-137.2" font-family="Helvetica,sans-Serif" font-size="11.00">line_to_sign_id</text>
<polygon fill="none" stroke="black" points="308.5,-129 308.5,-151 405.5,-151 405.5,-129 308.5,-129"/>
<text text-anchor="start" x="311.5" y="-137.2" font-family="Helvetica,sans-Serif" font-size="11.00">int unsigned[10]</text>
<polygon fill="#ffffff" stroke="transparent" points="190.5,-107 190.5,-129 308.5,-129 308.5,-107 190.5,-107"/>
<polygon fill="none" stroke="black" points="190.5,-107 190.5,-129 308.5,-129 308.5,-107 190.5,-107"/>
<image xlink:href="../../images/foreignKeys.png" width="11px" height="12px" preserveAspectRatio="xMinYMin meet" x="195.5" y="-124"/>
<text text-anchor="start" x="210.5" y="-115.2" font-family="Helvetica,sans-Serif" font-size="11.00">sign_id</text>
<polygon fill="none" stroke="black" points="308.5,-107 308.5,-129 405.5,-129 405.5,-107 308.5,-107"/>
<text text-anchor="start" x="311.5" y="-115.2" font-family="Helvetica,sans-Serif" font-size="11.00">int unsigned[10]</text>
<polygon fill="#ffffff" stroke="transparent" points="190.5,-85 190.5,-107 308.5,-107 308.5,-85 190.5,-85"/>
<polygon fill="none" stroke="black" points="190.5,-85 190.5,-107 308.5,-107 308.5,-85 190.5,-85"/>
<image xlink:href="../../images/foreignKeys.png" width="11px" height="12px" preserveAspectRatio="xMinYMin meet" x="195.5" y="-102"/>
<text text-anchor="start" x="210.5" y="-93.2" font-family="Helvetica,sans-Serif" font-size="11.00">line_id</text>
<polygon fill="none" stroke="black" points="308.5,-85 308.5,-107 405.5,-107 405.5,-85 308.5,-85"/>
<text text-anchor="start" x="311.5" y="-93.2" font-family="Helvetica,sans-Serif" font-size="11.00">int unsigned[10]</text>
<polygon fill="#ffffff" stroke="transparent" points="190.5,-67 190.5,-85 216.5,-85 216.5,-67 190.5,-67"/>
<polygon fill="none" stroke="black" points="190.5,-67 190.5,-85 216.5,-85 216.5,-67 190.5,-67"/>
<text text-anchor="start" x="193.5" y="-73.2" font-family="Helvetica,sans-Serif" font-size="11.00">&lt; 2</text>
<polygon fill="#ffffff" stroke="transparent" points="216.5,-67 216.5,-85 308.5,-85 308.5,-67 216.5,-67"/>
<polygon fill="none" stroke="black" points="216.5,-67 216.5,-85 308.5,-85 308.5,-67 216.5,-67"/>
<text text-anchor="start" x="220.5" y="-73.2" font-family="Helvetica,sans-Serif" font-size="11.00">1,730,550 rows</text>
<polygon fill="#ffffff" stroke="transparent" points="308.5,-67 308.5,-85 405.5,-85 405.5,-67 308.5,-67"/>
<polygon fill="none" stroke="black" points="308.5,-67 308.5,-85 405.5,-85 405.5,-67 308.5,-67"/>
<text text-anchor="start" x="382.5" y="-73.2" font-family="Helvetica,sans-Serif" font-size="11.00">1 &gt;</text>
<polygon fill="none" stroke="black" stroke-width="2" points="189,-66 189,-174 406,-174 406,-66 189,-66"/>
</a>
</g>
</g>
<!-- line -->
<g id="node2" class="node">
<title>line</title>
<g id="a_node2"><a xlink:href="../../tables/line.html" xlink:title="line" target="_top">
<polygon fill="#ffffff" stroke="transparent" points="16.5,-37 16.5,-99 130.5,-99 130.5,-37 16.5,-37"/>
<polygon fill="#f5f5f5" stroke="transparent" points="16.5,-77 16.5,-99 130.5,-99 130.5,-77 16.5,-77"/>
<polygon fill="none" stroke="black" points="16.5,-77 16.5,-99 130.5,-99 130.5,-77 16.5,-77"/>
<text text-anchor="start" x="21.5" y="-86.2" font-family="Helvetica,sans-Serif" font-weight="bold" font-size="11.00">line</text>
<text text-anchor="start" x="88.5" y="-85.2" font-family="Helvetica,sans-Serif" font-size="11.00">[table]</text>
<polygon fill="none" stroke="black" points="16.5,-55 16.5,-77 130.5,-77 130.5,-55 16.5,-55"/>
<image xlink:href="../../images/primaryKeys.png" width="11px" height="12px" preserveAspectRatio="xMinYMin meet" x="21.5" y="-72"/>
<text text-anchor="start" x="61.5" y="-63.2" font-family="Helvetica,sans-Serif" font-size="11.00">line_id</text>
<polygon fill="#ffffff" stroke="transparent" points="16.5,-37 16.5,-55 30.5,-55 30.5,-37 16.5,-37"/>
<polygon fill="none" stroke="black" points="16.5,-37 16.5,-55 30.5,-55 30.5,-37 16.5,-37"/>
<text text-anchor="start" x="19.5" y="-43.2" font-family="Helvetica,sans-Serif" font-size="11.00"> &#160;</text>
<polygon fill="#ffffff" stroke="transparent" points="30.5,-37 30.5,-55 104.5,-55 104.5,-37 30.5,-37"/>
<polygon fill="none" stroke="black" points="30.5,-37 30.5,-55 104.5,-55 104.5,-37 30.5,-37"/>
<text text-anchor="start" x="33.5" y="-43.2" font-family="Helvetica,sans-Serif" font-size="11.00">53,964 rows</text>
<polygon fill="#ffffff" stroke="transparent" points="104.5,-37 104.5,-55 130.5,-55 130.5,-37 104.5,-37"/>
<polygon fill="none" stroke="black" points="104.5,-37 104.5,-55 130.5,-55 130.5,-37 104.5,-37"/>
<text text-anchor="start" x="107.5" y="-43.2" font-family="Helvetica,sans-Serif" font-size="11.00">3 &gt;</text>
</a>
</g>
</g>
<!-- line_to_sign&#45;&gt;line -->
<g id="edge1" class="edge">
<title>line_to_sign:w&#45;&gt;line:e</title>
<path fill="none" stroke="black" d="M175.39,-93.01C159.39,-85.43 154.85,-66 131.5,-66"/>
<polygon fill="black" stroke="black" points="181.67,-94.34 188.75,-99.52 185.59,-95.17 189.5,-96 189.5,-96 189.5,-96 185.59,-95.17 190.25,-92.48 181.67,-94.34 181.67,-94.34"/>
<ellipse fill="none" stroke="black" cx="178.54" cy="-93.68" rx="3.2" ry="3.2"/>
</g>
<!-- sign -->
<g id="node3" class="node">
<title>sign</title>
<g id="a_node3"><a xlink:href="../../tables/sign.html" xlink:title="sign" target="_top">
<polygon fill="#ffffff" stroke="transparent" points="8,-120 8,-182 139,-182 139,-120 8,-120"/>
<polygon fill="#f5f5f5" stroke="transparent" points="8.5,-160 8.5,-182 139.5,-182 139.5,-160 8.5,-160"/>
<polygon fill="none" stroke="black" points="8.5,-160 8.5,-182 139.5,-182 139.5,-160 8.5,-160"/>
<text text-anchor="start" x="13.5" y="-169.2" font-family="Helvetica,sans-Serif" font-weight="bold" font-size="11.00">sign</text>
<text text-anchor="start" x="97.5" y="-168.2" font-family="Helvetica,sans-Serif" font-size="11.00">[table]</text>
<polygon fill="none" stroke="black" points="8.5,-138 8.5,-160 139.5,-160 139.5,-138 8.5,-138"/>
<image xlink:href="../../images/primaryKeys.png" width="11px" height="12px" preserveAspectRatio="xMinYMin meet" x="13.5" y="-155"/>
<text text-anchor="start" x="60.5" y="-146.2" font-family="Helvetica,sans-Serif" font-size="11.00">sign_id</text>
<polygon fill="#ffffff" stroke="transparent" points="8.5,-120 8.5,-138 22.5,-138 22.5,-120 8.5,-120"/>
<polygon fill="none" stroke="black" points="8.5,-120 8.5,-138 22.5,-138 22.5,-120 8.5,-120"/>
<text text-anchor="start" x="11.5" y="-126.2" font-family="Helvetica,sans-Serif" font-size="11.00"> &#160;</text>
<polygon fill="#ffffff" stroke="transparent" points="22.5,-120 22.5,-138 113.5,-138 113.5,-120 22.5,-120"/>
<polygon fill="none" stroke="black" points="22.5,-120 22.5,-138 113.5,-138 113.5,-120 22.5,-120"/>
<text text-anchor="start" x="25.5" y="-126.2" font-family="Helvetica,sans-Serif" font-size="11.00">1,732,050 rows</text>
<polygon fill="#ffffff" stroke="transparent" points="113.5,-120 113.5,-138 139.5,-138 139.5,-120 113.5,-120"/>
<polygon fill="none" stroke="black" points="113.5,-120 113.5,-138 139.5,-138 139.5,-120 113.5,-120"/>
<text text-anchor="start" x="116.5" y="-126.2" font-family="Helvetica,sans-Serif" font-size="11.00">2 &gt;</text>
</a>
</g>
</g>
<!-- line_to_sign&#45;&gt;sign -->
<g id="edge2" class="edge">
<title>line_to_sign:w&#45;&gt;sign:e</title>
<path fill="none" stroke="black" d="M175.32,-122.31C163.37,-130.83 160.23,-149 140.5,-149"/>
<polygon fill="black" stroke="black" points="181.85,-120.33 190.55,-121.44 185.67,-119.16 189.5,-118 189.5,-118 189.5,-118 185.67,-119.16 188.45,-114.56 181.85,-120.33 181.85,-120.33"/>
<ellipse fill="none" stroke="black" cx="178.78" cy="-121.26" rx="3.2" ry="3.2"/>
</g>
<!-- line_to_sign_owner -->
<g id="node4" class="node">
<title>line_to_sign_owner</title>
<g id="a_node4"><a xlink:href="../../tables/line_to_sign_owner.html" xlink:title="line_to_sign_owner" target="_top">
<polygon fill="#ffffff" stroke="transparent" points="456,-67 456,-173 622,-173 622,-67 456,-67"/>
<polygon fill="#f5f5f5" stroke="transparent" points="456,-151 456,-173 622,-173 622,-151 456,-151"/>
<polygon fill="none" stroke="black" points="456,-151 456,-173 622,-173 622,-151 456,-151"/>
<text text-anchor="start" x="461" y="-160.2" font-family="Helvetica,sans-Serif" font-weight="bold" font-size="11.00">line_to_sign_owner</text>
<text text-anchor="start" x="580" y="-159.2" font-family="Helvetica,sans-Serif" font-size="11.00">[table]</text>
<polygon fill="none" stroke="black" points="456,-129 456,-151 622,-151 622,-129 456,-129"/>
<image xlink:href="../../images/primaryKeys.png" width="11px" height="12px" preserveAspectRatio="xMinYMin meet" x="461" y="-146"/>
<text text-anchor="start" x="485" y="-137.2" font-family="Helvetica,sans-Serif" font-size="11.00">line_to_sign_id</text>
<polygon fill="#ffffff" stroke="transparent" points="456,-107 456,-129 622,-129 622,-107 456,-107"/>
<polygon fill="none" stroke="black" points="456,-107 456,-129 622,-129 622,-107 456,-107"/>
<image xlink:href="../../images/foreignKeys.png" width="11px" height="12px" preserveAspectRatio="xMinYMin meet" x="461" y="-124"/>
<text text-anchor="start" x="485" y="-115.2" font-family="Helvetica,sans-Serif" font-size="11.00">edition_editor_id</text>
<polygon fill="none" stroke="black" points="456,-85 456,-107 622,-107 622,-85 456,-85"/>
<image xlink:href="../../images/primaryKeys.png" width="11px" height="12px" preserveAspectRatio="xMinYMin meet" x="461" y="-102"/>
<text text-anchor="start" x="485" y="-93.2" font-family="Helvetica,sans-Serif" font-size="11.00">edition_id</text>
<polygon fill="#ffffff" stroke="transparent" points="456,-67 456,-85 499,-85 499,-67 456,-67"/>
<polygon fill="none" stroke="black" points="456,-67 456,-85 499,-85 499,-67 456,-67"/>
<text text-anchor="start" x="459" y="-73.2" font-family="Helvetica,sans-Serif" font-size="11.00">&lt; 3</text>
<polygon fill="#ffffff" stroke="transparent" points="499,-67 499,-85 599,-85 599,-67 499,-67"/>
<polygon fill="none" stroke="black" points="499,-67 499,-85 599,-85 599,-67 499,-67"/>
<text text-anchor="start" x="511" y="-73.2" font-family="Helvetica,sans-Serif" font-size="11.00">1,730,550 rows</text>
<polygon fill="#ffffff" stroke="transparent" points="599,-67 599,-85 622,-85 622,-67 599,-67"/>
<polygon fill="none" stroke="black" points="599,-67 599,-85 622,-85 622,-67 599,-67"/>
<text text-anchor="start" x="611" y="-73.2" font-family="Helvetica,sans-Serif" font-size="11.00"> &#160;</text>
</a>
</g>
</g>
<!-- line_to_sign_owner&#45;&gt;line_to_sign -->
<g id="edge3" class="edge">
<title>line_to_sign_owner:w&#45;&gt;line_to_sign:e</title>
<path fill="none" stroke="black" d="M440.28,-140C429.29,-140 422.16,-140 406.5,-140"/>
<polygon fill="black" stroke="black" points="447,-140 455,-143.6 451,-140 455,-140 455,-140 455,-140 451,-140 455,-136.4 447,-140 447,-140"/>
<ellipse fill="none" stroke="black" cx="443.8" cy="-140" rx="3.2" ry="3.2"/>
</g>
</g>
</svg>
