<?xml version="1.0" encoding="UTF-8" standalone="no"?>
<!DOCTYPE svg PUBLIC "-//W3C//DTD SVG 1.1//EN"
 "http://www.w3.org/Graphics/SVG/1.1/DTD/svg11.dtd">
<!-- Generated by graphviz version 2.43.0 (0)
 -->
<!-- Title: twoDegreesRelationshipsDiagram Pages: 1 -->
<svg width="638pt" height="501pt"
 viewBox="0.00 0.00 638.00 501.00" xmlns="http://www.w3.org/2000/svg" xmlns:xlink="http://www.w3.org/1999/xlink">
<g id="graph0" class="graph" transform="scale(1 1) rotate(0) translate(4 497)">
<title>twoDegreesRelationshipsDiagram</title>
<polygon fill="#ffffff" stroke="transparent" points="-4,4 -4,-497 634,-497 634,4 -4,4"/>
<text text-anchor="middle" x="79.5" y="-7.2" font-family="Helvetica,sans-Serif" font-size="11.00">Generated by SchemaSpy</text>
<!-- edition_editor -->
<g id="node1" class="node">
<title>edition_editor</title>
<g id="a_node1"><a xlink:href="../../tables/edition_editor.html" xlink:title="edition_editor" target="_top">
<polygon fill="#ffffff" stroke="transparent" points="229.5,-63 229.5,-121 365.5,-121 365.5,-63 229.5,-63"/>
<polygon fill="#f5f5f5" stroke="transparent" points="229.5,-99 229.5,-121 365.5,-121 365.5,-99 229.5,-99"/>
<polygon fill="none" stroke="black" points="229.5,-99 229.5,-121 365.5,-121 365.5,-99 229.5,-99"/>
<text text-anchor="start" x="234.5" y="-108.2" font-family="Helvetica,sans-Serif" font-weight="bold" font-size="11.00">edition_editor</text>
<text text-anchor="start" x="323.5" y="-107.2" font-family="Helvetica,sans-Serif" font-size="11.00">[table]</text>
<polygon fill="none" stroke="black" points="229.5,-81 229.5,-99 365.5,-99 365.5,-81 229.5,-81"/>
<text text-anchor="start" x="232.5" y="-87.2" font-family="Helvetica,sans-Serif" font-size="11.00">...</text>
<polygon fill="#ffffff" stroke="transparent" points="229.5,-63 229.5,-81 260.5,-81 260.5,-63 229.5,-63"/>
<polygon fill="none" stroke="black" points="229.5,-63 229.5,-81 260.5,-81 260.5,-63 229.5,-63"/>
<text text-anchor="start" x="232.5" y="-69.2" font-family="Helvetica,sans-Serif" font-size="11.00">&lt; 2</text>
<polygon fill="#ffffff" stroke="transparent" points="260.5,-63 260.5,-81 329.5,-81 329.5,-63 260.5,-63"/>
<polygon fill="none" stroke="black" points="260.5,-63 260.5,-81 329.5,-81 329.5,-63 260.5,-63"/>
<text text-anchor="start" x="265.5" y="-69.2" font-family="Helvetica,sans-Serif" font-size="11.00">1,645 rows</text>
<polygon fill="#ffffff" stroke="transparent" points="329.5,-63 329.5,-81 365.5,-81 365.5,-63 329.5,-63"/>
<polygon fill="none" stroke="black" points="329.5,-63 329.5,-81 365.5,-81 365.5,-63 329.5,-63"/>
<text text-anchor="start" x="335.5" y="-69.2" font-family="Helvetica,sans-Serif" font-size="11.00">33 &gt;</text>
</a>
</g>
</g>
<!-- edition -->
<g id="node2" class="node">
<title>edition</title>
<g id="a_node2"><a xlink:href="../../tables/edition.html" xlink:title="edition" target="_top">
<polygon fill="#ffffff" stroke="transparent" points="10.5,-37 10.5,-95 136.5,-95 136.5,-37 10.5,-37"/>
<polygon fill="#f5f5f5" stroke="transparent" points="10.5,-73 10.5,-95 136.5,-95 136.5,-73 10.5,-73"/>
<polygon fill="none" stroke="black" points="10.5,-73 10.5,-95 136.5,-95 136.5,-73 10.5,-73"/>
<text text-anchor="start" x="15.5" y="-82.2" font-family="Helvetica,sans-Serif" font-weight="bold" font-size="11.00">edition</text>
<text text-anchor="start" x="94.5" y="-81.2" font-family="Helvetica,sans-Serif" font-size="11.00">[table]</text>
<polygon fill="none" stroke="black" points="10.5,-55 10.5,-73 136.5,-73 136.5,-55 10.5,-55"/>
<text text-anchor="start" x="13.5" y="-61.2" font-family="Helvetica,sans-Serif" font-size="11.00">...</text>
<polygon fill="#ffffff" stroke="transparent" points="10.5,-37 10.5,-55 36.5,-55 36.5,-37 10.5,-37"/>
<polygon fill="none" stroke="black" points="10.5,-37 10.5,-55 36.5,-55 36.5,-37 10.5,-37"/>
<text text-anchor="start" x="13.5" y="-43.2" font-family="Helvetica,sans-Serif" font-size="11.00">&lt; 1</text>
<polygon fill="#ffffff" stroke="transparent" points="36.5,-37 36.5,-55 103.5,-55 103.5,-37 36.5,-37"/>
<polygon fill="none" stroke="black" points="36.5,-37 36.5,-55 103.5,-55 103.5,-37 36.5,-37"/>
<text text-anchor="start" x="39.5" y="-43.2" font-family="Helvetica,sans-Serif" font-size="11.00">1,645 rows</text>
<polygon fill="#ffffff" stroke="transparent" points="103.5,-37 103.5,-55 136.5,-55 136.5,-37 103.5,-37"/>
<polygon fill="none" stroke="black" points="103.5,-37 103.5,-55 136.5,-55 136.5,-37 103.5,-37"/>
<text text-anchor="start" x="106.5" y="-43.2" font-family="Helvetica,sans-Serif" font-size="11.00">35 &gt;</text>
</a>
</g>
</g>
<!-- edition_editor&#45;&gt;edition -->
<g id="edge1" class="edge">
<title>edition_editor:w&#45;&gt;edition:e</title>
<path fill="none" stroke="black" d="M213.84,-88.82C184.08,-83.73 174.14,-64 137.5,-64"/>
<polygon fill="black" stroke="black" points="220.53,-89.36 228.21,-93.59 224.51,-89.68 228.5,-90 228.5,-90 228.5,-90 224.51,-89.68 228.79,-86.41 220.53,-89.36 220.53,-89.36"/>
<ellipse fill="none" stroke="black" cx="217.34" cy="-89.1" rx="3.2" ry="3.2"/>
</g>
<!-- line_data -->
<g id="node3" class="node">
<title>line_data</title>
<g id="a_node3"><a xlink:href="../../tables/line_data.html" xlink:title="line_data" target="_top">
<polygon fill="#ffffff" stroke="transparent" points="234.5,-431 234.5,-489 360.5,-489 360.5,-431 234.5,-431"/>
<polygon fill="#f5f5f5" stroke="transparent" points="234.5,-467 234.5,-489 360.5,-489 360.5,-467 234.5,-467"/>
<polygon fill="none" stroke="black" points="234.5,-467 234.5,-489 360.5,-489 360.5,-467 234.5,-467"/>
<text text-anchor="start" x="239.5" y="-476.2" font-family="Helvetica,sans-Serif" font-weight="bold" font-size="11.00">line_data</text>
<text text-anchor="start" x="318.5" y="-475.2" font-family="Helvetica,sans-Serif" font-size="11.00">[table]</text>
<polygon fill="none" stroke="black" points="234.5,-449 234.5,-467 360.5,-467 360.5,-449 234.5,-449"/>
<text text-anchor="start" x="237.5" y="-455.2" font-family="Helvetica,sans-Serif" font-size="11.00">...</text>
<polygon fill="#ffffff" stroke="transparent" points="234.5,-431 234.5,-449 260.5,-449 260.5,-431 234.5,-431"/>
<polygon fill="none" stroke="black" points="234.5,-431 234.5,-449 260.5,-449 260.5,-431 234.5,-431"/>
<text text-anchor="start" x="237.5" y="-437.2" font-family="Helvetica,sans-Serif" font-size="11.00">&lt; 1</text>
<polygon fill="#ffffff" stroke="transparent" points="260.5,-431 260.5,-449 334.5,-449 334.5,-431 260.5,-431"/>
<polygon fill="none" stroke="black" points="260.5,-431 260.5,-449 334.5,-449 334.5,-431 260.5,-431"/>
<text text-anchor="start" x="263.5" y="-437.2" font-family="Helvetica,sans-Serif" font-size="11.00">55,080 rows</text>
<polygon fill="#ffffff" stroke="transparent" points="334.5,-431 334.5,-449 360.5,-449 360.5,-431 334.5,-431"/>
<polygon fill="none" stroke="black" points="334.5,-431 334.5,-449 360.5,-449 360.5,-431 334.5,-431"/>
<text text-anchor="start" x="337.5" y="-437.2" font-family="Helvetica,sans-Serif" font-size="11.00">1 &gt;</text>
</a>
</g>
</g>
<!-- line -->
<g id="node4" class="node">
<title>line</title>
<g id="a_node4"><a xlink:href="../../tables/line.html" xlink:title="line" target="_top">
<polygon fill="#ffffff" stroke="transparent" points="16.5,-350 16.5,-412 130.5,-412 130.5,-350 16.5,-350"/>
<polygon fill="#f5f5f5" stroke="transparent" points="16.5,-390 16.5,-412 130.5,-412 130.5,-390 16.5,-390"/>
<polygon fill="none" stroke="black" points="16.5,-390 16.5,-412 130.5,-412 130.5,-390 16.5,-390"/>
<text text-anchor="start" x="21.5" y="-399.2" font-family="Helvetica,sans-Serif" font-weight="bold" font-size="11.00">line</text>
<text text-anchor="start" x="88.5" y="-398.2" font-family="Helvetica,sans-Serif" font-size="11.00">[table]</text>
<polygon fill="none" stroke="black" points="16.5,-368 16.5,-390 130.5,-390 130.5,-368 16.5,-368"/>
<image xlink:href="../../images/primaryKeys.png" width="11px" height="12px" preserveAspectRatio="xMinYMin meet" x="21.5" y="-385"/>
<text text-anchor="start" x="61.5" y="-376.2" font-family="Helvetica,sans-Serif" font-size="11.00">line_id</text>
<polygon fill="#ffffff" stroke="transparent" points="16.5,-350 16.5,-368 30.5,-368 30.5,-350 16.5,-350"/>
<polygon fill="none" stroke="black" points="16.5,-350 16.5,-368 30.5,-368 30.5,-350 16.5,-350"/>
<text text-anchor="start" x="19.5" y="-356.2" font-family="Helvetica,sans-Serif" font-size="11.00"> &#160;</text>
<polygon fill="#ffffff" stroke="transparent" points="30.5,-350 30.5,-368 104.5,-368 104.5,-350 30.5,-350"/>
<polygon fill="none" stroke="black" points="30.5,-350 30.5,-368 104.5,-368 104.5,-350 30.5,-350"/>
<text text-anchor="start" x="33.5" y="-356.2" font-family="Helvetica,sans-Serif" font-size="11.00">53,964 rows</text>
<polygon fill="#ffffff" stroke="transparent" points="104.5,-350 104.5,-368 130.5,-368 130.5,-350 104.5,-350"/>
<polygon fill="none" stroke="black" points="104.5,-350 104.5,-368 130.5,-368 130.5,-350 104.5,-350"/>
<text text-anchor="start" x="107.5" y="-356.2" font-family="Helvetica,sans-Serif" font-size="11.00">3 &gt;</text>
</a>
</g>
</g>
<!-- line_data&#45;&gt;line -->
<g id="edge2" class="edge">
<title>line_data:w&#45;&gt;line:e</title>
<path fill="none" stroke="black" d="M218.84,-455.79C203.01,-450.23 198.21,-435.11 180,-421 157.46,-403.53 160.01,-379 131.5,-379"/>
<polygon fill="black" stroke="black" points="225.59,-456.81 232.96,-461.56 229.54,-457.4 233.5,-458 233.5,-458 233.5,-458 229.54,-457.4 234.04,-454.44 225.59,-456.81 225.59,-456.81"/>
<ellipse fill="none" stroke="black" cx="222.43" cy="-456.33" rx="3.2" ry="3.2"/>
</g>
<!-- line_to_sign -->
<g id="node5" class="node">
<title>line_to_sign</title>
<g id="a_node5"><a xlink:href="../../tables/line_to_sign.html" xlink:title="line_to_sign" target="_top">
<polygon fill="#ffffff" stroke="transparent" points="188,-221 188,-331 407,-331 407,-221 188,-221"/>
<polygon fill="#f5f5f5" stroke="transparent" points="190.5,-307 190.5,-329 405.5,-329 405.5,-307 190.5,-307"/>
<polygon fill="none" stroke="black" points="190.5,-307 190.5,-329 405.5,-329 405.5,-307 190.5,-307"/>
<text text-anchor="start" x="195.5" y="-316.2" font-family="Helvetica,sans-Serif" font-weight="bold" font-size="11.00">line_to_sign</text>
<text text-anchor="start" x="363.5" y="-315.2" font-family="Helvetica,sans-Serif" font-size="11.00">[table]</text>
<polygon fill="none" stroke="black" points="190.5,-285 190.5,-307 308.5,-307 308.5,-285 190.5,-285"/>
<image xlink:href="../../images/primaryKeys.png" width="11px" height="12px" preserveAspectRatio="xMinYMin meet" x="195.5" y="-302"/>
<text text-anchor="start" x="210.5" y="-293.2" font-family="Helvetica,sans-Serif" font-size="11.00">line_to_sign_id</text>
<polygon fill="none" stroke="black" points="308.5,-285 308.5,-307 405.5,-307 405.5,-285 308.5,-285"/>
<text text-anchor="start" x="311.5" y="-293.2" font-family="Helvetica,sans-Serif" font-size="11.00">int unsigned[10]</text>
<polygon fill="#ffffff" stroke="transparent" points="190.5,-263 190.5,-285 308.5,-285 308.5,-263 190.5,-263"/>
<polygon fill="none" stroke="black" points="190.5,-263 190.5,-285 308.5,-285 308.5,-263 190.5,-263"/>
<image xlink:href="../../images/foreignKeys.png" width="11px" height="12px" preserveAspectRatio="xMinYMin meet" x="195.5" y="-280"/>
<text text-anchor="start" x="210.5" y="-271.2" font-family="Helvetica,sans-Serif" font-size="11.00">sign_id</text>
<polygon fill="none" stroke="black" points="308.5,-263 308.5,-285 405.5,-285 405.5,-263 308.5,-263"/>
<text text-anchor="start" x="311.5" y="-271.2" font-family="Helvetica,sans-Serif" font-size="11.00">int unsigned[10]</text>
<polygon fill="#ffffff" stroke="transparent" points="190.5,-241 190.5,-263 308.5,-263 308.5,-241 190.5,-241"/>
<polygon fill="none" stroke="black" points="190.5,-241 190.5,-263 308.5,-263 308.5,-241 190.5,-241"/>
<image xlink:href="../../images/foreignKeys.png" width="11px" height="12px" preserveAspectRatio="xMinYMin meet" x="195.5" y="-258"/>
<text text-anchor="start" x="210.5" y="-249.2" font-family="Helvetica,sans-Serif" font-size="11.00">line_id</text>
<polygon fill="none" stroke="black" points="308.5,-241 308.5,-263 405.5,-263 405.5,-241 308.5,-241"/>
<text text-anchor="start" x="311.5" y="-249.2" font-family="Helvetica,sans-Serif" font-size="11.00">int unsigned[10]</text>
<polygon fill="#ffffff" stroke="transparent" points="190.5,-223 190.5,-241 216.5,-241 216.5,-223 190.5,-223"/>
<polygon fill="none" stroke="black" points="190.5,-223 190.5,-241 216.5,-241 216.5,-223 190.5,-223"/>
<text text-anchor="start" x="193.5" y="-229.2" font-family="Helvetica,sans-Serif" font-size="11.00">&lt; 2</text>
<polygon fill="#ffffff" stroke="transparent" points="216.5,-223 216.5,-241 308.5,-241 308.5,-223 216.5,-223"/>
<polygon fill="none" stroke="black" points="216.5,-223 216.5,-241 308.5,-241 308.5,-223 216.5,-223"/>
<text text-anchor="start" x="220.5" y="-229.2" font-family="Helvetica,sans-Serif" font-size="11.00">1,730,550 rows</text>
<polygon fill="#ffffff" stroke="transparent" points="308.5,-223 308.5,-241 405.5,-241 405.5,-223 308.5,-223"/>
<polygon fill="none" stroke="black" points="308.5,-223 308.5,-241 405.5,-241 405.5,-223 308.5,-223"/>
<text text-anchor="start" x="382.5" y="-229.2" font-family="Helvetica,sans-Serif" font-size="11.00">1 &gt;</text>
<polygon fill="none" stroke="black" stroke-width="2" points="189,-222 189,-330 406,-330 406,-222 189,-222"/>
</a>
</g>
</g>
<!-- line_to_sign&#45;&gt;line -->
<g id="edge3" class="edge">
<title>line_to_sign:w&#45;&gt;line:e</title>
<path fill="none" stroke="black" d="M175.22,-255.14C138.72,-274.7 187.73,-379 131.5,-379"/>
<polygon fill="black" stroke="black" points="181.69,-253.72 190.27,-255.52 185.59,-252.86 189.5,-252 189.5,-252 189.5,-252 185.59,-252.86 188.73,-248.48 181.69,-253.72 181.69,-253.72"/>
<ellipse fill="none" stroke="black" cx="178.56" cy="-254.4" rx="3.2" ry="3.2"/>
</g>
<!-- sign -->
<g id="node6" class="node">
<title>sign</title>
<g id="a_node6"><a xlink:href="../../tables/sign.html" xlink:title="sign" target="_top">
<polygon fill="#ffffff" stroke="transparent" points="8,-193 8,-255 139,-255 139,-193 8,-193"/>
<polygon fill="#f5f5f5" stroke="transparent" points="8.5,-233 8.5,-255 139.5,-255 139.5,-233 8.5,-233"/>
<polygon fill="none" stroke="black" points="8.5,-233 8.5,-255 139.5,-255 139.5,-233 8.5,-233"/>
<text text-anchor="start" x="13.5" y="-242.2" font-family="Helvetica,sans-Serif" font-weight="bold" font-size="11.00">sign</text>
<text text-anchor="start" x="97.5" y="-241.2" font-family="Helvetica,sans-Serif" font-size="11.00">[table]</text>
<polygon fill="none" stroke="black" points="8.5,-211 8.5,-233 139.5,-233 139.5,-211 8.5,-211"/>
<image xlink:href="../../images/primaryKeys.png" width="11px" height="12px" preserveAspectRatio="xMinYMin meet" x="13.5" y="-228"/>
<text text-anchor="start" x="60.5" y="-219.2" font-family="Helvetica,sans-Serif" font-size="11.00">sign_id</text>
<polygon fill="#ffffff" stroke="transparent" points="8.5,-193 8.5,-211 22.5,-211 22.5,-193 8.5,-193"/>
<polygon fill="none" stroke="black" points="8.5,-193 8.5,-211 22.5,-211 22.5,-193 8.5,-193"/>
<text text-anchor="start" x="11.5" y="-199.2" font-family="Helvetica,sans-Serif" font-size="11.00"> &#160;</text>
<polygon fill="#ffffff" stroke="transparent" points="22.5,-193 22.5,-211 113.5,-211 113.5,-193 22.5,-193"/>
<polygon fill="none" stroke="black" points="22.5,-193 22.5,-211 113.5,-211 113.5,-193 22.5,-193"/>
<text text-anchor="start" x="25.5" y="-199.2" font-family="Helvetica,sans-Serif" font-size="11.00">1,732,050 rows</text>
<polygon fill="#ffffff" stroke="transparent" points="113.5,-193 113.5,-211 139.5,-211 139.5,-193 113.5,-193"/>
<polygon fill="none" stroke="black" points="113.5,-193 113.5,-211 139.5,-211 139.5,-193 113.5,-193"/>
<text text-anchor="start" x="116.5" y="-199.2" font-family="Helvetica,sans-Serif" font-size="11.00">2 &gt;</text>
</a>
</g>
</g>
<!-- line_to_sign&#45;&gt;sign -->
<g id="edge4" class="edge">
<title>line_to_sign:w&#45;&gt;sign:e</title>
<path fill="none" stroke="black" d="M175.91,-269.2C161.56,-256.33 166.3,-222 140.5,-222"/>
<polygon fill="black" stroke="black" points="181.96,-271.34 188.3,-277.39 185.73,-272.67 189.5,-274 189.5,-274 189.5,-274 185.73,-272.67 190.7,-270.61 181.96,-271.34 181.96,-271.34"/>
<ellipse fill="none" stroke="black" cx="178.94" cy="-270.27" rx="3.2" ry="3.2"/>
</g>
<!-- line_to_sign_owner -->
<g id="node7" class="node">
<title>line_to_sign_owner</title>
<g id="a_node7"><a xlink:href="../../tables/line_to_sign_owner.html" xlink:title="line_to_sign_owner" target="_top">
<polygon fill="#ffffff" stroke="transparent" points="456,-39 456,-145 622,-145 622,-39 456,-39"/>
<polygon fill="#f5f5f5" stroke="transparent" points="456,-123 456,-145 622,-145 622,-123 456,-123"/>
<polygon fill="none" stroke="black" points="456,-123 456,-145 622,-145 622,-123 456,-123"/>
<text text-anchor="start" x="461" y="-132.2" font-family="Helvetica,sans-Serif" font-weight="bold" font-size="11.00">line_to_sign_owner</text>
<text text-anchor="start" x="580" y="-131.2" font-family="Helvetica,sans-Serif" font-size="11.00">[table]</text>
<polygon fill="none" stroke="black" points="456,-101 456,-123 622,-123 622,-101 456,-101"/>
<image xlink:href="../../images/primaryKeys.png" width="11px" height="12px" preserveAspectRatio="xMinYMin meet" x="461" y="-118"/>
<text text-anchor="start" x="485" y="-109.2" font-family="Helvetica,sans-Serif" font-size="11.00">line_to_sign_id</text>
<polygon fill="#ffffff" stroke="transparent" points="456,-79 456,-101 622,-101 622,-79 456,-79"/>
<polygon fill="none" stroke="black" points="456,-79 456,-101 622,-101 622,-79 456,-79"/>
<image xlink:href="../../images/foreignKeys.png" width="11px" height="12px" preserveAspectRatio="xMinYMin meet" x="461" y="-96"/>
<text text-anchor="start" x="485" y="-87.2" font-family="Helvetica,sans-Serif" font-size="11.00">edition_editor_id</text>
<polygon fill="none" stroke="black" points="456,-57 456,-79 622,-79 622,-57 456,-57"/>
<image xlink:href="../../images/primaryKeys.png" width="11px" height="12px" preserveAspectRatio="xMinYMin meet" x="461" y="-74"/>
<text text-anchor="start" x="485" y="-65.2" font-family="Helvetica,sans-Serif" font-size="11.00">edition_id</text>
<polygon fill="#ffffff" stroke="transparent" points="456,-39 456,-57 499,-57 499,-39 456,-39"/>
<polygon fill="none" stroke="black" points="456,-39 456,-57 499,-57 499,-39 456,-39"/>
<text text-anchor="start" x="459" y="-45.2" font-family="Helvetica,sans-Serif" font-size="11.00">&lt; 3</text>
<polygon fill="#ffffff" stroke="transparent" points="499,-39 499,-57 599,-57 599,-39 499,-39"/>
<polygon fill="none" stroke="black" points="499,-39 499,-57 599,-57 599,-39 499,-39"/>
<text text-anchor="start" x="511" y="-45.2" font-family="Helvetica,sans-Serif" font-size="11.00">1,730,550 rows</text>
<polygon fill="#ffffff" stroke="transparent" points="599,-39 599,-57 622,-57 622,-39 599,-39"/>
<polygon fill="none" stroke="black" points="599,-39 599,-57 622,-57 622,-39 599,-39"/>
<text text-anchor="start" x="611" y="-45.2" font-family="Helvetica,sans-Serif" font-size="11.00"> &#160;</text>
</a>
</g>
</g>
<!-- line_to_sign_owner&#45;&gt;edition_editor -->
<g id="edge5" class="edge">
<title>line_to_sign_owner:w&#45;&gt;edition_editor:e</title>
<path fill="none" stroke="black" d="M440.37,-90C412.43,-90 400.46,-90 366.5,-90"/>
<polygon fill="black" stroke="black" points="447,-90 455,-93.6 451,-90 455,-90 455,-90 455,-90 451,-90 455,-86.4 447,-90 447,-90"/>
<ellipse fill="none" stroke="black" cx="443.8" cy="-90" rx="3.2" ry="3.2"/>
</g>
<!-- line_to_sign_owner&#45;&gt;edition -->
<g id="edge6" class="edge">
<title>line_to_sign_owner:w&#45;&gt;edition:e</title>
<path fill="none" stroke="black" d="M440.75,-64.88C432.82,-60.97 427.78,-54.46 415,-52 312.44,-32.25 283.46,-37.67 180,-52 160.56,-54.69 157.13,-64 137.5,-64"/>
<polygon fill="black" stroke="black" points="447.18,-66.29 454.23,-71.52 451.09,-67.15 455,-68 455,-68 455,-68 451.09,-67.15 455.77,-64.48 447.18,-66.29 447.18,-66.29"/>
<ellipse fill="none" stroke="black" cx="444.06" cy="-65.61" rx="3.2" ry="3.2"/>
</g>
<!-- line_to_sign_owner&#45;&gt;line_to_sign -->
<g id="edge7" class="edge">
<title>line_to_sign_owner:w&#45;&gt;line_to_sign:e</title>
<path fill="none" stroke="black" d="M440.75,-114.33C385.55,-135.63 485.45,-296 406.5,-296"/>
<polygon fill="black" stroke="black" points="447.1,-113.29 455.58,-115.55 451.05,-112.64 455,-112 455,-112 455,-112 451.05,-112.64 454.42,-108.45 447.1,-113.29 447.1,-113.29"/>
<ellipse fill="none" stroke="black" cx="443.95" cy="-113.8" rx="3.2" ry="3.2"/>
</g>
<!-- sign_interpretation -->
<g id="node8" class="node">
<title>sign_interpretation</title>
<g id="a_node8"><a xlink:href="../../tables/sign_interpretation.html" xlink:title="sign_interpretation" target="_top">
<polygon fill="#ffffff" stroke="transparent" points="213,-142 213,-200 382,-200 382,-142 213,-142"/>
<polygon fill="#f5f5f5" stroke="transparent" points="213.5,-178 213.5,-200 382.5,-200 382.5,-178 213.5,-178"/>
<polygon fill="none" stroke="black" points="213.5,-178 213.5,-200 382.5,-200 382.5,-178 213.5,-178"/>
<text text-anchor="start" x="218.5" y="-187.2" font-family="Helvetica,sans-Serif" font-weight="bold" font-size="11.00">sign_interpretation</text>
<text text-anchor="start" x="340.5" y="-186.2" font-family="Helvetica,sans-Serif" font-size="11.00">[table]</text>
<polygon fill="none" stroke="black" points="213.5,-160 213.5,-178 382.5,-178 382.5,-160 213.5,-160"/>
<text text-anchor="start" x="216.5" y="-166.2" font-family="Helvetica,sans-Serif" font-size="11.00">...</text>
<polygon fill="#ffffff" stroke="transparent" points="213.5,-142 213.5,-160 252.5,-160 252.5,-142 213.5,-142"/>
<polygon fill="none" stroke="black" points="213.5,-142 213.5,-160 252.5,-160 252.5,-142 213.5,-142"/>
<text text-anchor="start" x="216.5" y="-148.2" font-family="Helvetica,sans-Serif" font-size="11.00">&lt; 1</text>
<polygon fill="#ffffff" stroke="transparent" points="252.5,-142 252.5,-160 349.5,-160 349.5,-142 252.5,-142"/>
<polygon fill="none" stroke="black" points="252.5,-142 252.5,-160 349.5,-160 349.5,-142 252.5,-142"/>
<text text-anchor="start" x="261.5" y="-148.2" font-family="Helvetica,sans-Serif" font-size="11.00">1,189,027 rows</text>
<polygon fill="#ffffff" stroke="transparent" points="349.5,-142 349.5,-160 382.5,-160 382.5,-142 349.5,-142"/>
<polygon fill="none" stroke="black" points="349.5,-142 349.5,-160 382.5,-160 382.5,-142 349.5,-142"/>
<text text-anchor="start" x="359.5" y="-148.2" font-family="Helvetica,sans-Serif" font-size="11.00">5 &gt;</text>
</a>
</g>
</g>
<!-- sign_interpretation&#45;&gt;sign -->
<g id="edge8" class="edge">
<title>sign_interpretation:w&#45;&gt;sign:e</title>
<path fill="none" stroke="black" d="M198.27,-171.85C173.93,-182.86 174.65,-222 140.5,-222"/>
<polygon fill="black" stroke="black" points="204.66,-170.57 213.21,-172.53 208.58,-169.79 212.5,-169 212.5,-169 212.5,-169 208.58,-169.79 211.79,-165.47 204.66,-170.57 204.66,-170.57"/>
<ellipse fill="none" stroke="black" cx="201.52" cy="-171.2" rx="3.2" ry="3.2"/>
</g>
<!-- text_fragment_to_line -->
<g id="node9" class="node">
<title>text_fragment_to_line</title>
<g id="a_node9"><a xlink:href="../../tables/text_fragment_to_line.html" xlink:title="text_fragment_to_line" target="_top">
<polygon fill="#ffffff" stroke="transparent" points="205.5,-352 205.5,-410 389.5,-410 389.5,-352 205.5,-352"/>
<polygon fill="#f5f5f5" stroke="transparent" points="205.5,-388 205.5,-410 389.5,-410 389.5,-388 205.5,-388"/>
<polygon fill="none" stroke="black" points="205.5,-388 205.5,-410 389.5,-410 389.5,-388 205.5,-388"/>
<text text-anchor="start" x="210.5" y="-397.2" font-family="Helvetica,sans-Serif" font-weight="bold" font-size="11.00">text_fragment_to_line</text>
<text text-anchor="start" x="347.5" y="-396.2" font-family="Helvetica,sans-Serif" font-size="11.00">[table]</text>
<polygon fill="none" stroke="black" points="205.5,-370 205.5,-388 389.5,-388 389.5,-370 205.5,-370"/>
<text text-anchor="start" x="208.5" y="-376.2" font-family="Helvetica,sans-Serif" font-size="11.00">...</text>
<polygon fill="#ffffff" stroke="transparent" points="205.5,-352 205.5,-370 260.5,-370 260.5,-352 205.5,-352"/>
<polygon fill="none" stroke="black" points="205.5,-352 205.5,-370 260.5,-370 260.5,-352 205.5,-352"/>
<text text-anchor="start" x="208.5" y="-358.2" font-family="Helvetica,sans-Serif" font-size="11.00">&lt; 2</text>
<polygon fill="#ffffff" stroke="transparent" points="260.5,-352 260.5,-370 348.5,-370 348.5,-352 260.5,-352"/>
<polygon fill="none" stroke="black" points="260.5,-352 260.5,-370 348.5,-370 348.5,-352 260.5,-352"/>
<text text-anchor="start" x="277.5" y="-358.2" font-family="Helvetica,sans-Serif" font-size="11.00">53,405 rows</text>
<polygon fill="#ffffff" stroke="transparent" points="348.5,-352 348.5,-370 389.5,-370 389.5,-352 348.5,-352"/>
<polygon fill="none" stroke="black" points="348.5,-352 348.5,-370 389.5,-370 389.5,-352 348.5,-352"/>
<text text-anchor="start" x="366.5" y="-358.2" font-family="Helvetica,sans-Serif" font-size="11.00">1 &gt;</text>
</a>
</g>
</g>
<!-- text_fragment_to_line&#45;&gt;line -->
<g id="edge9" class="edge">
<title>text_fragment_to_line:w&#45;&gt;line:e</title>
<path fill="none" stroke="black" d="M189.98,-379C168.64,-379 158.49,-379 131.5,-379"/>
<polygon fill="black" stroke="black" points="196.5,-379 204.5,-382.6 200.5,-379 204.5,-379 204.5,-379 204.5,-379 200.5,-379 204.5,-375.4 196.5,-379 196.5,-379"/>
<ellipse fill="none" stroke="black" cx="193.3" cy="-379" rx="3.2" ry="3.2"/>
</g>
</g>
</svg>
