<?xml version="1.0" encoding="UTF-8" standalone="no"?>
<!DOCTYPE svg PUBLIC "-//W3C//DTD SVG 1.1//EN"
 "http://www.w3.org/Graphics/SVG/1.1/DTD/svg11.dtd">
<!-- Generated by graphviz version 2.40.1 (20161225.0304)
 -->
<!-- Title: oneDegreeRelationshipsDiagram Pages: 1 -->
<svg width="624pt" height="380pt"
 viewBox="0.00 0.00 624.00 380.00" xmlns="http://www.w3.org/2000/svg" xmlns:xlink="http://www.w3.org/1999/xlink">
<g id="graph0" class="graph" transform="scale(1 1) rotate(0) translate(4 376)">
<title>oneDegreeRelationshipsDiagram</title>
<polygon fill="#ffffff" stroke="transparent" points="-4,4 -4,-376 620,-376 620,4 -4,4"/>
<text text-anchor="middle" x="71.5" y="-7.2" font-family="Helvetica,sans-Serif" font-size="11.00" fill="#000000">Generated by SchemaSpy</text>
<!-- edition_editor -->
<g id="node1" class="node">
<title>edition_editor</title>
<g id="a_node1"><a xlink:href="../../tables/edition_editor.html" xlink:title="edition_editor" target="_top">
<polygon fill="#ffffff" stroke="transparent" points="192,-95 192,-219 325,-219 325,-95 192,-95"/>
<polygon fill="#f5f5f5" stroke="transparent" points="192.5,-197 192.5,-219 325.5,-219 325.5,-197 192.5,-197"/>
<polygon fill="none" stroke="#000000" points="192.5,-197 192.5,-219 325.5,-219 325.5,-197 192.5,-197"/>
<text text-anchor="start" x="197.5" y="-206.2" font-family="Helvetica,sans-Serif" font-weight="bold" font-size="11.00" fill="#000000">edition_editor</text>
<text text-anchor="start" x="290.5" y="-205.2" font-family="Helvetica,sans-Serif" font-size="11.00" fill="#000000">[table]</text>
<polygon fill="none" stroke="#000000" points="192.5,-175 192.5,-197 325.5,-197 325.5,-175 192.5,-175"/>
<image xlink:href="../../images/primaryKeys.png" width="11px" height="12px" preserveAspectRatio="xMinYMin meet" x="197.5" y="-192"/>
<text text-anchor="start" x="212.5" y="-183.2" font-family="Helvetica,sans-Serif" font-size="11.00" fill="#000000">edition_editor_id</text>
<polygon fill="#ffffff" stroke="transparent" points="192.5,-153 192.5,-175 325.5,-175 325.5,-153 192.5,-153"/>
<polygon fill="none" stroke="#000000" points="192.5,-153 192.5,-175 325.5,-175 325.5,-153 192.5,-153"/>
<image xlink:href="../../images/foreignKeys.png" width="11px" height="12px" preserveAspectRatio="xMinYMin meet" x="197.5" y="-170"/>
<text text-anchor="start" x="212.5" y="-161.2" font-family="Helvetica,sans-Serif" font-size="11.00" fill="#000000">user_id</text>
<polygon fill="#ffffff" stroke="transparent" points="192.5,-131 192.5,-153 325.5,-153 325.5,-131 192.5,-131"/>
<polygon fill="none" stroke="#000000" points="192.5,-131 192.5,-153 325.5,-153 325.5,-131 192.5,-131"/>
<image xlink:href="../../images/foreignKeys.png" width="11px" height="12px" preserveAspectRatio="xMinYMin meet" x="197.5" y="-148"/>
<text text-anchor="start" x="212.5" y="-139.2" font-family="Helvetica,sans-Serif" font-size="11.00" fill="#000000">edition_id</text>
<polygon fill="none" stroke="#000000" points="192.5,-113 192.5,-131 325.5,-131 325.5,-113 192.5,-113"/>
<text text-anchor="start" x="195.5" y="-119.2" font-family="Helvetica,sans-Serif" font-size="11.00" fill="#000000">...</text>
<polygon fill="#ffffff" stroke="transparent" points="192.5,-95 192.5,-113 225.5,-113 225.5,-95 192.5,-95"/>
<polygon fill="none" stroke="#000000" points="192.5,-95 192.5,-113 225.5,-113 225.5,-95 192.5,-95"/>
<text text-anchor="start" x="195.5" y="-101.2" font-family="Helvetica,sans-Serif" font-size="11.00" fill="#000000">&lt; 2</text>
<polygon fill="#ffffff" stroke="transparent" points="225.5,-95 225.5,-113 291.5,-113 291.5,-95 225.5,-95"/>
<polygon fill="none" stroke="#000000" points="225.5,-95 225.5,-113 291.5,-113 291.5,-95 225.5,-95"/>
<text text-anchor="start" x="234.5" y="-101.2" font-family="Helvetica,sans-Serif" font-size="11.00" fill="#000000">1,645 rows</text>
<polygon fill="#ffffff" stroke="transparent" points="291.5,-95 291.5,-113 325.5,-113 325.5,-95 291.5,-95"/>
<polygon fill="none" stroke="#000000" points="291.5,-95 291.5,-113 325.5,-113 325.5,-95 291.5,-95"/>
<text text-anchor="start" x="300.5" y="-101.2" font-family="Helvetica,sans-Serif" font-size="11.00" fill="#000000">30 &gt;</text>
</a>
</g>
</g>
<!-- edition -->
<g id="node2" class="node">
<title>edition</title>
<g id="a_node2"><a xlink:href="../../tables/edition.html" xlink:title="edition" target="_top">
<polygon fill="#ffffff" stroke="transparent" points="8,-37 8,-139 143,-139 143,-37 8,-37"/>
<polygon fill="#f5f5f5" stroke="transparent" points="8.5,-117 8.5,-139 143.5,-139 143.5,-117 8.5,-117"/>
<polygon fill="none" stroke="#000000" points="8.5,-117 8.5,-139 143.5,-139 143.5,-117 8.5,-117"/>
<text text-anchor="start" x="13.5" y="-126.2" font-family="Helvetica,sans-Serif" font-weight="bold" font-size="11.00" fill="#000000">edition</text>
<text text-anchor="start" x="108.5" y="-125.2" font-family="Helvetica,sans-Serif" font-size="11.00" fill="#000000">[table]</text>
<polygon fill="none" stroke="#000000" points="8.5,-95 8.5,-117 143.5,-117 143.5,-95 8.5,-95"/>
<image xlink:href="../../images/primaryKeys.png" width="11px" height="12px" preserveAspectRatio="xMinYMin meet" x="13.5" y="-112"/>
<text text-anchor="start" x="28.5" y="-103.2" font-family="Helvetica,sans-Serif" font-size="11.00" fill="#000000">edition_id</text>
<polygon fill="#ffffff" stroke="transparent" points="8.5,-73 8.5,-95 143.5,-95 143.5,-73 8.5,-73"/>
<polygon fill="none" stroke="#000000" points="8.5,-73 8.5,-95 143.5,-95 143.5,-73 8.5,-73"/>
<image xlink:href="../../images/foreignKeys.png" width="11px" height="12px" preserveAspectRatio="xMinYMin meet" x="13.5" y="-90"/>
<text text-anchor="start" x="28.5" y="-81.2" font-family="Helvetica,sans-Serif" font-size="11.00" fill="#000000">manuscript_id</text>
<polygon fill="none" stroke="#000000" points="8.5,-55 8.5,-73 143.5,-73 143.5,-55 8.5,-55"/>
<text text-anchor="start" x="11.5" y="-61.2" font-family="Helvetica,sans-Serif" font-size="11.00" fill="#000000">...</text>
<polygon fill="#ffffff" stroke="transparent" points="8.5,-37 8.5,-55 42.5,-55 42.5,-37 8.5,-37"/>
<polygon fill="none" stroke="#000000" points="8.5,-37 8.5,-55 42.5,-55 42.5,-37 8.5,-37"/>
<text text-anchor="start" x="11.5" y="-43.2" font-family="Helvetica,sans-Serif" font-size="11.00" fill="#000000">&lt; 1</text>
<polygon fill="#ffffff" stroke="transparent" points="42.5,-37 42.5,-55 108.5,-55 108.5,-37 42.5,-37"/>
<polygon fill="none" stroke="#000000" points="42.5,-37 42.5,-55 108.5,-55 108.5,-37 42.5,-37"/>
<text text-anchor="start" x="51.5" y="-43.2" font-family="Helvetica,sans-Serif" font-size="11.00" fill="#000000">1,645 rows</text>
<polygon fill="#ffffff" stroke="transparent" points="108.5,-37 108.5,-55 143.5,-55 143.5,-37 108.5,-37"/>
<polygon fill="none" stroke="#000000" points="108.5,-37 108.5,-55 143.5,-55 143.5,-37 108.5,-37"/>
<text text-anchor="start" x="118.5" y="-43.2" font-family="Helvetica,sans-Serif" font-size="11.00" fill="#000000">32 &gt;</text>
</a>
</g>
</g>
<!-- edition_editor&#45;&gt;edition -->
<g id="edge1" class="edge">
<title>edition_editor:w&#45;&gt;edition:e</title>
<path fill="none" stroke="#000000" d="M178.6983,-137.5857C166.1499,-127.9727 164.6121,-106 143.5,-106"/>
<polygon fill="#000000" stroke="#000000" points="184.8802,-139.5629 191.4033,-145.4289 188.6901,-140.7814 192.5,-142 192.5,-142 192.5,-142 188.6901,-140.7814 193.5967,-138.5711 184.8802,-139.5629 184.8802,-139.5629"/>
<ellipse fill="none" stroke="#000000" cx="181.8323" cy="-138.588" rx="3.2" ry="3.2"/>
</g>
<!-- line_to_sign_owner -->
<g id="node3" class="node">
<title>line_to_sign_owner</title>
<g id="a_node3"><a xlink:href="../../tables/line_to_sign_owner.html" xlink:title="line_to_sign_owner" target="_top">
<polygon fill="#ffffff" stroke="transparent" points="374,-133 374,-243 608,-243 608,-133 374,-133"/>
<polygon fill="#f5f5f5" stroke="transparent" points="376,-219 376,-241 606,-241 606,-219 376,-219"/>
<polygon fill="none" stroke="#000000" points="376,-219 376,-241 606,-241 606,-219 376,-219"/>
<text text-anchor="start" x="381" y="-228.2" font-family="Helvetica,sans-Serif" font-weight="bold" font-size="11.00" fill="#000000">line_to_sign_owner</text>
<text text-anchor="start" x="571" y="-227.2" font-family="Helvetica,sans-Serif" font-size="11.00" fill="#000000">[table]</text>
<polygon fill="none" stroke="#000000" points="376,-197 376,-219 524,-219 524,-197 376,-197"/>
<image xlink:href="../../images/primaryKeys.png" width="11px" height="12px" preserveAspectRatio="xMinYMin meet" x="381" y="-214"/>
<text text-anchor="start" x="396" y="-205.2" font-family="Helvetica,sans-Serif" font-size="11.00" fill="#000000">line_to_sign_id</text>
<polygon fill="none" stroke="#000000" points="524,-197 524,-219 606,-219 606,-197 524,-197"/>
<text text-anchor="start" x="527" y="-205.2" font-family="Helvetica,sans-Serif" font-size="11.00" fill="#000000">int unsigned[10]</text>
<polygon fill="#ffffff" stroke="transparent" points="376,-175 376,-197 524,-197 524,-175 376,-175"/>
<polygon fill="none" stroke="#000000" points="376,-175 376,-197 524,-197 524,-175 376,-175"/>
<image xlink:href="../../images/foreignKeys.png" width="11px" height="12px" preserveAspectRatio="xMinYMin meet" x="381" y="-192"/>
<text text-anchor="start" x="396" y="-183.2" font-family="Helvetica,sans-Serif" font-size="11.00" fill="#000000">edition_editor_id</text>
<polygon fill="none" stroke="#000000" points="524,-175 524,-197 606,-197 606,-175 524,-175"/>
<text text-anchor="start" x="527" y="-183.2" font-family="Helvetica,sans-Serif" font-size="11.00" fill="#000000">int unsigned[10]</text>
<polygon fill="none" stroke="#000000" points="376,-153 376,-175 524,-175 524,-153 376,-153"/>
<image xlink:href="../../images/primaryKeys.png" width="11px" height="12px" preserveAspectRatio="xMinYMin meet" x="381" y="-170"/>
<text text-anchor="start" x="396" y="-161.2" font-family="Helvetica,sans-Serif" font-size="11.00" fill="#000000">edition_id</text>
<polygon fill="none" stroke="#000000" points="524,-153 524,-175 606,-175 606,-153 524,-153"/>
<text text-anchor="start" x="527" y="-161.2" font-family="Helvetica,sans-Serif" font-size="11.00" fill="#000000">int unsigned[10]</text>
<polygon fill="#ffffff" stroke="transparent" points="376,-135 376,-153 420,-153 420,-135 376,-135"/>
<polygon fill="none" stroke="#000000" points="376,-135 376,-153 420,-153 420,-135 376,-135"/>
<text text-anchor="start" x="379" y="-141.2" font-family="Helvetica,sans-Serif" font-size="11.00" fill="#000000">&lt; 3</text>
<polygon fill="#ffffff" stroke="transparent" points="420,-135 420,-153 524,-153 524,-135 420,-135"/>
<polygon fill="none" stroke="#000000" points="420,-135 420,-153 524,-153 524,-135 420,-135"/>
<text text-anchor="start" x="446" y="-141.2" font-family="Helvetica,sans-Serif" font-size="11.00" fill="#000000">1,730,550 rows</text>
<polygon fill="#ffffff" stroke="transparent" points="524,-135 524,-153 606,-153 606,-135 524,-135"/>
<polygon fill="none" stroke="#000000" points="524,-135 524,-153 606,-153 606,-135 524,-135"/>
<text text-anchor="start" x="587" y="-141.2" font-family="Helvetica,sans-Serif" font-size="11.00" fill="#000000">0 &gt;</text>
<polygon fill="none" stroke="#000000" stroke-width="2" points="375,-134 375,-242 607,-242 607,-134 375,-134"/>
</a>
</g>
</g>
<!-- line_to_sign_owner&#45;&gt;edition_editor -->
<g id="edge2" class="edge">
<title>line_to_sign_owner:w&#45;&gt;edition_editor:e</title>
<path fill="none" stroke="#000000" d="M361.4203,-186C349.5435,-186 342.158,-186 325.5,-186"/>
<polygon fill="#000000" stroke="#000000" points="368,-186.0001 376,-189.6 372,-186 376,-186 376,-186 376,-186 372,-186 376,-182.4 368,-186.0001 368,-186.0001"/>
<ellipse fill="none" stroke="#000000" cx="364.8" cy="-186.0001" rx="3.2" ry="3.2"/>
</g>
<!-- line_to_sign_owner&#45;&gt;edition -->
<g id="edge3" class="edge">
<title>line_to_sign_owner:w&#45;&gt;edition:e</title>
<path fill="none" stroke="#000000" d="M362.0993,-160.218C343.8408,-146.831 362.369,-101.5568 333,-84 276.1598,-50.0209 248.183,-67.6929 184,-84 164.1465,-89.0442 163.9843,-106 143.5,-106"/>
<polygon fill="#000000" stroke="#000000" points="368.2806,-161.8998 375.0549,-167.4737 372.1403,-162.9499 376,-164 376,-164 376,-164 372.1403,-162.9499 376.9451,-160.5263 368.2806,-161.8998 368.2806,-161.8998"/>
<ellipse fill="none" stroke="#000000" cx="365.1928" cy="-161.0597" rx="3.2" ry="3.2"/>
</g>
<!-- line_to_sign -->
<g id="node4" class="node">
<title>line_to_sign</title>
<g id="a_node4"><a xlink:href="../../tables/line_to_sign.html" xlink:title="line_to_sign" target="_top">
<polygon fill="#ffffff" stroke="transparent" points="196,-240 196,-368 321,-368 321,-240 196,-240"/>
<polygon fill="#f5f5f5" stroke="transparent" points="196.5,-346 196.5,-368 321.5,-368 321.5,-346 196.5,-346"/>
<polygon fill="none" stroke="#000000" points="196.5,-346 196.5,-368 321.5,-368 321.5,-346 196.5,-346"/>
<text text-anchor="start" x="201.5" y="-355.2" font-family="Helvetica,sans-Serif" font-weight="bold" font-size="11.00" fill="#000000">line_to_sign</text>
<text text-anchor="start" x="286.5" y="-354.2" font-family="Helvetica,sans-Serif" font-size="11.00" fill="#000000">[table]</text>
<polygon fill="none" stroke="#000000" points="196.5,-324 196.5,-346 321.5,-346 321.5,-324 196.5,-324"/>
<image xlink:href="../../images/primaryKeys.png" width="11px" height="12px" preserveAspectRatio="xMinYMin meet" x="201.5" y="-341"/>
<text text-anchor="start" x="220.5" y="-332.2" font-family="Helvetica,sans-Serif" font-size="11.00" fill="#000000">line_to_sign_id</text>
<polygon fill="#ffffff" stroke="transparent" points="196.5,-302 196.5,-324 321.5,-324 321.5,-302 196.5,-302"/>
<polygon fill="none" stroke="#000000" points="196.5,-302 196.5,-324 321.5,-324 321.5,-302 196.5,-302"/>
<image xlink:href="../../images/foreignKeys.png" width="11px" height="12px" preserveAspectRatio="xMinYMin meet" x="201.5" y="-319"/>
<text text-anchor="start" x="220.5" y="-310.2" font-family="Helvetica,sans-Serif" font-size="11.00" fill="#000000">sign_id</text>
<polygon fill="#ffffff" stroke="transparent" points="196.5,-280 196.5,-302 321.5,-302 321.5,-280 196.5,-280"/>
<polygon fill="none" stroke="#000000" points="196.5,-280 196.5,-302 321.5,-302 321.5,-280 196.5,-280"/>
<image xlink:href="../../images/foreignKeys.png" width="11px" height="12px" preserveAspectRatio="xMinYMin meet" x="201.5" y="-297"/>
<text text-anchor="start" x="220.5" y="-288.2" font-family="Helvetica,sans-Serif" font-size="11.00" fill="#000000">line_id</text>
<polygon fill="#ffffff" stroke="transparent" points="196.5,-258 196.5,-280 321.5,-280 321.5,-258 196.5,-258"/>
<polygon fill="none" stroke="#000000" points="196.5,-258 196.5,-280 321.5,-280 321.5,-258 196.5,-258"/>
<image xlink:href="../../images/foreignKeys.png" width="11px" height="12px" preserveAspectRatio="xMinYMin meet" x="201.5" y="-275"/>
<text text-anchor="start" x="220.5" y="-266.2" font-family="Helvetica,sans-Serif" font-size="11.00" fill="#000000">creator_id</text>
<polygon fill="#ffffff" stroke="transparent" points="196.5,-240 196.5,-258 218.5,-258 218.5,-240 196.5,-240"/>
<polygon fill="none" stroke="#000000" points="196.5,-240 196.5,-258 218.5,-258 218.5,-240 196.5,-240"/>
<text text-anchor="start" x="199.5" y="-246.2" font-family="Helvetica,sans-Serif" font-size="11.00" fill="#000000">&lt; 3</text>
<polygon fill="#ffffff" stroke="transparent" points="218.5,-240 218.5,-258 299.5,-258 299.5,-240 218.5,-240"/>
<polygon fill="none" stroke="#000000" points="218.5,-240 218.5,-258 299.5,-258 299.5,-240 218.5,-240"/>
<text text-anchor="start" x="221.5" y="-246.2" font-family="Helvetica,sans-Serif" font-size="11.00" fill="#000000">1,730,080 rows</text>
<polygon fill="#ffffff" stroke="transparent" points="299.5,-240 299.5,-258 321.5,-258 321.5,-240 299.5,-240"/>
<polygon fill="none" stroke="#000000" points="299.5,-240 299.5,-258 321.5,-258 321.5,-240 299.5,-240"/>
<text text-anchor="start" x="302.5" y="-246.2" font-family="Helvetica,sans-Serif" font-size="11.00" fill="#000000">1 &gt;</text>
</a>
</g>
</g>
<!-- line_to_sign_owner&#45;&gt;line_to_sign -->
<g id="edge4" class="edge">
<title>line_to_sign_owner:w&#45;&gt;line_to_sign:e</title>
<path fill="none" stroke="#000000" d="M361.9327,-211.1393C326.2518,-230.6963 377.1639,-335 321.5,-335"/>
<polygon fill="#000000" stroke="#000000" points="368.1921,-209.7425 376.7841,-211.5136 372.096,-208.8713 376,-208 376,-208 376,-208 372.096,-208.8713 375.2159,-204.4864 368.1921,-209.7425 368.1921,-209.7425"/>
<ellipse fill="none" stroke="#000000" cx="365.0689" cy="-210.4395" rx="3.2" ry="3.2"/>
</g>
</g>
</svg>
