<?xml version="1.0" encoding="UTF-8" standalone="no"?>
<!DOCTYPE svg PUBLIC "-//W3C//DTD SVG 1.1//EN"
 "http://www.w3.org/Graphics/SVG/1.1/DTD/svg11.dtd">
<!-- Generated by graphviz version 2.40.1 (20161225.0304)
 -->
<!-- Title: twoDegreesRelationshipsDiagramImplied Pages: 1 -->
<svg width="679pt" height="620pt"
 viewBox="0.00 0.00 679.00 620.00" xmlns="http://www.w3.org/2000/svg" xmlns:xlink="http://www.w3.org/1999/xlink">
<g id="graph0" class="graph" transform="scale(1 1) rotate(0) translate(4 616)">
<title>twoDegreesRelationshipsDiagramImplied</title>
<polygon fill="#ffffff" stroke="transparent" points="-4,4 -4,-616 675,-616 675,4 -4,4"/>
<text text-anchor="middle" x="71.5" y="-7.2" font-family="Helvetica,sans-Serif" font-size="11.00" fill="#000000">Generated by SchemaSpy</text>
<!-- line_data -->
<g id="node1" class="node">
<title>line_data</title>
<g id="a_node1"><a xlink:href="../../tables/line_data.html" xlink:title="line_data" target="_top">
<polygon fill="#ffffff" stroke="transparent" points="269,-186 269,-314 379,-314 379,-186 269,-186"/>
<polygon fill="#f5f5f5" stroke="transparent" points="269,-292 269,-314 379,-314 379,-292 269,-292"/>
<polygon fill="none" stroke="#000000" points="269,-292 269,-314 379,-314 379,-292 269,-292"/>
<text text-anchor="start" x="274" y="-301.2" font-family="Helvetica,sans-Serif" font-weight="bold" font-size="11.00" fill="#000000">line_data</text>
<text text-anchor="start" x="344" y="-300.2" font-family="Helvetica,sans-Serif" font-size="11.00" fill="#000000">[table]</text>
<polygon fill="none" stroke="#000000" points="269,-270 269,-292 379,-292 379,-270 269,-270"/>
<image xlink:href="../../images/primaryKeys.png" width="11px" height="12px" preserveAspectRatio="xMinYMin meet" x="274" y="-287"/>
<text text-anchor="start" x="294" y="-278.2" font-family="Helvetica,sans-Serif" font-size="11.00" fill="#000000">line_data_id</text>
<polygon fill="#ffffff" stroke="transparent" points="269,-248 269,-270 379,-270 379,-248 269,-248"/>
<polygon fill="none" stroke="#000000" points="269,-248 269,-270 379,-270 379,-248 269,-248"/>
<image xlink:href="../../images/foreignKeys.png" width="11px" height="12px" preserveAspectRatio="xMinYMin meet" x="274" y="-265"/>
<text text-anchor="start" x="294" y="-256.2" font-family="Helvetica,sans-Serif" font-size="11.00" fill="#000000">line_id</text>
<polygon fill="#ffffff" stroke="transparent" points="269,-226 269,-248 379,-248 379,-226 269,-226"/>
<polygon fill="none" stroke="#000000" points="269,-226 269,-248 379,-248 379,-226 269,-226"/>
<text text-anchor="start" x="294" y="-234.2" font-family="Helvetica,sans-Serif" font-size="11.00" fill="#000000">name</text>
<polygon fill="#ffffff" stroke="transparent" points="269,-204 269,-226 379,-226 379,-204 269,-204"/>
<polygon fill="none" stroke="#000000" points="269,-204 269,-226 379,-226 379,-204 269,-204"/>
<image xlink:href="../../images/foreignKeys.png" width="11px" height="12px" preserveAspectRatio="xMinYMin meet" x="274" y="-221"/>
<text text-anchor="start" x="294" y="-212.2" font-family="Helvetica,sans-Serif" font-size="11.00" fill="#000000">creator_id</text>
<polygon fill="#ffffff" stroke="transparent" points="269,-186 269,-204 291,-204 291,-186 269,-186"/>
<polygon fill="none" stroke="#000000" points="269,-186 269,-204 291,-204 291,-186 269,-186"/>
<text text-anchor="start" x="272" y="-192.2" font-family="Helvetica,sans-Serif" font-size="11.00" fill="#000000">&lt; 2</text>
<polygon fill="#ffffff" stroke="transparent" points="291,-186 291,-204 357,-204 357,-186 291,-186"/>
<polygon fill="none" stroke="#000000" points="291,-186 291,-204 357,-204 357,-186 291,-186"/>
<text text-anchor="start" x="294" y="-192.2" font-family="Helvetica,sans-Serif" font-size="11.00" fill="#000000">54,784 rows</text>
<polygon fill="#ffffff" stroke="transparent" points="357,-186 357,-204 379,-204 379,-186 357,-186"/>
<polygon fill="none" stroke="#000000" points="357,-186 357,-204 379,-204 379,-186 357,-186"/>
<text text-anchor="start" x="360" y="-192.2" font-family="Helvetica,sans-Serif" font-size="11.00" fill="#000000">1 &gt;</text>
</a>
</g>
</g>
<!-- user -->
<g id="node2" class="node">
<title>user</title>
<g id="a_node2"><a xlink:href="../../tables/user.html" xlink:title="user" target="_top">
<polygon fill="#ffffff" stroke="transparent" points="55,-188 55,-246 135,-246 135,-188 55,-188"/>
<polygon fill="#f5f5f5" stroke="transparent" points="55,-224 55,-246 135,-246 135,-224 55,-224"/>
<polygon fill="none" stroke="#000000" points="55,-224 55,-246 135,-246 135,-224 55,-224"/>
<text text-anchor="start" x="60" y="-233.2" font-family="Helvetica,sans-Serif" font-weight="bold" font-size="11.00" fill="#000000">user</text>
<text text-anchor="start" x="100" y="-232.2" font-family="Helvetica,sans-Serif" font-size="11.00" fill="#000000">[table]</text>
<polygon fill="none" stroke="#000000" points="55,-206 55,-224 135,-224 135,-206 55,-206"/>
<text text-anchor="start" x="58" y="-212.2" font-family="Helvetica,sans-Serif" font-size="11.00" fill="#000000">...</text>
<polygon fill="#ffffff" stroke="transparent" points="55,-188 55,-206 68,-206 68,-188 55,-188"/>
<polygon fill="none" stroke="#000000" points="55,-188 55,-206 68,-206 68,-188 55,-188"/>
<text text-anchor="start" x="58" y="-194.2" font-family="Helvetica,sans-Serif" font-size="11.00" fill="#000000"> &#160;</text>
<polygon fill="#ffffff" stroke="transparent" points="68,-188 68,-206 107,-206 107,-188 68,-188"/>
<polygon fill="none" stroke="#000000" points="68,-188 68,-206 107,-206 107,-188 68,-188"/>
<text text-anchor="start" x="71" y="-194.2" font-family="Helvetica,sans-Serif" font-size="11.00" fill="#000000">3 rows</text>
<polygon fill="#ffffff" stroke="transparent" points="107,-188 107,-206 135,-206 135,-188 107,-188"/>
<polygon fill="none" stroke="#000000" points="107,-188 107,-206 135,-206 135,-188 107,-188"/>
<text text-anchor="start" x="110" y="-194.2" font-family="Helvetica,sans-Serif" font-size="11.00" fill="#000000">40 &gt;</text>
</a>
</g>
</g>
<!-- line_data&#45;&gt;user -->
<g id="edge1" class="edge">
<title>line_data:w&#45;&gt;user:e</title>
<path fill="none" stroke="#000000" d="M254.5788,-215C206.5555,-215 189.4375,-215 135,-215"/>
<polygon fill="#000000" stroke="#000000" points="261,-215.0001 269,-218.6 265,-215 269,-215 269,-215 269,-215 265,-215 269,-211.4 261,-215.0001 261,-215.0001"/>
<ellipse fill="none" stroke="#000000" cx="257.8" cy="-215.0001" rx="3.2" ry="3.2"/>
</g>
<!-- line -->
<g id="node3" class="node">
<title>line</title>
<g id="a_node3"><a xlink:href="../../tables/line.html" xlink:title="line" target="_top">
<polygon fill="#ffffff" stroke="transparent" points="8,-281 8,-347 182,-347 182,-281 8,-281"/>
<polygon fill="#f5f5f5" stroke="transparent" points="10,-323 10,-345 180,-345 180,-323 10,-323"/>
<polygon fill="none" stroke="#000000" points="10,-323 10,-345 180,-345 180,-323 10,-323"/>
<text text-anchor="start" x="15" y="-332.2" font-family="Helvetica,sans-Serif" font-weight="bold" font-size="11.00" fill="#000000">line</text>
<text text-anchor="start" x="145" y="-331.2" font-family="Helvetica,sans-Serif" font-size="11.00" fill="#000000">[table]</text>
<polygon fill="none" stroke="#000000" points="10,-301 10,-323 98,-323 98,-301 10,-301"/>
<image xlink:href="../../images/primaryKeys.png" width="11px" height="12px" preserveAspectRatio="xMinYMin meet" x="15" y="-318"/>
<text text-anchor="start" x="42" y="-309.2" font-family="Helvetica,sans-Serif" font-size="11.00" fill="#000000">line_id</text>
<polygon fill="none" stroke="#000000" points="98,-301 98,-323 180,-323 180,-301 98,-301"/>
<text text-anchor="start" x="101" y="-309.2" font-family="Helvetica,sans-Serif" font-size="11.00" fill="#000000">int unsigned[10]</text>
<polygon fill="#ffffff" stroke="transparent" points="10,-283 10,-301 32,-301 32,-283 10,-283"/>
<polygon fill="none" stroke="#000000" points="10,-283 10,-301 32,-301 32,-283 10,-283"/>
<text text-anchor="start" x="13" y="-289.2" font-family="Helvetica,sans-Serif" font-size="11.00" fill="#000000">&lt; 0</text>
<polygon fill="#ffffff" stroke="transparent" points="32,-283 32,-301 98,-301 98,-283 32,-283"/>
<polygon fill="none" stroke="#000000" points="32,-283 32,-301 98,-301 98,-283 32,-283"/>
<text text-anchor="start" x="35" y="-289.2" font-family="Helvetica,sans-Serif" font-size="11.00" fill="#000000">55,350 rows</text>
<polygon fill="#ffffff" stroke="transparent" points="98,-283 98,-301 180,-301 180,-283 98,-283"/>
<polygon fill="none" stroke="#000000" points="98,-283 98,-301 180,-301 180,-283 98,-283"/>
<text text-anchor="start" x="161" y="-289.2" font-family="Helvetica,sans-Serif" font-size="11.00" fill="#000000">4 &gt;</text>
<polygon fill="none" stroke="#000000" stroke-width="2" points="9,-282 9,-346 181,-346 181,-282 9,-282"/>
</a>
</g>
</g>
<!-- line_data&#45;&gt;line -->
<g id="edge2" class="edge">
<title>line_data:w&#45;&gt;line:e</title>
<path fill="none" stroke="#000000" d="M254.6801,-261.0129C223.0084,-270.694 220.643,-312 180,-312"/>
<polygon fill="#000000" stroke="#000000" points="261.0779,-260.1137 269.5011,-262.565 265.0389,-259.5568 269,-259 269,-259 269,-259 265.0389,-259.5568 268.4989,-255.435 261.0779,-260.1137 261.0779,-260.1137"/>
<ellipse fill="none" stroke="#000000" cx="257.909" cy="-260.5591" rx="3.2" ry="3.2"/>
</g>
<!-- line_data_owner -->
<g id="node4" class="node">
<title>line_data_owner</title>
<g id="a_node4"><a xlink:href="../../tables/line_data_owner.html" xlink:title="line_data_owner" target="_top">
<polygon fill="#ffffff" stroke="transparent" points="499.5,-254 499.5,-312 629.5,-312 629.5,-254 499.5,-254"/>
<polygon fill="#f5f5f5" stroke="transparent" points="499.5,-290 499.5,-312 629.5,-312 629.5,-290 499.5,-290"/>
<polygon fill="none" stroke="#000000" points="499.5,-290 499.5,-312 629.5,-312 629.5,-290 499.5,-290"/>
<text text-anchor="start" x="504.5" y="-299.2" font-family="Helvetica,sans-Serif" font-weight="bold" font-size="11.00" fill="#000000">line_data_owner</text>
<text text-anchor="start" x="594.5" y="-298.2" font-family="Helvetica,sans-Serif" font-size="11.00" fill="#000000">[table]</text>
<polygon fill="none" stroke="#000000" points="499.5,-272 499.5,-290 629.5,-290 629.5,-272 499.5,-272"/>
<text text-anchor="start" x="502.5" y="-278.2" font-family="Helvetica,sans-Serif" font-size="11.00" fill="#000000">...</text>
<polygon fill="#ffffff" stroke="transparent" points="499.5,-254 499.5,-272 535.5,-272 535.5,-254 499.5,-254"/>
<polygon fill="none" stroke="#000000" points="499.5,-254 499.5,-272 535.5,-272 535.5,-254 499.5,-254"/>
<text text-anchor="start" x="502.5" y="-260.2" font-family="Helvetica,sans-Serif" font-size="11.00" fill="#000000">&lt; 3</text>
<polygon fill="#ffffff" stroke="transparent" points="535.5,-254 535.5,-272 608.5,-272 608.5,-254 535.5,-254"/>
<polygon fill="none" stroke="#000000" points="535.5,-254 535.5,-272 608.5,-272 608.5,-254 535.5,-254"/>
<text text-anchor="start" x="545.5" y="-260.2" font-family="Helvetica,sans-Serif" font-size="11.00" fill="#000000">54,780 rows</text>
<polygon fill="#ffffff" stroke="transparent" points="608.5,-254 608.5,-272 629.5,-272 629.5,-254 608.5,-254"/>
<polygon fill="none" stroke="#000000" points="608.5,-254 608.5,-272 629.5,-272 629.5,-254 608.5,-254"/>
<text text-anchor="start" x="619.5" y="-260.2" font-family="Helvetica,sans-Serif" font-size="11.00" fill="#000000"> &#160;</text>
</a>
</g>
</g>
<!-- line_data_owner&#45;&gt;line_data -->
<g id="edge3" class="edge">
<title>line_data_owner:w&#45;&gt;line_data:e</title>
<path fill="none" stroke="#000000" d="M484.8843,-281C442.9464,-281 427.3255,-281 379,-281"/>
<polygon fill="#000000" stroke="#000000" points="491.5,-281.0001 499.5,-284.6 495.5,-281 499.5,-281 499.5,-281 499.5,-281 495.5,-281 499.5,-277.4 491.5,-281.0001 491.5,-281.0001"/>
<ellipse fill="none" stroke="#000000" cx="488.3" cy="-281.0001" rx="3.2" ry="3.2"/>
</g>
<!-- line_to_sign -->
<g id="node5" class="node">
<title>line_to_sign</title>
<g id="a_node5"><a xlink:href="../../tables/line_to_sign.html" xlink:title="line_to_sign" target="_top">
<polygon fill="#ffffff" stroke="transparent" points="261.5,-335 261.5,-463 386.5,-463 386.5,-335 261.5,-335"/>
<polygon fill="#f5f5f5" stroke="transparent" points="262,-441 262,-463 387,-463 387,-441 262,-441"/>
<polygon fill="none" stroke="#000000" points="262,-441 262,-463 387,-463 387,-441 262,-441"/>
<text text-anchor="start" x="267" y="-450.2" font-family="Helvetica,sans-Serif" font-weight="bold" font-size="11.00" fill="#000000">line_to_sign</text>
<text text-anchor="start" x="352" y="-449.2" font-family="Helvetica,sans-Serif" font-size="11.00" fill="#000000">[table]</text>
<polygon fill="none" stroke="#000000" points="262,-419 262,-441 387,-441 387,-419 262,-419"/>
<image xlink:href="../../images/primaryKeys.png" width="11px" height="12px" preserveAspectRatio="xMinYMin meet" x="267" y="-436"/>
<text text-anchor="start" x="286" y="-427.2" font-family="Helvetica,sans-Serif" font-size="11.00" fill="#000000">line_to_sign_id</text>
<polygon fill="#ffffff" stroke="transparent" points="262,-397 262,-419 387,-419 387,-397 262,-397"/>
<polygon fill="none" stroke="#000000" points="262,-397 262,-419 387,-419 387,-397 262,-397"/>
<image xlink:href="../../images/foreignKeys.png" width="11px" height="12px" preserveAspectRatio="xMinYMin meet" x="267" y="-414"/>
<text text-anchor="start" x="286" y="-405.2" font-family="Helvetica,sans-Serif" font-size="11.00" fill="#000000">sign_id</text>
<polygon fill="#ffffff" stroke="transparent" points="262,-375 262,-397 387,-397 387,-375 262,-375"/>
<polygon fill="none" stroke="#000000" points="262,-375 262,-397 387,-397 387,-375 262,-375"/>
<image xlink:href="../../images/foreignKeys.png" width="11px" height="12px" preserveAspectRatio="xMinYMin meet" x="267" y="-392"/>
<text text-anchor="start" x="286" y="-383.2" font-family="Helvetica,sans-Serif" font-size="11.00" fill="#000000">line_id</text>
<polygon fill="#ffffff" stroke="transparent" points="262,-353 262,-375 387,-375 387,-353 262,-353"/>
<polygon fill="none" stroke="#000000" points="262,-353 262,-375 387,-375 387,-353 262,-353"/>
<image xlink:href="../../images/foreignKeys.png" width="11px" height="12px" preserveAspectRatio="xMinYMin meet" x="267" y="-370"/>
<text text-anchor="start" x="286" y="-361.2" font-family="Helvetica,sans-Serif" font-size="11.00" fill="#000000">creator_id</text>
<polygon fill="#ffffff" stroke="transparent" points="262,-335 262,-353 284,-353 284,-335 262,-335"/>
<polygon fill="none" stroke="#000000" points="262,-335 262,-353 284,-353 284,-335 262,-335"/>
<text text-anchor="start" x="265" y="-341.2" font-family="Helvetica,sans-Serif" font-size="11.00" fill="#000000">&lt; 3</text>
<polygon fill="#ffffff" stroke="transparent" points="284,-335 284,-353 365,-353 365,-335 284,-335"/>
<polygon fill="none" stroke="#000000" points="284,-335 284,-353 365,-353 365,-335 284,-335"/>
<text text-anchor="start" x="287" y="-341.2" font-family="Helvetica,sans-Serif" font-size="11.00" fill="#000000">1,730,080 rows</text>
<polygon fill="#ffffff" stroke="transparent" points="365,-335 365,-353 387,-353 387,-335 365,-335"/>
<polygon fill="none" stroke="#000000" points="365,-335 365,-353 387,-353 387,-335 365,-335"/>
<text text-anchor="start" x="368" y="-341.2" font-family="Helvetica,sans-Serif" font-size="11.00" fill="#000000">1 &gt;</text>
</a>
</g>
</g>
<!-- line_to_sign&#45;&gt;user -->
<g id="edge4" class="edge">
<title>line_to_sign:w&#45;&gt;user:e</title>
<path fill="none" stroke="#000000" d="M247.6094,-362.4275C180.1898,-346.5033 216.7452,-215 135,-215"/>
<polygon fill="#000000" stroke="#000000" points="254.0473,-363.1309 261.6089,-367.5787 258.0237,-363.5655 262,-364 262,-364 262,-364 258.0237,-363.5655 262.3911,-360.4213 254.0473,-363.1309 254.0473,-363.1309"/>
<ellipse fill="none" stroke="#000000" cx="250.8663" cy="-362.7833" rx="3.2" ry="3.2"/>
</g>
<!-- line_to_sign&#45;&gt;line -->
<g id="edge5" class="edge">
<title>line_to_sign:w&#45;&gt;line:e</title>
<path fill="none" stroke="#000000" d="M247.6399,-383.3663C215.7379,-370.184 223.5295,-312 180,-312"/>
<polygon fill="#000000" stroke="#000000" points="254.1312,-384.5568 261.3506,-389.5409 258.0656,-385.2784 262,-386 262,-386 262,-386 258.0656,-385.2784 262.6494,-382.4591 254.1312,-384.5568 254.1312,-384.5568"/>
<ellipse fill="none" stroke="#000000" cx="250.9837" cy="-383.9795" rx="3.2" ry="3.2"/>
</g>
<!-- sign -->
<g id="node6" class="node">
<title>sign</title>
<g id="a_node6"><a xlink:href="../../tables/sign.html" xlink:title="sign" target="_top">
<polygon fill="#ffffff" stroke="transparent" points="37,-381 37,-439 153,-439 153,-381 37,-381"/>
<polygon fill="#f5f5f5" stroke="transparent" points="37,-417 37,-439 153,-439 153,-417 37,-417"/>
<polygon fill="none" stroke="#000000" points="37,-417 37,-439 153,-439 153,-417 37,-417"/>
<text text-anchor="start" x="42" y="-426.2" font-family="Helvetica,sans-Serif" font-weight="bold" font-size="11.00" fill="#000000">sign</text>
<text text-anchor="start" x="118" y="-425.2" font-family="Helvetica,sans-Serif" font-size="11.00" fill="#000000">[table]</text>
<polygon fill="none" stroke="#000000" points="37,-399 37,-417 153,-417 153,-399 37,-399"/>
<text text-anchor="start" x="40" y="-405.2" font-family="Helvetica,sans-Serif" font-size="11.00" fill="#000000">...</text>
<polygon fill="#ffffff" stroke="transparent" points="37,-381 37,-399 50,-399 50,-381 37,-381"/>
<polygon fill="none" stroke="#000000" points="37,-381 37,-399 50,-399 50,-381 37,-381"/>
<text text-anchor="start" x="40" y="-387.2" font-family="Helvetica,sans-Serif" font-size="11.00" fill="#000000"> &#160;</text>
<polygon fill="#ffffff" stroke="transparent" points="50,-381 50,-399 131,-399 131,-381 50,-381"/>
<polygon fill="none" stroke="#000000" points="50,-381 50,-399 131,-399 131,-381 50,-381"/>
<text text-anchor="start" x="53" y="-387.2" font-family="Helvetica,sans-Serif" font-size="11.00" fill="#000000">1,732,050 rows</text>
<polygon fill="#ffffff" stroke="transparent" points="131,-381 131,-399 153,-399 153,-381 131,-381"/>
<polygon fill="none" stroke="#000000" points="131,-381 131,-399 153,-399 153,-381 131,-381"/>
<text text-anchor="start" x="134" y="-387.2" font-family="Helvetica,sans-Serif" font-size="11.00" fill="#000000">2 &gt;</text>
</a>
</g>
</g>
<!-- line_to_sign&#45;&gt;sign -->
<g id="edge6" class="edge">
<title>line_to_sign:w&#45;&gt;sign:e</title>
<path fill="none" stroke="#000000" d="M247.313,-408C210.4716,-408 196.1458,-408 153,-408"/>
<polygon fill="#000000" stroke="#000000" points="254,-408.0001 262,-411.6 258,-408 262,-408 262,-408 262,-408 258,-408 262,-404.4 254,-408.0001 254,-408.0001"/>
<ellipse fill="none" stroke="#000000" cx="250.8" cy="-408.0001" rx="3.2" ry="3.2"/>
</g>
<!-- line_to_sign_owner -->
<g id="node7" class="node">
<title>line_to_sign_owner</title>
<g id="a_node7"><a xlink:href="../../tables/line_to_sign_owner.html" xlink:title="line_to_sign_owner" target="_top">
<polygon fill="#ffffff" stroke="transparent" points="491,-403 491,-461 638,-461 638,-403 491,-403"/>
<polygon fill="#f5f5f5" stroke="transparent" points="491.5,-439 491.5,-461 638.5,-461 638.5,-439 491.5,-439"/>
<polygon fill="none" stroke="#000000" points="491.5,-439 491.5,-461 638.5,-461 638.5,-439 491.5,-439"/>
<text text-anchor="start" x="496.5" y="-448.2" font-family="Helvetica,sans-Serif" font-weight="bold" font-size="11.00" fill="#000000">line_to_sign_owner</text>
<text text-anchor="start" x="603.5" y="-447.2" font-family="Helvetica,sans-Serif" font-size="11.00" fill="#000000">[table]</text>
<polygon fill="none" stroke="#000000" points="491.5,-421 491.5,-439 638.5,-439 638.5,-421 491.5,-421"/>
<text text-anchor="start" x="494.5" y="-427.2" font-family="Helvetica,sans-Serif" font-size="11.00" fill="#000000">...</text>
<polygon fill="#ffffff" stroke="transparent" points="491.5,-403 491.5,-421 528.5,-421 528.5,-403 491.5,-403"/>
<polygon fill="none" stroke="#000000" points="491.5,-403 491.5,-421 528.5,-421 528.5,-403 491.5,-403"/>
<text text-anchor="start" x="494.5" y="-409.2" font-family="Helvetica,sans-Serif" font-size="11.00" fill="#000000">&lt; 3</text>
<polygon fill="#ffffff" stroke="transparent" points="528.5,-403 528.5,-421 617.5,-421 617.5,-403 528.5,-403"/>
<polygon fill="none" stroke="#000000" points="528.5,-403 528.5,-421 617.5,-421 617.5,-403 528.5,-403"/>
<text text-anchor="start" x="539.5" y="-409.2" font-family="Helvetica,sans-Serif" font-size="11.00" fill="#000000">1,730,550 rows</text>
<polygon fill="#ffffff" stroke="transparent" points="617.5,-403 617.5,-421 638.5,-421 638.5,-403 617.5,-403"/>
<polygon fill="none" stroke="#000000" points="617.5,-403 617.5,-421 638.5,-421 638.5,-403 617.5,-403"/>
<text text-anchor="start" x="628.5" y="-409.2" font-family="Helvetica,sans-Serif" font-size="11.00" fill="#000000"> &#160;</text>
</a>
</g>
</g>
<!-- line_to_sign_owner&#45;&gt;line_to_sign -->
<g id="edge7" class="edge">
<title>line_to_sign_owner:w&#45;&gt;line_to_sign:e</title>
<path fill="none" stroke="#000000" d="M476.9559,-430C441.9779,-430 428.1832,-430 387,-430"/>
<polygon fill="#000000" stroke="#000000" points="483.5,-430.0001 491.5,-433.6 487.5,-430 491.5,-430 491.5,-430 491.5,-430 487.5,-430 491.5,-426.4 483.5,-430.0001 483.5,-430.0001"/>
<ellipse fill="none" stroke="#000000" cx="480.3" cy="-430.0001" rx="3.2" ry="3.2"/>
</g>
<!-- qwb_ref -->
<g id="node8" class="node">
<title>qwb_ref</title>
<g id="a_node8"><a xlink:href="../../tables/qwb_ref.html" xlink:title="qwb_ref" target="_top">
<polygon fill="#ffffff" stroke="transparent" points="243.5,-484 243.5,-608 404.5,-608 404.5,-484 243.5,-484"/>
<polygon fill="#f5f5f5" stroke="transparent" points="244,-586 244,-608 405,-608 405,-586 244,-586"/>
<polygon fill="none" stroke="#000000" points="244,-586 244,-608 405,-608 405,-586 244,-586"/>
<text text-anchor="start" x="249" y="-595.2" font-family="Helvetica,sans-Serif" font-weight="bold" font-size="11.00" fill="#000000">qwb_ref</text>
<text text-anchor="start" x="370" y="-594.2" font-family="Helvetica,sans-Serif" font-size="11.00" fill="#000000">[table]</text>
<polygon fill="none" stroke="#000000" points="244,-564 244,-586 405,-586 405,-564 244,-564"/>
<image xlink:href="../../images/primaryKeys.png" width="11px" height="12px" preserveAspectRatio="xMinYMin meet" x="249" y="-581"/>
<text text-anchor="start" x="264" y="-572.2" font-family="Helvetica,sans-Serif" font-size="11.00" fill="#000000">qwb_ref_id</text>
<polygon fill="none" stroke="#000000" points="244,-542 244,-564 405,-564 405,-542 244,-542"/>
<image xlink:href="../../images/foreignKeys.png" width="11px" height="12px" preserveAspectRatio="xMinYMin meet" x="249" y="-559"/>
<text text-anchor="start" x="264" y="-550.2" font-family="Helvetica,sans-Serif" font-size="11.00" fill="#000000">line_id</text>
<polygon fill="#ffffff" stroke="transparent" points="244,-520 244,-542 405,-542 405,-520 244,-520"/>
<polygon fill="none" stroke="#000000" points="244,-520 244,-542 405,-542 405,-520 244,-520"/>
<text text-anchor="start" x="264" y="-528.2" font-family="Helvetica,sans-Serif" font-size="11.00" fill="#000000">text</text>
<polygon fill="none" stroke="#000000" points="244,-502 244,-520 405,-520 405,-502 244,-502"/>
<text text-anchor="start" x="247" y="-508.2" font-family="Helvetica,sans-Serif" font-size="11.00" fill="#000000">...</text>
<polygon fill="#ffffff" stroke="transparent" points="244,-484 244,-502 296,-502 296,-484 244,-484"/>
<polygon fill="none" stroke="#000000" points="244,-484 244,-502 296,-502 296,-484 244,-484"/>
<text text-anchor="start" x="247" y="-490.2" font-family="Helvetica,sans-Serif" font-size="11.00" fill="#000000">&lt; 1</text>
<polygon fill="#ffffff" stroke="transparent" points="296,-484 296,-502 377,-502 377,-484 296,-484"/>
<polygon fill="none" stroke="#000000" points="296,-484 296,-502 377,-502 377,-484 296,-484"/>
<text text-anchor="start" x="314" y="-490.2" font-family="Helvetica,sans-Serif" font-size="11.00" fill="#000000">54,197 rows</text>
<polygon fill="#ffffff" stroke="transparent" points="377,-484 377,-502 405,-502 405,-484 377,-484"/>
<polygon fill="none" stroke="#000000" points="377,-484 377,-502 405,-502 405,-484 377,-484"/>
<text text-anchor="start" x="395" y="-490.2" font-family="Helvetica,sans-Serif" font-size="11.00" fill="#000000"> &#160;</text>
</a>
</g>
</g>
<!-- qwb_ref&#45;&gt;line -->
<g id="edge8" class="edge">
<title>qwb_ref:w&#45;&gt;line:e</title>
<path fill="none" stroke="#000000" stroke-dasharray="5,2" d="M229.6238,-551.3323C147.9315,-530.0394 285.4123,-312 180,-312"/>
<polygon fill="#000000" stroke="#000000" points="236.0533,-552.0781 243.5852,-556.576 240.0266,-552.5391 244,-553 244,-553 244,-553 240.0266,-552.5391 244.4148,-549.424 236.0533,-552.0781 236.0533,-552.0781"/>
<ellipse fill="none" stroke="#000000" cx="232.8746" cy="-551.7094" rx="3.2" ry="3.2"/>
</g>
<!-- text_fragment_to_line -->
<g id="node9" class="node">
<title>text_fragment_to_line</title>
<g id="a_node9"><a xlink:href="../../tables/text_fragment_to_line.html" xlink:title="text_fragment_to_line" target="_top">
<polygon fill="#ffffff" stroke="transparent" points="231,-37 231,-165 417,-165 417,-37 231,-37"/>
<polygon fill="#f5f5f5" stroke="transparent" points="231,-143 231,-165 417,-165 417,-143 231,-143"/>
<polygon fill="none" stroke="#000000" points="231,-143 231,-165 417,-165 417,-143 231,-143"/>
<text text-anchor="start" x="236" y="-152.2" font-family="Helvetica,sans-Serif" font-weight="bold" font-size="11.00" fill="#000000">text_fragment_to_line</text>
<text text-anchor="start" x="382" y="-151.2" font-family="Helvetica,sans-Serif" font-size="11.00" fill="#000000">[table]</text>
<polygon fill="none" stroke="#000000" points="231,-121 231,-143 417,-143 417,-121 231,-121"/>
<image xlink:href="../../images/primaryKeys.png" width="11px" height="12px" preserveAspectRatio="xMinYMin meet" x="236" y="-138"/>
<text text-anchor="start" x="251" y="-129.2" font-family="Helvetica,sans-Serif" font-size="11.00" fill="#000000">text_fragment_to_line_id</text>
<polygon fill="#ffffff" stroke="transparent" points="231,-99 231,-121 417,-121 417,-99 231,-99"/>
<polygon fill="none" stroke="#000000" points="231,-99 231,-121 417,-121 417,-99 231,-99"/>
<image xlink:href="../../images/foreignKeys.png" width="11px" height="12px" preserveAspectRatio="xMinYMin meet" x="236" y="-116"/>
<text text-anchor="start" x="251" y="-107.2" font-family="Helvetica,sans-Serif" font-size="11.00" fill="#000000">text_fragment_id</text>
<polygon fill="#ffffff" stroke="transparent" points="231,-77 231,-99 417,-99 417,-77 231,-77"/>
<polygon fill="none" stroke="#000000" points="231,-77 231,-99 417,-99 417,-77 231,-77"/>
<image xlink:href="../../images/foreignKeys.png" width="11px" height="12px" preserveAspectRatio="xMinYMin meet" x="236" y="-94"/>
<text text-anchor="start" x="251" y="-85.2" font-family="Helvetica,sans-Serif" font-size="11.00" fill="#000000">line_id</text>
<polygon fill="#ffffff" stroke="transparent" points="231,-55 231,-77 417,-77 417,-55 231,-55"/>
<polygon fill="none" stroke="#000000" points="231,-55 231,-77 417,-77 417,-55 231,-55"/>
<image xlink:href="../../images/foreignKeys.png" width="11px" height="12px" preserveAspectRatio="xMinYMin meet" x="236" y="-72"/>
<text text-anchor="start" x="251" y="-63.2" font-family="Helvetica,sans-Serif" font-size="11.00" fill="#000000">creator_id</text>
<polygon fill="#ffffff" stroke="transparent" points="231,-37 231,-55 291,-55 291,-37 231,-37"/>
<polygon fill="none" stroke="#000000" points="231,-37 231,-55 291,-55 291,-37 231,-37"/>
<text text-anchor="start" x="234" y="-43.2" font-family="Helvetica,sans-Serif" font-size="11.00" fill="#000000">&lt; 3</text>
<polygon fill="#ffffff" stroke="transparent" points="291,-37 291,-55 376,-55 376,-37 291,-37"/>
<polygon fill="none" stroke="#000000" points="291,-37 291,-55 376,-55 376,-37 291,-37"/>
<text text-anchor="start" x="313" y="-43.2" font-family="Helvetica,sans-Serif" font-size="11.00" fill="#000000">54,560 rows</text>
<polygon fill="#ffffff" stroke="transparent" points="376,-37 376,-55 417,-55 417,-37 376,-37"/>
<polygon fill="none" stroke="#000000" points="376,-37 376,-55 417,-55 417,-37 376,-37"/>
<text text-anchor="start" x="398" y="-43.2" font-family="Helvetica,sans-Serif" font-size="11.00" fill="#000000">1 &gt;</text>
</a>
</g>
</g>
<!-- text_fragment_to_line&#45;&gt;user -->
<g id="edge9" class="edge">
<title>text_fragment_to_line:w&#45;&gt;user:e</title>
<path fill="none" stroke="#000000" d="M216.6007,-68.9323C194.9911,-80.1172 209.6537,-120.9805 190,-151 169.4567,-182.3782 172.5049,-215 135,-215"/>
<polygon fill="#000000" stroke="#000000" points="223.1609,-67.5964 231.7184,-69.5276 227.0804,-66.7982 231,-66 231,-66 231,-66 227.0804,-66.7982 230.2816,-62.4724 223.1609,-67.5964 223.1609,-67.5964"/>
<ellipse fill="none" stroke="#000000" cx="220.0252" cy="-68.2349" rx="3.2" ry="3.2"/>
</g>
<!-- text_fragment_to_line&#45;&gt;line -->
<g id="edge10" class="edge">
<title>text_fragment_to_line:w&#45;&gt;line:e</title>
<path fill="none" stroke="#000000" d="M216.4558,-89.9365C144.8901,-111.8301 276.5195,-312 180,-312"/>
<polygon fill="#000000" stroke="#000000" points="223.07,-89.0559 231.4752,-91.5685 227.035,-88.5279 231,-88 231,-88 231,-88 227.035,-88.5279 230.5248,-84.4315 223.07,-89.0559 223.07,-89.0559"/>
<ellipse fill="none" stroke="#000000" cx="219.898" cy="-89.4783" rx="3.2" ry="3.2"/>
</g>
<!-- text_fragment -->
<g id="node10" class="node">
<title>text_fragment</title>
<g id="a_node10"><a xlink:href="../../tables/text_fragment.html" xlink:title="text_fragment" target="_top">
<polygon fill="#ffffff" stroke="transparent" points="36.5,-83 36.5,-141 153.5,-141 153.5,-83 36.5,-83"/>
<polygon fill="#f5f5f5" stroke="transparent" points="37,-119 37,-141 154,-141 154,-119 37,-119"/>
<polygon fill="none" stroke="#000000" points="37,-119 37,-141 154,-141 154,-119 37,-119"/>
<text text-anchor="start" x="42" y="-128.2" font-family="Helvetica,sans-Serif" font-weight="bold" font-size="11.00" fill="#000000">text_fragment</text>
<text text-anchor="start" x="119" y="-127.2" font-family="Helvetica,sans-Serif" font-size="11.00" fill="#000000">[table]</text>
<polygon fill="none" stroke="#000000" points="37,-101 37,-119 154,-119 154,-101 37,-101"/>
<text text-anchor="start" x="40" y="-107.2" font-family="Helvetica,sans-Serif" font-size="11.00" fill="#000000">...</text>
<polygon fill="#ffffff" stroke="transparent" points="37,-83 37,-101 58,-101 58,-83 37,-83"/>
<polygon fill="none" stroke="#000000" points="37,-83 37,-101 58,-101 58,-83 37,-83"/>
<text text-anchor="start" x="40" y="-89.2" font-family="Helvetica,sans-Serif" font-size="11.00" fill="#000000"> &#160;</text>
<polygon fill="#ffffff" stroke="transparent" points="58,-83 58,-101 128,-101 128,-83 58,-83"/>
<polygon fill="none" stroke="#000000" points="58,-83 58,-101 128,-101 128,-83 58,-83"/>
<text text-anchor="start" x="65" y="-89.2" font-family="Helvetica,sans-Serif" font-size="11.00" fill="#000000">11,176 rows</text>
<polygon fill="#ffffff" stroke="transparent" points="128,-83 128,-101 154,-101 154,-83 128,-83"/>
<polygon fill="none" stroke="#000000" points="128,-83 128,-101 154,-101 154,-83 128,-83"/>
<text text-anchor="start" x="135" y="-89.2" font-family="Helvetica,sans-Serif" font-size="11.00" fill="#000000">6 &gt;</text>
</a>
</g>
</g>
<!-- text_fragment_to_line&#45;&gt;text_fragment -->
<g id="edge11" class="edge">
<title>text_fragment_to_line:w&#45;&gt;text_fragment:e</title>
<path fill="none" stroke="#000000" d="M216.3215,-110C193.379,-110 182.7413,-110 154,-110"/>
<polygon fill="#000000" stroke="#000000" points="223,-110.0001 231,-113.6 227,-110 231,-110 231,-110 231,-110 227,-110 231,-106.4 223,-110.0001 223,-110.0001"/>
<ellipse fill="none" stroke="#000000" cx="219.8" cy="-110.0001" rx="3.2" ry="3.2"/>
</g>
<!-- text_fragment_to_line_owner -->
<g id="node11" class="node">
<title>text_fragment_to_line_owner</title>
<g id="a_node11"><a xlink:href="../../tables/text_fragment_to_line_owner.html" xlink:title="text_fragment_to_line_owner" target="_top">
<polygon fill="#ffffff" stroke="transparent" points="466,-105 466,-163 663,-163 663,-105 466,-105"/>
<polygon fill="#f5f5f5" stroke="transparent" points="466.5,-141 466.5,-163 663.5,-163 663.5,-141 466.5,-141"/>
<polygon fill="none" stroke="#000000" points="466.5,-141 466.5,-163 663.5,-163 663.5,-141 466.5,-141"/>
<text text-anchor="start" x="471.5" y="-150.2" font-family="Helvetica,sans-Serif" font-weight="bold" font-size="11.00" fill="#000000">text_fragment_to_line_owner</text>
<text text-anchor="start" x="628.5" y="-149.2" font-family="Helvetica,sans-Serif" font-size="11.00" fill="#000000">[table]</text>
<polygon fill="none" stroke="#000000" points="466.5,-123 466.5,-141 663.5,-141 663.5,-123 466.5,-123"/>
<text text-anchor="start" x="469.5" y="-129.2" font-family="Helvetica,sans-Serif" font-size="11.00" fill="#000000">...</text>
<polygon fill="#ffffff" stroke="transparent" points="466.5,-105 466.5,-123 536.5,-123 536.5,-105 466.5,-105"/>
<polygon fill="none" stroke="#000000" points="466.5,-105 466.5,-123 536.5,-123 536.5,-105 466.5,-105"/>
<text text-anchor="start" x="469.5" y="-111.2" font-family="Helvetica,sans-Serif" font-size="11.00" fill="#000000">&lt; 3</text>
<polygon fill="#ffffff" stroke="transparent" points="536.5,-105 536.5,-123 626.5,-123 626.5,-105 536.5,-105"/>
<polygon fill="none" stroke="#000000" points="536.5,-105 536.5,-123 626.5,-123 626.5,-105 536.5,-105"/>
<text text-anchor="start" x="563.5" y="-111.2" font-family="Helvetica,sans-Serif" font-size="11.00" fill="#000000">53,405 rows</text>
<polygon fill="#ffffff" stroke="transparent" points="626.5,-105 626.5,-123 663.5,-123 663.5,-105 626.5,-105"/>
<polygon fill="none" stroke="#000000" points="626.5,-105 626.5,-123 663.5,-123 663.5,-105 626.5,-105"/>
<text text-anchor="start" x="653.5" y="-111.2" font-family="Helvetica,sans-Serif" font-size="11.00" fill="#000000"> &#160;</text>
</a>
</g>
</g>
<!-- text_fragment_to_line_owner&#45;&gt;text_fragment_to_line -->
<g id="edge12" class="edge">
<title>text_fragment_to_line_owner:w&#45;&gt;text_fragment_to_line:e</title>
<path fill="none" stroke="#000000" d="M451.8428,-132C440.4139,-132 433.1563,-132 417,-132"/>
<polygon fill="#000000" stroke="#000000" points="458.5,-132.0001 466.5,-135.6 462.5,-132 466.5,-132 466.5,-132 466.5,-132 462.5,-132 466.5,-128.4 458.5,-132.0001 458.5,-132.0001"/>
<ellipse fill="none" stroke="#000000" cx="455.3" cy="-132.0001" rx="3.2" ry="3.2"/>
</g>
</g>
</svg>
