<?xml version="1.0" encoding="UTF-8" standalone="no"?>
<!DOCTYPE svg PUBLIC "-//W3C//DTD SVG 1.1//EN"
 "http://www.w3.org/Graphics/SVG/1.1/DTD/svg11.dtd">
<!-- Generated by graphviz version 2.43.0 (0)
 -->
<!-- Title: oneDegreeRelationshipsDiagram Pages: 1 -->
<svg width="649pt" height="358pt"
 viewBox="0.00 0.00 649.00 358.00" xmlns="http://www.w3.org/2000/svg" xmlns:xlink="http://www.w3.org/1999/xlink">
<g id="graph0" class="graph" transform="scale(1 1) rotate(0) translate(4 354)">
<title>oneDegreeRelationshipsDiagram</title>
<polygon fill="#ffffff" stroke="transparent" points="-4,4 -4,-354 645,-354 645,4 -4,4"/>
<text text-anchor="middle" x="79.5" y="-7.2" font-family="Helvetica,sans-Serif" font-size="11.00">Generated by SchemaSpy</text>
<!-- edition_editor -->
<g id="node1" class="node">
<title>edition_editor</title>
<g id="a_node1"><a xlink:href="../../tables/edition_editor.html" xlink:title="edition_editor" target="_top">
<polygon fill="#ffffff" stroke="transparent" points="195.5,-95 195.5,-219 331.5,-219 331.5,-95 195.5,-95"/>
<polygon fill="#f5f5f5" stroke="transparent" points="195.5,-197 195.5,-219 331.5,-219 331.5,-197 195.5,-197"/>
<polygon fill="none" stroke="black" points="195.5,-197 195.5,-219 331.5,-219 331.5,-197 195.5,-197"/>
<text text-anchor="start" x="200.5" y="-206.2" font-family="Helvetica,sans-Serif" font-weight="bold" font-size="11.00">edition_editor</text>
<text text-anchor="start" x="289.5" y="-205.2" font-family="Helvetica,sans-Serif" font-size="11.00">[table]</text>
<polygon fill="none" stroke="black" points="195.5,-175 195.5,-197 331.5,-197 331.5,-175 195.5,-175"/>
<image xlink:href="../../images/primaryKeys.png" width="11px" height="12px" preserveAspectRatio="xMinYMin meet" x="200.5" y="-192"/>
<text text-anchor="start" x="217.5" y="-183.2" font-family="Helvetica,sans-Serif" font-size="11.00">edition_editor_id</text>
<polygon fill="#ffffff" stroke="transparent" points="195.5,-153 195.5,-175 331.5,-175 331.5,-153 195.5,-153"/>
<polygon fill="none" stroke="black" points="195.5,-153 195.5,-175 331.5,-175 331.5,-153 195.5,-153"/>
<image xlink:href="../../images/foreignKeys.png" width="11px" height="12px" preserveAspectRatio="xMinYMin meet" x="200.5" y="-170"/>
<text text-anchor="start" x="217.5" y="-161.2" font-family="Helvetica,sans-Serif" font-size="11.00">user_id</text>
<polygon fill="#ffffff" stroke="transparent" points="195.5,-131 195.5,-153 331.5,-153 331.5,-131 195.5,-131"/>
<polygon fill="none" stroke="black" points="195.5,-131 195.5,-153 331.5,-153 331.5,-131 195.5,-131"/>
<image xlink:href="../../images/foreignKeys.png" width="11px" height="12px" preserveAspectRatio="xMinYMin meet" x="200.5" y="-148"/>
<text text-anchor="start" x="217.5" y="-139.2" font-family="Helvetica,sans-Serif" font-size="11.00">edition_id</text>
<polygon fill="none" stroke="black" points="195.5,-113 195.5,-131 331.5,-131 331.5,-113 195.5,-113"/>
<text text-anchor="start" x="198.5" y="-119.2" font-family="Helvetica,sans-Serif" font-size="11.00">...</text>
<polygon fill="#ffffff" stroke="transparent" points="195.5,-95 195.5,-113 226.5,-113 226.5,-95 195.5,-95"/>
<polygon fill="none" stroke="black" points="195.5,-95 195.5,-113 226.5,-113 226.5,-95 195.5,-95"/>
<text text-anchor="start" x="198.5" y="-101.2" font-family="Helvetica,sans-Serif" font-size="11.00">&lt; 2</text>
<polygon fill="#ffffff" stroke="transparent" points="226.5,-95 226.5,-113 295.5,-113 295.5,-95 226.5,-95"/>
<polygon fill="none" stroke="black" points="226.5,-95 226.5,-113 295.5,-113 295.5,-95 226.5,-95"/>
<text text-anchor="start" x="231.5" y="-101.2" font-family="Helvetica,sans-Serif" font-size="11.00">1,645 rows</text>
<polygon fill="#ffffff" stroke="transparent" points="295.5,-95 295.5,-113 331.5,-113 331.5,-95 295.5,-95"/>
<polygon fill="none" stroke="black" points="295.5,-95 295.5,-113 331.5,-113 331.5,-95 295.5,-95"/>
<text text-anchor="start" x="301.5" y="-101.2" font-family="Helvetica,sans-Serif" font-size="11.00">33 &gt;</text>
</a>
</g>
</g>
<!-- edition -->
<g id="node2" class="node">
<title>edition</title>
<g id="a_node2"><a xlink:href="../../tables/edition.html" xlink:title="edition" target="_top">
<polygon fill="#ffffff" stroke="transparent" points="8,-37 8,-139 143,-139 143,-37 8,-37"/>
<polygon fill="#f5f5f5" stroke="transparent" points="8.5,-117 8.5,-139 143.5,-139 143.5,-117 8.5,-117"/>
<polygon fill="none" stroke="black" points="8.5,-117 8.5,-139 143.5,-139 143.5,-117 8.5,-117"/>
<text text-anchor="start" x="13.5" y="-126.2" font-family="Helvetica,sans-Serif" font-weight="bold" font-size="11.00">edition</text>
<text text-anchor="start" x="101.5" y="-125.2" font-family="Helvetica,sans-Serif" font-size="11.00">[table]</text>
<polygon fill="none" stroke="black" points="8.5,-95 8.5,-117 143.5,-117 143.5,-95 8.5,-95"/>
<image xlink:href="../../images/primaryKeys.png" width="11px" height="12px" preserveAspectRatio="xMinYMin meet" x="13.5" y="-112"/>
<text text-anchor="start" x="28.5" y="-103.2" font-family="Helvetica,sans-Serif" font-size="11.00">edition_id</text>
<polygon fill="#ffffff" stroke="transparent" points="8.5,-73 8.5,-95 143.5,-95 143.5,-73 8.5,-73"/>
<polygon fill="none" stroke="black" points="8.5,-73 8.5,-95 143.5,-95 143.5,-73 8.5,-73"/>
<image xlink:href="../../images/foreignKeys.png" width="11px" height="12px" preserveAspectRatio="xMinYMin meet" x="13.5" y="-90"/>
<text text-anchor="start" x="28.5" y="-81.2" font-family="Helvetica,sans-Serif" font-size="11.00">manuscript_id</text>
<polygon fill="none" stroke="black" points="8.5,-55 8.5,-73 143.5,-73 143.5,-55 8.5,-55"/>
<text text-anchor="start" x="11.5" y="-61.2" font-family="Helvetica,sans-Serif" font-size="11.00">...</text>
<polygon fill="#ffffff" stroke="transparent" points="8.5,-37 8.5,-55 38.5,-55 38.5,-37 8.5,-37"/>
<polygon fill="none" stroke="black" points="8.5,-37 8.5,-55 38.5,-55 38.5,-37 8.5,-37"/>
<text text-anchor="start" x="11.5" y="-43.2" font-family="Helvetica,sans-Serif" font-size="11.00">&lt; 1</text>
<polygon fill="#ffffff" stroke="transparent" points="38.5,-37 38.5,-55 107.5,-55 107.5,-37 38.5,-37"/>
<polygon fill="none" stroke="black" points="38.5,-37 38.5,-55 107.5,-55 107.5,-37 38.5,-37"/>
<text text-anchor="start" x="43.5" y="-43.2" font-family="Helvetica,sans-Serif" font-size="11.00">1,645 rows</text>
<polygon fill="#ffffff" stroke="transparent" points="107.5,-37 107.5,-55 143.5,-55 143.5,-37 107.5,-37"/>
<polygon fill="none" stroke="black" points="107.5,-37 107.5,-55 143.5,-55 143.5,-37 107.5,-37"/>
<text text-anchor="start" x="113.5" y="-43.2" font-family="Helvetica,sans-Serif" font-size="11.00">35 &gt;</text>
</a>
</g>
</g>
<!-- edition_editor&#45;&gt;edition -->
<g id="edge1" class="edge">
<title>edition_editor:w&#45;&gt;edition:e</title>
<path fill="none" stroke="black" d="M180.47,-137.59C167.66,-127.97 165.89,-106 144.5,-106"/>
<polygon fill="black" stroke="black" points="186.87,-139.6 193.42,-145.43 190.68,-140.8 194.5,-142 194.5,-142 194.5,-142 190.68,-140.8 195.58,-138.57 186.87,-139.6 186.87,-139.6"/>
<ellipse fill="none" stroke="black" cx="183.82" cy="-138.64" rx="3.2" ry="3.2"/>
</g>
<!-- line_to_sign_owner -->
<g id="node3" class="node">
<title>line_to_sign_owner</title>
<g id="a_node3"><a xlink:href="../../tables/line_to_sign_owner.html" xlink:title="line_to_sign_owner" target="_top">
<polygon fill="#ffffff" stroke="transparent" points="384,-133 384,-243 633,-243 633,-133 384,-133"/>
<polygon fill="#f5f5f5" stroke="transparent" points="386.5,-219 386.5,-241 631.5,-241 631.5,-219 386.5,-219"/>
<polygon fill="none" stroke="black" points="386.5,-219 386.5,-241 631.5,-241 631.5,-219 386.5,-219"/>
<text text-anchor="start" x="391.5" y="-228.2" font-family="Helvetica,sans-Serif" font-weight="bold" font-size="11.00">line_to_sign_owner</text>
<text text-anchor="start" x="589.5" y="-227.2" font-family="Helvetica,sans-Serif" font-size="11.00">[table]</text>
<polygon fill="none" stroke="black" points="386.5,-197 386.5,-219 534.5,-219 534.5,-197 386.5,-197"/>
<image xlink:href="../../images/primaryKeys.png" width="11px" height="12px" preserveAspectRatio="xMinYMin meet" x="391.5" y="-214"/>
<text text-anchor="start" x="406.5" y="-205.2" font-family="Helvetica,sans-Serif" font-size="11.00">line_to_sign_id</text>
<polygon fill="none" stroke="black" points="534.5,-197 534.5,-219 631.5,-219 631.5,-197 534.5,-197"/>
<text text-anchor="start" x="537.5" y="-205.2" font-family="Helvetica,sans-Serif" font-size="11.00">int unsigned[10]</text>
<polygon fill="#ffffff" stroke="transparent" points="386.5,-175 386.5,-197 534.5,-197 534.5,-175 386.5,-175"/>
<polygon fill="none" stroke="black" points="386.5,-175 386.5,-197 534.5,-197 534.5,-175 386.5,-175"/>
<image xlink:href="../../images/foreignKeys.png" width="11px" height="12px" preserveAspectRatio="xMinYMin meet" x="391.5" y="-192"/>
<text text-anchor="start" x="406.5" y="-183.2" font-family="Helvetica,sans-Serif" font-size="11.00">edition_editor_id</text>
<polygon fill="none" stroke="black" points="534.5,-175 534.5,-197 631.5,-197 631.5,-175 534.5,-175"/>
<text text-anchor="start" x="537.5" y="-183.2" font-family="Helvetica,sans-Serif" font-size="11.00">int unsigned[10]</text>
<polygon fill="none" stroke="black" points="386.5,-153 386.5,-175 534.5,-175 534.5,-153 386.5,-153"/>
<image xlink:href="../../images/primaryKeys.png" width="11px" height="12px" preserveAspectRatio="xMinYMin meet" x="391.5" y="-170"/>
<text text-anchor="start" x="406.5" y="-161.2" font-family="Helvetica,sans-Serif" font-size="11.00">edition_id</text>
<polygon fill="none" stroke="black" points="534.5,-153 534.5,-175 631.5,-175 631.5,-153 534.5,-153"/>
<text text-anchor="start" x="537.5" y="-161.2" font-family="Helvetica,sans-Serif" font-size="11.00">int unsigned[10]</text>
<polygon fill="#ffffff" stroke="transparent" points="386.5,-135 386.5,-153 427.5,-153 427.5,-135 386.5,-135"/>
<polygon fill="none" stroke="black" points="386.5,-135 386.5,-153 427.5,-153 427.5,-135 386.5,-135"/>
<text text-anchor="start" x="389.5" y="-141.2" font-family="Helvetica,sans-Serif" font-size="11.00">&lt; 3</text>
<polygon fill="#ffffff" stroke="transparent" points="427.5,-135 427.5,-153 534.5,-153 534.5,-135 427.5,-135"/>
<polygon fill="none" stroke="black" points="427.5,-135 427.5,-153 534.5,-153 534.5,-135 427.5,-135"/>
<text text-anchor="start" x="446.5" y="-141.2" font-family="Helvetica,sans-Serif" font-size="11.00">1,730,550 rows</text>
<polygon fill="#ffffff" stroke="transparent" points="534.5,-135 534.5,-153 631.5,-153 631.5,-135 534.5,-135"/>
<polygon fill="none" stroke="black" points="534.5,-135 534.5,-153 631.5,-153 631.5,-135 534.5,-135"/>
<text text-anchor="start" x="608.5" y="-141.2" font-family="Helvetica,sans-Serif" font-size="11.00">0 &gt;</text>
<polygon fill="none" stroke="black" stroke-width="2" points="385,-134 385,-242 632,-242 632,-134 385,-134"/>
</a>
</g>
</g>
<!-- line_to_sign_owner&#45;&gt;edition_editor -->
<g id="edge2" class="edge">
<title>line_to_sign_owner:w&#45;&gt;edition_editor:e</title>
<path fill="none" stroke="black" d="M370.99,-186C358.06,-186 350.35,-186 332.5,-186"/>
<polygon fill="black" stroke="black" points="377.5,-186 385.5,-189.6 381.5,-186 385.5,-186 385.5,-186 385.5,-186 381.5,-186 385.5,-182.4 377.5,-186 377.5,-186"/>
<ellipse fill="none" stroke="black" cx="374.3" cy="-186" rx="3.2" ry="3.2"/>
</g>
<!-- line_to_sign_owner&#45;&gt;edition -->
<g id="edge3" class="edge">
<title>line_to_sign_owner:w&#45;&gt;edition:e</title>
<path fill="none" stroke="black" d="M371.41,-160.03C353.69,-146.42 372.12,-101.5 343,-84 282.43,-47.59 252.4,-66.24 184,-84 164.55,-89.05 164.59,-106 144.5,-106"/>
<polygon fill="black" stroke="black" points="377.8,-161.83 384.52,-167.47 381.65,-162.92 385.5,-164 385.5,-164 385.5,-164 381.65,-162.92 386.48,-160.53 377.8,-161.83 377.8,-161.83"/>
<ellipse fill="none" stroke="black" cx="374.72" cy="-160.96" rx="3.2" ry="3.2"/>
</g>
<!-- line_to_sign -->
<g id="node4" class="node">
<title>line_to_sign</title>
<g id="a_node4"><a xlink:href="../../tables/line_to_sign.html" xlink:title="line_to_sign" target="_top">
<polygon fill="#ffffff" stroke="transparent" points="192,-240 192,-346 335,-346 335,-240 192,-240"/>
<polygon fill="#f5f5f5" stroke="transparent" points="192.5,-324 192.5,-346 335.5,-346 335.5,-324 192.5,-324"/>
<polygon fill="none" stroke="black" points="192.5,-324 192.5,-346 335.5,-346 335.5,-324 192.5,-324"/>
<text text-anchor="start" x="197.5" y="-333.2" font-family="Helvetica,sans-Serif" font-weight="bold" font-size="11.00">line_to_sign</text>
<text text-anchor="start" x="293.5" y="-332.2" font-family="Helvetica,sans-Serif" font-size="11.00">[table]</text>
<polygon fill="none" stroke="black" points="192.5,-302 192.5,-324 335.5,-324 335.5,-302 192.5,-302"/>
<image xlink:href="../../images/primaryKeys.png" width="11px" height="12px" preserveAspectRatio="xMinYMin meet" x="197.5" y="-319"/>
<text text-anchor="start" x="225.5" y="-310.2" font-family="Helvetica,sans-Serif" font-size="11.00">line_to_sign_id</text>
<polygon fill="#ffffff" stroke="transparent" points="192.5,-280 192.5,-302 335.5,-302 335.5,-280 192.5,-280"/>
<polygon fill="none" stroke="black" points="192.5,-280 192.5,-302 335.5,-302 335.5,-280 192.5,-280"/>
<image xlink:href="../../images/foreignKeys.png" width="11px" height="12px" preserveAspectRatio="xMinYMin meet" x="197.5" y="-297"/>
<text text-anchor="start" x="225.5" y="-288.2" font-family="Helvetica,sans-Serif" font-size="11.00">sign_id</text>
<polygon fill="#ffffff" stroke="transparent" points="192.5,-258 192.5,-280 335.5,-280 335.5,-258 192.5,-258"/>
<polygon fill="none" stroke="black" points="192.5,-258 192.5,-280 335.5,-280 335.5,-258 192.5,-258"/>
<image xlink:href="../../images/foreignKeys.png" width="11px" height="12px" preserveAspectRatio="xMinYMin meet" x="197.5" y="-275"/>
<text text-anchor="start" x="225.5" y="-266.2" font-family="Helvetica,sans-Serif" font-size="11.00">line_id</text>
<polygon fill="#ffffff" stroke="transparent" points="192.5,-240 192.5,-258 218.5,-258 218.5,-240 192.5,-240"/>
<polygon fill="none" stroke="black" points="192.5,-240 192.5,-258 218.5,-258 218.5,-240 192.5,-240"/>
<text text-anchor="start" x="195.5" y="-246.2" font-family="Helvetica,sans-Serif" font-size="11.00">&lt; 2</text>
<polygon fill="#ffffff" stroke="transparent" points="218.5,-240 218.5,-258 309.5,-258 309.5,-240 218.5,-240"/>
<polygon fill="none" stroke="black" points="218.5,-240 218.5,-258 309.5,-258 309.5,-240 218.5,-240"/>
<text text-anchor="start" x="221.5" y="-246.2" font-family="Helvetica,sans-Serif" font-size="11.00">1,730,550 rows</text>
<polygon fill="#ffffff" stroke="transparent" points="309.5,-240 309.5,-258 335.5,-258 335.5,-240 309.5,-240"/>
<polygon fill="none" stroke="black" points="309.5,-240 309.5,-258 335.5,-258 335.5,-240 309.5,-240"/>
<text text-anchor="start" x="312.5" y="-246.2" font-family="Helvetica,sans-Serif" font-size="11.00">1 &gt;</text>
</a>
</g>
</g>
<!-- line_to_sign_owner&#45;&gt;line_to_sign -->
<g id="edge4" class="edge">
<title>line_to_sign_owner:w&#45;&gt;line_to_sign:e</title>
<path fill="none" stroke="black" d="M371.4,-211.99C345.21,-231.17 381.96,-313 336.5,-313"/>
<polygon fill="black" stroke="black" points="377.8,-210.18 386.48,-211.46 381.65,-209.09 385.5,-208 385.5,-208 385.5,-208 381.65,-209.09 384.52,-204.54 377.8,-210.18 377.8,-210.18"/>
<ellipse fill="none" stroke="black" cx="374.72" cy="-211.05" rx="3.2" ry="3.2"/>
</g>
</g>
</svg>
