<?xml version="1.0" encoding="UTF-8" standalone="no"?>
<!DOCTYPE svg PUBLIC "-//W3C//DTD SVG 1.1//EN"
 "http://www.w3.org/Graphics/SVG/1.1/DTD/svg11.dtd">
<!-- Generated by graphviz version 2.40.1 (20161225.0304)
 -->
<!-- Title: oneDegreeRelationshipsDiagram Pages: 1 -->
<svg width="605pt" height="238pt"
 viewBox="0.00 0.00 605.00 238.00" xmlns="http://www.w3.org/2000/svg" xmlns:xlink="http://www.w3.org/1999/xlink">
<g id="graph0" class="graph" transform="scale(1 1) rotate(0) translate(4 234)">
<title>oneDegreeRelationshipsDiagram</title>
<polygon fill="#ffffff" stroke="transparent" points="-4,4 -4,-234 601,-234 601,4 -4,4"/>
<text text-anchor="middle" x="71.5" y="-7.2" font-family="Helvetica,sans-Serif" font-size="11.00" fill="#000000">Generated by SchemaSpy</text>
<!-- line_data -->
<g id="node1" class="node">
<title>line_data</title>
<g id="a_node1"><a xlink:href="../../tables/line_data.html" xlink:title="line_data" target="_top">
<polygon fill="#ffffff" stroke="transparent" points="220,-94 220,-226 407,-226 407,-94 220,-94"/>
<polygon fill="#f5f5f5" stroke="transparent" points="222.5,-202 222.5,-224 405.5,-224 405.5,-202 222.5,-202"/>
<polygon fill="none" stroke="#000000" points="222.5,-202 222.5,-224 405.5,-224 405.5,-202 222.5,-202"/>
<text text-anchor="start" x="227.5" y="-211.2" font-family="Helvetica,sans-Serif" font-weight="bold" font-size="11.00" fill="#000000">line_data</text>
<text text-anchor="start" x="370.5" y="-210.2" font-family="Helvetica,sans-Serif" font-size="11.00" fill="#000000">[table]</text>
<polygon fill="none" stroke="#000000" points="222.5,-180 222.5,-202 323.5,-202 323.5,-180 222.5,-180"/>
<image xlink:href="../../images/primaryKeys.png" width="11px" height="12px" preserveAspectRatio="xMinYMin meet" x="227.5" y="-197"/>
<text text-anchor="start" x="242.5" y="-188.2" font-family="Helvetica,sans-Serif" font-size="11.00" fill="#000000">line_data_id</text>
<polygon fill="none" stroke="#000000" points="323.5,-180 323.5,-202 405.5,-202 405.5,-180 323.5,-180"/>
<text text-anchor="start" x="326.5" y="-188.2" font-family="Helvetica,sans-Serif" font-size="11.00" fill="#000000">int unsigned[10]</text>
<polygon fill="#ffffff" stroke="transparent" points="222.5,-158 222.5,-180 323.5,-180 323.5,-158 222.5,-158"/>
<polygon fill="none" stroke="#000000" points="222.5,-158 222.5,-180 323.5,-180 323.5,-158 222.5,-158"/>
<image xlink:href="../../images/foreignKeys.png" width="11px" height="12px" preserveAspectRatio="xMinYMin meet" x="227.5" y="-175"/>
<text text-anchor="start" x="242.5" y="-166.2" font-family="Helvetica,sans-Serif" font-size="11.00" fill="#000000">line_id</text>
<polygon fill="none" stroke="#000000" points="323.5,-158 323.5,-180 405.5,-180 405.5,-158 323.5,-158"/>
<text text-anchor="start" x="326.5" y="-166.2" font-family="Helvetica,sans-Serif" font-size="11.00" fill="#000000">int unsigned[10]</text>
<polygon fill="#ffffff" stroke="transparent" points="222.5,-136 222.5,-158 323.5,-158 323.5,-136 222.5,-136"/>
<polygon fill="none" stroke="#000000" points="222.5,-136 222.5,-158 323.5,-158 323.5,-136 222.5,-136"/>
<text text-anchor="start" x="242.5" y="-144.2" font-family="Helvetica,sans-Serif" font-size="11.00" fill="#000000">name</text>
<polygon fill="none" stroke="#000000" points="323.5,-136 323.5,-158 405.5,-158 405.5,-136 323.5,-136"/>
<text text-anchor="start" x="326.5" y="-144.2" font-family="Helvetica,sans-Serif" font-size="11.00" fill="#000000">varchar[255]</text>
<polygon fill="#ffffff" stroke="transparent" points="222.5,-114 222.5,-136 323.5,-136 323.5,-114 222.5,-114"/>
<polygon fill="none" stroke="#000000" points="222.5,-114 222.5,-136 323.5,-136 323.5,-114 222.5,-114"/>
<image xlink:href="../../images/foreignKeys.png" width="11px" height="12px" preserveAspectRatio="xMinYMin meet" x="227.5" y="-131"/>
<text text-anchor="start" x="242.5" y="-122.2" font-family="Helvetica,sans-Serif" font-size="11.00" fill="#000000">creator_id</text>
<polygon fill="none" stroke="#000000" points="323.5,-114 323.5,-136 405.5,-136 405.5,-114 323.5,-114"/>
<text text-anchor="start" x="326.5" y="-122.2" font-family="Helvetica,sans-Serif" font-size="11.00" fill="#000000">int unsigned[10]</text>
<polygon fill="#ffffff" stroke="transparent" points="222.5,-96 222.5,-114 250.5,-114 250.5,-96 222.5,-96"/>
<polygon fill="none" stroke="#000000" points="222.5,-96 222.5,-114 250.5,-114 250.5,-96 222.5,-96"/>
<text text-anchor="start" x="225.5" y="-102.2" font-family="Helvetica,sans-Serif" font-size="11.00" fill="#000000">&lt; 2</text>
<polygon fill="#ffffff" stroke="transparent" points="250.5,-96 250.5,-114 323.5,-114 323.5,-96 250.5,-96"/>
<polygon fill="none" stroke="#000000" points="250.5,-96 250.5,-114 323.5,-114 323.5,-96 250.5,-96"/>
<text text-anchor="start" x="260.5" y="-102.2" font-family="Helvetica,sans-Serif" font-size="11.00" fill="#000000">54,784 rows</text>
<polygon fill="#ffffff" stroke="transparent" points="323.5,-96 323.5,-114 405.5,-114 405.5,-96 323.5,-96"/>
<polygon fill="none" stroke="#000000" points="323.5,-96 323.5,-114 405.5,-114 405.5,-96 323.5,-96"/>
<text text-anchor="start" x="386.5" y="-102.2" font-family="Helvetica,sans-Serif" font-size="11.00" fill="#000000">1 &gt;</text>
<polygon fill="none" stroke="#000000" stroke-width="2" points="221,-95 221,-225 406,-225 406,-95 221,-95"/>
</a>
</g>
</g>
<!-- user -->
<g id="node2" class="node">
<title>user</title>
<g id="a_node2"><a xlink:href="../../tables/user.html" xlink:title="user" target="_top">
<polygon fill="#ffffff" stroke="transparent" points="8,-37 8,-139 171,-139 171,-37 8,-37"/>
<polygon fill="#f5f5f5" stroke="transparent" points="8.5,-117 8.5,-139 171.5,-139 171.5,-117 8.5,-117"/>
<polygon fill="none" stroke="#000000" points="8.5,-117 8.5,-139 171.5,-139 171.5,-117 8.5,-117"/>
<text text-anchor="start" x="13.5" y="-126.2" font-family="Helvetica,sans-Serif" font-weight="bold" font-size="11.00" fill="#000000">user</text>
<text text-anchor="start" x="136.5" y="-125.2" font-family="Helvetica,sans-Serif" font-size="11.00" fill="#000000">[table]</text>
<polygon fill="none" stroke="#000000" points="8.5,-95 8.5,-117 171.5,-117 171.5,-95 8.5,-95"/>
<image xlink:href="../../images/primaryKeys.png" width="11px" height="12px" preserveAspectRatio="xMinYMin meet" x="13.5" y="-112"/>
<text text-anchor="start" x="28.5" y="-103.2" font-family="Helvetica,sans-Serif" font-size="11.00" fill="#000000">user_id</text>
<polygon fill="#ffffff" stroke="transparent" points="8.5,-73 8.5,-95 171.5,-95 171.5,-73 8.5,-73"/>
<polygon fill="none" stroke="#000000" points="8.5,-73 8.5,-95 171.5,-95 171.5,-73 8.5,-73"/>
<text text-anchor="start" x="28.5" y="-81.2" font-family="Helvetica,sans-Serif" font-size="11.00" fill="#000000">email</text>
<polygon fill="none" stroke="#000000" points="8.5,-55 8.5,-73 171.5,-73 171.5,-55 8.5,-55"/>
<text text-anchor="start" x="11.5" y="-61.2" font-family="Helvetica,sans-Serif" font-size="11.00" fill="#000000">...</text>
<polygon fill="#ffffff" stroke="transparent" points="8.5,-37 8.5,-55 62.5,-55 62.5,-37 8.5,-37"/>
<polygon fill="none" stroke="#000000" points="8.5,-37 8.5,-55 62.5,-55 62.5,-37 8.5,-37"/>
<text text-anchor="start" x="11.5" y="-43.2" font-family="Helvetica,sans-Serif" font-size="11.00" fill="#000000"> &#160;</text>
<polygon fill="#ffffff" stroke="transparent" points="62.5,-37 62.5,-55 122.5,-55 122.5,-37 62.5,-37"/>
<polygon fill="none" stroke="#000000" points="62.5,-37 62.5,-55 122.5,-55 122.5,-37 62.5,-37"/>
<text text-anchor="start" x="86.5" y="-43.2" font-family="Helvetica,sans-Serif" font-size="11.00" fill="#000000">3 rows</text>
<polygon fill="#ffffff" stroke="transparent" points="122.5,-37 122.5,-55 171.5,-55 171.5,-37 122.5,-37"/>
<polygon fill="none" stroke="#000000" points="122.5,-37 122.5,-55 171.5,-55 171.5,-37 122.5,-37"/>
<text text-anchor="start" x="146.5" y="-43.2" font-family="Helvetica,sans-Serif" font-size="11.00" fill="#000000">40 &gt;</text>
</a>
</g>
</g>
<!-- line_data&#45;&gt;user -->
<g id="edge1" class="edge">
<title>line_data:w&#45;&gt;user:e</title>
<path fill="none" stroke="#000000" d="M208.1076,-122.1965C195.7761,-116.9113 189.8304,-106 171.5,-106"/>
<polygon fill="#000000" stroke="#000000" points="214.6476,-123.4704 221.8117,-128.5336 218.5738,-124.2352 222.5,-125 222.5,-125 222.5,-125 218.5738,-124.2352 223.1883,-121.4664 214.6476,-123.4704 214.6476,-123.4704"/>
<ellipse fill="none" stroke="#000000" cx="211.5066" cy="-122.8585" rx="3.2" ry="3.2"/>
</g>
<!-- line -->
<g id="node3" class="node">
<title>line</title>
<g id="a_node3"><a xlink:href="../../tables/line.html" xlink:title="line" target="_top">
<polygon fill="#ffffff" stroke="transparent" points="39,-160 39,-222 140,-222 140,-160 39,-160"/>
<polygon fill="#f5f5f5" stroke="transparent" points="39.5,-200 39.5,-222 140.5,-222 140.5,-200 39.5,-200"/>
<polygon fill="none" stroke="#000000" points="39.5,-200 39.5,-222 140.5,-222 140.5,-200 39.5,-200"/>
<text text-anchor="start" x="44.5" y="-209.2" font-family="Helvetica,sans-Serif" font-weight="bold" font-size="11.00" fill="#000000">line</text>
<text text-anchor="start" x="105.5" y="-208.2" font-family="Helvetica,sans-Serif" font-size="11.00" fill="#000000">[table]</text>
<polygon fill="none" stroke="#000000" points="39.5,-178 39.5,-200 140.5,-200 140.5,-178 39.5,-178"/>
<image xlink:href="../../images/primaryKeys.png" width="11px" height="12px" preserveAspectRatio="xMinYMin meet" x="44.5" y="-195"/>
<text text-anchor="start" x="78.5" y="-186.2" font-family="Helvetica,sans-Serif" font-size="11.00" fill="#000000">line_id</text>
<polygon fill="#ffffff" stroke="transparent" points="39.5,-160 39.5,-178 52.5,-178 52.5,-160 39.5,-160"/>
<polygon fill="none" stroke="#000000" points="39.5,-160 39.5,-178 52.5,-178 52.5,-160 39.5,-160"/>
<text text-anchor="start" x="42.5" y="-166.2" font-family="Helvetica,sans-Serif" font-size="11.00" fill="#000000"> &#160;</text>
<polygon fill="#ffffff" stroke="transparent" points="52.5,-160 52.5,-178 118.5,-178 118.5,-160 52.5,-160"/>
<polygon fill="none" stroke="#000000" points="52.5,-160 52.5,-178 118.5,-178 118.5,-160 52.5,-160"/>
<text text-anchor="start" x="55.5" y="-166.2" font-family="Helvetica,sans-Serif" font-size="11.00" fill="#000000">55,350 rows</text>
<polygon fill="#ffffff" stroke="transparent" points="118.5,-160 118.5,-178 140.5,-178 140.5,-160 118.5,-160"/>
<polygon fill="none" stroke="#000000" points="118.5,-160 118.5,-178 140.5,-178 140.5,-160 118.5,-160"/>
<text text-anchor="start" x="121.5" y="-166.2" font-family="Helvetica,sans-Serif" font-size="11.00" fill="#000000">3 &gt;</text>
</a>
</g>
</g>
<!-- line_data&#45;&gt;line -->
<g id="edge2" class="edge">
<title>line_data:w&#45;&gt;line:e</title>
<path fill="none" stroke="#000000" d="M207.9641,-170.1326C182.3332,-174.3635 172.591,-189 140.5,-189"/>
<polygon fill="#000000" stroke="#000000" points="214.5242,-169.6215 222.7797,-172.5891 218.5121,-169.3107 222.5,-169 222.5,-169 222.5,-169 218.5121,-169.3107 222.2203,-165.4109 214.5242,-169.6215 214.5242,-169.6215"/>
<ellipse fill="none" stroke="#000000" cx="211.3338" cy="-169.8701" rx="3.2" ry="3.2"/>
</g>
<!-- line_data_owner -->
<g id="node4" class="node">
<title>line_data_owner</title>
<g id="a_node4"><a xlink:href="../../tables/line_data_owner.html" xlink:title="line_data_owner" target="_top">
<polygon fill="#ffffff" stroke="transparent" points="456,-118 456,-224 589,-224 589,-118 456,-118"/>
<polygon fill="#f5f5f5" stroke="transparent" points="456.5,-202 456.5,-224 589.5,-224 589.5,-202 456.5,-202"/>
<polygon fill="none" stroke="#000000" points="456.5,-202 456.5,-224 589.5,-224 589.5,-202 456.5,-202"/>
<text text-anchor="start" x="461.5" y="-211.2" font-family="Helvetica,sans-Serif" font-weight="bold" font-size="11.00" fill="#000000">line_data_owner</text>
<text text-anchor="start" x="554.5" y="-210.2" font-family="Helvetica,sans-Serif" font-size="11.00" fill="#000000">[table]</text>
<polygon fill="none" stroke="#000000" points="456.5,-180 456.5,-202 589.5,-202 589.5,-180 456.5,-180"/>
<image xlink:href="../../images/primaryKeys.png" width="11px" height="12px" preserveAspectRatio="xMinYMin meet" x="461.5" y="-197"/>
<text text-anchor="start" x="476.5" y="-188.2" font-family="Helvetica,sans-Serif" font-size="11.00" fill="#000000">line_data_id</text>
<polygon fill="#ffffff" stroke="transparent" points="456.5,-158 456.5,-180 589.5,-180 589.5,-158 456.5,-158"/>
<polygon fill="none" stroke="#000000" points="456.5,-158 456.5,-180 589.5,-180 589.5,-158 456.5,-158"/>
<image xlink:href="../../images/foreignKeys.png" width="11px" height="12px" preserveAspectRatio="xMinYMin meet" x="461.5" y="-175"/>
<text text-anchor="start" x="476.5" y="-166.2" font-family="Helvetica,sans-Serif" font-size="11.00" fill="#000000">edition_editor_id</text>
<polygon fill="none" stroke="#000000" points="456.5,-136 456.5,-158 589.5,-158 589.5,-136 456.5,-136"/>
<image xlink:href="../../images/primaryKeys.png" width="11px" height="12px" preserveAspectRatio="xMinYMin meet" x="461.5" y="-153"/>
<text text-anchor="start" x="476.5" y="-144.2" font-family="Helvetica,sans-Serif" font-size="11.00" fill="#000000">edition_id</text>
<polygon fill="#ffffff" stroke="transparent" points="456.5,-118 456.5,-136 494.5,-136 494.5,-118 456.5,-118"/>
<polygon fill="none" stroke="#000000" points="456.5,-118 456.5,-136 494.5,-136 494.5,-118 456.5,-118"/>
<text text-anchor="start" x="459.5" y="-124.2" font-family="Helvetica,sans-Serif" font-size="11.00" fill="#000000">&lt; 3</text>
<polygon fill="#ffffff" stroke="transparent" points="494.5,-118 494.5,-136 568.5,-136 568.5,-118 494.5,-118"/>
<polygon fill="none" stroke="#000000" points="494.5,-118 494.5,-136 568.5,-136 568.5,-118 494.5,-118"/>
<text text-anchor="start" x="505.5" y="-124.2" font-family="Helvetica,sans-Serif" font-size="11.00" fill="#000000">54,780 rows</text>
<polygon fill="#ffffff" stroke="transparent" points="568.5,-118 568.5,-136 589.5,-136 589.5,-118 568.5,-118"/>
<polygon fill="none" stroke="#000000" points="568.5,-118 568.5,-136 589.5,-136 589.5,-118 568.5,-118"/>
<text text-anchor="start" x="579.5" y="-124.2" font-family="Helvetica,sans-Serif" font-size="11.00" fill="#000000"> &#160;</text>
</a>
</g>
</g>
<!-- line_data_owner&#45;&gt;line_data -->
<g id="edge3" class="edge">
<title>line_data_owner:w&#45;&gt;line_data:e</title>
<path fill="none" stroke="#000000" d="M441.776,-191C429.7815,-191 422.3229,-191 405.5,-191"/>
<polygon fill="#000000" stroke="#000000" points="448.5,-191.0001 456.5,-194.6 452.5,-191 456.5,-191 456.5,-191 456.5,-191 452.5,-191 456.5,-187.4 448.5,-191.0001 448.5,-191.0001"/>
<ellipse fill="none" stroke="#000000" cx="445.3" cy="-191.0001" rx="3.2" ry="3.2"/>
</g>
</g>
</svg>
