<?xml version="1.0" encoding="UTF-8" standalone="no"?>
<!DOCTYPE svg PUBLIC "-//W3C//DTD SVG 1.1//EN"
 "http://www.w3.org/Graphics/SVG/1.1/DTD/svg11.dtd">
<!-- Generated by graphviz version 2.40.1 (20161225.0304)
 -->
<!-- Title: oneDegreeRelationshipsDiagramImplied Pages: 1 -->
<svg width="637pt" height="317pt"
 viewBox="0.00 0.00 637.00 317.00" xmlns="http://www.w3.org/2000/svg" xmlns:xlink="http://www.w3.org/1999/xlink">
<g id="graph0" class="graph" transform="scale(1 1) rotate(0) translate(4 313)">
<title>oneDegreeRelationshipsDiagramImplied</title>
<polygon fill="#ffffff" stroke="transparent" points="-4,4 -4,-313 633,-313 633,4 -4,4"/>
<text text-anchor="middle" x="71.5" y="-7.2" font-family="Helvetica,sans-Serif" font-size="11.00" fill="#000000">Generated by SchemaSpy</text>
<!-- line_to_sign -->
<g id="node1" class="node">
<title>line_to_sign</title>
<g id="a_node1"><a xlink:href="../../tables/line_to_sign.html" xlink:title="line_to_sign" target="_top">
<polygon fill="#ffffff" stroke="transparent" points="220,-136 220,-268 424,-268 424,-136 220,-136"/>
<polygon fill="#f5f5f5" stroke="transparent" points="222,-244 222,-266 422,-266 422,-244 222,-244"/>
<polygon fill="none" stroke="#000000" points="222,-244 222,-266 422,-266 422,-244 222,-244"/>
<text text-anchor="start" x="227" y="-253.2" font-family="Helvetica,sans-Serif" font-weight="bold" font-size="11.00" fill="#000000">line_to_sign</text>
<text text-anchor="start" x="387" y="-252.2" font-family="Helvetica,sans-Serif" font-size="11.00" fill="#000000">[table]</text>
<polygon fill="none" stroke="#000000" points="222,-222 222,-244 340,-244 340,-222 222,-222"/>
<image xlink:href="../../images/primaryKeys.png" width="11px" height="12px" preserveAspectRatio="xMinYMin meet" x="227" y="-239"/>
<text text-anchor="start" x="242" y="-230.2" font-family="Helvetica,sans-Serif" font-size="11.00" fill="#000000">line_to_sign_id</text>
<polygon fill="none" stroke="#000000" points="340,-222 340,-244 422,-244 422,-222 340,-222"/>
<text text-anchor="start" x="343" y="-230.2" font-family="Helvetica,sans-Serif" font-size="11.00" fill="#000000">int unsigned[10]</text>
<polygon fill="#ffffff" stroke="transparent" points="222,-200 222,-222 340,-222 340,-200 222,-200"/>
<polygon fill="none" stroke="#000000" points="222,-200 222,-222 340,-222 340,-200 222,-200"/>
<image xlink:href="../../images/foreignKeys.png" width="11px" height="12px" preserveAspectRatio="xMinYMin meet" x="227" y="-217"/>
<text text-anchor="start" x="242" y="-208.2" font-family="Helvetica,sans-Serif" font-size="11.00" fill="#000000">sign_id</text>
<polygon fill="none" stroke="#000000" points="340,-200 340,-222 422,-222 422,-200 340,-200"/>
<text text-anchor="start" x="343" y="-208.2" font-family="Helvetica,sans-Serif" font-size="11.00" fill="#000000">int unsigned[10]</text>
<polygon fill="#ffffff" stroke="transparent" points="222,-178 222,-200 340,-200 340,-178 222,-178"/>
<polygon fill="none" stroke="#000000" points="222,-178 222,-200 340,-200 340,-178 222,-178"/>
<image xlink:href="../../images/foreignKeys.png" width="11px" height="12px" preserveAspectRatio="xMinYMin meet" x="227" y="-195"/>
<text text-anchor="start" x="242" y="-186.2" font-family="Helvetica,sans-Serif" font-size="11.00" fill="#000000">line_id</text>
<polygon fill="none" stroke="#000000" points="340,-178 340,-200 422,-200 422,-178 340,-178"/>
<text text-anchor="start" x="343" y="-186.2" font-family="Helvetica,sans-Serif" font-size="11.00" fill="#000000">int unsigned[10]</text>
<polygon fill="#ffffff" stroke="transparent" points="222,-156 222,-178 340,-178 340,-156 222,-156"/>
<polygon fill="none" stroke="#000000" points="222,-156 222,-178 340,-178 340,-156 222,-156"/>
<image xlink:href="../../images/foreignKeys.png" width="11px" height="12px" preserveAspectRatio="xMinYMin meet" x="227" y="-173"/>
<text text-anchor="start" x="242" y="-164.2" font-family="Helvetica,sans-Serif" font-size="11.00" fill="#000000">creator_id</text>
<polygon fill="none" stroke="#000000" points="340,-156 340,-178 422,-178 422,-156 340,-156"/>
<text text-anchor="start" x="343" y="-164.2" font-family="Helvetica,sans-Serif" font-size="11.00" fill="#000000">int unsigned[10]</text>
<polygon fill="#ffffff" stroke="transparent" points="222,-138 222,-156 251,-156 251,-138 222,-138"/>
<polygon fill="none" stroke="#000000" points="222,-138 222,-156 251,-156 251,-138 222,-138"/>
<text text-anchor="start" x="225" y="-144.2" font-family="Helvetica,sans-Serif" font-size="11.00" fill="#000000">&lt; 3</text>
<polygon fill="#ffffff" stroke="transparent" points="251,-138 251,-156 340,-156 340,-138 251,-138"/>
<polygon fill="none" stroke="#000000" points="251,-138 251,-156 340,-156 340,-138 251,-138"/>
<text text-anchor="start" x="262" y="-144.2" font-family="Helvetica,sans-Serif" font-size="11.00" fill="#000000">1,730,080 rows</text>
<polygon fill="#ffffff" stroke="transparent" points="340,-138 340,-156 422,-156 422,-138 340,-138"/>
<polygon fill="none" stroke="#000000" points="340,-138 340,-156 422,-156 422,-138 340,-138"/>
<text text-anchor="start" x="403" y="-144.2" font-family="Helvetica,sans-Serif" font-size="11.00" fill="#000000">1 &gt;</text>
<polygon fill="none" stroke="#000000" stroke-width="2" points="221,-137 221,-267 423,-267 423,-137 221,-137"/>
</a>
</g>
</g>
<!-- user -->
<g id="node2" class="node">
<title>user</title>
<g id="a_node2"><a xlink:href="../../tables/user.html" xlink:title="user" target="_top">
<polygon fill="#ffffff" stroke="transparent" points="8,-37 8,-139 171,-139 171,-37 8,-37"/>
<polygon fill="#f5f5f5" stroke="transparent" points="8.5,-117 8.5,-139 171.5,-139 171.5,-117 8.5,-117"/>
<polygon fill="none" stroke="#000000" points="8.5,-117 8.5,-139 171.5,-139 171.5,-117 8.5,-117"/>
<text text-anchor="start" x="13.5" y="-126.2" font-family="Helvetica,sans-Serif" font-weight="bold" font-size="11.00" fill="#000000">user</text>
<text text-anchor="start" x="136.5" y="-125.2" font-family="Helvetica,sans-Serif" font-size="11.00" fill="#000000">[table]</text>
<polygon fill="none" stroke="#000000" points="8.5,-95 8.5,-117 171.5,-117 171.5,-95 8.5,-95"/>
<image xlink:href="../../images/primaryKeys.png" width="11px" height="12px" preserveAspectRatio="xMinYMin meet" x="13.5" y="-112"/>
<text text-anchor="start" x="28.5" y="-103.2" font-family="Helvetica,sans-Serif" font-size="11.00" fill="#000000">user_id</text>
<polygon fill="#ffffff" stroke="transparent" points="8.5,-73 8.5,-95 171.5,-95 171.5,-73 8.5,-73"/>
<polygon fill="none" stroke="#000000" points="8.5,-73 8.5,-95 171.5,-95 171.5,-73 8.5,-73"/>
<text text-anchor="start" x="28.5" y="-81.2" font-family="Helvetica,sans-Serif" font-size="11.00" fill="#000000">email</text>
<polygon fill="none" stroke="#000000" points="8.5,-55 8.5,-73 171.5,-73 171.5,-55 8.5,-55"/>
<text text-anchor="start" x="11.5" y="-61.2" font-family="Helvetica,sans-Serif" font-size="11.00" fill="#000000">...</text>
<polygon fill="#ffffff" stroke="transparent" points="8.5,-37 8.5,-55 62.5,-55 62.5,-37 8.5,-37"/>
<polygon fill="none" stroke="#000000" points="8.5,-37 8.5,-55 62.5,-55 62.5,-37 8.5,-37"/>
<text text-anchor="start" x="11.5" y="-43.2" font-family="Helvetica,sans-Serif" font-size="11.00" fill="#000000"> &#160;</text>
<polygon fill="#ffffff" stroke="transparent" points="62.5,-37 62.5,-55 122.5,-55 122.5,-37 62.5,-37"/>
<polygon fill="none" stroke="#000000" points="62.5,-37 62.5,-55 122.5,-55 122.5,-37 62.5,-37"/>
<text text-anchor="start" x="86.5" y="-43.2" font-family="Helvetica,sans-Serif" font-size="11.00" fill="#000000">3 rows</text>
<polygon fill="#ffffff" stroke="transparent" points="122.5,-37 122.5,-55 171.5,-55 171.5,-37 122.5,-37"/>
<polygon fill="none" stroke="#000000" points="122.5,-37 122.5,-55 171.5,-55 171.5,-37 122.5,-37"/>
<text text-anchor="start" x="146.5" y="-43.2" font-family="Helvetica,sans-Serif" font-size="11.00" fill="#000000">40 &gt;</text>
</a>
</g>
</g>
<!-- line_to_sign&#45;&gt;user -->
<g id="edge1" class="edge">
<title>line_to_sign:w&#45;&gt;user:e</title>
<path fill="none" stroke="#000000" d="M208.1747,-162.2134C192.0145,-147.8333 200.6468,-106 171.5,-106"/>
<polygon fill="#000000" stroke="#000000" points="214.4403,-164.3826 220.8222,-170.4019 218.2201,-165.6913 222,-167 222,-167 222,-167 218.2201,-165.6913 223.1778,-163.5981 214.4403,-164.3826 214.4403,-164.3826"/>
<ellipse fill="none" stroke="#000000" cx="211.4164" cy="-163.3357" rx="3.2" ry="3.2"/>
</g>
<!-- line -->
<g id="node3" class="node">
<title>line</title>
<g id="a_node3"><a xlink:href="../../tables/line.html" xlink:title="line" target="_top">
<polygon fill="#ffffff" stroke="transparent" points="39,-160 39,-222 140,-222 140,-160 39,-160"/>
<polygon fill="#f5f5f5" stroke="transparent" points="39.5,-200 39.5,-222 140.5,-222 140.5,-200 39.5,-200"/>
<polygon fill="none" stroke="#000000" points="39.5,-200 39.5,-222 140.5,-222 140.5,-200 39.5,-200"/>
<text text-anchor="start" x="44.5" y="-209.2" font-family="Helvetica,sans-Serif" font-weight="bold" font-size="11.00" fill="#000000">line</text>
<text text-anchor="start" x="105.5" y="-208.2" font-family="Helvetica,sans-Serif" font-size="11.00" fill="#000000">[table]</text>
<polygon fill="none" stroke="#000000" points="39.5,-178 39.5,-200 140.5,-200 140.5,-178 39.5,-178"/>
<image xlink:href="../../images/primaryKeys.png" width="11px" height="12px" preserveAspectRatio="xMinYMin meet" x="44.5" y="-195"/>
<text text-anchor="start" x="78.5" y="-186.2" font-family="Helvetica,sans-Serif" font-size="11.00" fill="#000000">line_id</text>
<polygon fill="#ffffff" stroke="transparent" points="39.5,-160 39.5,-178 52.5,-178 52.5,-160 39.5,-160"/>
<polygon fill="none" stroke="#000000" points="39.5,-160 39.5,-178 52.5,-178 52.5,-160 39.5,-160"/>
<text text-anchor="start" x="42.5" y="-166.2" font-family="Helvetica,sans-Serif" font-size="11.00" fill="#000000"> &#160;</text>
<polygon fill="#ffffff" stroke="transparent" points="52.5,-160 52.5,-178 118.5,-178 118.5,-160 52.5,-160"/>
<polygon fill="none" stroke="#000000" points="52.5,-160 52.5,-178 118.5,-178 118.5,-160 52.5,-160"/>
<text text-anchor="start" x="55.5" y="-166.2" font-family="Helvetica,sans-Serif" font-size="11.00" fill="#000000">55,350 rows</text>
<polygon fill="#ffffff" stroke="transparent" points="118.5,-160 118.5,-178 140.5,-178 140.5,-160 118.5,-160"/>
<polygon fill="none" stroke="#000000" points="118.5,-160 118.5,-178 140.5,-178 140.5,-160 118.5,-160"/>
<text text-anchor="start" x="121.5" y="-166.2" font-family="Helvetica,sans-Serif" font-size="11.00" fill="#000000">3 &gt;</text>
</a>
</g>
</g>
<!-- line_to_sign&#45;&gt;line -->
<g id="edge2" class="edge">
<title>line_to_sign:w&#45;&gt;line:e</title>
<path fill="none" stroke="#000000" d="M207.4878,-189C182.4908,-189 171.3455,-189 140.5,-189"/>
<polygon fill="#000000" stroke="#000000" points="214,-189.0001 222,-192.6 218,-189 222,-189 222,-189 222,-189 218,-189 222,-185.4 214,-189.0001 214,-189.0001"/>
<ellipse fill="none" stroke="#000000" cx="210.8" cy="-189.0001" rx="3.2" ry="3.2"/>
</g>
<!-- sign -->
<g id="node4" class="node">
<title>sign</title>
<g id="a_node4"><a xlink:href="../../tables/sign.html" xlink:title="sign" target="_top">
<polygon fill="#ffffff" stroke="transparent" points="31.5,-243 31.5,-305 147.5,-305 147.5,-243 31.5,-243"/>
<polygon fill="#f5f5f5" stroke="transparent" points="31.5,-283 31.5,-305 147.5,-305 147.5,-283 31.5,-283"/>
<polygon fill="none" stroke="#000000" points="31.5,-283 31.5,-305 147.5,-305 147.5,-283 31.5,-283"/>
<text text-anchor="start" x="36.5" y="-292.2" font-family="Helvetica,sans-Serif" font-weight="bold" font-size="11.00" fill="#000000">sign</text>
<text text-anchor="start" x="112.5" y="-291.2" font-family="Helvetica,sans-Serif" font-size="11.00" fill="#000000">[table]</text>
<polygon fill="none" stroke="#000000" points="31.5,-261 31.5,-283 147.5,-283 147.5,-261 31.5,-261"/>
<image xlink:href="../../images/primaryKeys.png" width="11px" height="12px" preserveAspectRatio="xMinYMin meet" x="36.5" y="-278"/>
<text text-anchor="start" x="75.5" y="-269.2" font-family="Helvetica,sans-Serif" font-size="11.00" fill="#000000">sign_id</text>
<polygon fill="#ffffff" stroke="transparent" points="31.5,-243 31.5,-261 44.5,-261 44.5,-243 31.5,-243"/>
<polygon fill="none" stroke="#000000" points="31.5,-243 31.5,-261 44.5,-261 44.5,-243 31.5,-243"/>
<text text-anchor="start" x="34.5" y="-249.2" font-family="Helvetica,sans-Serif" font-size="11.00" fill="#000000"> &#160;</text>
<polygon fill="#ffffff" stroke="transparent" points="44.5,-243 44.5,-261 125.5,-261 125.5,-243 44.5,-243"/>
<polygon fill="none" stroke="#000000" points="44.5,-243 44.5,-261 125.5,-261 125.5,-243 44.5,-243"/>
<text text-anchor="start" x="47.5" y="-249.2" font-family="Helvetica,sans-Serif" font-size="11.00" fill="#000000">1,732,050 rows</text>
<polygon fill="#ffffff" stroke="transparent" points="125.5,-243 125.5,-261 147.5,-261 147.5,-243 125.5,-243"/>
<polygon fill="none" stroke="#000000" points="125.5,-243 125.5,-261 147.5,-261 147.5,-243 125.5,-243"/>
<text text-anchor="start" x="128.5" y="-249.2" font-family="Helvetica,sans-Serif" font-size="11.00" fill="#000000">2 &gt;</text>
</a>
</g>
</g>
<!-- line_to_sign&#45;&gt;sign -->
<g id="edge3" class="edge">
<title>line_to_sign:w&#45;&gt;sign:e</title>
<path fill="none" stroke="#000000" d="M207.548,-213.9422C181.2006,-226.1271 184.6107,-272 147.5,-272"/>
<polygon fill="#000000" stroke="#000000" points="214.1608,-212.596 222.7182,-214.5276 218.0804,-211.798 222,-211 222,-211 222,-211 218.0804,-211.798 221.2818,-207.4724 214.1608,-212.596 214.1608,-212.596"/>
<ellipse fill="none" stroke="#000000" cx="211.0251" cy="-213.2343" rx="3.2" ry="3.2"/>
</g>
<!-- line_to_sign_owner -->
<g id="node5" class="node">
<title>line_to_sign_owner</title>
<g id="a_node5"><a xlink:href="../../tables/line_to_sign_owner.html" xlink:title="line_to_sign_owner" target="_top">
<polygon fill="#ffffff" stroke="transparent" points="473,-160 473,-266 621,-266 621,-160 473,-160"/>
<polygon fill="#f5f5f5" stroke="transparent" points="473,-244 473,-266 621,-266 621,-244 473,-244"/>
<polygon fill="none" stroke="#000000" points="473,-244 473,-266 621,-266 621,-244 473,-244"/>
<text text-anchor="start" x="478" y="-253.2" font-family="Helvetica,sans-Serif" font-weight="bold" font-size="11.00" fill="#000000">line_to_sign_owner</text>
<text text-anchor="start" x="586" y="-252.2" font-family="Helvetica,sans-Serif" font-size="11.00" fill="#000000">[table]</text>
<polygon fill="none" stroke="#000000" points="473,-222 473,-244 621,-244 621,-222 473,-222"/>
<image xlink:href="../../images/primaryKeys.png" width="11px" height="12px" preserveAspectRatio="xMinYMin meet" x="478" y="-239"/>
<text text-anchor="start" x="493" y="-230.2" font-family="Helvetica,sans-Serif" font-size="11.00" fill="#000000">line_to_sign_id</text>
<polygon fill="#ffffff" stroke="transparent" points="473,-200 473,-222 621,-222 621,-200 473,-200"/>
<polygon fill="none" stroke="#000000" points="473,-200 473,-222 621,-222 621,-200 473,-200"/>
<image xlink:href="../../images/foreignKeys.png" width="11px" height="12px" preserveAspectRatio="xMinYMin meet" x="478" y="-217"/>
<text text-anchor="start" x="493" y="-208.2" font-family="Helvetica,sans-Serif" font-size="11.00" fill="#000000">edition_editor_id</text>
<polygon fill="none" stroke="#000000" points="473,-178 473,-200 621,-200 621,-178 473,-178"/>
<image xlink:href="../../images/primaryKeys.png" width="11px" height="12px" preserveAspectRatio="xMinYMin meet" x="478" y="-195"/>
<text text-anchor="start" x="493" y="-186.2" font-family="Helvetica,sans-Serif" font-size="11.00" fill="#000000">edition_id</text>
<polygon fill="#ffffff" stroke="transparent" points="473,-160 473,-178 511,-178 511,-160 473,-160"/>
<polygon fill="none" stroke="#000000" points="473,-160 473,-178 511,-178 511,-160 473,-160"/>
<text text-anchor="start" x="476" y="-166.2" font-family="Helvetica,sans-Serif" font-size="11.00" fill="#000000">&lt; 3</text>
<polygon fill="#ffffff" stroke="transparent" points="511,-160 511,-178 600,-178 600,-160 511,-160"/>
<polygon fill="none" stroke="#000000" points="511,-160 511,-178 600,-178 600,-160 511,-160"/>
<text text-anchor="start" x="522" y="-166.2" font-family="Helvetica,sans-Serif" font-size="11.00" fill="#000000">1,730,550 rows</text>
<polygon fill="#ffffff" stroke="transparent" points="600,-160 600,-178 621,-178 621,-160 600,-160"/>
<polygon fill="none" stroke="#000000" points="600,-160 600,-178 621,-178 621,-160 600,-160"/>
<text text-anchor="start" x="611" y="-166.2" font-family="Helvetica,sans-Serif" font-size="11.00" fill="#000000"> &#160;</text>
</a>
</g>
</g>
<!-- line_to_sign_owner&#45;&gt;line_to_sign -->
<g id="edge4" class="edge">
<title>line_to_sign_owner:w&#45;&gt;line_to_sign:e</title>
<path fill="none" stroke="#000000" d="M458.276,-233C446.2815,-233 438.8229,-233 422,-233"/>
<polygon fill="#000000" stroke="#000000" points="465,-233.0001 473,-236.6 469,-233 473,-233 473,-233 473,-233 469,-233 473,-229.4 465,-233.0001 465,-233.0001"/>
<ellipse fill="none" stroke="#000000" cx="461.8" cy="-233.0001" rx="3.2" ry="3.2"/>
</g>
</g>
</svg>
