<?xml version="1.0" encoding="UTF-8" standalone="no"?>
<!DOCTYPE svg PUBLIC "-//W3C//DTD SVG 1.1//EN"
 "http://www.w3.org/Graphics/SVG/1.1/DTD/svg11.dtd">
<!-- Generated by graphviz version 2.40.1 (20161225.0304)
 -->
<!-- Title: oneDegreeRelationshipsDiagramImplied Pages: 1 -->
<svg width="609pt" height="380pt"
 viewBox="0.00 0.00 609.00 380.00" xmlns="http://www.w3.org/2000/svg" xmlns:xlink="http://www.w3.org/1999/xlink">
<g id="graph0" class="graph" transform="scale(1 1) rotate(0) translate(4 376)">
<title>oneDegreeRelationshipsDiagramImplied</title>
<polygon fill="#ffffff" stroke="transparent" points="-4,4 -4,-376 605,-376 605,4 -4,4"/>
<text text-anchor="middle" x="71.5" y="-7.2" font-family="Helvetica,sans-Serif" font-size="11.00" fill="#000000">Generated by SchemaSpy</text>
<!-- edition_editor -->
<g id="node1" class="node">
<title>edition_editor</title>
<g id="a_node1"><a xlink:href="../../tables/edition_editor.html" xlink:title="edition_editor" target="_top">
<polygon fill="#ffffff" stroke="transparent" points="192,-95 192,-219 325,-219 325,-95 192,-95"/>
<polygon fill="#f5f5f5" stroke="transparent" points="192.5,-197 192.5,-219 325.5,-219 325.5,-197 192.5,-197"/>
<polygon fill="none" stroke="#000000" points="192.5,-197 192.5,-219 325.5,-219 325.5,-197 192.5,-197"/>
<text text-anchor="start" x="197.5" y="-206.2" font-family="Helvetica,sans-Serif" font-weight="bold" font-size="11.00" fill="#000000">edition_editor</text>
<text text-anchor="start" x="290.5" y="-205.2" font-family="Helvetica,sans-Serif" font-size="11.00" fill="#000000">[table]</text>
<polygon fill="none" stroke="#000000" points="192.5,-175 192.5,-197 325.5,-197 325.5,-175 192.5,-175"/>
<image xlink:href="../../images/primaryKeys.png" width="11px" height="12px" preserveAspectRatio="xMinYMin meet" x="197.5" y="-192"/>
<text text-anchor="start" x="212.5" y="-183.2" font-family="Helvetica,sans-Serif" font-size="11.00" fill="#000000">edition_editor_id</text>
<polygon fill="#ffffff" stroke="transparent" points="192.5,-153 192.5,-175 325.5,-175 325.5,-153 192.5,-153"/>
<polygon fill="none" stroke="#000000" points="192.5,-153 192.5,-175 325.5,-175 325.5,-153 192.5,-153"/>
<image xlink:href="../../images/foreignKeys.png" width="11px" height="12px" preserveAspectRatio="xMinYMin meet" x="197.5" y="-170"/>
<text text-anchor="start" x="212.5" y="-161.2" font-family="Helvetica,sans-Serif" font-size="11.00" fill="#000000">user_id</text>
<polygon fill="#ffffff" stroke="transparent" points="192.5,-131 192.5,-153 325.5,-153 325.5,-131 192.5,-131"/>
<polygon fill="none" stroke="#000000" points="192.5,-131 192.5,-153 325.5,-153 325.5,-131 192.5,-131"/>
<image xlink:href="../../images/foreignKeys.png" width="11px" height="12px" preserveAspectRatio="xMinYMin meet" x="197.5" y="-148"/>
<text text-anchor="start" x="212.5" y="-139.2" font-family="Helvetica,sans-Serif" font-size="11.00" fill="#000000">edition_id</text>
<polygon fill="none" stroke="#000000" points="192.5,-113 192.5,-131 325.5,-131 325.5,-113 192.5,-113"/>
<text text-anchor="start" x="195.5" y="-119.2" font-family="Helvetica,sans-Serif" font-size="11.00" fill="#000000">...</text>
<polygon fill="#ffffff" stroke="transparent" points="192.5,-95 192.5,-113 225.5,-113 225.5,-95 192.5,-95"/>
<polygon fill="none" stroke="#000000" points="192.5,-95 192.5,-113 225.5,-113 225.5,-95 192.5,-95"/>
<text text-anchor="start" x="195.5" y="-101.2" font-family="Helvetica,sans-Serif" font-size="11.00" fill="#000000">&lt; 2</text>
<polygon fill="#ffffff" stroke="transparent" points="225.5,-95 225.5,-113 291.5,-113 291.5,-95 225.5,-95"/>
<polygon fill="none" stroke="#000000" points="225.5,-95 225.5,-113 291.5,-113 291.5,-95 225.5,-95"/>
<text text-anchor="start" x="234.5" y="-101.2" font-family="Helvetica,sans-Serif" font-size="11.00" fill="#000000">1,645 rows</text>
<polygon fill="#ffffff" stroke="transparent" points="291.5,-95 291.5,-113 325.5,-113 325.5,-95 291.5,-95"/>
<polygon fill="none" stroke="#000000" points="291.5,-95 291.5,-113 325.5,-113 325.5,-95 291.5,-95"/>
<text text-anchor="start" x="300.5" y="-101.2" font-family="Helvetica,sans-Serif" font-size="11.00" fill="#000000">30 &gt;</text>
</a>
</g>
</g>
<!-- edition -->
<g id="node2" class="node">
<title>edition</title>
<g id="a_node2"><a xlink:href="../../tables/edition.html" xlink:title="edition" target="_top">
<polygon fill="#ffffff" stroke="transparent" points="8,-37 8,-139 143,-139 143,-37 8,-37"/>
<polygon fill="#f5f5f5" stroke="transparent" points="8.5,-117 8.5,-139 143.5,-139 143.5,-117 8.5,-117"/>
<polygon fill="none" stroke="#000000" points="8.5,-117 8.5,-139 143.5,-139 143.5,-117 8.5,-117"/>
<text text-anchor="start" x="13.5" y="-126.2" font-family="Helvetica,sans-Serif" font-weight="bold" font-size="11.00" fill="#000000">edition</text>
<text text-anchor="start" x="108.5" y="-125.2" font-family="Helvetica,sans-Serif" font-size="11.00" fill="#000000">[table]</text>
<polygon fill="none" stroke="#000000" points="8.5,-95 8.5,-117 143.5,-117 143.5,-95 8.5,-95"/>
<image xlink:href="../../images/primaryKeys.png" width="11px" height="12px" preserveAspectRatio="xMinYMin meet" x="13.5" y="-112"/>
<text text-anchor="start" x="28.5" y="-103.2" font-family="Helvetica,sans-Serif" font-size="11.00" fill="#000000">edition_id</text>
<polygon fill="#ffffff" stroke="transparent" points="8.5,-73 8.5,-95 143.5,-95 143.5,-73 8.5,-73"/>
<polygon fill="none" stroke="#000000" points="8.5,-73 8.5,-95 143.5,-95 143.5,-73 8.5,-73"/>
<image xlink:href="../../images/foreignKeys.png" width="11px" height="12px" preserveAspectRatio="xMinYMin meet" x="13.5" y="-90"/>
<text text-anchor="start" x="28.5" y="-81.2" font-family="Helvetica,sans-Serif" font-size="11.00" fill="#000000">manuscript_id</text>
<polygon fill="none" stroke="#000000" points="8.5,-55 8.5,-73 143.5,-73 143.5,-55 8.5,-55"/>
<text text-anchor="start" x="11.5" y="-61.2" font-family="Helvetica,sans-Serif" font-size="11.00" fill="#000000">...</text>
<polygon fill="#ffffff" stroke="transparent" points="8.5,-37 8.5,-55 42.5,-55 42.5,-37 8.5,-37"/>
<polygon fill="none" stroke="#000000" points="8.5,-37 8.5,-55 42.5,-55 42.5,-37 8.5,-37"/>
<text text-anchor="start" x="11.5" y="-43.2" font-family="Helvetica,sans-Serif" font-size="11.00" fill="#000000">&lt; 1</text>
<polygon fill="#ffffff" stroke="transparent" points="42.5,-37 42.5,-55 108.5,-55 108.5,-37 42.5,-37"/>
<polygon fill="none" stroke="#000000" points="42.5,-37 42.5,-55 108.5,-55 108.5,-37 42.5,-37"/>
<text text-anchor="start" x="51.5" y="-43.2" font-family="Helvetica,sans-Serif" font-size="11.00" fill="#000000">1,645 rows</text>
<polygon fill="#ffffff" stroke="transparent" points="108.5,-37 108.5,-55 143.5,-55 143.5,-37 108.5,-37"/>
<polygon fill="none" stroke="#000000" points="108.5,-37 108.5,-55 143.5,-55 143.5,-37 108.5,-37"/>
<text text-anchor="start" x="118.5" y="-43.2" font-family="Helvetica,sans-Serif" font-size="11.00" fill="#000000">32 &gt;</text>
</a>
</g>
</g>
<!-- edition_editor&#45;&gt;edition -->
<g id="edge1" class="edge">
<title>edition_editor:w&#45;&gt;edition:e</title>
<path fill="none" stroke="#000000" d="M178.6983,-137.5857C166.1499,-127.9727 164.6121,-106 143.5,-106"/>
<polygon fill="#000000" stroke="#000000" points="184.8802,-139.5629 191.4033,-145.4289 188.6901,-140.7814 192.5,-142 192.5,-142 192.5,-142 188.6901,-140.7814 193.5967,-138.5711 184.8802,-139.5629 184.8802,-139.5629"/>
<ellipse fill="none" stroke="#000000" cx="181.8323" cy="-138.588" rx="3.2" ry="3.2"/>
</g>
<!-- line_data_owner -->
<g id="node3" class="node">
<title>line_data_owner</title>
<g id="a_node3"><a xlink:href="../../tables/line_data_owner.html" xlink:title="line_data_owner" target="_top">
<polygon fill="#ffffff" stroke="transparent" points="374,-133 374,-243 593,-243 593,-133 374,-133"/>
<polygon fill="#f5f5f5" stroke="transparent" points="376.5,-219 376.5,-241 591.5,-241 591.5,-219 376.5,-219"/>
<polygon fill="none" stroke="#000000" points="376.5,-219 376.5,-241 591.5,-241 591.5,-219 376.5,-219"/>
<text text-anchor="start" x="381.5" y="-228.2" font-family="Helvetica,sans-Serif" font-weight="bold" font-size="11.00" fill="#000000">line_data_owner</text>
<text text-anchor="start" x="556.5" y="-227.2" font-family="Helvetica,sans-Serif" font-size="11.00" fill="#000000">[table]</text>
<polygon fill="none" stroke="#000000" points="376.5,-197 376.5,-219 509.5,-219 509.5,-197 376.5,-197"/>
<image xlink:href="../../images/primaryKeys.png" width="11px" height="12px" preserveAspectRatio="xMinYMin meet" x="381.5" y="-214"/>
<text text-anchor="start" x="396.5" y="-205.2" font-family="Helvetica,sans-Serif" font-size="11.00" fill="#000000">line_data_id</text>
<polygon fill="none" stroke="#000000" points="509.5,-197 509.5,-219 591.5,-219 591.5,-197 509.5,-197"/>
<text text-anchor="start" x="512.5" y="-205.2" font-family="Helvetica,sans-Serif" font-size="11.00" fill="#000000">int unsigned[10]</text>
<polygon fill="#ffffff" stroke="transparent" points="376.5,-175 376.5,-197 509.5,-197 509.5,-175 376.5,-175"/>
<polygon fill="none" stroke="#000000" points="376.5,-175 376.5,-197 509.5,-197 509.5,-175 376.5,-175"/>
<image xlink:href="../../images/foreignKeys.png" width="11px" height="12px" preserveAspectRatio="xMinYMin meet" x="381.5" y="-192"/>
<text text-anchor="start" x="396.5" y="-183.2" font-family="Helvetica,sans-Serif" font-size="11.00" fill="#000000">edition_editor_id</text>
<polygon fill="none" stroke="#000000" points="509.5,-175 509.5,-197 591.5,-197 591.5,-175 509.5,-175"/>
<text text-anchor="start" x="512.5" y="-183.2" font-family="Helvetica,sans-Serif" font-size="11.00" fill="#000000">int unsigned[10]</text>
<polygon fill="none" stroke="#000000" points="376.5,-153 376.5,-175 509.5,-175 509.5,-153 376.5,-153"/>
<image xlink:href="../../images/primaryKeys.png" width="11px" height="12px" preserveAspectRatio="xMinYMin meet" x="381.5" y="-170"/>
<text text-anchor="start" x="396.5" y="-161.2" font-family="Helvetica,sans-Serif" font-size="11.00" fill="#000000">edition_id</text>
<polygon fill="none" stroke="#000000" points="509.5,-153 509.5,-175 591.5,-175 591.5,-153 509.5,-153"/>
<text text-anchor="start" x="512.5" y="-161.2" font-family="Helvetica,sans-Serif" font-size="11.00" fill="#000000">int unsigned[10]</text>
<polygon fill="#ffffff" stroke="transparent" points="376.5,-135 376.5,-153 420.5,-153 420.5,-135 376.5,-135"/>
<polygon fill="none" stroke="#000000" points="376.5,-135 376.5,-153 420.5,-153 420.5,-135 376.5,-135"/>
<text text-anchor="start" x="379.5" y="-141.2" font-family="Helvetica,sans-Serif" font-size="11.00" fill="#000000">&lt; 3</text>
<polygon fill="#ffffff" stroke="transparent" points="420.5,-135 420.5,-153 509.5,-153 509.5,-135 420.5,-135"/>
<polygon fill="none" stroke="#000000" points="420.5,-135 420.5,-153 509.5,-153 509.5,-135 420.5,-135"/>
<text text-anchor="start" x="446.5" y="-141.2" font-family="Helvetica,sans-Serif" font-size="11.00" fill="#000000">54,780 rows</text>
<polygon fill="#ffffff" stroke="transparent" points="509.5,-135 509.5,-153 591.5,-153 591.5,-135 509.5,-135"/>
<polygon fill="none" stroke="#000000" points="509.5,-135 509.5,-153 591.5,-153 591.5,-135 509.5,-135"/>
<text text-anchor="start" x="572.5" y="-141.2" font-family="Helvetica,sans-Serif" font-size="11.00" fill="#000000">0 &gt;</text>
<polygon fill="none" stroke="#000000" stroke-width="2" points="375,-134 375,-242 592,-242 592,-134 375,-134"/>
</a>
</g>
</g>
<!-- line_data_owner&#45;&gt;edition_editor -->
<g id="edge2" class="edge">
<title>line_data_owner:w&#45;&gt;edition_editor:e</title>
<path fill="none" stroke="#000000" d="M361.776,-186C349.7815,-186 342.3229,-186 325.5,-186"/>
<polygon fill="#000000" stroke="#000000" points="368.5,-186.0001 376.5,-189.6 372.5,-186 376.5,-186 376.5,-186 376.5,-186 372.5,-186 376.5,-182.4 368.5,-186.0001 368.5,-186.0001"/>
<ellipse fill="none" stroke="#000000" cx="365.3" cy="-186.0001" rx="3.2" ry="3.2"/>
</g>
<!-- line_data_owner&#45;&gt;edition -->
<g id="edge3" class="edge">
<title>line_data_owner:w&#45;&gt;edition:e</title>
<path fill="none" stroke="#000000" d="M362.5416,-160.2163C344.1605,-146.8233 362.4884,-101.5315 333,-84 276.0778,-50.1585 248.183,-67.6929 184,-84 164.1465,-89.0442 163.9843,-106 143.5,-106"/>
<polygon fill="#000000" stroke="#000000" points="368.7786,-161.9069 375.5581,-167.4746 372.6393,-162.9535 376.5,-164 376.5,-164 376.5,-164 372.6393,-162.9535 377.4419,-160.5254 368.7786,-161.9069 368.7786,-161.9069"/>
<ellipse fill="none" stroke="#000000" cx="365.6901" cy="-161.0697" rx="3.2" ry="3.2"/>
</g>
<!-- line_data -->
<g id="node4" class="node">
<title>line_data</title>
<g id="a_node4"><a xlink:href="../../tables/line_data.html" xlink:title="line_data" target="_top">
<polygon fill="#ffffff" stroke="transparent" points="203.5,-240 203.5,-368 313.5,-368 313.5,-240 203.5,-240"/>
<polygon fill="#f5f5f5" stroke="transparent" points="203.5,-346 203.5,-368 313.5,-368 313.5,-346 203.5,-346"/>
<polygon fill="none" stroke="#000000" points="203.5,-346 203.5,-368 313.5,-368 313.5,-346 203.5,-346"/>
<text text-anchor="start" x="208.5" y="-355.2" font-family="Helvetica,sans-Serif" font-weight="bold" font-size="11.00" fill="#000000">line_data</text>
<text text-anchor="start" x="278.5" y="-354.2" font-family="Helvetica,sans-Serif" font-size="11.00" fill="#000000">[table]</text>
<polygon fill="none" stroke="#000000" points="203.5,-324 203.5,-346 313.5,-346 313.5,-324 203.5,-324"/>
<image xlink:href="../../images/primaryKeys.png" width="11px" height="12px" preserveAspectRatio="xMinYMin meet" x="208.5" y="-341"/>
<text text-anchor="start" x="228.5" y="-332.2" font-family="Helvetica,sans-Serif" font-size="11.00" fill="#000000">line_data_id</text>
<polygon fill="#ffffff" stroke="transparent" points="203.5,-302 203.5,-324 313.5,-324 313.5,-302 203.5,-302"/>
<polygon fill="none" stroke="#000000" points="203.5,-302 203.5,-324 313.5,-324 313.5,-302 203.5,-302"/>
<image xlink:href="../../images/foreignKeys.png" width="11px" height="12px" preserveAspectRatio="xMinYMin meet" x="208.5" y="-319"/>
<text text-anchor="start" x="228.5" y="-310.2" font-family="Helvetica,sans-Serif" font-size="11.00" fill="#000000">line_id</text>
<polygon fill="#ffffff" stroke="transparent" points="203.5,-280 203.5,-302 313.5,-302 313.5,-280 203.5,-280"/>
<polygon fill="none" stroke="#000000" points="203.5,-280 203.5,-302 313.5,-302 313.5,-280 203.5,-280"/>
<text text-anchor="start" x="228.5" y="-288.2" font-family="Helvetica,sans-Serif" font-size="11.00" fill="#000000">name</text>
<polygon fill="#ffffff" stroke="transparent" points="203.5,-258 203.5,-280 313.5,-280 313.5,-258 203.5,-258"/>
<polygon fill="none" stroke="#000000" points="203.5,-258 203.5,-280 313.5,-280 313.5,-258 203.5,-258"/>
<image xlink:href="../../images/foreignKeys.png" width="11px" height="12px" preserveAspectRatio="xMinYMin meet" x="208.5" y="-275"/>
<text text-anchor="start" x="228.5" y="-266.2" font-family="Helvetica,sans-Serif" font-size="11.00" fill="#000000">creator_id</text>
<polygon fill="#ffffff" stroke="transparent" points="203.5,-240 203.5,-258 225.5,-258 225.5,-240 203.5,-240"/>
<polygon fill="none" stroke="#000000" points="203.5,-240 203.5,-258 225.5,-258 225.5,-240 203.5,-240"/>
<text text-anchor="start" x="206.5" y="-246.2" font-family="Helvetica,sans-Serif" font-size="11.00" fill="#000000">&lt; 2</text>
<polygon fill="#ffffff" stroke="transparent" points="225.5,-240 225.5,-258 291.5,-258 291.5,-240 225.5,-240"/>
<polygon fill="none" stroke="#000000" points="225.5,-240 225.5,-258 291.5,-258 291.5,-240 225.5,-240"/>
<text text-anchor="start" x="228.5" y="-246.2" font-family="Helvetica,sans-Serif" font-size="11.00" fill="#000000">54,784 rows</text>
<polygon fill="#ffffff" stroke="transparent" points="291.5,-240 291.5,-258 313.5,-258 313.5,-240 291.5,-240"/>
<polygon fill="none" stroke="#000000" points="291.5,-240 291.5,-258 313.5,-258 313.5,-240 291.5,-240"/>
<text text-anchor="start" x="294.5" y="-246.2" font-family="Helvetica,sans-Serif" font-size="11.00" fill="#000000">1 &gt;</text>
</a>
</g>
</g>
<!-- line_data_owner&#45;&gt;line_data -->
<g id="edge4" class="edge">
<title>line_data_owner:w&#45;&gt;line_data:e</title>
<path fill="none" stroke="#000000" d="M362.3864,-210.8912C323.7981,-229.7952 370.8469,-335 313.5,-335"/>
<polygon fill="#000000" stroke="#000000" points="368.6628,-209.6055 377.2225,-211.5268 372.5814,-208.8028 376.5,-208 376.5,-208 376.5,-208 372.5814,-208.8028 375.7775,-204.4732 368.6628,-209.6055 368.6628,-209.6055"/>
<ellipse fill="none" stroke="#000000" cx="365.5279" cy="-210.2477" rx="3.2" ry="3.2"/>
</g>
</g>
</svg>
