<?xml version="1.0" encoding="UTF-8" standalone="no"?>
<!DOCTYPE svg PUBLIC "-//W3C//DTD SVG 1.1//EN"
 "http://www.w3.org/Graphics/SVG/1.1/DTD/svg11.dtd">
<!-- Generated by graphviz version 2.40.1 (20161225.0304)
 -->
<!-- Title: oneDegreeRelationshipsDiagramImplied Pages: 1 -->
<svg width="433pt" height="620pt"
 viewBox="0.00 0.00 433.00 620.00" xmlns="http://www.w3.org/2000/svg" xmlns:xlink="http://www.w3.org/1999/xlink">
<g id="graph0" class="graph" transform="scale(1 1) rotate(0) translate(4 616)">
<title>oneDegreeRelationshipsDiagramImplied</title>
<polygon fill="#ffffff" stroke="transparent" points="-4,4 -4,-616 429,-616 429,4 -4,4"/>
<text text-anchor="middle" x="71.5" y="-7.2" font-family="Helvetica,sans-Serif" font-size="11.00" fill="#000000">Generated by SchemaSpy</text>
<!-- line_data -->
<g id="node1" class="node">
<title>line_data</title>
<g id="a_node1"><a xlink:href="../../tables/line_data.html" xlink:title="line_data" target="_top">
<polygon fill="#ffffff" stroke="transparent" points="269,-480 269,-608 379,-608 379,-480 269,-480"/>
<polygon fill="#f5f5f5" stroke="transparent" points="269,-586 269,-608 379,-608 379,-586 269,-586"/>
<polygon fill="none" stroke="#000000" points="269,-586 269,-608 379,-608 379,-586 269,-586"/>
<text text-anchor="start" x="274" y="-595.2" font-family="Helvetica,sans-Serif" font-weight="bold" font-size="11.00" fill="#000000">line_data</text>
<text text-anchor="start" x="344" y="-594.2" font-family="Helvetica,sans-Serif" font-size="11.00" fill="#000000">[table]</text>
<polygon fill="none" stroke="#000000" points="269,-564 269,-586 379,-586 379,-564 269,-564"/>
<image xlink:href="../../images/primaryKeys.png" width="11px" height="12px" preserveAspectRatio="xMinYMin meet" x="274" y="-581"/>
<text text-anchor="start" x="294" y="-572.2" font-family="Helvetica,sans-Serif" font-size="11.00" fill="#000000">line_data_id</text>
<polygon fill="#ffffff" stroke="transparent" points="269,-542 269,-564 379,-564 379,-542 269,-542"/>
<polygon fill="none" stroke="#000000" points="269,-542 269,-564 379,-564 379,-542 269,-542"/>
<image xlink:href="../../images/foreignKeys.png" width="11px" height="12px" preserveAspectRatio="xMinYMin meet" x="274" y="-559"/>
<text text-anchor="start" x="294" y="-550.2" font-family="Helvetica,sans-Serif" font-size="11.00" fill="#000000">line_id</text>
<polygon fill="#ffffff" stroke="transparent" points="269,-520 269,-542 379,-542 379,-520 269,-520"/>
<polygon fill="none" stroke="#000000" points="269,-520 269,-542 379,-542 379,-520 269,-520"/>
<text text-anchor="start" x="294" y="-528.2" font-family="Helvetica,sans-Serif" font-size="11.00" fill="#000000">name</text>
<polygon fill="#ffffff" stroke="transparent" points="269,-498 269,-520 379,-520 379,-498 269,-498"/>
<polygon fill="none" stroke="#000000" points="269,-498 269,-520 379,-520 379,-498 269,-498"/>
<image xlink:href="../../images/foreignKeys.png" width="11px" height="12px" preserveAspectRatio="xMinYMin meet" x="274" y="-515"/>
<text text-anchor="start" x="294" y="-506.2" font-family="Helvetica,sans-Serif" font-size="11.00" fill="#000000">creator_id</text>
<polygon fill="#ffffff" stroke="transparent" points="269,-480 269,-498 291,-498 291,-480 269,-480"/>
<polygon fill="none" stroke="#000000" points="269,-480 269,-498 291,-498 291,-480 269,-480"/>
<text text-anchor="start" x="272" y="-486.2" font-family="Helvetica,sans-Serif" font-size="11.00" fill="#000000">&lt; 2</text>
<polygon fill="#ffffff" stroke="transparent" points="291,-480 291,-498 357,-498 357,-480 291,-480"/>
<polygon fill="none" stroke="#000000" points="291,-480 291,-498 357,-498 357,-480 291,-480"/>
<text text-anchor="start" x="294" y="-486.2" font-family="Helvetica,sans-Serif" font-size="11.00" fill="#000000">54,784 rows</text>
<polygon fill="#ffffff" stroke="transparent" points="357,-480 357,-498 379,-498 379,-480 357,-480"/>
<polygon fill="none" stroke="#000000" points="357,-480 357,-498 379,-498 379,-480 357,-480"/>
<text text-anchor="start" x="360" y="-486.2" font-family="Helvetica,sans-Serif" font-size="11.00" fill="#000000">1 &gt;</text>
</a>
</g>
</g>
<!-- line -->
<g id="node2" class="node">
<title>line</title>
<g id="a_node2"><a xlink:href="../../tables/line.html" xlink:title="line" target="_top">
<polygon fill="#ffffff" stroke="transparent" points="8,-287 8,-353 182,-353 182,-287 8,-287"/>
<polygon fill="#f5f5f5" stroke="transparent" points="10,-329 10,-351 180,-351 180,-329 10,-329"/>
<polygon fill="none" stroke="#000000" points="10,-329 10,-351 180,-351 180,-329 10,-329"/>
<text text-anchor="start" x="15" y="-338.2" font-family="Helvetica,sans-Serif" font-weight="bold" font-size="11.00" fill="#000000">line</text>
<text text-anchor="start" x="145" y="-337.2" font-family="Helvetica,sans-Serif" font-size="11.00" fill="#000000">[table]</text>
<polygon fill="none" stroke="#000000" points="10,-307 10,-329 98,-329 98,-307 10,-307"/>
<image xlink:href="../../images/primaryKeys.png" width="11px" height="12px" preserveAspectRatio="xMinYMin meet" x="15" y="-324"/>
<text text-anchor="start" x="42" y="-315.2" font-family="Helvetica,sans-Serif" font-size="11.00" fill="#000000">line_id</text>
<polygon fill="none" stroke="#000000" points="98,-307 98,-329 180,-329 180,-307 98,-307"/>
<text text-anchor="start" x="101" y="-315.2" font-family="Helvetica,sans-Serif" font-size="11.00" fill="#000000">int unsigned[10]</text>
<polygon fill="#ffffff" stroke="transparent" points="10,-289 10,-307 32,-307 32,-289 10,-289"/>
<polygon fill="none" stroke="#000000" points="10,-289 10,-307 32,-307 32,-289 10,-289"/>
<text text-anchor="start" x="13" y="-295.2" font-family="Helvetica,sans-Serif" font-size="11.00" fill="#000000">&lt; 0</text>
<polygon fill="#ffffff" stroke="transparent" points="32,-289 32,-307 98,-307 98,-289 32,-289"/>
<polygon fill="none" stroke="#000000" points="32,-289 32,-307 98,-307 98,-289 32,-289"/>
<text text-anchor="start" x="35" y="-295.2" font-family="Helvetica,sans-Serif" font-size="11.00" fill="#000000">55,350 rows</text>
<polygon fill="#ffffff" stroke="transparent" points="98,-289 98,-307 180,-307 180,-289 98,-289"/>
<polygon fill="none" stroke="#000000" points="98,-289 98,-307 180,-307 180,-289 98,-289"/>
<text text-anchor="start" x="161" y="-295.2" font-family="Helvetica,sans-Serif" font-size="11.00" fill="#000000">4 &gt;</text>
<polygon fill="none" stroke="#000000" stroke-width="2" points="9,-288 9,-352 181,-352 181,-288 9,-288"/>
</a>
</g>
</g>
<!-- line_data&#45;&gt;line -->
<g id="edge1" class="edge">
<title>line_data:w&#45;&gt;line:e</title>
<path fill="none" stroke="#000000" d="M254.5417,-550.6576C229.6434,-541.0609 236.8721,-503.663 223,-470 196.2509,-405.0887 250.2067,-318 180,-318"/>
<polygon fill="#000000" stroke="#000000" points="261.103,-551.7205 268.4242,-556.5537 265.0515,-552.3603 269,-553 269,-553 269,-553 265.0515,-552.3603 269.5758,-549.4463 261.103,-551.7205 261.103,-551.7205"/>
<ellipse fill="none" stroke="#000000" cx="257.9442" cy="-551.2088" rx="3.2" ry="3.2"/>
</g>
<!-- line_to_sign -->
<g id="node3" class="node">
<title>line_to_sign</title>
<g id="a_node3"><a xlink:href="../../tables/line_to_sign.html" xlink:title="line_to_sign" target="_top">
<polygon fill="#ffffff" stroke="transparent" points="261.5,-331 261.5,-459 386.5,-459 386.5,-331 261.5,-331"/>
<polygon fill="#f5f5f5" stroke="transparent" points="262,-437 262,-459 387,-459 387,-437 262,-437"/>
<polygon fill="none" stroke="#000000" points="262,-437 262,-459 387,-459 387,-437 262,-437"/>
<text text-anchor="start" x="267" y="-446.2" font-family="Helvetica,sans-Serif" font-weight="bold" font-size="11.00" fill="#000000">line_to_sign</text>
<text text-anchor="start" x="352" y="-445.2" font-family="Helvetica,sans-Serif" font-size="11.00" fill="#000000">[table]</text>
<polygon fill="none" stroke="#000000" points="262,-415 262,-437 387,-437 387,-415 262,-415"/>
<image xlink:href="../../images/primaryKeys.png" width="11px" height="12px" preserveAspectRatio="xMinYMin meet" x="267" y="-432"/>
<text text-anchor="start" x="286" y="-423.2" font-family="Helvetica,sans-Serif" font-size="11.00" fill="#000000">line_to_sign_id</text>
<polygon fill="#ffffff" stroke="transparent" points="262,-393 262,-415 387,-415 387,-393 262,-393"/>
<polygon fill="none" stroke="#000000" points="262,-393 262,-415 387,-415 387,-393 262,-393"/>
<image xlink:href="../../images/foreignKeys.png" width="11px" height="12px" preserveAspectRatio="xMinYMin meet" x="267" y="-410"/>
<text text-anchor="start" x="286" y="-401.2" font-family="Helvetica,sans-Serif" font-size="11.00" fill="#000000">sign_id</text>
<polygon fill="#ffffff" stroke="transparent" points="262,-371 262,-393 387,-393 387,-371 262,-371"/>
<polygon fill="none" stroke="#000000" points="262,-371 262,-393 387,-393 387,-371 262,-371"/>
<image xlink:href="../../images/foreignKeys.png" width="11px" height="12px" preserveAspectRatio="xMinYMin meet" x="267" y="-388"/>
<text text-anchor="start" x="286" y="-379.2" font-family="Helvetica,sans-Serif" font-size="11.00" fill="#000000">line_id</text>
<polygon fill="#ffffff" stroke="transparent" points="262,-349 262,-371 387,-371 387,-349 262,-349"/>
<polygon fill="none" stroke="#000000" points="262,-349 262,-371 387,-371 387,-349 262,-349"/>
<image xlink:href="../../images/foreignKeys.png" width="11px" height="12px" preserveAspectRatio="xMinYMin meet" x="267" y="-366"/>
<text text-anchor="start" x="286" y="-357.2" font-family="Helvetica,sans-Serif" font-size="11.00" fill="#000000">creator_id</text>
<polygon fill="#ffffff" stroke="transparent" points="262,-331 262,-349 284,-349 284,-331 262,-331"/>
<polygon fill="none" stroke="#000000" points="262,-331 262,-349 284,-349 284,-331 262,-331"/>
<text text-anchor="start" x="265" y="-337.2" font-family="Helvetica,sans-Serif" font-size="11.00" fill="#000000">&lt; 3</text>
<polygon fill="#ffffff" stroke="transparent" points="284,-331 284,-349 365,-349 365,-331 284,-331"/>
<polygon fill="none" stroke="#000000" points="284,-331 284,-349 365,-349 365,-331 284,-331"/>
<text text-anchor="start" x="287" y="-337.2" font-family="Helvetica,sans-Serif" font-size="11.00" fill="#000000">1,730,080 rows</text>
<polygon fill="#ffffff" stroke="transparent" points="365,-331 365,-349 387,-349 387,-331 365,-331"/>
<polygon fill="none" stroke="#000000" points="365,-331 365,-349 387,-349 387,-331 365,-331"/>
<text text-anchor="start" x="368" y="-337.2" font-family="Helvetica,sans-Serif" font-size="11.00" fill="#000000">1 &gt;</text>
</a>
</g>
</g>
<!-- line_to_sign&#45;&gt;line -->
<g id="edge2" class="edge">
<title>line_to_sign:w&#45;&gt;line:e</title>
<path fill="none" stroke="#000000" d="M247.4978,-379.4119C217.4716,-367.4385 220.6325,-318 180,-318"/>
<polygon fill="#000000" stroke="#000000" points="254.1244,-380.5944 261.3675,-385.544 258.0622,-381.2972 262,-382 262,-382 262,-382 258.0622,-381.2972 262.6325,-378.456 254.1244,-380.5944 254.1244,-380.5944"/>
<ellipse fill="none" stroke="#000000" cx="250.9742" cy="-380.0322" rx="3.2" ry="3.2"/>
</g>
<!-- qwb_ref -->
<g id="node4" class="node">
<title>qwb_ref</title>
<g id="a_node4"><a xlink:href="../../tables/qwb_ref.html" xlink:title="qwb_ref" target="_top">
<polygon fill="#ffffff" stroke="transparent" points="243.5,-186 243.5,-310 404.5,-310 404.5,-186 243.5,-186"/>
<polygon fill="#f5f5f5" stroke="transparent" points="244,-288 244,-310 405,-310 405,-288 244,-288"/>
<polygon fill="none" stroke="#000000" points="244,-288 244,-310 405,-310 405,-288 244,-288"/>
<text text-anchor="start" x="249" y="-297.2" font-family="Helvetica,sans-Serif" font-weight="bold" font-size="11.00" fill="#000000">qwb_ref</text>
<text text-anchor="start" x="370" y="-296.2" font-family="Helvetica,sans-Serif" font-size="11.00" fill="#000000">[table]</text>
<polygon fill="none" stroke="#000000" points="244,-266 244,-288 405,-288 405,-266 244,-266"/>
<image xlink:href="../../images/primaryKeys.png" width="11px" height="12px" preserveAspectRatio="xMinYMin meet" x="249" y="-283"/>
<text text-anchor="start" x="264" y="-274.2" font-family="Helvetica,sans-Serif" font-size="11.00" fill="#000000">qwb_ref_id</text>
<polygon fill="none" stroke="#000000" points="244,-244 244,-266 405,-266 405,-244 244,-244"/>
<image xlink:href="../../images/foreignKeys.png" width="11px" height="12px" preserveAspectRatio="xMinYMin meet" x="249" y="-261"/>
<text text-anchor="start" x="264" y="-252.2" font-family="Helvetica,sans-Serif" font-size="11.00" fill="#000000">line_id</text>
<polygon fill="#ffffff" stroke="transparent" points="244,-222 244,-244 405,-244 405,-222 244,-222"/>
<polygon fill="none" stroke="#000000" points="244,-222 244,-244 405,-244 405,-222 244,-222"/>
<text text-anchor="start" x="264" y="-230.2" font-family="Helvetica,sans-Serif" font-size="11.00" fill="#000000">text</text>
<polygon fill="none" stroke="#000000" points="244,-204 244,-222 405,-222 405,-204 244,-204"/>
<text text-anchor="start" x="247" y="-210.2" font-family="Helvetica,sans-Serif" font-size="11.00" fill="#000000">...</text>
<polygon fill="#ffffff" stroke="transparent" points="244,-186 244,-204 296,-204 296,-186 244,-186"/>
<polygon fill="none" stroke="#000000" points="244,-186 244,-204 296,-204 296,-186 244,-186"/>
<text text-anchor="start" x="247" y="-192.2" font-family="Helvetica,sans-Serif" font-size="11.00" fill="#000000">&lt; 1</text>
<polygon fill="#ffffff" stroke="transparent" points="296,-186 296,-204 377,-204 377,-186 296,-186"/>
<polygon fill="none" stroke="#000000" points="296,-186 296,-204 377,-204 377,-186 296,-186"/>
<text text-anchor="start" x="314" y="-192.2" font-family="Helvetica,sans-Serif" font-size="11.00" fill="#000000">54,197 rows</text>
<polygon fill="#ffffff" stroke="transparent" points="377,-186 377,-204 405,-204 405,-186 377,-186"/>
<polygon fill="none" stroke="#000000" points="377,-186 377,-204 405,-204 405,-186 377,-186"/>
<text text-anchor="start" x="395" y="-192.2" font-family="Helvetica,sans-Serif" font-size="11.00" fill="#000000"> &#160;</text>
</a>
</g>
</g>
<!-- qwb_ref&#45;&gt;line -->
<g id="edge3" class="edge">
<title>qwb_ref:w&#45;&gt;line:e</title>
<path fill="none" stroke="#000000" stroke-dasharray="5,2" d="M229.8503,-258.5677C207.4971,-271.8949 214.1447,-318 180,-318"/>
<polygon fill="#000000" stroke="#000000" points="236.2428,-256.9559 244.8802,-258.4908 240.1214,-255.978 244,-255 244,-255 244,-255 240.1214,-255.978 243.1198,-251.5092 236.2428,-256.9559 236.2428,-256.9559"/>
<ellipse fill="none" stroke="#000000" cx="233.1399" cy="-257.7383" rx="3.2" ry="3.2"/>
</g>
<!-- text_fragment_to_line -->
<g id="node5" class="node">
<title>text_fragment_to_line</title>
<g id="a_node5"><a xlink:href="../../tables/text_fragment_to_line.html" xlink:title="text_fragment_to_line" target="_top">
<polygon fill="#ffffff" stroke="transparent" points="231,-37 231,-165 417,-165 417,-37 231,-37"/>
<polygon fill="#f5f5f5" stroke="transparent" points="231,-143 231,-165 417,-165 417,-143 231,-143"/>
<polygon fill="none" stroke="#000000" points="231,-143 231,-165 417,-165 417,-143 231,-143"/>
<text text-anchor="start" x="236" y="-152.2" font-family="Helvetica,sans-Serif" font-weight="bold" font-size="11.00" fill="#000000">text_fragment_to_line</text>
<text text-anchor="start" x="382" y="-151.2" font-family="Helvetica,sans-Serif" font-size="11.00" fill="#000000">[table]</text>
<polygon fill="none" stroke="#000000" points="231,-121 231,-143 417,-143 417,-121 231,-121"/>
<image xlink:href="../../images/primaryKeys.png" width="11px" height="12px" preserveAspectRatio="xMinYMin meet" x="236" y="-138"/>
<text text-anchor="start" x="251" y="-129.2" font-family="Helvetica,sans-Serif" font-size="11.00" fill="#000000">text_fragment_to_line_id</text>
<polygon fill="#ffffff" stroke="transparent" points="231,-99 231,-121 417,-121 417,-99 231,-99"/>
<polygon fill="none" stroke="#000000" points="231,-99 231,-121 417,-121 417,-99 231,-99"/>
<image xlink:href="../../images/foreignKeys.png" width="11px" height="12px" preserveAspectRatio="xMinYMin meet" x="236" y="-116"/>
<text text-anchor="start" x="251" y="-107.2" font-family="Helvetica,sans-Serif" font-size="11.00" fill="#000000">text_fragment_id</text>
<polygon fill="#ffffff" stroke="transparent" points="231,-77 231,-99 417,-99 417,-77 231,-77"/>
<polygon fill="none" stroke="#000000" points="231,-77 231,-99 417,-99 417,-77 231,-77"/>
<image xlink:href="../../images/foreignKeys.png" width="11px" height="12px" preserveAspectRatio="xMinYMin meet" x="236" y="-94"/>
<text text-anchor="start" x="251" y="-85.2" font-family="Helvetica,sans-Serif" font-size="11.00" fill="#000000">line_id</text>
<polygon fill="#ffffff" stroke="transparent" points="231,-55 231,-77 417,-77 417,-55 231,-55"/>
<polygon fill="none" stroke="#000000" points="231,-55 231,-77 417,-77 417,-55 231,-55"/>
<image xlink:href="../../images/foreignKeys.png" width="11px" height="12px" preserveAspectRatio="xMinYMin meet" x="236" y="-72"/>
<text text-anchor="start" x="251" y="-63.2" font-family="Helvetica,sans-Serif" font-size="11.00" fill="#000000">creator_id</text>
<polygon fill="#ffffff" stroke="transparent" points="231,-37 231,-55 291,-55 291,-37 231,-37"/>
<polygon fill="none" stroke="#000000" points="231,-37 231,-55 291,-55 291,-37 231,-37"/>
<text text-anchor="start" x="234" y="-43.2" font-family="Helvetica,sans-Serif" font-size="11.00" fill="#000000">&lt; 3</text>
<polygon fill="#ffffff" stroke="transparent" points="291,-37 291,-55 376,-55 376,-37 291,-37"/>
<polygon fill="none" stroke="#000000" points="291,-37 291,-55 376,-55 376,-37 291,-37"/>
<text text-anchor="start" x="313" y="-43.2" font-family="Helvetica,sans-Serif" font-size="11.00" fill="#000000">54,560 rows</text>
<polygon fill="#ffffff" stroke="transparent" points="376,-37 376,-55 417,-55 417,-37 376,-37"/>
<polygon fill="none" stroke="#000000" points="376,-37 376,-55 417,-55 417,-37 376,-37"/>
<text text-anchor="start" x="398" y="-43.2" font-family="Helvetica,sans-Serif" font-size="11.00" fill="#000000">1 &gt;</text>
</a>
</g>
</g>
<!-- text_fragment_to_line&#45;&gt;line -->
<g id="edge4" class="edge">
<title>text_fragment_to_line:w&#45;&gt;line:e</title>
<path fill="none" stroke="#000000" d="M216.5533,-89.8514C142.2705,-111.6182 279.1836,-318 180,-318"/>
<polygon fill="#000000" stroke="#000000" points="223.0649,-89.0169 231.4576,-91.5708 227.0324,-88.5085 231,-88 231,-88 231,-88 227.0324,-88.5085 230.5424,-84.4292 223.0649,-89.0169 223.0649,-89.0169"/>
<ellipse fill="none" stroke="#000000" cx="219.8908" cy="-89.4237" rx="3.2" ry="3.2"/>
</g>
</g>
</svg>
