<?xml version="1.0" encoding="UTF-8" standalone="no"?>
<!DOCTYPE svg PUBLIC "-//W3C//DTD SVG 1.1//EN"
 "http://www.w3.org/Graphics/SVG/1.1/DTD/svg11.dtd">
<!-- Generated by graphviz version 2.43.0 (0)
 -->
<!-- Title: oneDegreeRelationshipsDiagram Pages: 1 -->
<svg width="822pt" height="272pt"
 viewBox="0.00 0.00 822.00 272.00" xmlns="http://www.w3.org/2000/svg" xmlns:xlink="http://www.w3.org/1999/xlink">
<g id="graph0" class="graph" transform="scale(1 1) rotate(0) translate(4 268)">
<title>oneDegreeRelationshipsDiagram</title>
<polygon fill="#ffffff" stroke="transparent" points="-4,4 -4,-268 818,-268 818,4 -4,4"/>
<text text-anchor="middle" x="79.5" y="-7.2" font-family="Helvetica,sans-Serif" font-size="11.00">Generated by SchemaSpy</text>
<!-- edition_editor -->
<g id="node1" class="node">
<title>edition_editor</title>
<g id="a_node1"><a xlink:href="../../tables/edition_editor.html" xlink:title="edition_editor" target="_top">
<polygon fill="#ffffff" stroke="transparent" points="192,-95 192,-219 328,-219 328,-95 192,-95"/>
<polygon fill="#f5f5f5" stroke="transparent" points="192,-197 192,-219 328,-219 328,-197 192,-197"/>
<polygon fill="none" stroke="black" points="192,-197 192,-219 328,-219 328,-197 192,-197"/>
<text text-anchor="start" x="197" y="-206.2" font-family="Helvetica,sans-Serif" font-weight="bold" font-size="11.00">edition_editor</text>
<text text-anchor="start" x="286" y="-205.2" font-family="Helvetica,sans-Serif" font-size="11.00">[table]</text>
<polygon fill="none" stroke="black" points="192,-175 192,-197 328,-197 328,-175 192,-175"/>
<image xlink:href="../../images/primaryKeys.png" width="11px" height="12px" preserveAspectRatio="xMinYMin meet" x="197" y="-192"/>
<text text-anchor="start" x="214" y="-183.2" font-family="Helvetica,sans-Serif" font-size="11.00">edition_editor_id</text>
<polygon fill="#ffffff" stroke="transparent" points="192,-153 192,-175 328,-175 328,-153 192,-153"/>
<polygon fill="none" stroke="black" points="192,-153 192,-175 328,-175 328,-153 192,-153"/>
<image xlink:href="../../images/foreignKeys.png" width="11px" height="12px" preserveAspectRatio="xMinYMin meet" x="197" y="-170"/>
<text text-anchor="start" x="214" y="-161.2" font-family="Helvetica,sans-Serif" font-size="11.00">user_id</text>
<polygon fill="#ffffff" stroke="transparent" points="192,-131 192,-153 328,-153 328,-131 192,-131"/>
<polygon fill="none" stroke="black" points="192,-131 192,-153 328,-153 328,-131 192,-131"/>
<image xlink:href="../../images/foreignKeys.png" width="11px" height="12px" preserveAspectRatio="xMinYMin meet" x="197" y="-148"/>
<text text-anchor="start" x="214" y="-139.2" font-family="Helvetica,sans-Serif" font-size="11.00">edition_id</text>
<polygon fill="none" stroke="black" points="192,-113 192,-131 328,-131 328,-113 192,-113"/>
<text text-anchor="start" x="195" y="-119.2" font-family="Helvetica,sans-Serif" font-size="11.00">...</text>
<polygon fill="#ffffff" stroke="transparent" points="192,-95 192,-113 223,-113 223,-95 192,-95"/>
<polygon fill="none" stroke="black" points="192,-95 192,-113 223,-113 223,-95 192,-95"/>
<text text-anchor="start" x="195" y="-101.2" font-family="Helvetica,sans-Serif" font-size="11.00">&lt; 2</text>
<polygon fill="#ffffff" stroke="transparent" points="223,-95 223,-113 292,-113 292,-95 223,-95"/>
<polygon fill="none" stroke="black" points="223,-95 223,-113 292,-113 292,-95 223,-95"/>
<text text-anchor="start" x="228" y="-101.2" font-family="Helvetica,sans-Serif" font-size="11.00">1,645 rows</text>
<polygon fill="#ffffff" stroke="transparent" points="292,-95 292,-113 328,-113 328,-95 292,-95"/>
<polygon fill="none" stroke="black" points="292,-95 292,-113 328,-113 328,-95 292,-95"/>
<text text-anchor="start" x="298" y="-101.2" font-family="Helvetica,sans-Serif" font-size="11.00">33 &gt;</text>
</a>
</g>
</g>
<!-- edition -->
<g id="node2" class="node">
<title>edition</title>
<g id="a_node2"><a xlink:href="../../tables/edition.html" xlink:title="edition" target="_top">
<polygon fill="#ffffff" stroke="transparent" points="8,-37 8,-139 143,-139 143,-37 8,-37"/>
<polygon fill="#f5f5f5" stroke="transparent" points="8.5,-117 8.5,-139 143.5,-139 143.5,-117 8.5,-117"/>
<polygon fill="none" stroke="black" points="8.5,-117 8.5,-139 143.5,-139 143.5,-117 8.5,-117"/>
<text text-anchor="start" x="13.5" y="-126.2" font-family="Helvetica,sans-Serif" font-weight="bold" font-size="11.00">edition</text>
<text text-anchor="start" x="101.5" y="-125.2" font-family="Helvetica,sans-Serif" font-size="11.00">[table]</text>
<polygon fill="none" stroke="black" points="8.5,-95 8.5,-117 143.5,-117 143.5,-95 8.5,-95"/>
<image xlink:href="../../images/primaryKeys.png" width="11px" height="12px" preserveAspectRatio="xMinYMin meet" x="13.5" y="-112"/>
<text text-anchor="start" x="28.5" y="-103.2" font-family="Helvetica,sans-Serif" font-size="11.00">edition_id</text>
<polygon fill="#ffffff" stroke="transparent" points="8.5,-73 8.5,-95 143.5,-95 143.5,-73 8.5,-73"/>
<polygon fill="none" stroke="black" points="8.5,-73 8.5,-95 143.5,-95 143.5,-73 8.5,-73"/>
<image xlink:href="../../images/foreignKeys.png" width="11px" height="12px" preserveAspectRatio="xMinYMin meet" x="13.5" y="-90"/>
<text text-anchor="start" x="28.5" y="-81.2" font-family="Helvetica,sans-Serif" font-size="11.00">manuscript_id</text>
<polygon fill="none" stroke="black" points="8.5,-55 8.5,-73 143.5,-73 143.5,-55 8.5,-55"/>
<text text-anchor="start" x="11.5" y="-61.2" font-family="Helvetica,sans-Serif" font-size="11.00">...</text>
<polygon fill="#ffffff" stroke="transparent" points="8.5,-37 8.5,-55 38.5,-55 38.5,-37 8.5,-37"/>
<polygon fill="none" stroke="black" points="8.5,-37 8.5,-55 38.5,-55 38.5,-37 8.5,-37"/>
<text text-anchor="start" x="11.5" y="-43.2" font-family="Helvetica,sans-Serif" font-size="11.00">&lt; 1</text>
<polygon fill="#ffffff" stroke="transparent" points="38.5,-37 38.5,-55 107.5,-55 107.5,-37 38.5,-37"/>
<polygon fill="none" stroke="black" points="38.5,-37 38.5,-55 107.5,-55 107.5,-37 38.5,-37"/>
<text text-anchor="start" x="43.5" y="-43.2" font-family="Helvetica,sans-Serif" font-size="11.00">1,645 rows</text>
<polygon fill="#ffffff" stroke="transparent" points="107.5,-37 107.5,-55 143.5,-55 143.5,-37 107.5,-37"/>
<polygon fill="none" stroke="black" points="107.5,-37 107.5,-55 143.5,-55 143.5,-37 107.5,-37"/>
<text text-anchor="start" x="113.5" y="-43.2" font-family="Helvetica,sans-Serif" font-size="11.00">35 &gt;</text>
</a>
</g>
</g>
<!-- edition_editor&#45;&gt;edition -->
<g id="edge1" class="edge">
<title>edition_editor:w&#45;&gt;edition:e</title>
<path fill="none" stroke="black" d="M177.06,-136.99C165.82,-127.1 164.51,-106 144.5,-106"/>
<polygon fill="black" stroke="black" points="183.47,-139.3 189.78,-145.39 187.24,-140.65 191,-142 191,-142 191,-142 187.24,-140.65 192.22,-138.61 183.47,-139.3 183.47,-139.3"/>
<ellipse fill="none" stroke="black" cx="180.46" cy="-138.21" rx="3.2" ry="3.2"/>
</g>
<!-- main_action -->
<g id="node3" class="node">
<title>main_action</title>
<g id="a_node3"><a xlink:href="../../tables/main_action.html" xlink:title="main_action" target="_top">
<polygon fill="#ffffff" stroke="transparent" points="377,-86 377,-240 625,-240 625,-86 377,-86"/>
<polygon fill="#f5f5f5" stroke="transparent" points="379,-216 379,-238 623,-238 623,-216 379,-216"/>
<polygon fill="none" stroke="black" points="379,-216 379,-238 623,-238 623,-216 379,-216"/>
<text text-anchor="start" x="384" y="-225.2" font-family="Helvetica,sans-Serif" font-weight="bold" font-size="11.00">main_action</text>
<text text-anchor="start" x="581" y="-224.2" font-family="Helvetica,sans-Serif" font-size="11.00">[table]</text>
<polygon fill="none" stroke="black" points="379,-194 379,-216 512,-216 512,-194 379,-194"/>
<image xlink:href="../../images/primaryKeys.png" width="11px" height="12px" preserveAspectRatio="xMinYMin meet" x="384" y="-211"/>
<text text-anchor="start" x="399" y="-202.2" font-family="Helvetica,sans-Serif" font-size="11.00">main_action_id</text>
<polygon fill="none" stroke="black" points="512,-194 512,-216 623,-216 623,-194 512,-194"/>
<text text-anchor="start" x="515" y="-202.2" font-family="Helvetica,sans-Serif" font-size="11.00">int unsigned[10]</text>
<polygon fill="none" stroke="black" points="379,-172 379,-194 512,-194 512,-172 379,-172"/>
<text text-anchor="start" x="399" y="-180.2" font-family="Helvetica,sans-Serif" font-size="11.00">time</text>
<polygon fill="none" stroke="black" points="512,-172 512,-194 623,-194 623,-172 512,-172"/>
<text text-anchor="start" x="515" y="-180.2" font-family="Helvetica,sans-Serif" font-size="11.00">datetime[26]</text>
<polygon fill="none" stroke="black" points="379,-150 379,-172 512,-172 512,-150 379,-150"/>
<text text-anchor="start" x="399" y="-158.2" font-family="Helvetica,sans-Serif" font-size="11.00">rewinded</text>
<polygon fill="none" stroke="black" points="512,-150 512,-172 623,-172 623,-150 512,-150"/>
<text text-anchor="start" x="515" y="-158.2" font-family="Helvetica,sans-Serif" font-size="11.00">tinyint unsigned[3]</text>
<polygon fill="#ffffff" stroke="transparent" points="379,-128 379,-150 512,-150 512,-128 379,-128"/>
<polygon fill="none" stroke="black" points="379,-128 379,-150 512,-150 512,-128 379,-128"/>
<image xlink:href="../../images/foreignKeys.png" width="11px" height="12px" preserveAspectRatio="xMinYMin meet" x="384" y="-145"/>
<text text-anchor="start" x="399" y="-136.2" font-family="Helvetica,sans-Serif" font-size="11.00">edition_editor_id</text>
<polygon fill="none" stroke="black" points="512,-128 512,-150 623,-150 623,-128 512,-128"/>
<text text-anchor="start" x="515" y="-136.2" font-family="Helvetica,sans-Serif" font-size="11.00">int unsigned[10]</text>
<polygon fill="#ffffff" stroke="transparent" points="379,-106 379,-128 512,-128 512,-106 379,-106"/>
<polygon fill="none" stroke="black" points="379,-106 379,-128 512,-128 512,-106 379,-106"/>
<image xlink:href="../../images/foreignKeys.png" width="11px" height="12px" preserveAspectRatio="xMinYMin meet" x="384" y="-123"/>
<text text-anchor="start" x="399" y="-114.2" font-family="Helvetica,sans-Serif" font-size="11.00">edition_id</text>
<polygon fill="none" stroke="black" points="512,-106 512,-128 623,-128 623,-106 512,-106"/>
<text text-anchor="start" x="515" y="-114.2" font-family="Helvetica,sans-Serif" font-size="11.00">int unsigned[10]</text>
<polygon fill="#ffffff" stroke="transparent" points="379,-88 379,-106 437,-106 437,-88 379,-88"/>
<polygon fill="none" stroke="black" points="379,-88 379,-106 437,-106 437,-88 379,-88"/>
<text text-anchor="start" x="382" y="-94.2" font-family="Helvetica,sans-Serif" font-size="11.00">&lt; 2</text>
<polygon fill="#ffffff" stroke="transparent" points="437,-88 437,-106 512,-106 512,-88 437,-88"/>
<polygon fill="none" stroke="black" points="437,-88 437,-106 512,-106 512,-88 437,-88"/>
<text text-anchor="start" x="472" y="-94.2" font-family="Helvetica,sans-Serif" font-size="11.00">0 rows</text>
<polygon fill="#ffffff" stroke="transparent" points="512,-88 512,-106 623,-106 623,-88 512,-88"/>
<polygon fill="none" stroke="black" points="512,-88 512,-106 623,-106 623,-88 512,-88"/>
<text text-anchor="start" x="600" y="-94.2" font-family="Helvetica,sans-Serif" font-size="11.00">1 &gt;</text>
<polygon fill="none" stroke="black" stroke-width="2" points="378,-87 378,-239 624,-239 624,-87 378,-87"/>
</a>
</g>
</g>
<!-- main_action&#45;&gt;edition_editor -->
<g id="edge2" class="edge">
<title>main_action:w&#45;&gt;edition_editor:e</title>
<path fill="none" stroke="black" d="M364.06,-144.03C350.72,-156.15 353.05,-186 329,-186"/>
<polygon fill="black" stroke="black" points="370.47,-141.71 379.22,-142.39 374.24,-140.36 378,-139 378,-139 378,-139 374.24,-140.36 376.78,-135.61 370.47,-141.71 370.47,-141.71"/>
<ellipse fill="none" stroke="black" cx="367.46" cy="-142.8" rx="3.2" ry="3.2"/>
</g>
<!-- main_action&#45;&gt;edition -->
<g id="edge3" class="edge">
<title>main_action:w&#45;&gt;edition:e</title>
<path fill="none" stroke="black" d="M363.97,-112.46C354.6,-104.82 352.48,-89.7 336,-84 272.16,-61.92 249.39,-67.02 184,-84 164.55,-89.05 164.59,-106 144.5,-106"/>
<polygon fill="black" stroke="black" points="370.39,-114.54 376.89,-120.43 374.19,-115.77 378,-117 378,-117 378,-117 374.19,-115.77 379.11,-113.57 370.39,-114.54 370.39,-114.54"/>
<ellipse fill="none" stroke="black" cx="367.34" cy="-113.55" rx="3.2" ry="3.2"/>
</g>
<!-- single_action -->
<g id="node4" class="node">
<title>single_action</title>
<g id="a_node4"><a xlink:href="../../tables/single_action.html" xlink:title="single_action" target="_top">
<polygon fill="#ffffff" stroke="transparent" points="674,-158 674,-260 806,-260 806,-158 674,-158"/>
<polygon fill="#f5f5f5" stroke="transparent" points="674,-238 674,-260 806,-260 806,-238 674,-238"/>
<polygon fill="none" stroke="black" points="674,-238 674,-260 806,-260 806,-238 674,-238"/>
<text text-anchor="start" x="679" y="-247.2" font-family="Helvetica,sans-Serif" font-weight="bold" font-size="11.00">single_action</text>
<text text-anchor="start" x="764" y="-246.2" font-family="Helvetica,sans-Serif" font-size="11.00">[table]</text>
<polygon fill="none" stroke="black" points="674,-216 674,-238 806,-238 806,-216 674,-216"/>
<image xlink:href="../../images/primaryKeys.png" width="11px" height="12px" preserveAspectRatio="xMinYMin meet" x="679" y="-233"/>
<text text-anchor="start" x="696" y="-224.2" font-family="Helvetica,sans-Serif" font-size="11.00">single_action_id</text>
<polygon fill="#ffffff" stroke="transparent" points="674,-194 674,-216 806,-216 806,-194 674,-194"/>
<polygon fill="none" stroke="black" points="674,-194 674,-216 806,-216 806,-194 674,-194"/>
<image xlink:href="../../images/foreignKeys.png" width="11px" height="12px" preserveAspectRatio="xMinYMin meet" x="679" y="-211"/>
<text text-anchor="start" x="696" y="-202.2" font-family="Helvetica,sans-Serif" font-size="11.00">main_action_id</text>
<polygon fill="none" stroke="black" points="674,-176 674,-194 806,-194 806,-176 674,-176"/>
<text text-anchor="start" x="677" y="-182.2" font-family="Helvetica,sans-Serif" font-size="11.00">...</text>
<polygon fill="#ffffff" stroke="transparent" points="674,-158 674,-176 724,-176 724,-158 674,-158"/>
<polygon fill="none" stroke="black" points="674,-158 674,-176 724,-176 724,-158 674,-158"/>
<text text-anchor="start" x="677" y="-164.2" font-family="Helvetica,sans-Serif" font-size="11.00">&lt; 1</text>
<polygon fill="#ffffff" stroke="transparent" points="724,-158 724,-176 779,-176 779,-158 724,-158"/>
<polygon fill="none" stroke="black" points="724,-158 724,-176 779,-176 779,-158 724,-158"/>
<text text-anchor="start" x="739" y="-164.2" font-family="Helvetica,sans-Serif" font-size="11.00">0 rows</text>
<polygon fill="#ffffff" stroke="transparent" points="779,-158 779,-176 806,-176 806,-158 779,-158"/>
<polygon fill="none" stroke="black" points="779,-158 779,-176 806,-176 806,-158 779,-158"/>
<text text-anchor="start" x="795" y="-164.2" font-family="Helvetica,sans-Serif" font-size="11.00"> &#160;</text>
</a>
</g>
</g>
<!-- single_action&#45;&gt;main_action -->
<g id="edge4" class="edge">
<title>single_action:w&#45;&gt;main_action:e</title>
<path fill="none" stroke="black" d="M658.49,-205C647.18,-205 639.99,-205 624,-205"/>
<polygon fill="black" stroke="black" points="665,-205 673,-208.6 669,-205 673,-205 673,-205 673,-205 669,-205 673,-201.4 665,-205 665,-205"/>
<ellipse fill="none" stroke="black" cx="661.8" cy="-205" rx="3.2" ry="3.2"/>
</g>
</g>
</svg>
