<?xml version="1.0" encoding="UTF-8" standalone="no"?>
<!DOCTYPE svg PUBLIC "-//W3C//DTD SVG 1.1//EN"
 "http://www.w3.org/Graphics/SVG/1.1/DTD/svg11.dtd">
<!-- Generated by graphviz version 2.43.0 (0)
 -->
<!-- Title: oneDegreeRelationshipsDiagram Pages: 1 -->
<svg width="873pt" height="194pt"
 viewBox="0.00 0.00 873.00 194.00" xmlns="http://www.w3.org/2000/svg" xmlns:xlink="http://www.w3.org/1999/xlink">
<g id="graph0" class="graph" transform="scale(1 1) rotate(0) translate(4 190)">
<title>oneDegreeRelationshipsDiagram</title>
<polygon fill="#ffffff" stroke="transparent" points="-4,4 -4,-190 869,-190 869,4 -4,4"/>
<text text-anchor="middle" x="79.5" y="-7.2" font-family="Helvetica,sans-Serif" font-size="11.00">Generated by SchemaSpy</text>
<!-- manuscript_to_text_fragment -->
<g id="node1" class="node">
<title>manuscript_to_text_fragment</title>
<g id="a_node1"><a xlink:href="../../tables/manuscript_to_text_fragment.html" xlink:title="manuscript_to_text_fragment" target="_top">
<polygon fill="#ffffff" stroke="transparent" points="195,-65 195,-175 534,-175 534,-65 195,-65"/>
<polygon fill="#f5f5f5" stroke="transparent" points="197.5,-151 197.5,-173 532.5,-173 532.5,-151 197.5,-151"/>
<polygon fill="none" stroke="black" points="197.5,-151 197.5,-173 532.5,-173 532.5,-151 197.5,-151"/>
<text text-anchor="start" x="202.5" y="-160.2" font-family="Helvetica,sans-Serif" font-weight="bold" font-size="11.00">manuscript_to_text_fragment</text>
<text text-anchor="start" x="490.5" y="-159.2" font-family="Helvetica,sans-Serif" font-size="11.00">[table]</text>
<polygon fill="none" stroke="black" points="197.5,-129 197.5,-151 435.5,-151 435.5,-129 197.5,-129"/>
<image xlink:href="../../images/primaryKeys.png" width="11px" height="12px" preserveAspectRatio="xMinYMin meet" x="202.5" y="-146"/>
<text text-anchor="start" x="217.5" y="-137.2" font-family="Helvetica,sans-Serif" font-size="11.00">manuscript_to_text_fragment_id</text>
<polygon fill="none" stroke="black" points="435.5,-129 435.5,-151 532.5,-151 532.5,-129 435.5,-129"/>
<text text-anchor="start" x="438.5" y="-137.2" font-family="Helvetica,sans-Serif" font-size="11.00">int unsigned[10]</text>
<polygon fill="#ffffff" stroke="transparent" points="197.5,-107 197.5,-129 435.5,-129 435.5,-107 197.5,-107"/>
<polygon fill="none" stroke="black" points="197.5,-107 197.5,-129 435.5,-129 435.5,-107 197.5,-107"/>
<image xlink:href="../../images/foreignKeys.png" width="11px" height="12px" preserveAspectRatio="xMinYMin meet" x="202.5" y="-124"/>
<text text-anchor="start" x="217.5" y="-115.2" font-family="Helvetica,sans-Serif" font-size="11.00">manuscript_id</text>
<polygon fill="none" stroke="black" points="435.5,-107 435.5,-129 532.5,-129 532.5,-107 435.5,-107"/>
<text text-anchor="start" x="438.5" y="-115.2" font-family="Helvetica,sans-Serif" font-size="11.00">int unsigned[10]</text>
<polygon fill="#ffffff" stroke="transparent" points="197.5,-85 197.5,-107 435.5,-107 435.5,-85 197.5,-85"/>
<polygon fill="none" stroke="black" points="197.5,-85 197.5,-107 435.5,-107 435.5,-85 197.5,-85"/>
<image xlink:href="../../images/foreignKeys.png" width="11px" height="12px" preserveAspectRatio="xMinYMin meet" x="202.5" y="-102"/>
<text text-anchor="start" x="217.5" y="-93.2" font-family="Helvetica,sans-Serif" font-size="11.00">text_fragment_id</text>
<polygon fill="none" stroke="black" points="435.5,-85 435.5,-107 532.5,-107 532.5,-85 435.5,-85"/>
<text text-anchor="start" x="438.5" y="-93.2" font-family="Helvetica,sans-Serif" font-size="11.00">int unsigned[10]</text>
<polygon fill="#ffffff" stroke="transparent" points="197.5,-67 197.5,-85 292.5,-85 292.5,-67 197.5,-67"/>
<polygon fill="none" stroke="black" points="197.5,-67 197.5,-85 292.5,-85 292.5,-67 197.5,-67"/>
<text text-anchor="start" x="200.5" y="-73.2" font-family="Helvetica,sans-Serif" font-size="11.00">&lt; 2</text>
<polygon fill="#ffffff" stroke="transparent" points="292.5,-67 292.5,-85 435.5,-85 435.5,-67 292.5,-67"/>
<polygon fill="none" stroke="black" points="292.5,-67 292.5,-85 435.5,-85 435.5,-67 292.5,-67"/>
<text text-anchor="start" x="364.5" y="-73.2" font-family="Helvetica,sans-Serif" font-size="11.00">11,166 rows</text>
<polygon fill="#ffffff" stroke="transparent" points="435.5,-67 435.5,-85 532.5,-85 532.5,-67 435.5,-67"/>
<polygon fill="none" stroke="black" points="435.5,-67 435.5,-85 532.5,-85 532.5,-67 435.5,-67"/>
<text text-anchor="start" x="509.5" y="-73.2" font-family="Helvetica,sans-Serif" font-size="11.00">1 &gt;</text>
<polygon fill="none" stroke="black" stroke-width="2" points="196,-66 196,-174 533,-174 533,-66 196,-66"/>
</a>
</g>
</g>
<!-- manuscript -->
<g id="node2" class="node">
<title>manuscript</title>
<g id="a_node2"><a xlink:href="../../tables/manuscript.html" xlink:title="manuscript" target="_top">
<polygon fill="#ffffff" stroke="transparent" points="16.5,-120 16.5,-182 137.5,-182 137.5,-120 16.5,-120"/>
<polygon fill="#f5f5f5" stroke="transparent" points="17,-160 17,-182 138,-182 138,-160 17,-160"/>
<polygon fill="none" stroke="black" points="17,-160 17,-182 138,-182 138,-160 17,-160"/>
<text text-anchor="start" x="22" y="-169.2" font-family="Helvetica,sans-Serif" font-weight="bold" font-size="11.00">manuscript</text>
<text text-anchor="start" x="96" y="-168.2" font-family="Helvetica,sans-Serif" font-size="11.00">[table]</text>
<polygon fill="none" stroke="black" points="17,-138 17,-160 138,-160 138,-138 17,-138"/>
<image xlink:href="../../images/primaryKeys.png" width="11px" height="12px" preserveAspectRatio="xMinYMin meet" x="22" y="-155"/>
<text text-anchor="start" x="40" y="-146.2" font-family="Helvetica,sans-Serif" font-size="11.00">manuscript_id</text>
<polygon fill="#ffffff" stroke="transparent" points="17,-120 17,-138 38,-138 38,-120 17,-120"/>
<polygon fill="none" stroke="black" points="17,-120 17,-138 38,-138 38,-120 17,-120"/>
<text text-anchor="start" x="20" y="-126.2" font-family="Helvetica,sans-Serif" font-size="11.00"> &#160;</text>
<polygon fill="#ffffff" stroke="transparent" points="38,-120 38,-138 108,-138 108,-120 38,-120"/>
<polygon fill="none" stroke="black" points="38,-120 38,-138 108,-138 108,-120 38,-120"/>
<text text-anchor="start" x="44" y="-126.2" font-family="Helvetica,sans-Serif" font-size="11.00">1,645 rows</text>
<polygon fill="#ffffff" stroke="transparent" points="108,-120 108,-138 138,-138 138,-120 108,-120"/>
<polygon fill="none" stroke="black" points="108,-120 108,-138 138,-138 138,-120 108,-120"/>
<text text-anchor="start" x="115" y="-126.2" font-family="Helvetica,sans-Serif" font-size="11.00">5 &gt;</text>
</a>
</g>
</g>
<!-- manuscript_to_text_fragment&#45;&gt;manuscript -->
<g id="edge1" class="edge">
<title>manuscript_to_text_fragment:w&#45;&gt;manuscript:e</title>
<path fill="none" stroke="black" d="M181.98,-121.32C166.48,-129.31 162.14,-149 139,-149"/>
<polygon fill="black" stroke="black" points="188.7,-119.78 197.3,-121.51 192.6,-118.89 196.5,-118 196.5,-118 196.5,-118 192.6,-118.89 195.7,-114.49 188.7,-119.78 188.7,-119.78"/>
<ellipse fill="none" stroke="black" cx="185.58" cy="-120.49" rx="3.2" ry="3.2"/>
</g>
<!-- text_fragment -->
<g id="node3" class="node">
<title>text_fragment</title>
<g id="a_node3"><a xlink:href="../../tables/text_fragment.html" xlink:title="text_fragment" target="_top">
<polygon fill="#ffffff" stroke="transparent" points="8,-37 8,-99 146,-99 146,-37 8,-37"/>
<polygon fill="#f5f5f5" stroke="transparent" points="8,-77 8,-99 146,-99 146,-77 8,-77"/>
<polygon fill="none" stroke="black" points="8,-77 8,-99 146,-99 146,-77 8,-77"/>
<text text-anchor="start" x="13" y="-86.2" font-family="Helvetica,sans-Serif" font-weight="bold" font-size="11.00">text_fragment</text>
<text text-anchor="start" x="104" y="-85.2" font-family="Helvetica,sans-Serif" font-size="11.00">[table]</text>
<polygon fill="none" stroke="black" points="8,-55 8,-77 146,-77 146,-55 8,-55"/>
<image xlink:href="../../images/primaryKeys.png" width="11px" height="12px" preserveAspectRatio="xMinYMin meet" x="13" y="-72"/>
<text text-anchor="start" x="30" y="-63.2" font-family="Helvetica,sans-Serif" font-size="11.00">text_fragment_id</text>
<polygon fill="#ffffff" stroke="transparent" points="8,-37 8,-55 34,-55 34,-37 8,-37"/>
<polygon fill="none" stroke="black" points="8,-37 8,-55 34,-55 34,-37 8,-37"/>
<text text-anchor="start" x="11" y="-43.2" font-family="Helvetica,sans-Serif" font-size="11.00"> &#160;</text>
<polygon fill="#ffffff" stroke="transparent" points="34,-37 34,-55 114,-55 114,-37 34,-37"/>
<polygon fill="none" stroke="black" points="34,-37 34,-55 114,-55 114,-37 34,-37"/>
<text text-anchor="start" x="43" y="-43.2" font-family="Helvetica,sans-Serif" font-size="11.00">11,176 rows</text>
<polygon fill="#ffffff" stroke="transparent" points="114,-37 114,-55 146,-55 146,-37 114,-37"/>
<polygon fill="none" stroke="black" points="114,-37 114,-55 146,-55 146,-37 114,-37"/>
<text text-anchor="start" x="123" y="-43.2" font-family="Helvetica,sans-Serif" font-size="11.00">6 &gt;</text>
</a>
</g>
</g>
<!-- manuscript_to_text_fragment&#45;&gt;text_fragment -->
<g id="edge2" class="edge">
<title>manuscript_to_text_fragment:w&#45;&gt;text_fragment:e</title>
<path fill="none" stroke="black" d="M182.63,-92.08C170.24,-83.95 166.9,-66 147,-66"/>
<polygon fill="black" stroke="black" points="188.8,-93.82 195.52,-99.46 192.65,-94.91 196.5,-96 196.5,-96 196.5,-96 192.65,-94.91 197.48,-92.54 188.8,-93.82 188.8,-93.82"/>
<ellipse fill="none" stroke="black" cx="185.72" cy="-92.95" rx="3.2" ry="3.2"/>
</g>
<!-- manuscript_to_text_fragment_owner -->
<g id="node4" class="node">
<title>manuscript_to_text_fragment_owner</title>
<g id="a_node4"><a xlink:href="../../tables/manuscript_to_text_fragment_owner.html" xlink:title="manuscript_to_text_fragment_owner" target="_top">
<polygon fill="#ffffff" stroke="transparent" points="583,-67 583,-173 857,-173 857,-67 583,-67"/>
<polygon fill="#f5f5f5" stroke="transparent" points="583,-151 583,-173 857,-173 857,-151 583,-151"/>
<polygon fill="none" stroke="black" points="583,-151 583,-173 857,-173 857,-151 583,-151"/>
<text text-anchor="start" x="588" y="-160.2" font-family="Helvetica,sans-Serif" font-weight="bold" font-size="11.00">manuscript_to_text_fragment_owner</text>
<text text-anchor="start" x="815" y="-159.2" font-family="Helvetica,sans-Serif" font-size="11.00">[table]</text>
<polygon fill="none" stroke="black" points="583,-129 583,-151 857,-151 857,-129 583,-129"/>
<image xlink:href="../../images/primaryKeys.png" width="11px" height="12px" preserveAspectRatio="xMinYMin meet" x="588" y="-146"/>
<text text-anchor="start" x="607" y="-137.2" font-family="Helvetica,sans-Serif" font-size="11.00">manuscript_to_text_fragment_id</text>
<polygon fill="#ffffff" stroke="transparent" points="583,-107 583,-129 857,-129 857,-107 583,-107"/>
<polygon fill="none" stroke="black" points="583,-107 583,-129 857,-129 857,-107 583,-107"/>
<image xlink:href="../../images/foreignKeys.png" width="11px" height="12px" preserveAspectRatio="xMinYMin meet" x="588" y="-124"/>
<text text-anchor="start" x="607" y="-115.2" font-family="Helvetica,sans-Serif" font-size="11.00">edition_editor_id</text>
<polygon fill="none" stroke="black" points="583,-85 583,-107 857,-107 857,-85 583,-85"/>
<image xlink:href="../../images/primaryKeys.png" width="11px" height="12px" preserveAspectRatio="xMinYMin meet" x="588" y="-102"/>
<text text-anchor="start" x="607" y="-93.2" font-family="Helvetica,sans-Serif" font-size="11.00">edition_id</text>
<polygon fill="#ffffff" stroke="transparent" points="583,-67 583,-85 689,-85 689,-67 583,-67"/>
<polygon fill="none" stroke="black" points="583,-67 583,-85 689,-85 689,-67 583,-67"/>
<text text-anchor="start" x="586" y="-73.2" font-family="Helvetica,sans-Serif" font-size="11.00">&lt; 3</text>
<polygon fill="#ffffff" stroke="transparent" points="689,-67 689,-85 803,-85 803,-67 689,-67"/>
<polygon fill="none" stroke="black" points="689,-67 689,-85 803,-85 803,-67 689,-67"/>
<text text-anchor="start" x="732" y="-73.2" font-family="Helvetica,sans-Serif" font-size="11.00">11,176 rows</text>
<polygon fill="#ffffff" stroke="transparent" points="803,-67 803,-85 857,-85 857,-67 803,-67"/>
<polygon fill="none" stroke="black" points="803,-67 803,-85 857,-85 857,-67 803,-67"/>
<text text-anchor="start" x="846" y="-73.2" font-family="Helvetica,sans-Serif" font-size="11.00"> &#160;</text>
</a>
</g>
</g>
<!-- manuscript_to_text_fragment_owner&#45;&gt;manuscript_to_text_fragment -->
<g id="edge3" class="edge">
<title>manuscript_to_text_fragment_owner:w&#45;&gt;manuscript_to_text_fragment:e</title>
<path fill="none" stroke="black" d="M567.28,-140C556.29,-140 549.16,-140 533.5,-140"/>
<polygon fill="black" stroke="black" points="574,-140 582,-143.6 578,-140 582,-140 582,-140 582,-140 578,-140 582,-136.4 574,-140 574,-140"/>
<ellipse fill="none" stroke="black" cx="570.8" cy="-140" rx="3.2" ry="3.2"/>
</g>
</g>
</svg>
