<?xml version="1.0" encoding="UTF-8" standalone="no"?>
<!DOCTYPE svg PUBLIC "-//W3C//DTD SVG 1.1//EN"
 "http://www.w3.org/Graphics/SVG/1.1/DTD/svg11.dtd">
<!-- Generated by graphviz version 2.43.0 (0)
 -->
<!-- Title: oneDegreeRelationshipsDiagram Pages: 1 -->
<svg width="528pt" height="897pt"
 viewBox="0.00 0.00 528.00 897.00" xmlns="http://www.w3.org/2000/svg" xmlns:xlink="http://www.w3.org/1999/xlink">
<g id="graph0" class="graph" transform="scale(1 1) rotate(0) translate(4 893)">
<title>oneDegreeRelationshipsDiagram</title>
<polygon fill="#ffffff" stroke="transparent" points="-4,4 -4,-893 524,-893 524,4 -4,4"/>
<text text-anchor="middle" x="79.5" y="-7.2" font-family="Helvetica,sans-Serif" font-size="11.00">Generated by SchemaSpy</text>
<!-- edition -->
<g id="node1" class="node">
<title>edition</title>
<g id="a_node1"><a xlink:href="../../tables/edition.html" xlink:title="edition" target="_top">
<polygon fill="#ffffff" stroke="transparent" points="325.5,-783 325.5,-885 460.5,-885 460.5,-783 325.5,-783"/>
<polygon fill="#f5f5f5" stroke="transparent" points="326,-863 326,-885 461,-885 461,-863 326,-863"/>
<polygon fill="none" stroke="black" points="326,-863 326,-885 461,-885 461,-863 326,-863"/>
<text text-anchor="start" x="331" y="-872.2" font-family="Helvetica,sans-Serif" font-weight="bold" font-size="11.00">edition</text>
<text text-anchor="start" x="419" y="-871.2" font-family="Helvetica,sans-Serif" font-size="11.00">[table]</text>
<polygon fill="none" stroke="black" points="326,-841 326,-863 461,-863 461,-841 326,-841"/>
<image xlink:href="../../images/primaryKeys.png" width="11px" height="12px" preserveAspectRatio="xMinYMin meet" x="331" y="-858"/>
<text text-anchor="start" x="346" y="-849.2" font-family="Helvetica,sans-Serif" font-size="11.00">edition_id</text>
<polygon fill="#ffffff" stroke="transparent" points="326,-819 326,-841 461,-841 461,-819 326,-819"/>
<polygon fill="none" stroke="black" points="326,-819 326,-841 461,-841 461,-819 326,-819"/>
<image xlink:href="../../images/foreignKeys.png" width="11px" height="12px" preserveAspectRatio="xMinYMin meet" x="331" y="-836"/>
<text text-anchor="start" x="346" y="-827.2" font-family="Helvetica,sans-Serif" font-size="11.00">manuscript_id</text>
<polygon fill="none" stroke="black" points="326,-801 326,-819 461,-819 461,-801 326,-801"/>
<text text-anchor="start" x="329" y="-807.2" font-family="Helvetica,sans-Serif" font-size="11.00">...</text>
<polygon fill="#ffffff" stroke="transparent" points="326,-783 326,-801 356,-801 356,-783 326,-783"/>
<polygon fill="none" stroke="black" points="326,-783 326,-801 356,-801 356,-783 326,-783"/>
<text text-anchor="start" x="329" y="-789.2" font-family="Helvetica,sans-Serif" font-size="11.00">&lt; 1</text>
<polygon fill="#ffffff" stroke="transparent" points="356,-783 356,-801 425,-801 425,-783 356,-783"/>
<polygon fill="none" stroke="black" points="356,-783 356,-801 425,-801 425,-783 356,-783"/>
<text text-anchor="start" x="361" y="-789.2" font-family="Helvetica,sans-Serif" font-size="11.00">1,645 rows</text>
<polygon fill="#ffffff" stroke="transparent" points="425,-783 425,-801 461,-801 461,-783 425,-783"/>
<polygon fill="none" stroke="black" points="425,-783 425,-801 461,-801 461,-783 425,-783"/>
<text text-anchor="start" x="431" y="-789.2" font-family="Helvetica,sans-Serif" font-size="11.00">35 &gt;</text>
</a>
</g>
</g>
<!-- manuscript -->
<g id="node2" class="node">
<title>manuscript</title>
<g id="a_node2"><a xlink:href="../../tables/manuscript.html" xlink:title="manuscript" target="_top">
<polygon fill="#ffffff" stroke="transparent" points="8,-421 8,-487 225,-487 225,-421 8,-421"/>
<polygon fill="#f5f5f5" stroke="transparent" points="10.5,-463 10.5,-485 223.5,-485 223.5,-463 10.5,-463"/>
<polygon fill="none" stroke="black" points="10.5,-463 10.5,-485 223.5,-485 223.5,-463 10.5,-463"/>
<text text-anchor="start" x="15.5" y="-472.2" font-family="Helvetica,sans-Serif" font-weight="bold" font-size="11.00">manuscript</text>
<text text-anchor="start" x="181.5" y="-471.2" font-family="Helvetica,sans-Serif" font-size="11.00">[table]</text>
<polygon fill="none" stroke="black" points="10.5,-441 10.5,-463 126.5,-463 126.5,-441 10.5,-441"/>
<image xlink:href="../../images/primaryKeys.png" width="11px" height="12px" preserveAspectRatio="xMinYMin meet" x="15.5" y="-458"/>
<text text-anchor="start" x="30.5" y="-449.2" font-family="Helvetica,sans-Serif" font-size="11.00">manuscript_id</text>
<polygon fill="none" stroke="black" points="126.5,-441 126.5,-463 223.5,-463 223.5,-441 126.5,-441"/>
<text text-anchor="start" x="129.5" y="-449.2" font-family="Helvetica,sans-Serif" font-size="11.00">int unsigned[10]</text>
<polygon fill="#ffffff" stroke="transparent" points="10.5,-423 10.5,-441 47.5,-441 47.5,-423 10.5,-423"/>
<polygon fill="none" stroke="black" points="10.5,-423 10.5,-441 47.5,-441 47.5,-423 10.5,-423"/>
<text text-anchor="start" x="13.5" y="-429.2" font-family="Helvetica,sans-Serif" font-size="11.00">&lt; 0</text>
<polygon fill="#ffffff" stroke="transparent" points="47.5,-423 47.5,-441 126.5,-441 126.5,-423 47.5,-423"/>
<polygon fill="none" stroke="black" points="47.5,-423 47.5,-441 126.5,-441 126.5,-423 47.5,-423"/>
<text text-anchor="start" x="62.5" y="-429.2" font-family="Helvetica,sans-Serif" font-size="11.00">1,645 rows</text>
<polygon fill="#ffffff" stroke="transparent" points="126.5,-423 126.5,-441 223.5,-441 223.5,-423 126.5,-423"/>
<polygon fill="none" stroke="black" points="126.5,-423 126.5,-441 223.5,-441 223.5,-423 126.5,-423"/>
<text text-anchor="start" x="200.5" y="-429.2" font-family="Helvetica,sans-Serif" font-size="11.00">5 &gt;</text>
<polygon fill="none" stroke="black" stroke-width="2" points="9,-422 9,-486 224,-486 224,-422 9,-422"/>
</a>
</g>
</g>
<!-- edition&#45;&gt;manuscript -->
<g id="edge1" class="edge">
<title>edition:w&#45;&gt;manuscript:e</title>
<path fill="none" stroke="black" d="M310.63,-828.44C286.48,-822.57 279.94,-800.74 266,-773 233.71,-708.73 296.43,-452 224.5,-452"/>
<polygon fill="black" stroke="black" points="317.05,-829.14 324.61,-833.58 321.02,-829.57 325,-830 325,-830 325,-830 321.02,-829.57 325.39,-826.42 317.05,-829.14 317.05,-829.14"/>
<ellipse fill="none" stroke="black" cx="313.87" cy="-828.79" rx="3.2" ry="3.2"/>
</g>
<!-- iaa_edition_catalog -->
<g id="node3" class="node">
<title>iaa_edition_catalog</title>
<g id="a_node3"><a xlink:href="../../tables/iaa_edition_catalog.html" xlink:title="iaa_edition_catalog" target="_top">
<polygon fill="#ffffff" stroke="transparent" points="308.5,-528 308.5,-762 477.5,-762 477.5,-528 308.5,-528"/>
<polygon fill="#f5f5f5" stroke="transparent" points="309,-740 309,-762 478,-762 478,-740 309,-740"/>
<polygon fill="none" stroke="black" points="309,-740 309,-762 478,-762 478,-740 309,-740"/>
<text text-anchor="start" x="314" y="-749.2" font-family="Helvetica,sans-Serif" font-weight="bold" font-size="11.00">iaa_edition_catalog</text>
<text text-anchor="start" x="436" y="-748.2" font-family="Helvetica,sans-Serif" font-size="11.00">[table]</text>
<polygon fill="none" stroke="black" points="309,-718 309,-740 478,-740 478,-718 309,-718"/>
<image xlink:href="../../images/primaryKeys.png" width="11px" height="12px" preserveAspectRatio="xMinYMin meet" x="314" y="-735"/>
<text text-anchor="start" x="329" y="-726.2" font-family="Helvetica,sans-Serif" font-size="11.00">iaa_edition_catalog_id</text>
<polygon fill="#ffffff" stroke="transparent" points="309,-696 309,-718 478,-718 478,-696 309,-696"/>
<polygon fill="none" stroke="black" points="309,-696 309,-718 478,-718 478,-696 309,-696"/>
<text text-anchor="start" x="329" y="-704.2" font-family="Helvetica,sans-Serif" font-size="11.00">manuscript</text>
<polygon fill="#ffffff" stroke="transparent" points="309,-674 309,-696 478,-696 478,-674 309,-674"/>
<polygon fill="none" stroke="black" points="309,-674 309,-696 478,-696 478,-674 309,-674"/>
<text text-anchor="start" x="329" y="-682.2" font-family="Helvetica,sans-Serif" font-size="11.00">edition_name</text>
<polygon fill="#ffffff" stroke="transparent" points="309,-652 309,-674 478,-674 478,-652 309,-652"/>
<polygon fill="none" stroke="black" points="309,-652 309,-674 478,-674 478,-652 309,-652"/>
<text text-anchor="start" x="329" y="-660.2" font-family="Helvetica,sans-Serif" font-size="11.00">edition_volume</text>
<polygon fill="#ffffff" stroke="transparent" points="309,-630 309,-652 478,-652 478,-630 309,-630"/>
<polygon fill="none" stroke="black" points="309,-630 309,-652 478,-652 478,-630 309,-630"/>
<text text-anchor="start" x="329" y="-638.2" font-family="Helvetica,sans-Serif" font-size="11.00">edition_location_1</text>
<polygon fill="#ffffff" stroke="transparent" points="309,-608 309,-630 478,-630 478,-608 309,-608"/>
<polygon fill="none" stroke="black" points="309,-608 309,-630 478,-630 478,-608 309,-608"/>
<text text-anchor="start" x="329" y="-616.2" font-family="Helvetica,sans-Serif" font-size="11.00">edition_location_2</text>
<polygon fill="#ffffff" stroke="transparent" points="309,-586 309,-608 478,-608 478,-586 309,-586"/>
<polygon fill="none" stroke="black" points="309,-586 309,-608 478,-608 478,-586 309,-586"/>
<text text-anchor="start" x="329" y="-594.2" font-family="Helvetica,sans-Serif" font-size="11.00">edition_side</text>
<polygon fill="#ffffff" stroke="transparent" points="309,-564 309,-586 478,-586 478,-564 309,-564"/>
<polygon fill="none" stroke="black" points="309,-564 309,-586 478,-586 478,-564 309,-564"/>
<image xlink:href="../../images/foreignKeys.png" width="11px" height="12px" preserveAspectRatio="xMinYMin meet" x="314" y="-581"/>
<text text-anchor="start" x="329" y="-572.2" font-family="Helvetica,sans-Serif" font-size="11.00">manuscript_id</text>
<polygon fill="none" stroke="black" points="309,-546 309,-564 478,-564 478,-546 309,-546"/>
<text text-anchor="start" x="312" y="-552.2" font-family="Helvetica,sans-Serif" font-size="11.00">...</text>
<polygon fill="#ffffff" stroke="transparent" points="309,-528 309,-546 356,-546 356,-528 309,-528"/>
<polygon fill="none" stroke="black" points="309,-528 309,-546 356,-546 356,-528 309,-528"/>
<text text-anchor="start" x="312" y="-534.2" font-family="Helvetica,sans-Serif" font-size="11.00">&lt; 1</text>
<polygon fill="#ffffff" stroke="transparent" points="356,-528 356,-546 441,-546 441,-528 356,-528"/>
<polygon fill="none" stroke="black" points="356,-528 356,-546 441,-546 441,-528 356,-528"/>
<text text-anchor="start" x="370" y="-534.2" font-family="Helvetica,sans-Serif" font-size="11.00">38,927 rows</text>
<polygon fill="#ffffff" stroke="transparent" points="441,-528 441,-546 478,-546 478,-528 441,-528"/>
<polygon fill="none" stroke="black" points="441,-528 441,-546 478,-546 478,-528 441,-528"/>
<text text-anchor="start" x="455" y="-534.2" font-family="Helvetica,sans-Serif" font-size="11.00">3 &gt;</text>
</a>
</g>
</g>
<!-- iaa_edition_catalog&#45;&gt;manuscript -->
<g id="edge2" class="edge">
<title>iaa_edition_catalog:w&#45;&gt;manuscript:e</title>
<path fill="none" stroke="black" d="M293.51,-571.72C278.39,-563.08 280.26,-538.93 266,-518 246.49,-489.37 259.15,-452 224.5,-452"/>
<polygon fill="black" stroke="black" points="300.2,-573.23 307.21,-578.51 304.1,-574.12 308,-575 308,-575 308,-575 304.1,-574.12 308.79,-571.49 300.2,-573.23 300.2,-573.23"/>
<ellipse fill="none" stroke="black" cx="297.08" cy="-572.53" rx="3.2" ry="3.2"/>
</g>
<!-- manuscript_data -->
<g id="node4" class="node">
<title>manuscript_data</title>
<g id="a_node4"><a xlink:href="../../tables/manuscript_data.html" xlink:title="manuscript_data" target="_top">
<polygon fill="#ffffff" stroke="transparent" points="316,-401 316,-507 470,-507 470,-401 316,-401"/>
<polygon fill="#f5f5f5" stroke="transparent" points="316,-485 316,-507 470,-507 470,-485 316,-485"/>
<polygon fill="none" stroke="black" points="316,-485 316,-507 470,-507 470,-485 316,-485"/>
<text text-anchor="start" x="321" y="-494.2" font-family="Helvetica,sans-Serif" font-weight="bold" font-size="11.00">manuscript_data</text>
<text text-anchor="start" x="428" y="-493.2" font-family="Helvetica,sans-Serif" font-size="11.00">[table]</text>
<polygon fill="none" stroke="black" points="316,-463 316,-485 470,-485 470,-463 316,-463"/>
<image xlink:href="../../images/primaryKeys.png" width="11px" height="12px" preserveAspectRatio="xMinYMin meet" x="321" y="-480"/>
<text text-anchor="start" x="337" y="-471.2" font-family="Helvetica,sans-Serif" font-size="11.00">manuscript_data_id</text>
<polygon fill="#ffffff" stroke="transparent" points="316,-441 316,-463 470,-463 470,-441 316,-441"/>
<polygon fill="none" stroke="black" points="316,-441 316,-463 470,-463 470,-441 316,-441"/>
<image xlink:href="../../images/foreignKeys.png" width="11px" height="12px" preserveAspectRatio="xMinYMin meet" x="321" y="-458"/>
<text text-anchor="start" x="337" y="-449.2" font-family="Helvetica,sans-Serif" font-size="11.00">manuscript_id</text>
<polygon fill="#ffffff" stroke="transparent" points="316,-419 316,-441 470,-441 470,-419 316,-419"/>
<polygon fill="none" stroke="black" points="316,-419 316,-441 470,-441 470,-419 316,-419"/>
<text text-anchor="start" x="337" y="-427.2" font-family="Helvetica,sans-Serif" font-size="11.00">name</text>
<polygon fill="#ffffff" stroke="transparent" points="316,-401 316,-419 359,-419 359,-401 316,-401"/>
<polygon fill="none" stroke="black" points="316,-401 316,-419 359,-419 359,-401 316,-401"/>
<text text-anchor="start" x="319" y="-407.2" font-family="Helvetica,sans-Serif" font-size="11.00">&lt; 1</text>
<polygon fill="#ffffff" stroke="transparent" points="359,-401 359,-419 435,-419 435,-401 359,-401"/>
<polygon fill="none" stroke="black" points="359,-401 359,-419 435,-419 435,-401 359,-401"/>
<text text-anchor="start" x="371" y="-407.2" font-family="Helvetica,sans-Serif" font-size="11.00">1,371 rows</text>
<polygon fill="#ffffff" stroke="transparent" points="435,-401 435,-419 470,-419 470,-401 435,-401"/>
<polygon fill="none" stroke="black" points="435,-401 435,-419 470,-419 470,-401 435,-401"/>
<text text-anchor="start" x="447" y="-407.2" font-family="Helvetica,sans-Serif" font-size="11.00">1 &gt;</text>
</a>
</g>
</g>
<!-- manuscript_data&#45;&gt;manuscript -->
<g id="edge3" class="edge">
<title>manuscript_data:w&#45;&gt;manuscript:e</title>
<path fill="none" stroke="black" d="M300.43,-452C271.57,-452 259.38,-452 224.5,-452"/>
<polygon fill="black" stroke="black" points="307,-452 315,-455.6 311,-452 315,-452 315,-452 315,-452 311,-452 315,-448.4 307,-452 307,-452"/>
<ellipse fill="none" stroke="black" cx="303.8" cy="-452" rx="3.2" ry="3.2"/>
</g>
<!-- manuscript_metrics -->
<g id="node5" class="node">
<title>manuscript_metrics</title>
<g id="a_node5"><a xlink:href="../../tables/manuscript_metrics.html" xlink:title="manuscript_metrics" target="_top">
<polygon fill="#ffffff" stroke="transparent" points="307,-164 307,-380 479,-380 479,-164 307,-164"/>
<polygon fill="#f5f5f5" stroke="transparent" points="307,-358 307,-380 479,-380 479,-358 307,-358"/>
<polygon fill="none" stroke="black" points="307,-358 307,-380 479,-380 479,-358 307,-358"/>
<text text-anchor="start" x="312" y="-367.2" font-family="Helvetica,sans-Serif" font-weight="bold" font-size="11.00">manuscript_metrics</text>
<text text-anchor="start" x="437" y="-366.2" font-family="Helvetica,sans-Serif" font-size="11.00">[table]</text>
<polygon fill="none" stroke="black" points="307,-336 307,-358 479,-358 479,-336 307,-336"/>
<image xlink:href="../../images/primaryKeys.png" width="11px" height="12px" preserveAspectRatio="xMinYMin meet" x="312" y="-353"/>
<text text-anchor="start" x="327" y="-344.2" font-family="Helvetica,sans-Serif" font-size="11.00">manuscript_metrics_id</text>
<polygon fill="#ffffff" stroke="transparent" points="307,-314 307,-336 479,-336 479,-314 307,-314"/>
<polygon fill="none" stroke="black" points="307,-314 307,-336 479,-336 479,-314 307,-314"/>
<image xlink:href="../../images/foreignKeys.png" width="11px" height="12px" preserveAspectRatio="xMinYMin meet" x="312" y="-331"/>
<text text-anchor="start" x="327" y="-322.2" font-family="Helvetica,sans-Serif" font-size="11.00">manuscript_id</text>
<polygon fill="#ffffff" stroke="transparent" points="307,-292 307,-314 479,-314 479,-292 307,-292"/>
<polygon fill="none" stroke="black" points="307,-292 307,-314 479,-314 479,-292 307,-292"/>
<text text-anchor="start" x="327" y="-300.2" font-family="Helvetica,sans-Serif" font-size="11.00">x_origin</text>
<polygon fill="#ffffff" stroke="transparent" points="307,-270 307,-292 479,-292 479,-270 307,-270"/>
<polygon fill="none" stroke="black" points="307,-270 307,-292 479,-292 479,-270 307,-270"/>
<text text-anchor="start" x="327" y="-278.2" font-family="Helvetica,sans-Serif" font-size="11.00">y_origin</text>
<polygon fill="#ffffff" stroke="transparent" points="307,-248 307,-270 479,-270 479,-248 307,-248"/>
<polygon fill="none" stroke="black" points="307,-248 307,-270 479,-270 479,-248 307,-248"/>
<text text-anchor="start" x="327" y="-256.2" font-family="Helvetica,sans-Serif" font-size="11.00">width</text>
<polygon fill="#ffffff" stroke="transparent" points="307,-226 307,-248 479,-248 479,-226 307,-226"/>
<polygon fill="none" stroke="black" points="307,-226 307,-248 479,-248 479,-226 307,-226"/>
<text text-anchor="start" x="327" y="-234.2" font-family="Helvetica,sans-Serif" font-size="11.00">height</text>
<polygon fill="#ffffff" stroke="transparent" points="307,-204 307,-226 479,-226 479,-204 307,-204"/>
<polygon fill="none" stroke="black" points="307,-204 307,-226 479,-226 479,-204 307,-204"/>
<text text-anchor="start" x="327" y="-212.2" font-family="Helvetica,sans-Serif" font-size="11.00">pixels_per_inch</text>
<polygon fill="#ffffff" stroke="transparent" points="307,-182 307,-204 479,-204 479,-182 307,-182"/>
<polygon fill="none" stroke="black" points="307,-182 307,-204 479,-204 479,-182 307,-182"/>
<image xlink:href="../../images/foreignKeys.png" width="11px" height="12px" preserveAspectRatio="xMinYMin meet" x="312" y="-199"/>
<text text-anchor="start" x="327" y="-190.2" font-family="Helvetica,sans-Serif" font-size="11.00">scribal_font_id</text>
<polygon fill="#ffffff" stroke="transparent" points="307,-164 307,-182 359,-182 359,-164 307,-164"/>
<polygon fill="none" stroke="black" points="307,-164 307,-182 359,-182 359,-164 307,-164"/>
<text text-anchor="start" x="310" y="-170.2" font-family="Helvetica,sans-Serif" font-size="11.00">&lt; 2</text>
<polygon fill="#ffffff" stroke="transparent" points="359,-164 359,-182 439,-182 439,-164 359,-164"/>
<polygon fill="none" stroke="black" points="359,-164 359,-182 439,-182 439,-164 359,-164"/>
<text text-anchor="start" x="375" y="-170.2" font-family="Helvetica,sans-Serif" font-size="11.00">1,371 rows</text>
<polygon fill="#ffffff" stroke="transparent" points="439,-164 439,-182 479,-182 479,-164 439,-164"/>
<polygon fill="none" stroke="black" points="439,-164 439,-182 479,-182 479,-164 439,-164"/>
<text text-anchor="start" x="456" y="-170.2" font-family="Helvetica,sans-Serif" font-size="11.00">1 &gt;</text>
</a>
</g>
</g>
<!-- manuscript_metrics&#45;&gt;manuscript -->
<g id="edge4" class="edge">
<title>manuscript_metrics:w&#45;&gt;manuscript:e</title>
<path fill="none" stroke="black" d="M291.78,-327.42C246.76,-344.98 286.07,-452 224.5,-452"/>
<polygon fill="black" stroke="black" points="298.11,-326.34 306.6,-328.55 302.06,-325.67 306,-325 306,-325 306,-325 302.06,-325.67 305.4,-321.45 298.11,-326.34 298.11,-326.34"/>
<ellipse fill="none" stroke="black" cx="294.96" cy="-326.88" rx="3.2" ry="3.2"/>
</g>
<!-- manuscript_to_text_fragment -->
<g id="node6" class="node">
<title>manuscript_to_text_fragment</title>
<g id="a_node6"><a xlink:href="../../tables/manuscript_to_text_fragment.html" xlink:title="manuscript_to_text_fragment" target="_top">
<polygon fill="#ffffff" stroke="transparent" points="274,-37 274,-143 512,-143 512,-37 274,-37"/>
<polygon fill="#f5f5f5" stroke="transparent" points="274,-121 274,-143 512,-143 512,-121 274,-121"/>
<polygon fill="none" stroke="black" points="274,-121 274,-143 512,-143 512,-121 274,-121"/>
<text text-anchor="start" x="279" y="-130.2" font-family="Helvetica,sans-Serif" font-weight="bold" font-size="11.00">manuscript_to_text_fragment</text>
<text text-anchor="start" x="470" y="-129.2" font-family="Helvetica,sans-Serif" font-size="11.00">[table]</text>
<polygon fill="none" stroke="black" points="274,-99 274,-121 512,-121 512,-99 274,-99"/>
<image xlink:href="../../images/primaryKeys.png" width="11px" height="12px" preserveAspectRatio="xMinYMin meet" x="279" y="-116"/>
<text text-anchor="start" x="294" y="-107.2" font-family="Helvetica,sans-Serif" font-size="11.00">manuscript_to_text_fragment_id</text>
<polygon fill="#ffffff" stroke="transparent" points="274,-77 274,-99 512,-99 512,-77 274,-77"/>
<polygon fill="none" stroke="black" points="274,-77 274,-99 512,-99 512,-77 274,-77"/>
<image xlink:href="../../images/foreignKeys.png" width="11px" height="12px" preserveAspectRatio="xMinYMin meet" x="279" y="-94"/>
<text text-anchor="start" x="294" y="-85.2" font-family="Helvetica,sans-Serif" font-size="11.00">manuscript_id</text>
<polygon fill="#ffffff" stroke="transparent" points="274,-55 274,-77 512,-77 512,-55 274,-55"/>
<polygon fill="none" stroke="black" points="274,-55 274,-77 512,-77 512,-55 274,-55"/>
<image xlink:href="../../images/foreignKeys.png" width="11px" height="12px" preserveAspectRatio="xMinYMin meet" x="279" y="-72"/>
<text text-anchor="start" x="294" y="-63.2" font-family="Helvetica,sans-Serif" font-size="11.00">text_fragment_id</text>
<polygon fill="#ffffff" stroke="transparent" points="274,-37 274,-55 356,-55 356,-37 274,-37"/>
<polygon fill="none" stroke="black" points="274,-37 274,-55 356,-55 356,-37 274,-37"/>
<text text-anchor="start" x="277" y="-43.2" font-family="Helvetica,sans-Serif" font-size="11.00">&lt; 2</text>
<polygon fill="#ffffff" stroke="transparent" points="356,-37 356,-55 458,-55 458,-37 356,-37"/>
<polygon fill="none" stroke="black" points="356,-37 356,-55 458,-55 458,-37 356,-37"/>
<text text-anchor="start" x="387" y="-43.2" font-family="Helvetica,sans-Serif" font-size="11.00">11,166 rows</text>
<polygon fill="#ffffff" stroke="transparent" points="458,-37 458,-55 512,-55 512,-37 458,-37"/>
<polygon fill="none" stroke="black" points="458,-37 458,-55 512,-55 512,-37 458,-37"/>
<text text-anchor="start" x="489" y="-43.2" font-family="Helvetica,sans-Serif" font-size="11.00">1 &gt;</text>
</a>
</g>
</g>
<!-- manuscript_to_text_fragment&#45;&gt;manuscript -->
<g id="edge5" class="edge">
<title>manuscript_to_text_fragment:w&#45;&gt;manuscript:e</title>
<path fill="none" stroke="black" d="M259.23,-92.6C205.77,-134.74 300.68,-452 224.5,-452"/>
<polygon fill="black" stroke="black" points="265.41,-90.54 274.14,-91.41 269.21,-89.27 273,-88 273,-88 273,-88 269.21,-89.27 271.86,-84.59 265.41,-90.54 265.41,-90.54"/>
<ellipse fill="none" stroke="black" cx="262.38" cy="-91.55" rx="3.2" ry="3.2"/>
</g>
</g>
</svg>
