<?xml version="1.0" encoding="UTF-8" standalone="no"?>
<!DOCTYPE svg PUBLIC "-//W3C//DTD SVG 1.1//EN"
 "http://www.w3.org/Graphics/SVG/1.1/DTD/svg11.dtd">
<!-- Generated by graphviz version 2.40.1 (20161225.0304)
 -->
<!-- Title: oneDegreeRelationshipsDiagramImplied Pages: 1 -->
<svg width="853pt" height="990pt"
 viewBox="0.00 0.00 853.00 990.00" xmlns="http://www.w3.org/2000/svg" xmlns:xlink="http://www.w3.org/1999/xlink">
<g id="graph0" class="graph" transform="scale(1 1) rotate(0) translate(4 986)">
<title>oneDegreeRelationshipsDiagramImplied</title>
<polygon fill="#ffffff" stroke="transparent" points="-4,4 -4,-986 849,-986 849,4 -4,4"/>
<text text-anchor="middle" x="71.5" y="-7.2" font-family="Helvetica,sans-Serif" font-size="11.00" fill="#000000">Generated by SchemaSpy</text>
<!-- edition -->
<g id="node1" class="node">
<title>edition</title>
<g id="a_node1"><a xlink:href="../../tables/edition.html" xlink:title="edition" target="_top">
<polygon fill="#ffffff" stroke="transparent" points="310.5,-594 310.5,-696 445.5,-696 445.5,-594 310.5,-594"/>
<polygon fill="#f5f5f5" stroke="transparent" points="311,-674 311,-696 446,-696 446,-674 311,-674"/>
<polygon fill="none" stroke="#000000" points="311,-674 311,-696 446,-696 446,-674 311,-674"/>
<text text-anchor="start" x="316" y="-683.2" font-family="Helvetica,sans-Serif" font-weight="bold" font-size="11.00" fill="#000000">edition</text>
<text text-anchor="start" x="411" y="-682.2" font-family="Helvetica,sans-Serif" font-size="11.00" fill="#000000">[table]</text>
<polygon fill="none" stroke="#000000" points="311,-652 311,-674 446,-674 446,-652 311,-652"/>
<image xlink:href="../../images/primaryKeys.png" width="11px" height="12px" preserveAspectRatio="xMinYMin meet" x="316" y="-669"/>
<text text-anchor="start" x="331" y="-660.2" font-family="Helvetica,sans-Serif" font-size="11.00" fill="#000000">edition_id</text>
<polygon fill="#ffffff" stroke="transparent" points="311,-630 311,-652 446,-652 446,-630 311,-630"/>
<polygon fill="none" stroke="#000000" points="311,-630 311,-652 446,-652 446,-630 311,-630"/>
<image xlink:href="../../images/foreignKeys.png" width="11px" height="12px" preserveAspectRatio="xMinYMin meet" x="316" y="-647"/>
<text text-anchor="start" x="331" y="-638.2" font-family="Helvetica,sans-Serif" font-size="11.00" fill="#000000">manuscript_id</text>
<polygon fill="none" stroke="#000000" points="311,-612 311,-630 446,-630 446,-612 311,-612"/>
<text text-anchor="start" x="314" y="-618.2" font-family="Helvetica,sans-Serif" font-size="11.00" fill="#000000">...</text>
<polygon fill="#ffffff" stroke="transparent" points="311,-594 311,-612 345,-612 345,-594 311,-594"/>
<polygon fill="none" stroke="#000000" points="311,-594 311,-612 345,-612 345,-594 311,-594"/>
<text text-anchor="start" x="314" y="-600.2" font-family="Helvetica,sans-Serif" font-size="11.00" fill="#000000">&lt; 1</text>
<polygon fill="#ffffff" stroke="transparent" points="345,-594 345,-612 411,-612 411,-594 345,-594"/>
<polygon fill="none" stroke="#000000" points="345,-594 345,-612 411,-612 411,-594 345,-594"/>
<text text-anchor="start" x="354" y="-600.2" font-family="Helvetica,sans-Serif" font-size="11.00" fill="#000000">1,645 rows</text>
<polygon fill="#ffffff" stroke="transparent" points="411,-594 411,-612 446,-612 446,-594 411,-594"/>
<polygon fill="none" stroke="#000000" points="411,-594 411,-612 446,-612 446,-594 411,-594"/>
<text text-anchor="start" x="421" y="-600.2" font-family="Helvetica,sans-Serif" font-size="11.00" fill="#000000">33 &gt;</text>
</a>
</g>
</g>
<!-- manuscript -->
<g id="node2" class="node">
<title>manuscript</title>
<g id="a_node2"><a xlink:href="../../tables/manuscript.html" xlink:title="manuscript" target="_top">
<polygon fill="#ffffff" stroke="transparent" points="8,-548 8,-614 210,-614 210,-548 8,-548"/>
<polygon fill="#f5f5f5" stroke="transparent" points="10,-590 10,-612 208,-612 208,-590 10,-590"/>
<polygon fill="none" stroke="#000000" points="10,-590 10,-612 208,-612 208,-590 10,-590"/>
<text text-anchor="start" x="15" y="-599.2" font-family="Helvetica,sans-Serif" font-weight="bold" font-size="11.00" fill="#000000">manuscript</text>
<text text-anchor="start" x="173" y="-598.2" font-family="Helvetica,sans-Serif" font-size="11.00" fill="#000000">[table]</text>
<polygon fill="none" stroke="#000000" points="10,-568 10,-590 126,-590 126,-568 10,-568"/>
<image xlink:href="../../images/primaryKeys.png" width="11px" height="12px" preserveAspectRatio="xMinYMin meet" x="15" y="-585"/>
<text text-anchor="start" x="30" y="-576.2" font-family="Helvetica,sans-Serif" font-size="11.00" fill="#000000">manuscript_id</text>
<polygon fill="none" stroke="#000000" points="126,-568 126,-590 208,-590 208,-568 126,-568"/>
<text text-anchor="start" x="129" y="-576.2" font-family="Helvetica,sans-Serif" font-size="11.00" fill="#000000">int unsigned[10]</text>
<polygon fill="#ffffff" stroke="transparent" points="10,-550 10,-568 49,-568 49,-550 10,-550"/>
<polygon fill="none" stroke="#000000" points="10,-550 10,-568 49,-568 49,-550 10,-550"/>
<text text-anchor="start" x="13" y="-556.2" font-family="Helvetica,sans-Serif" font-size="11.00" fill="#000000">&lt; 0</text>
<polygon fill="#ffffff" stroke="transparent" points="49,-550 49,-568 126,-568 126,-550 49,-550"/>
<polygon fill="none" stroke="#000000" points="49,-550 49,-568 126,-568 126,-550 49,-550"/>
<text text-anchor="start" x="69" y="-556.2" font-family="Helvetica,sans-Serif" font-size="11.00" fill="#000000">1,645 rows</text>
<polygon fill="#ffffff" stroke="transparent" points="126,-550 126,-568 208,-568 208,-550 126,-550"/>
<polygon fill="none" stroke="#000000" points="126,-550 126,-568 208,-568 208,-550 126,-550"/>
<text text-anchor="start" x="189" y="-556.2" font-family="Helvetica,sans-Serif" font-size="11.00" fill="#000000">6 &gt;</text>
<polygon fill="none" stroke="#000000" stroke-width="2" points="9,-549 9,-613 209,-613 209,-549 9,-549"/>
</a>
</g>
</g>
<!-- edition&#45;&gt;manuscript -->
<g id="edge1" class="edge">
<title>edition:w&#45;&gt;manuscript:e</title>
<path fill="none" stroke="#000000" d="M296.6254,-639.2771C257.7697,-629.2636 256.1091,-579 208,-579"/>
<polygon fill="#000000" stroke="#000000" points="303.0569,-640.0479 310.5715,-644.5744 307.0284,-640.5239 311,-641 311,-641 311,-641 307.0284,-640.5239 311.4285,-637.4256 303.0569,-640.0479 303.0569,-640.0479"/>
<ellipse fill="none" stroke="#000000" cx="299.8796" cy="-639.667" rx="3.2" ry="3.2"/>
</g>
<!-- iaa_edition_catalog -->
<g id="node3" class="node">
<title>iaa_edition_catalog</title>
<g id="a_node3"><a xlink:href="../../tables/iaa_edition_catalog.html" xlink:title="iaa_edition_catalog" target="_top">
<polygon fill="#ffffff" stroke="transparent" points="293.5,-744 293.5,-978 462.5,-978 462.5,-744 293.5,-744"/>
<polygon fill="#f5f5f5" stroke="transparent" points="294,-956 294,-978 463,-978 463,-956 294,-956"/>
<polygon fill="none" stroke="#000000" points="294,-956 294,-978 463,-978 463,-956 294,-956"/>
<text text-anchor="start" x="299" y="-965.2" font-family="Helvetica,sans-Serif" font-weight="bold" font-size="11.00" fill="#000000">iaa_edition_catalog</text>
<text text-anchor="start" x="428" y="-964.2" font-family="Helvetica,sans-Serif" font-size="11.00" fill="#000000">[table]</text>
<polygon fill="none" stroke="#000000" points="294,-934 294,-956 463,-956 463,-934 294,-934"/>
<image xlink:href="../../images/primaryKeys.png" width="11px" height="12px" preserveAspectRatio="xMinYMin meet" x="299" y="-951"/>
<text text-anchor="start" x="314" y="-942.2" font-family="Helvetica,sans-Serif" font-size="11.00" fill="#000000">iaa_edition_catalog_id</text>
<polygon fill="#ffffff" stroke="transparent" points="294,-912 294,-934 463,-934 463,-912 294,-912"/>
<polygon fill="none" stroke="#000000" points="294,-912 294,-934 463,-934 463,-912 294,-912"/>
<text text-anchor="start" x="314" y="-920.2" font-family="Helvetica,sans-Serif" font-size="11.00" fill="#000000">manuscript</text>
<polygon fill="#ffffff" stroke="transparent" points="294,-890 294,-912 463,-912 463,-890 294,-890"/>
<polygon fill="none" stroke="#000000" points="294,-890 294,-912 463,-912 463,-890 294,-890"/>
<text text-anchor="start" x="314" y="-898.2" font-family="Helvetica,sans-Serif" font-size="11.00" fill="#000000">edition_name</text>
<polygon fill="#ffffff" stroke="transparent" points="294,-868 294,-890 463,-890 463,-868 294,-868"/>
<polygon fill="none" stroke="#000000" points="294,-868 294,-890 463,-890 463,-868 294,-868"/>
<text text-anchor="start" x="314" y="-876.2" font-family="Helvetica,sans-Serif" font-size="11.00" fill="#000000">edition_volume</text>
<polygon fill="#ffffff" stroke="transparent" points="294,-846 294,-868 463,-868 463,-846 294,-846"/>
<polygon fill="none" stroke="#000000" points="294,-846 294,-868 463,-868 463,-846 294,-846"/>
<text text-anchor="start" x="314" y="-854.2" font-family="Helvetica,sans-Serif" font-size="11.00" fill="#000000">edition_location_1</text>
<polygon fill="#ffffff" stroke="transparent" points="294,-824 294,-846 463,-846 463,-824 294,-824"/>
<polygon fill="none" stroke="#000000" points="294,-824 294,-846 463,-846 463,-824 294,-824"/>
<text text-anchor="start" x="314" y="-832.2" font-family="Helvetica,sans-Serif" font-size="11.00" fill="#000000">edition_location_2</text>
<polygon fill="#ffffff" stroke="transparent" points="294,-802 294,-824 463,-824 463,-802 294,-802"/>
<polygon fill="none" stroke="#000000" points="294,-802 294,-824 463,-824 463,-802 294,-802"/>
<text text-anchor="start" x="314" y="-810.2" font-family="Helvetica,sans-Serif" font-size="11.00" fill="#000000">edition_side</text>
<polygon fill="#ffffff" stroke="transparent" points="294,-780 294,-802 463,-802 463,-780 294,-780"/>
<polygon fill="none" stroke="#000000" points="294,-780 294,-802 463,-802 463,-780 294,-780"/>
<image xlink:href="../../images/foreignKeys.png" width="11px" height="12px" preserveAspectRatio="xMinYMin meet" x="299" y="-797"/>
<text text-anchor="start" x="314" y="-788.2" font-family="Helvetica,sans-Serif" font-size="11.00" fill="#000000">manuscript_id</text>
<polygon fill="none" stroke="#000000" points="294,-762 294,-780 463,-780 463,-762 294,-762"/>
<text text-anchor="start" x="297" y="-768.2" font-family="Helvetica,sans-Serif" font-size="11.00" fill="#000000">...</text>
<polygon fill="#ffffff" stroke="transparent" points="294,-744 294,-762 345,-762 345,-744 294,-744"/>
<polygon fill="none" stroke="#000000" points="294,-744 294,-762 345,-762 345,-744 294,-744"/>
<text text-anchor="start" x="297" y="-750.2" font-family="Helvetica,sans-Serif" font-size="11.00" fill="#000000">&lt; 1</text>
<polygon fill="#ffffff" stroke="transparent" points="345,-744 345,-762 426,-762 426,-744 345,-744"/>
<polygon fill="none" stroke="#000000" points="345,-744 345,-762 426,-762 426,-744 345,-744"/>
<text text-anchor="start" x="363" y="-750.2" font-family="Helvetica,sans-Serif" font-size="11.00" fill="#000000">37,640 rows</text>
<polygon fill="#ffffff" stroke="transparent" points="426,-744 426,-762 463,-762 463,-744 426,-744"/>
<polygon fill="none" stroke="#000000" points="426,-744 426,-762 463,-762 463,-744 426,-744"/>
<text text-anchor="start" x="444" y="-750.2" font-family="Helvetica,sans-Serif" font-size="11.00" fill="#000000">3 &gt;</text>
</a>
</g>
</g>
<!-- iaa_edition_catalog&#45;&gt;manuscript -->
<g id="edge2" class="edge">
<title>iaa_edition_catalog:w&#45;&gt;manuscript:e</title>
<path fill="none" stroke="#000000" d="M279.6907,-788.2948C261.8215,-780.112 262.7862,-754.6683 251,-730 220.9175,-667.0383 277.7792,-579 208,-579"/>
<polygon fill="#000000" stroke="#000000" points="286.1392,-789.5139 293.3312,-794.5373 290.0696,-790.2569 294,-791 294,-791 294,-791 290.0696,-790.2569 294.6688,-787.4627 286.1392,-789.5139 286.1392,-789.5139"/>
<ellipse fill="none" stroke="#000000" cx="282.9949" cy="-788.9194" rx="3.2" ry="3.2"/>
</g>
<!-- image_text_fragment_match_catalogue -->
<g id="node4" class="node">
<title>image_text_fragment_match_catalogue</title>
<g id="a_node4"><a xlink:href="../../tables/image_text_fragment_match_catalogue.html" xlink:title="image_text_fragment_match_catalogue" target="_top">
<polygon fill="#ffffff" stroke="transparent" points="546,-640 546,-746 837,-746 837,-640 546,-640"/>
<polygon fill="#f5f5f5" stroke="transparent" points="546.5,-724 546.5,-746 837.5,-746 837.5,-724 546.5,-724"/>
<polygon fill="none" stroke="#000000" points="546.5,-724 546.5,-746 837.5,-746 837.5,-724 546.5,-724"/>
<text text-anchor="start" x="551.5" y="-733.2" font-family="Helvetica,sans-Serif" font-weight="bold" font-size="11.00" fill="#000000">image_text_fragment_match_catalogue</text>
<text text-anchor="start" x="804.5" y="-732.2" font-family="Helvetica,sans-Serif" font-size="11.00" fill="#000000">[view]</text>
<polygon fill="none" stroke="#000000" points="546.5,-702 546.5,-724 837.5,-724 837.5,-702 546.5,-702"/>
<image xlink:href="../../images/foreignKeys.png" width="11px" height="12px" preserveAspectRatio="xMinYMin meet" x="551.5" y="-719"/>
<text text-anchor="start" x="566.5" y="-710.2" font-family="Helvetica,sans-Serif" font-size="11.00" fill="#000000">manuscript_id</text>
<polygon fill="none" stroke="#000000" points="546.5,-680 546.5,-702 837.5,-702 837.5,-680 546.5,-680"/>
<image xlink:href="../../images/foreignKeys.png" width="11px" height="12px" preserveAspectRatio="xMinYMin meet" x="551.5" y="-697"/>
<text text-anchor="start" x="566.5" y="-688.2" font-family="Helvetica,sans-Serif" font-size="11.00" fill="#000000">text_fragment_id</text>
<polygon fill="none" stroke="#000000" points="546.5,-658 546.5,-680 837.5,-680 837.5,-658 546.5,-658"/>
<image xlink:href="../../images/foreignKeys.png" width="11px" height="12px" preserveAspectRatio="xMinYMin meet" x="551.5" y="-675"/>
<text text-anchor="start" x="566.5" y="-666.2" font-family="Helvetica,sans-Serif" font-size="11.00" fill="#000000">edition_id</text>
<polygon fill="none" stroke="#000000" points="546.5,-640 546.5,-658 837.5,-658 837.5,-640 546.5,-640"/>
<text text-anchor="start" x="549.5" y="-646.2" font-family="Helvetica,sans-Serif" font-size="11.00" fill="#000000">...</text>
</a>
</g>
</g>
<!-- image_text_fragment_match_catalogue&#45;&gt;edition -->
<g id="edge3" class="edge">
<title>image_text_fragment_match_catalogue:w&#45;&gt;edition:e</title>
<path fill="none" stroke="#000000" stroke-dasharray="5,2" d="M532.0503,-668.7721C498.7106,-667.6761 485.5025,-663 446,-663"/>
<polygon fill="#000000" stroke="#000000" points="538.501,-668.8738 546.4432,-672.5996 542.5005,-668.9369 546.5,-669 546.5,-669 546.5,-669 542.5005,-668.9369 546.5568,-665.4004 538.501,-668.8738 538.501,-668.8738"/>
<ellipse fill="none" stroke="#000000" cx="535.3014" cy="-668.8233" rx="3.2" ry="3.2"/>
</g>
<!-- image_text_fragment_match_catalogue&#45;&gt;manuscript -->
<g id="edge4" class="edge">
<title>image_text_fragment_match_catalogue:w&#45;&gt;manuscript:e</title>
<path fill="none" stroke="#000000" stroke-dasharray="5,2" d="M532.013,-713.4043C457.8739,-717.0505 300.4203,-743.2989 251,-707 202.6319,-671.4739 268.0132,-579 208,-579"/>
<polygon fill="#000000" stroke="#000000" points="538.5031,-713.2233 546.6005,-716.5986 542.5016,-713.1116 546.5,-713 546.5,-713 546.5,-713 542.5016,-713.1116 546.3995,-709.4014 538.5031,-713.2233 538.5031,-713.2233"/>
<ellipse fill="none" stroke="#000000" cx="535.3044" cy="-713.3126" rx="3.2" ry="3.2"/>
</g>
<!-- manuscript_data -->
<g id="node5" class="node">
<title>manuscript_data</title>
<g id="a_node5"><a xlink:href="../../tables/manuscript_data.html" xlink:title="manuscript_data" target="_top">
<polygon fill="#ffffff" stroke="transparent" points="302,-445 302,-573 454,-573 454,-445 302,-445"/>
<polygon fill="#f5f5f5" stroke="transparent" points="302,-551 302,-573 454,-573 454,-551 302,-551"/>
<polygon fill="none" stroke="#000000" points="302,-551 302,-573 454,-573 454,-551 302,-551"/>
<text text-anchor="start" x="307" y="-560.2" font-family="Helvetica,sans-Serif" font-weight="bold" font-size="11.00" fill="#000000">manuscript_data</text>
<text text-anchor="start" x="419" y="-559.2" font-family="Helvetica,sans-Serif" font-size="11.00" fill="#000000">[table]</text>
<polygon fill="none" stroke="#000000" points="302,-529 302,-551 454,-551 454,-529 302,-529"/>
<image xlink:href="../../images/primaryKeys.png" width="11px" height="12px" preserveAspectRatio="xMinYMin meet" x="307" y="-546"/>
<text text-anchor="start" x="322" y="-537.2" font-family="Helvetica,sans-Serif" font-size="11.00" fill="#000000">manuscript_data_id</text>
<polygon fill="#ffffff" stroke="transparent" points="302,-507 302,-529 454,-529 454,-507 302,-507"/>
<polygon fill="none" stroke="#000000" points="302,-507 302,-529 454,-529 454,-507 302,-507"/>
<image xlink:href="../../images/foreignKeys.png" width="11px" height="12px" preserveAspectRatio="xMinYMin meet" x="307" y="-524"/>
<text text-anchor="start" x="322" y="-515.2" font-family="Helvetica,sans-Serif" font-size="11.00" fill="#000000">manuscript_id</text>
<polygon fill="#ffffff" stroke="transparent" points="302,-485 302,-507 454,-507 454,-485 302,-485"/>
<polygon fill="none" stroke="#000000" points="302,-485 302,-507 454,-507 454,-485 302,-485"/>
<text text-anchor="start" x="322" y="-493.2" font-family="Helvetica,sans-Serif" font-size="11.00" fill="#000000">name</text>
<polygon fill="#ffffff" stroke="transparent" points="302,-463 302,-485 454,-485 454,-463 302,-463"/>
<polygon fill="none" stroke="#000000" points="302,-463 302,-485 454,-485 454,-463 302,-463"/>
<image xlink:href="../../images/foreignKeys.png" width="11px" height="12px" preserveAspectRatio="xMinYMin meet" x="307" y="-480"/>
<text text-anchor="start" x="322" y="-471.2" font-family="Helvetica,sans-Serif" font-size="11.00" fill="#000000">creator_id</text>
<polygon fill="#ffffff" stroke="transparent" points="302,-445 302,-463 348,-463 348,-445 302,-445"/>
<polygon fill="none" stroke="#000000" points="302,-445 302,-463 348,-463 348,-445 302,-445"/>
<text text-anchor="start" x="305" y="-451.2" font-family="Helvetica,sans-Serif" font-size="11.00" fill="#000000">&lt; 2</text>
<polygon fill="#ffffff" stroke="transparent" points="348,-445 348,-463 420,-463 420,-445 348,-445"/>
<polygon fill="none" stroke="#000000" points="348,-445 348,-463 420,-463 420,-445 348,-445"/>
<text text-anchor="start" x="363" y="-451.2" font-family="Helvetica,sans-Serif" font-size="11.00" fill="#000000">1,371 rows</text>
<polygon fill="#ffffff" stroke="transparent" points="420,-445 420,-463 454,-463 454,-445 420,-445"/>
<polygon fill="none" stroke="#000000" points="420,-445 420,-463 454,-463 454,-445 420,-445"/>
<text text-anchor="start" x="435" y="-451.2" font-family="Helvetica,sans-Serif" font-size="11.00" fill="#000000">1 &gt;</text>
</a>
</g>
</g>
<!-- manuscript_data&#45;&gt;manuscript -->
<g id="edge5" class="edge">
<title>manuscript_data:w&#45;&gt;manuscript:e</title>
<path fill="none" stroke="#000000" d="M287.5018,-520.0296C252.7601,-530.614 252.3563,-579 208,-579"/>
<polygon fill="#000000" stroke="#000000" points="294.0773,-519.1091 302.4991,-521.5652 298.0386,-518.5546 302,-518 302,-518 302,-518 298.0386,-518.5546 301.5009,-514.4348 294.0773,-519.1091 294.0773,-519.1091"/>
<ellipse fill="none" stroke="#000000" cx="290.9082" cy="-519.5528" rx="3.2" ry="3.2"/>
</g>
<!-- manuscript_metrics -->
<g id="node6" class="node">
<title>manuscript_metrics</title>
<g id="a_node6"><a xlink:href="../../tables/manuscript_metrics.html" xlink:title="manuscript_metrics" target="_top">
<polygon fill="#ffffff" stroke="transparent" points="292,-186 292,-424 464,-424 464,-186 292,-186"/>
<polygon fill="#f5f5f5" stroke="transparent" points="292,-402 292,-424 464,-424 464,-402 292,-402"/>
<polygon fill="none" stroke="#000000" points="292,-402 292,-424 464,-424 464,-402 292,-402"/>
<text text-anchor="start" x="297" y="-411.2" font-family="Helvetica,sans-Serif" font-weight="bold" font-size="11.00" fill="#000000">manuscript_metrics</text>
<text text-anchor="start" x="429" y="-410.2" font-family="Helvetica,sans-Serif" font-size="11.00" fill="#000000">[table]</text>
<polygon fill="none" stroke="#000000" points="292,-380 292,-402 464,-402 464,-380 292,-380"/>
<image xlink:href="../../images/primaryKeys.png" width="11px" height="12px" preserveAspectRatio="xMinYMin meet" x="297" y="-397"/>
<text text-anchor="start" x="312" y="-388.2" font-family="Helvetica,sans-Serif" font-size="11.00" fill="#000000">manuscript_metrics_id</text>
<polygon fill="#ffffff" stroke="transparent" points="292,-358 292,-380 464,-380 464,-358 292,-358"/>
<polygon fill="none" stroke="#000000" points="292,-358 292,-380 464,-380 464,-358 292,-358"/>
<image xlink:href="../../images/foreignKeys.png" width="11px" height="12px" preserveAspectRatio="xMinYMin meet" x="297" y="-375"/>
<text text-anchor="start" x="312" y="-366.2" font-family="Helvetica,sans-Serif" font-size="11.00" fill="#000000">manuscript_id</text>
<polygon fill="#ffffff" stroke="transparent" points="292,-336 292,-358 464,-358 464,-336 292,-336"/>
<polygon fill="none" stroke="#000000" points="292,-336 292,-358 464,-358 464,-336 292,-336"/>
<text text-anchor="start" x="312" y="-344.2" font-family="Helvetica,sans-Serif" font-size="11.00" fill="#000000">x_origin</text>
<polygon fill="#ffffff" stroke="transparent" points="292,-314 292,-336 464,-336 464,-314 292,-314"/>
<polygon fill="none" stroke="#000000" points="292,-314 292,-336 464,-336 464,-314 292,-314"/>
<text text-anchor="start" x="312" y="-322.2" font-family="Helvetica,sans-Serif" font-size="11.00" fill="#000000">y_origin</text>
<polygon fill="#ffffff" stroke="transparent" points="292,-292 292,-314 464,-314 464,-292 292,-292"/>
<polygon fill="none" stroke="#000000" points="292,-292 292,-314 464,-314 464,-292 292,-292"/>
<text text-anchor="start" x="312" y="-300.2" font-family="Helvetica,sans-Serif" font-size="11.00" fill="#000000">width</text>
<polygon fill="#ffffff" stroke="transparent" points="292,-270 292,-292 464,-292 464,-270 292,-270"/>
<polygon fill="none" stroke="#000000" points="292,-270 292,-292 464,-292 464,-270 292,-270"/>
<text text-anchor="start" x="312" y="-278.2" font-family="Helvetica,sans-Serif" font-size="11.00" fill="#000000">height</text>
<polygon fill="#ffffff" stroke="transparent" points="292,-248 292,-270 464,-270 464,-248 292,-248"/>
<polygon fill="none" stroke="#000000" points="292,-248 292,-270 464,-270 464,-248 292,-248"/>
<text text-anchor="start" x="312" y="-256.2" font-family="Helvetica,sans-Serif" font-size="11.00" fill="#000000">pixels_per_inch</text>
<polygon fill="#ffffff" stroke="transparent" points="292,-226 292,-248 464,-248 464,-226 292,-226"/>
<polygon fill="none" stroke="#000000" points="292,-226 292,-248 464,-248 464,-226 292,-226"/>
<image xlink:href="../../images/foreignKeys.png" width="11px" height="12px" preserveAspectRatio="xMinYMin meet" x="297" y="-243"/>
<text text-anchor="start" x="312" y="-234.2" font-family="Helvetica,sans-Serif" font-size="11.00" fill="#000000">scribal_font_id</text>
<polygon fill="#ffffff" stroke="transparent" points="292,-204 292,-226 464,-226 464,-204 292,-204"/>
<polygon fill="none" stroke="#000000" points="292,-204 292,-226 464,-226 464,-204 292,-204"/>
<image xlink:href="../../images/foreignKeys.png" width="11px" height="12px" preserveAspectRatio="xMinYMin meet" x="297" y="-221"/>
<text text-anchor="start" x="312" y="-212.2" font-family="Helvetica,sans-Serif" font-size="11.00" fill="#000000">creator_id</text>
<polygon fill="#ffffff" stroke="transparent" points="292,-186 292,-204 348,-204 348,-186 292,-186"/>
<polygon fill="none" stroke="#000000" points="292,-186 292,-204 348,-204 348,-186 292,-186"/>
<text text-anchor="start" x="295" y="-192.2" font-family="Helvetica,sans-Serif" font-size="11.00" fill="#000000">&lt; 3</text>
<polygon fill="#ffffff" stroke="transparent" points="348,-186 348,-204 425,-204 425,-186 348,-186"/>
<polygon fill="none" stroke="#000000" points="348,-186 348,-204 425,-204 425,-186 348,-186"/>
<text text-anchor="start" x="368" y="-192.2" font-family="Helvetica,sans-Serif" font-size="11.00" fill="#000000">1,371 rows</text>
<polygon fill="#ffffff" stroke="transparent" points="425,-186 425,-204 464,-204 464,-186 425,-186"/>
<polygon fill="none" stroke="#000000" points="425,-186 425,-204 464,-204 464,-186 425,-186"/>
<text text-anchor="start" x="445" y="-192.2" font-family="Helvetica,sans-Serif" font-size="11.00" fill="#000000">1 &gt;</text>
</a>
</g>
</g>
<!-- manuscript_metrics&#45;&gt;manuscript -->
<g id="edge6" class="edge">
<title>manuscript_metrics:w&#45;&gt;manuscript:e</title>
<path fill="none" stroke="#000000" d="M277.7397,-371.8172C259.7073,-380.5676 262.6758,-408.237 251,-434 223.253,-495.2244 275.2185,-579 208,-579"/>
<polygon fill="#000000" stroke="#000000" points="284.1517,-370.5505 292.6977,-372.5317 288.0758,-369.7753 292,-369 292,-369 292,-369 288.0758,-369.7753 291.3023,-365.4683 284.1517,-370.5505 284.1517,-370.5505"/>
<ellipse fill="none" stroke="#000000" cx="281.0124" cy="-371.1708" rx="3.2" ry="3.2"/>
</g>
<!-- manuscript_to_text_fragment -->
<g id="node7" class="node">
<title>manuscript_to_text_fragment</title>
<g id="a_node7"><a xlink:href="../../tables/manuscript_to_text_fragment.html" xlink:title="manuscript_to_text_fragment" target="_top">
<polygon fill="#ffffff" stroke="transparent" points="259,-37 259,-165 497,-165 497,-37 259,-37"/>
<polygon fill="#f5f5f5" stroke="transparent" points="259,-143 259,-165 497,-165 497,-143 259,-143"/>
<polygon fill="none" stroke="#000000" points="259,-143 259,-165 497,-165 497,-143 259,-143"/>
<text text-anchor="start" x="264" y="-152.2" font-family="Helvetica,sans-Serif" font-weight="bold" font-size="11.00" fill="#000000">manuscript_to_text_fragment</text>
<text text-anchor="start" x="462" y="-151.2" font-family="Helvetica,sans-Serif" font-size="11.00" fill="#000000">[table]</text>
<polygon fill="none" stroke="#000000" points="259,-121 259,-143 497,-143 497,-121 259,-121"/>
<image xlink:href="../../images/primaryKeys.png" width="11px" height="12px" preserveAspectRatio="xMinYMin meet" x="264" y="-138"/>
<text text-anchor="start" x="279" y="-129.2" font-family="Helvetica,sans-Serif" font-size="11.00" fill="#000000">manuscript_to_text_fragment_id</text>
<polygon fill="#ffffff" stroke="transparent" points="259,-99 259,-121 497,-121 497,-99 259,-99"/>
<polygon fill="none" stroke="#000000" points="259,-99 259,-121 497,-121 497,-99 259,-99"/>
<image xlink:href="../../images/foreignKeys.png" width="11px" height="12px" preserveAspectRatio="xMinYMin meet" x="264" y="-116"/>
<text text-anchor="start" x="279" y="-107.2" font-family="Helvetica,sans-Serif" font-size="11.00" fill="#000000">manuscript_id</text>
<polygon fill="#ffffff" stroke="transparent" points="259,-77 259,-99 497,-99 497,-77 259,-77"/>
<polygon fill="none" stroke="#000000" points="259,-77 259,-99 497,-99 497,-77 259,-77"/>
<image xlink:href="../../images/foreignKeys.png" width="11px" height="12px" preserveAspectRatio="xMinYMin meet" x="264" y="-94"/>
<text text-anchor="start" x="279" y="-85.2" font-family="Helvetica,sans-Serif" font-size="11.00" fill="#000000">text_fragment_id</text>
<polygon fill="#ffffff" stroke="transparent" points="259,-55 259,-77 497,-77 497,-55 259,-55"/>
<polygon fill="none" stroke="#000000" points="259,-55 259,-77 497,-77 497,-55 259,-55"/>
<image xlink:href="../../images/foreignKeys.png" width="11px" height="12px" preserveAspectRatio="xMinYMin meet" x="264" y="-72"/>
<text text-anchor="start" x="279" y="-63.2" font-family="Helvetica,sans-Serif" font-size="11.00" fill="#000000">creator_id</text>
<polygon fill="#ffffff" stroke="transparent" points="259,-37 259,-55 345,-55 345,-37 259,-37"/>
<polygon fill="none" stroke="#000000" points="259,-37 259,-55 345,-55 345,-37 259,-37"/>
<text text-anchor="start" x="262" y="-43.2" font-family="Helvetica,sans-Serif" font-size="11.00" fill="#000000">&lt; 3</text>
<polygon fill="#ffffff" stroke="transparent" points="345,-37 345,-55 443,-55 443,-37 345,-37"/>
<polygon fill="none" stroke="#000000" points="345,-37 345,-55 443,-55 443,-37 345,-37"/>
<text text-anchor="start" x="380" y="-43.2" font-family="Helvetica,sans-Serif" font-size="11.00" fill="#000000">11,152 rows</text>
<polygon fill="#ffffff" stroke="transparent" points="443,-37 443,-55 497,-55 497,-37 443,-37"/>
<polygon fill="none" stroke="#000000" points="443,-37 443,-55 497,-55 497,-37 443,-37"/>
<text text-anchor="start" x="478" y="-43.2" font-family="Helvetica,sans-Serif" font-size="11.00" fill="#000000">1 &gt;</text>
</a>
</g>
</g>
<!-- manuscript_to_text_fragment&#45;&gt;manuscript -->
<g id="edge7" class="edge">
<title>manuscript_to_text_fragment:w&#45;&gt;manuscript:e</title>
<path fill="none" stroke="#000000" d="M244.9983,-113.5054C169.5991,-156.4234 307.5129,-579 208,-579"/>
<polygon fill="#000000" stroke="#000000" points="251.2395,-111.943 259.8743,-113.4922 255.1198,-110.9715 259,-110 259,-110 259,-110 255.1198,-110.9715 258.1257,-106.5078 251.2395,-111.943 251.2395,-111.943"/>
<ellipse fill="none" stroke="#000000" cx="248.1353" cy="-112.7201" rx="3.2" ry="3.2"/>
</g>
</g>
</svg>
