<?xml version="1.0" encoding="UTF-8" standalone="no"?>
<!DOCTYPE svg PUBLIC "-//W3C//DTD SVG 1.1//EN"
 "http://www.w3.org/Graphics/SVG/1.1/DTD/svg11.dtd">
<!-- Generated by graphviz version 2.40.1 (20161225.0304)
 -->
<!-- Title: oneDegreeRelationshipsDiagramImplied Pages: 1 -->
<svg width="876pt" height="317pt"
 viewBox="0.00 0.00 876.00 317.00" xmlns="http://www.w3.org/2000/svg" xmlns:xlink="http://www.w3.org/1999/xlink">
<g id="graph0" class="graph" transform="scale(1 1) rotate(0) translate(4 313)">
<title>oneDegreeRelationshipsDiagramImplied</title>
<polygon fill="#ffffff" stroke="transparent" points="-4,4 -4,-313 872,-313 872,4 -4,4"/>
<text text-anchor="middle" x="71.5" y="-7.2" font-family="Helvetica,sans-Serif" font-size="11.00" fill="#000000">Generated by SchemaSpy</text>
<!-- manuscript_to_text_fragment -->
<g id="node1" class="node">
<title>manuscript_to_text_fragment</title>
<g id="a_node1"><a xlink:href="../../tables/manuscript_to_text_fragment.html" xlink:title="manuscript_to_text_fragment" target="_top">
<polygon fill="#ffffff" stroke="transparent" points="220,-136 220,-268 544,-268 544,-136 220,-136"/>
<polygon fill="#f5f5f5" stroke="transparent" points="222,-244 222,-266 542,-266 542,-244 222,-244"/>
<polygon fill="none" stroke="#000000" points="222,-244 222,-266 542,-266 542,-244 222,-244"/>
<text text-anchor="start" x="227" y="-253.2" font-family="Helvetica,sans-Serif" font-weight="bold" font-size="11.00" fill="#000000">manuscript_to_text_fragment</text>
<text text-anchor="start" x="507" y="-252.2" font-family="Helvetica,sans-Serif" font-size="11.00" fill="#000000">[table]</text>
<polygon fill="none" stroke="#000000" points="222,-222 222,-244 460,-244 460,-222 222,-222"/>
<image xlink:href="../../images/primaryKeys.png" width="11px" height="12px" preserveAspectRatio="xMinYMin meet" x="227" y="-239"/>
<text text-anchor="start" x="242" y="-230.2" font-family="Helvetica,sans-Serif" font-size="11.00" fill="#000000">manuscript_to_text_fragment_id</text>
<polygon fill="none" stroke="#000000" points="460,-222 460,-244 542,-244 542,-222 460,-222"/>
<text text-anchor="start" x="463" y="-230.2" font-family="Helvetica,sans-Serif" font-size="11.00" fill="#000000">int unsigned[10]</text>
<polygon fill="#ffffff" stroke="transparent" points="222,-200 222,-222 460,-222 460,-200 222,-200"/>
<polygon fill="none" stroke="#000000" points="222,-200 222,-222 460,-222 460,-200 222,-200"/>
<image xlink:href="../../images/foreignKeys.png" width="11px" height="12px" preserveAspectRatio="xMinYMin meet" x="227" y="-217"/>
<text text-anchor="start" x="242" y="-208.2" font-family="Helvetica,sans-Serif" font-size="11.00" fill="#000000">manuscript_id</text>
<polygon fill="none" stroke="#000000" points="460,-200 460,-222 542,-222 542,-200 460,-200"/>
<text text-anchor="start" x="463" y="-208.2" font-family="Helvetica,sans-Serif" font-size="11.00" fill="#000000">int unsigned[10]</text>
<polygon fill="#ffffff" stroke="transparent" points="222,-178 222,-200 460,-200 460,-178 222,-178"/>
<polygon fill="none" stroke="#000000" points="222,-178 222,-200 460,-200 460,-178 222,-178"/>
<image xlink:href="../../images/foreignKeys.png" width="11px" height="12px" preserveAspectRatio="xMinYMin meet" x="227" y="-195"/>
<text text-anchor="start" x="242" y="-186.2" font-family="Helvetica,sans-Serif" font-size="11.00" fill="#000000">text_fragment_id</text>
<polygon fill="none" stroke="#000000" points="460,-178 460,-200 542,-200 542,-178 460,-178"/>
<text text-anchor="start" x="463" y="-186.2" font-family="Helvetica,sans-Serif" font-size="11.00" fill="#000000">int unsigned[10]</text>
<polygon fill="#ffffff" stroke="transparent" points="222,-156 222,-178 460,-178 460,-156 222,-156"/>
<polygon fill="none" stroke="#000000" points="222,-156 222,-178 460,-178 460,-156 222,-156"/>
<image xlink:href="../../images/foreignKeys.png" width="11px" height="12px" preserveAspectRatio="xMinYMin meet" x="227" y="-173"/>
<text text-anchor="start" x="242" y="-164.2" font-family="Helvetica,sans-Serif" font-size="11.00" fill="#000000">creator_id</text>
<polygon fill="none" stroke="#000000" points="460,-156 460,-178 542,-178 542,-156 460,-156"/>
<text text-anchor="start" x="463" y="-164.2" font-family="Helvetica,sans-Serif" font-size="11.00" fill="#000000">int unsigned[10]</text>
<polygon fill="#ffffff" stroke="transparent" points="222,-138 222,-156 319,-156 319,-138 222,-138"/>
<polygon fill="none" stroke="#000000" points="222,-138 222,-156 319,-156 319,-138 222,-138"/>
<text text-anchor="start" x="225" y="-144.2" font-family="Helvetica,sans-Serif" font-size="11.00" fill="#000000">&lt; 3</text>
<polygon fill="#ffffff" stroke="transparent" points="319,-138 319,-156 460,-156 460,-138 319,-138"/>
<polygon fill="none" stroke="#000000" points="319,-138 319,-156 460,-156 460,-138 319,-138"/>
<text text-anchor="start" x="397" y="-144.2" font-family="Helvetica,sans-Serif" font-size="11.00" fill="#000000">11,152 rows</text>
<polygon fill="#ffffff" stroke="transparent" points="460,-138 460,-156 542,-156 542,-138 460,-138"/>
<polygon fill="none" stroke="#000000" points="460,-138 460,-156 542,-156 542,-138 460,-138"/>
<text text-anchor="start" x="523" y="-144.2" font-family="Helvetica,sans-Serif" font-size="11.00" fill="#000000">1 &gt;</text>
<polygon fill="none" stroke="#000000" stroke-width="2" points="221,-137 221,-267 543,-267 543,-137 221,-137"/>
</a>
</g>
</g>
<!-- user -->
<g id="node2" class="node">
<title>user</title>
<g id="a_node2"><a xlink:href="../../tables/user.html" xlink:title="user" target="_top">
<polygon fill="#ffffff" stroke="transparent" points="8,-37 8,-139 171,-139 171,-37 8,-37"/>
<polygon fill="#f5f5f5" stroke="transparent" points="8.5,-117 8.5,-139 171.5,-139 171.5,-117 8.5,-117"/>
<polygon fill="none" stroke="#000000" points="8.5,-117 8.5,-139 171.5,-139 171.5,-117 8.5,-117"/>
<text text-anchor="start" x="13.5" y="-126.2" font-family="Helvetica,sans-Serif" font-weight="bold" font-size="11.00" fill="#000000">user</text>
<text text-anchor="start" x="136.5" y="-125.2" font-family="Helvetica,sans-Serif" font-size="11.00" fill="#000000">[table]</text>
<polygon fill="none" stroke="#000000" points="8.5,-95 8.5,-117 171.5,-117 171.5,-95 8.5,-95"/>
<image xlink:href="../../images/primaryKeys.png" width="11px" height="12px" preserveAspectRatio="xMinYMin meet" x="13.5" y="-112"/>
<text text-anchor="start" x="28.5" y="-103.2" font-family="Helvetica,sans-Serif" font-size="11.00" fill="#000000">user_id</text>
<polygon fill="#ffffff" stroke="transparent" points="8.5,-73 8.5,-95 171.5,-95 171.5,-73 8.5,-73"/>
<polygon fill="none" stroke="#000000" points="8.5,-73 8.5,-95 171.5,-95 171.5,-73 8.5,-73"/>
<text text-anchor="start" x="28.5" y="-81.2" font-family="Helvetica,sans-Serif" font-size="11.00" fill="#000000">email</text>
<polygon fill="none" stroke="#000000" points="8.5,-55 8.5,-73 171.5,-73 171.5,-55 8.5,-55"/>
<text text-anchor="start" x="11.5" y="-61.2" font-family="Helvetica,sans-Serif" font-size="11.00" fill="#000000">...</text>
<polygon fill="#ffffff" stroke="transparent" points="8.5,-37 8.5,-55 62.5,-55 62.5,-37 8.5,-37"/>
<polygon fill="none" stroke="#000000" points="8.5,-37 8.5,-55 62.5,-55 62.5,-37 8.5,-37"/>
<text text-anchor="start" x="11.5" y="-43.2" font-family="Helvetica,sans-Serif" font-size="11.00" fill="#000000"> &#160;</text>
<polygon fill="#ffffff" stroke="transparent" points="62.5,-37 62.5,-55 122.5,-55 122.5,-37 62.5,-37"/>
<polygon fill="none" stroke="#000000" points="62.5,-37 62.5,-55 122.5,-55 122.5,-37 62.5,-37"/>
<text text-anchor="start" x="86.5" y="-43.2" font-family="Helvetica,sans-Serif" font-size="11.00" fill="#000000">3 rows</text>
<polygon fill="#ffffff" stroke="transparent" points="122.5,-37 122.5,-55 171.5,-55 171.5,-37 122.5,-37"/>
<polygon fill="none" stroke="#000000" points="122.5,-37 122.5,-55 171.5,-55 171.5,-37 122.5,-37"/>
<text text-anchor="start" x="146.5" y="-43.2" font-family="Helvetica,sans-Serif" font-size="11.00" fill="#000000">40 &gt;</text>
</a>
</g>
</g>
<!-- manuscript_to_text_fragment&#45;&gt;user -->
<g id="edge1" class="edge">
<title>manuscript_to_text_fragment:w&#45;&gt;user:e</title>
<path fill="none" stroke="#000000" d="M208.1747,-162.2134C192.0145,-147.8333 200.6468,-106 171.5,-106"/>
<polygon fill="#000000" stroke="#000000" points="214.4403,-164.3826 220.8222,-170.4019 218.2201,-165.6913 222,-167 222,-167 222,-167 218.2201,-165.6913 223.1778,-163.5981 214.4403,-164.3826 214.4403,-164.3826"/>
<ellipse fill="none" stroke="#000000" cx="211.4164" cy="-163.3357" rx="3.2" ry="3.2"/>
</g>
<!-- manuscript -->
<g id="node3" class="node">
<title>manuscript</title>
<g id="a_node3"><a xlink:href="../../tables/manuscript.html" xlink:title="manuscript" target="_top">
<polygon fill="#ffffff" stroke="transparent" points="31.5,-243 31.5,-305 147.5,-305 147.5,-243 31.5,-243"/>
<polygon fill="#f5f5f5" stroke="transparent" points="31.5,-283 31.5,-305 147.5,-305 147.5,-283 31.5,-283"/>
<polygon fill="none" stroke="#000000" points="31.5,-283 31.5,-305 147.5,-305 147.5,-283 31.5,-283"/>
<text text-anchor="start" x="36.5" y="-292.2" font-family="Helvetica,sans-Serif" font-weight="bold" font-size="11.00" fill="#000000">manuscript</text>
<text text-anchor="start" x="112.5" y="-291.2" font-family="Helvetica,sans-Serif" font-size="11.00" fill="#000000">[table]</text>
<polygon fill="none" stroke="#000000" points="31.5,-261 31.5,-283 147.5,-283 147.5,-261 31.5,-261"/>
<image xlink:href="../../images/primaryKeys.png" width="11px" height="12px" preserveAspectRatio="xMinYMin meet" x="36.5" y="-278"/>
<text text-anchor="start" x="51.5" y="-269.2" font-family="Helvetica,sans-Serif" font-size="11.00" fill="#000000">manuscript_id</text>
<polygon fill="#ffffff" stroke="transparent" points="31.5,-243 31.5,-261 54.5,-261 54.5,-243 31.5,-243"/>
<polygon fill="none" stroke="#000000" points="31.5,-243 31.5,-261 54.5,-261 54.5,-243 31.5,-243"/>
<text text-anchor="start" x="34.5" y="-249.2" font-family="Helvetica,sans-Serif" font-size="11.00" fill="#000000"> &#160;</text>
<polygon fill="#ffffff" stroke="transparent" points="54.5,-243 54.5,-261 119.5,-261 119.5,-243 54.5,-243"/>
<polygon fill="none" stroke="#000000" points="54.5,-243 54.5,-261 119.5,-261 119.5,-243 54.5,-243"/>
<text text-anchor="start" x="62.5" y="-249.2" font-family="Helvetica,sans-Serif" font-size="11.00" fill="#000000">1,645 rows</text>
<polygon fill="#ffffff" stroke="transparent" points="119.5,-243 119.5,-261 147.5,-261 147.5,-243 119.5,-243"/>
<polygon fill="none" stroke="#000000" points="119.5,-243 119.5,-261 147.5,-261 147.5,-243 119.5,-243"/>
<text text-anchor="start" x="128.5" y="-249.2" font-family="Helvetica,sans-Serif" font-size="11.00" fill="#000000">5 &gt;</text>
</a>
</g>
</g>
<!-- manuscript_to_text_fragment&#45;&gt;manuscript -->
<g id="edge2" class="edge">
<title>manuscript_to_text_fragment:w&#45;&gt;manuscript:e</title>
<path fill="none" stroke="#000000" d="M207.548,-213.9422C181.2006,-226.1271 184.6107,-272 147.5,-272"/>
<polygon fill="#000000" stroke="#000000" points="214.1608,-212.596 222.7182,-214.5276 218.0804,-211.798 222,-211 222,-211 222,-211 218.0804,-211.798 221.2818,-207.4724 214.1608,-212.596 214.1608,-212.596"/>
<ellipse fill="none" stroke="#000000" cx="211.0251" cy="-213.2343" rx="3.2" ry="3.2"/>
</g>
<!-- text_fragment -->
<g id="node4" class="node">
<title>text_fragment</title>
<g id="a_node4"><a xlink:href="../../tables/text_fragment.html" xlink:title="text_fragment" target="_top">
<polygon fill="#ffffff" stroke="transparent" points="22,-160 22,-222 157,-222 157,-160 22,-160"/>
<polygon fill="#f5f5f5" stroke="transparent" points="22.5,-200 22.5,-222 157.5,-222 157.5,-200 22.5,-200"/>
<polygon fill="none" stroke="#000000" points="22.5,-200 22.5,-222 157.5,-222 157.5,-200 22.5,-200"/>
<text text-anchor="start" x="27.5" y="-209.2" font-family="Helvetica,sans-Serif" font-weight="bold" font-size="11.00" fill="#000000">text_fragment</text>
<text text-anchor="start" x="122.5" y="-208.2" font-family="Helvetica,sans-Serif" font-size="11.00" fill="#000000">[table]</text>
<polygon fill="none" stroke="#000000" points="22.5,-178 22.5,-200 157.5,-200 157.5,-178 22.5,-178"/>
<image xlink:href="../../images/primaryKeys.png" width="11px" height="12px" preserveAspectRatio="xMinYMin meet" x="27.5" y="-195"/>
<text text-anchor="start" x="42.5" y="-186.2" font-family="Helvetica,sans-Serif" font-size="11.00" fill="#000000">text_fragment_id</text>
<polygon fill="#ffffff" stroke="transparent" points="22.5,-160 22.5,-178 52.5,-178 52.5,-160 22.5,-160"/>
<polygon fill="none" stroke="#000000" points="22.5,-160 22.5,-178 52.5,-178 52.5,-160 22.5,-160"/>
<text text-anchor="start" x="25.5" y="-166.2" font-family="Helvetica,sans-Serif" font-size="11.00" fill="#000000"> &#160;</text>
<polygon fill="#ffffff" stroke="transparent" points="52.5,-160 52.5,-178 126.5,-178 126.5,-160 52.5,-160"/>
<polygon fill="none" stroke="#000000" points="52.5,-160 52.5,-178 126.5,-178 126.5,-160 52.5,-160"/>
<text text-anchor="start" x="63.5" y="-166.2" font-family="Helvetica,sans-Serif" font-size="11.00" fill="#000000">11,176 rows</text>
<polygon fill="#ffffff" stroke="transparent" points="126.5,-160 126.5,-178 157.5,-178 157.5,-160 126.5,-160"/>
<polygon fill="none" stroke="#000000" points="126.5,-160 126.5,-178 157.5,-178 157.5,-160 126.5,-160"/>
<text text-anchor="start" x="138.5" y="-166.2" font-family="Helvetica,sans-Serif" font-size="11.00" fill="#000000">6 &gt;</text>
</a>
</g>
</g>
<!-- manuscript_to_text_fragment&#45;&gt;text_fragment -->
<g id="edge3" class="edge">
<title>manuscript_to_text_fragment:w&#45;&gt;text_fragment:e</title>
<path fill="none" stroke="#000000" d="M207.3432,-189C189.7137,-189 180.5677,-189 157.5,-189"/>
<polygon fill="#000000" stroke="#000000" points="214,-189.0001 222,-192.6 218,-189 222,-189 222,-189 222,-189 218,-189 222,-185.4 214,-189.0001 214,-189.0001"/>
<ellipse fill="none" stroke="#000000" cx="210.8" cy="-189.0001" rx="3.2" ry="3.2"/>
</g>
<!-- manuscript_to_text_fragment_owner -->
<g id="node5" class="node">
<title>manuscript_to_text_fragment_owner</title>
<g id="a_node5"><a xlink:href="../../tables/manuscript_to_text_fragment_owner.html" xlink:title="manuscript_to_text_fragment_owner" target="_top">
<polygon fill="#ffffff" stroke="transparent" points="593,-160 593,-266 860,-266 860,-160 593,-160"/>
<polygon fill="#f5f5f5" stroke="transparent" points="593.5,-244 593.5,-266 860.5,-266 860.5,-244 593.5,-244"/>
<polygon fill="none" stroke="#000000" points="593.5,-244 593.5,-266 860.5,-266 860.5,-244 593.5,-244"/>
<text text-anchor="start" x="598.5" y="-253.2" font-family="Helvetica,sans-Serif" font-weight="bold" font-size="11.00" fill="#000000">manuscript_to_text_fragment_owner</text>
<text text-anchor="start" x="825.5" y="-252.2" font-family="Helvetica,sans-Serif" font-size="11.00" fill="#000000">[table]</text>
<polygon fill="none" stroke="#000000" points="593.5,-222 593.5,-244 860.5,-244 860.5,-222 593.5,-222"/>
<image xlink:href="../../images/primaryKeys.png" width="11px" height="12px" preserveAspectRatio="xMinYMin meet" x="598.5" y="-239"/>
<text text-anchor="start" x="613.5" y="-230.2" font-family="Helvetica,sans-Serif" font-size="11.00" fill="#000000">manuscript_to_text_fragment_id</text>
<polygon fill="#ffffff" stroke="transparent" points="593.5,-200 593.5,-222 860.5,-222 860.5,-200 593.5,-200"/>
<polygon fill="none" stroke="#000000" points="593.5,-200 593.5,-222 860.5,-222 860.5,-200 593.5,-200"/>
<image xlink:href="../../images/foreignKeys.png" width="11px" height="12px" preserveAspectRatio="xMinYMin meet" x="598.5" y="-217"/>
<text text-anchor="start" x="613.5" y="-208.2" font-family="Helvetica,sans-Serif" font-size="11.00" fill="#000000">edition_editor_id</text>
<polygon fill="none" stroke="#000000" points="593.5,-178 593.5,-200 860.5,-200 860.5,-178 593.5,-178"/>
<image xlink:href="../../images/primaryKeys.png" width="11px" height="12px" preserveAspectRatio="xMinYMin meet" x="598.5" y="-195"/>
<text text-anchor="start" x="613.5" y="-186.2" font-family="Helvetica,sans-Serif" font-size="11.00" fill="#000000">edition_id</text>
<polygon fill="#ffffff" stroke="transparent" points="593.5,-160 593.5,-178 698.5,-178 698.5,-160 593.5,-160"/>
<polygon fill="none" stroke="#000000" points="593.5,-160 593.5,-178 698.5,-178 698.5,-160 593.5,-160"/>
<text text-anchor="start" x="596.5" y="-166.2" font-family="Helvetica,sans-Serif" font-size="11.00" fill="#000000">&lt; 3</text>
<polygon fill="#ffffff" stroke="transparent" points="698.5,-160 698.5,-178 805.5,-178 805.5,-160 698.5,-160"/>
<polygon fill="none" stroke="#000000" points="698.5,-160 698.5,-178 805.5,-178 805.5,-160 698.5,-160"/>
<text text-anchor="start" x="742.5" y="-166.2" font-family="Helvetica,sans-Serif" font-size="11.00" fill="#000000">11,176 rows</text>
<polygon fill="#ffffff" stroke="transparent" points="805.5,-160 805.5,-178 860.5,-178 860.5,-160 805.5,-160"/>
<polygon fill="none" stroke="#000000" points="805.5,-160 805.5,-178 860.5,-178 860.5,-160 805.5,-160"/>
<text text-anchor="start" x="850.5" y="-166.2" font-family="Helvetica,sans-Serif" font-size="11.00" fill="#000000"> &#160;</text>
</a>
</g>
</g>
<!-- manuscript_to_text_fragment_owner&#45;&gt;manuscript_to_text_fragment -->
<g id="edge4" class="edge">
<title>manuscript_to_text_fragment_owner:w&#45;&gt;manuscript_to_text_fragment:e</title>
<path fill="none" stroke="#000000" d="M579.0156,-233C566.6771,-233 559.1667,-233 542,-233"/>
<polygon fill="#000000" stroke="#000000" points="585.5,-233.0001 593.5,-236.6 589.5,-233 593.5,-233 593.5,-233 593.5,-233 589.5,-233 593.5,-229.4 585.5,-233.0001 585.5,-233.0001"/>
<ellipse fill="none" stroke="#000000" cx="582.3" cy="-233.0001" rx="3.2" ry="3.2"/>
</g>
</g>
</svg>
