<?xml version="1.0" encoding="UTF-8" standalone="no"?>
<!DOCTYPE svg PUBLIC "-//W3C//DTD SVG 1.1//EN"
 "http://www.w3.org/Graphics/SVG/1.1/DTD/svg11.dtd">
<!-- Generated by graphviz version 2.40.1 (20161225.0304)
 -->
<!-- Title: oneDegreeRelationshipsDiagramImplied Pages: 1 -->
<svg width="984pt" height="362pt"
 viewBox="0.00 0.00 984.00 362.00" xmlns="http://www.w3.org/2000/svg" xmlns:xlink="http://www.w3.org/1999/xlink">
<g id="graph0" class="graph" transform="scale(1 1) rotate(0) translate(4 358)">
<title>oneDegreeRelationshipsDiagramImplied</title>
<polygon fill="#ffffff" stroke="transparent" points="-4,4 -4,-358 980,-358 980,4 -4,4"/>
<text text-anchor="middle" x="71.5" y="-7.2" font-family="Helvetica,sans-Serif" font-size="11.00" fill="#000000">Generated by SchemaSpy</text>
<!-- manuscript_metrics -->
<g id="node1" class="node">
<title>manuscript_metrics</title>
<g id="a_node1"><a xlink:href="../../tables/manuscript_metrics.html" xlink:title="manuscript_metrics" target="_top">
<polygon fill="#ffffff" stroke="transparent" points="460,-108 460,-350 718,-350 718,-108 460,-108"/>
<polygon fill="#f5f5f5" stroke="transparent" points="462,-326 462,-348 716,-348 716,-326 462,-326"/>
<polygon fill="none" stroke="#000000" points="462,-326 462,-348 716,-348 716,-326 462,-326"/>
<text text-anchor="start" x="467" y="-335.2" font-family="Helvetica,sans-Serif" font-weight="bold" font-size="11.00" fill="#000000">manuscript_metrics</text>
<text text-anchor="start" x="681" y="-334.2" font-family="Helvetica,sans-Serif" font-size="11.00" fill="#000000">[table]</text>
<polygon fill="none" stroke="#000000" points="462,-304 462,-326 634,-326 634,-304 462,-304"/>
<image xlink:href="../../images/primaryKeys.png" width="11px" height="12px" preserveAspectRatio="xMinYMin meet" x="467" y="-321"/>
<text text-anchor="start" x="482" y="-312.2" font-family="Helvetica,sans-Serif" font-size="11.00" fill="#000000">manuscript_metrics_id</text>
<polygon fill="none" stroke="#000000" points="634,-304 634,-326 716,-326 716,-304 634,-304"/>
<text text-anchor="start" x="637" y="-312.2" font-family="Helvetica,sans-Serif" font-size="11.00" fill="#000000">int unsigned[10]</text>
<polygon fill="#ffffff" stroke="transparent" points="462,-282 462,-304 634,-304 634,-282 462,-282"/>
<polygon fill="none" stroke="#000000" points="462,-282 462,-304 634,-304 634,-282 462,-282"/>
<image xlink:href="../../images/foreignKeys.png" width="11px" height="12px" preserveAspectRatio="xMinYMin meet" x="467" y="-299"/>
<text text-anchor="start" x="482" y="-290.2" font-family="Helvetica,sans-Serif" font-size="11.00" fill="#000000">manuscript_id</text>
<polygon fill="none" stroke="#000000" points="634,-282 634,-304 716,-304 716,-282 634,-282"/>
<text text-anchor="start" x="637" y="-290.2" font-family="Helvetica,sans-Serif" font-size="11.00" fill="#000000">int unsigned[10]</text>
<polygon fill="#ffffff" stroke="transparent" points="462,-260 462,-282 634,-282 634,-260 462,-260"/>
<polygon fill="none" stroke="#000000" points="462,-260 462,-282 634,-282 634,-260 462,-260"/>
<text text-anchor="start" x="482" y="-268.2" font-family="Helvetica,sans-Serif" font-size="11.00" fill="#000000">x_origin</text>
<polygon fill="none" stroke="#000000" points="634,-260 634,-282 716,-282 716,-260 634,-260"/>
<text text-anchor="start" x="637" y="-268.2" font-family="Helvetica,sans-Serif" font-size="11.00" fill="#000000">int[10]</text>
<polygon fill="#ffffff" stroke="transparent" points="462,-238 462,-260 634,-260 634,-238 462,-238"/>
<polygon fill="none" stroke="#000000" points="462,-238 462,-260 634,-260 634,-238 462,-238"/>
<text text-anchor="start" x="482" y="-246.2" font-family="Helvetica,sans-Serif" font-size="11.00" fill="#000000">y_origin</text>
<polygon fill="none" stroke="#000000" points="634,-238 634,-260 716,-260 716,-238 634,-238"/>
<text text-anchor="start" x="637" y="-246.2" font-family="Helvetica,sans-Serif" font-size="11.00" fill="#000000">int[10]</text>
<polygon fill="#ffffff" stroke="transparent" points="462,-216 462,-238 634,-238 634,-216 462,-216"/>
<polygon fill="none" stroke="#000000" points="462,-216 462,-238 634,-238 634,-216 462,-216"/>
<text text-anchor="start" x="482" y="-224.2" font-family="Helvetica,sans-Serif" font-size="11.00" fill="#000000">width</text>
<polygon fill="none" stroke="#000000" points="634,-216 634,-238 716,-238 716,-216 634,-216"/>
<text text-anchor="start" x="637" y="-224.2" font-family="Helvetica,sans-Serif" font-size="11.00" fill="#000000">int unsigned[10]</text>
<polygon fill="#ffffff" stroke="transparent" points="462,-194 462,-216 634,-216 634,-194 462,-194"/>
<polygon fill="none" stroke="#000000" points="462,-194 462,-216 634,-216 634,-194 462,-194"/>
<text text-anchor="start" x="482" y="-202.2" font-family="Helvetica,sans-Serif" font-size="11.00" fill="#000000">height</text>
<polygon fill="none" stroke="#000000" points="634,-194 634,-216 716,-216 716,-194 634,-194"/>
<text text-anchor="start" x="637" y="-202.2" font-family="Helvetica,sans-Serif" font-size="11.00" fill="#000000">int unsigned[10]</text>
<polygon fill="#ffffff" stroke="transparent" points="462,-172 462,-194 634,-194 634,-172 462,-172"/>
<polygon fill="none" stroke="#000000" points="462,-172 462,-194 634,-194 634,-172 462,-172"/>
<text text-anchor="start" x="482" y="-180.2" font-family="Helvetica,sans-Serif" font-size="11.00" fill="#000000">pixels_per_inch</text>
<polygon fill="none" stroke="#000000" points="634,-172 634,-194 716,-194 716,-172 634,-172"/>
<text text-anchor="start" x="637" y="-180.2" font-family="Helvetica,sans-Serif" font-size="11.00" fill="#000000">int unsigned[10]</text>
<polygon fill="#ffffff" stroke="transparent" points="462,-150 462,-172 634,-172 634,-150 462,-150"/>
<polygon fill="none" stroke="#000000" points="462,-150 462,-172 634,-172 634,-150 462,-150"/>
<image xlink:href="../../images/foreignKeys.png" width="11px" height="12px" preserveAspectRatio="xMinYMin meet" x="467" y="-167"/>
<text text-anchor="start" x="482" y="-158.2" font-family="Helvetica,sans-Serif" font-size="11.00" fill="#000000">scribal_font_id</text>
<polygon fill="none" stroke="#000000" points="634,-150 634,-172 716,-172 716,-150 634,-150"/>
<text text-anchor="start" x="637" y="-158.2" font-family="Helvetica,sans-Serif" font-size="11.00" fill="#000000">int unsigned[10]</text>
<polygon fill="#ffffff" stroke="transparent" points="462,-128 462,-150 634,-150 634,-128 462,-128"/>
<polygon fill="none" stroke="#000000" points="462,-128 462,-150 634,-150 634,-128 462,-128"/>
<image xlink:href="../../images/foreignKeys.png" width="11px" height="12px" preserveAspectRatio="xMinYMin meet" x="467" y="-145"/>
<text text-anchor="start" x="482" y="-136.2" font-family="Helvetica,sans-Serif" font-size="11.00" fill="#000000">creator_id</text>
<polygon fill="none" stroke="#000000" points="634,-128 634,-150 716,-150 716,-128 634,-128"/>
<text text-anchor="start" x="637" y="-136.2" font-family="Helvetica,sans-Serif" font-size="11.00" fill="#000000">int unsigned[10]</text>
<polygon fill="#ffffff" stroke="transparent" points="462,-110 462,-128 529,-128 529,-110 462,-110"/>
<polygon fill="none" stroke="#000000" points="462,-110 462,-128 529,-128 529,-110 462,-110"/>
<text text-anchor="start" x="465" y="-116.2" font-family="Helvetica,sans-Serif" font-size="11.00" fill="#000000">&lt; 3</text>
<polygon fill="#ffffff" stroke="transparent" points="529,-110 529,-128 634,-128 634,-110 529,-110"/>
<polygon fill="none" stroke="#000000" points="529,-110 529,-128 634,-128 634,-110 529,-110"/>
<text text-anchor="start" x="577" y="-116.2" font-family="Helvetica,sans-Serif" font-size="11.00" fill="#000000">1,371 rows</text>
<polygon fill="#ffffff" stroke="transparent" points="634,-110 634,-128 716,-128 716,-110 634,-110"/>
<polygon fill="none" stroke="#000000" points="634,-110 634,-128 716,-128 716,-110 634,-110"/>
<text text-anchor="start" x="697" y="-116.2" font-family="Helvetica,sans-Serif" font-size="11.00" fill="#000000">1 &gt;</text>
<polygon fill="none" stroke="#000000" stroke-width="2" points="461,-109 461,-349 717,-349 717,-109 461,-109"/>
</a>
</g>
</g>
<!-- user -->
<g id="node2" class="node">
<title>user</title>
<g id="a_node2"><a xlink:href="../../tables/user.html" xlink:title="user" target="_top">
<polygon fill="#ffffff" stroke="transparent" points="8,-37 8,-139 171,-139 171,-37 8,-37"/>
<polygon fill="#f5f5f5" stroke="transparent" points="8.5,-117 8.5,-139 171.5,-139 171.5,-117 8.5,-117"/>
<polygon fill="none" stroke="#000000" points="8.5,-117 8.5,-139 171.5,-139 171.5,-117 8.5,-117"/>
<text text-anchor="start" x="13.5" y="-126.2" font-family="Helvetica,sans-Serif" font-weight="bold" font-size="11.00" fill="#000000">user</text>
<text text-anchor="start" x="136.5" y="-125.2" font-family="Helvetica,sans-Serif" font-size="11.00" fill="#000000">[table]</text>
<polygon fill="none" stroke="#000000" points="8.5,-95 8.5,-117 171.5,-117 171.5,-95 8.5,-95"/>
<image xlink:href="../../images/primaryKeys.png" width="11px" height="12px" preserveAspectRatio="xMinYMin meet" x="13.5" y="-112"/>
<text text-anchor="start" x="28.5" y="-103.2" font-family="Helvetica,sans-Serif" font-size="11.00" fill="#000000">user_id</text>
<polygon fill="#ffffff" stroke="transparent" points="8.5,-73 8.5,-95 171.5,-95 171.5,-73 8.5,-73"/>
<polygon fill="none" stroke="#000000" points="8.5,-73 8.5,-95 171.5,-95 171.5,-73 8.5,-73"/>
<text text-anchor="start" x="28.5" y="-81.2" font-family="Helvetica,sans-Serif" font-size="11.00" fill="#000000">email</text>
<polygon fill="none" stroke="#000000" points="8.5,-55 8.5,-73 171.5,-73 171.5,-55 8.5,-55"/>
<text text-anchor="start" x="11.5" y="-61.2" font-family="Helvetica,sans-Serif" font-size="11.00" fill="#000000">...</text>
<polygon fill="#ffffff" stroke="transparent" points="8.5,-37 8.5,-55 62.5,-55 62.5,-37 8.5,-37"/>
<polygon fill="none" stroke="#000000" points="8.5,-37 8.5,-55 62.5,-55 62.5,-37 8.5,-37"/>
<text text-anchor="start" x="11.5" y="-43.2" font-family="Helvetica,sans-Serif" font-size="11.00" fill="#000000"> &#160;</text>
<polygon fill="#ffffff" stroke="transparent" points="62.5,-37 62.5,-55 122.5,-55 122.5,-37 62.5,-37"/>
<polygon fill="none" stroke="#000000" points="62.5,-37 62.5,-55 122.5,-55 122.5,-37 62.5,-37"/>
<text text-anchor="start" x="86.5" y="-43.2" font-family="Helvetica,sans-Serif" font-size="11.00" fill="#000000">3 rows</text>
<polygon fill="#ffffff" stroke="transparent" points="122.5,-37 122.5,-55 171.5,-55 171.5,-37 122.5,-37"/>
<polygon fill="none" stroke="#000000" points="122.5,-37 122.5,-55 171.5,-55 171.5,-37 122.5,-37"/>
<text text-anchor="start" x="146.5" y="-43.2" font-family="Helvetica,sans-Serif" font-size="11.00" fill="#000000">40 &gt;</text>
</a>
</g>
</g>
<!-- manuscript_metrics&#45;&gt;user -->
<g id="edge1" class="edge">
<title>manuscript_metrics:w&#45;&gt;user:e</title>
<path fill="none" stroke="#000000" d="M448.1425,-134.4552C435.631,-123.3274 441.2252,-94.8354 419,-84 336.3043,-43.6835 301.167,-61.3451 212,-84 192.1465,-89.0442 191.9843,-106 171.5,-106"/>
<polygon fill="#000000" stroke="#000000" points="454.3984,-136.5069 460.8781,-142.4207 458.1992,-137.7534 462,-139 462,-139 462,-139 458.1992,-137.7534 463.1219,-135.5793 454.3984,-136.5069 454.3984,-136.5069"/>
<ellipse fill="none" stroke="#000000" cx="451.3577" cy="-135.5097" rx="3.2" ry="3.2"/>
</g>
<!-- manuscript -->
<g id="node3" class="node">
<title>manuscript</title>
<g id="a_node3"><a xlink:href="../../tables/manuscript.html" xlink:title="manuscript" target="_top">
<polygon fill="#ffffff" stroke="transparent" points="257.5,-264 257.5,-326 373.5,-326 373.5,-264 257.5,-264"/>
<polygon fill="#f5f5f5" stroke="transparent" points="257.5,-304 257.5,-326 373.5,-326 373.5,-304 257.5,-304"/>
<polygon fill="none" stroke="#000000" points="257.5,-304 257.5,-326 373.5,-326 373.5,-304 257.5,-304"/>
<text text-anchor="start" x="262.5" y="-313.2" font-family="Helvetica,sans-Serif" font-weight="bold" font-size="11.00" fill="#000000">manuscript</text>
<text text-anchor="start" x="338.5" y="-312.2" font-family="Helvetica,sans-Serif" font-size="11.00" fill="#000000">[table]</text>
<polygon fill="none" stroke="#000000" points="257.5,-282 257.5,-304 373.5,-304 373.5,-282 257.5,-282"/>
<image xlink:href="../../images/primaryKeys.png" width="11px" height="12px" preserveAspectRatio="xMinYMin meet" x="262.5" y="-299"/>
<text text-anchor="start" x="277.5" y="-290.2" font-family="Helvetica,sans-Serif" font-size="11.00" fill="#000000">manuscript_id</text>
<polygon fill="#ffffff" stroke="transparent" points="257.5,-264 257.5,-282 280.5,-282 280.5,-264 257.5,-264"/>
<polygon fill="none" stroke="#000000" points="257.5,-264 257.5,-282 280.5,-282 280.5,-264 257.5,-264"/>
<text text-anchor="start" x="260.5" y="-270.2" font-family="Helvetica,sans-Serif" font-size="11.00" fill="#000000"> &#160;</text>
<polygon fill="#ffffff" stroke="transparent" points="280.5,-264 280.5,-282 345.5,-282 345.5,-264 280.5,-264"/>
<polygon fill="none" stroke="#000000" points="280.5,-264 280.5,-282 345.5,-282 345.5,-264 280.5,-264"/>
<text text-anchor="start" x="288.5" y="-270.2" font-family="Helvetica,sans-Serif" font-size="11.00" fill="#000000">1,645 rows</text>
<polygon fill="#ffffff" stroke="transparent" points="345.5,-264 345.5,-282 373.5,-282 373.5,-264 345.5,-264"/>
<polygon fill="none" stroke="#000000" points="345.5,-264 345.5,-282 373.5,-282 373.5,-264 345.5,-264"/>
<text text-anchor="start" x="354.5" y="-270.2" font-family="Helvetica,sans-Serif" font-size="11.00" fill="#000000">5 &gt;</text>
</a>
</g>
</g>
<!-- manuscript_metrics&#45;&gt;manuscript -->
<g id="edge2" class="edge">
<title>manuscript_metrics:w&#45;&gt;manuscript:e</title>
<path fill="none" stroke="#000000" d="M447.3707,-293C419.4265,-293 407.4557,-293 373.5,-293"/>
<polygon fill="#000000" stroke="#000000" points="454,-293.0001 462,-296.6 458,-293 462,-293 462,-293 462,-293 458,-293 462,-289.4 454,-293.0001 454,-293.0001"/>
<ellipse fill="none" stroke="#000000" cx="450.8" cy="-293.0001" rx="3.2" ry="3.2"/>
</g>
<!-- scribal_font -->
<g id="node4" class="node">
<title>scribal_font</title>
<g id="a_node4"><a xlink:href="../../tables/scribal_font.html" xlink:title="scribal_font" target="_top">
<polygon fill="#ffffff" stroke="transparent" points="220,-95 220,-219 411,-219 411,-95 220,-95"/>
<polygon fill="#f5f5f5" stroke="transparent" points="220.5,-197 220.5,-219 411.5,-219 411.5,-197 220.5,-197"/>
<polygon fill="none" stroke="#000000" points="220.5,-197 220.5,-219 411.5,-219 411.5,-197 220.5,-197"/>
<text text-anchor="start" x="225.5" y="-206.2" font-family="Helvetica,sans-Serif" font-weight="bold" font-size="11.00" fill="#000000">scribal_font</text>
<text text-anchor="start" x="376.5" y="-205.2" font-family="Helvetica,sans-Serif" font-size="11.00" fill="#000000">[table]</text>
<polygon fill="none" stroke="#000000" points="220.5,-175 220.5,-197 411.5,-197 411.5,-175 220.5,-175"/>
<image xlink:href="../../images/primaryKeys.png" width="11px" height="12px" preserveAspectRatio="xMinYMin meet" x="225.5" y="-192"/>
<text text-anchor="start" x="240.5" y="-183.2" font-family="Helvetica,sans-Serif" font-size="11.00" fill="#000000">scribal_font_id</text>
<polygon fill="none" stroke="#000000" points="220.5,-153 220.5,-175 411.5,-175 411.5,-153 220.5,-153"/>
<image xlink:href="../../images/foreignKeys.png" width="11px" height="12px" preserveAspectRatio="xMinYMin meet" x="225.5" y="-170"/>
<text text-anchor="start" x="240.5" y="-161.2" font-family="Helvetica,sans-Serif" font-size="11.00" fill="#000000">font_file_id</text>
<polygon fill="#ffffff" stroke="transparent" points="220.5,-131 220.5,-153 411.5,-153 411.5,-131 220.5,-131"/>
<polygon fill="none" stroke="#000000" points="220.5,-131 220.5,-153 411.5,-153 411.5,-131 220.5,-131"/>
<image xlink:href="../../images/foreignKeys.png" width="11px" height="12px" preserveAspectRatio="xMinYMin meet" x="225.5" y="-148"/>
<text text-anchor="start" x="240.5" y="-139.2" font-family="Helvetica,sans-Serif" font-size="11.00" fill="#000000">creator_id</text>
<polygon fill="none" stroke="#000000" points="220.5,-113 220.5,-131 411.5,-131 411.5,-113 220.5,-113"/>
<text text-anchor="start" x="223.5" y="-119.2" font-family="Helvetica,sans-Serif" font-size="11.00" fill="#000000">...</text>
<polygon fill="#ffffff" stroke="transparent" points="220.5,-95 220.5,-113 296.5,-113 296.5,-95 220.5,-95"/>
<polygon fill="none" stroke="#000000" points="220.5,-95 220.5,-113 296.5,-113 296.5,-95 220.5,-95"/>
<text text-anchor="start" x="223.5" y="-101.2" font-family="Helvetica,sans-Serif" font-size="11.00" fill="#000000">&lt; 1</text>
<polygon fill="#ffffff" stroke="transparent" points="296.5,-95 296.5,-113 362.5,-113 362.5,-95 296.5,-95"/>
<polygon fill="none" stroke="#000000" points="296.5,-95 296.5,-113 362.5,-113 362.5,-95 296.5,-95"/>
<text text-anchor="start" x="326.5" y="-101.2" font-family="Helvetica,sans-Serif" font-size="11.00" fill="#000000">0 rows</text>
<polygon fill="#ffffff" stroke="transparent" points="362.5,-95 362.5,-113 411.5,-113 411.5,-95 362.5,-95"/>
<polygon fill="none" stroke="#000000" points="362.5,-95 362.5,-113 411.5,-113 411.5,-95 362.5,-95"/>
<text text-anchor="start" x="392.5" y="-101.2" font-family="Helvetica,sans-Serif" font-size="11.00" fill="#000000">4 &gt;</text>
</a>
</g>
</g>
<!-- manuscript_metrics&#45;&gt;scribal_font -->
<g id="edge3" class="edge">
<title>manuscript_metrics:w&#45;&gt;scribal_font:e</title>
<path fill="none" stroke="#000000" d="M447.8159,-164.4761C435.4098,-171.3455 430.6744,-186 411.5,-186"/>
<polygon fill="#000000" stroke="#000000" points="454.2299,-162.9043 462.8569,-164.4965 458.115,-161.9521 462,-161 462,-161 462,-161 458.115,-161.9521 461.1431,-157.5035 454.2299,-162.9043 454.2299,-162.9043"/>
<ellipse fill="none" stroke="#000000" cx="451.1219" cy="-163.666" rx="3.2" ry="3.2"/>
</g>
<!-- scribal_font&#45;&gt;user -->
<g id="edge5" class="edge">
<title>scribal_font:w&#45;&gt;user:e</title>
<path fill="none" stroke="#000000" d="M206.6983,-137.5857C194.1499,-127.9727 192.6121,-106 171.5,-106"/>
<polygon fill="#000000" stroke="#000000" points="212.8802,-139.5629 219.4033,-145.4289 216.6901,-140.7814 220.5,-142 220.5,-142 220.5,-142 216.6901,-140.7814 221.5967,-138.5711 212.8802,-139.5629 212.8802,-139.5629"/>
<ellipse fill="none" stroke="#000000" cx="209.8323" cy="-138.588" rx="3.2" ry="3.2"/>
</g>
<!-- manuscript_metrics_owner -->
<g id="node5" class="node">
<title>manuscript_metrics_owner</title>
<g id="a_node5"><a xlink:href="../../tables/manuscript_metrics_owner.html" xlink:title="manuscript_metrics_owner" target="_top">
<polygon fill="#ffffff" stroke="transparent" points="767,-242 767,-348 968,-348 968,-242 767,-242"/>
<polygon fill="#f5f5f5" stroke="transparent" points="767.5,-326 767.5,-348 968.5,-348 968.5,-326 767.5,-326"/>
<polygon fill="none" stroke="#000000" points="767.5,-326 767.5,-348 968.5,-348 968.5,-326 767.5,-326"/>
<text text-anchor="start" x="772.5" y="-335.2" font-family="Helvetica,sans-Serif" font-weight="bold" font-size="11.00" fill="#000000">manuscript_metrics_owner</text>
<text text-anchor="start" x="933.5" y="-334.2" font-family="Helvetica,sans-Serif" font-size="11.00" fill="#000000">[table]</text>
<polygon fill="none" stroke="#000000" points="767.5,-304 767.5,-326 968.5,-326 968.5,-304 767.5,-304"/>
<image xlink:href="../../images/primaryKeys.png" width="11px" height="12px" preserveAspectRatio="xMinYMin meet" x="772.5" y="-321"/>
<text text-anchor="start" x="787.5" y="-312.2" font-family="Helvetica,sans-Serif" font-size="11.00" fill="#000000">manuscript_metrics_id</text>
<polygon fill="none" stroke="#000000" points="767.5,-282 767.5,-304 968.5,-304 968.5,-282 767.5,-282"/>
<image xlink:href="../../images/primaryKeys.png" width="11px" height="12px" preserveAspectRatio="xMinYMin meet" x="772.5" y="-299"/>
<text text-anchor="start" x="787.5" y="-290.2" font-family="Helvetica,sans-Serif" font-size="11.00" fill="#000000">edition_id</text>
<polygon fill="#ffffff" stroke="transparent" points="767.5,-260 767.5,-282 968.5,-282 968.5,-260 767.5,-260"/>
<polygon fill="none" stroke="#000000" points="767.5,-260 767.5,-282 968.5,-282 968.5,-260 767.5,-260"/>
<image xlink:href="../../images/foreignKeys.png" width="11px" height="12px" preserveAspectRatio="xMinYMin meet" x="772.5" y="-277"/>
<text text-anchor="start" x="787.5" y="-268.2" font-family="Helvetica,sans-Serif" font-size="11.00" fill="#000000">edition_editor_id</text>
<polygon fill="#ffffff" stroke="transparent" points="767.5,-242 767.5,-260 842.5,-260 842.5,-242 767.5,-242"/>
<polygon fill="none" stroke="#000000" points="767.5,-242 767.5,-260 842.5,-260 842.5,-242 767.5,-242"/>
<text text-anchor="start" x="770.5" y="-248.2" font-family="Helvetica,sans-Serif" font-size="11.00" fill="#000000">&lt; 3</text>
<polygon fill="#ffffff" stroke="transparent" points="842.5,-242 842.5,-260 928.5,-260 928.5,-242 842.5,-242"/>
<polygon fill="none" stroke="#000000" points="842.5,-242 842.5,-260 928.5,-260 928.5,-242 842.5,-242"/>
<text text-anchor="start" x="871.5" y="-248.2" font-family="Helvetica,sans-Serif" font-size="11.00" fill="#000000">1,371 rows</text>
<polygon fill="#ffffff" stroke="transparent" points="928.5,-242 928.5,-260 968.5,-260 968.5,-242 928.5,-242"/>
<polygon fill="none" stroke="#000000" points="928.5,-242 928.5,-260 968.5,-260 968.5,-242 928.5,-242"/>
<text text-anchor="start" x="958.5" y="-248.2" font-family="Helvetica,sans-Serif" font-size="11.00" fill="#000000"> &#160;</text>
</a>
</g>
</g>
<!-- manuscript_metrics_owner&#45;&gt;manuscript_metrics -->
<g id="edge4" class="edge">
<title>manuscript_metrics_owner:w&#45;&gt;manuscript_metrics:e</title>
<path fill="none" stroke="#000000" d="M753.0156,-315C740.6771,-315 733.1667,-315 716,-315"/>
<polygon fill="#000000" stroke="#000000" points="759.5,-315.0001 767.5,-318.6 763.5,-315 767.5,-315 767.5,-315 767.5,-315 763.5,-315 767.5,-311.4 759.5,-315.0001 759.5,-315.0001"/>
<ellipse fill="none" stroke="#000000" cx="756.3" cy="-315.0001" rx="3.2" ry="3.2"/>
</g>
</g>
</svg>
