<?xml version="1.0" encoding="UTF-8" standalone="no"?>
<!DOCTYPE svg PUBLIC "-//W3C//DTD SVG 1.1//EN"
 "http://www.w3.org/Graphics/SVG/1.1/DTD/svg11.dtd">
<!-- Generated by graphviz version 2.43.0 (0)
 -->
<!-- Title: oneDegreeRelationshipsDiagram Pages: 1 -->
<svg width="802pt" height="307pt"
 viewBox="0.00 0.00 802.00 307.00" xmlns="http://www.w3.org/2000/svg" xmlns:xlink="http://www.w3.org/1999/xlink">
<g id="graph0" class="graph" transform="scale(1 1) rotate(0) translate(4 303)">
<title>oneDegreeRelationshipsDiagram</title>
<polygon fill="#ffffff" stroke="transparent" points="-4,4 -4,-303 798,-303 798,4 -4,4"/>
<text text-anchor="middle" x="79.5" y="-7.2" font-family="Helvetica,sans-Serif" font-size="11.00">Generated by SchemaSpy</text>
<!-- manuscript_metrics -->
<g id="node1" class="node">
<title>manuscript_metrics</title>
<g id="a_node1"><a xlink:href="../../tables/manuscript_metrics.html" xlink:title="manuscript_metrics" target="_top">
<polygon fill="#ffffff" stroke="transparent" points="248,-75 248,-295 521,-295 521,-75 248,-75"/>
<polygon fill="#f5f5f5" stroke="transparent" points="250.5,-271 250.5,-293 519.5,-293 519.5,-271 250.5,-271"/>
<polygon fill="none" stroke="black" points="250.5,-271 250.5,-293 519.5,-293 519.5,-271 250.5,-271"/>
<text text-anchor="start" x="255.5" y="-280.2" font-family="Helvetica,sans-Serif" font-weight="bold" font-size="11.00">manuscript_metrics</text>
<text text-anchor="start" x="477.5" y="-279.2" font-family="Helvetica,sans-Serif" font-size="11.00">[table]</text>
<polygon fill="none" stroke="black" points="250.5,-249 250.5,-271 422.5,-271 422.5,-249 250.5,-249"/>
<image xlink:href="../../images/primaryKeys.png" width="11px" height="12px" preserveAspectRatio="xMinYMin meet" x="255.5" y="-266"/>
<text text-anchor="start" x="270.5" y="-257.2" font-family="Helvetica,sans-Serif" font-size="11.00">manuscript_metrics_id</text>
<polygon fill="none" stroke="black" points="422.5,-249 422.5,-271 519.5,-271 519.5,-249 422.5,-249"/>
<text text-anchor="start" x="425.5" y="-257.2" font-family="Helvetica,sans-Serif" font-size="11.00">int unsigned[10]</text>
<polygon fill="#ffffff" stroke="transparent" points="250.5,-227 250.5,-249 422.5,-249 422.5,-227 250.5,-227"/>
<polygon fill="none" stroke="black" points="250.5,-227 250.5,-249 422.5,-249 422.5,-227 250.5,-227"/>
<image xlink:href="../../images/foreignKeys.png" width="11px" height="12px" preserveAspectRatio="xMinYMin meet" x="255.5" y="-244"/>
<text text-anchor="start" x="270.5" y="-235.2" font-family="Helvetica,sans-Serif" font-size="11.00">manuscript_id</text>
<polygon fill="none" stroke="black" points="422.5,-227 422.5,-249 519.5,-249 519.5,-227 422.5,-227"/>
<text text-anchor="start" x="425.5" y="-235.2" font-family="Helvetica,sans-Serif" font-size="11.00">int unsigned[10]</text>
<polygon fill="#ffffff" stroke="transparent" points="250.5,-205 250.5,-227 422.5,-227 422.5,-205 250.5,-205"/>
<polygon fill="none" stroke="black" points="250.5,-205 250.5,-227 422.5,-227 422.5,-205 250.5,-205"/>
<text text-anchor="start" x="270.5" y="-213.2" font-family="Helvetica,sans-Serif" font-size="11.00">x_origin</text>
<polygon fill="none" stroke="black" points="422.5,-205 422.5,-227 519.5,-227 519.5,-205 422.5,-205"/>
<text text-anchor="start" x="425.5" y="-213.2" font-family="Helvetica,sans-Serif" font-size="11.00">int[10]</text>
<polygon fill="#ffffff" stroke="transparent" points="250.5,-183 250.5,-205 422.5,-205 422.5,-183 250.5,-183"/>
<polygon fill="none" stroke="black" points="250.5,-183 250.5,-205 422.5,-205 422.5,-183 250.5,-183"/>
<text text-anchor="start" x="270.5" y="-191.2" font-family="Helvetica,sans-Serif" font-size="11.00">y_origin</text>
<polygon fill="none" stroke="black" points="422.5,-183 422.5,-205 519.5,-205 519.5,-183 422.5,-183"/>
<text text-anchor="start" x="425.5" y="-191.2" font-family="Helvetica,sans-Serif" font-size="11.00">int[10]</text>
<polygon fill="#ffffff" stroke="transparent" points="250.5,-161 250.5,-183 422.5,-183 422.5,-161 250.5,-161"/>
<polygon fill="none" stroke="black" points="250.5,-161 250.5,-183 422.5,-183 422.5,-161 250.5,-161"/>
<text text-anchor="start" x="270.5" y="-169.2" font-family="Helvetica,sans-Serif" font-size="11.00">width</text>
<polygon fill="none" stroke="black" points="422.5,-161 422.5,-183 519.5,-183 519.5,-161 422.5,-161"/>
<text text-anchor="start" x="425.5" y="-169.2" font-family="Helvetica,sans-Serif" font-size="11.00">int unsigned[10]</text>
<polygon fill="#ffffff" stroke="transparent" points="250.5,-139 250.5,-161 422.5,-161 422.5,-139 250.5,-139"/>
<polygon fill="none" stroke="black" points="250.5,-139 250.5,-161 422.5,-161 422.5,-139 250.5,-139"/>
<text text-anchor="start" x="270.5" y="-147.2" font-family="Helvetica,sans-Serif" font-size="11.00">height</text>
<polygon fill="none" stroke="black" points="422.5,-139 422.5,-161 519.5,-161 519.5,-139 422.5,-139"/>
<text text-anchor="start" x="425.5" y="-147.2" font-family="Helvetica,sans-Serif" font-size="11.00">int unsigned[10]</text>
<polygon fill="#ffffff" stroke="transparent" points="250.5,-117 250.5,-139 422.5,-139 422.5,-117 250.5,-117"/>
<polygon fill="none" stroke="black" points="250.5,-117 250.5,-139 422.5,-139 422.5,-117 250.5,-117"/>
<text text-anchor="start" x="270.5" y="-125.2" font-family="Helvetica,sans-Serif" font-size="11.00">pixels_per_inch</text>
<polygon fill="none" stroke="black" points="422.5,-117 422.5,-139 519.5,-139 519.5,-117 422.5,-117"/>
<text text-anchor="start" x="425.5" y="-125.2" font-family="Helvetica,sans-Serif" font-size="11.00">int unsigned[10]</text>
<polygon fill="#ffffff" stroke="transparent" points="250.5,-95 250.5,-117 422.5,-117 422.5,-95 250.5,-95"/>
<polygon fill="none" stroke="black" points="250.5,-95 250.5,-117 422.5,-117 422.5,-95 250.5,-95"/>
<image xlink:href="../../images/foreignKeys.png" width="11px" height="12px" preserveAspectRatio="xMinYMin meet" x="255.5" y="-112"/>
<text text-anchor="start" x="270.5" y="-103.2" font-family="Helvetica,sans-Serif" font-size="11.00">scribal_font_id</text>
<polygon fill="none" stroke="black" points="422.5,-95 422.5,-117 519.5,-117 519.5,-95 422.5,-95"/>
<text text-anchor="start" x="425.5" y="-103.2" font-family="Helvetica,sans-Serif" font-size="11.00">int unsigned[10]</text>
<polygon fill="#ffffff" stroke="transparent" points="250.5,-77 250.5,-95 315.5,-95 315.5,-77 250.5,-77"/>
<polygon fill="none" stroke="black" points="250.5,-77 250.5,-95 315.5,-95 315.5,-77 250.5,-77"/>
<text text-anchor="start" x="253.5" y="-83.2" font-family="Helvetica,sans-Serif" font-size="11.00">&lt; 2</text>
<polygon fill="#ffffff" stroke="transparent" points="315.5,-77 315.5,-95 422.5,-95 422.5,-77 315.5,-77"/>
<polygon fill="none" stroke="black" points="315.5,-77 315.5,-95 422.5,-95 422.5,-77 315.5,-77"/>
<text text-anchor="start" x="358.5" y="-83.2" font-family="Helvetica,sans-Serif" font-size="11.00">1,371 rows</text>
<polygon fill="#ffffff" stroke="transparent" points="422.5,-77 422.5,-95 519.5,-95 519.5,-77 422.5,-77"/>
<polygon fill="none" stroke="black" points="422.5,-77 422.5,-95 519.5,-95 519.5,-77 422.5,-77"/>
<text text-anchor="start" x="496.5" y="-83.2" font-family="Helvetica,sans-Serif" font-size="11.00">1 &gt;</text>
<polygon fill="none" stroke="black" stroke-width="2" points="249,-76 249,-294 520,-294 520,-76 249,-76"/>
</a>
</g>
</g>
<!-- manuscript -->
<g id="node2" class="node">
<title>manuscript</title>
<g id="a_node2"><a xlink:href="../../tables/manuscript.html" xlink:title="manuscript" target="_top">
<polygon fill="#ffffff" stroke="transparent" points="43,-209 43,-271 164,-271 164,-209 43,-209"/>
<polygon fill="#f5f5f5" stroke="transparent" points="43.5,-249 43.5,-271 164.5,-271 164.5,-249 43.5,-249"/>
<polygon fill="none" stroke="black" points="43.5,-249 43.5,-271 164.5,-271 164.5,-249 43.5,-249"/>
<text text-anchor="start" x="48.5" y="-258.2" font-family="Helvetica,sans-Serif" font-weight="bold" font-size="11.00">manuscript</text>
<text text-anchor="start" x="122.5" y="-257.2" font-family="Helvetica,sans-Serif" font-size="11.00">[table]</text>
<polygon fill="none" stroke="black" points="43.5,-227 43.5,-249 164.5,-249 164.5,-227 43.5,-227"/>
<image xlink:href="../../images/primaryKeys.png" width="11px" height="12px" preserveAspectRatio="xMinYMin meet" x="48.5" y="-244"/>
<text text-anchor="start" x="66.5" y="-235.2" font-family="Helvetica,sans-Serif" font-size="11.00">manuscript_id</text>
<polygon fill="#ffffff" stroke="transparent" points="43.5,-209 43.5,-227 64.5,-227 64.5,-209 43.5,-209"/>
<polygon fill="none" stroke="black" points="43.5,-209 43.5,-227 64.5,-227 64.5,-209 43.5,-209"/>
<text text-anchor="start" x="46.5" y="-215.2" font-family="Helvetica,sans-Serif" font-size="11.00"> &#160;</text>
<polygon fill="#ffffff" stroke="transparent" points="64.5,-209 64.5,-227 134.5,-227 134.5,-209 64.5,-209"/>
<polygon fill="none" stroke="black" points="64.5,-209 64.5,-227 134.5,-227 134.5,-209 64.5,-209"/>
<text text-anchor="start" x="70.5" y="-215.2" font-family="Helvetica,sans-Serif" font-size="11.00">1,645 rows</text>
<polygon fill="#ffffff" stroke="transparent" points="134.5,-209 134.5,-227 164.5,-227 164.5,-209 134.5,-209"/>
<polygon fill="none" stroke="black" points="134.5,-209 134.5,-227 164.5,-227 164.5,-209 134.5,-209"/>
<text text-anchor="start" x="141.5" y="-215.2" font-family="Helvetica,sans-Serif" font-size="11.00">5 &gt;</text>
</a>
</g>
</g>
<!-- manuscript_metrics&#45;&gt;manuscript -->
<g id="edge1" class="edge">
<title>manuscript_metrics:w&#45;&gt;manuscript:e</title>
<path fill="none" stroke="black" d="M234.9,-238C208.88,-238 197.44,-238 165.5,-238"/>
<polygon fill="black" stroke="black" points="241.5,-238 249.5,-241.6 245.5,-238 249.5,-238 249.5,-238 249.5,-238 245.5,-238 249.5,-234.4 241.5,-238 241.5,-238"/>
<ellipse fill="none" stroke="black" cx="238.3" cy="-238" rx="3.2" ry="3.2"/>
</g>
<!-- scribal_font -->
<g id="node3" class="node">
<title>scribal_font</title>
<g id="a_node3"><a xlink:href="../../tables/scribal_font.html" xlink:title="scribal_font" target="_top">
<polygon fill="#ffffff" stroke="transparent" points="8,-37 8,-139 199,-139 199,-37 8,-37"/>
<polygon fill="#f5f5f5" stroke="transparent" points="8.5,-117 8.5,-139 199.5,-139 199.5,-117 8.5,-117"/>
<polygon fill="none" stroke="black" points="8.5,-117 8.5,-139 199.5,-139 199.5,-117 8.5,-117"/>
<text text-anchor="start" x="13.5" y="-126.2" font-family="Helvetica,sans-Serif" font-weight="bold" font-size="11.00">scribal_font</text>
<text text-anchor="start" x="157.5" y="-125.2" font-family="Helvetica,sans-Serif" font-size="11.00">[table]</text>
<polygon fill="none" stroke="black" points="8.5,-95 8.5,-117 199.5,-117 199.5,-95 8.5,-95"/>
<image xlink:href="../../images/primaryKeys.png" width="11px" height="12px" preserveAspectRatio="xMinYMin meet" x="13.5" y="-112"/>
<text text-anchor="start" x="28.5" y="-103.2" font-family="Helvetica,sans-Serif" font-size="11.00">scribal_font_id</text>
<polygon fill="none" stroke="black" points="8.5,-73 8.5,-95 199.5,-95 199.5,-73 8.5,-73"/>
<image xlink:href="../../images/foreignKeys.png" width="11px" height="12px" preserveAspectRatio="xMinYMin meet" x="13.5" y="-90"/>
<text text-anchor="start" x="28.5" y="-81.2" font-family="Helvetica,sans-Serif" font-size="11.00">font_file_id</text>
<polygon fill="none" stroke="black" points="8.5,-55 8.5,-73 199.5,-73 199.5,-55 8.5,-55"/>
<text text-anchor="start" x="11.5" y="-61.2" font-family="Helvetica,sans-Serif" font-size="11.00">...</text>
<polygon fill="#ffffff" stroke="transparent" points="8.5,-37 8.5,-55 76.5,-55 76.5,-37 8.5,-37"/>
<polygon fill="none" stroke="black" points="8.5,-37 8.5,-55 76.5,-55 76.5,-37 8.5,-37"/>
<text text-anchor="start" x="11.5" y="-43.2" font-family="Helvetica,sans-Serif" font-size="11.00"> &#160;</text>
<polygon fill="#ffffff" stroke="transparent" points="76.5,-37 76.5,-55 146.5,-55 146.5,-37 76.5,-37"/>
<polygon fill="none" stroke="black" points="76.5,-37 76.5,-55 146.5,-55 146.5,-37 76.5,-37"/>
<text text-anchor="start" x="106.5" y="-43.2" font-family="Helvetica,sans-Serif" font-size="11.00">0 rows</text>
<polygon fill="#ffffff" stroke="transparent" points="146.5,-37 146.5,-55 199.5,-55 199.5,-37 146.5,-37"/>
<polygon fill="none" stroke="black" points="146.5,-37 146.5,-55 199.5,-55 199.5,-37 146.5,-37"/>
<text text-anchor="start" x="176.5" y="-43.2" font-family="Helvetica,sans-Serif" font-size="11.00">4 &gt;</text>
</a>
</g>
</g>
<!-- manuscript_metrics&#45;&gt;scribal_font -->
<g id="edge2" class="edge">
<title>manuscript_metrics:w&#45;&gt;scribal_font:e</title>
<path fill="none" stroke="black" d="M234.99,-106C223.68,-106 216.49,-106 200.5,-106"/>
<polygon fill="black" stroke="black" points="241.5,-106 249.5,-109.6 245.5,-106 249.5,-106 249.5,-106 249.5,-106 245.5,-106 249.5,-102.4 241.5,-106 241.5,-106"/>
<ellipse fill="none" stroke="black" cx="238.3" cy="-106" rx="3.2" ry="3.2"/>
</g>
<!-- manuscript_metrics_owner -->
<g id="node4" class="node">
<title>manuscript_metrics_owner</title>
<g id="a_node4"><a xlink:href="../../tables/manuscript_metrics_owner.html" xlink:title="manuscript_metrics_owner" target="_top">
<polygon fill="#ffffff" stroke="transparent" points="570,-187 570,-293 786,-293 786,-187 570,-187"/>
<polygon fill="#f5f5f5" stroke="transparent" points="570,-271 570,-293 786,-293 786,-271 570,-271"/>
<polygon fill="none" stroke="black" points="570,-271 570,-293 786,-293 786,-271 570,-271"/>
<text text-anchor="start" x="575" y="-280.2" font-family="Helvetica,sans-Serif" font-weight="bold" font-size="11.00">manuscript_metrics_owner</text>
<text text-anchor="start" x="744" y="-279.2" font-family="Helvetica,sans-Serif" font-size="11.00">[table]</text>
<polygon fill="none" stroke="black" points="570,-249 570,-271 786,-271 786,-249 570,-249"/>
<image xlink:href="../../images/primaryKeys.png" width="11px" height="12px" preserveAspectRatio="xMinYMin meet" x="575" y="-266"/>
<text text-anchor="start" x="598" y="-257.2" font-family="Helvetica,sans-Serif" font-size="11.00">manuscript_metrics_id</text>
<polygon fill="none" stroke="black" points="570,-227 570,-249 786,-249 786,-227 570,-227"/>
<image xlink:href="../../images/primaryKeys.png" width="11px" height="12px" preserveAspectRatio="xMinYMin meet" x="575" y="-244"/>
<text text-anchor="start" x="598" y="-235.2" font-family="Helvetica,sans-Serif" font-size="11.00">edition_id</text>
<polygon fill="#ffffff" stroke="transparent" points="570,-205 570,-227 786,-227 786,-205 570,-205"/>
<polygon fill="none" stroke="black" points="570,-205 570,-227 786,-227 786,-205 570,-205"/>
<image xlink:href="../../images/foreignKeys.png" width="11px" height="12px" preserveAspectRatio="xMinYMin meet" x="575" y="-222"/>
<text text-anchor="start" x="598" y="-213.2" font-family="Helvetica,sans-Serif" font-size="11.00">edition_editor_id</text>
<polygon fill="#ffffff" stroke="transparent" points="570,-187 570,-205 650,-205 650,-187 570,-187"/>
<polygon fill="none" stroke="black" points="570,-187 570,-205 650,-205 650,-187 570,-187"/>
<text text-anchor="start" x="573" y="-193.2" font-family="Helvetica,sans-Serif" font-size="11.00">&lt; 3</text>
<polygon fill="#ffffff" stroke="transparent" points="650,-187 650,-205 744,-205 744,-187 650,-187"/>
<polygon fill="none" stroke="black" points="650,-187 650,-205 744,-205 744,-187 650,-187"/>
<text text-anchor="start" x="680" y="-193.2" font-family="Helvetica,sans-Serif" font-size="11.00">1,371 rows</text>
<polygon fill="#ffffff" stroke="transparent" points="744,-187 744,-205 786,-205 786,-187 744,-187"/>
<polygon fill="none" stroke="black" points="744,-187 744,-205 786,-205 786,-187 744,-187"/>
<text text-anchor="start" x="775" y="-193.2" font-family="Helvetica,sans-Serif" font-size="11.00"> &#160;</text>
</a>
</g>
</g>
<!-- manuscript_metrics_owner&#45;&gt;manuscript_metrics -->
<g id="edge3" class="edge">
<title>manuscript_metrics_owner:w&#45;&gt;manuscript_metrics:e</title>
<path fill="none" stroke="black" d="M554.28,-260C543.29,-260 536.16,-260 520.5,-260"/>
<polygon fill="black" stroke="black" points="561,-260 569,-263.6 565,-260 569,-260 569,-260 569,-260 565,-260 569,-256.4 561,-260 561,-260"/>
<ellipse fill="none" stroke="black" cx="557.8" cy="-260" rx="3.2" ry="3.2"/>
</g>
</g>
</svg>
