<?xml version="1.0" encoding="UTF-8" standalone="no"?>
<!DOCTYPE svg PUBLIC "-//W3C//DTD SVG 1.1//EN"
 "http://www.w3.org/Graphics/SVG/1.1/DTD/svg11.dtd">
<!-- Generated by graphviz version 2.40.1 (20161225.0304)
 -->
<!-- Title: oneDegreeRelationshipsDiagram Pages: 1 -->
<svg width="704pt" height="238pt"
 viewBox="0.00 0.00 704.00 238.00" xmlns="http://www.w3.org/2000/svg" xmlns:xlink="http://www.w3.org/1999/xlink">
<g id="graph0" class="graph" transform="scale(1 1) rotate(0) translate(4 234)">
<title>oneDegreeRelationshipsDiagram</title>
<polygon fill="#ffffff" stroke="transparent" points="-4,4 -4,-234 700,-234 700,4 -4,4"/>
<text text-anchor="middle" x="71.5" y="-7.2" font-family="Helvetica,sans-Serif" font-size="11.00" fill="#000000">Generated by SchemaSpy</text>
<!-- manuscript_data -->
<g id="node1" class="node">
<title>manuscript_data</title>
<g id="a_node1"><a xlink:href="../../tables/manuscript_data.html" xlink:title="manuscript_data" target="_top">
<polygon fill="#ffffff" stroke="transparent" points="220,-94 220,-226 458,-226 458,-94 220,-94"/>
<polygon fill="#f5f5f5" stroke="transparent" points="222,-202 222,-224 456,-224 456,-202 222,-202"/>
<polygon fill="none" stroke="#000000" points="222,-202 222,-224 456,-224 456,-202 222,-202"/>
<text text-anchor="start" x="227" y="-211.2" font-family="Helvetica,sans-Serif" font-weight="bold" font-size="11.00" fill="#000000">manuscript_data</text>
<text text-anchor="start" x="421" y="-210.2" font-family="Helvetica,sans-Serif" font-size="11.00" fill="#000000">[table]</text>
<polygon fill="none" stroke="#000000" points="222,-180 222,-202 374,-202 374,-180 222,-180"/>
<image xlink:href="../../images/primaryKeys.png" width="11px" height="12px" preserveAspectRatio="xMinYMin meet" x="227" y="-197"/>
<text text-anchor="start" x="242" y="-188.2" font-family="Helvetica,sans-Serif" font-size="11.00" fill="#000000">manuscript_data_id</text>
<polygon fill="none" stroke="#000000" points="374,-180 374,-202 456,-202 456,-180 374,-180"/>
<text text-anchor="start" x="377" y="-188.2" font-family="Helvetica,sans-Serif" font-size="11.00" fill="#000000">int unsigned[10]</text>
<polygon fill="#ffffff" stroke="transparent" points="222,-158 222,-180 374,-180 374,-158 222,-158"/>
<polygon fill="none" stroke="#000000" points="222,-158 222,-180 374,-180 374,-158 222,-158"/>
<image xlink:href="../../images/foreignKeys.png" width="11px" height="12px" preserveAspectRatio="xMinYMin meet" x="227" y="-175"/>
<text text-anchor="start" x="242" y="-166.2" font-family="Helvetica,sans-Serif" font-size="11.00" fill="#000000">manuscript_id</text>
<polygon fill="none" stroke="#000000" points="374,-158 374,-180 456,-180 456,-158 374,-158"/>
<text text-anchor="start" x="377" y="-166.2" font-family="Helvetica,sans-Serif" font-size="11.00" fill="#000000">int unsigned[10]</text>
<polygon fill="#ffffff" stroke="transparent" points="222,-136 222,-158 374,-158 374,-136 222,-136"/>
<polygon fill="none" stroke="#000000" points="222,-136 222,-158 374,-158 374,-136 222,-136"/>
<text text-anchor="start" x="242" y="-144.2" font-family="Helvetica,sans-Serif" font-size="11.00" fill="#000000">name</text>
<polygon fill="none" stroke="#000000" points="374,-136 374,-158 456,-158 456,-136 374,-136"/>
<text text-anchor="start" x="377" y="-144.2" font-family="Helvetica,sans-Serif" font-size="11.00" fill="#000000">varchar[255]</text>
<polygon fill="#ffffff" stroke="transparent" points="222,-114 222,-136 374,-136 374,-114 222,-114"/>
<polygon fill="none" stroke="#000000" points="222,-114 222,-136 374,-136 374,-114 222,-114"/>
<image xlink:href="../../images/foreignKeys.png" width="11px" height="12px" preserveAspectRatio="xMinYMin meet" x="227" y="-131"/>
<text text-anchor="start" x="242" y="-122.2" font-family="Helvetica,sans-Serif" font-size="11.00" fill="#000000">creator_id</text>
<polygon fill="none" stroke="#000000" points="374,-114 374,-136 456,-136 456,-114 374,-114"/>
<text text-anchor="start" x="377" y="-122.2" font-family="Helvetica,sans-Serif" font-size="11.00" fill="#000000">int unsigned[10]</text>
<polygon fill="#ffffff" stroke="transparent" points="222,-96 222,-114 279,-114 279,-96 222,-96"/>
<polygon fill="none" stroke="#000000" points="222,-96 222,-114 279,-114 279,-96 222,-96"/>
<text text-anchor="start" x="225" y="-102.2" font-family="Helvetica,sans-Serif" font-size="11.00" fill="#000000">&lt; 2</text>
<polygon fill="#ffffff" stroke="transparent" points="279,-96 279,-114 374,-114 374,-96 279,-96"/>
<polygon fill="none" stroke="#000000" points="279,-96 279,-114 374,-114 374,-96 279,-96"/>
<text text-anchor="start" x="317" y="-102.2" font-family="Helvetica,sans-Serif" font-size="11.00" fill="#000000">1,371 rows</text>
<polygon fill="#ffffff" stroke="transparent" points="374,-96 374,-114 456,-114 456,-96 374,-96"/>
<polygon fill="none" stroke="#000000" points="374,-96 374,-114 456,-114 456,-96 374,-96"/>
<text text-anchor="start" x="437" y="-102.2" font-family="Helvetica,sans-Serif" font-size="11.00" fill="#000000">1 &gt;</text>
<polygon fill="none" stroke="#000000" stroke-width="2" points="221,-95 221,-225 457,-225 457,-95 221,-95"/>
</a>
</g>
</g>
<!-- user -->
<g id="node2" class="node">
<title>user</title>
<g id="a_node2"><a xlink:href="../../tables/user.html" xlink:title="user" target="_top">
<polygon fill="#ffffff" stroke="transparent" points="8,-37 8,-139 171,-139 171,-37 8,-37"/>
<polygon fill="#f5f5f5" stroke="transparent" points="8.5,-117 8.5,-139 171.5,-139 171.5,-117 8.5,-117"/>
<polygon fill="none" stroke="#000000" points="8.5,-117 8.5,-139 171.5,-139 171.5,-117 8.5,-117"/>
<text text-anchor="start" x="13.5" y="-126.2" font-family="Helvetica,sans-Serif" font-weight="bold" font-size="11.00" fill="#000000">user</text>
<text text-anchor="start" x="136.5" y="-125.2" font-family="Helvetica,sans-Serif" font-size="11.00" fill="#000000">[table]</text>
<polygon fill="none" stroke="#000000" points="8.5,-95 8.5,-117 171.5,-117 171.5,-95 8.5,-95"/>
<image xlink:href="../../images/primaryKeys.png" width="11px" height="12px" preserveAspectRatio="xMinYMin meet" x="13.5" y="-112"/>
<text text-anchor="start" x="28.5" y="-103.2" font-family="Helvetica,sans-Serif" font-size="11.00" fill="#000000">user_id</text>
<polygon fill="#ffffff" stroke="transparent" points="8.5,-73 8.5,-95 171.5,-95 171.5,-73 8.5,-73"/>
<polygon fill="none" stroke="#000000" points="8.5,-73 8.5,-95 171.5,-95 171.5,-73 8.5,-73"/>
<text text-anchor="start" x="28.5" y="-81.2" font-family="Helvetica,sans-Serif" font-size="11.00" fill="#000000">email</text>
<polygon fill="none" stroke="#000000" points="8.5,-55 8.5,-73 171.5,-73 171.5,-55 8.5,-55"/>
<text text-anchor="start" x="11.5" y="-61.2" font-family="Helvetica,sans-Serif" font-size="11.00" fill="#000000">...</text>
<polygon fill="#ffffff" stroke="transparent" points="8.5,-37 8.5,-55 62.5,-55 62.5,-37 8.5,-37"/>
<polygon fill="none" stroke="#000000" points="8.5,-37 8.5,-55 62.5,-55 62.5,-37 8.5,-37"/>
<text text-anchor="start" x="11.5" y="-43.2" font-family="Helvetica,sans-Serif" font-size="11.00" fill="#000000"> &#160;</text>
<polygon fill="#ffffff" stroke="transparent" points="62.5,-37 62.5,-55 122.5,-55 122.5,-37 62.5,-37"/>
<polygon fill="none" stroke="#000000" points="62.5,-37 62.5,-55 122.5,-55 122.5,-37 62.5,-37"/>
<text text-anchor="start" x="86.5" y="-43.2" font-family="Helvetica,sans-Serif" font-size="11.00" fill="#000000">3 rows</text>
<polygon fill="#ffffff" stroke="transparent" points="122.5,-37 122.5,-55 171.5,-55 171.5,-37 122.5,-37"/>
<polygon fill="none" stroke="#000000" points="122.5,-37 122.5,-55 171.5,-55 171.5,-37 122.5,-37"/>
<text text-anchor="start" x="146.5" y="-43.2" font-family="Helvetica,sans-Serif" font-size="11.00" fill="#000000">40 &gt;</text>
</a>
</g>
</g>
<!-- manuscript_data&#45;&gt;user -->
<g id="edge1" class="edge">
<title>manuscript_data:w&#45;&gt;user:e</title>
<path fill="none" stroke="#000000" d="M207.7405,-122.1965C195.532,-116.9113 189.6727,-106 171.5,-106"/>
<polygon fill="#000000" stroke="#000000" points="214.1503,-123.4567 221.3055,-128.5324 218.0751,-124.2283 222,-125 222,-125 222,-125 218.0751,-124.2283 222.6945,-121.4676 214.1503,-123.4567 214.1503,-123.4567"/>
<ellipse fill="none" stroke="#000000" cx="211.0104" cy="-122.8393" rx="3.2" ry="3.2"/>
</g>
<!-- manuscript -->
<g id="node3" class="node">
<title>manuscript</title>
<g id="a_node3"><a xlink:href="../../tables/manuscript.html" xlink:title="manuscript" target="_top">
<polygon fill="#ffffff" stroke="transparent" points="31.5,-160 31.5,-222 147.5,-222 147.5,-160 31.5,-160"/>
<polygon fill="#f5f5f5" stroke="transparent" points="31.5,-200 31.5,-222 147.5,-222 147.5,-200 31.5,-200"/>
<polygon fill="none" stroke="#000000" points="31.5,-200 31.5,-222 147.5,-222 147.5,-200 31.5,-200"/>
<text text-anchor="start" x="36.5" y="-209.2" font-family="Helvetica,sans-Serif" font-weight="bold" font-size="11.00" fill="#000000">manuscript</text>
<text text-anchor="start" x="112.5" y="-208.2" font-family="Helvetica,sans-Serif" font-size="11.00" fill="#000000">[table]</text>
<polygon fill="none" stroke="#000000" points="31.5,-178 31.5,-200 147.5,-200 147.5,-178 31.5,-178"/>
<image xlink:href="../../images/primaryKeys.png" width="11px" height="12px" preserveAspectRatio="xMinYMin meet" x="36.5" y="-195"/>
<text text-anchor="start" x="51.5" y="-186.2" font-family="Helvetica,sans-Serif" font-size="11.00" fill="#000000">manuscript_id</text>
<polygon fill="#ffffff" stroke="transparent" points="31.5,-160 31.5,-178 54.5,-178 54.5,-160 31.5,-160"/>
<polygon fill="none" stroke="#000000" points="31.5,-160 31.5,-178 54.5,-178 54.5,-160 31.5,-160"/>
<text text-anchor="start" x="34.5" y="-166.2" font-family="Helvetica,sans-Serif" font-size="11.00" fill="#000000"> &#160;</text>
<polygon fill="#ffffff" stroke="transparent" points="54.5,-160 54.5,-178 119.5,-178 119.5,-160 54.5,-160"/>
<polygon fill="none" stroke="#000000" points="54.5,-160 54.5,-178 119.5,-178 119.5,-160 54.5,-160"/>
<text text-anchor="start" x="62.5" y="-166.2" font-family="Helvetica,sans-Serif" font-size="11.00" fill="#000000">1,645 rows</text>
<polygon fill="#ffffff" stroke="transparent" points="119.5,-160 119.5,-178 147.5,-178 147.5,-160 119.5,-160"/>
<polygon fill="none" stroke="#000000" points="119.5,-160 119.5,-178 147.5,-178 147.5,-160 119.5,-160"/>
<text text-anchor="start" x="128.5" y="-166.2" font-family="Helvetica,sans-Serif" font-size="11.00" fill="#000000">5 &gt;</text>
</a>
</g>
</g>
<!-- manuscript_data&#45;&gt;manuscript -->
<g id="edge2" class="edge">
<title>manuscript_data:w&#45;&gt;manuscript:e</title>
<path fill="none" stroke="#000000" d="M207.4765,-170.3747C185.0889,-174.8932 176.2928,-189 147.5,-189"/>
<polygon fill="#000000" stroke="#000000" points="214.0356,-169.7539 222.3393,-172.584 218.0178,-169.3769 222,-169 222,-169 222,-169 218.0178,-169.3769 221.6607,-165.416 214.0356,-169.7539 214.0356,-169.7539"/>
<ellipse fill="none" stroke="#000000" cx="210.8498" cy="-170.0555" rx="3.2" ry="3.2"/>
</g>
<!-- manuscript_data_owner -->
<g id="node4" class="node">
<title>manuscript_data_owner</title>
<g id="a_node4"><a xlink:href="../../tables/manuscript_data_owner.html" xlink:title="manuscript_data_owner" target="_top">
<polygon fill="#ffffff" stroke="transparent" points="507,-118 507,-224 688,-224 688,-118 507,-118"/>
<polygon fill="#f5f5f5" stroke="transparent" points="507.5,-202 507.5,-224 688.5,-224 688.5,-202 507.5,-202"/>
<polygon fill="none" stroke="#000000" points="507.5,-202 507.5,-224 688.5,-224 688.5,-202 507.5,-202"/>
<text text-anchor="start" x="512.5" y="-211.2" font-family="Helvetica,sans-Serif" font-weight="bold" font-size="11.00" fill="#000000">manuscript_data_owner</text>
<text text-anchor="start" x="653.5" y="-210.2" font-family="Helvetica,sans-Serif" font-size="11.00" fill="#000000">[table]</text>
<polygon fill="none" stroke="#000000" points="507.5,-180 507.5,-202 688.5,-202 688.5,-180 507.5,-180"/>
<image xlink:href="../../images/primaryKeys.png" width="11px" height="12px" preserveAspectRatio="xMinYMin meet" x="512.5" y="-197"/>
<text text-anchor="start" x="527.5" y="-188.2" font-family="Helvetica,sans-Serif" font-size="11.00" fill="#000000">manuscript_data_id</text>
<polygon fill="#ffffff" stroke="transparent" points="507.5,-158 507.5,-180 688.5,-180 688.5,-158 507.5,-158"/>
<polygon fill="none" stroke="#000000" points="507.5,-158 507.5,-180 688.5,-180 688.5,-158 507.5,-158"/>
<image xlink:href="../../images/foreignKeys.png" width="11px" height="12px" preserveAspectRatio="xMinYMin meet" x="512.5" y="-175"/>
<text text-anchor="start" x="527.5" y="-166.2" font-family="Helvetica,sans-Serif" font-size="11.00" fill="#000000">edition_editor_id</text>
<polygon fill="none" stroke="#000000" points="507.5,-136 507.5,-158 688.5,-158 688.5,-136 507.5,-136"/>
<image xlink:href="../../images/primaryKeys.png" width="11px" height="12px" preserveAspectRatio="xMinYMin meet" x="512.5" y="-153"/>
<text text-anchor="start" x="527.5" y="-144.2" font-family="Helvetica,sans-Serif" font-size="11.00" fill="#000000">edition_id</text>
<polygon fill="#ffffff" stroke="transparent" points="507.5,-118 507.5,-136 572.5,-136 572.5,-118 507.5,-118"/>
<polygon fill="none" stroke="#000000" points="507.5,-118 507.5,-136 572.5,-136 572.5,-118 507.5,-118"/>
<text text-anchor="start" x="510.5" y="-124.2" font-family="Helvetica,sans-Serif" font-size="11.00" fill="#000000">&lt; 3</text>
<polygon fill="#ffffff" stroke="transparent" points="572.5,-118 572.5,-136 653.5,-136 653.5,-118 572.5,-118"/>
<polygon fill="none" stroke="#000000" points="572.5,-118 572.5,-136 653.5,-136 653.5,-118 572.5,-118"/>
<text text-anchor="start" x="596.5" y="-124.2" font-family="Helvetica,sans-Serif" font-size="11.00" fill="#000000">1,371 rows</text>
<polygon fill="#ffffff" stroke="transparent" points="653.5,-118 653.5,-136 688.5,-136 688.5,-118 653.5,-118"/>
<polygon fill="none" stroke="#000000" points="653.5,-118 653.5,-136 688.5,-136 688.5,-118 653.5,-118"/>
<text text-anchor="start" x="678.5" y="-124.2" font-family="Helvetica,sans-Serif" font-size="11.00" fill="#000000"> &#160;</text>
</a>
</g>
</g>
<!-- manuscript_data_owner&#45;&gt;manuscript_data -->
<g id="edge3" class="edge">
<title>manuscript_data_owner:w&#45;&gt;manuscript_data:e</title>
<path fill="none" stroke="#000000" d="M493.0156,-191C480.6771,-191 473.1667,-191 456,-191"/>
<polygon fill="#000000" stroke="#000000" points="499.5,-191.0001 507.5,-194.6 503.5,-191 507.5,-191 507.5,-191 507.5,-191 503.5,-191 507.5,-187.4 499.5,-191.0001 499.5,-191.0001"/>
<ellipse fill="none" stroke="#000000" cx="496.3" cy="-191.0001" rx="3.2" ry="3.2"/>
</g>
</g>
</svg>
