<?xml version="1.0" encoding="UTF-8" standalone="no"?>
<!DOCTYPE svg PUBLIC "-//W3C//DTD SVG 1.1//EN"
 "http://www.w3.org/Graphics/SVG/1.1/DTD/svg11.dtd">
<!-- Generated by graphviz version 2.40.1 (20161225.0304)
 -->
<!-- Title: oneDegreeRelationshipsDiagram Pages: 1 -->
<svg width="848pt" height="380pt"
 viewBox="0.00 0.00 848.00 380.00" xmlns="http://www.w3.org/2000/svg" xmlns:xlink="http://www.w3.org/1999/xlink">
<g id="graph0" class="graph" transform="scale(1 1) rotate(0) translate(4 376)">
<title>oneDegreeRelationshipsDiagram</title>
<polygon fill="#ffffff" stroke="transparent" points="-4,4 -4,-376 844,-376 844,4 -4,4"/>
<text text-anchor="middle" x="71.5" y="-7.2" font-family="Helvetica,sans-Serif" font-size="11.00" fill="#000000">Generated by SchemaSpy</text>
<!-- edition_editor -->
<g id="node1" class="node">
<title>edition_editor</title>
<g id="a_node1"><a xlink:href="../../tables/edition_editor.html" xlink:title="edition_editor" target="_top">
<polygon fill="#ffffff" stroke="transparent" points="244.5,-95 244.5,-219 377.5,-219 377.5,-95 244.5,-95"/>
<polygon fill="#f5f5f5" stroke="transparent" points="245,-197 245,-219 378,-219 378,-197 245,-197"/>
<polygon fill="none" stroke="#000000" points="245,-197 245,-219 378,-219 378,-197 245,-197"/>
<text text-anchor="start" x="250" y="-206.2" font-family="Helvetica,sans-Serif" font-weight="bold" font-size="11.00" fill="#000000">edition_editor</text>
<text text-anchor="start" x="343" y="-205.2" font-family="Helvetica,sans-Serif" font-size="11.00" fill="#000000">[table]</text>
<polygon fill="none" stroke="#000000" points="245,-175 245,-197 378,-197 378,-175 245,-175"/>
<image xlink:href="../../images/primaryKeys.png" width="11px" height="12px" preserveAspectRatio="xMinYMin meet" x="250" y="-192"/>
<text text-anchor="start" x="265" y="-183.2" font-family="Helvetica,sans-Serif" font-size="11.00" fill="#000000">edition_editor_id</text>
<polygon fill="#ffffff" stroke="transparent" points="245,-153 245,-175 378,-175 378,-153 245,-153"/>
<polygon fill="none" stroke="#000000" points="245,-153 245,-175 378,-175 378,-153 245,-153"/>
<image xlink:href="../../images/foreignKeys.png" width="11px" height="12px" preserveAspectRatio="xMinYMin meet" x="250" y="-170"/>
<text text-anchor="start" x="265" y="-161.2" font-family="Helvetica,sans-Serif" font-size="11.00" fill="#000000">user_id</text>
<polygon fill="#ffffff" stroke="transparent" points="245,-131 245,-153 378,-153 378,-131 245,-131"/>
<polygon fill="none" stroke="#000000" points="245,-131 245,-153 378,-153 378,-131 245,-131"/>
<image xlink:href="../../images/foreignKeys.png" width="11px" height="12px" preserveAspectRatio="xMinYMin meet" x="250" y="-148"/>
<text text-anchor="start" x="265" y="-139.2" font-family="Helvetica,sans-Serif" font-size="11.00" fill="#000000">edition_id</text>
<polygon fill="none" stroke="#000000" points="245,-113 245,-131 378,-131 378,-113 245,-113"/>
<text text-anchor="start" x="248" y="-119.2" font-family="Helvetica,sans-Serif" font-size="11.00" fill="#000000">...</text>
<polygon fill="#ffffff" stroke="transparent" points="245,-95 245,-113 278,-113 278,-95 245,-95"/>
<polygon fill="none" stroke="#000000" points="245,-95 245,-113 278,-113 278,-95 245,-95"/>
<text text-anchor="start" x="248" y="-101.2" font-family="Helvetica,sans-Serif" font-size="11.00" fill="#000000">&lt; 2</text>
<polygon fill="#ffffff" stroke="transparent" points="278,-95 278,-113 344,-113 344,-95 278,-95"/>
<polygon fill="none" stroke="#000000" points="278,-95 278,-113 344,-113 344,-95 278,-95"/>
<text text-anchor="start" x="287" y="-101.2" font-family="Helvetica,sans-Serif" font-size="11.00" fill="#000000">1,645 rows</text>
<polygon fill="#ffffff" stroke="transparent" points="344,-95 344,-113 378,-113 378,-95 344,-95"/>
<polygon fill="none" stroke="#000000" points="344,-95 344,-113 378,-113 378,-95 344,-95"/>
<text text-anchor="start" x="353" y="-101.2" font-family="Helvetica,sans-Serif" font-size="11.00" fill="#000000">30 &gt;</text>
</a>
</g>
</g>
<!-- edition -->
<g id="node2" class="node">
<title>edition</title>
<g id="a_node2"><a xlink:href="../../tables/edition.html" xlink:title="edition" target="_top">
<polygon fill="#ffffff" stroke="transparent" points="8,-37 8,-139 143,-139 143,-37 8,-37"/>
<polygon fill="#f5f5f5" stroke="transparent" points="8.5,-117 8.5,-139 143.5,-139 143.5,-117 8.5,-117"/>
<polygon fill="none" stroke="#000000" points="8.5,-117 8.5,-139 143.5,-139 143.5,-117 8.5,-117"/>
<text text-anchor="start" x="13.5" y="-126.2" font-family="Helvetica,sans-Serif" font-weight="bold" font-size="11.00" fill="#000000">edition</text>
<text text-anchor="start" x="108.5" y="-125.2" font-family="Helvetica,sans-Serif" font-size="11.00" fill="#000000">[table]</text>
<polygon fill="none" stroke="#000000" points="8.5,-95 8.5,-117 143.5,-117 143.5,-95 8.5,-95"/>
<image xlink:href="../../images/primaryKeys.png" width="11px" height="12px" preserveAspectRatio="xMinYMin meet" x="13.5" y="-112"/>
<text text-anchor="start" x="28.5" y="-103.2" font-family="Helvetica,sans-Serif" font-size="11.00" fill="#000000">edition_id</text>
<polygon fill="#ffffff" stroke="transparent" points="8.5,-73 8.5,-95 143.5,-95 143.5,-73 8.5,-73"/>
<polygon fill="none" stroke="#000000" points="8.5,-73 8.5,-95 143.5,-95 143.5,-73 8.5,-73"/>
<image xlink:href="../../images/foreignKeys.png" width="11px" height="12px" preserveAspectRatio="xMinYMin meet" x="13.5" y="-90"/>
<text text-anchor="start" x="28.5" y="-81.2" font-family="Helvetica,sans-Serif" font-size="11.00" fill="#000000">manuscript_id</text>
<polygon fill="none" stroke="#000000" points="8.5,-55 8.5,-73 143.5,-73 143.5,-55 8.5,-55"/>
<text text-anchor="start" x="11.5" y="-61.2" font-family="Helvetica,sans-Serif" font-size="11.00" fill="#000000">...</text>
<polygon fill="#ffffff" stroke="transparent" points="8.5,-37 8.5,-55 42.5,-55 42.5,-37 8.5,-37"/>
<polygon fill="none" stroke="#000000" points="8.5,-37 8.5,-55 42.5,-55 42.5,-37 8.5,-37"/>
<text text-anchor="start" x="11.5" y="-43.2" font-family="Helvetica,sans-Serif" font-size="11.00" fill="#000000">&lt; 1</text>
<polygon fill="#ffffff" stroke="transparent" points="42.5,-37 42.5,-55 108.5,-55 108.5,-37 42.5,-37"/>
<polygon fill="none" stroke="#000000" points="42.5,-37 42.5,-55 108.5,-55 108.5,-37 42.5,-37"/>
<text text-anchor="start" x="51.5" y="-43.2" font-family="Helvetica,sans-Serif" font-size="11.00" fill="#000000">1,645 rows</text>
<polygon fill="#ffffff" stroke="transparent" points="108.5,-37 108.5,-55 143.5,-55 143.5,-37 108.5,-37"/>
<polygon fill="none" stroke="#000000" points="108.5,-37 108.5,-55 143.5,-55 143.5,-37 108.5,-37"/>
<text text-anchor="start" x="118.5" y="-43.2" font-family="Helvetica,sans-Serif" font-size="11.00" fill="#000000">32 &gt;</text>
</a>
</g>
</g>
<!-- edition_editor&#45;&gt;edition -->
<g id="edge1" class="edge">
<title>edition_editor:w&#45;&gt;edition:e</title>
<path fill="none" stroke="#000000" d="M230.2317,-140.7187C195.2878,-134.3057 185.9424,-106 143.5,-106"/>
<polygon fill="#000000" stroke="#000000" points="237.0299,-141.3085 244.6888,-145.5865 241.015,-141.6542 245,-142 245,-142 245,-142 241.015,-141.6542 245.3112,-138.4135 237.0299,-141.3085 237.0299,-141.3085"/>
<ellipse fill="none" stroke="#000000" cx="233.8419" cy="-141.0319" rx="3.2" ry="3.2"/>
</g>
<!-- manuscript_to_text_fragment_owner -->
<g id="node3" class="node">
<title>manuscript_to_text_fragment_owner</title>
<g id="a_node3"><a xlink:href="../../tables/manuscript_to_text_fragment_owner.html" xlink:title="manuscript_to_text_fragment_owner" target="_top">
<polygon fill="#ffffff" stroke="transparent" points="479,-133 479,-243 832,-243 832,-133 479,-133"/>
<polygon fill="#f5f5f5" stroke="transparent" points="481.5,-219 481.5,-241 830.5,-241 830.5,-219 481.5,-219"/>
<polygon fill="none" stroke="#000000" points="481.5,-219 481.5,-241 830.5,-241 830.5,-219 481.5,-219"/>
<text text-anchor="start" x="486.5" y="-228.2" font-family="Helvetica,sans-Serif" font-weight="bold" font-size="11.00" fill="#000000">manuscript_to_text_fragment_owner</text>
<text text-anchor="start" x="795.5" y="-227.2" font-family="Helvetica,sans-Serif" font-size="11.00" fill="#000000">[table]</text>
<polygon fill="none" stroke="#000000" points="481.5,-197 481.5,-219 748.5,-219 748.5,-197 481.5,-197"/>
<image xlink:href="../../images/primaryKeys.png" width="11px" height="12px" preserveAspectRatio="xMinYMin meet" x="486.5" y="-214"/>
<text text-anchor="start" x="501.5" y="-205.2" font-family="Helvetica,sans-Serif" font-size="11.00" fill="#000000">manuscript_to_text_fragment_id</text>
<polygon fill="none" stroke="#000000" points="748.5,-197 748.5,-219 830.5,-219 830.5,-197 748.5,-197"/>
<text text-anchor="start" x="751.5" y="-205.2" font-family="Helvetica,sans-Serif" font-size="11.00" fill="#000000">int unsigned[10]</text>
<polygon fill="#ffffff" stroke="transparent" points="481.5,-175 481.5,-197 748.5,-197 748.5,-175 481.5,-175"/>
<polygon fill="none" stroke="#000000" points="481.5,-175 481.5,-197 748.5,-197 748.5,-175 481.5,-175"/>
<image xlink:href="../../images/foreignKeys.png" width="11px" height="12px" preserveAspectRatio="xMinYMin meet" x="486.5" y="-192"/>
<text text-anchor="start" x="501.5" y="-183.2" font-family="Helvetica,sans-Serif" font-size="11.00" fill="#000000">edition_editor_id</text>
<polygon fill="none" stroke="#000000" points="748.5,-175 748.5,-197 830.5,-197 830.5,-175 748.5,-175"/>
<text text-anchor="start" x="751.5" y="-183.2" font-family="Helvetica,sans-Serif" font-size="11.00" fill="#000000">int unsigned[10]</text>
<polygon fill="none" stroke="#000000" points="481.5,-153 481.5,-175 748.5,-175 748.5,-153 481.5,-153"/>
<image xlink:href="../../images/primaryKeys.png" width="11px" height="12px" preserveAspectRatio="xMinYMin meet" x="486.5" y="-170"/>
<text text-anchor="start" x="501.5" y="-161.2" font-family="Helvetica,sans-Serif" font-size="11.00" fill="#000000">edition_id</text>
<polygon fill="none" stroke="#000000" points="748.5,-153 748.5,-175 830.5,-175 830.5,-153 748.5,-153"/>
<text text-anchor="start" x="751.5" y="-161.2" font-family="Helvetica,sans-Serif" font-size="11.00" fill="#000000">int unsigned[10]</text>
<polygon fill="#ffffff" stroke="transparent" points="481.5,-135 481.5,-153 592.5,-153 592.5,-135 481.5,-135"/>
<polygon fill="none" stroke="#000000" points="481.5,-135 481.5,-153 592.5,-153 592.5,-135 481.5,-135"/>
<text text-anchor="start" x="484.5" y="-141.2" font-family="Helvetica,sans-Serif" font-size="11.00" fill="#000000">&lt; 3</text>
<polygon fill="#ffffff" stroke="transparent" points="592.5,-135 592.5,-153 748.5,-153 748.5,-135 592.5,-135"/>
<polygon fill="none" stroke="#000000" points="592.5,-135 592.5,-153 748.5,-153 748.5,-135 592.5,-135"/>
<text text-anchor="start" x="685.5" y="-141.2" font-family="Helvetica,sans-Serif" font-size="11.00" fill="#000000">11,176 rows</text>
<polygon fill="#ffffff" stroke="transparent" points="748.5,-135 748.5,-153 830.5,-153 830.5,-135 748.5,-135"/>
<polygon fill="none" stroke="#000000" points="748.5,-135 748.5,-153 830.5,-153 830.5,-135 748.5,-135"/>
<text text-anchor="start" x="811.5" y="-141.2" font-family="Helvetica,sans-Serif" font-size="11.00" fill="#000000">0 &gt;</text>
<polygon fill="none" stroke="#000000" stroke-width="2" points="480,-134 480,-242 831,-242 831,-134 480,-134"/>
</a>
</g>
</g>
<!-- manuscript_to_text_fragment_owner&#45;&gt;edition_editor -->
<g id="edge2" class="edge">
<title>manuscript_to_text_fragment_owner:w&#45;&gt;edition_editor:e</title>
<path fill="none" stroke="#000000" d="M467.0951,-186C432.4518,-186 418.7891,-186 378,-186"/>
<polygon fill="#000000" stroke="#000000" points="473.5,-186.0001 481.5,-189.6 477.5,-186 481.5,-186 481.5,-186 481.5,-186 477.5,-186 481.5,-182.4 473.5,-186.0001 473.5,-186.0001"/>
<ellipse fill="none" stroke="#000000" cx="470.3" cy="-186.0001" rx="3.2" ry="3.2"/>
</g>
<!-- manuscript_to_text_fragment_owner&#45;&gt;edition -->
<g id="edge3" class="edge">
<title>manuscript_to_text_fragment_owner:w&#45;&gt;edition:e</title>
<path fill="none" stroke="#000000" d="M467.5416,-160.2163C449.1605,-146.8233 467.4884,-101.5315 438,-84 340.9649,-26.3104 293.4127,-56.2013 184,-84 164.1465,-89.0442 163.9843,-106 143.5,-106"/>
<polygon fill="#000000" stroke="#000000" points="473.7786,-161.9069 480.5581,-167.4746 477.6393,-162.9535 481.5,-164 481.5,-164 481.5,-164 477.6393,-162.9535 482.4419,-160.5254 473.7786,-161.9069 473.7786,-161.9069"/>
<ellipse fill="none" stroke="#000000" cx="470.6901" cy="-161.0697" rx="3.2" ry="3.2"/>
</g>
<!-- manuscript_to_text_fragment -->
<g id="node4" class="node">
<title>manuscript_to_text_fragment</title>
<g id="a_node4"><a xlink:href="../../tables/manuscript_to_text_fragment.html" xlink:title="manuscript_to_text_fragment" target="_top">
<polygon fill="#ffffff" stroke="transparent" points="192,-240 192,-368 430,-368 430,-240 192,-240"/>
<polygon fill="#f5f5f5" stroke="transparent" points="192,-346 192,-368 430,-368 430,-346 192,-346"/>
<polygon fill="none" stroke="#000000" points="192,-346 192,-368 430,-368 430,-346 192,-346"/>
<text text-anchor="start" x="197" y="-355.2" font-family="Helvetica,sans-Serif" font-weight="bold" font-size="11.00" fill="#000000">manuscript_to_text_fragment</text>
<text text-anchor="start" x="395" y="-354.2" font-family="Helvetica,sans-Serif" font-size="11.00" fill="#000000">[table]</text>
<polygon fill="none" stroke="#000000" points="192,-324 192,-346 430,-346 430,-324 192,-324"/>
<image xlink:href="../../images/primaryKeys.png" width="11px" height="12px" preserveAspectRatio="xMinYMin meet" x="197" y="-341"/>
<text text-anchor="start" x="212" y="-332.2" font-family="Helvetica,sans-Serif" font-size="11.00" fill="#000000">manuscript_to_text_fragment_id</text>
<polygon fill="#ffffff" stroke="transparent" points="192,-302 192,-324 430,-324 430,-302 192,-302"/>
<polygon fill="none" stroke="#000000" points="192,-302 192,-324 430,-324 430,-302 192,-302"/>
<image xlink:href="../../images/foreignKeys.png" width="11px" height="12px" preserveAspectRatio="xMinYMin meet" x="197" y="-319"/>
<text text-anchor="start" x="212" y="-310.2" font-family="Helvetica,sans-Serif" font-size="11.00" fill="#000000">manuscript_id</text>
<polygon fill="#ffffff" stroke="transparent" points="192,-280 192,-302 430,-302 430,-280 192,-280"/>
<polygon fill="none" stroke="#000000" points="192,-280 192,-302 430,-302 430,-280 192,-280"/>
<image xlink:href="../../images/foreignKeys.png" width="11px" height="12px" preserveAspectRatio="xMinYMin meet" x="197" y="-297"/>
<text text-anchor="start" x="212" y="-288.2" font-family="Helvetica,sans-Serif" font-size="11.00" fill="#000000">text_fragment_id</text>
<polygon fill="#ffffff" stroke="transparent" points="192,-258 192,-280 430,-280 430,-258 192,-258"/>
<polygon fill="none" stroke="#000000" points="192,-258 192,-280 430,-280 430,-258 192,-258"/>
<image xlink:href="../../images/foreignKeys.png" width="11px" height="12px" preserveAspectRatio="xMinYMin meet" x="197" y="-275"/>
<text text-anchor="start" x="212" y="-266.2" font-family="Helvetica,sans-Serif" font-size="11.00" fill="#000000">creator_id</text>
<polygon fill="#ffffff" stroke="transparent" points="192,-240 192,-258 278,-258 278,-240 192,-240"/>
<polygon fill="none" stroke="#000000" points="192,-240 192,-258 278,-258 278,-240 192,-240"/>
<text text-anchor="start" x="195" y="-246.2" font-family="Helvetica,sans-Serif" font-size="11.00" fill="#000000">&lt; 3</text>
<polygon fill="#ffffff" stroke="transparent" points="278,-240 278,-258 376,-258 376,-240 278,-240"/>
<polygon fill="none" stroke="#000000" points="278,-240 278,-258 376,-258 376,-240 278,-240"/>
<text text-anchor="start" x="313" y="-246.2" font-family="Helvetica,sans-Serif" font-size="11.00" fill="#000000">11,152 rows</text>
<polygon fill="#ffffff" stroke="transparent" points="376,-240 376,-258 430,-258 430,-240 376,-240"/>
<polygon fill="none" stroke="#000000" points="376,-240 376,-258 430,-258 430,-240 376,-240"/>
<text text-anchor="start" x="411" y="-246.2" font-family="Helvetica,sans-Serif" font-size="11.00" fill="#000000">1 &gt;</text>
</a>
</g>
</g>
<!-- manuscript_to_text_fragment_owner&#45;&gt;manuscript_to_text_fragment -->
<g id="edge4" class="edge">
<title>manuscript_to_text_fragment_owner:w&#45;&gt;manuscript_to_text_fragment:e</title>
<path fill="none" stroke="#000000" d="M467.1656,-211.3969C433.0737,-231.5935 484.9606,-335 430,-335"/>
<polygon fill="#000000" stroke="#000000" points="473.7156,-209.8448 482.3302,-211.503 477.6078,-208.9224 481.5,-208 481.5,-208 481.5,-208 477.6078,-208.9224 480.6698,-204.497 473.7156,-209.8448 473.7156,-209.8448"/>
<ellipse fill="none" stroke="#000000" cx="470.6018" cy="-210.5827" rx="3.2" ry="3.2"/>
</g>
</g>
</svg>
