<?xml version="1.0" encoding="UTF-8" standalone="no"?>
<!DOCTYPE svg PUBLIC "-//W3C//DTD SVG 1.1//EN"
 "http://www.w3.org/Graphics/SVG/1.1/DTD/svg11.dtd">
<!-- Generated by graphviz version 2.40.1 (20161225.0304)
 -->
<!-- Title: oneDegreeRelationshipsDiagram Pages: 1 -->
<svg width="513pt" height="963pt"
 viewBox="0.00 0.00 513.00 963.00" xmlns="http://www.w3.org/2000/svg" xmlns:xlink="http://www.w3.org/1999/xlink">
<g id="graph0" class="graph" transform="scale(1 1) rotate(0) translate(4 959)">
<title>oneDegreeRelationshipsDiagram</title>
<polygon fill="#ffffff" stroke="transparent" points="-4,4 -4,-959 509,-959 509,4 -4,4"/>
<text text-anchor="middle" x="71.5" y="-7.2" font-family="Helvetica,sans-Serif" font-size="11.00" fill="#000000">Generated by SchemaSpy</text>
<!-- edition -->
<g id="node1" class="node">
<title>edition</title>
<g id="a_node1"><a xlink:href="../../tables/edition.html" xlink:title="edition" target="_top">
<polygon fill="#ffffff" stroke="transparent" points="310.5,-849 310.5,-951 445.5,-951 445.5,-849 310.5,-849"/>
<polygon fill="#f5f5f5" stroke="transparent" points="311,-929 311,-951 446,-951 446,-929 311,-929"/>
<polygon fill="none" stroke="#000000" points="311,-929 311,-951 446,-951 446,-929 311,-929"/>
<text text-anchor="start" x="316" y="-938.2" font-family="Helvetica,sans-Serif" font-weight="bold" font-size="11.00" fill="#000000">edition</text>
<text text-anchor="start" x="411" y="-937.2" font-family="Helvetica,sans-Serif" font-size="11.00" fill="#000000">[table]</text>
<polygon fill="none" stroke="#000000" points="311,-907 311,-929 446,-929 446,-907 311,-907"/>
<image xlink:href="../../images/primaryKeys.png" width="11px" height="12px" preserveAspectRatio="xMinYMin meet" x="316" y="-924"/>
<text text-anchor="start" x="331" y="-915.2" font-family="Helvetica,sans-Serif" font-size="11.00" fill="#000000">edition_id</text>
<polygon fill="#ffffff" stroke="transparent" points="311,-885 311,-907 446,-907 446,-885 311,-885"/>
<polygon fill="none" stroke="#000000" points="311,-885 311,-907 446,-907 446,-885 311,-885"/>
<image xlink:href="../../images/foreignKeys.png" width="11px" height="12px" preserveAspectRatio="xMinYMin meet" x="316" y="-902"/>
<text text-anchor="start" x="331" y="-893.2" font-family="Helvetica,sans-Serif" font-size="11.00" fill="#000000">manuscript_id</text>
<polygon fill="none" stroke="#000000" points="311,-867 311,-885 446,-885 446,-867 311,-867"/>
<text text-anchor="start" x="314" y="-873.2" font-family="Helvetica,sans-Serif" font-size="11.00" fill="#000000">...</text>
<polygon fill="#ffffff" stroke="transparent" points="311,-849 311,-867 345,-867 345,-849 311,-849"/>
<polygon fill="none" stroke="#000000" points="311,-849 311,-867 345,-867 345,-849 311,-849"/>
<text text-anchor="start" x="314" y="-855.2" font-family="Helvetica,sans-Serif" font-size="11.00" fill="#000000">&lt; 1</text>
<polygon fill="#ffffff" stroke="transparent" points="345,-849 345,-867 411,-867 411,-849 345,-849"/>
<polygon fill="none" stroke="#000000" points="345,-849 345,-867 411,-867 411,-849 345,-849"/>
<text text-anchor="start" x="354" y="-855.2" font-family="Helvetica,sans-Serif" font-size="11.00" fill="#000000">1,645 rows</text>
<polygon fill="#ffffff" stroke="transparent" points="411,-849 411,-867 446,-867 446,-849 411,-849"/>
<polygon fill="none" stroke="#000000" points="411,-849 411,-867 446,-867 446,-849 411,-849"/>
<text text-anchor="start" x="421" y="-855.2" font-family="Helvetica,sans-Serif" font-size="11.00" fill="#000000">32 &gt;</text>
</a>
</g>
</g>
<!-- manuscript -->
<g id="node2" class="node">
<title>manuscript</title>
<g id="a_node2"><a xlink:href="../../tables/manuscript.html" xlink:title="manuscript" target="_top">
<polygon fill="#ffffff" stroke="transparent" points="8,-487 8,-553 210,-553 210,-487 8,-487"/>
<polygon fill="#f5f5f5" stroke="transparent" points="10,-529 10,-551 208,-551 208,-529 10,-529"/>
<polygon fill="none" stroke="#000000" points="10,-529 10,-551 208,-551 208,-529 10,-529"/>
<text text-anchor="start" x="15" y="-538.2" font-family="Helvetica,sans-Serif" font-weight="bold" font-size="11.00" fill="#000000">manuscript</text>
<text text-anchor="start" x="173" y="-537.2" font-family="Helvetica,sans-Serif" font-size="11.00" fill="#000000">[table]</text>
<polygon fill="none" stroke="#000000" points="10,-507 10,-529 126,-529 126,-507 10,-507"/>
<image xlink:href="../../images/primaryKeys.png" width="11px" height="12px" preserveAspectRatio="xMinYMin meet" x="15" y="-524"/>
<text text-anchor="start" x="30" y="-515.2" font-family="Helvetica,sans-Serif" font-size="11.00" fill="#000000">manuscript_id</text>
<polygon fill="none" stroke="#000000" points="126,-507 126,-529 208,-529 208,-507 126,-507"/>
<text text-anchor="start" x="129" y="-515.2" font-family="Helvetica,sans-Serif" font-size="11.00" fill="#000000">int unsigned[10]</text>
<polygon fill="#ffffff" stroke="transparent" points="10,-489 10,-507 49,-507 49,-489 10,-489"/>
<polygon fill="none" stroke="#000000" points="10,-489 10,-507 49,-507 49,-489 10,-489"/>
<text text-anchor="start" x="13" y="-495.2" font-family="Helvetica,sans-Serif" font-size="11.00" fill="#000000">&lt; 0</text>
<polygon fill="#ffffff" stroke="transparent" points="49,-489 49,-507 126,-507 126,-489 49,-489"/>
<polygon fill="none" stroke="#000000" points="49,-489 49,-507 126,-507 126,-489 49,-489"/>
<text text-anchor="start" x="69" y="-495.2" font-family="Helvetica,sans-Serif" font-size="11.00" fill="#000000">1,645 rows</text>
<polygon fill="#ffffff" stroke="transparent" points="126,-489 126,-507 208,-507 208,-489 126,-489"/>
<polygon fill="none" stroke="#000000" points="126,-489 126,-507 208,-507 208,-489 126,-489"/>
<text text-anchor="start" x="189" y="-495.2" font-family="Helvetica,sans-Serif" font-size="11.00" fill="#000000">5 &gt;</text>
<polygon fill="none" stroke="#000000" stroke-width="2" points="9,-488 9,-552 209,-552 209,-488 9,-488"/>
</a>
</g>
</g>
<!-- edition&#45;&gt;manuscript -->
<g id="edge1" class="edge">
<title>edition:w&#45;&gt;manuscript:e</title>
<path fill="none" stroke="#000000" d="M296.4903,-894.449C272.0656,-888.6156 265.2438,-866.8957 251,-839 218.271,-774.9019 279.9705,-518 208,-518"/>
<polygon fill="#000000" stroke="#000000" points="303.0453,-895.1497 310.6173,-899.5796 307.0227,-895.5748 311,-896 311,-896 311,-896 307.0227,-895.5748 311.3827,-892.4204 303.0453,-895.1497 303.0453,-895.1497"/>
<ellipse fill="none" stroke="#000000" cx="299.8634" cy="-894.8095" rx="3.2" ry="3.2"/>
</g>
<!-- iaa_edition_catalog -->
<g id="node3" class="node">
<title>iaa_edition_catalog</title>
<g id="a_node3"><a xlink:href="../../tables/iaa_edition_catalog.html" xlink:title="iaa_edition_catalog" target="_top">
<polygon fill="#ffffff" stroke="transparent" points="293.5,-594 293.5,-828 462.5,-828 462.5,-594 293.5,-594"/>
<polygon fill="#f5f5f5" stroke="transparent" points="294,-806 294,-828 463,-828 463,-806 294,-806"/>
<polygon fill="none" stroke="#000000" points="294,-806 294,-828 463,-828 463,-806 294,-806"/>
<text text-anchor="start" x="299" y="-815.2" font-family="Helvetica,sans-Serif" font-weight="bold" font-size="11.00" fill="#000000">iaa_edition_catalog</text>
<text text-anchor="start" x="428" y="-814.2" font-family="Helvetica,sans-Serif" font-size="11.00" fill="#000000">[table]</text>
<polygon fill="none" stroke="#000000" points="294,-784 294,-806 463,-806 463,-784 294,-784"/>
<image xlink:href="../../images/primaryKeys.png" width="11px" height="12px" preserveAspectRatio="xMinYMin meet" x="299" y="-801"/>
<text text-anchor="start" x="314" y="-792.2" font-family="Helvetica,sans-Serif" font-size="11.00" fill="#000000">iaa_edition_catalog_id</text>
<polygon fill="#ffffff" stroke="transparent" points="294,-762 294,-784 463,-784 463,-762 294,-762"/>
<polygon fill="none" stroke="#000000" points="294,-762 294,-784 463,-784 463,-762 294,-762"/>
<text text-anchor="start" x="314" y="-770.2" font-family="Helvetica,sans-Serif" font-size="11.00" fill="#000000">manuscript</text>
<polygon fill="#ffffff" stroke="transparent" points="294,-740 294,-762 463,-762 463,-740 294,-740"/>
<polygon fill="none" stroke="#000000" points="294,-740 294,-762 463,-762 463,-740 294,-740"/>
<text text-anchor="start" x="314" y="-748.2" font-family="Helvetica,sans-Serif" font-size="11.00" fill="#000000">edition_name</text>
<polygon fill="#ffffff" stroke="transparent" points="294,-718 294,-740 463,-740 463,-718 294,-718"/>
<polygon fill="none" stroke="#000000" points="294,-718 294,-740 463,-740 463,-718 294,-718"/>
<text text-anchor="start" x="314" y="-726.2" font-family="Helvetica,sans-Serif" font-size="11.00" fill="#000000">edition_volume</text>
<polygon fill="#ffffff" stroke="transparent" points="294,-696 294,-718 463,-718 463,-696 294,-696"/>
<polygon fill="none" stroke="#000000" points="294,-696 294,-718 463,-718 463,-696 294,-696"/>
<text text-anchor="start" x="314" y="-704.2" font-family="Helvetica,sans-Serif" font-size="11.00" fill="#000000">edition_location_1</text>
<polygon fill="#ffffff" stroke="transparent" points="294,-674 294,-696 463,-696 463,-674 294,-674"/>
<polygon fill="none" stroke="#000000" points="294,-674 294,-696 463,-696 463,-674 294,-674"/>
<text text-anchor="start" x="314" y="-682.2" font-family="Helvetica,sans-Serif" font-size="11.00" fill="#000000">edition_location_2</text>
<polygon fill="#ffffff" stroke="transparent" points="294,-652 294,-674 463,-674 463,-652 294,-652"/>
<polygon fill="none" stroke="#000000" points="294,-652 294,-674 463,-674 463,-652 294,-652"/>
<text text-anchor="start" x="314" y="-660.2" font-family="Helvetica,sans-Serif" font-size="11.00" fill="#000000">edition_side</text>
<polygon fill="#ffffff" stroke="transparent" points="294,-630 294,-652 463,-652 463,-630 294,-630"/>
<polygon fill="none" stroke="#000000" points="294,-630 294,-652 463,-652 463,-630 294,-630"/>
<image xlink:href="../../images/foreignKeys.png" width="11px" height="12px" preserveAspectRatio="xMinYMin meet" x="299" y="-647"/>
<text text-anchor="start" x="314" y="-638.2" font-family="Helvetica,sans-Serif" font-size="11.00" fill="#000000">manuscript_id</text>
<polygon fill="none" stroke="#000000" points="294,-612 294,-630 463,-630 463,-612 294,-612"/>
<text text-anchor="start" x="297" y="-618.2" font-family="Helvetica,sans-Serif" font-size="11.00" fill="#000000">...</text>
<polygon fill="#ffffff" stroke="transparent" points="294,-594 294,-612 345,-612 345,-594 294,-594"/>
<polygon fill="none" stroke="#000000" points="294,-594 294,-612 345,-612 345,-594 294,-594"/>
<text text-anchor="start" x="297" y="-600.2" font-family="Helvetica,sans-Serif" font-size="11.00" fill="#000000">&lt; 1</text>
<polygon fill="#ffffff" stroke="transparent" points="345,-594 345,-612 426,-612 426,-594 345,-594"/>
<polygon fill="none" stroke="#000000" points="345,-594 345,-612 426,-612 426,-594 345,-594"/>
<text text-anchor="start" x="363" y="-600.2" font-family="Helvetica,sans-Serif" font-size="11.00" fill="#000000">37,640 rows</text>
<polygon fill="#ffffff" stroke="transparent" points="426,-594 426,-612 463,-612 463,-594 426,-594"/>
<polygon fill="none" stroke="#000000" points="426,-594 426,-612 463,-612 463,-594 426,-594"/>
<text text-anchor="start" x="444" y="-600.2" font-family="Helvetica,sans-Serif" font-size="11.00" fill="#000000">3 &gt;</text>
</a>
</g>
</g>
<!-- iaa_edition_catalog&#45;&gt;manuscript -->
<g id="edge2" class="edge">
<title>iaa_edition_catalog:w&#45;&gt;manuscript:e</title>
<path fill="none" stroke="#000000" d="M279.8099,-637.9657C263.9914,-629.5435 265.81,-605.1057 251,-584 230.8904,-555.3419 243.0097,-518 208,-518"/>
<polygon fill="#000000" stroke="#000000" points="286.1768,-639.3271 293.2472,-644.5204 290.0884,-640.1636 294,-641 294,-641 294,-641 290.0884,-640.1636 294.7528,-637.4796 286.1768,-639.3271 286.1768,-639.3271"/>
<ellipse fill="none" stroke="#000000" cx="283.0476" cy="-638.658" rx="3.2" ry="3.2"/>
</g>
<!-- manuscript_data -->
<g id="node4" class="node">
<title>manuscript_data</title>
<g id="a_node4"><a xlink:href="../../tables/manuscript_data.html" xlink:title="manuscript_data" target="_top">
<polygon fill="#ffffff" stroke="transparent" points="302,-445 302,-573 454,-573 454,-445 302,-445"/>
<polygon fill="#f5f5f5" stroke="transparent" points="302,-551 302,-573 454,-573 454,-551 302,-551"/>
<polygon fill="none" stroke="#000000" points="302,-551 302,-573 454,-573 454,-551 302,-551"/>
<text text-anchor="start" x="307" y="-560.2" font-family="Helvetica,sans-Serif" font-weight="bold" font-size="11.00" fill="#000000">manuscript_data</text>
<text text-anchor="start" x="419" y="-559.2" font-family="Helvetica,sans-Serif" font-size="11.00" fill="#000000">[table]</text>
<polygon fill="none" stroke="#000000" points="302,-529 302,-551 454,-551 454,-529 302,-529"/>
<image xlink:href="../../images/primaryKeys.png" width="11px" height="12px" preserveAspectRatio="xMinYMin meet" x="307" y="-546"/>
<text text-anchor="start" x="322" y="-537.2" font-family="Helvetica,sans-Serif" font-size="11.00" fill="#000000">manuscript_data_id</text>
<polygon fill="#ffffff" stroke="transparent" points="302,-507 302,-529 454,-529 454,-507 302,-507"/>
<polygon fill="none" stroke="#000000" points="302,-507 302,-529 454,-529 454,-507 302,-507"/>
<image xlink:href="../../images/foreignKeys.png" width="11px" height="12px" preserveAspectRatio="xMinYMin meet" x="307" y="-524"/>
<text text-anchor="start" x="322" y="-515.2" font-family="Helvetica,sans-Serif" font-size="11.00" fill="#000000">manuscript_id</text>
<polygon fill="#ffffff" stroke="transparent" points="302,-485 302,-507 454,-507 454,-485 302,-485"/>
<polygon fill="none" stroke="#000000" points="302,-485 302,-507 454,-507 454,-485 302,-485"/>
<text text-anchor="start" x="322" y="-493.2" font-family="Helvetica,sans-Serif" font-size="11.00" fill="#000000">name</text>
<polygon fill="#ffffff" stroke="transparent" points="302,-463 302,-485 454,-485 454,-463 302,-463"/>
<polygon fill="none" stroke="#000000" points="302,-463 302,-485 454,-485 454,-463 302,-463"/>
<image xlink:href="../../images/foreignKeys.png" width="11px" height="12px" preserveAspectRatio="xMinYMin meet" x="307" y="-480"/>
<text text-anchor="start" x="322" y="-471.2" font-family="Helvetica,sans-Serif" font-size="11.00" fill="#000000">creator_id</text>
<polygon fill="#ffffff" stroke="transparent" points="302,-445 302,-463 348,-463 348,-445 302,-445"/>
<polygon fill="none" stroke="#000000" points="302,-445 302,-463 348,-463 348,-445 302,-445"/>
<text text-anchor="start" x="305" y="-451.2" font-family="Helvetica,sans-Serif" font-size="11.00" fill="#000000">&lt; 2</text>
<polygon fill="#ffffff" stroke="transparent" points="348,-445 348,-463 420,-463 420,-445 348,-445"/>
<polygon fill="none" stroke="#000000" points="348,-445 348,-463 420,-463 420,-445 348,-445"/>
<text text-anchor="start" x="363" y="-451.2" font-family="Helvetica,sans-Serif" font-size="11.00" fill="#000000">1,371 rows</text>
<polygon fill="#ffffff" stroke="transparent" points="420,-445 420,-463 454,-463 454,-445 420,-445"/>
<polygon fill="none" stroke="#000000" points="420,-445 420,-463 454,-463 454,-445 420,-445"/>
<text text-anchor="start" x="435" y="-451.2" font-family="Helvetica,sans-Serif" font-size="11.00" fill="#000000">1 &gt;</text>
</a>
</g>
</g>
<!-- manuscript_data&#45;&gt;manuscript -->
<g id="edge3" class="edge">
<title>manuscript_data:w&#45;&gt;manuscript:e</title>
<path fill="none" stroke="#000000" d="M287.2715,-518C257.0089,-518 244.3924,-518 208,-518"/>
<polygon fill="#000000" stroke="#000000" points="294,-518.0001 302,-521.6 298,-518 302,-518 302,-518 302,-518 298,-518 302,-514.4 294,-518.0001 294,-518.0001"/>
<ellipse fill="none" stroke="#000000" cx="290.8" cy="-518.0001" rx="3.2" ry="3.2"/>
</g>
<!-- manuscript_metrics -->
<g id="node5" class="node">
<title>manuscript_metrics</title>
<g id="a_node5"><a xlink:href="../../tables/manuscript_metrics.html" xlink:title="manuscript_metrics" target="_top">
<polygon fill="#ffffff" stroke="transparent" points="292,-186 292,-424 464,-424 464,-186 292,-186"/>
<polygon fill="#f5f5f5" stroke="transparent" points="292,-402 292,-424 464,-424 464,-402 292,-402"/>
<polygon fill="none" stroke="#000000" points="292,-402 292,-424 464,-424 464,-402 292,-402"/>
<text text-anchor="start" x="297" y="-411.2" font-family="Helvetica,sans-Serif" font-weight="bold" font-size="11.00" fill="#000000">manuscript_metrics</text>
<text text-anchor="start" x="429" y="-410.2" font-family="Helvetica,sans-Serif" font-size="11.00" fill="#000000">[table]</text>
<polygon fill="none" stroke="#000000" points="292,-380 292,-402 464,-402 464,-380 292,-380"/>
<image xlink:href="../../images/primaryKeys.png" width="11px" height="12px" preserveAspectRatio="xMinYMin meet" x="297" y="-397"/>
<text text-anchor="start" x="312" y="-388.2" font-family="Helvetica,sans-Serif" font-size="11.00" fill="#000000">manuscript_metrics_id</text>
<polygon fill="#ffffff" stroke="transparent" points="292,-358 292,-380 464,-380 464,-358 292,-358"/>
<polygon fill="none" stroke="#000000" points="292,-358 292,-380 464,-380 464,-358 292,-358"/>
<image xlink:href="../../images/foreignKeys.png" width="11px" height="12px" preserveAspectRatio="xMinYMin meet" x="297" y="-375"/>
<text text-anchor="start" x="312" y="-366.2" font-family="Helvetica,sans-Serif" font-size="11.00" fill="#000000">manuscript_id</text>
<polygon fill="#ffffff" stroke="transparent" points="292,-336 292,-358 464,-358 464,-336 292,-336"/>
<polygon fill="none" stroke="#000000" points="292,-336 292,-358 464,-358 464,-336 292,-336"/>
<text text-anchor="start" x="312" y="-344.2" font-family="Helvetica,sans-Serif" font-size="11.00" fill="#000000">x_origin</text>
<polygon fill="#ffffff" stroke="transparent" points="292,-314 292,-336 464,-336 464,-314 292,-314"/>
<polygon fill="none" stroke="#000000" points="292,-314 292,-336 464,-336 464,-314 292,-314"/>
<text text-anchor="start" x="312" y="-322.2" font-family="Helvetica,sans-Serif" font-size="11.00" fill="#000000">y_origin</text>
<polygon fill="#ffffff" stroke="transparent" points="292,-292 292,-314 464,-314 464,-292 292,-292"/>
<polygon fill="none" stroke="#000000" points="292,-292 292,-314 464,-314 464,-292 292,-292"/>
<text text-anchor="start" x="312" y="-300.2" font-family="Helvetica,sans-Serif" font-size="11.00" fill="#000000">width</text>
<polygon fill="#ffffff" stroke="transparent" points="292,-270 292,-292 464,-292 464,-270 292,-270"/>
<polygon fill="none" stroke="#000000" points="292,-270 292,-292 464,-292 464,-270 292,-270"/>
<text text-anchor="start" x="312" y="-278.2" font-family="Helvetica,sans-Serif" font-size="11.00" fill="#000000">height</text>
<polygon fill="#ffffff" stroke="transparent" points="292,-248 292,-270 464,-270 464,-248 292,-248"/>
<polygon fill="none" stroke="#000000" points="292,-248 292,-270 464,-270 464,-248 292,-248"/>
<text text-anchor="start" x="312" y="-256.2" font-family="Helvetica,sans-Serif" font-size="11.00" fill="#000000">pixels_per_inch</text>
<polygon fill="#ffffff" stroke="transparent" points="292,-226 292,-248 464,-248 464,-226 292,-226"/>
<polygon fill="none" stroke="#000000" points="292,-226 292,-248 464,-248 464,-226 292,-226"/>
<image xlink:href="../../images/foreignKeys.png" width="11px" height="12px" preserveAspectRatio="xMinYMin meet" x="297" y="-243"/>
<text text-anchor="start" x="312" y="-234.2" font-family="Helvetica,sans-Serif" font-size="11.00" fill="#000000">scribal_font_id</text>
<polygon fill="#ffffff" stroke="transparent" points="292,-204 292,-226 464,-226 464,-204 292,-204"/>
<polygon fill="none" stroke="#000000" points="292,-204 292,-226 464,-226 464,-204 292,-204"/>
<image xlink:href="../../images/foreignKeys.png" width="11px" height="12px" preserveAspectRatio="xMinYMin meet" x="297" y="-221"/>
<text text-anchor="start" x="312" y="-212.2" font-family="Helvetica,sans-Serif" font-size="11.00" fill="#000000">creator_id</text>
<polygon fill="#ffffff" stroke="transparent" points="292,-186 292,-204 348,-204 348,-186 292,-186"/>
<polygon fill="none" stroke="#000000" points="292,-186 292,-204 348,-204 348,-186 292,-186"/>
<text text-anchor="start" x="295" y="-192.2" font-family="Helvetica,sans-Serif" font-size="11.00" fill="#000000">&lt; 3</text>
<polygon fill="#ffffff" stroke="transparent" points="348,-186 348,-204 425,-204 425,-186 348,-186"/>
<polygon fill="none" stroke="#000000" points="348,-186 348,-204 425,-204 425,-186 348,-186"/>
<text text-anchor="start" x="368" y="-192.2" font-family="Helvetica,sans-Serif" font-size="11.00" fill="#000000">1,371 rows</text>
<polygon fill="#ffffff" stroke="transparent" points="425,-186 425,-204 464,-204 464,-186 425,-186"/>
<polygon fill="none" stroke="#000000" points="425,-186 425,-204 464,-204 464,-186 425,-186"/>
<text text-anchor="start" x="445" y="-192.2" font-family="Helvetica,sans-Serif" font-size="11.00" fill="#000000">1 &gt;</text>
</a>
</g>
</g>
<!-- manuscript_metrics&#45;&gt;manuscript -->
<g id="edge4" class="edge">
<title>manuscript_metrics:w&#45;&gt;manuscript:e</title>
<path fill="none" stroke="#000000" d="M277.6672,-371.2219C225.061,-389.757 278.5271,-518 208,-518"/>
<polygon fill="#000000" stroke="#000000" points="284.0944,-370.2256 292.5515,-372.5575 288.0472,-369.6128 292,-369 292,-369 292,-369 288.0472,-369.6128 291.4485,-365.4425 284.0944,-370.2256 284.0944,-370.2256"/>
<ellipse fill="none" stroke="#000000" cx="280.9322" cy="-370.7158" rx="3.2" ry="3.2"/>
</g>
<!-- manuscript_to_text_fragment -->
<g id="node6" class="node">
<title>manuscript_to_text_fragment</title>
<g id="a_node6"><a xlink:href="../../tables/manuscript_to_text_fragment.html" xlink:title="manuscript_to_text_fragment" target="_top">
<polygon fill="#ffffff" stroke="transparent" points="259,-37 259,-165 497,-165 497,-37 259,-37"/>
<polygon fill="#f5f5f5" stroke="transparent" points="259,-143 259,-165 497,-165 497,-143 259,-143"/>
<polygon fill="none" stroke="#000000" points="259,-143 259,-165 497,-165 497,-143 259,-143"/>
<text text-anchor="start" x="264" y="-152.2" font-family="Helvetica,sans-Serif" font-weight="bold" font-size="11.00" fill="#000000">manuscript_to_text_fragment</text>
<text text-anchor="start" x="462" y="-151.2" font-family="Helvetica,sans-Serif" font-size="11.00" fill="#000000">[table]</text>
<polygon fill="none" stroke="#000000" points="259,-121 259,-143 497,-143 497,-121 259,-121"/>
<image xlink:href="../../images/primaryKeys.png" width="11px" height="12px" preserveAspectRatio="xMinYMin meet" x="264" y="-138"/>
<text text-anchor="start" x="279" y="-129.2" font-family="Helvetica,sans-Serif" font-size="11.00" fill="#000000">manuscript_to_text_fragment_id</text>
<polygon fill="#ffffff" stroke="transparent" points="259,-99 259,-121 497,-121 497,-99 259,-99"/>
<polygon fill="none" stroke="#000000" points="259,-99 259,-121 497,-121 497,-99 259,-99"/>
<image xlink:href="../../images/foreignKeys.png" width="11px" height="12px" preserveAspectRatio="xMinYMin meet" x="264" y="-116"/>
<text text-anchor="start" x="279" y="-107.2" font-family="Helvetica,sans-Serif" font-size="11.00" fill="#000000">manuscript_id</text>
<polygon fill="#ffffff" stroke="transparent" points="259,-77 259,-99 497,-99 497,-77 259,-77"/>
<polygon fill="none" stroke="#000000" points="259,-77 259,-99 497,-99 497,-77 259,-77"/>
<image xlink:href="../../images/foreignKeys.png" width="11px" height="12px" preserveAspectRatio="xMinYMin meet" x="264" y="-94"/>
<text text-anchor="start" x="279" y="-85.2" font-family="Helvetica,sans-Serif" font-size="11.00" fill="#000000">text_fragment_id</text>
<polygon fill="#ffffff" stroke="transparent" points="259,-55 259,-77 497,-77 497,-55 259,-55"/>
<polygon fill="none" stroke="#000000" points="259,-55 259,-77 497,-77 497,-55 259,-55"/>
<image xlink:href="../../images/foreignKeys.png" width="11px" height="12px" preserveAspectRatio="xMinYMin meet" x="264" y="-72"/>
<text text-anchor="start" x="279" y="-63.2" font-family="Helvetica,sans-Serif" font-size="11.00" fill="#000000">creator_id</text>
<polygon fill="#ffffff" stroke="transparent" points="259,-37 259,-55 345,-55 345,-37 259,-37"/>
<polygon fill="none" stroke="#000000" points="259,-37 259,-55 345,-55 345,-37 259,-37"/>
<text text-anchor="start" x="262" y="-43.2" font-family="Helvetica,sans-Serif" font-size="11.00" fill="#000000">&lt; 3</text>
<polygon fill="#ffffff" stroke="transparent" points="345,-37 345,-55 443,-55 443,-37 345,-37"/>
<polygon fill="none" stroke="#000000" points="345,-37 345,-55 443,-55 443,-37 345,-37"/>
<text text-anchor="start" x="380" y="-43.2" font-family="Helvetica,sans-Serif" font-size="11.00" fill="#000000">11,152 rows</text>
<polygon fill="#ffffff" stroke="transparent" points="443,-37 443,-55 497,-55 497,-37 443,-37"/>
<polygon fill="none" stroke="#000000" points="443,-37 443,-55 497,-55 497,-37 443,-37"/>
<text text-anchor="start" x="478" y="-43.2" font-family="Helvetica,sans-Serif" font-size="11.00" fill="#000000">1 &gt;</text>
</a>
</g>
</g>
<!-- manuscript_to_text_fragment&#45;&gt;manuscript -->
<g id="edge5" class="edge">
<title>manuscript_to_text_fragment:w&#45;&gt;manuscript:e</title>
<path fill="none" stroke="#000000" d="M245.1467,-114.0381C182.3005,-156.4117 294.0184,-518 208,-518"/>
<polygon fill="#000000" stroke="#000000" points="251.3196,-112.2388 260.0075,-113.4562 255.1598,-111.1194 259,-110 259,-110 259,-110 255.1598,-111.1194 257.9925,-106.5438 251.3196,-112.2388 251.3196,-112.2388"/>
<ellipse fill="none" stroke="#000000" cx="248.2475" cy="-113.1343" rx="3.2" ry="3.2"/>
</g>
</g>
</svg>
