<?xml version="1.0" encoding="UTF-8" standalone="no"?>
<!DOCTYPE svg PUBLIC "-//W3C//DTD SVG 1.1//EN"
 "http://www.w3.org/Graphics/SVG/1.1/DTD/svg11.dtd">
<!-- Generated by graphviz version 2.43.0 (0)
 -->
<!-- Title: oneDegreeRelationshipsDiagram Pages: 1 -->
<svg width="693pt" height="159pt"
 viewBox="0.00 0.00 693.00 159.00" xmlns="http://www.w3.org/2000/svg" xmlns:xlink="http://www.w3.org/1999/xlink">
<g id="graph0" class="graph" transform="scale(1 1) rotate(0) translate(4 155)">
<title>oneDegreeRelationshipsDiagram</title>
<polygon fill="#ffffff" stroke="transparent" points="-4,4 -4,-155 689,-155 689,4 -4,4"/>
<text text-anchor="middle" x="79.5" y="-7.2" font-family="Helvetica,sans-Serif" font-size="11.00">Generated by SchemaSpy</text>
<!-- manuscript_data -->
<g id="node1" class="node">
<title>manuscript_data</title>
<g id="a_node1"><a xlink:href="../../tables/manuscript_data.html" xlink:title="manuscript_data" target="_top">
<polygon fill="#ffffff" stroke="transparent" points="178,-37 178,-147 431,-147 431,-37 178,-37"/>
<polygon fill="#f5f5f5" stroke="transparent" points="180.5,-123 180.5,-145 429.5,-145 429.5,-123 180.5,-123"/>
<polygon fill="none" stroke="black" points="180.5,-123 180.5,-145 429.5,-145 429.5,-123 180.5,-123"/>
<text text-anchor="start" x="185.5" y="-132.2" font-family="Helvetica,sans-Serif" font-weight="bold" font-size="11.00">manuscript_data</text>
<text text-anchor="start" x="387.5" y="-131.2" font-family="Helvetica,sans-Serif" font-size="11.00">[table]</text>
<polygon fill="none" stroke="black" points="180.5,-101 180.5,-123 332.5,-123 332.5,-101 180.5,-101"/>
<image xlink:href="../../images/primaryKeys.png" width="11px" height="12px" preserveAspectRatio="xMinYMin meet" x="185.5" y="-118"/>
<text text-anchor="start" x="200.5" y="-109.2" font-family="Helvetica,sans-Serif" font-size="11.00">manuscript_data_id</text>
<polygon fill="none" stroke="black" points="332.5,-101 332.5,-123 429.5,-123 429.5,-101 332.5,-101"/>
<text text-anchor="start" x="335.5" y="-109.2" font-family="Helvetica,sans-Serif" font-size="11.00">int unsigned[10]</text>
<polygon fill="#ffffff" stroke="transparent" points="180.5,-79 180.5,-101 332.5,-101 332.5,-79 180.5,-79"/>
<polygon fill="none" stroke="black" points="180.5,-79 180.5,-101 332.5,-101 332.5,-79 180.5,-79"/>
<image xlink:href="../../images/foreignKeys.png" width="11px" height="12px" preserveAspectRatio="xMinYMin meet" x="185.5" y="-96"/>
<text text-anchor="start" x="200.5" y="-87.2" font-family="Helvetica,sans-Serif" font-size="11.00">manuscript_id</text>
<polygon fill="none" stroke="black" points="332.5,-79 332.5,-101 429.5,-101 429.5,-79 332.5,-79"/>
<text text-anchor="start" x="335.5" y="-87.2" font-family="Helvetica,sans-Serif" font-size="11.00">int unsigned[10]</text>
<polygon fill="#ffffff" stroke="transparent" points="180.5,-57 180.5,-79 332.5,-79 332.5,-57 180.5,-57"/>
<polygon fill="none" stroke="black" points="180.5,-57 180.5,-79 332.5,-79 332.5,-57 180.5,-57"/>
<text text-anchor="start" x="200.5" y="-65.2" font-family="Helvetica,sans-Serif" font-size="11.00">name</text>
<polygon fill="none" stroke="black" points="332.5,-57 332.5,-79 429.5,-79 429.5,-57 332.5,-57"/>
<text text-anchor="start" x="335.5" y="-65.2" font-family="Helvetica,sans-Serif" font-size="11.00">varchar[255]</text>
<polygon fill="#ffffff" stroke="transparent" points="180.5,-39 180.5,-57 235.5,-57 235.5,-39 180.5,-39"/>
<polygon fill="none" stroke="black" points="180.5,-39 180.5,-57 235.5,-57 235.5,-39 180.5,-39"/>
<text text-anchor="start" x="183.5" y="-45.2" font-family="Helvetica,sans-Serif" font-size="11.00">&lt; 1</text>
<polygon fill="#ffffff" stroke="transparent" points="235.5,-39 235.5,-57 332.5,-57 332.5,-39 235.5,-39"/>
<polygon fill="none" stroke="black" points="235.5,-39 235.5,-57 332.5,-57 332.5,-39 235.5,-39"/>
<text text-anchor="start" x="268.5" y="-45.2" font-family="Helvetica,sans-Serif" font-size="11.00">1,371 rows</text>
<polygon fill="#ffffff" stroke="transparent" points="332.5,-39 332.5,-57 429.5,-57 429.5,-39 332.5,-39"/>
<polygon fill="none" stroke="black" points="332.5,-39 332.5,-57 429.5,-57 429.5,-39 332.5,-39"/>
<text text-anchor="start" x="406.5" y="-45.2" font-family="Helvetica,sans-Serif" font-size="11.00">1 &gt;</text>
<polygon fill="none" stroke="black" stroke-width="2" points="179,-38 179,-146 430,-146 430,-38 179,-38"/>
</a>
</g>
</g>
<!-- manuscript -->
<g id="node2" class="node">
<title>manuscript</title>
<g id="a_node2"><a xlink:href="../../tables/manuscript.html" xlink:title="manuscript" target="_top">
<polygon fill="#ffffff" stroke="transparent" points="8,-61 8,-123 129,-123 129,-61 8,-61"/>
<polygon fill="#f5f5f5" stroke="transparent" points="8.5,-101 8.5,-123 129.5,-123 129.5,-101 8.5,-101"/>
<polygon fill="none" stroke="black" points="8.5,-101 8.5,-123 129.5,-123 129.5,-101 8.5,-101"/>
<text text-anchor="start" x="13.5" y="-110.2" font-family="Helvetica,sans-Serif" font-weight="bold" font-size="11.00">manuscript</text>
<text text-anchor="start" x="87.5" y="-109.2" font-family="Helvetica,sans-Serif" font-size="11.00">[table]</text>
<polygon fill="none" stroke="black" points="8.5,-79 8.5,-101 129.5,-101 129.5,-79 8.5,-79"/>
<image xlink:href="../../images/primaryKeys.png" width="11px" height="12px" preserveAspectRatio="xMinYMin meet" x="13.5" y="-96"/>
<text text-anchor="start" x="31.5" y="-87.2" font-family="Helvetica,sans-Serif" font-size="11.00">manuscript_id</text>
<polygon fill="#ffffff" stroke="transparent" points="8.5,-61 8.5,-79 29.5,-79 29.5,-61 8.5,-61"/>
<polygon fill="none" stroke="black" points="8.5,-61 8.5,-79 29.5,-79 29.5,-61 8.5,-61"/>
<text text-anchor="start" x="11.5" y="-67.2" font-family="Helvetica,sans-Serif" font-size="11.00"> &#160;</text>
<polygon fill="#ffffff" stroke="transparent" points="29.5,-61 29.5,-79 99.5,-79 99.5,-61 29.5,-61"/>
<polygon fill="none" stroke="black" points="29.5,-61 29.5,-79 99.5,-79 99.5,-61 29.5,-61"/>
<text text-anchor="start" x="35.5" y="-67.2" font-family="Helvetica,sans-Serif" font-size="11.00">1,645 rows</text>
<polygon fill="#ffffff" stroke="transparent" points="99.5,-61 99.5,-79 129.5,-79 129.5,-61 99.5,-61"/>
<polygon fill="none" stroke="black" points="99.5,-61 99.5,-79 129.5,-79 129.5,-61 99.5,-61"/>
<text text-anchor="start" x="106.5" y="-67.2" font-family="Helvetica,sans-Serif" font-size="11.00">5 &gt;</text>
</a>
</g>
</g>
<!-- manuscript_data&#45;&gt;manuscript -->
<g id="edge1" class="edge">
<title>manuscript_data:w&#45;&gt;manuscript:e</title>
<path fill="none" stroke="black" d="M164.99,-90C153.68,-90 146.49,-90 130.5,-90"/>
<polygon fill="black" stroke="black" points="171.5,-90 179.5,-93.6 175.5,-90 179.5,-90 179.5,-90 179.5,-90 175.5,-90 179.5,-86.4 171.5,-90 171.5,-90"/>
<ellipse fill="none" stroke="black" cx="168.3" cy="-90" rx="3.2" ry="3.2"/>
</g>
<!-- manuscript_data_owner -->
<g id="node3" class="node">
<title>manuscript_data_owner</title>
<g id="a_node3"><a xlink:href="../../tables/manuscript_data_owner.html" xlink:title="manuscript_data_owner" target="_top">
<polygon fill="#ffffff" stroke="transparent" points="480,-39 480,-145 677,-145 677,-39 480,-39"/>
<polygon fill="#f5f5f5" stroke="transparent" points="480.5,-123 480.5,-145 677.5,-145 677.5,-123 480.5,-123"/>
<polygon fill="none" stroke="black" points="480.5,-123 480.5,-145 677.5,-145 677.5,-123 480.5,-123"/>
<text text-anchor="start" x="485.5" y="-132.2" font-family="Helvetica,sans-Serif" font-weight="bold" font-size="11.00">manuscript_data_owner</text>
<text text-anchor="start" x="635.5" y="-131.2" font-family="Helvetica,sans-Serif" font-size="11.00">[table]</text>
<polygon fill="none" stroke="black" points="480.5,-101 480.5,-123 677.5,-123 677.5,-101 480.5,-101"/>
<image xlink:href="../../images/primaryKeys.png" width="11px" height="12px" preserveAspectRatio="xMinYMin meet" x="485.5" y="-118"/>
<text text-anchor="start" x="508.5" y="-109.2" font-family="Helvetica,sans-Serif" font-size="11.00">manuscript_data_id</text>
<polygon fill="#ffffff" stroke="transparent" points="480.5,-79 480.5,-101 677.5,-101 677.5,-79 480.5,-79"/>
<polygon fill="none" stroke="black" points="480.5,-79 480.5,-101 677.5,-101 677.5,-79 480.5,-79"/>
<image xlink:href="../../images/foreignKeys.png" width="11px" height="12px" preserveAspectRatio="xMinYMin meet" x="485.5" y="-96"/>
<text text-anchor="start" x="508.5" y="-87.2" font-family="Helvetica,sans-Serif" font-size="11.00">edition_editor_id</text>
<polygon fill="none" stroke="black" points="480.5,-57 480.5,-79 677.5,-79 677.5,-57 480.5,-57"/>
<image xlink:href="../../images/primaryKeys.png" width="11px" height="12px" preserveAspectRatio="xMinYMin meet" x="485.5" y="-74"/>
<text text-anchor="start" x="508.5" y="-65.2" font-family="Helvetica,sans-Serif" font-size="11.00">edition_id</text>
<polygon fill="#ffffff" stroke="transparent" points="480.5,-39 480.5,-57 551.5,-57 551.5,-39 480.5,-39"/>
<polygon fill="none" stroke="black" points="480.5,-39 480.5,-57 551.5,-57 551.5,-39 480.5,-39"/>
<text text-anchor="start" x="483.5" y="-45.2" font-family="Helvetica,sans-Serif" font-size="11.00">&lt; 3</text>
<polygon fill="#ffffff" stroke="transparent" points="551.5,-39 551.5,-57 640.5,-57 640.5,-39 551.5,-39"/>
<polygon fill="none" stroke="black" points="551.5,-39 551.5,-57 640.5,-57 640.5,-39 551.5,-39"/>
<text text-anchor="start" x="576.5" y="-45.2" font-family="Helvetica,sans-Serif" font-size="11.00">1,371 rows</text>
<polygon fill="#ffffff" stroke="transparent" points="640.5,-39 640.5,-57 677.5,-57 677.5,-39 640.5,-39"/>
<polygon fill="none" stroke="black" points="640.5,-39 640.5,-57 677.5,-57 677.5,-39 640.5,-39"/>
<text text-anchor="start" x="666.5" y="-45.2" font-family="Helvetica,sans-Serif" font-size="11.00"> &#160;</text>
</a>
</g>
</g>
<!-- manuscript_data_owner&#45;&gt;manuscript_data -->
<g id="edge2" class="edge">
<title>manuscript_data_owner:w&#45;&gt;manuscript_data:e</title>
<path fill="none" stroke="black" d="M464.99,-112C453.68,-112 446.49,-112 430.5,-112"/>
<polygon fill="black" stroke="black" points="471.5,-112 479.5,-115.6 475.5,-112 479.5,-112 479.5,-112 479.5,-112 475.5,-112 479.5,-108.4 471.5,-112 471.5,-112"/>
<ellipse fill="none" stroke="black" cx="468.3" cy="-112" rx="3.2" ry="3.2"/>
</g>
</g>
</svg>
