<?xml version="1.0" encoding="UTF-8" standalone="no"?>
<!DOCTYPE svg PUBLIC "-//W3C//DTD SVG 1.1//EN"
 "http://www.w3.org/Graphics/SVG/1.1/DTD/svg11.dtd">
<!-- Generated by graphviz version 2.43.0 (0)
 -->
<!-- Title: oneDegreeRelationshipsDiagram Pages: 1 -->
<svg width="903pt" height="212pt"
 viewBox="0.00 0.00 903.00 212.00" xmlns="http://www.w3.org/2000/svg" xmlns:xlink="http://www.w3.org/1999/xlink">
<g id="graph0" class="graph" transform="scale(1 1) rotate(0) translate(4 208)">
<title>oneDegreeRelationshipsDiagram</title>
<polygon fill="#ffffff" stroke="transparent" points="-4,4 -4,-208 899,-208 899,4 -4,4"/>
<text text-anchor="middle" x="79.5" y="-7.2" font-family="Helvetica,sans-Serif" font-size="11.00">Generated by SchemaSpy</text>
<!-- parallel_sign_stream_section -->
<g id="node1" class="node">
<title>parallel_sign_stream_section</title>
<g id="a_node1"><a xlink:href="../../tables/parallel_sign_stream_section.html" xlink:title="parallel_sign_stream_section" target="_top">
<polygon fill="#ffffff" stroke="transparent" points="233,-74 233,-184 567,-184 567,-74 233,-74"/>
<polygon fill="#f5f5f5" stroke="transparent" points="235,-160 235,-182 565,-182 565,-160 235,-160"/>
<polygon fill="none" stroke="black" points="235,-160 235,-182 565,-182 565,-160 235,-160"/>
<text text-anchor="start" x="240" y="-169.2" font-family="Helvetica,sans-Serif" font-weight="bold" font-size="11.00">parallel_sign_stream_section</text>
<text text-anchor="start" x="523" y="-168.2" font-family="Helvetica,sans-Serif" font-size="11.00">[table]</text>
<polygon fill="none" stroke="black" points="235,-138 235,-160 468,-160 468,-138 235,-138"/>
<image xlink:href="../../images/primaryKeys.png" width="11px" height="12px" preserveAspectRatio="xMinYMin meet" x="240" y="-155"/>
<text text-anchor="start" x="255" y="-146.2" font-family="Helvetica,sans-Serif" font-size="11.00">parallel_sign_stream_section_id</text>
<polygon fill="none" stroke="black" points="468,-138 468,-160 565,-160 565,-138 468,-138"/>
<text text-anchor="start" x="471" y="-146.2" font-family="Helvetica,sans-Serif" font-size="11.00">int unsigned[10]</text>
<polygon fill="#ffffff" stroke="transparent" points="235,-116 235,-138 468,-138 468,-116 235,-116"/>
<polygon fill="none" stroke="black" points="235,-116 235,-138 468,-138 468,-116 235,-116"/>
<image xlink:href="../../images/foreignKeys.png" width="11px" height="12px" preserveAspectRatio="xMinYMin meet" x="240" y="-133"/>
<text text-anchor="start" x="255" y="-124.2" font-family="Helvetica,sans-Serif" font-size="11.00">sign_stream_section_id</text>
<polygon fill="none" stroke="black" points="468,-116 468,-138 565,-138 565,-116 468,-116"/>
<text text-anchor="start" x="471" y="-124.2" font-family="Helvetica,sans-Serif" font-size="11.00">int unsigned[10]</text>
<polygon fill="#ffffff" stroke="transparent" points="235,-94 235,-116 468,-116 468,-94 235,-94"/>
<polygon fill="none" stroke="black" points="235,-94 235,-116 468,-116 468,-94 235,-94"/>
<image xlink:href="../../images/foreignKeys.png" width="11px" height="12px" preserveAspectRatio="xMinYMin meet" x="240" y="-111"/>
<text text-anchor="start" x="255" y="-102.2" font-family="Helvetica,sans-Serif" font-size="11.00">parallel_group_id</text>
<polygon fill="none" stroke="black" points="468,-94 468,-116 565,-116 565,-94 468,-94"/>
<text text-anchor="start" x="471" y="-102.2" font-family="Helvetica,sans-Serif" font-size="11.00">int unsigned[10]</text>
<polygon fill="#ffffff" stroke="transparent" points="235,-76 235,-94 343,-94 343,-76 235,-76"/>
<polygon fill="none" stroke="black" points="235,-76 235,-94 343,-94 343,-76 235,-76"/>
<text text-anchor="start" x="238" y="-82.2" font-family="Helvetica,sans-Serif" font-size="11.00">&lt; 2</text>
<polygon fill="#ffffff" stroke="transparent" points="343,-76 343,-94 468,-94 468,-76 343,-76"/>
<polygon fill="none" stroke="black" points="343,-76 343,-94 468,-94 468,-76 343,-76"/>
<text text-anchor="start" x="428" y="-82.2" font-family="Helvetica,sans-Serif" font-size="11.00">0 rows</text>
<polygon fill="#ffffff" stroke="transparent" points="468,-76 468,-94 565,-94 565,-76 468,-76"/>
<polygon fill="none" stroke="black" points="468,-76 468,-94 565,-94 565,-76 468,-76"/>
<text text-anchor="start" x="542" y="-82.2" font-family="Helvetica,sans-Serif" font-size="11.00">1 &gt;</text>
<polygon fill="none" stroke="black" stroke-width="2" points="234,-75 234,-183 566,-183 566,-75 234,-75"/>
</a>
</g>
</g>
<!-- parallel_group -->
<g id="node2" class="node">
<title>parallel_group</title>
<g id="a_node2"><a xlink:href="../../tables/parallel_group.html" xlink:title="parallel_group" target="_top">
<polygon fill="#ffffff" stroke="transparent" points="26.5,-37 26.5,-99 165.5,-99 165.5,-37 26.5,-37"/>
<polygon fill="#f5f5f5" stroke="transparent" points="27,-77 27,-99 166,-99 166,-77 27,-77"/>
<polygon fill="none" stroke="black" points="27,-77 27,-99 166,-99 166,-77 27,-77"/>
<text text-anchor="start" x="32" y="-86.2" font-family="Helvetica,sans-Serif" font-weight="bold" font-size="11.00">parallel_group</text>
<text text-anchor="start" x="124" y="-85.2" font-family="Helvetica,sans-Serif" font-size="11.00">[table]</text>
<polygon fill="none" stroke="black" points="27,-55 27,-77 166,-77 166,-55 27,-55"/>
<image xlink:href="../../images/primaryKeys.png" width="11px" height="12px" preserveAspectRatio="xMinYMin meet" x="32" y="-72"/>
<text text-anchor="start" x="49" y="-63.2" font-family="Helvetica,sans-Serif" font-size="11.00">parallel_group_id</text>
<polygon fill="#ffffff" stroke="transparent" points="27,-37 27,-55 69,-55 69,-37 27,-37"/>
<polygon fill="none" stroke="black" points="27,-37 27,-55 69,-55 69,-37 27,-37"/>
<text text-anchor="start" x="30" y="-43.2" font-family="Helvetica,sans-Serif" font-size="11.00"> &#160;</text>
<polygon fill="#ffffff" stroke="transparent" points="69,-37 69,-55 126,-55 126,-37 69,-37"/>
<polygon fill="none" stroke="black" points="69,-37 69,-55 126,-55 126,-37 69,-37"/>
<text text-anchor="start" x="86" y="-43.2" font-family="Helvetica,sans-Serif" font-size="11.00">0 rows</text>
<polygon fill="#ffffff" stroke="transparent" points="126,-37 126,-55 166,-55 166,-37 126,-37"/>
<polygon fill="none" stroke="black" points="126,-37 126,-55 166,-55 166,-37 126,-37"/>
<text text-anchor="start" x="143" y="-43.2" font-family="Helvetica,sans-Serif" font-size="11.00">3 &gt;</text>
</a>
</g>
</g>
<!-- parallel_sign_stream_section&#45;&gt;parallel_group -->
<g id="edge1" class="edge">
<title>parallel_sign_stream_section:w&#45;&gt;parallel_group:e</title>
<path fill="none" stroke="black" d="M219.66,-102.2C199.19,-93.25 195.8,-66 167,-66"/>
<polygon fill="black" stroke="black" points="226.15,-103.46 233.31,-108.53 230.07,-104.23 234,-105 234,-105 234,-105 230.07,-104.23 234.69,-101.47 226.15,-103.46 226.15,-103.46"/>
<ellipse fill="none" stroke="black" cx="223.01" cy="-102.85" rx="3.2" ry="3.2"/>
</g>
<!-- sign_stream_section -->
<g id="node3" class="node">
<title>sign_stream_section</title>
<g id="a_node3"><a xlink:href="../../tables/sign_stream_section.html" xlink:title="sign_stream_section" target="_top">
<polygon fill="#ffffff" stroke="transparent" points="8,-120 8,-200 184,-200 184,-120 8,-120"/>
<polygon fill="#f5f5f5" stroke="transparent" points="8,-178 8,-200 184,-200 184,-178 8,-178"/>
<polygon fill="none" stroke="black" points="8,-178 8,-200 184,-200 184,-178 8,-178"/>
<text text-anchor="start" x="13" y="-187.2" font-family="Helvetica,sans-Serif" font-weight="bold" font-size="11.00">sign_stream_section</text>
<text text-anchor="start" x="142" y="-186.2" font-family="Helvetica,sans-Serif" font-size="11.00">[table]</text>
<polygon fill="none" stroke="black" points="8,-156 8,-178 184,-178 184,-156 8,-156"/>
<image xlink:href="../../images/primaryKeys.png" width="11px" height="12px" preserveAspectRatio="xMinYMin meet" x="13" y="-173"/>
<text text-anchor="start" x="28" y="-164.2" font-family="Helvetica,sans-Serif" font-size="11.00">sign_stream_section_id</text>
<polygon fill="none" stroke="black" points="8,-138 8,-156 184,-156 184,-138 8,-138"/>
<text text-anchor="start" x="11" y="-144.2" font-family="Helvetica,sans-Serif" font-size="11.00">...</text>
<polygon fill="#ffffff" stroke="transparent" points="8,-120 8,-138 68,-138 68,-120 8,-120"/>
<polygon fill="none" stroke="black" points="8,-120 8,-138 68,-138 68,-120 8,-120"/>
<text text-anchor="start" x="11" y="-126.2" font-family="Helvetica,sans-Serif" font-size="11.00"> &#160;</text>
<polygon fill="#ffffff" stroke="transparent" points="68,-120 68,-138 134,-138 134,-120 68,-120"/>
<polygon fill="none" stroke="black" points="68,-120 68,-138 134,-138 134,-120 68,-120"/>
<text text-anchor="start" x="94" y="-126.2" font-family="Helvetica,sans-Serif" font-size="11.00">2 rows</text>
<polygon fill="#ffffff" stroke="transparent" points="134,-120 134,-138 184,-138 184,-120 134,-120"/>
<polygon fill="none" stroke="black" points="134,-120 134,-138 184,-138 184,-120 134,-120"/>
<text text-anchor="start" x="161" y="-126.2" font-family="Helvetica,sans-Serif" font-size="11.00">4 &gt;</text>
</a>
</g>
</g>
<!-- parallel_sign_stream_section&#45;&gt;sign_stream_section -->
<g id="edge2" class="edge">
<title>parallel_sign_stream_section:w&#45;&gt;sign_stream_section:e</title>
<path fill="none" stroke="black" d="M220.26,-131.59C207.36,-142.1 207.18,-167 185,-167"/>
<polygon fill="black" stroke="black" points="226.41,-129.53 235.14,-130.41 230.21,-128.27 234,-127 234,-127 234,-127 230.21,-128.27 232.86,-123.59 226.41,-129.53 226.41,-129.53"/>
<ellipse fill="none" stroke="black" cx="223.38" cy="-130.55" rx="3.2" ry="3.2"/>
</g>
<!-- parallel_sign_stream_section_owner -->
<g id="node4" class="node">
<title>parallel_sign_stream_section_owner</title>
<g id="a_node4"><a xlink:href="../../tables/parallel_sign_stream_section_owner.html" xlink:title="parallel_sign_stream_section_owner" target="_top">
<polygon fill="#ffffff" stroke="transparent" points="616,-76 616,-182 887,-182 887,-76 616,-76"/>
<polygon fill="#f5f5f5" stroke="transparent" points="616.5,-160 616.5,-182 887.5,-182 887.5,-160 616.5,-160"/>
<polygon fill="none" stroke="black" points="616.5,-160 616.5,-182 887.5,-182 887.5,-160 616.5,-160"/>
<text text-anchor="start" x="621.5" y="-169.2" font-family="Helvetica,sans-Serif" font-weight="bold" font-size="11.00">parallel_sign_stream_section_owner</text>
<text text-anchor="start" x="845.5" y="-168.2" font-family="Helvetica,sans-Serif" font-size="11.00">[table]</text>
<polygon fill="none" stroke="black" points="616.5,-138 616.5,-160 887.5,-160 887.5,-138 616.5,-138"/>
<image xlink:href="../../images/primaryKeys.png" width="11px" height="12px" preserveAspectRatio="xMinYMin meet" x="621.5" y="-155"/>
<text text-anchor="start" x="640.5" y="-146.2" font-family="Helvetica,sans-Serif" font-size="11.00">parallel_sign_stream_section_id</text>
<polygon fill="#ffffff" stroke="transparent" points="616.5,-116 616.5,-138 887.5,-138 887.5,-116 616.5,-116"/>
<polygon fill="none" stroke="black" points="616.5,-116 616.5,-138 887.5,-138 887.5,-116 616.5,-116"/>
<image xlink:href="../../images/foreignKeys.png" width="11px" height="12px" preserveAspectRatio="xMinYMin meet" x="621.5" y="-133"/>
<text text-anchor="start" x="640.5" y="-124.2" font-family="Helvetica,sans-Serif" font-size="11.00">edition_editor_id</text>
<polygon fill="none" stroke="black" points="616.5,-94 616.5,-116 887.5,-116 887.5,-94 616.5,-94"/>
<image xlink:href="../../images/primaryKeys.png" width="11px" height="12px" preserveAspectRatio="xMinYMin meet" x="621.5" y="-111"/>
<text text-anchor="start" x="640.5" y="-102.2" font-family="Helvetica,sans-Serif" font-size="11.00">edition_id</text>
<polygon fill="#ffffff" stroke="transparent" points="616.5,-76 616.5,-94 736.5,-94 736.5,-76 616.5,-76"/>
<polygon fill="none" stroke="black" points="616.5,-76 616.5,-94 736.5,-94 736.5,-76 616.5,-76"/>
<text text-anchor="start" x="619.5" y="-82.2" font-family="Helvetica,sans-Serif" font-size="11.00">&lt; 3</text>
<polygon fill="#ffffff" stroke="transparent" points="736.5,-76 736.5,-94 826.5,-94 826.5,-76 736.5,-76"/>
<polygon fill="none" stroke="black" points="736.5,-76 736.5,-94 826.5,-94 826.5,-76 736.5,-76"/>
<text text-anchor="start" x="786.5" y="-82.2" font-family="Helvetica,sans-Serif" font-size="11.00">0 rows</text>
<polygon fill="#ffffff" stroke="transparent" points="826.5,-76 826.5,-94 887.5,-94 887.5,-76 826.5,-76"/>
<polygon fill="none" stroke="black" points="826.5,-76 826.5,-94 887.5,-94 887.5,-76 826.5,-76"/>
<text text-anchor="start" x="876.5" y="-82.2" font-family="Helvetica,sans-Serif" font-size="11.00"> &#160;</text>
</a>
</g>
</g>
<!-- parallel_sign_stream_section_owner&#45;&gt;parallel_sign_stream_section -->
<g id="edge3" class="edge">
<title>parallel_sign_stream_section_owner:w&#45;&gt;parallel_sign_stream_section:e</title>
<path fill="none" stroke="black" d="M600.84,-149C589.41,-149 582.16,-149 566,-149"/>
<polygon fill="black" stroke="black" points="607.5,-149 615.5,-152.6 611.5,-149 615.5,-149 615.5,-149 615.5,-149 611.5,-149 615.5,-145.4 607.5,-149 607.5,-149"/>
<ellipse fill="none" stroke="black" cx="604.3" cy="-149" rx="3.2" ry="3.2"/>
</g>
</g>
</svg>
