<?xml version="1.0" encoding="UTF-8" standalone="no"?>
<!DOCTYPE svg PUBLIC "-//W3C//DTD SVG 1.1//EN"
 "http://www.w3.org/Graphics/SVG/1.1/DTD/svg11.dtd">
<!-- Generated by graphviz version 2.43.0 (0)
 -->
<!-- Title: oneDegreeRelationshipsDiagram Pages: 1 -->
<svg width="653pt" height="380pt"
 viewBox="0.00 0.00 653.00 380.00" xmlns="http://www.w3.org/2000/svg" xmlns:xlink="http://www.w3.org/1999/xlink">
<g id="graph0" class="graph" transform="scale(1 1) rotate(0) translate(4 376)">
<title>oneDegreeRelationshipsDiagram</title>
<polygon fill="#ffffff" stroke="transparent" points="-4,4 -4,-376 649,-376 649,4 -4,4"/>
<text text-anchor="middle" x="79.5" y="-7.2" font-family="Helvetica,sans-Serif" font-size="11.00">Generated by SchemaSpy</text>
<!-- edition_editor -->
<g id="node1" class="node">
<title>edition_editor</title>
<g id="a_node1"><a xlink:href="../../tables/edition_editor.html" xlink:title="edition_editor" target="_top">
<polygon fill="#ffffff" stroke="transparent" points="192,-95 192,-219 328,-219 328,-95 192,-95"/>
<polygon fill="#f5f5f5" stroke="transparent" points="192,-197 192,-219 328,-219 328,-197 192,-197"/>
<polygon fill="none" stroke="black" points="192,-197 192,-219 328,-219 328,-197 192,-197"/>
<text text-anchor="start" x="197" y="-206.2" font-family="Helvetica,sans-Serif" font-weight="bold" font-size="11.00">edition_editor</text>
<text text-anchor="start" x="286" y="-205.2" font-family="Helvetica,sans-Serif" font-size="11.00">[table]</text>
<polygon fill="none" stroke="black" points="192,-175 192,-197 328,-197 328,-175 192,-175"/>
<image xlink:href="../../images/primaryKeys.png" width="11px" height="12px" preserveAspectRatio="xMinYMin meet" x="197" y="-192"/>
<text text-anchor="start" x="214" y="-183.2" font-family="Helvetica,sans-Serif" font-size="11.00">edition_editor_id</text>
<polygon fill="#ffffff" stroke="transparent" points="192,-153 192,-175 328,-175 328,-153 192,-153"/>
<polygon fill="none" stroke="black" points="192,-153 192,-175 328,-175 328,-153 192,-153"/>
<image xlink:href="../../images/foreignKeys.png" width="11px" height="12px" preserveAspectRatio="xMinYMin meet" x="197" y="-170"/>
<text text-anchor="start" x="214" y="-161.2" font-family="Helvetica,sans-Serif" font-size="11.00">user_id</text>
<polygon fill="#ffffff" stroke="transparent" points="192,-131 192,-153 328,-153 328,-131 192,-131"/>
<polygon fill="none" stroke="black" points="192,-131 192,-153 328,-153 328,-131 192,-131"/>
<image xlink:href="../../images/foreignKeys.png" width="11px" height="12px" preserveAspectRatio="xMinYMin meet" x="197" y="-148"/>
<text text-anchor="start" x="214" y="-139.2" font-family="Helvetica,sans-Serif" font-size="11.00">edition_id</text>
<polygon fill="none" stroke="black" points="192,-113 192,-131 328,-131 328,-113 192,-113"/>
<text text-anchor="start" x="195" y="-119.2" font-family="Helvetica,sans-Serif" font-size="11.00">...</text>
<polygon fill="#ffffff" stroke="transparent" points="192,-95 192,-113 223,-113 223,-95 192,-95"/>
<polygon fill="none" stroke="black" points="192,-95 192,-113 223,-113 223,-95 192,-95"/>
<text text-anchor="start" x="195" y="-101.2" font-family="Helvetica,sans-Serif" font-size="11.00">&lt; 2</text>
<polygon fill="#ffffff" stroke="transparent" points="223,-95 223,-113 292,-113 292,-95 223,-95"/>
<polygon fill="none" stroke="black" points="223,-95 223,-113 292,-113 292,-95 223,-95"/>
<text text-anchor="start" x="228" y="-101.2" font-family="Helvetica,sans-Serif" font-size="11.00">1,645 rows</text>
<polygon fill="#ffffff" stroke="transparent" points="292,-95 292,-113 328,-113 328,-95 292,-95"/>
<polygon fill="none" stroke="black" points="292,-95 292,-113 328,-113 328,-95 292,-95"/>
<text text-anchor="start" x="298" y="-101.2" font-family="Helvetica,sans-Serif" font-size="11.00">29 &gt;</text>
</a>
</g>
</g>
<!-- edition -->
<g id="node2" class="node">
<title>edition</title>
<g id="a_node2"><a xlink:href="../../tables/edition.html" xlink:title="edition" target="_top">
<polygon fill="#ffffff" stroke="transparent" points="8,-37 8,-139 143,-139 143,-37 8,-37"/>
<polygon fill="#f5f5f5" stroke="transparent" points="8.5,-117 8.5,-139 143.5,-139 143.5,-117 8.5,-117"/>
<polygon fill="none" stroke="black" points="8.5,-117 8.5,-139 143.5,-139 143.5,-117 8.5,-117"/>
<text text-anchor="start" x="13.5" y="-126.2" font-family="Helvetica,sans-Serif" font-weight="bold" font-size="11.00">edition</text>
<text text-anchor="start" x="101.5" y="-125.2" font-family="Helvetica,sans-Serif" font-size="11.00">[table]</text>
<polygon fill="none" stroke="black" points="8.5,-95 8.5,-117 143.5,-117 143.5,-95 8.5,-95"/>
<image xlink:href="../../images/primaryKeys.png" width="11px" height="12px" preserveAspectRatio="xMinYMin meet" x="13.5" y="-112"/>
<text text-anchor="start" x="28.5" y="-103.2" font-family="Helvetica,sans-Serif" font-size="11.00">edition_id</text>
<polygon fill="#ffffff" stroke="transparent" points="8.5,-73 8.5,-95 143.5,-95 143.5,-73 8.5,-73"/>
<polygon fill="none" stroke="black" points="8.5,-73 8.5,-95 143.5,-95 143.5,-73 8.5,-73"/>
<image xlink:href="../../images/foreignKeys.png" width="11px" height="12px" preserveAspectRatio="xMinYMin meet" x="13.5" y="-90"/>
<text text-anchor="start" x="28.5" y="-81.2" font-family="Helvetica,sans-Serif" font-size="11.00">manuscript_id</text>
<polygon fill="none" stroke="black" points="8.5,-55 8.5,-73 143.5,-73 143.5,-55 8.5,-55"/>
<text text-anchor="start" x="11.5" y="-61.2" font-family="Helvetica,sans-Serif" font-size="11.00">...</text>
<polygon fill="#ffffff" stroke="transparent" points="8.5,-37 8.5,-55 38.5,-55 38.5,-37 8.5,-37"/>
<polygon fill="none" stroke="black" points="8.5,-37 8.5,-55 38.5,-55 38.5,-37 8.5,-37"/>
<text text-anchor="start" x="11.5" y="-43.2" font-family="Helvetica,sans-Serif" font-size="11.00">&lt; 1</text>
<polygon fill="#ffffff" stroke="transparent" points="38.5,-37 38.5,-55 107.5,-55 107.5,-37 38.5,-37"/>
<polygon fill="none" stroke="black" points="38.5,-37 38.5,-55 107.5,-55 107.5,-37 38.5,-37"/>
<text text-anchor="start" x="43.5" y="-43.2" font-family="Helvetica,sans-Serif" font-size="11.00">1,645 rows</text>
<polygon fill="#ffffff" stroke="transparent" points="107.5,-37 107.5,-55 143.5,-55 143.5,-37 107.5,-37"/>
<polygon fill="none" stroke="black" points="107.5,-37 107.5,-55 143.5,-55 143.5,-37 107.5,-37"/>
<text text-anchor="start" x="113.5" y="-43.2" font-family="Helvetica,sans-Serif" font-size="11.00">31 &gt;</text>
</a>
</g>
</g>
<!-- edition_editor&#45;&gt;edition -->
<g id="edge1" class="edge">
<title>edition_editor:w&#45;&gt;edition:e</title>
<path fill="none" stroke="black" d="M177.06,-136.99C165.82,-127.1 164.51,-106 144.5,-106"/>
<polygon fill="black" stroke="black" points="183.47,-139.3 189.78,-145.39 187.24,-140.65 191,-142 191,-142 191,-142 187.24,-140.65 192.22,-138.61 183.47,-139.3 183.47,-139.3"/>
<ellipse fill="none" stroke="black" cx="180.46" cy="-138.21" rx="3.2" ry="3.2"/>
</g>
<!-- parallel_word_owner -->
<g id="node3" class="node">
<title>parallel_word_owner</title>
<g id="a_node3"><a xlink:href="../../tables/parallel_word_owner.html" xlink:title="parallel_word_owner" target="_top">
<polygon fill="#ffffff" stroke="transparent" points="377,-133 377,-243 637,-243 637,-133 377,-133"/>
<polygon fill="#f5f5f5" stroke="transparent" points="379,-219 379,-241 635,-241 635,-219 379,-219"/>
<polygon fill="none" stroke="black" points="379,-219 379,-241 635,-241 635,-219 379,-219"/>
<text text-anchor="start" x="384" y="-228.2" font-family="Helvetica,sans-Serif" font-weight="bold" font-size="11.00">parallel_word_owner</text>
<text text-anchor="start" x="593" y="-227.2" font-family="Helvetica,sans-Serif" font-size="11.00">[table]</text>
<polygon fill="none" stroke="black" points="379,-197 379,-219 538,-219 538,-197 379,-197"/>
<image xlink:href="../../images/primaryKeys.png" width="11px" height="12px" preserveAspectRatio="xMinYMin meet" x="384" y="-214"/>
<text text-anchor="start" x="399" y="-205.2" font-family="Helvetica,sans-Serif" font-size="11.00">parallel_word_id</text>
<polygon fill="none" stroke="black" points="538,-197 538,-219 635,-219 635,-197 538,-197"/>
<text text-anchor="start" x="541" y="-205.2" font-family="Helvetica,sans-Serif" font-size="11.00">int unsigned[10]</text>
<polygon fill="#ffffff" stroke="transparent" points="379,-175 379,-197 538,-197 538,-175 379,-175"/>
<polygon fill="none" stroke="black" points="379,-175 379,-197 538,-197 538,-175 379,-175"/>
<image xlink:href="../../images/foreignKeys.png" width="11px" height="12px" preserveAspectRatio="xMinYMin meet" x="384" y="-192"/>
<text text-anchor="start" x="399" y="-183.2" font-family="Helvetica,sans-Serif" font-size="11.00">edition_editor_id</text>
<polygon fill="none" stroke="black" points="538,-175 538,-197 635,-197 635,-175 538,-175"/>
<text text-anchor="start" x="541" y="-183.2" font-family="Helvetica,sans-Serif" font-size="11.00">int unsigned[10]</text>
<polygon fill="none" stroke="black" points="379,-153 379,-175 538,-175 538,-153 379,-153"/>
<image xlink:href="../../images/primaryKeys.png" width="11px" height="12px" preserveAspectRatio="xMinYMin meet" x="384" y="-170"/>
<text text-anchor="start" x="399" y="-161.2" font-family="Helvetica,sans-Serif" font-size="11.00">edition_id</text>
<polygon fill="none" stroke="black" points="538,-153 538,-175 635,-175 635,-153 538,-153"/>
<text text-anchor="start" x="541" y="-161.2" font-family="Helvetica,sans-Serif" font-size="11.00">int unsigned[10]</text>
<polygon fill="#ffffff" stroke="transparent" points="379,-135 379,-153 450,-153 450,-135 379,-135"/>
<polygon fill="none" stroke="black" points="379,-135 379,-153 450,-153 450,-135 379,-135"/>
<text text-anchor="start" x="382" y="-141.2" font-family="Helvetica,sans-Serif" font-size="11.00">&lt; 3</text>
<polygon fill="#ffffff" stroke="transparent" points="450,-135 450,-153 538,-153 538,-135 450,-135"/>
<polygon fill="none" stroke="black" points="450,-135 450,-153 538,-153 538,-135 450,-135"/>
<text text-anchor="start" x="498" y="-141.2" font-family="Helvetica,sans-Serif" font-size="11.00">0 rows</text>
<polygon fill="#ffffff" stroke="transparent" points="538,-135 538,-153 635,-153 635,-135 538,-135"/>
<polygon fill="none" stroke="black" points="538,-135 538,-153 635,-153 635,-135 538,-135"/>
<text text-anchor="start" x="612" y="-141.2" font-family="Helvetica,sans-Serif" font-size="11.00">0 &gt;</text>
<polygon fill="none" stroke="black" stroke-width="2" points="378,-134 378,-242 636,-242 636,-134 378,-134"/>
</a>
</g>
</g>
<!-- parallel_word_owner&#45;&gt;edition_editor -->
<g id="edge2" class="edge">
<title>parallel_word_owner:w&#45;&gt;edition_editor:e</title>
<path fill="none" stroke="black" d="M363.49,-186C352.18,-186 344.99,-186 329,-186"/>
<polygon fill="black" stroke="black" points="370,-186 378,-189.6 374,-186 378,-186 378,-186 378,-186 374,-186 378,-182.4 370,-186 370,-186"/>
<ellipse fill="none" stroke="black" cx="366.8" cy="-186" rx="3.2" ry="3.2"/>
</g>
<!-- parallel_word_owner&#45;&gt;edition -->
<g id="edge3" class="edge">
<title>parallel_word_owner:w&#45;&gt;edition:e</title>
<path fill="none" stroke="black" d="M363.97,-160.03C346.37,-146.43 365,-101.53 336,-84 278.19,-49.05 249.39,-67.02 184,-84 164.55,-89.05 164.59,-106 144.5,-106"/>
<polygon fill="black" stroke="black" points="370.3,-161.82 377.02,-167.46 374.15,-162.91 378,-164 378,-164 378,-164 374.15,-162.91 378.98,-160.54 370.3,-161.82 370.3,-161.82"/>
<ellipse fill="none" stroke="black" cx="367.22" cy="-160.95" rx="3.2" ry="3.2"/>
</g>
<!-- parallel_word -->
<g id="node4" class="node">
<title>parallel_word</title>
<g id="a_node4"><a xlink:href="../../tables/parallel_word.html" xlink:title="parallel_word" target="_top">
<polygon fill="#ffffff" stroke="transparent" points="192,-240 192,-368 328,-368 328,-240 192,-240"/>
<polygon fill="#f5f5f5" stroke="transparent" points="192,-346 192,-368 328,-368 328,-346 192,-346"/>
<polygon fill="none" stroke="black" points="192,-346 192,-368 328,-368 328,-346 192,-346"/>
<text text-anchor="start" x="197" y="-355.2" font-family="Helvetica,sans-Serif" font-weight="bold" font-size="11.00">parallel_word</text>
<text text-anchor="start" x="286" y="-354.2" font-family="Helvetica,sans-Serif" font-size="11.00">[table]</text>
<polygon fill="none" stroke="black" points="192,-324 192,-346 328,-346 328,-324 192,-324"/>
<image xlink:href="../../images/primaryKeys.png" width="11px" height="12px" preserveAspectRatio="xMinYMin meet" x="197" y="-341"/>
<text text-anchor="start" x="212" y="-332.2" font-family="Helvetica,sans-Serif" font-size="11.00">parallel_word_id</text>
<polygon fill="#ffffff" stroke="transparent" points="192,-302 192,-324 328,-324 328,-302 192,-302"/>
<polygon fill="none" stroke="black" points="192,-302 192,-324 328,-324 328,-302 192,-302"/>
<image xlink:href="../../images/foreignKeys.png" width="11px" height="12px" preserveAspectRatio="xMinYMin meet" x="197" y="-319"/>
<text text-anchor="start" x="212" y="-310.2" font-family="Helvetica,sans-Serif" font-size="11.00">word_id</text>
<polygon fill="#ffffff" stroke="transparent" points="192,-280 192,-302 328,-302 328,-280 192,-280"/>
<polygon fill="none" stroke="black" points="192,-280 192,-302 328,-302 328,-280 192,-280"/>
<image xlink:href="../../images/foreignKeys.png" width="11px" height="12px" preserveAspectRatio="xMinYMin meet" x="197" y="-297"/>
<text text-anchor="start" x="212" y="-288.2" font-family="Helvetica,sans-Serif" font-size="11.00">parallel_group_id</text>
<polygon fill="#ffffff" stroke="transparent" points="192,-258 192,-280 328,-280 328,-258 192,-258"/>
<polygon fill="none" stroke="black" points="192,-258 192,-280 328,-280 328,-258 192,-258"/>
<text text-anchor="start" x="212" y="-266.2" font-family="Helvetica,sans-Serif" font-size="11.00">sub_group</text>
<polygon fill="#ffffff" stroke="transparent" points="192,-240 192,-258 238,-258 238,-240 192,-240"/>
<polygon fill="none" stroke="black" points="192,-240 192,-258 238,-258 238,-240 192,-240"/>
<text text-anchor="start" x="195" y="-246.2" font-family="Helvetica,sans-Serif" font-size="11.00">&lt; 2</text>
<polygon fill="#ffffff" stroke="transparent" points="238,-240 238,-258 291,-258 291,-240 238,-240"/>
<polygon fill="none" stroke="black" points="238,-240 238,-258 291,-258 291,-240 238,-240"/>
<text text-anchor="start" x="251" y="-246.2" font-family="Helvetica,sans-Serif" font-size="11.00">0 rows</text>
<polygon fill="#ffffff" stroke="transparent" points="291,-240 291,-258 328,-258 328,-240 291,-240"/>
<polygon fill="none" stroke="black" points="291,-240 291,-258 328,-258 328,-240 291,-240"/>
<text text-anchor="start" x="305" y="-246.2" font-family="Helvetica,sans-Serif" font-size="11.00">1 &gt;</text>
</a>
</g>
</g>
<!-- parallel_word_owner&#45;&gt;parallel_word -->
<g id="edge4" class="edge">
<title>parallel_word_owner:w&#45;&gt;parallel_word:e</title>
<path fill="none" stroke="black" d="M363.82,-211.4C330.3,-231.59 383.59,-335 329,-335"/>
<polygon fill="black" stroke="black" points="370.22,-209.86 378.84,-211.5 374.11,-208.93 378,-208 378,-208 378,-208 374.11,-208.93 377.16,-204.5 370.22,-209.86 370.22,-209.86"/>
<ellipse fill="none" stroke="black" cx="367.11" cy="-210.61" rx="3.2" ry="3.2"/>
</g>
</g>
</svg>
