<?xml version="1.0" encoding="UTF-8" standalone="no"?>
<!DOCTYPE svg PUBLIC "-//W3C//DTD SVG 1.1//EN"
 "http://www.w3.org/Graphics/SVG/1.1/DTD/svg11.dtd">
<!-- Generated by graphviz version 2.43.0 (0)
 -->
<!-- Title: twoDegreesRelationshipsDiagram Pages: 1 -->
<svg width="1067pt" height="452pt"
 viewBox="0.00 0.00 1067.00 452.00" xmlns="http://www.w3.org/2000/svg" xmlns:xlink="http://www.w3.org/1999/xlink">
<g id="graph0" class="graph" transform="scale(1 1) rotate(0) translate(4 448)">
<title>twoDegreesRelationshipsDiagram</title>
<polygon fill="#ffffff" stroke="transparent" points="-4,4 -4,-448 1063,-448 1063,4 -4,4"/>
<text text-anchor="middle" x="79.5" y="-7.2" font-family="Helvetica,sans-Serif" font-size="11.00">Generated by SchemaSpy</text>
<!-- edition_editor -->
<g id="node1" class="node">
<title>edition_editor</title>
<g id="a_node1"><a xlink:href="../../tables/edition_editor.html" xlink:title="edition_editor" target="_top">
<polygon fill="#ffffff" stroke="transparent" points="559.5,-298 559.5,-356 695.5,-356 695.5,-298 559.5,-298"/>
<polygon fill="#f5f5f5" stroke="transparent" points="559.5,-334 559.5,-356 695.5,-356 695.5,-334 559.5,-334"/>
<polygon fill="none" stroke="black" points="559.5,-334 559.5,-356 695.5,-356 695.5,-334 559.5,-334"/>
<text text-anchor="start" x="564.5" y="-343.2" font-family="Helvetica,sans-Serif" font-weight="bold" font-size="11.00">edition_editor</text>
<text text-anchor="start" x="653.5" y="-342.2" font-family="Helvetica,sans-Serif" font-size="11.00">[table]</text>
<polygon fill="none" stroke="black" points="559.5,-316 559.5,-334 695.5,-334 695.5,-316 559.5,-316"/>
<text text-anchor="start" x="562.5" y="-322.2" font-family="Helvetica,sans-Serif" font-size="11.00">...</text>
<polygon fill="#ffffff" stroke="transparent" points="559.5,-298 559.5,-316 590.5,-316 590.5,-298 559.5,-298"/>
<polygon fill="none" stroke="black" points="559.5,-298 559.5,-316 590.5,-316 590.5,-298 559.5,-298"/>
<text text-anchor="start" x="562.5" y="-304.2" font-family="Helvetica,sans-Serif" font-size="11.00">&lt; 2</text>
<polygon fill="#ffffff" stroke="transparent" points="590.5,-298 590.5,-316 659.5,-316 659.5,-298 590.5,-298"/>
<polygon fill="none" stroke="black" points="590.5,-298 590.5,-316 659.5,-316 659.5,-298 590.5,-298"/>
<text text-anchor="start" x="595.5" y="-304.2" font-family="Helvetica,sans-Serif" font-size="11.00">1,645 rows</text>
<polygon fill="#ffffff" stroke="transparent" points="659.5,-298 659.5,-316 695.5,-316 695.5,-298 659.5,-298"/>
<polygon fill="none" stroke="black" points="659.5,-298 659.5,-316 695.5,-316 695.5,-298 659.5,-298"/>
<text text-anchor="start" x="665.5" y="-304.2" font-family="Helvetica,sans-Serif" font-size="11.00">33 &gt;</text>
</a>
</g>
</g>
<!-- edition -->
<g id="node2" class="node">
<title>edition</title>
<g id="a_node2"><a xlink:href="../../tables/edition.html" xlink:title="edition" target="_top">
<polygon fill="#ffffff" stroke="transparent" points="268,-326 268,-384 394,-384 394,-326 268,-326"/>
<polygon fill="#f5f5f5" stroke="transparent" points="268,-362 268,-384 394,-384 394,-362 268,-362"/>
<polygon fill="none" stroke="black" points="268,-362 268,-384 394,-384 394,-362 268,-362"/>
<text text-anchor="start" x="273" y="-371.2" font-family="Helvetica,sans-Serif" font-weight="bold" font-size="11.00">edition</text>
<text text-anchor="start" x="352" y="-370.2" font-family="Helvetica,sans-Serif" font-size="11.00">[table]</text>
<polygon fill="none" stroke="black" points="268,-344 268,-362 394,-362 394,-344 268,-344"/>
<text text-anchor="start" x="271" y="-350.2" font-family="Helvetica,sans-Serif" font-size="11.00">...</text>
<polygon fill="#ffffff" stroke="transparent" points="268,-326 268,-344 294,-344 294,-326 268,-326"/>
<polygon fill="none" stroke="black" points="268,-326 268,-344 294,-344 294,-326 268,-326"/>
<text text-anchor="start" x="271" y="-332.2" font-family="Helvetica,sans-Serif" font-size="11.00">&lt; 1</text>
<polygon fill="#ffffff" stroke="transparent" points="294,-326 294,-344 361,-344 361,-326 294,-326"/>
<polygon fill="none" stroke="black" points="294,-326 294,-344 361,-344 361,-326 294,-326"/>
<text text-anchor="start" x="297" y="-332.2" font-family="Helvetica,sans-Serif" font-size="11.00">1,645 rows</text>
<polygon fill="#ffffff" stroke="transparent" points="361,-326 361,-344 394,-344 394,-326 361,-326"/>
<polygon fill="none" stroke="black" points="361,-326 361,-344 394,-344 394,-326 361,-326"/>
<text text-anchor="start" x="364" y="-332.2" font-family="Helvetica,sans-Serif" font-size="11.00">35 &gt;</text>
</a>
</g>
</g>
<!-- edition_editor&#45;&gt;edition -->
<g id="edge1" class="edge">
<title>edition_editor:w&#45;&gt;edition:e</title>
<path fill="none" stroke="black" d="M543.76,-325.4C482.23,-328.8 463.54,-353 395,-353"/>
<polygon fill="black" stroke="black" points="550.5,-325.21 558.6,-328.6 554.5,-325.11 558.5,-325 558.5,-325 558.5,-325 554.5,-325.11 558.4,-321.4 550.5,-325.21 550.5,-325.21"/>
<ellipse fill="none" stroke="black" cx="547.3" cy="-325.3" rx="3.2" ry="3.2"/>
</g>
<!-- parallel_group_pair -->
<g id="node3" class="node">
<title>parallel_group_pair</title>
<g id="a_node3"><a xlink:href="../../tables/parallel_group_pair.html" xlink:title="parallel_group_pair" target="_top">
<polygon fill="#ffffff" stroke="transparent" points="196,-195 196,-305 466,-305 466,-195 196,-195"/>
<polygon fill="#f5f5f5" stroke="transparent" points="198,-281 198,-303 464,-303 464,-281 198,-281"/>
<polygon fill="none" stroke="black" points="198,-281 198,-303 464,-303 464,-281 198,-281"/>
<text text-anchor="start" x="203" y="-290.2" font-family="Helvetica,sans-Serif" font-weight="bold" font-size="11.00">parallel_group_pair</text>
<text text-anchor="start" x="422" y="-289.2" font-family="Helvetica,sans-Serif" font-size="11.00">[table]</text>
<polygon fill="none" stroke="black" points="198,-259 198,-281 367,-281 367,-259 198,-259"/>
<image xlink:href="../../images/primaryKeys.png" width="11px" height="12px" preserveAspectRatio="xMinYMin meet" x="203" y="-276"/>
<text text-anchor="start" x="218" y="-267.2" font-family="Helvetica,sans-Serif" font-size="11.00">parallel_group_pair_id</text>
<polygon fill="none" stroke="black" points="367,-259 367,-281 464,-281 464,-259 367,-259"/>
<text text-anchor="start" x="370" y="-267.2" font-family="Helvetica,sans-Serif" font-size="11.00">int unsigned[10]</text>
<polygon fill="#ffffff" stroke="transparent" points="198,-237 198,-259 367,-259 367,-237 198,-237"/>
<polygon fill="none" stroke="black" points="198,-237 198,-259 367,-259 367,-237 198,-237"/>
<image xlink:href="../../images/foreignKeys.png" width="11px" height="12px" preserveAspectRatio="xMinYMin meet" x="203" y="-254"/>
<text text-anchor="start" x="218" y="-245.2" font-family="Helvetica,sans-Serif" font-size="11.00">parallel_group_a_id</text>
<polygon fill="none" stroke="black" points="367,-237 367,-259 464,-259 464,-237 367,-237"/>
<text text-anchor="start" x="370" y="-245.2" font-family="Helvetica,sans-Serif" font-size="11.00">int unsigned[10]</text>
<polygon fill="#ffffff" stroke="transparent" points="198,-215 198,-237 367,-237 367,-215 198,-215"/>
<polygon fill="none" stroke="black" points="198,-215 198,-237 367,-237 367,-215 198,-215"/>
<image xlink:href="../../images/foreignKeys.png" width="11px" height="12px" preserveAspectRatio="xMinYMin meet" x="203" y="-232"/>
<text text-anchor="start" x="218" y="-223.2" font-family="Helvetica,sans-Serif" font-size="11.00">parallel_group_b_id</text>
<polygon fill="none" stroke="black" points="367,-215 367,-237 464,-237 464,-215 367,-215"/>
<text text-anchor="start" x="370" y="-223.2" font-family="Helvetica,sans-Serif" font-size="11.00">int unsigned[10]</text>
<polygon fill="#ffffff" stroke="transparent" points="198,-197 198,-215 274,-215 274,-197 198,-197"/>
<polygon fill="none" stroke="black" points="198,-197 198,-215 274,-215 274,-197 198,-197"/>
<text text-anchor="start" x="201" y="-203.2" font-family="Helvetica,sans-Serif" font-size="11.00">&lt; 2</text>
<polygon fill="#ffffff" stroke="transparent" points="274,-197 274,-215 367,-215 367,-197 274,-197"/>
<polygon fill="none" stroke="black" points="274,-197 274,-215 367,-215 367,-197 274,-197"/>
<text text-anchor="start" x="327" y="-203.2" font-family="Helvetica,sans-Serif" font-size="11.00">0 rows</text>
<polygon fill="#ffffff" stroke="transparent" points="367,-197 367,-215 464,-215 464,-197 367,-197"/>
<polygon fill="none" stroke="black" points="367,-197 367,-215 464,-215 464,-197 367,-197"/>
<text text-anchor="start" x="441" y="-203.2" font-family="Helvetica,sans-Serif" font-size="11.00">2 &gt;</text>
<polygon fill="none" stroke="black" stroke-width="2" points="197,-196 197,-304 465,-304 465,-196 197,-196"/>
</a>
</g>
</g>
<!-- parallel_group -->
<g id="node4" class="node">
<title>parallel_group</title>
<g id="a_node4"><a xlink:href="../../tables/parallel_group.html" xlink:title="parallel_group" target="_top">
<polygon fill="#ffffff" stroke="transparent" points="8,-197 8,-259 147,-259 147,-197 8,-197"/>
<polygon fill="#f5f5f5" stroke="transparent" points="8.5,-237 8.5,-259 147.5,-259 147.5,-237 8.5,-237"/>
<polygon fill="none" stroke="black" points="8.5,-237 8.5,-259 147.5,-259 147.5,-237 8.5,-237"/>
<text text-anchor="start" x="13.5" y="-246.2" font-family="Helvetica,sans-Serif" font-weight="bold" font-size="11.00">parallel_group</text>
<text text-anchor="start" x="105.5" y="-245.2" font-family="Helvetica,sans-Serif" font-size="11.00">[table]</text>
<polygon fill="none" stroke="black" points="8.5,-215 8.5,-237 147.5,-237 147.5,-215 8.5,-215"/>
<image xlink:href="../../images/primaryKeys.png" width="11px" height="12px" preserveAspectRatio="xMinYMin meet" x="13.5" y="-232"/>
<text text-anchor="start" x="30.5" y="-223.2" font-family="Helvetica,sans-Serif" font-size="11.00">parallel_group_id</text>
<polygon fill="#ffffff" stroke="transparent" points="8.5,-197 8.5,-215 50.5,-215 50.5,-197 8.5,-197"/>
<polygon fill="none" stroke="black" points="8.5,-197 8.5,-215 50.5,-215 50.5,-197 8.5,-197"/>
<text text-anchor="start" x="11.5" y="-203.2" font-family="Helvetica,sans-Serif" font-size="11.00"> &#160;</text>
<polygon fill="#ffffff" stroke="transparent" points="50.5,-197 50.5,-215 107.5,-215 107.5,-197 50.5,-197"/>
<polygon fill="none" stroke="black" points="50.5,-197 50.5,-215 107.5,-215 107.5,-197 50.5,-197"/>
<text text-anchor="start" x="67.5" y="-203.2" font-family="Helvetica,sans-Serif" font-size="11.00">0 rows</text>
<polygon fill="#ffffff" stroke="transparent" points="107.5,-197 107.5,-215 147.5,-215 147.5,-197 107.5,-197"/>
<polygon fill="none" stroke="black" points="107.5,-197 107.5,-215 147.5,-215 147.5,-197 107.5,-197"/>
<text text-anchor="start" x="124.5" y="-203.2" font-family="Helvetica,sans-Serif" font-size="11.00">3 &gt;</text>
</a>
</g>
</g>
<!-- parallel_group_pair&#45;&gt;parallel_group -->
<g id="edge2" class="edge">
<title>parallel_group_pair:w&#45;&gt;parallel_group:e</title>
<path fill="none" stroke="black" d="M182.76,-244.56C171.34,-238.38 166.25,-226 148.5,-226"/>
<polygon fill="black" stroke="black" points="189.22,-246.12 196.15,-251.5 193.11,-247.06 197,-248 197,-248 197,-248 193.11,-247.06 197.85,-244.5 189.22,-246.12 189.22,-246.12"/>
<ellipse fill="none" stroke="black" cx="186.11" cy="-245.37" rx="3.2" ry="3.2"/>
</g>
<!-- parallel_group_pair&#45;&gt;parallel_group -->
<g id="edge3" class="edge">
<title>parallel_group_pair:w&#45;&gt;parallel_group:e</title>
<path fill="none" stroke="black" d="M182.28,-226C171.29,-226 164.16,-226 148.5,-226"/>
<polygon fill="black" stroke="black" points="189,-226 197,-229.6 193,-226 197,-226 197,-226 197,-226 193,-226 197,-222.4 189,-226 189,-226"/>
<ellipse fill="none" stroke="black" cx="185.8" cy="-226" rx="3.2" ry="3.2"/>
</g>
<!-- parallel_group_pair_owner -->
<g id="node5" class="node">
<title>parallel_group_pair_owner</title>
<g id="a_node5"><a xlink:href="../../tables/parallel_group_pair_owner.html" xlink:title="parallel_group_pair_owner" target="_top">
<polygon fill="#ffffff" stroke="transparent" points="814.5,-334 814.5,-440 1025.5,-440 1025.5,-334 814.5,-334"/>
<polygon fill="#f5f5f5" stroke="transparent" points="815,-418 815,-440 1026,-440 1026,-418 815,-418"/>
<polygon fill="none" stroke="black" points="815,-418 815,-440 1026,-440 1026,-418 815,-418"/>
<text text-anchor="start" x="820" y="-427.2" font-family="Helvetica,sans-Serif" font-weight="bold" font-size="11.00">parallel_group_pair_owner</text>
<text text-anchor="start" x="984" y="-426.2" font-family="Helvetica,sans-Serif" font-size="11.00">[table]</text>
<polygon fill="none" stroke="black" points="815,-396 815,-418 1026,-418 1026,-396 815,-396"/>
<image xlink:href="../../images/primaryKeys.png" width="11px" height="12px" preserveAspectRatio="xMinYMin meet" x="820" y="-413"/>
<text text-anchor="start" x="842" y="-404.2" font-family="Helvetica,sans-Serif" font-size="11.00">parallel_group_pair_id</text>
<polygon fill="#ffffff" stroke="transparent" points="815,-374 815,-396 1026,-396 1026,-374 815,-374"/>
<polygon fill="none" stroke="black" points="815,-374 815,-396 1026,-396 1026,-374 815,-374"/>
<image xlink:href="../../images/foreignKeys.png" width="11px" height="12px" preserveAspectRatio="xMinYMin meet" x="820" y="-391"/>
<text text-anchor="start" x="842" y="-382.2" font-family="Helvetica,sans-Serif" font-size="11.00">edition_editor_id</text>
<polygon fill="none" stroke="black" points="815,-352 815,-374 1026,-374 1026,-352 815,-352"/>
<image xlink:href="../../images/primaryKeys.png" width="11px" height="12px" preserveAspectRatio="xMinYMin meet" x="820" y="-369"/>
<text text-anchor="start" x="842" y="-360.2" font-family="Helvetica,sans-Serif" font-size="11.00">edition_id</text>
<polygon fill="#ffffff" stroke="transparent" points="815,-334 815,-352 905,-352 905,-334 815,-334"/>
<polygon fill="none" stroke="black" points="815,-334 815,-352 905,-352 905,-334 815,-334"/>
<text text-anchor="start" x="818" y="-340.2" font-family="Helvetica,sans-Serif" font-size="11.00">&lt; 3</text>
<polygon fill="#ffffff" stroke="transparent" points="905,-334 905,-352 980,-352 980,-334 905,-334"/>
<polygon fill="none" stroke="black" points="905,-334 905,-352 980,-352 980,-334 905,-334"/>
<text text-anchor="start" x="940" y="-340.2" font-family="Helvetica,sans-Serif" font-size="11.00">0 rows</text>
<polygon fill="#ffffff" stroke="transparent" points="980,-334 980,-352 1026,-352 1026,-334 980,-334"/>
<polygon fill="none" stroke="black" points="980,-334 980,-352 1026,-352 1026,-334 980,-334"/>
<text text-anchor="start" x="1015" y="-340.2" font-family="Helvetica,sans-Serif" font-size="11.00"> &#160;</text>
</a>
</g>
</g>
<!-- parallel_group_pair_owner&#45;&gt;edition_editor -->
<g id="edge4" class="edge">
<title>parallel_group_pair_owner:w&#45;&gt;edition_editor:e</title>
<path fill="none" stroke="black" d="M799.53,-383.63C754.85,-374.7 749.87,-325 696.5,-325"/>
<polygon fill="black" stroke="black" points="806.04,-384.25 813.66,-388.58 810.02,-384.62 814,-385 814,-385 814,-385 810.02,-384.62 814.34,-381.42 806.04,-384.25 806.04,-384.25"/>
<ellipse fill="none" stroke="black" cx="802.85" cy="-383.95" rx="3.2" ry="3.2"/>
</g>
<!-- parallel_group_pair_owner&#45;&gt;edition -->
<g id="edge5" class="edge">
<title>parallel_group_pair_owner:w&#45;&gt;edition:e</title>
<path fill="none" stroke="black" d="M799.51,-363.29C781.12,-364.09 771.87,-366.28 748,-367 640.94,-370.24 613.9,-373.66 507,-367 456.93,-363.88 445.17,-353 395,-353"/>
<polygon fill="black" stroke="black" points="806,-363.16 814.07,-366.6 810,-363.08 814,-363 814,-363 814,-363 810,-363.08 813.93,-359.4 806,-363.16 806,-363.16"/>
<ellipse fill="none" stroke="black" cx="802.8" cy="-363.23" rx="3.2" ry="3.2"/>
</g>
<!-- parallel_group_pair_owner&#45;&gt;parallel_group_pair -->
<g id="edge6" class="edge">
<title>parallel_group_pair_owner:w&#45;&gt;parallel_group_pair:e</title>
<path fill="none" stroke="black" d="M799.38,-407.16C672.04,-409.93 612.91,-446.83 507,-367 469.48,-338.72 511.98,-270 465,-270"/>
<polygon fill="black" stroke="black" points="806,-407.09 814.04,-410.6 810,-407.04 814,-407 814,-407 814,-407 810,-407.04 813.96,-403.4 806,-407.09 806,-407.09"/>
<ellipse fill="none" stroke="black" cx="802.8" cy="-407.12" rx="3.2" ry="3.2"/>
</g>
<!-- parallel_group_pair_to_type -->
<g id="node6" class="node">
<title>parallel_group_pair_to_type</title>
<g id="a_node6"><a xlink:href="../../tables/parallel_group_pair_to_type.html" xlink:title="parallel_group_pair_to_type" target="_top">
<polygon fill="#ffffff" stroke="transparent" points="515,-144 515,-250 740,-250 740,-144 515,-144"/>
<polygon fill="#f5f5f5" stroke="transparent" points="515.5,-228 515.5,-250 740.5,-250 740.5,-228 515.5,-228"/>
<polygon fill="none" stroke="black" points="515.5,-228 515.5,-250 740.5,-250 740.5,-228 515.5,-228"/>
<text text-anchor="start" x="520.5" y="-237.2" font-family="Helvetica,sans-Serif" font-weight="bold" font-size="11.00">parallel_group_pair_to_type</text>
<text text-anchor="start" x="698.5" y="-236.2" font-family="Helvetica,sans-Serif" font-size="11.00">[table]</text>
<polygon fill="none" stroke="black" points="515.5,-206 515.5,-228 740.5,-228 740.5,-206 515.5,-206"/>
<image xlink:href="../../images/primaryKeys.png" width="11px" height="12px" preserveAspectRatio="xMinYMin meet" x="520.5" y="-223"/>
<text text-anchor="start" x="535.5" y="-214.2" font-family="Helvetica,sans-Serif" font-size="11.00">parallel_group_pair_to_type_id</text>
<polygon fill="#ffffff" stroke="transparent" points="515.5,-184 515.5,-206 740.5,-206 740.5,-184 515.5,-184"/>
<polygon fill="none" stroke="black" points="515.5,-184 515.5,-206 740.5,-206 740.5,-184 515.5,-184"/>
<image xlink:href="../../images/foreignKeys.png" width="11px" height="12px" preserveAspectRatio="xMinYMin meet" x="520.5" y="-201"/>
<text text-anchor="start" x="535.5" y="-192.2" font-family="Helvetica,sans-Serif" font-size="11.00">parallel_group_pair_id</text>
<polygon fill="#ffffff" stroke="transparent" points="515.5,-162 515.5,-184 740.5,-184 740.5,-162 515.5,-162"/>
<polygon fill="none" stroke="black" points="515.5,-162 515.5,-184 740.5,-184 740.5,-162 515.5,-162"/>
<image xlink:href="../../images/foreignKeys.png" width="11px" height="12px" preserveAspectRatio="xMinYMin meet" x="520.5" y="-179"/>
<text text-anchor="start" x="535.5" y="-170.2" font-family="Helvetica,sans-Serif" font-size="11.00">parallel_type_id</text>
<polygon fill="#ffffff" stroke="transparent" points="515.5,-144 515.5,-162 606.5,-162 606.5,-144 515.5,-144"/>
<polygon fill="none" stroke="black" points="515.5,-144 515.5,-162 606.5,-162 606.5,-144 515.5,-144"/>
<text text-anchor="start" x="518.5" y="-150.2" font-family="Helvetica,sans-Serif" font-size="11.00">&lt; 2</text>
<polygon fill="#ffffff" stroke="transparent" points="606.5,-144 606.5,-162 681.5,-162 681.5,-144 606.5,-144"/>
<polygon fill="none" stroke="black" points="606.5,-144 606.5,-162 681.5,-162 681.5,-144 606.5,-144"/>
<text text-anchor="start" x="641.5" y="-150.2" font-family="Helvetica,sans-Serif" font-size="11.00">0 rows</text>
<polygon fill="#ffffff" stroke="transparent" points="681.5,-144 681.5,-162 740.5,-162 740.5,-144 681.5,-144"/>
<polygon fill="none" stroke="black" points="681.5,-144 681.5,-162 740.5,-162 740.5,-144 681.5,-144"/>
<text text-anchor="start" x="717.5" y="-150.2" font-family="Helvetica,sans-Serif" font-size="11.00">1 &gt;</text>
</a>
</g>
</g>
<!-- parallel_group_pair_to_type&#45;&gt;parallel_group_pair -->
<g id="edge7" class="edge">
<title>parallel_group_pair_to_type:w&#45;&gt;parallel_group_pair:e</title>
<path fill="none" stroke="black" d="M500.65,-199.69C482.18,-216.11 498.85,-270 465,-270"/>
<polygon fill="black" stroke="black" points="506.92,-197.57 515.65,-198.41 510.71,-196.28 514.5,-195 514.5,-195 514.5,-195 510.71,-196.28 513.35,-191.59 506.92,-197.57 506.92,-197.57"/>
<ellipse fill="none" stroke="black" cx="503.89" cy="-198.59" rx="3.2" ry="3.2"/>
</g>
<!-- parallel_type -->
<g id="node7" class="node">
<title>parallel_type</title>
<g id="a_node7"><a xlink:href="../../tables/parallel_type.html" xlink:title="parallel_type" target="_top">
<polygon fill="#ffffff" stroke="transparent" points="265.5,-37 265.5,-95 396.5,-95 396.5,-37 265.5,-37"/>
<polygon fill="#f5f5f5" stroke="transparent" points="266,-73 266,-95 397,-95 397,-73 266,-73"/>
<polygon fill="none" stroke="black" points="266,-73 266,-95 397,-95 397,-73 266,-73"/>
<text text-anchor="start" x="271" y="-82.2" font-family="Helvetica,sans-Serif" font-weight="bold" font-size="11.00">parallel_type</text>
<text text-anchor="start" x="355" y="-81.2" font-family="Helvetica,sans-Serif" font-size="11.00">[table]</text>
<polygon fill="none" stroke="black" points="266,-55 266,-73 397,-73 397,-55 266,-55"/>
<text text-anchor="start" x="269" y="-61.2" font-family="Helvetica,sans-Serif" font-size="11.00">...</text>
<polygon fill="#ffffff" stroke="transparent" points="266,-37 266,-55 310,-55 310,-37 266,-37"/>
<polygon fill="none" stroke="black" points="266,-37 266,-55 310,-55 310,-37 266,-37"/>
<text text-anchor="start" x="269" y="-43.2" font-family="Helvetica,sans-Serif" font-size="11.00">&lt; 1</text>
<polygon fill="#ffffff" stroke="transparent" points="310,-37 310,-55 362,-55 362,-37 310,-37"/>
<polygon fill="none" stroke="black" points="310,-37 310,-55 362,-55 362,-37 310,-37"/>
<text text-anchor="start" x="322" y="-43.2" font-family="Helvetica,sans-Serif" font-size="11.00">0 rows</text>
<polygon fill="#ffffff" stroke="transparent" points="362,-37 362,-55 397,-55 397,-37 362,-37"/>
<polygon fill="none" stroke="black" points="362,-37 362,-55 397,-55 397,-37 362,-37"/>
<text text-anchor="start" x="374" y="-43.2" font-family="Helvetica,sans-Serif" font-size="11.00">3 &gt;</text>
</a>
</g>
</g>
<!-- parallel_group_pair_to_type&#45;&gt;parallel_type -->
<g id="edge8" class="edge">
<title>parallel_group_pair_to_type:w&#45;&gt;parallel_type:e</title>
<path fill="none" stroke="black" d="M500.3,-169.14C485.07,-157.93 494.83,-124.97 474,-105 446.29,-78.44 436.38,-64 398,-64"/>
<polygon fill="black" stroke="black" points="506.78,-170.9 513.55,-176.47 510.64,-171.95 514.5,-173 514.5,-173 514.5,-173 510.64,-171.95 515.45,-169.53 506.78,-170.9 506.78,-170.9"/>
<ellipse fill="none" stroke="black" cx="503.69" cy="-170.06" rx="3.2" ry="3.2"/>
</g>
<!-- parallel_group_pair_to_type_owner -->
<g id="node8" class="node">
<title>parallel_group_pair_to_type_owner</title>
<g id="a_node8"><a xlink:href="../../tables/parallel_group_pair_to_type_owner.html" xlink:title="parallel_group_pair_to_type_owner" target="_top">
<polygon fill="#ffffff" stroke="transparent" points="789,-247 789,-305 1051,-305 1051,-247 789,-247"/>
<polygon fill="#f5f5f5" stroke="transparent" points="789,-283 789,-305 1051,-305 1051,-283 789,-283"/>
<polygon fill="none" stroke="black" points="789,-283 789,-305 1051,-305 1051,-283 789,-283"/>
<text text-anchor="start" x="794" y="-292.2" font-family="Helvetica,sans-Serif" font-weight="bold" font-size="11.00">parallel_group_pair_to_type_owner</text>
<text text-anchor="start" x="1009" y="-291.2" font-family="Helvetica,sans-Serif" font-size="11.00">[table]</text>
<polygon fill="none" stroke="black" points="789,-265 789,-283 1051,-283 1051,-265 789,-265"/>
<text text-anchor="start" x="792" y="-271.2" font-family="Helvetica,sans-Serif" font-size="11.00">...</text>
<polygon fill="#ffffff" stroke="transparent" points="789,-247 789,-265 904,-265 904,-247 789,-247"/>
<polygon fill="none" stroke="black" points="789,-247 789,-265 904,-265 904,-247 789,-247"/>
<text text-anchor="start" x="792" y="-253.2" font-family="Helvetica,sans-Serif" font-size="11.00">&lt; 3</text>
<polygon fill="#ffffff" stroke="transparent" points="904,-247 904,-265 992,-265 992,-247 904,-247"/>
<polygon fill="none" stroke="black" points="904,-247 904,-265 992,-265 992,-247 904,-247"/>
<text text-anchor="start" x="952" y="-253.2" font-family="Helvetica,sans-Serif" font-size="11.00">0 rows</text>
<polygon fill="#ffffff" stroke="transparent" points="992,-247 992,-265 1051,-265 1051,-247 992,-247"/>
<polygon fill="none" stroke="black" points="992,-247 992,-265 1051,-265 1051,-247 992,-247"/>
<text text-anchor="start" x="1040" y="-253.2" font-family="Helvetica,sans-Serif" font-size="11.00"> &#160;</text>
</a>
</g>
</g>
<!-- parallel_group_pair_to_type_owner&#45;&gt;edition_editor -->
<g id="edge9" class="edge">
<title>parallel_group_pair_to_type_owner:w&#45;&gt;edition_editor:e</title>
<path fill="none" stroke="black" d="M773.46,-275.94C741.16,-285.25 737.6,-325 696.5,-325"/>
<polygon fill="black" stroke="black" points="780.07,-275.06 788.48,-277.57 784.04,-274.53 788,-274 788,-274 788,-274 784.04,-274.53 787.52,-270.43 780.07,-275.06 780.07,-275.06"/>
<ellipse fill="none" stroke="black" cx="776.9" cy="-275.48" rx="3.2" ry="3.2"/>
</g>
<!-- parallel_group_pair_to_type_owner&#45;&gt;edition -->
<g id="edge10" class="edge">
<title>parallel_group_pair_to_type_owner:w&#45;&gt;edition:e</title>
<path fill="none" stroke="black" d="M773.38,-273.85C659.66,-271.56 618.62,-243.84 507,-288 489.11,-295.08 490.19,-305.61 474,-316 441.38,-336.95 433.77,-353 395,-353"/>
<polygon fill="black" stroke="black" points="780,-273.92 787.96,-277.6 784,-273.96 788,-274 788,-274 788,-274 784,-273.96 788.04,-270.4 780,-273.92 780,-273.92"/>
<ellipse fill="none" stroke="black" cx="776.8" cy="-273.89" rx="3.2" ry="3.2"/>
</g>
<!-- parallel_group_pair_to_type_owner&#45;&gt;parallel_group_pair_to_type -->
<g id="edge11" class="edge">
<title>parallel_group_pair_to_type_owner:w&#45;&gt;parallel_group_pair_to_type:e</title>
<path fill="none" stroke="black" d="M774.37,-268.74C760.58,-254.63 768.06,-217 741.5,-217"/>
<polygon fill="black" stroke="black" points="780.54,-271.12 786.7,-277.36 784.27,-272.56 788,-274 788,-274 788,-274 784.27,-272.56 789.3,-270.64 780.54,-271.12 780.54,-271.12"/>
<ellipse fill="none" stroke="black" cx="777.55" cy="-269.97" rx="3.2" ry="3.2"/>
</g>
<!-- parallel_sign_stream_section -->
<g id="node9" class="node">
<title>parallel_sign_stream_section</title>
<g id="a_node9"><a xlink:href="../../tables/parallel_sign_stream_section.html" xlink:title="parallel_sign_stream_section" target="_top">
<polygon fill="#ffffff" stroke="transparent" points="217,-116 217,-174 445,-174 445,-116 217,-116"/>
<polygon fill="#f5f5f5" stroke="transparent" points="217,-152 217,-174 445,-174 445,-152 217,-152"/>
<polygon fill="none" stroke="black" points="217,-152 217,-174 445,-174 445,-152 217,-152"/>
<text text-anchor="start" x="222" y="-161.2" font-family="Helvetica,sans-Serif" font-weight="bold" font-size="11.00">parallel_sign_stream_section</text>
<text text-anchor="start" x="403" y="-160.2" font-family="Helvetica,sans-Serif" font-size="11.00">[table]</text>
<polygon fill="none" stroke="black" points="217,-134 217,-152 445,-152 445,-134 217,-134"/>
<text text-anchor="start" x="220" y="-140.2" font-family="Helvetica,sans-Serif" font-size="11.00">...</text>
<polygon fill="#ffffff" stroke="transparent" points="217,-116 217,-134 309,-134 309,-116 217,-116"/>
<polygon fill="none" stroke="black" points="217,-116 217,-134 309,-134 309,-116 217,-116"/>
<text text-anchor="start" x="220" y="-122.2" font-family="Helvetica,sans-Serif" font-size="11.00">&lt; 2</text>
<polygon fill="#ffffff" stroke="transparent" points="309,-116 309,-134 385,-134 385,-116 309,-116"/>
<polygon fill="none" stroke="black" points="309,-116 309,-134 385,-134 385,-116 309,-116"/>
<text text-anchor="start" x="345" y="-122.2" font-family="Helvetica,sans-Serif" font-size="11.00">0 rows</text>
<polygon fill="#ffffff" stroke="transparent" points="385,-116 385,-134 445,-134 445,-116 385,-116"/>
<polygon fill="none" stroke="black" points="385,-116 385,-134 445,-134 445,-116 385,-116"/>
<text text-anchor="start" x="422" y="-122.2" font-family="Helvetica,sans-Serif" font-size="11.00">1 &gt;</text>
</a>
</g>
</g>
<!-- parallel_sign_stream_section&#45;&gt;parallel_group -->
<g id="edge12" class="edge">
<title>parallel_sign_stream_section:w&#45;&gt;parallel_group:e</title>
<path fill="none" stroke="black" d="M201.77,-146.36C174.03,-161.88 190.29,-226 148.5,-226"/>
<polygon fill="black" stroke="black" points="208.21,-144.84 216.83,-146.5 212.11,-143.92 216,-143 216,-143 216,-143 212.11,-143.92 215.17,-139.5 208.21,-144.84 208.21,-144.84"/>
<ellipse fill="none" stroke="black" cx="205.1" cy="-145.57" rx="3.2" ry="3.2"/>
</g>
</g>
</svg>
