<?xml version="1.0" encoding="UTF-8" standalone="no"?>
<!DOCTYPE svg PUBLIC "-//W3C//DTD SVG 1.1//EN"
 "http://www.w3.org/Graphics/SVG/1.1/DTD/svg11.dtd">
<!-- Generated by graphviz version 2.43.0 (0)
 -->
<!-- Title: twoDegreesRelationshipsDiagram Pages: 1 -->
<svg width="903pt" height="558pt"
 viewBox="0.00 0.00 903.00 558.00" xmlns="http://www.w3.org/2000/svg" xmlns:xlink="http://www.w3.org/1999/xlink">
<g id="graph0" class="graph" transform="scale(1 1) rotate(0) translate(4 554)">
<title>twoDegreesRelationshipsDiagram</title>
<polygon fill="#ffffff" stroke="transparent" points="-4,4 -4,-554 899,-554 899,4 -4,4"/>
<text text-anchor="middle" x="79.5" y="-7.2" font-family="Helvetica,sans-Serif" font-size="11.00">Generated by SchemaSpy</text>
<!-- edition_editor -->
<g id="node1" class="node">
<title>edition_editor</title>
<g id="a_node1"><a xlink:href="../../tables/edition_editor.html" xlink:title="edition_editor" target="_top">
<polygon fill="#ffffff" stroke="transparent" points="332,-249 332,-307 468,-307 468,-249 332,-249"/>
<polygon fill="#f5f5f5" stroke="transparent" points="332,-285 332,-307 468,-307 468,-285 332,-285"/>
<polygon fill="none" stroke="black" points="332,-285 332,-307 468,-307 468,-285 332,-285"/>
<text text-anchor="start" x="337" y="-294.2" font-family="Helvetica,sans-Serif" font-weight="bold" font-size="11.00">edition_editor</text>
<text text-anchor="start" x="426" y="-293.2" font-family="Helvetica,sans-Serif" font-size="11.00">[table]</text>
<polygon fill="none" stroke="black" points="332,-267 332,-285 468,-285 468,-267 332,-267"/>
<text text-anchor="start" x="335" y="-273.2" font-family="Helvetica,sans-Serif" font-size="11.00">...</text>
<polygon fill="#ffffff" stroke="transparent" points="332,-249 332,-267 363,-267 363,-249 332,-249"/>
<polygon fill="none" stroke="black" points="332,-249 332,-267 363,-267 363,-249 332,-249"/>
<text text-anchor="start" x="335" y="-255.2" font-family="Helvetica,sans-Serif" font-size="11.00">&lt; 2</text>
<polygon fill="#ffffff" stroke="transparent" points="363,-249 363,-267 432,-267 432,-249 363,-249"/>
<polygon fill="none" stroke="black" points="363,-249 363,-267 432,-267 432,-249 363,-249"/>
<text text-anchor="start" x="368" y="-255.2" font-family="Helvetica,sans-Serif" font-size="11.00">1,645 rows</text>
<polygon fill="#ffffff" stroke="transparent" points="432,-249 432,-267 468,-267 468,-249 432,-249"/>
<polygon fill="none" stroke="black" points="432,-249 432,-267 468,-267 468,-249 432,-249"/>
<text text-anchor="start" x="438" y="-255.2" font-family="Helvetica,sans-Serif" font-size="11.00">33 &gt;</text>
</a>
</g>
</g>
<!-- edition -->
<g id="node2" class="node">
<title>edition</title>
<g id="a_node2"><a xlink:href="../../tables/edition.html" xlink:title="edition" target="_top">
<polygon fill="#ffffff" stroke="transparent" points="33,-249 33,-307 159,-307 159,-249 33,-249"/>
<polygon fill="#f5f5f5" stroke="transparent" points="33,-285 33,-307 159,-307 159,-285 33,-285"/>
<polygon fill="none" stroke="black" points="33,-285 33,-307 159,-307 159,-285 33,-285"/>
<text text-anchor="start" x="38" y="-294.2" font-family="Helvetica,sans-Serif" font-weight="bold" font-size="11.00">edition</text>
<text text-anchor="start" x="117" y="-293.2" font-family="Helvetica,sans-Serif" font-size="11.00">[table]</text>
<polygon fill="none" stroke="black" points="33,-267 33,-285 159,-285 159,-267 33,-267"/>
<text text-anchor="start" x="36" y="-273.2" font-family="Helvetica,sans-Serif" font-size="11.00">...</text>
<polygon fill="#ffffff" stroke="transparent" points="33,-249 33,-267 59,-267 59,-249 33,-249"/>
<polygon fill="none" stroke="black" points="33,-249 33,-267 59,-267 59,-249 33,-249"/>
<text text-anchor="start" x="36" y="-255.2" font-family="Helvetica,sans-Serif" font-size="11.00">&lt; 1</text>
<polygon fill="#ffffff" stroke="transparent" points="59,-249 59,-267 126,-267 126,-249 59,-249"/>
<polygon fill="none" stroke="black" points="59,-249 59,-267 126,-267 126,-249 59,-249"/>
<text text-anchor="start" x="62" y="-255.2" font-family="Helvetica,sans-Serif" font-size="11.00">1,645 rows</text>
<polygon fill="#ffffff" stroke="transparent" points="126,-249 126,-267 159,-267 159,-249 126,-249"/>
<polygon fill="none" stroke="black" points="126,-249 126,-267 159,-267 159,-249 126,-249"/>
<text text-anchor="start" x="129" y="-255.2" font-family="Helvetica,sans-Serif" font-size="11.00">35 &gt;</text>
</a>
</g>
</g>
<!-- edition_editor&#45;&gt;edition -->
<g id="edge1" class="edge">
<title>edition_editor:w&#45;&gt;edition:e</title>
<path fill="none" stroke="black" d="M316.58,-276C252.23,-276 230.95,-276 160,-276"/>
<polygon fill="black" stroke="black" points="323,-276 331,-279.6 327,-276 331,-276 331,-276 331,-276 327,-276 331,-272.4 323,-276 323,-276"/>
<ellipse fill="none" stroke="black" cx="319.8" cy="-276" rx="3.2" ry="3.2"/>
</g>
<!-- parallel_group_pair -->
<g id="node3" class="node">
<title>parallel_group_pair</title>
<g id="a_node3"><a xlink:href="../../tables/parallel_group_pair.html" xlink:title="parallel_group_pair" target="_top">
<polygon fill="#ffffff" stroke="transparent" points="316,-486 316,-544 484,-544 484,-486 316,-486"/>
<polygon fill="#f5f5f5" stroke="transparent" points="316,-522 316,-544 484,-544 484,-522 316,-522"/>
<polygon fill="none" stroke="black" points="316,-522 316,-544 484,-544 484,-522 316,-522"/>
<text text-anchor="start" x="321" y="-531.2" font-family="Helvetica,sans-Serif" font-weight="bold" font-size="11.00">parallel_group_pair</text>
<text text-anchor="start" x="442" y="-530.2" font-family="Helvetica,sans-Serif" font-size="11.00">[table]</text>
<polygon fill="none" stroke="black" points="316,-504 316,-522 484,-522 484,-504 316,-504"/>
<text text-anchor="start" x="319" y="-510.2" font-family="Helvetica,sans-Serif" font-size="11.00">...</text>
<polygon fill="#ffffff" stroke="transparent" points="316,-486 316,-504 378,-504 378,-486 316,-486"/>
<polygon fill="none" stroke="black" points="316,-486 316,-504 378,-504 378,-486 316,-486"/>
<text text-anchor="start" x="319" y="-492.2" font-family="Helvetica,sans-Serif" font-size="11.00">&lt; 2</text>
<polygon fill="#ffffff" stroke="transparent" points="378,-486 378,-504 439,-504 439,-486 378,-486"/>
<polygon fill="none" stroke="black" points="378,-486 378,-504 439,-504 439,-486 378,-486"/>
<text text-anchor="start" x="399" y="-492.2" font-family="Helvetica,sans-Serif" font-size="11.00">0 rows</text>
<polygon fill="#ffffff" stroke="transparent" points="439,-486 439,-504 484,-504 484,-486 439,-486"/>
<polygon fill="none" stroke="black" points="439,-486 439,-504 484,-504 484,-486 439,-486"/>
<text text-anchor="start" x="461" y="-492.2" font-family="Helvetica,sans-Serif" font-size="11.00">2 &gt;</text>
</a>
</g>
</g>
<!-- parallel_group -->
<g id="node4" class="node">
<title>parallel_group</title>
<g id="a_node4"><a xlink:href="../../tables/parallel_group.html" xlink:title="parallel_group" target="_top">
<polygon fill="#ffffff" stroke="transparent" points="26.5,-484 26.5,-546 165.5,-546 165.5,-484 26.5,-484"/>
<polygon fill="#f5f5f5" stroke="transparent" points="27,-524 27,-546 166,-546 166,-524 27,-524"/>
<polygon fill="none" stroke="black" points="27,-524 27,-546 166,-546 166,-524 27,-524"/>
<text text-anchor="start" x="32" y="-533.2" font-family="Helvetica,sans-Serif" font-weight="bold" font-size="11.00">parallel_group</text>
<text text-anchor="start" x="124" y="-532.2" font-family="Helvetica,sans-Serif" font-size="11.00">[table]</text>
<polygon fill="none" stroke="black" points="27,-502 27,-524 166,-524 166,-502 27,-502"/>
<image xlink:href="../../images/primaryKeys.png" width="11px" height="12px" preserveAspectRatio="xMinYMin meet" x="32" y="-519"/>
<text text-anchor="start" x="49" y="-510.2" font-family="Helvetica,sans-Serif" font-size="11.00">parallel_group_id</text>
<polygon fill="#ffffff" stroke="transparent" points="27,-484 27,-502 69,-502 69,-484 27,-484"/>
<polygon fill="none" stroke="black" points="27,-484 27,-502 69,-502 69,-484 27,-484"/>
<text text-anchor="start" x="30" y="-490.2" font-family="Helvetica,sans-Serif" font-size="11.00"> &#160;</text>
<polygon fill="#ffffff" stroke="transparent" points="69,-484 69,-502 126,-502 126,-484 69,-484"/>
<polygon fill="none" stroke="black" points="69,-484 69,-502 126,-502 126,-484 69,-484"/>
<text text-anchor="start" x="86" y="-490.2" font-family="Helvetica,sans-Serif" font-size="11.00">0 rows</text>
<polygon fill="#ffffff" stroke="transparent" points="126,-484 126,-502 166,-502 166,-484 126,-484"/>
<polygon fill="none" stroke="black" points="126,-484 126,-502 166,-502 166,-484 126,-484"/>
<text text-anchor="start" x="143" y="-490.2" font-family="Helvetica,sans-Serif" font-size="11.00">3 &gt;</text>
</a>
</g>
</g>
<!-- parallel_group_pair&#45;&gt;parallel_group -->
<g id="edge2" class="edge">
<title>parallel_group_pair:w&#45;&gt;parallel_group:e</title>
<path fill="none" stroke="black" d="M300.44,-511.7C246.35,-507.04 227.64,-507.47 167,-513"/>
<polygon fill="black" stroke="black" points="307.03,-512.29 314.68,-516.59 311.02,-512.65 315,-513 315,-513 315,-513 311.02,-512.65 315.32,-509.41 307.03,-512.29 307.03,-512.29"/>
<ellipse fill="none" stroke="black" cx="303.84" cy="-512.01" rx="3.2" ry="3.2"/>
</g>
<!-- parallel_group_pair&#45;&gt;parallel_group -->
<g id="edge3" class="edge">
<title>parallel_group_pair:w&#45;&gt;parallel_group:e</title>
<path fill="none" stroke="black" d="M300.44,-514.51C246.35,-519.96 227.64,-519.45 167,-513"/>
<polygon fill="black" stroke="black" points="307.04,-513.83 315.37,-516.58 311.02,-513.41 315,-513 315,-513 315,-513 311.02,-513.41 314.63,-509.42 307.04,-513.83 307.04,-513.83"/>
<ellipse fill="none" stroke="black" cx="303.86" cy="-514.16" rx="3.2" ry="3.2"/>
</g>
<!-- parallel_sign_stream_section -->
<g id="node5" class="node">
<title>parallel_sign_stream_section</title>
<g id="a_node5"><a xlink:href="../../tables/parallel_sign_stream_section.html" xlink:title="parallel_sign_stream_section" target="_top">
<polygon fill="#ffffff" stroke="transparent" points="233,-355 233,-465 567,-465 567,-355 233,-355"/>
<polygon fill="#f5f5f5" stroke="transparent" points="235,-441 235,-463 565,-463 565,-441 235,-441"/>
<polygon fill="none" stroke="black" points="235,-441 235,-463 565,-463 565,-441 235,-441"/>
<text text-anchor="start" x="240" y="-450.2" font-family="Helvetica,sans-Serif" font-weight="bold" font-size="11.00">parallel_sign_stream_section</text>
<text text-anchor="start" x="523" y="-449.2" font-family="Helvetica,sans-Serif" font-size="11.00">[table]</text>
<polygon fill="none" stroke="black" points="235,-419 235,-441 468,-441 468,-419 235,-419"/>
<image xlink:href="../../images/primaryKeys.png" width="11px" height="12px" preserveAspectRatio="xMinYMin meet" x="240" y="-436"/>
<text text-anchor="start" x="255" y="-427.2" font-family="Helvetica,sans-Serif" font-size="11.00">parallel_sign_stream_section_id</text>
<polygon fill="none" stroke="black" points="468,-419 468,-441 565,-441 565,-419 468,-419"/>
<text text-anchor="start" x="471" y="-427.2" font-family="Helvetica,sans-Serif" font-size="11.00">int unsigned[10]</text>
<polygon fill="#ffffff" stroke="transparent" points="235,-397 235,-419 468,-419 468,-397 235,-397"/>
<polygon fill="none" stroke="black" points="235,-397 235,-419 468,-419 468,-397 235,-397"/>
<image xlink:href="../../images/foreignKeys.png" width="11px" height="12px" preserveAspectRatio="xMinYMin meet" x="240" y="-414"/>
<text text-anchor="start" x="255" y="-405.2" font-family="Helvetica,sans-Serif" font-size="11.00">sign_stream_section_id</text>
<polygon fill="none" stroke="black" points="468,-397 468,-419 565,-419 565,-397 468,-397"/>
<text text-anchor="start" x="471" y="-405.2" font-family="Helvetica,sans-Serif" font-size="11.00">int unsigned[10]</text>
<polygon fill="#ffffff" stroke="transparent" points="235,-375 235,-397 468,-397 468,-375 235,-375"/>
<polygon fill="none" stroke="black" points="235,-375 235,-397 468,-397 468,-375 235,-375"/>
<image xlink:href="../../images/foreignKeys.png" width="11px" height="12px" preserveAspectRatio="xMinYMin meet" x="240" y="-392"/>
<text text-anchor="start" x="255" y="-383.2" font-family="Helvetica,sans-Serif" font-size="11.00">parallel_group_id</text>
<polygon fill="none" stroke="black" points="468,-375 468,-397 565,-397 565,-375 468,-375"/>
<text text-anchor="start" x="471" y="-383.2" font-family="Helvetica,sans-Serif" font-size="11.00">int unsigned[10]</text>
<polygon fill="#ffffff" stroke="transparent" points="235,-357 235,-375 343,-375 343,-357 235,-357"/>
<polygon fill="none" stroke="black" points="235,-357 235,-375 343,-375 343,-357 235,-357"/>
<text text-anchor="start" x="238" y="-363.2" font-family="Helvetica,sans-Serif" font-size="11.00">&lt; 2</text>
<polygon fill="#ffffff" stroke="transparent" points="343,-357 343,-375 468,-375 468,-357 343,-357"/>
<polygon fill="none" stroke="black" points="343,-357 343,-375 468,-375 468,-357 343,-357"/>
<text text-anchor="start" x="428" y="-363.2" font-family="Helvetica,sans-Serif" font-size="11.00">0 rows</text>
<polygon fill="#ffffff" stroke="transparent" points="468,-357 468,-375 565,-375 565,-357 468,-357"/>
<polygon fill="none" stroke="black" points="468,-357 468,-375 565,-375 565,-357 468,-357"/>
<text text-anchor="start" x="542" y="-363.2" font-family="Helvetica,sans-Serif" font-size="11.00">1 &gt;</text>
<polygon fill="none" stroke="black" stroke-width="2" points="234,-356 234,-464 566,-464 566,-356 234,-356"/>
</a>
</g>
</g>
<!-- parallel_sign_stream_section&#45;&gt;parallel_group -->
<g id="edge4" class="edge">
<title>parallel_sign_stream_section:w&#45;&gt;parallel_group:e</title>
<path fill="none" stroke="black" d="M219.63,-388.89C180.07,-407.8 225.08,-513 167,-513"/>
<polygon fill="black" stroke="black" points="226.16,-387.58 234.71,-389.53 230.08,-386.79 234,-386 234,-386 234,-386 230.08,-386.79 233.29,-382.47 226.16,-387.58 226.16,-387.58"/>
<ellipse fill="none" stroke="black" cx="223.02" cy="-388.21" rx="3.2" ry="3.2"/>
</g>
<!-- sign_stream_section -->
<g id="node6" class="node">
<title>sign_stream_section</title>
<g id="a_node6"><a xlink:href="../../tables/sign_stream_section.html" xlink:title="sign_stream_section" target="_top">
<polygon fill="#ffffff" stroke="transparent" points="8,-122 8,-202 184,-202 184,-122 8,-122"/>
<polygon fill="#f5f5f5" stroke="transparent" points="8,-180 8,-202 184,-202 184,-180 8,-180"/>
<polygon fill="none" stroke="black" points="8,-180 8,-202 184,-202 184,-180 8,-180"/>
<text text-anchor="start" x="13" y="-189.2" font-family="Helvetica,sans-Serif" font-weight="bold" font-size="11.00">sign_stream_section</text>
<text text-anchor="start" x="142" y="-188.2" font-family="Helvetica,sans-Serif" font-size="11.00">[table]</text>
<polygon fill="none" stroke="black" points="8,-158 8,-180 184,-180 184,-158 8,-158"/>
<image xlink:href="../../images/primaryKeys.png" width="11px" height="12px" preserveAspectRatio="xMinYMin meet" x="13" y="-175"/>
<text text-anchor="start" x="28" y="-166.2" font-family="Helvetica,sans-Serif" font-size="11.00">sign_stream_section_id</text>
<polygon fill="none" stroke="black" points="8,-140 8,-158 184,-158 184,-140 8,-140"/>
<text text-anchor="start" x="11" y="-146.2" font-family="Helvetica,sans-Serif" font-size="11.00">...</text>
<polygon fill="#ffffff" stroke="transparent" points="8,-122 8,-140 68,-140 68,-122 8,-122"/>
<polygon fill="none" stroke="black" points="8,-122 8,-140 68,-140 68,-122 8,-122"/>
<text text-anchor="start" x="11" y="-128.2" font-family="Helvetica,sans-Serif" font-size="11.00"> &#160;</text>
<polygon fill="#ffffff" stroke="transparent" points="68,-122 68,-140 134,-140 134,-122 68,-122"/>
<polygon fill="none" stroke="black" points="68,-122 68,-140 134,-140 134,-122 68,-122"/>
<text text-anchor="start" x="94" y="-128.2" font-family="Helvetica,sans-Serif" font-size="11.00">2 rows</text>
<polygon fill="#ffffff" stroke="transparent" points="134,-122 134,-140 184,-140 184,-122 134,-122"/>
<polygon fill="none" stroke="black" points="134,-122 134,-140 184,-140 184,-122 134,-122"/>
<text text-anchor="start" x="161" y="-128.2" font-family="Helvetica,sans-Serif" font-size="11.00">4 &gt;</text>
</a>
</g>
</g>
<!-- parallel_sign_stream_section&#45;&gt;sign_stream_section -->
<g id="edge5" class="edge">
<title>parallel_sign_stream_section:w&#45;&gt;sign_stream_section:e</title>
<path fill="none" stroke="black" d="M219.55,-406.21C141.9,-384.34 287.93,-169 185,-169"/>
<polygon fill="black" stroke="black" points="226.06,-407.02 233.56,-411.57 230.03,-407.51 234,-408 234,-408 234,-408 230.03,-407.51 234.44,-404.43 226.06,-407.02 226.06,-407.02"/>
<ellipse fill="none" stroke="black" cx="222.88" cy="-406.63" rx="3.2" ry="3.2"/>
</g>
<!-- parallel_sign_stream_section_owner -->
<g id="node7" class="node">
<title>parallel_sign_stream_section_owner</title>
<g id="a_node7"><a xlink:href="../../tables/parallel_sign_stream_section_owner.html" xlink:title="parallel_sign_stream_section_owner" target="_top">
<polygon fill="#ffffff" stroke="transparent" points="616,-302 616,-408 887,-408 887,-302 616,-302"/>
<polygon fill="#f5f5f5" stroke="transparent" points="616.5,-386 616.5,-408 887.5,-408 887.5,-386 616.5,-386"/>
<polygon fill="none" stroke="black" points="616.5,-386 616.5,-408 887.5,-408 887.5,-386 616.5,-386"/>
<text text-anchor="start" x="621.5" y="-395.2" font-family="Helvetica,sans-Serif" font-weight="bold" font-size="11.00">parallel_sign_stream_section_owner</text>
<text text-anchor="start" x="845.5" y="-394.2" font-family="Helvetica,sans-Serif" font-size="11.00">[table]</text>
<polygon fill="none" stroke="black" points="616.5,-364 616.5,-386 887.5,-386 887.5,-364 616.5,-364"/>
<image xlink:href="../../images/primaryKeys.png" width="11px" height="12px" preserveAspectRatio="xMinYMin meet" x="621.5" y="-381"/>
<text text-anchor="start" x="640.5" y="-372.2" font-family="Helvetica,sans-Serif" font-size="11.00">parallel_sign_stream_section_id</text>
<polygon fill="#ffffff" stroke="transparent" points="616.5,-342 616.5,-364 887.5,-364 887.5,-342 616.5,-342"/>
<polygon fill="none" stroke="black" points="616.5,-342 616.5,-364 887.5,-364 887.5,-342 616.5,-342"/>
<image xlink:href="../../images/foreignKeys.png" width="11px" height="12px" preserveAspectRatio="xMinYMin meet" x="621.5" y="-359"/>
<text text-anchor="start" x="640.5" y="-350.2" font-family="Helvetica,sans-Serif" font-size="11.00">edition_editor_id</text>
<polygon fill="none" stroke="black" points="616.5,-320 616.5,-342 887.5,-342 887.5,-320 616.5,-320"/>
<image xlink:href="../../images/primaryKeys.png" width="11px" height="12px" preserveAspectRatio="xMinYMin meet" x="621.5" y="-337"/>
<text text-anchor="start" x="640.5" y="-328.2" font-family="Helvetica,sans-Serif" font-size="11.00">edition_id</text>
<polygon fill="#ffffff" stroke="transparent" points="616.5,-302 616.5,-320 736.5,-320 736.5,-302 616.5,-302"/>
<polygon fill="none" stroke="black" points="616.5,-302 616.5,-320 736.5,-320 736.5,-302 616.5,-302"/>
<text text-anchor="start" x="619.5" y="-308.2" font-family="Helvetica,sans-Serif" font-size="11.00">&lt; 3</text>
<polygon fill="#ffffff" stroke="transparent" points="736.5,-302 736.5,-320 826.5,-320 826.5,-302 736.5,-302"/>
<polygon fill="none" stroke="black" points="736.5,-302 736.5,-320 826.5,-320 826.5,-302 736.5,-302"/>
<text text-anchor="start" x="786.5" y="-308.2" font-family="Helvetica,sans-Serif" font-size="11.00">0 rows</text>
<polygon fill="#ffffff" stroke="transparent" points="826.5,-302 826.5,-320 887.5,-320 887.5,-302 826.5,-302"/>
<polygon fill="none" stroke="black" points="826.5,-302 826.5,-320 887.5,-320 887.5,-302 826.5,-302"/>
<text text-anchor="start" x="876.5" y="-308.2" font-family="Helvetica,sans-Serif" font-size="11.00"> &#160;</text>
</a>
</g>
</g>
<!-- parallel_sign_stream_section_owner&#45;&gt;edition_editor -->
<g id="edge6" class="edge">
<title>parallel_sign_stream_section_owner:w&#45;&gt;edition_editor:e</title>
<path fill="none" stroke="black" d="M601.35,-349.04C592.11,-342.54 589.34,-329.5 575,-321 530.97,-294.9 520.18,-276 469,-276"/>
<polygon fill="black" stroke="black" points="607.8,-350.84 614.53,-356.47 611.65,-351.92 615.5,-353 615.5,-353 615.5,-353 611.65,-351.92 616.47,-349.53 607.8,-350.84 607.8,-350.84"/>
<ellipse fill="none" stroke="black" cx="604.72" cy="-349.98" rx="3.2" ry="3.2"/>
</g>
<!-- parallel_sign_stream_section_owner&#45;&gt;edition -->
<g id="edge7" class="edge">
<title>parallel_sign_stream_section_owner:w&#45;&gt;edition:e</title>
<path fill="none" stroke="black" d="M601.04,-331.09C438.86,-333.13 386.02,-368.42 225,-318 192.18,-307.72 194.39,-276 160,-276"/>
<polygon fill="black" stroke="black" points="607.5,-331.05 615.52,-334.6 611.5,-331.03 615.5,-331 615.5,-331 615.5,-331 611.5,-331.03 615.48,-327.4 607.5,-331.05 607.5,-331.05"/>
<ellipse fill="none" stroke="black" cx="604.3" cy="-331.07" rx="3.2" ry="3.2"/>
</g>
<!-- parallel_sign_stream_section_owner&#45;&gt;parallel_sign_stream_section -->
<g id="edge8" class="edge">
<title>parallel_sign_stream_section_owner:w&#45;&gt;parallel_sign_stream_section:e</title>
<path fill="none" stroke="black" d="M601.54,-380.08C586.99,-393.69 592.72,-430 566,-430"/>
<polygon fill="black" stroke="black" points="607.98,-377.73 616.73,-378.38 611.74,-376.37 615.5,-375 615.5,-375 615.5,-375 611.74,-376.37 614.27,-371.62 607.98,-377.73 607.98,-377.73"/>
<ellipse fill="none" stroke="black" cx="604.97" cy="-378.83" rx="3.2" ry="3.2"/>
</g>
<!-- position_in_stream_to_section_rel -->
<g id="node8" class="node">
<title>position_in_stream_to_section_rel</title>
<g id="a_node8"><a xlink:href="../../tables/position_in_stream_to_section_rel.html" xlink:title="position_in_stream_to_section_rel" target="_top">
<polygon fill="#ffffff" stroke="transparent" points="272,-116 272,-174 528,-174 528,-116 272,-116"/>
<polygon fill="#f5f5f5" stroke="transparent" points="272,-152 272,-174 528,-174 528,-152 272,-152"/>
<polygon fill="none" stroke="black" points="272,-152 272,-174 528,-174 528,-152 272,-152"/>
<text text-anchor="start" x="277" y="-161.2" font-family="Helvetica,sans-Serif" font-weight="bold" font-size="11.00">position_in_stream_to_section_rel</text>
<text text-anchor="start" x="486" y="-160.2" font-family="Helvetica,sans-Serif" font-size="11.00">[table]</text>
<polygon fill="none" stroke="black" points="272,-134 272,-152 528,-152 528,-134 272,-134"/>
<text text-anchor="start" x="275" y="-140.2" font-family="Helvetica,sans-Serif" font-size="11.00">...</text>
<polygon fill="#ffffff" stroke="transparent" points="272,-116 272,-134 360,-134 360,-116 272,-116"/>
<polygon fill="none" stroke="black" points="272,-116 272,-134 360,-134 360,-116 272,-116"/>
<text text-anchor="start" x="275" y="-122.2" font-family="Helvetica,sans-Serif" font-size="11.00">&lt; 2</text>
<polygon fill="#ffffff" stroke="transparent" points="360,-116 360,-134 482,-134 482,-116 360,-116"/>
<polygon fill="none" stroke="black" points="360,-116 360,-134 482,-134 482,-116 360,-116"/>
<text text-anchor="start" x="394" y="-122.2" font-family="Helvetica,sans-Serif" font-size="11.00">1,238,253 rows</text>
<polygon fill="#ffffff" stroke="transparent" points="482,-116 482,-134 528,-134 528,-116 482,-116"/>
<polygon fill="none" stroke="black" points="482,-116 482,-134 528,-134 528,-116 482,-116"/>
<text text-anchor="start" x="517" y="-122.2" font-family="Helvetica,sans-Serif" font-size="11.00"> &#160;</text>
</a>
</g>
</g>
<!-- position_in_stream_to_section_rel&#45;&gt;sign_stream_section -->
<g id="edge9" class="edge">
<title>position_in_stream_to_section_rel:w&#45;&gt;sign_stream_section:e</title>
<path fill="none" stroke="black" d="M256.34,-144.33C228.76,-149.62 219.47,-169 185,-169"/>
<polygon fill="black" stroke="black" points="263.03,-143.72 271.32,-146.59 267.02,-143.36 271,-143 271,-143 271,-143 267.02,-143.36 270.68,-139.41 263.03,-143.72 263.03,-143.72"/>
<ellipse fill="none" stroke="black" cx="259.85" cy="-144.01" rx="3.2" ry="3.2"/>
</g>
<!-- sign_stream_section_owner -->
<g id="node9" class="node">
<title>sign_stream_section_owner</title>
<g id="a_node9"><a xlink:href="../../tables/sign_stream_section_owner.html" xlink:title="sign_stream_section_owner" target="_top">
<polygon fill="#ffffff" stroke="transparent" points="641.5,-198 641.5,-256 861.5,-256 861.5,-198 641.5,-198"/>
<polygon fill="#f5f5f5" stroke="transparent" points="641.5,-234 641.5,-256 861.5,-256 861.5,-234 641.5,-234"/>
<polygon fill="none" stroke="black" points="641.5,-234 641.5,-256 861.5,-256 861.5,-234 641.5,-234"/>
<text text-anchor="start" x="646.5" y="-243.2" font-family="Helvetica,sans-Serif" font-weight="bold" font-size="11.00">sign_stream_section_owner</text>
<text text-anchor="start" x="819.5" y="-242.2" font-family="Helvetica,sans-Serif" font-size="11.00">[table]</text>
<polygon fill="none" stroke="black" points="641.5,-216 641.5,-234 861.5,-234 861.5,-216 641.5,-216"/>
<text text-anchor="start" x="644.5" y="-222.2" font-family="Helvetica,sans-Serif" font-size="11.00">...</text>
<polygon fill="#ffffff" stroke="transparent" points="641.5,-198 641.5,-216 716.5,-216 716.5,-198 641.5,-198"/>
<polygon fill="none" stroke="black" points="641.5,-198 641.5,-216 716.5,-216 716.5,-198 641.5,-198"/>
<text text-anchor="start" x="644.5" y="-204.2" font-family="Helvetica,sans-Serif" font-size="11.00">&lt; 3</text>
<polygon fill="#ffffff" stroke="transparent" points="716.5,-198 716.5,-216 822.5,-216 822.5,-198 716.5,-198"/>
<polygon fill="none" stroke="black" points="716.5,-198 716.5,-216 822.5,-216 822.5,-198 716.5,-198"/>
<text text-anchor="start" x="744.5" y="-204.2" font-family="Helvetica,sans-Serif" font-size="11.00">327,684 rows</text>
<polygon fill="#ffffff" stroke="transparent" points="822.5,-198 822.5,-216 861.5,-216 861.5,-198 822.5,-198"/>
<polygon fill="none" stroke="black" points="822.5,-198 822.5,-216 861.5,-216 861.5,-198 822.5,-198"/>
<text text-anchor="start" x="850.5" y="-204.2" font-family="Helvetica,sans-Serif" font-size="11.00"> &#160;</text>
</a>
</g>
</g>
<!-- sign_stream_section_owner&#45;&gt;edition_editor -->
<g id="edge10" class="edge">
<title>sign_stream_section_owner:w&#45;&gt;edition_editor:e</title>
<path fill="none" stroke="black" d="M625.92,-225.61C559.09,-231.36 543.4,-276 469,-276"/>
<polygon fill="black" stroke="black" points="632.51,-225.33 640.65,-228.6 636.5,-225.17 640.5,-225 640.5,-225 640.5,-225 636.5,-225.17 640.35,-221.4 632.51,-225.33 632.51,-225.33"/>
<ellipse fill="none" stroke="black" cx="629.31" cy="-225.47" rx="3.2" ry="3.2"/>
</g>
<!-- sign_stream_section_owner&#45;&gt;edition -->
<g id="edge11" class="edge">
<title>sign_stream_section_owner:w&#45;&gt;edition:e</title>
<path fill="none" stroke="black" d="M625.89,-224.92C452.8,-223.11 398.02,-190.07 225,-239 193.01,-248.05 193.24,-276 160,-276"/>
<polygon fill="black" stroke="black" points="632.5,-224.96 640.48,-228.6 636.5,-224.98 640.5,-225 640.5,-225 640.5,-225 636.5,-224.98 640.52,-221.4 632.5,-224.96 632.5,-224.96"/>
<ellipse fill="none" stroke="black" cx="629.3" cy="-224.94" rx="3.2" ry="3.2"/>
</g>
<!-- sign_stream_section_owner&#45;&gt;sign_stream_section -->
<g id="edge12" class="edge">
<title>sign_stream_section_owner:w&#45;&gt;sign_stream_section:e</title>
<path fill="none" stroke="black" d="M626.13,-223.96C607.56,-221.04 599.18,-212.75 575,-209 420.92,-185.08 377.01,-219.71 225,-185 206.33,-180.74 204.15,-169 185,-169"/>
<polygon fill="black" stroke="black" points="632.52,-224.42 640.24,-228.59 636.51,-224.71 640.5,-225 640.5,-225 640.5,-225 636.51,-224.71 640.76,-221.41 632.52,-224.42 632.52,-224.42"/>
<ellipse fill="none" stroke="black" cx="629.33" cy="-224.19" rx="3.2" ry="3.2"/>
</g>
<!-- sign_stream_section_to_qwb_word -->
<g id="node10" class="node">
<title>sign_stream_section_to_qwb_word</title>
<g id="a_node10"><a xlink:href="../../tables/sign_stream_section_to_qwb_word.html" xlink:title="sign_stream_section_to_qwb_word" target="_top">
<polygon fill="#ffffff" stroke="transparent" points="269.5,-37 269.5,-95 530.5,-95 530.5,-37 269.5,-37"/>
<polygon fill="#f5f5f5" stroke="transparent" points="270,-73 270,-95 531,-95 531,-73 270,-73"/>
<polygon fill="none" stroke="black" points="270,-73 270,-95 531,-95 531,-73 270,-73"/>
<text text-anchor="start" x="275" y="-82.2" font-family="Helvetica,sans-Serif" font-weight="bold" font-size="11.00">sign_stream_section_to_qwb_word</text>
<text text-anchor="start" x="489" y="-81.2" font-family="Helvetica,sans-Serif" font-size="11.00">[table]</text>
<polygon fill="none" stroke="black" points="270,-55 270,-73 531,-73 531,-55 270,-55"/>
<text text-anchor="start" x="273" y="-61.2" font-family="Helvetica,sans-Serif" font-size="11.00">...</text>
<polygon fill="#ffffff" stroke="transparent" points="270,-37 270,-55 366,-55 366,-37 270,-37"/>
<polygon fill="none" stroke="black" points="270,-37 270,-55 366,-55 366,-37 270,-37"/>
<text text-anchor="start" x="273" y="-43.2" font-family="Helvetica,sans-Serif" font-size="11.00">&lt; 2</text>
<polygon fill="#ffffff" stroke="transparent" points="366,-37 366,-55 482,-55 482,-37 366,-37"/>
<polygon fill="none" stroke="black" points="366,-37 366,-55 482,-55 482,-37 366,-37"/>
<text text-anchor="start" x="404" y="-43.2" font-family="Helvetica,sans-Serif" font-size="11.00">328,329 rows</text>
<polygon fill="#ffffff" stroke="transparent" points="482,-37 482,-55 531,-55 531,-37 482,-37"/>
<polygon fill="none" stroke="black" points="482,-37 482,-55 531,-55 531,-37 482,-37"/>
<text text-anchor="start" x="520" y="-43.2" font-family="Helvetica,sans-Serif" font-size="11.00"> &#160;</text>
</a>
</g>
</g>
<!-- sign_stream_section_to_qwb_word&#45;&gt;sign_stream_section -->
<g id="edge13" class="edge">
<title>sign_stream_section_to_qwb_word:w&#45;&gt;sign_stream_section:e</title>
<path fill="none" stroke="black" d="M254.7,-66.81C241.22,-73.22 238.4,-89.67 225,-106 203.96,-131.64 218.17,-169 185,-169"/>
<polygon fill="black" stroke="black" points="261.15,-65.54 269.69,-67.53 265.07,-64.77 269,-64 269,-64 269,-64 265.07,-64.77 268.31,-60.47 261.15,-65.54 261.15,-65.54"/>
<ellipse fill="none" stroke="black" cx="258.01" cy="-66.16" rx="3.2" ry="3.2"/>
</g>
</g>
</svg>
