<?xml version="1.0" encoding="UTF-8" standalone="no"?>
<!DOCTYPE svg PUBLIC "-//W3C//DTD SVG 1.1//EN"
 "http://www.w3.org/Graphics/SVG/1.1/DTD/svg11.dtd">
<!-- Generated by graphviz version 2.43.0 (0)
 -->
<!-- Title: oneDegreeRelationshipsDiagram Pages: 1 -->
<svg width="690pt" height="234pt"
 viewBox="0.00 0.00 690.00 234.00" xmlns="http://www.w3.org/2000/svg" xmlns:xlink="http://www.w3.org/1999/xlink">
<g id="graph0" class="graph" transform="scale(1 1) rotate(0) translate(4 230)">
<title>oneDegreeRelationshipsDiagram</title>
<polygon fill="#ffffff" stroke="transparent" points="-4,4 -4,-230 686,-230 686,4 -4,4"/>
<text text-anchor="middle" x="79.5" y="-7.2" font-family="Helvetica,sans-Serif" font-size="11.00">Generated by SchemaSpy</text>
<!-- parallel_word -->
<g id="node1" class="node">
<title>parallel_word</title>
<g id="a_node1"><a xlink:href="../../tables/parallel_word.html" xlink:title="parallel_word" target="_top">
<polygon fill="#ffffff" stroke="transparent" points="196,-63 196,-195 447,-195 447,-63 196,-63"/>
<polygon fill="#f5f5f5" stroke="transparent" points="198.5,-171 198.5,-193 445.5,-193 445.5,-171 198.5,-171"/>
<polygon fill="none" stroke="black" points="198.5,-171 198.5,-193 445.5,-193 445.5,-171 198.5,-171"/>
<text text-anchor="start" x="203.5" y="-180.2" font-family="Helvetica,sans-Serif" font-weight="bold" font-size="11.00">parallel_word</text>
<text text-anchor="start" x="403.5" y="-179.2" font-family="Helvetica,sans-Serif" font-size="11.00">[table]</text>
<polygon fill="none" stroke="black" points="198.5,-149 198.5,-171 334.5,-171 334.5,-149 198.5,-149"/>
<image xlink:href="../../images/primaryKeys.png" width="11px" height="12px" preserveAspectRatio="xMinYMin meet" x="203.5" y="-166"/>
<text text-anchor="start" x="218.5" y="-157.2" font-family="Helvetica,sans-Serif" font-size="11.00">parallel_word_id</text>
<polygon fill="none" stroke="black" points="334.5,-149 334.5,-171 445.5,-171 445.5,-149 334.5,-149"/>
<text text-anchor="start" x="337.5" y="-157.2" font-family="Helvetica,sans-Serif" font-size="11.00">int unsigned[10]</text>
<polygon fill="#ffffff" stroke="transparent" points="198.5,-127 198.5,-149 334.5,-149 334.5,-127 198.5,-127"/>
<polygon fill="none" stroke="black" points="198.5,-127 198.5,-149 334.5,-149 334.5,-127 198.5,-127"/>
<image xlink:href="../../images/foreignKeys.png" width="11px" height="12px" preserveAspectRatio="xMinYMin meet" x="203.5" y="-144"/>
<text text-anchor="start" x="218.5" y="-135.2" font-family="Helvetica,sans-Serif" font-size="11.00">word_id</text>
<polygon fill="none" stroke="black" points="334.5,-127 334.5,-149 445.5,-149 445.5,-127 334.5,-127"/>
<text text-anchor="start" x="337.5" y="-135.2" font-family="Helvetica,sans-Serif" font-size="11.00">int unsigned[10]</text>
<polygon fill="#ffffff" stroke="transparent" points="198.5,-105 198.5,-127 334.5,-127 334.5,-105 198.5,-105"/>
<polygon fill="none" stroke="black" points="198.5,-105 198.5,-127 334.5,-127 334.5,-105 198.5,-105"/>
<image xlink:href="../../images/foreignKeys.png" width="11px" height="12px" preserveAspectRatio="xMinYMin meet" x="203.5" y="-122"/>
<text text-anchor="start" x="218.5" y="-113.2" font-family="Helvetica,sans-Serif" font-size="11.00">parallel_group_id</text>
<polygon fill="none" stroke="black" points="334.5,-105 334.5,-127 445.5,-127 445.5,-105 334.5,-105"/>
<text text-anchor="start" x="337.5" y="-113.2" font-family="Helvetica,sans-Serif" font-size="11.00">int unsigned[10]</text>
<polygon fill="#ffffff" stroke="transparent" points="198.5,-83 198.5,-105 334.5,-105 334.5,-83 198.5,-83"/>
<polygon fill="none" stroke="black" points="198.5,-83 198.5,-105 334.5,-105 334.5,-83 198.5,-83"/>
<text text-anchor="start" x="218.5" y="-91.2" font-family="Helvetica,sans-Serif" font-size="11.00">sub_group</text>
<polygon fill="none" stroke="black" points="334.5,-83 334.5,-105 445.5,-105 445.5,-83 334.5,-83"/>
<text text-anchor="start" x="337.5" y="-91.2" font-family="Helvetica,sans-Serif" font-size="11.00">tinyint unsigned[3]</text>
<polygon fill="#ffffff" stroke="transparent" points="198.5,-65 198.5,-83 257.5,-83 257.5,-65 198.5,-65"/>
<polygon fill="none" stroke="black" points="198.5,-65 198.5,-83 257.5,-83 257.5,-65 198.5,-65"/>
<text text-anchor="start" x="201.5" y="-71.2" font-family="Helvetica,sans-Serif" font-size="11.00">&lt; 2</text>
<polygon fill="#ffffff" stroke="transparent" points="257.5,-65 257.5,-83 334.5,-83 334.5,-65 257.5,-65"/>
<polygon fill="none" stroke="black" points="257.5,-65 257.5,-83 334.5,-83 334.5,-65 257.5,-65"/>
<text text-anchor="start" x="294.5" y="-71.2" font-family="Helvetica,sans-Serif" font-size="11.00">0 rows</text>
<polygon fill="#ffffff" stroke="transparent" points="334.5,-65 334.5,-83 445.5,-83 445.5,-65 334.5,-65"/>
<polygon fill="none" stroke="black" points="334.5,-65 334.5,-83 445.5,-83 445.5,-65 334.5,-65"/>
<text text-anchor="start" x="422.5" y="-71.2" font-family="Helvetica,sans-Serif" font-size="11.00">1 &gt;</text>
<polygon fill="none" stroke="black" stroke-width="2" points="197,-64 197,-194 446,-194 446,-64 197,-64"/>
</a>
</g>
</g>
<!-- parallel_group -->
<g id="node2" class="node">
<title>parallel_group</title>
<g id="a_node2"><a xlink:href="../../tables/parallel_group.html" xlink:title="parallel_group" target="_top">
<polygon fill="#ffffff" stroke="transparent" points="8,-37 8,-99 147,-99 147,-37 8,-37"/>
<polygon fill="#f5f5f5" stroke="transparent" points="8.5,-77 8.5,-99 147.5,-99 147.5,-77 8.5,-77"/>
<polygon fill="none" stroke="black" points="8.5,-77 8.5,-99 147.5,-99 147.5,-77 8.5,-77"/>
<text text-anchor="start" x="13.5" y="-86.2" font-family="Helvetica,sans-Serif" font-weight="bold" font-size="11.00">parallel_group</text>
<text text-anchor="start" x="105.5" y="-85.2" font-family="Helvetica,sans-Serif" font-size="11.00">[table]</text>
<polygon fill="none" stroke="black" points="8.5,-55 8.5,-77 147.5,-77 147.5,-55 8.5,-55"/>
<image xlink:href="../../images/primaryKeys.png" width="11px" height="12px" preserveAspectRatio="xMinYMin meet" x="13.5" y="-72"/>
<text text-anchor="start" x="30.5" y="-63.2" font-family="Helvetica,sans-Serif" font-size="11.00">parallel_group_id</text>
<polygon fill="#ffffff" stroke="transparent" points="8.5,-37 8.5,-55 50.5,-55 50.5,-37 8.5,-37"/>
<polygon fill="none" stroke="black" points="8.5,-37 8.5,-55 50.5,-55 50.5,-37 8.5,-37"/>
<text text-anchor="start" x="11.5" y="-43.2" font-family="Helvetica,sans-Serif" font-size="11.00"> &#160;</text>
<polygon fill="#ffffff" stroke="transparent" points="50.5,-37 50.5,-55 107.5,-55 107.5,-37 50.5,-37"/>
<polygon fill="none" stroke="black" points="50.5,-37 50.5,-55 107.5,-55 107.5,-37 50.5,-37"/>
<text text-anchor="start" x="67.5" y="-43.2" font-family="Helvetica,sans-Serif" font-size="11.00">0 rows</text>
<polygon fill="#ffffff" stroke="transparent" points="107.5,-37 107.5,-55 147.5,-55 147.5,-37 107.5,-37"/>
<polygon fill="none" stroke="black" points="107.5,-37 107.5,-55 147.5,-55 147.5,-37 107.5,-37"/>
<text text-anchor="start" x="124.5" y="-43.2" font-family="Helvetica,sans-Serif" font-size="11.00">1 &gt;</text>
</a>
</g>
</g>
<!-- parallel_word&#45;&gt;parallel_group -->
<g id="edge1" class="edge">
<title>parallel_word:w&#45;&gt;parallel_group:e</title>
<path fill="none" stroke="black" d="M183.68,-111.02C169.86,-98.38 173.54,-66 148.5,-66"/>
<polygon fill="black" stroke="black" points="189.97,-113.29 196.28,-119.39 193.74,-114.64 197.5,-116 197.5,-116 197.5,-116 193.74,-114.64 198.72,-112.61 189.97,-113.29 189.97,-113.29"/>
<ellipse fill="none" stroke="black" cx="186.96" cy="-112.2" rx="3.2" ry="3.2"/>
</g>
<!-- word -->
<g id="node3" class="node">
<title>word</title>
<g id="a_node3"><a xlink:href="../../tables/word.html" xlink:title="word" target="_top">
<polygon fill="#ffffff" stroke="transparent" points="17,-120 17,-222 138,-222 138,-120 17,-120"/>
<polygon fill="#f5f5f5" stroke="transparent" points="17.5,-200 17.5,-222 138.5,-222 138.5,-200 17.5,-200"/>
<polygon fill="none" stroke="black" points="17.5,-200 17.5,-222 138.5,-222 138.5,-200 17.5,-200"/>
<text text-anchor="start" x="22.5" y="-209.2" font-family="Helvetica,sans-Serif" font-weight="bold" font-size="11.00">word</text>
<text text-anchor="start" x="96.5" y="-208.2" font-family="Helvetica,sans-Serif" font-size="11.00">[table]</text>
<polygon fill="none" stroke="black" points="17.5,-178 17.5,-200 138.5,-200 138.5,-178 17.5,-178"/>
<image xlink:href="../../images/primaryKeys.png" width="11px" height="12px" preserveAspectRatio="xMinYMin meet" x="22.5" y="-195"/>
<text text-anchor="start" x="44.5" y="-186.2" font-family="Helvetica,sans-Serif" font-size="11.00">word_id</text>
<polygon fill="#ffffff" stroke="transparent" points="17.5,-156 17.5,-178 138.5,-178 138.5,-156 17.5,-156"/>
<polygon fill="none" stroke="black" points="17.5,-156 17.5,-178 138.5,-178 138.5,-156 17.5,-156"/>
<text text-anchor="start" x="44.5" y="-164.2" font-family="Helvetica,sans-Serif" font-size="11.00">qwb_word_id</text>
<polygon fill="none" stroke="black" points="17.5,-138 17.5,-156 138.5,-156 138.5,-138 17.5,-138"/>
<text text-anchor="start" x="20.5" y="-144.2" font-family="Helvetica,sans-Serif" font-size="11.00">...</text>
<polygon fill="#ffffff" stroke="transparent" points="17.5,-120 17.5,-138 31.5,-138 31.5,-120 17.5,-120"/>
<polygon fill="none" stroke="black" points="17.5,-120 17.5,-138 31.5,-138 31.5,-120 17.5,-120"/>
<text text-anchor="start" x="20.5" y="-126.2" font-family="Helvetica,sans-Serif" font-size="11.00"> &#160;</text>
<polygon fill="#ffffff" stroke="transparent" points="31.5,-120 31.5,-138 112.5,-138 112.5,-120 31.5,-120"/>
<polygon fill="none" stroke="black" points="31.5,-120 31.5,-138 112.5,-138 112.5,-120 31.5,-120"/>
<text text-anchor="start" x="34.5" y="-126.2" font-family="Helvetica,sans-Serif" font-size="11.00">327,795 rows</text>
<polygon fill="#ffffff" stroke="transparent" points="112.5,-120 112.5,-138 138.5,-138 138.5,-120 112.5,-120"/>
<polygon fill="none" stroke="black" points="112.5,-120 112.5,-138 138.5,-138 138.5,-120 112.5,-120"/>
<text text-anchor="start" x="115.5" y="-126.2" font-family="Helvetica,sans-Serif" font-size="11.00">4 &gt;</text>
</a>
</g>
</g>
<!-- parallel_word&#45;&gt;word -->
<g id="edge2" class="edge">
<title>parallel_word:w&#45;&gt;word:e</title>
<path fill="none" stroke="black" d="M183.58,-141.83C165.48,-153.69 168.06,-189 139.5,-189"/>
<polygon fill="black" stroke="black" points="189.79,-140.12 198.46,-141.47 193.64,-139.06 197.5,-138 197.5,-138 197.5,-138 193.64,-139.06 196.54,-134.53 189.79,-140.12 189.79,-140.12"/>
<ellipse fill="none" stroke="black" cx="186.7" cy="-140.97" rx="3.2" ry="3.2"/>
</g>
<!-- parallel_word_owner -->
<g id="node4" class="node">
<title>parallel_word_owner</title>
<g id="a_node4"><a xlink:href="../../tables/parallel_word_owner.html" xlink:title="parallel_word_owner" target="_top">
<polygon fill="#ffffff" stroke="transparent" points="496,-87 496,-193 674,-193 674,-87 496,-87"/>
<polygon fill="#f5f5f5" stroke="transparent" points="496,-171 496,-193 674,-193 674,-171 496,-171"/>
<polygon fill="none" stroke="black" points="496,-171 496,-193 674,-193 674,-171 496,-171"/>
<text text-anchor="start" x="501" y="-180.2" font-family="Helvetica,sans-Serif" font-weight="bold" font-size="11.00">parallel_word_owner</text>
<text text-anchor="start" x="632" y="-179.2" font-family="Helvetica,sans-Serif" font-size="11.00">[table]</text>
<polygon fill="none" stroke="black" points="496,-149 496,-171 674,-171 674,-149 496,-149"/>
<image xlink:href="../../images/primaryKeys.png" width="11px" height="12px" preserveAspectRatio="xMinYMin meet" x="501" y="-166"/>
<text text-anchor="start" x="526" y="-157.2" font-family="Helvetica,sans-Serif" font-size="11.00">parallel_word_id</text>
<polygon fill="#ffffff" stroke="transparent" points="496,-127 496,-149 674,-149 674,-127 496,-127"/>
<polygon fill="none" stroke="black" points="496,-127 496,-149 674,-149 674,-127 496,-127"/>
<image xlink:href="../../images/foreignKeys.png" width="11px" height="12px" preserveAspectRatio="xMinYMin meet" x="501" y="-144"/>
<text text-anchor="start" x="526" y="-135.2" font-family="Helvetica,sans-Serif" font-size="11.00">edition_editor_id</text>
<polygon fill="none" stroke="black" points="496,-105 496,-127 674,-127 674,-105 496,-105"/>
<image xlink:href="../../images/primaryKeys.png" width="11px" height="12px" preserveAspectRatio="xMinYMin meet" x="501" y="-122"/>
<text text-anchor="start" x="526" y="-113.2" font-family="Helvetica,sans-Serif" font-size="11.00">edition_id</text>
<polygon fill="#ffffff" stroke="transparent" points="496,-87 496,-105 569,-105 569,-87 496,-87"/>
<polygon fill="none" stroke="black" points="496,-87 496,-105 569,-105 569,-87 496,-87"/>
<text text-anchor="start" x="499" y="-93.2" font-family="Helvetica,sans-Serif" font-size="11.00">&lt; 3</text>
<polygon fill="#ffffff" stroke="transparent" points="569,-87 569,-105 636,-105 636,-87 569,-87"/>
<polygon fill="none" stroke="black" points="569,-87 569,-105 636,-105 636,-87 569,-87"/>
<text text-anchor="start" x="596" y="-93.2" font-family="Helvetica,sans-Serif" font-size="11.00">0 rows</text>
<polygon fill="#ffffff" stroke="transparent" points="636,-87 636,-105 674,-105 674,-87 636,-87"/>
<polygon fill="none" stroke="black" points="636,-87 636,-105 674,-105 674,-87 636,-87"/>
<text text-anchor="start" x="663" y="-93.2" font-family="Helvetica,sans-Serif" font-size="11.00"> &#160;</text>
</a>
</g>
</g>
<!-- parallel_word_owner&#45;&gt;parallel_word -->
<g id="edge3" class="edge">
<title>parallel_word_owner:w&#45;&gt;parallel_word:e</title>
<path fill="none" stroke="black" d="M480.28,-160C469.29,-160 462.16,-160 446.5,-160"/>
<polygon fill="black" stroke="black" points="487,-160 495,-163.6 491,-160 495,-160 495,-160 495,-160 491,-160 495,-156.4 487,-160 487,-160"/>
<ellipse fill="none" stroke="black" cx="483.8" cy="-160" rx="3.2" ry="3.2"/>
</g>
</g>
</svg>
