<?xml version="1.0" encoding="UTF-8" standalone="no"?>
<!DOCTYPE svg PUBLIC "-//W3C//DTD SVG 1.1//EN"
 "http://www.w3.org/Graphics/SVG/1.1/DTD/svg11.dtd">
<!-- Generated by graphviz version 2.40.1 (20161225.0304)
 -->
<!-- Title: oneDegreeRelationshipsDiagram Pages: 1 -->
<svg width="638pt" height="402pt"
 viewBox="0.00 0.00 638.00 402.00" xmlns="http://www.w3.org/2000/svg" xmlns:xlink="http://www.w3.org/1999/xlink">
<g id="graph0" class="graph" transform="scale(1 1) rotate(0) translate(4 398)">
<title>oneDegreeRelationshipsDiagram</title>
<polygon fill="#ffffff" stroke="transparent" points="-4,4 -4,-398 634,-398 634,4 -4,4"/>
<text text-anchor="middle" x="71.5" y="-7.2" font-family="Helvetica,sans-Serif" font-size="11.00" fill="#000000">Generated by SchemaSpy</text>
<!-- edition_editor -->
<g id="node1" class="node">
<title>edition_editor</title>
<g id="a_node1"><a xlink:href="../../tables/edition_editor.html" xlink:title="edition_editor" target="_top">
<polygon fill="#ffffff" stroke="transparent" points="193.5,-95 193.5,-219 326.5,-219 326.5,-95 193.5,-95"/>
<polygon fill="#f5f5f5" stroke="transparent" points="194,-197 194,-219 327,-219 327,-197 194,-197"/>
<polygon fill="none" stroke="#000000" points="194,-197 194,-219 327,-219 327,-197 194,-197"/>
<text text-anchor="start" x="199" y="-206.2" font-family="Helvetica,sans-Serif" font-weight="bold" font-size="11.00" fill="#000000">edition_editor</text>
<text text-anchor="start" x="292" y="-205.2" font-family="Helvetica,sans-Serif" font-size="11.00" fill="#000000">[table]</text>
<polygon fill="none" stroke="#000000" points="194,-175 194,-197 327,-197 327,-175 194,-175"/>
<image xlink:href="../../images/primaryKeys.png" width="11px" height="12px" preserveAspectRatio="xMinYMin meet" x="199" y="-192"/>
<text text-anchor="start" x="214" y="-183.2" font-family="Helvetica,sans-Serif" font-size="11.00" fill="#000000">edition_editor_id</text>
<polygon fill="#ffffff" stroke="transparent" points="194,-153 194,-175 327,-175 327,-153 194,-153"/>
<polygon fill="none" stroke="#000000" points="194,-153 194,-175 327,-175 327,-153 194,-153"/>
<image xlink:href="../../images/foreignKeys.png" width="11px" height="12px" preserveAspectRatio="xMinYMin meet" x="199" y="-170"/>
<text text-anchor="start" x="214" y="-161.2" font-family="Helvetica,sans-Serif" font-size="11.00" fill="#000000">user_id</text>
<polygon fill="#ffffff" stroke="transparent" points="194,-131 194,-153 327,-153 327,-131 194,-131"/>
<polygon fill="none" stroke="#000000" points="194,-131 194,-153 327,-153 327,-131 194,-131"/>
<image xlink:href="../../images/foreignKeys.png" width="11px" height="12px" preserveAspectRatio="xMinYMin meet" x="199" y="-148"/>
<text text-anchor="start" x="214" y="-139.2" font-family="Helvetica,sans-Serif" font-size="11.00" fill="#000000">edition_id</text>
<polygon fill="none" stroke="#000000" points="194,-113 194,-131 327,-131 327,-113 194,-113"/>
<text text-anchor="start" x="197" y="-119.2" font-family="Helvetica,sans-Serif" font-size="11.00" fill="#000000">...</text>
<polygon fill="#ffffff" stroke="transparent" points="194,-95 194,-113 227,-113 227,-95 194,-95"/>
<polygon fill="none" stroke="#000000" points="194,-95 194,-113 227,-113 227,-95 194,-95"/>
<text text-anchor="start" x="197" y="-101.2" font-family="Helvetica,sans-Serif" font-size="11.00" fill="#000000">&lt; 2</text>
<polygon fill="#ffffff" stroke="transparent" points="227,-95 227,-113 293,-113 293,-95 227,-95"/>
<polygon fill="none" stroke="#000000" points="227,-95 227,-113 293,-113 293,-95 227,-95"/>
<text text-anchor="start" x="236" y="-101.2" font-family="Helvetica,sans-Serif" font-size="11.00" fill="#000000">1,645 rows</text>
<polygon fill="#ffffff" stroke="transparent" points="293,-95 293,-113 327,-113 327,-95 293,-95"/>
<polygon fill="none" stroke="#000000" points="293,-95 293,-113 327,-113 327,-95 293,-95"/>
<text text-anchor="start" x="302" y="-101.2" font-family="Helvetica,sans-Serif" font-size="11.00" fill="#000000">30 &gt;</text>
</a>
</g>
</g>
<!-- edition -->
<g id="node2" class="node">
<title>edition</title>
<g id="a_node2"><a xlink:href="../../tables/edition.html" xlink:title="edition" target="_top">
<polygon fill="#ffffff" stroke="transparent" points="8,-37 8,-139 143,-139 143,-37 8,-37"/>
<polygon fill="#f5f5f5" stroke="transparent" points="8.5,-117 8.5,-139 143.5,-139 143.5,-117 8.5,-117"/>
<polygon fill="none" stroke="#000000" points="8.5,-117 8.5,-139 143.5,-139 143.5,-117 8.5,-117"/>
<text text-anchor="start" x="13.5" y="-126.2" font-family="Helvetica,sans-Serif" font-weight="bold" font-size="11.00" fill="#000000">edition</text>
<text text-anchor="start" x="108.5" y="-125.2" font-family="Helvetica,sans-Serif" font-size="11.00" fill="#000000">[table]</text>
<polygon fill="none" stroke="#000000" points="8.5,-95 8.5,-117 143.5,-117 143.5,-95 8.5,-95"/>
<image xlink:href="../../images/primaryKeys.png" width="11px" height="12px" preserveAspectRatio="xMinYMin meet" x="13.5" y="-112"/>
<text text-anchor="start" x="28.5" y="-103.2" font-family="Helvetica,sans-Serif" font-size="11.00" fill="#000000">edition_id</text>
<polygon fill="#ffffff" stroke="transparent" points="8.5,-73 8.5,-95 143.5,-95 143.5,-73 8.5,-73"/>
<polygon fill="none" stroke="#000000" points="8.5,-73 8.5,-95 143.5,-95 143.5,-73 8.5,-73"/>
<image xlink:href="../../images/foreignKeys.png" width="11px" height="12px" preserveAspectRatio="xMinYMin meet" x="13.5" y="-90"/>
<text text-anchor="start" x="28.5" y="-81.2" font-family="Helvetica,sans-Serif" font-size="11.00" fill="#000000">manuscript_id</text>
<polygon fill="none" stroke="#000000" points="8.5,-55 8.5,-73 143.5,-73 143.5,-55 8.5,-55"/>
<text text-anchor="start" x="11.5" y="-61.2" font-family="Helvetica,sans-Serif" font-size="11.00" fill="#000000">...</text>
<polygon fill="#ffffff" stroke="transparent" points="8.5,-37 8.5,-55 42.5,-55 42.5,-37 8.5,-37"/>
<polygon fill="none" stroke="#000000" points="8.5,-37 8.5,-55 42.5,-55 42.5,-37 8.5,-37"/>
<text text-anchor="start" x="11.5" y="-43.2" font-family="Helvetica,sans-Serif" font-size="11.00" fill="#000000">&lt; 1</text>
<polygon fill="#ffffff" stroke="transparent" points="42.5,-37 42.5,-55 108.5,-55 108.5,-37 42.5,-37"/>
<polygon fill="none" stroke="#000000" points="42.5,-37 42.5,-55 108.5,-55 108.5,-37 42.5,-37"/>
<text text-anchor="start" x="51.5" y="-43.2" font-family="Helvetica,sans-Serif" font-size="11.00" fill="#000000">1,645 rows</text>
<polygon fill="#ffffff" stroke="transparent" points="108.5,-37 108.5,-55 143.5,-55 143.5,-37 108.5,-37"/>
<polygon fill="none" stroke="#000000" points="108.5,-37 108.5,-55 143.5,-55 143.5,-37 108.5,-37"/>
<text text-anchor="start" x="118.5" y="-43.2" font-family="Helvetica,sans-Serif" font-size="11.00" fill="#000000">32 &gt;</text>
</a>
</g>
</g>
<!-- edition_editor&#45;&gt;edition -->
<g id="edge1" class="edge">
<title>edition_editor:w&#45;&gt;edition:e</title>
<path fill="none" stroke="#000000" d="M179.8586,-137.5857C166.9204,-127.9727 165.0341,-106 143.5,-106"/>
<polygon fill="#000000" stroke="#000000" points="186.3634,-139.6162 192.9273,-145.4365 190.1817,-140.8081 194,-142 194,-142 194,-142 190.1817,-140.8081 195.0727,-138.5635 186.3634,-139.6162 186.3634,-139.6162"/>
<ellipse fill="none" stroke="#000000" cx="183.3088" cy="-138.6626" rx="3.2" ry="3.2"/>
</g>
<!-- parallel_word_owner -->
<g id="node3" class="node">
<title>parallel_word_owner</title>
<g id="a_node3"><a xlink:href="../../tables/parallel_word_owner.html" xlink:title="parallel_word_owner" target="_top">
<polygon fill="#ffffff" stroke="transparent" points="377,-133 377,-243 622,-243 622,-133 377,-133"/>
<polygon fill="#f5f5f5" stroke="transparent" points="379.5,-219 379.5,-241 620.5,-241 620.5,-219 379.5,-219"/>
<polygon fill="none" stroke="#000000" points="379.5,-219 379.5,-241 620.5,-241 620.5,-219 379.5,-219"/>
<text text-anchor="start" x="384.5" y="-228.2" font-family="Helvetica,sans-Serif" font-weight="bold" font-size="11.00" fill="#000000">parallel_word_owner</text>
<text text-anchor="start" x="585.5" y="-227.2" font-family="Helvetica,sans-Serif" font-size="11.00" fill="#000000">[table]</text>
<polygon fill="none" stroke="#000000" points="379.5,-197 379.5,-219 538.5,-219 538.5,-197 379.5,-197"/>
<image xlink:href="../../images/primaryKeys.png" width="11px" height="12px" preserveAspectRatio="xMinYMin meet" x="384.5" y="-214"/>
<text text-anchor="start" x="399.5" y="-205.2" font-family="Helvetica,sans-Serif" font-size="11.00" fill="#000000">parallel_word_id</text>
<polygon fill="none" stroke="#000000" points="538.5,-197 538.5,-219 620.5,-219 620.5,-197 538.5,-197"/>
<text text-anchor="start" x="541.5" y="-205.2" font-family="Helvetica,sans-Serif" font-size="11.00" fill="#000000">int unsigned[10]</text>
<polygon fill="#ffffff" stroke="transparent" points="379.5,-175 379.5,-197 538.5,-197 538.5,-175 379.5,-175"/>
<polygon fill="none" stroke="#000000" points="379.5,-175 379.5,-197 538.5,-197 538.5,-175 379.5,-175"/>
<image xlink:href="../../images/foreignKeys.png" width="11px" height="12px" preserveAspectRatio="xMinYMin meet" x="384.5" y="-192"/>
<text text-anchor="start" x="399.5" y="-183.2" font-family="Helvetica,sans-Serif" font-size="11.00" fill="#000000">edition_editor_id</text>
<polygon fill="none" stroke="#000000" points="538.5,-175 538.5,-197 620.5,-197 620.5,-175 538.5,-175"/>
<text text-anchor="start" x="541.5" y="-183.2" font-family="Helvetica,sans-Serif" font-size="11.00" fill="#000000">int unsigned[10]</text>
<polygon fill="none" stroke="#000000" points="379.5,-153 379.5,-175 538.5,-175 538.5,-153 379.5,-153"/>
<image xlink:href="../../images/primaryKeys.png" width="11px" height="12px" preserveAspectRatio="xMinYMin meet" x="384.5" y="-170"/>
<text text-anchor="start" x="399.5" y="-161.2" font-family="Helvetica,sans-Serif" font-size="11.00" fill="#000000">edition_id</text>
<polygon fill="none" stroke="#000000" points="538.5,-153 538.5,-175 620.5,-175 620.5,-153 538.5,-153"/>
<text text-anchor="start" x="541.5" y="-161.2" font-family="Helvetica,sans-Serif" font-size="11.00" fill="#000000">int unsigned[10]</text>
<polygon fill="#ffffff" stroke="transparent" points="379.5,-135 379.5,-153 450.5,-153 450.5,-135 379.5,-135"/>
<polygon fill="none" stroke="#000000" points="379.5,-135 379.5,-153 450.5,-153 450.5,-135 379.5,-135"/>
<text text-anchor="start" x="382.5" y="-141.2" font-family="Helvetica,sans-Serif" font-size="11.00" fill="#000000">&lt; 3</text>
<polygon fill="#ffffff" stroke="transparent" points="450.5,-135 450.5,-153 538.5,-153 538.5,-135 450.5,-135"/>
<polygon fill="none" stroke="#000000" points="450.5,-135 450.5,-153 538.5,-153 538.5,-135 450.5,-135"/>
<text text-anchor="start" x="502.5" y="-141.2" font-family="Helvetica,sans-Serif" font-size="11.00" fill="#000000">0 rows</text>
<polygon fill="#ffffff" stroke="transparent" points="538.5,-135 538.5,-153 620.5,-153 620.5,-135 538.5,-135"/>
<polygon fill="none" stroke="#000000" points="538.5,-135 538.5,-153 620.5,-153 620.5,-135 538.5,-135"/>
<text text-anchor="start" x="601.5" y="-141.2" font-family="Helvetica,sans-Serif" font-size="11.00" fill="#000000">0 &gt;</text>
<polygon fill="none" stroke="#000000" stroke-width="2" points="378,-134 378,-242 621,-242 621,-134 378,-134"/>
</a>
</g>
</g>
<!-- parallel_word_owner&#45;&gt;edition_editor -->
<g id="edge2" class="edge">
<title>parallel_word_owner:w&#45;&gt;edition_editor:e</title>
<path fill="none" stroke="#000000" d="M364.7344,-186C352.1563,-186 344.5,-186 327,-186"/>
<polygon fill="#000000" stroke="#000000" points="371.5,-186.0001 379.5,-189.6 375.5,-186 379.5,-186 379.5,-186 379.5,-186 375.5,-186 379.5,-182.4 371.5,-186.0001 371.5,-186.0001"/>
<ellipse fill="none" stroke="#000000" cx="368.3" cy="-186.0001" rx="3.2" ry="3.2"/>
</g>
<!-- parallel_word_owner&#45;&gt;edition -->
<g id="edge3" class="edge">
<title>parallel_word_owner:w&#45;&gt;edition:e</title>
<path fill="none" stroke="#000000" d="M365.5416,-160.2163C347.1605,-146.8233 365.4884,-101.5315 336,-84 277.9317,-49.4771 249.4753,-67.3646 184,-84 164.1465,-89.0442 163.9843,-106 143.5,-106"/>
<polygon fill="#000000" stroke="#000000" points="371.7786,-161.9069 378.5581,-167.4746 375.6393,-162.9535 379.5,-164 379.5,-164 379.5,-164 375.6393,-162.9535 380.4419,-160.5254 371.7786,-161.9069 371.7786,-161.9069"/>
<ellipse fill="none" stroke="#000000" cx="368.6901" cy="-161.0697" rx="3.2" ry="3.2"/>
</g>
<!-- parallel_word -->
<g id="node4" class="node">
<title>parallel_word</title>
<g id="a_node4"><a xlink:href="../../tables/parallel_word.html" xlink:title="parallel_word" target="_top">
<polygon fill="#ffffff" stroke="transparent" points="192,-240 192,-390 328,-390 328,-240 192,-240"/>
<polygon fill="#f5f5f5" stroke="transparent" points="192,-368 192,-390 328,-390 328,-368 192,-368"/>
<polygon fill="none" stroke="#000000" points="192,-368 192,-390 328,-390 328,-368 192,-368"/>
<text text-anchor="start" x="197" y="-377.2" font-family="Helvetica,sans-Serif" font-weight="bold" font-size="11.00" fill="#000000">parallel_word</text>
<text text-anchor="start" x="293" y="-376.2" font-family="Helvetica,sans-Serif" font-size="11.00" fill="#000000">[table]</text>
<polygon fill="none" stroke="#000000" points="192,-346 192,-368 328,-368 328,-346 192,-346"/>
<image xlink:href="../../images/primaryKeys.png" width="11px" height="12px" preserveAspectRatio="xMinYMin meet" x="197" y="-363"/>
<text text-anchor="start" x="212" y="-354.2" font-family="Helvetica,sans-Serif" font-size="11.00" fill="#000000">parallel_word_id</text>
<polygon fill="#ffffff" stroke="transparent" points="192,-324 192,-346 328,-346 328,-324 192,-324"/>
<polygon fill="none" stroke="#000000" points="192,-324 192,-346 328,-346 328,-324 192,-324"/>
<image xlink:href="../../images/foreignKeys.png" width="11px" height="12px" preserveAspectRatio="xMinYMin meet" x="197" y="-341"/>
<text text-anchor="start" x="212" y="-332.2" font-family="Helvetica,sans-Serif" font-size="11.00" fill="#000000">word_id</text>
<polygon fill="#ffffff" stroke="transparent" points="192,-302 192,-324 328,-324 328,-302 192,-302"/>
<polygon fill="none" stroke="#000000" points="192,-302 192,-324 328,-324 328,-302 192,-302"/>
<image xlink:href="../../images/foreignKeys.png" width="11px" height="12px" preserveAspectRatio="xMinYMin meet" x="197" y="-319"/>
<text text-anchor="start" x="212" y="-310.2" font-family="Helvetica,sans-Serif" font-size="11.00" fill="#000000">parallel_group_id</text>
<polygon fill="#ffffff" stroke="transparent" points="192,-280 192,-302 328,-302 328,-280 192,-280"/>
<polygon fill="none" stroke="#000000" points="192,-280 192,-302 328,-302 328,-280 192,-280"/>
<text text-anchor="start" x="212" y="-288.2" font-family="Helvetica,sans-Serif" font-size="11.00" fill="#000000">sub_group</text>
<polygon fill="#ffffff" stroke="transparent" points="192,-258 192,-280 328,-280 328,-258 192,-258"/>
<polygon fill="none" stroke="#000000" points="192,-258 192,-280 328,-280 328,-258 192,-258"/>
<image xlink:href="../../images/foreignKeys.png" width="11px" height="12px" preserveAspectRatio="xMinYMin meet" x="197" y="-275"/>
<text text-anchor="start" x="212" y="-266.2" font-family="Helvetica,sans-Serif" font-size="11.00" fill="#000000">creator_id</text>
<polygon fill="#ffffff" stroke="transparent" points="192,-240 192,-258 240,-258 240,-240 192,-240"/>
<polygon fill="none" stroke="#000000" points="192,-240 192,-258 240,-258 240,-240 192,-240"/>
<text text-anchor="start" x="195" y="-246.2" font-family="Helvetica,sans-Serif" font-size="11.00" fill="#000000">&lt; 3</text>
<polygon fill="#ffffff" stroke="transparent" points="240,-240 240,-258 292,-258 292,-240 240,-240"/>
<polygon fill="none" stroke="#000000" points="240,-240 240,-258 292,-258 292,-240 240,-240"/>
<text text-anchor="start" x="256" y="-246.2" font-family="Helvetica,sans-Serif" font-size="11.00" fill="#000000">0 rows</text>
<polygon fill="#ffffff" stroke="transparent" points="292,-240 292,-258 328,-258 328,-240 292,-240"/>
<polygon fill="none" stroke="#000000" points="292,-240 292,-258 328,-258 328,-240 292,-240"/>
<text text-anchor="start" x="309" y="-246.2" font-family="Helvetica,sans-Serif" font-size="11.00" fill="#000000">1 &gt;</text>
</a>
</g>
</g>
<!-- parallel_word_owner&#45;&gt;parallel_word -->
<g id="edge4" class="edge">
<title>parallel_word_owner:w&#45;&gt;parallel_word:e</title>
<path fill="none" stroke="#000000" d="M365.2856,-210.8434C322.9071,-231.4427 392.3187,-357 328,-357"/>
<polygon fill="#000000" stroke="#000000" points="371.6554,-209.5693 380.2062,-211.5301 375.5777,-208.7846 379.5,-208 379.5,-208 379.5,-208 375.5777,-208.7846 378.7938,-204.4699 371.6554,-209.5693 371.6554,-209.5693"/>
<ellipse fill="none" stroke="#000000" cx="368.5176" cy="-210.197" rx="3.2" ry="3.2"/>
</g>
</g>
</svg>
