<?xml version="1.0" encoding="UTF-8" standalone="no"?>
<!DOCTYPE svg PUBLIC "-//W3C//DTD SVG 1.1//EN"
 "http://www.w3.org/Graphics/SVG/1.1/DTD/svg11.dtd">
<!-- Generated by graphviz version 2.40.1 (20161225.0304)
 -->
<!-- Title: twoDegreesRelationshipsDiagram Pages: 1 -->
<svg width="762pt" height="236pt"
 viewBox="0.00 0.00 762.00 236.00" xmlns="http://www.w3.org/2000/svg" xmlns:xlink="http://www.w3.org/1999/xlink">
<g id="graph0" class="graph" transform="scale(1 1) rotate(0) translate(4 232)">
<title>twoDegreesRelationshipsDiagram</title>
<polygon fill="#ffffff" stroke="transparent" points="-4,4 -4,-232 758,-232 758,4 -4,4"/>
<text text-anchor="middle" x="71.5" y="-7.2" font-family="Helvetica,sans-Serif" font-size="11.00" fill="#000000">Generated by SchemaSpy</text>
<!-- parallel_word -->
<g id="node1" class="node">
<title>parallel_word</title>
<g id="a_node1"><a xlink:href="../../tables/parallel_word.html" xlink:title="parallel_word" target="_top">
<polygon fill="#ffffff" stroke="transparent" points="408,-37 408,-187 544,-187 544,-37 408,-37"/>
<polygon fill="#f5f5f5" stroke="transparent" points="408,-165 408,-187 544,-187 544,-165 408,-165"/>
<polygon fill="none" stroke="#000000" points="408,-165 408,-187 544,-187 544,-165 408,-165"/>
<text text-anchor="start" x="413" y="-174.2" font-family="Helvetica,sans-Serif" font-weight="bold" font-size="11.00" fill="#000000">parallel_word</text>
<text text-anchor="start" x="509" y="-173.2" font-family="Helvetica,sans-Serif" font-size="11.00" fill="#000000">[table]</text>
<polygon fill="none" stroke="#000000" points="408,-143 408,-165 544,-165 544,-143 408,-143"/>
<image xlink:href="../../images/primaryKeys.png" width="11px" height="12px" preserveAspectRatio="xMinYMin meet" x="413" y="-160"/>
<text text-anchor="start" x="428" y="-151.2" font-family="Helvetica,sans-Serif" font-size="11.00" fill="#000000">parallel_word_id</text>
<polygon fill="#ffffff" stroke="transparent" points="408,-121 408,-143 544,-143 544,-121 408,-121"/>
<polygon fill="none" stroke="#000000" points="408,-121 408,-143 544,-143 544,-121 408,-121"/>
<image xlink:href="../../images/foreignKeys.png" width="11px" height="12px" preserveAspectRatio="xMinYMin meet" x="413" y="-138"/>
<text text-anchor="start" x="428" y="-129.2" font-family="Helvetica,sans-Serif" font-size="11.00" fill="#000000">word_id</text>
<polygon fill="#ffffff" stroke="transparent" points="408,-99 408,-121 544,-121 544,-99 408,-99"/>
<polygon fill="none" stroke="#000000" points="408,-99 408,-121 544,-121 544,-99 408,-99"/>
<image xlink:href="../../images/foreignKeys.png" width="11px" height="12px" preserveAspectRatio="xMinYMin meet" x="413" y="-116"/>
<text text-anchor="start" x="428" y="-107.2" font-family="Helvetica,sans-Serif" font-size="11.00" fill="#000000">parallel_group_id</text>
<polygon fill="#ffffff" stroke="transparent" points="408,-77 408,-99 544,-99 544,-77 408,-77"/>
<polygon fill="none" stroke="#000000" points="408,-77 408,-99 544,-99 544,-77 408,-77"/>
<text text-anchor="start" x="428" y="-85.2" font-family="Helvetica,sans-Serif" font-size="11.00" fill="#000000">sub_group</text>
<polygon fill="#ffffff" stroke="transparent" points="408,-55 408,-77 544,-77 544,-55 408,-55"/>
<polygon fill="none" stroke="#000000" points="408,-55 408,-77 544,-77 544,-55 408,-55"/>
<image xlink:href="../../images/foreignKeys.png" width="11px" height="12px" preserveAspectRatio="xMinYMin meet" x="413" y="-72"/>
<text text-anchor="start" x="428" y="-63.2" font-family="Helvetica,sans-Serif" font-size="11.00" fill="#000000">creator_id</text>
<polygon fill="#ffffff" stroke="transparent" points="408,-37 408,-55 456,-55 456,-37 408,-37"/>
<polygon fill="none" stroke="#000000" points="408,-37 408,-55 456,-55 456,-37 408,-37"/>
<text text-anchor="start" x="411" y="-43.2" font-family="Helvetica,sans-Serif" font-size="11.00" fill="#000000">&lt; 3</text>
<polygon fill="#ffffff" stroke="transparent" points="456,-37 456,-55 508,-55 508,-37 456,-37"/>
<polygon fill="none" stroke="#000000" points="456,-37 456,-55 508,-55 508,-37 456,-37"/>
<text text-anchor="start" x="472" y="-43.2" font-family="Helvetica,sans-Serif" font-size="11.00" fill="#000000">0 rows</text>
<polygon fill="#ffffff" stroke="transparent" points="508,-37 508,-55 544,-55 544,-37 508,-37"/>
<polygon fill="none" stroke="#000000" points="508,-37 508,-55 544,-55 544,-37 508,-37"/>
<text text-anchor="start" x="525" y="-43.2" font-family="Helvetica,sans-Serif" font-size="11.00" fill="#000000">1 &gt;</text>
</a>
</g>
</g>
<!-- user -->
<g id="node2" class="node">
<title>user</title>
<g id="a_node2"><a xlink:href="../../tables/user.html" xlink:title="user" target="_top">
<polygon fill="#ffffff" stroke="transparent" points="8,-97 8,-155 88,-155 88,-97 8,-97"/>
<polygon fill="#f5f5f5" stroke="transparent" points="8,-133 8,-155 88,-155 88,-133 8,-133"/>
<polygon fill="none" stroke="#000000" points="8,-133 8,-155 88,-155 88,-133 8,-133"/>
<text text-anchor="start" x="13" y="-142.2" font-family="Helvetica,sans-Serif" font-weight="bold" font-size="11.00" fill="#000000">user</text>
<text text-anchor="start" x="53" y="-141.2" font-family="Helvetica,sans-Serif" font-size="11.00" fill="#000000">[table]</text>
<polygon fill="none" stroke="#000000" points="8,-115 8,-133 88,-133 88,-115 8,-115"/>
<text text-anchor="start" x="11" y="-121.2" font-family="Helvetica,sans-Serif" font-size="11.00" fill="#000000">...</text>
<polygon fill="#ffffff" stroke="transparent" points="8,-97 8,-115 21,-115 21,-97 8,-97"/>
<polygon fill="none" stroke="#000000" points="8,-97 8,-115 21,-115 21,-97 8,-97"/>
<text text-anchor="start" x="11" y="-103.2" font-family="Helvetica,sans-Serif" font-size="11.00" fill="#000000"> &#160;</text>
<polygon fill="#ffffff" stroke="transparent" points="21,-97 21,-115 60,-115 60,-97 21,-97"/>
<polygon fill="none" stroke="#000000" points="21,-97 21,-115 60,-115 60,-97 21,-97"/>
<text text-anchor="start" x="24" y="-103.2" font-family="Helvetica,sans-Serif" font-size="11.00" fill="#000000">3 rows</text>
<polygon fill="#ffffff" stroke="transparent" points="60,-97 60,-115 88,-115 88,-97 60,-97"/>
<polygon fill="none" stroke="#000000" points="60,-97 60,-115 88,-115 88,-97 60,-97"/>
<text text-anchor="start" x="63" y="-103.2" font-family="Helvetica,sans-Serif" font-size="11.00" fill="#000000">40 &gt;</text>
</a>
</g>
</g>
<!-- parallel_word&#45;&gt;user -->
<g id="edge1" class="edge">
<title>parallel_word:w&#45;&gt;user:e</title>
<path fill="none" stroke="#000000" d="M393.4778,-65.7545C280.3267,-61.9141 235.1081,-15.0364 129,-69 101.8236,-82.8211 118.489,-124 88,-124"/>
<polygon fill="#000000" stroke="#000000" points="400.0011,-65.8647 407.9391,-69.5995 404.0006,-65.9324 408,-66 408,-66 408,-66 404.0006,-65.9324 408.0609,-62.4005 400.0011,-65.8647 400.0011,-65.8647"/>
<ellipse fill="none" stroke="#000000" cx="396.8016" cy="-65.8106" rx="3.2" ry="3.2"/>
</g>
<!-- parallel_group -->
<g id="node3" class="node">
<title>parallel_group</title>
<g id="a_node3"><a xlink:href="../../tables/parallel_group.html" xlink:title="parallel_group" target="_top">
<polygon fill="#ffffff" stroke="transparent" points="137,-79 137,-145 359,-145 359,-79 137,-79"/>
<polygon fill="#f5f5f5" stroke="transparent" points="139,-121 139,-143 357,-143 357,-121 139,-121"/>
<polygon fill="none" stroke="#000000" points="139,-121 139,-143 357,-143 357,-121 139,-121"/>
<text text-anchor="start" x="144" y="-130.2" font-family="Helvetica,sans-Serif" font-weight="bold" font-size="11.00" fill="#000000">parallel_group</text>
<text text-anchor="start" x="322" y="-129.2" font-family="Helvetica,sans-Serif" font-size="11.00" fill="#000000">[table]</text>
<polygon fill="none" stroke="#000000" points="139,-99 139,-121 275,-121 275,-99 139,-99"/>
<image xlink:href="../../images/primaryKeys.png" width="11px" height="12px" preserveAspectRatio="xMinYMin meet" x="144" y="-116"/>
<text text-anchor="start" x="159" y="-107.2" font-family="Helvetica,sans-Serif" font-size="11.00" fill="#000000">parallel_group_id</text>
<polygon fill="none" stroke="#000000" points="275,-99 275,-121 357,-121 357,-99 275,-99"/>
<text text-anchor="start" x="278" y="-107.2" font-family="Helvetica,sans-Serif" font-size="11.00" fill="#000000">int unsigned[10]</text>
<polygon fill="#ffffff" stroke="transparent" points="139,-81 139,-99 198,-99 198,-81 139,-81"/>
<polygon fill="none" stroke="#000000" points="139,-81 139,-99 198,-99 198,-81 139,-81"/>
<text text-anchor="start" x="142" y="-87.2" font-family="Helvetica,sans-Serif" font-size="11.00" fill="#000000">&lt; 0</text>
<polygon fill="#ffffff" stroke="transparent" points="198,-81 198,-99 275,-99 275,-81 198,-81"/>
<polygon fill="none" stroke="#000000" points="198,-81 198,-99 275,-99 275,-81 198,-81"/>
<text text-anchor="start" x="239" y="-87.2" font-family="Helvetica,sans-Serif" font-size="11.00" fill="#000000">0 rows</text>
<polygon fill="#ffffff" stroke="transparent" points="275,-81 275,-99 357,-99 357,-81 275,-81"/>
<polygon fill="none" stroke="#000000" points="275,-81 275,-99 357,-99 357,-81 275,-81"/>
<text text-anchor="start" x="338" y="-87.2" font-family="Helvetica,sans-Serif" font-size="11.00" fill="#000000">1 &gt;</text>
<polygon fill="none" stroke="#000000" stroke-width="2" points="138,-80 138,-144 358,-144 358,-80 138,-80"/>
</a>
</g>
</g>
<!-- parallel_word&#45;&gt;parallel_group -->
<g id="edge2" class="edge">
<title>parallel_word:w&#45;&gt;parallel_group:e</title>
<path fill="none" stroke="#000000" d="M393.276,-110C381.2815,-110 373.8229,-110 357,-110"/>
<polygon fill="#000000" stroke="#000000" points="400,-110.0001 408,-113.6 404,-110 408,-110 408,-110 408,-110 404,-110 408,-106.4 400,-110.0001 400,-110.0001"/>
<ellipse fill="none" stroke="#000000" cx="396.8" cy="-110.0001" rx="3.2" ry="3.2"/>
</g>
<!-- sign_stream_section -->
<g id="node4" class="node">
<title>sign_stream_section</title>
<g id="a_node4"><a xlink:href="../../tables/sign_stream_section.html" xlink:title="sign_stream_section" target="_top">
<polygon fill="#ffffff" stroke="transparent" points="171.5,-166 171.5,-224 324.5,-224 324.5,-166 171.5,-166"/>
<polygon fill="#f5f5f5" stroke="transparent" points="172,-202 172,-224 325,-224 325,-202 172,-202"/>
<polygon fill="none" stroke="#000000" points="172,-202 172,-224 325,-224 325,-202 172,-202"/>
<text text-anchor="start" x="177" y="-211.2" font-family="Helvetica,sans-Serif" font-weight="bold" font-size="11.00" fill="#000000">sign_stream_section</text>
<text text-anchor="start" x="290" y="-210.2" font-family="Helvetica,sans-Serif" font-size="11.00" fill="#000000">[table]</text>
<polygon fill="none" stroke="#000000" points="172,-184 172,-202 325,-202 325,-184 172,-184"/>
<text text-anchor="start" x="175" y="-190.2" font-family="Helvetica,sans-Serif" font-size="11.00" fill="#000000">...</text>
<polygon fill="#ffffff" stroke="transparent" points="172,-166 172,-184 212,-184 212,-166 172,-166"/>
<polygon fill="none" stroke="#000000" points="172,-166 172,-184 212,-184 212,-166 172,-166"/>
<text text-anchor="start" x="175" y="-172.2" font-family="Helvetica,sans-Serif" font-size="11.00" fill="#000000">&lt; 1</text>
<polygon fill="#ffffff" stroke="transparent" points="212,-166 212,-184 293,-184 293,-166 212,-166"/>
<polygon fill="none" stroke="#000000" points="212,-166 212,-184 293,-184 293,-166 212,-166"/>
<text text-anchor="start" x="224" y="-172.2" font-family="Helvetica,sans-Serif" font-size="11.00" fill="#000000">327,795 rows</text>
<polygon fill="#ffffff" stroke="transparent" points="293,-166 293,-184 325,-184 325,-166 293,-166"/>
<polygon fill="none" stroke="#000000" points="293,-166 293,-184 325,-184 325,-166 293,-166"/>
<text text-anchor="start" x="306" y="-172.2" font-family="Helvetica,sans-Serif" font-size="11.00" fill="#000000">4 &gt;</text>
</a>
</g>
</g>
<!-- parallel_word&#45;&gt;sign_stream_section -->
<g id="edge3" class="edge">
<title>parallel_word:w&#45;&gt;sign_stream_section:e</title>
<path fill="none" stroke="#000000" d="M393.5665,-134.4668C363.4963,-145.879 365.2363,-193 325,-193"/>
<polygon fill="#000000" stroke="#000000" points="400.1143,-133.3478 408.6065,-135.5485 404.0572,-132.6739 408,-132 408,-132 408,-132 404.0572,-132.6739 407.3935,-128.4515 400.1143,-133.3478 400.1143,-133.3478"/>
<ellipse fill="none" stroke="#000000" cx="396.9601" cy="-133.8869" rx="3.2" ry="3.2"/>
</g>
<!-- sign_stream_section&#45;&gt;user -->
<g id="edge5" class="edge">
<title>sign_stream_section:w&#45;&gt;user:e</title>
<path fill="none" stroke="#000000" d="M157.7498,-190.5443C125.7651,-178.2526 130.8407,-124 88,-124"/>
<polygon fill="#000000" stroke="#000000" points="164.1162,-191.6413 171.3886,-196.5477 168.0581,-192.3207 172,-193 172,-193 172,-193 168.0581,-192.3207 172.6114,-189.4523 164.1162,-191.6413 164.1162,-191.6413"/>
<ellipse fill="none" stroke="#000000" cx="160.9627" cy="-191.0979" rx="3.2" ry="3.2"/>
</g>
<!-- parallel_word_owner -->
<g id="node5" class="node">
<title>parallel_word_owner</title>
<g id="a_node5"><a xlink:href="../../tables/parallel_word_owner.html" xlink:title="parallel_word_owner" target="_top">
<polygon fill="#ffffff" stroke="transparent" points="593,-127 593,-185 746,-185 746,-127 593,-127"/>
<polygon fill="#f5f5f5" stroke="transparent" points="593.5,-163 593.5,-185 746.5,-185 746.5,-163 593.5,-163"/>
<polygon fill="none" stroke="#000000" points="593.5,-163 593.5,-185 746.5,-185 746.5,-163 593.5,-163"/>
<text text-anchor="start" x="598.5" y="-172.2" font-family="Helvetica,sans-Serif" font-weight="bold" font-size="11.00" fill="#000000">parallel_word_owner</text>
<text text-anchor="start" x="711.5" y="-171.2" font-family="Helvetica,sans-Serif" font-size="11.00" fill="#000000">[table]</text>
<polygon fill="none" stroke="#000000" points="593.5,-145 593.5,-163 746.5,-163 746.5,-145 593.5,-145"/>
<text text-anchor="start" x="596.5" y="-151.2" font-family="Helvetica,sans-Serif" font-size="11.00" fill="#000000">...</text>
<polygon fill="#ffffff" stroke="transparent" points="593.5,-127 593.5,-145 654.5,-145 654.5,-127 593.5,-127"/>
<polygon fill="none" stroke="#000000" points="593.5,-127 593.5,-145 654.5,-145 654.5,-127 593.5,-127"/>
<text text-anchor="start" x="596.5" y="-133.2" font-family="Helvetica,sans-Serif" font-size="11.00" fill="#000000">&lt; 3</text>
<polygon fill="#ffffff" stroke="transparent" points="654.5,-127 654.5,-145 713.5,-145 713.5,-127 654.5,-127"/>
<polygon fill="none" stroke="#000000" points="654.5,-127 654.5,-145 713.5,-145 713.5,-127 654.5,-127"/>
<text text-anchor="start" x="677.5" y="-133.2" font-family="Helvetica,sans-Serif" font-size="11.00" fill="#000000">0 rows</text>
<polygon fill="#ffffff" stroke="transparent" points="713.5,-127 713.5,-145 746.5,-145 746.5,-127 713.5,-127"/>
<polygon fill="none" stroke="#000000" points="713.5,-127 713.5,-145 746.5,-145 746.5,-127 713.5,-127"/>
<text text-anchor="start" x="736.5" y="-133.2" font-family="Helvetica,sans-Serif" font-size="11.00" fill="#000000"> &#160;</text>
</a>
</g>
</g>
<!-- parallel_word_owner&#45;&gt;parallel_word -->
<g id="edge4" class="edge">
<title>parallel_word_owner:w&#45;&gt;parallel_word:e</title>
<path fill="none" stroke="#000000" d="M578.8428,-154C567.4139,-154 560.1563,-154 544,-154"/>
<polygon fill="#000000" stroke="#000000" points="585.5,-154.0001 593.5,-157.6 589.5,-154 593.5,-154 593.5,-154 593.5,-154 589.5,-154 593.5,-150.4 585.5,-154.0001 585.5,-154.0001"/>
<ellipse fill="none" stroke="#000000" cx="582.3" cy="-154.0001" rx="3.2" ry="3.2"/>
</g>
</g>
</svg>
