<?xml version="1.0" encoding="UTF-8" standalone="no"?>
<!DOCTYPE svg PUBLIC "-//W3C//DTD SVG 1.1//EN"
 "http://www.w3.org/Graphics/SVG/1.1/DTD/svg11.dtd">
<!-- Generated by graphviz version 2.43.0 (0)
 -->
<!-- Title: oneDegreeRelationshipsDiagram Pages: 1 -->
<svg width="756pt" height="282pt"
 viewBox="0.00 0.00 756.00 282.00" xmlns="http://www.w3.org/2000/svg" xmlns:xlink="http://www.w3.org/1999/xlink">
<g id="graph0" class="graph" transform="scale(1 1) rotate(0) translate(4 278)">
<title>oneDegreeRelationshipsDiagram</title>
<polygon fill="#ffffff" stroke="transparent" points="-4,4 -4,-278 752,-278 752,4 -4,4"/>
<text text-anchor="middle" x="79.5" y="-7.2" font-family="Helvetica,sans-Serif" font-size="11.00">Generated by SchemaSpy</text>
<!-- parallel_group_pair -->
<g id="node1" class="node">
<title>parallel_group_pair</title>
<g id="a_node1"><a xlink:href="../../tables/parallel_group_pair.html" xlink:title="parallel_group_pair" target="_top">
<polygon fill="#ffffff" stroke="transparent" points="196,-87 196,-197 466,-197 466,-87 196,-87"/>
<polygon fill="#f5f5f5" stroke="transparent" points="198,-173 198,-195 464,-195 464,-173 198,-173"/>
<polygon fill="none" stroke="black" points="198,-173 198,-195 464,-195 464,-173 198,-173"/>
<text text-anchor="start" x="203" y="-182.2" font-family="Helvetica,sans-Serif" font-weight="bold" font-size="11.00">parallel_group_pair</text>
<text text-anchor="start" x="422" y="-181.2" font-family="Helvetica,sans-Serif" font-size="11.00">[table]</text>
<polygon fill="none" stroke="black" points="198,-151 198,-173 367,-173 367,-151 198,-151"/>
<image xlink:href="../../images/primaryKeys.png" width="11px" height="12px" preserveAspectRatio="xMinYMin meet" x="203" y="-168"/>
<text text-anchor="start" x="218" y="-159.2" font-family="Helvetica,sans-Serif" font-size="11.00">parallel_group_pair_id</text>
<polygon fill="none" stroke="black" points="367,-151 367,-173 464,-173 464,-151 367,-151"/>
<text text-anchor="start" x="370" y="-159.2" font-family="Helvetica,sans-Serif" font-size="11.00">int unsigned[10]</text>
<polygon fill="#ffffff" stroke="transparent" points="198,-129 198,-151 367,-151 367,-129 198,-129"/>
<polygon fill="none" stroke="black" points="198,-129 198,-151 367,-151 367,-129 198,-129"/>
<image xlink:href="../../images/foreignKeys.png" width="11px" height="12px" preserveAspectRatio="xMinYMin meet" x="203" y="-146"/>
<text text-anchor="start" x="218" y="-137.2" font-family="Helvetica,sans-Serif" font-size="11.00">parallel_group_a_id</text>
<polygon fill="none" stroke="black" points="367,-129 367,-151 464,-151 464,-129 367,-129"/>
<text text-anchor="start" x="370" y="-137.2" font-family="Helvetica,sans-Serif" font-size="11.00">int unsigned[10]</text>
<polygon fill="#ffffff" stroke="transparent" points="198,-107 198,-129 367,-129 367,-107 198,-107"/>
<polygon fill="none" stroke="black" points="198,-107 198,-129 367,-129 367,-107 198,-107"/>
<image xlink:href="../../images/foreignKeys.png" width="11px" height="12px" preserveAspectRatio="xMinYMin meet" x="203" y="-124"/>
<text text-anchor="start" x="218" y="-115.2" font-family="Helvetica,sans-Serif" font-size="11.00">parallel_group_b_id</text>
<polygon fill="none" stroke="black" points="367,-107 367,-129 464,-129 464,-107 367,-107"/>
<text text-anchor="start" x="370" y="-115.2" font-family="Helvetica,sans-Serif" font-size="11.00">int unsigned[10]</text>
<polygon fill="#ffffff" stroke="transparent" points="198,-89 198,-107 274,-107 274,-89 198,-89"/>
<polygon fill="none" stroke="black" points="198,-89 198,-107 274,-107 274,-89 198,-89"/>
<text text-anchor="start" x="201" y="-95.2" font-family="Helvetica,sans-Serif" font-size="11.00">&lt; 2</text>
<polygon fill="#ffffff" stroke="transparent" points="274,-89 274,-107 367,-107 367,-89 274,-89"/>
<polygon fill="none" stroke="black" points="274,-89 274,-107 367,-107 367,-89 274,-89"/>
<text text-anchor="start" x="327" y="-95.2" font-family="Helvetica,sans-Serif" font-size="11.00">0 rows</text>
<polygon fill="#ffffff" stroke="transparent" points="367,-89 367,-107 464,-107 464,-89 367,-89"/>
<polygon fill="none" stroke="black" points="367,-89 367,-107 464,-107 464,-89 367,-89"/>
<text text-anchor="start" x="441" y="-95.2" font-family="Helvetica,sans-Serif" font-size="11.00">2 &gt;</text>
<polygon fill="none" stroke="black" stroke-width="2" points="197,-88 197,-196 465,-196 465,-88 197,-88"/>
</a>
</g>
</g>
<!-- parallel_group -->
<g id="node2" class="node">
<title>parallel_group</title>
<g id="a_node2"><a xlink:href="../../tables/parallel_group.html" xlink:title="parallel_group" target="_top">
<polygon fill="#ffffff" stroke="transparent" points="8,-100 8,-162 147,-162 147,-100 8,-100"/>
<polygon fill="#f5f5f5" stroke="transparent" points="8.5,-140 8.5,-162 147.5,-162 147.5,-140 8.5,-140"/>
<polygon fill="none" stroke="black" points="8.5,-140 8.5,-162 147.5,-162 147.5,-140 8.5,-140"/>
<text text-anchor="start" x="13.5" y="-149.2" font-family="Helvetica,sans-Serif" font-weight="bold" font-size="11.00">parallel_group</text>
<text text-anchor="start" x="105.5" y="-148.2" font-family="Helvetica,sans-Serif" font-size="11.00">[table]</text>
<polygon fill="none" stroke="black" points="8.5,-118 8.5,-140 147.5,-140 147.5,-118 8.5,-118"/>
<image xlink:href="../../images/primaryKeys.png" width="11px" height="12px" preserveAspectRatio="xMinYMin meet" x="13.5" y="-135"/>
<text text-anchor="start" x="30.5" y="-126.2" font-family="Helvetica,sans-Serif" font-size="11.00">parallel_group_id</text>
<polygon fill="#ffffff" stroke="transparent" points="8.5,-100 8.5,-118 50.5,-118 50.5,-100 8.5,-100"/>
<polygon fill="none" stroke="black" points="8.5,-100 8.5,-118 50.5,-118 50.5,-100 8.5,-100"/>
<text text-anchor="start" x="11.5" y="-106.2" font-family="Helvetica,sans-Serif" font-size="11.00"> &#160;</text>
<polygon fill="#ffffff" stroke="transparent" points="50.5,-100 50.5,-118 107.5,-118 107.5,-100 50.5,-100"/>
<polygon fill="none" stroke="black" points="50.5,-100 50.5,-118 107.5,-118 107.5,-100 50.5,-100"/>
<text text-anchor="start" x="67.5" y="-106.2" font-family="Helvetica,sans-Serif" font-size="11.00">0 rows</text>
<polygon fill="#ffffff" stroke="transparent" points="107.5,-100 107.5,-118 147.5,-118 147.5,-100 107.5,-100"/>
<polygon fill="none" stroke="black" points="107.5,-100 107.5,-118 147.5,-118 147.5,-100 107.5,-100"/>
<text text-anchor="start" x="124.5" y="-106.2" font-family="Helvetica,sans-Serif" font-size="11.00">3 &gt;</text>
</a>
</g>
</g>
<!-- parallel_group_pair&#45;&gt;parallel_group -->
<g id="edge1" class="edge">
<title>parallel_group_pair:w&#45;&gt;parallel_group:e</title>
<path fill="none" stroke="black" d="M182.49,-138.08C171.36,-134.93 164.73,-129 148.5,-129"/>
<polygon fill="black" stroke="black" points="189.07,-138.95 196.53,-143.57 193.03,-139.48 197,-140 197,-140 197,-140 193.03,-139.48 197.47,-136.43 189.07,-138.95 189.07,-138.95"/>
<ellipse fill="none" stroke="black" cx="185.9" cy="-138.53" rx="3.2" ry="3.2"/>
</g>
<!-- parallel_group_pair&#45;&gt;parallel_group -->
<g id="edge2" class="edge">
<title>parallel_group_pair:w&#45;&gt;parallel_group:e</title>
<path fill="none" stroke="black" d="M182.49,-119.92C171.36,-123.07 164.73,-129 148.5,-129"/>
<polygon fill="black" stroke="black" points="189.07,-119.05 197.47,-121.57 193.03,-118.52 197,-118 197,-118 197,-118 193.03,-118.52 196.53,-114.43 189.07,-119.05 189.07,-119.05"/>
<ellipse fill="none" stroke="black" cx="185.9" cy="-119.47" rx="3.2" ry="3.2"/>
</g>
<!-- parallel_group_pair_owner -->
<g id="node3" class="node">
<title>parallel_group_pair_owner</title>
<g id="a_node3"><a xlink:href="../../tables/parallel_group_pair_owner.html" xlink:title="parallel_group_pair_owner" target="_top">
<polygon fill="#ffffff" stroke="transparent" points="522,-164 522,-270 733,-270 733,-164 522,-164"/>
<polygon fill="#f5f5f5" stroke="transparent" points="522.5,-248 522.5,-270 733.5,-270 733.5,-248 522.5,-248"/>
<polygon fill="none" stroke="black" points="522.5,-248 522.5,-270 733.5,-270 733.5,-248 522.5,-248"/>
<text text-anchor="start" x="527.5" y="-257.2" font-family="Helvetica,sans-Serif" font-weight="bold" font-size="11.00">parallel_group_pair_owner</text>
<text text-anchor="start" x="691.5" y="-256.2" font-family="Helvetica,sans-Serif" font-size="11.00">[table]</text>
<polygon fill="none" stroke="black" points="522.5,-226 522.5,-248 733.5,-248 733.5,-226 522.5,-226"/>
<image xlink:href="../../images/primaryKeys.png" width="11px" height="12px" preserveAspectRatio="xMinYMin meet" x="527.5" y="-243"/>
<text text-anchor="start" x="549.5" y="-234.2" font-family="Helvetica,sans-Serif" font-size="11.00">parallel_group_pair_id</text>
<polygon fill="#ffffff" stroke="transparent" points="522.5,-204 522.5,-226 733.5,-226 733.5,-204 522.5,-204"/>
<polygon fill="none" stroke="black" points="522.5,-204 522.5,-226 733.5,-226 733.5,-204 522.5,-204"/>
<image xlink:href="../../images/foreignKeys.png" width="11px" height="12px" preserveAspectRatio="xMinYMin meet" x="527.5" y="-221"/>
<text text-anchor="start" x="549.5" y="-212.2" font-family="Helvetica,sans-Serif" font-size="11.00">edition_editor_id</text>
<polygon fill="none" stroke="black" points="522.5,-182 522.5,-204 733.5,-204 733.5,-182 522.5,-182"/>
<image xlink:href="../../images/primaryKeys.png" width="11px" height="12px" preserveAspectRatio="xMinYMin meet" x="527.5" y="-199"/>
<text text-anchor="start" x="549.5" y="-190.2" font-family="Helvetica,sans-Serif" font-size="11.00">edition_id</text>
<polygon fill="#ffffff" stroke="transparent" points="522.5,-164 522.5,-182 612.5,-182 612.5,-164 522.5,-164"/>
<polygon fill="none" stroke="black" points="522.5,-164 522.5,-182 612.5,-182 612.5,-164 522.5,-164"/>
<text text-anchor="start" x="525.5" y="-170.2" font-family="Helvetica,sans-Serif" font-size="11.00">&lt; 3</text>
<polygon fill="#ffffff" stroke="transparent" points="612.5,-164 612.5,-182 687.5,-182 687.5,-164 612.5,-164"/>
<polygon fill="none" stroke="black" points="612.5,-164 612.5,-182 687.5,-182 687.5,-164 612.5,-164"/>
<text text-anchor="start" x="647.5" y="-170.2" font-family="Helvetica,sans-Serif" font-size="11.00">0 rows</text>
<polygon fill="#ffffff" stroke="transparent" points="687.5,-164 687.5,-182 733.5,-182 733.5,-164 687.5,-164"/>
<polygon fill="none" stroke="black" points="687.5,-164 687.5,-182 733.5,-182 733.5,-164 687.5,-164"/>
<text text-anchor="start" x="722.5" y="-170.2" font-family="Helvetica,sans-Serif" font-size="11.00"> &#160;</text>
</a>
</g>
</g>
<!-- parallel_group_pair_owner&#45;&gt;parallel_group_pair -->
<g id="edge3" class="edge">
<title>parallel_group_pair_owner:w&#45;&gt;parallel_group_pair:e</title>
<path fill="none" stroke="black" d="M507.59,-232.97C485.99,-217.39 500.86,-162 465,-162"/>
<polygon fill="black" stroke="black" points="513.82,-234.77 520.5,-240.46 517.66,-235.89 521.5,-237 521.5,-237 521.5,-237 517.66,-235.89 522.5,-233.54 513.82,-234.77 513.82,-234.77"/>
<ellipse fill="none" stroke="black" cx="510.74" cy="-233.88" rx="3.2" ry="3.2"/>
</g>
<!-- parallel_group_pair_to_type -->
<g id="node4" class="node">
<title>parallel_group_pair_to_type</title>
<g id="a_node4"><a xlink:href="../../tables/parallel_group_pair_to_type.html" xlink:title="parallel_group_pair_to_type" target="_top">
<polygon fill="#ffffff" stroke="transparent" points="515,-37 515,-143 740,-143 740,-37 515,-37"/>
<polygon fill="#f5f5f5" stroke="transparent" points="515.5,-121 515.5,-143 740.5,-143 740.5,-121 515.5,-121"/>
<polygon fill="none" stroke="black" points="515.5,-121 515.5,-143 740.5,-143 740.5,-121 515.5,-121"/>
<text text-anchor="start" x="520.5" y="-130.2" font-family="Helvetica,sans-Serif" font-weight="bold" font-size="11.00">parallel_group_pair_to_type</text>
<text text-anchor="start" x="698.5" y="-129.2" font-family="Helvetica,sans-Serif" font-size="11.00">[table]</text>
<polygon fill="none" stroke="black" points="515.5,-99 515.5,-121 740.5,-121 740.5,-99 515.5,-99"/>
<image xlink:href="../../images/primaryKeys.png" width="11px" height="12px" preserveAspectRatio="xMinYMin meet" x="520.5" y="-116"/>
<text text-anchor="start" x="535.5" y="-107.2" font-family="Helvetica,sans-Serif" font-size="11.00">parallel_group_pair_to_type_id</text>
<polygon fill="#ffffff" stroke="transparent" points="515.5,-77 515.5,-99 740.5,-99 740.5,-77 515.5,-77"/>
<polygon fill="none" stroke="black" points="515.5,-77 515.5,-99 740.5,-99 740.5,-77 515.5,-77"/>
<image xlink:href="../../images/foreignKeys.png" width="11px" height="12px" preserveAspectRatio="xMinYMin meet" x="520.5" y="-94"/>
<text text-anchor="start" x="535.5" y="-85.2" font-family="Helvetica,sans-Serif" font-size="11.00">parallel_group_pair_id</text>
<polygon fill="#ffffff" stroke="transparent" points="515.5,-55 515.5,-77 740.5,-77 740.5,-55 515.5,-55"/>
<polygon fill="none" stroke="black" points="515.5,-55 515.5,-77 740.5,-77 740.5,-55 515.5,-55"/>
<image xlink:href="../../images/foreignKeys.png" width="11px" height="12px" preserveAspectRatio="xMinYMin meet" x="520.5" y="-72"/>
<text text-anchor="start" x="535.5" y="-63.2" font-family="Helvetica,sans-Serif" font-size="11.00">parallel_type_id</text>
<polygon fill="#ffffff" stroke="transparent" points="515.5,-37 515.5,-55 606.5,-55 606.5,-37 515.5,-37"/>
<polygon fill="none" stroke="black" points="515.5,-37 515.5,-55 606.5,-55 606.5,-37 515.5,-37"/>
<text text-anchor="start" x="518.5" y="-43.2" font-family="Helvetica,sans-Serif" font-size="11.00">&lt; 2</text>
<polygon fill="#ffffff" stroke="transparent" points="606.5,-37 606.5,-55 681.5,-55 681.5,-37 606.5,-37"/>
<polygon fill="none" stroke="black" points="606.5,-37 606.5,-55 681.5,-55 681.5,-37 606.5,-37"/>
<text text-anchor="start" x="641.5" y="-43.2" font-family="Helvetica,sans-Serif" font-size="11.00">0 rows</text>
<polygon fill="#ffffff" stroke="transparent" points="681.5,-37 681.5,-55 740.5,-55 740.5,-37 681.5,-37"/>
<polygon fill="none" stroke="black" points="681.5,-37 681.5,-55 740.5,-55 740.5,-37 681.5,-37"/>
<text text-anchor="start" x="717.5" y="-43.2" font-family="Helvetica,sans-Serif" font-size="11.00">1 &gt;</text>
</a>
</g>
</g>
<!-- parallel_group_pair_to_type&#45;&gt;parallel_group_pair -->
<g id="edge4" class="edge">
<title>parallel_group_pair_to_type:w&#45;&gt;parallel_group_pair:e</title>
<path fill="none" stroke="black" d="M500.75,-92.63C482.36,-108.83 498.54,-162 465,-162"/>
<polygon fill="black" stroke="black" points="506.92,-90.55 515.65,-91.41 510.71,-89.28 514.5,-88 514.5,-88 514.5,-88 510.71,-89.28 513.35,-84.59 506.92,-90.55 506.92,-90.55"/>
<ellipse fill="none" stroke="black" cx="503.88" cy="-91.57" rx="3.2" ry="3.2"/>
</g>
</g>
</svg>
