<?xml version="1.0" encoding="UTF-8" standalone="no"?>
<!DOCTYPE svg PUBLIC "-//W3C//DTD SVG 1.1//EN"
 "http://www.w3.org/Graphics/SVG/1.1/DTD/svg11.dtd">
<!-- Generated by graphviz version 2.43.0 (0)
 -->
<!-- Title: oneDegreeRelationshipsDiagram Pages: 1 -->
<svg width="543pt" height="282pt"
 viewBox="0.00 0.00 543.00 282.00" xmlns="http://www.w3.org/2000/svg" xmlns:xlink="http://www.w3.org/1999/xlink">
<g id="graph0" class="graph" transform="scale(1 1) rotate(0) translate(4 278)">
<title>oneDegreeRelationshipsDiagram</title>
<polygon fill="#ffffff" stroke="transparent" points="-4,4 -4,-278 539,-278 539,4 -4,4"/>
<text text-anchor="middle" x="79.5" y="-7.2" font-family="Helvetica,sans-Serif" font-size="11.00">Generated by SchemaSpy</text>
<!-- parallel_group_pair -->
<g id="node1" class="node">
<title>parallel_group_pair</title>
<g id="a_node1"><a xlink:href="../../tables/parallel_group_pair.html" xlink:title="parallel_group_pair" target="_top">
<polygon fill="#ffffff" stroke="transparent" points="326,-164 326,-270 495,-270 495,-164 326,-164"/>
<polygon fill="#f5f5f5" stroke="transparent" points="326.5,-248 326.5,-270 495.5,-270 495.5,-248 326.5,-248"/>
<polygon fill="none" stroke="black" points="326.5,-248 326.5,-270 495.5,-270 495.5,-248 326.5,-248"/>
<text text-anchor="start" x="331.5" y="-257.2" font-family="Helvetica,sans-Serif" font-weight="bold" font-size="11.00">parallel_group_pair</text>
<text text-anchor="start" x="453.5" y="-256.2" font-family="Helvetica,sans-Serif" font-size="11.00">[table]</text>
<polygon fill="none" stroke="black" points="326.5,-226 326.5,-248 495.5,-248 495.5,-226 326.5,-226"/>
<image xlink:href="../../images/primaryKeys.png" width="11px" height="12px" preserveAspectRatio="xMinYMin meet" x="331.5" y="-243"/>
<text text-anchor="start" x="346.5" y="-234.2" font-family="Helvetica,sans-Serif" font-size="11.00">parallel_group_pair_id</text>
<polygon fill="#ffffff" stroke="transparent" points="326.5,-204 326.5,-226 495.5,-226 495.5,-204 326.5,-204"/>
<polygon fill="none" stroke="black" points="326.5,-204 326.5,-226 495.5,-226 495.5,-204 326.5,-204"/>
<image xlink:href="../../images/foreignKeys.png" width="11px" height="12px" preserveAspectRatio="xMinYMin meet" x="331.5" y="-221"/>
<text text-anchor="start" x="346.5" y="-212.2" font-family="Helvetica,sans-Serif" font-size="11.00">parallel_group_a_id</text>
<polygon fill="#ffffff" stroke="transparent" points="326.5,-182 326.5,-204 495.5,-204 495.5,-182 326.5,-182"/>
<polygon fill="none" stroke="black" points="326.5,-182 326.5,-204 495.5,-204 495.5,-182 326.5,-182"/>
<image xlink:href="../../images/foreignKeys.png" width="11px" height="12px" preserveAspectRatio="xMinYMin meet" x="331.5" y="-199"/>
<text text-anchor="start" x="346.5" y="-190.2" font-family="Helvetica,sans-Serif" font-size="11.00">parallel_group_b_id</text>
<polygon fill="#ffffff" stroke="transparent" points="326.5,-164 326.5,-182 389.5,-182 389.5,-164 326.5,-164"/>
<polygon fill="none" stroke="black" points="326.5,-164 326.5,-182 389.5,-182 389.5,-164 326.5,-164"/>
<text text-anchor="start" x="329.5" y="-170.2" font-family="Helvetica,sans-Serif" font-size="11.00">&lt; 2</text>
<polygon fill="#ffffff" stroke="transparent" points="389.5,-164 389.5,-182 450.5,-182 450.5,-164 389.5,-164"/>
<polygon fill="none" stroke="black" points="389.5,-164 389.5,-182 450.5,-182 450.5,-164 389.5,-164"/>
<text text-anchor="start" x="410.5" y="-170.2" font-family="Helvetica,sans-Serif" font-size="11.00">0 rows</text>
<polygon fill="#ffffff" stroke="transparent" points="450.5,-164 450.5,-182 495.5,-182 495.5,-164 450.5,-164"/>
<polygon fill="none" stroke="black" points="450.5,-164 450.5,-182 495.5,-182 495.5,-164 450.5,-164"/>
<text text-anchor="start" x="472.5" y="-170.2" font-family="Helvetica,sans-Serif" font-size="11.00">2 &gt;</text>
</a>
</g>
</g>
<!-- parallel_group -->
<g id="node2" class="node">
<title>parallel_group</title>
<g id="a_node2"><a xlink:href="../../tables/parallel_group.html" xlink:title="parallel_group" target="_top">
<polygon fill="#ffffff" stroke="transparent" points="8,-162 8,-228 245,-228 245,-162 8,-162"/>
<polygon fill="#f5f5f5" stroke="transparent" points="10.5,-204 10.5,-226 243.5,-226 243.5,-204 10.5,-204"/>
<polygon fill="none" stroke="black" points="10.5,-204 10.5,-226 243.5,-226 243.5,-204 10.5,-204"/>
<text text-anchor="start" x="15.5" y="-213.2" font-family="Helvetica,sans-Serif" font-weight="bold" font-size="11.00">parallel_group</text>
<text text-anchor="start" x="201.5" y="-212.2" font-family="Helvetica,sans-Serif" font-size="11.00">[table]</text>
<polygon fill="none" stroke="black" points="10.5,-182 10.5,-204 146.5,-204 146.5,-182 10.5,-182"/>
<image xlink:href="../../images/primaryKeys.png" width="11px" height="12px" preserveAspectRatio="xMinYMin meet" x="15.5" y="-199"/>
<text text-anchor="start" x="30.5" y="-190.2" font-family="Helvetica,sans-Serif" font-size="11.00">parallel_group_id</text>
<polygon fill="none" stroke="black" points="146.5,-182 146.5,-204 243.5,-204 243.5,-182 146.5,-182"/>
<text text-anchor="start" x="149.5" y="-190.2" font-family="Helvetica,sans-Serif" font-size="11.00">int unsigned[10]</text>
<polygon fill="#ffffff" stroke="transparent" points="10.5,-164 10.5,-182 69.5,-182 69.5,-164 10.5,-164"/>
<polygon fill="none" stroke="black" points="10.5,-164 10.5,-182 69.5,-182 69.5,-164 10.5,-164"/>
<text text-anchor="start" x="13.5" y="-170.2" font-family="Helvetica,sans-Serif" font-size="11.00">&lt; 0</text>
<polygon fill="#ffffff" stroke="transparent" points="69.5,-164 69.5,-182 146.5,-182 146.5,-164 69.5,-164"/>
<polygon fill="none" stroke="black" points="69.5,-164 69.5,-182 146.5,-182 146.5,-164 69.5,-164"/>
<text text-anchor="start" x="106.5" y="-170.2" font-family="Helvetica,sans-Serif" font-size="11.00">0 rows</text>
<polygon fill="#ffffff" stroke="transparent" points="146.5,-164 146.5,-182 243.5,-182 243.5,-164 146.5,-164"/>
<polygon fill="none" stroke="black" points="146.5,-164 146.5,-182 243.5,-182 243.5,-164 146.5,-164"/>
<text text-anchor="start" x="220.5" y="-170.2" font-family="Helvetica,sans-Serif" font-size="11.00">3 &gt;</text>
<polygon fill="none" stroke="black" stroke-width="2" points="9,-163 9,-227 244,-227 244,-163 9,-163"/>
</a>
</g>
</g>
<!-- parallel_group_pair&#45;&gt;parallel_group -->
<g id="edge1" class="edge">
<title>parallel_group_pair:w&#45;&gt;parallel_group:e</title>
<path fill="none" stroke="black" d="M311.08,-213.75C285.7,-209.1 276.41,-193 244.5,-193"/>
<polygon fill="black" stroke="black" points="317.53,-214.31 325.19,-218.59 321.51,-214.66 325.5,-215 325.5,-215 325.5,-215 321.51,-214.66 325.81,-211.41 317.53,-214.31 317.53,-214.31"/>
<ellipse fill="none" stroke="black" cx="314.34" cy="-214.04" rx="3.2" ry="3.2"/>
</g>
<!-- parallel_group_pair&#45;&gt;parallel_group -->
<g id="edge2" class="edge">
<title>parallel_group_pair:w&#45;&gt;parallel_group:e</title>
<path fill="none" stroke="black" d="M311.08,-193C286.23,-193 275.16,-193 244.5,-193"/>
<polygon fill="black" stroke="black" points="317.5,-193 325.5,-196.6 321.5,-193 325.5,-193 325.5,-193 325.5,-193 321.5,-193 325.5,-189.4 317.5,-193 317.5,-193"/>
<ellipse fill="none" stroke="black" cx="314.3" cy="-193" rx="3.2" ry="3.2"/>
</g>
<!-- parallel_sign_stream_section -->
<g id="node3" class="node">
<title>parallel_sign_stream_section</title>
<g id="a_node3"><a xlink:href="../../tables/parallel_sign_stream_section.html" xlink:title="parallel_sign_stream_section" target="_top">
<polygon fill="#ffffff" stroke="transparent" points="294,-37 294,-143 527,-143 527,-37 294,-37"/>
<polygon fill="#f5f5f5" stroke="transparent" points="294.5,-121 294.5,-143 527.5,-143 527.5,-121 294.5,-121"/>
<polygon fill="none" stroke="black" points="294.5,-121 294.5,-143 527.5,-143 527.5,-121 294.5,-121"/>
<text text-anchor="start" x="299.5" y="-130.2" font-family="Helvetica,sans-Serif" font-weight="bold" font-size="11.00">parallel_sign_stream_section</text>
<text text-anchor="start" x="485.5" y="-129.2" font-family="Helvetica,sans-Serif" font-size="11.00">[table]</text>
<polygon fill="none" stroke="black" points="294.5,-99 294.5,-121 527.5,-121 527.5,-99 294.5,-99"/>
<image xlink:href="../../images/primaryKeys.png" width="11px" height="12px" preserveAspectRatio="xMinYMin meet" x="299.5" y="-116"/>
<text text-anchor="start" x="314.5" y="-107.2" font-family="Helvetica,sans-Serif" font-size="11.00">parallel_sign_stream_section_id</text>
<polygon fill="#ffffff" stroke="transparent" points="294.5,-77 294.5,-99 527.5,-99 527.5,-77 294.5,-77"/>
<polygon fill="none" stroke="black" points="294.5,-77 294.5,-99 527.5,-99 527.5,-77 294.5,-77"/>
<image xlink:href="../../images/foreignKeys.png" width="11px" height="12px" preserveAspectRatio="xMinYMin meet" x="299.5" y="-94"/>
<text text-anchor="start" x="314.5" y="-85.2" font-family="Helvetica,sans-Serif" font-size="11.00">sign_stream_section_id</text>
<polygon fill="#ffffff" stroke="transparent" points="294.5,-55 294.5,-77 527.5,-77 527.5,-55 294.5,-55"/>
<polygon fill="none" stroke="black" points="294.5,-55 294.5,-77 527.5,-77 527.5,-55 294.5,-55"/>
<image xlink:href="../../images/foreignKeys.png" width="11px" height="12px" preserveAspectRatio="xMinYMin meet" x="299.5" y="-72"/>
<text text-anchor="start" x="314.5" y="-63.2" font-family="Helvetica,sans-Serif" font-size="11.00">parallel_group_id</text>
<polygon fill="#ffffff" stroke="transparent" points="294.5,-37 294.5,-55 389.5,-55 389.5,-37 294.5,-37"/>
<polygon fill="none" stroke="black" points="294.5,-37 294.5,-55 389.5,-55 389.5,-37 294.5,-37"/>
<text text-anchor="start" x="297.5" y="-43.2" font-family="Helvetica,sans-Serif" font-size="11.00">&lt; 2</text>
<polygon fill="#ffffff" stroke="transparent" points="389.5,-37 389.5,-55 466.5,-55 466.5,-37 389.5,-37"/>
<polygon fill="none" stroke="black" points="389.5,-37 389.5,-55 466.5,-55 466.5,-37 389.5,-37"/>
<text text-anchor="start" x="426.5" y="-43.2" font-family="Helvetica,sans-Serif" font-size="11.00">0 rows</text>
<polygon fill="#ffffff" stroke="transparent" points="466.5,-37 466.5,-55 527.5,-55 527.5,-37 466.5,-37"/>
<polygon fill="none" stroke="black" points="466.5,-37 466.5,-55 527.5,-55 527.5,-37 466.5,-37"/>
<text text-anchor="start" x="504.5" y="-43.2" font-family="Helvetica,sans-Serif" font-size="11.00">1 &gt;</text>
</a>
</g>
</g>
<!-- parallel_sign_stream_section&#45;&gt;parallel_group -->
<g id="edge3" class="edge">
<title>parallel_sign_stream_section:w&#45;&gt;parallel_group:e</title>
<path fill="none" stroke="black" d="M279.32,-69.4C245.8,-89.59 299.09,-193 244.5,-193"/>
<polygon fill="black" stroke="black" points="285.72,-67.86 294.34,-69.5 289.61,-66.93 293.5,-66 293.5,-66 293.5,-66 289.61,-66.93 292.66,-62.5 285.72,-67.86 285.72,-67.86"/>
<ellipse fill="none" stroke="black" cx="282.61" cy="-68.61" rx="3.2" ry="3.2"/>
</g>
</g>
</svg>
