<?xml version="1.0" encoding="UTF-8" standalone="no"?>
<!DOCTYPE svg PUBLIC "-//W3C//DTD SVG 1.1//EN"
 "http://www.w3.org/Graphics/SVG/1.1/DTD/svg11.dtd">
<!-- Generated by graphviz version 2.43.0 (0)
 -->
<!-- Title: oneDegreeRelationshipsDiagram Pages: 1 -->
<svg width="879pt" height="300pt"
 viewBox="0.00 0.00 879.00 300.00" xmlns="http://www.w3.org/2000/svg" xmlns:xlink="http://www.w3.org/1999/xlink">
<g id="graph0" class="graph" transform="scale(1 1) rotate(0) translate(4 296)">
<title>oneDegreeRelationshipsDiagram</title>
<polygon fill="#ffffff" stroke="transparent" points="-4,4 -4,-296 875,-296 875,4 -4,4"/>
<text text-anchor="middle" x="79.5" y="-7.2" font-family="Helvetica,sans-Serif" font-size="11.00">Generated by SchemaSpy</text>
<!-- parallel_group_pair_to_type -->
<g id="node1" class="node">
<title>parallel_group_pair_to_type</title>
<g id="a_node1"><a xlink:href="../../tables/parallel_group_pair_to_type.html" xlink:title="parallel_group_pair_to_type" target="_top">
<polygon fill="#ffffff" stroke="transparent" points="226,-149 226,-259 552,-259 552,-149 226,-149"/>
<polygon fill="#f5f5f5" stroke="transparent" points="228,-235 228,-257 550,-257 550,-235 228,-235"/>
<polygon fill="none" stroke="black" points="228,-235 228,-257 550,-257 550,-235 228,-235"/>
<text text-anchor="start" x="233" y="-244.2" font-family="Helvetica,sans-Serif" font-weight="bold" font-size="11.00">parallel_group_pair_to_type</text>
<text text-anchor="start" x="508" y="-243.2" font-family="Helvetica,sans-Serif" font-size="11.00">[table]</text>
<polygon fill="none" stroke="black" points="228,-213 228,-235 453,-235 453,-213 228,-213"/>
<image xlink:href="../../images/primaryKeys.png" width="11px" height="12px" preserveAspectRatio="xMinYMin meet" x="233" y="-230"/>
<text text-anchor="start" x="248" y="-221.2" font-family="Helvetica,sans-Serif" font-size="11.00">parallel_group_pair_to_type_id</text>
<polygon fill="none" stroke="black" points="453,-213 453,-235 550,-235 550,-213 453,-213"/>
<text text-anchor="start" x="456" y="-221.2" font-family="Helvetica,sans-Serif" font-size="11.00">int unsigned[10]</text>
<polygon fill="#ffffff" stroke="transparent" points="228,-191 228,-213 453,-213 453,-191 228,-191"/>
<polygon fill="none" stroke="black" points="228,-191 228,-213 453,-213 453,-191 228,-191"/>
<image xlink:href="../../images/foreignKeys.png" width="11px" height="12px" preserveAspectRatio="xMinYMin meet" x="233" y="-208"/>
<text text-anchor="start" x="248" y="-199.2" font-family="Helvetica,sans-Serif" font-size="11.00">parallel_group_pair_id</text>
<polygon fill="none" stroke="black" points="453,-191 453,-213 550,-213 550,-191 453,-191"/>
<text text-anchor="start" x="456" y="-199.2" font-family="Helvetica,sans-Serif" font-size="11.00">int unsigned[10]</text>
<polygon fill="#ffffff" stroke="transparent" points="228,-169 228,-191 453,-191 453,-169 228,-169"/>
<polygon fill="none" stroke="black" points="228,-169 228,-191 453,-191 453,-169 228,-169"/>
<image xlink:href="../../images/foreignKeys.png" width="11px" height="12px" preserveAspectRatio="xMinYMin meet" x="233" y="-186"/>
<text text-anchor="start" x="248" y="-177.2" font-family="Helvetica,sans-Serif" font-size="11.00">parallel_type_id</text>
<polygon fill="none" stroke="black" points="453,-169 453,-191 550,-191 550,-169 453,-169"/>
<text text-anchor="start" x="456" y="-177.2" font-family="Helvetica,sans-Serif" font-size="11.00">int unsigned[10]</text>
<polygon fill="#ffffff" stroke="transparent" points="228,-151 228,-169 332,-169 332,-151 228,-151"/>
<polygon fill="none" stroke="black" points="228,-151 228,-169 332,-169 332,-151 228,-151"/>
<text text-anchor="start" x="231" y="-157.2" font-family="Helvetica,sans-Serif" font-size="11.00">&lt; 2</text>
<polygon fill="#ffffff" stroke="transparent" points="332,-151 332,-169 453,-169 453,-151 332,-151"/>
<polygon fill="none" stroke="black" points="332,-151 332,-169 453,-169 453,-151 332,-151"/>
<text text-anchor="start" x="413" y="-157.2" font-family="Helvetica,sans-Serif" font-size="11.00">0 rows</text>
<polygon fill="#ffffff" stroke="transparent" points="453,-151 453,-169 550,-169 550,-151 453,-151"/>
<polygon fill="none" stroke="black" points="453,-151 453,-169 550,-169 550,-151 453,-151"/>
<text text-anchor="start" x="527" y="-157.2" font-family="Helvetica,sans-Serif" font-size="11.00">1 &gt;</text>
<polygon fill="none" stroke="black" stroke-width="2" points="227,-150 227,-258 551,-258 551,-150 227,-150"/>
</a>
</g>
</g>
<!-- parallel_group_pair -->
<g id="node2" class="node">
<title>parallel_group_pair</title>
<g id="a_node2"><a xlink:href="../../tables/parallel_group_pair.html" xlink:title="parallel_group_pair" target="_top">
<polygon fill="#ffffff" stroke="transparent" points="8,-182 8,-288 177,-288 177,-182 8,-182"/>
<polygon fill="#f5f5f5" stroke="transparent" points="8.5,-266 8.5,-288 177.5,-288 177.5,-266 8.5,-266"/>
<polygon fill="none" stroke="black" points="8.5,-266 8.5,-288 177.5,-288 177.5,-266 8.5,-266"/>
<text text-anchor="start" x="13.5" y="-275.2" font-family="Helvetica,sans-Serif" font-weight="bold" font-size="11.00">parallel_group_pair</text>
<text text-anchor="start" x="135.5" y="-274.2" font-family="Helvetica,sans-Serif" font-size="11.00">[table]</text>
<polygon fill="none" stroke="black" points="8.5,-244 8.5,-266 177.5,-266 177.5,-244 8.5,-244"/>
<image xlink:href="../../images/primaryKeys.png" width="11px" height="12px" preserveAspectRatio="xMinYMin meet" x="13.5" y="-261"/>
<text text-anchor="start" x="28.5" y="-252.2" font-family="Helvetica,sans-Serif" font-size="11.00">parallel_group_pair_id</text>
<polygon fill="#ffffff" stroke="transparent" points="8.5,-222 8.5,-244 177.5,-244 177.5,-222 8.5,-222"/>
<polygon fill="none" stroke="black" points="8.5,-222 8.5,-244 177.5,-244 177.5,-222 8.5,-222"/>
<image xlink:href="../../images/foreignKeys.png" width="11px" height="12px" preserveAspectRatio="xMinYMin meet" x="13.5" y="-239"/>
<text text-anchor="start" x="28.5" y="-230.2" font-family="Helvetica,sans-Serif" font-size="11.00">parallel_group_a_id</text>
<polygon fill="#ffffff" stroke="transparent" points="8.5,-200 8.5,-222 177.5,-222 177.5,-200 8.5,-200"/>
<polygon fill="none" stroke="black" points="8.5,-200 8.5,-222 177.5,-222 177.5,-200 8.5,-200"/>
<image xlink:href="../../images/foreignKeys.png" width="11px" height="12px" preserveAspectRatio="xMinYMin meet" x="13.5" y="-217"/>
<text text-anchor="start" x="28.5" y="-208.2" font-family="Helvetica,sans-Serif" font-size="11.00">parallel_group_b_id</text>
<polygon fill="#ffffff" stroke="transparent" points="8.5,-182 8.5,-200 71.5,-200 71.5,-182 8.5,-182"/>
<polygon fill="none" stroke="black" points="8.5,-182 8.5,-200 71.5,-200 71.5,-182 8.5,-182"/>
<text text-anchor="start" x="11.5" y="-188.2" font-family="Helvetica,sans-Serif" font-size="11.00">&lt; 2</text>
<polygon fill="#ffffff" stroke="transparent" points="71.5,-182 71.5,-200 132.5,-200 132.5,-182 71.5,-182"/>
<polygon fill="none" stroke="black" points="71.5,-182 71.5,-200 132.5,-200 132.5,-182 71.5,-182"/>
<text text-anchor="start" x="92.5" y="-188.2" font-family="Helvetica,sans-Serif" font-size="11.00">0 rows</text>
<polygon fill="#ffffff" stroke="transparent" points="132.5,-182 132.5,-200 177.5,-200 177.5,-182 132.5,-182"/>
<polygon fill="none" stroke="black" points="132.5,-182 132.5,-200 177.5,-200 177.5,-182 132.5,-182"/>
<text text-anchor="start" x="154.5" y="-188.2" font-family="Helvetica,sans-Serif" font-size="11.00">2 &gt;</text>
</a>
</g>
</g>
<!-- parallel_group_pair_to_type&#45;&gt;parallel_group_pair -->
<g id="edge1" class="edge">
<title>parallel_group_pair_to_type:w&#45;&gt;parallel_group_pair:e</title>
<path fill="none" stroke="black" d="M213.4,-206.89C199.17,-220.01 204.44,-255 178.5,-255"/>
<polygon fill="black" stroke="black" points="219.47,-204.71 228.22,-205.39 223.24,-203.35 227,-202 227,-202 227,-202 223.24,-203.35 225.78,-198.61 219.47,-204.71 219.47,-204.71"/>
<ellipse fill="none" stroke="black" cx="216.46" cy="-205.79" rx="3.2" ry="3.2"/>
</g>
<!-- parallel_type -->
<g id="node3" class="node">
<title>parallel_type</title>
<g id="a_node3"><a xlink:href="../../tables/parallel_type.html" xlink:title="parallel_type" target="_top">
<polygon fill="#ffffff" stroke="transparent" points="27,-37 27,-161 158,-161 158,-37 27,-37"/>
<polygon fill="#f5f5f5" stroke="transparent" points="27.5,-139 27.5,-161 158.5,-161 158.5,-139 27.5,-139"/>
<polygon fill="none" stroke="black" points="27.5,-139 27.5,-161 158.5,-161 158.5,-139 27.5,-139"/>
<text text-anchor="start" x="32.5" y="-148.2" font-family="Helvetica,sans-Serif" font-weight="bold" font-size="11.00">parallel_type</text>
<text text-anchor="start" x="116.5" y="-147.2" font-family="Helvetica,sans-Serif" font-size="11.00">[table]</text>
<polygon fill="none" stroke="black" points="27.5,-117 27.5,-139 158.5,-139 158.5,-117 27.5,-117"/>
<image xlink:href="../../images/primaryKeys.png" width="11px" height="12px" preserveAspectRatio="xMinYMin meet" x="32.5" y="-134"/>
<text text-anchor="start" x="49.5" y="-125.2" font-family="Helvetica,sans-Serif" font-size="11.00">parallel_type_id</text>
<polygon fill="#ffffff" stroke="transparent" points="27.5,-95 27.5,-117 158.5,-117 158.5,-95 27.5,-95"/>
<polygon fill="none" stroke="black" points="27.5,-95 27.5,-117 158.5,-117 158.5,-95 27.5,-95"/>
<image xlink:href="../../images/foreignKeys.png" width="11px" height="12px" preserveAspectRatio="xMinYMin meet" x="32.5" y="-112"/>
<text text-anchor="start" x="49.5" y="-103.2" font-family="Helvetica,sans-Serif" font-size="11.00">parent_type_id</text>
<polygon fill="#ffffff" stroke="transparent" points="27.5,-73 27.5,-95 158.5,-95 158.5,-73 27.5,-73"/>
<polygon fill="none" stroke="black" points="27.5,-73 27.5,-95 158.5,-95 158.5,-73 27.5,-73"/>
<text text-anchor="start" x="49.5" y="-81.2" font-family="Helvetica,sans-Serif" font-size="11.00">name</text>
<polygon fill="none" stroke="black" points="27.5,-55 27.5,-73 158.5,-73 158.5,-55 27.5,-55"/>
<text text-anchor="start" x="30.5" y="-61.2" font-family="Helvetica,sans-Serif" font-size="11.00">...</text>
<polygon fill="#ffffff" stroke="transparent" points="27.5,-37 27.5,-55 71.5,-55 71.5,-37 27.5,-37"/>
<polygon fill="none" stroke="black" points="27.5,-37 27.5,-55 71.5,-55 71.5,-37 27.5,-37"/>
<text text-anchor="start" x="30.5" y="-43.2" font-family="Helvetica,sans-Serif" font-size="11.00">&lt; 1</text>
<polygon fill="#ffffff" stroke="transparent" points="71.5,-37 71.5,-55 123.5,-55 123.5,-37 71.5,-37"/>
<polygon fill="none" stroke="black" points="71.5,-37 71.5,-55 123.5,-55 123.5,-37 71.5,-37"/>
<text text-anchor="start" x="83.5" y="-43.2" font-family="Helvetica,sans-Serif" font-size="11.00">0 rows</text>
<polygon fill="#ffffff" stroke="transparent" points="123.5,-37 123.5,-55 158.5,-55 158.5,-37 123.5,-37"/>
<polygon fill="none" stroke="black" points="123.5,-37 123.5,-55 158.5,-55 158.5,-37 123.5,-37"/>
<text text-anchor="start" x="135.5" y="-43.2" font-family="Helvetica,sans-Serif" font-size="11.00">3 &gt;</text>
</a>
</g>
</g>
<!-- parallel_group_pair_to_type&#45;&gt;parallel_type -->
<g id="edge2" class="edge">
<title>parallel_group_pair_to_type:w&#45;&gt;parallel_type:e</title>
<path fill="none" stroke="black" d="M212.88,-176.9C190.56,-165.71 191.75,-128 159.5,-128"/>
<polygon fill="black" stroke="black" points="219.19,-178.29 226.23,-183.52 223.09,-179.14 227,-180 227,-180 227,-180 223.09,-179.14 227.77,-176.48 219.19,-178.29 219.19,-178.29"/>
<ellipse fill="none" stroke="black" cx="216.06" cy="-177.6" rx="3.2" ry="3.2"/>
</g>
<!-- parallel_group_pair_to_type_owner -->
<g id="node4" class="node">
<title>parallel_group_pair_to_type_owner</title>
<g id="a_node4"><a xlink:href="../../tables/parallel_group_pair_to_type_owner.html" xlink:title="parallel_group_pair_to_type_owner" target="_top">
<polygon fill="#ffffff" stroke="transparent" points="601,-151 601,-257 863,-257 863,-151 601,-151"/>
<polygon fill="#f5f5f5" stroke="transparent" points="601,-235 601,-257 863,-257 863,-235 601,-235"/>
<polygon fill="none" stroke="black" points="601,-235 601,-257 863,-257 863,-235 601,-235"/>
<text text-anchor="start" x="606" y="-244.2" font-family="Helvetica,sans-Serif" font-weight="bold" font-size="11.00">parallel_group_pair_to_type_owner</text>
<text text-anchor="start" x="821" y="-243.2" font-family="Helvetica,sans-Serif" font-size="11.00">[table]</text>
<polygon fill="none" stroke="black" points="601,-213 601,-235 863,-235 863,-213 601,-213"/>
<image xlink:href="../../images/primaryKeys.png" width="11px" height="12px" preserveAspectRatio="xMinYMin meet" x="606" y="-230"/>
<text text-anchor="start" x="625" y="-221.2" font-family="Helvetica,sans-Serif" font-size="11.00">parallel_group_pair_to_type_id</text>
<polygon fill="#ffffff" stroke="transparent" points="601,-191 601,-213 863,-213 863,-191 601,-191"/>
<polygon fill="none" stroke="black" points="601,-191 601,-213 863,-213 863,-191 601,-191"/>
<image xlink:href="../../images/foreignKeys.png" width="11px" height="12px" preserveAspectRatio="xMinYMin meet" x="606" y="-208"/>
<text text-anchor="start" x="625" y="-199.2" font-family="Helvetica,sans-Serif" font-size="11.00">edition_editor_id</text>
<polygon fill="none" stroke="black" points="601,-169 601,-191 863,-191 863,-169 601,-169"/>
<image xlink:href="../../images/primaryKeys.png" width="11px" height="12px" preserveAspectRatio="xMinYMin meet" x="606" y="-186"/>
<text text-anchor="start" x="625" y="-177.2" font-family="Helvetica,sans-Serif" font-size="11.00">edition_id</text>
<polygon fill="#ffffff" stroke="transparent" points="601,-151 601,-169 716,-169 716,-151 601,-151"/>
<polygon fill="none" stroke="black" points="601,-151 601,-169 716,-169 716,-151 601,-151"/>
<text text-anchor="start" x="604" y="-157.2" font-family="Helvetica,sans-Serif" font-size="11.00">&lt; 3</text>
<polygon fill="#ffffff" stroke="transparent" points="716,-151 716,-169 804,-169 804,-151 716,-151"/>
<polygon fill="none" stroke="black" points="716,-151 716,-169 804,-169 804,-151 716,-151"/>
<text text-anchor="start" x="764" y="-157.2" font-family="Helvetica,sans-Serif" font-size="11.00">0 rows</text>
<polygon fill="#ffffff" stroke="transparent" points="804,-151 804,-169 863,-169 863,-151 804,-151"/>
<polygon fill="none" stroke="black" points="804,-151 804,-169 863,-169 863,-151 804,-151"/>
<text text-anchor="start" x="852" y="-157.2" font-family="Helvetica,sans-Serif" font-size="11.00"> &#160;</text>
</a>
</g>
</g>
<!-- parallel_group_pair_to_type_owner&#45;&gt;parallel_group_pair_to_type -->
<g id="edge3" class="edge">
<title>parallel_group_pair_to_type_owner:w&#45;&gt;parallel_group_pair_to_type:e</title>
<path fill="none" stroke="black" d="M585.49,-224C574.18,-224 566.99,-224 551,-224"/>
<polygon fill="black" stroke="black" points="592,-224 600,-227.6 596,-224 600,-224 600,-224 600,-224 596,-224 600,-220.4 592,-224 592,-224"/>
<ellipse fill="none" stroke="black" cx="588.8" cy="-224" rx="3.2" ry="3.2"/>
</g>
</g>
</svg>
