<?xml version="1.0" encoding="UTF-8" standalone="no"?>
<!DOCTYPE svg PUBLIC "-//W3C//DTD SVG 1.1//EN"
 "http://www.w3.org/Graphics/SVG/1.1/DTD/svg11.dtd">
<!-- Generated by graphviz version 2.43.0 (0)
 -->
<!-- Title: twoDegreesRelationshipsDiagram Pages: 1 -->
<svg width="1067pt" height="429pt"
 viewBox="0.00 0.00 1067.00 429.00" xmlns="http://www.w3.org/2000/svg" xmlns:xlink="http://www.w3.org/1999/xlink">
<g id="graph0" class="graph" transform="scale(1 1) rotate(0) translate(4 425)">
<title>twoDegreesRelationshipsDiagram</title>
<polygon fill="#ffffff" stroke="transparent" points="-4,4 -4,-425 1063,-425 1063,4 -4,4"/>
<text text-anchor="middle" x="79.5" y="-7.2" font-family="Helvetica,sans-Serif" font-size="11.00">Generated by SchemaSpy</text>
<!-- edition_editor -->
<g id="node1" class="node">
<title>edition_editor</title>
<g id="a_node1"><a xlink:href="../../tables/edition_editor.html" xlink:title="edition_editor" target="_top">
<polygon fill="#ffffff" stroke="transparent" points="509,-140 509,-198 645,-198 645,-140 509,-140"/>
<polygon fill="#f5f5f5" stroke="transparent" points="509,-176 509,-198 645,-198 645,-176 509,-176"/>
<polygon fill="none" stroke="black" points="509,-176 509,-198 645,-198 645,-176 509,-176"/>
<text text-anchor="start" x="514" y="-185.2" font-family="Helvetica,sans-Serif" font-weight="bold" font-size="11.00">edition_editor</text>
<text text-anchor="start" x="603" y="-184.2" font-family="Helvetica,sans-Serif" font-size="11.00">[table]</text>
<polygon fill="none" stroke="black" points="509,-158 509,-176 645,-176 645,-158 509,-158"/>
<text text-anchor="start" x="512" y="-164.2" font-family="Helvetica,sans-Serif" font-size="11.00">...</text>
<polygon fill="#ffffff" stroke="transparent" points="509,-140 509,-158 540,-158 540,-140 509,-140"/>
<polygon fill="none" stroke="black" points="509,-140 509,-158 540,-158 540,-140 509,-140"/>
<text text-anchor="start" x="512" y="-146.2" font-family="Helvetica,sans-Serif" font-size="11.00">&lt; 2</text>
<polygon fill="#ffffff" stroke="transparent" points="540,-140 540,-158 609,-158 609,-140 540,-140"/>
<polygon fill="none" stroke="black" points="540,-140 540,-158 609,-158 609,-140 540,-140"/>
<text text-anchor="start" x="545" y="-146.2" font-family="Helvetica,sans-Serif" font-size="11.00">1,645 rows</text>
<polygon fill="#ffffff" stroke="transparent" points="609,-140 609,-158 645,-158 645,-140 609,-140"/>
<polygon fill="none" stroke="black" points="609,-140 609,-158 645,-158 645,-140 609,-140"/>
<text text-anchor="start" x="615" y="-146.2" font-family="Helvetica,sans-Serif" font-size="11.00">33 &gt;</text>
</a>
</g>
</g>
<!-- edition -->
<g id="node2" class="node">
<title>edition</title>
<g id="a_node2"><a xlink:href="../../tables/edition.html" xlink:title="edition" target="_top">
<polygon fill="#ffffff" stroke="transparent" points="217.5,-87 217.5,-145 343.5,-145 343.5,-87 217.5,-87"/>
<polygon fill="#f5f5f5" stroke="transparent" points="217.5,-123 217.5,-145 343.5,-145 343.5,-123 217.5,-123"/>
<polygon fill="none" stroke="black" points="217.5,-123 217.5,-145 343.5,-145 343.5,-123 217.5,-123"/>
<text text-anchor="start" x="222.5" y="-132.2" font-family="Helvetica,sans-Serif" font-weight="bold" font-size="11.00">edition</text>
<text text-anchor="start" x="301.5" y="-131.2" font-family="Helvetica,sans-Serif" font-size="11.00">[table]</text>
<polygon fill="none" stroke="black" points="217.5,-105 217.5,-123 343.5,-123 343.5,-105 217.5,-105"/>
<text text-anchor="start" x="220.5" y="-111.2" font-family="Helvetica,sans-Serif" font-size="11.00">...</text>
<polygon fill="#ffffff" stroke="transparent" points="217.5,-87 217.5,-105 243.5,-105 243.5,-87 217.5,-87"/>
<polygon fill="none" stroke="black" points="217.5,-87 217.5,-105 243.5,-105 243.5,-87 217.5,-87"/>
<text text-anchor="start" x="220.5" y="-93.2" font-family="Helvetica,sans-Serif" font-size="11.00">&lt; 1</text>
<polygon fill="#ffffff" stroke="transparent" points="243.5,-87 243.5,-105 310.5,-105 310.5,-87 243.5,-87"/>
<polygon fill="none" stroke="black" points="243.5,-87 243.5,-105 310.5,-105 310.5,-87 243.5,-87"/>
<text text-anchor="start" x="246.5" y="-93.2" font-family="Helvetica,sans-Serif" font-size="11.00">1,645 rows</text>
<polygon fill="#ffffff" stroke="transparent" points="310.5,-87 310.5,-105 343.5,-105 343.5,-87 310.5,-87"/>
<polygon fill="none" stroke="black" points="310.5,-87 310.5,-105 343.5,-105 343.5,-87 310.5,-87"/>
<text text-anchor="start" x="313.5" y="-93.2" font-family="Helvetica,sans-Serif" font-size="11.00">35 &gt;</text>
</a>
</g>
</g>
<!-- edition_editor&#45;&gt;edition -->
<g id="edge1" class="edge">
<title>edition_editor:w&#45;&gt;edition:e</title>
<path fill="none" stroke="black" d="M493.61,-166.33C429.9,-160.19 415.82,-114 344.5,-114"/>
<polygon fill="black" stroke="black" points="500.01,-166.63 507.83,-170.6 504,-166.81 508,-167 508,-167 508,-167 504,-166.81 508.17,-163.4 500.01,-166.63 500.01,-166.63"/>
<ellipse fill="none" stroke="black" cx="496.81" cy="-166.48" rx="3.2" ry="3.2"/>
</g>
<!-- parallel_group_pair -->
<g id="node3" class="node">
<title>parallel_group_pair</title>
<g id="a_node3"><a xlink:href="../../tables/parallel_group_pair.html" xlink:title="parallel_group_pair" target="_top">
<polygon fill="#ffffff" stroke="transparent" points="196,-311 196,-417 365,-417 365,-311 196,-311"/>
<polygon fill="#f5f5f5" stroke="transparent" points="196.5,-395 196.5,-417 365.5,-417 365.5,-395 196.5,-395"/>
<polygon fill="none" stroke="black" points="196.5,-395 196.5,-417 365.5,-417 365.5,-395 196.5,-395"/>
<text text-anchor="start" x="201.5" y="-404.2" font-family="Helvetica,sans-Serif" font-weight="bold" font-size="11.00">parallel_group_pair</text>
<text text-anchor="start" x="323.5" y="-403.2" font-family="Helvetica,sans-Serif" font-size="11.00">[table]</text>
<polygon fill="none" stroke="black" points="196.5,-373 196.5,-395 365.5,-395 365.5,-373 196.5,-373"/>
<image xlink:href="../../images/primaryKeys.png" width="11px" height="12px" preserveAspectRatio="xMinYMin meet" x="201.5" y="-390"/>
<text text-anchor="start" x="216.5" y="-381.2" font-family="Helvetica,sans-Serif" font-size="11.00">parallel_group_pair_id</text>
<polygon fill="#ffffff" stroke="transparent" points="196.5,-351 196.5,-373 365.5,-373 365.5,-351 196.5,-351"/>
<polygon fill="none" stroke="black" points="196.5,-351 196.5,-373 365.5,-373 365.5,-351 196.5,-351"/>
<image xlink:href="../../images/foreignKeys.png" width="11px" height="12px" preserveAspectRatio="xMinYMin meet" x="201.5" y="-368"/>
<text text-anchor="start" x="216.5" y="-359.2" font-family="Helvetica,sans-Serif" font-size="11.00">parallel_group_a_id</text>
<polygon fill="#ffffff" stroke="transparent" points="196.5,-329 196.5,-351 365.5,-351 365.5,-329 196.5,-329"/>
<polygon fill="none" stroke="black" points="196.5,-329 196.5,-351 365.5,-351 365.5,-329 196.5,-329"/>
<image xlink:href="../../images/foreignKeys.png" width="11px" height="12px" preserveAspectRatio="xMinYMin meet" x="201.5" y="-346"/>
<text text-anchor="start" x="216.5" y="-337.2" font-family="Helvetica,sans-Serif" font-size="11.00">parallel_group_b_id</text>
<polygon fill="#ffffff" stroke="transparent" points="196.5,-311 196.5,-329 259.5,-329 259.5,-311 196.5,-311"/>
<polygon fill="none" stroke="black" points="196.5,-311 196.5,-329 259.5,-329 259.5,-311 196.5,-311"/>
<text text-anchor="start" x="199.5" y="-317.2" font-family="Helvetica,sans-Serif" font-size="11.00">&lt; 2</text>
<polygon fill="#ffffff" stroke="transparent" points="259.5,-311 259.5,-329 320.5,-329 320.5,-311 259.5,-311"/>
<polygon fill="none" stroke="black" points="259.5,-311 259.5,-329 320.5,-329 320.5,-311 259.5,-311"/>
<text text-anchor="start" x="280.5" y="-317.2" font-family="Helvetica,sans-Serif" font-size="11.00">0 rows</text>
<polygon fill="#ffffff" stroke="transparent" points="320.5,-311 320.5,-329 365.5,-329 365.5,-311 320.5,-311"/>
<polygon fill="none" stroke="black" points="320.5,-311 320.5,-329 365.5,-329 365.5,-311 320.5,-311"/>
<text text-anchor="start" x="342.5" y="-317.2" font-family="Helvetica,sans-Serif" font-size="11.00">2 &gt;</text>
</a>
</g>
</g>
<!-- parallel_group -->
<g id="node4" class="node">
<title>parallel_group</title>
<g id="a_node4"><a xlink:href="../../tables/parallel_group.html" xlink:title="parallel_group" target="_top">
<polygon fill="#ffffff" stroke="transparent" points="8,-324 8,-382 147,-382 147,-324 8,-324"/>
<polygon fill="#f5f5f5" stroke="transparent" points="8.5,-360 8.5,-382 147.5,-382 147.5,-360 8.5,-360"/>
<polygon fill="none" stroke="black" points="8.5,-360 8.5,-382 147.5,-382 147.5,-360 8.5,-360"/>
<text text-anchor="start" x="13.5" y="-369.2" font-family="Helvetica,sans-Serif" font-weight="bold" font-size="11.00">parallel_group</text>
<text text-anchor="start" x="105.5" y="-368.2" font-family="Helvetica,sans-Serif" font-size="11.00">[table]</text>
<polygon fill="none" stroke="black" points="8.5,-342 8.5,-360 147.5,-360 147.5,-342 8.5,-342"/>
<text text-anchor="start" x="11.5" y="-348.2" font-family="Helvetica,sans-Serif" font-size="11.00">...</text>
<polygon fill="#ffffff" stroke="transparent" points="8.5,-324 8.5,-342 50.5,-342 50.5,-324 8.5,-324"/>
<polygon fill="none" stroke="black" points="8.5,-324 8.5,-342 50.5,-342 50.5,-324 8.5,-324"/>
<text text-anchor="start" x="11.5" y="-330.2" font-family="Helvetica,sans-Serif" font-size="11.00"> &#160;</text>
<polygon fill="#ffffff" stroke="transparent" points="50.5,-324 50.5,-342 107.5,-342 107.5,-324 50.5,-324"/>
<polygon fill="none" stroke="black" points="50.5,-324 50.5,-342 107.5,-342 107.5,-324 50.5,-324"/>
<text text-anchor="start" x="67.5" y="-330.2" font-family="Helvetica,sans-Serif" font-size="11.00">0 rows</text>
<polygon fill="#ffffff" stroke="transparent" points="107.5,-324 107.5,-342 147.5,-342 147.5,-324 107.5,-324"/>
<polygon fill="none" stroke="black" points="107.5,-324 107.5,-342 147.5,-342 147.5,-324 107.5,-324"/>
<text text-anchor="start" x="124.5" y="-330.2" font-family="Helvetica,sans-Serif" font-size="11.00">3 &gt;</text>
</a>
</g>
</g>
<!-- parallel_group_pair&#45;&gt;parallel_group -->
<g id="edge2" class="edge">
<title>parallel_group_pair:w&#45;&gt;parallel_group:e</title>
<path fill="none" stroke="black" d="M181.09,-359.98C170.51,-356.81 164.09,-351 148.5,-351"/>
<polygon fill="black" stroke="black" points="187.58,-360.89 195,-365.57 191.54,-361.45 195.5,-362 195.5,-362 195.5,-362 191.54,-361.45 196,-358.43 187.58,-360.89 187.58,-360.89"/>
<ellipse fill="none" stroke="black" cx="184.41" cy="-360.45" rx="3.2" ry="3.2"/>
</g>
<!-- parallel_group_pair&#45;&gt;parallel_group -->
<g id="edge3" class="edge">
<title>parallel_group_pair:w&#45;&gt;parallel_group:e</title>
<path fill="none" stroke="black" d="M181.09,-342.02C170.51,-345.19 164.09,-351 148.5,-351"/>
<polygon fill="black" stroke="black" points="187.58,-341.11 196,-343.57 191.54,-340.55 195.5,-340 195.5,-340 195.5,-340 191.54,-340.55 195,-336.43 187.58,-341.11 187.58,-341.11"/>
<ellipse fill="none" stroke="black" cx="184.41" cy="-341.55" rx="3.2" ry="3.2"/>
</g>
<!-- parallel_group_pair_owner -->
<g id="node5" class="node">
<title>parallel_group_pair_owner</title>
<g id="a_node5"><a xlink:href="../../tables/parallel_group_pair_owner.html" xlink:title="parallel_group_pair_owner" target="_top">
<polygon fill="#ffffff" stroke="transparent" points="814.5,-243 814.5,-301 1025.5,-301 1025.5,-243 814.5,-243"/>
<polygon fill="#f5f5f5" stroke="transparent" points="815,-279 815,-301 1026,-301 1026,-279 815,-279"/>
<polygon fill="none" stroke="black" points="815,-279 815,-301 1026,-301 1026,-279 815,-279"/>
<text text-anchor="start" x="820" y="-288.2" font-family="Helvetica,sans-Serif" font-weight="bold" font-size="11.00">parallel_group_pair_owner</text>
<text text-anchor="start" x="984" y="-287.2" font-family="Helvetica,sans-Serif" font-size="11.00">[table]</text>
<polygon fill="none" stroke="black" points="815,-261 815,-279 1026,-279 1026,-261 815,-261"/>
<text text-anchor="start" x="818" y="-267.2" font-family="Helvetica,sans-Serif" font-size="11.00">...</text>
<polygon fill="#ffffff" stroke="transparent" points="815,-243 815,-261 905,-261 905,-243 815,-243"/>
<polygon fill="none" stroke="black" points="815,-243 815,-261 905,-261 905,-243 815,-243"/>
<text text-anchor="start" x="818" y="-249.2" font-family="Helvetica,sans-Serif" font-size="11.00">&lt; 3</text>
<polygon fill="#ffffff" stroke="transparent" points="905,-243 905,-261 980,-261 980,-243 905,-243"/>
<polygon fill="none" stroke="black" points="905,-243 905,-261 980,-261 980,-243 905,-243"/>
<text text-anchor="start" x="940" y="-249.2" font-family="Helvetica,sans-Serif" font-size="11.00">0 rows</text>
<polygon fill="#ffffff" stroke="transparent" points="980,-243 980,-261 1026,-261 1026,-243 980,-243"/>
<polygon fill="none" stroke="black" points="980,-243 980,-261 1026,-261 1026,-243 980,-243"/>
<text text-anchor="start" x="1015" y="-249.2" font-family="Helvetica,sans-Serif" font-size="11.00"> &#160;</text>
</a>
</g>
</g>
<!-- parallel_group_pair_owner&#45;&gt;edition_editor -->
<g id="edge4" class="edge">
<title>parallel_group_pair_owner:w&#45;&gt;edition_editor:e</title>
<path fill="none" stroke="black" d="M799.64,-267.84C775.86,-259.64 776.16,-229.98 748,-212 706.24,-185.34 695.55,-167 646,-167"/>
<polygon fill="black" stroke="black" points="806.09,-268.81 813.47,-273.56 810.04,-269.41 814,-270 814,-270 814,-270 810.04,-269.41 814.53,-266.44 806.09,-268.81 806.09,-268.81"/>
<ellipse fill="none" stroke="black" cx="802.92" cy="-268.34" rx="3.2" ry="3.2"/>
</g>
<!-- parallel_group_pair_owner&#45;&gt;edition -->
<g id="edge5" class="edge">
<title>parallel_group_pair_owner:w&#45;&gt;edition:e</title>
<path fill="none" stroke="black" d="M799.48,-267.99C779.67,-261.89 774.28,-243.48 748,-236 674.67,-215.13 471.14,-248.61 406,-209 363.02,-182.87 394.8,-114 344.5,-114"/>
<polygon fill="black" stroke="black" points="806.08,-268.91 813.51,-273.57 810.04,-269.45 814,-270 814,-270 814,-270 810.04,-269.45 814.49,-266.43 806.08,-268.91 806.08,-268.91"/>
<ellipse fill="none" stroke="black" cx="802.91" cy="-268.47" rx="3.2" ry="3.2"/>
</g>
<!-- parallel_group_pair_owner&#45;&gt;parallel_group_pair -->
<g id="edge6" class="edge">
<title>parallel_group_pair_owner:w&#45;&gt;parallel_group_pair:e</title>
<path fill="none" stroke="black" d="M799.69,-272.42C767.86,-285.11 788.56,-344.37 748,-367 599.79,-449.7 536.22,-384 366.5,-384"/>
<polygon fill="black" stroke="black" points="806.11,-271.33 814.6,-273.55 810.06,-270.67 814,-270 814,-270 814,-270 810.06,-270.67 813.4,-266.45 806.11,-271.33 806.11,-271.33"/>
<ellipse fill="none" stroke="black" cx="802.96" cy="-271.86" rx="3.2" ry="3.2"/>
</g>
<!-- parallel_group_pair_to_type -->
<g id="node6" class="node">
<title>parallel_group_pair_to_type</title>
<g id="a_node6"><a xlink:href="../../tables/parallel_group_pair_to_type.html" xlink:title="parallel_group_pair_to_type" target="_top">
<polygon fill="#ffffff" stroke="transparent" points="414,-246 414,-356 740,-356 740,-246 414,-246"/>
<polygon fill="#f5f5f5" stroke="transparent" points="416,-332 416,-354 738,-354 738,-332 416,-332"/>
<polygon fill="none" stroke="black" points="416,-332 416,-354 738,-354 738,-332 416,-332"/>
<text text-anchor="start" x="421" y="-341.2" font-family="Helvetica,sans-Serif" font-weight="bold" font-size="11.00">parallel_group_pair_to_type</text>
<text text-anchor="start" x="696" y="-340.2" font-family="Helvetica,sans-Serif" font-size="11.00">[table]</text>
<polygon fill="none" stroke="black" points="416,-310 416,-332 641,-332 641,-310 416,-310"/>
<image xlink:href="../../images/primaryKeys.png" width="11px" height="12px" preserveAspectRatio="xMinYMin meet" x="421" y="-327"/>
<text text-anchor="start" x="436" y="-318.2" font-family="Helvetica,sans-Serif" font-size="11.00">parallel_group_pair_to_type_id</text>
<polygon fill="none" stroke="black" points="641,-310 641,-332 738,-332 738,-310 641,-310"/>
<text text-anchor="start" x="644" y="-318.2" font-family="Helvetica,sans-Serif" font-size="11.00">int unsigned[10]</text>
<polygon fill="#ffffff" stroke="transparent" points="416,-288 416,-310 641,-310 641,-288 416,-288"/>
<polygon fill="none" stroke="black" points="416,-288 416,-310 641,-310 641,-288 416,-288"/>
<image xlink:href="../../images/foreignKeys.png" width="11px" height="12px" preserveAspectRatio="xMinYMin meet" x="421" y="-305"/>
<text text-anchor="start" x="436" y="-296.2" font-family="Helvetica,sans-Serif" font-size="11.00">parallel_group_pair_id</text>
<polygon fill="none" stroke="black" points="641,-288 641,-310 738,-310 738,-288 641,-288"/>
<text text-anchor="start" x="644" y="-296.2" font-family="Helvetica,sans-Serif" font-size="11.00">int unsigned[10]</text>
<polygon fill="#ffffff" stroke="transparent" points="416,-266 416,-288 641,-288 641,-266 416,-266"/>
<polygon fill="none" stroke="black" points="416,-266 416,-288 641,-288 641,-266 416,-266"/>
<image xlink:href="../../images/foreignKeys.png" width="11px" height="12px" preserveAspectRatio="xMinYMin meet" x="421" y="-283"/>
<text text-anchor="start" x="436" y="-274.2" font-family="Helvetica,sans-Serif" font-size="11.00">parallel_type_id</text>
<polygon fill="none" stroke="black" points="641,-266 641,-288 738,-288 738,-266 641,-266"/>
<text text-anchor="start" x="644" y="-274.2" font-family="Helvetica,sans-Serif" font-size="11.00">int unsigned[10]</text>
<polygon fill="#ffffff" stroke="transparent" points="416,-248 416,-266 520,-266 520,-248 416,-248"/>
<polygon fill="none" stroke="black" points="416,-248 416,-266 520,-266 520,-248 416,-248"/>
<text text-anchor="start" x="419" y="-254.2" font-family="Helvetica,sans-Serif" font-size="11.00">&lt; 2</text>
<polygon fill="#ffffff" stroke="transparent" points="520,-248 520,-266 641,-266 641,-248 520,-248"/>
<polygon fill="none" stroke="black" points="520,-248 520,-266 641,-266 641,-248 520,-248"/>
<text text-anchor="start" x="601" y="-254.2" font-family="Helvetica,sans-Serif" font-size="11.00">0 rows</text>
<polygon fill="#ffffff" stroke="transparent" points="641,-248 641,-266 738,-266 738,-248 641,-248"/>
<polygon fill="none" stroke="black" points="641,-248 641,-266 738,-266 738,-248 641,-248"/>
<text text-anchor="start" x="715" y="-254.2" font-family="Helvetica,sans-Serif" font-size="11.00">1 &gt;</text>
<polygon fill="none" stroke="black" stroke-width="2" points="415,-247 415,-355 739,-355 739,-247 415,-247"/>
</a>
</g>
</g>
<!-- parallel_group_pair_to_type&#45;&gt;parallel_group_pair -->
<g id="edge7" class="edge">
<title>parallel_group_pair_to_type:w&#45;&gt;parallel_group_pair:e</title>
<path fill="none" stroke="black" d="M401.06,-303.57C380.71,-321.23 403.88,-384 366.5,-384"/>
<polygon fill="black" stroke="black" points="407.4,-301.49 416.12,-302.42 411.2,-300.25 415,-299 415,-299 415,-299 411.2,-300.25 413.88,-295.58 407.4,-301.49 407.4,-301.49"/>
<ellipse fill="none" stroke="black" cx="404.36" cy="-302.49" rx="3.2" ry="3.2"/>
</g>
<!-- parallel_type -->
<g id="node7" class="node">
<title>parallel_type</title>
<g id="a_node7"><a xlink:href="../../tables/parallel_type.html" xlink:title="parallel_type" target="_top">
<polygon fill="#ffffff" stroke="transparent" points="215,-166 215,-290 346,-290 346,-166 215,-166"/>
<polygon fill="#f5f5f5" stroke="transparent" points="215.5,-268 215.5,-290 346.5,-290 346.5,-268 215.5,-268"/>
<polygon fill="none" stroke="black" points="215.5,-268 215.5,-290 346.5,-290 346.5,-268 215.5,-268"/>
<text text-anchor="start" x="220.5" y="-277.2" font-family="Helvetica,sans-Serif" font-weight="bold" font-size="11.00">parallel_type</text>
<text text-anchor="start" x="304.5" y="-276.2" font-family="Helvetica,sans-Serif" font-size="11.00">[table]</text>
<polygon fill="none" stroke="black" points="215.5,-246 215.5,-268 346.5,-268 346.5,-246 215.5,-246"/>
<image xlink:href="../../images/primaryKeys.png" width="11px" height="12px" preserveAspectRatio="xMinYMin meet" x="220.5" y="-263"/>
<text text-anchor="start" x="237.5" y="-254.2" font-family="Helvetica,sans-Serif" font-size="11.00">parallel_type_id</text>
<polygon fill="#ffffff" stroke="transparent" points="215.5,-224 215.5,-246 346.5,-246 346.5,-224 215.5,-224"/>
<polygon fill="none" stroke="black" points="215.5,-224 215.5,-246 346.5,-246 346.5,-224 215.5,-224"/>
<image xlink:href="../../images/foreignKeys.png" width="11px" height="12px" preserveAspectRatio="xMinYMin meet" x="220.5" y="-241"/>
<text text-anchor="start" x="237.5" y="-232.2" font-family="Helvetica,sans-Serif" font-size="11.00">parent_type_id</text>
<polygon fill="#ffffff" stroke="transparent" points="215.5,-202 215.5,-224 346.5,-224 346.5,-202 215.5,-202"/>
<polygon fill="none" stroke="black" points="215.5,-202 215.5,-224 346.5,-224 346.5,-202 215.5,-202"/>
<text text-anchor="start" x="237.5" y="-210.2" font-family="Helvetica,sans-Serif" font-size="11.00">name</text>
<polygon fill="none" stroke="black" points="215.5,-184 215.5,-202 346.5,-202 346.5,-184 215.5,-184"/>
<text text-anchor="start" x="218.5" y="-190.2" font-family="Helvetica,sans-Serif" font-size="11.00">...</text>
<polygon fill="#ffffff" stroke="transparent" points="215.5,-166 215.5,-184 259.5,-184 259.5,-166 215.5,-166"/>
<polygon fill="none" stroke="black" points="215.5,-166 215.5,-184 259.5,-184 259.5,-166 215.5,-166"/>
<text text-anchor="start" x="218.5" y="-172.2" font-family="Helvetica,sans-Serif" font-size="11.00">&lt; 1</text>
<polygon fill="#ffffff" stroke="transparent" points="259.5,-166 259.5,-184 311.5,-184 311.5,-166 259.5,-166"/>
<polygon fill="none" stroke="black" points="259.5,-166 259.5,-184 311.5,-184 311.5,-166 259.5,-166"/>
<text text-anchor="start" x="271.5" y="-172.2" font-family="Helvetica,sans-Serif" font-size="11.00">0 rows</text>
<polygon fill="#ffffff" stroke="transparent" points="311.5,-166 311.5,-184 346.5,-184 346.5,-166 311.5,-166"/>
<polygon fill="none" stroke="black" points="311.5,-166 311.5,-184 346.5,-184 346.5,-166 311.5,-166"/>
<text text-anchor="start" x="323.5" y="-172.2" font-family="Helvetica,sans-Serif" font-size="11.00">3 &gt;</text>
</a>
</g>
</g>
<!-- parallel_group_pair_to_type&#45;&gt;parallel_type -->
<g id="edge8" class="edge">
<title>parallel_group_pair_to_type:w&#45;&gt;parallel_type:e</title>
<path fill="none" stroke="black" d="M400.66,-275.36C381.17,-270.59 373.29,-257 347.5,-257"/>
<polygon fill="black" stroke="black" points="407.05,-276.09 414.59,-280.58 411.03,-276.55 415,-277 415,-277 415,-277 411.03,-276.55 415.41,-273.42 407.05,-276.09 407.05,-276.09"/>
<ellipse fill="none" stroke="black" cx="403.87" cy="-275.73" rx="3.2" ry="3.2"/>
</g>
<!-- parallel_group_pair_to_type_owner -->
<g id="node8" class="node">
<title>parallel_group_pair_to_type_owner</title>
<g id="a_node8"><a xlink:href="../../tables/parallel_group_pair_to_type_owner.html" xlink:title="parallel_group_pair_to_type_owner" target="_top">
<polygon fill="#ffffff" stroke="transparent" points="789,-116 789,-222 1051,-222 1051,-116 789,-116"/>
<polygon fill="#f5f5f5" stroke="transparent" points="789,-200 789,-222 1051,-222 1051,-200 789,-200"/>
<polygon fill="none" stroke="black" points="789,-200 789,-222 1051,-222 1051,-200 789,-200"/>
<text text-anchor="start" x="794" y="-209.2" font-family="Helvetica,sans-Serif" font-weight="bold" font-size="11.00">parallel_group_pair_to_type_owner</text>
<text text-anchor="start" x="1009" y="-208.2" font-family="Helvetica,sans-Serif" font-size="11.00">[table]</text>
<polygon fill="none" stroke="black" points="789,-178 789,-200 1051,-200 1051,-178 789,-178"/>
<image xlink:href="../../images/primaryKeys.png" width="11px" height="12px" preserveAspectRatio="xMinYMin meet" x="794" y="-195"/>
<text text-anchor="start" x="813" y="-186.2" font-family="Helvetica,sans-Serif" font-size="11.00">parallel_group_pair_to_type_id</text>
<polygon fill="#ffffff" stroke="transparent" points="789,-156 789,-178 1051,-178 1051,-156 789,-156"/>
<polygon fill="none" stroke="black" points="789,-156 789,-178 1051,-178 1051,-156 789,-156"/>
<image xlink:href="../../images/foreignKeys.png" width="11px" height="12px" preserveAspectRatio="xMinYMin meet" x="794" y="-173"/>
<text text-anchor="start" x="813" y="-164.2" font-family="Helvetica,sans-Serif" font-size="11.00">edition_editor_id</text>
<polygon fill="none" stroke="black" points="789,-134 789,-156 1051,-156 1051,-134 789,-134"/>
<image xlink:href="../../images/primaryKeys.png" width="11px" height="12px" preserveAspectRatio="xMinYMin meet" x="794" y="-151"/>
<text text-anchor="start" x="813" y="-142.2" font-family="Helvetica,sans-Serif" font-size="11.00">edition_id</text>
<polygon fill="#ffffff" stroke="transparent" points="789,-116 789,-134 904,-134 904,-116 789,-116"/>
<polygon fill="none" stroke="black" points="789,-116 789,-134 904,-134 904,-116 789,-116"/>
<text text-anchor="start" x="792" y="-122.2" font-family="Helvetica,sans-Serif" font-size="11.00">&lt; 3</text>
<polygon fill="#ffffff" stroke="transparent" points="904,-116 904,-134 992,-134 992,-116 904,-116"/>
<polygon fill="none" stroke="black" points="904,-116 904,-134 992,-134 992,-116 904,-116"/>
<text text-anchor="start" x="952" y="-122.2" font-family="Helvetica,sans-Serif" font-size="11.00">0 rows</text>
<polygon fill="#ffffff" stroke="transparent" points="992,-116 992,-134 1051,-134 1051,-116 992,-116"/>
<polygon fill="none" stroke="black" points="992,-116 992,-134 1051,-134 1051,-116 992,-116"/>
<text text-anchor="start" x="1040" y="-122.2" font-family="Helvetica,sans-Serif" font-size="11.00"> &#160;</text>
</a>
</g>
</g>
<!-- parallel_group_pair_to_type_owner&#45;&gt;edition_editor -->
<g id="edge9" class="edge">
<title>parallel_group_pair_to_type_owner:w&#45;&gt;edition_editor:e</title>
<path fill="none" stroke="black" d="M773.37,-167C721.98,-167 703.93,-167 646,-167"/>
<polygon fill="black" stroke="black" points="780,-167 788,-170.6 784,-167 788,-167 788,-167 788,-167 784,-167 788,-163.4 780,-167 780,-167"/>
<ellipse fill="none" stroke="black" cx="776.8" cy="-167" rx="3.2" ry="3.2"/>
</g>
<!-- parallel_group_pair_to_type_owner&#45;&gt;edition -->
<g id="edge10" class="edge">
<title>parallel_group_pair_to_type_owner:w&#45;&gt;edition:e</title>
<path fill="none" stroke="black" d="M773.78,-142.15C765.81,-138.57 760.65,-132.55 748,-130 572.07,-94.48 523.97,-114 344.5,-114"/>
<polygon fill="black" stroke="black" points="780.16,-143.43 787.29,-148.53 784.08,-144.22 788,-145 788,-145 788,-145 784.08,-144.22 788.71,-141.47 780.16,-143.43 780.16,-143.43"/>
<ellipse fill="none" stroke="black" cx="777.02" cy="-142.8" rx="3.2" ry="3.2"/>
</g>
<!-- parallel_group_pair_to_type_owner&#45;&gt;parallel_group_pair_to_type -->
<g id="edge11" class="edge">
<title>parallel_group_pair_to_type_owner:w&#45;&gt;parallel_group_pair_to_type:e</title>
<path fill="none" stroke="black" d="M773.83,-192.26C738.48,-212.59 795.71,-321 739,-321"/>
<polygon fill="black" stroke="black" points="780.2,-190.8 788.81,-192.51 784.1,-189.9 788,-189 788,-189 788,-189 784.1,-189.9 787.19,-185.49 780.2,-190.8 780.2,-190.8"/>
<ellipse fill="none" stroke="black" cx="777.09" cy="-191.51" rx="3.2" ry="3.2"/>
</g>
<!-- parallel_type_owner -->
<g id="node9" class="node">
<title>parallel_type_owner</title>
<g id="a_node9"><a xlink:href="../../tables/parallel_type_owner.html" xlink:title="parallel_type_owner" target="_top">
<polygon fill="#ffffff" stroke="transparent" points="832.5,-37 832.5,-95 1007.5,-95 1007.5,-37 832.5,-37"/>
<polygon fill="#f5f5f5" stroke="transparent" points="833,-73 833,-95 1008,-95 1008,-73 833,-73"/>
<polygon fill="none" stroke="black" points="833,-73 833,-95 1008,-95 1008,-73 833,-73"/>
<text text-anchor="start" x="838" y="-82.2" font-family="Helvetica,sans-Serif" font-weight="bold" font-size="11.00">parallel_type_owner</text>
<text text-anchor="start" x="966" y="-81.2" font-family="Helvetica,sans-Serif" font-size="11.00">[table]</text>
<polygon fill="none" stroke="black" points="833,-55 833,-73 1008,-73 1008,-55 833,-55"/>
<text text-anchor="start" x="836" y="-61.2" font-family="Helvetica,sans-Serif" font-size="11.00">...</text>
<polygon fill="#ffffff" stroke="transparent" points="833,-37 833,-55 905,-55 905,-37 833,-37"/>
<polygon fill="none" stroke="black" points="833,-37 833,-55 905,-55 905,-37 833,-37"/>
<text text-anchor="start" x="836" y="-43.2" font-family="Helvetica,sans-Serif" font-size="11.00">&lt; 3</text>
<polygon fill="#ffffff" stroke="transparent" points="905,-37 905,-55 971,-55 971,-37 905,-37"/>
<polygon fill="none" stroke="black" points="905,-37 905,-55 971,-55 971,-37 905,-37"/>
<text text-anchor="start" x="931" y="-43.2" font-family="Helvetica,sans-Serif" font-size="11.00">0 rows</text>
<polygon fill="#ffffff" stroke="transparent" points="971,-37 971,-55 1008,-55 1008,-37 971,-37"/>
<polygon fill="none" stroke="black" points="971,-37 971,-55 1008,-55 1008,-37 971,-37"/>
<text text-anchor="start" x="997" y="-43.2" font-family="Helvetica,sans-Serif" font-size="11.00"> &#160;</text>
</a>
</g>
</g>
<!-- parallel_type_owner&#45;&gt;edition_editor -->
<g id="edge12" class="edge">
<title>parallel_type_owner:w&#45;&gt;edition_editor:e</title>
<path fill="none" stroke="black" d="M817.34,-64.89C737.54,-74.96 735.33,-167 646,-167"/>
<polygon fill="black" stroke="black" points="824.01,-64.49 832.22,-67.59 828.01,-64.24 832,-64 832,-64 832,-64 828.01,-64.24 831.78,-60.41 824.01,-64.49 824.01,-64.49"/>
<ellipse fill="none" stroke="black" cx="820.82" cy="-64.68" rx="3.2" ry="3.2"/>
</g>
<!-- parallel_type_owner&#45;&gt;edition -->
<g id="edge13" class="edge">
<title>parallel_type_owner:w&#45;&gt;edition:e</title>
<path fill="none" stroke="black" d="M817.56,-63.93C639.65,-62.16 583.55,-28.66 406,-79 375.74,-87.58 375.95,-114 344.5,-114"/>
<polygon fill="black" stroke="black" points="824,-63.96 831.98,-67.6 828,-63.98 832,-64 832,-64 832,-64 828,-63.98 832.02,-60.4 824,-63.96 824,-63.96"/>
<ellipse fill="none" stroke="black" cx="820.8" cy="-63.94" rx="3.2" ry="3.2"/>
</g>
<!-- parallel_type_owner&#45;&gt;parallel_type -->
<g id="edge14" class="edge">
<title>parallel_type_owner:w&#45;&gt;parallel_type:e</title>
<path fill="none" stroke="black" d="M817.41,-65.94C742.99,-76.51 410.28,-126.77 406,-130 356.39,-167.43 409.64,-257 347.5,-257"/>
<polygon fill="black" stroke="black" points="824.07,-65.05 832.47,-67.57 828.03,-64.53 832,-64 832,-64 832,-64 828.03,-64.53 831.53,-60.43 824.07,-65.05 824.07,-65.05"/>
<ellipse fill="none" stroke="black" cx="820.9" cy="-65.48" rx="3.2" ry="3.2"/>
</g>
</g>
</svg>
