<?xml version="1.0" encoding="UTF-8" standalone="no"?>
<!DOCTYPE svg PUBLIC "-//W3C//DTD SVG 1.1//EN"
 "http://www.w3.org/Graphics/SVG/1.1/DTD/svg11.dtd">
<!-- Generated by graphviz version 2.43.0 (0)
 -->
<!-- Title: twoDegreesRelationshipsDiagram Pages: 1 -->
<svg width="863pt" height="291pt"
 viewBox="0.00 0.00 863.00 291.00" xmlns="http://www.w3.org/2000/svg" xmlns:xlink="http://www.w3.org/1999/xlink">
<g id="graph0" class="graph" transform="scale(1 1) rotate(0) translate(4 287)">
<title>twoDegreesRelationshipsDiagram</title>
<polygon fill="#ffffff" stroke="transparent" points="-4,4 -4,-287 859,-287 859,4 -4,4"/>
<text text-anchor="middle" x="79.5" y="-7.2" font-family="Helvetica,sans-Serif" font-size="11.00">Generated by SchemaSpy</text>
<!-- parallel_group_pair -->
<g id="node1" class="node">
<title>parallel_group_pair</title>
<g id="a_node1"><a xlink:href="../../tables/parallel_group_pair.html" xlink:title="parallel_group_pair" target="_top">
<polygon fill="#ffffff" stroke="transparent" points="326,-46 326,-152 495,-152 495,-46 326,-46"/>
<polygon fill="#f5f5f5" stroke="transparent" points="326.5,-130 326.5,-152 495.5,-152 495.5,-130 326.5,-130"/>
<polygon fill="none" stroke="black" points="326.5,-130 326.5,-152 495.5,-152 495.5,-130 326.5,-130"/>
<text text-anchor="start" x="331.5" y="-139.2" font-family="Helvetica,sans-Serif" font-weight="bold" font-size="11.00">parallel_group_pair</text>
<text text-anchor="start" x="453.5" y="-138.2" font-family="Helvetica,sans-Serif" font-size="11.00">[table]</text>
<polygon fill="none" stroke="black" points="326.5,-108 326.5,-130 495.5,-130 495.5,-108 326.5,-108"/>
<image xlink:href="../../images/primaryKeys.png" width="11px" height="12px" preserveAspectRatio="xMinYMin meet" x="331.5" y="-125"/>
<text text-anchor="start" x="346.5" y="-116.2" font-family="Helvetica,sans-Serif" font-size="11.00">parallel_group_pair_id</text>
<polygon fill="#ffffff" stroke="transparent" points="326.5,-86 326.5,-108 495.5,-108 495.5,-86 326.5,-86"/>
<polygon fill="none" stroke="black" points="326.5,-86 326.5,-108 495.5,-108 495.5,-86 326.5,-86"/>
<image xlink:href="../../images/foreignKeys.png" width="11px" height="12px" preserveAspectRatio="xMinYMin meet" x="331.5" y="-103"/>
<text text-anchor="start" x="346.5" y="-94.2" font-family="Helvetica,sans-Serif" font-size="11.00">parallel_group_a_id</text>
<polygon fill="#ffffff" stroke="transparent" points="326.5,-64 326.5,-86 495.5,-86 495.5,-64 326.5,-64"/>
<polygon fill="none" stroke="black" points="326.5,-64 326.5,-86 495.5,-86 495.5,-64 326.5,-64"/>
<image xlink:href="../../images/foreignKeys.png" width="11px" height="12px" preserveAspectRatio="xMinYMin meet" x="331.5" y="-81"/>
<text text-anchor="start" x="346.5" y="-72.2" font-family="Helvetica,sans-Serif" font-size="11.00">parallel_group_b_id</text>
<polygon fill="#ffffff" stroke="transparent" points="326.5,-46 326.5,-64 389.5,-64 389.5,-46 326.5,-46"/>
<polygon fill="none" stroke="black" points="326.5,-46 326.5,-64 389.5,-64 389.5,-46 326.5,-46"/>
<text text-anchor="start" x="329.5" y="-52.2" font-family="Helvetica,sans-Serif" font-size="11.00">&lt; 2</text>
<polygon fill="#ffffff" stroke="transparent" points="389.5,-46 389.5,-64 450.5,-64 450.5,-46 389.5,-46"/>
<polygon fill="none" stroke="black" points="389.5,-46 389.5,-64 450.5,-64 450.5,-46 389.5,-46"/>
<text text-anchor="start" x="410.5" y="-52.2" font-family="Helvetica,sans-Serif" font-size="11.00">0 rows</text>
<polygon fill="#ffffff" stroke="transparent" points="450.5,-46 450.5,-64 495.5,-64 495.5,-46 450.5,-46"/>
<polygon fill="none" stroke="black" points="450.5,-46 450.5,-64 495.5,-64 495.5,-46 450.5,-46"/>
<text text-anchor="start" x="472.5" y="-52.2" font-family="Helvetica,sans-Serif" font-size="11.00">2 &gt;</text>
</a>
</g>
</g>
<!-- parallel_group -->
<g id="node2" class="node">
<title>parallel_group</title>
<g id="a_node2"><a xlink:href="../../tables/parallel_group.html" xlink:title="parallel_group" target="_top">
<polygon fill="#ffffff" stroke="transparent" points="8,-66 8,-132 245,-132 245,-66 8,-66"/>
<polygon fill="#f5f5f5" stroke="transparent" points="10.5,-108 10.5,-130 243.5,-130 243.5,-108 10.5,-108"/>
<polygon fill="none" stroke="black" points="10.5,-108 10.5,-130 243.5,-130 243.5,-108 10.5,-108"/>
<text text-anchor="start" x="15.5" y="-117.2" font-family="Helvetica,sans-Serif" font-weight="bold" font-size="11.00">parallel_group</text>
<text text-anchor="start" x="201.5" y="-116.2" font-family="Helvetica,sans-Serif" font-size="11.00">[table]</text>
<polygon fill="none" stroke="black" points="10.5,-86 10.5,-108 146.5,-108 146.5,-86 10.5,-86"/>
<image xlink:href="../../images/primaryKeys.png" width="11px" height="12px" preserveAspectRatio="xMinYMin meet" x="15.5" y="-103"/>
<text text-anchor="start" x="30.5" y="-94.2" font-family="Helvetica,sans-Serif" font-size="11.00">parallel_group_id</text>
<polygon fill="none" stroke="black" points="146.5,-86 146.5,-108 243.5,-108 243.5,-86 146.5,-86"/>
<text text-anchor="start" x="149.5" y="-94.2" font-family="Helvetica,sans-Serif" font-size="11.00">int unsigned[10]</text>
<polygon fill="#ffffff" stroke="transparent" points="10.5,-68 10.5,-86 69.5,-86 69.5,-68 10.5,-68"/>
<polygon fill="none" stroke="black" points="10.5,-68 10.5,-86 69.5,-86 69.5,-68 10.5,-68"/>
<text text-anchor="start" x="13.5" y="-74.2" font-family="Helvetica,sans-Serif" font-size="11.00">&lt; 0</text>
<polygon fill="#ffffff" stroke="transparent" points="69.5,-68 69.5,-86 146.5,-86 146.5,-68 69.5,-68"/>
<polygon fill="none" stroke="black" points="69.5,-68 69.5,-86 146.5,-86 146.5,-68 69.5,-68"/>
<text text-anchor="start" x="106.5" y="-74.2" font-family="Helvetica,sans-Serif" font-size="11.00">0 rows</text>
<polygon fill="#ffffff" stroke="transparent" points="146.5,-68 146.5,-86 243.5,-86 243.5,-68 146.5,-68"/>
<polygon fill="none" stroke="black" points="146.5,-68 146.5,-86 243.5,-86 243.5,-68 146.5,-68"/>
<text text-anchor="start" x="220.5" y="-74.2" font-family="Helvetica,sans-Serif" font-size="11.00">3 &gt;</text>
<polygon fill="none" stroke="black" stroke-width="2" points="9,-67 9,-131 244,-131 244,-67 9,-67"/>
</a>
</g>
</g>
<!-- parallel_group_pair&#45;&gt;parallel_group -->
<g id="edge1" class="edge">
<title>parallel_group_pair:w&#45;&gt;parallel_group:e</title>
<path fill="none" stroke="black" d="M311.08,-97C286.23,-97 275.16,-97 244.5,-97"/>
<polygon fill="black" stroke="black" points="317.5,-97 325.5,-100.6 321.5,-97 325.5,-97 325.5,-97 325.5,-97 321.5,-97 325.5,-93.4 317.5,-97 317.5,-97"/>
<ellipse fill="none" stroke="black" cx="314.3" cy="-97" rx="3.2" ry="3.2"/>
</g>
<!-- parallel_group_pair&#45;&gt;parallel_group -->
<g id="edge2" class="edge">
<title>parallel_group_pair:w&#45;&gt;parallel_group:e</title>
<path fill="none" stroke="black" d="M311.08,-76.25C285.7,-80.9 276.41,-97 244.5,-97"/>
<polygon fill="black" stroke="black" points="317.53,-75.69 325.81,-78.59 321.51,-75.34 325.5,-75 325.5,-75 325.5,-75 321.51,-75.34 325.19,-71.41 317.53,-75.69 317.53,-75.69"/>
<ellipse fill="none" stroke="black" cx="314.34" cy="-75.96" rx="3.2" ry="3.2"/>
</g>
<!-- parallel_group_pair_owner -->
<g id="node3" class="node">
<title>parallel_group_pair_owner</title>
<g id="a_node3"><a xlink:href="../../tables/parallel_group_pair_owner.html" xlink:title="parallel_group_pair_owner" target="_top">
<polygon fill="#ffffff" stroke="transparent" points="606,-116 606,-174 817,-174 817,-116 606,-116"/>
<polygon fill="#f5f5f5" stroke="transparent" points="606.5,-152 606.5,-174 817.5,-174 817.5,-152 606.5,-152"/>
<polygon fill="none" stroke="black" points="606.5,-152 606.5,-174 817.5,-174 817.5,-152 606.5,-152"/>
<text text-anchor="start" x="611.5" y="-161.2" font-family="Helvetica,sans-Serif" font-weight="bold" font-size="11.00">parallel_group_pair_owner</text>
<text text-anchor="start" x="775.5" y="-160.2" font-family="Helvetica,sans-Serif" font-size="11.00">[table]</text>
<polygon fill="none" stroke="black" points="606.5,-134 606.5,-152 817.5,-152 817.5,-134 606.5,-134"/>
<text text-anchor="start" x="609.5" y="-140.2" font-family="Helvetica,sans-Serif" font-size="11.00">...</text>
<polygon fill="#ffffff" stroke="transparent" points="606.5,-116 606.5,-134 696.5,-134 696.5,-116 606.5,-116"/>
<polygon fill="none" stroke="black" points="606.5,-116 606.5,-134 696.5,-134 696.5,-116 606.5,-116"/>
<text text-anchor="start" x="609.5" y="-122.2" font-family="Helvetica,sans-Serif" font-size="11.00">&lt; 3</text>
<polygon fill="#ffffff" stroke="transparent" points="696.5,-116 696.5,-134 771.5,-134 771.5,-116 696.5,-116"/>
<polygon fill="none" stroke="black" points="696.5,-116 696.5,-134 771.5,-134 771.5,-116 696.5,-116"/>
<text text-anchor="start" x="731.5" y="-122.2" font-family="Helvetica,sans-Serif" font-size="11.00">0 rows</text>
<polygon fill="#ffffff" stroke="transparent" points="771.5,-116 771.5,-134 817.5,-134 817.5,-116 771.5,-116"/>
<polygon fill="none" stroke="black" points="771.5,-116 771.5,-134 817.5,-134 817.5,-116 771.5,-116"/>
<text text-anchor="start" x="806.5" y="-122.2" font-family="Helvetica,sans-Serif" font-size="11.00"> &#160;</text>
</a>
</g>
</g>
<!-- parallel_group_pair_owner&#45;&gt;parallel_group_pair -->
<g id="edge3" class="edge">
<title>parallel_group_pair_owner:w&#45;&gt;parallel_group_pair:e</title>
<path fill="none" stroke="black" d="M591.04,-142.26C553.39,-138.2 540.87,-119 496.5,-119"/>
<polygon fill="black" stroke="black" points="597.51,-142.59 605.31,-146.6 601.51,-142.79 605.5,-143 605.5,-143 605.5,-143 601.51,-142.79 605.69,-139.4 597.51,-142.59 597.51,-142.59"/>
<ellipse fill="none" stroke="black" cx="594.31" cy="-142.42" rx="3.2" ry="3.2"/>
</g>
<!-- parallel_group_pair_to_type -->
<g id="node4" class="node">
<title>parallel_group_pair_to_type</title>
<g id="a_node4"><a xlink:href="../../tables/parallel_group_pair_to_type.html" xlink:title="parallel_group_pair_to_type" target="_top">
<polygon fill="#ffffff" stroke="transparent" points="602,-37 602,-95 821,-95 821,-37 602,-37"/>
<polygon fill="#f5f5f5" stroke="transparent" points="602.5,-73 602.5,-95 821.5,-95 821.5,-73 602.5,-73"/>
<polygon fill="none" stroke="black" points="602.5,-73 602.5,-95 821.5,-95 821.5,-73 602.5,-73"/>
<text text-anchor="start" x="607.5" y="-82.2" font-family="Helvetica,sans-Serif" font-weight="bold" font-size="11.00">parallel_group_pair_to_type</text>
<text text-anchor="start" x="779.5" y="-81.2" font-family="Helvetica,sans-Serif" font-size="11.00">[table]</text>
<polygon fill="none" stroke="black" points="602.5,-55 602.5,-73 821.5,-73 821.5,-55 602.5,-55"/>
<text text-anchor="start" x="605.5" y="-61.2" font-family="Helvetica,sans-Serif" font-size="11.00">...</text>
<polygon fill="#ffffff" stroke="transparent" points="602.5,-37 602.5,-55 690.5,-55 690.5,-37 602.5,-37"/>
<polygon fill="none" stroke="black" points="602.5,-37 602.5,-55 690.5,-55 690.5,-37 602.5,-37"/>
<text text-anchor="start" x="605.5" y="-43.2" font-family="Helvetica,sans-Serif" font-size="11.00">&lt; 2</text>
<polygon fill="#ffffff" stroke="transparent" points="690.5,-37 690.5,-55 764.5,-55 764.5,-37 690.5,-37"/>
<polygon fill="none" stroke="black" points="690.5,-37 690.5,-55 764.5,-55 764.5,-37 690.5,-37"/>
<text text-anchor="start" x="724.5" y="-43.2" font-family="Helvetica,sans-Serif" font-size="11.00">0 rows</text>
<polygon fill="#ffffff" stroke="transparent" points="764.5,-37 764.5,-55 821.5,-55 821.5,-37 764.5,-37"/>
<polygon fill="none" stroke="black" points="764.5,-37 764.5,-55 821.5,-55 821.5,-37 764.5,-37"/>
<text text-anchor="start" x="798.5" y="-43.2" font-family="Helvetica,sans-Serif" font-size="11.00">1 &gt;</text>
</a>
</g>
</g>
<!-- parallel_group_pair_to_type&#45;&gt;parallel_group_pair -->
<g id="edge4" class="edge">
<title>parallel_group_pair_to_type:w&#45;&gt;parallel_group_pair:e</title>
<path fill="none" stroke="black" d="M586.98,-65.59C548.35,-74.6 543.83,-119 496.5,-119"/>
<polygon fill="black" stroke="black" points="593.55,-64.87 601.89,-67.58 597.52,-64.43 601.5,-64 601.5,-64 601.5,-64 597.52,-64.43 601.11,-60.42 593.55,-64.87 593.55,-64.87"/>
<ellipse fill="none" stroke="black" cx="590.37" cy="-65.22" rx="3.2" ry="3.2"/>
</g>
<!-- parallel_sign_stream_section -->
<g id="node5" class="node">
<title>parallel_sign_stream_section</title>
<g id="a_node5"><a xlink:href="../../tables/parallel_sign_stream_section.html" xlink:title="parallel_sign_stream_section" target="_top">
<polygon fill="#ffffff" stroke="transparent" points="294,-173 294,-279 527,-279 527,-173 294,-173"/>
<polygon fill="#f5f5f5" stroke="transparent" points="294.5,-257 294.5,-279 527.5,-279 527.5,-257 294.5,-257"/>
<polygon fill="none" stroke="black" points="294.5,-257 294.5,-279 527.5,-279 527.5,-257 294.5,-257"/>
<text text-anchor="start" x="299.5" y="-266.2" font-family="Helvetica,sans-Serif" font-weight="bold" font-size="11.00">parallel_sign_stream_section</text>
<text text-anchor="start" x="485.5" y="-265.2" font-family="Helvetica,sans-Serif" font-size="11.00">[table]</text>
<polygon fill="none" stroke="black" points="294.5,-235 294.5,-257 527.5,-257 527.5,-235 294.5,-235"/>
<image xlink:href="../../images/primaryKeys.png" width="11px" height="12px" preserveAspectRatio="xMinYMin meet" x="299.5" y="-252"/>
<text text-anchor="start" x="314.5" y="-243.2" font-family="Helvetica,sans-Serif" font-size="11.00">parallel_sign_stream_section_id</text>
<polygon fill="#ffffff" stroke="transparent" points="294.5,-213 294.5,-235 527.5,-235 527.5,-213 294.5,-213"/>
<polygon fill="none" stroke="black" points="294.5,-213 294.5,-235 527.5,-235 527.5,-213 294.5,-213"/>
<image xlink:href="../../images/foreignKeys.png" width="11px" height="12px" preserveAspectRatio="xMinYMin meet" x="299.5" y="-230"/>
<text text-anchor="start" x="314.5" y="-221.2" font-family="Helvetica,sans-Serif" font-size="11.00">sign_stream_section_id</text>
<polygon fill="#ffffff" stroke="transparent" points="294.5,-191 294.5,-213 527.5,-213 527.5,-191 294.5,-191"/>
<polygon fill="none" stroke="black" points="294.5,-191 294.5,-213 527.5,-213 527.5,-191 294.5,-191"/>
<image xlink:href="../../images/foreignKeys.png" width="11px" height="12px" preserveAspectRatio="xMinYMin meet" x="299.5" y="-208"/>
<text text-anchor="start" x="314.5" y="-199.2" font-family="Helvetica,sans-Serif" font-size="11.00">parallel_group_id</text>
<polygon fill="#ffffff" stroke="transparent" points="294.5,-173 294.5,-191 389.5,-191 389.5,-173 294.5,-173"/>
<polygon fill="none" stroke="black" points="294.5,-173 294.5,-191 389.5,-191 389.5,-173 294.5,-173"/>
<text text-anchor="start" x="297.5" y="-179.2" font-family="Helvetica,sans-Serif" font-size="11.00">&lt; 2</text>
<polygon fill="#ffffff" stroke="transparent" points="389.5,-173 389.5,-191 466.5,-191 466.5,-173 389.5,-173"/>
<polygon fill="none" stroke="black" points="389.5,-173 389.5,-191 466.5,-191 466.5,-173 389.5,-173"/>
<text text-anchor="start" x="426.5" y="-179.2" font-family="Helvetica,sans-Serif" font-size="11.00">0 rows</text>
<polygon fill="#ffffff" stroke="transparent" points="466.5,-173 466.5,-191 527.5,-191 527.5,-173 466.5,-173"/>
<polygon fill="none" stroke="black" points="466.5,-173 466.5,-191 527.5,-191 527.5,-173 466.5,-173"/>
<text text-anchor="start" x="504.5" y="-179.2" font-family="Helvetica,sans-Serif" font-size="11.00">1 &gt;</text>
</a>
</g>
</g>
<!-- parallel_sign_stream_section&#45;&gt;parallel_group -->
<g id="edge5" class="edge">
<title>parallel_sign_stream_section:w&#45;&gt;parallel_group:e</title>
<path fill="none" stroke="black" d="M279.4,-198.01C253.21,-178.83 289.96,-97 244.5,-97"/>
<polygon fill="black" stroke="black" points="285.8,-199.82 292.52,-205.46 289.65,-200.91 293.5,-202 293.5,-202 293.5,-202 289.65,-200.91 294.48,-198.54 285.8,-199.82 285.8,-199.82"/>
<ellipse fill="none" stroke="black" cx="282.72" cy="-198.95" rx="3.2" ry="3.2"/>
</g>
<!-- sign_stream_section -->
<g id="node6" class="node">
<title>sign_stream_section</title>
<g id="a_node6"><a xlink:href="../../tables/sign_stream_section.html" xlink:title="sign_stream_section" target="_top">
<polygon fill="#ffffff" stroke="transparent" points="38.5,-197 38.5,-255 214.5,-255 214.5,-197 38.5,-197"/>
<polygon fill="#f5f5f5" stroke="transparent" points="38.5,-233 38.5,-255 214.5,-255 214.5,-233 38.5,-233"/>
<polygon fill="none" stroke="black" points="38.5,-233 38.5,-255 214.5,-255 214.5,-233 38.5,-233"/>
<text text-anchor="start" x="43.5" y="-242.2" font-family="Helvetica,sans-Serif" font-weight="bold" font-size="11.00">sign_stream_section</text>
<text text-anchor="start" x="172.5" y="-241.2" font-family="Helvetica,sans-Serif" font-size="11.00">[table]</text>
<polygon fill="none" stroke="black" points="38.5,-215 38.5,-233 214.5,-233 214.5,-215 38.5,-215"/>
<text text-anchor="start" x="41.5" y="-221.2" font-family="Helvetica,sans-Serif" font-size="11.00">...</text>
<polygon fill="#ffffff" stroke="transparent" points="38.5,-197 38.5,-215 98.5,-215 98.5,-197 38.5,-197"/>
<polygon fill="none" stroke="black" points="38.5,-197 38.5,-215 98.5,-215 98.5,-197 38.5,-197"/>
<text text-anchor="start" x="41.5" y="-203.2" font-family="Helvetica,sans-Serif" font-size="11.00"> &#160;</text>
<polygon fill="#ffffff" stroke="transparent" points="98.5,-197 98.5,-215 164.5,-215 164.5,-197 98.5,-197"/>
<polygon fill="none" stroke="black" points="98.5,-197 98.5,-215 164.5,-215 164.5,-197 98.5,-197"/>
<text text-anchor="start" x="124.5" y="-203.2" font-family="Helvetica,sans-Serif" font-size="11.00">2 rows</text>
<polygon fill="#ffffff" stroke="transparent" points="164.5,-197 164.5,-215 214.5,-215 214.5,-197 164.5,-197"/>
<polygon fill="none" stroke="black" points="164.5,-197 164.5,-215 214.5,-215 214.5,-197 164.5,-197"/>
<text text-anchor="start" x="191.5" y="-203.2" font-family="Helvetica,sans-Serif" font-size="11.00">4 &gt;</text>
</a>
</g>
</g>
<!-- parallel_sign_stream_section&#45;&gt;sign_stream_section -->
<g id="edge6" class="edge">
<title>parallel_sign_stream_section:w&#45;&gt;sign_stream_section:e</title>
<path fill="none" stroke="black" d="M278.96,-224C255.49,-224 244.75,-224 215.5,-224"/>
<polygon fill="black" stroke="black" points="285.5,-224 293.5,-227.6 289.5,-224 293.5,-224 293.5,-224 293.5,-224 289.5,-224 293.5,-220.4 285.5,-224 285.5,-224"/>
<ellipse fill="none" stroke="black" cx="282.3" cy="-224" rx="3.2" ry="3.2"/>
</g>
<!-- parallel_sign_stream_section_owner -->
<g id="node7" class="node">
<title>parallel_sign_stream_section_owner</title>
<g id="a_node7"><a xlink:href="../../tables/parallel_sign_stream_section_owner.html" xlink:title="parallel_sign_stream_section_owner" target="_top">
<polygon fill="#ffffff" stroke="transparent" points="576,-219 576,-277 847,-277 847,-219 576,-219"/>
<polygon fill="#f5f5f5" stroke="transparent" points="576.5,-255 576.5,-277 847.5,-277 847.5,-255 576.5,-255"/>
<polygon fill="none" stroke="black" points="576.5,-255 576.5,-277 847.5,-277 847.5,-255 576.5,-255"/>
<text text-anchor="start" x="581.5" y="-264.2" font-family="Helvetica,sans-Serif" font-weight="bold" font-size="11.00">parallel_sign_stream_section_owner</text>
<text text-anchor="start" x="805.5" y="-263.2" font-family="Helvetica,sans-Serif" font-size="11.00">[table]</text>
<polygon fill="none" stroke="black" points="576.5,-237 576.5,-255 847.5,-255 847.5,-237 576.5,-237"/>
<text text-anchor="start" x="579.5" y="-243.2" font-family="Helvetica,sans-Serif" font-size="11.00">...</text>
<polygon fill="#ffffff" stroke="transparent" points="576.5,-219 576.5,-237 696.5,-237 696.5,-219 576.5,-219"/>
<polygon fill="none" stroke="black" points="576.5,-219 576.5,-237 696.5,-237 696.5,-219 576.5,-219"/>
<text text-anchor="start" x="579.5" y="-225.2" font-family="Helvetica,sans-Serif" font-size="11.00">&lt; 3</text>
<polygon fill="#ffffff" stroke="transparent" points="696.5,-219 696.5,-237 786.5,-237 786.5,-219 696.5,-219"/>
<polygon fill="none" stroke="black" points="696.5,-219 696.5,-237 786.5,-237 786.5,-219 696.5,-219"/>
<text text-anchor="start" x="746.5" y="-225.2" font-family="Helvetica,sans-Serif" font-size="11.00">0 rows</text>
<polygon fill="#ffffff" stroke="transparent" points="786.5,-219 786.5,-237 847.5,-237 847.5,-219 786.5,-219"/>
<polygon fill="none" stroke="black" points="786.5,-219 786.5,-237 847.5,-237 847.5,-219 786.5,-219"/>
<text text-anchor="start" x="836.5" y="-225.2" font-family="Helvetica,sans-Serif" font-size="11.00"> &#160;</text>
</a>
</g>
</g>
<!-- parallel_sign_stream_section_owner&#45;&gt;parallel_sign_stream_section -->
<g id="edge7" class="edge">
<title>parallel_sign_stream_section_owner:w&#45;&gt;parallel_sign_stream_section:e</title>
<path fill="none" stroke="black" d="M560.9,-246C550.43,-246 543.51,-246 528.5,-246"/>
<polygon fill="black" stroke="black" points="567.5,-246 575.5,-249.6 571.5,-246 575.5,-246 575.5,-246 575.5,-246 571.5,-246 575.5,-242.4 567.5,-246 567.5,-246"/>
<ellipse fill="none" stroke="black" cx="564.3" cy="-246" rx="3.2" ry="3.2"/>
</g>
</g>
</svg>
