<?xml version="1.0" encoding="UTF-8" standalone="no"?>
<!DOCTYPE svg PUBLIC "-//W3C//DTD SVG 1.1//EN"
 "http://www.w3.org/Graphics/SVG/1.1/DTD/svg11.dtd">
<!-- Generated by graphviz version 2.43.0 (0)
 -->
<!-- Title: oneDegreeRelationshipsDiagram Pages: 1 -->
<svg width="559pt" height="282pt"
 viewBox="0.00 0.00 558.78 282.00" xmlns="http://www.w3.org/2000/svg" xmlns:xlink="http://www.w3.org/1999/xlink">
<g id="graph0" class="graph" transform="scale(1 1) rotate(0) translate(4 278)">
<title>oneDegreeRelationshipsDiagram</title>
<polygon fill="#ffffff" stroke="transparent" points="-4,4 -4,-278 554.78,-278 554.78,4 -4,4"/>
<text text-anchor="middle" x="79.5" y="-7.2" font-family="Helvetica,sans-Serif" font-size="11.00">Generated by SchemaSpy</text>
<!-- parallel_group_pair_to_type -->
<g id="node1" class="node">
<title>parallel_group_pair_to_type</title>
<g id="a_node1"><a xlink:href="../../tables/parallel_group_pair_to_type.html" xlink:title="parallel_group_pair_to_type" target="_top">
<polygon fill="#ffffff" stroke="transparent" points="317.78,-164 317.78,-270 542.78,-270 542.78,-164 317.78,-164"/>
<polygon fill="#f5f5f5" stroke="transparent" points="318.28,-248 318.28,-270 543.28,-270 543.28,-248 318.28,-248"/>
<polygon fill="none" stroke="black" points="318.28,-248 318.28,-270 543.28,-270 543.28,-248 318.28,-248"/>
<text text-anchor="start" x="323.28" y="-257.2" font-family="Helvetica,sans-Serif" font-weight="bold" font-size="11.00">parallel_group_pair_to_type</text>
<text text-anchor="start" x="501.28" y="-256.2" font-family="Helvetica,sans-Serif" font-size="11.00">[table]</text>
<polygon fill="none" stroke="black" points="318.28,-226 318.28,-248 543.28,-248 543.28,-226 318.28,-226"/>
<image xlink:href="../../images/primaryKeys.png" width="11px" height="12px" preserveAspectRatio="xMinYMin meet" x="323.283" y="-243"/>
<text text-anchor="start" x="338.28" y="-234.2" font-family="Helvetica,sans-Serif" font-size="11.00">parallel_group_pair_to_type_id</text>
<polygon fill="#ffffff" stroke="transparent" points="318.28,-204 318.28,-226 543.28,-226 543.28,-204 318.28,-204"/>
<polygon fill="none" stroke="black" points="318.28,-204 318.28,-226 543.28,-226 543.28,-204 318.28,-204"/>
<image xlink:href="../../images/foreignKeys.png" width="11px" height="12px" preserveAspectRatio="xMinYMin meet" x="323.283" y="-221"/>
<text text-anchor="start" x="338.28" y="-212.2" font-family="Helvetica,sans-Serif" font-size="11.00">parallel_group_pair_id</text>
<polygon fill="#ffffff" stroke="transparent" points="318.28,-182 318.28,-204 543.28,-204 543.28,-182 318.28,-182"/>
<polygon fill="none" stroke="black" points="318.28,-182 318.28,-204 543.28,-204 543.28,-182 318.28,-182"/>
<image xlink:href="../../images/foreignKeys.png" width="11px" height="12px" preserveAspectRatio="xMinYMin meet" x="323.283" y="-199"/>
<text text-anchor="start" x="338.28" y="-190.2" font-family="Helvetica,sans-Serif" font-size="11.00">parallel_type_id</text>
<polygon fill="#ffffff" stroke="transparent" points="318.28,-164 318.28,-182 409.28,-182 409.28,-164 318.28,-164"/>
<polygon fill="none" stroke="black" points="318.28,-164 318.28,-182 409.28,-182 409.28,-164 318.28,-164"/>
<text text-anchor="start" x="321.28" y="-170.2" font-family="Helvetica,sans-Serif" font-size="11.00">&lt; 2</text>
<polygon fill="#ffffff" stroke="transparent" points="409.28,-164 409.28,-182 484.28,-182 484.28,-164 409.28,-164"/>
<polygon fill="none" stroke="black" points="409.28,-164 409.28,-182 484.28,-182 484.28,-164 409.28,-164"/>
<text text-anchor="start" x="444.28" y="-170.2" font-family="Helvetica,sans-Serif" font-size="11.00">0 rows</text>
<polygon fill="#ffffff" stroke="transparent" points="484.28,-164 484.28,-182 543.28,-182 543.28,-164 484.28,-164"/>
<polygon fill="none" stroke="black" points="484.28,-164 484.28,-182 543.28,-182 543.28,-164 484.28,-164"/>
<text text-anchor="start" x="520.28" y="-170.2" font-family="Helvetica,sans-Serif" font-size="11.00">1 &gt;</text>
</a>
</g>
</g>
<!-- parallel_type -->
<g id="node2" class="node">
<title>parallel_type</title>
<g id="a_node2"><a xlink:href="../../tables/parallel_type.html" xlink:title="parallel_type" target="_top">
<polygon fill="#ffffff" stroke="transparent" points="40.78,-54 40.78,-186 268.78,-186 268.78,-54 40.78,-54"/>
<polygon fill="#f5f5f5" stroke="transparent" points="42.78,-162 42.78,-184 266.78,-184 266.78,-162 42.78,-162"/>
<polygon fill="none" stroke="black" points="42.78,-162 42.78,-184 266.78,-184 266.78,-162 42.78,-162"/>
<text text-anchor="start" x="47.78" y="-171.2" font-family="Helvetica,sans-Serif" font-weight="bold" font-size="11.00">parallel_type</text>
<text text-anchor="start" x="224.78" y="-170.2" font-family="Helvetica,sans-Serif" font-size="11.00">[table]</text>
<polygon fill="none" stroke="black" points="42.78,-140 42.78,-162 169.78,-162 169.78,-140 42.78,-140"/>
<image xlink:href="../../images/primaryKeys.png" width="11px" height="12px" preserveAspectRatio="xMinYMin meet" x="47.7834" y="-157"/>
<text text-anchor="start" x="62.78" y="-148.2" font-family="Helvetica,sans-Serif" font-size="11.00">parallel_type_id</text>
<polygon fill="none" stroke="black" points="169.78,-140 169.78,-162 266.78,-162 266.78,-140 169.78,-140"/>
<text text-anchor="start" x="172.78" y="-148.2" font-family="Helvetica,sans-Serif" font-size="11.00">int unsigned[10]</text>
<polygon fill="#ffffff" stroke="transparent" points="42.78,-118 42.78,-140 169.78,-140 169.78,-118 42.78,-118"/>
<polygon fill="none" stroke="black" points="42.78,-118 42.78,-140 169.78,-140 169.78,-118 42.78,-118"/>
<image xlink:href="../../images/foreignKeys.png" width="11px" height="12px" preserveAspectRatio="xMinYMin meet" x="47.7834" y="-135"/>
<text text-anchor="start" x="62.78" y="-126.2" font-family="Helvetica,sans-Serif" font-size="11.00">parent_type_id</text>
<polygon fill="none" stroke="black" points="169.78,-118 169.78,-140 266.78,-140 266.78,-118 169.78,-118"/>
<text text-anchor="start" x="172.78" y="-126.2" font-family="Helvetica,sans-Serif" font-size="11.00">int unsigned[10]</text>
<polygon fill="#ffffff" stroke="transparent" points="42.78,-96 42.78,-118 169.78,-118 169.78,-96 42.78,-96"/>
<polygon fill="none" stroke="black" points="42.78,-96 42.78,-118 169.78,-118 169.78,-96 42.78,-96"/>
<text text-anchor="start" x="62.78" y="-104.2" font-family="Helvetica,sans-Serif" font-size="11.00">name</text>
<polygon fill="none" stroke="black" points="169.78,-96 169.78,-118 266.78,-118 266.78,-96 169.78,-96"/>
<text text-anchor="start" x="172.78" y="-104.2" font-family="Helvetica,sans-Serif" font-size="11.00">varchar[255]</text>
<polygon fill="none" stroke="black" points="42.78,-74 42.78,-96 169.78,-96 169.78,-74 42.78,-74"/>
<text text-anchor="start" x="62.78" y="-82.2" font-family="Helvetica,sans-Serif" font-size="11.00">description</text>
<polygon fill="none" stroke="black" points="169.78,-74 169.78,-96 266.78,-96 266.78,-74 169.78,-74"/>
<text text-anchor="start" x="172.78" y="-82.2" font-family="Helvetica,sans-Serif" font-size="11.00">text[65535]</text>
<polygon fill="#ffffff" stroke="transparent" points="42.78,-56 42.78,-74 97.78,-74 97.78,-56 42.78,-56"/>
<polygon fill="none" stroke="black" points="42.78,-56 42.78,-74 97.78,-74 97.78,-56 42.78,-56"/>
<text text-anchor="start" x="45.78" y="-62.2" font-family="Helvetica,sans-Serif" font-size="11.00">&lt; 1</text>
<polygon fill="#ffffff" stroke="transparent" points="97.78,-56 97.78,-74 169.78,-74 169.78,-56 97.78,-56"/>
<polygon fill="none" stroke="black" points="97.78,-56 97.78,-74 169.78,-74 169.78,-56 97.78,-56"/>
<text text-anchor="start" x="129.78" y="-62.2" font-family="Helvetica,sans-Serif" font-size="11.00">0 rows</text>
<polygon fill="#ffffff" stroke="transparent" points="169.78,-56 169.78,-74 266.78,-74 266.78,-56 169.78,-56"/>
<polygon fill="none" stroke="black" points="169.78,-56 169.78,-74 266.78,-74 266.78,-56 169.78,-56"/>
<text text-anchor="start" x="243.78" y="-62.2" font-family="Helvetica,sans-Serif" font-size="11.00">3 &gt;</text>
<polygon fill="none" stroke="black" stroke-width="2" points="41.78,-55 41.78,-185 267.78,-185 267.78,-55 41.78,-55"/>
</a>
</g>
</g>
<!-- parallel_group_pair_to_type&#45;&gt;parallel_type -->
<g id="edge1" class="edge">
<title>parallel_group_pair_to_type:w&#45;&gt;parallel_type:e</title>
<path fill="none" stroke="black" d="M303.28,-188.18C290.24,-177.15 290.55,-151 267.78,-151"/>
<polygon fill="black" stroke="black" points="309.72,-190.4 316.11,-196.4 313.5,-191.7 317.28,-193 317.28,-193 317.28,-193 313.5,-191.7 318.45,-189.6 309.72,-190.4 309.72,-190.4"/>
<ellipse fill="none" stroke="black" cx="306.69" cy="-189.36" rx="3.2" ry="3.2"/>
</g>
<!-- parallel_type&#45;&gt;parallel_type -->
<g id="edge2" class="edge">
<title>parallel_type:w&#45;&gt;parallel_type:e</title>
<path fill="none" stroke="black" d="M29.39,-135.09C-24.82,-162.95 -13.03,-203 154.78,-203 335.28,-203 335.28,-178.67 266.78,-151"/>
<polygon fill="black" stroke="black" points="35.5,-132.31 44.27,-132.28 39.14,-130.66 42.78,-129 42.78,-129 42.78,-129 39.14,-130.66 41.29,-125.72 35.5,-132.31 35.5,-132.31"/>
<ellipse fill="none" stroke="black" cx="32.59" cy="-133.64" rx="3.2" ry="3.2"/>
</g>
<!-- parallel_type_owner -->
<g id="node3" class="node">
<title>parallel_type_owner</title>
<g id="a_node3"><a xlink:href="../../tables/parallel_type_owner.html" xlink:title="parallel_type_owner" target="_top">
<polygon fill="#ffffff" stroke="transparent" points="342.78,-37 342.78,-143 517.78,-143 517.78,-37 342.78,-37"/>
<polygon fill="#f5f5f5" stroke="transparent" points="343.28,-121 343.28,-143 518.28,-143 518.28,-121 343.28,-121"/>
<polygon fill="none" stroke="black" points="343.28,-121 343.28,-143 518.28,-143 518.28,-121 343.28,-121"/>
<text text-anchor="start" x="348.28" y="-130.2" font-family="Helvetica,sans-Serif" font-weight="bold" font-size="11.00">parallel_type_owner</text>
<text text-anchor="start" x="476.28" y="-129.2" font-family="Helvetica,sans-Serif" font-size="11.00">[table]</text>
<polygon fill="none" stroke="black" points="343.28,-99 343.28,-121 518.28,-121 518.28,-99 343.28,-99"/>
<image xlink:href="../../images/primaryKeys.png" width="11px" height="12px" preserveAspectRatio="xMinYMin meet" x="348.283" y="-116"/>
<text text-anchor="start" x="373.28" y="-107.2" font-family="Helvetica,sans-Serif" font-size="11.00">parallel_type_id</text>
<polygon fill="#ffffff" stroke="transparent" points="343.28,-77 343.28,-99 518.28,-99 518.28,-77 343.28,-77"/>
<polygon fill="none" stroke="black" points="343.28,-77 343.28,-99 518.28,-99 518.28,-77 343.28,-77"/>
<image xlink:href="../../images/foreignKeys.png" width="11px" height="12px" preserveAspectRatio="xMinYMin meet" x="348.283" y="-94"/>
<text text-anchor="start" x="373.28" y="-85.2" font-family="Helvetica,sans-Serif" font-size="11.00">edition_editor_id</text>
<polygon fill="none" stroke="black" points="343.28,-55 343.28,-77 518.28,-77 518.28,-55 343.28,-55"/>
<image xlink:href="../../images/primaryKeys.png" width="11px" height="12px" preserveAspectRatio="xMinYMin meet" x="348.283" y="-72"/>
<text text-anchor="start" x="373.28" y="-63.2" font-family="Helvetica,sans-Serif" font-size="11.00">edition_id</text>
<polygon fill="#ffffff" stroke="transparent" points="343.28,-37 343.28,-55 415.28,-55 415.28,-37 343.28,-37"/>
<polygon fill="none" stroke="black" points="343.28,-37 343.28,-55 415.28,-55 415.28,-37 343.28,-37"/>
<text text-anchor="start" x="346.28" y="-43.2" font-family="Helvetica,sans-Serif" font-size="11.00">&lt; 3</text>
<polygon fill="#ffffff" stroke="transparent" points="415.28,-37 415.28,-55 481.28,-55 481.28,-37 415.28,-37"/>
<polygon fill="none" stroke="black" points="415.28,-37 415.28,-55 481.28,-55 481.28,-37 415.28,-37"/>
<text text-anchor="start" x="441.28" y="-43.2" font-family="Helvetica,sans-Serif" font-size="11.00">0 rows</text>
<polygon fill="#ffffff" stroke="transparent" points="481.28,-37 481.28,-55 518.28,-55 518.28,-37 481.28,-37"/>
<polygon fill="none" stroke="black" points="481.28,-37 481.28,-55 518.28,-55 518.28,-37 481.28,-37"/>
<text text-anchor="start" x="507.28" y="-43.2" font-family="Helvetica,sans-Serif" font-size="11.00"> &#160;</text>
</a>
</g>
</g>
<!-- parallel_type_owner&#45;&gt;parallel_type -->
<g id="edge3" class="edge">
<title>parallel_type_owner:w&#45;&gt;parallel_type:e</title>
<path fill="none" stroke="black" d="M327.77,-112.44C303.96,-121.27 299.97,-151 267.78,-151"/>
<polygon fill="black" stroke="black" points="334.39,-111.33 342.88,-113.55 338.34,-110.66 342.28,-110 342.28,-110 342.28,-110 338.34,-110.66 341.69,-106.45 334.39,-111.33 334.39,-111.33"/>
<ellipse fill="none" stroke="black" cx="331.24" cy="-111.86" rx="3.2" ry="3.2"/>
</g>
</g>
</svg>
