<?xml version="1.0" encoding="UTF-8" standalone="no"?>
<!DOCTYPE svg PUBLIC "-//W3C//DTD SVG 1.1//EN"
 "http://www.w3.org/Graphics/SVG/1.1/DTD/svg11.dtd">
<!-- Generated by graphviz version 2.40.1 (20161225.0304)
 -->
<!-- Title: twoDegreesRelationshipsDiagram Pages: 1 -->
<svg width="684pt" height="289pt"
 viewBox="0.00 0.00 684.00 289.00" xmlns="http://www.w3.org/2000/svg" xmlns:xlink="http://www.w3.org/1999/xlink">
<g id="graph0" class="graph" transform="scale(1 1) rotate(0) translate(4 285)">
<title>twoDegreesRelationshipsDiagram</title>
<polygon fill="#ffffff" stroke="transparent" points="-4,4 -4,-285 680,-285 680,4 -4,4"/>
<text text-anchor="middle" x="71.5" y="-7.2" font-family="Helvetica,sans-Serif" font-size="11.00" fill="#000000">Generated by SchemaSpy</text>
<!-- image_to_image_map -->
<g id="node1" class="node">
<title>image_to_image_map</title>
<g id="a_node1"><a xlink:href="../../tables/image_to_image_map.html" xlink:title="image_to_image_map" target="_top">
<polygon fill="#ffffff" stroke="transparent" points="167,-37 167,-227 350,-227 350,-37 167,-37"/>
<polygon fill="#f5f5f5" stroke="transparent" points="167.5,-205 167.5,-227 350.5,-227 350.5,-205 167.5,-205"/>
<polygon fill="none" stroke="#000000" points="167.5,-205 167.5,-227 350.5,-227 350.5,-205 167.5,-205"/>
<text text-anchor="start" x="172.5" y="-214.2" font-family="Helvetica,sans-Serif" font-weight="bold" font-size="11.00" fill="#000000">image_to_image_map</text>
<text text-anchor="start" x="315.5" y="-213.2" font-family="Helvetica,sans-Serif" font-size="11.00" fill="#000000">[table]</text>
<polygon fill="none" stroke="#000000" points="167.5,-183 167.5,-205 350.5,-205 350.5,-183 167.5,-183"/>
<image xlink:href="../../images/primaryKeys.png" width="11px" height="12px" preserveAspectRatio="xMinYMin meet" x="172.5" y="-200"/>
<text text-anchor="start" x="187.5" y="-191.2" font-family="Helvetica,sans-Serif" font-size="11.00" fill="#000000">image_to_image_map_id</text>
<polygon fill="#ffffff" stroke="transparent" points="167.5,-161 167.5,-183 350.5,-183 350.5,-161 167.5,-161"/>
<polygon fill="none" stroke="#000000" points="167.5,-161 167.5,-183 350.5,-183 350.5,-161 167.5,-161"/>
<image xlink:href="../../images/foreignKeys.png" width="11px" height="12px" preserveAspectRatio="xMinYMin meet" x="172.5" y="-178"/>
<text text-anchor="start" x="187.5" y="-169.2" font-family="Helvetica,sans-Serif" font-size="11.00" fill="#000000">image1_id</text>
<polygon fill="#ffffff" stroke="transparent" points="167.5,-139 167.5,-161 350.5,-161 350.5,-139 167.5,-139"/>
<polygon fill="none" stroke="#000000" points="167.5,-139 167.5,-161 350.5,-161 350.5,-139 167.5,-139"/>
<image xlink:href="../../images/foreignKeys.png" width="11px" height="12px" preserveAspectRatio="xMinYMin meet" x="172.5" y="-156"/>
<text text-anchor="start" x="187.5" y="-147.2" font-family="Helvetica,sans-Serif" font-size="11.00" fill="#000000">image2_id</text>
<polygon fill="#ffffff" stroke="transparent" points="167.5,-117 167.5,-139 350.5,-139 350.5,-117 167.5,-117"/>
<polygon fill="none" stroke="#000000" points="167.5,-117 167.5,-139 350.5,-139 350.5,-117 167.5,-117"/>
<text text-anchor="start" x="187.5" y="-125.2" font-family="Helvetica,sans-Serif" font-size="11.00" fill="#000000">transform_matrix</text>
<polygon fill="#ffffff" stroke="transparent" points="167.5,-95 167.5,-117 350.5,-117 350.5,-95 167.5,-95"/>
<polygon fill="none" stroke="#000000" points="167.5,-95 167.5,-117 350.5,-117 350.5,-95 167.5,-95"/>
<text text-anchor="start" x="187.5" y="-103.2" font-family="Helvetica,sans-Serif" font-size="11.00" fill="#000000">region1_hash</text>
<polygon fill="#ffffff" stroke="transparent" points="167.5,-73 167.5,-95 350.5,-95 350.5,-73 167.5,-73"/>
<polygon fill="none" stroke="#000000" points="167.5,-73 167.5,-95 350.5,-95 350.5,-73 167.5,-73"/>
<text text-anchor="start" x="187.5" y="-81.2" font-family="Helvetica,sans-Serif" font-size="11.00" fill="#000000">region2_hash</text>
<polygon fill="none" stroke="#000000" points="167.5,-55 167.5,-73 350.5,-73 350.5,-55 167.5,-55"/>
<text text-anchor="start" x="170.5" y="-61.2" font-family="Helvetica,sans-Serif" font-size="11.00" fill="#000000">...</text>
<polygon fill="#ffffff" stroke="transparent" points="167.5,-37 167.5,-55 225.5,-55 225.5,-37 167.5,-37"/>
<polygon fill="none" stroke="#000000" points="167.5,-37 167.5,-55 225.5,-55 225.5,-37 167.5,-37"/>
<text text-anchor="start" x="170.5" y="-43.2" font-family="Helvetica,sans-Serif" font-size="11.00" fill="#000000">&lt; 2</text>
<polygon fill="#ffffff" stroke="transparent" points="225.5,-37 225.5,-55 309.5,-55 309.5,-37 225.5,-37"/>
<polygon fill="none" stroke="#000000" points="225.5,-37 225.5,-55 309.5,-55 309.5,-37 225.5,-37"/>
<text text-anchor="start" x="246.5" y="-43.2" font-family="Helvetica,sans-Serif" font-size="11.00" fill="#000000">69,272 rows</text>
<polygon fill="#ffffff" stroke="transparent" points="309.5,-37 309.5,-55 350.5,-55 350.5,-37 309.5,-37"/>
<polygon fill="none" stroke="#000000" points="309.5,-37 309.5,-55 350.5,-55 350.5,-37 309.5,-37"/>
<text text-anchor="start" x="331.5" y="-43.2" font-family="Helvetica,sans-Serif" font-size="11.00" fill="#000000">2 &gt;</text>
</a>
</g>
</g>
<!-- SQE_image -->
<g id="node2" class="node">
<title>SQE_image</title>
<g id="a_node2"><a xlink:href="../../tables/SQE_image.html" xlink:title="SQE_image" target="_top">
<polygon fill="#ffffff" stroke="transparent" points="8,-134 8,-192 118,-192 118,-134 8,-134"/>
<polygon fill="#f5f5f5" stroke="transparent" points="8,-170 8,-192 118,-192 118,-170 8,-170"/>
<polygon fill="none" stroke="#000000" points="8,-170 8,-192 118,-192 118,-170 8,-170"/>
<text text-anchor="start" x="13" y="-179.2" font-family="Helvetica,sans-Serif" font-weight="bold" font-size="11.00" fill="#000000">SQE_image</text>
<text text-anchor="start" x="83" y="-178.2" font-family="Helvetica,sans-Serif" font-size="11.00" fill="#000000">[table]</text>
<polygon fill="none" stroke="#000000" points="8,-152 8,-170 118,-170 118,-152 8,-152"/>
<text text-anchor="start" x="11" y="-158.2" font-family="Helvetica,sans-Serif" font-size="11.00" fill="#000000">...</text>
<polygon fill="#ffffff" stroke="transparent" points="8,-134 8,-152 30,-152 30,-134 8,-134"/>
<polygon fill="none" stroke="#000000" points="8,-134 8,-152 30,-152 30,-134 8,-134"/>
<text text-anchor="start" x="11" y="-140.2" font-family="Helvetica,sans-Serif" font-size="11.00" fill="#000000">&lt; 2</text>
<polygon fill="#ffffff" stroke="transparent" points="30,-134 30,-152 96,-152 96,-134 30,-134"/>
<polygon fill="none" stroke="#000000" points="30,-134 30,-152 96,-152 96,-134 30,-134"/>
<text text-anchor="start" x="33" y="-140.2" font-family="Helvetica,sans-Serif" font-size="11.00" fill="#000000">97,684 rows</text>
<polygon fill="#ffffff" stroke="transparent" points="96,-134 96,-152 118,-152 118,-134 96,-134"/>
<polygon fill="none" stroke="#000000" points="96,-134 96,-152 118,-152 118,-134 96,-134"/>
<text text-anchor="start" x="99" y="-140.2" font-family="Helvetica,sans-Serif" font-size="11.00" fill="#000000">4 &gt;</text>
</a>
</g>
</g>
<!-- image_to_image_map&#45;&gt;SQE_image -->
<g id="edge1" class="edge">
<title>image_to_image_map:w&#45;&gt;SQE_image:e</title>
<path fill="none" stroke="#000000" d="M153.0598,-170.1836C141.4771,-167.0593 134.7264,-161 118,-161"/>
<polygon fill="#000000" stroke="#000000" points="159.5626,-171.0015 167.0507,-175.5719 163.5313,-171.5008 167.5,-172 167.5,-172 167.5,-172 163.5313,-171.5008 167.9493,-168.4281 159.5626,-171.0015 159.5626,-171.0015"/>
<ellipse fill="none" stroke="#000000" cx="156.3876" cy="-170.6021" rx="3.2" ry="3.2"/>
</g>
<!-- image_to_image_map&#45;&gt;SQE_image -->
<g id="edge2" class="edge">
<title>image_to_image_map:w&#45;&gt;SQE_image:e</title>
<path fill="none" stroke="#000000" d="M153.0598,-151.8164C141.4771,-154.9407 134.7264,-161 118,-161"/>
<polygon fill="#000000" stroke="#000000" points="159.5626,-150.9985 167.9493,-153.5719 163.5313,-150.4992 167.5,-150 167.5,-150 167.5,-150 163.5313,-150.4992 167.0507,-146.4281 159.5626,-150.9985 159.5626,-150.9985"/>
<ellipse fill="none" stroke="#000000" cx="156.3876" cy="-151.3979" rx="3.2" ry="3.2"/>
</g>
<!-- image_to_image_map_author -->
<g id="node3" class="node">
<title>image_to_image_map_author</title>
<g id="a_node3"><a xlink:href="../../tables/image_to_image_map_author.html" xlink:title="image_to_image_map_author" target="_top">
<polygon fill="#ffffff" stroke="transparent" points="434,-219 434,-277 633,-277 633,-219 434,-219"/>
<polygon fill="#f5f5f5" stroke="transparent" points="434.5,-255 434.5,-277 633.5,-277 633.5,-255 434.5,-255"/>
<polygon fill="none" stroke="#000000" points="434.5,-255 434.5,-277 633.5,-277 633.5,-255 434.5,-255"/>
<text text-anchor="start" x="439.5" y="-264.2" font-family="Helvetica,sans-Serif" font-weight="bold" font-size="11.00" fill="#000000">image_to_image_map_author</text>
<text text-anchor="start" x="598.5" y="-263.2" font-family="Helvetica,sans-Serif" font-size="11.00" fill="#000000">[table]</text>
<polygon fill="none" stroke="#000000" points="434.5,-237 434.5,-255 633.5,-255 633.5,-237 434.5,-237"/>
<text text-anchor="start" x="437.5" y="-243.2" font-family="Helvetica,sans-Serif" font-size="11.00" fill="#000000">...</text>
<polygon fill="#ffffff" stroke="transparent" points="434.5,-219 434.5,-237 505.5,-237 505.5,-219 434.5,-219"/>
<polygon fill="none" stroke="#000000" points="434.5,-219 434.5,-237 505.5,-237 505.5,-219 434.5,-219"/>
<text text-anchor="start" x="437.5" y="-225.2" font-family="Helvetica,sans-Serif" font-size="11.00" fill="#000000">&lt; 2</text>
<polygon fill="#ffffff" stroke="transparent" points="505.5,-219 505.5,-237 595.5,-237 595.5,-219 505.5,-219"/>
<polygon fill="none" stroke="#000000" points="505.5,-219 505.5,-237 595.5,-237 595.5,-219 505.5,-219"/>
<text text-anchor="start" x="532.5" y="-225.2" font-family="Helvetica,sans-Serif" font-size="11.00" fill="#000000">72,198 rows</text>
<polygon fill="#ffffff" stroke="transparent" points="595.5,-219 595.5,-237 633.5,-237 633.5,-219 595.5,-219"/>
<polygon fill="none" stroke="#000000" points="595.5,-219 595.5,-237 633.5,-237 633.5,-219 595.5,-219"/>
<text text-anchor="start" x="623.5" y="-225.2" font-family="Helvetica,sans-Serif" font-size="11.00" fill="#000000"> &#160;</text>
</a>
</g>
</g>
<!-- image_to_image_map_author&#45;&gt;image_to_image_map -->
<g id="edge3" class="edge">
<title>image_to_image_map_author:w&#45;&gt;image_to_image_map:e</title>
<path fill="none" stroke="#000000" d="M420.0852,-243.7656C390.8004,-233.8125 388.9194,-194 350.5,-194"/>
<polygon fill="#000000" stroke="#000000" points="426.5944,-244.7745 433.9485,-249.5575 430.5472,-245.3873 434.5,-246 434.5,-246 434.5,-246 430.5472,-245.3873 435.0515,-242.4425 426.5944,-244.7745 426.5944,-244.7745"/>
<ellipse fill="none" stroke="#000000" cx="423.4322" cy="-244.2844" rx="3.2" ry="3.2"/>
</g>
<!-- point_to_point_map -->
<g id="node4" class="node">
<title>point_to_point_map</title>
<g id="a_node4"><a xlink:href="../../tables/point_to_point_map.html" xlink:title="point_to_point_map" target="_top">
<polygon fill="#ffffff" stroke="transparent" points="399,-66 399,-198 668,-198 668,-66 399,-66"/>
<polygon fill="#f5f5f5" stroke="transparent" points="401.5,-174 401.5,-196 666.5,-196 666.5,-174 401.5,-174"/>
<polygon fill="none" stroke="#000000" points="401.5,-174 401.5,-196 666.5,-196 666.5,-174 401.5,-174"/>
<text text-anchor="start" x="406.5" y="-183.2" font-family="Helvetica,sans-Serif" font-weight="bold" font-size="11.00" fill="#000000">point_to_point_map</text>
<text text-anchor="start" x="631.5" y="-182.2" font-family="Helvetica,sans-Serif" font-size="11.00" fill="#000000">[table]</text>
<polygon fill="none" stroke="#000000" points="401.5,-152 401.5,-174 584.5,-174 584.5,-152 401.5,-152"/>
<image xlink:href="../../images/primaryKeys.png" width="11px" height="12px" preserveAspectRatio="xMinYMin meet" x="406.5" y="-169"/>
<text text-anchor="start" x="421.5" y="-160.2" font-family="Helvetica,sans-Serif" font-size="11.00" fill="#000000">point_to_point_map_id</text>
<polygon fill="none" stroke="#000000" points="584.5,-152 584.5,-174 666.5,-174 666.5,-152 584.5,-152"/>
<text text-anchor="start" x="587.5" y="-160.2" font-family="Helvetica,sans-Serif" font-size="11.00" fill="#000000">int unsigned[10]</text>
<polygon fill="#ffffff" stroke="transparent" points="401.5,-130 401.5,-152 584.5,-152 584.5,-130 401.5,-130"/>
<polygon fill="none" stroke="#000000" points="401.5,-130 401.5,-152 584.5,-152 584.5,-130 401.5,-130"/>
<image xlink:href="../../images/foreignKeys.png" width="11px" height="12px" preserveAspectRatio="xMinYMin meet" x="406.5" y="-147"/>
<text text-anchor="start" x="421.5" y="-138.2" font-family="Helvetica,sans-Serif" font-size="11.00" fill="#000000">image_to_image_map_id</text>
<polygon fill="none" stroke="#000000" points="584.5,-130 584.5,-152 666.5,-152 666.5,-130 584.5,-130"/>
<text text-anchor="start" x="587.5" y="-138.2" font-family="Helvetica,sans-Serif" font-size="11.00" fill="#000000">int unsigned[10]</text>
<polygon fill="none" stroke="#000000" points="401.5,-108 401.5,-130 584.5,-130 584.5,-108 401.5,-108"/>
<text text-anchor="start" x="421.5" y="-116.2" font-family="Helvetica,sans-Serif" font-size="11.00" fill="#000000">point_on_image1</text>
<polygon fill="none" stroke="#000000" points="584.5,-108 584.5,-130 666.5,-130 666.5,-108 584.5,-108"/>
<text text-anchor="start" x="587.5" y="-116.2" font-family="Helvetica,sans-Serif" font-size="11.00" fill="#000000">multipoint[0]</text>
<polygon fill="none" stroke="#000000" points="401.5,-86 401.5,-108 584.5,-108 584.5,-86 401.5,-86"/>
<text text-anchor="start" x="421.5" y="-94.2" font-family="Helvetica,sans-Serif" font-size="11.00" fill="#000000">point_on_image2</text>
<polygon fill="none" stroke="#000000" points="584.5,-86 584.5,-108 666.5,-108 666.5,-86 584.5,-86"/>
<text text-anchor="start" x="587.5" y="-94.2" font-family="Helvetica,sans-Serif" font-size="11.00" fill="#000000">multipoint[0]</text>
<polygon fill="#ffffff" stroke="transparent" points="401.5,-68 401.5,-86 484.5,-86 484.5,-68 401.5,-68"/>
<polygon fill="none" stroke="#000000" points="401.5,-68 401.5,-86 484.5,-86 484.5,-68 401.5,-68"/>
<text text-anchor="start" x="404.5" y="-74.2" font-family="Helvetica,sans-Serif" font-size="11.00" fill="#000000">&lt; 1</text>
<polygon fill="#ffffff" stroke="transparent" points="484.5,-68 484.5,-86 584.5,-86 584.5,-68 484.5,-68"/>
<polygon fill="none" stroke="#000000" points="484.5,-68 484.5,-86 584.5,-86 584.5,-68 484.5,-68"/>
<text text-anchor="start" x="548.5" y="-74.2" font-family="Helvetica,sans-Serif" font-size="11.00" fill="#000000">0 rows</text>
<polygon fill="#ffffff" stroke="transparent" points="584.5,-68 584.5,-86 666.5,-86 666.5,-68 584.5,-68"/>
<polygon fill="none" stroke="#000000" points="584.5,-68 584.5,-86 666.5,-86 666.5,-68 584.5,-68"/>
<text text-anchor="start" x="647.5" y="-74.2" font-family="Helvetica,sans-Serif" font-size="11.00" fill="#000000">0 &gt;</text>
<polygon fill="none" stroke="#000000" stroke-width="2" points="400,-67 400,-197 667,-197 667,-67 400,-67"/>
</a>
</g>
</g>
<!-- point_to_point_map&#45;&gt;image_to_image_map -->
<g id="edge4" class="edge">
<title>point_to_point_map:w&#45;&gt;image_to_image_map:e</title>
<path fill="none" stroke="#000000" d="M387.4557,-145.8911C372.5477,-159.0117 377.0607,-194 350.5,-194"/>
<polygon fill="#000000" stroke="#000000" points="393.945,-143.6311 402.684,-144.3997 397.7225,-142.3156 401.5,-141 401.5,-141 401.5,-141 397.7225,-142.3156 400.316,-137.6003 393.945,-143.6311 393.945,-143.6311"/>
<ellipse fill="none" stroke="#000000" cx="390.9231" cy="-144.6836" rx="3.2" ry="3.2"/>
</g>
</g>
</svg>
