<?xml version="1.0" encoding="UTF-8" standalone="no"?>
<!DOCTYPE svg PUBLIC "-//W3C//DTD SVG 1.1//EN"
 "http://www.w3.org/Graphics/SVG/1.1/DTD/svg11.dtd">
<!-- Generated by graphviz version 2.43.0 (0)
 -->
<!-- Title: twoDegreesRelationshipsDiagram Pages: 1 -->
<svg width="1033pt" height="600pt"
 viewBox="0.00 0.00 1033.00 600.00" xmlns="http://www.w3.org/2000/svg" xmlns:xlink="http://www.w3.org/1999/xlink">
<g id="graph0" class="graph" transform="scale(1 1) rotate(0) translate(4 596)">
<title>twoDegreesRelationshipsDiagram</title>
<polygon fill="#ffffff" stroke="transparent" points="-4,4 -4,-596 1029,-596 1029,4 -4,4"/>
<text text-anchor="middle" x="79.5" y="-7.2" font-family="Helvetica,sans-Serif" font-size="11.00">Generated by SchemaSpy</text>
<!-- edition_editor -->
<g id="node1" class="node">
<title>edition_editor</title>
<g id="a_node1"><a xlink:href="../../tables/edition_editor.html" xlink:title="edition_editor" target="_top">
<polygon fill="#ffffff" stroke="transparent" points="491,-484 491,-542 627,-542 627,-484 491,-484"/>
<polygon fill="#f5f5f5" stroke="transparent" points="491,-520 491,-542 627,-542 627,-520 491,-520"/>
<polygon fill="none" stroke="black" points="491,-520 491,-542 627,-542 627,-520 491,-520"/>
<text text-anchor="start" x="496" y="-529.2" font-family="Helvetica,sans-Serif" font-weight="bold" font-size="11.00">edition_editor</text>
<text text-anchor="start" x="585" y="-528.2" font-family="Helvetica,sans-Serif" font-size="11.00">[table]</text>
<polygon fill="none" stroke="black" points="491,-502 491,-520 627,-520 627,-502 491,-502"/>
<text text-anchor="start" x="494" y="-508.2" font-family="Helvetica,sans-Serif" font-size="11.00">...</text>
<polygon fill="#ffffff" stroke="transparent" points="491,-484 491,-502 522,-502 522,-484 491,-484"/>
<polygon fill="none" stroke="black" points="491,-484 491,-502 522,-502 522,-484 491,-484"/>
<text text-anchor="start" x="494" y="-490.2" font-family="Helvetica,sans-Serif" font-size="11.00">&lt; 2</text>
<polygon fill="#ffffff" stroke="transparent" points="522,-484 522,-502 591,-502 591,-484 522,-484"/>
<polygon fill="none" stroke="black" points="522,-484 522,-502 591,-502 591,-484 522,-484"/>
<text text-anchor="start" x="527" y="-490.2" font-family="Helvetica,sans-Serif" font-size="11.00">1,645 rows</text>
<polygon fill="#ffffff" stroke="transparent" points="591,-484 591,-502 627,-502 627,-484 591,-484"/>
<polygon fill="none" stroke="black" points="591,-484 591,-502 627,-502 627,-484 591,-484"/>
<text text-anchor="start" x="597" y="-490.2" font-family="Helvetica,sans-Serif" font-size="11.00">33 &gt;</text>
</a>
</g>
</g>
<!-- edition -->
<g id="node2" class="node">
<title>edition</title>
<g id="a_node2"><a xlink:href="../../tables/edition.html" xlink:title="edition" target="_top">
<polygon fill="#ffffff" stroke="transparent" points="209.5,-511 209.5,-569 335.5,-569 335.5,-511 209.5,-511"/>
<polygon fill="#f5f5f5" stroke="transparent" points="209.5,-547 209.5,-569 335.5,-569 335.5,-547 209.5,-547"/>
<polygon fill="none" stroke="black" points="209.5,-547 209.5,-569 335.5,-569 335.5,-547 209.5,-547"/>
<text text-anchor="start" x="214.5" y="-556.2" font-family="Helvetica,sans-Serif" font-weight="bold" font-size="11.00">edition</text>
<text text-anchor="start" x="293.5" y="-555.2" font-family="Helvetica,sans-Serif" font-size="11.00">[table]</text>
<polygon fill="none" stroke="black" points="209.5,-529 209.5,-547 335.5,-547 335.5,-529 209.5,-529"/>
<text text-anchor="start" x="212.5" y="-535.2" font-family="Helvetica,sans-Serif" font-size="11.00">...</text>
<polygon fill="#ffffff" stroke="transparent" points="209.5,-511 209.5,-529 235.5,-529 235.5,-511 209.5,-511"/>
<polygon fill="none" stroke="black" points="209.5,-511 209.5,-529 235.5,-529 235.5,-511 209.5,-511"/>
<text text-anchor="start" x="212.5" y="-517.2" font-family="Helvetica,sans-Serif" font-size="11.00">&lt; 1</text>
<polygon fill="#ffffff" stroke="transparent" points="235.5,-511 235.5,-529 302.5,-529 302.5,-511 235.5,-511"/>
<polygon fill="none" stroke="black" points="235.5,-511 235.5,-529 302.5,-529 302.5,-511 235.5,-511"/>
<text text-anchor="start" x="238.5" y="-517.2" font-family="Helvetica,sans-Serif" font-size="11.00">1,645 rows</text>
<polygon fill="#ffffff" stroke="transparent" points="302.5,-511 302.5,-529 335.5,-529 335.5,-511 302.5,-511"/>
<polygon fill="none" stroke="black" points="302.5,-511 302.5,-529 335.5,-529 335.5,-511 302.5,-511"/>
<text text-anchor="start" x="305.5" y="-517.2" font-family="Helvetica,sans-Serif" font-size="11.00">35 &gt;</text>
</a>
</g>
</g>
<!-- edition_editor&#45;&gt;edition -->
<g id="edge1" class="edge">
<title>edition_editor:w&#45;&gt;edition:e</title>
<path fill="none" stroke="black" d="M475.43,-511.42C418.21,-514.86 400.63,-538 336.5,-538"/>
<polygon fill="black" stroke="black" points="482,-511.23 490.1,-514.6 486,-511.12 490,-511 490,-511 490,-511 486,-511.12 489.9,-507.4 482,-511.23 482,-511.23"/>
<ellipse fill="none" stroke="black" cx="478.8" cy="-511.33" rx="3.2" ry="3.2"/>
</g>
<!-- position_in_stream -->
<g id="node3" class="node">
<title>position_in_stream</title>
<g id="a_node3"><a xlink:href="../../tables/position_in_stream.html" xlink:title="position_in_stream" target="_top">
<polygon fill="#ffffff" stroke="transparent" points="406,-274 406,-384 712,-384 712,-274 406,-274"/>
<polygon fill="#f5f5f5" stroke="transparent" points="408,-360 408,-382 710,-382 710,-360 408,-360"/>
<polygon fill="none" stroke="black" points="408,-360 408,-382 710,-382 710,-360 408,-360"/>
<text text-anchor="start" x="413" y="-369.2" font-family="Helvetica,sans-Serif" font-weight="bold" font-size="11.00">position_in_stream</text>
<text text-anchor="start" x="668" y="-368.2" font-family="Helvetica,sans-Serif" font-size="11.00">[table]</text>
<polygon fill="none" stroke="black" points="408,-338 408,-360 613,-360 613,-338 408,-338"/>
<image xlink:href="../../images/primaryKeys.png" width="11px" height="12px" preserveAspectRatio="xMinYMin meet" x="413" y="-355"/>
<text text-anchor="start" x="428" y="-346.2" font-family="Helvetica,sans-Serif" font-size="11.00">position_in_stream_id</text>
<polygon fill="none" stroke="black" points="613,-338 613,-360 710,-360 710,-338 613,-338"/>
<text text-anchor="start" x="616" y="-346.2" font-family="Helvetica,sans-Serif" font-size="11.00">int unsigned[10]</text>
<polygon fill="#ffffff" stroke="transparent" points="408,-316 408,-338 613,-338 613,-316 408,-316"/>
<polygon fill="none" stroke="black" points="408,-316 408,-338 613,-338 613,-316 408,-316"/>
<image xlink:href="../../images/foreignKeys.png" width="11px" height="12px" preserveAspectRatio="xMinYMin meet" x="413" y="-333"/>
<text text-anchor="start" x="428" y="-324.2" font-family="Helvetica,sans-Serif" font-size="11.00">sign_interpretation_id</text>
<polygon fill="none" stroke="black" points="613,-316 613,-338 710,-338 710,-316 613,-316"/>
<text text-anchor="start" x="616" y="-324.2" font-family="Helvetica,sans-Serif" font-size="11.00">int unsigned[10]</text>
<polygon fill="#ffffff" stroke="transparent" points="408,-294 408,-316 613,-316 613,-294 408,-294"/>
<polygon fill="none" stroke="black" points="408,-294 408,-316 613,-316 613,-294 408,-294"/>
<image xlink:href="../../images/foreignKeys.png" width="11px" height="12px" preserveAspectRatio="xMinYMin meet" x="413" y="-311"/>
<text text-anchor="start" x="428" y="-302.2" font-family="Helvetica,sans-Serif" font-size="11.00">next_sign_interpretation_id</text>
<polygon fill="none" stroke="black" points="613,-294 613,-316 710,-316 710,-294 613,-294"/>
<text text-anchor="start" x="616" y="-302.2" font-family="Helvetica,sans-Serif" font-size="11.00">int unsigned[10]</text>
<polygon fill="#ffffff" stroke="transparent" points="408,-276 408,-294 478,-294 478,-276 408,-276"/>
<polygon fill="none" stroke="black" points="408,-276 408,-294 478,-294 478,-276 408,-276"/>
<text text-anchor="start" x="411" y="-282.2" font-family="Helvetica,sans-Serif" font-size="11.00">&lt; 2</text>
<polygon fill="#ffffff" stroke="transparent" points="478,-276 478,-294 613,-294 613,-276 478,-276"/>
<polygon fill="none" stroke="black" points="478,-276 478,-294 613,-294 613,-276 478,-276"/>
<text text-anchor="start" x="525" y="-282.2" font-family="Helvetica,sans-Serif" font-size="11.00">1,719,776 rows</text>
<polygon fill="#ffffff" stroke="transparent" points="613,-276 613,-294 710,-294 710,-276 613,-276"/>
<polygon fill="none" stroke="black" points="613,-276 613,-294 710,-294 710,-276 613,-276"/>
<text text-anchor="start" x="687" y="-282.2" font-family="Helvetica,sans-Serif" font-size="11.00">2 &gt;</text>
<polygon fill="none" stroke="black" stroke-width="2" points="407,-275 407,-383 711,-383 711,-275 407,-275"/>
</a>
</g>
</g>
<!-- sign_interpretation -->
<g id="node4" class="node">
<title>sign_interpretation</title>
<g id="a_node4"><a xlink:href="../../tables/sign_interpretation.html" xlink:title="sign_interpretation" target="_top">
<polygon fill="#ffffff" stroke="transparent" points="188,-210 188,-338 357,-338 357,-210 188,-210"/>
<polygon fill="#f5f5f5" stroke="transparent" points="188.5,-316 188.5,-338 357.5,-338 357.5,-316 188.5,-316"/>
<polygon fill="none" stroke="black" points="188.5,-316 188.5,-338 357.5,-338 357.5,-316 188.5,-316"/>
<text text-anchor="start" x="193.5" y="-325.2" font-family="Helvetica,sans-Serif" font-weight="bold" font-size="11.00">sign_interpretation</text>
<text text-anchor="start" x="315.5" y="-324.2" font-family="Helvetica,sans-Serif" font-size="11.00">[table]</text>
<polygon fill="none" stroke="black" points="188.5,-294 188.5,-316 357.5,-316 357.5,-294 188.5,-294"/>
<image xlink:href="../../images/primaryKeys.png" width="11px" height="12px" preserveAspectRatio="xMinYMin meet" x="193.5" y="-311"/>
<text text-anchor="start" x="208.5" y="-302.2" font-family="Helvetica,sans-Serif" font-size="11.00">sign_interpretation_id</text>
<polygon fill="#ffffff" stroke="transparent" points="188.5,-272 188.5,-294 357.5,-294 357.5,-272 188.5,-272"/>
<polygon fill="none" stroke="black" points="188.5,-272 188.5,-294 357.5,-294 357.5,-272 188.5,-272"/>
<image xlink:href="../../images/foreignKeys.png" width="11px" height="12px" preserveAspectRatio="xMinYMin meet" x="193.5" y="-289"/>
<text text-anchor="start" x="208.5" y="-280.2" font-family="Helvetica,sans-Serif" font-size="11.00">sign_id</text>
<polygon fill="#ffffff" stroke="transparent" points="188.5,-250 188.5,-272 357.5,-272 357.5,-250 188.5,-250"/>
<polygon fill="none" stroke="black" points="188.5,-250 188.5,-272 357.5,-272 357.5,-250 188.5,-250"/>
<text text-anchor="start" x="208.5" y="-258.2" font-family="Helvetica,sans-Serif" font-size="11.00">is_variant</text>
<polygon fill="#ffffff" stroke="transparent" points="188.5,-228 188.5,-250 357.5,-250 357.5,-228 188.5,-228"/>
<polygon fill="none" stroke="black" points="188.5,-228 188.5,-250 357.5,-250 357.5,-228 188.5,-228"/>
<text text-anchor="start" x="208.5" y="-236.2" font-family="Helvetica,sans-Serif" font-size="11.00">character</text>
<polygon fill="#ffffff" stroke="transparent" points="188.5,-210 188.5,-228 227.5,-228 227.5,-210 188.5,-210"/>
<polygon fill="none" stroke="black" points="188.5,-210 188.5,-228 227.5,-228 227.5,-210 188.5,-210"/>
<text text-anchor="start" x="191.5" y="-216.2" font-family="Helvetica,sans-Serif" font-size="11.00">&lt; 1</text>
<polygon fill="#ffffff" stroke="transparent" points="227.5,-210 227.5,-228 324.5,-228 324.5,-210 227.5,-210"/>
<polygon fill="none" stroke="black" points="227.5,-210 227.5,-228 324.5,-228 324.5,-210 227.5,-210"/>
<text text-anchor="start" x="236.5" y="-216.2" font-family="Helvetica,sans-Serif" font-size="11.00">1,189,027 rows</text>
<polygon fill="#ffffff" stroke="transparent" points="324.5,-210 324.5,-228 357.5,-228 357.5,-210 324.5,-210"/>
<polygon fill="none" stroke="black" points="324.5,-210 324.5,-228 357.5,-228 357.5,-210 324.5,-210"/>
<text text-anchor="start" x="334.5" y="-216.2" font-family="Helvetica,sans-Serif" font-size="11.00">5 &gt;</text>
</a>
</g>
</g>
<!-- position_in_stream&#45;&gt;sign_interpretation -->
<g id="edge2" class="edge">
<title>position_in_stream:w&#45;&gt;sign_interpretation:e</title>
<path fill="none" stroke="black" d="M392.28,-305C381.29,-305 374.16,-305 358.5,-305"/>
<polygon fill="black" stroke="black" points="399,-305 407,-308.6 403,-305 407,-305 407,-305 407,-305 403,-305 407,-301.4 399,-305 399,-305"/>
<ellipse fill="none" stroke="black" cx="395.8" cy="-305" rx="3.2" ry="3.2"/>
</g>
<!-- position_in_stream&#45;&gt;sign_interpretation -->
<g id="edge3" class="edge">
<title>position_in_stream:w&#45;&gt;sign_interpretation:e</title>
<path fill="none" stroke="black" d="M392.76,-323.56C381.34,-317.38 376.25,-305 358.5,-305"/>
<polygon fill="black" stroke="black" points="399.22,-325.12 406.15,-330.5 403.11,-326.06 407,-327 407,-327 407,-327 403.11,-326.06 407.85,-323.5 399.22,-325.12 399.22,-325.12"/>
<ellipse fill="none" stroke="black" cx="396.11" cy="-324.37" rx="3.2" ry="3.2"/>
</g>
<!-- sign -->
<g id="node8" class="node">
<title>sign</title>
<g id="a_node8"><a xlink:href="../../tables/sign.html" xlink:title="sign" target="_top">
<polygon fill="#ffffff" stroke="transparent" points="8,-256 8,-314 139,-314 139,-256 8,-256"/>
<polygon fill="#f5f5f5" stroke="transparent" points="8.5,-292 8.5,-314 139.5,-314 139.5,-292 8.5,-292"/>
<polygon fill="none" stroke="black" points="8.5,-292 8.5,-314 139.5,-314 139.5,-292 8.5,-292"/>
<text text-anchor="start" x="13.5" y="-301.2" font-family="Helvetica,sans-Serif" font-weight="bold" font-size="11.00">sign</text>
<text text-anchor="start" x="97.5" y="-300.2" font-family="Helvetica,sans-Serif" font-size="11.00">[table]</text>
<polygon fill="none" stroke="black" points="8.5,-274 8.5,-292 139.5,-292 139.5,-274 8.5,-274"/>
<text text-anchor="start" x="11.5" y="-280.2" font-family="Helvetica,sans-Serif" font-size="11.00">...</text>
<polygon fill="#ffffff" stroke="transparent" points="8.5,-256 8.5,-274 22.5,-274 22.5,-256 8.5,-256"/>
<polygon fill="none" stroke="black" points="8.5,-256 8.5,-274 22.5,-274 22.5,-256 8.5,-256"/>
<text text-anchor="start" x="11.5" y="-262.2" font-family="Helvetica,sans-Serif" font-size="11.00"> &#160;</text>
<polygon fill="#ffffff" stroke="transparent" points="22.5,-256 22.5,-274 113.5,-274 113.5,-256 22.5,-256"/>
<polygon fill="none" stroke="black" points="22.5,-256 22.5,-274 113.5,-274 113.5,-256 22.5,-256"/>
<text text-anchor="start" x="25.5" y="-262.2" font-family="Helvetica,sans-Serif" font-size="11.00">1,732,050 rows</text>
<polygon fill="#ffffff" stroke="transparent" points="113.5,-256 113.5,-274 139.5,-274 139.5,-256 113.5,-256"/>
<polygon fill="none" stroke="black" points="113.5,-256 113.5,-274 139.5,-274 139.5,-256 113.5,-256"/>
<text text-anchor="start" x="116.5" y="-262.2" font-family="Helvetica,sans-Serif" font-size="11.00">2 &gt;</text>
</a>
</g>
</g>
<!-- sign_interpretation&#45;&gt;sign -->
<g id="edge9" class="edge">
<title>sign_interpretation:w&#45;&gt;sign:e</title>
<path fill="none" stroke="black" d="M172.9,-283C162.43,-283 155.51,-283 140.5,-283"/>
<polygon fill="black" stroke="black" points="179.5,-283 187.5,-286.6 183.5,-283 187.5,-283 187.5,-283 187.5,-283 183.5,-283 187.5,-279.4 179.5,-283 179.5,-283"/>
<ellipse fill="none" stroke="black" cx="176.3" cy="-283" rx="3.2" ry="3.2"/>
</g>
<!-- position_in_stream_owner -->
<g id="node5" class="node">
<title>position_in_stream_owner</title>
<g id="a_node5"><a xlink:href="../../tables/position_in_stream_owner.html" xlink:title="position_in_stream_owner" target="_top">
<polygon fill="#ffffff" stroke="transparent" points="784,-464 784,-588 994,-588 994,-464 784,-464"/>
<polygon fill="#f5f5f5" stroke="transparent" points="784,-566 784,-588 994,-588 994,-566 784,-566"/>
<polygon fill="none" stroke="black" points="784,-566 784,-588 994,-588 994,-566 784,-566"/>
<text text-anchor="start" x="789" y="-575.2" font-family="Helvetica,sans-Serif" font-weight="bold" font-size="11.00">position_in_stream_owner</text>
<text text-anchor="start" x="952" y="-574.2" font-family="Helvetica,sans-Serif" font-size="11.00">[table]</text>
<polygon fill="none" stroke="black" points="784,-544 784,-566 994,-566 994,-544 784,-544"/>
<image xlink:href="../../images/primaryKeys.png" width="11px" height="12px" preserveAspectRatio="xMinYMin meet" x="789" y="-561"/>
<text text-anchor="start" x="812" y="-552.2" font-family="Helvetica,sans-Serif" font-size="11.00">position_in_stream_id</text>
<polygon fill="none" stroke="black" points="784,-522 784,-544 994,-544 994,-522 784,-522"/>
<image xlink:href="../../images/primaryKeys.png" width="11px" height="12px" preserveAspectRatio="xMinYMin meet" x="789" y="-539"/>
<text text-anchor="start" x="812" y="-530.2" font-family="Helvetica,sans-Serif" font-size="11.00">edition_id</text>
<polygon fill="#ffffff" stroke="transparent" points="784,-500 784,-522 994,-522 994,-500 784,-500"/>
<polygon fill="none" stroke="black" points="784,-500 784,-522 994,-522 994,-500 784,-500"/>
<image xlink:href="../../images/foreignKeys.png" width="11px" height="12px" preserveAspectRatio="xMinYMin meet" x="789" y="-517"/>
<text text-anchor="start" x="812" y="-508.2" font-family="Helvetica,sans-Serif" font-size="11.00">edition_editor_id</text>
<polygon fill="none" stroke="black" points="784,-482 784,-500 994,-500 994,-482 784,-482"/>
<text text-anchor="start" x="787" y="-488.2" font-family="Helvetica,sans-Serif" font-size="11.00">...</text>
<polygon fill="#ffffff" stroke="transparent" points="784,-464 784,-482 849,-482 849,-464 784,-464"/>
<polygon fill="none" stroke="black" points="784,-464 784,-482 849,-482 849,-464 784,-464"/>
<text text-anchor="start" x="787" y="-470.2" font-family="Helvetica,sans-Serif" font-size="11.00">&lt; 3</text>
<polygon fill="#ffffff" stroke="transparent" points="849,-464 849,-482 960,-482 960,-464 849,-464"/>
<polygon fill="none" stroke="black" points="849,-464 849,-482 960,-482 960,-464 849,-464"/>
<text text-anchor="start" x="872" y="-470.2" font-family="Helvetica,sans-Serif" font-size="11.00">1,719,776 rows</text>
<polygon fill="#ffffff" stroke="transparent" points="960,-464 960,-482 994,-482 994,-464 960,-464"/>
<polygon fill="none" stroke="black" points="960,-464 960,-482 994,-482 994,-464 960,-464"/>
<text text-anchor="start" x="983" y="-470.2" font-family="Helvetica,sans-Serif" font-size="11.00"> &#160;</text>
</a>
</g>
</g>
<!-- position_in_stream_owner&#45;&gt;edition_editor -->
<g id="edge4" class="edge">
<title>position_in_stream_owner:w&#45;&gt;edition_editor:e</title>
<path fill="none" stroke="black" d="M768.47,-511C711.27,-511 691.78,-511 628,-511"/>
<polygon fill="black" stroke="black" points="775,-511 783,-514.6 779,-511 783,-511 783,-511 783,-511 779,-511 783,-507.4 775,-511 775,-511"/>
<ellipse fill="none" stroke="black" cx="771.8" cy="-511" rx="3.2" ry="3.2"/>
</g>
<!-- position_in_stream_owner&#45;&gt;edition -->
<g id="edge5" class="edge">
<title>position_in_stream_owner:w&#45;&gt;edition:e</title>
<path fill="none" stroke="black" d="M768.51,-534.52C750.97,-538.53 743.47,-549.36 720,-553 578.58,-574.91 540.09,-570.08 398,-553 370.07,-549.64 364.63,-538 336.5,-538"/>
<polygon fill="black" stroke="black" points="775.04,-533.83 783.38,-536.58 779.02,-533.42 783,-533 783,-533 783,-533 779.02,-533.42 782.62,-529.42 775.04,-533.83 775.04,-533.83"/>
<ellipse fill="none" stroke="black" cx="771.86" cy="-534.17" rx="3.2" ry="3.2"/>
</g>
<!-- position_in_stream_owner&#45;&gt;position_in_stream -->
<g id="edge6" class="edge">
<title>position_in_stream_owner:w&#45;&gt;position_in_stream:e</title>
<path fill="none" stroke="black" d="M768.55,-553.09C699.13,-532.32 802.49,-349 711,-349"/>
<polygon fill="black" stroke="black" points="775.07,-553.95 782.53,-558.57 779.03,-554.48 783,-555 783,-555 783,-555 779.03,-554.48 783.47,-551.43 775.07,-553.95 775.07,-553.95"/>
<ellipse fill="none" stroke="black" cx="771.9" cy="-553.53" rx="3.2" ry="3.2"/>
</g>
<!-- position_in_stream_to_section_rel -->
<g id="node6" class="node">
<title>position_in_stream_to_section_rel</title>
<g id="a_node6"><a xlink:href="../../tables/position_in_stream_to_section_rel.html" xlink:title="position_in_stream_to_section_rel" target="_top">
<polygon fill="#ffffff" stroke="transparent" points="761,-167 761,-251 1017,-251 1017,-167 761,-167"/>
<polygon fill="#f5f5f5" stroke="transparent" points="761,-229 761,-251 1017,-251 1017,-229 761,-229"/>
<polygon fill="none" stroke="black" points="761,-229 761,-251 1017,-251 1017,-229 761,-229"/>
<text text-anchor="start" x="766" y="-238.2" font-family="Helvetica,sans-Serif" font-weight="bold" font-size="11.00">position_in_stream_to_section_rel</text>
<text text-anchor="start" x="975" y="-237.2" font-family="Helvetica,sans-Serif" font-size="11.00">[table]</text>
<polygon fill="none" stroke="black" points="761,-207 761,-229 1017,-229 1017,-207 761,-207"/>
<image xlink:href="../../images/primaryKeys.png" width="11px" height="12px" preserveAspectRatio="xMinYMin meet" x="766" y="-224"/>
<text text-anchor="start" x="786" y="-215.2" font-family="Helvetica,sans-Serif" font-size="11.00">position_in_stream_id</text>
<polygon fill="none" stroke="black" points="761,-185 761,-207 1017,-207 1017,-185 761,-185"/>
<image xlink:href="../../images/primaryKeys.png" width="11px" height="12px" preserveAspectRatio="xMinYMin meet" x="766" y="-202"/>
<text text-anchor="start" x="786" y="-193.2" font-family="Helvetica,sans-Serif" font-size="11.00">sign_stream_section_id</text>
<polygon fill="#ffffff" stroke="transparent" points="761,-167 761,-185 849,-185 849,-167 761,-167"/>
<polygon fill="none" stroke="black" points="761,-167 761,-185 849,-185 849,-167 761,-167"/>
<text text-anchor="start" x="764" y="-173.2" font-family="Helvetica,sans-Serif" font-size="11.00">&lt; 2</text>
<polygon fill="#ffffff" stroke="transparent" points="849,-167 849,-185 971,-185 971,-167 849,-167"/>
<polygon fill="none" stroke="black" points="849,-167 849,-185 971,-185 971,-167 849,-167"/>
<text text-anchor="start" x="883" y="-173.2" font-family="Helvetica,sans-Serif" font-size="11.00">1,238,253 rows</text>
<polygon fill="#ffffff" stroke="transparent" points="971,-167 971,-185 1017,-185 1017,-167 971,-167"/>
<polygon fill="none" stroke="black" points="971,-167 971,-185 1017,-185 1017,-167 971,-167"/>
<text text-anchor="start" x="1006" y="-173.2" font-family="Helvetica,sans-Serif" font-size="11.00"> &#160;</text>
</a>
</g>
</g>
<!-- position_in_stream_to_section_rel&#45;&gt;position_in_stream -->
<g id="edge7" class="edge">
<title>position_in_stream_to_section_rel:w&#45;&gt;position_in_stream:e</title>
<path fill="none" stroke="black" d="M745.92,-221.24C710.75,-241.41 767.33,-349 711,-349"/>
<polygon fill="black" stroke="black" points="752.2,-219.79 760.81,-221.51 756.1,-218.9 760,-218 760,-218 760,-218 756.1,-218.9 759.19,-214.49 752.2,-219.79 752.2,-219.79"/>
<ellipse fill="none" stroke="black" cx="749.08" cy="-220.51" rx="3.2" ry="3.2"/>
</g>
<!-- sign_stream_section -->
<g id="node7" class="node">
<title>sign_stream_section</title>
<g id="a_node7"><a xlink:href="../../tables/sign_stream_section.html" xlink:title="sign_stream_section" target="_top">
<polygon fill="#ffffff" stroke="transparent" points="471,-37 471,-95 647,-95 647,-37 471,-37"/>
<polygon fill="#f5f5f5" stroke="transparent" points="471,-73 471,-95 647,-95 647,-73 471,-73"/>
<polygon fill="none" stroke="black" points="471,-73 471,-95 647,-95 647,-73 471,-73"/>
<text text-anchor="start" x="476" y="-82.2" font-family="Helvetica,sans-Serif" font-weight="bold" font-size="11.00">sign_stream_section</text>
<text text-anchor="start" x="605" y="-81.2" font-family="Helvetica,sans-Serif" font-size="11.00">[table]</text>
<polygon fill="none" stroke="black" points="471,-55 471,-73 647,-73 647,-55 471,-55"/>
<text text-anchor="start" x="474" y="-61.2" font-family="Helvetica,sans-Serif" font-size="11.00">...</text>
<polygon fill="#ffffff" stroke="transparent" points="471,-37 471,-55 531,-55 531,-37 471,-37"/>
<polygon fill="none" stroke="black" points="471,-37 471,-55 531,-55 531,-37 471,-37"/>
<text text-anchor="start" x="474" y="-43.2" font-family="Helvetica,sans-Serif" font-size="11.00"> &#160;</text>
<polygon fill="#ffffff" stroke="transparent" points="531,-37 531,-55 597,-55 597,-37 531,-37"/>
<polygon fill="none" stroke="black" points="531,-37 531,-55 597,-55 597,-37 531,-37"/>
<text text-anchor="start" x="557" y="-43.2" font-family="Helvetica,sans-Serif" font-size="11.00">2 rows</text>
<polygon fill="#ffffff" stroke="transparent" points="597,-37 597,-55 647,-55 647,-37 597,-37"/>
<polygon fill="none" stroke="black" points="597,-37 597,-55 647,-55 647,-37 597,-37"/>
<text text-anchor="start" x="624" y="-43.2" font-family="Helvetica,sans-Serif" font-size="11.00">4 &gt;</text>
</a>
</g>
</g>
<!-- position_in_stream_to_section_rel&#45;&gt;sign_stream_section -->
<g id="edge8" class="edge">
<title>position_in_stream_to_section_rel:w&#45;&gt;sign_stream_section:e</title>
<path fill="none" stroke="black" d="M745.89,-192.95C723.87,-180.56 745.54,-133.33 720,-105 695.34,-77.65 684.82,-64 648,-64"/>
<polygon fill="black" stroke="black" points="752.18,-194.31 759.24,-199.52 756.09,-195.16 760,-196 760,-196 760,-196 756.09,-195.16 760.76,-192.48 752.18,-194.31 752.18,-194.31"/>
<ellipse fill="none" stroke="black" cx="749.05" cy="-193.63" rx="3.2" ry="3.2"/>
</g>
<!-- sign_interpretation_attribute -->
<g id="node9" class="node">
<title>sign_interpretation_attribute</title>
<g id="a_node9"><a xlink:href="../../tables/sign_interpretation_attribute.html" xlink:title="sign_interpretation_attribute" target="_top">
<polygon fill="#ffffff" stroke="transparent" points="444.5,-195 444.5,-253 673.5,-253 673.5,-195 444.5,-195"/>
<polygon fill="#f5f5f5" stroke="transparent" points="445,-231 445,-253 674,-253 674,-231 445,-231"/>
<polygon fill="none" stroke="black" points="445,-231 445,-253 674,-253 674,-231 445,-231"/>
<text text-anchor="start" x="450" y="-240.2" font-family="Helvetica,sans-Serif" font-weight="bold" font-size="11.00">sign_interpretation_attribute</text>
<text text-anchor="start" x="632" y="-239.2" font-family="Helvetica,sans-Serif" font-size="11.00">[table]</text>
<polygon fill="none" stroke="black" points="445,-213 445,-231 674,-231 674,-213 445,-213"/>
<text text-anchor="start" x="448" y="-219.2" font-family="Helvetica,sans-Serif" font-size="11.00">...</text>
<polygon fill="#ffffff" stroke="transparent" points="445,-195 445,-213 514,-213 514,-195 445,-195"/>
<polygon fill="none" stroke="black" points="445,-195 445,-213 514,-213 514,-195 445,-195"/>
<text text-anchor="start" x="448" y="-201.2" font-family="Helvetica,sans-Serif" font-size="11.00">&lt; 2</text>
<polygon fill="#ffffff" stroke="transparent" points="514,-195 514,-213 626,-213 626,-195 514,-195"/>
<polygon fill="none" stroke="black" points="514,-195 514,-213 626,-213 626,-195 514,-195"/>
<text text-anchor="start" x="538" y="-201.2" font-family="Helvetica,sans-Serif" font-size="11.00">2,557,225 rows</text>
<polygon fill="#ffffff" stroke="transparent" points="626,-195 626,-213 674,-213 674,-195 626,-195"/>
<polygon fill="none" stroke="black" points="626,-195 626,-213 674,-213 674,-195 626,-195"/>
<text text-anchor="start" x="651" y="-201.2" font-family="Helvetica,sans-Serif" font-size="11.00">1 &gt;</text>
</a>
</g>
</g>
<!-- sign_interpretation_attribute&#45;&gt;sign_interpretation -->
<g id="edge10" class="edge">
<title>sign_interpretation_attribute:w&#45;&gt;sign_interpretation:e</title>
<path fill="none" stroke="black" d="M429.5,-224.98C415.96,-231.76 413.5,-248.91 398,-264 379.87,-281.65 383.8,-305 358.5,-305"/>
<polygon fill="black" stroke="black" points="436.16,-223.61 444.73,-225.53 440.08,-222.81 444,-222 444,-222 444,-222 440.08,-222.81 443.27,-218.47 436.16,-223.61 436.16,-223.61"/>
<ellipse fill="none" stroke="black" cx="433.03" cy="-224.26" rx="3.2" ry="3.2"/>
</g>
<!-- sign_interpretation_commentary -->
<g id="node10" class="node">
<title>sign_interpretation_commentary</title>
<g id="a_node10"><a xlink:href="../../tables/sign_interpretation_commentary.html" xlink:title="sign_interpretation_commentary" target="_top">
<polygon fill="#ffffff" stroke="transparent" points="433.5,-116 433.5,-174 684.5,-174 684.5,-116 433.5,-116"/>
<polygon fill="#f5f5f5" stroke="transparent" points="434,-152 434,-174 685,-174 685,-152 434,-152"/>
<polygon fill="none" stroke="black" points="434,-152 434,-174 685,-174 685,-152 434,-152"/>
<text text-anchor="start" x="439" y="-161.2" font-family="Helvetica,sans-Serif" font-weight="bold" font-size="11.00">sign_interpretation_commentary</text>
<text text-anchor="start" x="643" y="-160.2" font-family="Helvetica,sans-Serif" font-size="11.00">[table]</text>
<polygon fill="none" stroke="black" points="434,-134 434,-152 685,-152 685,-134 434,-134"/>
<text text-anchor="start" x="437" y="-140.2" font-family="Helvetica,sans-Serif" font-size="11.00">...</text>
<polygon fill="#ffffff" stroke="transparent" points="434,-116 434,-134 538,-134 538,-116 434,-116"/>
<polygon fill="none" stroke="black" points="434,-116 434,-134 538,-134 538,-116 434,-116"/>
<text text-anchor="start" x="437" y="-122.2" font-family="Helvetica,sans-Serif" font-size="11.00">&lt; 2</text>
<polygon fill="#ffffff" stroke="transparent" points="538,-116 538,-134 620,-134 620,-116 538,-116"/>
<polygon fill="none" stroke="black" points="538,-116 538,-134 620,-134 620,-116 538,-116"/>
<text text-anchor="start" x="580" y="-122.2" font-family="Helvetica,sans-Serif" font-size="11.00">0 rows</text>
<polygon fill="#ffffff" stroke="transparent" points="620,-116 620,-134 685,-134 685,-116 620,-116"/>
<polygon fill="none" stroke="black" points="620,-116 620,-134 685,-134 685,-116 620,-116"/>
<text text-anchor="start" x="662" y="-122.2" font-family="Helvetica,sans-Serif" font-size="11.00">1 &gt;</text>
</a>
</g>
</g>
<!-- sign_interpretation_commentary&#45;&gt;sign_interpretation -->
<g id="edge11" class="edge">
<title>sign_interpretation_commentary:w&#45;&gt;sign_interpretation:e</title>
<path fill="none" stroke="black" d="M418.59,-145.29C364.76,-164.98 432.18,-305 358.5,-305"/>
<polygon fill="black" stroke="black" points="425.1,-144.26 433.57,-146.56 429.05,-143.63 433,-143 433,-143 433,-143 429.05,-143.63 432.43,-139.44 425.1,-144.26 425.1,-144.26"/>
<ellipse fill="none" stroke="black" cx="421.94" cy="-144.76" rx="3.2" ry="3.2"/>
</g>
<!-- sign_interpretation_roi -->
<g id="node11" class="node">
<title>sign_interpretation_roi</title>
<g id="a_node11"><a xlink:href="../../tables/sign_interpretation_roi.html" xlink:title="sign_interpretation_roi" target="_top">
<polygon fill="#ffffff" stroke="transparent" points="464,-405 464,-463 654,-463 654,-405 464,-405"/>
<polygon fill="#f5f5f5" stroke="transparent" points="464,-441 464,-463 654,-463 654,-441 464,-441"/>
<polygon fill="none" stroke="black" points="464,-441 464,-463 654,-463 654,-441 464,-441"/>
<text text-anchor="start" x="469" y="-450.2" font-family="Helvetica,sans-Serif" font-weight="bold" font-size="11.00">sign_interpretation_roi</text>
<text text-anchor="start" x="612" y="-449.2" font-family="Helvetica,sans-Serif" font-size="11.00">[table]</text>
<polygon fill="none" stroke="black" points="464,-423 464,-441 654,-441 654,-423 464,-423"/>
<text text-anchor="start" x="467" y="-429.2" font-family="Helvetica,sans-Serif" font-size="11.00">...</text>
<polygon fill="#ffffff" stroke="transparent" points="464,-405 464,-423 537,-423 537,-405 464,-405"/>
<polygon fill="none" stroke="black" points="464,-405 464,-423 537,-423 537,-405 464,-405"/>
<text text-anchor="start" x="467" y="-411.2" font-family="Helvetica,sans-Serif" font-size="11.00">&lt; 3</text>
<polygon fill="#ffffff" stroke="transparent" points="537,-405 537,-423 604,-423 604,-405 537,-405"/>
<polygon fill="none" stroke="black" points="537,-405 537,-423 604,-423 604,-405 537,-405"/>
<text text-anchor="start" x="564" y="-411.2" font-family="Helvetica,sans-Serif" font-size="11.00">0 rows</text>
<polygon fill="#ffffff" stroke="transparent" points="604,-405 604,-423 654,-423 654,-405 604,-405"/>
<polygon fill="none" stroke="black" points="604,-405 604,-423 654,-423 654,-405 604,-405"/>
<text text-anchor="start" x="631" y="-411.2" font-family="Helvetica,sans-Serif" font-size="11.00">1 &gt;</text>
</a>
</g>
</g>
<!-- sign_interpretation_roi&#45;&gt;sign_interpretation -->
<g id="edge12" class="edge">
<title>sign_interpretation_roi:w&#45;&gt;sign_interpretation:e</title>
<path fill="none" stroke="black" d="M448.39,-431.01C426.3,-427.63 416.6,-415.64 398,-395 368.76,-362.55 402.18,-305 358.5,-305"/>
<polygon fill="black" stroke="black" points="455.02,-431.46 462.76,-435.59 459.01,-431.73 463,-432 463,-432 463,-432 459.01,-431.73 463.24,-428.41 455.02,-431.46 455.02,-431.46"/>
<ellipse fill="none" stroke="black" cx="451.83" cy="-431.24" rx="3.2" ry="3.2"/>
</g>
</g>
</svg>
