<?xml version="1.0" encoding="UTF-8" standalone="no"?>
<!DOCTYPE svg PUBLIC "-//W3C//DTD SVG 1.1//EN"
 "http://www.w3.org/Graphics/SVG/1.1/DTD/svg11.dtd">
<!-- Generated by graphviz version 2.43.0 (0)
 -->
<!-- Title: twoDegreesRelationshipsDiagram Pages: 1 -->
<svg width="842pt" height="475pt"
 viewBox="0.00 0.00 842.00 475.00" xmlns="http://www.w3.org/2000/svg" xmlns:xlink="http://www.w3.org/1999/xlink">
<g id="graph0" class="graph" transform="scale(1 1) rotate(0) translate(4 471)">
<title>twoDegreesRelationshipsDiagram</title>
<polygon fill="#ffffff" stroke="transparent" points="-4,4 -4,-471 838,-471 838,4 -4,4"/>
<text text-anchor="middle" x="79.5" y="-7.2" font-family="Helvetica,sans-Serif" font-size="11.00">Generated by SchemaSpy</text>
<!-- parallel_word -->
<g id="node1" class="node">
<title>parallel_word</title>
<g id="a_node1"><a xlink:href="../../tables/parallel_word.html" xlink:title="parallel_word" target="_top">
<polygon fill="#ffffff" stroke="transparent" points="586,-405 586,-463 720,-463 720,-405 586,-405"/>
<polygon fill="#f5f5f5" stroke="transparent" points="586,-441 586,-463 720,-463 720,-441 586,-441"/>
<polygon fill="none" stroke="black" points="586,-441 586,-463 720,-463 720,-441 586,-441"/>
<text text-anchor="start" x="591" y="-450.2" font-family="Helvetica,sans-Serif" font-weight="bold" font-size="11.00">parallel_word</text>
<text text-anchor="start" x="678" y="-449.2" font-family="Helvetica,sans-Serif" font-size="11.00">[table]</text>
<polygon fill="none" stroke="black" points="586,-423 586,-441 720,-441 720,-423 586,-423"/>
<text text-anchor="start" x="589" y="-429.2" font-family="Helvetica,sans-Serif" font-size="11.00">...</text>
<polygon fill="#ffffff" stroke="transparent" points="586,-405 586,-423 631,-423 631,-405 586,-405"/>
<polygon fill="none" stroke="black" points="586,-405 586,-423 631,-423 631,-405 586,-405"/>
<text text-anchor="start" x="589" y="-411.2" font-family="Helvetica,sans-Serif" font-size="11.00">&lt; 2</text>
<polygon fill="#ffffff" stroke="transparent" points="631,-405 631,-423 684,-423 684,-405 631,-405"/>
<polygon fill="none" stroke="black" points="631,-405 631,-423 684,-423 684,-405 631,-405"/>
<text text-anchor="start" x="644" y="-411.2" font-family="Helvetica,sans-Serif" font-size="11.00">0 rows</text>
<polygon fill="#ffffff" stroke="transparent" points="684,-405 684,-423 720,-423 720,-405 684,-405"/>
<polygon fill="none" stroke="black" points="684,-405 684,-423 720,-423 720,-405 684,-405"/>
<text text-anchor="start" x="697" y="-411.2" font-family="Helvetica,sans-Serif" font-size="11.00">1 &gt;</text>
</a>
</g>
</g>
<!-- word -->
<g id="node2" class="node">
<title>word</title>
<g id="a_node2"><a xlink:href="../../tables/word.html" xlink:title="word" target="_top">
<polygon fill="#ffffff" stroke="transparent" points="268,-244 268,-346 389,-346 389,-244 268,-244"/>
<polygon fill="#f5f5f5" stroke="transparent" points="268.5,-324 268.5,-346 389.5,-346 389.5,-324 268.5,-324"/>
<polygon fill="none" stroke="black" points="268.5,-324 268.5,-346 389.5,-346 389.5,-324 268.5,-324"/>
<text text-anchor="start" x="273.5" y="-333.2" font-family="Helvetica,sans-Serif" font-weight="bold" font-size="11.00">word</text>
<text text-anchor="start" x="347.5" y="-332.2" font-family="Helvetica,sans-Serif" font-size="11.00">[table]</text>
<polygon fill="none" stroke="black" points="268.5,-302 268.5,-324 389.5,-324 389.5,-302 268.5,-302"/>
<image xlink:href="../../images/primaryKeys.png" width="11px" height="12px" preserveAspectRatio="xMinYMin meet" x="273.5" y="-319"/>
<text text-anchor="start" x="295.5" y="-310.2" font-family="Helvetica,sans-Serif" font-size="11.00">word_id</text>
<polygon fill="#ffffff" stroke="transparent" points="268.5,-280 268.5,-302 389.5,-302 389.5,-280 268.5,-280"/>
<polygon fill="none" stroke="black" points="268.5,-280 268.5,-302 389.5,-302 389.5,-280 268.5,-280"/>
<text text-anchor="start" x="295.5" y="-288.2" font-family="Helvetica,sans-Serif" font-size="11.00">qwb_word_id</text>
<polygon fill="none" stroke="black" points="268.5,-262 268.5,-280 389.5,-280 389.5,-262 268.5,-262"/>
<text text-anchor="start" x="271.5" y="-268.2" font-family="Helvetica,sans-Serif" font-size="11.00">...</text>
<polygon fill="#ffffff" stroke="transparent" points="268.5,-244 268.5,-262 282.5,-262 282.5,-244 268.5,-244"/>
<polygon fill="none" stroke="black" points="268.5,-244 268.5,-262 282.5,-262 282.5,-244 268.5,-244"/>
<text text-anchor="start" x="271.5" y="-250.2" font-family="Helvetica,sans-Serif" font-size="11.00"> &#160;</text>
<polygon fill="#ffffff" stroke="transparent" points="282.5,-244 282.5,-262 363.5,-262 363.5,-244 282.5,-244"/>
<polygon fill="none" stroke="black" points="282.5,-244 282.5,-262 363.5,-262 363.5,-244 282.5,-244"/>
<text text-anchor="start" x="285.5" y="-250.2" font-family="Helvetica,sans-Serif" font-size="11.00">327,795 rows</text>
<polygon fill="#ffffff" stroke="transparent" points="363.5,-244 363.5,-262 389.5,-262 389.5,-244 363.5,-244"/>
<polygon fill="none" stroke="black" points="363.5,-244 363.5,-262 389.5,-262 389.5,-244 363.5,-244"/>
<text text-anchor="start" x="366.5" y="-250.2" font-family="Helvetica,sans-Serif" font-size="11.00">4 &gt;</text>
</a>
</g>
</g>
<!-- parallel_word&#45;&gt;word -->
<g id="edge1" class="edge">
<title>parallel_word:w&#45;&gt;word:e</title>
<path fill="none" stroke="black" d="M570.53,-431.73C528.91,-430.01 512.59,-420.02 472,-395 428.26,-368.04 441.88,-313 390.5,-313"/>
<polygon fill="black" stroke="black" points="577,-431.85 584.93,-435.6 581,-431.92 585,-432 585,-432 585,-432 581,-431.92 585.07,-428.4 577,-431.85 577,-431.85"/>
<ellipse fill="none" stroke="black" cx="573.8" cy="-431.79" rx="3.2" ry="3.2"/>
</g>
<!-- position_in_stream -->
<g id="node3" class="node">
<title>position_in_stream</title>
<g id="a_node3"><a xlink:href="../../tables/position_in_stream.html" xlink:title="position_in_stream" target="_top">
<polygon fill="#ffffff" stroke="transparent" points="226,-54 226,-160 431,-160 431,-54 226,-54"/>
<polygon fill="#f5f5f5" stroke="transparent" points="226.5,-138 226.5,-160 431.5,-160 431.5,-138 226.5,-138"/>
<polygon fill="none" stroke="black" points="226.5,-138 226.5,-160 431.5,-160 431.5,-138 226.5,-138"/>
<text text-anchor="start" x="231.5" y="-147.2" font-family="Helvetica,sans-Serif" font-weight="bold" font-size="11.00">position_in_stream</text>
<text text-anchor="start" x="389.5" y="-146.2" font-family="Helvetica,sans-Serif" font-size="11.00">[table]</text>
<polygon fill="none" stroke="black" points="226.5,-116 226.5,-138 431.5,-138 431.5,-116 226.5,-116"/>
<image xlink:href="../../images/primaryKeys.png" width="11px" height="12px" preserveAspectRatio="xMinYMin meet" x="231.5" y="-133"/>
<text text-anchor="start" x="246.5" y="-124.2" font-family="Helvetica,sans-Serif" font-size="11.00">position_in_stream_id</text>
<polygon fill="#ffffff" stroke="transparent" points="226.5,-94 226.5,-116 431.5,-116 431.5,-94 226.5,-94"/>
<polygon fill="none" stroke="black" points="226.5,-94 226.5,-116 431.5,-116 431.5,-94 226.5,-94"/>
<image xlink:href="../../images/foreignKeys.png" width="11px" height="12px" preserveAspectRatio="xMinYMin meet" x="231.5" y="-111"/>
<text text-anchor="start" x="246.5" y="-102.2" font-family="Helvetica,sans-Serif" font-size="11.00">sign_interpretation_id</text>
<polygon fill="#ffffff" stroke="transparent" points="226.5,-72 226.5,-94 431.5,-94 431.5,-72 226.5,-72"/>
<polygon fill="none" stroke="black" points="226.5,-72 226.5,-94 431.5,-94 431.5,-72 226.5,-72"/>
<image xlink:href="../../images/foreignKeys.png" width="11px" height="12px" preserveAspectRatio="xMinYMin meet" x="231.5" y="-89"/>
<text text-anchor="start" x="246.5" y="-80.2" font-family="Helvetica,sans-Serif" font-size="11.00">next_sign_interpretation_id</text>
<polygon fill="#ffffff" stroke="transparent" points="226.5,-54 226.5,-72 283.5,-72 283.5,-54 226.5,-54"/>
<polygon fill="none" stroke="black" points="226.5,-54 226.5,-72 283.5,-72 283.5,-54 226.5,-54"/>
<text text-anchor="start" x="229.5" y="-60.2" font-family="Helvetica,sans-Serif" font-size="11.00">&lt; 2</text>
<polygon fill="#ffffff" stroke="transparent" points="283.5,-54 283.5,-72 389.5,-72 389.5,-54 283.5,-54"/>
<polygon fill="none" stroke="black" points="283.5,-54 283.5,-72 389.5,-72 389.5,-54 283.5,-54"/>
<text text-anchor="start" x="301.5" y="-60.2" font-family="Helvetica,sans-Serif" font-size="11.00">1,719,776 rows</text>
<polygon fill="#ffffff" stroke="transparent" points="389.5,-54 389.5,-72 431.5,-72 431.5,-54 389.5,-54"/>
<polygon fill="none" stroke="black" points="389.5,-54 389.5,-72 431.5,-72 431.5,-54 389.5,-54"/>
<text text-anchor="start" x="408.5" y="-60.2" font-family="Helvetica,sans-Serif" font-size="11.00">2 &gt;</text>
</a>
</g>
</g>
<!-- sign_interpretation -->
<g id="node4" class="node">
<title>sign_interpretation</title>
<g id="a_node4"><a xlink:href="../../tables/sign_interpretation.html" xlink:title="sign_interpretation" target="_top">
<polygon fill="#ffffff" stroke="transparent" points="8,-67 8,-125 177,-125 177,-67 8,-67"/>
<polygon fill="#f5f5f5" stroke="transparent" points="8.5,-103 8.5,-125 177.5,-125 177.5,-103 8.5,-103"/>
<polygon fill="none" stroke="black" points="8.5,-103 8.5,-125 177.5,-125 177.5,-103 8.5,-103"/>
<text text-anchor="start" x="13.5" y="-112.2" font-family="Helvetica,sans-Serif" font-weight="bold" font-size="11.00">sign_interpretation</text>
<text text-anchor="start" x="135.5" y="-111.2" font-family="Helvetica,sans-Serif" font-size="11.00">[table]</text>
<polygon fill="none" stroke="black" points="8.5,-85 8.5,-103 177.5,-103 177.5,-85 8.5,-85"/>
<text text-anchor="start" x="11.5" y="-91.2" font-family="Helvetica,sans-Serif" font-size="11.00">...</text>
<polygon fill="#ffffff" stroke="transparent" points="8.5,-67 8.5,-85 47.5,-85 47.5,-67 8.5,-67"/>
<polygon fill="none" stroke="black" points="8.5,-67 8.5,-85 47.5,-85 47.5,-67 8.5,-67"/>
<text text-anchor="start" x="11.5" y="-73.2" font-family="Helvetica,sans-Serif" font-size="11.00">&lt; 1</text>
<polygon fill="#ffffff" stroke="transparent" points="47.5,-67 47.5,-85 144.5,-85 144.5,-67 47.5,-67"/>
<polygon fill="none" stroke="black" points="47.5,-67 47.5,-85 144.5,-85 144.5,-67 47.5,-67"/>
<text text-anchor="start" x="56.5" y="-73.2" font-family="Helvetica,sans-Serif" font-size="11.00">2,095,156 rows</text>
<polygon fill="#ffffff" stroke="transparent" points="144.5,-67 144.5,-85 177.5,-85 177.5,-67 144.5,-67"/>
<polygon fill="none" stroke="black" points="144.5,-67 144.5,-85 177.5,-85 177.5,-67 144.5,-67"/>
<text text-anchor="start" x="154.5" y="-73.2" font-family="Helvetica,sans-Serif" font-size="11.00">5 &gt;</text>
</a>
</g>
</g>
<!-- position_in_stream&#45;&gt;sign_interpretation -->
<g id="edge2" class="edge">
<title>position_in_stream:w&#45;&gt;sign_interpretation:e</title>
<path fill="none" stroke="black" d="M211.09,-85.02C200.51,-88.19 194.09,-94 178.5,-94"/>
<polygon fill="black" stroke="black" points="217.58,-84.11 226,-86.57 221.54,-83.55 225.5,-83 225.5,-83 225.5,-83 221.54,-83.55 225,-79.43 217.58,-84.11 217.58,-84.11"/>
<ellipse fill="none" stroke="black" cx="214.41" cy="-84.55" rx="3.2" ry="3.2"/>
</g>
<!-- position_in_stream&#45;&gt;sign_interpretation -->
<g id="edge3" class="edge">
<title>position_in_stream:w&#45;&gt;sign_interpretation:e</title>
<path fill="none" stroke="black" d="M211.09,-102.98C200.51,-99.81 194.09,-94 178.5,-94"/>
<polygon fill="black" stroke="black" points="217.58,-103.89 225,-108.57 221.54,-104.45 225.5,-105 225.5,-105 225.5,-105 221.54,-104.45 226,-101.43 217.58,-103.89 217.58,-103.89"/>
<ellipse fill="none" stroke="black" cx="214.41" cy="-103.45" rx="3.2" ry="3.2"/>
</g>
<!-- position_in_stream_owner -->
<g id="node5" class="node">
<title>position_in_stream_owner</title>
<g id="a_node5"><a xlink:href="../../tables/position_in_stream_owner.html" xlink:title="position_in_stream_owner" target="_top">
<polygon fill="#ffffff" stroke="transparent" points="548,-37 548,-95 758,-95 758,-37 548,-37"/>
<polygon fill="#f5f5f5" stroke="transparent" points="548,-73 548,-95 758,-95 758,-73 548,-73"/>
<polygon fill="none" stroke="black" points="548,-73 548,-95 758,-95 758,-73 548,-73"/>
<text text-anchor="start" x="553" y="-82.2" font-family="Helvetica,sans-Serif" font-weight="bold" font-size="11.00">position_in_stream_owner</text>
<text text-anchor="start" x="716" y="-81.2" font-family="Helvetica,sans-Serif" font-size="11.00">[table]</text>
<polygon fill="none" stroke="black" points="548,-55 548,-73 758,-73 758,-55 548,-55"/>
<text text-anchor="start" x="551" y="-61.2" font-family="Helvetica,sans-Serif" font-size="11.00">...</text>
<polygon fill="#ffffff" stroke="transparent" points="548,-37 548,-55 613,-55 613,-37 548,-37"/>
<polygon fill="none" stroke="black" points="548,-37 548,-55 613,-55 613,-37 548,-37"/>
<text text-anchor="start" x="551" y="-43.2" font-family="Helvetica,sans-Serif" font-size="11.00">&lt; 3</text>
<polygon fill="#ffffff" stroke="transparent" points="613,-37 613,-55 724,-55 724,-37 613,-37"/>
<polygon fill="none" stroke="black" points="613,-37 613,-55 724,-55 724,-37 613,-37"/>
<text text-anchor="start" x="636" y="-43.2" font-family="Helvetica,sans-Serif" font-size="11.00">1,719,776 rows</text>
<polygon fill="#ffffff" stroke="transparent" points="724,-37 724,-55 758,-55 758,-37 724,-37"/>
<polygon fill="none" stroke="black" points="724,-37 724,-55 758,-55 758,-37 724,-37"/>
<text text-anchor="start" x="747" y="-43.2" font-family="Helvetica,sans-Serif" font-size="11.00"> &#160;</text>
</a>
</g>
</g>
<!-- position_in_stream_owner&#45;&gt;position_in_stream -->
<g id="edge4" class="edge">
<title>position_in_stream_owner:w&#45;&gt;position_in_stream:e</title>
<path fill="none" stroke="black" d="M532.48,-65.34C507.31,-70.46 500.45,-89.3 472,-105 454.41,-114.71 452.59,-127 432.5,-127"/>
<polygon fill="black" stroke="black" points="539.03,-64.73 547.33,-67.58 543.02,-64.37 547,-64 547,-64 547,-64 543.02,-64.37 546.67,-60.42 539.03,-64.73 539.03,-64.73"/>
<ellipse fill="none" stroke="black" cx="535.85" cy="-65.03" rx="3.2" ry="3.2"/>
</g>
<!-- position_in_stream_to_word_rel -->
<g id="node6" class="node">
<title>position_in_stream_to_word_rel</title>
<g id="a_node6"><a xlink:href="../../tables/position_in_stream_to_word_rel.html" xlink:title="position_in_stream_to_word_rel" target="_top">
<polygon fill="#ffffff" stroke="transparent" points="480,-116 480,-226 826,-226 826,-116 480,-116"/>
<polygon fill="#f5f5f5" stroke="transparent" points="482,-202 482,-224 824,-224 824,-202 482,-202"/>
<polygon fill="none" stroke="black" points="482,-202 482,-224 824,-224 824,-202 482,-202"/>
<text text-anchor="start" x="487" y="-211.2" font-family="Helvetica,sans-Serif" font-weight="bold" font-size="11.00">position_in_stream_to_word_rel</text>
<text text-anchor="start" x="782" y="-210.2" font-family="Helvetica,sans-Serif" font-size="11.00">[table]</text>
<polygon fill="none" stroke="black" points="482,-180 482,-202 713,-202 713,-180 482,-180"/>
<image xlink:href="../../images/primaryKeys.png" width="11px" height="12px" preserveAspectRatio="xMinYMin meet" x="487" y="-197"/>
<text text-anchor="start" x="502" y="-188.2" font-family="Helvetica,sans-Serif" font-size="11.00">position_in_stream_id</text>
<polygon fill="none" stroke="black" points="713,-180 713,-202 824,-202 824,-180 713,-180"/>
<text text-anchor="start" x="716" y="-188.2" font-family="Helvetica,sans-Serif" font-size="11.00">int unsigned[10]</text>
<polygon fill="none" stroke="black" points="482,-158 482,-180 713,-180 713,-158 482,-158"/>
<image xlink:href="../../images/primaryKeys.png" width="11px" height="12px" preserveAspectRatio="xMinYMin meet" x="487" y="-175"/>
<text text-anchor="start" x="502" y="-166.2" font-family="Helvetica,sans-Serif" font-size="11.00">word_id</text>
<polygon fill="none" stroke="black" points="713,-158 713,-180 824,-180 824,-158 713,-158"/>
<text text-anchor="start" x="716" y="-166.2" font-family="Helvetica,sans-Serif" font-size="11.00">int unsigned[10]</text>
<polygon fill="none" stroke="black" points="482,-136 482,-158 713,-158 713,-136 482,-136"/>
<text text-anchor="start" x="502" y="-144.2" font-family="Helvetica,sans-Serif" font-size="11.00">position_in_word</text>
<polygon fill="none" stroke="black" points="713,-136 713,-158 824,-158 824,-136 713,-136"/>
<text text-anchor="start" x="716" y="-144.2" font-family="Helvetica,sans-Serif" font-size="11.00">tinyint unsigned[3]</text>
<polygon fill="#ffffff" stroke="transparent" points="482,-118 482,-136 565,-136 565,-118 482,-118"/>
<polygon fill="none" stroke="black" points="482,-118 482,-136 565,-136 565,-118 482,-118"/>
<text text-anchor="start" x="485" y="-124.2" font-family="Helvetica,sans-Serif" font-size="11.00">&lt; 2</text>
<polygon fill="#ffffff" stroke="transparent" points="565,-118 565,-136 713,-136 713,-118 565,-118"/>
<polygon fill="none" stroke="black" points="565,-118 565,-136 713,-136 713,-118 565,-118"/>
<text text-anchor="start" x="625" y="-124.2" font-family="Helvetica,sans-Serif" font-size="11.00">1,238,159 rows</text>
<polygon fill="#ffffff" stroke="transparent" points="713,-118 713,-136 824,-136 824,-118 713,-118"/>
<polygon fill="none" stroke="black" points="713,-118 713,-136 824,-136 824,-118 713,-118"/>
<text text-anchor="start" x="801" y="-124.2" font-family="Helvetica,sans-Serif" font-size="11.00">0 &gt;</text>
<polygon fill="none" stroke="black" stroke-width="2" points="481,-117 481,-225 825,-225 825,-117 481,-117"/>
</a>
</g>
</g>
<!-- position_in_stream_to_word_rel&#45;&gt;word -->
<g id="edge6" class="edge">
<title>position_in_stream_to_word_rel:w&#45;&gt;word:e</title>
<path fill="none" stroke="black" d="M466.64,-171.15C413.47,-189.06 460.63,-313 390.5,-313"/>
<polygon fill="black" stroke="black" points="473.09,-170.18 481.53,-172.56 477.04,-169.59 481,-169 481,-169 481,-169 477.04,-169.59 480.47,-165.44 473.09,-170.18 473.09,-170.18"/>
<ellipse fill="none" stroke="black" cx="469.92" cy="-170.66" rx="3.2" ry="3.2"/>
</g>
<!-- position_in_stream_to_word_rel&#45;&gt;position_in_stream -->
<g id="edge5" class="edge">
<title>position_in_stream_to_word_rel:w&#45;&gt;position_in_stream:e</title>
<path fill="none" stroke="black" d="M467.19,-185.98C451.45,-170.89 462.06,-127 432.5,-127"/>
<polygon fill="black" stroke="black" points="473.48,-188.27 479.77,-194.38 477.24,-189.63 481,-191 481,-191 481,-191 477.24,-189.63 482.23,-187.62 473.48,-188.27 473.48,-188.27"/>
<ellipse fill="none" stroke="black" cx="470.47" cy="-187.17" rx="3.2" ry="3.2"/>
</g>
<!-- qwb_word -->
<g id="node7" class="node">
<title>qwb_word</title>
<g id="a_node7"><a xlink:href="../../tables/qwb_word.html" xlink:title="qwb_word" target="_top">
<polygon fill="#ffffff" stroke="transparent" points="586.5,-326 586.5,-384 719.5,-384 719.5,-326 586.5,-326"/>
<polygon fill="#f5f5f5" stroke="transparent" points="587,-362 587,-384 720,-384 720,-362 587,-362"/>
<polygon fill="none" stroke="black" points="587,-362 587,-384 720,-384 720,-362 587,-362"/>
<text text-anchor="start" x="592" y="-371.2" font-family="Helvetica,sans-Serif" font-weight="bold" font-size="11.00">qwb_word</text>
<text text-anchor="start" x="678" y="-370.2" font-family="Helvetica,sans-Serif" font-size="11.00">[table]</text>
<polygon fill="none" stroke="black" points="587,-344 587,-362 720,-362 720,-344 587,-344"/>
<text text-anchor="start" x="590" y="-350.2" font-family="Helvetica,sans-Serif" font-size="11.00">...</text>
<polygon fill="#ffffff" stroke="transparent" points="587,-326 587,-344 613,-344 613,-326 587,-326"/>
<polygon fill="none" stroke="black" points="587,-326 587,-344 613,-344 613,-326 587,-326"/>
<text text-anchor="start" x="590" y="-332.2" font-family="Helvetica,sans-Serif" font-size="11.00">&lt; 1</text>
<polygon fill="#ffffff" stroke="transparent" points="613,-326 613,-344 694,-344 694,-326 613,-326"/>
<polygon fill="none" stroke="black" points="613,-326 613,-344 694,-344 694,-326 613,-326"/>
<text text-anchor="start" x="616" y="-332.2" font-family="Helvetica,sans-Serif" font-size="11.00">327,834 rows</text>
<polygon fill="#ffffff" stroke="transparent" points="694,-326 694,-344 720,-344 720,-326 694,-326"/>
<polygon fill="none" stroke="black" points="694,-326 694,-344 720,-344 720,-326 694,-326"/>
<text text-anchor="start" x="697" y="-332.2" font-family="Helvetica,sans-Serif" font-size="11.00">1 &gt;</text>
</a>
</g>
</g>
<!-- qwb_word&#45;&gt;word -->
<g id="edge7" class="edge">
<title>qwb_word:w&#45;&gt;word:e</title>
<path fill="none" stroke="black" d="M571.58,-352.63C495.03,-348.6 474.17,-313 390.5,-313"/>
<polygon fill="black" stroke="black" points="578,-352.79 585.91,-356.6 582,-352.9 586,-353 586,-353 586,-353 582,-352.9 586.09,-349.4 578,-352.79 578,-352.79"/>
<ellipse fill="none" stroke="black" cx="574.8" cy="-352.71" rx="3.2" ry="3.2"/>
</g>
<!-- word_owner -->
<g id="node8" class="node">
<title>word_owner</title>
<g id="a_node8"><a xlink:href="../../tables/word_owner.html" xlink:title="word_owner" target="_top">
<polygon fill="#ffffff" stroke="transparent" points="590,-247 590,-305 716,-305 716,-247 590,-247"/>
<polygon fill="#f5f5f5" stroke="transparent" points="590,-283 590,-305 716,-305 716,-283 590,-283"/>
<polygon fill="none" stroke="black" points="590,-283 590,-305 716,-305 716,-283 590,-283"/>
<text text-anchor="start" x="595" y="-292.2" font-family="Helvetica,sans-Serif" font-weight="bold" font-size="11.00">word_owner</text>
<text text-anchor="start" x="674" y="-291.2" font-family="Helvetica,sans-Serif" font-size="11.00">[table]</text>
<polygon fill="none" stroke="black" points="590,-265 590,-283 716,-283 716,-265 590,-265"/>
<text text-anchor="start" x="593" y="-271.2" font-family="Helvetica,sans-Serif" font-size="11.00">...</text>
<polygon fill="#ffffff" stroke="transparent" points="590,-247 590,-265 618,-265 618,-247 590,-247"/>
<polygon fill="none" stroke="black" points="590,-247 590,-265 618,-265 618,-247 590,-247"/>
<text text-anchor="start" x="593" y="-253.2" font-family="Helvetica,sans-Serif" font-size="11.00">&lt; 3</text>
<polygon fill="#ffffff" stroke="transparent" points="618,-247 618,-265 700,-265 700,-247 618,-247"/>
<polygon fill="none" stroke="black" points="618,-247 618,-265 700,-265 700,-247 618,-247"/>
<text text-anchor="start" x="622" y="-253.2" font-family="Helvetica,sans-Serif" font-size="11.00">327,684 rows</text>
<polygon fill="#ffffff" stroke="transparent" points="700,-247 700,-265 716,-265 716,-247 700,-247"/>
<polygon fill="none" stroke="black" points="700,-247 700,-265 716,-265 716,-247 700,-247"/>
<text text-anchor="start" x="705" y="-253.2" font-family="Helvetica,sans-Serif" font-size="11.00"> &#160;</text>
</a>
</g>
</g>
<!-- word_owner&#45;&gt;word -->
<g id="edge8" class="edge">
<title>word_owner:w&#45;&gt;word:e</title>
<path fill="none" stroke="black" d="M574.38,-274.36C496.75,-278.29 475.32,-313 390.5,-313"/>
<polygon fill="black" stroke="black" points="581,-274.2 589.09,-277.6 585,-274.1 589,-274 589,-274 589,-274 585,-274.1 588.91,-270.4 581,-274.2 581,-274.2"/>
<ellipse fill="none" stroke="black" cx="577.8" cy="-274.28" rx="3.2" ry="3.2"/>
</g>
</g>
</svg>
