<?xml version="1.0" encoding="UTF-8" standalone="no"?>
<!DOCTYPE svg PUBLIC "-//W3C//DTD SVG 1.1//EN"
 "http://www.w3.org/Graphics/SVG/1.1/DTD/svg11.dtd">
<!-- Generated by graphviz version 2.40.1 (20161225.0304)
 -->
<!-- Title: oneDegreeRelationshipsDiagramImplied Pages: 1 -->
<svg width="936pt" height="258pt"
 viewBox="0.00 0.00 936.00 258.00" xmlns="http://www.w3.org/2000/svg" xmlns:xlink="http://www.w3.org/1999/xlink">
<g id="graph0" class="graph" transform="scale(1 1) rotate(0) translate(4 254)">
<title>oneDegreeRelationshipsDiagramImplied</title>
<polygon fill="#ffffff" stroke="transparent" points="-4,4 -4,-254 932,-254 932,4 -4,4"/>
<text text-anchor="middle" x="71.5" y="-7.2" font-family="Helvetica,sans-Serif" font-size="11.00" fill="#000000">Generated by SchemaSpy</text>
<!-- position_in_text_fragment_stream -->
<g id="node1" class="node">
<title>position_in_text_fragment_stream</title>
<g id="a_node1"><a xlink:href="../../tables/position_in_text_fragment_stream.html" xlink:title="position_in_text_fragment_stream" target="_top">
<polygon fill="#ffffff" stroke="transparent" points="220,-114 220,-246 574,-246 574,-114 220,-114"/>
<polygon fill="#f5f5f5" stroke="transparent" points="222,-222 222,-244 572,-244 572,-222 222,-222"/>
<polygon fill="none" stroke="#000000" points="222,-222 222,-244 572,-244 572,-222 222,-222"/>
<text text-anchor="start" x="227" y="-231.2" font-family="Helvetica,sans-Serif" font-weight="bold" font-size="11.00" fill="#000000">position_in_text_fragment_stream</text>
<text text-anchor="start" x="537" y="-230.2" font-family="Helvetica,sans-Serif" font-size="11.00" fill="#000000">[table]</text>
<polygon fill="none" stroke="#000000" points="222,-200 222,-222 490,-222 490,-200 222,-200"/>
<image xlink:href="../../images/primaryKeys.png" width="11px" height="12px" preserveAspectRatio="xMinYMin meet" x="227" y="-217"/>
<text text-anchor="start" x="242" y="-208.2" font-family="Helvetica,sans-Serif" font-size="11.00" fill="#000000">position_in_text_fragment_stream_id</text>
<polygon fill="none" stroke="#000000" points="490,-200 490,-222 572,-222 572,-200 490,-200"/>
<text text-anchor="start" x="493" y="-208.2" font-family="Helvetica,sans-Serif" font-size="11.00" fill="#000000">int unsigned[10]</text>
<polygon fill="#ffffff" stroke="transparent" points="222,-178 222,-200 490,-200 490,-178 222,-178"/>
<polygon fill="none" stroke="#000000" points="222,-178 222,-200 490,-200 490,-178 222,-178"/>
<image xlink:href="../../images/foreignKeys.png" width="11px" height="12px" preserveAspectRatio="xMinYMin meet" x="227" y="-195"/>
<text text-anchor="start" x="242" y="-186.2" font-family="Helvetica,sans-Serif" font-size="11.00" fill="#000000">text_fragment_id</text>
<polygon fill="none" stroke="#000000" points="490,-178 490,-200 572,-200 572,-178 490,-178"/>
<text text-anchor="start" x="493" y="-186.2" font-family="Helvetica,sans-Serif" font-size="11.00" fill="#000000">int unsigned[10]</text>
<polygon fill="#ffffff" stroke="transparent" points="222,-156 222,-178 490,-178 490,-156 222,-156"/>
<polygon fill="none" stroke="#000000" points="222,-156 222,-178 490,-178 490,-156 222,-156"/>
<image xlink:href="../../images/foreignKeys.png" width="11px" height="12px" preserveAspectRatio="xMinYMin meet" x="227" y="-173"/>
<text text-anchor="start" x="242" y="-164.2" font-family="Helvetica,sans-Serif" font-size="11.00" fill="#000000">next_text_fragment_id</text>
<polygon fill="none" stroke="#000000" points="490,-156 490,-178 572,-178 572,-156 490,-156"/>
<text text-anchor="start" x="493" y="-164.2" font-family="Helvetica,sans-Serif" font-size="11.00" fill="#000000">int unsigned[10]</text>
<polygon fill="#ffffff" stroke="transparent" points="222,-134 222,-156 490,-156 490,-134 222,-134"/>
<polygon fill="none" stroke="#000000" points="222,-134 222,-156 490,-156 490,-134 222,-134"/>
<image xlink:href="../../images/foreignKeys.png" width="11px" height="12px" preserveAspectRatio="xMinYMin meet" x="227" y="-151"/>
<text text-anchor="start" x="242" y="-142.2" font-family="Helvetica,sans-Serif" font-size="11.00" fill="#000000">creator_id</text>
<polygon fill="none" stroke="#000000" points="490,-134 490,-156 572,-156 572,-134 490,-134"/>
<text text-anchor="start" x="493" y="-142.2" font-family="Helvetica,sans-Serif" font-size="11.00" fill="#000000">int unsigned[10]</text>
<polygon fill="#ffffff" stroke="transparent" points="222,-116 222,-134 334,-134 334,-116 222,-116"/>
<polygon fill="none" stroke="#000000" points="222,-116 222,-134 334,-134 334,-116 222,-116"/>
<text text-anchor="start" x="225" y="-122.2" font-family="Helvetica,sans-Serif" font-size="11.00" fill="#000000">&lt; 3</text>
<polygon fill="#ffffff" stroke="transparent" points="334,-116 334,-134 490,-134 490,-116 334,-116"/>
<polygon fill="none" stroke="#000000" points="334,-116 334,-134 490,-134 490,-116 334,-116"/>
<text text-anchor="start" x="427" y="-122.2" font-family="Helvetica,sans-Serif" font-size="11.00" fill="#000000">10,407 rows</text>
<polygon fill="#ffffff" stroke="transparent" points="490,-116 490,-134 572,-134 572,-116 490,-116"/>
<polygon fill="none" stroke="#000000" points="490,-116 490,-134 572,-134 572,-116 490,-116"/>
<text text-anchor="start" x="553" y="-122.2" font-family="Helvetica,sans-Serif" font-size="11.00" fill="#000000">1 &gt;</text>
<polygon fill="none" stroke="#000000" stroke-width="2" points="221,-115 221,-245 573,-245 573,-115 221,-115"/>
</a>
</g>
</g>
<!-- user -->
<g id="node2" class="node">
<title>user</title>
<g id="a_node2"><a xlink:href="../../tables/user.html" xlink:title="user" target="_top">
<polygon fill="#ffffff" stroke="transparent" points="8,-37 8,-139 171,-139 171,-37 8,-37"/>
<polygon fill="#f5f5f5" stroke="transparent" points="8.5,-117 8.5,-139 171.5,-139 171.5,-117 8.5,-117"/>
<polygon fill="none" stroke="#000000" points="8.5,-117 8.5,-139 171.5,-139 171.5,-117 8.5,-117"/>
<text text-anchor="start" x="13.5" y="-126.2" font-family="Helvetica,sans-Serif" font-weight="bold" font-size="11.00" fill="#000000">user</text>
<text text-anchor="start" x="136.5" y="-125.2" font-family="Helvetica,sans-Serif" font-size="11.00" fill="#000000">[table]</text>
<polygon fill="none" stroke="#000000" points="8.5,-95 8.5,-117 171.5,-117 171.5,-95 8.5,-95"/>
<image xlink:href="../../images/primaryKeys.png" width="11px" height="12px" preserveAspectRatio="xMinYMin meet" x="13.5" y="-112"/>
<text text-anchor="start" x="28.5" y="-103.2" font-family="Helvetica,sans-Serif" font-size="11.00" fill="#000000">user_id</text>
<polygon fill="#ffffff" stroke="transparent" points="8.5,-73 8.5,-95 171.5,-95 171.5,-73 8.5,-73"/>
<polygon fill="none" stroke="#000000" points="8.5,-73 8.5,-95 171.5,-95 171.5,-73 8.5,-73"/>
<text text-anchor="start" x="28.5" y="-81.2" font-family="Helvetica,sans-Serif" font-size="11.00" fill="#000000">email</text>
<polygon fill="none" stroke="#000000" points="8.5,-55 8.5,-73 171.5,-73 171.5,-55 8.5,-55"/>
<text text-anchor="start" x="11.5" y="-61.2" font-family="Helvetica,sans-Serif" font-size="11.00" fill="#000000">...</text>
<polygon fill="#ffffff" stroke="transparent" points="8.5,-37 8.5,-55 62.5,-55 62.5,-37 8.5,-37"/>
<polygon fill="none" stroke="#000000" points="8.5,-37 8.5,-55 62.5,-55 62.5,-37 8.5,-37"/>
<text text-anchor="start" x="11.5" y="-43.2" font-family="Helvetica,sans-Serif" font-size="11.00" fill="#000000"> &#160;</text>
<polygon fill="#ffffff" stroke="transparent" points="62.5,-37 62.5,-55 122.5,-55 122.5,-37 62.5,-37"/>
<polygon fill="none" stroke="#000000" points="62.5,-37 62.5,-55 122.5,-55 122.5,-37 62.5,-37"/>
<text text-anchor="start" x="86.5" y="-43.2" font-family="Helvetica,sans-Serif" font-size="11.00" fill="#000000">3 rows</text>
<polygon fill="#ffffff" stroke="transparent" points="122.5,-37 122.5,-55 171.5,-55 171.5,-37 122.5,-37"/>
<polygon fill="none" stroke="#000000" points="122.5,-37 122.5,-55 171.5,-55 171.5,-37 122.5,-37"/>
<text text-anchor="start" x="146.5" y="-43.2" font-family="Helvetica,sans-Serif" font-size="11.00" fill="#000000">40 &gt;</text>
</a>
</g>
</g>
<!-- position_in_text_fragment_stream&#45;&gt;user -->
<g id="edge1" class="edge">
<title>position_in_text_fragment_stream:w&#45;&gt;user:e</title>
<path fill="none" stroke="#000000" d="M208.0207,-140.5262C194.7259,-130.2822 193.8765,-106 171.5,-106"/>
<polygon fill="#000000" stroke="#000000" points="214.3807,-142.5616 220.9027,-148.4287 218.1903,-143.7808 222,-145 222,-145 222,-145 218.1903,-143.7808 223.0973,-141.5713 214.3807,-142.5616 214.3807,-142.5616"/>
<ellipse fill="none" stroke="#000000" cx="211.3329" cy="-141.5862" rx="3.2" ry="3.2"/>
</g>
<!-- text_fragment -->
<g id="node3" class="node">
<title>text_fragment</title>
<g id="a_node3"><a xlink:href="../../tables/text_fragment.html" xlink:title="text_fragment" target="_top">
<polygon fill="#ffffff" stroke="transparent" points="22,-160 22,-222 157,-222 157,-160 22,-160"/>
<polygon fill="#f5f5f5" stroke="transparent" points="22.5,-200 22.5,-222 157.5,-222 157.5,-200 22.5,-200"/>
<polygon fill="none" stroke="#000000" points="22.5,-200 22.5,-222 157.5,-222 157.5,-200 22.5,-200"/>
<text text-anchor="start" x="27.5" y="-209.2" font-family="Helvetica,sans-Serif" font-weight="bold" font-size="11.00" fill="#000000">text_fragment</text>
<text text-anchor="start" x="122.5" y="-208.2" font-family="Helvetica,sans-Serif" font-size="11.00" fill="#000000">[table]</text>
<polygon fill="none" stroke="#000000" points="22.5,-178 22.5,-200 157.5,-200 157.5,-178 22.5,-178"/>
<image xlink:href="../../images/primaryKeys.png" width="11px" height="12px" preserveAspectRatio="xMinYMin meet" x="27.5" y="-195"/>
<text text-anchor="start" x="42.5" y="-186.2" font-family="Helvetica,sans-Serif" font-size="11.00" fill="#000000">text_fragment_id</text>
<polygon fill="#ffffff" stroke="transparent" points="22.5,-160 22.5,-178 52.5,-178 52.5,-160 22.5,-160"/>
<polygon fill="none" stroke="#000000" points="22.5,-160 22.5,-178 52.5,-178 52.5,-160 22.5,-160"/>
<text text-anchor="start" x="25.5" y="-166.2" font-family="Helvetica,sans-Serif" font-size="11.00" fill="#000000"> &#160;</text>
<polygon fill="#ffffff" stroke="transparent" points="52.5,-160 52.5,-178 126.5,-178 126.5,-160 52.5,-160"/>
<polygon fill="none" stroke="#000000" points="52.5,-160 52.5,-178 126.5,-178 126.5,-160 52.5,-160"/>
<text text-anchor="start" x="63.5" y="-166.2" font-family="Helvetica,sans-Serif" font-size="11.00" fill="#000000">11,176 rows</text>
<polygon fill="#ffffff" stroke="transparent" points="126.5,-160 126.5,-178 157.5,-178 157.5,-160 126.5,-160"/>
<polygon fill="none" stroke="#000000" points="126.5,-160 126.5,-178 157.5,-178 157.5,-160 126.5,-160"/>
<text text-anchor="start" x="138.5" y="-166.2" font-family="Helvetica,sans-Serif" font-size="11.00" fill="#000000">6 &gt;</text>
</a>
</g>
</g>
<!-- position_in_text_fragment_stream&#45;&gt;text_fragment -->
<g id="edge2" class="edge">
<title>position_in_text_fragment_stream:w&#45;&gt;text_fragment:e</title>
<path fill="none" stroke="#000000" d="M207.6575,-168.9524C189.3824,-174.3366 182.2276,-189 157.5,-189"/>
<polygon fill="#000000" stroke="#000000" points="214.0731,-168.0791 222.4856,-170.5671 218.0366,-167.5395 222,-167 222,-167 222,-167 218.0366,-167.5395 221.5144,-163.4329 214.0731,-168.0791 214.0731,-168.0791"/>
<ellipse fill="none" stroke="#000000" cx="210.9023" cy="-168.5107" rx="3.2" ry="3.2"/>
</g>
<!-- position_in_text_fragment_stream&#45;&gt;text_fragment -->
<g id="edge3" class="edge">
<title>position_in_text_fragment_stream:w&#45;&gt;text_fragment:e</title>
<path fill="none" stroke="#000000" d="M207.3432,-189C189.7137,-189 180.5677,-189 157.5,-189"/>
<polygon fill="#000000" stroke="#000000" points="214,-189.0001 222,-192.6 218,-189 222,-189 222,-189 222,-189 218,-189 222,-185.4 214,-189.0001 214,-189.0001"/>
<ellipse fill="none" stroke="#000000" cx="210.8" cy="-189.0001" rx="3.2" ry="3.2"/>
</g>
<!-- position_in_text_fragment_stream_owner -->
<g id="node4" class="node">
<title>position_in_text_fragment_stream_owner</title>
<g id="a_node4"><a xlink:href="../../tables/position_in_text_fragment_stream_owner.html" xlink:title="position_in_text_fragment_stream_owner" target="_top">
<polygon fill="#ffffff" stroke="transparent" points="623,-120 623,-244 920,-244 920,-120 623,-120"/>
<polygon fill="#f5f5f5" stroke="transparent" points="623.5,-222 623.5,-244 920.5,-244 920.5,-222 623.5,-222"/>
<polygon fill="none" stroke="#000000" points="623.5,-222 623.5,-244 920.5,-244 920.5,-222 623.5,-222"/>
<text text-anchor="start" x="628.5" y="-231.2" font-family="Helvetica,sans-Serif" font-weight="bold" font-size="11.00" fill="#000000">position_in_text_fragment_stream_owner</text>
<text text-anchor="start" x="885.5" y="-230.2" font-family="Helvetica,sans-Serif" font-size="11.00" fill="#000000">[table]</text>
<polygon fill="none" stroke="#000000" points="623.5,-200 623.5,-222 920.5,-222 920.5,-200 623.5,-200"/>
<image xlink:href="../../images/primaryKeys.png" width="11px" height="12px" preserveAspectRatio="xMinYMin meet" x="628.5" y="-217"/>
<text text-anchor="start" x="643.5" y="-208.2" font-family="Helvetica,sans-Serif" font-size="11.00" fill="#000000">position_in_text_fragment_stream_id</text>
<polygon fill="none" stroke="#000000" points="623.5,-178 623.5,-200 920.5,-200 920.5,-178 623.5,-178"/>
<image xlink:href="../../images/primaryKeys.png" width="11px" height="12px" preserveAspectRatio="xMinYMin meet" x="628.5" y="-195"/>
<text text-anchor="start" x="643.5" y="-186.2" font-family="Helvetica,sans-Serif" font-size="11.00" fill="#000000">edition_id</text>
<polygon fill="#ffffff" stroke="transparent" points="623.5,-156 623.5,-178 920.5,-178 920.5,-156 623.5,-156"/>
<polygon fill="none" stroke="#000000" points="623.5,-156 623.5,-178 920.5,-178 920.5,-156 623.5,-156"/>
<image xlink:href="../../images/foreignKeys.png" width="11px" height="12px" preserveAspectRatio="xMinYMin meet" x="628.5" y="-173"/>
<text text-anchor="start" x="643.5" y="-164.2" font-family="Helvetica,sans-Serif" font-size="11.00" fill="#000000">edition_editor_id</text>
<polygon fill="none" stroke="#000000" points="623.5,-138 623.5,-156 920.5,-156 920.5,-138 623.5,-138"/>
<text text-anchor="start" x="626.5" y="-144.2" font-family="Helvetica,sans-Serif" font-size="11.00" fill="#000000">...</text>
<polygon fill="#ffffff" stroke="transparent" points="623.5,-120 623.5,-138 743.5,-138 743.5,-120 623.5,-120"/>
<polygon fill="none" stroke="#000000" points="623.5,-120 623.5,-138 743.5,-138 743.5,-120 623.5,-120"/>
<text text-anchor="start" x="626.5" y="-126.2" font-family="Helvetica,sans-Serif" font-size="11.00" fill="#000000">&lt; 3</text>
<polygon fill="#ffffff" stroke="transparent" points="743.5,-120 743.5,-138 858.5,-138 858.5,-120 743.5,-120"/>
<polygon fill="none" stroke="#000000" points="743.5,-120 743.5,-138 858.5,-138 858.5,-120 743.5,-120"/>
<text text-anchor="start" x="795.5" y="-126.2" font-family="Helvetica,sans-Serif" font-size="11.00" fill="#000000">10,450 rows</text>
<polygon fill="#ffffff" stroke="transparent" points="858.5,-120 858.5,-138 920.5,-138 920.5,-120 858.5,-120"/>
<polygon fill="none" stroke="#000000" points="858.5,-120 858.5,-138 920.5,-138 920.5,-120 858.5,-120"/>
<text text-anchor="start" x="910.5" y="-126.2" font-family="Helvetica,sans-Serif" font-size="11.00" fill="#000000"> &#160;</text>
</a>
</g>
</g>
<!-- position_in_text_fragment_stream_owner&#45;&gt;position_in_text_fragment_stream -->
<g id="edge4" class="edge">
<title>position_in_text_fragment_stream_owner:w&#45;&gt;position_in_text_fragment_stream:e</title>
<path fill="none" stroke="#000000" d="M609.0156,-211C596.6771,-211 589.1667,-211 572,-211"/>
<polygon fill="#000000" stroke="#000000" points="615.5,-211.0001 623.5,-214.6 619.5,-211 623.5,-211 623.5,-211 623.5,-211 619.5,-211 623.5,-207.4 615.5,-211.0001 615.5,-211.0001"/>
<ellipse fill="none" stroke="#000000" cx="612.3" cy="-211.0001" rx="3.2" ry="3.2"/>
</g>
</g>
</svg>
