<?xml version="1.0" encoding="UTF-8" standalone="no"?>
<!DOCTYPE svg PUBLIC "-//W3C//DTD SVG 1.1//EN"
 "http://www.w3.org/Graphics/SVG/1.1/DTD/svg11.dtd">
<!-- Generated by graphviz version 2.43.0 (0)
 -->
<!-- Title: oneDegreeRelationshipsDiagram Pages: 1 -->
<svg width="758pt" height="327pt"
 viewBox="0.00 0.00 758.00 327.00" xmlns="http://www.w3.org/2000/svg" xmlns:xlink="http://www.w3.org/1999/xlink">
<g id="graph0" class="graph" transform="scale(1 1) rotate(0) translate(4 323)">
<title>oneDegreeRelationshipsDiagram</title>
<polygon fill="#ffffff" stroke="transparent" points="-4,4 -4,-323 754,-323 754,4 -4,4"/>
<text text-anchor="middle" x="79.5" y="-7.2" font-family="Helvetica,sans-Serif" font-size="11.00">Generated by SchemaSpy</text>
<!-- edition_editor -->
<g id="node1" class="node">
<title>edition_editor</title>
<g id="a_node1"><a xlink:href="../../tables/edition_editor.html" xlink:title="edition_editor" target="_top">
<polygon fill="#ffffff" stroke="transparent" points="226.5,-37 226.5,-161 362.5,-161 362.5,-37 226.5,-37"/>
<polygon fill="#f5f5f5" stroke="transparent" points="226.5,-139 226.5,-161 362.5,-161 362.5,-139 226.5,-139"/>
<polygon fill="none" stroke="black" points="226.5,-139 226.5,-161 362.5,-161 362.5,-139 226.5,-139"/>
<text text-anchor="start" x="231.5" y="-148.2" font-family="Helvetica,sans-Serif" font-weight="bold" font-size="11.00">edition_editor</text>
<text text-anchor="start" x="320.5" y="-147.2" font-family="Helvetica,sans-Serif" font-size="11.00">[table]</text>
<polygon fill="none" stroke="black" points="226.5,-117 226.5,-139 362.5,-139 362.5,-117 226.5,-117"/>
<image xlink:href="../../images/primaryKeys.png" width="11px" height="12px" preserveAspectRatio="xMinYMin meet" x="231.5" y="-134"/>
<text text-anchor="start" x="248.5" y="-125.2" font-family="Helvetica,sans-Serif" font-size="11.00">edition_editor_id</text>
<polygon fill="#ffffff" stroke="transparent" points="226.5,-95 226.5,-117 362.5,-117 362.5,-95 226.5,-95"/>
<polygon fill="none" stroke="black" points="226.5,-95 226.5,-117 362.5,-117 362.5,-95 226.5,-95"/>
<image xlink:href="../../images/foreignKeys.png" width="11px" height="12px" preserveAspectRatio="xMinYMin meet" x="231.5" y="-112"/>
<text text-anchor="start" x="248.5" y="-103.2" font-family="Helvetica,sans-Serif" font-size="11.00">user_id</text>
<polygon fill="#ffffff" stroke="transparent" points="226.5,-73 226.5,-95 362.5,-95 362.5,-73 226.5,-73"/>
<polygon fill="none" stroke="black" points="226.5,-73 226.5,-95 362.5,-95 362.5,-73 226.5,-73"/>
<image xlink:href="../../images/foreignKeys.png" width="11px" height="12px" preserveAspectRatio="xMinYMin meet" x="231.5" y="-90"/>
<text text-anchor="start" x="248.5" y="-81.2" font-family="Helvetica,sans-Serif" font-size="11.00">edition_id</text>
<polygon fill="none" stroke="black" points="226.5,-55 226.5,-73 362.5,-73 362.5,-55 226.5,-55"/>
<text text-anchor="start" x="229.5" y="-61.2" font-family="Helvetica,sans-Serif" font-size="11.00">...</text>
<polygon fill="#ffffff" stroke="transparent" points="226.5,-37 226.5,-55 257.5,-55 257.5,-37 226.5,-37"/>
<polygon fill="none" stroke="black" points="226.5,-37 226.5,-55 257.5,-55 257.5,-37 226.5,-37"/>
<text text-anchor="start" x="229.5" y="-43.2" font-family="Helvetica,sans-Serif" font-size="11.00">&lt; 2</text>
<polygon fill="#ffffff" stroke="transparent" points="257.5,-37 257.5,-55 326.5,-55 326.5,-37 257.5,-37"/>
<polygon fill="none" stroke="black" points="257.5,-37 257.5,-55 326.5,-55 326.5,-37 257.5,-37"/>
<text text-anchor="start" x="262.5" y="-43.2" font-family="Helvetica,sans-Serif" font-size="11.00">1,645 rows</text>
<polygon fill="#ffffff" stroke="transparent" points="326.5,-37 326.5,-55 362.5,-55 362.5,-37 326.5,-37"/>
<polygon fill="none" stroke="black" points="326.5,-37 326.5,-55 362.5,-55 362.5,-37 326.5,-37"/>
<text text-anchor="start" x="332.5" y="-43.2" font-family="Helvetica,sans-Serif" font-size="11.00">33 &gt;</text>
</a>
</g>
</g>
<!-- edition -->
<g id="node2" class="node">
<title>edition</title>
<g id="a_node2"><a xlink:href="../../tables/edition.html" xlink:title="edition" target="_top">
<polygon fill="#ffffff" stroke="transparent" points="8,-65 8,-167 143,-167 143,-65 8,-65"/>
<polygon fill="#f5f5f5" stroke="transparent" points="8.5,-145 8.5,-167 143.5,-167 143.5,-145 8.5,-145"/>
<polygon fill="none" stroke="black" points="8.5,-145 8.5,-167 143.5,-167 143.5,-145 8.5,-145"/>
<text text-anchor="start" x="13.5" y="-154.2" font-family="Helvetica,sans-Serif" font-weight="bold" font-size="11.00">edition</text>
<text text-anchor="start" x="101.5" y="-153.2" font-family="Helvetica,sans-Serif" font-size="11.00">[table]</text>
<polygon fill="none" stroke="black" points="8.5,-123 8.5,-145 143.5,-145 143.5,-123 8.5,-123"/>
<image xlink:href="../../images/primaryKeys.png" width="11px" height="12px" preserveAspectRatio="xMinYMin meet" x="13.5" y="-140"/>
<text text-anchor="start" x="28.5" y="-131.2" font-family="Helvetica,sans-Serif" font-size="11.00">edition_id</text>
<polygon fill="#ffffff" stroke="transparent" points="8.5,-101 8.5,-123 143.5,-123 143.5,-101 8.5,-101"/>
<polygon fill="none" stroke="black" points="8.5,-101 8.5,-123 143.5,-123 143.5,-101 8.5,-101"/>
<image xlink:href="../../images/foreignKeys.png" width="11px" height="12px" preserveAspectRatio="xMinYMin meet" x="13.5" y="-118"/>
<text text-anchor="start" x="28.5" y="-109.2" font-family="Helvetica,sans-Serif" font-size="11.00">manuscript_id</text>
<polygon fill="none" stroke="black" points="8.5,-83 8.5,-101 143.5,-101 143.5,-83 8.5,-83"/>
<text text-anchor="start" x="11.5" y="-89.2" font-family="Helvetica,sans-Serif" font-size="11.00">...</text>
<polygon fill="#ffffff" stroke="transparent" points="8.5,-65 8.5,-83 38.5,-83 38.5,-65 8.5,-65"/>
<polygon fill="none" stroke="black" points="8.5,-65 8.5,-83 38.5,-83 38.5,-65 8.5,-65"/>
<text text-anchor="start" x="11.5" y="-71.2" font-family="Helvetica,sans-Serif" font-size="11.00">&lt; 1</text>
<polygon fill="#ffffff" stroke="transparent" points="38.5,-65 38.5,-83 107.5,-83 107.5,-65 38.5,-65"/>
<polygon fill="none" stroke="black" points="38.5,-65 38.5,-83 107.5,-83 107.5,-65 38.5,-65"/>
<text text-anchor="start" x="43.5" y="-71.2" font-family="Helvetica,sans-Serif" font-size="11.00">1,645 rows</text>
<polygon fill="#ffffff" stroke="transparent" points="107.5,-65 107.5,-83 143.5,-83 143.5,-65 107.5,-65"/>
<polygon fill="none" stroke="black" points="107.5,-65 107.5,-83 143.5,-83 143.5,-65 107.5,-65"/>
<text text-anchor="start" x="113.5" y="-71.2" font-family="Helvetica,sans-Serif" font-size="11.00">35 &gt;</text>
</a>
</g>
</g>
<!-- edition_editor&#45;&gt;edition -->
<g id="edge1" class="edge">
<title>edition_editor:w&#45;&gt;edition:e</title>
<path fill="none" stroke="black" d="M211.23,-86.28C183.36,-96.06 181.35,-134 144.5,-134"/>
<polygon fill="black" stroke="black" points="217.6,-85.26 226.07,-87.55 221.55,-84.63 225.5,-84 225.5,-84 225.5,-84 221.55,-84.63 224.93,-80.45 217.6,-85.26 217.6,-85.26"/>
<ellipse fill="none" stroke="black" cx="214.44" cy="-85.77" rx="3.2" ry="3.2"/>
</g>
<!-- position_in_stream_owner -->
<g id="node3" class="node">
<title>position_in_stream_owner</title>
<g id="a_node3"><a xlink:href="../../tables/position_in_stream_owner.html" xlink:title="position_in_stream_owner" target="_top">
<polygon fill="#ffffff" stroke="transparent" points="446,-110 446,-242 742,-242 742,-110 446,-110"/>
<polygon fill="#f5f5f5" stroke="transparent" points="448,-218 448,-240 740,-240 740,-218 448,-218"/>
<polygon fill="none" stroke="black" points="448,-218 448,-240 740,-240 740,-218 448,-218"/>
<text text-anchor="start" x="453" y="-227.2" font-family="Helvetica,sans-Serif" font-weight="bold" font-size="11.00">position_in_stream_owner</text>
<text text-anchor="start" x="698" y="-226.2" font-family="Helvetica,sans-Serif" font-size="11.00">[table]</text>
<polygon fill="none" stroke="black" points="448,-196 448,-218 643,-218 643,-196 448,-196"/>
<image xlink:href="../../images/primaryKeys.png" width="11px" height="12px" preserveAspectRatio="xMinYMin meet" x="453" y="-213"/>
<text text-anchor="start" x="468" y="-204.2" font-family="Helvetica,sans-Serif" font-size="11.00">position_in_stream_id</text>
<polygon fill="none" stroke="black" points="643,-196 643,-218 740,-218 740,-196 643,-196"/>
<text text-anchor="start" x="646" y="-204.2" font-family="Helvetica,sans-Serif" font-size="11.00">int unsigned[10]</text>
<polygon fill="none" stroke="black" points="448,-174 448,-196 643,-196 643,-174 448,-174"/>
<image xlink:href="../../images/primaryKeys.png" width="11px" height="12px" preserveAspectRatio="xMinYMin meet" x="453" y="-191"/>
<text text-anchor="start" x="468" y="-182.2" font-family="Helvetica,sans-Serif" font-size="11.00">edition_id</text>
<polygon fill="none" stroke="black" points="643,-174 643,-196 740,-196 740,-174 643,-174"/>
<text text-anchor="start" x="646" y="-182.2" font-family="Helvetica,sans-Serif" font-size="11.00">int unsigned[10]</text>
<polygon fill="#ffffff" stroke="transparent" points="448,-152 448,-174 643,-174 643,-152 448,-152"/>
<polygon fill="none" stroke="black" points="448,-152 448,-174 643,-174 643,-152 448,-152"/>
<image xlink:href="../../images/foreignKeys.png" width="11px" height="12px" preserveAspectRatio="xMinYMin meet" x="453" y="-169"/>
<text text-anchor="start" x="468" y="-160.2" font-family="Helvetica,sans-Serif" font-size="11.00">edition_editor_id</text>
<polygon fill="none" stroke="black" points="643,-152 643,-174 740,-174 740,-152 643,-152"/>
<text text-anchor="start" x="646" y="-160.2" font-family="Helvetica,sans-Serif" font-size="11.00">int unsigned[10]</text>
<polygon fill="none" stroke="black" points="448,-130 448,-152 643,-152 643,-130 448,-130"/>
<text text-anchor="start" x="468" y="-138.2" font-family="Helvetica,sans-Serif" font-size="11.00">is_main</text>
<polygon fill="none" stroke="black" points="643,-130 643,-152 740,-152 740,-130 643,-130"/>
<text text-anchor="start" x="646" y="-138.2" font-family="Helvetica,sans-Serif" font-size="11.00">bit[3]</text>
<polygon fill="#ffffff" stroke="transparent" points="448,-112 448,-130 513,-130 513,-112 448,-112"/>
<polygon fill="none" stroke="black" points="448,-112 448,-130 513,-130 513,-112 448,-112"/>
<text text-anchor="start" x="451" y="-118.2" font-family="Helvetica,sans-Serif" font-size="11.00">&lt; 3</text>
<polygon fill="#ffffff" stroke="transparent" points="513,-112 513,-130 643,-130 643,-112 513,-112"/>
<polygon fill="none" stroke="black" points="513,-112 513,-130 643,-130 643,-112 513,-112"/>
<text text-anchor="start" x="555" y="-118.2" font-family="Helvetica,sans-Serif" font-size="11.00">1,719,776 rows</text>
<polygon fill="#ffffff" stroke="transparent" points="643,-112 643,-130 740,-130 740,-112 643,-112"/>
<polygon fill="none" stroke="black" points="643,-112 643,-130 740,-130 740,-112 643,-112"/>
<text text-anchor="start" x="717" y="-118.2" font-family="Helvetica,sans-Serif" font-size="11.00">0 &gt;</text>
<polygon fill="none" stroke="black" stroke-width="2" points="447,-111 447,-241 741,-241 741,-111 447,-111"/>
</a>
</g>
</g>
<!-- position_in_stream_owner&#45;&gt;edition_editor -->
<g id="edge2" class="edge">
<title>position_in_stream_owner:w&#45;&gt;edition_editor:e</title>
<path fill="none" stroke="black" d="M432.39,-161.22C405.24,-154.08 398.24,-128 363.5,-128"/>
<polygon fill="black" stroke="black" points="439.06,-162.03 446.56,-166.57 443.03,-162.52 447,-163 447,-163 447,-163 443.03,-162.52 447.44,-159.43 439.06,-162.03 439.06,-162.03"/>
<ellipse fill="none" stroke="black" cx="435.88" cy="-161.64" rx="3.2" ry="3.2"/>
</g>
<!-- position_in_stream_owner&#45;&gt;edition -->
<g id="edge3" class="edge">
<title>position_in_stream_owner:w&#45;&gt;edition:e</title>
<path fill="none" stroke="black" d="M432.34,-185.18C326.53,-187.72 286.82,-216.41 184,-172 161.64,-162.34 168.86,-134 144.5,-134"/>
<polygon fill="black" stroke="black" points="439,-185.1 447.04,-188.6 443,-185.05 447,-185 447,-185 447,-185 443,-185.05 446.96,-181.4 439,-185.1 439,-185.1"/>
<ellipse fill="none" stroke="black" cx="435.8" cy="-185.13" rx="3.2" ry="3.2"/>
</g>
<!-- position_in_stream -->
<g id="node4" class="node">
<title>position_in_stream</title>
<g id="a_node4"><a xlink:href="../../tables/position_in_stream.html" xlink:title="position_in_stream" target="_top">
<polygon fill="#ffffff" stroke="transparent" points="192,-209 192,-315 397,-315 397,-209 192,-209"/>
<polygon fill="#f5f5f5" stroke="transparent" points="192.5,-293 192.5,-315 397.5,-315 397.5,-293 192.5,-293"/>
<polygon fill="none" stroke="black" points="192.5,-293 192.5,-315 397.5,-315 397.5,-293 192.5,-293"/>
<text text-anchor="start" x="197.5" y="-302.2" font-family="Helvetica,sans-Serif" font-weight="bold" font-size="11.00">position_in_stream</text>
<text text-anchor="start" x="355.5" y="-301.2" font-family="Helvetica,sans-Serif" font-size="11.00">[table]</text>
<polygon fill="none" stroke="black" points="192.5,-271 192.5,-293 397.5,-293 397.5,-271 192.5,-271"/>
<image xlink:href="../../images/primaryKeys.png" width="11px" height="12px" preserveAspectRatio="xMinYMin meet" x="197.5" y="-288"/>
<text text-anchor="start" x="212.5" y="-279.2" font-family="Helvetica,sans-Serif" font-size="11.00">position_in_stream_id</text>
<polygon fill="#ffffff" stroke="transparent" points="192.5,-249 192.5,-271 397.5,-271 397.5,-249 192.5,-249"/>
<polygon fill="none" stroke="black" points="192.5,-249 192.5,-271 397.5,-271 397.5,-249 192.5,-249"/>
<image xlink:href="../../images/foreignKeys.png" width="11px" height="12px" preserveAspectRatio="xMinYMin meet" x="197.5" y="-266"/>
<text text-anchor="start" x="212.5" y="-257.2" font-family="Helvetica,sans-Serif" font-size="11.00">sign_interpretation_id</text>
<polygon fill="#ffffff" stroke="transparent" points="192.5,-227 192.5,-249 397.5,-249 397.5,-227 192.5,-227"/>
<polygon fill="none" stroke="black" points="192.5,-227 192.5,-249 397.5,-249 397.5,-227 192.5,-227"/>
<image xlink:href="../../images/foreignKeys.png" width="11px" height="12px" preserveAspectRatio="xMinYMin meet" x="197.5" y="-244"/>
<text text-anchor="start" x="212.5" y="-235.2" font-family="Helvetica,sans-Serif" font-size="11.00">next_sign_interpretation_id</text>
<polygon fill="#ffffff" stroke="transparent" points="192.5,-209 192.5,-227 249.5,-227 249.5,-209 192.5,-209"/>
<polygon fill="none" stroke="black" points="192.5,-209 192.5,-227 249.5,-227 249.5,-209 192.5,-209"/>
<text text-anchor="start" x="195.5" y="-215.2" font-family="Helvetica,sans-Serif" font-size="11.00">&lt; 2</text>
<polygon fill="#ffffff" stroke="transparent" points="249.5,-209 249.5,-227 355.5,-227 355.5,-209 249.5,-209"/>
<polygon fill="none" stroke="black" points="249.5,-209 249.5,-227 355.5,-227 355.5,-209 249.5,-209"/>
<text text-anchor="start" x="267.5" y="-215.2" font-family="Helvetica,sans-Serif" font-size="11.00">1,719,776 rows</text>
<polygon fill="#ffffff" stroke="transparent" points="355.5,-209 355.5,-227 397.5,-227 397.5,-209 355.5,-209"/>
<polygon fill="none" stroke="black" points="355.5,-209 355.5,-227 397.5,-227 397.5,-209 355.5,-209"/>
<text text-anchor="start" x="374.5" y="-215.2" font-family="Helvetica,sans-Serif" font-size="11.00">2 &gt;</text>
</a>
</g>
</g>
<!-- position_in_stream_owner&#45;&gt;position_in_stream -->
<g id="edge4" class="edge">
<title>position_in_stream_owner:w&#45;&gt;position_in_stream:e</title>
<path fill="none" stroke="black" d="M433.27,-211.69C415.08,-228.11 432.15,-282 398.5,-282"/>
<polygon fill="black" stroke="black" points="439.43,-209.59 448.16,-210.41 443.21,-208.29 447,-207 447,-207 447,-207 443.21,-208.29 445.84,-203.59 439.43,-209.59 439.43,-209.59"/>
<ellipse fill="none" stroke="black" cx="436.4" cy="-210.62" rx="3.2" ry="3.2"/>
</g>
</g>
</svg>
