<?xml version="1.0" encoding="UTF-8" standalone="no"?>
<!DOCTYPE svg PUBLIC "-//W3C//DTD SVG 1.1//EN"
 "http://www.w3.org/Graphics/SVG/1.1/DTD/svg11.dtd">
<!-- Generated by graphviz version 2.43.0 (0)
 -->
<!-- Title: twoDegreesRelationshipsDiagram Pages: 1 -->
<svg width="844pt" height="453pt"
 viewBox="0.00 0.00 844.00 453.00" xmlns="http://www.w3.org/2000/svg" xmlns:xlink="http://www.w3.org/1999/xlink">
<g id="graph0" class="graph" transform="scale(1 1) rotate(0) translate(4 449)">
<title>twoDegreesRelationshipsDiagram</title>
<polygon fill="#ffffff" stroke="transparent" points="-4,4 -4,-449 840,-449 840,4 -4,4"/>
<text text-anchor="middle" x="79.5" y="-7.2" font-family="Helvetica,sans-Serif" font-size="11.00">Generated by SchemaSpy</text>
<!-- parallel_sign_stream_section -->
<g id="node1" class="node">
<title>parallel_sign_stream_section</title>
<g id="a_node1"><a xlink:href="../../tables/parallel_sign_stream_section.html" xlink:title="parallel_sign_stream_section" target="_top">
<polygon fill="#ffffff" stroke="transparent" points="540,-383 540,-441 768,-441 768,-383 540,-383"/>
<polygon fill="#f5f5f5" stroke="transparent" points="540,-419 540,-441 768,-441 768,-419 540,-419"/>
<polygon fill="none" stroke="black" points="540,-419 540,-441 768,-441 768,-419 540,-419"/>
<text text-anchor="start" x="545" y="-428.2" font-family="Helvetica,sans-Serif" font-weight="bold" font-size="11.00">parallel_sign_stream_section</text>
<text text-anchor="start" x="726" y="-427.2" font-family="Helvetica,sans-Serif" font-size="11.00">[table]</text>
<polygon fill="none" stroke="black" points="540,-401 540,-419 768,-419 768,-401 540,-401"/>
<text text-anchor="start" x="543" y="-407.2" font-family="Helvetica,sans-Serif" font-size="11.00">...</text>
<polygon fill="#ffffff" stroke="transparent" points="540,-383 540,-401 632,-401 632,-383 540,-383"/>
<polygon fill="none" stroke="black" points="540,-383 540,-401 632,-401 632,-383 540,-383"/>
<text text-anchor="start" x="543" y="-389.2" font-family="Helvetica,sans-Serif" font-size="11.00">&lt; 2</text>
<polygon fill="#ffffff" stroke="transparent" points="632,-383 632,-401 708,-401 708,-383 632,-383"/>
<polygon fill="none" stroke="black" points="632,-383 632,-401 708,-401 708,-383 632,-383"/>
<text text-anchor="start" x="668" y="-389.2" font-family="Helvetica,sans-Serif" font-size="11.00">0 rows</text>
<polygon fill="#ffffff" stroke="transparent" points="708,-383 708,-401 768,-401 768,-383 708,-383"/>
<polygon fill="none" stroke="black" points="708,-383 708,-401 768,-401 768,-383 708,-383"/>
<text text-anchor="start" x="745" y="-389.2" font-family="Helvetica,sans-Serif" font-size="11.00">1 &gt;</text>
</a>
</g>
</g>
<!-- sign_stream_section -->
<g id="node2" class="node">
<title>sign_stream_section</title>
<g id="a_node2"><a xlink:href="../../tables/sign_stream_section.html" xlink:title="sign_stream_section" target="_top">
<polygon fill="#ffffff" stroke="transparent" points="240.5,-244 240.5,-324 416.5,-324 416.5,-244 240.5,-244"/>
<polygon fill="#f5f5f5" stroke="transparent" points="240.5,-302 240.5,-324 416.5,-324 416.5,-302 240.5,-302"/>
<polygon fill="none" stroke="black" points="240.5,-302 240.5,-324 416.5,-324 416.5,-302 240.5,-302"/>
<text text-anchor="start" x="245.5" y="-311.2" font-family="Helvetica,sans-Serif" font-weight="bold" font-size="11.00">sign_stream_section</text>
<text text-anchor="start" x="374.5" y="-310.2" font-family="Helvetica,sans-Serif" font-size="11.00">[table]</text>
<polygon fill="none" stroke="black" points="240.5,-280 240.5,-302 416.5,-302 416.5,-280 240.5,-280"/>
<image xlink:href="../../images/primaryKeys.png" width="11px" height="12px" preserveAspectRatio="xMinYMin meet" x="245.5" y="-297"/>
<text text-anchor="start" x="260.5" y="-288.2" font-family="Helvetica,sans-Serif" font-size="11.00">sign_stream_section_id</text>
<polygon fill="none" stroke="black" points="240.5,-262 240.5,-280 416.5,-280 416.5,-262 240.5,-262"/>
<text text-anchor="start" x="243.5" y="-268.2" font-family="Helvetica,sans-Serif" font-size="11.00">...</text>
<polygon fill="#ffffff" stroke="transparent" points="240.5,-244 240.5,-262 300.5,-262 300.5,-244 240.5,-244"/>
<polygon fill="none" stroke="black" points="240.5,-244 240.5,-262 300.5,-262 300.5,-244 240.5,-244"/>
<text text-anchor="start" x="243.5" y="-250.2" font-family="Helvetica,sans-Serif" font-size="11.00"> &#160;</text>
<polygon fill="#ffffff" stroke="transparent" points="300.5,-244 300.5,-262 366.5,-262 366.5,-244 300.5,-244"/>
<polygon fill="none" stroke="black" points="300.5,-244 300.5,-262 366.5,-262 366.5,-244 300.5,-244"/>
<text text-anchor="start" x="326.5" y="-250.2" font-family="Helvetica,sans-Serif" font-size="11.00">2 rows</text>
<polygon fill="#ffffff" stroke="transparent" points="366.5,-244 366.5,-262 416.5,-262 416.5,-244 366.5,-244"/>
<polygon fill="none" stroke="black" points="366.5,-244 366.5,-262 416.5,-262 416.5,-244 366.5,-244"/>
<text text-anchor="start" x="393.5" y="-250.2" font-family="Helvetica,sans-Serif" font-size="11.00">4 &gt;</text>
</a>
</g>
</g>
<!-- parallel_sign_stream_section&#45;&gt;sign_stream_section -->
<g id="edge1" class="edge">
<title>parallel_sign_stream_section:w&#45;&gt;sign_stream_section:e</title>
<path fill="none" stroke="black" d="M524.48,-408.95C501.99,-405.3 493.01,-392.36 472,-373 439.81,-343.35 461.26,-291 417.5,-291"/>
<polygon fill="black" stroke="black" points="531.02,-409.42 538.74,-413.59 535.01,-409.71 539,-410 539,-410 539,-410 535.01,-409.71 539.26,-406.41 531.02,-409.42 531.02,-409.42"/>
<ellipse fill="none" stroke="black" cx="527.83" cy="-409.19" rx="3.2" ry="3.2"/>
</g>
<!-- position_in_stream -->
<g id="node3" class="node">
<title>position_in_stream</title>
<g id="a_node3"><a xlink:href="../../tables/position_in_stream.html" xlink:title="position_in_stream" target="_top">
<polygon fill="#ffffff" stroke="transparent" points="226,-43 226,-149 431,-149 431,-43 226,-43"/>
<polygon fill="#f5f5f5" stroke="transparent" points="226.5,-127 226.5,-149 431.5,-149 431.5,-127 226.5,-127"/>
<polygon fill="none" stroke="black" points="226.5,-127 226.5,-149 431.5,-149 431.5,-127 226.5,-127"/>
<text text-anchor="start" x="231.5" y="-136.2" font-family="Helvetica,sans-Serif" font-weight="bold" font-size="11.00">position_in_stream</text>
<text text-anchor="start" x="389.5" y="-135.2" font-family="Helvetica,sans-Serif" font-size="11.00">[table]</text>
<polygon fill="none" stroke="black" points="226.5,-105 226.5,-127 431.5,-127 431.5,-105 226.5,-105"/>
<image xlink:href="../../images/primaryKeys.png" width="11px" height="12px" preserveAspectRatio="xMinYMin meet" x="231.5" y="-122"/>
<text text-anchor="start" x="246.5" y="-113.2" font-family="Helvetica,sans-Serif" font-size="11.00">position_in_stream_id</text>
<polygon fill="#ffffff" stroke="transparent" points="226.5,-83 226.5,-105 431.5,-105 431.5,-83 226.5,-83"/>
<polygon fill="none" stroke="black" points="226.5,-83 226.5,-105 431.5,-105 431.5,-83 226.5,-83"/>
<image xlink:href="../../images/foreignKeys.png" width="11px" height="12px" preserveAspectRatio="xMinYMin meet" x="231.5" y="-100"/>
<text text-anchor="start" x="246.5" y="-91.2" font-family="Helvetica,sans-Serif" font-size="11.00">sign_interpretation_id</text>
<polygon fill="#ffffff" stroke="transparent" points="226.5,-61 226.5,-83 431.5,-83 431.5,-61 226.5,-61"/>
<polygon fill="none" stroke="black" points="226.5,-61 226.5,-83 431.5,-83 431.5,-61 226.5,-61"/>
<image xlink:href="../../images/foreignKeys.png" width="11px" height="12px" preserveAspectRatio="xMinYMin meet" x="231.5" y="-78"/>
<text text-anchor="start" x="246.5" y="-69.2" font-family="Helvetica,sans-Serif" font-size="11.00">next_sign_interpretation_id</text>
<polygon fill="#ffffff" stroke="transparent" points="226.5,-43 226.5,-61 283.5,-61 283.5,-43 226.5,-43"/>
<polygon fill="none" stroke="black" points="226.5,-43 226.5,-61 283.5,-61 283.5,-43 226.5,-43"/>
<text text-anchor="start" x="229.5" y="-49.2" font-family="Helvetica,sans-Serif" font-size="11.00">&lt; 2</text>
<polygon fill="#ffffff" stroke="transparent" points="283.5,-43 283.5,-61 389.5,-61 389.5,-43 283.5,-43"/>
<polygon fill="none" stroke="black" points="283.5,-43 283.5,-61 389.5,-61 389.5,-43 283.5,-43"/>
<text text-anchor="start" x="301.5" y="-49.2" font-family="Helvetica,sans-Serif" font-size="11.00">1,719,776 rows</text>
<polygon fill="#ffffff" stroke="transparent" points="389.5,-43 389.5,-61 431.5,-61 431.5,-43 389.5,-43"/>
<polygon fill="none" stroke="black" points="389.5,-43 389.5,-61 431.5,-61 431.5,-43 389.5,-43"/>
<text text-anchor="start" x="408.5" y="-49.2" font-family="Helvetica,sans-Serif" font-size="11.00">2 &gt;</text>
</a>
</g>
</g>
<!-- sign_interpretation -->
<g id="node4" class="node">
<title>sign_interpretation</title>
<g id="a_node4"><a xlink:href="../../tables/sign_interpretation.html" xlink:title="sign_interpretation" target="_top">
<polygon fill="#ffffff" stroke="transparent" points="8,-56 8,-114 177,-114 177,-56 8,-56"/>
<polygon fill="#f5f5f5" stroke="transparent" points="8.5,-92 8.5,-114 177.5,-114 177.5,-92 8.5,-92"/>
<polygon fill="none" stroke="black" points="8.5,-92 8.5,-114 177.5,-114 177.5,-92 8.5,-92"/>
<text text-anchor="start" x="13.5" y="-101.2" font-family="Helvetica,sans-Serif" font-weight="bold" font-size="11.00">sign_interpretation</text>
<text text-anchor="start" x="135.5" y="-100.2" font-family="Helvetica,sans-Serif" font-size="11.00">[table]</text>
<polygon fill="none" stroke="black" points="8.5,-74 8.5,-92 177.5,-92 177.5,-74 8.5,-74"/>
<text text-anchor="start" x="11.5" y="-80.2" font-family="Helvetica,sans-Serif" font-size="11.00">...</text>
<polygon fill="#ffffff" stroke="transparent" points="8.5,-56 8.5,-74 47.5,-74 47.5,-56 8.5,-56"/>
<polygon fill="none" stroke="black" points="8.5,-56 8.5,-74 47.5,-74 47.5,-56 8.5,-56"/>
<text text-anchor="start" x="11.5" y="-62.2" font-family="Helvetica,sans-Serif" font-size="11.00">&lt; 1</text>
<polygon fill="#ffffff" stroke="transparent" points="47.5,-56 47.5,-74 144.5,-74 144.5,-56 47.5,-56"/>
<polygon fill="none" stroke="black" points="47.5,-56 47.5,-74 144.5,-74 144.5,-56 47.5,-56"/>
<text text-anchor="start" x="56.5" y="-62.2" font-family="Helvetica,sans-Serif" font-size="11.00">1,189,027 rows</text>
<polygon fill="#ffffff" stroke="transparent" points="144.5,-56 144.5,-74 177.5,-74 177.5,-56 144.5,-56"/>
<polygon fill="none" stroke="black" points="144.5,-56 144.5,-74 177.5,-74 177.5,-56 144.5,-56"/>
<text text-anchor="start" x="154.5" y="-62.2" font-family="Helvetica,sans-Serif" font-size="11.00">5 &gt;</text>
</a>
</g>
</g>
<!-- position_in_stream&#45;&gt;sign_interpretation -->
<g id="edge2" class="edge">
<title>position_in_stream:w&#45;&gt;sign_interpretation:e</title>
<path fill="none" stroke="black" d="M211.09,-74.02C200.51,-77.19 194.09,-83 178.5,-83"/>
<polygon fill="black" stroke="black" points="217.58,-73.11 226,-75.57 221.54,-72.55 225.5,-72 225.5,-72 225.5,-72 221.54,-72.55 225,-68.43 217.58,-73.11 217.58,-73.11"/>
<ellipse fill="none" stroke="black" cx="214.41" cy="-73.55" rx="3.2" ry="3.2"/>
</g>
<!-- position_in_stream&#45;&gt;sign_interpretation -->
<g id="edge3" class="edge">
<title>position_in_stream:w&#45;&gt;sign_interpretation:e</title>
<path fill="none" stroke="black" d="M211.09,-91.98C200.51,-88.81 194.09,-83 178.5,-83"/>
<polygon fill="black" stroke="black" points="217.58,-92.89 225,-97.57 221.54,-93.45 225.5,-94 225.5,-94 225.5,-94 221.54,-93.45 226,-90.43 217.58,-92.89 217.58,-92.89"/>
<ellipse fill="none" stroke="black" cx="214.41" cy="-92.45" rx="3.2" ry="3.2"/>
</g>
<!-- position_in_stream_owner -->
<g id="node5" class="node">
<title>position_in_stream_owner</title>
<g id="a_node5"><a xlink:href="../../tables/position_in_stream_owner.html" xlink:title="position_in_stream_owner" target="_top">
<polygon fill="#ffffff" stroke="transparent" points="549,-37 549,-95 759,-95 759,-37 549,-37"/>
<polygon fill="#f5f5f5" stroke="transparent" points="549,-73 549,-95 759,-95 759,-73 549,-73"/>
<polygon fill="none" stroke="black" points="549,-73 549,-95 759,-95 759,-73 549,-73"/>
<text text-anchor="start" x="554" y="-82.2" font-family="Helvetica,sans-Serif" font-weight="bold" font-size="11.00">position_in_stream_owner</text>
<text text-anchor="start" x="717" y="-81.2" font-family="Helvetica,sans-Serif" font-size="11.00">[table]</text>
<polygon fill="none" stroke="black" points="549,-55 549,-73 759,-73 759,-55 549,-55"/>
<text text-anchor="start" x="552" y="-61.2" font-family="Helvetica,sans-Serif" font-size="11.00">...</text>
<polygon fill="#ffffff" stroke="transparent" points="549,-37 549,-55 614,-55 614,-37 549,-37"/>
<polygon fill="none" stroke="black" points="549,-37 549,-55 614,-55 614,-37 549,-37"/>
<text text-anchor="start" x="552" y="-43.2" font-family="Helvetica,sans-Serif" font-size="11.00">&lt; 3</text>
<polygon fill="#ffffff" stroke="transparent" points="614,-37 614,-55 725,-55 725,-37 614,-37"/>
<polygon fill="none" stroke="black" points="614,-37 614,-55 725,-55 725,-37 614,-37"/>
<text text-anchor="start" x="637" y="-43.2" font-family="Helvetica,sans-Serif" font-size="11.00">1,719,776 rows</text>
<polygon fill="#ffffff" stroke="transparent" points="725,-37 725,-55 759,-55 759,-37 725,-37"/>
<polygon fill="none" stroke="black" points="725,-37 725,-55 759,-55 759,-37 725,-37"/>
<text text-anchor="start" x="748" y="-43.2" font-family="Helvetica,sans-Serif" font-size="11.00"> &#160;</text>
</a>
</g>
</g>
<!-- position_in_stream_owner&#45;&gt;position_in_stream -->
<g id="edge4" class="edge">
<title>position_in_stream_owner:w&#45;&gt;position_in_stream:e</title>
<path fill="none" stroke="black" d="M533.49,-65.29C490.69,-73.29 483.52,-116 432.5,-116"/>
<polygon fill="black" stroke="black" points="540.03,-64.71 548.32,-67.59 544.02,-64.35 548,-64 548,-64 548,-64 544.02,-64.35 547.68,-60.41 540.03,-64.71 540.03,-64.71"/>
<ellipse fill="none" stroke="black" cx="536.84" cy="-64.99" rx="3.2" ry="3.2"/>
</g>
<!-- position_in_stream_to_section_rel -->
<g id="node6" class="node">
<title>position_in_stream_to_section_rel</title>
<g id="a_node6"><a xlink:href="../../tables/position_in_stream_to_section_rel.html" xlink:title="position_in_stream_to_section_rel" target="_top">
<polygon fill="#ffffff" stroke="transparent" points="480,-116 480,-204 828,-204 828,-116 480,-116"/>
<polygon fill="#f5f5f5" stroke="transparent" points="482,-180 482,-202 826,-202 826,-180 482,-180"/>
<polygon fill="none" stroke="black" points="482,-180 482,-202 826,-202 826,-180 482,-180"/>
<text text-anchor="start" x="487" y="-189.2" font-family="Helvetica,sans-Serif" font-weight="bold" font-size="11.00">position_in_stream_to_section_rel</text>
<text text-anchor="start" x="784" y="-188.2" font-family="Helvetica,sans-Serif" font-size="11.00">[table]</text>
<polygon fill="none" stroke="black" points="482,-158 482,-180 729,-180 729,-158 482,-158"/>
<image xlink:href="../../images/primaryKeys.png" width="11px" height="12px" preserveAspectRatio="xMinYMin meet" x="487" y="-175"/>
<text text-anchor="start" x="502" y="-166.2" font-family="Helvetica,sans-Serif" font-size="11.00">position_in_stream_id</text>
<polygon fill="none" stroke="black" points="729,-158 729,-180 826,-180 826,-158 729,-158"/>
<text text-anchor="start" x="732" y="-166.2" font-family="Helvetica,sans-Serif" font-size="11.00">int unsigned[10]</text>
<polygon fill="none" stroke="black" points="482,-136 482,-158 729,-158 729,-136 482,-136"/>
<image xlink:href="../../images/primaryKeys.png" width="11px" height="12px" preserveAspectRatio="xMinYMin meet" x="487" y="-153"/>
<text text-anchor="start" x="502" y="-144.2" font-family="Helvetica,sans-Serif" font-size="11.00">sign_stream_section_id</text>
<polygon fill="none" stroke="black" points="729,-136 729,-158 826,-158 826,-136 729,-136"/>
<text text-anchor="start" x="732" y="-144.2" font-family="Helvetica,sans-Serif" font-size="11.00">int unsigned[10]</text>
<polygon fill="#ffffff" stroke="transparent" points="482,-118 482,-136 573,-136 573,-118 482,-118"/>
<polygon fill="none" stroke="black" points="482,-118 482,-136 573,-136 573,-118 482,-118"/>
<text text-anchor="start" x="485" y="-124.2" font-family="Helvetica,sans-Serif" font-size="11.00">&lt; 2</text>
<polygon fill="#ffffff" stroke="transparent" points="573,-118 573,-136 729,-136 729,-118 573,-118"/>
<polygon fill="none" stroke="black" points="573,-118 573,-136 729,-136 729,-118 573,-118"/>
<text text-anchor="start" x="641" y="-124.2" font-family="Helvetica,sans-Serif" font-size="11.00">1,238,253 rows</text>
<polygon fill="#ffffff" stroke="transparent" points="729,-118 729,-136 826,-136 826,-118 729,-118"/>
<polygon fill="none" stroke="black" points="729,-118 729,-136 826,-136 826,-118 729,-118"/>
<text text-anchor="start" x="803" y="-124.2" font-family="Helvetica,sans-Serif" font-size="11.00">0 &gt;</text>
<polygon fill="none" stroke="black" stroke-width="2" points="481,-117 481,-203 827,-203 827,-117 481,-117"/>
</a>
</g>
</g>
<!-- position_in_stream_to_section_rel&#45;&gt;sign_stream_section -->
<g id="edge6" class="edge">
<title>position_in_stream_to_section_rel:w&#45;&gt;sign_stream_section:e</title>
<path fill="none" stroke="black" d="M466.58,-149.75C422.6,-169.66 481.71,-291 417.5,-291"/>
<polygon fill="black" stroke="black" points="473.14,-148.5 481.67,-150.54 477.07,-147.75 481,-147 481,-147 481,-147 477.07,-147.75 480.33,-143.46 473.14,-148.5 473.14,-148.5"/>
<ellipse fill="none" stroke="black" cx="470" cy="-149.1" rx="3.2" ry="3.2"/>
</g>
<!-- position_in_stream_to_section_rel&#45;&gt;position_in_stream -->
<g id="edge5" class="edge">
<title>position_in_stream_to_section_rel:w&#45;&gt;position_in_stream:e</title>
<path fill="none" stroke="black" d="M467.4,-164.11C453.17,-150.99 458.44,-116 432.5,-116"/>
<polygon fill="black" stroke="black" points="473.47,-166.29 479.78,-172.39 477.24,-167.65 481,-169 481,-169 481,-169 477.24,-167.65 482.22,-165.61 473.47,-166.29 473.47,-166.29"/>
<ellipse fill="none" stroke="black" cx="470.46" cy="-165.21" rx="3.2" ry="3.2"/>
</g>
<!-- sign_stream_section_owner -->
<g id="node7" class="node">
<title>sign_stream_section_owner</title>
<g id="a_node7"><a xlink:href="../../tables/sign_stream_section_owner.html" xlink:title="sign_stream_section_owner" target="_top">
<polygon fill="#ffffff" stroke="transparent" points="544,-304 544,-362 764,-362 764,-304 544,-304"/>
<polygon fill="#f5f5f5" stroke="transparent" points="544,-340 544,-362 764,-362 764,-340 544,-340"/>
<polygon fill="none" stroke="black" points="544,-340 544,-362 764,-362 764,-340 544,-340"/>
<text text-anchor="start" x="549" y="-349.2" font-family="Helvetica,sans-Serif" font-weight="bold" font-size="11.00">sign_stream_section_owner</text>
<text text-anchor="start" x="722" y="-348.2" font-family="Helvetica,sans-Serif" font-size="11.00">[table]</text>
<polygon fill="none" stroke="black" points="544,-322 544,-340 764,-340 764,-322 544,-322"/>
<text text-anchor="start" x="547" y="-328.2" font-family="Helvetica,sans-Serif" font-size="11.00">...</text>
<polygon fill="#ffffff" stroke="transparent" points="544,-304 544,-322 619,-322 619,-304 544,-304"/>
<polygon fill="none" stroke="black" points="544,-304 544,-322 619,-322 619,-304 544,-304"/>
<text text-anchor="start" x="547" y="-310.2" font-family="Helvetica,sans-Serif" font-size="11.00">&lt; 3</text>
<polygon fill="#ffffff" stroke="transparent" points="619,-304 619,-322 725,-322 725,-304 619,-304"/>
<polygon fill="none" stroke="black" points="619,-304 619,-322 725,-322 725,-304 619,-304"/>
<text text-anchor="start" x="647" y="-310.2" font-family="Helvetica,sans-Serif" font-size="11.00">327,684 rows</text>
<polygon fill="#ffffff" stroke="transparent" points="725,-304 725,-322 764,-322 764,-304 725,-304"/>
<polygon fill="none" stroke="black" points="725,-304 725,-322 764,-322 764,-304 725,-304"/>
<text text-anchor="start" x="753" y="-310.2" font-family="Helvetica,sans-Serif" font-size="11.00"> &#160;</text>
</a>
</g>
</g>
<!-- sign_stream_section_owner&#45;&gt;sign_stream_section -->
<g id="edge7" class="edge">
<title>sign_stream_section_owner:w&#45;&gt;sign_stream_section:e</title>
<path fill="none" stroke="black" d="M528.36,-330.09C482.54,-324.14 470.78,-291 417.5,-291"/>
<polygon fill="black" stroke="black" points="535.02,-330.5 542.78,-334.59 539.01,-330.75 543,-331 543,-331 543,-331 539.01,-330.75 543.22,-327.41 535.02,-330.5 535.02,-330.5"/>
<ellipse fill="none" stroke="black" cx="531.82" cy="-330.3" rx="3.2" ry="3.2"/>
</g>
<!-- sign_stream_section_to_qwb_word -->
<g id="node8" class="node">
<title>sign_stream_section_to_qwb_word</title>
<g id="a_node8"><a xlink:href="../../tables/sign_stream_section_to_qwb_word.html" xlink:title="sign_stream_section_to_qwb_word" target="_top">
<polygon fill="#ffffff" stroke="transparent" points="523.5,-225 523.5,-283 784.5,-283 784.5,-225 523.5,-225"/>
<polygon fill="#f5f5f5" stroke="transparent" points="524,-261 524,-283 785,-283 785,-261 524,-261"/>
<polygon fill="none" stroke="black" points="524,-261 524,-283 785,-283 785,-261 524,-261"/>
<text text-anchor="start" x="529" y="-270.2" font-family="Helvetica,sans-Serif" font-weight="bold" font-size="11.00">sign_stream_section_to_qwb_word</text>
<text text-anchor="start" x="743" y="-269.2" font-family="Helvetica,sans-Serif" font-size="11.00">[table]</text>
<polygon fill="none" stroke="black" points="524,-243 524,-261 785,-261 785,-243 524,-243"/>
<text text-anchor="start" x="527" y="-249.2" font-family="Helvetica,sans-Serif" font-size="11.00">...</text>
<polygon fill="#ffffff" stroke="transparent" points="524,-225 524,-243 620,-243 620,-225 524,-225"/>
<polygon fill="none" stroke="black" points="524,-225 524,-243 620,-243 620,-225 524,-225"/>
<text text-anchor="start" x="527" y="-231.2" font-family="Helvetica,sans-Serif" font-size="11.00">&lt; 2</text>
<polygon fill="#ffffff" stroke="transparent" points="620,-225 620,-243 736,-243 736,-225 620,-225"/>
<polygon fill="none" stroke="black" points="620,-225 620,-243 736,-243 736,-225 620,-225"/>
<text text-anchor="start" x="658" y="-231.2" font-family="Helvetica,sans-Serif" font-size="11.00">328,329 rows</text>
<polygon fill="#ffffff" stroke="transparent" points="736,-225 736,-243 785,-243 785,-225 736,-225"/>
<polygon fill="none" stroke="black" points="736,-225 736,-243 785,-243 785,-225 736,-225"/>
<text text-anchor="start" x="774" y="-231.2" font-family="Helvetica,sans-Serif" font-size="11.00"> &#160;</text>
</a>
</g>
</g>
<!-- sign_stream_section_to_qwb_word&#45;&gt;sign_stream_section -->
<g id="edge8" class="edge">
<title>sign_stream_section_to_qwb_word:w&#45;&gt;sign_stream_section:e</title>
<path fill="none" stroke="black" d="M508.56,-253.21C471.35,-259.79 462.22,-291 417.5,-291"/>
<polygon fill="black" stroke="black" points="515.03,-252.67 523.3,-255.59 519.01,-252.33 523,-252 523,-252 523,-252 519.01,-252.33 522.7,-248.41 515.03,-252.67 515.03,-252.67"/>
<ellipse fill="none" stroke="black" cx="511.84" cy="-252.94" rx="3.2" ry="3.2"/>
</g>
</g>
</svg>
