<?xml version="1.0" encoding="UTF-8" standalone="no"?>
<!DOCTYPE svg PUBLIC "-//W3C//DTD SVG 1.1//EN"
 "http://www.w3.org/Graphics/SVG/1.1/DTD/svg11.dtd">
<!-- Generated by graphviz version 2.40.1 (20161225.0304)
 -->
<!-- Title: oneDegreeRelationshipsDiagram Pages: 1 -->
<svg width="611pt" height="300pt"
 viewBox="0.00 0.00 611.00 300.00" xmlns="http://www.w3.org/2000/svg" xmlns:xlink="http://www.w3.org/1999/xlink">
<g id="graph0" class="graph" transform="scale(1 1) rotate(0) translate(4 296)">
<title>oneDegreeRelationshipsDiagram</title>
<polygon fill="#ffffff" stroke="transparent" points="-4,4 -4,-296 607,-296 607,4 -4,4"/>
<text text-anchor="middle" x="71.5" y="-7.2" font-family="Helvetica,sans-Serif" font-size="11.00" fill="#000000">Generated by SchemaSpy</text>
<!-- position_in_stream_to_section_rel -->
<g id="node1" class="node">
<title>position_in_stream_to_section_rel</title>
<g id="a_node1"><a xlink:href="../../tables/position_in_stream_to_section_rel.html" xlink:title="position_in_stream_to_section_rel" target="_top">
<polygon fill="#ffffff" stroke="transparent" points="262,-138 262,-226 595,-226 595,-138 262,-138"/>
<polygon fill="#f5f5f5" stroke="transparent" points="264.5,-202 264.5,-224 593.5,-224 593.5,-202 264.5,-202"/>
<polygon fill="none" stroke="#000000" points="264.5,-202 264.5,-224 593.5,-224 593.5,-202 264.5,-202"/>
<text text-anchor="start" x="269.5" y="-211.2" font-family="Helvetica,sans-Serif" font-weight="bold" font-size="11.00" fill="#000000">position_in_stream_to_section_rel</text>
<text text-anchor="start" x="558.5" y="-210.2" font-family="Helvetica,sans-Serif" font-size="11.00" fill="#000000">[table]</text>
<polygon fill="none" stroke="#000000" points="264.5,-180 264.5,-202 511.5,-202 511.5,-180 264.5,-180"/>
<image xlink:href="../../images/primaryKeys.png" width="11px" height="12px" preserveAspectRatio="xMinYMin meet" x="269.5" y="-197"/>
<text text-anchor="start" x="284.5" y="-188.2" font-family="Helvetica,sans-Serif" font-size="11.00" fill="#000000">position_in_stream_id</text>
<polygon fill="none" stroke="#000000" points="511.5,-180 511.5,-202 593.5,-202 593.5,-180 511.5,-180"/>
<text text-anchor="start" x="514.5" y="-188.2" font-family="Helvetica,sans-Serif" font-size="11.00" fill="#000000">int unsigned[10]</text>
<polygon fill="none" stroke="#000000" points="264.5,-158 264.5,-180 511.5,-180 511.5,-158 264.5,-158"/>
<image xlink:href="../../images/primaryKeys.png" width="11px" height="12px" preserveAspectRatio="xMinYMin meet" x="269.5" y="-175"/>
<text text-anchor="start" x="284.5" y="-166.2" font-family="Helvetica,sans-Serif" font-size="11.00" fill="#000000">sign_stream_section_id</text>
<polygon fill="none" stroke="#000000" points="511.5,-158 511.5,-180 593.5,-180 593.5,-158 511.5,-158"/>
<text text-anchor="start" x="514.5" y="-166.2" font-family="Helvetica,sans-Serif" font-size="11.00" fill="#000000">int unsigned[10]</text>
<polygon fill="#ffffff" stroke="transparent" points="264.5,-140 264.5,-158 358.5,-158 358.5,-140 264.5,-140"/>
<polygon fill="none" stroke="#000000" points="264.5,-140 264.5,-158 358.5,-158 358.5,-140 264.5,-140"/>
<text text-anchor="start" x="267.5" y="-146.2" font-family="Helvetica,sans-Serif" font-size="11.00" fill="#000000">&lt; 2</text>
<polygon fill="#ffffff" stroke="transparent" points="358.5,-140 358.5,-158 511.5,-158 511.5,-140 358.5,-140"/>
<polygon fill="none" stroke="#000000" points="358.5,-140 358.5,-158 511.5,-158 511.5,-140 358.5,-140"/>
<text text-anchor="start" x="433.5" y="-146.2" font-family="Helvetica,sans-Serif" font-size="11.00" fill="#000000">1,238,253 rows</text>
<polygon fill="#ffffff" stroke="transparent" points="511.5,-140 511.5,-158 593.5,-158 593.5,-140 511.5,-140"/>
<polygon fill="none" stroke="#000000" points="511.5,-140 511.5,-158 593.5,-158 593.5,-140 511.5,-140"/>
<text text-anchor="start" x="574.5" y="-146.2" font-family="Helvetica,sans-Serif" font-size="11.00" fill="#000000">0 &gt;</text>
<polygon fill="none" stroke="#000000" stroke-width="2" points="263,-139 263,-225 594,-225 594,-139 263,-139"/>
</a>
</g>
</g>
<!-- position_in_stream -->
<g id="node2" class="node">
<title>position_in_stream</title>
<g id="a_node2"><a xlink:href="../../tables/position_in_stream.html" xlink:title="position_in_stream" target="_top">
<polygon fill="#ffffff" stroke="transparent" points="8,-160 8,-288 213,-288 213,-160 8,-160"/>
<polygon fill="#f5f5f5" stroke="transparent" points="8.5,-266 8.5,-288 213.5,-288 213.5,-266 8.5,-266"/>
<polygon fill="none" stroke="#000000" points="8.5,-266 8.5,-288 213.5,-288 213.5,-266 8.5,-266"/>
<text text-anchor="start" x="13.5" y="-275.2" font-family="Helvetica,sans-Serif" font-weight="bold" font-size="11.00" fill="#000000">position_in_stream</text>
<text text-anchor="start" x="178.5" y="-274.2" font-family="Helvetica,sans-Serif" font-size="11.00" fill="#000000">[table]</text>
<polygon fill="none" stroke="#000000" points="8.5,-244 8.5,-266 213.5,-266 213.5,-244 8.5,-244"/>
<image xlink:href="../../images/primaryKeys.png" width="11px" height="12px" preserveAspectRatio="xMinYMin meet" x="13.5" y="-261"/>
<text text-anchor="start" x="28.5" y="-252.2" font-family="Helvetica,sans-Serif" font-size="11.00" fill="#000000">position_in_stream_id</text>
<polygon fill="#ffffff" stroke="transparent" points="8.5,-222 8.5,-244 213.5,-244 213.5,-222 8.5,-222"/>
<polygon fill="none" stroke="#000000" points="8.5,-222 8.5,-244 213.5,-244 213.5,-222 8.5,-222"/>
<image xlink:href="../../images/foreignKeys.png" width="11px" height="12px" preserveAspectRatio="xMinYMin meet" x="13.5" y="-239"/>
<text text-anchor="start" x="28.5" y="-230.2" font-family="Helvetica,sans-Serif" font-size="11.00" fill="#000000">sign_interpretation_id</text>
<polygon fill="#ffffff" stroke="transparent" points="8.5,-200 8.5,-222 213.5,-222 213.5,-200 8.5,-200"/>
<polygon fill="none" stroke="#000000" points="8.5,-200 8.5,-222 213.5,-222 213.5,-200 8.5,-200"/>
<image xlink:href="../../images/foreignKeys.png" width="11px" height="12px" preserveAspectRatio="xMinYMin meet" x="13.5" y="-217"/>
<text text-anchor="start" x="28.5" y="-208.2" font-family="Helvetica,sans-Serif" font-size="11.00" fill="#000000">next_sign_interpretation_id</text>
<polygon fill="#ffffff" stroke="transparent" points="8.5,-178 8.5,-200 213.5,-200 213.5,-178 8.5,-178"/>
<polygon fill="none" stroke="#000000" points="8.5,-178 8.5,-200 213.5,-200 213.5,-178 8.5,-178"/>
<image xlink:href="../../images/foreignKeys.png" width="11px" height="12px" preserveAspectRatio="xMinYMin meet" x="13.5" y="-195"/>
<text text-anchor="start" x="28.5" y="-186.2" font-family="Helvetica,sans-Serif" font-size="11.00" fill="#000000">creator_id</text>
<polygon fill="#ffffff" stroke="transparent" points="8.5,-160 8.5,-178 70.5,-178 70.5,-160 8.5,-160"/>
<polygon fill="none" stroke="#000000" points="8.5,-160 8.5,-178 70.5,-178 70.5,-160 8.5,-160"/>
<text text-anchor="start" x="11.5" y="-166.2" font-family="Helvetica,sans-Serif" font-size="11.00" fill="#000000">&lt; 3</text>
<polygon fill="#ffffff" stroke="transparent" points="70.5,-160 70.5,-178 171.5,-178 171.5,-160 70.5,-160"/>
<polygon fill="none" stroke="#000000" points="70.5,-160 70.5,-178 171.5,-178 171.5,-160 70.5,-160"/>
<text text-anchor="start" x="93.5" y="-166.2" font-family="Helvetica,sans-Serif" font-size="11.00" fill="#000000">1,719,529 rows</text>
<polygon fill="#ffffff" stroke="transparent" points="171.5,-160 171.5,-178 213.5,-178 213.5,-160 171.5,-160"/>
<polygon fill="none" stroke="#000000" points="171.5,-160 171.5,-178 213.5,-178 213.5,-160 171.5,-160"/>
<text text-anchor="start" x="194.5" y="-166.2" font-family="Helvetica,sans-Serif" font-size="11.00" fill="#000000">2 &gt;</text>
</a>
</g>
</g>
<!-- position_in_stream_to_section_rel&#45;&gt;position_in_stream -->
<g id="edge1" class="edge">
<title>position_in_stream_to_section_rel:w&#45;&gt;position_in_stream:e</title>
<path fill="none" stroke="#000000" d="M250.7779,-195.6027C233.6988,-210.2773 243.9041,-255 213.5,-255"/>
<polygon fill="#000000" stroke="#000000" points="256.9153,-193.5441 265.6449,-194.4131 260.7077,-192.2721 264.5,-191 264.5,-191 264.5,-191 260.7077,-192.2721 263.3551,-187.5869 256.9153,-193.5441 256.9153,-193.5441"/>
<ellipse fill="none" stroke="#000000" cx="253.8814" cy="-194.5618" rx="3.2" ry="3.2"/>
</g>
<!-- sign_stream_section -->
<g id="node3" class="node">
<title>sign_stream_section</title>
<g id="a_node3"><a xlink:href="../../tables/sign_stream_section.html" xlink:title="sign_stream_section" target="_top">
<polygon fill="#ffffff" stroke="transparent" points="22.5,-37 22.5,-139 198.5,-139 198.5,-37 22.5,-37"/>
<polygon fill="#f5f5f5" stroke="transparent" points="22.5,-117 22.5,-139 198.5,-139 198.5,-117 22.5,-117"/>
<polygon fill="none" stroke="#000000" points="22.5,-117 22.5,-139 198.5,-139 198.5,-117 22.5,-117"/>
<text text-anchor="start" x="27.5" y="-126.2" font-family="Helvetica,sans-Serif" font-weight="bold" font-size="11.00" fill="#000000">sign_stream_section</text>
<text text-anchor="start" x="163.5" y="-125.2" font-family="Helvetica,sans-Serif" font-size="11.00" fill="#000000">[table]</text>
<polygon fill="none" stroke="#000000" points="22.5,-95 22.5,-117 198.5,-117 198.5,-95 22.5,-95"/>
<image xlink:href="../../images/primaryKeys.png" width="11px" height="12px" preserveAspectRatio="xMinYMin meet" x="27.5" y="-112"/>
<text text-anchor="start" x="42.5" y="-103.2" font-family="Helvetica,sans-Serif" font-size="11.00" fill="#000000">sign_stream_section_id</text>
<polygon fill="#ffffff" stroke="transparent" points="22.5,-73 22.5,-95 198.5,-95 198.5,-73 22.5,-73"/>
<polygon fill="none" stroke="#000000" points="22.5,-73 22.5,-95 198.5,-95 198.5,-73 22.5,-73"/>
<image xlink:href="../../images/foreignKeys.png" width="11px" height="12px" preserveAspectRatio="xMinYMin meet" x="27.5" y="-90"/>
<text text-anchor="start" x="42.5" y="-81.2" font-family="Helvetica,sans-Serif" font-size="11.00" fill="#000000">creator_id</text>
<polygon fill="none" stroke="#000000" points="22.5,-55 22.5,-73 198.5,-73 198.5,-55 22.5,-55"/>
<text text-anchor="start" x="25.5" y="-61.2" font-family="Helvetica,sans-Serif" font-size="11.00" fill="#000000">...</text>
<polygon fill="#ffffff" stroke="transparent" points="22.5,-37 22.5,-55 74.5,-55 74.5,-37 22.5,-37"/>
<polygon fill="none" stroke="#000000" points="22.5,-37 22.5,-55 74.5,-55 74.5,-37 22.5,-37"/>
<text text-anchor="start" x="25.5" y="-43.2" font-family="Helvetica,sans-Serif" font-size="11.00" fill="#000000">&lt; 1</text>
<polygon fill="#ffffff" stroke="transparent" points="74.5,-37 74.5,-55 161.5,-55 161.5,-37 74.5,-37"/>
<polygon fill="none" stroke="#000000" points="74.5,-37 74.5,-55 161.5,-55 161.5,-37 74.5,-37"/>
<text text-anchor="start" x="92.5" y="-43.2" font-family="Helvetica,sans-Serif" font-size="11.00" fill="#000000">327,795 rows</text>
<polygon fill="#ffffff" stroke="transparent" points="161.5,-37 161.5,-55 198.5,-55 198.5,-37 161.5,-37"/>
<polygon fill="none" stroke="#000000" points="161.5,-37 161.5,-55 198.5,-55 198.5,-37 161.5,-37"/>
<text text-anchor="start" x="179.5" y="-43.2" font-family="Helvetica,sans-Serif" font-size="11.00" fill="#000000">4 &gt;</text>
</a>
</g>
</g>
<!-- position_in_stream_to_section_rel&#45;&gt;sign_stream_section -->
<g id="edge2" class="edge">
<title>position_in_stream_to_section_rel:w&#45;&gt;sign_stream_section:e</title>
<path fill="none" stroke="#000000" d="M250.3845,-165.6128C227.0955,-152.5271 233.3492,-106 198.5,-106"/>
<polygon fill="#000000" stroke="#000000" points="256.7208,-167.1333 263.66,-172.5006 260.6104,-168.0666 264.5,-169 264.5,-169 264.5,-169 260.6104,-168.0666 265.34,-165.4994 256.7208,-167.1333 256.7208,-167.1333"/>
<ellipse fill="none" stroke="#000000" cx="253.6092" cy="-166.3866" rx="3.2" ry="3.2"/>
</g>
</g>
</svg>
