<?xml version="1.0" encoding="UTF-8" standalone="no"?>
<!DOCTYPE svg PUBLIC "-//W3C//DTD SVG 1.1//EN"
 "http://www.w3.org/Graphics/SVG/1.1/DTD/svg11.dtd">
<!-- Generated by graphviz version 2.43.0 (0)
 -->
<!-- Title: twoDegreesRelationshipsDiagram Pages: 1 -->
<svg width="930pt" height="581pt"
 viewBox="0.00 0.00 930.00 581.00" xmlns="http://www.w3.org/2000/svg" xmlns:xlink="http://www.w3.org/1999/xlink">
<g id="graph0" class="graph" transform="scale(1 1) rotate(0) translate(4 577)">
<title>twoDegreesRelationshipsDiagram</title>
<polygon fill="#ffffff" stroke="transparent" points="-4,4 -4,-577 926,-577 926,4 -4,4"/>
<text text-anchor="middle" x="79.5" y="-7.2" font-family="Helvetica,sans-Serif" font-size="11.00">Generated by SchemaSpy</text>
<!-- edition_editor -->
<g id="node1" class="node">
<title>edition_editor</title>
<g id="a_node1"><a xlink:href="../../tables/edition_editor.html" xlink:title="edition_editor" target="_top">
<polygon fill="#ffffff" stroke="transparent" points="311.5,-37 311.5,-95 447.5,-95 447.5,-37 311.5,-37"/>
<polygon fill="#f5f5f5" stroke="transparent" points="311.5,-73 311.5,-95 447.5,-95 447.5,-73 311.5,-73"/>
<polygon fill="none" stroke="black" points="311.5,-73 311.5,-95 447.5,-95 447.5,-73 311.5,-73"/>
<text text-anchor="start" x="316.5" y="-82.2" font-family="Helvetica,sans-Serif" font-weight="bold" font-size="11.00">edition_editor</text>
<text text-anchor="start" x="405.5" y="-81.2" font-family="Helvetica,sans-Serif" font-size="11.00">[table]</text>
<polygon fill="none" stroke="black" points="311.5,-55 311.5,-73 447.5,-73 447.5,-55 311.5,-55"/>
<text text-anchor="start" x="314.5" y="-61.2" font-family="Helvetica,sans-Serif" font-size="11.00">...</text>
<polygon fill="#ffffff" stroke="transparent" points="311.5,-37 311.5,-55 342.5,-55 342.5,-37 311.5,-37"/>
<polygon fill="none" stroke="black" points="311.5,-37 311.5,-55 342.5,-55 342.5,-37 311.5,-37"/>
<text text-anchor="start" x="314.5" y="-43.2" font-family="Helvetica,sans-Serif" font-size="11.00">&lt; 2</text>
<polygon fill="#ffffff" stroke="transparent" points="342.5,-37 342.5,-55 411.5,-55 411.5,-37 342.5,-37"/>
<polygon fill="none" stroke="black" points="342.5,-37 342.5,-55 411.5,-55 411.5,-37 342.5,-37"/>
<text text-anchor="start" x="347.5" y="-43.2" font-family="Helvetica,sans-Serif" font-size="11.00">1,645 rows</text>
<polygon fill="#ffffff" stroke="transparent" points="411.5,-37 411.5,-55 447.5,-55 447.5,-37 411.5,-37"/>
<polygon fill="none" stroke="black" points="411.5,-37 411.5,-55 447.5,-55 447.5,-37 411.5,-37"/>
<text text-anchor="start" x="417.5" y="-43.2" font-family="Helvetica,sans-Serif" font-size="11.00">33 &gt;</text>
</a>
</g>
</g>
<!-- edition -->
<g id="node2" class="node">
<title>edition</title>
<g id="a_node2"><a xlink:href="../../tables/edition.html" xlink:title="edition" target="_top">
<polygon fill="#ffffff" stroke="transparent" points="14,-64 14,-122 140,-122 140,-64 14,-64"/>
<polygon fill="#f5f5f5" stroke="transparent" points="14,-100 14,-122 140,-122 140,-100 14,-100"/>
<polygon fill="none" stroke="black" points="14,-100 14,-122 140,-122 140,-100 14,-100"/>
<text text-anchor="start" x="19" y="-109.2" font-family="Helvetica,sans-Serif" font-weight="bold" font-size="11.00">edition</text>
<text text-anchor="start" x="98" y="-108.2" font-family="Helvetica,sans-Serif" font-size="11.00">[table]</text>
<polygon fill="none" stroke="black" points="14,-82 14,-100 140,-100 140,-82 14,-82"/>
<text text-anchor="start" x="17" y="-88.2" font-family="Helvetica,sans-Serif" font-size="11.00">...</text>
<polygon fill="#ffffff" stroke="transparent" points="14,-64 14,-82 40,-82 40,-64 14,-64"/>
<polygon fill="none" stroke="black" points="14,-64 14,-82 40,-82 40,-64 14,-64"/>
<text text-anchor="start" x="17" y="-70.2" font-family="Helvetica,sans-Serif" font-size="11.00">&lt; 1</text>
<polygon fill="#ffffff" stroke="transparent" points="40,-64 40,-82 107,-82 107,-64 40,-64"/>
<polygon fill="none" stroke="black" points="40,-64 40,-82 107,-82 107,-64 40,-64"/>
<text text-anchor="start" x="43" y="-70.2" font-family="Helvetica,sans-Serif" font-size="11.00">1,645 rows</text>
<polygon fill="#ffffff" stroke="transparent" points="107,-64 107,-82 140,-82 140,-64 107,-64"/>
<polygon fill="none" stroke="black" points="107,-64 107,-82 140,-82 140,-64 107,-64"/>
<text text-anchor="start" x="110" y="-70.2" font-family="Helvetica,sans-Serif" font-size="11.00">35 &gt;</text>
</a>
</g>
</g>
<!-- edition_editor&#45;&gt;edition -->
<g id="edge1" class="edge">
<title>edition_editor:w&#45;&gt;edition:e</title>
<path fill="none" stroke="black" d="M296.05,-64.34C231.71,-67.47 212.22,-91 141,-91"/>
<polygon fill="black" stroke="black" points="302.5,-64.19 310.59,-67.6 306.5,-64.09 310.5,-64 310.5,-64 310.5,-64 306.5,-64.09 310.41,-60.4 302.5,-64.19 302.5,-64.19"/>
<ellipse fill="none" stroke="black" cx="299.3" cy="-64.26" rx="3.2" ry="3.2"/>
</g>
<!-- iaa_edition_catalog_to_text_fragment -->
<g id="node3" class="node">
<title>iaa_edition_catalog_to_text_fragment</title>
<g id="a_node3"><a xlink:href="../../tables/iaa_edition_catalog_to_text_fragment.html" xlink:title="iaa_edition_catalog_to_text_fragment" target="_top">
<polygon fill="#ffffff" stroke="transparent" points="240,-222 240,-280 519,-280 519,-222 240,-222"/>
<polygon fill="#f5f5f5" stroke="transparent" points="240.5,-258 240.5,-280 519.5,-280 519.5,-258 240.5,-258"/>
<polygon fill="none" stroke="black" points="240.5,-258 240.5,-280 519.5,-280 519.5,-258 240.5,-258"/>
<text text-anchor="start" x="245.5" y="-267.2" font-family="Helvetica,sans-Serif" font-weight="bold" font-size="11.00">iaa_edition_catalog_to_text_fragment</text>
<text text-anchor="start" x="477.5" y="-266.2" font-family="Helvetica,sans-Serif" font-size="11.00">[table]</text>
<polygon fill="none" stroke="black" points="240.5,-240 240.5,-258 519.5,-258 519.5,-240 240.5,-240"/>
<text text-anchor="start" x="243.5" y="-246.2" font-family="Helvetica,sans-Serif" font-size="11.00">...</text>
<polygon fill="#ffffff" stroke="transparent" points="240.5,-222 240.5,-240 342.5,-240 342.5,-222 240.5,-222"/>
<polygon fill="none" stroke="black" points="240.5,-222 240.5,-240 342.5,-240 342.5,-222 240.5,-222"/>
<text text-anchor="start" x="243.5" y="-228.2" font-family="Helvetica,sans-Serif" font-size="11.00">&lt; 2</text>
<polygon fill="#ffffff" stroke="transparent" points="342.5,-222 342.5,-240 454.5,-240 454.5,-222 342.5,-222"/>
<polygon fill="none" stroke="black" points="342.5,-222 342.5,-240 454.5,-240 454.5,-222 342.5,-222"/>
<text text-anchor="start" x="383.5" y="-228.2" font-family="Helvetica,sans-Serif" font-size="11.00">15,236 rows</text>
<polygon fill="#ffffff" stroke="transparent" points="454.5,-222 454.5,-240 519.5,-240 519.5,-222 454.5,-222"/>
<polygon fill="none" stroke="black" points="454.5,-222 454.5,-240 519.5,-240 519.5,-222 454.5,-222"/>
<text text-anchor="start" x="496.5" y="-228.2" font-family="Helvetica,sans-Serif" font-size="11.00">1 &gt;</text>
</a>
</g>
</g>
<!-- text_fragment -->
<g id="node4" class="node">
<title>text_fragment</title>
<g id="a_node4"><a xlink:href="../../tables/text_fragment.html" xlink:title="text_fragment" target="_top">
<polygon fill="#ffffff" stroke="transparent" points="8,-338 8,-400 146,-400 146,-338 8,-338"/>
<polygon fill="#f5f5f5" stroke="transparent" points="8,-378 8,-400 146,-400 146,-378 8,-378"/>
<polygon fill="none" stroke="black" points="8,-378 8,-400 146,-400 146,-378 8,-378"/>
<text text-anchor="start" x="13" y="-387.2" font-family="Helvetica,sans-Serif" font-weight="bold" font-size="11.00">text_fragment</text>
<text text-anchor="start" x="104" y="-386.2" font-family="Helvetica,sans-Serif" font-size="11.00">[table]</text>
<polygon fill="none" stroke="black" points="8,-356 8,-378 146,-378 146,-356 8,-356"/>
<image xlink:href="../../images/primaryKeys.png" width="11px" height="12px" preserveAspectRatio="xMinYMin meet" x="13" y="-373"/>
<text text-anchor="start" x="30" y="-364.2" font-family="Helvetica,sans-Serif" font-size="11.00">text_fragment_id</text>
<polygon fill="#ffffff" stroke="transparent" points="8,-338 8,-356 34,-356 34,-338 8,-338"/>
<polygon fill="none" stroke="black" points="8,-338 8,-356 34,-356 34,-338 8,-338"/>
<text text-anchor="start" x="11" y="-344.2" font-family="Helvetica,sans-Serif" font-size="11.00"> &#160;</text>
<polygon fill="#ffffff" stroke="transparent" points="34,-338 34,-356 114,-356 114,-338 34,-338"/>
<polygon fill="none" stroke="black" points="34,-338 34,-356 114,-356 114,-338 34,-338"/>
<text text-anchor="start" x="43" y="-344.2" font-family="Helvetica,sans-Serif" font-size="11.00">11,176 rows</text>
<polygon fill="#ffffff" stroke="transparent" points="114,-338 114,-356 146,-356 146,-338 114,-338"/>
<polygon fill="none" stroke="black" points="114,-338 114,-356 146,-356 146,-338 114,-338"/>
<text text-anchor="start" x="123" y="-344.2" font-family="Helvetica,sans-Serif" font-size="11.00">6 &gt;</text>
</a>
</g>
</g>
<!-- iaa_edition_catalog_to_text_fragment&#45;&gt;text_fragment -->
<g id="edge2" class="edge">
<title>iaa_edition_catalog_to_text_fragment:w&#45;&gt;text_fragment:e</title>
<path fill="none" stroke="black" d="M225.19,-250.9C207.73,-256.25 202.46,-272.28 187,-291 162.7,-320.43 185.17,-367 147,-367"/>
<polygon fill="black" stroke="black" points="231.57,-250.05 239.97,-252.57 235.53,-249.53 239.5,-249 239.5,-249 239.5,-249 235.53,-249.53 239.03,-245.43 231.57,-250.05 231.57,-250.05"/>
<ellipse fill="none" stroke="black" cx="228.4" cy="-250.48" rx="3.2" ry="3.2"/>
</g>
<!-- manuscript_to_text_fragment -->
<g id="node5" class="node">
<title>manuscript_to_text_fragment</title>
<g id="a_node5"><a xlink:href="../../tables/manuscript_to_text_fragment.html" xlink:title="manuscript_to_text_fragment" target="_top">
<polygon fill="#ffffff" stroke="transparent" points="264.5,-143 264.5,-201 494.5,-201 494.5,-143 264.5,-143"/>
<polygon fill="#f5f5f5" stroke="transparent" points="264.5,-179 264.5,-201 494.5,-201 494.5,-179 264.5,-179"/>
<polygon fill="none" stroke="black" points="264.5,-179 264.5,-201 494.5,-201 494.5,-179 264.5,-179"/>
<text text-anchor="start" x="269.5" y="-188.2" font-family="Helvetica,sans-Serif" font-weight="bold" font-size="11.00">manuscript_to_text_fragment</text>
<text text-anchor="start" x="452.5" y="-187.2" font-family="Helvetica,sans-Serif" font-size="11.00">[table]</text>
<polygon fill="none" stroke="black" points="264.5,-161 264.5,-179 494.5,-179 494.5,-161 264.5,-161"/>
<text text-anchor="start" x="267.5" y="-167.2" font-family="Helvetica,sans-Serif" font-size="11.00">...</text>
<polygon fill="#ffffff" stroke="transparent" points="264.5,-143 264.5,-161 342.5,-161 342.5,-143 264.5,-143"/>
<polygon fill="none" stroke="black" points="264.5,-143 264.5,-161 342.5,-161 342.5,-143 264.5,-143"/>
<text text-anchor="start" x="267.5" y="-149.2" font-family="Helvetica,sans-Serif" font-size="11.00">&lt; 2</text>
<polygon fill="#ffffff" stroke="transparent" points="342.5,-143 342.5,-161 442.5,-161 442.5,-143 342.5,-143"/>
<polygon fill="none" stroke="black" points="342.5,-143 342.5,-161 442.5,-161 442.5,-143 342.5,-143"/>
<text text-anchor="start" x="371.5" y="-149.2" font-family="Helvetica,sans-Serif" font-size="11.00">11,166 rows</text>
<polygon fill="#ffffff" stroke="transparent" points="442.5,-143 442.5,-161 494.5,-161 494.5,-143 442.5,-143"/>
<polygon fill="none" stroke="black" points="442.5,-143 442.5,-161 494.5,-161 494.5,-143 442.5,-143"/>
<text text-anchor="start" x="471.5" y="-149.2" font-family="Helvetica,sans-Serif" font-size="11.00">1 &gt;</text>
</a>
</g>
</g>
<!-- manuscript_to_text_fragment&#45;&gt;text_fragment -->
<g id="edge3" class="edge">
<title>manuscript_to_text_fragment:w&#45;&gt;text_fragment:e</title>
<path fill="none" stroke="black" d="M248.96,-170.62C220.88,-173.28 207.55,-184.79 187,-211 142.84,-267.33 218.58,-367 147,-367"/>
<polygon fill="black" stroke="black" points="255.51,-170.34 263.65,-173.6 259.5,-170.17 263.5,-170 263.5,-170 263.5,-170 259.5,-170.17 263.35,-166.4 255.51,-170.34 255.51,-170.34"/>
<ellipse fill="none" stroke="black" cx="252.31" cy="-170.48" rx="3.2" ry="3.2"/>
</g>
<!-- position_in_text_fragment_stream -->
<g id="node6" class="node">
<title>position_in_text_fragment_stream</title>
<g id="a_node6"><a xlink:href="../../tables/position_in_text_fragment_stream.html" xlink:title="position_in_text_fragment_stream" target="_top">
<polygon fill="#ffffff" stroke="transparent" points="195,-459 195,-569 564,-569 564,-459 195,-459"/>
<polygon fill="#f5f5f5" stroke="transparent" points="197.5,-545 197.5,-567 562.5,-567 562.5,-545 197.5,-545"/>
<polygon fill="none" stroke="black" points="197.5,-545 197.5,-567 562.5,-567 562.5,-545 197.5,-545"/>
<text text-anchor="start" x="202.5" y="-554.2" font-family="Helvetica,sans-Serif" font-weight="bold" font-size="11.00">position_in_text_fragment_stream</text>
<text text-anchor="start" x="520.5" y="-553.2" font-family="Helvetica,sans-Serif" font-size="11.00">[table]</text>
<polygon fill="none" stroke="black" points="197.5,-523 197.5,-545 465.5,-545 465.5,-523 197.5,-523"/>
<image xlink:href="../../images/primaryKeys.png" width="11px" height="12px" preserveAspectRatio="xMinYMin meet" x="202.5" y="-540"/>
<text text-anchor="start" x="217.5" y="-531.2" font-family="Helvetica,sans-Serif" font-size="11.00">position_in_text_fragment_stream_id</text>
<polygon fill="none" stroke="black" points="465.5,-523 465.5,-545 562.5,-545 562.5,-523 465.5,-523"/>
<text text-anchor="start" x="468.5" y="-531.2" font-family="Helvetica,sans-Serif" font-size="11.00">int unsigned[10]</text>
<polygon fill="#ffffff" stroke="transparent" points="197.5,-501 197.5,-523 465.5,-523 465.5,-501 197.5,-501"/>
<polygon fill="none" stroke="black" points="197.5,-501 197.5,-523 465.5,-523 465.5,-501 197.5,-501"/>
<image xlink:href="../../images/foreignKeys.png" width="11px" height="12px" preserveAspectRatio="xMinYMin meet" x="202.5" y="-518"/>
<text text-anchor="start" x="217.5" y="-509.2" font-family="Helvetica,sans-Serif" font-size="11.00">text_fragment_id</text>
<polygon fill="none" stroke="black" points="465.5,-501 465.5,-523 562.5,-523 562.5,-501 465.5,-501"/>
<text text-anchor="start" x="468.5" y="-509.2" font-family="Helvetica,sans-Serif" font-size="11.00">int unsigned[10]</text>
<polygon fill="#ffffff" stroke="transparent" points="197.5,-479 197.5,-501 465.5,-501 465.5,-479 197.5,-479"/>
<polygon fill="none" stroke="black" points="197.5,-479 197.5,-501 465.5,-501 465.5,-479 197.5,-479"/>
<image xlink:href="../../images/foreignKeys.png" width="11px" height="12px" preserveAspectRatio="xMinYMin meet" x="202.5" y="-496"/>
<text text-anchor="start" x="217.5" y="-487.2" font-family="Helvetica,sans-Serif" font-size="11.00">next_text_fragment_id</text>
<polygon fill="none" stroke="black" points="465.5,-479 465.5,-501 562.5,-501 562.5,-479 465.5,-479"/>
<text text-anchor="start" x="468.5" y="-487.2" font-family="Helvetica,sans-Serif" font-size="11.00">int unsigned[10]</text>
<polygon fill="#ffffff" stroke="transparent" points="197.5,-461 197.5,-479 307.5,-479 307.5,-461 197.5,-461"/>
<polygon fill="none" stroke="black" points="197.5,-461 197.5,-479 307.5,-479 307.5,-461 197.5,-461"/>
<text text-anchor="start" x="200.5" y="-467.2" font-family="Helvetica,sans-Serif" font-size="11.00">&lt; 2</text>
<polygon fill="#ffffff" stroke="transparent" points="307.5,-461 307.5,-479 465.5,-479 465.5,-461 307.5,-461"/>
<polygon fill="none" stroke="black" points="307.5,-461 307.5,-479 465.5,-479 465.5,-461 307.5,-461"/>
<text text-anchor="start" x="394.5" y="-467.2" font-family="Helvetica,sans-Serif" font-size="11.00">10,852 rows</text>
<polygon fill="#ffffff" stroke="transparent" points="465.5,-461 465.5,-479 562.5,-479 562.5,-461 465.5,-461"/>
<polygon fill="none" stroke="black" points="465.5,-461 465.5,-479 562.5,-479 562.5,-461 465.5,-461"/>
<text text-anchor="start" x="539.5" y="-467.2" font-family="Helvetica,sans-Serif" font-size="11.00">1 &gt;</text>
<polygon fill="none" stroke="black" stroke-width="2" points="196,-460 196,-568 563,-568 563,-460 196,-460"/>
</a>
</g>
</g>
<!-- position_in_text_fragment_stream&#45;&gt;text_fragment -->
<g id="edge4" class="edge">
<title>position_in_text_fragment_stream:w&#45;&gt;text_fragment:e</title>
<path fill="none" stroke="black" d="M182.22,-486.45C150.14,-466.28 199.94,-367 147,-367"/>
<polygon fill="black" stroke="black" points="188.74,-488.07 195.63,-493.49 192.62,-489.04 196.5,-490 196.5,-490 196.5,-490 192.62,-489.04 197.37,-486.51 188.74,-488.07 188.74,-488.07"/>
<ellipse fill="none" stroke="black" cx="185.63" cy="-487.3" rx="3.2" ry="3.2"/>
</g>
<!-- position_in_text_fragment_stream&#45;&gt;text_fragment -->
<g id="edge5" class="edge">
<title>position_in_text_fragment_stream:w&#45;&gt;text_fragment:e</title>
<path fill="none" stroke="black" d="M182.18,-508.97C142.16,-488.15 209.24,-367 147,-367"/>
<polygon fill="black" stroke="black" points="188.67,-510.34 195.76,-515.52 192.59,-511.17 196.5,-512 196.5,-512 196.5,-512 192.59,-511.17 197.24,-508.48 188.67,-510.34 188.67,-510.34"/>
<ellipse fill="none" stroke="black" cx="185.54" cy="-509.68" rx="3.2" ry="3.2"/>
</g>
<!-- position_in_text_fragment_stream_owner -->
<g id="node7" class="node">
<title>position_in_text_fragment_stream_owner</title>
<g id="a_node7"><a xlink:href="../../tables/position_in_text_fragment_stream_owner.html" xlink:title="position_in_text_fragment_stream_owner" target="_top">
<polygon fill="#ffffff" stroke="transparent" points="613,-50 613,-174 914,-174 914,-50 613,-50"/>
<polygon fill="#f5f5f5" stroke="transparent" points="613.5,-152 613.5,-174 914.5,-174 914.5,-152 613.5,-152"/>
<polygon fill="none" stroke="black" points="613.5,-152 613.5,-174 914.5,-174 914.5,-152 613.5,-152"/>
<text text-anchor="start" x="618.5" y="-161.2" font-family="Helvetica,sans-Serif" font-weight="bold" font-size="11.00">position_in_text_fragment_stream_owner</text>
<text text-anchor="start" x="872.5" y="-160.2" font-family="Helvetica,sans-Serif" font-size="11.00">[table]</text>
<polygon fill="none" stroke="black" points="613.5,-130 613.5,-152 914.5,-152 914.5,-130 613.5,-130"/>
<image xlink:href="../../images/primaryKeys.png" width="11px" height="12px" preserveAspectRatio="xMinYMin meet" x="618.5" y="-147"/>
<text text-anchor="start" x="635.5" y="-138.2" font-family="Helvetica,sans-Serif" font-size="11.00">position_in_text_fragment_stream_id</text>
<polygon fill="none" stroke="black" points="613.5,-108 613.5,-130 914.5,-130 914.5,-108 613.5,-108"/>
<image xlink:href="../../images/primaryKeys.png" width="11px" height="12px" preserveAspectRatio="xMinYMin meet" x="618.5" y="-125"/>
<text text-anchor="start" x="635.5" y="-116.2" font-family="Helvetica,sans-Serif" font-size="11.00">edition_id</text>
<polygon fill="#ffffff" stroke="transparent" points="613.5,-86 613.5,-108 914.5,-108 914.5,-86 613.5,-86"/>
<polygon fill="none" stroke="black" points="613.5,-86 613.5,-108 914.5,-108 914.5,-86 613.5,-86"/>
<image xlink:href="../../images/foreignKeys.png" width="11px" height="12px" preserveAspectRatio="xMinYMin meet" x="618.5" y="-103"/>
<text text-anchor="start" x="635.5" y="-94.2" font-family="Helvetica,sans-Serif" font-size="11.00">edition_editor_id</text>
<polygon fill="none" stroke="black" points="613.5,-68 613.5,-86 914.5,-86 914.5,-68 613.5,-68"/>
<text text-anchor="start" x="616.5" y="-74.2" font-family="Helvetica,sans-Serif" font-size="11.00">...</text>
<polygon fill="#ffffff" stroke="transparent" points="613.5,-50 613.5,-68 732.5,-68 732.5,-50 613.5,-50"/>
<polygon fill="none" stroke="black" points="613.5,-50 613.5,-68 732.5,-68 732.5,-50 613.5,-50"/>
<text text-anchor="start" x="616.5" y="-56.2" font-family="Helvetica,sans-Serif" font-size="11.00">&lt; 3</text>
<polygon fill="#ffffff" stroke="transparent" points="732.5,-50 732.5,-68 853.5,-68 853.5,-50 732.5,-50"/>
<polygon fill="none" stroke="black" points="732.5,-50 732.5,-68 853.5,-68 853.5,-50 732.5,-50"/>
<text text-anchor="start" x="782.5" y="-56.2" font-family="Helvetica,sans-Serif" font-size="11.00">10,450 rows</text>
<polygon fill="#ffffff" stroke="transparent" points="853.5,-50 853.5,-68 914.5,-68 914.5,-50 853.5,-50"/>
<polygon fill="none" stroke="black" points="853.5,-50 853.5,-68 914.5,-68 914.5,-50 853.5,-50"/>
<text text-anchor="start" x="903.5" y="-56.2" font-family="Helvetica,sans-Serif" font-size="11.00"> &#160;</text>
</a>
</g>
</g>
<!-- position_in_text_fragment_stream_owner&#45;&gt;edition_editor -->
<g id="edge6" class="edge">
<title>position_in_text_fragment_stream_owner:w&#45;&gt;edition_editor:e</title>
<path fill="none" stroke="black" d="M598.04,-96.56C535.78,-92.64 517.77,-64 448.5,-64"/>
<polygon fill="black" stroke="black" points="604.5,-96.76 612.39,-100.6 608.5,-96.88 612.5,-97 612.5,-97 612.5,-97 608.5,-96.88 612.61,-93.4 604.5,-96.76 604.5,-96.76"/>
<ellipse fill="none" stroke="black" cx="601.31" cy="-96.66" rx="3.2" ry="3.2"/>
</g>
<!-- position_in_text_fragment_stream_owner&#45;&gt;edition -->
<g id="edge7" class="edge">
<title>position_in_text_fragment_stream_owner:w&#45;&gt;edition:e</title>
<path fill="none" stroke="black" d="M598.09,-119.03C420.63,-119.84 368.84,-135.12 187,-105 165.92,-101.51 162.37,-91 141,-91"/>
<polygon fill="black" stroke="black" points="604.5,-119.02 612.51,-122.6 608.5,-119.01 612.5,-119 612.5,-119 612.5,-119 608.5,-119.01 612.49,-115.4 604.5,-119.02 604.5,-119.02"/>
<ellipse fill="none" stroke="black" cx="601.3" cy="-119.03" rx="3.2" ry="3.2"/>
</g>
<!-- position_in_text_fragment_stream_owner&#45;&gt;position_in_text_fragment_stream -->
<g id="edge8" class="edge">
<title>position_in_text_fragment_stream_owner:w&#45;&gt;position_in_text_fragment_stream:e</title>
<path fill="none" stroke="black" d="M598.41,-145.41C539.53,-188.59 646.01,-534 563.5,-534"/>
<polygon fill="black" stroke="black" points="604.87,-143.39 613.58,-144.44 608.68,-142.2 612.5,-141 612.5,-141 612.5,-141 608.68,-142.2 611.42,-137.56 604.87,-143.39 604.87,-143.39"/>
<ellipse fill="none" stroke="black" cx="601.81" cy="-144.35" rx="3.2" ry="3.2"/>
</g>
<!-- text_fragment_data -->
<g id="node8" class="node">
<title>text_fragment_data</title>
<g id="a_node8"><a xlink:href="../../tables/text_fragment_data.html" xlink:title="text_fragment_data" target="_top">
<polygon fill="#ffffff" stroke="transparent" points="294,-380 294,-438 465,-438 465,-380 294,-380"/>
<polygon fill="#f5f5f5" stroke="transparent" points="294.5,-416 294.5,-438 465.5,-438 465.5,-416 294.5,-416"/>
<polygon fill="none" stroke="black" points="294.5,-416 294.5,-438 465.5,-438 465.5,-416 294.5,-416"/>
<text text-anchor="start" x="299.5" y="-425.2" font-family="Helvetica,sans-Serif" font-weight="bold" font-size="11.00">text_fragment_data</text>
<text text-anchor="start" x="423.5" y="-424.2" font-family="Helvetica,sans-Serif" font-size="11.00">[table]</text>
<polygon fill="none" stroke="black" points="294.5,-398 294.5,-416 465.5,-416 465.5,-398 294.5,-398"/>
<text text-anchor="start" x="297.5" y="-404.2" font-family="Helvetica,sans-Serif" font-size="11.00">...</text>
<polygon fill="#ffffff" stroke="transparent" points="294.5,-380 294.5,-398 342.5,-398 342.5,-380 294.5,-380"/>
<polygon fill="none" stroke="black" points="294.5,-380 294.5,-398 342.5,-398 342.5,-380 294.5,-380"/>
<text text-anchor="start" x="297.5" y="-386.2" font-family="Helvetica,sans-Serif" font-size="11.00">&lt; 1</text>
<polygon fill="#ffffff" stroke="transparent" points="342.5,-380 342.5,-398 427.5,-398 427.5,-380 342.5,-380"/>
<polygon fill="none" stroke="black" points="342.5,-380 342.5,-398 427.5,-398 427.5,-380 342.5,-380"/>
<text text-anchor="start" x="356.5" y="-386.2" font-family="Helvetica,sans-Serif" font-size="11.00">11,172 rows</text>
<polygon fill="#ffffff" stroke="transparent" points="427.5,-380 427.5,-398 465.5,-398 465.5,-380 427.5,-380"/>
<polygon fill="none" stroke="black" points="427.5,-380 427.5,-398 465.5,-398 465.5,-380 427.5,-380"/>
<text text-anchor="start" x="442.5" y="-386.2" font-family="Helvetica,sans-Serif" font-size="11.00">1 &gt;</text>
</a>
</g>
</g>
<!-- text_fragment_data&#45;&gt;text_fragment -->
<g id="edge9" class="edge">
<title>text_fragment_data:w&#45;&gt;text_fragment:e</title>
<path fill="none" stroke="black" d="M279,-406.34C223.93,-401.14 209.35,-367 147,-367"/>
<polygon fill="black" stroke="black" points="285.51,-406.64 293.34,-410.6 289.5,-406.82 293.5,-407 293.5,-407 293.5,-407 289.5,-406.82 293.66,-403.4 285.51,-406.64 285.51,-406.64"/>
<ellipse fill="none" stroke="black" cx="282.31" cy="-406.49" rx="3.2" ry="3.2"/>
</g>
<!-- text_fragment_to_line -->
<g id="node9" class="node">
<title>text_fragment_to_line</title>
<g id="a_node9"><a xlink:href="../../tables/text_fragment_to_line.html" xlink:title="text_fragment_to_line" target="_top">
<polygon fill="#ffffff" stroke="transparent" points="287.5,-301 287.5,-359 471.5,-359 471.5,-301 287.5,-301"/>
<polygon fill="#f5f5f5" stroke="transparent" points="287.5,-337 287.5,-359 471.5,-359 471.5,-337 287.5,-337"/>
<polygon fill="none" stroke="black" points="287.5,-337 287.5,-359 471.5,-359 471.5,-337 287.5,-337"/>
<text text-anchor="start" x="292.5" y="-346.2" font-family="Helvetica,sans-Serif" font-weight="bold" font-size="11.00">text_fragment_to_line</text>
<text text-anchor="start" x="429.5" y="-345.2" font-family="Helvetica,sans-Serif" font-size="11.00">[table]</text>
<polygon fill="none" stroke="black" points="287.5,-319 287.5,-337 471.5,-337 471.5,-319 287.5,-319"/>
<text text-anchor="start" x="290.5" y="-325.2" font-family="Helvetica,sans-Serif" font-size="11.00">...</text>
<polygon fill="#ffffff" stroke="transparent" points="287.5,-301 287.5,-319 342.5,-319 342.5,-301 287.5,-301"/>
<polygon fill="none" stroke="black" points="287.5,-301 287.5,-319 342.5,-319 342.5,-301 287.5,-301"/>
<text text-anchor="start" x="290.5" y="-307.2" font-family="Helvetica,sans-Serif" font-size="11.00">&lt; 2</text>
<polygon fill="#ffffff" stroke="transparent" points="342.5,-301 342.5,-319 430.5,-319 430.5,-301 342.5,-301"/>
<polygon fill="none" stroke="black" points="342.5,-301 342.5,-319 430.5,-319 430.5,-301 342.5,-301"/>
<text text-anchor="start" x="359.5" y="-307.2" font-family="Helvetica,sans-Serif" font-size="11.00">53,405 rows</text>
<polygon fill="#ffffff" stroke="transparent" points="430.5,-301 430.5,-319 471.5,-319 471.5,-301 430.5,-301"/>
<polygon fill="none" stroke="black" points="430.5,-301 430.5,-319 471.5,-319 471.5,-301 430.5,-301"/>
<text text-anchor="start" x="448.5" y="-307.2" font-family="Helvetica,sans-Serif" font-size="11.00">1 &gt;</text>
</a>
</g>
</g>
<!-- text_fragment_to_line&#45;&gt;text_fragment -->
<g id="edge10" class="edge">
<title>text_fragment_to_line:w&#45;&gt;text_fragment:e</title>
<path fill="none" stroke="black" d="M272.01,-328.71C220.06,-334 206.22,-367 147,-367"/>
<polygon fill="black" stroke="black" points="278.51,-328.39 286.68,-331.6 282.5,-328.2 286.5,-328 286.5,-328 286.5,-328 282.5,-328.2 286.32,-324.4 278.51,-328.39 278.51,-328.39"/>
<ellipse fill="none" stroke="black" cx="275.31" cy="-328.55" rx="3.2" ry="3.2"/>
</g>
</g>
</svg>
