<?xml version="1.0" encoding="UTF-8" standalone="no"?>
<!DOCTYPE svg PUBLIC "-//W3C//DTD SVG 1.1//EN"
 "http://www.w3.org/Graphics/SVG/1.1/DTD/svg11.dtd">
<!-- Generated by graphviz version 2.40.1 (20161225.0304)
 -->
<!-- Title: twoDegreesRelationshipsDiagram Pages: 1 -->
<svg width="804pt" height="453pt"
 viewBox="0.00 0.00 804.00 453.00" xmlns="http://www.w3.org/2000/svg" xmlns:xlink="http://www.w3.org/1999/xlink">
<g id="graph0" class="graph" transform="scale(1 1) rotate(0) translate(4 449)">
<title>twoDegreesRelationshipsDiagram</title>
<polygon fill="#ffffff" stroke="transparent" points="-4,4 -4,-449 800,-449 800,4 -4,4"/>
<text text-anchor="middle" x="71.5" y="-7.2" font-family="Helvetica,sans-Serif" font-size="11.00" fill="#000000">Generated by SchemaSpy</text>
<!-- parallel_word -->
<g id="node1" class="node">
<title>parallel_word</title>
<g id="a_node1"><a xlink:href="../../tables/parallel_word.html" xlink:title="parallel_word" target="_top">
<polygon fill="#ffffff" stroke="transparent" points="564,-383 564,-441 679,-441 679,-383 564,-383"/>
<polygon fill="#f5f5f5" stroke="transparent" points="564.5,-419 564.5,-441 679.5,-441 679.5,-419 564.5,-419"/>
<polygon fill="none" stroke="#000000" points="564.5,-419 564.5,-441 679.5,-441 679.5,-419 564.5,-419"/>
<text text-anchor="start" x="569.5" y="-428.2" font-family="Helvetica,sans-Serif" font-weight="bold" font-size="11.00" fill="#000000">parallel_word</text>
<text text-anchor="start" x="644.5" y="-427.2" font-family="Helvetica,sans-Serif" font-size="11.00" fill="#000000">[table]</text>
<polygon fill="none" stroke="#000000" points="564.5,-401 564.5,-419 679.5,-419 679.5,-401 564.5,-401"/>
<text text-anchor="start" x="567.5" y="-407.2" font-family="Helvetica,sans-Serif" font-size="11.00" fill="#000000">...</text>
<polygon fill="#ffffff" stroke="transparent" points="564.5,-383 564.5,-401 602.5,-401 602.5,-383 564.5,-383"/>
<polygon fill="none" stroke="#000000" points="564.5,-383 564.5,-401 602.5,-401 602.5,-383 564.5,-383"/>
<text text-anchor="start" x="567.5" y="-389.2" font-family="Helvetica,sans-Serif" font-size="11.00" fill="#000000">&lt; 3</text>
<polygon fill="#ffffff" stroke="transparent" points="602.5,-383 602.5,-401 649.5,-401 649.5,-383 602.5,-383"/>
<polygon fill="none" stroke="#000000" points="602.5,-383 602.5,-401 649.5,-401 649.5,-383 602.5,-383"/>
<text text-anchor="start" x="613.5" y="-389.2" font-family="Helvetica,sans-Serif" font-size="11.00" fill="#000000">0 rows</text>
<polygon fill="#ffffff" stroke="transparent" points="649.5,-383 649.5,-401 679.5,-401 679.5,-383 649.5,-383"/>
<polygon fill="none" stroke="#000000" points="649.5,-383 649.5,-401 679.5,-401 679.5,-383 649.5,-383"/>
<text text-anchor="start" x="660.5" y="-389.2" font-family="Helvetica,sans-Serif" font-size="11.00" fill="#000000">1 &gt;</text>
</a>
</g>
</g>
<!-- user -->
<g id="node2" class="node">
<title>user</title>
<g id="a_node2"><a xlink:href="../../tables/user.html" xlink:title="user" target="_top">
<polygon fill="#ffffff" stroke="transparent" points="40,-262 40,-320 120,-320 120,-262 40,-262"/>
<polygon fill="#f5f5f5" stroke="transparent" points="40,-298 40,-320 120,-320 120,-298 40,-298"/>
<polygon fill="none" stroke="#000000" points="40,-298 40,-320 120,-320 120,-298 40,-298"/>
<text text-anchor="start" x="45" y="-307.2" font-family="Helvetica,sans-Serif" font-weight="bold" font-size="11.00" fill="#000000">user</text>
<text text-anchor="start" x="85" y="-306.2" font-family="Helvetica,sans-Serif" font-size="11.00" fill="#000000">[table]</text>
<polygon fill="none" stroke="#000000" points="40,-280 40,-298 120,-298 120,-280 40,-280"/>
<text text-anchor="start" x="43" y="-286.2" font-family="Helvetica,sans-Serif" font-size="11.00" fill="#000000">...</text>
<polygon fill="#ffffff" stroke="transparent" points="40,-262 40,-280 53,-280 53,-262 40,-262"/>
<polygon fill="none" stroke="#000000" points="40,-262 40,-280 53,-280 53,-262 40,-262"/>
<text text-anchor="start" x="43" y="-268.2" font-family="Helvetica,sans-Serif" font-size="11.00" fill="#000000"> &#160;</text>
<polygon fill="#ffffff" stroke="transparent" points="53,-262 53,-280 92,-280 92,-262 53,-262"/>
<polygon fill="none" stroke="#000000" points="53,-262 53,-280 92,-280 92,-262 53,-262"/>
<text text-anchor="start" x="56" y="-268.2" font-family="Helvetica,sans-Serif" font-size="11.00" fill="#000000">3 rows</text>
<polygon fill="#ffffff" stroke="transparent" points="92,-262 92,-280 120,-280 120,-262 92,-262"/>
<polygon fill="none" stroke="#000000" points="92,-262 92,-280 120,-280 120,-262 92,-262"/>
<text text-anchor="start" x="95" y="-268.2" font-family="Helvetica,sans-Serif" font-size="11.00" fill="#000000">40 &gt;</text>
</a>
</g>
</g>
<!-- parallel_word&#45;&gt;user -->
<g id="edge1" class="edge">
<title>parallel_word:w&#45;&gt;user:e</title>
<path fill="none" stroke="#000000" d="M549.6467,-410.0418C394.2517,-410.9037 339.37,-424.0926 193,-355 153.4464,-336.3291 163.7388,-289 120,-289"/>
<polygon fill="#000000" stroke="#000000" points="556.5,-410.0226 564.5102,-413.6 560.5,-410.0113 564.5,-410 564.5,-410 564.5,-410 560.5,-410.0113 564.4898,-406.4 556.5,-410.0226 556.5,-410.0226"/>
<ellipse fill="none" stroke="#000000" cx="553.3" cy="-410.0316" rx="3.2" ry="3.2"/>
</g>
<!-- sign_stream_section -->
<g id="node3" class="node">
<title>sign_stream_section</title>
<g id="a_node3"><a xlink:href="../../tables/sign_stream_section.html" xlink:title="sign_stream_section" target="_top">
<polygon fill="#ffffff" stroke="transparent" points="215.5,-242 215.5,-344 391.5,-344 391.5,-242 215.5,-242"/>
<polygon fill="#f5f5f5" stroke="transparent" points="215.5,-322 215.5,-344 391.5,-344 391.5,-322 215.5,-322"/>
<polygon fill="none" stroke="#000000" points="215.5,-322 215.5,-344 391.5,-344 391.5,-322 215.5,-322"/>
<text text-anchor="start" x="220.5" y="-331.2" font-family="Helvetica,sans-Serif" font-weight="bold" font-size="11.00" fill="#000000">sign_stream_section</text>
<text text-anchor="start" x="356.5" y="-330.2" font-family="Helvetica,sans-Serif" font-size="11.00" fill="#000000">[table]</text>
<polygon fill="none" stroke="#000000" points="215.5,-300 215.5,-322 391.5,-322 391.5,-300 215.5,-300"/>
<image xlink:href="../../images/primaryKeys.png" width="11px" height="12px" preserveAspectRatio="xMinYMin meet" x="220.5" y="-317"/>
<text text-anchor="start" x="235.5" y="-308.2" font-family="Helvetica,sans-Serif" font-size="11.00" fill="#000000">sign_stream_section_id</text>
<polygon fill="#ffffff" stroke="transparent" points="215.5,-278 215.5,-300 391.5,-300 391.5,-278 215.5,-278"/>
<polygon fill="none" stroke="#000000" points="215.5,-278 215.5,-300 391.5,-300 391.5,-278 215.5,-278"/>
<image xlink:href="../../images/foreignKeys.png" width="11px" height="12px" preserveAspectRatio="xMinYMin meet" x="220.5" y="-295"/>
<text text-anchor="start" x="235.5" y="-286.2" font-family="Helvetica,sans-Serif" font-size="11.00" fill="#000000">creator_id</text>
<polygon fill="none" stroke="#000000" points="215.5,-260 215.5,-278 391.5,-278 391.5,-260 215.5,-260"/>
<text text-anchor="start" x="218.5" y="-266.2" font-family="Helvetica,sans-Serif" font-size="11.00" fill="#000000">...</text>
<polygon fill="#ffffff" stroke="transparent" points="215.5,-242 215.5,-260 267.5,-260 267.5,-242 215.5,-242"/>
<polygon fill="none" stroke="#000000" points="215.5,-242 215.5,-260 267.5,-260 267.5,-242 215.5,-242"/>
<text text-anchor="start" x="218.5" y="-248.2" font-family="Helvetica,sans-Serif" font-size="11.00" fill="#000000">&lt; 1</text>
<polygon fill="#ffffff" stroke="transparent" points="267.5,-242 267.5,-260 354.5,-260 354.5,-242 267.5,-242"/>
<polygon fill="none" stroke="#000000" points="267.5,-242 267.5,-260 354.5,-260 354.5,-242 267.5,-242"/>
<text text-anchor="start" x="285.5" y="-248.2" font-family="Helvetica,sans-Serif" font-size="11.00" fill="#000000">327,795 rows</text>
<polygon fill="#ffffff" stroke="transparent" points="354.5,-242 354.5,-260 391.5,-260 391.5,-242 354.5,-242"/>
<polygon fill="none" stroke="#000000" points="354.5,-242 354.5,-260 391.5,-260 391.5,-242 354.5,-242"/>
<text text-anchor="start" x="372.5" y="-248.2" font-family="Helvetica,sans-Serif" font-size="11.00" fill="#000000">4 &gt;</text>
</a>
</g>
</g>
<!-- parallel_word&#45;&gt;sign_stream_section -->
<g id="edge2" class="edge">
<title>parallel_word:w&#45;&gt;sign_stream_section:e</title>
<path fill="none" stroke="#000000" d="M550.0483,-409.7945C506.3538,-408.4304 488.6961,-399.8946 447,-373 415.9211,-352.9537 428.4831,-311 391.5,-311"/>
<polygon fill="#000000" stroke="#000000" points="556.5008,-409.8862 564.4488,-413.5996 560.5004,-409.9431 564.5,-410 564.5,-410 564.5,-410 560.5004,-409.9431 564.5512,-406.4004 556.5008,-409.8862 556.5008,-409.8862"/>
<ellipse fill="none" stroke="#000000" cx="553.3011" cy="-409.8407" rx="3.2" ry="3.2"/>
</g>
<!-- sign_stream_section&#45;&gt;user -->
<g id="edge9" class="edge">
<title>sign_stream_section:w&#45;&gt;user:e</title>
<path fill="none" stroke="#000000" d="M200.9512,-289C169.9054,-289 157.1389,-289 120,-289"/>
<polygon fill="#000000" stroke="#000000" points="207.5,-289.0001 215.5,-292.6 211.5,-289 215.5,-289 215.5,-289 215.5,-289 211.5,-289 215.5,-285.4 207.5,-289.0001 207.5,-289.0001"/>
<ellipse fill="none" stroke="#000000" cx="204.3" cy="-289.0001" rx="3.2" ry="3.2"/>
</g>
<!-- position_in_stream -->
<g id="node4" class="node">
<title>position_in_stream</title>
<g id="a_node4"><a xlink:href="../../tables/position_in_stream.html" xlink:title="position_in_stream" target="_top">
<polygon fill="#ffffff" stroke="transparent" points="201,-74 201,-202 406,-202 406,-74 201,-74"/>
<polygon fill="#f5f5f5" stroke="transparent" points="201.5,-180 201.5,-202 406.5,-202 406.5,-180 201.5,-180"/>
<polygon fill="none" stroke="#000000" points="201.5,-180 201.5,-202 406.5,-202 406.5,-180 201.5,-180"/>
<text text-anchor="start" x="206.5" y="-189.2" font-family="Helvetica,sans-Serif" font-weight="bold" font-size="11.00" fill="#000000">position_in_stream</text>
<text text-anchor="start" x="371.5" y="-188.2" font-family="Helvetica,sans-Serif" font-size="11.00" fill="#000000">[table]</text>
<polygon fill="none" stroke="#000000" points="201.5,-158 201.5,-180 406.5,-180 406.5,-158 201.5,-158"/>
<image xlink:href="../../images/primaryKeys.png" width="11px" height="12px" preserveAspectRatio="xMinYMin meet" x="206.5" y="-175"/>
<text text-anchor="start" x="221.5" y="-166.2" font-family="Helvetica,sans-Serif" font-size="11.00" fill="#000000">position_in_stream_id</text>
<polygon fill="#ffffff" stroke="transparent" points="201.5,-136 201.5,-158 406.5,-158 406.5,-136 201.5,-136"/>
<polygon fill="none" stroke="#000000" points="201.5,-136 201.5,-158 406.5,-158 406.5,-136 201.5,-136"/>
<image xlink:href="../../images/foreignKeys.png" width="11px" height="12px" preserveAspectRatio="xMinYMin meet" x="206.5" y="-153"/>
<text text-anchor="start" x="221.5" y="-144.2" font-family="Helvetica,sans-Serif" font-size="11.00" fill="#000000">sign_interpretation_id</text>
<polygon fill="#ffffff" stroke="transparent" points="201.5,-114 201.5,-136 406.5,-136 406.5,-114 201.5,-114"/>
<polygon fill="none" stroke="#000000" points="201.5,-114 201.5,-136 406.5,-136 406.5,-114 201.5,-114"/>
<image xlink:href="../../images/foreignKeys.png" width="11px" height="12px" preserveAspectRatio="xMinYMin meet" x="206.5" y="-131"/>
<text text-anchor="start" x="221.5" y="-122.2" font-family="Helvetica,sans-Serif" font-size="11.00" fill="#000000">next_sign_interpretation_id</text>
<polygon fill="#ffffff" stroke="transparent" points="201.5,-92 201.5,-114 406.5,-114 406.5,-92 201.5,-92"/>
<polygon fill="none" stroke="#000000" points="201.5,-92 201.5,-114 406.5,-114 406.5,-92 201.5,-92"/>
<image xlink:href="../../images/foreignKeys.png" width="11px" height="12px" preserveAspectRatio="xMinYMin meet" x="206.5" y="-109"/>
<text text-anchor="start" x="221.5" y="-100.2" font-family="Helvetica,sans-Serif" font-size="11.00" fill="#000000">creator_id</text>
<polygon fill="#ffffff" stroke="transparent" points="201.5,-74 201.5,-92 263.5,-92 263.5,-74 201.5,-74"/>
<polygon fill="none" stroke="#000000" points="201.5,-74 201.5,-92 263.5,-92 263.5,-74 201.5,-74"/>
<text text-anchor="start" x="204.5" y="-80.2" font-family="Helvetica,sans-Serif" font-size="11.00" fill="#000000">&lt; 3</text>
<polygon fill="#ffffff" stroke="transparent" points="263.5,-74 263.5,-92 364.5,-92 364.5,-74 263.5,-74"/>
<polygon fill="none" stroke="#000000" points="263.5,-74 263.5,-92 364.5,-92 364.5,-74 263.5,-74"/>
<text text-anchor="start" x="286.5" y="-80.2" font-family="Helvetica,sans-Serif" font-size="11.00" fill="#000000">1,719,529 rows</text>
<polygon fill="#ffffff" stroke="transparent" points="364.5,-74 364.5,-92 406.5,-92 406.5,-74 364.5,-74"/>
<polygon fill="none" stroke="#000000" points="364.5,-74 364.5,-92 406.5,-92 406.5,-74 364.5,-74"/>
<text text-anchor="start" x="387.5" y="-80.2" font-family="Helvetica,sans-Serif" font-size="11.00" fill="#000000">2 &gt;</text>
</a>
</g>
</g>
<!-- position_in_stream&#45;&gt;user -->
<g id="edge3" class="edge">
<title>position_in_stream:w&#45;&gt;user:e</title>
<path fill="none" stroke="#000000" d="M188.4854,-109.1886C157.6433,-141.4624 160.1913,-289 120,-289"/>
<polygon fill="#000000" stroke="#000000" points="194.2752,-106.4355 203.046,-106.2512 197.8876,-104.7177 201.5,-103 201.5,-103 201.5,-103 197.8876,-104.7177 199.954,-99.7488 194.2752,-106.4355 194.2752,-106.4355"/>
<ellipse fill="none" stroke="#000000" cx="191.3853" cy="-107.8097" rx="3.2" ry="3.2"/>
</g>
<!-- sign_interpretation -->
<g id="node5" class="node">
<title>sign_interpretation</title>
<g id="a_node5"><a xlink:href="../../tables/sign_interpretation.html" xlink:title="sign_interpretation" target="_top">
<polygon fill="#ffffff" stroke="transparent" points="8,-109 8,-167 152,-167 152,-109 8,-109"/>
<polygon fill="#f5f5f5" stroke="transparent" points="8,-145 8,-167 152,-167 152,-145 8,-145"/>
<polygon fill="none" stroke="#000000" points="8,-145 8,-167 152,-167 152,-145 8,-145"/>
<text text-anchor="start" x="13" y="-154.2" font-family="Helvetica,sans-Serif" font-weight="bold" font-size="11.00" fill="#000000">sign_interpretation</text>
<text text-anchor="start" x="117" y="-153.2" font-family="Helvetica,sans-Serif" font-size="11.00" fill="#000000">[table]</text>
<polygon fill="none" stroke="#000000" points="8,-127 8,-145 152,-145 152,-127 8,-127"/>
<text text-anchor="start" x="11" y="-133.2" font-family="Helvetica,sans-Serif" font-size="11.00" fill="#000000">...</text>
<polygon fill="#ffffff" stroke="transparent" points="8,-109 8,-127 39,-127 39,-109 8,-109"/>
<polygon fill="none" stroke="#000000" points="8,-109 8,-127 39,-127 39,-109 8,-109"/>
<text text-anchor="start" x="11" y="-115.2" font-family="Helvetica,sans-Serif" font-size="11.00" fill="#000000">&lt; 1</text>
<polygon fill="#ffffff" stroke="transparent" points="39,-109 39,-127 125,-127 125,-109 39,-109"/>
<polygon fill="none" stroke="#000000" points="39,-109 39,-127 125,-127 125,-109 39,-109"/>
<text text-anchor="start" x="47" y="-115.2" font-family="Helvetica,sans-Serif" font-size="11.00" fill="#000000">1,586,942 rows</text>
<polygon fill="#ffffff" stroke="transparent" points="125,-109 125,-127 152,-127 152,-109 125,-109"/>
<polygon fill="none" stroke="#000000" points="125,-109 125,-127 152,-127 152,-109 125,-109"/>
<text text-anchor="start" x="133" y="-115.2" font-family="Helvetica,sans-Serif" font-size="11.00" fill="#000000">5 &gt;</text>
</a>
</g>
</g>
<!-- position_in_stream&#45;&gt;sign_interpretation -->
<g id="edge4" class="edge">
<title>position_in_stream:w&#45;&gt;sign_interpretation:e</title>
<path fill="none" stroke="#000000" d="M187.0598,-126.8164C175.4771,-129.9407 168.7264,-136 152,-136"/>
<polygon fill="#000000" stroke="#000000" points="193.5626,-125.9985 201.9493,-128.5719 197.5313,-125.4992 201.5,-125 201.5,-125 201.5,-125 197.5313,-125.4992 201.0507,-121.4281 193.5626,-125.9985 193.5626,-125.9985"/>
<ellipse fill="none" stroke="#000000" cx="190.3876" cy="-126.3979" rx="3.2" ry="3.2"/>
</g>
<!-- position_in_stream&#45;&gt;sign_interpretation -->
<g id="edge5" class="edge">
<title>position_in_stream:w&#45;&gt;sign_interpretation:e</title>
<path fill="none" stroke="#000000" d="M187.0598,-145.1836C175.4771,-142.0593 168.7264,-136 152,-136"/>
<polygon fill="#000000" stroke="#000000" points="193.5626,-146.0015 201.0507,-150.5719 197.5313,-146.5008 201.5,-147 201.5,-147 201.5,-147 197.5313,-146.5008 201.9493,-143.4281 193.5626,-146.0015 193.5626,-146.0015"/>
<ellipse fill="none" stroke="#000000" cx="190.3876" cy="-145.6021" rx="3.2" ry="3.2"/>
</g>
<!-- position_in_stream_owner -->
<g id="node6" class="node">
<title>position_in_stream_owner</title>
<g id="a_node6"><a xlink:href="../../tables/position_in_stream_owner.html" xlink:title="position_in_stream_owner" target="_top">
<polygon fill="#ffffff" stroke="transparent" points="530,-37 530,-95 713,-95 713,-37 530,-37"/>
<polygon fill="#f5f5f5" stroke="transparent" points="530.5,-73 530.5,-95 713.5,-95 713.5,-73 530.5,-73"/>
<polygon fill="none" stroke="#000000" points="530.5,-73 530.5,-95 713.5,-95 713.5,-73 530.5,-73"/>
<text text-anchor="start" x="535.5" y="-82.2" font-family="Helvetica,sans-Serif" font-weight="bold" font-size="11.00" fill="#000000">position_in_stream_owner</text>
<text text-anchor="start" x="678.5" y="-81.2" font-family="Helvetica,sans-Serif" font-size="11.00" fill="#000000">[table]</text>
<polygon fill="none" stroke="#000000" points="530.5,-55 530.5,-73 713.5,-73 713.5,-55 530.5,-55"/>
<text text-anchor="start" x="533.5" y="-61.2" font-family="Helvetica,sans-Serif" font-size="11.00" fill="#000000">...</text>
<polygon fill="#ffffff" stroke="transparent" points="530.5,-37 530.5,-55 585.5,-55 585.5,-37 530.5,-37"/>
<polygon fill="none" stroke="#000000" points="530.5,-37 530.5,-55 585.5,-55 585.5,-37 530.5,-37"/>
<text text-anchor="start" x="533.5" y="-43.2" font-family="Helvetica,sans-Serif" font-size="11.00" fill="#000000">&lt; 3</text>
<polygon fill="#ffffff" stroke="transparent" points="585.5,-37 585.5,-55 683.5,-55 683.5,-37 585.5,-37"/>
<polygon fill="none" stroke="#000000" points="585.5,-37 585.5,-55 683.5,-55 683.5,-37 585.5,-37"/>
<text text-anchor="start" x="605.5" y="-43.2" font-family="Helvetica,sans-Serif" font-size="11.00" fill="#000000">1,719,776 rows</text>
<polygon fill="#ffffff" stroke="transparent" points="683.5,-37 683.5,-55 713.5,-55 713.5,-37 683.5,-37"/>
<polygon fill="none" stroke="#000000" points="683.5,-37 683.5,-55 713.5,-55 713.5,-37 683.5,-37"/>
<text text-anchor="start" x="703.5" y="-43.2" font-family="Helvetica,sans-Serif" font-size="11.00" fill="#000000"> &#160;</text>
</a>
</g>
</g>
<!-- position_in_stream_owner&#45;&gt;position_in_stream -->
<g id="edge6" class="edge">
<title>position_in_stream_owner:w&#45;&gt;position_in_stream:e</title>
<path fill="none" stroke="#000000" d="M515.8992,-64.669C485.898,-67.6867 473.8003,-80.9426 447,-105 421.9505,-127.4858 440.1613,-169 406.5,-169"/>
<polygon fill="#000000" stroke="#000000" points="522.5084,-64.3662 530.6648,-67.5962 526.5042,-64.1831 530.5,-64 530.5,-64 530.5,-64 526.5042,-64.1831 530.3352,-60.4038 522.5084,-64.3662 522.5084,-64.3662"/>
<ellipse fill="none" stroke="#000000" cx="519.3117" cy="-64.5127" rx="3.2" ry="3.2"/>
</g>
<!-- position_in_stream_to_section_rel -->
<g id="node7" class="node">
<title>position_in_stream_to_section_rel</title>
<g id="a_node7"><a xlink:href="../../tables/position_in_stream_to_section_rel.html" xlink:title="position_in_stream_to_section_rel" target="_top">
<polygon fill="#ffffff" stroke="transparent" points="455,-116 455,-204 788,-204 788,-116 455,-116"/>
<polygon fill="#f5f5f5" stroke="transparent" points="457.5,-180 457.5,-202 786.5,-202 786.5,-180 457.5,-180"/>
<polygon fill="none" stroke="#000000" points="457.5,-180 457.5,-202 786.5,-202 786.5,-180 457.5,-180"/>
<text text-anchor="start" x="462.5" y="-189.2" font-family="Helvetica,sans-Serif" font-weight="bold" font-size="11.00" fill="#000000">position_in_stream_to_section_rel</text>
<text text-anchor="start" x="751.5" y="-188.2" font-family="Helvetica,sans-Serif" font-size="11.00" fill="#000000">[table]</text>
<polygon fill="none" stroke="#000000" points="457.5,-158 457.5,-180 704.5,-180 704.5,-158 457.5,-158"/>
<image xlink:href="../../images/primaryKeys.png" width="11px" height="12px" preserveAspectRatio="xMinYMin meet" x="462.5" y="-175"/>
<text text-anchor="start" x="477.5" y="-166.2" font-family="Helvetica,sans-Serif" font-size="11.00" fill="#000000">position_in_stream_id</text>
<polygon fill="none" stroke="#000000" points="704.5,-158 704.5,-180 786.5,-180 786.5,-158 704.5,-158"/>
<text text-anchor="start" x="707.5" y="-166.2" font-family="Helvetica,sans-Serif" font-size="11.00" fill="#000000">int unsigned[10]</text>
<polygon fill="none" stroke="#000000" points="457.5,-136 457.5,-158 704.5,-158 704.5,-136 457.5,-136"/>
<image xlink:href="../../images/primaryKeys.png" width="11px" height="12px" preserveAspectRatio="xMinYMin meet" x="462.5" y="-153"/>
<text text-anchor="start" x="477.5" y="-144.2" font-family="Helvetica,sans-Serif" font-size="11.00" fill="#000000">sign_stream_section_id</text>
<polygon fill="none" stroke="#000000" points="704.5,-136 704.5,-158 786.5,-158 786.5,-136 704.5,-136"/>
<text text-anchor="start" x="707.5" y="-144.2" font-family="Helvetica,sans-Serif" font-size="11.00" fill="#000000">int unsigned[10]</text>
<polygon fill="#ffffff" stroke="transparent" points="457.5,-118 457.5,-136 551.5,-136 551.5,-118 457.5,-118"/>
<polygon fill="none" stroke="#000000" points="457.5,-118 457.5,-136 551.5,-136 551.5,-118 457.5,-118"/>
<text text-anchor="start" x="460.5" y="-124.2" font-family="Helvetica,sans-Serif" font-size="11.00" fill="#000000">&lt; 2</text>
<polygon fill="#ffffff" stroke="transparent" points="551.5,-118 551.5,-136 704.5,-136 704.5,-118 551.5,-118"/>
<polygon fill="none" stroke="#000000" points="551.5,-118 551.5,-136 704.5,-136 704.5,-118 551.5,-118"/>
<text text-anchor="start" x="626.5" y="-124.2" font-family="Helvetica,sans-Serif" font-size="11.00" fill="#000000">1,238,253 rows</text>
<polygon fill="#ffffff" stroke="transparent" points="704.5,-118 704.5,-136 786.5,-136 786.5,-118 704.5,-118"/>
<polygon fill="none" stroke="#000000" points="704.5,-118 704.5,-136 786.5,-136 786.5,-118 704.5,-118"/>
<text text-anchor="start" x="767.5" y="-124.2" font-family="Helvetica,sans-Serif" font-size="11.00" fill="#000000">0 &gt;</text>
<polygon fill="none" stroke="#000000" stroke-width="2" points="456,-117 456,-203 787,-203 787,-117 456,-117"/>
</a>
</g>
</g>
<!-- position_in_stream_to_section_rel&#45;&gt;sign_stream_section -->
<g id="edge8" class="edge">
<title>position_in_stream_to_section_rel:w&#45;&gt;sign_stream_section:e</title>
<path fill="none" stroke="#000000" d="M442.997,-149.4456C391.2163,-169.8467 464.392,-311 391.5,-311"/>
<polygon fill="#000000" stroke="#000000" points="449.6114,-148.3303 458.0986,-150.5499 453.5557,-147.6651 457.5,-147 457.5,-147 457.5,-147 453.5557,-147.6651 456.9014,-143.4501 449.6114,-148.3303 449.6114,-148.3303"/>
<ellipse fill="none" stroke="#000000" cx="446.4559" cy="-148.8624" rx="3.2" ry="3.2"/>
</g>
<!-- position_in_stream_to_section_rel&#45;&gt;position_in_stream -->
<g id="edge7" class="edge">
<title>position_in_stream_to_section_rel:w&#45;&gt;position_in_stream:e</title>
<path fill="none" stroke="#000000" d="M442.776,-169C430.7815,-169 423.3229,-169 406.5,-169"/>
<polygon fill="#000000" stroke="#000000" points="449.5,-169.0001 457.5,-172.6 453.5,-169 457.5,-169 457.5,-169 457.5,-169 453.5,-169 457.5,-165.4 449.5,-169.0001 449.5,-169.0001"/>
<ellipse fill="none" stroke="#000000" cx="446.3" cy="-169.0001" rx="3.2" ry="3.2"/>
</g>
<!-- sign_stream_section_owner -->
<g id="node8" class="node">
<title>sign_stream_section_owner</title>
<g id="a_node8"><a xlink:href="../../tables/sign_stream_section_owner.html" xlink:title="sign_stream_section_owner" target="_top">
<polygon fill="#ffffff" stroke="transparent" points="525.5,-225 525.5,-283 717.5,-283 717.5,-225 525.5,-225"/>
<polygon fill="#f5f5f5" stroke="transparent" points="525.5,-261 525.5,-283 717.5,-283 717.5,-261 525.5,-261"/>
<polygon fill="none" stroke="#000000" points="525.5,-261 525.5,-283 717.5,-283 717.5,-261 525.5,-261"/>
<text text-anchor="start" x="530.5" y="-270.2" font-family="Helvetica,sans-Serif" font-weight="bold" font-size="11.00" fill="#000000">sign_stream_section_owner</text>
<text text-anchor="start" x="682.5" y="-269.2" font-family="Helvetica,sans-Serif" font-size="11.00" fill="#000000">[table]</text>
<polygon fill="none" stroke="#000000" points="525.5,-243 525.5,-261 717.5,-261 717.5,-243 525.5,-243"/>
<text text-anchor="start" x="528.5" y="-249.2" font-family="Helvetica,sans-Serif" font-size="11.00" fill="#000000">...</text>
<polygon fill="#ffffff" stroke="transparent" points="525.5,-225 525.5,-243 589.5,-243 589.5,-225 525.5,-225"/>
<polygon fill="none" stroke="#000000" points="525.5,-225 525.5,-243 589.5,-243 589.5,-225 525.5,-225"/>
<text text-anchor="start" x="528.5" y="-231.2" font-family="Helvetica,sans-Serif" font-size="11.00" fill="#000000">&lt; 3</text>
<polygon fill="#ffffff" stroke="transparent" points="589.5,-225 589.5,-243 682.5,-243 682.5,-225 589.5,-225"/>
<polygon fill="none" stroke="#000000" points="589.5,-225 589.5,-243 682.5,-243 682.5,-225 589.5,-225"/>
<text text-anchor="start" x="613.5" y="-231.2" font-family="Helvetica,sans-Serif" font-size="11.00" fill="#000000">327,684 rows</text>
<polygon fill="#ffffff" stroke="transparent" points="682.5,-225 682.5,-243 717.5,-243 717.5,-225 682.5,-225"/>
<polygon fill="none" stroke="#000000" points="682.5,-225 682.5,-243 717.5,-243 717.5,-225 682.5,-225"/>
<text text-anchor="start" x="707.5" y="-231.2" font-family="Helvetica,sans-Serif" font-size="11.00" fill="#000000"> &#160;</text>
</a>
</g>
</g>
<!-- sign_stream_section_owner&#45;&gt;sign_stream_section -->
<g id="edge10" class="edge">
<title>sign_stream_section_owner:w&#45;&gt;sign_stream_section:e</title>
<path fill="none" stroke="#000000" d="M510.9821,-253.0744C459.4173,-261.0709 451.3619,-311 391.5,-311"/>
<polygon fill="#000000" stroke="#000000" points="517.5218,-252.5905 525.7657,-255.5902 521.5109,-252.2952 525.5,-252 525.5,-252 525.5,-252 521.5109,-252.2952 525.2343,-248.4098 517.5218,-252.5905 517.5218,-252.5905"/>
<ellipse fill="none" stroke="#000000" cx="514.3305" cy="-252.8267" rx="3.2" ry="3.2"/>
</g>
<!-- sign_stream_section_to_qwb_word -->
<g id="node9" class="node">
<title>sign_stream_section_to_qwb_word</title>
<g id="a_node9"><a xlink:href="../../tables/sign_stream_section_to_qwb_word.html" xlink:title="sign_stream_section_to_qwb_word" target="_top">
<polygon fill="#ffffff" stroke="transparent" points="506.5,-304 506.5,-362 736.5,-362 736.5,-304 506.5,-304"/>
<polygon fill="#f5f5f5" stroke="transparent" points="506.5,-340 506.5,-362 736.5,-362 736.5,-340 506.5,-340"/>
<polygon fill="none" stroke="#000000" points="506.5,-340 506.5,-362 736.5,-362 736.5,-340 506.5,-340"/>
<text text-anchor="start" x="511.5" y="-349.2" font-family="Helvetica,sans-Serif" font-weight="bold" font-size="11.00" fill="#000000">sign_stream_section_to_qwb_word</text>
<text text-anchor="start" x="701.5" y="-348.2" font-family="Helvetica,sans-Serif" font-size="11.00" fill="#000000">[table]</text>
<polygon fill="none" stroke="#000000" points="506.5,-322 506.5,-340 736.5,-340 736.5,-322 506.5,-322"/>
<text text-anchor="start" x="509.5" y="-328.2" font-family="Helvetica,sans-Serif" font-size="11.00" fill="#000000">...</text>
<polygon fill="#ffffff" stroke="transparent" points="506.5,-304 506.5,-322 589.5,-322 589.5,-304 506.5,-304"/>
<polygon fill="none" stroke="#000000" points="506.5,-304 506.5,-322 589.5,-322 589.5,-304 506.5,-304"/>
<text text-anchor="start" x="509.5" y="-310.2" font-family="Helvetica,sans-Serif" font-size="11.00" fill="#000000">&lt; 2</text>
<polygon fill="#ffffff" stroke="transparent" points="589.5,-304 589.5,-322 692.5,-322 692.5,-304 589.5,-304"/>
<polygon fill="none" stroke="#000000" points="589.5,-304 589.5,-322 692.5,-322 692.5,-304 589.5,-304"/>
<text text-anchor="start" x="623.5" y="-310.2" font-family="Helvetica,sans-Serif" font-size="11.00" fill="#000000">328,329 rows</text>
<polygon fill="#ffffff" stroke="transparent" points="692.5,-304 692.5,-322 736.5,-322 736.5,-304 692.5,-304"/>
<polygon fill="none" stroke="#000000" points="692.5,-304 692.5,-322 736.5,-322 736.5,-304 692.5,-304"/>
<text text-anchor="start" x="726.5" y="-310.2" font-family="Helvetica,sans-Serif" font-size="11.00" fill="#000000"> &#160;</text>
</a>
</g>
</g>
<!-- sign_stream_section_to_qwb_word&#45;&gt;sign_stream_section -->
<g id="edge11" class="edge">
<title>sign_stream_section_to_qwb_word:w&#45;&gt;sign_stream_section:e</title>
<path fill="none" stroke="#000000" d="M491.8656,-330.423C451.9187,-327.1438 438.1094,-311 391.5,-311"/>
<polygon fill="#000000" stroke="#000000" points="498.5062,-330.6848 506.3581,-334.5972 502.5031,-330.8424 506.5,-331 506.5,-331 506.5,-331 502.5031,-330.8424 506.6419,-327.4028 498.5062,-330.6848 498.5062,-330.6848"/>
<ellipse fill="none" stroke="#000000" cx="495.3087" cy="-330.5587" rx="3.2" ry="3.2"/>
</g>
</g>
</svg>
