<?xml version="1.0" encoding="UTF-8" standalone="no"?>
<!DOCTYPE svg PUBLIC "-//W3C//DTD SVG 1.1//EN"
 "http://www.w3.org/Graphics/SVG/1.1/DTD/svg11.dtd">
<!-- Generated by graphviz version 2.43.0 (0)
 -->
<!-- Title: oneDegreeRelationshipsDiagram Pages: 1 -->
<svg width="570pt" height="278pt"
 viewBox="0.00 0.00 570.00 278.00" xmlns="http://www.w3.org/2000/svg" xmlns:xlink="http://www.w3.org/1999/xlink">
<g id="graph0" class="graph" transform="scale(1 1) rotate(0) translate(4 274)">
<title>oneDegreeRelationshipsDiagram</title>
<polygon fill="#ffffff" stroke="transparent" points="-4,4 -4,-274 566,-274 566,4 -4,4"/>
<text text-anchor="middle" x="79.5" y="-7.2" font-family="Helvetica,sans-Serif" font-size="11.00">Generated by SchemaSpy</text>
<!-- qwb_variant -->
<g id="node1" class="node">
<title>qwb_variant</title>
<g id="a_node1"><a xlink:href="../../tables/qwb_variant.html" xlink:title="qwb_variant" target="_top">
<polygon fill="#ffffff" stroke="transparent" points="360,-142 360,-266 487,-266 487,-142 360,-142"/>
<polygon fill="#f5f5f5" stroke="transparent" points="360.5,-244 360.5,-266 487.5,-266 487.5,-244 360.5,-244"/>
<polygon fill="none" stroke="black" points="360.5,-244 360.5,-266 487.5,-266 487.5,-244 360.5,-244"/>
<text text-anchor="start" x="365.5" y="-253.2" font-family="Helvetica,sans-Serif" font-weight="bold" font-size="11.00">qwb_variant</text>
<text text-anchor="start" x="445.5" y="-252.2" font-family="Helvetica,sans-Serif" font-size="11.00">[table]</text>
<polygon fill="none" stroke="black" points="360.5,-222 360.5,-244 487.5,-244 487.5,-222 360.5,-222"/>
<image xlink:href="../../images/primaryKeys.png" width="11px" height="12px" preserveAspectRatio="xMinYMin meet" x="365.5" y="-239"/>
<text text-anchor="start" x="383.5" y="-230.2" font-family="Helvetica,sans-Serif" font-size="11.00">qwb_variant_id</text>
<polygon fill="#ffffff" stroke="transparent" points="360.5,-200 360.5,-222 487.5,-222 487.5,-200 360.5,-200"/>
<polygon fill="none" stroke="black" points="360.5,-200 360.5,-222 487.5,-222 487.5,-200 360.5,-200"/>
<image xlink:href="../../images/foreignKeys.png" width="11px" height="12px" preserveAspectRatio="xMinYMin meet" x="365.5" y="-217"/>
<text text-anchor="start" x="383.5" y="-208.2" font-family="Helvetica,sans-Serif" font-size="11.00">qwb_word_id</text>
<polygon fill="#ffffff" stroke="transparent" points="360.5,-178 360.5,-200 487.5,-200 487.5,-178 360.5,-178"/>
<polygon fill="none" stroke="black" points="360.5,-178 360.5,-200 487.5,-200 487.5,-178 360.5,-178"/>
<image xlink:href="../../images/foreignKeys.png" width="11px" height="12px" preserveAspectRatio="xMinYMin meet" x="365.5" y="-195"/>
<text text-anchor="start" x="383.5" y="-186.2" font-family="Helvetica,sans-Serif" font-size="11.00">qwb_biblio_id</text>
<polygon fill="none" stroke="black" points="360.5,-160 360.5,-178 487.5,-178 487.5,-160 360.5,-160"/>
<text text-anchor="start" x="363.5" y="-166.2" font-family="Helvetica,sans-Serif" font-size="11.00">...</text>
<polygon fill="#ffffff" stroke="transparent" points="360.5,-142 360.5,-160 408.5,-160 408.5,-142 360.5,-142"/>
<polygon fill="none" stroke="black" points="360.5,-142 360.5,-160 408.5,-160 408.5,-142 360.5,-142"/>
<text text-anchor="start" x="363.5" y="-148.2" font-family="Helvetica,sans-Serif" font-size="11.00">&lt; 2</text>
<polygon fill="#ffffff" stroke="transparent" points="408.5,-142 408.5,-160 462.5,-160 462.5,-142 408.5,-142"/>
<polygon fill="none" stroke="black" points="408.5,-142 408.5,-160 462.5,-160 462.5,-142 408.5,-142"/>
<text text-anchor="start" x="422.5" y="-148.2" font-family="Helvetica,sans-Serif" font-size="11.00">0 rows</text>
<polygon fill="#ffffff" stroke="transparent" points="462.5,-142 462.5,-160 487.5,-160 487.5,-142 462.5,-142"/>
<polygon fill="none" stroke="black" points="462.5,-142 462.5,-160 487.5,-160 487.5,-142 462.5,-142"/>
<text text-anchor="start" x="476.5" y="-148.2" font-family="Helvetica,sans-Serif" font-size="11.00"> &#160;</text>
</a>
</g>
</g>
<!-- qwb_word -->
<g id="node2" class="node">
<title>qwb_word</title>
<g id="a_node2"><a xlink:href="../../tables/qwb_word.html" xlink:title="qwb_word" target="_top">
<polygon fill="#ffffff" stroke="transparent" points="8,-63 8,-173 244,-173 244,-63 8,-63"/>
<polygon fill="#f5f5f5" stroke="transparent" points="10,-149 10,-171 242,-171 242,-149 10,-149"/>
<polygon fill="none" stroke="black" points="10,-149 10,-171 242,-171 242,-149 10,-149"/>
<text text-anchor="start" x="15" y="-158.2" font-family="Helvetica,sans-Serif" font-weight="bold" font-size="11.00">qwb_word</text>
<text text-anchor="start" x="200" y="-157.2" font-family="Helvetica,sans-Serif" font-size="11.00">[table]</text>
<polygon fill="none" stroke="black" points="10,-127 10,-149 145,-149 145,-127 10,-127"/>
<image xlink:href="../../images/primaryKeys.png" width="11px" height="12px" preserveAspectRatio="xMinYMin meet" x="15" y="-144"/>
<text text-anchor="start" x="30" y="-135.2" font-family="Helvetica,sans-Serif" font-size="11.00">qwb_word_id</text>
<polygon fill="none" stroke="black" points="145,-127 145,-149 242,-149 242,-127 145,-127"/>
<text text-anchor="start" x="148" y="-135.2" font-family="Helvetica,sans-Serif" font-size="11.00">int unsigned[10]</text>
<polygon fill="none" stroke="black" points="10,-105 10,-127 145,-127 145,-105 10,-105"/>
<text text-anchor="start" x="30" y="-113.2" font-family="Helvetica,sans-Serif" font-size="11.00">qwb_last_change</text>
<polygon fill="none" stroke="black" points="145,-105 145,-127 242,-127 242,-105 145,-105"/>
<text text-anchor="start" x="148" y="-113.2" font-family="Helvetica,sans-Serif" font-size="11.00">datetime[19]</text>
<polygon fill="none" stroke="black" points="10,-83 10,-105 145,-105 145,-83 10,-83"/>
<text text-anchor="start" x="30" y="-91.2" font-family="Helvetica,sans-Serif" font-size="11.00">processing</text>
<polygon fill="none" stroke="black" points="145,-83 145,-105 242,-105 242,-83 145,-83"/>
<text text-anchor="start" x="148" y="-91.2" font-family="Helvetica,sans-Serif" font-size="11.00">tinyint[3]</text>
<polygon fill="#ffffff" stroke="transparent" points="10,-65 10,-83 50,-83 50,-65 10,-65"/>
<polygon fill="none" stroke="black" points="10,-65 10,-83 50,-83 50,-65 10,-65"/>
<text text-anchor="start" x="13" y="-71.2" font-family="Helvetica,sans-Serif" font-size="11.00">&lt; 0</text>
<polygon fill="#ffffff" stroke="transparent" points="50,-65 50,-83 145,-83 145,-65 50,-65"/>
<polygon fill="none" stroke="black" points="50,-65 50,-83 145,-83 145,-65 50,-65"/>
<text text-anchor="start" x="67" y="-71.2" font-family="Helvetica,sans-Serif" font-size="11.00">319,584 rows</text>
<polygon fill="#ffffff" stroke="transparent" points="145,-65 145,-83 242,-83 242,-65 145,-65"/>
<polygon fill="none" stroke="black" points="145,-65 145,-83 242,-83 242,-65 145,-65"/>
<text text-anchor="start" x="219" y="-71.2" font-family="Helvetica,sans-Serif" font-size="11.00">2 &gt;</text>
<polygon fill="none" stroke="black" stroke-width="2" points="9,-64 9,-172 243,-172 243,-64 9,-64"/>
</a>
</g>
</g>
<!-- qwb_variant&#45;&gt;qwb_word -->
<g id="edge1" class="edge">
<title>qwb_variant:w&#45;&gt;qwb_word:e</title>
<path fill="none" stroke="black" d="M345.14,-209.48C298.88,-198.99 298.85,-138 243,-138"/>
<polygon fill="black" stroke="black" points="351.54,-210.16 359.12,-214.58 355.52,-210.58 359.5,-211 359.5,-211 359.5,-211 355.52,-210.58 359.88,-207.42 351.54,-210.16 351.54,-210.16"/>
<ellipse fill="none" stroke="black" cx="348.36" cy="-209.82" rx="3.2" ry="3.2"/>
</g>
<!-- sign_stream_section_to_qwb_word -->
<g id="node3" class="node">
<title>sign_stream_section_to_qwb_word</title>
<g id="a_node3"><a xlink:href="../../tables/sign_stream_section_to_qwb_word.html" xlink:title="sign_stream_section_to_qwb_word" target="_top">
<polygon fill="#ffffff" stroke="transparent" points="293,-37 293,-121 554,-121 554,-37 293,-37"/>
<polygon fill="#f5f5f5" stroke="transparent" points="293.5,-99 293.5,-121 554.5,-121 554.5,-99 293.5,-99"/>
<polygon fill="none" stroke="black" points="293.5,-99 293.5,-121 554.5,-121 554.5,-99 293.5,-99"/>
<text text-anchor="start" x="298.5" y="-108.2" font-family="Helvetica,sans-Serif" font-weight="bold" font-size="11.00">sign_stream_section_to_qwb_word</text>
<text text-anchor="start" x="512.5" y="-107.2" font-family="Helvetica,sans-Serif" font-size="11.00">[table]</text>
<polygon fill="#ffffff" stroke="transparent" points="293.5,-77 293.5,-99 554.5,-99 554.5,-77 293.5,-77"/>
<polygon fill="none" stroke="black" points="293.5,-77 293.5,-99 554.5,-99 554.5,-77 293.5,-77"/>
<image xlink:href="../../images/foreignKeys.png" width="11px" height="12px" preserveAspectRatio="xMinYMin meet" x="298.5" y="-94"/>
<text text-anchor="start" x="318.5" y="-85.2" font-family="Helvetica,sans-Serif" font-size="11.00">sign_stream_section_id</text>
<polygon fill="#ffffff" stroke="transparent" points="293.5,-55 293.5,-77 554.5,-77 554.5,-55 293.5,-55"/>
<polygon fill="none" stroke="black" points="293.5,-55 293.5,-77 554.5,-77 554.5,-55 293.5,-55"/>
<image xlink:href="../../images/foreignKeys.png" width="11px" height="12px" preserveAspectRatio="xMinYMin meet" x="298.5" y="-72"/>
<text text-anchor="start" x="318.5" y="-63.2" font-family="Helvetica,sans-Serif" font-size="11.00">qwb_word_id</text>
<polygon fill="#ffffff" stroke="transparent" points="293.5,-37 293.5,-55 389.5,-55 389.5,-37 293.5,-37"/>
<polygon fill="none" stroke="black" points="293.5,-37 293.5,-55 389.5,-55 389.5,-37 293.5,-37"/>
<text text-anchor="start" x="296.5" y="-43.2" font-family="Helvetica,sans-Serif" font-size="11.00">&lt; 2</text>
<polygon fill="#ffffff" stroke="transparent" points="389.5,-37 389.5,-55 505.5,-55 505.5,-37 389.5,-37"/>
<polygon fill="none" stroke="black" points="389.5,-37 389.5,-55 505.5,-55 505.5,-37 389.5,-37"/>
<text text-anchor="start" x="427.5" y="-43.2" font-family="Helvetica,sans-Serif" font-size="11.00">328,329 rows</text>
<polygon fill="#ffffff" stroke="transparent" points="505.5,-37 505.5,-55 554.5,-55 554.5,-37 505.5,-37"/>
<polygon fill="none" stroke="black" points="505.5,-37 505.5,-55 554.5,-55 554.5,-37 505.5,-37"/>
<text text-anchor="start" x="543.5" y="-43.2" font-family="Helvetica,sans-Serif" font-size="11.00"> &#160;</text>
</a>
</g>
</g>
<!-- sign_stream_section_to_qwb_word&#45;&gt;qwb_word -->
<g id="edge2" class="edge">
<title>sign_stream_section_to_qwb_word:w&#45;&gt;qwb_word:e</title>
<path fill="none" stroke="black" d="M278.69,-70.72C260.83,-86.74 275.77,-138 243,-138"/>
<polygon fill="black" stroke="black" points="284.93,-68.59 293.67,-69.41 288.72,-67.29 292.5,-66 292.5,-66 292.5,-66 288.72,-67.29 291.33,-62.59 284.93,-68.59 284.93,-68.59"/>
<ellipse fill="none" stroke="black" cx="281.9" cy="-69.63" rx="3.2" ry="3.2"/>
</g>
</g>
</svg>
