<?xml version="1.0" encoding="UTF-8" standalone="no"?>
<!DOCTYPE svg PUBLIC "-//W3C//DTD SVG 1.1//EN"
 "http://www.w3.org/Graphics/SVG/1.1/DTD/svg11.dtd">
<!-- Generated by graphviz version 2.43.0 (0)
 -->
<!-- Title: twoDegreesRelationshipsDiagramImplied Pages: 1 -->
<svg width="449pt" height="462pt"
 viewBox="0.00 0.00 449.00 462.00" xmlns="http://www.w3.org/2000/svg" xmlns:xlink="http://www.w3.org/1999/xlink">
<g id="graph0" class="graph" transform="scale(1 1) rotate(0) translate(4 458)">
<title>twoDegreesRelationshipsDiagramImplied</title>
<polygon fill="#ffffff" stroke="transparent" points="-4,4 -4,-458 445,-458 445,4 -4,4"/>
<text text-anchor="middle" x="79.5" y="-7.2" font-family="Helvetica,sans-Serif" font-size="11.00">Generated by SchemaSpy</text>
<!-- line_data -->
<g id="node1" class="node">
<title>line_data</title>
<g id="a_node1"><a xlink:href="../../tables/line_data.html" xlink:title="line_data" target="_top">
<polygon fill="#ffffff" stroke="transparent" points="239,-392 239,-450 365,-450 365,-392 239,-392"/>
<polygon fill="#f5f5f5" stroke="transparent" points="239,-428 239,-450 365,-450 365,-428 239,-428"/>
<polygon fill="none" stroke="black" points="239,-428 239,-450 365,-450 365,-428 239,-428"/>
<text text-anchor="start" x="244" y="-437.2" font-family="Helvetica,sans-Serif" font-weight="bold" font-size="11.00">line_data</text>
<text text-anchor="start" x="323" y="-436.2" font-family="Helvetica,sans-Serif" font-size="11.00">[table]</text>
<polygon fill="none" stroke="black" points="239,-410 239,-428 365,-428 365,-410 239,-410"/>
<text text-anchor="start" x="242" y="-416.2" font-family="Helvetica,sans-Serif" font-size="11.00">...</text>
<polygon fill="#ffffff" stroke="transparent" points="239,-392 239,-410 265,-410 265,-392 239,-392"/>
<polygon fill="none" stroke="black" points="239,-392 239,-410 265,-410 265,-392 239,-392"/>
<text text-anchor="start" x="242" y="-398.2" font-family="Helvetica,sans-Serif" font-size="11.00">&lt; 1</text>
<polygon fill="#ffffff" stroke="transparent" points="265,-392 265,-410 339,-410 339,-392 265,-392"/>
<polygon fill="none" stroke="black" points="265,-392 265,-410 339,-410 339,-392 265,-392"/>
<text text-anchor="start" x="268" y="-398.2" font-family="Helvetica,sans-Serif" font-size="11.00">55,080 rows</text>
<polygon fill="#ffffff" stroke="transparent" points="339,-392 339,-410 365,-410 365,-392 339,-392"/>
<polygon fill="none" stroke="black" points="339,-392 339,-410 365,-410 365,-392 339,-392"/>
<text text-anchor="start" x="342" y="-398.2" font-family="Helvetica,sans-Serif" font-size="11.00">1 &gt;</text>
</a>
</g>
</g>
<!-- line -->
<g id="node2" class="node">
<title>line</title>
<g id="a_node2"><a xlink:href="../../tables/line.html" xlink:title="line" target="_top">
<polygon fill="#ffffff" stroke="transparent" points="8,-258 8,-320 122,-320 122,-258 8,-258"/>
<polygon fill="#f5f5f5" stroke="transparent" points="8,-298 8,-320 122,-320 122,-298 8,-298"/>
<polygon fill="none" stroke="black" points="8,-298 8,-320 122,-320 122,-298 8,-298"/>
<text text-anchor="start" x="13" y="-307.2" font-family="Helvetica,sans-Serif" font-weight="bold" font-size="11.00">line</text>
<text text-anchor="start" x="80" y="-306.2" font-family="Helvetica,sans-Serif" font-size="11.00">[table]</text>
<polygon fill="none" stroke="black" points="8,-276 8,-298 122,-298 122,-276 8,-276"/>
<image xlink:href="../../images/primaryKeys.png" width="11px" height="12px" preserveAspectRatio="xMinYMin meet" x="13" y="-293"/>
<text text-anchor="start" x="53" y="-284.2" font-family="Helvetica,sans-Serif" font-size="11.00">line_id</text>
<polygon fill="#ffffff" stroke="transparent" points="8,-258 8,-276 22,-276 22,-258 8,-258"/>
<polygon fill="none" stroke="black" points="8,-258 8,-276 22,-276 22,-258 8,-258"/>
<text text-anchor="start" x="11" y="-264.2" font-family="Helvetica,sans-Serif" font-size="11.00"> &#160;</text>
<polygon fill="#ffffff" stroke="transparent" points="22,-258 22,-276 96,-276 96,-258 22,-258"/>
<polygon fill="none" stroke="black" points="22,-258 22,-276 96,-276 96,-258 22,-258"/>
<text text-anchor="start" x="25" y="-264.2" font-family="Helvetica,sans-Serif" font-size="11.00">53,964 rows</text>
<polygon fill="#ffffff" stroke="transparent" points="96,-258 96,-276 122,-276 122,-258 96,-258"/>
<polygon fill="none" stroke="black" points="96,-258 96,-276 122,-276 122,-258 96,-258"/>
<text text-anchor="start" x="99" y="-264.2" font-family="Helvetica,sans-Serif" font-size="11.00">4 &gt;</text>
</a>
</g>
</g>
<!-- line_data&#45;&gt;line -->
<g id="edge1" class="edge">
<title>line_data:w&#45;&gt;line:e</title>
<path fill="none" stroke="black" d="M223.32,-418.36C196.99,-415.77 184.8,-405.15 163,-382 131.59,-348.65 168.81,-287 123,-287"/>
<polygon fill="black" stroke="black" points="230.01,-418.65 237.84,-422.6 234,-418.82 238,-419 238,-419 238,-419 234,-418.82 238.16,-415.4 230.01,-418.65 230.01,-418.65"/>
<ellipse fill="none" stroke="black" cx="226.81" cy="-418.51" rx="3.2" ry="3.2"/>
</g>
<!-- line_to_sign -->
<g id="node3" class="node">
<title>line_to_sign</title>
<g id="a_node3"><a xlink:href="../../tables/line_to_sign.html" xlink:title="line_to_sign" target="_top">
<polygon fill="#ffffff" stroke="transparent" points="230.5,-313 230.5,-371 373.5,-371 373.5,-313 230.5,-313"/>
<polygon fill="#f5f5f5" stroke="transparent" points="231,-349 231,-371 374,-371 374,-349 231,-349"/>
<polygon fill="none" stroke="black" points="231,-349 231,-371 374,-371 374,-349 231,-349"/>
<text text-anchor="start" x="236" y="-358.2" font-family="Helvetica,sans-Serif" font-weight="bold" font-size="11.00">line_to_sign</text>
<text text-anchor="start" x="332" y="-357.2" font-family="Helvetica,sans-Serif" font-size="11.00">[table]</text>
<polygon fill="none" stroke="black" points="231,-331 231,-349 374,-349 374,-331 231,-331"/>
<text text-anchor="start" x="234" y="-337.2" font-family="Helvetica,sans-Serif" font-size="11.00">...</text>
<polygon fill="#ffffff" stroke="transparent" points="231,-313 231,-331 257,-331 257,-313 231,-313"/>
<polygon fill="none" stroke="black" points="231,-313 231,-331 257,-331 257,-313 231,-313"/>
<text text-anchor="start" x="234" y="-319.2" font-family="Helvetica,sans-Serif" font-size="11.00">&lt; 2</text>
<polygon fill="#ffffff" stroke="transparent" points="257,-313 257,-331 348,-331 348,-313 257,-313"/>
<polygon fill="none" stroke="black" points="257,-313 257,-331 348,-331 348,-313 257,-313"/>
<text text-anchor="start" x="260" y="-319.2" font-family="Helvetica,sans-Serif" font-size="11.00">1,730,550 rows</text>
<polygon fill="#ffffff" stroke="transparent" points="348,-313 348,-331 374,-331 374,-313 348,-313"/>
<polygon fill="none" stroke="black" points="348,-313 348,-331 374,-331 374,-313 348,-313"/>
<text text-anchor="start" x="351" y="-319.2" font-family="Helvetica,sans-Serif" font-size="11.00">1 &gt;</text>
</a>
</g>
</g>
<!-- line_to_sign&#45;&gt;line -->
<g id="edge2" class="edge">
<title>line_to_sign:w&#45;&gt;line:e</title>
<path fill="none" stroke="black" d="M215.76,-336.52C187.28,-324.73 145.39,-287 123,-287"/>
<polygon fill="black" stroke="black" points="222.23,-338.1 229.15,-343.5 226.11,-339.05 230,-340 230,-340 230,-340 226.11,-339.05 230.85,-336.5 222.23,-338.1 222.23,-338.1"/>
<ellipse fill="none" stroke="black" cx="219.12" cy="-337.34" rx="3.2" ry="3.2"/>
</g>
<!-- qwb_ref -->
<g id="node4" class="node">
<title>qwb_ref</title>
<g id="a_node4"><a xlink:href="../../tables/qwb_ref.html" xlink:title="qwb_ref" target="_top">
<polygon fill="#ffffff" stroke="transparent" points="171,-116 171,-292 433,-292 433,-116 171,-116"/>
<polygon fill="#f5f5f5" stroke="transparent" points="173,-268 173,-290 431,-290 431,-268 173,-268"/>
<polygon fill="none" stroke="black" points="173,-268 173,-290 431,-290 431,-268 173,-268"/>
<text text-anchor="start" x="178" y="-277.2" font-family="Helvetica,sans-Serif" font-weight="bold" font-size="11.00">qwb_ref</text>
<text text-anchor="start" x="389" y="-276.2" font-family="Helvetica,sans-Serif" font-size="11.00">[table]</text>
<polygon fill="none" stroke="black" points="173,-246 173,-268 334,-268 334,-246 173,-246"/>
<image xlink:href="../../images/primaryKeys.png" width="11px" height="12px" preserveAspectRatio="xMinYMin meet" x="178" y="-263"/>
<text text-anchor="start" x="193" y="-254.2" font-family="Helvetica,sans-Serif" font-size="11.00">qwb_ref_id</text>
<polygon fill="none" stroke="black" points="334,-246 334,-268 431,-268 431,-246 334,-246"/>
<text text-anchor="start" x="337" y="-254.2" font-family="Helvetica,sans-Serif" font-size="11.00">int unsigned[10]</text>
<polygon fill="none" stroke="black" points="173,-224 173,-246 334,-246 334,-224 173,-224"/>
<image xlink:href="../../images/foreignKeys.png" width="11px" height="12px" preserveAspectRatio="xMinYMin meet" x="178" y="-241"/>
<text text-anchor="start" x="193" y="-232.2" font-family="Helvetica,sans-Serif" font-size="11.00">line_id</text>
<polygon fill="none" stroke="black" points="334,-224 334,-246 431,-246 431,-224 334,-224"/>
<text text-anchor="start" x="337" y="-232.2" font-family="Helvetica,sans-Serif" font-size="11.00">int unsigned[10]</text>
<polygon fill="none" stroke="black" points="173,-202 173,-224 334,-224 334,-202 173,-202"/>
<text text-anchor="start" x="193" y="-210.2" font-family="Helvetica,sans-Serif" font-size="11.00">qwb_scroll_name</text>
<polygon fill="none" stroke="black" points="334,-202 334,-224 431,-224 431,-202 334,-202"/>
<text text-anchor="start" x="337" y="-210.2" font-family="Helvetica,sans-Serif" font-size="11.00">varchar[16]</text>
<polygon fill="none" stroke="black" points="173,-180 173,-202 334,-202 334,-180 173,-180"/>
<text text-anchor="start" x="193" y="-188.2" font-family="Helvetica,sans-Serif" font-size="11.00">qwb_fragment_name</text>
<polygon fill="none" stroke="black" points="334,-180 334,-202 431,-202 431,-180 334,-180"/>
<text text-anchor="start" x="337" y="-188.2" font-family="Helvetica,sans-Serif" font-size="11.00">varchar[40]</text>
<polygon fill="none" stroke="black" points="173,-158 173,-180 334,-180 334,-158 173,-158"/>
<text text-anchor="start" x="193" y="-166.2" font-family="Helvetica,sans-Serif" font-size="11.00">qwb_line_name</text>
<polygon fill="none" stroke="black" points="334,-158 334,-180 431,-180 431,-158 334,-158"/>
<text text-anchor="start" x="337" y="-166.2" font-family="Helvetica,sans-Serif" font-size="11.00">varchar[20]</text>
<polygon fill="#ffffff" stroke="transparent" points="173,-136 173,-158 334,-158 334,-136 173,-136"/>
<polygon fill="none" stroke="black" points="173,-136 173,-158 334,-158 334,-136 173,-136"/>
<text text-anchor="start" x="193" y="-144.2" font-family="Helvetica,sans-Serif" font-size="11.00">text</text>
<polygon fill="none" stroke="black" points="334,-136 334,-158 431,-158 431,-136 334,-136"/>
<text text-anchor="start" x="337" y="-144.2" font-family="Helvetica,sans-Serif" font-size="11.00">varchar[255]</text>
<polygon fill="#ffffff" stroke="transparent" points="173,-118 173,-136 229,-136 229,-118 173,-118"/>
<polygon fill="none" stroke="black" points="173,-118 173,-136 229,-136 229,-118 173,-118"/>
<text text-anchor="start" x="176" y="-124.2" font-family="Helvetica,sans-Serif" font-size="11.00">&lt; 1</text>
<polygon fill="#ffffff" stroke="transparent" points="229,-118 229,-136 334,-136 334,-118 229,-118"/>
<polygon fill="none" stroke="black" points="229,-118 229,-136 334,-136 334,-118 229,-118"/>
<text text-anchor="start" x="263" y="-124.2" font-family="Helvetica,sans-Serif" font-size="11.00">54,165 rows</text>
<polygon fill="#ffffff" stroke="transparent" points="334,-118 334,-136 431,-136 431,-118 334,-118"/>
<polygon fill="none" stroke="black" points="334,-118 334,-136 431,-136 431,-118 334,-118"/>
<text text-anchor="start" x="408" y="-124.2" font-family="Helvetica,sans-Serif" font-size="11.00">0 &gt;</text>
<polygon fill="none" stroke="black" stroke-width="2" points="172,-117 172,-291 432,-291 432,-117 172,-117"/>
</a>
</g>
</g>
<!-- qwb_ref&#45;&gt;line -->
<g id="edge3" class="edge">
<title>qwb_ref:w&#45;&gt;line:e</title>
<path fill="none" stroke="black" stroke-dasharray="5,2" d="M158.41,-239.8C144.06,-252.67 148.8,-287 123,-287"/>
<polygon fill="black" stroke="black" points="164.46,-237.66 173.2,-238.39 168.23,-236.33 172,-235 172,-235 172,-235 168.23,-236.33 170.8,-231.61 164.46,-237.66 164.46,-237.66"/>
<ellipse fill="none" stroke="black" cx="161.44" cy="-238.73" rx="3.2" ry="3.2"/>
</g>
<!-- text_fragment_to_line -->
<g id="node5" class="node">
<title>text_fragment_to_line</title>
<g id="a_node5"><a xlink:href="../../tables/text_fragment_to_line.html" xlink:title="text_fragment_to_line" target="_top">
<polygon fill="#ffffff" stroke="transparent" points="210,-37 210,-95 394,-95 394,-37 210,-37"/>
<polygon fill="#f5f5f5" stroke="transparent" points="210,-73 210,-95 394,-95 394,-73 210,-73"/>
<polygon fill="none" stroke="black" points="210,-73 210,-95 394,-95 394,-73 210,-73"/>
<text text-anchor="start" x="215" y="-82.2" font-family="Helvetica,sans-Serif" font-weight="bold" font-size="11.00">text_fragment_to_line</text>
<text text-anchor="start" x="352" y="-81.2" font-family="Helvetica,sans-Serif" font-size="11.00">[table]</text>
<polygon fill="none" stroke="black" points="210,-55 210,-73 394,-73 394,-55 210,-55"/>
<text text-anchor="start" x="213" y="-61.2" font-family="Helvetica,sans-Serif" font-size="11.00">...</text>
<polygon fill="#ffffff" stroke="transparent" points="210,-37 210,-55 265,-55 265,-37 210,-37"/>
<polygon fill="none" stroke="black" points="210,-37 210,-55 265,-55 265,-37 210,-37"/>
<text text-anchor="start" x="213" y="-43.2" font-family="Helvetica,sans-Serif" font-size="11.00">&lt; 2</text>
<polygon fill="#ffffff" stroke="transparent" points="265,-37 265,-55 353,-55 353,-37 265,-37"/>
<polygon fill="none" stroke="black" points="265,-37 265,-55 353,-55 353,-37 265,-37"/>
<text text-anchor="start" x="282" y="-43.2" font-family="Helvetica,sans-Serif" font-size="11.00">53,405 rows</text>
<polygon fill="#ffffff" stroke="transparent" points="353,-37 353,-55 394,-55 394,-37 353,-37"/>
<polygon fill="none" stroke="black" points="353,-37 353,-55 394,-55 394,-37 353,-37"/>
<text text-anchor="start" x="371" y="-43.2" font-family="Helvetica,sans-Serif" font-size="11.00">1 &gt;</text>
</a>
</g>
</g>
<!-- text_fragment_to_line&#45;&gt;line -->
<g id="edge4" class="edge">
<title>text_fragment_to_line:w&#45;&gt;line:e</title>
<path fill="none" stroke="black" d="M194.73,-66.13C179.12,-71.57 174.04,-86.9 163,-106 121.77,-177.32 205.39,-287 123,-287"/>
<polygon fill="black" stroke="black" points="201.09,-65.18 209.53,-67.56 205.04,-64.59 209,-64 209,-64 209,-64 205.04,-64.59 208.47,-60.44 201.09,-65.18 201.09,-65.18"/>
<ellipse fill="none" stroke="black" cx="197.92" cy="-65.65" rx="3.2" ry="3.2"/>
</g>
</g>
</svg>
