<?xml version="1.0" encoding="UTF-8" standalone="no"?>
<!DOCTYPE svg PUBLIC "-//W3C//DTD SVG 1.1//EN"
 "http://www.w3.org/Graphics/SVG/1.1/DTD/svg11.dtd">
<!-- Generated by graphviz version 2.43.0 (0)
 -->
<!-- Title: oneDegreeRelationshipsDiagram Pages: 1 -->
<svg width="470pt" height="307pt"
 viewBox="0.00 0.00 470.00 307.00" xmlns="http://www.w3.org/2000/svg" xmlns:xlink="http://www.w3.org/1999/xlink">
<g id="graph0" class="graph" transform="scale(1 1) rotate(0) translate(4 303)">
<title>oneDegreeRelationshipsDiagram</title>
<polygon fill="#ffffff" stroke="transparent" points="-4,4 -4,-303 466,-303 466,4 -4,4"/>
<text text-anchor="middle" x="79.5" y="-7.2" font-family="Helvetica,sans-Serif" font-size="11.00">Generated by SchemaSpy</text>
<!-- qwb_variant -->
<g id="node1" class="node">
<title>qwb_variant</title>
<g id="a_node1"><a xlink:href="../../tables/qwb_variant.html" xlink:title="qwb_variant" target="_top">
<polygon fill="#ffffff" stroke="transparent" points="192,-53 192,-295 454,-295 454,-53 192,-53"/>
<polygon fill="#f5f5f5" stroke="transparent" points="194,-271 194,-293 452,-293 452,-271 194,-271"/>
<polygon fill="none" stroke="black" points="194,-271 194,-293 452,-293 452,-271 194,-271"/>
<text text-anchor="start" x="199" y="-280.2" font-family="Helvetica,sans-Serif" font-weight="bold" font-size="11.00">qwb_variant</text>
<text text-anchor="start" x="410" y="-279.2" font-family="Helvetica,sans-Serif" font-size="11.00">[table]</text>
<polygon fill="none" stroke="black" points="194,-249 194,-271 316,-271 316,-249 194,-249"/>
<image xlink:href="../../images/primaryKeys.png" width="11px" height="12px" preserveAspectRatio="xMinYMin meet" x="199" y="-266"/>
<text text-anchor="start" x="214" y="-257.2" font-family="Helvetica,sans-Serif" font-size="11.00">qwb_variant_id</text>
<polygon fill="none" stroke="black" points="316,-249 316,-271 452,-271 452,-249 316,-249"/>
<text text-anchor="start" x="319" y="-257.2" font-family="Helvetica,sans-Serif" font-size="11.00">int unsigned[10]</text>
<polygon fill="#ffffff" stroke="transparent" points="194,-227 194,-249 316,-249 316,-227 194,-227"/>
<polygon fill="none" stroke="black" points="194,-227 194,-249 316,-249 316,-227 194,-227"/>
<image xlink:href="../../images/foreignKeys.png" width="11px" height="12px" preserveAspectRatio="xMinYMin meet" x="199" y="-244"/>
<text text-anchor="start" x="214" y="-235.2" font-family="Helvetica,sans-Serif" font-size="11.00">qwb_word_id</text>
<polygon fill="none" stroke="black" points="316,-227 316,-249 452,-249 452,-227 316,-227"/>
<text text-anchor="start" x="319" y="-235.2" font-family="Helvetica,sans-Serif" font-size="11.00">int unsigned[10]</text>
<polygon fill="none" stroke="black" points="194,-205 194,-227 316,-227 316,-205 194,-205"/>
<text text-anchor="start" x="214" y="-213.2" font-family="Helvetica,sans-Serif" font-size="11.00">text</text>
<polygon fill="none" stroke="black" points="316,-205 316,-227 452,-227 452,-205 316,-205"/>
<text text-anchor="start" x="319" y="-213.2" font-family="Helvetica,sans-Serif" font-size="11.00">varchar[83]</text>
<polygon fill="none" stroke="black" points="194,-183 194,-205 316,-205 316,-183 194,-183"/>
<text text-anchor="start" x="214" y="-191.2" font-family="Helvetica,sans-Serif" font-size="11.00">lemma</text>
<polygon fill="none" stroke="black" points="316,-183 316,-205 452,-205 452,-183 316,-183"/>
<text text-anchor="start" x="319" y="-191.2" font-family="Helvetica,sans-Serif" font-size="11.00">varchar[35]</text>
<polygon fill="none" stroke="black" points="194,-161 194,-183 316,-183 316,-161 194,-161"/>
<text text-anchor="start" x="214" y="-169.2" font-family="Helvetica,sans-Serif" font-size="11.00">grammar</text>
<polygon fill="none" stroke="black" points="316,-161 316,-183 452,-183 452,-161 316,-161"/>
<text text-anchor="start" x="319" y="-169.2" font-family="Helvetica,sans-Serif" font-size="11.00">varchar[33]</text>
<polygon fill="none" stroke="black" points="194,-139 194,-161 316,-161 316,-139 194,-139"/>
<text text-anchor="start" x="214" y="-147.2" font-family="Helvetica,sans-Serif" font-size="11.00">meaning</text>
<polygon fill="none" stroke="black" points="316,-139 316,-161 452,-161 452,-139 316,-139"/>
<text text-anchor="start" x="319" y="-147.2" font-family="Helvetica,sans-Serif" font-size="11.00">varchar[50]</text>
<polygon fill="none" stroke="black" points="194,-117 194,-139 316,-139 316,-117 194,-117"/>
<text text-anchor="start" x="214" y="-125.2" font-family="Helvetica,sans-Serif" font-size="11.00">type</text>
<polygon fill="none" stroke="black" points="316,-117 316,-139 452,-139 452,-117 316,-117"/>
<text text-anchor="start" x="319" y="-125.2" font-family="Helvetica,sans-Serif" font-size="11.00">enum[8]</text>
<polygon fill="none" stroke="black" points="194,-95 194,-117 316,-117 316,-95 194,-95"/>
<text text-anchor="start" x="214" y="-103.2" font-family="Helvetica,sans-Serif" font-size="11.00">commentary</text>
<polygon fill="none" stroke="black" points="316,-95 316,-117 452,-117 452,-95 316,-95"/>
<text text-anchor="start" x="319" y="-103.2" font-family="Helvetica,sans-Serif" font-size="11.00">mediumtext[16777215]</text>
<polygon fill="#ffffff" stroke="transparent" points="194,-73 194,-95 316,-95 316,-73 194,-73"/>
<polygon fill="none" stroke="black" points="194,-73 194,-95 316,-95 316,-73 194,-73"/>
<image xlink:href="../../images/foreignKeys.png" width="11px" height="12px" preserveAspectRatio="xMinYMin meet" x="199" y="-90"/>
<text text-anchor="start" x="214" y="-81.2" font-family="Helvetica,sans-Serif" font-size="11.00">qwb_biblio_id</text>
<polygon fill="none" stroke="black" points="316,-73 316,-95 452,-95 452,-73 316,-73"/>
<text text-anchor="start" x="319" y="-81.2" font-family="Helvetica,sans-Serif" font-size="11.00">int unsigned[10]</text>
<polygon fill="#ffffff" stroke="transparent" points="194,-55 194,-73 246,-73 246,-55 194,-55"/>
<polygon fill="none" stroke="black" points="194,-55 194,-73 246,-73 246,-55 194,-55"/>
<text text-anchor="start" x="197" y="-61.2" font-family="Helvetica,sans-Serif" font-size="11.00">&lt; 2</text>
<polygon fill="#ffffff" stroke="transparent" points="246,-55 246,-73 316,-73 316,-55 246,-55"/>
<polygon fill="none" stroke="black" points="246,-55 246,-73 316,-73 316,-55 246,-55"/>
<text text-anchor="start" x="276" y="-61.2" font-family="Helvetica,sans-Serif" font-size="11.00">0 rows</text>
<polygon fill="#ffffff" stroke="transparent" points="316,-55 316,-73 452,-73 452,-55 316,-55"/>
<polygon fill="none" stroke="black" points="316,-55 316,-73 452,-73 452,-55 316,-55"/>
<text text-anchor="start" x="429" y="-61.2" font-family="Helvetica,sans-Serif" font-size="11.00">0 &gt;</text>
<polygon fill="none" stroke="black" stroke-width="2" points="193,-54 193,-294 453,-294 453,-54 193,-54"/>
</a>
</g>
</g>
<!-- qwb_biblio -->
<g id="node2" class="node">
<title>qwb_biblio</title>
<g id="a_node2"><a xlink:href="../../tables/qwb_biblio.html" xlink:title="qwb_biblio" target="_top">
<polygon fill="#ffffff" stroke="transparent" points="17.5,-37 17.5,-117 133.5,-117 133.5,-37 17.5,-37"/>
<polygon fill="#f5f5f5" stroke="transparent" points="17.5,-95 17.5,-117 133.5,-117 133.5,-95 17.5,-95"/>
<polygon fill="none" stroke="black" points="17.5,-95 17.5,-117 133.5,-117 133.5,-95 17.5,-95"/>
<text text-anchor="start" x="22.5" y="-104.2" font-family="Helvetica,sans-Serif" font-weight="bold" font-size="11.00">qwb_biblio</text>
<text text-anchor="start" x="91.5" y="-103.2" font-family="Helvetica,sans-Serif" font-size="11.00">[table]</text>
<polygon fill="none" stroke="black" points="17.5,-73 17.5,-95 133.5,-95 133.5,-73 17.5,-73"/>
<image xlink:href="../../images/primaryKeys.png" width="11px" height="12px" preserveAspectRatio="xMinYMin meet" x="22.5" y="-90"/>
<text text-anchor="start" x="40.5" y="-81.2" font-family="Helvetica,sans-Serif" font-size="11.00">qwb_biblio_id</text>
<polygon fill="none" stroke="black" points="17.5,-55 17.5,-73 133.5,-73 133.5,-55 17.5,-55"/>
<text text-anchor="start" x="20.5" y="-61.2" font-family="Helvetica,sans-Serif" font-size="11.00">...</text>
<polygon fill="#ffffff" stroke="transparent" points="17.5,-37 17.5,-55 47.5,-55 47.5,-37 17.5,-37"/>
<polygon fill="none" stroke="black" points="17.5,-37 17.5,-55 47.5,-55 47.5,-37 17.5,-37"/>
<text text-anchor="start" x="20.5" y="-43.2" font-family="Helvetica,sans-Serif" font-size="11.00"> &#160;</text>
<polygon fill="#ffffff" stroke="transparent" points="47.5,-37 47.5,-55 98.5,-55 98.5,-37 47.5,-37"/>
<polygon fill="none" stroke="black" points="47.5,-37 47.5,-55 98.5,-55 98.5,-37 47.5,-37"/>
<text text-anchor="start" x="58.5" y="-43.2" font-family="Helvetica,sans-Serif" font-size="11.00">0 rows</text>
<polygon fill="#ffffff" stroke="transparent" points="98.5,-37 98.5,-55 133.5,-55 133.5,-37 98.5,-37"/>
<polygon fill="none" stroke="black" points="98.5,-37 98.5,-55 133.5,-55 133.5,-37 98.5,-37"/>
<text text-anchor="start" x="110.5" y="-43.2" font-family="Helvetica,sans-Serif" font-size="11.00">1 &gt;</text>
</a>
</g>
</g>
<!-- qwb_variant&#45;&gt;qwb_biblio -->
<g id="edge1" class="edge">
<title>qwb_variant:w&#45;&gt;qwb_biblio:e</title>
<path fill="none" stroke="black" d="M178.33,-84C163.22,-84 154.81,-84 134.5,-84"/>
<polygon fill="black" stroke="black" points="185,-84 193,-87.6 189,-84 193,-84 193,-84 193,-84 189,-84 193,-80.4 185,-84 185,-84"/>
<ellipse fill="none" stroke="black" cx="181.8" cy="-84" rx="3.2" ry="3.2"/>
</g>
<!-- qwb_word -->
<g id="node3" class="node">
<title>qwb_word</title>
<g id="a_node3"><a xlink:href="../../tables/qwb_word.html" xlink:title="qwb_word" target="_top">
<polygon fill="#ffffff" stroke="transparent" points="8,-191 8,-271 143,-271 143,-191 8,-191"/>
<polygon fill="#f5f5f5" stroke="transparent" points="8.5,-249 8.5,-271 143.5,-271 143.5,-249 8.5,-249"/>
<polygon fill="none" stroke="black" points="8.5,-249 8.5,-271 143.5,-271 143.5,-249 8.5,-249"/>
<text text-anchor="start" x="13.5" y="-258.2" font-family="Helvetica,sans-Serif" font-weight="bold" font-size="11.00">qwb_word</text>
<text text-anchor="start" x="101.5" y="-257.2" font-family="Helvetica,sans-Serif" font-size="11.00">[table]</text>
<polygon fill="none" stroke="black" points="8.5,-227 8.5,-249 143.5,-249 143.5,-227 8.5,-227"/>
<image xlink:href="../../images/primaryKeys.png" width="11px" height="12px" preserveAspectRatio="xMinYMin meet" x="13.5" y="-244"/>
<text text-anchor="start" x="28.5" y="-235.2" font-family="Helvetica,sans-Serif" font-size="11.00">qwb_word_id</text>
<polygon fill="none" stroke="black" points="8.5,-209 8.5,-227 143.5,-227 143.5,-209 8.5,-209"/>
<text text-anchor="start" x="11.5" y="-215.2" font-family="Helvetica,sans-Serif" font-size="11.00">...</text>
<polygon fill="#ffffff" stroke="transparent" points="8.5,-191 8.5,-209 29.5,-209 29.5,-191 8.5,-191"/>
<polygon fill="none" stroke="black" points="8.5,-191 8.5,-209 29.5,-209 29.5,-191 8.5,-191"/>
<text text-anchor="start" x="11.5" y="-197.2" font-family="Helvetica,sans-Serif" font-size="11.00"> &#160;</text>
<polygon fill="#ffffff" stroke="transparent" points="29.5,-191 29.5,-209 113.5,-209 113.5,-191 29.5,-191"/>
<polygon fill="none" stroke="black" points="29.5,-191 29.5,-209 113.5,-209 113.5,-191 29.5,-191"/>
<text text-anchor="start" x="35.5" y="-197.2" font-family="Helvetica,sans-Serif" font-size="11.00">319,584 rows</text>
<polygon fill="#ffffff" stroke="transparent" points="113.5,-191 113.5,-209 143.5,-209 143.5,-191 113.5,-191"/>
<polygon fill="none" stroke="black" points="113.5,-191 113.5,-209 143.5,-209 143.5,-191 113.5,-191"/>
<text text-anchor="start" x="120.5" y="-197.2" font-family="Helvetica,sans-Serif" font-size="11.00">2 &gt;</text>
</a>
</g>
</g>
<!-- qwb_variant&#45;&gt;qwb_word -->
<g id="edge2" class="edge">
<title>qwb_variant:w&#45;&gt;qwb_word:e</title>
<path fill="none" stroke="black" d="M178.28,-238C167.29,-238 160.16,-238 144.5,-238"/>
<polygon fill="black" stroke="black" points="185,-238 193,-241.6 189,-238 193,-238 193,-238 193,-238 189,-238 193,-234.4 185,-238 185,-238"/>
<ellipse fill="none" stroke="black" cx="181.8" cy="-238" rx="3.2" ry="3.2"/>
</g>
</g>
</svg>
