<?xml version="1.0" encoding="UTF-8" standalone="no"?>
<!DOCTYPE svg PUBLIC "-//W3C//DTD SVG 1.1//EN"
 "http://www.w3.org/Graphics/SVG/1.1/DTD/svg11.dtd">
<!-- Generated by graphviz version 2.43.0 (0)
 -->
<!-- Title: oneDegreeRelationshipsDiagram Pages: 1 -->
<svg width="451pt" height="201pt"
 viewBox="0.00 0.00 451.00 201.00" xmlns="http://www.w3.org/2000/svg" xmlns:xlink="http://www.w3.org/1999/xlink">
<g id="graph0" class="graph" transform="scale(1 1) rotate(0) translate(4 197)">
<title>oneDegreeRelationshipsDiagram</title>
<polygon fill="#ffffff" stroke="transparent" points="-4,4 -4,-197 447,-197 447,4 -4,4"/>
<text text-anchor="middle" x="79.5" y="-7.2" font-family="Helvetica,sans-Serif" font-size="11.00">Generated by SchemaSpy</text>
<!-- qwb_variant -->
<g id="node1" class="node">
<title>qwb_variant</title>
<g id="a_node1"><a xlink:href="../../tables/qwb_variant.html" xlink:title="qwb_variant" target="_top">
<polygon fill="#ffffff" stroke="transparent" points="308,-65 308,-189 435,-189 435,-65 308,-65"/>
<polygon fill="#f5f5f5" stroke="transparent" points="308.5,-167 308.5,-189 435.5,-189 435.5,-167 308.5,-167"/>
<polygon fill="none" stroke="black" points="308.5,-167 308.5,-189 435.5,-189 435.5,-167 308.5,-167"/>
<text text-anchor="start" x="313.5" y="-176.2" font-family="Helvetica,sans-Serif" font-weight="bold" font-size="11.00">qwb_variant</text>
<text text-anchor="start" x="393.5" y="-175.2" font-family="Helvetica,sans-Serif" font-size="11.00">[table]</text>
<polygon fill="none" stroke="black" points="308.5,-145 308.5,-167 435.5,-167 435.5,-145 308.5,-145"/>
<image xlink:href="../../images/primaryKeys.png" width="11px" height="12px" preserveAspectRatio="xMinYMin meet" x="313.5" y="-162"/>
<text text-anchor="start" x="331.5" y="-153.2" font-family="Helvetica,sans-Serif" font-size="11.00">qwb_variant_id</text>
<polygon fill="#ffffff" stroke="transparent" points="308.5,-123 308.5,-145 435.5,-145 435.5,-123 308.5,-123"/>
<polygon fill="none" stroke="black" points="308.5,-123 308.5,-145 435.5,-145 435.5,-123 308.5,-123"/>
<image xlink:href="../../images/foreignKeys.png" width="11px" height="12px" preserveAspectRatio="xMinYMin meet" x="313.5" y="-140"/>
<text text-anchor="start" x="331.5" y="-131.2" font-family="Helvetica,sans-Serif" font-size="11.00">qwb_word_id</text>
<polygon fill="#ffffff" stroke="transparent" points="308.5,-101 308.5,-123 435.5,-123 435.5,-101 308.5,-101"/>
<polygon fill="none" stroke="black" points="308.5,-101 308.5,-123 435.5,-123 435.5,-101 308.5,-101"/>
<image xlink:href="../../images/foreignKeys.png" width="11px" height="12px" preserveAspectRatio="xMinYMin meet" x="313.5" y="-118"/>
<text text-anchor="start" x="331.5" y="-109.2" font-family="Helvetica,sans-Serif" font-size="11.00">qwb_biblio_id</text>
<polygon fill="none" stroke="black" points="308.5,-83 308.5,-101 435.5,-101 435.5,-83 308.5,-83"/>
<text text-anchor="start" x="311.5" y="-89.2" font-family="Helvetica,sans-Serif" font-size="11.00">...</text>
<polygon fill="#ffffff" stroke="transparent" points="308.5,-65 308.5,-83 356.5,-83 356.5,-65 308.5,-65"/>
<polygon fill="none" stroke="black" points="308.5,-65 308.5,-83 356.5,-83 356.5,-65 308.5,-65"/>
<text text-anchor="start" x="311.5" y="-71.2" font-family="Helvetica,sans-Serif" font-size="11.00">&lt; 2</text>
<polygon fill="#ffffff" stroke="transparent" points="356.5,-65 356.5,-83 410.5,-83 410.5,-65 356.5,-65"/>
<polygon fill="none" stroke="black" points="356.5,-65 356.5,-83 410.5,-83 410.5,-65 356.5,-65"/>
<text text-anchor="start" x="370.5" y="-71.2" font-family="Helvetica,sans-Serif" font-size="11.00">0 rows</text>
<polygon fill="#ffffff" stroke="transparent" points="410.5,-65 410.5,-83 435.5,-83 435.5,-65 410.5,-65"/>
<polygon fill="none" stroke="black" points="410.5,-65 410.5,-83 435.5,-83 435.5,-65 410.5,-65"/>
<text text-anchor="start" x="424.5" y="-71.2" font-family="Helvetica,sans-Serif" font-size="11.00"> &#160;</text>
</a>
</g>
</g>
<!-- qwb_biblio -->
<g id="node2" class="node">
<title>qwb_biblio</title>
<g id="a_node2"><a xlink:href="../../tables/qwb_biblio.html" xlink:title="qwb_biblio" target="_top">
<polygon fill="#ffffff" stroke="transparent" points="8,-37 8,-147 259,-147 259,-37 8,-37"/>
<polygon fill="#f5f5f5" stroke="transparent" points="10.5,-123 10.5,-145 257.5,-145 257.5,-123 10.5,-123"/>
<polygon fill="none" stroke="black" points="10.5,-123 10.5,-145 257.5,-145 257.5,-123 10.5,-123"/>
<text text-anchor="start" x="15.5" y="-132.2" font-family="Helvetica,sans-Serif" font-weight="bold" font-size="11.00">qwb_biblio</text>
<text text-anchor="start" x="215.5" y="-131.2" font-family="Helvetica,sans-Serif" font-size="11.00">[table]</text>
<polygon fill="none" stroke="black" points="10.5,-101 10.5,-123 121.5,-123 121.5,-101 10.5,-101"/>
<image xlink:href="../../images/primaryKeys.png" width="11px" height="12px" preserveAspectRatio="xMinYMin meet" x="15.5" y="-118"/>
<text text-anchor="start" x="30.5" y="-109.2" font-family="Helvetica,sans-Serif" font-size="11.00">qwb_biblio_id</text>
<polygon fill="none" stroke="black" points="121.5,-101 121.5,-123 257.5,-123 257.5,-101 121.5,-101"/>
<text text-anchor="start" x="124.5" y="-109.2" font-family="Helvetica,sans-Serif" font-size="11.00">int unsigned[10]</text>
<polygon fill="none" stroke="black" points="10.5,-79 10.5,-101 121.5,-101 121.5,-79 10.5,-79"/>
<text text-anchor="start" x="30.5" y="-87.2" font-family="Helvetica,sans-Serif" font-size="11.00">biblio_short</text>
<polygon fill="none" stroke="black" points="121.5,-79 121.5,-101 257.5,-101 257.5,-79 121.5,-79"/>
<text text-anchor="start" x="124.5" y="-87.2" font-family="Helvetica,sans-Serif" font-size="11.00">varchar[255]</text>
<polygon fill="none" stroke="black" points="10.5,-57 10.5,-79 121.5,-79 121.5,-57 10.5,-57"/>
<text text-anchor="start" x="30.5" y="-65.2" font-family="Helvetica,sans-Serif" font-size="11.00">biblio_long</text>
<polygon fill="none" stroke="black" points="121.5,-57 121.5,-79 257.5,-79 257.5,-57 121.5,-57"/>
<text text-anchor="start" x="124.5" y="-65.2" font-family="Helvetica,sans-Serif" font-size="11.00">mediumtext[16777215]</text>
<polygon fill="#ffffff" stroke="transparent" points="10.5,-39 10.5,-57 57.5,-57 57.5,-39 10.5,-39"/>
<polygon fill="none" stroke="black" points="10.5,-39 10.5,-57 57.5,-57 57.5,-39 10.5,-39"/>
<text text-anchor="start" x="13.5" y="-45.2" font-family="Helvetica,sans-Serif" font-size="11.00">&lt; 0</text>
<polygon fill="#ffffff" stroke="transparent" points="57.5,-39 57.5,-57 121.5,-57 121.5,-39 57.5,-39"/>
<polygon fill="none" stroke="black" points="57.5,-39 57.5,-57 121.5,-57 121.5,-39 57.5,-39"/>
<text text-anchor="start" x="81.5" y="-45.2" font-family="Helvetica,sans-Serif" font-size="11.00">0 rows</text>
<polygon fill="#ffffff" stroke="transparent" points="121.5,-39 121.5,-57 257.5,-57 257.5,-39 121.5,-39"/>
<polygon fill="none" stroke="black" points="121.5,-39 121.5,-57 257.5,-57 257.5,-39 121.5,-39"/>
<text text-anchor="start" x="234.5" y="-45.2" font-family="Helvetica,sans-Serif" font-size="11.00">1 &gt;</text>
<polygon fill="none" stroke="black" stroke-width="2" points="9,-38 9,-146 258,-146 258,-38 9,-38"/>
</a>
</g>
</g>
<!-- qwb_variant&#45;&gt;qwb_biblio -->
<g id="edge1" class="edge">
<title>qwb_variant:w&#45;&gt;qwb_biblio:e</title>
<path fill="none" stroke="black" d="M292.99,-112C281.68,-112 274.49,-112 258.5,-112"/>
<polygon fill="black" stroke="black" points="299.5,-112 307.5,-115.6 303.5,-112 307.5,-112 307.5,-112 307.5,-112 303.5,-112 307.5,-108.4 299.5,-112 299.5,-112"/>
<ellipse fill="none" stroke="black" cx="296.3" cy="-112" rx="3.2" ry="3.2"/>
</g>
</g>
</svg>
