<?xml version="1.0" encoding="UTF-8" standalone="no"?>
<!DOCTYPE svg PUBLIC "-//W3C//DTD SVG 1.1//EN"
 "http://www.w3.org/Graphics/SVG/1.1/DTD/svg11.dtd">
<!-- Generated by graphviz version 2.40.1 (20161225.0304)
 -->
<!-- Title: twoDegreesRelationshipsDiagram Pages: 1 -->
<svg width="546pt" height="320pt"
 viewBox="0.00 0.00 546.00 320.00" xmlns="http://www.w3.org/2000/svg" xmlns:xlink="http://www.w3.org/1999/xlink">
<g id="graph0" class="graph" transform="scale(1 1) rotate(0) translate(4 316)">
<title>twoDegreesRelationshipsDiagram</title>
<polygon fill="#ffffff" stroke="transparent" points="-4,4 -4,-316 542,-316 542,4 -4,4"/>
<text text-anchor="middle" x="71.5" y="-7.2" font-family="Helvetica,sans-Serif" font-size="11.00" fill="#000000">Generated by SchemaSpy</text>
<!-- qwb_variant -->
<g id="node1" class="node">
<title>qwb_variant</title>
<g id="a_node1"><a xlink:href="../../tables/qwb_variant.html" xlink:title="qwb_variant" target="_top">
<polygon fill="#ffffff" stroke="transparent" points="343,-183 343,-307 465,-307 465,-183 343,-183"/>
<polygon fill="#f5f5f5" stroke="transparent" points="343,-285 343,-307 465,-307 465,-285 343,-285"/>
<polygon fill="none" stroke="#000000" points="343,-285 343,-307 465,-307 465,-285 343,-285"/>
<text text-anchor="start" x="348" y="-294.2" font-family="Helvetica,sans-Serif" font-weight="bold" font-size="11.00" fill="#000000">qwb_variant</text>
<text text-anchor="start" x="430" y="-293.2" font-family="Helvetica,sans-Serif" font-size="11.00" fill="#000000">[table]</text>
<polygon fill="none" stroke="#000000" points="343,-263 343,-285 465,-285 465,-263 343,-263"/>
<image xlink:href="../../images/primaryKeys.png" width="11px" height="12px" preserveAspectRatio="xMinYMin meet" x="348" y="-280"/>
<text text-anchor="start" x="363" y="-271.2" font-family="Helvetica,sans-Serif" font-size="11.00" fill="#000000">qwb_variant_id</text>
<polygon fill="#ffffff" stroke="transparent" points="343,-241 343,-263 465,-263 465,-241 343,-241"/>
<polygon fill="none" stroke="#000000" points="343,-241 343,-263 465,-263 465,-241 343,-241"/>
<image xlink:href="../../images/foreignKeys.png" width="11px" height="12px" preserveAspectRatio="xMinYMin meet" x="348" y="-258"/>
<text text-anchor="start" x="363" y="-249.2" font-family="Helvetica,sans-Serif" font-size="11.00" fill="#000000">qwb_word_id</text>
<polygon fill="#ffffff" stroke="transparent" points="343,-219 343,-241 465,-241 465,-219 343,-219"/>
<polygon fill="none" stroke="#000000" points="343,-219 343,-241 465,-241 465,-219 343,-219"/>
<image xlink:href="../../images/foreignKeys.png" width="11px" height="12px" preserveAspectRatio="xMinYMin meet" x="348" y="-236"/>
<text text-anchor="start" x="363" y="-227.2" font-family="Helvetica,sans-Serif" font-size="11.00" fill="#000000">qwb_biblio_id</text>
<polygon fill="none" stroke="#000000" points="343,-201 343,-219 465,-219 465,-201 343,-201"/>
<text text-anchor="start" x="346" y="-207.2" font-family="Helvetica,sans-Serif" font-size="11.00" fill="#000000">...</text>
<polygon fill="#ffffff" stroke="transparent" points="343,-183 343,-201 389,-201 389,-183 343,-183"/>
<polygon fill="none" stroke="#000000" points="343,-183 343,-201 389,-201 389,-183 343,-183"/>
<text text-anchor="start" x="346" y="-189.2" font-family="Helvetica,sans-Serif" font-size="11.00" fill="#000000">&lt; 2</text>
<polygon fill="#ffffff" stroke="transparent" points="389,-183 389,-201 440,-201 440,-183 389,-183"/>
<polygon fill="none" stroke="#000000" points="389,-183 389,-201 440,-201 440,-183 389,-183"/>
<text text-anchor="start" x="404" y="-189.2" font-family="Helvetica,sans-Serif" font-size="11.00" fill="#000000">0 rows</text>
<polygon fill="#ffffff" stroke="transparent" points="440,-183 440,-201 465,-201 465,-183 440,-183"/>
<polygon fill="none" stroke="#000000" points="440,-183 440,-201 465,-201 465,-183 440,-183"/>
<text text-anchor="start" x="455" y="-189.2" font-family="Helvetica,sans-Serif" font-size="11.00" fill="#000000"> &#160;</text>
</a>
</g>
</g>
<!-- qwb_biblio -->
<g id="node2" class="node">
<title>qwb_biblio</title>
<g id="a_node2"><a xlink:href="../../tables/qwb_biblio.html" xlink:title="qwb_biblio" target="_top">
<polygon fill="#ffffff" stroke="transparent" points="67.5,-119 67.5,-177 169.5,-177 169.5,-119 67.5,-119"/>
<polygon fill="#f5f5f5" stroke="transparent" points="67.5,-155 67.5,-177 169.5,-177 169.5,-155 67.5,-155"/>
<polygon fill="none" stroke="#000000" points="67.5,-155 67.5,-177 169.5,-177 169.5,-155 67.5,-155"/>
<text text-anchor="start" x="72.5" y="-164.2" font-family="Helvetica,sans-Serif" font-weight="bold" font-size="11.00" fill="#000000">qwb_biblio</text>
<text text-anchor="start" x="134.5" y="-163.2" font-family="Helvetica,sans-Serif" font-size="11.00" fill="#000000">[table]</text>
<polygon fill="none" stroke="#000000" points="67.5,-137 67.5,-155 169.5,-155 169.5,-137 67.5,-137"/>
<text text-anchor="start" x="70.5" y="-143.2" font-family="Helvetica,sans-Serif" font-size="11.00" fill="#000000">...</text>
<polygon fill="#ffffff" stroke="transparent" points="67.5,-119 67.5,-137 94.5,-137 94.5,-119 67.5,-119"/>
<polygon fill="none" stroke="#000000" points="67.5,-119 67.5,-137 94.5,-137 94.5,-119 67.5,-119"/>
<text text-anchor="start" x="70.5" y="-125.2" font-family="Helvetica,sans-Serif" font-size="11.00" fill="#000000"> &#160;</text>
<polygon fill="#ffffff" stroke="transparent" points="94.5,-119 94.5,-137 140.5,-137 140.5,-119 94.5,-119"/>
<polygon fill="none" stroke="#000000" points="94.5,-119 94.5,-137 140.5,-137 140.5,-119 94.5,-119"/>
<text text-anchor="start" x="104.5" y="-125.2" font-family="Helvetica,sans-Serif" font-size="11.00" fill="#000000">0 rows</text>
<polygon fill="#ffffff" stroke="transparent" points="140.5,-119 140.5,-137 169.5,-137 169.5,-119 140.5,-119"/>
<polygon fill="none" stroke="#000000" points="140.5,-119 140.5,-137 169.5,-137 169.5,-119 140.5,-119"/>
<text text-anchor="start" x="150.5" y="-125.2" font-family="Helvetica,sans-Serif" font-size="11.00" fill="#000000">1 &gt;</text>
</a>
</g>
</g>
<!-- qwb_variant&#45;&gt;qwb_biblio -->
<g id="edge1" class="edge">
<title>qwb_variant:w&#45;&gt;qwb_biblio:e</title>
<path fill="none" stroke="#000000" d="M328.3197,-229.1135C256.7598,-220.1361 249.986,-146 169.5,-146"/>
<polygon fill="#000000" stroke="#000000" points="335.0145,-229.5177 342.783,-233.5935 339.0073,-229.7589 343,-230 343,-230 343,-230 339.0073,-229.7589 343.217,-226.4065 335.0145,-229.5177 335.0145,-229.5177"/>
<ellipse fill="none" stroke="#000000" cx="331.8204" cy="-229.3248" rx="3.2" ry="3.2"/>
</g>
<!-- qwb_word -->
<g id="node3" class="node">
<title>qwb_word</title>
<g id="a_node3"><a xlink:href="../../tables/qwb_word.html" xlink:title="qwb_word" target="_top">
<polygon fill="#ffffff" stroke="transparent" points="8,-198 8,-308 229,-308 229,-198 8,-198"/>
<polygon fill="#f5f5f5" stroke="transparent" points="10.5,-284 10.5,-306 227.5,-306 227.5,-284 10.5,-284"/>
<polygon fill="none" stroke="#000000" points="10.5,-284 10.5,-306 227.5,-306 227.5,-284 10.5,-284"/>
<text text-anchor="start" x="15.5" y="-293.2" font-family="Helvetica,sans-Serif" font-weight="bold" font-size="11.00" fill="#000000">qwb_word</text>
<text text-anchor="start" x="192.5" y="-292.2" font-family="Helvetica,sans-Serif" font-size="11.00" fill="#000000">[table]</text>
<polygon fill="none" stroke="#000000" points="10.5,-262 10.5,-284 145.5,-284 145.5,-262 10.5,-262"/>
<image xlink:href="../../images/primaryKeys.png" width="11px" height="12px" preserveAspectRatio="xMinYMin meet" x="15.5" y="-279"/>
<text text-anchor="start" x="30.5" y="-270.2" font-family="Helvetica,sans-Serif" font-size="11.00" fill="#000000">qwb_word_id</text>
<polygon fill="none" stroke="#000000" points="145.5,-262 145.5,-284 227.5,-284 227.5,-262 145.5,-262"/>
<text text-anchor="start" x="148.5" y="-270.2" font-family="Helvetica,sans-Serif" font-size="11.00" fill="#000000">int unsigned[10]</text>
<polygon fill="none" stroke="#000000" points="10.5,-240 10.5,-262 145.5,-262 145.5,-240 10.5,-240"/>
<text text-anchor="start" x="30.5" y="-248.2" font-family="Helvetica,sans-Serif" font-size="11.00" fill="#000000">qwb_last_change</text>
<polygon fill="none" stroke="#000000" points="145.5,-240 145.5,-262 227.5,-262 227.5,-240 145.5,-240"/>
<text text-anchor="start" x="148.5" y="-248.2" font-family="Helvetica,sans-Serif" font-size="11.00" fill="#000000">datetime[19]</text>
<polygon fill="none" stroke="#000000" points="10.5,-218 10.5,-240 145.5,-240 145.5,-218 10.5,-218"/>
<text text-anchor="start" x="30.5" y="-226.2" font-family="Helvetica,sans-Serif" font-size="11.00" fill="#000000">processing</text>
<polygon fill="none" stroke="#000000" points="145.5,-218 145.5,-240 227.5,-240 227.5,-218 145.5,-218"/>
<text text-anchor="start" x="148.5" y="-226.2" font-family="Helvetica,sans-Serif" font-size="11.00" fill="#000000">tinyint[3]</text>
<polygon fill="#ffffff" stroke="transparent" points="10.5,-200 10.5,-218 52.5,-218 52.5,-200 10.5,-200"/>
<polygon fill="none" stroke="#000000" points="10.5,-200 10.5,-218 52.5,-218 52.5,-200 10.5,-200"/>
<text text-anchor="start" x="13.5" y="-206.2" font-family="Helvetica,sans-Serif" font-size="11.00" fill="#000000">&lt; 0</text>
<polygon fill="#ffffff" stroke="transparent" points="52.5,-200 52.5,-218 145.5,-218 145.5,-200 52.5,-200"/>
<polygon fill="none" stroke="#000000" points="52.5,-200 52.5,-218 145.5,-218 145.5,-200 52.5,-200"/>
<text text-anchor="start" x="76.5" y="-206.2" font-family="Helvetica,sans-Serif" font-size="11.00" fill="#000000">327,795 rows</text>
<polygon fill="#ffffff" stroke="transparent" points="145.5,-200 145.5,-218 227.5,-218 227.5,-200 145.5,-200"/>
<polygon fill="none" stroke="#000000" points="145.5,-200 145.5,-218 227.5,-218 227.5,-200 145.5,-200"/>
<text text-anchor="start" x="208.5" y="-206.2" font-family="Helvetica,sans-Serif" font-size="11.00" fill="#000000">2 &gt;</text>
<polygon fill="none" stroke="#000000" stroke-width="2" points="9,-199 9,-307 228,-307 228,-199 9,-199"/>
</a>
</g>
</g>
<!-- qwb_variant&#45;&gt;qwb_word -->
<g id="edge2" class="edge">
<title>qwb_variant:w&#45;&gt;qwb_word:e</title>
<path fill="none" stroke="#000000" d="M328.5487,-252.5836C288.1967,-255.9752 274.4778,-273 227.5,-273"/>
<polygon fill="#000000" stroke="#000000" points="335.0065,-252.3228 343.1453,-255.5971 339.0033,-252.1614 343,-252 343,-252 343,-252 339.0033,-252.1614 342.8547,-248.4029 335.0065,-252.3228 335.0065,-252.3228"/>
<ellipse fill="none" stroke="#000000" cx="331.8091" cy="-252.452" rx="3.2" ry="3.2"/>
</g>
<!-- sign_stream_section_to_qwb_word -->
<g id="node4" class="node">
<title>sign_stream_section_to_qwb_word</title>
<g id="a_node4"><a xlink:href="../../tables/sign_stream_section_to_qwb_word.html" xlink:title="sign_stream_section_to_qwb_word" target="_top">
<polygon fill="#ffffff" stroke="transparent" points="278,-37 278,-121 530,-121 530,-37 278,-37"/>
<polygon fill="#f5f5f5" stroke="transparent" points="278,-99 278,-121 530,-121 530,-99 278,-99"/>
<polygon fill="none" stroke="#000000" points="278,-99 278,-121 530,-121 530,-99 278,-99"/>
<text text-anchor="start" x="283" y="-108.2" font-family="Helvetica,sans-Serif" font-weight="bold" font-size="11.00" fill="#000000">sign_stream_section_to_qwb_word</text>
<text text-anchor="start" x="495" y="-107.2" font-family="Helvetica,sans-Serif" font-size="11.00" fill="#000000">[table]</text>
<polygon fill="#ffffff" stroke="transparent" points="278,-77 278,-99 530,-99 530,-77 278,-77"/>
<polygon fill="none" stroke="#000000" points="278,-77 278,-99 530,-99 530,-77 278,-77"/>
<image xlink:href="../../images/foreignKeys.png" width="11px" height="12px" preserveAspectRatio="xMinYMin meet" x="283" y="-94"/>
<text text-anchor="start" x="298" y="-85.2" font-family="Helvetica,sans-Serif" font-size="11.00" fill="#000000">sign_stream_section_id</text>
<polygon fill="#ffffff" stroke="transparent" points="278,-55 278,-77 530,-77 530,-55 278,-55"/>
<polygon fill="none" stroke="#000000" points="278,-55 278,-77 530,-77 530,-55 278,-55"/>
<image xlink:href="../../images/foreignKeys.png" width="11px" height="12px" preserveAspectRatio="xMinYMin meet" x="283" y="-72"/>
<text text-anchor="start" x="298" y="-63.2" font-family="Helvetica,sans-Serif" font-size="11.00" fill="#000000">qwb_word_id</text>
<polygon fill="#ffffff" stroke="transparent" points="278,-37 278,-55 372,-55 372,-37 278,-37"/>
<polygon fill="none" stroke="#000000" points="278,-37 278,-55 372,-55 372,-37 278,-37"/>
<text text-anchor="start" x="281" y="-43.2" font-family="Helvetica,sans-Serif" font-size="11.00" fill="#000000">&lt; 2</text>
<polygon fill="#ffffff" stroke="transparent" points="372,-37 372,-55 480,-55 480,-37 372,-37"/>
<polygon fill="none" stroke="#000000" points="372,-37 372,-55 480,-55 480,-37 372,-37"/>
<text text-anchor="start" x="411" y="-43.2" font-family="Helvetica,sans-Serif" font-size="11.00" fill="#000000">328,329 rows</text>
<polygon fill="#ffffff" stroke="transparent" points="480,-37 480,-55 530,-55 530,-37 480,-37"/>
<polygon fill="none" stroke="#000000" points="480,-37 480,-55 530,-55 530,-37 480,-37"/>
<text text-anchor="start" x="520" y="-43.2" font-family="Helvetica,sans-Serif" font-size="11.00" fill="#000000"> &#160;</text>
</a>
</g>
</g>
<!-- sign_stream_section_to_qwb_word&#45;&gt;qwb_word -->
<g id="edge3" class="edge">
<title>sign_stream_section_to_qwb_word:w&#45;&gt;qwb_word:e</title>
<path fill="none" stroke="#000000" d="M263.6658,-68.0488C198.7767,-89.5471 316.6495,-273 227.5,-273"/>
<polygon fill="#000000" stroke="#000000" points="270.0805,-67.132 278.5094,-69.5638 274.0402,-66.566 278,-66 278,-66 278,-66 274.0402,-66.566 277.4906,-62.4362 270.0805,-67.132 270.0805,-67.132"/>
<ellipse fill="none" stroke="#000000" cx="266.9127" cy="-67.5847" rx="3.2" ry="3.2"/>
</g>
<!-- sign_stream_section -->
<g id="node5" class="node">
<title>sign_stream_section</title>
<g id="a_node5"><a xlink:href="../../tables/sign_stream_section.html" xlink:title="sign_stream_section" target="_top">
<polygon fill="#ffffff" stroke="transparent" points="42,-40 42,-98 195,-98 195,-40 42,-40"/>
<polygon fill="#f5f5f5" stroke="transparent" points="42.5,-76 42.5,-98 195.5,-98 195.5,-76 42.5,-76"/>
<polygon fill="none" stroke="#000000" points="42.5,-76 42.5,-98 195.5,-98 195.5,-76 42.5,-76"/>
<text text-anchor="start" x="47.5" y="-85.2" font-family="Helvetica,sans-Serif" font-weight="bold" font-size="11.00" fill="#000000">sign_stream_section</text>
<text text-anchor="start" x="160.5" y="-84.2" font-family="Helvetica,sans-Serif" font-size="11.00" fill="#000000">[table]</text>
<polygon fill="none" stroke="#000000" points="42.5,-58 42.5,-76 195.5,-76 195.5,-58 42.5,-58"/>
<text text-anchor="start" x="45.5" y="-64.2" font-family="Helvetica,sans-Serif" font-size="11.00" fill="#000000">...</text>
<polygon fill="#ffffff" stroke="transparent" points="42.5,-40 42.5,-58 82.5,-58 82.5,-40 42.5,-40"/>
<polygon fill="none" stroke="#000000" points="42.5,-40 42.5,-58 82.5,-58 82.5,-40 42.5,-40"/>
<text text-anchor="start" x="45.5" y="-46.2" font-family="Helvetica,sans-Serif" font-size="11.00" fill="#000000">&lt; 1</text>
<polygon fill="#ffffff" stroke="transparent" points="82.5,-40 82.5,-58 163.5,-58 163.5,-40 82.5,-40"/>
<polygon fill="none" stroke="#000000" points="82.5,-40 82.5,-58 163.5,-58 163.5,-40 82.5,-40"/>
<text text-anchor="start" x="94.5" y="-46.2" font-family="Helvetica,sans-Serif" font-size="11.00" fill="#000000">327,795 rows</text>
<polygon fill="#ffffff" stroke="transparent" points="163.5,-40 163.5,-58 195.5,-58 195.5,-40 163.5,-40"/>
<polygon fill="none" stroke="#000000" points="163.5,-40 163.5,-58 195.5,-58 195.5,-40 163.5,-40"/>
<text text-anchor="start" x="176.5" y="-46.2" font-family="Helvetica,sans-Serif" font-size="11.00" fill="#000000">4 &gt;</text>
</a>
</g>
</g>
<!-- sign_stream_section_to_qwb_word&#45;&gt;sign_stream_section -->
<g id="edge4" class="edge">
<title>sign_stream_section_to_qwb_word:w&#45;&gt;sign_stream_section:e</title>
<path fill="none" stroke="#000000" d="M263.3505,-86.8108C237.5426,-82.3684 227.8674,-67 195.5,-67"/>
<polygon fill="#000000" stroke="#000000" points="270.0262,-87.3527 277.7087,-91.5882 274.0131,-87.6763 278,-88 278,-88 278,-88 274.0131,-87.6763 278.2913,-84.4118 270.0262,-87.3527 270.0262,-87.3527"/>
<ellipse fill="none" stroke="#000000" cx="266.8367" cy="-87.0937" rx="3.2" ry="3.2"/>
</g>
</g>
</svg>
