<?xml version="1.0" encoding="UTF-8" standalone="no"?>
<!DOCTYPE svg PUBLIC "-//W3C//DTD SVG 1.1//EN"
 "http://www.w3.org/Graphics/SVG/1.1/DTD/svg11.dtd">
<!-- Generated by graphviz version 2.43.0 (0)
 -->
<!-- Title: oneDegreeRelationshipsDiagramImplied Pages: 1 -->
<svg width="449pt" height="225pt"
 viewBox="0.00 0.00 449.00 225.00" xmlns="http://www.w3.org/2000/svg" xmlns:xlink="http://www.w3.org/1999/xlink">
<g id="graph0" class="graph" transform="scale(1 1) rotate(0) translate(4 221)">
<title>oneDegreeRelationshipsDiagramImplied</title>
<polygon fill="#ffffff" stroke="transparent" points="-4,4 -4,-221 445,-221 445,4 -4,4"/>
<text text-anchor="middle" x="79.5" y="-7.2" font-family="Helvetica,sans-Serif" font-size="11.00">Generated by SchemaSpy</text>
<!-- qwb_ref -->
<g id="node1" class="node">
<title>qwb_ref</title>
<g id="a_node1"><a xlink:href="../../tables/qwb_ref.html" xlink:title="qwb_ref" target="_top">
<polygon fill="#ffffff" stroke="transparent" points="171,-37 171,-213 433,-213 433,-37 171,-37"/>
<polygon fill="#f5f5f5" stroke="transparent" points="173,-189 173,-211 431,-211 431,-189 173,-189"/>
<polygon fill="none" stroke="black" points="173,-189 173,-211 431,-211 431,-189 173,-189"/>
<text text-anchor="start" x="178" y="-198.2" font-family="Helvetica,sans-Serif" font-weight="bold" font-size="11.00">qwb_ref</text>
<text text-anchor="start" x="389" y="-197.2" font-family="Helvetica,sans-Serif" font-size="11.00">[table]</text>
<polygon fill="none" stroke="black" points="173,-167 173,-189 334,-189 334,-167 173,-167"/>
<image xlink:href="../../images/primaryKeys.png" width="11px" height="12px" preserveAspectRatio="xMinYMin meet" x="178" y="-184"/>
<text text-anchor="start" x="193" y="-175.2" font-family="Helvetica,sans-Serif" font-size="11.00">qwb_ref_id</text>
<polygon fill="none" stroke="black" points="334,-167 334,-189 431,-189 431,-167 334,-167"/>
<text text-anchor="start" x="337" y="-175.2" font-family="Helvetica,sans-Serif" font-size="11.00">int unsigned[10]</text>
<polygon fill="none" stroke="black" points="173,-145 173,-167 334,-167 334,-145 173,-145"/>
<image xlink:href="../../images/foreignKeys.png" width="11px" height="12px" preserveAspectRatio="xMinYMin meet" x="178" y="-162"/>
<text text-anchor="start" x="193" y="-153.2" font-family="Helvetica,sans-Serif" font-size="11.00">line_id</text>
<polygon fill="none" stroke="black" points="334,-145 334,-167 431,-167 431,-145 334,-145"/>
<text text-anchor="start" x="337" y="-153.2" font-family="Helvetica,sans-Serif" font-size="11.00">int unsigned[10]</text>
<polygon fill="none" stroke="black" points="173,-123 173,-145 334,-145 334,-123 173,-123"/>
<text text-anchor="start" x="193" y="-131.2" font-family="Helvetica,sans-Serif" font-size="11.00">qwb_scroll_name</text>
<polygon fill="none" stroke="black" points="334,-123 334,-145 431,-145 431,-123 334,-123"/>
<text text-anchor="start" x="337" y="-131.2" font-family="Helvetica,sans-Serif" font-size="11.00">varchar[16]</text>
<polygon fill="none" stroke="black" points="173,-101 173,-123 334,-123 334,-101 173,-101"/>
<text text-anchor="start" x="193" y="-109.2" font-family="Helvetica,sans-Serif" font-size="11.00">qwb_fragment_name</text>
<polygon fill="none" stroke="black" points="334,-101 334,-123 431,-123 431,-101 334,-101"/>
<text text-anchor="start" x="337" y="-109.2" font-family="Helvetica,sans-Serif" font-size="11.00">varchar[40]</text>
<polygon fill="none" stroke="black" points="173,-79 173,-101 334,-101 334,-79 173,-79"/>
<text text-anchor="start" x="193" y="-87.2" font-family="Helvetica,sans-Serif" font-size="11.00">qwb_line_name</text>
<polygon fill="none" stroke="black" points="334,-79 334,-101 431,-101 431,-79 334,-79"/>
<text text-anchor="start" x="337" y="-87.2" font-family="Helvetica,sans-Serif" font-size="11.00">varchar[20]</text>
<polygon fill="#ffffff" stroke="transparent" points="173,-57 173,-79 334,-79 334,-57 173,-57"/>
<polygon fill="none" stroke="black" points="173,-57 173,-79 334,-79 334,-57 173,-57"/>
<text text-anchor="start" x="193" y="-65.2" font-family="Helvetica,sans-Serif" font-size="11.00">text</text>
<polygon fill="none" stroke="black" points="334,-57 334,-79 431,-79 431,-57 334,-57"/>
<text text-anchor="start" x="337" y="-65.2" font-family="Helvetica,sans-Serif" font-size="11.00">varchar[255]</text>
<polygon fill="#ffffff" stroke="transparent" points="173,-39 173,-57 229,-57 229,-39 173,-39"/>
<polygon fill="none" stroke="black" points="173,-39 173,-57 229,-57 229,-39 173,-39"/>
<text text-anchor="start" x="176" y="-45.2" font-family="Helvetica,sans-Serif" font-size="11.00">&lt; 1</text>
<polygon fill="#ffffff" stroke="transparent" points="229,-39 229,-57 334,-57 334,-39 229,-39"/>
<polygon fill="none" stroke="black" points="229,-39 229,-57 334,-57 334,-39 229,-39"/>
<text text-anchor="start" x="263" y="-45.2" font-family="Helvetica,sans-Serif" font-size="11.00">54,165 rows</text>
<polygon fill="#ffffff" stroke="transparent" points="334,-39 334,-57 431,-57 431,-39 334,-39"/>
<polygon fill="none" stroke="black" points="334,-39 334,-57 431,-57 431,-39 334,-39"/>
<text text-anchor="start" x="408" y="-45.2" font-family="Helvetica,sans-Serif" font-size="11.00">0 &gt;</text>
<polygon fill="none" stroke="black" stroke-width="2" points="172,-38 172,-212 432,-212 432,-38 172,-38"/>
</a>
</g>
</g>
<!-- line -->
<g id="node2" class="node">
<title>line</title>
<g id="a_node2"><a xlink:href="../../tables/line.html" xlink:title="line" target="_top">
<polygon fill="#ffffff" stroke="transparent" points="8,-127 8,-189 122,-189 122,-127 8,-127"/>
<polygon fill="#f5f5f5" stroke="transparent" points="8,-167 8,-189 122,-189 122,-167 8,-167"/>
<polygon fill="none" stroke="black" points="8,-167 8,-189 122,-189 122,-167 8,-167"/>
<text text-anchor="start" x="13" y="-176.2" font-family="Helvetica,sans-Serif" font-weight="bold" font-size="11.00">line</text>
<text text-anchor="start" x="80" y="-175.2" font-family="Helvetica,sans-Serif" font-size="11.00">[table]</text>
<polygon fill="none" stroke="black" points="8,-145 8,-167 122,-167 122,-145 8,-145"/>
<image xlink:href="../../images/primaryKeys.png" width="11px" height="12px" preserveAspectRatio="xMinYMin meet" x="13" y="-162"/>
<text text-anchor="start" x="53" y="-153.2" font-family="Helvetica,sans-Serif" font-size="11.00">line_id</text>
<polygon fill="#ffffff" stroke="transparent" points="8,-127 8,-145 22,-145 22,-127 8,-127"/>
<polygon fill="none" stroke="black" points="8,-127 8,-145 22,-145 22,-127 8,-127"/>
<text text-anchor="start" x="11" y="-133.2" font-family="Helvetica,sans-Serif" font-size="11.00"> &#160;</text>
<polygon fill="#ffffff" stroke="transparent" points="22,-127 22,-145 96,-145 96,-127 22,-127"/>
<polygon fill="none" stroke="black" points="22,-127 22,-145 96,-145 96,-127 22,-127"/>
<text text-anchor="start" x="25" y="-133.2" font-family="Helvetica,sans-Serif" font-size="11.00">53,964 rows</text>
<polygon fill="#ffffff" stroke="transparent" points="96,-127 96,-145 122,-145 122,-127 96,-127"/>
<polygon fill="none" stroke="black" points="96,-127 96,-145 122,-145 122,-127 96,-127"/>
<text text-anchor="start" x="99" y="-133.2" font-family="Helvetica,sans-Serif" font-size="11.00">4 &gt;</text>
</a>
</g>
</g>
<!-- qwb_ref&#45;&gt;line -->
<g id="edge1" class="edge">
<title>qwb_ref:w&#45;&gt;line:e</title>
<path fill="none" stroke="black" stroke-dasharray="5,2" d="M157.49,-156C146.18,-156 138.99,-156 123,-156"/>
<polygon fill="black" stroke="black" points="164,-156 172,-159.6 168,-156 172,-156 172,-156 172,-156 168,-156 172,-152.4 164,-156 164,-156"/>
<ellipse fill="none" stroke="black" cx="160.8" cy="-156" rx="3.2" ry="3.2"/>
</g>
</g>
</svg>
