<?xml version="1.0" encoding="UTF-8" standalone="no"?>
<!DOCTYPE svg PUBLIC "-//W3C//DTD SVG 1.1//EN"
 "http://www.w3.org/Graphics/SVG/1.1/DTD/svg11.dtd">
<!-- Generated by graphviz version 2.43.0 (0)
 -->
<!-- Title: oneDegreeRelationshipsDiagram Pages: 1 -->
<svg width="286pt" height="225pt"
 viewBox="0.00 0.00 286.00 225.00" xmlns="http://www.w3.org/2000/svg" xmlns:xlink="http://www.w3.org/1999/xlink">
<g id="graph0" class="graph" transform="scale(1 1) rotate(0) translate(4 221)">
<title>oneDegreeRelationshipsDiagram</title>
<polygon fill="#ffffff" stroke="transparent" points="-4,4 -4,-221 282,-221 282,4 -4,4"/>
<text text-anchor="middle" x="79.5" y="-7.2" font-family="Helvetica,sans-Serif" font-size="11.00">Generated by SchemaSpy</text>
<!-- qwb_ref -->
<g id="node1" class="node">
<title>qwb_ref</title>
<g id="a_node1"><a xlink:href="../../tables/qwb_ref.html" xlink:title="qwb_ref" target="_top">
<polygon fill="#ffffff" stroke="transparent" points="8,-37 8,-213 270,-213 270,-37 8,-37"/>
<polygon fill="#f5f5f5" stroke="transparent" points="10,-189 10,-211 268,-211 268,-189 10,-189"/>
<polygon fill="none" stroke="black" points="10,-189 10,-211 268,-211 268,-189 10,-189"/>
<text text-anchor="start" x="15" y="-198.2" font-family="Helvetica,sans-Serif" font-weight="bold" font-size="11.00">qwb_ref</text>
<text text-anchor="start" x="226" y="-197.2" font-family="Helvetica,sans-Serif" font-size="11.00">[table]</text>
<polygon fill="none" stroke="black" points="10,-167 10,-189 171,-189 171,-167 10,-167"/>
<image xlink:href="../../images/primaryKeys.png" width="11px" height="12px" preserveAspectRatio="xMinYMin meet" x="15" y="-184"/>
<text text-anchor="start" x="30" y="-175.2" font-family="Helvetica,sans-Serif" font-size="11.00">qwb_ref_id</text>
<polygon fill="none" stroke="black" points="171,-167 171,-189 268,-189 268,-167 171,-167"/>
<text text-anchor="start" x="174" y="-175.2" font-family="Helvetica,sans-Serif" font-size="11.00">int unsigned[10]</text>
<polygon fill="none" stroke="black" points="10,-145 10,-167 171,-167 171,-145 10,-145"/>
<image xlink:href="../../images/foreignKeys.png" width="11px" height="12px" preserveAspectRatio="xMinYMin meet" x="15" y="-162"/>
<text text-anchor="start" x="30" y="-153.2" font-family="Helvetica,sans-Serif" font-size="11.00">line_id</text>
<polygon fill="none" stroke="black" points="171,-145 171,-167 268,-167 268,-145 171,-145"/>
<text text-anchor="start" x="174" y="-153.2" font-family="Helvetica,sans-Serif" font-size="11.00">int unsigned[10]</text>
<polygon fill="none" stroke="black" points="10,-123 10,-145 171,-145 171,-123 10,-123"/>
<text text-anchor="start" x="30" y="-131.2" font-family="Helvetica,sans-Serif" font-size="11.00">qwb_scroll_name</text>
<polygon fill="none" stroke="black" points="171,-123 171,-145 268,-145 268,-123 171,-123"/>
<text text-anchor="start" x="174" y="-131.2" font-family="Helvetica,sans-Serif" font-size="11.00">varchar[16]</text>
<polygon fill="none" stroke="black" points="10,-101 10,-123 171,-123 171,-101 10,-101"/>
<text text-anchor="start" x="30" y="-109.2" font-family="Helvetica,sans-Serif" font-size="11.00">qwb_fragment_name</text>
<polygon fill="none" stroke="black" points="171,-101 171,-123 268,-123 268,-101 171,-101"/>
<text text-anchor="start" x="174" y="-109.2" font-family="Helvetica,sans-Serif" font-size="11.00">varchar[40]</text>
<polygon fill="none" stroke="black" points="10,-79 10,-101 171,-101 171,-79 10,-79"/>
<text text-anchor="start" x="30" y="-87.2" font-family="Helvetica,sans-Serif" font-size="11.00">qwb_line_name</text>
<polygon fill="none" stroke="black" points="171,-79 171,-101 268,-101 268,-79 171,-79"/>
<text text-anchor="start" x="174" y="-87.2" font-family="Helvetica,sans-Serif" font-size="11.00">varchar[20]</text>
<polygon fill="#ffffff" stroke="transparent" points="10,-57 10,-79 171,-79 171,-57 10,-57"/>
<polygon fill="none" stroke="black" points="10,-57 10,-79 171,-79 171,-57 10,-57"/>
<text text-anchor="start" x="30" y="-65.2" font-family="Helvetica,sans-Serif" font-size="11.00">text</text>
<polygon fill="none" stroke="black" points="171,-57 171,-79 268,-79 268,-57 171,-57"/>
<text text-anchor="start" x="174" y="-65.2" font-family="Helvetica,sans-Serif" font-size="11.00">varchar[255]</text>
<polygon fill="#ffffff" stroke="transparent" points="10,-39 10,-57 66,-57 66,-39 10,-39"/>
<polygon fill="none" stroke="black" points="10,-39 10,-57 66,-57 66,-39 10,-39"/>
<text text-anchor="start" x="13" y="-45.2" font-family="Helvetica,sans-Serif" font-size="11.00">&lt; 0</text>
<polygon fill="#ffffff" stroke="transparent" points="66,-39 66,-57 171,-57 171,-39 66,-39"/>
<polygon fill="none" stroke="black" points="66,-39 66,-57 171,-57 171,-39 66,-39"/>
<text text-anchor="start" x="100" y="-45.2" font-family="Helvetica,sans-Serif" font-size="11.00">54,165 rows</text>
<polygon fill="#ffffff" stroke="transparent" points="171,-39 171,-57 268,-57 268,-39 171,-39"/>
<polygon fill="none" stroke="black" points="171,-39 171,-57 268,-57 268,-39 171,-39"/>
<text text-anchor="start" x="245" y="-45.2" font-family="Helvetica,sans-Serif" font-size="11.00">0 &gt;</text>
<polygon fill="none" stroke="black" stroke-width="2" points="9,-38 9,-212 269,-212 269,-38 9,-38"/>
</a>
</g>
</g>
</g>
</svg>
