<?xml version="1.0" encoding="UTF-8" standalone="no"?>
<!DOCTYPE svg PUBLIC "-//W3C//DTD SVG 1.1//EN"
 "http://www.w3.org/Graphics/SVG/1.1/DTD/svg11.dtd">
<!-- Generated by graphviz version 2.43.0 (0)
 -->
<!-- Title: twoDegreesRelationshipsDiagram Pages: 1 -->
<svg width="451pt" height="238pt"
 viewBox="0.00 0.00 451.00 238.00" xmlns="http://www.w3.org/2000/svg" xmlns:xlink="http://www.w3.org/1999/xlink">
<g id="graph0" class="graph" transform="scale(1 1) rotate(0) translate(4 234)">
<title>twoDegreesRelationshipsDiagram</title>
<polygon fill="#ffffff" stroke="transparent" points="-4,4 -4,-234 447,-234 447,4 -4,4"/>
<text text-anchor="middle" x="79.5" y="-7.2" font-family="Helvetica,sans-Serif" font-size="11.00">Generated by SchemaSpy</text>
<!-- qwb_variant -->
<g id="node1" class="node">
<title>qwb_variant</title>
<g id="a_node1"><a xlink:href="../../tables/qwb_variant.html" xlink:title="qwb_variant" target="_top">
<polygon fill="#ffffff" stroke="transparent" points="308,-95 308,-219 435,-219 435,-95 308,-95"/>
<polygon fill="#f5f5f5" stroke="transparent" points="308.5,-197 308.5,-219 435.5,-219 435.5,-197 308.5,-197"/>
<polygon fill="none" stroke="black" points="308.5,-197 308.5,-219 435.5,-219 435.5,-197 308.5,-197"/>
<text text-anchor="start" x="313.5" y="-206.2" font-family="Helvetica,sans-Serif" font-weight="bold" font-size="11.00">qwb_variant</text>
<text text-anchor="start" x="393.5" y="-205.2" font-family="Helvetica,sans-Serif" font-size="11.00">[table]</text>
<polygon fill="none" stroke="black" points="308.5,-175 308.5,-197 435.5,-197 435.5,-175 308.5,-175"/>
<image xlink:href="../../images/primaryKeys.png" width="11px" height="12px" preserveAspectRatio="xMinYMin meet" x="313.5" y="-192"/>
<text text-anchor="start" x="331.5" y="-183.2" font-family="Helvetica,sans-Serif" font-size="11.00">qwb_variant_id</text>
<polygon fill="#ffffff" stroke="transparent" points="308.5,-153 308.5,-175 435.5,-175 435.5,-153 308.5,-153"/>
<polygon fill="none" stroke="black" points="308.5,-153 308.5,-175 435.5,-175 435.5,-153 308.5,-153"/>
<image xlink:href="../../images/foreignKeys.png" width="11px" height="12px" preserveAspectRatio="xMinYMin meet" x="313.5" y="-170"/>
<text text-anchor="start" x="331.5" y="-161.2" font-family="Helvetica,sans-Serif" font-size="11.00">qwb_word_id</text>
<polygon fill="#ffffff" stroke="transparent" points="308.5,-131 308.5,-153 435.5,-153 435.5,-131 308.5,-131"/>
<polygon fill="none" stroke="black" points="308.5,-131 308.5,-153 435.5,-153 435.5,-131 308.5,-131"/>
<image xlink:href="../../images/foreignKeys.png" width="11px" height="12px" preserveAspectRatio="xMinYMin meet" x="313.5" y="-148"/>
<text text-anchor="start" x="331.5" y="-139.2" font-family="Helvetica,sans-Serif" font-size="11.00">qwb_biblio_id</text>
<polygon fill="none" stroke="black" points="308.5,-113 308.5,-131 435.5,-131 435.5,-113 308.5,-113"/>
<text text-anchor="start" x="311.5" y="-119.2" font-family="Helvetica,sans-Serif" font-size="11.00">...</text>
<polygon fill="#ffffff" stroke="transparent" points="308.5,-95 308.5,-113 356.5,-113 356.5,-95 308.5,-95"/>
<polygon fill="none" stroke="black" points="308.5,-95 308.5,-113 356.5,-113 356.5,-95 308.5,-95"/>
<text text-anchor="start" x="311.5" y="-101.2" font-family="Helvetica,sans-Serif" font-size="11.00">&lt; 2</text>
<polygon fill="#ffffff" stroke="transparent" points="356.5,-95 356.5,-113 410.5,-113 410.5,-95 356.5,-95"/>
<polygon fill="none" stroke="black" points="356.5,-95 356.5,-113 410.5,-113 410.5,-95 356.5,-95"/>
<text text-anchor="start" x="370.5" y="-101.2" font-family="Helvetica,sans-Serif" font-size="11.00">0 rows</text>
<polygon fill="#ffffff" stroke="transparent" points="410.5,-95 410.5,-113 435.5,-113 435.5,-95 410.5,-95"/>
<polygon fill="none" stroke="black" points="410.5,-95 410.5,-113 435.5,-113 435.5,-95 410.5,-95"/>
<text text-anchor="start" x="424.5" y="-101.2" font-family="Helvetica,sans-Serif" font-size="11.00"> &#160;</text>
</a>
</g>
</g>
<!-- qwb_biblio -->
<g id="node2" class="node">
<title>qwb_biblio</title>
<g id="a_node2"><a xlink:href="../../tables/qwb_biblio.html" xlink:title="qwb_biblio" target="_top">
<polygon fill="#ffffff" stroke="transparent" points="8,-37 8,-147 259,-147 259,-37 8,-37"/>
<polygon fill="#f5f5f5" stroke="transparent" points="10.5,-123 10.5,-145 257.5,-145 257.5,-123 10.5,-123"/>
<polygon fill="none" stroke="black" points="10.5,-123 10.5,-145 257.5,-145 257.5,-123 10.5,-123"/>
<text text-anchor="start" x="15.5" y="-132.2" font-family="Helvetica,sans-Serif" font-weight="bold" font-size="11.00">qwb_biblio</text>
<text text-anchor="start" x="215.5" y="-131.2" font-family="Helvetica,sans-Serif" font-size="11.00">[table]</text>
<polygon fill="none" stroke="black" points="10.5,-101 10.5,-123 121.5,-123 121.5,-101 10.5,-101"/>
<image xlink:href="../../images/primaryKeys.png" width="11px" height="12px" preserveAspectRatio="xMinYMin meet" x="15.5" y="-118"/>
<text text-anchor="start" x="30.5" y="-109.2" font-family="Helvetica,sans-Serif" font-size="11.00">qwb_biblio_id</text>
<polygon fill="none" stroke="black" points="121.5,-101 121.5,-123 257.5,-123 257.5,-101 121.5,-101"/>
<text text-anchor="start" x="124.5" y="-109.2" font-family="Helvetica,sans-Serif" font-size="11.00">int unsigned[10]</text>
<polygon fill="none" stroke="black" points="10.5,-79 10.5,-101 121.5,-101 121.5,-79 10.5,-79"/>
<text text-anchor="start" x="30.5" y="-87.2" font-family="Helvetica,sans-Serif" font-size="11.00">biblio_short</text>
<polygon fill="none" stroke="black" points="121.5,-79 121.5,-101 257.5,-101 257.5,-79 121.5,-79"/>
<text text-anchor="start" x="124.5" y="-87.2" font-family="Helvetica,sans-Serif" font-size="11.00">varchar[255]</text>
<polygon fill="none" stroke="black" points="10.5,-57 10.5,-79 121.5,-79 121.5,-57 10.5,-57"/>
<text text-anchor="start" x="30.5" y="-65.2" font-family="Helvetica,sans-Serif" font-size="11.00">biblio_long</text>
<polygon fill="none" stroke="black" points="121.5,-57 121.5,-79 257.5,-79 257.5,-57 121.5,-57"/>
<text text-anchor="start" x="124.5" y="-65.2" font-family="Helvetica,sans-Serif" font-size="11.00">mediumtext[16777215]</text>
<polygon fill="#ffffff" stroke="transparent" points="10.5,-39 10.5,-57 57.5,-57 57.5,-39 10.5,-39"/>
<polygon fill="none" stroke="black" points="10.5,-39 10.5,-57 57.5,-57 57.5,-39 10.5,-39"/>
<text text-anchor="start" x="13.5" y="-45.2" font-family="Helvetica,sans-Serif" font-size="11.00">&lt; 0</text>
<polygon fill="#ffffff" stroke="transparent" points="57.5,-39 57.5,-57 121.5,-57 121.5,-39 57.5,-39"/>
<polygon fill="none" stroke="black" points="57.5,-39 57.5,-57 121.5,-57 121.5,-39 57.5,-39"/>
<text text-anchor="start" x="81.5" y="-45.2" font-family="Helvetica,sans-Serif" font-size="11.00">0 rows</text>
<polygon fill="#ffffff" stroke="transparent" points="121.5,-39 121.5,-57 257.5,-57 257.5,-39 121.5,-39"/>
<polygon fill="none" stroke="black" points="121.5,-39 121.5,-57 257.5,-57 257.5,-39 121.5,-39"/>
<text text-anchor="start" x="234.5" y="-45.2" font-family="Helvetica,sans-Serif" font-size="11.00">1 &gt;</text>
<polygon fill="none" stroke="black" stroke-width="2" points="9,-38 9,-146 258,-146 258,-38 9,-38"/>
</a>
</g>
</g>
<!-- qwb_variant&#45;&gt;qwb_biblio -->
<g id="edge1" class="edge">
<title>qwb_variant:w&#45;&gt;qwb_biblio:e</title>
<path fill="none" stroke="black" d="M293.38,-137.83C281.42,-129.59 278.05,-112 258.5,-112"/>
<polygon fill="black" stroke="black" points="299.83,-139.73 306.48,-145.45 303.66,-140.87 307.5,-142 307.5,-142 307.5,-142 303.66,-140.87 308.52,-138.55 299.83,-139.73 299.83,-139.73"/>
<ellipse fill="none" stroke="black" cx="296.76" cy="-138.83" rx="3.2" ry="3.2"/>
</g>
<!-- qwb_word -->
<g id="node3" class="node">
<title>qwb_word</title>
<g id="a_node3"><a xlink:href="../../tables/qwb_word.html" xlink:title="qwb_word" target="_top">
<polygon fill="#ffffff" stroke="transparent" points="73,-168 73,-226 194,-226 194,-168 73,-168"/>
<polygon fill="#f5f5f5" stroke="transparent" points="73.5,-204 73.5,-226 194.5,-226 194.5,-204 73.5,-204"/>
<polygon fill="none" stroke="black" points="73.5,-204 73.5,-226 194.5,-226 194.5,-204 73.5,-204"/>
<text text-anchor="start" x="78.5" y="-213.2" font-family="Helvetica,sans-Serif" font-weight="bold" font-size="11.00">qwb_word</text>
<text text-anchor="start" x="152.5" y="-212.2" font-family="Helvetica,sans-Serif" font-size="11.00">[table]</text>
<polygon fill="none" stroke="black" points="73.5,-186 73.5,-204 194.5,-204 194.5,-186 73.5,-186"/>
<text text-anchor="start" x="76.5" y="-192.2" font-family="Helvetica,sans-Serif" font-size="11.00">...</text>
<polygon fill="#ffffff" stroke="transparent" points="73.5,-168 73.5,-186 87.5,-186 87.5,-168 73.5,-168"/>
<polygon fill="none" stroke="black" points="73.5,-168 73.5,-186 87.5,-186 87.5,-168 73.5,-168"/>
<text text-anchor="start" x="76.5" y="-174.2" font-family="Helvetica,sans-Serif" font-size="11.00"> &#160;</text>
<polygon fill="#ffffff" stroke="transparent" points="87.5,-168 87.5,-186 168.5,-186 168.5,-168 87.5,-168"/>
<polygon fill="none" stroke="black" points="87.5,-168 87.5,-186 168.5,-186 168.5,-168 87.5,-168"/>
<text text-anchor="start" x="90.5" y="-174.2" font-family="Helvetica,sans-Serif" font-size="11.00">319,584 rows</text>
<polygon fill="#ffffff" stroke="transparent" points="168.5,-168 168.5,-186 194.5,-186 194.5,-168 168.5,-168"/>
<polygon fill="none" stroke="black" points="168.5,-168 168.5,-186 194.5,-186 194.5,-168 168.5,-168"/>
<text text-anchor="start" x="171.5" y="-174.2" font-family="Helvetica,sans-Serif" font-size="11.00">2 &gt;</text>
</a>
</g>
</g>
<!-- qwb_variant&#45;&gt;qwb_word -->
<g id="edge2" class="edge">
<title>qwb_variant:w&#45;&gt;qwb_word:e</title>
<path fill="none" stroke="black" d="M293,-164.89C253.64,-169.98 241.9,-195 195.5,-195"/>
<polygon fill="black" stroke="black" points="299.52,-164.49 307.72,-167.59 303.51,-164.25 307.5,-164 307.5,-164 307.5,-164 303.51,-164.25 307.28,-160.41 299.52,-164.49 299.52,-164.49"/>
<ellipse fill="none" stroke="black" cx="296.32" cy="-164.69" rx="3.2" ry="3.2"/>
</g>
</g>
</svg>
