<?xml version="1.0" encoding="UTF-8" standalone="no"?>
<!DOCTYPE svg PUBLIC "-//W3C//DTD SVG 1.1//EN"
 "http://www.w3.org/Graphics/SVG/1.1/DTD/svg11.dtd">
<!-- Generated by graphviz version 2.40.1 (20161225.0304)
 -->
<!-- Title: oneDegreeRelationshipsDiagramImplied Pages: 1 -->
<svg width="421pt" height="225pt"
 viewBox="0.00 0.00 421.00 225.00" xmlns="http://www.w3.org/2000/svg" xmlns:xlink="http://www.w3.org/1999/xlink">
<g id="graph0" class="graph" transform="scale(1 1) rotate(0) translate(4 221)">
<title>oneDegreeRelationshipsDiagramImplied</title>
<polygon fill="#ffffff" stroke="transparent" points="-4,4 -4,-221 417,-221 417,4 -4,4"/>
<text text-anchor="middle" x="71.5" y="-7.2" font-family="Helvetica,sans-Serif" font-size="11.00" fill="#000000">Generated by SchemaSpy</text>
<!-- qwb_ref -->
<g id="node1" class="node">
<title>qwb_ref</title>
<g id="a_node1"><a xlink:href="../../tables/qwb_ref.html" xlink:title="qwb_ref" target="_top">
<polygon fill="#ffffff" stroke="transparent" points="158,-37 158,-213 405,-213 405,-37 158,-37"/>
<polygon fill="#f5f5f5" stroke="transparent" points="160.5,-189 160.5,-211 403.5,-211 403.5,-189 160.5,-189"/>
<polygon fill="none" stroke="#000000" points="160.5,-189 160.5,-211 403.5,-211 403.5,-189 160.5,-189"/>
<text text-anchor="start" x="165.5" y="-198.2" font-family="Helvetica,sans-Serif" font-weight="bold" font-size="11.00" fill="#000000">qwb_ref</text>
<text text-anchor="start" x="368.5" y="-197.2" font-family="Helvetica,sans-Serif" font-size="11.00" fill="#000000">[table]</text>
<polygon fill="none" stroke="#000000" points="160.5,-167 160.5,-189 321.5,-189 321.5,-167 160.5,-167"/>
<image xlink:href="../../images/primaryKeys.png" width="11px" height="12px" preserveAspectRatio="xMinYMin meet" x="165.5" y="-184"/>
<text text-anchor="start" x="180.5" y="-175.2" font-family="Helvetica,sans-Serif" font-size="11.00" fill="#000000">qwb_ref_id</text>
<polygon fill="none" stroke="#000000" points="321.5,-167 321.5,-189 403.5,-189 403.5,-167 321.5,-167"/>
<text text-anchor="start" x="324.5" y="-175.2" font-family="Helvetica,sans-Serif" font-size="11.00" fill="#000000">int unsigned[10]</text>
<polygon fill="none" stroke="#000000" points="160.5,-145 160.5,-167 321.5,-167 321.5,-145 160.5,-145"/>
<image xlink:href="../../images/foreignKeys.png" width="11px" height="12px" preserveAspectRatio="xMinYMin meet" x="165.5" y="-162"/>
<text text-anchor="start" x="180.5" y="-153.2" font-family="Helvetica,sans-Serif" font-size="11.00" fill="#000000">line_id</text>
<polygon fill="none" stroke="#000000" points="321.5,-145 321.5,-167 403.5,-167 403.5,-145 321.5,-145"/>
<text text-anchor="start" x="324.5" y="-153.2" font-family="Helvetica,sans-Serif" font-size="11.00" fill="#000000">int unsigned[10]</text>
<polygon fill="none" stroke="#000000" points="160.5,-123 160.5,-145 321.5,-145 321.5,-123 160.5,-123"/>
<text text-anchor="start" x="180.5" y="-131.2" font-family="Helvetica,sans-Serif" font-size="11.00" fill="#000000">qwb_scroll_name</text>
<polygon fill="none" stroke="#000000" points="321.5,-123 321.5,-145 403.5,-145 403.5,-123 321.5,-123"/>
<text text-anchor="start" x="324.5" y="-131.2" font-family="Helvetica,sans-Serif" font-size="11.00" fill="#000000">varchar[16]</text>
<polygon fill="none" stroke="#000000" points="160.5,-101 160.5,-123 321.5,-123 321.5,-101 160.5,-101"/>
<text text-anchor="start" x="180.5" y="-109.2" font-family="Helvetica,sans-Serif" font-size="11.00" fill="#000000">qwb_fragment_name</text>
<polygon fill="none" stroke="#000000" points="321.5,-101 321.5,-123 403.5,-123 403.5,-101 321.5,-101"/>
<text text-anchor="start" x="324.5" y="-109.2" font-family="Helvetica,sans-Serif" font-size="11.00" fill="#000000">varchar[40]</text>
<polygon fill="none" stroke="#000000" points="160.5,-79 160.5,-101 321.5,-101 321.5,-79 160.5,-79"/>
<text text-anchor="start" x="180.5" y="-87.2" font-family="Helvetica,sans-Serif" font-size="11.00" fill="#000000">qwb_line_name</text>
<polygon fill="none" stroke="#000000" points="321.5,-79 321.5,-101 403.5,-101 403.5,-79 321.5,-79"/>
<text text-anchor="start" x="324.5" y="-87.2" font-family="Helvetica,sans-Serif" font-size="11.00" fill="#000000">varchar[20]</text>
<polygon fill="#ffffff" stroke="transparent" points="160.5,-57 160.5,-79 321.5,-79 321.5,-57 160.5,-57"/>
<polygon fill="none" stroke="#000000" points="160.5,-57 160.5,-79 321.5,-79 321.5,-57 160.5,-57"/>
<text text-anchor="start" x="180.5" y="-65.2" font-family="Helvetica,sans-Serif" font-size="11.00" fill="#000000">text</text>
<polygon fill="none" stroke="#000000" points="321.5,-57 321.5,-79 403.5,-79 403.5,-57 321.5,-57"/>
<text text-anchor="start" x="324.5" y="-65.2" font-family="Helvetica,sans-Serif" font-size="11.00" fill="#000000">varchar[255]</text>
<polygon fill="#ffffff" stroke="transparent" points="160.5,-39 160.5,-57 218.5,-57 218.5,-39 160.5,-39"/>
<polygon fill="none" stroke="#000000" points="160.5,-39 160.5,-57 218.5,-57 218.5,-39 160.5,-39"/>
<text text-anchor="start" x="163.5" y="-45.2" font-family="Helvetica,sans-Serif" font-size="11.00" fill="#000000">&lt; 1</text>
<polygon fill="#ffffff" stroke="transparent" points="218.5,-39 218.5,-57 321.5,-57 321.5,-39 218.5,-39"/>
<polygon fill="none" stroke="#000000" points="218.5,-39 218.5,-57 321.5,-57 321.5,-39 218.5,-39"/>
<text text-anchor="start" x="258.5" y="-45.2" font-family="Helvetica,sans-Serif" font-size="11.00" fill="#000000">54,197 rows</text>
<polygon fill="#ffffff" stroke="transparent" points="321.5,-39 321.5,-57 403.5,-57 403.5,-39 321.5,-39"/>
<polygon fill="none" stroke="#000000" points="321.5,-39 321.5,-57 403.5,-57 403.5,-39 321.5,-39"/>
<text text-anchor="start" x="384.5" y="-45.2" font-family="Helvetica,sans-Serif" font-size="11.00" fill="#000000">0 &gt;</text>
<polygon fill="none" stroke="#000000" stroke-width="2" points="159,-38 159,-212 404,-212 404,-38 159,-38"/>
</a>
</g>
</g>
<!-- line -->
<g id="node2" class="node">
<title>line</title>
<g id="a_node2"><a xlink:href="../../tables/line.html" xlink:title="line" target="_top">
<polygon fill="#ffffff" stroke="transparent" points="8,-127 8,-189 109,-189 109,-127 8,-127"/>
<polygon fill="#f5f5f5" stroke="transparent" points="8.5,-167 8.5,-189 109.5,-189 109.5,-167 8.5,-167"/>
<polygon fill="none" stroke="#000000" points="8.5,-167 8.5,-189 109.5,-189 109.5,-167 8.5,-167"/>
<text text-anchor="start" x="13.5" y="-176.2" font-family="Helvetica,sans-Serif" font-weight="bold" font-size="11.00" fill="#000000">line</text>
<text text-anchor="start" x="74.5" y="-175.2" font-family="Helvetica,sans-Serif" font-size="11.00" fill="#000000">[table]</text>
<polygon fill="none" stroke="#000000" points="8.5,-145 8.5,-167 109.5,-167 109.5,-145 8.5,-145"/>
<image xlink:href="../../images/primaryKeys.png" width="11px" height="12px" preserveAspectRatio="xMinYMin meet" x="13.5" y="-162"/>
<text text-anchor="start" x="47.5" y="-153.2" font-family="Helvetica,sans-Serif" font-size="11.00" fill="#000000">line_id</text>
<polygon fill="#ffffff" stroke="transparent" points="8.5,-127 8.5,-145 21.5,-145 21.5,-127 8.5,-127"/>
<polygon fill="none" stroke="#000000" points="8.5,-127 8.5,-145 21.5,-145 21.5,-127 8.5,-127"/>
<text text-anchor="start" x="11.5" y="-133.2" font-family="Helvetica,sans-Serif" font-size="11.00" fill="#000000"> &#160;</text>
<polygon fill="#ffffff" stroke="transparent" points="21.5,-127 21.5,-145 87.5,-145 87.5,-127 21.5,-127"/>
<polygon fill="none" stroke="#000000" points="21.5,-127 21.5,-145 87.5,-145 87.5,-127 21.5,-127"/>
<text text-anchor="start" x="24.5" y="-133.2" font-family="Helvetica,sans-Serif" font-size="11.00" fill="#000000">55,350 rows</text>
<polygon fill="#ffffff" stroke="transparent" points="87.5,-127 87.5,-145 109.5,-145 109.5,-127 87.5,-127"/>
<polygon fill="none" stroke="#000000" points="87.5,-127 87.5,-145 109.5,-145 109.5,-127 87.5,-127"/>
<text text-anchor="start" x="90.5" y="-133.2" font-family="Helvetica,sans-Serif" font-size="11.00" fill="#000000">4 &gt;</text>
</a>
</g>
</g>
<!-- qwb_ref&#45;&gt;line -->
<g id="edge1" class="edge">
<title>qwb_ref:w&#45;&gt;line:e</title>
<path fill="none" stroke="#000000" stroke-dasharray="5,2" d="M145.776,-156C133.7815,-156 126.3229,-156 109.5,-156"/>
<polygon fill="#000000" stroke="#000000" points="152.5,-156.0001 160.5,-159.6 156.5,-156 160.5,-156 160.5,-156 160.5,-156 156.5,-156 160.5,-152.4 152.5,-156.0001 152.5,-156.0001"/>
<ellipse fill="none" stroke="#000000" cx="149.3" cy="-156.0001" rx="3.2" ry="3.2"/>
</g>
</g>
</svg>
