<?xml version="1.0" encoding="UTF-8" standalone="no"?>
<!DOCTYPE svg PUBLIC "-//W3C//DTD SVG 1.1//EN"
 "http://www.w3.org/Graphics/SVG/1.1/DTD/svg11.dtd">
<!-- Generated by graphviz version 2.40.1 (20161225.0304)
 -->
<!-- Title: oneDegreeRelationshipsDiagram Pages: 1 -->
<svg width="271pt" height="225pt"
 viewBox="0.00 0.00 271.00 225.00" xmlns="http://www.w3.org/2000/svg" xmlns:xlink="http://www.w3.org/1999/xlink">
<g id="graph0" class="graph" transform="scale(1 1) rotate(0) translate(4 221)">
<title>oneDegreeRelationshipsDiagram</title>
<polygon fill="#ffffff" stroke="transparent" points="-4,4 -4,-221 267,-221 267,4 -4,4"/>
<text text-anchor="middle" x="71.5" y="-7.2" font-family="Helvetica,sans-Serif" font-size="11.00" fill="#000000">Generated by SchemaSpy</text>
<!-- qwb_ref -->
<g id="node1" class="node">
<title>qwb_ref</title>
<g id="a_node1"><a xlink:href="../../tables/qwb_ref.html" xlink:title="qwb_ref" target="_top">
<polygon fill="#ffffff" stroke="transparent" points="8,-37 8,-213 255,-213 255,-37 8,-37"/>
<polygon fill="#f5f5f5" stroke="transparent" points="10.5,-189 10.5,-211 253.5,-211 253.5,-189 10.5,-189"/>
<polygon fill="none" stroke="#000000" points="10.5,-189 10.5,-211 253.5,-211 253.5,-189 10.5,-189"/>
<text text-anchor="start" x="15.5" y="-198.2" font-family="Helvetica,sans-Serif" font-weight="bold" font-size="11.00" fill="#000000">qwb_ref</text>
<text text-anchor="start" x="218.5" y="-197.2" font-family="Helvetica,sans-Serif" font-size="11.00" fill="#000000">[table]</text>
<polygon fill="none" stroke="#000000" points="10.5,-167 10.5,-189 171.5,-189 171.5,-167 10.5,-167"/>
<image xlink:href="../../images/primaryKeys.png" width="11px" height="12px" preserveAspectRatio="xMinYMin meet" x="15.5" y="-184"/>
<text text-anchor="start" x="30.5" y="-175.2" font-family="Helvetica,sans-Serif" font-size="11.00" fill="#000000">qwb_ref_id</text>
<polygon fill="none" stroke="#000000" points="171.5,-167 171.5,-189 253.5,-189 253.5,-167 171.5,-167"/>
<text text-anchor="start" x="174.5" y="-175.2" font-family="Helvetica,sans-Serif" font-size="11.00" fill="#000000">int unsigned[10]</text>
<polygon fill="none" stroke="#000000" points="10.5,-145 10.5,-167 171.5,-167 171.5,-145 10.5,-145"/>
<image xlink:href="../../images/foreignKeys.png" width="11px" height="12px" preserveAspectRatio="xMinYMin meet" x="15.5" y="-162"/>
<text text-anchor="start" x="30.5" y="-153.2" font-family="Helvetica,sans-Serif" font-size="11.00" fill="#000000">line_id</text>
<polygon fill="none" stroke="#000000" points="171.5,-145 171.5,-167 253.5,-167 253.5,-145 171.5,-145"/>
<text text-anchor="start" x="174.5" y="-153.2" font-family="Helvetica,sans-Serif" font-size="11.00" fill="#000000">int unsigned[10]</text>
<polygon fill="none" stroke="#000000" points="10.5,-123 10.5,-145 171.5,-145 171.5,-123 10.5,-123"/>
<text text-anchor="start" x="30.5" y="-131.2" font-family="Helvetica,sans-Serif" font-size="11.00" fill="#000000">qwb_scroll_name</text>
<polygon fill="none" stroke="#000000" points="171.5,-123 171.5,-145 253.5,-145 253.5,-123 171.5,-123"/>
<text text-anchor="start" x="174.5" y="-131.2" font-family="Helvetica,sans-Serif" font-size="11.00" fill="#000000">varchar[16]</text>
<polygon fill="none" stroke="#000000" points="10.5,-101 10.5,-123 171.5,-123 171.5,-101 10.5,-101"/>
<text text-anchor="start" x="30.5" y="-109.2" font-family="Helvetica,sans-Serif" font-size="11.00" fill="#000000">qwb_fragment_name</text>
<polygon fill="none" stroke="#000000" points="171.5,-101 171.5,-123 253.5,-123 253.5,-101 171.5,-101"/>
<text text-anchor="start" x="174.5" y="-109.2" font-family="Helvetica,sans-Serif" font-size="11.00" fill="#000000">varchar[40]</text>
<polygon fill="none" stroke="#000000" points="10.5,-79 10.5,-101 171.5,-101 171.5,-79 10.5,-79"/>
<text text-anchor="start" x="30.5" y="-87.2" font-family="Helvetica,sans-Serif" font-size="11.00" fill="#000000">qwb_line_name</text>
<polygon fill="none" stroke="#000000" points="171.5,-79 171.5,-101 253.5,-101 253.5,-79 171.5,-79"/>
<text text-anchor="start" x="174.5" y="-87.2" font-family="Helvetica,sans-Serif" font-size="11.00" fill="#000000">varchar[20]</text>
<polygon fill="#ffffff" stroke="transparent" points="10.5,-57 10.5,-79 171.5,-79 171.5,-57 10.5,-57"/>
<polygon fill="none" stroke="#000000" points="10.5,-57 10.5,-79 171.5,-79 171.5,-57 10.5,-57"/>
<text text-anchor="start" x="30.5" y="-65.2" font-family="Helvetica,sans-Serif" font-size="11.00" fill="#000000">text</text>
<polygon fill="none" stroke="#000000" points="171.5,-57 171.5,-79 253.5,-79 253.5,-57 171.5,-57"/>
<text text-anchor="start" x="174.5" y="-65.2" font-family="Helvetica,sans-Serif" font-size="11.00" fill="#000000">varchar[255]</text>
<polygon fill="#ffffff" stroke="transparent" points="10.5,-39 10.5,-57 68.5,-57 68.5,-39 10.5,-39"/>
<polygon fill="none" stroke="#000000" points="10.5,-39 10.5,-57 68.5,-57 68.5,-39 10.5,-39"/>
<text text-anchor="start" x="13.5" y="-45.2" font-family="Helvetica,sans-Serif" font-size="11.00" fill="#000000">&lt; 0</text>
<polygon fill="#ffffff" stroke="transparent" points="68.5,-39 68.5,-57 171.5,-57 171.5,-39 68.5,-39"/>
<polygon fill="none" stroke="#000000" points="68.5,-39 68.5,-57 171.5,-57 171.5,-39 68.5,-39"/>
<text text-anchor="start" x="108.5" y="-45.2" font-family="Helvetica,sans-Serif" font-size="11.00" fill="#000000">54,197 rows</text>
<polygon fill="#ffffff" stroke="transparent" points="171.5,-39 171.5,-57 253.5,-57 253.5,-39 171.5,-39"/>
<polygon fill="none" stroke="#000000" points="171.5,-39 171.5,-57 253.5,-57 253.5,-39 171.5,-39"/>
<text text-anchor="start" x="234.5" y="-45.2" font-family="Helvetica,sans-Serif" font-size="11.00" fill="#000000">0 &gt;</text>
<polygon fill="none" stroke="#000000" stroke-width="2" points="9,-38 9,-212 254,-212 254,-38 9,-38"/>
</a>
</g>
</g>
</g>
</svg>
