<?xml version="1.0" encoding="UTF-8" standalone="no"?>
<!DOCTYPE svg PUBLIC "-//W3C//DTD SVG 1.1//EN"
 "http://www.w3.org/Graphics/SVG/1.1/DTD/svg11.dtd">
<!-- Generated by graphviz version 2.40.1 (20161225.0304)
 -->
<!-- Title: twoDegreesRelationshipsDiagram Pages: 1 -->
<svg width="426pt" height="238pt"
 viewBox="0.00 0.00 426.00 238.00" xmlns="http://www.w3.org/2000/svg" xmlns:xlink="http://www.w3.org/1999/xlink">
<g id="graph0" class="graph" transform="scale(1 1) rotate(0) translate(4 234)">
<title>twoDegreesRelationshipsDiagram</title>
<polygon fill="#ffffff" stroke="transparent" points="-4,4 -4,-234 422,-234 422,4 -4,4"/>
<text text-anchor="middle" x="71.5" y="-7.2" font-family="Helvetica,sans-Serif" font-size="11.00" fill="#000000">Generated by SchemaSpy</text>
<!-- qwb_variant -->
<g id="node1" class="node">
<title>qwb_variant</title>
<g id="a_node1"><a xlink:href="../../tables/qwb_variant.html" xlink:title="qwb_variant" target="_top">
<polygon fill="#ffffff" stroke="transparent" points="288,-95 288,-219 410,-219 410,-95 288,-95"/>
<polygon fill="#f5f5f5" stroke="transparent" points="288,-197 288,-219 410,-219 410,-197 288,-197"/>
<polygon fill="none" stroke="#000000" points="288,-197 288,-219 410,-219 410,-197 288,-197"/>
<text text-anchor="start" x="293" y="-206.2" font-family="Helvetica,sans-Serif" font-weight="bold" font-size="11.00" fill="#000000">qwb_variant</text>
<text text-anchor="start" x="375" y="-205.2" font-family="Helvetica,sans-Serif" font-size="11.00" fill="#000000">[table]</text>
<polygon fill="none" stroke="#000000" points="288,-175 288,-197 410,-197 410,-175 288,-175"/>
<image xlink:href="../../images/primaryKeys.png" width="11px" height="12px" preserveAspectRatio="xMinYMin meet" x="293" y="-192"/>
<text text-anchor="start" x="308" y="-183.2" font-family="Helvetica,sans-Serif" font-size="11.00" fill="#000000">qwb_variant_id</text>
<polygon fill="#ffffff" stroke="transparent" points="288,-153 288,-175 410,-175 410,-153 288,-153"/>
<polygon fill="none" stroke="#000000" points="288,-153 288,-175 410,-175 410,-153 288,-153"/>
<image xlink:href="../../images/foreignKeys.png" width="11px" height="12px" preserveAspectRatio="xMinYMin meet" x="293" y="-170"/>
<text text-anchor="start" x="308" y="-161.2" font-family="Helvetica,sans-Serif" font-size="11.00" fill="#000000">qwb_word_id</text>
<polygon fill="#ffffff" stroke="transparent" points="288,-131 288,-153 410,-153 410,-131 288,-131"/>
<polygon fill="none" stroke="#000000" points="288,-131 288,-153 410,-153 410,-131 288,-131"/>
<image xlink:href="../../images/foreignKeys.png" width="11px" height="12px" preserveAspectRatio="xMinYMin meet" x="293" y="-148"/>
<text text-anchor="start" x="308" y="-139.2" font-family="Helvetica,sans-Serif" font-size="11.00" fill="#000000">qwb_biblio_id</text>
<polygon fill="none" stroke="#000000" points="288,-113 288,-131 410,-131 410,-113 288,-113"/>
<text text-anchor="start" x="291" y="-119.2" font-family="Helvetica,sans-Serif" font-size="11.00" fill="#000000">...</text>
<polygon fill="#ffffff" stroke="transparent" points="288,-95 288,-113 334,-113 334,-95 288,-95"/>
<polygon fill="none" stroke="#000000" points="288,-95 288,-113 334,-113 334,-95 288,-95"/>
<text text-anchor="start" x="291" y="-101.2" font-family="Helvetica,sans-Serif" font-size="11.00" fill="#000000">&lt; 2</text>
<polygon fill="#ffffff" stroke="transparent" points="334,-95 334,-113 385,-113 385,-95 334,-95"/>
<polygon fill="none" stroke="#000000" points="334,-95 334,-113 385,-113 385,-95 334,-95"/>
<text text-anchor="start" x="349" y="-101.2" font-family="Helvetica,sans-Serif" font-size="11.00" fill="#000000">0 rows</text>
<polygon fill="#ffffff" stroke="transparent" points="385,-95 385,-113 410,-113 410,-95 385,-95"/>
<polygon fill="none" stroke="#000000" points="385,-95 385,-113 410,-113 410,-95 385,-95"/>
<text text-anchor="start" x="400" y="-101.2" font-family="Helvetica,sans-Serif" font-size="11.00" fill="#000000"> &#160;</text>
</a>
</g>
</g>
<!-- qwb_biblio -->
<g id="node2" class="node">
<title>qwb_biblio</title>
<g id="a_node2"><a xlink:href="../../tables/qwb_biblio.html" xlink:title="qwb_biblio" target="_top">
<polygon fill="#ffffff" stroke="transparent" points="8,-37 8,-147 239,-147 239,-37 8,-37"/>
<polygon fill="#f5f5f5" stroke="transparent" points="10.5,-123 10.5,-145 237.5,-145 237.5,-123 10.5,-123"/>
<polygon fill="none" stroke="#000000" points="10.5,-123 10.5,-145 237.5,-145 237.5,-123 10.5,-123"/>
<text text-anchor="start" x="15.5" y="-132.2" font-family="Helvetica,sans-Serif" font-weight="bold" font-size="11.00" fill="#000000">qwb_biblio</text>
<text text-anchor="start" x="202.5" y="-131.2" font-family="Helvetica,sans-Serif" font-size="11.00" fill="#000000">[table]</text>
<polygon fill="none" stroke="#000000" points="10.5,-101 10.5,-123 121.5,-123 121.5,-101 10.5,-101"/>
<image xlink:href="../../images/primaryKeys.png" width="11px" height="12px" preserveAspectRatio="xMinYMin meet" x="15.5" y="-118"/>
<text text-anchor="start" x="30.5" y="-109.2" font-family="Helvetica,sans-Serif" font-size="11.00" fill="#000000">qwb_biblio_id</text>
<polygon fill="none" stroke="#000000" points="121.5,-101 121.5,-123 237.5,-123 237.5,-101 121.5,-101"/>
<text text-anchor="start" x="124.5" y="-109.2" font-family="Helvetica,sans-Serif" font-size="11.00" fill="#000000">int unsigned[10]</text>
<polygon fill="none" stroke="#000000" points="10.5,-79 10.5,-101 121.5,-101 121.5,-79 10.5,-79"/>
<text text-anchor="start" x="30.5" y="-87.2" font-family="Helvetica,sans-Serif" font-size="11.00" fill="#000000">biblio_short</text>
<polygon fill="none" stroke="#000000" points="121.5,-79 121.5,-101 237.5,-101 237.5,-79 121.5,-79"/>
<text text-anchor="start" x="124.5" y="-87.2" font-family="Helvetica,sans-Serif" font-size="11.00" fill="#000000">varchar[255]</text>
<polygon fill="none" stroke="#000000" points="10.5,-57 10.5,-79 121.5,-79 121.5,-57 10.5,-57"/>
<text text-anchor="start" x="30.5" y="-65.2" font-family="Helvetica,sans-Serif" font-size="11.00" fill="#000000">biblio_long</text>
<polygon fill="none" stroke="#000000" points="121.5,-57 121.5,-79 237.5,-79 237.5,-57 121.5,-57"/>
<text text-anchor="start" x="124.5" y="-65.2" font-family="Helvetica,sans-Serif" font-size="11.00" fill="#000000">mediumtext[16777215]</text>
<polygon fill="#ffffff" stroke="transparent" points="10.5,-39 10.5,-57 57.5,-57 57.5,-39 10.5,-39"/>
<polygon fill="none" stroke="#000000" points="10.5,-39 10.5,-57 57.5,-57 57.5,-39 10.5,-39"/>
<text text-anchor="start" x="13.5" y="-45.2" font-family="Helvetica,sans-Serif" font-size="11.00" fill="#000000">&lt; 0</text>
<polygon fill="#ffffff" stroke="transparent" points="57.5,-39 57.5,-57 121.5,-57 121.5,-39 57.5,-39"/>
<polygon fill="none" stroke="#000000" points="57.5,-39 57.5,-57 121.5,-57 121.5,-39 57.5,-39"/>
<text text-anchor="start" x="85.5" y="-45.2" font-family="Helvetica,sans-Serif" font-size="11.00" fill="#000000">0 rows</text>
<polygon fill="#ffffff" stroke="transparent" points="121.5,-39 121.5,-57 237.5,-57 237.5,-39 121.5,-39"/>
<polygon fill="none" stroke="#000000" points="121.5,-39 121.5,-57 237.5,-57 237.5,-39 121.5,-39"/>
<text text-anchor="start" x="218.5" y="-45.2" font-family="Helvetica,sans-Serif" font-size="11.00" fill="#000000">1 &gt;</text>
<polygon fill="none" stroke="#000000" stroke-width="2" points="9,-38 9,-146 238,-146 238,-38 9,-38"/>
</a>
</g>
</g>
<!-- qwb_variant&#45;&gt;qwb_biblio -->
<g id="edge1" class="edge">
<title>qwb_variant:w&#45;&gt;qwb_biblio:e</title>
<path fill="none" stroke="#000000" d="M273.8928,-138.078C261.2418,-129.9462 257.6915,-112 237.5,-112"/>
<polygon fill="#000000" stroke="#000000" points="280.2923,-139.8571 287.0357,-145.4685 284.1462,-140.9286 288,-142 288,-142 288,-142 284.1462,-140.9286 288.9643,-138.5315 280.2923,-139.8571 280.2923,-139.8571"/>
<ellipse fill="none" stroke="#000000" cx="277.2092" cy="-139" rx="3.2" ry="3.2"/>
</g>
<!-- qwb_word -->
<g id="node3" class="node">
<title>qwb_word</title>
<g id="a_node3"><a xlink:href="../../tables/qwb_word.html" xlink:title="qwb_word" target="_top">
<polygon fill="#ffffff" stroke="transparent" points="70,-168 70,-226 177,-226 177,-168 70,-168"/>
<polygon fill="#f5f5f5" stroke="transparent" points="70.5,-204 70.5,-226 177.5,-226 177.5,-204 70.5,-204"/>
<polygon fill="none" stroke="#000000" points="70.5,-204 70.5,-226 177.5,-226 177.5,-204 70.5,-204"/>
<text text-anchor="start" x="75.5" y="-213.2" font-family="Helvetica,sans-Serif" font-weight="bold" font-size="11.00" fill="#000000">qwb_word</text>
<text text-anchor="start" x="142.5" y="-212.2" font-family="Helvetica,sans-Serif" font-size="11.00" fill="#000000">[table]</text>
<polygon fill="none" stroke="#000000" points="70.5,-186 70.5,-204 177.5,-204 177.5,-186 70.5,-186"/>
<text text-anchor="start" x="73.5" y="-192.2" font-family="Helvetica,sans-Serif" font-size="11.00" fill="#000000">...</text>
<polygon fill="#ffffff" stroke="transparent" points="70.5,-168 70.5,-186 83.5,-186 83.5,-168 70.5,-168"/>
<polygon fill="none" stroke="#000000" points="70.5,-168 70.5,-186 83.5,-186 83.5,-168 70.5,-168"/>
<text text-anchor="start" x="73.5" y="-174.2" font-family="Helvetica,sans-Serif" font-size="11.00" fill="#000000"> &#160;</text>
<polygon fill="#ffffff" stroke="transparent" points="83.5,-168 83.5,-186 155.5,-186 155.5,-168 83.5,-168"/>
<polygon fill="none" stroke="#000000" points="83.5,-168 83.5,-186 155.5,-186 155.5,-168 83.5,-168"/>
<text text-anchor="start" x="86.5" y="-174.2" font-family="Helvetica,sans-Serif" font-size="11.00" fill="#000000">327,795 rows</text>
<polygon fill="#ffffff" stroke="transparent" points="155.5,-168 155.5,-186 177.5,-186 177.5,-168 155.5,-168"/>
<polygon fill="none" stroke="#000000" points="155.5,-168 155.5,-186 177.5,-186 177.5,-168 155.5,-168"/>
<text text-anchor="start" x="158.5" y="-174.2" font-family="Helvetica,sans-Serif" font-size="11.00" fill="#000000">2 &gt;</text>
</a>
</g>
</g>
<!-- qwb_variant&#45;&gt;qwb_word -->
<g id="edge2" class="edge">
<title>qwb_variant:w&#45;&gt;qwb_word:e</title>
<path fill="none" stroke="#000000" d="M273.4325,-164.9278C234.7804,-170.0858 223.2271,-195 177.5,-195"/>
<polygon fill="#000000" stroke="#000000" points="280.0162,-164.5085 288.2288,-167.5927 284.0081,-164.2543 288,-164 288,-164 288,-164 284.0081,-164.2543 287.7712,-160.4073 280.0162,-164.5085 280.0162,-164.5085"/>
<ellipse fill="none" stroke="#000000" cx="276.8226" cy="-164.7119" rx="3.2" ry="3.2"/>
</g>
</g>
</svg>
