<?xml version="1.0" encoding="UTF-8" standalone="no"?>
<!DOCTYPE svg PUBLIC "-//W3C//DTD SVG 1.1//EN"
 "http://www.w3.org/Graphics/SVG/1.1/DTD/svg11.dtd">
<!-- Generated by graphviz version 2.40.1 (20161225.0304)
 -->
<!-- Title: oneDegreeRelationshipsDiagram Pages: 1 -->
<svg width="421pt" height="163pt"
 viewBox="0.00 0.00 421.00 163.00" xmlns="http://www.w3.org/2000/svg" xmlns:xlink="http://www.w3.org/1999/xlink">
<g id="graph0" class="graph" transform="scale(1 1) rotate(0) translate(4 159)">
<title>oneDegreeRelationshipsDiagram</title>
<polygon fill="#ffffff" stroke="transparent" points="-4,4 -4,-159 417,-159 417,4 -4,4"/>
<text text-anchor="middle" x="71.5" y="-7.2" font-family="Helvetica,sans-Serif" font-size="11.00" fill="#000000">Generated by SchemaSpy</text>
<!-- recent_edition_catalog_to_col_confirmation -->
<g id="node1" class="node">
<title>recent_edition_catalog_to_col_confirmation</title>
<g id="a_node1"><a xlink:href="../../tables/recent_edition_catalog_to_col_confirmation.html" xlink:title="recent_edition_catalog_to_col_confirmation" target="_top">
<polygon fill="#ffffff" stroke="transparent" points="8,-37 8,-151 405,-151 405,-37 8,-37"/>
<polygon fill="#f5f5f5" stroke="transparent" points="10.5,-127 10.5,-149 403.5,-149 403.5,-127 10.5,-127"/>
<polygon fill="none" stroke="#000000" points="10.5,-127 10.5,-149 403.5,-149 403.5,-127 10.5,-127"/>
<text text-anchor="start" x="15.5" y="-136.2" font-family="Helvetica,sans-Serif" font-weight="bold" font-size="11.00" fill="#000000">recent_edition_catalog_to_col_confirmation</text>
<text text-anchor="start" x="370.5" y="-135.2" font-family="Helvetica,sans-Serif" font-size="11.00" fill="#000000">[view]</text>
<polygon fill="none" stroke="#000000" points="10.5,-105 10.5,-127 321.5,-127 321.5,-105 10.5,-105"/>
<text text-anchor="start" x="30.5" y="-113.2" font-family="Helvetica,sans-Serif" font-size="11.00" fill="#000000">iaa_edition_catalog_to_text_fragment_id</text>
<polygon fill="none" stroke="#000000" points="321.5,-105 321.5,-127 403.5,-127 403.5,-105 321.5,-105"/>
<text text-anchor="start" x="324.5" y="-113.2" font-family="Helvetica,sans-Serif" font-size="11.00" fill="#000000">int unsigned[10]</text>
<polygon fill="none" stroke="#000000" points="10.5,-83 10.5,-105 321.5,-105 321.5,-83 10.5,-83"/>
<text text-anchor="start" x="30.5" y="-91.2" font-family="Helvetica,sans-Serif" font-size="11.00" fill="#000000">confirmed</text>
<polygon fill="none" stroke="#000000" points="321.5,-83 321.5,-105 403.5,-105 403.5,-83 321.5,-83"/>
<text text-anchor="start" x="324.5" y="-91.2" font-family="Helvetica,sans-Serif" font-size="11.00" fill="#000000">bit[3]</text>
<polygon fill="none" stroke="#000000" points="10.5,-61 10.5,-83 321.5,-83 321.5,-61 10.5,-61"/>
<image xlink:href="../../images/foreignKeys.png" width="11px" height="12px" preserveAspectRatio="xMinYMin meet" x="15.5" y="-78"/>
<text text-anchor="start" x="30.5" y="-69.2" font-family="Helvetica,sans-Serif" font-size="11.00" fill="#000000">user_id</text>
<polygon fill="none" stroke="#000000" points="321.5,-61 321.5,-83 403.5,-83 403.5,-61 321.5,-61"/>
<text text-anchor="start" x="324.5" y="-69.2" font-family="Helvetica,sans-Serif" font-size="11.00" fill="#000000">int unsigned[10]</text>
<polygon fill="none" stroke="#000000" points="10.5,-39 10.5,-61 321.5,-61 321.5,-39 10.5,-39"/>
<text text-anchor="start" x="30.5" y="-47.2" font-family="Helvetica,sans-Serif" font-size="11.00" fill="#000000">MAX(`time`)</text>
<polygon fill="none" stroke="#000000" points="321.5,-39 321.5,-61 403.5,-61 403.5,-39 321.5,-39"/>
<text text-anchor="start" x="324.5" y="-47.2" font-family="Helvetica,sans-Serif" font-size="11.00" fill="#000000">datetime[19]</text>
<polygon fill="none" stroke="#000000" stroke-width="2" points="9,-38 9,-150 404,-150 404,-38 9,-38"/>
</a>
</g>
</g>
</g>
</svg>
