<?xml version="1.0" encoding="UTF-8" standalone="no"?>
<!DOCTYPE svg PUBLIC "-//W3C//DTD SVG 1.1//EN"
 "http://www.w3.org/Graphics/SVG/1.1/DTD/svg11.dtd">
<!-- Generated by graphviz version 2.43.0 (0)
 -->
<!-- Title: oneDegreeRelationshipsDiagram Pages: 1 -->
<svg width="436pt" height="163pt"
 viewBox="0.00 0.00 436.00 163.00" xmlns="http://www.w3.org/2000/svg" xmlns:xlink="http://www.w3.org/1999/xlink">
<g id="graph0" class="graph" transform="scale(1 1) rotate(0) translate(4 159)">
<title>oneDegreeRelationshipsDiagram</title>
<polygon fill="#ffffff" stroke="transparent" points="-4,4 -4,-159 432,-159 432,4 -4,4"/>
<text text-anchor="middle" x="79.5" y="-7.2" font-family="Helvetica,sans-Serif" font-size="11.00">Generated by SchemaSpy</text>
<!-- recent_edition_catalog_to_col_confirmation -->
<g id="node1" class="node">
<title>recent_edition_catalog_to_col_confirmation</title>
<g id="a_node1"><a xlink:href="../../tables/recent_edition_catalog_to_col_confirmation.html" xlink:title="recent_edition_catalog_to_col_confirmation" target="_top">
<polygon fill="#ffffff" stroke="transparent" points="8,-37 8,-151 420,-151 420,-37 8,-37"/>
<polygon fill="#f5f5f5" stroke="transparent" points="10,-127 10,-149 418,-149 418,-127 10,-127"/>
<polygon fill="none" stroke="black" points="10,-127 10,-149 418,-149 418,-127 10,-127"/>
<text text-anchor="start" x="15" y="-136.2" font-family="Helvetica,sans-Serif" font-weight="bold" font-size="11.00">recent_edition_catalog_to_col_confirmation</text>
<text text-anchor="start" x="378" y="-135.2" font-family="Helvetica,sans-Serif" font-size="11.00">[view]</text>
<polygon fill="none" stroke="black" points="10,-105 10,-127 321,-127 321,-105 10,-105"/>
<text text-anchor="start" x="30" y="-113.2" font-family="Helvetica,sans-Serif" font-size="11.00">iaa_edition_catalog_to_text_fragment_id</text>
<polygon fill="none" stroke="black" points="321,-105 321,-127 418,-127 418,-105 321,-105"/>
<text text-anchor="start" x="324" y="-113.2" font-family="Helvetica,sans-Serif" font-size="11.00">int unsigned[10]</text>
<polygon fill="none" stroke="black" points="10,-83 10,-105 321,-105 321,-83 10,-83"/>
<text text-anchor="start" x="30" y="-91.2" font-family="Helvetica,sans-Serif" font-size="11.00">confirmed</text>
<polygon fill="none" stroke="black" points="321,-83 321,-105 418,-105 418,-83 321,-83"/>
<text text-anchor="start" x="324" y="-91.2" font-family="Helvetica,sans-Serif" font-size="11.00">bit[3]</text>
<polygon fill="none" stroke="black" points="10,-61 10,-83 321,-83 321,-61 10,-61"/>
<image xlink:href="../../images/foreignKeys.png" width="11px" height="12px" preserveAspectRatio="xMinYMin meet" x="15" y="-78"/>
<text text-anchor="start" x="30" y="-69.2" font-family="Helvetica,sans-Serif" font-size="11.00">user_id</text>
<polygon fill="none" stroke="black" points="321,-61 321,-83 418,-83 418,-61 321,-61"/>
<text text-anchor="start" x="324" y="-69.2" font-family="Helvetica,sans-Serif" font-size="11.00">int unsigned[10]</text>
<polygon fill="none" stroke="black" points="10,-39 10,-61 321,-61 321,-39 10,-39"/>
<text text-anchor="start" x="30" y="-47.2" font-family="Helvetica,sans-Serif" font-size="11.00">MAX(`time`)</text>
<polygon fill="none" stroke="black" points="321,-39 321,-61 418,-61 418,-39 321,-39"/>
<text text-anchor="start" x="324" y="-47.2" font-family="Helvetica,sans-Serif" font-size="11.00">datetime[19]</text>
<polygon fill="none" stroke="black" stroke-width="2" points="9,-38 9,-150 419,-150 419,-38 9,-38"/>
</a>
</g>
</g>
</g>
</svg>
