<?xml version="1.0" encoding="UTF-8" standalone="no"?>
<!DOCTYPE svg PUBLIC "-//W3C//DTD SVG 1.1//EN"
 "http://www.w3.org/Graphics/SVG/1.1/DTD/svg11.dtd">
<!-- Generated by graphviz version 2.40.1 (20161225.0304)
 -->
<!-- Title: oneDegreeRelationshipsDiagram Pages: 1 -->
<svg width="647pt" height="267pt"
 viewBox="0.00 0.00 647.00 267.00" xmlns="http://www.w3.org/2000/svg" xmlns:xlink="http://www.w3.org/1999/xlink">
<g id="graph0" class="graph" transform="scale(1 1) rotate(0) translate(4 263)">
<title>oneDegreeRelationshipsDiagram</title>
<polygon fill="#ffffff" stroke="transparent" points="-4,4 -4,-263 643,-263 643,4 -4,4"/>
<text text-anchor="middle" x="71.5" y="-7.2" font-family="Helvetica,sans-Serif" font-size="11.00" fill="#000000">Generated by SchemaSpy</text>
<!-- roi_position -->
<g id="node1" class="node">
<title>roi_position</title>
<g id="a_node1"><a xlink:href="../../tables/roi_position.html" xlink:title="roi_position" target="_top">
<polygon fill="#ffffff" stroke="transparent" points="158,-37 158,-191 389,-191 389,-37 158,-37"/>
<polygon fill="#f5f5f5" stroke="transparent" points="160.5,-167 160.5,-189 387.5,-189 387.5,-167 160.5,-167"/>
<polygon fill="none" stroke="#000000" points="160.5,-167 160.5,-189 387.5,-189 387.5,-167 160.5,-167"/>
<text text-anchor="start" x="165.5" y="-176.2" font-family="Helvetica,sans-Serif" font-weight="bold" font-size="11.00" fill="#000000">roi_position</text>
<text text-anchor="start" x="352.5" y="-175.2" font-family="Helvetica,sans-Serif" font-size="11.00" fill="#000000">[table]</text>
<polygon fill="none" stroke="#000000" points="160.5,-145 160.5,-167 286.5,-167 286.5,-145 160.5,-145"/>
<image xlink:href="../../images/primaryKeys.png" width="11px" height="12px" preserveAspectRatio="xMinYMin meet" x="165.5" y="-162"/>
<text text-anchor="start" x="180.5" y="-153.2" font-family="Helvetica,sans-Serif" font-size="11.00" fill="#000000">roi_position_id</text>
<polygon fill="none" stroke="#000000" points="286.5,-145 286.5,-167 387.5,-167 387.5,-145 286.5,-145"/>
<text text-anchor="start" x="289.5" y="-153.2" font-family="Helvetica,sans-Serif" font-size="11.00" fill="#000000">int unsigned[10]</text>
<polygon fill="#ffffff" stroke="transparent" points="160.5,-123 160.5,-145 286.5,-145 286.5,-123 160.5,-123"/>
<polygon fill="none" stroke="#000000" points="160.5,-123 160.5,-145 286.5,-145 286.5,-123 160.5,-123"/>
<image xlink:href="../../images/foreignKeys.png" width="11px" height="12px" preserveAspectRatio="xMinYMin meet" x="165.5" y="-140"/>
<text text-anchor="start" x="180.5" y="-131.2" font-family="Helvetica,sans-Serif" font-size="11.00" fill="#000000">artefact_id</text>
<polygon fill="none" stroke="#000000" points="286.5,-123 286.5,-145 387.5,-145 387.5,-123 286.5,-123"/>
<text text-anchor="start" x="289.5" y="-131.2" font-family="Helvetica,sans-Serif" font-size="11.00" fill="#000000">int unsigned[10]</text>
<polygon fill="none" stroke="#000000" points="160.5,-101 160.5,-123 286.5,-123 286.5,-101 160.5,-101"/>
<text text-anchor="start" x="180.5" y="-109.2" font-family="Helvetica,sans-Serif" font-size="11.00" fill="#000000">translate_x</text>
<polygon fill="none" stroke="#000000" points="286.5,-101 286.5,-123 387.5,-123 387.5,-101 286.5,-101"/>
<text text-anchor="start" x="289.5" y="-109.2" font-family="Helvetica,sans-Serif" font-size="11.00" fill="#000000">int[10]</text>
<polygon fill="none" stroke="#000000" points="160.5,-79 160.5,-101 286.5,-101 286.5,-79 160.5,-79"/>
<text text-anchor="start" x="180.5" y="-87.2" font-family="Helvetica,sans-Serif" font-size="11.00" fill="#000000">translate_y</text>
<polygon fill="none" stroke="#000000" points="286.5,-79 286.5,-101 387.5,-101 387.5,-79 286.5,-79"/>
<text text-anchor="start" x="289.5" y="-87.2" font-family="Helvetica,sans-Serif" font-size="11.00" fill="#000000">int[10]</text>
<polygon fill="none" stroke="#000000" points="160.5,-57 160.5,-79 286.5,-79 286.5,-57 160.5,-57"/>
<text text-anchor="start" x="180.5" y="-65.2" font-family="Helvetica,sans-Serif" font-size="11.00" fill="#000000">stance_rotation</text>
<polygon fill="none" stroke="#000000" points="286.5,-57 286.5,-79 387.5,-79 387.5,-57 286.5,-57"/>
<text text-anchor="start" x="289.5" y="-65.2" font-family="Helvetica,sans-Serif" font-size="11.00" fill="#000000">smallint unsigned[5]</text>
<polygon fill="#ffffff" stroke="transparent" points="160.5,-39 160.5,-57 214.5,-57 214.5,-39 160.5,-39"/>
<polygon fill="none" stroke="#000000" points="160.5,-39 160.5,-57 214.5,-57 214.5,-39 160.5,-39"/>
<text text-anchor="start" x="163.5" y="-45.2" font-family="Helvetica,sans-Serif" font-size="11.00" fill="#000000">&lt; 1</text>
<polygon fill="#ffffff" stroke="transparent" points="214.5,-39 214.5,-57 286.5,-57 286.5,-39 214.5,-39"/>
<polygon fill="none" stroke="#000000" points="214.5,-39 214.5,-57 286.5,-57 286.5,-39 214.5,-39"/>
<text text-anchor="start" x="250.5" y="-45.2" font-family="Helvetica,sans-Serif" font-size="11.00" fill="#000000">0 rows</text>
<polygon fill="#ffffff" stroke="transparent" points="286.5,-39 286.5,-57 387.5,-57 387.5,-39 286.5,-39"/>
<polygon fill="none" stroke="#000000" points="286.5,-39 286.5,-57 387.5,-57 387.5,-39 286.5,-39"/>
<text text-anchor="start" x="368.5" y="-45.2" font-family="Helvetica,sans-Serif" font-size="11.00" fill="#000000">1 &gt;</text>
<polygon fill="none" stroke="#000000" stroke-width="2" points="159,-38 159,-190 388,-190 388,-38 159,-38"/>
</a>
</g>
</g>
<!-- artefact -->
<g id="node2" class="node">
<title>artefact</title>
<g id="a_node2"><a xlink:href="../../tables/artefact.html" xlink:title="artefact" target="_top">
<polygon fill="#ffffff" stroke="transparent" points="8,-105 8,-167 109,-167 109,-105 8,-105"/>
<polygon fill="#f5f5f5" stroke="transparent" points="8.5,-145 8.5,-167 109.5,-167 109.5,-145 8.5,-145"/>
<polygon fill="none" stroke="#000000" points="8.5,-145 8.5,-167 109.5,-167 109.5,-145 8.5,-145"/>
<text text-anchor="start" x="13.5" y="-154.2" font-family="Helvetica,sans-Serif" font-weight="bold" font-size="11.00" fill="#000000">artefact</text>
<text text-anchor="start" x="74.5" y="-153.2" font-family="Helvetica,sans-Serif" font-size="11.00" fill="#000000">[table]</text>
<polygon fill="none" stroke="#000000" points="8.5,-123 8.5,-145 109.5,-145 109.5,-123 8.5,-123"/>
<image xlink:href="../../images/primaryKeys.png" width="11px" height="12px" preserveAspectRatio="xMinYMin meet" x="13.5" y="-140"/>
<text text-anchor="start" x="32.5" y="-131.2" font-family="Helvetica,sans-Serif" font-size="11.00" fill="#000000">artefact_id</text>
<polygon fill="#ffffff" stroke="transparent" points="8.5,-105 8.5,-123 21.5,-123 21.5,-105 8.5,-105"/>
<polygon fill="none" stroke="#000000" points="8.5,-105 8.5,-123 21.5,-123 21.5,-105 8.5,-105"/>
<text text-anchor="start" x="11.5" y="-111.2" font-family="Helvetica,sans-Serif" font-size="11.00" fill="#000000"> &#160;</text>
<polygon fill="#ffffff" stroke="transparent" points="21.5,-105 21.5,-123 87.5,-123 87.5,-105 21.5,-105"/>
<polygon fill="none" stroke="#000000" points="21.5,-105 21.5,-123 87.5,-123 87.5,-105 21.5,-105"/>
<text text-anchor="start" x="24.5" y="-111.2" font-family="Helvetica,sans-Serif" font-size="11.00" fill="#000000">26,982 rows</text>
<polygon fill="#ffffff" stroke="transparent" points="87.5,-105 87.5,-123 109.5,-123 109.5,-105 87.5,-105"/>
<polygon fill="none" stroke="#000000" points="87.5,-105 87.5,-123 109.5,-123 109.5,-105 87.5,-105"/>
<text text-anchor="start" x="90.5" y="-111.2" font-family="Helvetica,sans-Serif" font-size="11.00" fill="#000000">8 &gt;</text>
</a>
</g>
</g>
<!-- roi_position&#45;&gt;artefact -->
<g id="edge1" class="edge">
<title>roi_position:w&#45;&gt;artefact:e</title>
<path fill="none" stroke="#000000" d="M145.776,-134C133.7815,-134 126.3229,-134 109.5,-134"/>
<polygon fill="#000000" stroke="#000000" points="152.5,-134.0001 160.5,-137.6 156.5,-134 160.5,-134 160.5,-134 160.5,-134 156.5,-134 160.5,-130.4 152.5,-134.0001 152.5,-134.0001"/>
<ellipse fill="none" stroke="#000000" cx="149.3" cy="-134.0001" rx="3.2" ry="3.2"/>
</g>
<!-- sign_interpretation_roi -->
<g id="node3" class="node">
<title>sign_interpretation_roi</title>
<g id="a_node3"><a xlink:href="../../tables/sign_interpretation_roi.html" xlink:title="sign_interpretation_roi" target="_top">
<polygon fill="#ffffff" stroke="transparent" points="438,-87 438,-255 631,-255 631,-87 438,-87"/>
<polygon fill="#f5f5f5" stroke="transparent" points="438.5,-233 438.5,-255 631.5,-255 631.5,-233 438.5,-233"/>
<polygon fill="none" stroke="#000000" points="438.5,-233 438.5,-255 631.5,-255 631.5,-233 438.5,-233"/>
<text text-anchor="start" x="443.5" y="-242.2" font-family="Helvetica,sans-Serif" font-weight="bold" font-size="11.00" fill="#000000">sign_interpretation_roi</text>
<text text-anchor="start" x="596.5" y="-241.2" font-family="Helvetica,sans-Serif" font-size="11.00" fill="#000000">[table]</text>
<polygon fill="none" stroke="#000000" points="438.5,-211 438.5,-233 631.5,-233 631.5,-211 438.5,-211"/>
<image xlink:href="../../images/primaryKeys.png" width="11px" height="12px" preserveAspectRatio="xMinYMin meet" x="443.5" y="-228"/>
<text text-anchor="start" x="458.5" y="-219.2" font-family="Helvetica,sans-Serif" font-size="11.00" fill="#000000">sign_interpretation_roi_id</text>
<polygon fill="#ffffff" stroke="transparent" points="438.5,-189 438.5,-211 631.5,-211 631.5,-189 438.5,-189"/>
<polygon fill="none" stroke="#000000" points="438.5,-189 438.5,-211 631.5,-211 631.5,-189 438.5,-189"/>
<image xlink:href="../../images/foreignKeys.png" width="11px" height="12px" preserveAspectRatio="xMinYMin meet" x="443.5" y="-206"/>
<text text-anchor="start" x="458.5" y="-197.2" font-family="Helvetica,sans-Serif" font-size="11.00" fill="#000000">sign_interpretation_id</text>
<polygon fill="#ffffff" stroke="transparent" points="438.5,-167 438.5,-189 631.5,-189 631.5,-167 438.5,-167"/>
<polygon fill="none" stroke="#000000" points="438.5,-167 438.5,-189 631.5,-189 631.5,-167 438.5,-167"/>
<image xlink:href="../../images/foreignKeys.png" width="11px" height="12px" preserveAspectRatio="xMinYMin meet" x="443.5" y="-184"/>
<text text-anchor="start" x="458.5" y="-175.2" font-family="Helvetica,sans-Serif" font-size="11.00" fill="#000000">roi_shape_id</text>
<polygon fill="#ffffff" stroke="transparent" points="438.5,-145 438.5,-167 631.5,-167 631.5,-145 438.5,-145"/>
<polygon fill="none" stroke="#000000" points="438.5,-145 438.5,-167 631.5,-167 631.5,-145 438.5,-145"/>
<image xlink:href="../../images/foreignKeys.png" width="11px" height="12px" preserveAspectRatio="xMinYMin meet" x="443.5" y="-162"/>
<text text-anchor="start" x="458.5" y="-153.2" font-family="Helvetica,sans-Serif" font-size="11.00" fill="#000000">roi_position_id</text>
<polygon fill="#ffffff" stroke="transparent" points="438.5,-123 438.5,-145 631.5,-145 631.5,-123 438.5,-123"/>
<polygon fill="none" stroke="#000000" points="438.5,-123 438.5,-145 631.5,-145 631.5,-123 438.5,-123"/>
<image xlink:href="../../images/foreignKeys.png" width="11px" height="12px" preserveAspectRatio="xMinYMin meet" x="443.5" y="-140"/>
<text text-anchor="start" x="458.5" y="-131.2" font-family="Helvetica,sans-Serif" font-size="11.00" fill="#000000">creator_id</text>
<polygon fill="none" stroke="#000000" points="438.5,-105 438.5,-123 631.5,-123 631.5,-105 438.5,-105"/>
<text text-anchor="start" x="441.5" y="-111.2" font-family="Helvetica,sans-Serif" font-size="11.00" fill="#000000">...</text>
<polygon fill="#ffffff" stroke="transparent" points="438.5,-87 438.5,-105 515.5,-105 515.5,-87 438.5,-87"/>
<polygon fill="none" stroke="#000000" points="438.5,-87 438.5,-105 515.5,-105 515.5,-87 438.5,-87"/>
<text text-anchor="start" x="441.5" y="-93.2" font-family="Helvetica,sans-Serif" font-size="11.00" fill="#000000">&lt; 4</text>
<polygon fill="#ffffff" stroke="transparent" points="515.5,-87 515.5,-105 581.5,-105 581.5,-87 515.5,-87"/>
<polygon fill="none" stroke="#000000" points="515.5,-87 515.5,-105 581.5,-105 581.5,-87 515.5,-87"/>
<text text-anchor="start" x="545.5" y="-93.2" font-family="Helvetica,sans-Serif" font-size="11.00" fill="#000000">0 rows</text>
<polygon fill="#ffffff" stroke="transparent" points="581.5,-87 581.5,-105 631.5,-105 631.5,-87 581.5,-87"/>
<polygon fill="none" stroke="#000000" points="581.5,-87 581.5,-105 631.5,-105 631.5,-87 581.5,-87"/>
<text text-anchor="start" x="612.5" y="-93.2" font-family="Helvetica,sans-Serif" font-size="11.00" fill="#000000">1 &gt;</text>
</a>
</g>
</g>
<!-- sign_interpretation_roi&#45;&gt;roi_position -->
<g id="edge2" class="edge">
<title>sign_interpretation_roi:w&#45;&gt;roi_position:e</title>
<path fill="none" stroke="#000000" d="M423.776,-156C411.7815,-156 404.3229,-156 387.5,-156"/>
<polygon fill="#000000" stroke="#000000" points="430.5,-156.0001 438.5,-159.6 434.5,-156 438.5,-156 438.5,-156 438.5,-156 434.5,-156 438.5,-152.4 430.5,-156.0001 430.5,-156.0001"/>
<ellipse fill="none" stroke="#000000" cx="427.3" cy="-156.0001" rx="3.2" ry="3.2"/>
</g>
</g>
</svg>
