<?xml version="1.0" encoding="UTF-8" standalone="no"?>
<!DOCTYPE svg PUBLIC "-//W3C//DTD SVG 1.1//EN"
 "http://www.w3.org/Graphics/SVG/1.1/DTD/svg11.dtd">
<!-- Generated by graphviz version 2.43.0 (0)
 -->
<!-- Title: twoDegreesRelationshipsDiagram Pages: 1 -->
<svg width="754pt" height="295pt"
 viewBox="0.00 0.00 754.00 295.00" xmlns="http://www.w3.org/2000/svg" xmlns:xlink="http://www.w3.org/1999/xlink">
<g id="graph0" class="graph" transform="scale(1 1) rotate(0) translate(4 291)">
<title>twoDegreesRelationshipsDiagram</title>
<polygon fill="#ffffff" stroke="transparent" points="-4,4 -4,-291 750,-291 750,4 -4,4"/>
<text text-anchor="middle" x="79.5" y="-7.2" font-family="Helvetica,sans-Serif" font-size="11.00">Generated by SchemaSpy</text>
<!-- sign_interpretation_roi -->
<g id="node1" class="node">
<title>sign_interpretation_roi</title>
<g id="a_node1"><a xlink:href="../../tables/sign_interpretation_roi.html" xlink:title="sign_interpretation_roi" target="_top">
<polygon fill="#ffffff" stroke="transparent" points="262,-100 262,-246 455,-246 455,-100 262,-100"/>
<polygon fill="#f5f5f5" stroke="transparent" points="262.5,-224 262.5,-246 455.5,-246 455.5,-224 262.5,-224"/>
<polygon fill="none" stroke="black" points="262.5,-224 262.5,-246 455.5,-246 455.5,-224 262.5,-224"/>
<text text-anchor="start" x="267.5" y="-233.2" font-family="Helvetica,sans-Serif" font-weight="bold" font-size="11.00">sign_interpretation_roi</text>
<text text-anchor="start" x="413.5" y="-232.2" font-family="Helvetica,sans-Serif" font-size="11.00">[table]</text>
<polygon fill="none" stroke="black" points="262.5,-202 262.5,-224 455.5,-224 455.5,-202 262.5,-202"/>
<image xlink:href="../../images/primaryKeys.png" width="11px" height="12px" preserveAspectRatio="xMinYMin meet" x="267.5" y="-219"/>
<text text-anchor="start" x="282.5" y="-210.2" font-family="Helvetica,sans-Serif" font-size="11.00">sign_interpretation_roi_id</text>
<polygon fill="#ffffff" stroke="transparent" points="262.5,-180 262.5,-202 455.5,-202 455.5,-180 262.5,-180"/>
<polygon fill="none" stroke="black" points="262.5,-180 262.5,-202 455.5,-202 455.5,-180 262.5,-180"/>
<image xlink:href="../../images/foreignKeys.png" width="11px" height="12px" preserveAspectRatio="xMinYMin meet" x="267.5" y="-197"/>
<text text-anchor="start" x="282.5" y="-188.2" font-family="Helvetica,sans-Serif" font-size="11.00">sign_interpretation_id</text>
<polygon fill="#ffffff" stroke="transparent" points="262.5,-158 262.5,-180 455.5,-180 455.5,-158 262.5,-158"/>
<polygon fill="none" stroke="black" points="262.5,-158 262.5,-180 455.5,-180 455.5,-158 262.5,-158"/>
<image xlink:href="../../images/foreignKeys.png" width="11px" height="12px" preserveAspectRatio="xMinYMin meet" x="267.5" y="-175"/>
<text text-anchor="start" x="282.5" y="-166.2" font-family="Helvetica,sans-Serif" font-size="11.00">roi_shape_id</text>
<polygon fill="#ffffff" stroke="transparent" points="262.5,-136 262.5,-158 455.5,-158 455.5,-136 262.5,-136"/>
<polygon fill="none" stroke="black" points="262.5,-136 262.5,-158 455.5,-158 455.5,-136 262.5,-136"/>
<image xlink:href="../../images/foreignKeys.png" width="11px" height="12px" preserveAspectRatio="xMinYMin meet" x="267.5" y="-153"/>
<text text-anchor="start" x="282.5" y="-144.2" font-family="Helvetica,sans-Serif" font-size="11.00">roi_position_id</text>
<polygon fill="none" stroke="black" points="262.5,-118 262.5,-136 455.5,-136 455.5,-118 262.5,-118"/>
<text text-anchor="start" x="265.5" y="-124.2" font-family="Helvetica,sans-Serif" font-size="11.00">...</text>
<polygon fill="#ffffff" stroke="transparent" points="262.5,-100 262.5,-118 337.5,-118 337.5,-100 262.5,-100"/>
<polygon fill="none" stroke="black" points="262.5,-100 262.5,-118 337.5,-118 337.5,-100 262.5,-100"/>
<text text-anchor="start" x="265.5" y="-106.2" font-family="Helvetica,sans-Serif" font-size="11.00">&lt; 3</text>
<polygon fill="#ffffff" stroke="transparent" points="337.5,-100 337.5,-118 404.5,-118 404.5,-100 337.5,-100"/>
<polygon fill="none" stroke="black" points="337.5,-100 337.5,-118 404.5,-118 404.5,-100 337.5,-100"/>
<text text-anchor="start" x="364.5" y="-106.2" font-family="Helvetica,sans-Serif" font-size="11.00">0 rows</text>
<polygon fill="#ffffff" stroke="transparent" points="404.5,-100 404.5,-118 455.5,-118 455.5,-100 404.5,-100"/>
<polygon fill="none" stroke="black" points="404.5,-100 404.5,-118 455.5,-118 455.5,-100 404.5,-100"/>
<text text-anchor="start" x="432.5" y="-106.2" font-family="Helvetica,sans-Serif" font-size="11.00">1 &gt;</text>
</a>
</g>
</g>
<!-- roi_position -->
<g id="node2" class="node">
<title>roi_position</title>
<g id="a_node2"><a xlink:href="../../tables/roi_position.html" xlink:title="roi_position" target="_top">
<polygon fill="#ffffff" stroke="transparent" points="49,-37 49,-95 172,-95 172,-37 49,-37"/>
<polygon fill="#f5f5f5" stroke="transparent" points="49.5,-73 49.5,-95 172.5,-95 172.5,-73 49.5,-73"/>
<polygon fill="none" stroke="black" points="49.5,-73 49.5,-95 172.5,-95 172.5,-73 49.5,-73"/>
<text text-anchor="start" x="54.5" y="-82.2" font-family="Helvetica,sans-Serif" font-weight="bold" font-size="11.00">roi_position</text>
<text text-anchor="start" x="130.5" y="-81.2" font-family="Helvetica,sans-Serif" font-size="11.00">[table]</text>
<polygon fill="none" stroke="black" points="49.5,-55 49.5,-73 172.5,-73 172.5,-55 49.5,-55"/>
<text text-anchor="start" x="52.5" y="-61.2" font-family="Helvetica,sans-Serif" font-size="11.00">...</text>
<polygon fill="#ffffff" stroke="transparent" points="49.5,-37 49.5,-55 89.5,-55 89.5,-37 49.5,-37"/>
<polygon fill="none" stroke="black" points="49.5,-37 49.5,-55 89.5,-55 89.5,-37 49.5,-37"/>
<text text-anchor="start" x="52.5" y="-43.2" font-family="Helvetica,sans-Serif" font-size="11.00">&lt; 1</text>
<polygon fill="#ffffff" stroke="transparent" points="89.5,-37 89.5,-55 139.5,-55 139.5,-37 89.5,-37"/>
<polygon fill="none" stroke="black" points="89.5,-37 89.5,-55 139.5,-55 139.5,-37 89.5,-37"/>
<text text-anchor="start" x="99.5" y="-43.2" font-family="Helvetica,sans-Serif" font-size="11.00">0 rows</text>
<polygon fill="#ffffff" stroke="transparent" points="139.5,-37 139.5,-55 172.5,-55 172.5,-37 139.5,-37"/>
<polygon fill="none" stroke="black" points="139.5,-37 139.5,-55 172.5,-55 172.5,-37 139.5,-37"/>
<text text-anchor="start" x="149.5" y="-43.2" font-family="Helvetica,sans-Serif" font-size="11.00">1 &gt;</text>
</a>
</g>
</g>
<!-- sign_interpretation_roi&#45;&gt;roi_position -->
<g id="edge1" class="edge">
<title>sign_interpretation_roi:w&#45;&gt;roi_position:e</title>
<path fill="none" stroke="black" d="M247.22,-143.18C236.28,-135.66 235.27,-118.51 221,-105 200.74,-85.83 201.39,-64 173.5,-64"/>
<polygon fill="black" stroke="black" points="253.77,-144.93 260.57,-150.48 257.64,-145.97 261.5,-147 261.5,-147 261.5,-147 257.64,-145.97 262.43,-143.52 253.77,-144.93 253.77,-144.93"/>
<ellipse fill="none" stroke="black" cx="250.68" cy="-144.11" rx="3.2" ry="3.2"/>
</g>
<!-- roi_shape -->
<g id="node3" class="node">
<title>roi_shape</title>
<g id="a_node3"><a xlink:href="../../tables/roi_shape.html" xlink:title="roi_shape" target="_top">
<polygon fill="#ffffff" stroke="transparent" points="8,-116 8,-204 213,-204 213,-116 8,-116"/>
<polygon fill="#f5f5f5" stroke="transparent" points="10.5,-180 10.5,-202 211.5,-202 211.5,-180 10.5,-180"/>
<polygon fill="none" stroke="black" points="10.5,-180 10.5,-202 211.5,-202 211.5,-180 10.5,-180"/>
<text text-anchor="start" x="15.5" y="-189.2" font-family="Helvetica,sans-Serif" font-weight="bold" font-size="11.00">roi_shape</text>
<text text-anchor="start" x="169.5" y="-188.2" font-family="Helvetica,sans-Serif" font-size="11.00">[table]</text>
<polygon fill="none" stroke="black" points="10.5,-158 10.5,-180 114.5,-180 114.5,-158 10.5,-158"/>
<image xlink:href="../../images/primaryKeys.png" width="11px" height="12px" preserveAspectRatio="xMinYMin meet" x="15.5" y="-175"/>
<text text-anchor="start" x="30.5" y="-166.2" font-family="Helvetica,sans-Serif" font-size="11.00">roi_shape_id</text>
<polygon fill="none" stroke="black" points="114.5,-158 114.5,-180 211.5,-180 211.5,-158 114.5,-158"/>
<text text-anchor="start" x="117.5" y="-166.2" font-family="Helvetica,sans-Serif" font-size="11.00">int unsigned[10]</text>
<polygon fill="none" stroke="black" points="10.5,-136 10.5,-158 114.5,-158 114.5,-136 10.5,-136"/>
<text text-anchor="start" x="30.5" y="-144.2" font-family="Helvetica,sans-Serif" font-size="11.00">path</text>
<polygon fill="none" stroke="black" points="114.5,-136 114.5,-158 211.5,-158 211.5,-136 114.5,-136"/>
<text text-anchor="start" x="117.5" y="-144.2" font-family="Helvetica,sans-Serif" font-size="11.00">geometry[0]</text>
<polygon fill="#ffffff" stroke="transparent" points="10.5,-118 10.5,-136 53.5,-136 53.5,-118 10.5,-118"/>
<polygon fill="none" stroke="black" points="10.5,-118 10.5,-136 53.5,-136 53.5,-118 10.5,-118"/>
<text text-anchor="start" x="13.5" y="-124.2" font-family="Helvetica,sans-Serif" font-size="11.00">&lt; 0</text>
<polygon fill="#ffffff" stroke="transparent" points="53.5,-118 53.5,-136 114.5,-136 114.5,-118 53.5,-118"/>
<polygon fill="none" stroke="black" points="53.5,-118 53.5,-136 114.5,-136 114.5,-118 53.5,-118"/>
<text text-anchor="start" x="74.5" y="-124.2" font-family="Helvetica,sans-Serif" font-size="11.00">0 rows</text>
<polygon fill="#ffffff" stroke="transparent" points="114.5,-118 114.5,-136 211.5,-136 211.5,-118 114.5,-118"/>
<polygon fill="none" stroke="black" points="114.5,-118 114.5,-136 211.5,-136 211.5,-118 114.5,-118"/>
<text text-anchor="start" x="188.5" y="-124.2" font-family="Helvetica,sans-Serif" font-size="11.00">1 &gt;</text>
<polygon fill="none" stroke="black" stroke-width="2" points="9,-117 9,-203 212,-203 212,-117 9,-117"/>
</a>
</g>
</g>
<!-- sign_interpretation_roi&#45;&gt;roi_shape -->
<g id="edge2" class="edge">
<title>sign_interpretation_roi:w&#45;&gt;roi_shape:e</title>
<path fill="none" stroke="black" d="M246.99,-169C235.68,-169 228.49,-169 212.5,-169"/>
<polygon fill="black" stroke="black" points="253.5,-169 261.5,-172.6 257.5,-169 261.5,-169 261.5,-169 261.5,-169 257.5,-169 261.5,-165.4 253.5,-169 253.5,-169"/>
<ellipse fill="none" stroke="black" cx="250.3" cy="-169" rx="3.2" ry="3.2"/>
</g>
<!-- sign_interpretation -->
<g id="node4" class="node">
<title>sign_interpretation</title>
<g id="a_node4"><a xlink:href="../../tables/sign_interpretation.html" xlink:title="sign_interpretation" target="_top">
<polygon fill="#ffffff" stroke="transparent" points="26,-225 26,-283 195,-283 195,-225 26,-225"/>
<polygon fill="#f5f5f5" stroke="transparent" points="26.5,-261 26.5,-283 195.5,-283 195.5,-261 26.5,-261"/>
<polygon fill="none" stroke="black" points="26.5,-261 26.5,-283 195.5,-283 195.5,-261 26.5,-261"/>
<text text-anchor="start" x="31.5" y="-270.2" font-family="Helvetica,sans-Serif" font-weight="bold" font-size="11.00">sign_interpretation</text>
<text text-anchor="start" x="153.5" y="-269.2" font-family="Helvetica,sans-Serif" font-size="11.00">[table]</text>
<polygon fill="none" stroke="black" points="26.5,-243 26.5,-261 195.5,-261 195.5,-243 26.5,-243"/>
<text text-anchor="start" x="29.5" y="-249.2" font-family="Helvetica,sans-Serif" font-size="11.00">...</text>
<polygon fill="#ffffff" stroke="transparent" points="26.5,-225 26.5,-243 65.5,-243 65.5,-225 26.5,-225"/>
<polygon fill="none" stroke="black" points="26.5,-225 26.5,-243 65.5,-243 65.5,-225 26.5,-225"/>
<text text-anchor="start" x="29.5" y="-231.2" font-family="Helvetica,sans-Serif" font-size="11.00">&lt; 1</text>
<polygon fill="#ffffff" stroke="transparent" points="65.5,-225 65.5,-243 162.5,-243 162.5,-225 65.5,-225"/>
<polygon fill="none" stroke="black" points="65.5,-225 65.5,-243 162.5,-243 162.5,-225 65.5,-225"/>
<text text-anchor="start" x="74.5" y="-231.2" font-family="Helvetica,sans-Serif" font-size="11.00">1,189,027 rows</text>
<polygon fill="#ffffff" stroke="transparent" points="162.5,-225 162.5,-243 195.5,-243 195.5,-225 162.5,-225"/>
<polygon fill="none" stroke="black" points="162.5,-225 162.5,-243 195.5,-243 195.5,-225 162.5,-225"/>
<text text-anchor="start" x="172.5" y="-231.2" font-family="Helvetica,sans-Serif" font-size="11.00">5 &gt;</text>
</a>
</g>
</g>
<!-- sign_interpretation_roi&#45;&gt;sign_interpretation -->
<g id="edge3" class="edge">
<title>sign_interpretation_roi:w&#45;&gt;sign_interpretation:e</title>
<path fill="none" stroke="black" d="M247.37,-194.45C224.87,-207.36 230.39,-252 196.5,-252"/>
<polygon fill="black" stroke="black" points="253.73,-192.9 262.36,-194.5 257.61,-191.95 261.5,-191 261.5,-191 261.5,-191 257.61,-191.95 260.64,-187.5 253.73,-192.9 253.73,-192.9"/>
<ellipse fill="none" stroke="black" cx="250.62" cy="-193.66" rx="3.2" ry="3.2"/>
</g>
<!-- sign_interpretation_roi_owner -->
<g id="node5" class="node">
<title>sign_interpretation_roi_owner</title>
<g id="a_node5"><a xlink:href="../../tables/sign_interpretation_roi_owner.html" xlink:title="sign_interpretation_roi_owner" target="_top">
<polygon fill="#ffffff" stroke="transparent" points="504,-186 504,-244 738,-244 738,-186 504,-186"/>
<polygon fill="#f5f5f5" stroke="transparent" points="504,-222 504,-244 738,-244 738,-222 504,-222"/>
<polygon fill="none" stroke="black" points="504,-222 504,-244 738,-244 738,-222 504,-222"/>
<text text-anchor="start" x="509" y="-231.2" font-family="Helvetica,sans-Serif" font-weight="bold" font-size="11.00">sign_interpretation_roi_owner</text>
<text text-anchor="start" x="696" y="-230.2" font-family="Helvetica,sans-Serif" font-size="11.00">[table]</text>
<polygon fill="none" stroke="black" points="504,-204 504,-222 738,-222 738,-204 504,-204"/>
<text text-anchor="start" x="507" y="-210.2" font-family="Helvetica,sans-Serif" font-size="11.00">...</text>
<polygon fill="#ffffff" stroke="transparent" points="504,-186 504,-204 605,-204 605,-186 504,-186"/>
<polygon fill="none" stroke="black" points="504,-186 504,-204 605,-204 605,-186 504,-186"/>
<text text-anchor="start" x="507" y="-192.2" font-family="Helvetica,sans-Serif" font-size="11.00">&lt; 3</text>
<polygon fill="#ffffff" stroke="transparent" points="605,-186 605,-204 686,-204 686,-186 605,-186"/>
<polygon fill="none" stroke="black" points="605,-186 605,-204 686,-204 686,-186 605,-186"/>
<text text-anchor="start" x="646" y="-192.2" font-family="Helvetica,sans-Serif" font-size="11.00">0 rows</text>
<polygon fill="#ffffff" stroke="transparent" points="686,-186 686,-204 738,-204 738,-186 686,-186"/>
<polygon fill="none" stroke="black" points="686,-186 686,-204 738,-204 738,-186 686,-186"/>
<text text-anchor="start" x="727" y="-192.2" font-family="Helvetica,sans-Serif" font-size="11.00"> &#160;</text>
</a>
</g>
</g>
<!-- sign_interpretation_roi_owner&#45;&gt;sign_interpretation_roi -->
<g id="edge4" class="edge">
<title>sign_interpretation_roi_owner:w&#45;&gt;sign_interpretation_roi:e</title>
<path fill="none" stroke="black" d="M488.55,-213C478.2,-213 471.35,-213 456.5,-213"/>
<polygon fill="black" stroke="black" points="495,-213 503,-216.6 499,-213 503,-213 503,-213 503,-213 499,-213 503,-209.4 495,-213 495,-213"/>
<ellipse fill="none" stroke="black" cx="491.8" cy="-213" rx="3.2" ry="3.2"/>
</g>
</g>
</svg>
