<?xml version="1.0" encoding="UTF-8" standalone="no"?>
<!DOCTYPE svg PUBLIC "-//W3C//DTD SVG 1.1//EN"
 "http://www.w3.org/Graphics/SVG/1.1/DTD/svg11.dtd">
<!-- Generated by graphviz version 2.43.0 (0)
 -->
<!-- Title: oneDegreeRelationshipsDiagram Pages: 1 -->
<svg width="678pt" height="267pt"
 viewBox="0.00 0.00 678.00 267.00" xmlns="http://www.w3.org/2000/svg" xmlns:xlink="http://www.w3.org/1999/xlink">
<g id="graph0" class="graph" transform="scale(1 1) rotate(0) translate(4 263)">
<title>oneDegreeRelationshipsDiagram</title>
<polygon fill="#ffffff" stroke="transparent" points="-4,4 -4,-263 674,-263 674,4 -4,4"/>
<text text-anchor="middle" x="79.5" y="-7.2" font-family="Helvetica,sans-Serif" font-size="11.00">Generated by SchemaSpy</text>
<!-- roi_position -->
<g id="node1" class="node">
<title>roi_position</title>
<g id="a_node1"><a xlink:href="../../tables/roi_position.html" xlink:title="roi_position" target="_top">
<polygon fill="#ffffff" stroke="transparent" points="171,-37 171,-191 420,-191 420,-37 171,-37"/>
<polygon fill="#f5f5f5" stroke="transparent" points="173.5,-167 173.5,-189 418.5,-189 418.5,-167 173.5,-167"/>
<polygon fill="none" stroke="black" points="173.5,-167 173.5,-189 418.5,-189 418.5,-167 173.5,-167"/>
<text text-anchor="start" x="178.5" y="-176.2" font-family="Helvetica,sans-Serif" font-weight="bold" font-size="11.00">roi_position</text>
<text text-anchor="start" x="376.5" y="-175.2" font-family="Helvetica,sans-Serif" font-size="11.00">[table]</text>
<polygon fill="none" stroke="black" points="173.5,-145 173.5,-167 299.5,-167 299.5,-145 173.5,-145"/>
<image xlink:href="../../images/primaryKeys.png" width="11px" height="12px" preserveAspectRatio="xMinYMin meet" x="178.5" y="-162"/>
<text text-anchor="start" x="193.5" y="-153.2" font-family="Helvetica,sans-Serif" font-size="11.00">roi_position_id</text>
<polygon fill="none" stroke="black" points="299.5,-145 299.5,-167 418.5,-167 418.5,-145 299.5,-145"/>
<text text-anchor="start" x="302.5" y="-153.2" font-family="Helvetica,sans-Serif" font-size="11.00">int unsigned[10]</text>
<polygon fill="#ffffff" stroke="transparent" points="173.5,-123 173.5,-145 299.5,-145 299.5,-123 173.5,-123"/>
<polygon fill="none" stroke="black" points="173.5,-123 173.5,-145 299.5,-145 299.5,-123 173.5,-123"/>
<image xlink:href="../../images/foreignKeys.png" width="11px" height="12px" preserveAspectRatio="xMinYMin meet" x="178.5" y="-140"/>
<text text-anchor="start" x="193.5" y="-131.2" font-family="Helvetica,sans-Serif" font-size="11.00">artefact_id</text>
<polygon fill="none" stroke="black" points="299.5,-123 299.5,-145 418.5,-145 418.5,-123 299.5,-123"/>
<text text-anchor="start" x="302.5" y="-131.2" font-family="Helvetica,sans-Serif" font-size="11.00">int unsigned[10]</text>
<polygon fill="none" stroke="black" points="173.5,-101 173.5,-123 299.5,-123 299.5,-101 173.5,-101"/>
<text text-anchor="start" x="193.5" y="-109.2" font-family="Helvetica,sans-Serif" font-size="11.00">translate_x</text>
<polygon fill="none" stroke="black" points="299.5,-101 299.5,-123 418.5,-123 418.5,-101 299.5,-101"/>
<text text-anchor="start" x="302.5" y="-109.2" font-family="Helvetica,sans-Serif" font-size="11.00">int[10]</text>
<polygon fill="none" stroke="black" points="173.5,-79 173.5,-101 299.5,-101 299.5,-79 173.5,-79"/>
<text text-anchor="start" x="193.5" y="-87.2" font-family="Helvetica,sans-Serif" font-size="11.00">translate_y</text>
<polygon fill="none" stroke="black" points="299.5,-79 299.5,-101 418.5,-101 418.5,-79 299.5,-79"/>
<text text-anchor="start" x="302.5" y="-87.2" font-family="Helvetica,sans-Serif" font-size="11.00">int[10]</text>
<polygon fill="none" stroke="black" points="173.5,-57 173.5,-79 299.5,-79 299.5,-57 173.5,-57"/>
<text text-anchor="start" x="193.5" y="-65.2" font-family="Helvetica,sans-Serif" font-size="11.00">stance_rotation</text>
<polygon fill="none" stroke="black" points="299.5,-57 299.5,-79 418.5,-79 418.5,-57 299.5,-57"/>
<text text-anchor="start" x="302.5" y="-65.2" font-family="Helvetica,sans-Serif" font-size="11.00">smallint unsigned[5]</text>
<polygon fill="#ffffff" stroke="transparent" points="173.5,-39 173.5,-57 227.5,-57 227.5,-39 173.5,-39"/>
<polygon fill="none" stroke="black" points="173.5,-39 173.5,-57 227.5,-57 227.5,-39 173.5,-39"/>
<text text-anchor="start" x="176.5" y="-45.2" font-family="Helvetica,sans-Serif" font-size="11.00">&lt; 1</text>
<polygon fill="#ffffff" stroke="transparent" points="227.5,-39 227.5,-57 299.5,-57 299.5,-39 227.5,-39"/>
<polygon fill="none" stroke="black" points="227.5,-39 227.5,-57 299.5,-57 299.5,-39 227.5,-39"/>
<text text-anchor="start" x="259.5" y="-45.2" font-family="Helvetica,sans-Serif" font-size="11.00">0 rows</text>
<polygon fill="#ffffff" stroke="transparent" points="299.5,-39 299.5,-57 418.5,-57 418.5,-39 299.5,-39"/>
<polygon fill="none" stroke="black" points="299.5,-39 299.5,-57 418.5,-57 418.5,-39 299.5,-39"/>
<text text-anchor="start" x="395.5" y="-45.2" font-family="Helvetica,sans-Serif" font-size="11.00">1 &gt;</text>
<polygon fill="none" stroke="black" stroke-width="2" points="172,-38 172,-190 419,-190 419,-38 172,-38"/>
</a>
</g>
</g>
<!-- artefact -->
<g id="node2" class="node">
<title>artefact</title>
<g id="a_node2"><a xlink:href="../../tables/artefact.html" xlink:title="artefact" target="_top">
<polygon fill="#ffffff" stroke="transparent" points="8,-105 8,-167 122,-167 122,-105 8,-105"/>
<polygon fill="#f5f5f5" stroke="transparent" points="8,-145 8,-167 122,-167 122,-145 8,-145"/>
<polygon fill="none" stroke="black" points="8,-145 8,-167 122,-167 122,-145 8,-145"/>
<text text-anchor="start" x="13" y="-154.2" font-family="Helvetica,sans-Serif" font-weight="bold" font-size="11.00">artefact</text>
<text text-anchor="start" x="80" y="-153.2" font-family="Helvetica,sans-Serif" font-size="11.00">[table]</text>
<polygon fill="none" stroke="black" points="8,-123 8,-145 122,-145 122,-123 8,-123"/>
<image xlink:href="../../images/primaryKeys.png" width="11px" height="12px" preserveAspectRatio="xMinYMin meet" x="13" y="-140"/>
<text text-anchor="start" x="39" y="-131.2" font-family="Helvetica,sans-Serif" font-size="11.00">artefact_id</text>
<polygon fill="#ffffff" stroke="transparent" points="8,-105 8,-123 22,-123 22,-105 8,-105"/>
<polygon fill="none" stroke="black" points="8,-105 8,-123 22,-123 22,-105 8,-105"/>
<text text-anchor="start" x="11" y="-111.2" font-family="Helvetica,sans-Serif" font-size="11.00"> &#160;</text>
<polygon fill="#ffffff" stroke="transparent" points="22,-105 22,-123 96,-123 96,-105 22,-105"/>
<polygon fill="none" stroke="black" points="22,-105 22,-123 96,-123 96,-105 22,-105"/>
<text text-anchor="start" x="25" y="-111.2" font-family="Helvetica,sans-Serif" font-size="11.00">26,982 rows</text>
<polygon fill="#ffffff" stroke="transparent" points="96,-105 96,-123 122,-123 122,-105 96,-105"/>
<polygon fill="none" stroke="black" points="96,-105 96,-123 122,-123 122,-105 96,-105"/>
<text text-anchor="start" x="99" y="-111.2" font-family="Helvetica,sans-Serif" font-size="11.00">8 &gt;</text>
</a>
</g>
</g>
<!-- roi_position&#45;&gt;artefact -->
<g id="edge1" class="edge">
<title>roi_position:w&#45;&gt;artefact:e</title>
<path fill="none" stroke="black" d="M157.84,-134C146.41,-134 139.16,-134 123,-134"/>
<polygon fill="black" stroke="black" points="164.5,-134 172.5,-137.6 168.5,-134 172.5,-134 172.5,-134 172.5,-134 168.5,-134 172.5,-130.4 164.5,-134 164.5,-134"/>
<ellipse fill="none" stroke="black" cx="161.3" cy="-134" rx="3.2" ry="3.2"/>
</g>
<!-- sign_interpretation_roi -->
<g id="node3" class="node">
<title>sign_interpretation_roi</title>
<g id="a_node3"><a xlink:href="../../tables/sign_interpretation_roi.html" xlink:title="sign_interpretation_roi" target="_top">
<polygon fill="#ffffff" stroke="transparent" points="469,-109 469,-255 662,-255 662,-109 469,-109"/>
<polygon fill="#f5f5f5" stroke="transparent" points="469.5,-233 469.5,-255 662.5,-255 662.5,-233 469.5,-233"/>
<polygon fill="none" stroke="black" points="469.5,-233 469.5,-255 662.5,-255 662.5,-233 469.5,-233"/>
<text text-anchor="start" x="474.5" y="-242.2" font-family="Helvetica,sans-Serif" font-weight="bold" font-size="11.00">sign_interpretation_roi</text>
<text text-anchor="start" x="620.5" y="-241.2" font-family="Helvetica,sans-Serif" font-size="11.00">[table]</text>
<polygon fill="none" stroke="black" points="469.5,-211 469.5,-233 662.5,-233 662.5,-211 469.5,-211"/>
<image xlink:href="../../images/primaryKeys.png" width="11px" height="12px" preserveAspectRatio="xMinYMin meet" x="474.5" y="-228"/>
<text text-anchor="start" x="489.5" y="-219.2" font-family="Helvetica,sans-Serif" font-size="11.00">sign_interpretation_roi_id</text>
<polygon fill="#ffffff" stroke="transparent" points="469.5,-189 469.5,-211 662.5,-211 662.5,-189 469.5,-189"/>
<polygon fill="none" stroke="black" points="469.5,-189 469.5,-211 662.5,-211 662.5,-189 469.5,-189"/>
<image xlink:href="../../images/foreignKeys.png" width="11px" height="12px" preserveAspectRatio="xMinYMin meet" x="474.5" y="-206"/>
<text text-anchor="start" x="489.5" y="-197.2" font-family="Helvetica,sans-Serif" font-size="11.00">sign_interpretation_id</text>
<polygon fill="#ffffff" stroke="transparent" points="469.5,-167 469.5,-189 662.5,-189 662.5,-167 469.5,-167"/>
<polygon fill="none" stroke="black" points="469.5,-167 469.5,-189 662.5,-189 662.5,-167 469.5,-167"/>
<image xlink:href="../../images/foreignKeys.png" width="11px" height="12px" preserveAspectRatio="xMinYMin meet" x="474.5" y="-184"/>
<text text-anchor="start" x="489.5" y="-175.2" font-family="Helvetica,sans-Serif" font-size="11.00">roi_shape_id</text>
<polygon fill="#ffffff" stroke="transparent" points="469.5,-145 469.5,-167 662.5,-167 662.5,-145 469.5,-145"/>
<polygon fill="none" stroke="black" points="469.5,-145 469.5,-167 662.5,-167 662.5,-145 469.5,-145"/>
<image xlink:href="../../images/foreignKeys.png" width="11px" height="12px" preserveAspectRatio="xMinYMin meet" x="474.5" y="-162"/>
<text text-anchor="start" x="489.5" y="-153.2" font-family="Helvetica,sans-Serif" font-size="11.00">roi_position_id</text>
<polygon fill="none" stroke="black" points="469.5,-127 469.5,-145 662.5,-145 662.5,-127 469.5,-127"/>
<text text-anchor="start" x="472.5" y="-133.2" font-family="Helvetica,sans-Serif" font-size="11.00">...</text>
<polygon fill="#ffffff" stroke="transparent" points="469.5,-109 469.5,-127 544.5,-127 544.5,-109 469.5,-109"/>
<polygon fill="none" stroke="black" points="469.5,-109 469.5,-127 544.5,-127 544.5,-109 469.5,-109"/>
<text text-anchor="start" x="472.5" y="-115.2" font-family="Helvetica,sans-Serif" font-size="11.00">&lt; 3</text>
<polygon fill="#ffffff" stroke="transparent" points="544.5,-109 544.5,-127 611.5,-127 611.5,-109 544.5,-109"/>
<polygon fill="none" stroke="black" points="544.5,-109 544.5,-127 611.5,-127 611.5,-109 544.5,-109"/>
<text text-anchor="start" x="571.5" y="-115.2" font-family="Helvetica,sans-Serif" font-size="11.00">0 rows</text>
<polygon fill="#ffffff" stroke="transparent" points="611.5,-109 611.5,-127 662.5,-127 662.5,-109 611.5,-109"/>
<polygon fill="none" stroke="black" points="611.5,-109 611.5,-127 662.5,-127 662.5,-109 611.5,-109"/>
<text text-anchor="start" x="639.5" y="-115.2" font-family="Helvetica,sans-Serif" font-size="11.00">1 &gt;</text>
</a>
</g>
</g>
<!-- sign_interpretation_roi&#45;&gt;roi_position -->
<g id="edge2" class="edge">
<title>sign_interpretation_roi:w&#45;&gt;roi_position:e</title>
<path fill="none" stroke="black" d="M453.99,-156C442.68,-156 435.49,-156 419.5,-156"/>
<polygon fill="black" stroke="black" points="460.5,-156 468.5,-159.6 464.5,-156 468.5,-156 468.5,-156 468.5,-156 464.5,-156 468.5,-152.4 460.5,-156 460.5,-156"/>
<ellipse fill="none" stroke="black" cx="457.3" cy="-156" rx="3.2" ry="3.2"/>
</g>
</g>
</svg>
