<?xml version="1.0" encoding="UTF-8" standalone="no"?>
<!DOCTYPE svg PUBLIC "-//W3C//DTD SVG 1.1//EN"
 "http://www.w3.org/Graphics/SVG/1.1/DTD/svg11.dtd">
<!-- Generated by graphviz version 2.43.0 (0)
 -->
<!-- Title: twoDegreesRelationshipsDiagram Pages: 1 -->
<svg width="961pt" height="835pt"
 viewBox="0.00 0.00 961.00 835.00" xmlns="http://www.w3.org/2000/svg" xmlns:xlink="http://www.w3.org/1999/xlink">
<g id="graph0" class="graph" transform="scale(1 1) rotate(0) translate(4 831)">
<title>twoDegreesRelationshipsDiagram</title>
<polygon fill="#ffffff" stroke="transparent" points="-4,4 -4,-831 957,-831 957,4 -4,4"/>
<text text-anchor="middle" x="79.5" y="-7.2" font-family="Helvetica,sans-Serif" font-size="11.00">Generated by SchemaSpy</text>
<!-- artefact_data -->
<g id="node1" class="node">
<title>artefact_data</title>
<g id="a_node1"><a xlink:href="../../tables/artefact_data.html" xlink:title="artefact_data" target="_top">
<polygon fill="#ffffff" stroke="transparent" points="228.5,-765 228.5,-823 362.5,-823 362.5,-765 228.5,-765"/>
<polygon fill="#f5f5f5" stroke="transparent" points="228.5,-801 228.5,-823 362.5,-823 362.5,-801 228.5,-801"/>
<polygon fill="none" stroke="black" points="228.5,-801 228.5,-823 362.5,-823 362.5,-801 228.5,-801"/>
<text text-anchor="start" x="233.5" y="-810.2" font-family="Helvetica,sans-Serif" font-weight="bold" font-size="11.00">artefact_data</text>
<text text-anchor="start" x="320.5" y="-809.2" font-family="Helvetica,sans-Serif" font-size="11.00">[table]</text>
<polygon fill="none" stroke="black" points="228.5,-783 228.5,-801 362.5,-801 362.5,-783 228.5,-783"/>
<text text-anchor="start" x="231.5" y="-789.2" font-family="Helvetica,sans-Serif" font-size="11.00">...</text>
<polygon fill="#ffffff" stroke="transparent" points="228.5,-765 228.5,-783 258.5,-783 258.5,-765 228.5,-765"/>
<polygon fill="none" stroke="black" points="228.5,-765 228.5,-783 258.5,-783 258.5,-765 228.5,-765"/>
<text text-anchor="start" x="231.5" y="-771.2" font-family="Helvetica,sans-Serif" font-size="11.00">&lt; 1</text>
<polygon fill="#ffffff" stroke="transparent" points="258.5,-765 258.5,-783 334.5,-783 334.5,-765 258.5,-765"/>
<polygon fill="none" stroke="black" points="258.5,-765 258.5,-783 334.5,-783 334.5,-765 258.5,-765"/>
<text text-anchor="start" x="263.5" y="-771.2" font-family="Helvetica,sans-Serif" font-size="11.00">26,649 rows</text>
<polygon fill="#ffffff" stroke="transparent" points="334.5,-765 334.5,-783 362.5,-783 362.5,-765 334.5,-765"/>
<polygon fill="none" stroke="black" points="334.5,-765 334.5,-783 362.5,-783 362.5,-765 334.5,-765"/>
<text text-anchor="start" x="339.5" y="-771.2" font-family="Helvetica,sans-Serif" font-size="11.00">1 &gt;</text>
</a>
</g>
</g>
<!-- artefact -->
<g id="node2" class="node">
<title>artefact</title>
<g id="a_node2"><a xlink:href="../../tables/artefact.html" xlink:title="artefact" target="_top">
<polygon fill="#ffffff" stroke="transparent" points="8,-486 8,-548 122,-548 122,-486 8,-486"/>
<polygon fill="#f5f5f5" stroke="transparent" points="8,-526 8,-548 122,-548 122,-526 8,-526"/>
<polygon fill="none" stroke="black" points="8,-526 8,-548 122,-548 122,-526 8,-526"/>
<text text-anchor="start" x="13" y="-535.2" font-family="Helvetica,sans-Serif" font-weight="bold" font-size="11.00">artefact</text>
<text text-anchor="start" x="80" y="-534.2" font-family="Helvetica,sans-Serif" font-size="11.00">[table]</text>
<polygon fill="none" stroke="black" points="8,-504 8,-526 122,-526 122,-504 8,-504"/>
<image xlink:href="../../images/primaryKeys.png" width="11px" height="12px" preserveAspectRatio="xMinYMin meet" x="13" y="-521"/>
<text text-anchor="start" x="39" y="-512.2" font-family="Helvetica,sans-Serif" font-size="11.00">artefact_id</text>
<polygon fill="#ffffff" stroke="transparent" points="8,-486 8,-504 22,-504 22,-486 8,-486"/>
<polygon fill="none" stroke="black" points="8,-486 8,-504 22,-504 22,-486 8,-486"/>
<text text-anchor="start" x="11" y="-492.2" font-family="Helvetica,sans-Serif" font-size="11.00"> &#160;</text>
<polygon fill="#ffffff" stroke="transparent" points="22,-486 22,-504 96,-504 96,-486 22,-486"/>
<polygon fill="none" stroke="black" points="22,-486 22,-504 96,-504 96,-486 22,-486"/>
<text text-anchor="start" x="25" y="-492.2" font-family="Helvetica,sans-Serif" font-size="11.00">26,982 rows</text>
<polygon fill="#ffffff" stroke="transparent" points="96,-486 96,-504 122,-504 122,-486 96,-486"/>
<polygon fill="none" stroke="black" points="96,-486 96,-504 122,-504 122,-486 96,-486"/>
<text text-anchor="start" x="99" y="-492.2" font-family="Helvetica,sans-Serif" font-size="11.00">8 &gt;</text>
</a>
</g>
</g>
<!-- artefact_data&#45;&gt;artefact -->
<g id="edge1" class="edge">
<title>artefact_data:w&#45;&gt;artefact:e</title>
<path fill="none" stroke="black" d="M213.09,-791.21C190.26,-788.4 178.84,-777.79 163,-755 132.13,-710.61 177.07,-515 123,-515"/>
<polygon fill="black" stroke="black" points="219.51,-791.56 227.3,-795.59 223.51,-791.78 227.5,-792 227.5,-792 227.5,-792 223.51,-791.78 227.7,-788.41 219.51,-791.56 219.51,-791.56"/>
<ellipse fill="none" stroke="black" cx="216.32" cy="-791.39" rx="3.2" ry="3.2"/>
</g>
<!-- artefact_group_member -->
<g id="node3" class="node">
<title>artefact_group_member</title>
<g id="a_node3"><a xlink:href="../../tables/artefact_group_member.html" xlink:title="artefact_group_member" target="_top">
<polygon fill="#ffffff" stroke="transparent" points="197,-686 197,-744 394,-744 394,-686 197,-686"/>
<polygon fill="#f5f5f5" stroke="transparent" points="197.5,-722 197.5,-744 394.5,-744 394.5,-722 197.5,-722"/>
<polygon fill="none" stroke="black" points="197.5,-722 197.5,-744 394.5,-744 394.5,-722 197.5,-722"/>
<text text-anchor="start" x="202.5" y="-731.2" font-family="Helvetica,sans-Serif" font-weight="bold" font-size="11.00">artefact_group_member</text>
<text text-anchor="start" x="352.5" y="-730.2" font-family="Helvetica,sans-Serif" font-size="11.00">[table]</text>
<polygon fill="none" stroke="black" points="197.5,-704 197.5,-722 394.5,-722 394.5,-704 197.5,-704"/>
<text text-anchor="start" x="200.5" y="-710.2" font-family="Helvetica,sans-Serif" font-size="11.00">...</text>
<polygon fill="#ffffff" stroke="transparent" points="197.5,-686 197.5,-704 274.5,-704 274.5,-686 197.5,-686"/>
<polygon fill="none" stroke="black" points="197.5,-686 197.5,-704 274.5,-704 274.5,-686 197.5,-686"/>
<text text-anchor="start" x="200.5" y="-692.2" font-family="Helvetica,sans-Serif" font-size="11.00">&lt; 2</text>
<polygon fill="#ffffff" stroke="transparent" points="274.5,-686 274.5,-704 342.5,-704 342.5,-686 274.5,-686"/>
<polygon fill="none" stroke="black" points="274.5,-686 274.5,-704 342.5,-704 342.5,-686 274.5,-686"/>
<text text-anchor="start" x="302.5" y="-692.2" font-family="Helvetica,sans-Serif" font-size="11.00">0 rows</text>
<polygon fill="#ffffff" stroke="transparent" points="342.5,-686 342.5,-704 394.5,-704 394.5,-686 342.5,-686"/>
<polygon fill="none" stroke="black" points="342.5,-686 342.5,-704 394.5,-704 394.5,-686 342.5,-686"/>
<text text-anchor="start" x="371.5" y="-692.2" font-family="Helvetica,sans-Serif" font-size="11.00">1 &gt;</text>
</a>
</g>
</g>
<!-- artefact_group_member&#45;&gt;artefact -->
<g id="edge2" class="edge">
<title>artefact_group_member:w&#45;&gt;artefact:e</title>
<path fill="none" stroke="black" d="M182.06,-711.04C115.3,-690.48 211.37,-515 123,-515"/>
<polygon fill="black" stroke="black" points="188.57,-711.92 196.02,-716.57 192.54,-712.46 196.5,-713 196.5,-713 196.5,-713 192.54,-712.46 196.98,-709.43 188.57,-711.92 188.57,-711.92"/>
<ellipse fill="none" stroke="black" cx="185.4" cy="-711.49" rx="3.2" ry="3.2"/>
</g>
<!-- artefact_position -->
<g id="node4" class="node">
<title>artefact_position</title>
<g id="a_node4"><a xlink:href="../../tables/artefact_position.html" xlink:title="artefact_position" target="_top">
<polygon fill="#ffffff" stroke="transparent" points="217.5,-607 217.5,-665 373.5,-665 373.5,-607 217.5,-607"/>
<polygon fill="#f5f5f5" stroke="transparent" points="217.5,-643 217.5,-665 373.5,-665 373.5,-643 217.5,-643"/>
<polygon fill="none" stroke="black" points="217.5,-643 217.5,-665 373.5,-665 373.5,-643 217.5,-643"/>
<text text-anchor="start" x="222.5" y="-652.2" font-family="Helvetica,sans-Serif" font-weight="bold" font-size="11.00">artefact_position</text>
<text text-anchor="start" x="331.5" y="-651.2" font-family="Helvetica,sans-Serif" font-size="11.00">[table]</text>
<polygon fill="none" stroke="black" points="217.5,-625 217.5,-643 373.5,-643 373.5,-625 217.5,-625"/>
<text text-anchor="start" x="220.5" y="-631.2" font-family="Helvetica,sans-Serif" font-size="11.00">...</text>
<polygon fill="#ffffff" stroke="transparent" points="217.5,-607 217.5,-625 273.5,-625 273.5,-607 217.5,-607"/>
<polygon fill="none" stroke="black" points="217.5,-607 217.5,-625 273.5,-625 273.5,-607 217.5,-607"/>
<text text-anchor="start" x="220.5" y="-613.2" font-family="Helvetica,sans-Serif" font-size="11.00">&lt; 1</text>
<polygon fill="#ffffff" stroke="transparent" points="273.5,-607 273.5,-625 331.5,-625 331.5,-607 273.5,-607"/>
<polygon fill="none" stroke="black" points="273.5,-607 273.5,-625 331.5,-625 331.5,-607 273.5,-607"/>
<text text-anchor="start" x="291.5" y="-613.2" font-family="Helvetica,sans-Serif" font-size="11.00">0 rows</text>
<polygon fill="#ffffff" stroke="transparent" points="331.5,-607 331.5,-625 373.5,-625 373.5,-607 331.5,-607"/>
<polygon fill="none" stroke="black" points="331.5,-607 331.5,-625 373.5,-625 373.5,-607 331.5,-607"/>
<text text-anchor="start" x="350.5" y="-613.2" font-family="Helvetica,sans-Serif" font-size="11.00">1 &gt;</text>
</a>
</g>
</g>
<!-- artefact_position&#45;&gt;artefact -->
<g id="edge3" class="edge">
<title>artefact_position:w&#45;&gt;artefact:e</title>
<path fill="none" stroke="black" d="M201.94,-632.34C184.84,-627.85 178.16,-614.65 163,-597 136.58,-566.24 163.55,-515 123,-515"/>
<polygon fill="black" stroke="black" points="208.55,-633.09 216.09,-637.58 212.53,-633.55 216.5,-634 216.5,-634 216.5,-634 212.53,-633.55 216.91,-630.42 208.55,-633.09 208.55,-633.09"/>
<ellipse fill="none" stroke="black" cx="205.37" cy="-632.73" rx="3.2" ry="3.2"/>
</g>
<!-- artefact_shape -->
<g id="node5" class="node">
<title>artefact_shape</title>
<g id="a_node5"><a xlink:href="../../tables/artefact_shape.html" xlink:title="artefact_shape" target="_top">
<polygon fill="#ffffff" stroke="transparent" points="224,-528 224,-586 367,-586 367,-528 224,-528"/>
<polygon fill="#f5f5f5" stroke="transparent" points="224.5,-564 224.5,-586 367.5,-586 367.5,-564 224.5,-564"/>
<polygon fill="none" stroke="black" points="224.5,-564 224.5,-586 367.5,-586 367.5,-564 224.5,-564"/>
<text text-anchor="start" x="229.5" y="-573.2" font-family="Helvetica,sans-Serif" font-weight="bold" font-size="11.00">artefact_shape</text>
<text text-anchor="start" x="325.5" y="-572.2" font-family="Helvetica,sans-Serif" font-size="11.00">[table]</text>
<polygon fill="none" stroke="black" points="224.5,-546 224.5,-564 367.5,-564 367.5,-546 224.5,-546"/>
<text text-anchor="start" x="227.5" y="-552.2" font-family="Helvetica,sans-Serif" font-size="11.00">...</text>
<polygon fill="#ffffff" stroke="transparent" points="224.5,-528 224.5,-546 258.5,-546 258.5,-528 224.5,-528"/>
<polygon fill="none" stroke="black" points="224.5,-528 224.5,-546 258.5,-546 258.5,-528 224.5,-528"/>
<text text-anchor="start" x="227.5" y="-534.2" font-family="Helvetica,sans-Serif" font-size="11.00">&lt; 2</text>
<polygon fill="#ffffff" stroke="transparent" points="258.5,-528 258.5,-546 336.5,-546 336.5,-528 258.5,-528"/>
<polygon fill="none" stroke="black" points="258.5,-528 258.5,-546 336.5,-546 336.5,-528 258.5,-528"/>
<text text-anchor="start" x="265.5" y="-534.2" font-family="Helvetica,sans-Serif" font-size="11.00">27,685 rows</text>
<polygon fill="#ffffff" stroke="transparent" points="336.5,-528 336.5,-546 367.5,-546 367.5,-528 336.5,-528"/>
<polygon fill="none" stroke="black" points="336.5,-528 336.5,-546 367.5,-546 367.5,-528 336.5,-528"/>
<text text-anchor="start" x="344.5" y="-534.2" font-family="Helvetica,sans-Serif" font-size="11.00">1 &gt;</text>
</a>
</g>
</g>
<!-- artefact_shape&#45;&gt;artefact -->
<g id="edge4" class="edge">
<title>artefact_shape:w&#45;&gt;artefact:e</title>
<path fill="none" stroke="black" d="M208.72,-553.58C173.88,-546.45 165.63,-515 123,-515"/>
<polygon fill="black" stroke="black" points="215.54,-554.23 223.15,-558.58 219.52,-554.62 223.5,-555 223.5,-555 223.5,-555 219.52,-554.62 223.85,-551.42 215.54,-554.23 215.54,-554.23"/>
<ellipse fill="none" stroke="black" cx="212.35" cy="-553.93" rx="3.2" ry="3.2"/>
</g>
<!-- artefact_stack -->
<g id="node6" class="node">
<title>artefact_stack</title>
<g id="a_node6"><a xlink:href="../../tables/artefact_stack.html" xlink:title="artefact_stack" target="_top">
<polygon fill="#ffffff" stroke="transparent" points="225.5,-449 225.5,-507 365.5,-507 365.5,-449 225.5,-449"/>
<polygon fill="#f5f5f5" stroke="transparent" points="225.5,-485 225.5,-507 365.5,-507 365.5,-485 225.5,-485"/>
<polygon fill="none" stroke="black" points="225.5,-485 225.5,-507 365.5,-507 365.5,-485 225.5,-485"/>
<text text-anchor="start" x="230.5" y="-494.2" font-family="Helvetica,sans-Serif" font-weight="bold" font-size="11.00">artefact_stack</text>
<text text-anchor="start" x="323.5" y="-493.2" font-family="Helvetica,sans-Serif" font-size="11.00">[table]</text>
<polygon fill="none" stroke="black" points="225.5,-467 225.5,-485 365.5,-485 365.5,-467 225.5,-467"/>
<text text-anchor="start" x="228.5" y="-473.2" font-family="Helvetica,sans-Serif" font-size="11.00">...</text>
<polygon fill="#ffffff" stroke="transparent" points="225.5,-449 225.5,-467 258.5,-467 258.5,-449 225.5,-449"/>
<polygon fill="none" stroke="black" points="225.5,-449 225.5,-467 258.5,-467 258.5,-449 225.5,-449"/>
<text text-anchor="start" x="228.5" y="-455.2" font-family="Helvetica,sans-Serif" font-size="11.00">&lt; 2</text>
<polygon fill="#ffffff" stroke="transparent" points="258.5,-449 258.5,-467 335.5,-467 335.5,-449 258.5,-449"/>
<polygon fill="none" stroke="black" points="258.5,-449 258.5,-467 335.5,-467 335.5,-449 258.5,-449"/>
<text text-anchor="start" x="264.5" y="-455.2" font-family="Helvetica,sans-Serif" font-size="11.00">22,748 rows</text>
<polygon fill="#ffffff" stroke="transparent" points="335.5,-449 335.5,-467 365.5,-467 365.5,-449 335.5,-449"/>
<polygon fill="none" stroke="black" points="335.5,-449 335.5,-467 365.5,-467 365.5,-449 335.5,-449"/>
<text text-anchor="start" x="342.5" y="-455.2" font-family="Helvetica,sans-Serif" font-size="11.00">1 &gt;</text>
</a>
</g>
</g>
<!-- artefact_stack&#45;&gt;artefact -->
<g id="edge5" class="edge">
<title>artefact_stack:w&#45;&gt;artefact:e</title>
<path fill="none" stroke="black" d="M210.09,-475.54C174.59,-478.14 166.04,-509.66 123,-515"/>
<polygon fill="black" stroke="black" points="216.5,-475.75 224.39,-479.6 220.5,-475.87 224.5,-476 224.5,-476 224.5,-476 220.5,-475.87 224.61,-472.4 216.5,-475.75 216.5,-475.75"/>
<ellipse fill="none" stroke="black" cx="213.31" cy="-475.65" rx="3.2" ry="3.2"/>
</g>
<!-- artefact_stack&#45;&gt;artefact -->
<g id="edge6" class="edge">
<title>artefact_stack:w&#45;&gt;artefact:e</title>
<path fill="none" stroke="black" d="M210.09,-479.34C174.59,-490.98 166.04,-521.23 123,-515"/>
<polygon fill="black" stroke="black" points="216.71,-477.81 225.31,-479.51 220.6,-476.9 224.5,-476 224.5,-476 224.5,-476 220.6,-476.9 223.69,-472.49 216.71,-477.81 216.71,-477.81"/>
<ellipse fill="none" stroke="black" cx="213.59" cy="-478.53" rx="3.2" ry="3.2"/>
</g>
<!-- artefact_status -->
<g id="node7" class="node">
<title>artefact_status</title>
<g id="a_node7"><a xlink:href="../../tables/artefact_status.html" xlink:title="artefact_status" target="_top">
<polygon fill="#ffffff" stroke="transparent" points="223,-370 223,-428 368,-428 368,-370 223,-370"/>
<polygon fill="#f5f5f5" stroke="transparent" points="223.5,-406 223.5,-428 368.5,-428 368.5,-406 223.5,-406"/>
<polygon fill="none" stroke="black" points="223.5,-406 223.5,-428 368.5,-428 368.5,-406 223.5,-406"/>
<text text-anchor="start" x="228.5" y="-415.2" font-family="Helvetica,sans-Serif" font-weight="bold" font-size="11.00">artefact_status</text>
<text text-anchor="start" x="326.5" y="-414.2" font-family="Helvetica,sans-Serif" font-size="11.00">[table]</text>
<polygon fill="none" stroke="black" points="223.5,-388 223.5,-406 368.5,-406 368.5,-388 223.5,-388"/>
<text text-anchor="start" x="226.5" y="-394.2" font-family="Helvetica,sans-Serif" font-size="11.00">...</text>
<polygon fill="#ffffff" stroke="transparent" points="223.5,-370 223.5,-388 274.5,-388 274.5,-370 223.5,-370"/>
<polygon fill="none" stroke="black" points="223.5,-370 223.5,-388 274.5,-388 274.5,-370 223.5,-370"/>
<text text-anchor="start" x="226.5" y="-376.2" font-family="Helvetica,sans-Serif" font-size="11.00">&lt; 2</text>
<polygon fill="#ffffff" stroke="transparent" points="274.5,-370 274.5,-388 329.5,-388 329.5,-370 274.5,-370"/>
<polygon fill="none" stroke="black" points="274.5,-370 274.5,-388 329.5,-388 329.5,-370 274.5,-370"/>
<text text-anchor="start" x="289.5" y="-376.2" font-family="Helvetica,sans-Serif" font-size="11.00">0 rows</text>
<polygon fill="#ffffff" stroke="transparent" points="329.5,-370 329.5,-388 368.5,-388 368.5,-370 329.5,-370"/>
<polygon fill="none" stroke="black" points="329.5,-370 329.5,-388 368.5,-388 368.5,-370 329.5,-370"/>
<text text-anchor="start" x="345.5" y="-376.2" font-family="Helvetica,sans-Serif" font-size="11.00">1 &gt;</text>
</a>
</g>
</g>
<!-- artefact_status&#45;&gt;artefact -->
<g id="edge7" class="edge">
<title>artefact_status:w&#45;&gt;artefact:e</title>
<path fill="none" stroke="black" d="M207.95,-398.51C187.68,-403.27 180.68,-418.85 163,-439 137.82,-467.69 161.17,-515 123,-515"/>
<polygon fill="black" stroke="black" points="214.54,-397.83 222.87,-400.58 218.52,-397.41 222.5,-397 222.5,-397 222.5,-397 218.52,-397.41 222.13,-393.42 214.54,-397.83 214.54,-397.83"/>
<ellipse fill="none" stroke="black" cx="211.36" cy="-398.16" rx="3.2" ry="3.2"/>
</g>
<!-- roi_position -->
<g id="node8" class="node">
<title>roi_position</title>
<g id="a_node8"><a xlink:href="../../tables/roi_position.html" xlink:title="roi_position" target="_top">
<polygon fill="#ffffff" stroke="transparent" points="171,-37 171,-191 420,-191 420,-37 171,-37"/>
<polygon fill="#f5f5f5" stroke="transparent" points="173.5,-167 173.5,-189 418.5,-189 418.5,-167 173.5,-167"/>
<polygon fill="none" stroke="black" points="173.5,-167 173.5,-189 418.5,-189 418.5,-167 173.5,-167"/>
<text text-anchor="start" x="178.5" y="-176.2" font-family="Helvetica,sans-Serif" font-weight="bold" font-size="11.00">roi_position</text>
<text text-anchor="start" x="376.5" y="-175.2" font-family="Helvetica,sans-Serif" font-size="11.00">[table]</text>
<polygon fill="none" stroke="black" points="173.5,-145 173.5,-167 299.5,-167 299.5,-145 173.5,-145"/>
<image xlink:href="../../images/primaryKeys.png" width="11px" height="12px" preserveAspectRatio="xMinYMin meet" x="178.5" y="-162"/>
<text text-anchor="start" x="193.5" y="-153.2" font-family="Helvetica,sans-Serif" font-size="11.00">roi_position_id</text>
<polygon fill="none" stroke="black" points="299.5,-145 299.5,-167 418.5,-167 418.5,-145 299.5,-145"/>
<text text-anchor="start" x="302.5" y="-153.2" font-family="Helvetica,sans-Serif" font-size="11.00">int unsigned[10]</text>
<polygon fill="#ffffff" stroke="transparent" points="173.5,-123 173.5,-145 299.5,-145 299.5,-123 173.5,-123"/>
<polygon fill="none" stroke="black" points="173.5,-123 173.5,-145 299.5,-145 299.5,-123 173.5,-123"/>
<image xlink:href="../../images/foreignKeys.png" width="11px" height="12px" preserveAspectRatio="xMinYMin meet" x="178.5" y="-140"/>
<text text-anchor="start" x="193.5" y="-131.2" font-family="Helvetica,sans-Serif" font-size="11.00">artefact_id</text>
<polygon fill="none" stroke="black" points="299.5,-123 299.5,-145 418.5,-145 418.5,-123 299.5,-123"/>
<text text-anchor="start" x="302.5" y="-131.2" font-family="Helvetica,sans-Serif" font-size="11.00">int unsigned[10]</text>
<polygon fill="none" stroke="black" points="173.5,-101 173.5,-123 299.5,-123 299.5,-101 173.5,-101"/>
<text text-anchor="start" x="193.5" y="-109.2" font-family="Helvetica,sans-Serif" font-size="11.00">translate_x</text>
<polygon fill="none" stroke="black" points="299.5,-101 299.5,-123 418.5,-123 418.5,-101 299.5,-101"/>
<text text-anchor="start" x="302.5" y="-109.2" font-family="Helvetica,sans-Serif" font-size="11.00">int[10]</text>
<polygon fill="none" stroke="black" points="173.5,-79 173.5,-101 299.5,-101 299.5,-79 173.5,-79"/>
<text text-anchor="start" x="193.5" y="-87.2" font-family="Helvetica,sans-Serif" font-size="11.00">translate_y</text>
<polygon fill="none" stroke="black" points="299.5,-79 299.5,-101 418.5,-101 418.5,-79 299.5,-79"/>
<text text-anchor="start" x="302.5" y="-87.2" font-family="Helvetica,sans-Serif" font-size="11.00">int[10]</text>
<polygon fill="none" stroke="black" points="173.5,-57 173.5,-79 299.5,-79 299.5,-57 173.5,-57"/>
<text text-anchor="start" x="193.5" y="-65.2" font-family="Helvetica,sans-Serif" font-size="11.00">stance_rotation</text>
<polygon fill="none" stroke="black" points="299.5,-57 299.5,-79 418.5,-79 418.5,-57 299.5,-57"/>
<text text-anchor="start" x="302.5" y="-65.2" font-family="Helvetica,sans-Serif" font-size="11.00">smallint unsigned[5]</text>
<polygon fill="#ffffff" stroke="transparent" points="173.5,-39 173.5,-57 227.5,-57 227.5,-39 173.5,-39"/>
<polygon fill="none" stroke="black" points="173.5,-39 173.5,-57 227.5,-57 227.5,-39 173.5,-39"/>
<text text-anchor="start" x="176.5" y="-45.2" font-family="Helvetica,sans-Serif" font-size="11.00">&lt; 1</text>
<polygon fill="#ffffff" stroke="transparent" points="227.5,-39 227.5,-57 299.5,-57 299.5,-39 227.5,-39"/>
<polygon fill="none" stroke="black" points="227.5,-39 227.5,-57 299.5,-57 299.5,-39 227.5,-39"/>
<text text-anchor="start" x="259.5" y="-45.2" font-family="Helvetica,sans-Serif" font-size="11.00">0 rows</text>
<polygon fill="#ffffff" stroke="transparent" points="299.5,-39 299.5,-57 418.5,-57 418.5,-39 299.5,-39"/>
<polygon fill="none" stroke="black" points="299.5,-39 299.5,-57 418.5,-57 418.5,-39 299.5,-39"/>
<text text-anchor="start" x="395.5" y="-45.2" font-family="Helvetica,sans-Serif" font-size="11.00">1 &gt;</text>
<polygon fill="none" stroke="black" stroke-width="2" points="172,-38 172,-190 419,-190 419,-38 172,-38"/>
</a>
</g>
</g>
<!-- roi_position&#45;&gt;artefact -->
<g id="edge8" class="edge">
<title>roi_position:w&#45;&gt;artefact:e</title>
<path fill="none" stroke="black" d="M158.46,-138.54C101.89,-181.53 202.88,-515 123,-515"/>
<polygon fill="black" stroke="black" points="164.89,-136.46 173.61,-137.43 168.69,-135.23 172.5,-134 172.5,-134 172.5,-134 168.69,-135.23 171.39,-130.57 164.89,-136.46 164.89,-136.46"/>
<ellipse fill="none" stroke="black" cx="161.84" cy="-137.45" rx="3.2" ry="3.2"/>
</g>
<!-- sign_interpretation_roi -->
<g id="node9" class="node">
<title>sign_interpretation_roi</title>
<g id="a_node9"><a xlink:href="../../tables/sign_interpretation_roi.html" xlink:title="sign_interpretation_roi" target="_top">
<polygon fill="#ffffff" stroke="transparent" points="469,-170 469,-316 662,-316 662,-170 469,-170"/>
<polygon fill="#f5f5f5" stroke="transparent" points="469.5,-294 469.5,-316 662.5,-316 662.5,-294 469.5,-294"/>
<polygon fill="none" stroke="black" points="469.5,-294 469.5,-316 662.5,-316 662.5,-294 469.5,-294"/>
<text text-anchor="start" x="474.5" y="-303.2" font-family="Helvetica,sans-Serif" font-weight="bold" font-size="11.00">sign_interpretation_roi</text>
<text text-anchor="start" x="620.5" y="-302.2" font-family="Helvetica,sans-Serif" font-size="11.00">[table]</text>
<polygon fill="none" stroke="black" points="469.5,-272 469.5,-294 662.5,-294 662.5,-272 469.5,-272"/>
<image xlink:href="../../images/primaryKeys.png" width="11px" height="12px" preserveAspectRatio="xMinYMin meet" x="474.5" y="-289"/>
<text text-anchor="start" x="489.5" y="-280.2" font-family="Helvetica,sans-Serif" font-size="11.00">sign_interpretation_roi_id</text>
<polygon fill="#ffffff" stroke="transparent" points="469.5,-250 469.5,-272 662.5,-272 662.5,-250 469.5,-250"/>
<polygon fill="none" stroke="black" points="469.5,-250 469.5,-272 662.5,-272 662.5,-250 469.5,-250"/>
<image xlink:href="../../images/foreignKeys.png" width="11px" height="12px" preserveAspectRatio="xMinYMin meet" x="474.5" y="-267"/>
<text text-anchor="start" x="489.5" y="-258.2" font-family="Helvetica,sans-Serif" font-size="11.00">sign_interpretation_id</text>
<polygon fill="#ffffff" stroke="transparent" points="469.5,-228 469.5,-250 662.5,-250 662.5,-228 469.5,-228"/>
<polygon fill="none" stroke="black" points="469.5,-228 469.5,-250 662.5,-250 662.5,-228 469.5,-228"/>
<image xlink:href="../../images/foreignKeys.png" width="11px" height="12px" preserveAspectRatio="xMinYMin meet" x="474.5" y="-245"/>
<text text-anchor="start" x="489.5" y="-236.2" font-family="Helvetica,sans-Serif" font-size="11.00">roi_shape_id</text>
<polygon fill="#ffffff" stroke="transparent" points="469.5,-206 469.5,-228 662.5,-228 662.5,-206 469.5,-206"/>
<polygon fill="none" stroke="black" points="469.5,-206 469.5,-228 662.5,-228 662.5,-206 469.5,-206"/>
<image xlink:href="../../images/foreignKeys.png" width="11px" height="12px" preserveAspectRatio="xMinYMin meet" x="474.5" y="-223"/>
<text text-anchor="start" x="489.5" y="-214.2" font-family="Helvetica,sans-Serif" font-size="11.00">roi_position_id</text>
<polygon fill="none" stroke="black" points="469.5,-188 469.5,-206 662.5,-206 662.5,-188 469.5,-188"/>
<text text-anchor="start" x="472.5" y="-194.2" font-family="Helvetica,sans-Serif" font-size="11.00">...</text>
<polygon fill="#ffffff" stroke="transparent" points="469.5,-170 469.5,-188 544.5,-188 544.5,-170 469.5,-170"/>
<polygon fill="none" stroke="black" points="469.5,-170 469.5,-188 544.5,-188 544.5,-170 469.5,-170"/>
<text text-anchor="start" x="472.5" y="-176.2" font-family="Helvetica,sans-Serif" font-size="11.00">&lt; 3</text>
<polygon fill="#ffffff" stroke="transparent" points="544.5,-170 544.5,-188 611.5,-188 611.5,-170 544.5,-170"/>
<polygon fill="none" stroke="black" points="544.5,-170 544.5,-188 611.5,-188 611.5,-170 544.5,-170"/>
<text text-anchor="start" x="571.5" y="-176.2" font-family="Helvetica,sans-Serif" font-size="11.00">0 rows</text>
<polygon fill="#ffffff" stroke="transparent" points="611.5,-170 611.5,-188 662.5,-188 662.5,-170 611.5,-170"/>
<polygon fill="none" stroke="black" points="611.5,-170 611.5,-188 662.5,-188 662.5,-170 611.5,-170"/>
<text text-anchor="start" x="639.5" y="-176.2" font-family="Helvetica,sans-Serif" font-size="11.00">1 &gt;</text>
</a>
</g>
</g>
<!-- sign_interpretation_roi&#45;&gt;roi_position -->
<g id="edge9" class="edge">
<title>sign_interpretation_roi:w&#45;&gt;roi_position:e</title>
<path fill="none" stroke="black" d="M454.91,-212.21C439.15,-197.83 448.3,-156 419.5,-156"/>
<polygon fill="black" stroke="black" points="460.95,-214.34 467.3,-220.4 464.73,-215.67 468.5,-217 468.5,-217 468.5,-217 464.73,-215.67 469.7,-213.6 460.95,-214.34 460.95,-214.34"/>
<ellipse fill="none" stroke="black" cx="457.94" cy="-213.28" rx="3.2" ry="3.2"/>
</g>
<!-- roi_shape -->
<g id="node10" class="node">
<title>roi_shape</title>
<g id="a_node10"><a xlink:href="../../tables/roi_shape.html" xlink:title="roi_shape" target="_top">
<polygon fill="#ffffff" stroke="transparent" points="240.5,-212 240.5,-270 350.5,-270 350.5,-212 240.5,-212"/>
<polygon fill="#f5f5f5" stroke="transparent" points="240.5,-248 240.5,-270 350.5,-270 350.5,-248 240.5,-248"/>
<polygon fill="none" stroke="black" points="240.5,-248 240.5,-270 350.5,-270 350.5,-248 240.5,-248"/>
<text text-anchor="start" x="245.5" y="-257.2" font-family="Helvetica,sans-Serif" font-weight="bold" font-size="11.00">roi_shape</text>
<text text-anchor="start" x="308.5" y="-256.2" font-family="Helvetica,sans-Serif" font-size="11.00">[table]</text>
<polygon fill="none" stroke="black" points="240.5,-230 240.5,-248 350.5,-248 350.5,-230 240.5,-230"/>
<text text-anchor="start" x="243.5" y="-236.2" font-family="Helvetica,sans-Serif" font-size="11.00">...</text>
<polygon fill="#ffffff" stroke="transparent" points="240.5,-212 240.5,-230 267.5,-230 267.5,-212 240.5,-212"/>
<polygon fill="none" stroke="black" points="240.5,-212 240.5,-230 267.5,-230 267.5,-212 240.5,-212"/>
<text text-anchor="start" x="243.5" y="-218.2" font-family="Helvetica,sans-Serif" font-size="11.00"> &#160;</text>
<polygon fill="#ffffff" stroke="transparent" points="267.5,-212 267.5,-230 317.5,-230 317.5,-212 267.5,-212"/>
<polygon fill="none" stroke="black" points="267.5,-212 267.5,-230 317.5,-230 317.5,-212 267.5,-212"/>
<text text-anchor="start" x="277.5" y="-218.2" font-family="Helvetica,sans-Serif" font-size="11.00">0 rows</text>
<polygon fill="#ffffff" stroke="transparent" points="317.5,-212 317.5,-230 350.5,-230 350.5,-212 317.5,-212"/>
<polygon fill="none" stroke="black" points="317.5,-212 317.5,-230 350.5,-230 350.5,-212 317.5,-212"/>
<text text-anchor="start" x="327.5" y="-218.2" font-family="Helvetica,sans-Serif" font-size="11.00">1 &gt;</text>
</a>
</g>
</g>
<!-- sign_interpretation_roi&#45;&gt;roi_shape -->
<g id="edge10" class="edge">
<title>sign_interpretation_roi:w&#45;&gt;roi_shape:e</title>
<path fill="none" stroke="black" d="M454.04,-239C413.52,-239 398.32,-239 351.5,-239"/>
<polygon fill="black" stroke="black" points="460.5,-239 468.5,-242.6 464.5,-239 468.5,-239 468.5,-239 468.5,-239 464.5,-239 468.5,-235.4 460.5,-239 460.5,-239"/>
<ellipse fill="none" stroke="black" cx="457.3" cy="-239" rx="3.2" ry="3.2"/>
</g>
<!-- sign_interpretation -->
<g id="node11" class="node">
<title>sign_interpretation</title>
<g id="a_node11"><a xlink:href="../../tables/sign_interpretation.html" xlink:title="sign_interpretation" target="_top">
<polygon fill="#ffffff" stroke="transparent" points="211,-291 211,-349 380,-349 380,-291 211,-291"/>
<polygon fill="#f5f5f5" stroke="transparent" points="211.5,-327 211.5,-349 380.5,-349 380.5,-327 211.5,-327"/>
<polygon fill="none" stroke="black" points="211.5,-327 211.5,-349 380.5,-349 380.5,-327 211.5,-327"/>
<text text-anchor="start" x="216.5" y="-336.2" font-family="Helvetica,sans-Serif" font-weight="bold" font-size="11.00">sign_interpretation</text>
<text text-anchor="start" x="338.5" y="-335.2" font-family="Helvetica,sans-Serif" font-size="11.00">[table]</text>
<polygon fill="none" stroke="black" points="211.5,-309 211.5,-327 380.5,-327 380.5,-309 211.5,-309"/>
<text text-anchor="start" x="214.5" y="-315.2" font-family="Helvetica,sans-Serif" font-size="11.00">...</text>
<polygon fill="#ffffff" stroke="transparent" points="211.5,-291 211.5,-309 250.5,-309 250.5,-291 211.5,-291"/>
<polygon fill="none" stroke="black" points="211.5,-291 211.5,-309 250.5,-309 250.5,-291 211.5,-291"/>
<text text-anchor="start" x="214.5" y="-297.2" font-family="Helvetica,sans-Serif" font-size="11.00">&lt; 1</text>
<polygon fill="#ffffff" stroke="transparent" points="250.5,-291 250.5,-309 347.5,-309 347.5,-291 250.5,-291"/>
<polygon fill="none" stroke="black" points="250.5,-291 250.5,-309 347.5,-309 347.5,-291 250.5,-291"/>
<text text-anchor="start" x="259.5" y="-297.2" font-family="Helvetica,sans-Serif" font-size="11.00">1,189,027 rows</text>
<polygon fill="#ffffff" stroke="transparent" points="347.5,-291 347.5,-309 380.5,-309 380.5,-291 347.5,-291"/>
<polygon fill="none" stroke="black" points="347.5,-291 347.5,-309 380.5,-309 380.5,-291 347.5,-291"/>
<text text-anchor="start" x="357.5" y="-297.2" font-family="Helvetica,sans-Serif" font-size="11.00">5 &gt;</text>
</a>
</g>
</g>
<!-- sign_interpretation_roi&#45;&gt;sign_interpretation -->
<g id="edge11" class="edge">
<title>sign_interpretation_roi:w&#45;&gt;sign_interpretation:e</title>
<path fill="none" stroke="black" d="M454.21,-263.16C422.84,-273.58 422.31,-318 381.5,-318"/>
<polygon fill="black" stroke="black" points="460.59,-262.2 469.04,-264.56 464.55,-261.6 468.5,-261 468.5,-261 468.5,-261 464.55,-261.6 467.96,-257.44 460.59,-262.2 460.59,-262.2"/>
<ellipse fill="none" stroke="black" cx="457.43" cy="-262.68" rx="3.2" ry="3.2"/>
</g>
<!-- sign_interpretation_roi_owner -->
<g id="node12" class="node">
<title>sign_interpretation_roi_owner</title>
<g id="a_node12"><a xlink:href="../../tables/sign_interpretation_roi_owner.html" xlink:title="sign_interpretation_roi_owner" target="_top">
<polygon fill="#ffffff" stroke="transparent" points="711,-256 711,-314 945,-314 945,-256 711,-256"/>
<polygon fill="#f5f5f5" stroke="transparent" points="711,-292 711,-314 945,-314 945,-292 711,-292"/>
<polygon fill="none" stroke="black" points="711,-292 711,-314 945,-314 945,-292 711,-292"/>
<text text-anchor="start" x="716" y="-301.2" font-family="Helvetica,sans-Serif" font-weight="bold" font-size="11.00">sign_interpretation_roi_owner</text>
<text text-anchor="start" x="903" y="-300.2" font-family="Helvetica,sans-Serif" font-size="11.00">[table]</text>
<polygon fill="none" stroke="black" points="711,-274 711,-292 945,-292 945,-274 711,-274"/>
<text text-anchor="start" x="714" y="-280.2" font-family="Helvetica,sans-Serif" font-size="11.00">...</text>
<polygon fill="#ffffff" stroke="transparent" points="711,-256 711,-274 812,-274 812,-256 711,-256"/>
<polygon fill="none" stroke="black" points="711,-256 711,-274 812,-274 812,-256 711,-256"/>
<text text-anchor="start" x="714" y="-262.2" font-family="Helvetica,sans-Serif" font-size="11.00">&lt; 3</text>
<polygon fill="#ffffff" stroke="transparent" points="812,-256 812,-274 893,-274 893,-256 812,-256"/>
<polygon fill="none" stroke="black" points="812,-256 812,-274 893,-274 893,-256 812,-256"/>
<text text-anchor="start" x="853" y="-262.2" font-family="Helvetica,sans-Serif" font-size="11.00">0 rows</text>
<polygon fill="#ffffff" stroke="transparent" points="893,-256 893,-274 945,-274 945,-256 893,-256"/>
<polygon fill="none" stroke="black" points="893,-256 893,-274 945,-274 945,-256 893,-256"/>
<text text-anchor="start" x="934" y="-262.2" font-family="Helvetica,sans-Serif" font-size="11.00"> &#160;</text>
</a>
</g>
</g>
<!-- sign_interpretation_roi_owner&#45;&gt;sign_interpretation_roi -->
<g id="edge12" class="edge">
<title>sign_interpretation_roi_owner:w&#45;&gt;sign_interpretation_roi:e</title>
<path fill="none" stroke="black" d="M695.55,-283C685.2,-283 678.35,-283 663.5,-283"/>
<polygon fill="black" stroke="black" points="702,-283 710,-286.6 706,-283 710,-283 710,-283 710,-283 706,-283 710,-279.4 702,-283 702,-283"/>
<ellipse fill="none" stroke="black" cx="698.8" cy="-283" rx="3.2" ry="3.2"/>
</g>
</g>
</svg>
