<?xml version="1.0" encoding="UTF-8" standalone="no"?>
<!DOCTYPE svg PUBLIC "-//W3C//DTD SVG 1.1//EN"
 "http://www.w3.org/Graphics/SVG/1.1/DTD/svg11.dtd">
<!-- Generated by graphviz version 2.40.1 (20161225.0304)
 -->
<!-- Title: oneDegreeRelationshipsDiagram Pages: 1 -->
<svg width="456pt" height="217pt"
 viewBox="0.00 0.00 456.00 217.00" xmlns="http://www.w3.org/2000/svg" xmlns:xlink="http://www.w3.org/1999/xlink">
<g id="graph0" class="graph" transform="scale(1 1) rotate(0) translate(4 213)">
<title>oneDegreeRelationshipsDiagram</title>
<polygon fill="#ffffff" stroke="transparent" points="-4,4 -4,-213 452,-213 452,4 -4,4"/>
<text text-anchor="middle" x="71.5" y="-7.2" font-family="Helvetica,sans-Serif" font-size="11.00" fill="#000000">Generated by SchemaSpy</text>
<!-- sign_interpretation_roi -->
<g id="node1" class="node">
<title>sign_interpretation_roi</title>
<g id="a_node1"><a xlink:href="../../tables/sign_interpretation_roi.html" xlink:title="sign_interpretation_roi" target="_top">
<polygon fill="#ffffff" stroke="transparent" points="247,-37 247,-205 440,-205 440,-37 247,-37"/>
<polygon fill="#f5f5f5" stroke="transparent" points="247.5,-183 247.5,-205 440.5,-205 440.5,-183 247.5,-183"/>
<polygon fill="none" stroke="#000000" points="247.5,-183 247.5,-205 440.5,-205 440.5,-183 247.5,-183"/>
<text text-anchor="start" x="252.5" y="-192.2" font-family="Helvetica,sans-Serif" font-weight="bold" font-size="11.00" fill="#000000">sign_interpretation_roi</text>
<text text-anchor="start" x="405.5" y="-191.2" font-family="Helvetica,sans-Serif" font-size="11.00" fill="#000000">[table]</text>
<polygon fill="none" stroke="#000000" points="247.5,-161 247.5,-183 440.5,-183 440.5,-161 247.5,-161"/>
<image xlink:href="../../images/primaryKeys.png" width="11px" height="12px" preserveAspectRatio="xMinYMin meet" x="252.5" y="-178"/>
<text text-anchor="start" x="267.5" y="-169.2" font-family="Helvetica,sans-Serif" font-size="11.00" fill="#000000">sign_interpretation_roi_id</text>
<polygon fill="#ffffff" stroke="transparent" points="247.5,-139 247.5,-161 440.5,-161 440.5,-139 247.5,-139"/>
<polygon fill="none" stroke="#000000" points="247.5,-139 247.5,-161 440.5,-161 440.5,-139 247.5,-139"/>
<image xlink:href="../../images/foreignKeys.png" width="11px" height="12px" preserveAspectRatio="xMinYMin meet" x="252.5" y="-156"/>
<text text-anchor="start" x="267.5" y="-147.2" font-family="Helvetica,sans-Serif" font-size="11.00" fill="#000000">sign_interpretation_id</text>
<polygon fill="#ffffff" stroke="transparent" points="247.5,-117 247.5,-139 440.5,-139 440.5,-117 247.5,-117"/>
<polygon fill="none" stroke="#000000" points="247.5,-117 247.5,-139 440.5,-139 440.5,-117 247.5,-117"/>
<image xlink:href="../../images/foreignKeys.png" width="11px" height="12px" preserveAspectRatio="xMinYMin meet" x="252.5" y="-134"/>
<text text-anchor="start" x="267.5" y="-125.2" font-family="Helvetica,sans-Serif" font-size="11.00" fill="#000000">roi_shape_id</text>
<polygon fill="#ffffff" stroke="transparent" points="247.5,-95 247.5,-117 440.5,-117 440.5,-95 247.5,-95"/>
<polygon fill="none" stroke="#000000" points="247.5,-95 247.5,-117 440.5,-117 440.5,-95 247.5,-95"/>
<image xlink:href="../../images/foreignKeys.png" width="11px" height="12px" preserveAspectRatio="xMinYMin meet" x="252.5" y="-112"/>
<text text-anchor="start" x="267.5" y="-103.2" font-family="Helvetica,sans-Serif" font-size="11.00" fill="#000000">roi_position_id</text>
<polygon fill="#ffffff" stroke="transparent" points="247.5,-73 247.5,-95 440.5,-95 440.5,-73 247.5,-73"/>
<polygon fill="none" stroke="#000000" points="247.5,-73 247.5,-95 440.5,-95 440.5,-73 247.5,-73"/>
<image xlink:href="../../images/foreignKeys.png" width="11px" height="12px" preserveAspectRatio="xMinYMin meet" x="252.5" y="-90"/>
<text text-anchor="start" x="267.5" y="-81.2" font-family="Helvetica,sans-Serif" font-size="11.00" fill="#000000">creator_id</text>
<polygon fill="none" stroke="#000000" points="247.5,-55 247.5,-73 440.5,-73 440.5,-55 247.5,-55"/>
<text text-anchor="start" x="250.5" y="-61.2" font-family="Helvetica,sans-Serif" font-size="11.00" fill="#000000">...</text>
<polygon fill="#ffffff" stroke="transparent" points="247.5,-37 247.5,-55 324.5,-55 324.5,-37 247.5,-37"/>
<polygon fill="none" stroke="#000000" points="247.5,-37 247.5,-55 324.5,-55 324.5,-37 247.5,-37"/>
<text text-anchor="start" x="250.5" y="-43.2" font-family="Helvetica,sans-Serif" font-size="11.00" fill="#000000">&lt; 4</text>
<polygon fill="#ffffff" stroke="transparent" points="324.5,-37 324.5,-55 390.5,-55 390.5,-37 324.5,-37"/>
<polygon fill="none" stroke="#000000" points="324.5,-37 324.5,-55 390.5,-55 390.5,-37 324.5,-37"/>
<text text-anchor="start" x="354.5" y="-43.2" font-family="Helvetica,sans-Serif" font-size="11.00" fill="#000000">0 rows</text>
<polygon fill="#ffffff" stroke="transparent" points="390.5,-37 390.5,-55 440.5,-55 440.5,-37 390.5,-37"/>
<polygon fill="none" stroke="#000000" points="390.5,-37 390.5,-55 440.5,-55 440.5,-37 390.5,-37"/>
<text text-anchor="start" x="421.5" y="-43.2" font-family="Helvetica,sans-Serif" font-size="11.00" fill="#000000">1 &gt;</text>
</a>
</g>
</g>
<!-- roi_shape -->
<g id="node2" class="node">
<title>roi_shape</title>
<g id="a_node2"><a xlink:href="../../tables/roi_shape.html" xlink:title="roi_shape" target="_top">
<polygon fill="#ffffff" stroke="transparent" points="8,-75 8,-163 198,-163 198,-75 8,-75"/>
<polygon fill="#f5f5f5" stroke="transparent" points="10,-139 10,-161 196,-161 196,-139 10,-139"/>
<polygon fill="none" stroke="#000000" points="10,-139 10,-161 196,-161 196,-139 10,-139"/>
<text text-anchor="start" x="15" y="-148.2" font-family="Helvetica,sans-Serif" font-weight="bold" font-size="11.00" fill="#000000">roi_shape</text>
<text text-anchor="start" x="161" y="-147.2" font-family="Helvetica,sans-Serif" font-size="11.00" fill="#000000">[table]</text>
<polygon fill="none" stroke="#000000" points="10,-117 10,-139 114,-139 114,-117 10,-117"/>
<image xlink:href="../../images/primaryKeys.png" width="11px" height="12px" preserveAspectRatio="xMinYMin meet" x="15" y="-134"/>
<text text-anchor="start" x="30" y="-125.2" font-family="Helvetica,sans-Serif" font-size="11.00" fill="#000000">roi_shape_id</text>
<polygon fill="none" stroke="#000000" points="114,-117 114,-139 196,-139 196,-117 114,-117"/>
<text text-anchor="start" x="117" y="-125.2" font-family="Helvetica,sans-Serif" font-size="11.00" fill="#000000">int unsigned[10]</text>
<polygon fill="none" stroke="#000000" points="10,-95 10,-117 114,-117 114,-95 10,-95"/>
<text text-anchor="start" x="30" y="-103.2" font-family="Helvetica,sans-Serif" font-size="11.00" fill="#000000">path</text>
<polygon fill="none" stroke="#000000" points="114,-95 114,-117 196,-117 196,-95 114,-95"/>
<text text-anchor="start" x="117" y="-103.2" font-family="Helvetica,sans-Serif" font-size="11.00" fill="#000000">geometry[0]</text>
<polygon fill="#ffffff" stroke="transparent" points="10,-77 10,-95 53,-95 53,-77 10,-77"/>
<polygon fill="none" stroke="#000000" points="10,-77 10,-95 53,-95 53,-77 10,-77"/>
<text text-anchor="start" x="13" y="-83.2" font-family="Helvetica,sans-Serif" font-size="11.00" fill="#000000">&lt; 0</text>
<polygon fill="#ffffff" stroke="transparent" points="53,-77 53,-95 114,-95 114,-77 53,-77"/>
<polygon fill="none" stroke="#000000" points="53,-77 53,-95 114,-95 114,-77 53,-77"/>
<text text-anchor="start" x="78" y="-83.2" font-family="Helvetica,sans-Serif" font-size="11.00" fill="#000000">0 rows</text>
<polygon fill="#ffffff" stroke="transparent" points="114,-77 114,-95 196,-95 196,-77 114,-77"/>
<polygon fill="none" stroke="#000000" points="114,-77 114,-95 196,-95 196,-77 114,-77"/>
<text text-anchor="start" x="177" y="-83.2" font-family="Helvetica,sans-Serif" font-size="11.00" fill="#000000">1 &gt;</text>
<polygon fill="none" stroke="#000000" stroke-width="2" points="9,-76 9,-162 197,-162 197,-76 9,-76"/>
</a>
</g>
</g>
<!-- sign_interpretation_roi&#45;&gt;roi_shape -->
<g id="edge1" class="edge">
<title>sign_interpretation_roi:w&#45;&gt;roi_shape:e</title>
<path fill="none" stroke="#000000" d="M233.0156,-128C220.6771,-128 213.1667,-128 196,-128"/>
<polygon fill="#000000" stroke="#000000" points="239.5,-128.0001 247.5,-131.6 243.5,-128 247.5,-128 247.5,-128 247.5,-128 243.5,-128 247.5,-124.4 239.5,-128.0001 239.5,-128.0001"/>
<ellipse fill="none" stroke="#000000" cx="236.3" cy="-128.0001" rx="3.2" ry="3.2"/>
</g>
</g>
</svg>
