<?xml version="1.0" encoding="UTF-8" standalone="no"?>
<!DOCTYPE svg PUBLIC "-//W3C//DTD SVG 1.1//EN"
 "http://www.w3.org/Graphics/SVG/1.1/DTD/svg11.dtd">
<!-- Generated by graphviz version 2.40.1 (20161225.0304)
 -->
<!-- Title: twoDegreesRelationshipsDiagram Pages: 1 -->
<svg width="899pt" height="869pt"
 viewBox="0.00 0.00 899.00 868.75" xmlns="http://www.w3.org/2000/svg" xmlns:xlink="http://www.w3.org/1999/xlink">
<g id="graph0" class="graph" transform="scale(1 1) rotate(0) translate(4 864.7472)">
<title>twoDegreesRelationshipsDiagram</title>
<polygon fill="#ffffff" stroke="transparent" points="-4,4 -4,-864.7472 895,-864.7472 895,4 -4,4"/>
<text text-anchor="middle" x="71.5" y="-7.2" font-family="Helvetica,sans-Serif" font-size="11.00" fill="#000000">Generated by SchemaSpy</text>
<!-- artefact_data -->
<g id="node1" class="node">
<title>artefact_data</title>
<g id="a_node1"><a xlink:href="../../tables/artefact_data.html" xlink:title="artefact_data" target="_top">
<polygon fill="#ffffff" stroke="transparent" points="217,-149.7472 217,-207.7472 330,-207.7472 330,-149.7472 217,-149.7472"/>
<polygon fill="#f5f5f5" stroke="transparent" points="217.5,-185.7472 217.5,-207.7472 330.5,-207.7472 330.5,-185.7472 217.5,-185.7472"/>
<polygon fill="none" stroke="#000000" points="217.5,-185.7472 217.5,-207.7472 330.5,-207.7472 330.5,-185.7472 217.5,-185.7472"/>
<text text-anchor="start" x="222.5" y="-194.9472" font-family="Helvetica,sans-Serif" font-weight="bold" font-size="11.00" fill="#000000">artefact_data</text>
<text text-anchor="start" x="295.5" y="-193.9472" font-family="Helvetica,sans-Serif" font-size="11.00" fill="#000000">[table]</text>
<polygon fill="none" stroke="#000000" points="217.5,-167.7472 217.5,-185.7472 330.5,-185.7472 330.5,-167.7472 217.5,-167.7472"/>
<text text-anchor="start" x="220.5" y="-173.9472" font-family="Helvetica,sans-Serif" font-size="11.00" fill="#000000">...</text>
<polygon fill="#ffffff" stroke="transparent" points="217.5,-149.7472 217.5,-167.7472 240.5,-167.7472 240.5,-149.7472 217.5,-149.7472"/>
<polygon fill="none" stroke="#000000" points="217.5,-149.7472 217.5,-167.7472 240.5,-167.7472 240.5,-149.7472 217.5,-149.7472"/>
<text text-anchor="start" x="220.5" y="-155.9472" font-family="Helvetica,sans-Serif" font-size="11.00" fill="#000000">&lt; 2</text>
<polygon fill="#ffffff" stroke="transparent" points="240.5,-149.7472 240.5,-167.7472 307.5,-167.7472 307.5,-149.7472 240.5,-149.7472"/>
<polygon fill="none" stroke="#000000" points="240.5,-149.7472 240.5,-167.7472 307.5,-167.7472 307.5,-149.7472 240.5,-149.7472"/>
<text text-anchor="start" x="244.5" y="-155.9472" font-family="Helvetica,sans-Serif" font-size="11.00" fill="#000000">25,575 rows</text>
<polygon fill="#ffffff" stroke="transparent" points="307.5,-149.7472 307.5,-167.7472 330.5,-167.7472 330.5,-149.7472 307.5,-149.7472"/>
<polygon fill="none" stroke="#000000" points="307.5,-149.7472 307.5,-167.7472 330.5,-167.7472 330.5,-149.7472 307.5,-149.7472"/>
<text text-anchor="start" x="311.5" y="-155.9472" font-family="Helvetica,sans-Serif" font-size="11.00" fill="#000000">1 &gt;</text>
</a>
</g>
</g>
<!-- artefact -->
<g id="node2" class="node">
<title>artefact</title>
<g id="a_node2"><a xlink:href="../../tables/artefact.html" xlink:title="artefact" target="_top">
<polygon fill="#ffffff" stroke="transparent" points="8,-345.7472 8,-407.7472 109,-407.7472 109,-345.7472 8,-345.7472"/>
<polygon fill="#f5f5f5" stroke="transparent" points="8.5,-385.7472 8.5,-407.7472 109.5,-407.7472 109.5,-385.7472 8.5,-385.7472"/>
<polygon fill="none" stroke="#000000" points="8.5,-385.7472 8.5,-407.7472 109.5,-407.7472 109.5,-385.7472 8.5,-385.7472"/>
<text text-anchor="start" x="13.5" y="-394.9472" font-family="Helvetica,sans-Serif" font-weight="bold" font-size="11.00" fill="#000000">artefact</text>
<text text-anchor="start" x="74.5" y="-393.9472" font-family="Helvetica,sans-Serif" font-size="11.00" fill="#000000">[table]</text>
<polygon fill="none" stroke="#000000" points="8.5,-363.7472 8.5,-385.7472 109.5,-385.7472 109.5,-363.7472 8.5,-363.7472"/>
<image xlink:href="../../images/primaryKeys.png" width="11px" height="12px" preserveAspectRatio="xMinYMin meet" x="13.5" y="-380.747"/>
<text text-anchor="start" x="32.5" y="-371.9472" font-family="Helvetica,sans-Serif" font-size="11.00" fill="#000000">artefact_id</text>
<polygon fill="#ffffff" stroke="transparent" points="8.5,-345.7472 8.5,-363.7472 21.5,-363.7472 21.5,-345.7472 8.5,-345.7472"/>
<polygon fill="none" stroke="#000000" points="8.5,-345.7472 8.5,-363.7472 21.5,-363.7472 21.5,-345.7472 8.5,-345.7472"/>
<text text-anchor="start" x="11.5" y="-351.9472" font-family="Helvetica,sans-Serif" font-size="11.00" fill="#000000"> &#160;</text>
<polygon fill="#ffffff" stroke="transparent" points="21.5,-345.7472 21.5,-363.7472 87.5,-363.7472 87.5,-345.7472 21.5,-345.7472"/>
<polygon fill="none" stroke="#000000" points="21.5,-345.7472 21.5,-363.7472 87.5,-363.7472 87.5,-345.7472 21.5,-345.7472"/>
<text text-anchor="start" x="24.5" y="-351.9472" font-family="Helvetica,sans-Serif" font-size="11.00" fill="#000000">26,982 rows</text>
<polygon fill="#ffffff" stroke="transparent" points="87.5,-345.7472 87.5,-363.7472 109.5,-363.7472 109.5,-345.7472 87.5,-345.7472"/>
<polygon fill="none" stroke="#000000" points="87.5,-345.7472 87.5,-363.7472 109.5,-363.7472 109.5,-345.7472 87.5,-345.7472"/>
<text text-anchor="start" x="90.5" y="-351.9472" font-family="Helvetica,sans-Serif" font-size="11.00" fill="#000000">8 &gt;</text>
</a>
</g>
</g>
<!-- artefact_data&#45;&gt;artefact -->
<g id="edge1" class="edge">
<title>artefact_data:w&#45;&gt;artefact:e</title>
<path fill="none" stroke="#000000" d="M202.986,-177.6487C178.6841,-181.0095 167.7375,-193.8593 150,-217.7472 107.0399,-275.6036 181.562,-374.7472 109.5,-374.7472"/>
<polygon fill="#000000" stroke="#000000" points="209.5154,-177.2432 217.7232,-180.3403 213.5077,-176.9952 217.5,-176.7472 217.5,-176.7472 217.5,-176.7472 213.5077,-176.9952 217.2768,-173.1541 209.5154,-177.2432 209.5154,-177.2432"/>
<ellipse fill="none" stroke="#000000" cx="206.3215" cy="-177.4416" rx="3.2" ry="3.2"/>
</g>
<!-- user -->
<g id="node3" class="node">
<title>user</title>
<g id="a_node3"><a xlink:href="../../tables/user.html" xlink:title="user" target="_top">
<polygon fill="#ffffff" stroke="transparent" points="18.5,-228.7472 18.5,-286.7472 98.5,-286.7472 98.5,-228.7472 18.5,-228.7472"/>
<polygon fill="#f5f5f5" stroke="transparent" points="18.5,-264.7472 18.5,-286.7472 98.5,-286.7472 98.5,-264.7472 18.5,-264.7472"/>
<polygon fill="none" stroke="#000000" points="18.5,-264.7472 18.5,-286.7472 98.5,-286.7472 98.5,-264.7472 18.5,-264.7472"/>
<text text-anchor="start" x="23.5" y="-273.9472" font-family="Helvetica,sans-Serif" font-weight="bold" font-size="11.00" fill="#000000">user</text>
<text text-anchor="start" x="63.5" y="-272.9472" font-family="Helvetica,sans-Serif" font-size="11.00" fill="#000000">[table]</text>
<polygon fill="none" stroke="#000000" points="18.5,-246.7472 18.5,-264.7472 98.5,-264.7472 98.5,-246.7472 18.5,-246.7472"/>
<text text-anchor="start" x="21.5" y="-252.9472" font-family="Helvetica,sans-Serif" font-size="11.00" fill="#000000">...</text>
<polygon fill="#ffffff" stroke="transparent" points="18.5,-228.7472 18.5,-246.7472 31.5,-246.7472 31.5,-228.7472 18.5,-228.7472"/>
<polygon fill="none" stroke="#000000" points="18.5,-228.7472 18.5,-246.7472 31.5,-246.7472 31.5,-228.7472 18.5,-228.7472"/>
<text text-anchor="start" x="21.5" y="-234.9472" font-family="Helvetica,sans-Serif" font-size="11.00" fill="#000000"> &#160;</text>
<polygon fill="#ffffff" stroke="transparent" points="31.5,-228.7472 31.5,-246.7472 70.5,-246.7472 70.5,-228.7472 31.5,-228.7472"/>
<polygon fill="none" stroke="#000000" points="31.5,-228.7472 31.5,-246.7472 70.5,-246.7472 70.5,-228.7472 31.5,-228.7472"/>
<text text-anchor="start" x="34.5" y="-234.9472" font-family="Helvetica,sans-Serif" font-size="11.00" fill="#000000">3 rows</text>
<polygon fill="#ffffff" stroke="transparent" points="70.5,-228.7472 70.5,-246.7472 98.5,-246.7472 98.5,-228.7472 70.5,-228.7472"/>
<polygon fill="none" stroke="#000000" points="70.5,-228.7472 70.5,-246.7472 98.5,-246.7472 98.5,-228.7472 70.5,-228.7472"/>
<text text-anchor="start" x="73.5" y="-234.9472" font-family="Helvetica,sans-Serif" font-size="11.00" fill="#000000">40 &gt;</text>
</a>
</g>
</g>
<!-- artefact_data&#45;&gt;user -->
<g id="edge2" class="edge">
<title>artefact_data:w&#45;&gt;user:e</title>
<path fill="none" stroke="#000000" d="M203.1592,-178.2291C180.752,-183.4037 174.5966,-201.2511 150,-217.7472 126.3758,-233.5912 126.9453,-255.7472 98.5,-255.7472"/>
<polygon fill="#000000" stroke="#000000" points="209.5424,-177.5696 217.8701,-180.3281 213.5212,-177.1584 217.5,-176.7472 217.5,-176.7472 217.5,-176.7472 213.5212,-177.1584 217.1299,-173.1663 209.5424,-177.5696 209.5424,-177.5696"/>
<ellipse fill="none" stroke="#000000" cx="206.3593" cy="-177.8985" rx="3.2" ry="3.2"/>
</g>
<!-- artefact_group_member -->
<g id="node4" class="node">
<title>artefact_group_member</title>
<g id="a_node4"><a xlink:href="../../tables/artefact_group_member.html" xlink:title="artefact_group_member" target="_top">
<polygon fill="#ffffff" stroke="transparent" points="188,-386.7472 188,-444.7472 359,-444.7472 359,-386.7472 188,-386.7472"/>
<polygon fill="#f5f5f5" stroke="transparent" points="188.5,-422.7472 188.5,-444.7472 359.5,-444.7472 359.5,-422.7472 188.5,-422.7472"/>
<polygon fill="none" stroke="#000000" points="188.5,-422.7472 188.5,-444.7472 359.5,-444.7472 359.5,-422.7472 188.5,-422.7472"/>
<text text-anchor="start" x="193.5" y="-431.9472" font-family="Helvetica,sans-Serif" font-weight="bold" font-size="11.00" fill="#000000">artefact_group_member</text>
<text text-anchor="start" x="324.5" y="-430.9472" font-family="Helvetica,sans-Serif" font-size="11.00" fill="#000000">[table]</text>
<polygon fill="none" stroke="#000000" points="188.5,-404.7472 188.5,-422.7472 359.5,-422.7472 359.5,-404.7472 188.5,-404.7472"/>
<text text-anchor="start" x="191.5" y="-410.9472" font-family="Helvetica,sans-Serif" font-size="11.00" fill="#000000">...</text>
<polygon fill="#ffffff" stroke="transparent" points="188.5,-386.7472 188.5,-404.7472 254.5,-404.7472 254.5,-386.7472 188.5,-386.7472"/>
<polygon fill="none" stroke="#000000" points="188.5,-386.7472 188.5,-404.7472 254.5,-404.7472 254.5,-386.7472 188.5,-386.7472"/>
<text text-anchor="start" x="191.5" y="-392.9472" font-family="Helvetica,sans-Serif" font-size="11.00" fill="#000000">&lt; 3</text>
<polygon fill="#ffffff" stroke="transparent" points="254.5,-386.7472 254.5,-404.7472 315.5,-404.7472 315.5,-386.7472 254.5,-386.7472"/>
<polygon fill="none" stroke="#000000" points="254.5,-386.7472 254.5,-404.7472 315.5,-404.7472 315.5,-386.7472 254.5,-386.7472"/>
<text text-anchor="start" x="279.5" y="-392.9472" font-family="Helvetica,sans-Serif" font-size="11.00" fill="#000000">0 rows</text>
<polygon fill="#ffffff" stroke="transparent" points="315.5,-386.7472 315.5,-404.7472 359.5,-404.7472 359.5,-386.7472 315.5,-386.7472"/>
<polygon fill="none" stroke="#000000" points="315.5,-386.7472 315.5,-404.7472 359.5,-404.7472 359.5,-386.7472 315.5,-386.7472"/>
<text text-anchor="start" x="340.5" y="-392.9472" font-family="Helvetica,sans-Serif" font-size="11.00" fill="#000000">1 &gt;</text>
</a>
</g>
</g>
<!-- artefact_group_member&#45;&gt;artefact -->
<g id="edge3" class="edge">
<title>artefact_group_member:w&#45;&gt;artefact:e</title>
<path fill="none" stroke="#000000" d="M174.0491,-411.6504C148.3895,-403.5497 143.1502,-374.7472 109.5,-374.7472"/>
<polygon fill="#000000" stroke="#000000" points="180.5829,-412.5984 187.983,-417.3099 184.5415,-413.1728 188.5,-413.7472 188.5,-413.7472 188.5,-413.7472 184.5415,-413.1728 189.017,-410.1845 180.5829,-412.5984 180.5829,-412.5984"/>
<ellipse fill="none" stroke="#000000" cx="177.4161" cy="-412.1389" rx="3.2" ry="3.2"/>
</g>
<!-- artefact_group_member&#45;&gt;user -->
<g id="edge4" class="edge">
<title>artefact_group_member:w&#45;&gt;user:e</title>
<path fill="none" stroke="#000000" d="M173.9662,-411.6332C116.7653,-392.884 173.7911,-255.7472 98.5,-255.7472"/>
<polygon fill="#000000" stroke="#000000" points="180.5833,-412.5956 187.9818,-417.3097 184.5417,-413.1714 188.5,-413.7472 188.5,-413.7472 188.5,-413.7472 184.5417,-413.1714 189.0182,-410.1847 180.5833,-412.5956 180.5833,-412.5956"/>
<ellipse fill="none" stroke="#000000" cx="177.4166" cy="-412.135" rx="3.2" ry="3.2"/>
</g>
<!-- artefact_position -->
<g id="node5" class="node">
<title>artefact_position</title>
<g id="a_node5"><a xlink:href="../../tables/artefact_position.html" xlink:title="artefact_position" target="_top">
<polygon fill="#ffffff" stroke="transparent" points="207,-70.7472 207,-128.7472 340,-128.7472 340,-70.7472 207,-70.7472"/>
<polygon fill="#f5f5f5" stroke="transparent" points="207.5,-106.7472 207.5,-128.7472 340.5,-128.7472 340.5,-106.7472 207.5,-106.7472"/>
<polygon fill="none" stroke="#000000" points="207.5,-106.7472 207.5,-128.7472 340.5,-128.7472 340.5,-106.7472 207.5,-106.7472"/>
<text text-anchor="start" x="212.5" y="-115.9472" font-family="Helvetica,sans-Serif" font-weight="bold" font-size="11.00" fill="#000000">artefact_position</text>
<text text-anchor="start" x="305.5" y="-114.9472" font-family="Helvetica,sans-Serif" font-size="11.00" fill="#000000">[table]</text>
<polygon fill="none" stroke="#000000" points="207.5,-88.7472 207.5,-106.7472 340.5,-106.7472 340.5,-88.7472 207.5,-88.7472"/>
<text text-anchor="start" x="210.5" y="-94.9472" font-family="Helvetica,sans-Serif" font-size="11.00" fill="#000000">...</text>
<polygon fill="#ffffff" stroke="transparent" points="207.5,-70.7472 207.5,-88.7472 254.5,-88.7472 254.5,-70.7472 207.5,-70.7472"/>
<polygon fill="none" stroke="#000000" points="207.5,-70.7472 207.5,-88.7472 254.5,-88.7472 254.5,-70.7472 207.5,-70.7472"/>
<text text-anchor="start" x="210.5" y="-76.9472" font-family="Helvetica,sans-Serif" font-size="11.00" fill="#000000">&lt; 2</text>
<polygon fill="#ffffff" stroke="transparent" points="254.5,-70.7472 254.5,-88.7472 305.5,-88.7472 305.5,-70.7472 254.5,-70.7472"/>
<polygon fill="none" stroke="#000000" points="254.5,-70.7472 254.5,-88.7472 305.5,-88.7472 305.5,-70.7472 254.5,-70.7472"/>
<text text-anchor="start" x="269.5" y="-76.9472" font-family="Helvetica,sans-Serif" font-size="11.00" fill="#000000">0 rows</text>
<polygon fill="#ffffff" stroke="transparent" points="305.5,-70.7472 305.5,-88.7472 340.5,-88.7472 340.5,-70.7472 305.5,-70.7472"/>
<polygon fill="none" stroke="#000000" points="305.5,-70.7472 305.5,-88.7472 340.5,-88.7472 340.5,-70.7472 305.5,-70.7472"/>
<text text-anchor="start" x="321.5" y="-76.9472" font-family="Helvetica,sans-Serif" font-size="11.00" fill="#000000">1 &gt;</text>
</a>
</g>
</g>
<!-- artefact_position&#45;&gt;artefact -->
<g id="edge5" class="edge">
<title>artefact_position:w&#45;&gt;artefact:e</title>
<path fill="none" stroke="#000000" d="M193.1142,-99.0136C172.6592,-103.0628 163.8213,-116.7343 150,-138.7472 121.7052,-183.8118 162.7111,-374.7472 109.5,-374.7472"/>
<polygon fill="#000000" stroke="#000000" points="199.5308,-98.4488 207.8157,-101.3333 203.5154,-98.098 207.5,-97.7472 207.5,-97.7472 207.5,-97.7472 203.5154,-98.098 207.1843,-94.1611 199.5308,-98.4488 199.5308,-98.4488"/>
<ellipse fill="none" stroke="#000000" cx="196.3431" cy="-98.7294" rx="3.2" ry="3.2"/>
</g>
<!-- artefact_position&#45;&gt;user -->
<g id="edge6" class="edge">
<title>artefact_position:w&#45;&gt;user:e</title>
<path fill="none" stroke="#000000" d="M193.0639,-99.2423C173.4796,-103.8398 166.3271,-118.6807 150,-138.7472 114.1426,-182.817 155.3146,-255.7472 98.5,-255.7472"/>
<polygon fill="#000000" stroke="#000000" points="199.5426,-98.5714 207.8709,-101.3281 203.5213,-98.1593 207.5,-97.7472 207.5,-97.7472 207.5,-97.7472 203.5213,-98.1593 207.1291,-94.1664 199.5426,-98.5714 199.5426,-98.5714"/>
<ellipse fill="none" stroke="#000000" cx="196.3596" cy="-98.9011" rx="3.2" ry="3.2"/>
</g>
<!-- artefact_shape -->
<g id="node6" class="node">
<title>artefact_shape</title>
<g id="a_node6"><a xlink:href="../../tables/artefact_shape.html" xlink:title="artefact_shape" target="_top">
<polygon fill="#ffffff" stroke="transparent" points="212.5,-228.7472 212.5,-286.7472 334.5,-286.7472 334.5,-228.7472 212.5,-228.7472"/>
<polygon fill="#f5f5f5" stroke="transparent" points="212.5,-264.7472 212.5,-286.7472 334.5,-286.7472 334.5,-264.7472 212.5,-264.7472"/>
<polygon fill="none" stroke="#000000" points="212.5,-264.7472 212.5,-286.7472 334.5,-286.7472 334.5,-264.7472 212.5,-264.7472"/>
<text text-anchor="start" x="217.5" y="-273.9472" font-family="Helvetica,sans-Serif" font-weight="bold" font-size="11.00" fill="#000000">artefact_shape</text>
<text text-anchor="start" x="299.5" y="-272.9472" font-family="Helvetica,sans-Serif" font-size="11.00" fill="#000000">[table]</text>
<polygon fill="none" stroke="#000000" points="212.5,-246.7472 212.5,-264.7472 334.5,-264.7472 334.5,-246.7472 212.5,-246.7472"/>
<text text-anchor="start" x="215.5" y="-252.9472" font-family="Helvetica,sans-Serif" font-size="11.00" fill="#000000">...</text>
<polygon fill="#ffffff" stroke="transparent" points="212.5,-228.7472 212.5,-246.7472 240.5,-246.7472 240.5,-228.7472 212.5,-228.7472"/>
<polygon fill="none" stroke="#000000" points="212.5,-228.7472 212.5,-246.7472 240.5,-246.7472 240.5,-228.7472 212.5,-228.7472"/>
<text text-anchor="start" x="215.5" y="-234.9472" font-family="Helvetica,sans-Serif" font-size="11.00" fill="#000000">&lt; 3</text>
<polygon fill="#ffffff" stroke="transparent" points="240.5,-228.7472 240.5,-246.7472 309.5,-246.7472 309.5,-228.7472 240.5,-228.7472"/>
<polygon fill="none" stroke="#000000" points="240.5,-228.7472 240.5,-246.7472 309.5,-246.7472 309.5,-228.7472 240.5,-228.7472"/>
<text text-anchor="start" x="246.5" y="-234.9472" font-family="Helvetica,sans-Serif" font-size="11.00" fill="#000000">23,787 rows</text>
<polygon fill="#ffffff" stroke="transparent" points="309.5,-228.7472 309.5,-246.7472 334.5,-246.7472 334.5,-228.7472 309.5,-228.7472"/>
<polygon fill="none" stroke="#000000" points="309.5,-228.7472 309.5,-246.7472 334.5,-246.7472 334.5,-228.7472 309.5,-228.7472"/>
<text text-anchor="start" x="315.5" y="-234.9472" font-family="Helvetica,sans-Serif" font-size="11.00" fill="#000000">1 &gt;</text>
</a>
</g>
</g>
<!-- artefact_shape&#45;&gt;artefact -->
<g id="edge7" class="edge">
<title>artefact_shape:w&#45;&gt;artefact:e</title>
<path fill="none" stroke="#000000" d="M198.0822,-257.0316C176.5674,-261.3343 168.6138,-276.1378 150,-296.7472 123.8187,-325.7354 148.5612,-374.7472 109.5,-374.7472"/>
<polygon fill="#000000" stroke="#000000" points="204.5316,-256.4571 212.8195,-259.333 208.5158,-256.1022 212.5,-255.7472 212.5,-255.7472 212.5,-255.7472 208.5158,-256.1022 212.1805,-252.1614 204.5316,-256.4571 204.5316,-256.4571"/>
<ellipse fill="none" stroke="#000000" cx="201.3442" cy="-256.7411" rx="3.2" ry="3.2"/>
</g>
<!-- artefact_shape&#45;&gt;user -->
<g id="edge8" class="edge">
<title>artefact_shape:w&#45;&gt;user:e</title>
<path fill="none" stroke="#000000" d="M197.9029,-255.7472C158.8037,-255.7472 143.9219,-255.7472 98.5,-255.7472"/>
<polygon fill="#000000" stroke="#000000" points="204.5,-255.7473 212.5,-259.3472 208.5,-255.7472 212.5,-255.7472 212.5,-255.7472 212.5,-255.7472 208.5,-255.7472 212.5,-252.1472 204.5,-255.7473 204.5,-255.7473"/>
<ellipse fill="none" stroke="#000000" cx="201.3" cy="-255.7473" rx="3.2" ry="3.2"/>
</g>
<!-- artefact_stack -->
<g id="node7" class="node">
<title>artefact_stack</title>
<g id="a_node7"><a xlink:href="../../tables/artefact_stack.html" xlink:title="artefact_stack" target="_top">
<polygon fill="#ffffff" stroke="transparent" points="214.5,-465.7472 214.5,-523.7472 332.5,-523.7472 332.5,-465.7472 214.5,-465.7472"/>
<polygon fill="#f5f5f5" stroke="transparent" points="214.5,-501.7472 214.5,-523.7472 332.5,-523.7472 332.5,-501.7472 214.5,-501.7472"/>
<polygon fill="none" stroke="#000000" points="214.5,-501.7472 214.5,-523.7472 332.5,-523.7472 332.5,-501.7472 214.5,-501.7472"/>
<text text-anchor="start" x="219.5" y="-510.9472" font-family="Helvetica,sans-Serif" font-weight="bold" font-size="11.00" fill="#000000">artefact_stack</text>
<text text-anchor="start" x="297.5" y="-509.9472" font-family="Helvetica,sans-Serif" font-size="11.00" fill="#000000">[table]</text>
<polygon fill="none" stroke="#000000" points="214.5,-483.7472 214.5,-501.7472 332.5,-501.7472 332.5,-483.7472 214.5,-483.7472"/>
<text text-anchor="start" x="217.5" y="-489.9472" font-family="Helvetica,sans-Serif" font-size="11.00" fill="#000000">...</text>
<polygon fill="#ffffff" stroke="transparent" points="214.5,-465.7472 214.5,-483.7472 240.5,-483.7472 240.5,-465.7472 214.5,-465.7472"/>
<polygon fill="none" stroke="#000000" points="214.5,-465.7472 214.5,-483.7472 240.5,-483.7472 240.5,-465.7472 214.5,-465.7472"/>
<text text-anchor="start" x="217.5" y="-471.9472" font-family="Helvetica,sans-Serif" font-size="11.00" fill="#000000">&lt; 3</text>
<polygon fill="#ffffff" stroke="transparent" points="240.5,-465.7472 240.5,-483.7472 308.5,-483.7472 308.5,-465.7472 240.5,-465.7472"/>
<polygon fill="none" stroke="#000000" points="240.5,-465.7472 240.5,-483.7472 308.5,-483.7472 308.5,-465.7472 240.5,-465.7472"/>
<text text-anchor="start" x="245.5" y="-471.9472" font-family="Helvetica,sans-Serif" font-size="11.00" fill="#000000">22,700 rows</text>
<polygon fill="#ffffff" stroke="transparent" points="308.5,-465.7472 308.5,-483.7472 332.5,-483.7472 332.5,-465.7472 308.5,-465.7472"/>
<polygon fill="none" stroke="#000000" points="308.5,-465.7472 308.5,-483.7472 332.5,-483.7472 332.5,-465.7472 308.5,-465.7472"/>
<text text-anchor="start" x="313.5" y="-471.9472" font-family="Helvetica,sans-Serif" font-size="11.00" fill="#000000">1 &gt;</text>
</a>
</g>
</g>
<!-- artefact_stack&#45;&gt;artefact -->
<g id="edge9" class="edge">
<title>artefact_stack:w&#45;&gt;artefact:e</title>
<path fill="none" stroke="#000000" d="M200.2623,-489.2577C178.1504,-482.0776 169.1189,-469.1258 150,-448.7472 122.7329,-419.6835 149.3522,-368.7472 109.5,-374.7472"/>
<polygon fill="#000000" stroke="#000000" points="206.73,-490.8428 213.643,-496.2437 210.615,-491.795 214.5,-492.7472 214.5,-492.7472 214.5,-492.7472 210.615,-491.795 215.357,-489.2507 206.73,-490.8428 206.73,-490.8428"/>
<ellipse fill="none" stroke="#000000" cx="203.622" cy="-490.0811" rx="3.2" ry="3.2"/>
</g>
<!-- artefact_stack&#45;&gt;artefact -->
<g id="edge10" class="edge">
<title>artefact_stack:w&#45;&gt;artefact:e</title>
<path fill="none" stroke="#000000" d="M199.9546,-494.5632C178.0662,-494.9569 169.0299,-482.031 150,-461.7472 122.7329,-432.6835 149.3522,-381.7472 109.5,-374.7472"/>
<polygon fill="#000000" stroke="#000000" points="206.5616,-493.7384 214.946,-496.3195 210.5308,-493.2428 214.5,-492.7472 214.5,-492.7472 214.5,-492.7472 210.5308,-493.2428 214.054,-489.1749 206.5616,-493.7384 206.5616,-493.7384"/>
<ellipse fill="none" stroke="#000000" cx="203.3863" cy="-494.1348" rx="3.2" ry="3.2"/>
</g>
<!-- artefact_stack&#45;&gt;user -->
<g id="edge11" class="edge">
<title>artefact_stack:w&#45;&gt;user:e</title>
<path fill="none" stroke="#000000" d="M200.0852,-491.8525C177.4133,-488.698 166.8176,-477.0628 150,-454.7472 95.016,-381.7878 189.8582,-255.7472 98.5,-255.7472"/>
<polygon fill="#000000" stroke="#000000" points="206.5154,-492.2516 214.277,-496.3403 210.5077,-492.4994 214.5,-492.7472 214.5,-492.7472 214.5,-492.7472 210.5077,-492.4994 214.723,-489.1541 206.5154,-492.2516 206.5154,-492.2516"/>
<ellipse fill="none" stroke="#000000" cx="203.3215" cy="-492.0533" rx="3.2" ry="3.2"/>
</g>
<!-- artefact_status -->
<g id="node8" class="node">
<title>artefact_status</title>
<g id="a_node8"><a xlink:href="../../tables/artefact_status.html" xlink:title="artefact_status" target="_top">
<polygon fill="#ffffff" stroke="transparent" points="212,-307.7472 212,-365.7472 335,-365.7472 335,-307.7472 212,-307.7472"/>
<polygon fill="#f5f5f5" stroke="transparent" points="212.5,-343.7472 212.5,-365.7472 335.5,-365.7472 335.5,-343.7472 212.5,-343.7472"/>
<polygon fill="none" stroke="#000000" points="212.5,-343.7472 212.5,-365.7472 335.5,-365.7472 335.5,-343.7472 212.5,-343.7472"/>
<text text-anchor="start" x="217.5" y="-352.9472" font-family="Helvetica,sans-Serif" font-weight="bold" font-size="11.00" fill="#000000">artefact_status</text>
<text text-anchor="start" x="300.5" y="-351.9472" font-family="Helvetica,sans-Serif" font-size="11.00" fill="#000000">[table]</text>
<polygon fill="none" stroke="#000000" points="212.5,-325.7472 212.5,-343.7472 335.5,-343.7472 335.5,-325.7472 212.5,-325.7472"/>
<text text-anchor="start" x="215.5" y="-331.9472" font-family="Helvetica,sans-Serif" font-size="11.00" fill="#000000">...</text>
<polygon fill="#ffffff" stroke="transparent" points="212.5,-307.7472 212.5,-325.7472 254.5,-325.7472 254.5,-307.7472 212.5,-307.7472"/>
<polygon fill="none" stroke="#000000" points="212.5,-307.7472 212.5,-325.7472 254.5,-325.7472 254.5,-307.7472 212.5,-307.7472"/>
<text text-anchor="start" x="215.5" y="-313.9472" font-family="Helvetica,sans-Serif" font-size="11.00" fill="#000000">&lt; 3</text>
<polygon fill="#ffffff" stroke="transparent" points="254.5,-307.7472 254.5,-325.7472 303.5,-325.7472 303.5,-307.7472 254.5,-307.7472"/>
<polygon fill="none" stroke="#000000" points="254.5,-307.7472 254.5,-325.7472 303.5,-325.7472 303.5,-307.7472 254.5,-307.7472"/>
<text text-anchor="start" x="267.5" y="-313.9472" font-family="Helvetica,sans-Serif" font-size="11.00" fill="#000000">0 rows</text>
<polygon fill="#ffffff" stroke="transparent" points="303.5,-307.7472 303.5,-325.7472 335.5,-325.7472 335.5,-307.7472 303.5,-307.7472"/>
<polygon fill="none" stroke="#000000" points="303.5,-307.7472 303.5,-325.7472 335.5,-325.7472 335.5,-307.7472 303.5,-307.7472"/>
<text text-anchor="start" x="316.5" y="-313.9472" font-family="Helvetica,sans-Serif" font-size="11.00" fill="#000000">1 &gt;</text>
</a>
</g>
</g>
<!-- artefact_status&#45;&gt;artefact -->
<g id="edge12" class="edge">
<title>artefact_status:w&#45;&gt;artefact:e</title>
<path fill="none" stroke="#000000" d="M197.861,-336.0781C161.8149,-343.0187 153.2373,-374.7472 109.5,-374.7472"/>
<polygon fill="#000000" stroke="#000000" points="204.5329,-335.4716 212.826,-338.3324 208.5164,-335.1094 212.5,-334.7472 212.5,-334.7472 212.5,-334.7472 208.5164,-335.1094 212.174,-331.162 204.5329,-335.4716 204.5329,-335.4716"/>
<ellipse fill="none" stroke="#000000" cx="201.346" cy="-335.7613" rx="3.2" ry="3.2"/>
</g>
<!-- artefact_status&#45;&gt;user -->
<g id="edge13" class="edge">
<title>artefact_status:w&#45;&gt;user:e</title>
<path fill="none" stroke="#000000" d="M198.0567,-333.1309C178.1564,-328.1036 172.0766,-312.1548 150,-296.7472 126.0085,-280.0032 127.7566,-255.7472 98.5,-255.7472"/>
<polygon fill="#000000" stroke="#000000" points="204.5496,-333.8575 212.0996,-338.3249 208.5248,-334.3023 212.5,-334.7472 212.5,-334.7472 212.5,-334.7472 208.5248,-334.3023 212.9004,-331.1695 204.5496,-333.8575 204.5496,-333.8575"/>
<ellipse fill="none" stroke="#000000" cx="201.3695" cy="-333.5015" rx="3.2" ry="3.2"/>
</g>
<!-- roi_position -->
<g id="node9" class="node">
<title>roi_position</title>
<g id="a_node9"><a xlink:href="../../tables/roi_position.html" xlink:title="roi_position" target="_top">
<polygon fill="#ffffff" stroke="transparent" points="158,-544.7472 158,-698.7472 389,-698.7472 389,-544.7472 158,-544.7472"/>
<polygon fill="#f5f5f5" stroke="transparent" points="160.5,-674.7472 160.5,-696.7472 387.5,-696.7472 387.5,-674.7472 160.5,-674.7472"/>
<polygon fill="none" stroke="#000000" points="160.5,-674.7472 160.5,-696.7472 387.5,-696.7472 387.5,-674.7472 160.5,-674.7472"/>
<text text-anchor="start" x="165.5" y="-683.9472" font-family="Helvetica,sans-Serif" font-weight="bold" font-size="11.00" fill="#000000">roi_position</text>
<text text-anchor="start" x="352.5" y="-682.9472" font-family="Helvetica,sans-Serif" font-size="11.00" fill="#000000">[table]</text>
<polygon fill="none" stroke="#000000" points="160.5,-652.7472 160.5,-674.7472 286.5,-674.7472 286.5,-652.7472 160.5,-652.7472"/>
<image xlink:href="../../images/primaryKeys.png" width="11px" height="12px" preserveAspectRatio="xMinYMin meet" x="165.5" y="-669.747"/>
<text text-anchor="start" x="180.5" y="-660.9472" font-family="Helvetica,sans-Serif" font-size="11.00" fill="#000000">roi_position_id</text>
<polygon fill="none" stroke="#000000" points="286.5,-652.7472 286.5,-674.7472 387.5,-674.7472 387.5,-652.7472 286.5,-652.7472"/>
<text text-anchor="start" x="289.5" y="-660.9472" font-family="Helvetica,sans-Serif" font-size="11.00" fill="#000000">int unsigned[10]</text>
<polygon fill="#ffffff" stroke="transparent" points="160.5,-630.7472 160.5,-652.7472 286.5,-652.7472 286.5,-630.7472 160.5,-630.7472"/>
<polygon fill="none" stroke="#000000" points="160.5,-630.7472 160.5,-652.7472 286.5,-652.7472 286.5,-630.7472 160.5,-630.7472"/>
<image xlink:href="../../images/foreignKeys.png" width="11px" height="12px" preserveAspectRatio="xMinYMin meet" x="165.5" y="-647.747"/>
<text text-anchor="start" x="180.5" y="-638.9472" font-family="Helvetica,sans-Serif" font-size="11.00" fill="#000000">artefact_id</text>
<polygon fill="none" stroke="#000000" points="286.5,-630.7472 286.5,-652.7472 387.5,-652.7472 387.5,-630.7472 286.5,-630.7472"/>
<text text-anchor="start" x="289.5" y="-638.9472" font-family="Helvetica,sans-Serif" font-size="11.00" fill="#000000">int unsigned[10]</text>
<polygon fill="none" stroke="#000000" points="160.5,-608.7472 160.5,-630.7472 286.5,-630.7472 286.5,-608.7472 160.5,-608.7472"/>
<text text-anchor="start" x="180.5" y="-616.9472" font-family="Helvetica,sans-Serif" font-size="11.00" fill="#000000">translate_x</text>
<polygon fill="none" stroke="#000000" points="286.5,-608.7472 286.5,-630.7472 387.5,-630.7472 387.5,-608.7472 286.5,-608.7472"/>
<text text-anchor="start" x="289.5" y="-616.9472" font-family="Helvetica,sans-Serif" font-size="11.00" fill="#000000">int[10]</text>
<polygon fill="none" stroke="#000000" points="160.5,-586.7472 160.5,-608.7472 286.5,-608.7472 286.5,-586.7472 160.5,-586.7472"/>
<text text-anchor="start" x="180.5" y="-594.9472" font-family="Helvetica,sans-Serif" font-size="11.00" fill="#000000">translate_y</text>
<polygon fill="none" stroke="#000000" points="286.5,-586.7472 286.5,-608.7472 387.5,-608.7472 387.5,-586.7472 286.5,-586.7472"/>
<text text-anchor="start" x="289.5" y="-594.9472" font-family="Helvetica,sans-Serif" font-size="11.00" fill="#000000">int[10]</text>
<polygon fill="none" stroke="#000000" points="160.5,-564.7472 160.5,-586.7472 286.5,-586.7472 286.5,-564.7472 160.5,-564.7472"/>
<text text-anchor="start" x="180.5" y="-572.9472" font-family="Helvetica,sans-Serif" font-size="11.00" fill="#000000">stance_rotation</text>
<polygon fill="none" stroke="#000000" points="286.5,-564.7472 286.5,-586.7472 387.5,-586.7472 387.5,-564.7472 286.5,-564.7472"/>
<text text-anchor="start" x="289.5" y="-572.9472" font-family="Helvetica,sans-Serif" font-size="11.00" fill="#000000">smallint unsigned[5]</text>
<polygon fill="#ffffff" stroke="transparent" points="160.5,-546.7472 160.5,-564.7472 214.5,-564.7472 214.5,-546.7472 160.5,-546.7472"/>
<polygon fill="none" stroke="#000000" points="160.5,-546.7472 160.5,-564.7472 214.5,-564.7472 214.5,-546.7472 160.5,-546.7472"/>
<text text-anchor="start" x="163.5" y="-552.9472" font-family="Helvetica,sans-Serif" font-size="11.00" fill="#000000">&lt; 1</text>
<polygon fill="#ffffff" stroke="transparent" points="214.5,-546.7472 214.5,-564.7472 286.5,-564.7472 286.5,-546.7472 214.5,-546.7472"/>
<polygon fill="none" stroke="#000000" points="214.5,-546.7472 214.5,-564.7472 286.5,-564.7472 286.5,-546.7472 214.5,-546.7472"/>
<text text-anchor="start" x="250.5" y="-552.9472" font-family="Helvetica,sans-Serif" font-size="11.00" fill="#000000">0 rows</text>
<polygon fill="#ffffff" stroke="transparent" points="286.5,-546.7472 286.5,-564.7472 387.5,-564.7472 387.5,-546.7472 286.5,-546.7472"/>
<polygon fill="none" stroke="#000000" points="286.5,-546.7472 286.5,-564.7472 387.5,-564.7472 387.5,-546.7472 286.5,-546.7472"/>
<text text-anchor="start" x="368.5" y="-552.9472" font-family="Helvetica,sans-Serif" font-size="11.00" fill="#000000">1 &gt;</text>
<polygon fill="none" stroke="#000000" stroke-width="2" points="159,-545.7472 159,-697.7472 388,-697.7472 388,-545.7472 159,-545.7472"/>
</a>
</g>
</g>
<!-- roi_position&#45;&gt;artefact -->
<g id="edge14" class="edge">
<title>roi_position:w&#45;&gt;artefact:e</title>
<path fill="none" stroke="#000000" d="M147.1831,-635.6689C111.5872,-595.9258 164.4789,-374.7472 109.5,-374.7472"/>
<polygon fill="#000000" stroke="#000000" points="153.2223,-638.4253 159.0052,-645.0222 156.8611,-640.0863 160.5,-641.7472 160.5,-641.7472 160.5,-641.7472 156.8611,-640.0863 161.9948,-638.4722 153.2223,-638.4253 153.2223,-638.4253"/>
<ellipse fill="none" stroke="#000000" cx="150.3112" cy="-637.0966" rx="3.2" ry="3.2"/>
</g>
<!-- sign_interpretation_roi -->
<g id="node10" class="node">
<title>sign_interpretation_roi</title>
<g id="a_node10"><a xlink:href="../../tables/sign_interpretation_roi.html" xlink:title="sign_interpretation_roi" target="_top">
<polygon fill="#ffffff" stroke="transparent" points="438,-624.7472 438,-792.7472 631,-792.7472 631,-624.7472 438,-624.7472"/>
<polygon fill="#f5f5f5" stroke="transparent" points="438.5,-770.7472 438.5,-792.7472 631.5,-792.7472 631.5,-770.7472 438.5,-770.7472"/>
<polygon fill="none" stroke="#000000" points="438.5,-770.7472 438.5,-792.7472 631.5,-792.7472 631.5,-770.7472 438.5,-770.7472"/>
<text text-anchor="start" x="443.5" y="-779.9472" font-family="Helvetica,sans-Serif" font-weight="bold" font-size="11.00" fill="#000000">sign_interpretation_roi</text>
<text text-anchor="start" x="596.5" y="-778.9472" font-family="Helvetica,sans-Serif" font-size="11.00" fill="#000000">[table]</text>
<polygon fill="none" stroke="#000000" points="438.5,-748.7472 438.5,-770.7472 631.5,-770.7472 631.5,-748.7472 438.5,-748.7472"/>
<image xlink:href="../../images/primaryKeys.png" width="11px" height="12px" preserveAspectRatio="xMinYMin meet" x="443.5" y="-765.747"/>
<text text-anchor="start" x="458.5" y="-756.9472" font-family="Helvetica,sans-Serif" font-size="11.00" fill="#000000">sign_interpretation_roi_id</text>
<polygon fill="#ffffff" stroke="transparent" points="438.5,-726.7472 438.5,-748.7472 631.5,-748.7472 631.5,-726.7472 438.5,-726.7472"/>
<polygon fill="none" stroke="#000000" points="438.5,-726.7472 438.5,-748.7472 631.5,-748.7472 631.5,-726.7472 438.5,-726.7472"/>
<image xlink:href="../../images/foreignKeys.png" width="11px" height="12px" preserveAspectRatio="xMinYMin meet" x="443.5" y="-743.747"/>
<text text-anchor="start" x="458.5" y="-734.9472" font-family="Helvetica,sans-Serif" font-size="11.00" fill="#000000">sign_interpretation_id</text>
<polygon fill="#ffffff" stroke="transparent" points="438.5,-704.7472 438.5,-726.7472 631.5,-726.7472 631.5,-704.7472 438.5,-704.7472"/>
<polygon fill="none" stroke="#000000" points="438.5,-704.7472 438.5,-726.7472 631.5,-726.7472 631.5,-704.7472 438.5,-704.7472"/>
<image xlink:href="../../images/foreignKeys.png" width="11px" height="12px" preserveAspectRatio="xMinYMin meet" x="443.5" y="-721.747"/>
<text text-anchor="start" x="458.5" y="-712.9472" font-family="Helvetica,sans-Serif" font-size="11.00" fill="#000000">roi_shape_id</text>
<polygon fill="#ffffff" stroke="transparent" points="438.5,-682.7472 438.5,-704.7472 631.5,-704.7472 631.5,-682.7472 438.5,-682.7472"/>
<polygon fill="none" stroke="#000000" points="438.5,-682.7472 438.5,-704.7472 631.5,-704.7472 631.5,-682.7472 438.5,-682.7472"/>
<image xlink:href="../../images/foreignKeys.png" width="11px" height="12px" preserveAspectRatio="xMinYMin meet" x="443.5" y="-699.747"/>
<text text-anchor="start" x="458.5" y="-690.9472" font-family="Helvetica,sans-Serif" font-size="11.00" fill="#000000">roi_position_id</text>
<polygon fill="#ffffff" stroke="transparent" points="438.5,-660.7472 438.5,-682.7472 631.5,-682.7472 631.5,-660.7472 438.5,-660.7472"/>
<polygon fill="none" stroke="#000000" points="438.5,-660.7472 438.5,-682.7472 631.5,-682.7472 631.5,-660.7472 438.5,-660.7472"/>
<image xlink:href="../../images/foreignKeys.png" width="11px" height="12px" preserveAspectRatio="xMinYMin meet" x="443.5" y="-677.747"/>
<text text-anchor="start" x="458.5" y="-668.9472" font-family="Helvetica,sans-Serif" font-size="11.00" fill="#000000">creator_id</text>
<polygon fill="none" stroke="#000000" points="438.5,-642.7472 438.5,-660.7472 631.5,-660.7472 631.5,-642.7472 438.5,-642.7472"/>
<text text-anchor="start" x="441.5" y="-648.9472" font-family="Helvetica,sans-Serif" font-size="11.00" fill="#000000">...</text>
<polygon fill="#ffffff" stroke="transparent" points="438.5,-624.7472 438.5,-642.7472 515.5,-642.7472 515.5,-624.7472 438.5,-624.7472"/>
<polygon fill="none" stroke="#000000" points="438.5,-624.7472 438.5,-642.7472 515.5,-642.7472 515.5,-624.7472 438.5,-624.7472"/>
<text text-anchor="start" x="441.5" y="-630.9472" font-family="Helvetica,sans-Serif" font-size="11.00" fill="#000000">&lt; 4</text>
<polygon fill="#ffffff" stroke="transparent" points="515.5,-624.7472 515.5,-642.7472 581.5,-642.7472 581.5,-624.7472 515.5,-624.7472"/>
<polygon fill="none" stroke="#000000" points="515.5,-624.7472 515.5,-642.7472 581.5,-642.7472 581.5,-624.7472 515.5,-624.7472"/>
<text text-anchor="start" x="545.5" y="-630.9472" font-family="Helvetica,sans-Serif" font-size="11.00" fill="#000000">0 rows</text>
<polygon fill="#ffffff" stroke="transparent" points="581.5,-624.7472 581.5,-642.7472 631.5,-642.7472 631.5,-624.7472 581.5,-624.7472"/>
<polygon fill="none" stroke="#000000" points="581.5,-624.7472 581.5,-642.7472 631.5,-642.7472 631.5,-624.7472 581.5,-624.7472"/>
<text text-anchor="start" x="612.5" y="-630.9472" font-family="Helvetica,sans-Serif" font-size="11.00" fill="#000000">1 &gt;</text>
</a>
</g>
</g>
<!-- sign_interpretation_roi&#45;&gt;user -->
<g id="edge15" class="edge">
<title>sign_interpretation_roi:w&#45;&gt;user:e</title>
<path fill="none" stroke="#000000" d="M426.1739,-663.7374C380.4709,-594.7942 443.2959,-103.0101 397,-59.7472 356.8963,-22.2708 193.4651,-26.2274 150,-59.7472 78.6775,-114.7503 188.568,-255.7472 98.5,-255.7472"/>
<polygon fill="#000000" stroke="#000000" points="431.7919,-667.3881 436.5384,-674.7659 435.146,-669.5677 438.5,-671.7472 438.5,-671.7472 438.5,-671.7472 435.146,-669.5677 440.4616,-668.7286 431.7919,-667.3881 431.7919,-667.3881"/>
<ellipse fill="none" stroke="#000000" cx="429.1087" cy="-665.6445" rx="3.2" ry="3.2"/>
</g>
<!-- sign_interpretation_roi&#45;&gt;roi_position -->
<g id="edge16" class="edge">
<title>sign_interpretation_roi:w&#45;&gt;roi_position:e</title>
<path fill="none" stroke="#000000" d="M424.2724,-689.8252C411.4935,-681.6934 407.8394,-663.7472 387.5,-663.7472"/>
<polygon fill="#000000" stroke="#000000" points="430.7877,-691.6212 437.5433,-697.2178 434.6438,-692.6842 438.5,-693.7472 438.5,-693.7472 438.5,-693.7472 434.6438,-692.6842 439.4567,-690.2767 430.7877,-691.6212 430.7877,-691.6212"/>
<ellipse fill="none" stroke="#000000" cx="427.7027" cy="-690.7708" rx="3.2" ry="3.2"/>
</g>
<!-- roi_shape -->
<g id="node11" class="node">
<title>roi_shape</title>
<g id="a_node11"><a xlink:href="../../tables/roi_shape.html" xlink:title="roi_shape" target="_top">
<polygon fill="#ffffff" stroke="transparent" points="225.5,-719.7472 225.5,-777.7472 321.5,-777.7472 321.5,-719.7472 225.5,-719.7472"/>
<polygon fill="#f5f5f5" stroke="transparent" points="225.5,-755.7472 225.5,-777.7472 321.5,-777.7472 321.5,-755.7472 225.5,-755.7472"/>
<polygon fill="none" stroke="#000000" points="225.5,-755.7472 225.5,-777.7472 321.5,-777.7472 321.5,-755.7472 225.5,-755.7472"/>
<text text-anchor="start" x="230.5" y="-764.9472" font-family="Helvetica,sans-Serif" font-weight="bold" font-size="11.00" fill="#000000">roi_shape</text>
<text text-anchor="start" x="286.5" y="-763.9472" font-family="Helvetica,sans-Serif" font-size="11.00" fill="#000000">[table]</text>
<polygon fill="none" stroke="#000000" points="225.5,-737.7472 225.5,-755.7472 321.5,-755.7472 321.5,-737.7472 225.5,-737.7472"/>
<text text-anchor="start" x="228.5" y="-743.9472" font-family="Helvetica,sans-Serif" font-size="11.00" fill="#000000">...</text>
<polygon fill="#ffffff" stroke="transparent" points="225.5,-719.7472 225.5,-737.7472 249.5,-737.7472 249.5,-719.7472 225.5,-719.7472"/>
<polygon fill="none" stroke="#000000" points="225.5,-719.7472 225.5,-737.7472 249.5,-737.7472 249.5,-719.7472 225.5,-719.7472"/>
<text text-anchor="start" x="228.5" y="-725.9472" font-family="Helvetica,sans-Serif" font-size="11.00" fill="#000000"> &#160;</text>
<polygon fill="#ffffff" stroke="transparent" points="249.5,-719.7472 249.5,-737.7472 293.5,-737.7472 293.5,-719.7472 249.5,-719.7472"/>
<polygon fill="none" stroke="#000000" points="249.5,-719.7472 249.5,-737.7472 293.5,-737.7472 293.5,-719.7472 249.5,-719.7472"/>
<text text-anchor="start" x="257.5" y="-725.9472" font-family="Helvetica,sans-Serif" font-size="11.00" fill="#000000">0 rows</text>
<polygon fill="#ffffff" stroke="transparent" points="293.5,-719.7472 293.5,-737.7472 321.5,-737.7472 321.5,-719.7472 293.5,-719.7472"/>
<polygon fill="none" stroke="#000000" points="293.5,-719.7472 293.5,-737.7472 321.5,-737.7472 321.5,-719.7472 293.5,-719.7472"/>
<text text-anchor="start" x="302.5" y="-725.9472" font-family="Helvetica,sans-Serif" font-size="11.00" fill="#000000">1 &gt;</text>
</a>
</g>
</g>
<!-- sign_interpretation_roi&#45;&gt;roi_shape -->
<g id="edge17" class="edge">
<title>sign_interpretation_roi:w&#45;&gt;roi_shape:e</title>
<path fill="none" stroke="#000000" d="M423.9271,-716.5764C382.4443,-721.5063 370.041,-746.7472 321.5,-746.7472"/>
<polygon fill="#000000" stroke="#000000" points="430.5129,-716.2017 438.7045,-719.3414 434.5065,-715.9745 438.5,-715.7472 438.5,-715.7472 438.5,-715.7472 434.5065,-715.9745 438.2955,-712.153 430.5129,-716.2017 430.5129,-716.2017"/>
<ellipse fill="none" stroke="#000000" cx="427.3181" cy="-716.3835" rx="3.2" ry="3.2"/>
</g>
<!-- sign_interpretation -->
<g id="node12" class="node">
<title>sign_interpretation</title>
<g id="a_node12"><a xlink:href="../../tables/sign_interpretation.html" xlink:title="sign_interpretation" target="_top">
<polygon fill="#ffffff" stroke="transparent" points="201.5,-798.7472 201.5,-856.7472 345.5,-856.7472 345.5,-798.7472 201.5,-798.7472"/>
<polygon fill="#f5f5f5" stroke="transparent" points="201.5,-834.7472 201.5,-856.7472 345.5,-856.7472 345.5,-834.7472 201.5,-834.7472"/>
<polygon fill="none" stroke="#000000" points="201.5,-834.7472 201.5,-856.7472 345.5,-856.7472 345.5,-834.7472 201.5,-834.7472"/>
<text text-anchor="start" x="206.5" y="-843.9472" font-family="Helvetica,sans-Serif" font-weight="bold" font-size="11.00" fill="#000000">sign_interpretation</text>
<text text-anchor="start" x="310.5" y="-842.9472" font-family="Helvetica,sans-Serif" font-size="11.00" fill="#000000">[table]</text>
<polygon fill="none" stroke="#000000" points="201.5,-816.7472 201.5,-834.7472 345.5,-834.7472 345.5,-816.7472 201.5,-816.7472"/>
<text text-anchor="start" x="204.5" y="-822.9472" font-family="Helvetica,sans-Serif" font-size="11.00" fill="#000000">...</text>
<polygon fill="#ffffff" stroke="transparent" points="201.5,-798.7472 201.5,-816.7472 232.5,-816.7472 232.5,-798.7472 201.5,-798.7472"/>
<polygon fill="none" stroke="#000000" points="201.5,-798.7472 201.5,-816.7472 232.5,-816.7472 232.5,-798.7472 201.5,-798.7472"/>
<text text-anchor="start" x="204.5" y="-804.9472" font-family="Helvetica,sans-Serif" font-size="11.00" fill="#000000">&lt; 1</text>
<polygon fill="#ffffff" stroke="transparent" points="232.5,-798.7472 232.5,-816.7472 318.5,-816.7472 318.5,-798.7472 232.5,-798.7472"/>
<polygon fill="none" stroke="#000000" points="232.5,-798.7472 232.5,-816.7472 318.5,-816.7472 318.5,-798.7472 232.5,-798.7472"/>
<text text-anchor="start" x="240.5" y="-804.9472" font-family="Helvetica,sans-Serif" font-size="11.00" fill="#000000">1,586,942 rows</text>
<polygon fill="#ffffff" stroke="transparent" points="318.5,-798.7472 318.5,-816.7472 345.5,-816.7472 345.5,-798.7472 318.5,-798.7472"/>
<polygon fill="none" stroke="#000000" points="318.5,-798.7472 318.5,-816.7472 345.5,-816.7472 345.5,-798.7472 318.5,-798.7472"/>
<text text-anchor="start" x="326.5" y="-804.9472" font-family="Helvetica,sans-Serif" font-size="11.00" fill="#000000">5 &gt;</text>
</a>
</g>
</g>
<!-- sign_interpretation_roi&#45;&gt;sign_interpretation -->
<g id="edge18" class="edge">
<title>sign_interpretation_roi:w&#45;&gt;sign_interpretation:e</title>
<path fill="none" stroke="#000000" d="M424.4664,-741.4874C411.7261,-750.3246 413.7871,-772.9392 397,-788.7472 376.4818,-808.0688 373.6837,-825.7472 345.5,-825.7472"/>
<polygon fill="#000000" stroke="#000000" points="430.7698,-739.8075 439.4271,-741.2258 434.6349,-738.7774 438.5,-737.7472 438.5,-737.7472 438.5,-737.7472 434.6349,-738.7774 437.5729,-734.2686 430.7698,-739.8075 430.7698,-739.8075"/>
<ellipse fill="none" stroke="#000000" cx="427.6778" cy="-740.6316" rx="3.2" ry="3.2"/>
</g>
<!-- sign_interpretation_roi_owner -->
<g id="node13" class="node">
<title>sign_interpretation_roi_owner</title>
<g id="a_node13"><a xlink:href="../../tables/sign_interpretation_roi_owner.html" xlink:title="sign_interpretation_roi_owner" target="_top">
<polygon fill="#ffffff" stroke="transparent" points="680,-732.7472 680,-790.7472 883,-790.7472 883,-732.7472 680,-732.7472"/>
<polygon fill="#f5f5f5" stroke="transparent" points="680.5,-768.7472 680.5,-790.7472 883.5,-790.7472 883.5,-768.7472 680.5,-768.7472"/>
<polygon fill="none" stroke="#000000" points="680.5,-768.7472 680.5,-790.7472 883.5,-790.7472 883.5,-768.7472 680.5,-768.7472"/>
<text text-anchor="start" x="685.5" y="-777.9472" font-family="Helvetica,sans-Serif" font-weight="bold" font-size="11.00" fill="#000000">sign_interpretation_roi_owner</text>
<text text-anchor="start" x="848.5" y="-776.9472" font-family="Helvetica,sans-Serif" font-size="11.00" fill="#000000">[table]</text>
<polygon fill="none" stroke="#000000" points="680.5,-750.7472 680.5,-768.7472 883.5,-768.7472 883.5,-750.7472 680.5,-750.7472"/>
<text text-anchor="start" x="683.5" y="-756.9472" font-family="Helvetica,sans-Serif" font-size="11.00" fill="#000000">...</text>
<polygon fill="#ffffff" stroke="transparent" points="680.5,-732.7472 680.5,-750.7472 766.5,-750.7472 766.5,-732.7472 680.5,-732.7472"/>
<polygon fill="none" stroke="#000000" points="680.5,-732.7472 680.5,-750.7472 766.5,-750.7472 766.5,-732.7472 680.5,-732.7472"/>
<text text-anchor="start" x="683.5" y="-738.9472" font-family="Helvetica,sans-Serif" font-size="11.00" fill="#000000">&lt; 3</text>
<polygon fill="#ffffff" stroke="transparent" points="766.5,-732.7472 766.5,-750.7472 837.5,-750.7472 837.5,-732.7472 766.5,-732.7472"/>
<polygon fill="none" stroke="#000000" points="766.5,-732.7472 766.5,-750.7472 837.5,-750.7472 837.5,-732.7472 766.5,-732.7472"/>
<text text-anchor="start" x="801.5" y="-738.9472" font-family="Helvetica,sans-Serif" font-size="11.00" fill="#000000">0 rows</text>
<polygon fill="#ffffff" stroke="transparent" points="837.5,-732.7472 837.5,-750.7472 883.5,-750.7472 883.5,-732.7472 837.5,-732.7472"/>
<polygon fill="none" stroke="#000000" points="837.5,-732.7472 837.5,-750.7472 883.5,-750.7472 883.5,-732.7472 837.5,-732.7472"/>
<text text-anchor="start" x="873.5" y="-738.9472" font-family="Helvetica,sans-Serif" font-size="11.00" fill="#000000"> &#160;</text>
</a>
</g>
</g>
<!-- sign_interpretation_roi_owner&#45;&gt;sign_interpretation_roi -->
<g id="edge19" class="edge">
<title>sign_interpretation_roi_owner:w&#45;&gt;sign_interpretation_roi:e</title>
<path fill="none" stroke="#000000" d="M665.9909,-759.7472C654.6774,-759.7472 647.4931,-759.7472 631.5,-759.7472"/>
<polygon fill="#000000" stroke="#000000" points="672.5,-759.7473 680.5,-763.3472 676.5,-759.7472 680.5,-759.7472 680.5,-759.7472 680.5,-759.7472 676.5,-759.7472 680.5,-756.1472 672.5,-759.7473 672.5,-759.7473"/>
<ellipse fill="none" stroke="#000000" cx="669.3" cy="-759.7473" rx="3.2" ry="3.2"/>
</g>
</g>
</svg>
