<?xml version="1.0" encoding="UTF-8" standalone="no"?>
<!DOCTYPE svg PUBLIC "-//W3C//DTD SVG 1.1//EN"
 "http://www.w3.org/Graphics/SVG/1.1/DTD/svg11.dtd">
<!-- Generated by graphviz version 2.43.0 (0)
 -->
<!-- Title: twoDegreesRelationshipsDiagram Pages: 1 -->
<svg width="911pt" height="557pt"
 viewBox="0.00 0.00 911.00 557.01" xmlns="http://www.w3.org/2000/svg" xmlns:xlink="http://www.w3.org/1999/xlink">
<g id="graph0" class="graph" transform="scale(1 1) rotate(0) translate(4 553.01)">
<title>twoDegreesRelationshipsDiagram</title>
<polygon fill="#ffffff" stroke="transparent" points="-4,4 -4,-553.01 907,-553.01 907,4 -4,4"/>
<text text-anchor="middle" x="79.5" y="-7.2" font-family="Helvetica,sans-Serif" font-size="11.00">Generated by SchemaSpy</text>
<!-- edition_editor -->
<g id="node1" class="node">
<title>edition_editor</title>
<g id="a_node1"><a xlink:href="../../tables/edition_editor.html" xlink:title="edition_editor" target="_top">
<polygon fill="#ffffff" stroke="transparent" points="350.5,-249 350.5,-307 486.5,-307 486.5,-249 350.5,-249"/>
<polygon fill="#f5f5f5" stroke="transparent" points="350.5,-285 350.5,-307 486.5,-307 486.5,-285 350.5,-285"/>
<polygon fill="none" stroke="black" points="350.5,-285 350.5,-307 486.5,-307 486.5,-285 350.5,-285"/>
<text text-anchor="start" x="355.5" y="-294.2" font-family="Helvetica,sans-Serif" font-weight="bold" font-size="11.00">edition_editor</text>
<text text-anchor="start" x="444.5" y="-293.2" font-family="Helvetica,sans-Serif" font-size="11.00">[table]</text>
<polygon fill="none" stroke="black" points="350.5,-267 350.5,-285 486.5,-285 486.5,-267 350.5,-267"/>
<text text-anchor="start" x="353.5" y="-273.2" font-family="Helvetica,sans-Serif" font-size="11.00">...</text>
<polygon fill="#ffffff" stroke="transparent" points="350.5,-249 350.5,-267 381.5,-267 381.5,-249 350.5,-249"/>
<polygon fill="none" stroke="black" points="350.5,-249 350.5,-267 381.5,-267 381.5,-249 350.5,-249"/>
<text text-anchor="start" x="353.5" y="-255.2" font-family="Helvetica,sans-Serif" font-size="11.00">&lt; 2</text>
<polygon fill="#ffffff" stroke="transparent" points="381.5,-249 381.5,-267 450.5,-267 450.5,-249 381.5,-249"/>
<polygon fill="none" stroke="black" points="381.5,-249 381.5,-267 450.5,-267 450.5,-249 381.5,-249"/>
<text text-anchor="start" x="386.5" y="-255.2" font-family="Helvetica,sans-Serif" font-size="11.00">1,645 rows</text>
<polygon fill="#ffffff" stroke="transparent" points="450.5,-249 450.5,-267 486.5,-267 486.5,-249 450.5,-249"/>
<polygon fill="none" stroke="black" points="450.5,-249 450.5,-267 486.5,-267 486.5,-249 450.5,-249"/>
<text text-anchor="start" x="456.5" y="-255.2" font-family="Helvetica,sans-Serif" font-size="11.00">33 &gt;</text>
</a>
</g>
</g>
<!-- edition -->
<g id="node2" class="node">
<title>edition</title>
<g id="a_node2"><a xlink:href="../../tables/edition.html" xlink:title="edition" target="_top">
<polygon fill="#ffffff" stroke="transparent" points="40.5,-249 40.5,-307 166.5,-307 166.5,-249 40.5,-249"/>
<polygon fill="#f5f5f5" stroke="transparent" points="40.5,-285 40.5,-307 166.5,-307 166.5,-285 40.5,-285"/>
<polygon fill="none" stroke="black" points="40.5,-285 40.5,-307 166.5,-307 166.5,-285 40.5,-285"/>
<text text-anchor="start" x="45.5" y="-294.2" font-family="Helvetica,sans-Serif" font-weight="bold" font-size="11.00">edition</text>
<text text-anchor="start" x="124.5" y="-293.2" font-family="Helvetica,sans-Serif" font-size="11.00">[table]</text>
<polygon fill="none" stroke="black" points="40.5,-267 40.5,-285 166.5,-285 166.5,-267 40.5,-267"/>
<text text-anchor="start" x="43.5" y="-273.2" font-family="Helvetica,sans-Serif" font-size="11.00">...</text>
<polygon fill="#ffffff" stroke="transparent" points="40.5,-249 40.5,-267 66.5,-267 66.5,-249 40.5,-249"/>
<polygon fill="none" stroke="black" points="40.5,-249 40.5,-267 66.5,-267 66.5,-249 40.5,-249"/>
<text text-anchor="start" x="43.5" y="-255.2" font-family="Helvetica,sans-Serif" font-size="11.00">&lt; 1</text>
<polygon fill="#ffffff" stroke="transparent" points="66.5,-249 66.5,-267 133.5,-267 133.5,-249 66.5,-249"/>
<polygon fill="none" stroke="black" points="66.5,-249 66.5,-267 133.5,-267 133.5,-249 66.5,-249"/>
<text text-anchor="start" x="69.5" y="-255.2" font-family="Helvetica,sans-Serif" font-size="11.00">1,645 rows</text>
<polygon fill="#ffffff" stroke="transparent" points="133.5,-249 133.5,-267 166.5,-267 166.5,-249 133.5,-249"/>
<polygon fill="none" stroke="black" points="133.5,-249 133.5,-267 166.5,-267 166.5,-249 133.5,-249"/>
<text text-anchor="start" x="136.5" y="-255.2" font-family="Helvetica,sans-Serif" font-size="11.00">35 &gt;</text>
</a>
</g>
</g>
<!-- edition_editor&#45;&gt;edition -->
<g id="edge1" class="edge">
<title>edition_editor:w&#45;&gt;edition:e</title>
<path fill="none" stroke="black" d="M335.01,-276C265.85,-276 243.33,-276 167.5,-276"/>
<polygon fill="black" stroke="black" points="341.5,-276 349.5,-279.6 345.5,-276 349.5,-276 349.5,-276 349.5,-276 345.5,-276 349.5,-272.4 341.5,-276 341.5,-276"/>
<ellipse fill="none" stroke="black" cx="338.3" cy="-276" rx="3.2" ry="3.2"/>
</g>
<!-- manuscript_metrics -->
<g id="node3" class="node">
<title>manuscript_metrics</title>
<g id="a_node3"><a xlink:href="../../tables/manuscript_metrics.html" xlink:title="manuscript_metrics" target="_top">
<polygon fill="#ffffff" stroke="transparent" points="332.5,-116 332.5,-174 504.5,-174 504.5,-116 332.5,-116"/>
<polygon fill="#f5f5f5" stroke="transparent" points="332.5,-152 332.5,-174 504.5,-174 504.5,-152 332.5,-152"/>
<polygon fill="none" stroke="black" points="332.5,-152 332.5,-174 504.5,-174 504.5,-152 332.5,-152"/>
<text text-anchor="start" x="337.5" y="-161.2" font-family="Helvetica,sans-Serif" font-weight="bold" font-size="11.00">manuscript_metrics</text>
<text text-anchor="start" x="462.5" y="-160.2" font-family="Helvetica,sans-Serif" font-size="11.00">[table]</text>
<polygon fill="none" stroke="black" points="332.5,-134 332.5,-152 504.5,-152 504.5,-134 332.5,-134"/>
<text text-anchor="start" x="335.5" y="-140.2" font-family="Helvetica,sans-Serif" font-size="11.00">...</text>
<polygon fill="#ffffff" stroke="transparent" points="332.5,-116 332.5,-134 384.5,-134 384.5,-116 332.5,-116"/>
<polygon fill="none" stroke="black" points="332.5,-116 332.5,-134 384.5,-134 384.5,-116 332.5,-116"/>
<text text-anchor="start" x="335.5" y="-122.2" font-family="Helvetica,sans-Serif" font-size="11.00">&lt; 2</text>
<polygon fill="#ffffff" stroke="transparent" points="384.5,-116 384.5,-134 464.5,-134 464.5,-116 384.5,-116"/>
<polygon fill="none" stroke="black" points="384.5,-116 384.5,-134 464.5,-134 464.5,-116 384.5,-116"/>
<text text-anchor="start" x="400.5" y="-122.2" font-family="Helvetica,sans-Serif" font-size="11.00">1,371 rows</text>
<polygon fill="#ffffff" stroke="transparent" points="464.5,-116 464.5,-134 504.5,-134 504.5,-116 464.5,-116"/>
<polygon fill="none" stroke="black" points="464.5,-116 464.5,-134 504.5,-134 504.5,-116 464.5,-116"/>
<text text-anchor="start" x="481.5" y="-122.2" font-family="Helvetica,sans-Serif" font-size="11.00">1 &gt;</text>
</a>
</g>
</g>
<!-- scribal_font -->
<g id="node4" class="node">
<title>scribal_font</title>
<g id="a_node4"><a xlink:href="../../tables/scribal_font.html" xlink:title="scribal_font" target="_top">
<polygon fill="#ffffff" stroke="transparent" points="8,-100 8,-202 199,-202 199,-100 8,-100"/>
<polygon fill="#f5f5f5" stroke="transparent" points="8.5,-180 8.5,-202 199.5,-202 199.5,-180 8.5,-180"/>
<polygon fill="none" stroke="black" points="8.5,-180 8.5,-202 199.5,-202 199.5,-180 8.5,-180"/>
<text text-anchor="start" x="13.5" y="-189.2" font-family="Helvetica,sans-Serif" font-weight="bold" font-size="11.00">scribal_font</text>
<text text-anchor="start" x="157.5" y="-188.2" font-family="Helvetica,sans-Serif" font-size="11.00">[table]</text>
<polygon fill="none" stroke="black" points="8.5,-158 8.5,-180 199.5,-180 199.5,-158 8.5,-158"/>
<image xlink:href="../../images/primaryKeys.png" width="11px" height="12px" preserveAspectRatio="xMinYMin meet" x="13.5" y="-175"/>
<text text-anchor="start" x="28.5" y="-166.2" font-family="Helvetica,sans-Serif" font-size="11.00">scribal_font_id</text>
<polygon fill="none" stroke="black" points="8.5,-136 8.5,-158 199.5,-158 199.5,-136 8.5,-136"/>
<image xlink:href="../../images/foreignKeys.png" width="11px" height="12px" preserveAspectRatio="xMinYMin meet" x="13.5" y="-153"/>
<text text-anchor="start" x="28.5" y="-144.2" font-family="Helvetica,sans-Serif" font-size="11.00">font_file_id</text>
<polygon fill="none" stroke="black" points="8.5,-118 8.5,-136 199.5,-136 199.5,-118 8.5,-118"/>
<text text-anchor="start" x="11.5" y="-124.2" font-family="Helvetica,sans-Serif" font-size="11.00">...</text>
<polygon fill="#ffffff" stroke="transparent" points="8.5,-100 8.5,-118 76.5,-118 76.5,-100 8.5,-100"/>
<polygon fill="none" stroke="black" points="8.5,-100 8.5,-118 76.5,-118 76.5,-100 8.5,-100"/>
<text text-anchor="start" x="11.5" y="-106.2" font-family="Helvetica,sans-Serif" font-size="11.00"> &#160;</text>
<polygon fill="#ffffff" stroke="transparent" points="76.5,-100 76.5,-118 146.5,-118 146.5,-100 76.5,-100"/>
<polygon fill="none" stroke="black" points="76.5,-100 76.5,-118 146.5,-118 146.5,-100 76.5,-100"/>
<text text-anchor="start" x="106.5" y="-106.2" font-family="Helvetica,sans-Serif" font-size="11.00">0 rows</text>
<polygon fill="#ffffff" stroke="transparent" points="146.5,-100 146.5,-118 199.5,-118 199.5,-100 146.5,-100"/>
<polygon fill="none" stroke="black" points="146.5,-100 146.5,-118 199.5,-118 199.5,-100 146.5,-100"/>
<text text-anchor="start" x="176.5" y="-106.2" font-family="Helvetica,sans-Serif" font-size="11.00">4 &gt;</text>
</a>
</g>
</g>
<!-- manuscript_metrics&#45;&gt;scribal_font -->
<g id="edge2" class="edge">
<title>manuscript_metrics:w&#45;&gt;scribal_font:e</title>
<path fill="none" stroke="black" d="M316.88,-143.57C269.62,-147.37 254.64,-169 200.5,-169"/>
<polygon fill="black" stroke="black" points="323.51,-143.31 331.64,-146.6 327.5,-143.16 331.5,-143 331.5,-143 331.5,-143 327.5,-143.16 331.36,-139.4 323.51,-143.31 323.51,-143.31"/>
<ellipse fill="none" stroke="black" cx="320.31" cy="-143.43" rx="3.2" ry="3.2"/>
</g>
<!-- scribal_font_glyph_metrics -->
<g id="node5" class="node">
<title>scribal_font_glyph_metrics</title>
<g id="a_node5"><a xlink:href="../../tables/scribal_font_glyph_metrics.html" xlink:title="scribal_font_glyph_metrics" target="_top">
<polygon fill="#ffffff" stroke="transparent" points="248,-328 248,-504 589,-504 589,-328 248,-328"/>
<polygon fill="#f5f5f5" stroke="transparent" points="250.5,-480 250.5,-502 587.5,-502 587.5,-480 250.5,-480"/>
<polygon fill="none" stroke="black" points="250.5,-480 250.5,-502 587.5,-502 587.5,-480 250.5,-480"/>
<text text-anchor="start" x="255.5" y="-489.2" font-family="Helvetica,sans-Serif" font-weight="bold" font-size="11.00">scribal_font_glyph_metrics</text>
<text text-anchor="start" x="545.5" y="-488.2" font-family="Helvetica,sans-Serif" font-size="11.00">[table]</text>
<polygon fill="none" stroke="black" points="250.5,-458 250.5,-480 468.5,-480 468.5,-458 250.5,-458"/>
<image xlink:href="../../images/primaryKeys.png" width="11px" height="12px" preserveAspectRatio="xMinYMin meet" x="255.5" y="-475"/>
<text text-anchor="start" x="270.5" y="-466.2" font-family="Helvetica,sans-Serif" font-size="11.00">scribal_font_glyph_metrics_id</text>
<polygon fill="none" stroke="black" points="468.5,-458 468.5,-480 587.5,-480 587.5,-458 468.5,-458"/>
<text text-anchor="start" x="471.5" y="-466.2" font-family="Helvetica,sans-Serif" font-size="11.00">int unsigned[10]</text>
<polygon fill="#ffffff" stroke="transparent" points="250.5,-436 250.5,-458 468.5,-458 468.5,-436 250.5,-436"/>
<polygon fill="none" stroke="black" points="250.5,-436 250.5,-458 468.5,-458 468.5,-436 250.5,-436"/>
<image xlink:href="../../images/foreignKeys.png" width="11px" height="12px" preserveAspectRatio="xMinYMin meet" x="255.5" y="-453"/>
<text text-anchor="start" x="270.5" y="-444.2" font-family="Helvetica,sans-Serif" font-size="11.00">scribal_font_id</text>
<polygon fill="none" stroke="black" points="468.5,-436 468.5,-458 587.5,-458 587.5,-436 468.5,-436"/>
<text text-anchor="start" x="471.5" y="-444.2" font-family="Helvetica,sans-Serif" font-size="11.00">int unsigned[10]</text>
<polygon fill="#ffffff" stroke="transparent" points="250.5,-414 250.5,-436 468.5,-436 468.5,-414 250.5,-414"/>
<polygon fill="none" stroke="black" points="250.5,-414 250.5,-436 468.5,-436 468.5,-414 250.5,-414"/>
<text text-anchor="start" x="270.5" y="-422.2" font-family="Helvetica,sans-Serif" font-size="11.00">unicode_char</text>
<polygon fill="none" stroke="black" points="468.5,-414 468.5,-436 587.5,-436 587.5,-414 468.5,-414"/>
<text text-anchor="start" x="471.5" y="-422.2" font-family="Helvetica,sans-Serif" font-size="11.00">varbinary[4]</text>
<polygon fill="none" stroke="black" points="250.5,-392 250.5,-414 468.5,-414 468.5,-392 250.5,-392"/>
<text text-anchor="start" x="270.5" y="-400.2" font-family="Helvetica,sans-Serif" font-size="11.00">width</text>
<polygon fill="none" stroke="black" points="468.5,-392 468.5,-414 587.5,-414 587.5,-392 468.5,-392"/>
<text text-anchor="start" x="471.5" y="-400.2" font-family="Helvetica,sans-Serif" font-size="11.00">smallint unsigned[5]</text>
<polygon fill="none" stroke="black" points="250.5,-370 250.5,-392 468.5,-392 468.5,-370 250.5,-370"/>
<text text-anchor="start" x="270.5" y="-378.2" font-family="Helvetica,sans-Serif" font-size="11.00">height</text>
<polygon fill="none" stroke="black" points="468.5,-370 468.5,-392 587.5,-392 587.5,-370 468.5,-370"/>
<text text-anchor="start" x="471.5" y="-378.2" font-family="Helvetica,sans-Serif" font-size="11.00">smallint unsigned[5]</text>
<polygon fill="none" stroke="black" points="250.5,-348 250.5,-370 468.5,-370 468.5,-348 250.5,-348"/>
<text text-anchor="start" x="270.5" y="-356.2" font-family="Helvetica,sans-Serif" font-size="11.00">y_offset</text>
<polygon fill="none" stroke="black" points="468.5,-348 468.5,-370 587.5,-370 587.5,-348 468.5,-348"/>
<text text-anchor="start" x="471.5" y="-356.2" font-family="Helvetica,sans-Serif" font-size="11.00">smallint[5]</text>
<polygon fill="#ffffff" stroke="transparent" points="250.5,-330 250.5,-348 350.5,-348 350.5,-330 250.5,-330"/>
<polygon fill="none" stroke="black" points="250.5,-330 250.5,-348 350.5,-348 350.5,-330 250.5,-330"/>
<text text-anchor="start" x="253.5" y="-336.2" font-family="Helvetica,sans-Serif" font-size="11.00">&lt; 1</text>
<polygon fill="#ffffff" stroke="transparent" points="350.5,-330 350.5,-348 468.5,-348 468.5,-330 350.5,-330"/>
<polygon fill="none" stroke="black" points="350.5,-330 350.5,-348 468.5,-348 468.5,-330 350.5,-330"/>
<text text-anchor="start" x="428.5" y="-336.2" font-family="Helvetica,sans-Serif" font-size="11.00">0 rows</text>
<polygon fill="#ffffff" stroke="transparent" points="468.5,-330 468.5,-348 587.5,-348 587.5,-330 468.5,-330"/>
<polygon fill="none" stroke="black" points="468.5,-330 468.5,-348 587.5,-348 587.5,-330 468.5,-330"/>
<text text-anchor="start" x="564.5" y="-336.2" font-family="Helvetica,sans-Serif" font-size="11.00">1 &gt;</text>
<polygon fill="none" stroke="black" stroke-width="2" points="249,-329 249,-503 588,-503 588,-329 249,-329"/>
</a>
</g>
</g>
<!-- scribal_font_glyph_metrics&#45;&gt;scribal_font -->
<g id="edge3" class="edge">
<title>scribal_font_glyph_metrics:w&#45;&gt;scribal_font:e</title>
<path fill="none" stroke="black" d="M236.23,-441.19C198.88,-401.27 257.84,-169 200.5,-169"/>
<polygon fill="black" stroke="black" points="242.17,-443.79 248.06,-450.3 245.84,-445.4 249.5,-447 249.5,-447 249.5,-447 245.84,-445.4 250.94,-443.7 242.17,-443.79 242.17,-443.79"/>
<ellipse fill="none" stroke="black" cx="239.24" cy="-442.51" rx="3.2" ry="3.2"/>
</g>
<!-- scribal_font_glyph_metrics_owner -->
<g id="node6" class="node">
<title>scribal_font_glyph_metrics_owner</title>
<g id="a_node6"><a xlink:href="../../tables/scribal_font_glyph_metrics_owner.html" xlink:title="scribal_font_glyph_metrics_owner" target="_top">
<polygon fill="#ffffff" stroke="transparent" points="638,-396 638,-502 895,-502 895,-396 638,-396"/>
<polygon fill="#f5f5f5" stroke="transparent" points="638.5,-480 638.5,-502 895.5,-502 895.5,-480 638.5,-480"/>
<polygon fill="none" stroke="black" points="638.5,-480 638.5,-502 895.5,-502 895.5,-480 638.5,-480"/>
<text text-anchor="start" x="643.5" y="-489.2" font-family="Helvetica,sans-Serif" font-weight="bold" font-size="11.00">scribal_font_glyph_metrics_owner</text>
<text text-anchor="start" x="853.5" y="-488.2" font-family="Helvetica,sans-Serif" font-size="11.00">[table]</text>
<polygon fill="none" stroke="black" points="638.5,-458 638.5,-480 895.5,-480 895.5,-458 638.5,-458"/>
<image xlink:href="../../images/primaryKeys.png" width="11px" height="12px" preserveAspectRatio="xMinYMin meet" x="643.5" y="-475"/>
<text text-anchor="start" x="663.5" y="-466.2" font-family="Helvetica,sans-Serif" font-size="11.00">scribal_font_glyph_metrics_id</text>
<polygon fill="#ffffff" stroke="transparent" points="638.5,-436 638.5,-458 895.5,-458 895.5,-436 638.5,-436"/>
<polygon fill="none" stroke="black" points="638.5,-436 638.5,-458 895.5,-458 895.5,-436 638.5,-436"/>
<image xlink:href="../../images/foreignKeys.png" width="11px" height="12px" preserveAspectRatio="xMinYMin meet" x="643.5" y="-453"/>
<text text-anchor="start" x="663.5" y="-444.2" font-family="Helvetica,sans-Serif" font-size="11.00">edition_editor_id</text>
<polygon fill="none" stroke="black" points="638.5,-414 638.5,-436 895.5,-436 895.5,-414 638.5,-414"/>
<image xlink:href="../../images/primaryKeys.png" width="11px" height="12px" preserveAspectRatio="xMinYMin meet" x="643.5" y="-431"/>
<text text-anchor="start" x="663.5" y="-422.2" font-family="Helvetica,sans-Serif" font-size="11.00">edition_id</text>
<polygon fill="#ffffff" stroke="transparent" points="638.5,-396 638.5,-414 751.5,-414 751.5,-396 638.5,-396"/>
<polygon fill="none" stroke="black" points="638.5,-396 638.5,-414 751.5,-414 751.5,-396 638.5,-396"/>
<text text-anchor="start" x="641.5" y="-402.2" font-family="Helvetica,sans-Serif" font-size="11.00">&lt; 3</text>
<polygon fill="#ffffff" stroke="transparent" points="751.5,-396 751.5,-414 837.5,-414 837.5,-396 751.5,-396"/>
<polygon fill="none" stroke="black" points="751.5,-396 751.5,-414 837.5,-414 837.5,-396 751.5,-396"/>
<text text-anchor="start" x="797.5" y="-402.2" font-family="Helvetica,sans-Serif" font-size="11.00">0 rows</text>
<polygon fill="#ffffff" stroke="transparent" points="837.5,-396 837.5,-414 895.5,-414 895.5,-396 837.5,-396"/>
<polygon fill="none" stroke="black" points="837.5,-396 837.5,-414 895.5,-414 895.5,-396 837.5,-396"/>
<text text-anchor="start" x="884.5" y="-402.2" font-family="Helvetica,sans-Serif" font-size="11.00"> &#160;</text>
</a>
</g>
</g>
<!-- scribal_font_glyph_metrics_owner&#45;&gt;edition_editor -->
<g id="edge4" class="edge">
<title>scribal_font_glyph_metrics_owner:w&#45;&gt;edition_editor:e</title>
<path fill="none" stroke="black" d="M623.14,-444.68C588.3,-430.75 634.13,-357.51 597,-318 561.3,-280.02 539.62,-276 487.5,-276"/>
<polygon fill="black" stroke="black" points="629.6,-445.72 636.93,-450.55 633.55,-446.36 637.5,-447 637.5,-447 637.5,-447 633.55,-446.36 638.07,-443.45 629.6,-445.72 629.6,-445.72"/>
<ellipse fill="none" stroke="black" cx="626.44" cy="-445.21" rx="3.2" ry="3.2"/>
</g>
<!-- scribal_font_glyph_metrics_owner&#45;&gt;edition -->
<g id="edge5" class="edge">
<title>scribal_font_glyph_metrics_owner:w&#45;&gt;edition:e</title>
<path fill="none" stroke="black" d="M623.53,-428.62C603.42,-442.78 628.65,-494.53 597,-515 530.38,-558.08 303.72,-562.26 240,-515 150.84,-448.88 278.5,-276 167.5,-276"/>
<polygon fill="black" stroke="black" points="629.76,-427.01 638.4,-428.48 633.63,-426 637.5,-425 637.5,-425 637.5,-425 633.63,-426 636.6,-421.52 629.76,-427.01 629.76,-427.01"/>
<ellipse fill="none" stroke="black" cx="626.66" cy="-427.81" rx="3.2" ry="3.2"/>
</g>
<!-- scribal_font_glyph_metrics_owner&#45;&gt;scribal_font_glyph_metrics -->
<g id="edge6" class="edge">
<title>scribal_font_glyph_metrics_owner:w&#45;&gt;scribal_font_glyph_metrics:e</title>
<path fill="none" stroke="black" d="M622.99,-469C611.68,-469 604.49,-469 588.5,-469"/>
<polygon fill="black" stroke="black" points="629.5,-469 637.5,-472.6 633.5,-469 637.5,-469 637.5,-469 637.5,-469 633.5,-469 637.5,-465.4 629.5,-469 629.5,-469"/>
<ellipse fill="none" stroke="black" cx="626.3" cy="-469" rx="3.2" ry="3.2"/>
</g>
<!-- scribal_font_kerning -->
<g id="node7" class="node">
<title>scribal_font_kerning</title>
<g id="a_node7"><a xlink:href="../../tables/scribal_font_kerning.html" xlink:title="scribal_font_kerning" target="_top">
<polygon fill="#ffffff" stroke="transparent" points="331.5,-37 331.5,-95 505.5,-95 505.5,-37 331.5,-37"/>
<polygon fill="#f5f5f5" stroke="transparent" points="331.5,-73 331.5,-95 505.5,-95 505.5,-73 331.5,-73"/>
<polygon fill="none" stroke="black" points="331.5,-73 331.5,-95 505.5,-95 505.5,-73 331.5,-73"/>
<text text-anchor="start" x="336.5" y="-82.2" font-family="Helvetica,sans-Serif" font-weight="bold" font-size="11.00">scribal_font_kerning</text>
<text text-anchor="start" x="463.5" y="-81.2" font-family="Helvetica,sans-Serif" font-size="11.00">[table]</text>
<polygon fill="none" stroke="black" points="331.5,-55 331.5,-73 505.5,-73 505.5,-55 331.5,-55"/>
<text text-anchor="start" x="334.5" y="-61.2" font-family="Helvetica,sans-Serif" font-size="11.00">...</text>
<polygon fill="#ffffff" stroke="transparent" points="331.5,-37 331.5,-55 396.5,-55 396.5,-37 331.5,-37"/>
<polygon fill="none" stroke="black" points="331.5,-37 331.5,-55 396.5,-55 396.5,-37 331.5,-37"/>
<text text-anchor="start" x="334.5" y="-43.2" font-family="Helvetica,sans-Serif" font-size="11.00">&lt; 1</text>
<polygon fill="#ffffff" stroke="transparent" points="396.5,-37 396.5,-55 459.5,-55 459.5,-37 396.5,-37"/>
<polygon fill="none" stroke="black" points="396.5,-37 396.5,-55 459.5,-55 459.5,-37 396.5,-37"/>
<text text-anchor="start" x="419.5" y="-43.2" font-family="Helvetica,sans-Serif" font-size="11.00">0 rows</text>
<polygon fill="#ffffff" stroke="transparent" points="459.5,-37 459.5,-55 505.5,-55 505.5,-37 459.5,-37"/>
<polygon fill="none" stroke="black" points="459.5,-37 459.5,-55 505.5,-55 505.5,-37 459.5,-37"/>
<text text-anchor="start" x="482.5" y="-43.2" font-family="Helvetica,sans-Serif" font-size="11.00">1 &gt;</text>
</a>
</g>
</g>
<!-- scribal_font_kerning&#45;&gt;scribal_font -->
<g id="edge7" class="edge">
<title>scribal_font_kerning:w&#45;&gt;scribal_font:e</title>
<path fill="none" stroke="black" d="M315.73,-64.53C282.86,-67.12 269.14,-79.36 240,-105 214.91,-127.08 233.93,-169 200.5,-169"/>
<polygon fill="black" stroke="black" points="322.51,-64.29 330.63,-67.6 326.5,-64.14 330.5,-64 330.5,-64 330.5,-64 326.5,-64.14 330.37,-60.4 322.51,-64.29 322.51,-64.29"/>
<ellipse fill="none" stroke="black" cx="319.31" cy="-64.4" rx="3.2" ry="3.2"/>
</g>
<!-- scribal_font_owner -->
<g id="node8" class="node">
<title>scribal_font_owner</title>
<g id="a_node8"><a xlink:href="../../tables/scribal_font_owner.html" xlink:title="scribal_font_owner" target="_top">
<polygon fill="#ffffff" stroke="transparent" points="683.5,-198 683.5,-256 849.5,-256 849.5,-198 683.5,-198"/>
<polygon fill="#f5f5f5" stroke="transparent" points="683.5,-234 683.5,-256 849.5,-256 849.5,-234 683.5,-234"/>
<polygon fill="none" stroke="black" points="683.5,-234 683.5,-256 849.5,-256 849.5,-234 683.5,-234"/>
<text text-anchor="start" x="688.5" y="-243.2" font-family="Helvetica,sans-Serif" font-weight="bold" font-size="11.00">scribal_font_owner</text>
<text text-anchor="start" x="807.5" y="-242.2" font-family="Helvetica,sans-Serif" font-size="11.00">[table]</text>
<polygon fill="none" stroke="black" points="683.5,-216 683.5,-234 849.5,-234 849.5,-216 683.5,-216"/>
<text text-anchor="start" x="686.5" y="-222.2" font-family="Helvetica,sans-Serif" font-size="11.00">...</text>
<polygon fill="#ffffff" stroke="transparent" points="683.5,-198 683.5,-216 750.5,-216 750.5,-198 683.5,-198"/>
<polygon fill="none" stroke="black" points="683.5,-198 683.5,-216 750.5,-216 750.5,-198 683.5,-198"/>
<text text-anchor="start" x="686.5" y="-204.2" font-family="Helvetica,sans-Serif" font-size="11.00">&lt; 3</text>
<polygon fill="#ffffff" stroke="transparent" points="750.5,-198 750.5,-216 814.5,-216 814.5,-198 750.5,-198"/>
<polygon fill="none" stroke="black" points="750.5,-198 750.5,-216 814.5,-216 814.5,-198 750.5,-198"/>
<text text-anchor="start" x="774.5" y="-204.2" font-family="Helvetica,sans-Serif" font-size="11.00">0 rows</text>
<polygon fill="#ffffff" stroke="transparent" points="814.5,-198 814.5,-216 849.5,-216 849.5,-198 814.5,-198"/>
<polygon fill="none" stroke="black" points="814.5,-198 814.5,-216 849.5,-216 849.5,-198 814.5,-198"/>
<text text-anchor="start" x="838.5" y="-204.2" font-family="Helvetica,sans-Serif" font-size="11.00"> &#160;</text>
</a>
</g>
</g>
<!-- scribal_font_owner&#45;&gt;edition_editor -->
<g id="edge8" class="edge">
<title>scribal_font_owner:w&#45;&gt;edition_editor:e</title>
<path fill="none" stroke="black" d="M667.96,-225.47C590.89,-230.61 572.01,-276 487.5,-276"/>
<polygon fill="black" stroke="black" points="674.5,-225.26 682.62,-228.6 678.5,-225.13 682.5,-225 682.5,-225 682.5,-225 678.5,-225.13 682.38,-221.4 674.5,-225.26 674.5,-225.26"/>
<ellipse fill="none" stroke="black" cx="671.31" cy="-225.36" rx="3.2" ry="3.2"/>
</g>
<!-- scribal_font_owner&#45;&gt;edition -->
<g id="edge9" class="edge">
<title>scribal_font_owner:w&#45;&gt;edition:e</title>
<path fill="none" stroke="black" d="M668.06,-224.93C482.91,-223.22 425.6,-189.41 240,-238 204.81,-247.21 203.88,-276 167.5,-276"/>
<polygon fill="black" stroke="black" points="674.5,-224.96 682.48,-228.6 678.5,-224.98 682.5,-225 682.5,-225 682.5,-225 678.5,-224.98 682.52,-221.4 674.5,-224.96 674.5,-224.96"/>
<ellipse fill="none" stroke="black" cx="671.3" cy="-224.95" rx="3.2" ry="3.2"/>
</g>
<!-- scribal_font_owner&#45;&gt;scribal_font -->
<g id="edge10" class="edge">
<title>scribal_font_owner:w&#45;&gt;scribal_font:e</title>
<path fill="none" stroke="black" d="M667.81,-224.39C640.86,-222 629.95,-213.22 597,-209 439.23,-188.78 395.34,-218.15 240,-184 221.66,-179.97 219.28,-169 200.5,-169"/>
<polygon fill="black" stroke="black" points="674.51,-224.67 682.35,-228.6 678.5,-224.83 682.5,-225 682.5,-225 682.5,-225 678.5,-224.83 682.65,-221.4 674.51,-224.67 674.51,-224.67"/>
<ellipse fill="none" stroke="black" cx="671.31" cy="-224.54" rx="3.2" ry="3.2"/>
</g>
</g>
</svg>
