<?xml version="1.0" encoding="UTF-8" standalone="no"?>
<!DOCTYPE svg PUBLIC "-//W3C//DTD SVG 1.1//EN"
 "http://www.w3.org/Graphics/SVG/1.1/DTD/svg11.dtd">
<!-- Generated by graphviz version 2.43.0 (0)
 -->
<!-- Title: oneDegreeRelationshipsDiagram Pages: 1 -->
<svg width="527pt" height="300pt"
 viewBox="0.00 0.00 527.00 300.00" xmlns="http://www.w3.org/2000/svg" xmlns:xlink="http://www.w3.org/1999/xlink">
<g id="graph0" class="graph" transform="scale(1 1) rotate(0) translate(4 296)">
<title>oneDegreeRelationshipsDiagram</title>
<polygon fill="#ffffff" stroke="transparent" points="-4,4 -4,-296 523,-296 523,4 -4,4"/>
<text text-anchor="middle" x="79.5" y="-7.2" font-family="Helvetica,sans-Serif" font-size="11.00">Generated by SchemaSpy</text>
<!-- form_of_writing -->
<g id="node1" class="node">
<title>form_of_writing</title>
<g id="a_node1"><a xlink:href="../../tables/form_of_writing.html" xlink:title="form_of_writing" target="_top">
<polygon fill="#ffffff" stroke="transparent" points="334.5,-164 334.5,-288 488.5,-288 488.5,-164 334.5,-164"/>
<polygon fill="#f5f5f5" stroke="transparent" points="334.5,-266 334.5,-288 488.5,-288 488.5,-266 334.5,-266"/>
<polygon fill="none" stroke="black" points="334.5,-266 334.5,-288 488.5,-288 488.5,-266 334.5,-266"/>
<text text-anchor="start" x="339.5" y="-275.2" font-family="Helvetica,sans-Serif" font-weight="bold" font-size="11.00">form_of_writing</text>
<text text-anchor="start" x="446.5" y="-274.2" font-family="Helvetica,sans-Serif" font-size="11.00">[table]</text>
<polygon fill="none" stroke="black" points="334.5,-244 334.5,-266 488.5,-266 488.5,-244 334.5,-244"/>
<image xlink:href="../../images/primaryKeys.png" width="11px" height="12px" preserveAspectRatio="xMinYMin meet" x="339.5" y="-261"/>
<text text-anchor="start" x="354.5" y="-252.2" font-family="Helvetica,sans-Serif" font-size="11.00">form_of_writing_id</text>
<polygon fill="#ffffff" stroke="transparent" points="334.5,-222 334.5,-244 488.5,-244 488.5,-222 334.5,-222"/>
<polygon fill="none" stroke="black" points="334.5,-222 334.5,-244 488.5,-244 488.5,-222 334.5,-222"/>
<image xlink:href="../../images/foreignKeys.png" width="11px" height="12px" preserveAspectRatio="xMinYMin meet" x="339.5" y="-239"/>
<text text-anchor="start" x="354.5" y="-230.2" font-family="Helvetica,sans-Serif" font-size="11.00">scribes_scribe_id</text>
<polygon fill="#ffffff" stroke="transparent" points="334.5,-200 334.5,-222 488.5,-222 488.5,-200 334.5,-200"/>
<polygon fill="none" stroke="black" points="334.5,-200 334.5,-222 488.5,-222 488.5,-200 334.5,-200"/>
<image xlink:href="../../images/foreignKeys.png" width="11px" height="12px" preserveAspectRatio="xMinYMin meet" x="339.5" y="-217"/>
<text text-anchor="start" x="354.5" y="-208.2" font-family="Helvetica,sans-Serif" font-size="11.00">scribal_font_type_id</text>
<polygon fill="none" stroke="black" points="334.5,-182 334.5,-200 488.5,-200 488.5,-182 334.5,-182"/>
<text text-anchor="start" x="337.5" y="-188.2" font-family="Helvetica,sans-Serif" font-size="11.00">...</text>
<polygon fill="#ffffff" stroke="transparent" points="334.5,-164 334.5,-182 389.5,-182 389.5,-164 334.5,-164"/>
<polygon fill="none" stroke="black" points="334.5,-164 334.5,-182 389.5,-182 389.5,-164 334.5,-164"/>
<text text-anchor="start" x="337.5" y="-170.2" font-family="Helvetica,sans-Serif" font-size="11.00">&lt; 2</text>
<polygon fill="#ffffff" stroke="transparent" points="389.5,-164 389.5,-182 447.5,-182 447.5,-164 389.5,-164"/>
<polygon fill="none" stroke="black" points="389.5,-164 389.5,-182 447.5,-182 447.5,-164 389.5,-164"/>
<text text-anchor="start" x="407.5" y="-170.2" font-family="Helvetica,sans-Serif" font-size="11.00">0 rows</text>
<polygon fill="#ffffff" stroke="transparent" points="447.5,-164 447.5,-182 488.5,-182 488.5,-164 447.5,-164"/>
<polygon fill="none" stroke="black" points="447.5,-164 447.5,-182 488.5,-182 488.5,-164 447.5,-164"/>
<text text-anchor="start" x="465.5" y="-170.2" font-family="Helvetica,sans-Serif" font-size="11.00">2 &gt;</text>
</a>
</g>
</g>
<!-- scribal_font_type -->
<g id="node2" class="node">
<title>scribal_font_type</title>
<g id="a_node2"><a xlink:href="../../tables/scribal_font_type.html" xlink:title="scribal_font_type" target="_top">
<polygon fill="#ffffff" stroke="transparent" points="8,-107 8,-195 263,-195 263,-107 8,-107"/>
<polygon fill="#f5f5f5" stroke="transparent" points="10.5,-171 10.5,-193 261.5,-193 261.5,-171 10.5,-171"/>
<polygon fill="none" stroke="black" points="10.5,-171 10.5,-193 261.5,-193 261.5,-171 10.5,-171"/>
<text text-anchor="start" x="15.5" y="-180.2" font-family="Helvetica,sans-Serif" font-weight="bold" font-size="11.00">scribal_font_type</text>
<text text-anchor="start" x="219.5" y="-179.2" font-family="Helvetica,sans-Serif" font-size="11.00">[table]</text>
<polygon fill="none" stroke="black" points="10.5,-149 10.5,-171 164.5,-171 164.5,-149 10.5,-149"/>
<image xlink:href="../../images/primaryKeys.png" width="11px" height="12px" preserveAspectRatio="xMinYMin meet" x="15.5" y="-166"/>
<text text-anchor="start" x="30.5" y="-157.2" font-family="Helvetica,sans-Serif" font-size="11.00">scribal_font_type_id</text>
<polygon fill="none" stroke="black" points="164.5,-149 164.5,-171 261.5,-171 261.5,-149 164.5,-149"/>
<text text-anchor="start" x="167.5" y="-157.2" font-family="Helvetica,sans-Serif" font-size="11.00">int unsigned[10]</text>
<polygon fill="#ffffff" stroke="transparent" points="10.5,-127 10.5,-149 164.5,-149 164.5,-127 10.5,-127"/>
<polygon fill="none" stroke="black" points="10.5,-127 10.5,-149 164.5,-149 164.5,-127 10.5,-127"/>
<text text-anchor="start" x="30.5" y="-135.2" font-family="Helvetica,sans-Serif" font-size="11.00">font_name</text>
<polygon fill="none" stroke="black" points="164.5,-127 164.5,-149 261.5,-149 261.5,-127 164.5,-127"/>
<text text-anchor="start" x="167.5" y="-135.2" font-family="Helvetica,sans-Serif" font-size="11.00">varchar[255]</text>
<polygon fill="#ffffff" stroke="transparent" points="10.5,-109 10.5,-127 78.5,-127 78.5,-109 10.5,-109"/>
<polygon fill="none" stroke="black" points="10.5,-109 10.5,-127 78.5,-127 78.5,-109 10.5,-109"/>
<text text-anchor="start" x="13.5" y="-115.2" font-family="Helvetica,sans-Serif" font-size="11.00">&lt; 0</text>
<polygon fill="#ffffff" stroke="transparent" points="78.5,-109 78.5,-127 164.5,-127 164.5,-109 78.5,-109"/>
<polygon fill="none" stroke="black" points="78.5,-109 78.5,-127 164.5,-127 164.5,-109 78.5,-109"/>
<text text-anchor="start" x="124.5" y="-115.2" font-family="Helvetica,sans-Serif" font-size="11.00">0 rows</text>
<polygon fill="#ffffff" stroke="transparent" points="164.5,-109 164.5,-127 261.5,-127 261.5,-109 164.5,-109"/>
<polygon fill="none" stroke="black" points="164.5,-109 164.5,-127 261.5,-127 261.5,-109 164.5,-109"/>
<text text-anchor="start" x="238.5" y="-115.2" font-family="Helvetica,sans-Serif" font-size="11.00">2 &gt;</text>
<polygon fill="none" stroke="black" stroke-width="2" points="9,-108 9,-194 262,-194 262,-108 9,-108"/>
</a>
</g>
</g>
<!-- form_of_writing&#45;&gt;scribal_font_type -->
<g id="edge1" class="edge">
<title>form_of_writing:w&#45;&gt;scribal_font_type:e</title>
<path fill="none" stroke="black" d="M319.23,-208.11C295.63,-197.32 295.74,-160 262.5,-160"/>
<polygon fill="black" stroke="black" points="325.66,-209.41 332.79,-214.53 329.58,-210.21 333.5,-211 333.5,-211 333.5,-211 329.58,-210.21 334.21,-207.47 325.66,-209.41 325.66,-209.41"/>
<ellipse fill="none" stroke="black" cx="322.52" cy="-208.78" rx="3.2" ry="3.2"/>
</g>
<!-- scribal_font_type_owner -->
<g id="node3" class="node">
<title>scribal_font_type_owner</title>
<g id="a_node3"><a xlink:href="../../tables/scribal_font_type_owner.html" xlink:title="scribal_font_type_owner" target="_top">
<polygon fill="#ffffff" stroke="transparent" points="312,-37 312,-143 511,-143 511,-37 312,-37"/>
<polygon fill="#f5f5f5" stroke="transparent" points="312.5,-121 312.5,-143 511.5,-143 511.5,-121 312.5,-121"/>
<polygon fill="none" stroke="black" points="312.5,-121 312.5,-143 511.5,-143 511.5,-121 312.5,-121"/>
<text text-anchor="start" x="317.5" y="-130.2" font-family="Helvetica,sans-Serif" font-weight="bold" font-size="11.00">scribal_font_type_owner</text>
<text text-anchor="start" x="469.5" y="-129.2" font-family="Helvetica,sans-Serif" font-size="11.00">[table]</text>
<polygon fill="none" stroke="black" points="312.5,-99 312.5,-121 511.5,-121 511.5,-99 312.5,-99"/>
<image xlink:href="../../images/primaryKeys.png" width="11px" height="12px" preserveAspectRatio="xMinYMin meet" x="317.5" y="-116"/>
<text text-anchor="start" x="340.5" y="-107.2" font-family="Helvetica,sans-Serif" font-size="11.00">scribal_font_type_id</text>
<polygon fill="#ffffff" stroke="transparent" points="312.5,-77 312.5,-99 511.5,-99 511.5,-77 312.5,-77"/>
<polygon fill="none" stroke="black" points="312.5,-77 312.5,-99 511.5,-99 511.5,-77 312.5,-77"/>
<image xlink:href="../../images/foreignKeys.png" width="11px" height="12px" preserveAspectRatio="xMinYMin meet" x="317.5" y="-94"/>
<text text-anchor="start" x="340.5" y="-85.2" font-family="Helvetica,sans-Serif" font-size="11.00">edition_editor_id</text>
<polygon fill="none" stroke="black" points="312.5,-55 312.5,-77 511.5,-77 511.5,-55 312.5,-55"/>
<image xlink:href="../../images/primaryKeys.png" width="11px" height="12px" preserveAspectRatio="xMinYMin meet" x="317.5" y="-72"/>
<text text-anchor="start" x="340.5" y="-63.2" font-family="Helvetica,sans-Serif" font-size="11.00">edition_id</text>
<polygon fill="#ffffff" stroke="transparent" points="312.5,-37 312.5,-55 396.5,-55 396.5,-37 312.5,-37"/>
<polygon fill="none" stroke="black" points="312.5,-37 312.5,-55 396.5,-55 396.5,-37 312.5,-37"/>
<text text-anchor="start" x="315.5" y="-43.2" font-family="Helvetica,sans-Serif" font-size="11.00">&lt; 3</text>
<polygon fill="#ffffff" stroke="transparent" points="396.5,-37 396.5,-55 468.5,-55 468.5,-37 396.5,-37"/>
<polygon fill="none" stroke="black" points="396.5,-37 396.5,-55 468.5,-55 468.5,-37 396.5,-37"/>
<text text-anchor="start" x="428.5" y="-43.2" font-family="Helvetica,sans-Serif" font-size="11.00">0 rows</text>
<polygon fill="#ffffff" stroke="transparent" points="468.5,-37 468.5,-55 511.5,-55 511.5,-37 468.5,-37"/>
<polygon fill="none" stroke="black" points="468.5,-37 468.5,-55 511.5,-55 511.5,-37 468.5,-37"/>
<text text-anchor="start" x="500.5" y="-43.2" font-family="Helvetica,sans-Serif" font-size="11.00"> &#160;</text>
</a>
</g>
</g>
<!-- scribal_font_type_owner&#45;&gt;scribal_font_type -->
<g id="edge2" class="edge">
<title>scribal_font_type_owner:w&#45;&gt;scribal_font_type:e</title>
<path fill="none" stroke="black" d="M297.68,-114.98C283.86,-127.62 287.54,-160 262.5,-160"/>
<polygon fill="black" stroke="black" points="303.97,-112.71 312.72,-113.39 307.74,-111.36 311.5,-110 311.5,-110 311.5,-110 307.74,-111.36 310.28,-106.61 303.97,-112.71 303.97,-112.71"/>
<ellipse fill="none" stroke="black" cx="300.96" cy="-113.8" rx="3.2" ry="3.2"/>
</g>
</g>
</svg>
