<?xml version="1.0" encoding="UTF-8" standalone="no"?>
<!DOCTYPE svg PUBLIC "-//W3C//DTD SVG 1.1//EN"
 "http://www.w3.org/Graphics/SVG/1.1/DTD/svg11.dtd">
<!-- Generated by graphviz version 2.40.1 (20161225.0304)
 -->
<!-- Title: oneDegreeRelationshipsDiagramImplied Pages: 1 -->
<svg width="681pt" height="376pt"
 viewBox="0.00 0.00 681.00 376.00" xmlns="http://www.w3.org/2000/svg" xmlns:xlink="http://www.w3.org/1999/xlink">
<g id="graph0" class="graph" transform="scale(1 1) rotate(0) translate(4 372)">
<title>oneDegreeRelationshipsDiagramImplied</title>
<polygon fill="#ffffff" stroke="transparent" points="-4,4 -4,-372 677,-372 677,4 -4,4"/>
<text text-anchor="middle" x="71.5" y="-7.2" font-family="Helvetica,sans-Serif" font-size="11.00" fill="#000000">Generated by SchemaSpy</text>
<!-- edition_editor -->
<g id="node1" class="node">
<title>edition_editor</title>
<g id="a_node1"><a xlink:href="../../tables/edition_editor.html" xlink:title="edition_editor" target="_top">
<polygon fill="#ffffff" stroke="transparent" points="221,-95 221,-219 354,-219 354,-95 221,-95"/>
<polygon fill="#f5f5f5" stroke="transparent" points="221.5,-197 221.5,-219 354.5,-219 354.5,-197 221.5,-197"/>
<polygon fill="none" stroke="#000000" points="221.5,-197 221.5,-219 354.5,-219 354.5,-197 221.5,-197"/>
<text text-anchor="start" x="226.5" y="-206.2" font-family="Helvetica,sans-Serif" font-weight="bold" font-size="11.00" fill="#000000">edition_editor</text>
<text text-anchor="start" x="319.5" y="-205.2" font-family="Helvetica,sans-Serif" font-size="11.00" fill="#000000">[table]</text>
<polygon fill="none" stroke="#000000" points="221.5,-175 221.5,-197 354.5,-197 354.5,-175 221.5,-175"/>
<image xlink:href="../../images/primaryKeys.png" width="11px" height="12px" preserveAspectRatio="xMinYMin meet" x="226.5" y="-192"/>
<text text-anchor="start" x="241.5" y="-183.2" font-family="Helvetica,sans-Serif" font-size="11.00" fill="#000000">edition_editor_id</text>
<polygon fill="#ffffff" stroke="transparent" points="221.5,-153 221.5,-175 354.5,-175 354.5,-153 221.5,-153"/>
<polygon fill="none" stroke="#000000" points="221.5,-153 221.5,-175 354.5,-175 354.5,-153 221.5,-153"/>
<image xlink:href="../../images/foreignKeys.png" width="11px" height="12px" preserveAspectRatio="xMinYMin meet" x="226.5" y="-170"/>
<text text-anchor="start" x="241.5" y="-161.2" font-family="Helvetica,sans-Serif" font-size="11.00" fill="#000000">user_id</text>
<polygon fill="#ffffff" stroke="transparent" points="221.5,-131 221.5,-153 354.5,-153 354.5,-131 221.5,-131"/>
<polygon fill="none" stroke="#000000" points="221.5,-131 221.5,-153 354.5,-153 354.5,-131 221.5,-131"/>
<image xlink:href="../../images/foreignKeys.png" width="11px" height="12px" preserveAspectRatio="xMinYMin meet" x="226.5" y="-148"/>
<text text-anchor="start" x="241.5" y="-139.2" font-family="Helvetica,sans-Serif" font-size="11.00" fill="#000000">edition_id</text>
<polygon fill="none" stroke="#000000" points="221.5,-113 221.5,-131 354.5,-131 354.5,-113 221.5,-113"/>
<text text-anchor="start" x="224.5" y="-119.2" font-family="Helvetica,sans-Serif" font-size="11.00" fill="#000000">...</text>
<polygon fill="#ffffff" stroke="transparent" points="221.5,-95 221.5,-113 254.5,-113 254.5,-95 221.5,-95"/>
<polygon fill="none" stroke="#000000" points="221.5,-95 221.5,-113 254.5,-113 254.5,-95 221.5,-95"/>
<text text-anchor="start" x="224.5" y="-101.2" font-family="Helvetica,sans-Serif" font-size="11.00" fill="#000000">&lt; 2</text>
<polygon fill="#ffffff" stroke="transparent" points="254.5,-95 254.5,-113 320.5,-113 320.5,-95 254.5,-95"/>
<polygon fill="none" stroke="#000000" points="254.5,-95 254.5,-113 320.5,-113 320.5,-95 254.5,-95"/>
<text text-anchor="start" x="263.5" y="-101.2" font-family="Helvetica,sans-Serif" font-size="11.00" fill="#000000">1,645 rows</text>
<polygon fill="#ffffff" stroke="transparent" points="320.5,-95 320.5,-113 354.5,-113 354.5,-95 320.5,-95"/>
<polygon fill="none" stroke="#000000" points="320.5,-95 320.5,-113 354.5,-113 354.5,-95 320.5,-95"/>
<text text-anchor="start" x="329.5" y="-101.2" font-family="Helvetica,sans-Serif" font-size="11.00" fill="#000000">30 &gt;</text>
</a>
</g>
</g>
<!-- edition -->
<g id="node2" class="node">
<title>edition</title>
<g id="a_node2"><a xlink:href="../../tables/edition.html" xlink:title="edition" target="_top">
<polygon fill="#ffffff" stroke="transparent" points="8,-37 8,-139 143,-139 143,-37 8,-37"/>
<polygon fill="#f5f5f5" stroke="transparent" points="8.5,-117 8.5,-139 143.5,-139 143.5,-117 8.5,-117"/>
<polygon fill="none" stroke="#000000" points="8.5,-117 8.5,-139 143.5,-139 143.5,-117 8.5,-117"/>
<text text-anchor="start" x="13.5" y="-126.2" font-family="Helvetica,sans-Serif" font-weight="bold" font-size="11.00" fill="#000000">edition</text>
<text text-anchor="start" x="108.5" y="-125.2" font-family="Helvetica,sans-Serif" font-size="11.00" fill="#000000">[table]</text>
<polygon fill="none" stroke="#000000" points="8.5,-95 8.5,-117 143.5,-117 143.5,-95 8.5,-95"/>
<image xlink:href="../../images/primaryKeys.png" width="11px" height="12px" preserveAspectRatio="xMinYMin meet" x="13.5" y="-112"/>
<text text-anchor="start" x="28.5" y="-103.2" font-family="Helvetica,sans-Serif" font-size="11.00" fill="#000000">edition_id</text>
<polygon fill="#ffffff" stroke="transparent" points="8.5,-73 8.5,-95 143.5,-95 143.5,-73 8.5,-73"/>
<polygon fill="none" stroke="#000000" points="8.5,-73 8.5,-95 143.5,-95 143.5,-73 8.5,-73"/>
<image xlink:href="../../images/foreignKeys.png" width="11px" height="12px" preserveAspectRatio="xMinYMin meet" x="13.5" y="-90"/>
<text text-anchor="start" x="28.5" y="-81.2" font-family="Helvetica,sans-Serif" font-size="11.00" fill="#000000">manuscript_id</text>
<polygon fill="none" stroke="#000000" points="8.5,-55 8.5,-73 143.5,-73 143.5,-55 8.5,-55"/>
<text text-anchor="start" x="11.5" y="-61.2" font-family="Helvetica,sans-Serif" font-size="11.00" fill="#000000">...</text>
<polygon fill="#ffffff" stroke="transparent" points="8.5,-37 8.5,-55 42.5,-55 42.5,-37 8.5,-37"/>
<polygon fill="none" stroke="#000000" points="8.5,-37 8.5,-55 42.5,-55 42.5,-37 8.5,-37"/>
<text text-anchor="start" x="11.5" y="-43.2" font-family="Helvetica,sans-Serif" font-size="11.00" fill="#000000">&lt; 1</text>
<polygon fill="#ffffff" stroke="transparent" points="42.5,-37 42.5,-55 108.5,-55 108.5,-37 42.5,-37"/>
<polygon fill="none" stroke="#000000" points="42.5,-37 42.5,-55 108.5,-55 108.5,-37 42.5,-37"/>
<text text-anchor="start" x="51.5" y="-43.2" font-family="Helvetica,sans-Serif" font-size="11.00" fill="#000000">1,645 rows</text>
<polygon fill="#ffffff" stroke="transparent" points="108.5,-37 108.5,-55 143.5,-55 143.5,-37 108.5,-37"/>
<polygon fill="none" stroke="#000000" points="108.5,-37 108.5,-55 143.5,-55 143.5,-37 108.5,-37"/>
<text text-anchor="start" x="118.5" y="-43.2" font-family="Helvetica,sans-Serif" font-size="11.00" fill="#000000">32 &gt;</text>
</a>
</g>
</g>
<!-- edition_editor&#45;&gt;edition -->
<g id="edge1" class="edge">
<title>edition_editor:w&#45;&gt;edition:e</title>
<path fill="none" stroke="#000000" d="M207.0144,-139.9613C182.0822,-132.3458 176.1625,-106 143.5,-106"/>
<polygon fill="#000000" stroke="#000000" points="213.5781,-140.885 220.9983,-145.5649 217.539,-141.4425 221.5,-142 221.5,-142 221.5,-142 217.539,-141.4425 222.0017,-138.4351 213.5781,-140.885 213.5781,-140.885"/>
<ellipse fill="none" stroke="#000000" cx="210.4093" cy="-140.4391" rx="3.2" ry="3.2"/>
</g>
<!-- scribal_font_owner -->
<g id="node3" class="node">
<title>scribal_font_owner</title>
<g id="a_node3"><a xlink:href="../../tables/scribal_font_owner.html" xlink:title="scribal_font_owner" target="_top">
<polygon fill="#ffffff" stroke="transparent" points="432,-133 432,-243 665,-243 665,-133 432,-133"/>
<polygon fill="#f5f5f5" stroke="transparent" points="434.5,-219 434.5,-241 663.5,-241 663.5,-219 434.5,-219"/>
<polygon fill="none" stroke="#000000" points="434.5,-219 434.5,-241 663.5,-241 663.5,-219 434.5,-219"/>
<text text-anchor="start" x="439.5" y="-228.2" font-family="Helvetica,sans-Serif" font-weight="bold" font-size="11.00" fill="#000000">scribal_font_owner</text>
<text text-anchor="start" x="628.5" y="-227.2" font-family="Helvetica,sans-Serif" font-size="11.00" fill="#000000">[table]</text>
<polygon fill="none" stroke="#000000" points="434.5,-197 434.5,-219 581.5,-219 581.5,-197 434.5,-197"/>
<image xlink:href="../../images/primaryKeys.png" width="11px" height="12px" preserveAspectRatio="xMinYMin meet" x="439.5" y="-214"/>
<text text-anchor="start" x="454.5" y="-205.2" font-family="Helvetica,sans-Serif" font-size="11.00" fill="#000000">scribal_font_id</text>
<polygon fill="none" stroke="#000000" points="581.5,-197 581.5,-219 663.5,-219 663.5,-197 581.5,-197"/>
<text text-anchor="start" x="584.5" y="-205.2" font-family="Helvetica,sans-Serif" font-size="11.00" fill="#000000">int unsigned[10]</text>
<polygon fill="#ffffff" stroke="transparent" points="434.5,-175 434.5,-197 581.5,-197 581.5,-175 434.5,-175"/>
<polygon fill="none" stroke="#000000" points="434.5,-175 434.5,-197 581.5,-197 581.5,-175 434.5,-175"/>
<image xlink:href="../../images/foreignKeys.png" width="11px" height="12px" preserveAspectRatio="xMinYMin meet" x="439.5" y="-192"/>
<text text-anchor="start" x="454.5" y="-183.2" font-family="Helvetica,sans-Serif" font-size="11.00" fill="#000000">edition_editor_id</text>
<polygon fill="none" stroke="#000000" points="581.5,-175 581.5,-197 663.5,-197 663.5,-175 581.5,-175"/>
<text text-anchor="start" x="584.5" y="-183.2" font-family="Helvetica,sans-Serif" font-size="11.00" fill="#000000">int unsigned[10]</text>
<polygon fill="none" stroke="#000000" points="434.5,-153 434.5,-175 581.5,-175 581.5,-153 434.5,-153"/>
<image xlink:href="../../images/primaryKeys.png" width="11px" height="12px" preserveAspectRatio="xMinYMin meet" x="439.5" y="-170"/>
<text text-anchor="start" x="454.5" y="-161.2" font-family="Helvetica,sans-Serif" font-size="11.00" fill="#000000">edition_id</text>
<polygon fill="none" stroke="#000000" points="581.5,-153 581.5,-175 663.5,-175 663.5,-153 581.5,-153"/>
<text text-anchor="start" x="584.5" y="-161.2" font-family="Helvetica,sans-Serif" font-size="11.00" fill="#000000">int unsigned[10]</text>
<polygon fill="#ffffff" stroke="transparent" points="434.5,-135 434.5,-153 499.5,-153 499.5,-135 434.5,-135"/>
<polygon fill="none" stroke="#000000" points="434.5,-135 434.5,-153 499.5,-153 499.5,-135 434.5,-135"/>
<text text-anchor="start" x="437.5" y="-141.2" font-family="Helvetica,sans-Serif" font-size="11.00" fill="#000000">&lt; 3</text>
<polygon fill="#ffffff" stroke="transparent" points="499.5,-135 499.5,-153 581.5,-153 581.5,-135 499.5,-135"/>
<polygon fill="none" stroke="#000000" points="499.5,-135 499.5,-153 581.5,-153 581.5,-135 499.5,-135"/>
<text text-anchor="start" x="545.5" y="-141.2" font-family="Helvetica,sans-Serif" font-size="11.00" fill="#000000">0 rows</text>
<polygon fill="#ffffff" stroke="transparent" points="581.5,-135 581.5,-153 663.5,-153 663.5,-135 581.5,-135"/>
<polygon fill="none" stroke="#000000" points="581.5,-135 581.5,-153 663.5,-153 663.5,-135 581.5,-135"/>
<text text-anchor="start" x="644.5" y="-141.2" font-family="Helvetica,sans-Serif" font-size="11.00" fill="#000000">0 &gt;</text>
<polygon fill="none" stroke="#000000" stroke-width="2" points="433,-134 433,-242 664,-242 664,-134 433,-134"/>
</a>
</g>
</g>
<!-- scribal_font_owner&#45;&gt;edition_editor -->
<g id="edge2" class="edge">
<title>scribal_font_owner:w&#45;&gt;edition_editor:e</title>
<path fill="none" stroke="#000000" d="M419.9181,-186C395.6172,-186 384.6389,-186 354.5,-186"/>
<polygon fill="#000000" stroke="#000000" points="426.5,-186.0001 434.5,-189.6 430.5,-186 434.5,-186 434.5,-186 434.5,-186 430.5,-186 434.5,-182.4 426.5,-186.0001 426.5,-186.0001"/>
<ellipse fill="none" stroke="#000000" cx="423.3" cy="-186.0001" rx="3.2" ry="3.2"/>
</g>
<!-- scribal_font_owner&#45;&gt;edition -->
<g id="edge3" class="edge">
<title>scribal_font_owner:w&#45;&gt;edition:e</title>
<path fill="none" stroke="#000000" d="M420.5416,-160.2163C402.1605,-146.8233 420.4884,-101.5315 391,-84 311.9202,-36.9853 273.167,-61.3451 184,-84 164.1465,-89.0442 163.9843,-106 143.5,-106"/>
<polygon fill="#000000" stroke="#000000" points="426.7786,-161.9069 433.5581,-167.4746 430.6393,-162.9535 434.5,-164 434.5,-164 434.5,-164 430.6393,-162.9535 435.4419,-160.5254 426.7786,-161.9069 426.7786,-161.9069"/>
<ellipse fill="none" stroke="#000000" cx="423.6901" cy="-161.0697" rx="3.2" ry="3.2"/>
</g>
<!-- scribal_font -->
<g id="node4" class="node">
<title>scribal_font</title>
<g id="a_node4"><a xlink:href="../../tables/scribal_font.html" xlink:title="scribal_font" target="_top">
<polygon fill="#ffffff" stroke="transparent" points="192,-240 192,-364 383,-364 383,-240 192,-240"/>
<polygon fill="#f5f5f5" stroke="transparent" points="192.5,-342 192.5,-364 383.5,-364 383.5,-342 192.5,-342"/>
<polygon fill="none" stroke="#000000" points="192.5,-342 192.5,-364 383.5,-364 383.5,-342 192.5,-342"/>
<text text-anchor="start" x="197.5" y="-351.2" font-family="Helvetica,sans-Serif" font-weight="bold" font-size="11.00" fill="#000000">scribal_font</text>
<text text-anchor="start" x="348.5" y="-350.2" font-family="Helvetica,sans-Serif" font-size="11.00" fill="#000000">[table]</text>
<polygon fill="none" stroke="#000000" points="192.5,-320 192.5,-342 383.5,-342 383.5,-320 192.5,-320"/>
<image xlink:href="../../images/primaryKeys.png" width="11px" height="12px" preserveAspectRatio="xMinYMin meet" x="197.5" y="-337"/>
<text text-anchor="start" x="212.5" y="-328.2" font-family="Helvetica,sans-Serif" font-size="11.00" fill="#000000">scribal_font_id</text>
<polygon fill="none" stroke="#000000" points="192.5,-298 192.5,-320 383.5,-320 383.5,-298 192.5,-298"/>
<image xlink:href="../../images/foreignKeys.png" width="11px" height="12px" preserveAspectRatio="xMinYMin meet" x="197.5" y="-315"/>
<text text-anchor="start" x="212.5" y="-306.2" font-family="Helvetica,sans-Serif" font-size="11.00" fill="#000000">font_file_id</text>
<polygon fill="#ffffff" stroke="transparent" points="192.5,-276 192.5,-298 383.5,-298 383.5,-276 192.5,-276"/>
<polygon fill="none" stroke="#000000" points="192.5,-276 192.5,-298 383.5,-298 383.5,-276 192.5,-276"/>
<image xlink:href="../../images/foreignKeys.png" width="11px" height="12px" preserveAspectRatio="xMinYMin meet" x="197.5" y="-293"/>
<text text-anchor="start" x="212.5" y="-284.2" font-family="Helvetica,sans-Serif" font-size="11.00" fill="#000000">creator_id</text>
<polygon fill="none" stroke="#000000" points="192.5,-258 192.5,-276 383.5,-276 383.5,-258 192.5,-258"/>
<text text-anchor="start" x="195.5" y="-264.2" font-family="Helvetica,sans-Serif" font-size="11.00" fill="#000000">...</text>
<polygon fill="#ffffff" stroke="transparent" points="192.5,-240 192.5,-258 268.5,-258 268.5,-240 192.5,-240"/>
<polygon fill="none" stroke="#000000" points="192.5,-240 192.5,-258 268.5,-258 268.5,-240 192.5,-240"/>
<text text-anchor="start" x="195.5" y="-246.2" font-family="Helvetica,sans-Serif" font-size="11.00" fill="#000000">&lt; 1</text>
<polygon fill="#ffffff" stroke="transparent" points="268.5,-240 268.5,-258 334.5,-258 334.5,-240 268.5,-240"/>
<polygon fill="none" stroke="#000000" points="268.5,-240 268.5,-258 334.5,-258 334.5,-240 268.5,-240"/>
<text text-anchor="start" x="298.5" y="-246.2" font-family="Helvetica,sans-Serif" font-size="11.00" fill="#000000">0 rows</text>
<polygon fill="#ffffff" stroke="transparent" points="334.5,-240 334.5,-258 383.5,-258 383.5,-240 334.5,-240"/>
<polygon fill="none" stroke="#000000" points="334.5,-240 334.5,-258 383.5,-258 383.5,-240 334.5,-240"/>
<text text-anchor="start" x="364.5" y="-246.2" font-family="Helvetica,sans-Serif" font-size="11.00" fill="#000000">4 &gt;</text>
</a>
</g>
</g>
<!-- scribal_font_owner&#45;&gt;scribal_font -->
<g id="edge4" class="edge">
<title>scribal_font_owner:w&#45;&gt;scribal_font:e</title>
<path fill="none" stroke="#000000" d="M420.1193,-211.5485C387.6975,-231.7156 436.6692,-331 383.5,-331"/>
<polygon fill="#000000" stroke="#000000" points="426.733,-209.9166 435.3625,-211.4952 430.6165,-208.9583 434.5,-208 434.5,-208 434.5,-208 430.6165,-208.9583 433.6375,-204.5048 426.733,-209.9166 426.733,-209.9166"/>
<ellipse fill="none" stroke="#000000" cx="423.6261" cy="-210.6832" rx="3.2" ry="3.2"/>
</g>
</g>
</svg>
