<?xml version="1.0" encoding="UTF-8" standalone="no"?>
<!DOCTYPE svg PUBLIC "-//W3C//DTD SVG 1.1//EN"
 "http://www.w3.org/Graphics/SVG/1.1/DTD/svg11.dtd">
<!-- Generated by graphviz version 2.43.0 (0)
 -->
<!-- Title: oneDegreeRelationshipsDiagram Pages: 1 -->
<svg width="696pt" height="354pt"
 viewBox="0.00 0.00 696.00 354.00" xmlns="http://www.w3.org/2000/svg" xmlns:xlink="http://www.w3.org/1999/xlink">
<g id="graph0" class="graph" transform="scale(1 1) rotate(0) translate(4 350)">
<title>oneDegreeRelationshipsDiagram</title>
<polygon fill="#ffffff" stroke="transparent" points="-4,4 -4,-350 692,-350 692,4 -4,4"/>
<text text-anchor="middle" x="79.5" y="-7.2" font-family="Helvetica,sans-Serif" font-size="11.00">Generated by SchemaSpy</text>
<!-- edition_editor -->
<g id="node1" class="node">
<title>edition_editor</title>
<g id="a_node1"><a xlink:href="../../tables/edition_editor.html" xlink:title="edition_editor" target="_top">
<polygon fill="#ffffff" stroke="transparent" points="219.5,-95 219.5,-219 355.5,-219 355.5,-95 219.5,-95"/>
<polygon fill="#f5f5f5" stroke="transparent" points="219.5,-197 219.5,-219 355.5,-219 355.5,-197 219.5,-197"/>
<polygon fill="none" stroke="black" points="219.5,-197 219.5,-219 355.5,-219 355.5,-197 219.5,-197"/>
<text text-anchor="start" x="224.5" y="-206.2" font-family="Helvetica,sans-Serif" font-weight="bold" font-size="11.00">edition_editor</text>
<text text-anchor="start" x="313.5" y="-205.2" font-family="Helvetica,sans-Serif" font-size="11.00">[table]</text>
<polygon fill="none" stroke="black" points="219.5,-175 219.5,-197 355.5,-197 355.5,-175 219.5,-175"/>
<image xlink:href="../../images/primaryKeys.png" width="11px" height="12px" preserveAspectRatio="xMinYMin meet" x="224.5" y="-192"/>
<text text-anchor="start" x="241.5" y="-183.2" font-family="Helvetica,sans-Serif" font-size="11.00">edition_editor_id</text>
<polygon fill="#ffffff" stroke="transparent" points="219.5,-153 219.5,-175 355.5,-175 355.5,-153 219.5,-153"/>
<polygon fill="none" stroke="black" points="219.5,-153 219.5,-175 355.5,-175 355.5,-153 219.5,-153"/>
<image xlink:href="../../images/foreignKeys.png" width="11px" height="12px" preserveAspectRatio="xMinYMin meet" x="224.5" y="-170"/>
<text text-anchor="start" x="241.5" y="-161.2" font-family="Helvetica,sans-Serif" font-size="11.00">user_id</text>
<polygon fill="#ffffff" stroke="transparent" points="219.5,-131 219.5,-153 355.5,-153 355.5,-131 219.5,-131"/>
<polygon fill="none" stroke="black" points="219.5,-131 219.5,-153 355.5,-153 355.5,-131 219.5,-131"/>
<image xlink:href="../../images/foreignKeys.png" width="11px" height="12px" preserveAspectRatio="xMinYMin meet" x="224.5" y="-148"/>
<text text-anchor="start" x="241.5" y="-139.2" font-family="Helvetica,sans-Serif" font-size="11.00">edition_id</text>
<polygon fill="none" stroke="black" points="219.5,-113 219.5,-131 355.5,-131 355.5,-113 219.5,-113"/>
<text text-anchor="start" x="222.5" y="-119.2" font-family="Helvetica,sans-Serif" font-size="11.00">...</text>
<polygon fill="#ffffff" stroke="transparent" points="219.5,-95 219.5,-113 250.5,-113 250.5,-95 219.5,-95"/>
<polygon fill="none" stroke="black" points="219.5,-95 219.5,-113 250.5,-113 250.5,-95 219.5,-95"/>
<text text-anchor="start" x="222.5" y="-101.2" font-family="Helvetica,sans-Serif" font-size="11.00">&lt; 2</text>
<polygon fill="#ffffff" stroke="transparent" points="250.5,-95 250.5,-113 319.5,-113 319.5,-95 250.5,-95"/>
<polygon fill="none" stroke="black" points="250.5,-95 250.5,-113 319.5,-113 319.5,-95 250.5,-95"/>
<text text-anchor="start" x="255.5" y="-101.2" font-family="Helvetica,sans-Serif" font-size="11.00">1,645 rows</text>
<polygon fill="#ffffff" stroke="transparent" points="319.5,-95 319.5,-113 355.5,-113 355.5,-95 319.5,-95"/>
<polygon fill="none" stroke="black" points="319.5,-95 319.5,-113 355.5,-113 355.5,-95 319.5,-95"/>
<text text-anchor="start" x="325.5" y="-101.2" font-family="Helvetica,sans-Serif" font-size="11.00">33 &gt;</text>
</a>
</g>
</g>
<!-- edition -->
<g id="node2" class="node">
<title>edition</title>
<g id="a_node2"><a xlink:href="../../tables/edition.html" xlink:title="edition" target="_top">
<polygon fill="#ffffff" stroke="transparent" points="8,-37 8,-139 143,-139 143,-37 8,-37"/>
<polygon fill="#f5f5f5" stroke="transparent" points="8.5,-117 8.5,-139 143.5,-139 143.5,-117 8.5,-117"/>
<polygon fill="none" stroke="black" points="8.5,-117 8.5,-139 143.5,-139 143.5,-117 8.5,-117"/>
<text text-anchor="start" x="13.5" y="-126.2" font-family="Helvetica,sans-Serif" font-weight="bold" font-size="11.00">edition</text>
<text text-anchor="start" x="101.5" y="-125.2" font-family="Helvetica,sans-Serif" font-size="11.00">[table]</text>
<polygon fill="none" stroke="black" points="8.5,-95 8.5,-117 143.5,-117 143.5,-95 8.5,-95"/>
<image xlink:href="../../images/primaryKeys.png" width="11px" height="12px" preserveAspectRatio="xMinYMin meet" x="13.5" y="-112"/>
<text text-anchor="start" x="28.5" y="-103.2" font-family="Helvetica,sans-Serif" font-size="11.00">edition_id</text>
<polygon fill="#ffffff" stroke="transparent" points="8.5,-73 8.5,-95 143.5,-95 143.5,-73 8.5,-73"/>
<polygon fill="none" stroke="black" points="8.5,-73 8.5,-95 143.5,-95 143.5,-73 8.5,-73"/>
<image xlink:href="../../images/foreignKeys.png" width="11px" height="12px" preserveAspectRatio="xMinYMin meet" x="13.5" y="-90"/>
<text text-anchor="start" x="28.5" y="-81.2" font-family="Helvetica,sans-Serif" font-size="11.00">manuscript_id</text>
<polygon fill="none" stroke="black" points="8.5,-55 8.5,-73 143.5,-73 143.5,-55 8.5,-55"/>
<text text-anchor="start" x="11.5" y="-61.2" font-family="Helvetica,sans-Serif" font-size="11.00">...</text>
<polygon fill="#ffffff" stroke="transparent" points="8.5,-37 8.5,-55 38.5,-55 38.5,-37 8.5,-37"/>
<polygon fill="none" stroke="black" points="8.5,-37 8.5,-55 38.5,-55 38.5,-37 8.5,-37"/>
<text text-anchor="start" x="11.5" y="-43.2" font-family="Helvetica,sans-Serif" font-size="11.00">&lt; 1</text>
<polygon fill="#ffffff" stroke="transparent" points="38.5,-37 38.5,-55 107.5,-55 107.5,-37 38.5,-37"/>
<polygon fill="none" stroke="black" points="38.5,-37 38.5,-55 107.5,-55 107.5,-37 38.5,-37"/>
<text text-anchor="start" x="43.5" y="-43.2" font-family="Helvetica,sans-Serif" font-size="11.00">1,645 rows</text>
<polygon fill="#ffffff" stroke="transparent" points="107.5,-37 107.5,-55 143.5,-55 143.5,-37 107.5,-37"/>
<polygon fill="none" stroke="black" points="107.5,-37 107.5,-55 143.5,-55 143.5,-37 107.5,-37"/>
<text text-anchor="start" x="113.5" y="-43.2" font-family="Helvetica,sans-Serif" font-size="11.00">35 &gt;</text>
</a>
</g>
</g>
<!-- edition_editor&#45;&gt;edition -->
<g id="edge1" class="edge">
<title>edition_editor:w&#45;&gt;edition:e</title>
<path fill="none" stroke="black" d="M204.02,-139.75C180.84,-131.87 175.5,-106 144.5,-106"/>
<polygon fill="black" stroke="black" points="210.6,-140.77 217.95,-145.56 214.55,-141.39 218.5,-142 218.5,-142 218.5,-142 214.55,-141.39 219.05,-138.44 210.6,-140.77 210.6,-140.77"/>
<ellipse fill="none" stroke="black" cx="207.43" cy="-140.28" rx="3.2" ry="3.2"/>
</g>
<!-- scribal_font_owner -->
<g id="node3" class="node">
<title>scribal_font_owner</title>
<g id="a_node3"><a xlink:href="../../tables/scribal_font_owner.html" xlink:title="scribal_font_owner" target="_top">
<polygon fill="#ffffff" stroke="transparent" points="432,-133 432,-243 680,-243 680,-133 432,-133"/>
<polygon fill="#f5f5f5" stroke="transparent" points="434,-219 434,-241 678,-241 678,-219 434,-219"/>
<polygon fill="none" stroke="black" points="434,-219 434,-241 678,-241 678,-219 434,-219"/>
<text text-anchor="start" x="439" y="-228.2" font-family="Helvetica,sans-Serif" font-weight="bold" font-size="11.00">scribal_font_owner</text>
<text text-anchor="start" x="636" y="-227.2" font-family="Helvetica,sans-Serif" font-size="11.00">[table]</text>
<polygon fill="none" stroke="black" points="434,-197 434,-219 581,-219 581,-197 434,-197"/>
<image xlink:href="../../images/primaryKeys.png" width="11px" height="12px" preserveAspectRatio="xMinYMin meet" x="439" y="-214"/>
<text text-anchor="start" x="454" y="-205.2" font-family="Helvetica,sans-Serif" font-size="11.00">scribal_font_id</text>
<polygon fill="none" stroke="black" points="581,-197 581,-219 678,-219 678,-197 581,-197"/>
<text text-anchor="start" x="584" y="-205.2" font-family="Helvetica,sans-Serif" font-size="11.00">int unsigned[10]</text>
<polygon fill="#ffffff" stroke="transparent" points="434,-175 434,-197 581,-197 581,-175 434,-175"/>
<polygon fill="none" stroke="black" points="434,-175 434,-197 581,-197 581,-175 434,-175"/>
<image xlink:href="../../images/foreignKeys.png" width="11px" height="12px" preserveAspectRatio="xMinYMin meet" x="439" y="-192"/>
<text text-anchor="start" x="454" y="-183.2" font-family="Helvetica,sans-Serif" font-size="11.00">edition_editor_id</text>
<polygon fill="none" stroke="black" points="581,-175 581,-197 678,-197 678,-175 581,-175"/>
<text text-anchor="start" x="584" y="-183.2" font-family="Helvetica,sans-Serif" font-size="11.00">int unsigned[10]</text>
<polygon fill="none" stroke="black" points="434,-153 434,-175 581,-175 581,-153 434,-153"/>
<image xlink:href="../../images/primaryKeys.png" width="11px" height="12px" preserveAspectRatio="xMinYMin meet" x="439" y="-170"/>
<text text-anchor="start" x="454" y="-161.2" font-family="Helvetica,sans-Serif" font-size="11.00">edition_id</text>
<polygon fill="none" stroke="black" points="581,-153 581,-175 678,-175 678,-153 581,-153"/>
<text text-anchor="start" x="584" y="-161.2" font-family="Helvetica,sans-Serif" font-size="11.00">int unsigned[10]</text>
<polygon fill="#ffffff" stroke="transparent" points="434,-135 434,-153 499,-153 499,-135 434,-135"/>
<polygon fill="none" stroke="black" points="434,-135 434,-153 499,-153 499,-135 434,-135"/>
<text text-anchor="start" x="437" y="-141.2" font-family="Helvetica,sans-Serif" font-size="11.00">&lt; 3</text>
<polygon fill="#ffffff" stroke="transparent" points="499,-135 499,-153 581,-153 581,-135 499,-135"/>
<polygon fill="none" stroke="black" points="499,-135 499,-153 581,-153 581,-135 499,-135"/>
<text text-anchor="start" x="541" y="-141.2" font-family="Helvetica,sans-Serif" font-size="11.00">0 rows</text>
<polygon fill="#ffffff" stroke="transparent" points="581,-135 581,-153 678,-153 678,-135 581,-135"/>
<polygon fill="none" stroke="black" points="581,-135 581,-153 678,-153 678,-135 581,-135"/>
<text text-anchor="start" x="655" y="-141.2" font-family="Helvetica,sans-Serif" font-size="11.00">0 &gt;</text>
<polygon fill="none" stroke="black" stroke-width="2" points="433,-134 433,-242 679,-242 679,-134 433,-134"/>
</a>
</g>
</g>
<!-- scribal_font_owner&#45;&gt;edition_editor -->
<g id="edge2" class="edge">
<title>scribal_font_owner:w&#45;&gt;edition_editor:e</title>
<path fill="none" stroke="black" d="M418.42,-186C395.62,-186 385.05,-186 356.5,-186"/>
<polygon fill="black" stroke="black" points="425,-186 433,-189.6 429,-186 433,-186 433,-186 433,-186 429,-186 433,-182.4 425,-186 425,-186"/>
<ellipse fill="none" stroke="black" cx="421.8" cy="-186" rx="3.2" ry="3.2"/>
</g>
<!-- scribal_font_owner&#45;&gt;edition -->
<g id="edge3" class="edge">
<title>scribal_font_owner:w&#45;&gt;edition:e</title>
<path fill="none" stroke="black" d="M418.97,-160.03C401.37,-146.43 420,-101.53 391,-84 312.27,-36.41 273.05,-60.87 184,-84 164.55,-89.05 164.59,-106 144.5,-106"/>
<polygon fill="black" stroke="black" points="425.3,-161.82 432.02,-167.46 429.15,-162.91 433,-164 433,-164 433,-164 429.15,-162.91 433.98,-160.54 425.3,-161.82 425.3,-161.82"/>
<ellipse fill="none" stroke="black" cx="422.22" cy="-160.95" rx="3.2" ry="3.2"/>
</g>
<!-- scribal_font -->
<g id="node4" class="node">
<title>scribal_font</title>
<g id="a_node4"><a xlink:href="../../tables/scribal_font.html" xlink:title="scribal_font" target="_top">
<polygon fill="#ffffff" stroke="transparent" points="192,-240 192,-342 383,-342 383,-240 192,-240"/>
<polygon fill="#f5f5f5" stroke="transparent" points="192.5,-320 192.5,-342 383.5,-342 383.5,-320 192.5,-320"/>
<polygon fill="none" stroke="black" points="192.5,-320 192.5,-342 383.5,-342 383.5,-320 192.5,-320"/>
<text text-anchor="start" x="197.5" y="-329.2" font-family="Helvetica,sans-Serif" font-weight="bold" font-size="11.00">scribal_font</text>
<text text-anchor="start" x="341.5" y="-328.2" font-family="Helvetica,sans-Serif" font-size="11.00">[table]</text>
<polygon fill="none" stroke="black" points="192.5,-298 192.5,-320 383.5,-320 383.5,-298 192.5,-298"/>
<image xlink:href="../../images/primaryKeys.png" width="11px" height="12px" preserveAspectRatio="xMinYMin meet" x="197.5" y="-315"/>
<text text-anchor="start" x="212.5" y="-306.2" font-family="Helvetica,sans-Serif" font-size="11.00">scribal_font_id</text>
<polygon fill="none" stroke="black" points="192.5,-276 192.5,-298 383.5,-298 383.5,-276 192.5,-276"/>
<image xlink:href="../../images/foreignKeys.png" width="11px" height="12px" preserveAspectRatio="xMinYMin meet" x="197.5" y="-293"/>
<text text-anchor="start" x="212.5" y="-284.2" font-family="Helvetica,sans-Serif" font-size="11.00">font_file_id</text>
<polygon fill="none" stroke="black" points="192.5,-258 192.5,-276 383.5,-276 383.5,-258 192.5,-258"/>
<text text-anchor="start" x="195.5" y="-264.2" font-family="Helvetica,sans-Serif" font-size="11.00">...</text>
<polygon fill="#ffffff" stroke="transparent" points="192.5,-240 192.5,-258 260.5,-258 260.5,-240 192.5,-240"/>
<polygon fill="none" stroke="black" points="192.5,-240 192.5,-258 260.5,-258 260.5,-240 192.5,-240"/>
<text text-anchor="start" x="195.5" y="-246.2" font-family="Helvetica,sans-Serif" font-size="11.00"> &#160;</text>
<polygon fill="#ffffff" stroke="transparent" points="260.5,-240 260.5,-258 330.5,-258 330.5,-240 260.5,-240"/>
<polygon fill="none" stroke="black" points="260.5,-240 260.5,-258 330.5,-258 330.5,-240 260.5,-240"/>
<text text-anchor="start" x="290.5" y="-246.2" font-family="Helvetica,sans-Serif" font-size="11.00">0 rows</text>
<polygon fill="#ffffff" stroke="transparent" points="330.5,-240 330.5,-258 383.5,-258 383.5,-240 330.5,-240"/>
<polygon fill="none" stroke="black" points="330.5,-240 330.5,-258 383.5,-258 383.5,-240 330.5,-240"/>
<text text-anchor="start" x="360.5" y="-246.2" font-family="Helvetica,sans-Serif" font-size="11.00">4 &gt;</text>
</a>
</g>
</g>
<!-- scribal_font_owner&#45;&gt;scribal_font -->
<g id="edge4" class="edge">
<title>scribal_font_owner:w&#45;&gt;scribal_font:e</title>
<path fill="none" stroke="black" d="M418.99,-212.08C394.1,-230.98 428.27,-309 384.5,-309"/>
<polygon fill="black" stroke="black" points="425.32,-210.24 434.01,-211.46 429.16,-209.12 433,-208 433,-208 433,-208 429.16,-209.12 431.99,-204.54 425.32,-210.24 425.32,-210.24"/>
<ellipse fill="none" stroke="black" cx="422.25" cy="-211.13" rx="3.2" ry="3.2"/>
</g>
</g>
</svg>
