<?xml version="1.0" encoding="UTF-8" standalone="no"?>
<!DOCTYPE svg PUBLIC "-//W3C//DTD SVG 1.1//EN"
 "http://www.w3.org/Graphics/SVG/1.1/DTD/svg11.dtd">
<!-- Generated by graphviz version 2.43.0 (0)
 -->
<!-- Title: oneDegreeRelationshipsDiagram Pages: 1 -->
<svg width="911pt" height="225pt"
 viewBox="0.00 0.00 911.00 225.00" xmlns="http://www.w3.org/2000/svg" xmlns:xlink="http://www.w3.org/1999/xlink">
<g id="graph0" class="graph" transform="scale(1 1) rotate(0) translate(4 221)">
<title>oneDegreeRelationshipsDiagram</title>
<polygon fill="#ffffff" stroke="transparent" points="-4,4 -4,-221 907,-221 907,4 -4,4"/>
<text text-anchor="middle" x="79.5" y="-7.2" font-family="Helvetica,sans-Serif" font-size="11.00">Generated by SchemaSpy</text>
<!-- scribal_font_glyph_metrics -->
<g id="node1" class="node">
<title>scribal_font_glyph_metrics</title>
<g id="a_node1"><a xlink:href="../../tables/scribal_font_glyph_metrics.html" xlink:title="scribal_font_glyph_metrics" target="_top">
<polygon fill="#ffffff" stroke="transparent" points="248,-37 248,-213 589,-213 589,-37 248,-37"/>
<polygon fill="#f5f5f5" stroke="transparent" points="250.5,-189 250.5,-211 587.5,-211 587.5,-189 250.5,-189"/>
<polygon fill="none" stroke="black" points="250.5,-189 250.5,-211 587.5,-211 587.5,-189 250.5,-189"/>
<text text-anchor="start" x="255.5" y="-198.2" font-family="Helvetica,sans-Serif" font-weight="bold" font-size="11.00">scribal_font_glyph_metrics</text>
<text text-anchor="start" x="545.5" y="-197.2" font-family="Helvetica,sans-Serif" font-size="11.00">[table]</text>
<polygon fill="none" stroke="black" points="250.5,-167 250.5,-189 468.5,-189 468.5,-167 250.5,-167"/>
<image xlink:href="../../images/primaryKeys.png" width="11px" height="12px" preserveAspectRatio="xMinYMin meet" x="255.5" y="-184"/>
<text text-anchor="start" x="270.5" y="-175.2" font-family="Helvetica,sans-Serif" font-size="11.00">scribal_font_glyph_metrics_id</text>
<polygon fill="none" stroke="black" points="468.5,-167 468.5,-189 587.5,-189 587.5,-167 468.5,-167"/>
<text text-anchor="start" x="471.5" y="-175.2" font-family="Helvetica,sans-Serif" font-size="11.00">int unsigned[10]</text>
<polygon fill="#ffffff" stroke="transparent" points="250.5,-145 250.5,-167 468.5,-167 468.5,-145 250.5,-145"/>
<polygon fill="none" stroke="black" points="250.5,-145 250.5,-167 468.5,-167 468.5,-145 250.5,-145"/>
<image xlink:href="../../images/foreignKeys.png" width="11px" height="12px" preserveAspectRatio="xMinYMin meet" x="255.5" y="-162"/>
<text text-anchor="start" x="270.5" y="-153.2" font-family="Helvetica,sans-Serif" font-size="11.00">scribal_font_id</text>
<polygon fill="none" stroke="black" points="468.5,-145 468.5,-167 587.5,-167 587.5,-145 468.5,-145"/>
<text text-anchor="start" x="471.5" y="-153.2" font-family="Helvetica,sans-Serif" font-size="11.00">int unsigned[10]</text>
<polygon fill="#ffffff" stroke="transparent" points="250.5,-123 250.5,-145 468.5,-145 468.5,-123 250.5,-123"/>
<polygon fill="none" stroke="black" points="250.5,-123 250.5,-145 468.5,-145 468.5,-123 250.5,-123"/>
<text text-anchor="start" x="270.5" y="-131.2" font-family="Helvetica,sans-Serif" font-size="11.00">unicode_char</text>
<polygon fill="none" stroke="black" points="468.5,-123 468.5,-145 587.5,-145 587.5,-123 468.5,-123"/>
<text text-anchor="start" x="471.5" y="-131.2" font-family="Helvetica,sans-Serif" font-size="11.00">varbinary[4]</text>
<polygon fill="none" stroke="black" points="250.5,-101 250.5,-123 468.5,-123 468.5,-101 250.5,-101"/>
<text text-anchor="start" x="270.5" y="-109.2" font-family="Helvetica,sans-Serif" font-size="11.00">width</text>
<polygon fill="none" stroke="black" points="468.5,-101 468.5,-123 587.5,-123 587.5,-101 468.5,-101"/>
<text text-anchor="start" x="471.5" y="-109.2" font-family="Helvetica,sans-Serif" font-size="11.00">smallint unsigned[5]</text>
<polygon fill="none" stroke="black" points="250.5,-79 250.5,-101 468.5,-101 468.5,-79 250.5,-79"/>
<text text-anchor="start" x="270.5" y="-87.2" font-family="Helvetica,sans-Serif" font-size="11.00">height</text>
<polygon fill="none" stroke="black" points="468.5,-79 468.5,-101 587.5,-101 587.5,-79 468.5,-79"/>
<text text-anchor="start" x="471.5" y="-87.2" font-family="Helvetica,sans-Serif" font-size="11.00">smallint unsigned[5]</text>
<polygon fill="none" stroke="black" points="250.5,-57 250.5,-79 468.5,-79 468.5,-57 250.5,-57"/>
<text text-anchor="start" x="270.5" y="-65.2" font-family="Helvetica,sans-Serif" font-size="11.00">y_offset</text>
<polygon fill="none" stroke="black" points="468.5,-57 468.5,-79 587.5,-79 587.5,-57 468.5,-57"/>
<text text-anchor="start" x="471.5" y="-65.2" font-family="Helvetica,sans-Serif" font-size="11.00">smallint[5]</text>
<polygon fill="#ffffff" stroke="transparent" points="250.5,-39 250.5,-57 350.5,-57 350.5,-39 250.5,-39"/>
<polygon fill="none" stroke="black" points="250.5,-39 250.5,-57 350.5,-57 350.5,-39 250.5,-39"/>
<text text-anchor="start" x="253.5" y="-45.2" font-family="Helvetica,sans-Serif" font-size="11.00">&lt; 1</text>
<polygon fill="#ffffff" stroke="transparent" points="350.5,-39 350.5,-57 468.5,-57 468.5,-39 350.5,-39"/>
<polygon fill="none" stroke="black" points="350.5,-39 350.5,-57 468.5,-57 468.5,-39 350.5,-39"/>
<text text-anchor="start" x="428.5" y="-45.2" font-family="Helvetica,sans-Serif" font-size="11.00">0 rows</text>
<polygon fill="#ffffff" stroke="transparent" points="468.5,-39 468.5,-57 587.5,-57 587.5,-39 468.5,-39"/>
<polygon fill="none" stroke="black" points="468.5,-39 468.5,-57 587.5,-57 587.5,-39 468.5,-39"/>
<text text-anchor="start" x="564.5" y="-45.2" font-family="Helvetica,sans-Serif" font-size="11.00">1 &gt;</text>
<polygon fill="none" stroke="black" stroke-width="2" points="249,-38 249,-212 588,-212 588,-38 249,-38"/>
</a>
</g>
</g>
<!-- scribal_font -->
<g id="node2" class="node">
<title>scribal_font</title>
<g id="a_node2"><a xlink:href="../../tables/scribal_font.html" xlink:title="scribal_font" target="_top">
<polygon fill="#ffffff" stroke="transparent" points="8,-87 8,-189 199,-189 199,-87 8,-87"/>
<polygon fill="#f5f5f5" stroke="transparent" points="8.5,-167 8.5,-189 199.5,-189 199.5,-167 8.5,-167"/>
<polygon fill="none" stroke="black" points="8.5,-167 8.5,-189 199.5,-189 199.5,-167 8.5,-167"/>
<text text-anchor="start" x="13.5" y="-176.2" font-family="Helvetica,sans-Serif" font-weight="bold" font-size="11.00">scribal_font</text>
<text text-anchor="start" x="157.5" y="-175.2" font-family="Helvetica,sans-Serif" font-size="11.00">[table]</text>
<polygon fill="none" stroke="black" points="8.5,-145 8.5,-167 199.5,-167 199.5,-145 8.5,-145"/>
<image xlink:href="../../images/primaryKeys.png" width="11px" height="12px" preserveAspectRatio="xMinYMin meet" x="13.5" y="-162"/>
<text text-anchor="start" x="28.5" y="-153.2" font-family="Helvetica,sans-Serif" font-size="11.00">scribal_font_id</text>
<polygon fill="none" stroke="black" points="8.5,-123 8.5,-145 199.5,-145 199.5,-123 8.5,-123"/>
<image xlink:href="../../images/foreignKeys.png" width="11px" height="12px" preserveAspectRatio="xMinYMin meet" x="13.5" y="-140"/>
<text text-anchor="start" x="28.5" y="-131.2" font-family="Helvetica,sans-Serif" font-size="11.00">font_file_id</text>
<polygon fill="none" stroke="black" points="8.5,-105 8.5,-123 199.5,-123 199.5,-105 8.5,-105"/>
<text text-anchor="start" x="11.5" y="-111.2" font-family="Helvetica,sans-Serif" font-size="11.00">...</text>
<polygon fill="#ffffff" stroke="transparent" points="8.5,-87 8.5,-105 76.5,-105 76.5,-87 8.5,-87"/>
<polygon fill="none" stroke="black" points="8.5,-87 8.5,-105 76.5,-105 76.5,-87 8.5,-87"/>
<text text-anchor="start" x="11.5" y="-93.2" font-family="Helvetica,sans-Serif" font-size="11.00"> &#160;</text>
<polygon fill="#ffffff" stroke="transparent" points="76.5,-87 76.5,-105 146.5,-105 146.5,-87 76.5,-87"/>
<polygon fill="none" stroke="black" points="76.5,-87 76.5,-105 146.5,-105 146.5,-87 76.5,-87"/>
<text text-anchor="start" x="106.5" y="-93.2" font-family="Helvetica,sans-Serif" font-size="11.00">0 rows</text>
<polygon fill="#ffffff" stroke="transparent" points="146.5,-87 146.5,-105 199.5,-105 199.5,-87 146.5,-87"/>
<polygon fill="none" stroke="black" points="146.5,-87 146.5,-105 199.5,-105 199.5,-87 146.5,-87"/>
<text text-anchor="start" x="176.5" y="-93.2" font-family="Helvetica,sans-Serif" font-size="11.00">4 &gt;</text>
</a>
</g>
</g>
<!-- scribal_font_glyph_metrics&#45;&gt;scribal_font -->
<g id="edge1" class="edge">
<title>scribal_font_glyph_metrics:w&#45;&gt;scribal_font:e</title>
<path fill="none" stroke="black" d="M234.99,-156C223.68,-156 216.49,-156 200.5,-156"/>
<polygon fill="black" stroke="black" points="241.5,-156 249.5,-159.6 245.5,-156 249.5,-156 249.5,-156 249.5,-156 245.5,-156 249.5,-152.4 241.5,-156 241.5,-156"/>
<ellipse fill="none" stroke="black" cx="238.3" cy="-156" rx="3.2" ry="3.2"/>
</g>
<!-- scribal_font_glyph_metrics_owner -->
<g id="node3" class="node">
<title>scribal_font_glyph_metrics_owner</title>
<g id="a_node3"><a xlink:href="../../tables/scribal_font_glyph_metrics_owner.html" xlink:title="scribal_font_glyph_metrics_owner" target="_top">
<polygon fill="#ffffff" stroke="transparent" points="638,-105 638,-211 895,-211 895,-105 638,-105"/>
<polygon fill="#f5f5f5" stroke="transparent" points="638.5,-189 638.5,-211 895.5,-211 895.5,-189 638.5,-189"/>
<polygon fill="none" stroke="black" points="638.5,-189 638.5,-211 895.5,-211 895.5,-189 638.5,-189"/>
<text text-anchor="start" x="643.5" y="-198.2" font-family="Helvetica,sans-Serif" font-weight="bold" font-size="11.00">scribal_font_glyph_metrics_owner</text>
<text text-anchor="start" x="853.5" y="-197.2" font-family="Helvetica,sans-Serif" font-size="11.00">[table]</text>
<polygon fill="none" stroke="black" points="638.5,-167 638.5,-189 895.5,-189 895.5,-167 638.5,-167"/>
<image xlink:href="../../images/primaryKeys.png" width="11px" height="12px" preserveAspectRatio="xMinYMin meet" x="643.5" y="-184"/>
<text text-anchor="start" x="663.5" y="-175.2" font-family="Helvetica,sans-Serif" font-size="11.00">scribal_font_glyph_metrics_id</text>
<polygon fill="#ffffff" stroke="transparent" points="638.5,-145 638.5,-167 895.5,-167 895.5,-145 638.5,-145"/>
<polygon fill="none" stroke="black" points="638.5,-145 638.5,-167 895.5,-167 895.5,-145 638.5,-145"/>
<image xlink:href="../../images/foreignKeys.png" width="11px" height="12px" preserveAspectRatio="xMinYMin meet" x="643.5" y="-162"/>
<text text-anchor="start" x="663.5" y="-153.2" font-family="Helvetica,sans-Serif" font-size="11.00">edition_editor_id</text>
<polygon fill="none" stroke="black" points="638.5,-123 638.5,-145 895.5,-145 895.5,-123 638.5,-123"/>
<image xlink:href="../../images/primaryKeys.png" width="11px" height="12px" preserveAspectRatio="xMinYMin meet" x="643.5" y="-140"/>
<text text-anchor="start" x="663.5" y="-131.2" font-family="Helvetica,sans-Serif" font-size="11.00">edition_id</text>
<polygon fill="#ffffff" stroke="transparent" points="638.5,-105 638.5,-123 751.5,-123 751.5,-105 638.5,-105"/>
<polygon fill="none" stroke="black" points="638.5,-105 638.5,-123 751.5,-123 751.5,-105 638.5,-105"/>
<text text-anchor="start" x="641.5" y="-111.2" font-family="Helvetica,sans-Serif" font-size="11.00">&lt; 3</text>
<polygon fill="#ffffff" stroke="transparent" points="751.5,-105 751.5,-123 837.5,-123 837.5,-105 751.5,-105"/>
<polygon fill="none" stroke="black" points="751.5,-105 751.5,-123 837.5,-123 837.5,-105 751.5,-105"/>
<text text-anchor="start" x="797.5" y="-111.2" font-family="Helvetica,sans-Serif" font-size="11.00">0 rows</text>
<polygon fill="#ffffff" stroke="transparent" points="837.5,-105 837.5,-123 895.5,-123 895.5,-105 837.5,-105"/>
<polygon fill="none" stroke="black" points="837.5,-105 837.5,-123 895.5,-123 895.5,-105 837.5,-105"/>
<text text-anchor="start" x="884.5" y="-111.2" font-family="Helvetica,sans-Serif" font-size="11.00"> &#160;</text>
</a>
</g>
</g>
<!-- scribal_font_glyph_metrics_owner&#45;&gt;scribal_font_glyph_metrics -->
<g id="edge2" class="edge">
<title>scribal_font_glyph_metrics_owner:w&#45;&gt;scribal_font_glyph_metrics:e</title>
<path fill="none" stroke="black" d="M622.99,-178C611.68,-178 604.49,-178 588.5,-178"/>
<polygon fill="black" stroke="black" points="629.5,-178 637.5,-181.6 633.5,-178 637.5,-178 637.5,-178 637.5,-178 633.5,-178 637.5,-174.4 629.5,-178 629.5,-178"/>
<ellipse fill="none" stroke="black" cx="626.3" cy="-178" rx="3.2" ry="3.2"/>
</g>
</g>
</svg>
