<?xml version="1.0" encoding="UTF-8" standalone="no"?>
<!DOCTYPE svg PUBLIC "-//W3C//DTD SVG 1.1//EN"
 "http://www.w3.org/Graphics/SVG/1.1/DTD/svg11.dtd">
<!-- Generated by graphviz version 2.43.0 (0)
 -->
<!-- Title: twoDegreesRelationshipsDiagramImplied Pages: 1 -->
<svg width="1061pt" height="591pt"
 viewBox="0.00 0.00 1061.00 591.01" xmlns="http://www.w3.org/2000/svg" xmlns:xlink="http://www.w3.org/1999/xlink">
<g id="graph0" class="graph" transform="scale(1 1) rotate(0) translate(4 587.01)">
<title>twoDegreesRelationshipsDiagramImplied</title>
<polygon fill="#ffffff" stroke="transparent" points="-4,4 -4,-587.01 1057,-587.01 1057,4 -4,4"/>
<text text-anchor="middle" x="79.5" y="-7.2" font-family="Helvetica,sans-Serif" font-size="11.00">Generated by SchemaSpy</text>
<!-- edition_editor -->
<g id="node1" class="node">
<title>edition_editor</title>
<g id="a_node1"><a xlink:href="../../tables/edition_editor.html" xlink:title="edition_editor" target="_top">
<polygon fill="#ffffff" stroke="transparent" points="500.5,-249 500.5,-307 636.5,-307 636.5,-249 500.5,-249"/>
<polygon fill="#f5f5f5" stroke="transparent" points="500.5,-285 500.5,-307 636.5,-307 636.5,-285 500.5,-285"/>
<polygon fill="none" stroke="black" points="500.5,-285 500.5,-307 636.5,-307 636.5,-285 500.5,-285"/>
<text text-anchor="start" x="505.5" y="-294.2" font-family="Helvetica,sans-Serif" font-weight="bold" font-size="11.00">edition_editor</text>
<text text-anchor="start" x="594.5" y="-293.2" font-family="Helvetica,sans-Serif" font-size="11.00">[table]</text>
<polygon fill="none" stroke="black" points="500.5,-267 500.5,-285 636.5,-285 636.5,-267 500.5,-267"/>
<text text-anchor="start" x="503.5" y="-273.2" font-family="Helvetica,sans-Serif" font-size="11.00">...</text>
<polygon fill="#ffffff" stroke="transparent" points="500.5,-249 500.5,-267 531.5,-267 531.5,-249 500.5,-249"/>
<polygon fill="none" stroke="black" points="500.5,-249 500.5,-267 531.5,-267 531.5,-249 500.5,-249"/>
<text text-anchor="start" x="503.5" y="-255.2" font-family="Helvetica,sans-Serif" font-size="11.00">&lt; 2</text>
<polygon fill="#ffffff" stroke="transparent" points="531.5,-249 531.5,-267 600.5,-267 600.5,-249 531.5,-249"/>
<polygon fill="none" stroke="black" points="531.5,-249 531.5,-267 600.5,-267 600.5,-249 531.5,-249"/>
<text text-anchor="start" x="536.5" y="-255.2" font-family="Helvetica,sans-Serif" font-size="11.00">1,645 rows</text>
<polygon fill="#ffffff" stroke="transparent" points="600.5,-249 600.5,-267 636.5,-267 636.5,-249 600.5,-249"/>
<polygon fill="none" stroke="black" points="600.5,-249 600.5,-267 636.5,-267 636.5,-249 600.5,-249"/>
<text text-anchor="start" x="606.5" y="-255.2" font-family="Helvetica,sans-Serif" font-size="11.00">33 &gt;</text>
</a>
</g>
</g>
<!-- edition -->
<g id="node2" class="node">
<title>edition</title>
<g id="a_node2"><a xlink:href="../../tables/edition.html" xlink:title="edition" target="_top">
<polygon fill="#ffffff" stroke="transparent" points="190.5,-249 190.5,-307 316.5,-307 316.5,-249 190.5,-249"/>
<polygon fill="#f5f5f5" stroke="transparent" points="190.5,-285 190.5,-307 316.5,-307 316.5,-285 190.5,-285"/>
<polygon fill="none" stroke="black" points="190.5,-285 190.5,-307 316.5,-307 316.5,-285 190.5,-285"/>
<text text-anchor="start" x="195.5" y="-294.2" font-family="Helvetica,sans-Serif" font-weight="bold" font-size="11.00">edition</text>
<text text-anchor="start" x="274.5" y="-293.2" font-family="Helvetica,sans-Serif" font-size="11.00">[table]</text>
<polygon fill="none" stroke="black" points="190.5,-267 190.5,-285 316.5,-285 316.5,-267 190.5,-267"/>
<text text-anchor="start" x="193.5" y="-273.2" font-family="Helvetica,sans-Serif" font-size="11.00">...</text>
<polygon fill="#ffffff" stroke="transparent" points="190.5,-249 190.5,-267 216.5,-267 216.5,-249 190.5,-249"/>
<polygon fill="none" stroke="black" points="190.5,-249 190.5,-267 216.5,-267 216.5,-249 190.5,-249"/>
<text text-anchor="start" x="193.5" y="-255.2" font-family="Helvetica,sans-Serif" font-size="11.00">&lt; 1</text>
<polygon fill="#ffffff" stroke="transparent" points="216.5,-249 216.5,-267 283.5,-267 283.5,-249 216.5,-249"/>
<polygon fill="none" stroke="black" points="216.5,-249 216.5,-267 283.5,-267 283.5,-249 216.5,-249"/>
<text text-anchor="start" x="219.5" y="-255.2" font-family="Helvetica,sans-Serif" font-size="11.00">1,645 rows</text>
<polygon fill="#ffffff" stroke="transparent" points="283.5,-249 283.5,-267 316.5,-267 316.5,-249 283.5,-249"/>
<polygon fill="none" stroke="black" points="283.5,-249 283.5,-267 316.5,-267 316.5,-249 283.5,-249"/>
<text text-anchor="start" x="286.5" y="-255.2" font-family="Helvetica,sans-Serif" font-size="11.00">35 &gt;</text>
</a>
</g>
</g>
<!-- edition_editor&#45;&gt;edition -->
<g id="edge1" class="edge">
<title>edition_editor:w&#45;&gt;edition:e</title>
<path fill="none" stroke="black" d="M485.01,-276C415.85,-276 393.33,-276 317.5,-276"/>
<polygon fill="black" stroke="black" points="491.5,-276 499.5,-279.6 495.5,-276 499.5,-276 499.5,-276 499.5,-276 495.5,-276 499.5,-272.4 491.5,-276 491.5,-276"/>
<ellipse fill="none" stroke="black" cx="488.3" cy="-276" rx="3.2" ry="3.2"/>
</g>
<!-- manuscript_metrics -->
<g id="node3" class="node">
<title>manuscript_metrics</title>
<g id="a_node3"><a xlink:href="../../tables/manuscript_metrics.html" xlink:title="manuscript_metrics" target="_top">
<polygon fill="#ffffff" stroke="transparent" points="482.5,-116 482.5,-174 654.5,-174 654.5,-116 482.5,-116"/>
<polygon fill="#f5f5f5" stroke="transparent" points="482.5,-152 482.5,-174 654.5,-174 654.5,-152 482.5,-152"/>
<polygon fill="none" stroke="black" points="482.5,-152 482.5,-174 654.5,-174 654.5,-152 482.5,-152"/>
<text text-anchor="start" x="487.5" y="-161.2" font-family="Helvetica,sans-Serif" font-weight="bold" font-size="11.00">manuscript_metrics</text>
<text text-anchor="start" x="612.5" y="-160.2" font-family="Helvetica,sans-Serif" font-size="11.00">[table]</text>
<polygon fill="none" stroke="black" points="482.5,-134 482.5,-152 654.5,-152 654.5,-134 482.5,-134"/>
<text text-anchor="start" x="485.5" y="-140.2" font-family="Helvetica,sans-Serif" font-size="11.00">...</text>
<polygon fill="#ffffff" stroke="transparent" points="482.5,-116 482.5,-134 534.5,-134 534.5,-116 482.5,-116"/>
<polygon fill="none" stroke="black" points="482.5,-116 482.5,-134 534.5,-134 534.5,-116 482.5,-116"/>
<text text-anchor="start" x="485.5" y="-122.2" font-family="Helvetica,sans-Serif" font-size="11.00">&lt; 2</text>
<polygon fill="#ffffff" stroke="transparent" points="534.5,-116 534.5,-134 614.5,-134 614.5,-116 534.5,-116"/>
<polygon fill="none" stroke="black" points="534.5,-116 534.5,-134 614.5,-134 614.5,-116 534.5,-116"/>
<text text-anchor="start" x="550.5" y="-122.2" font-family="Helvetica,sans-Serif" font-size="11.00">1,371 rows</text>
<polygon fill="#ffffff" stroke="transparent" points="614.5,-116 614.5,-134 654.5,-134 654.5,-116 614.5,-116"/>
<polygon fill="none" stroke="black" points="614.5,-116 614.5,-134 654.5,-134 654.5,-116 614.5,-116"/>
<text text-anchor="start" x="631.5" y="-122.2" font-family="Helvetica,sans-Serif" font-size="11.00">1 &gt;</text>
</a>
</g>
</g>
<!-- scribal_font -->
<g id="node4" class="node">
<title>scribal_font</title>
<g id="a_node4"><a xlink:href="../../tables/scribal_font.html" xlink:title="scribal_font" target="_top">
<polygon fill="#ffffff" stroke="transparent" points="158,-100 158,-202 349,-202 349,-100 158,-100"/>
<polygon fill="#f5f5f5" stroke="transparent" points="158.5,-180 158.5,-202 349.5,-202 349.5,-180 158.5,-180"/>
<polygon fill="none" stroke="black" points="158.5,-180 158.5,-202 349.5,-202 349.5,-180 158.5,-180"/>
<text text-anchor="start" x="163.5" y="-189.2" font-family="Helvetica,sans-Serif" font-weight="bold" font-size="11.00">scribal_font</text>
<text text-anchor="start" x="307.5" y="-188.2" font-family="Helvetica,sans-Serif" font-size="11.00">[table]</text>
<polygon fill="none" stroke="black" points="158.5,-158 158.5,-180 349.5,-180 349.5,-158 158.5,-158"/>
<image xlink:href="../../images/primaryKeys.png" width="11px" height="12px" preserveAspectRatio="xMinYMin meet" x="163.5" y="-175"/>
<text text-anchor="start" x="178.5" y="-166.2" font-family="Helvetica,sans-Serif" font-size="11.00">scribal_font_id</text>
<polygon fill="none" stroke="black" points="158.5,-136 158.5,-158 349.5,-158 349.5,-136 158.5,-136"/>
<image xlink:href="../../images/foreignKeys.png" width="11px" height="12px" preserveAspectRatio="xMinYMin meet" x="163.5" y="-153"/>
<text text-anchor="start" x="178.5" y="-144.2" font-family="Helvetica,sans-Serif" font-size="11.00">font_file_id</text>
<polygon fill="none" stroke="black" points="158.5,-118 158.5,-136 349.5,-136 349.5,-118 158.5,-118"/>
<text text-anchor="start" x="161.5" y="-124.2" font-family="Helvetica,sans-Serif" font-size="11.00">...</text>
<polygon fill="#ffffff" stroke="transparent" points="158.5,-100 158.5,-118 232.5,-118 232.5,-100 158.5,-100"/>
<polygon fill="none" stroke="black" points="158.5,-100 158.5,-118 232.5,-118 232.5,-100 158.5,-100"/>
<text text-anchor="start" x="161.5" y="-106.2" font-family="Helvetica,sans-Serif" font-size="11.00">&lt; 1</text>
<polygon fill="#ffffff" stroke="transparent" points="232.5,-100 232.5,-118 299.5,-118 299.5,-100 232.5,-100"/>
<polygon fill="none" stroke="black" points="232.5,-100 232.5,-118 299.5,-118 299.5,-100 232.5,-100"/>
<text text-anchor="start" x="259.5" y="-106.2" font-family="Helvetica,sans-Serif" font-size="11.00">0 rows</text>
<polygon fill="#ffffff" stroke="transparent" points="299.5,-100 299.5,-118 349.5,-118 349.5,-100 299.5,-100"/>
<polygon fill="none" stroke="black" points="299.5,-100 299.5,-118 349.5,-118 349.5,-100 299.5,-100"/>
<text text-anchor="start" x="326.5" y="-106.2" font-family="Helvetica,sans-Serif" font-size="11.00">4 &gt;</text>
</a>
</g>
</g>
<!-- manuscript_metrics&#45;&gt;scribal_font -->
<g id="edge2" class="edge">
<title>manuscript_metrics:w&#45;&gt;scribal_font:e</title>
<path fill="none" stroke="black" d="M466.88,-143.57C419.62,-147.37 404.64,-169 350.5,-169"/>
<polygon fill="black" stroke="black" points="473.51,-143.31 481.64,-146.6 477.5,-143.16 481.5,-143 481.5,-143 481.5,-143 477.5,-143.16 481.36,-139.4 473.51,-143.31 473.51,-143.31"/>
<ellipse fill="none" stroke="black" cx="470.31" cy="-143.43" rx="3.2" ry="3.2"/>
</g>
<!-- font_file -->
<g id="node5" class="node">
<title>font_file</title>
<g id="a_node5"><a xlink:href="../../tables/font_file.html" xlink:title="font_file" target="_top">
<polygon fill="#ffffff" stroke="transparent" points="8,-120 8,-178 109,-178 109,-120 8,-120"/>
<polygon fill="#f5f5f5" stroke="transparent" points="8.5,-156 8.5,-178 109.5,-178 109.5,-156 8.5,-156"/>
<polygon fill="none" stroke="black" points="8.5,-156 8.5,-178 109.5,-178 109.5,-156 8.5,-156"/>
<text text-anchor="start" x="13.5" y="-165.2" font-family="Helvetica,sans-Serif" font-weight="bold" font-size="11.00">font_file</text>
<text text-anchor="start" x="67.5" y="-164.2" font-family="Helvetica,sans-Serif" font-size="11.00">[table]</text>
<polygon fill="none" stroke="black" points="8.5,-138 8.5,-156 109.5,-156 109.5,-138 8.5,-138"/>
<text text-anchor="start" x="11.5" y="-144.2" font-family="Helvetica,sans-Serif" font-size="11.00">...</text>
<polygon fill="#ffffff" stroke="transparent" points="8.5,-120 8.5,-138 31.5,-138 31.5,-120 8.5,-120"/>
<polygon fill="none" stroke="black" points="8.5,-120 8.5,-138 31.5,-138 31.5,-120 8.5,-120"/>
<text text-anchor="start" x="11.5" y="-126.2" font-family="Helvetica,sans-Serif" font-size="11.00"> &#160;</text>
<polygon fill="#ffffff" stroke="transparent" points="31.5,-120 31.5,-138 78.5,-138 78.5,-120 31.5,-120"/>
<polygon fill="none" stroke="black" points="31.5,-120 31.5,-138 78.5,-138 78.5,-120 31.5,-120"/>
<text text-anchor="start" x="38.5" y="-126.2" font-family="Helvetica,sans-Serif" font-size="11.00">0 rows</text>
<polygon fill="#ffffff" stroke="transparent" points="78.5,-120 78.5,-138 109.5,-138 109.5,-120 78.5,-120"/>
<polygon fill="none" stroke="black" points="78.5,-120 78.5,-138 109.5,-138 109.5,-120 78.5,-120"/>
<text text-anchor="start" x="86.5" y="-126.2" font-family="Helvetica,sans-Serif" font-size="11.00">2 &gt;</text>
</a>
</g>
</g>
<!-- scribal_font&#45;&gt;font_file -->
<g id="edge3" class="edge">
<title>scribal_font:w&#45;&gt;font_file:e</title>
<path fill="none" stroke="black" stroke-dasharray="5,2" d="M142.9,-147C132.43,-147 125.51,-147 110.5,-147"/>
<polygon fill="black" stroke="black" points="149.5,-147 157.5,-150.6 153.5,-147 157.5,-147 157.5,-147 157.5,-147 153.5,-147 157.5,-143.4 149.5,-147 149.5,-147"/>
<ellipse fill="none" stroke="black" cx="146.3" cy="-147" rx="3.2" ry="3.2"/>
</g>
<!-- scribal_font_glyph_metrics -->
<g id="node6" class="node">
<title>scribal_font_glyph_metrics</title>
<g id="a_node6"><a xlink:href="../../tables/scribal_font_glyph_metrics.html" xlink:title="scribal_font_glyph_metrics" target="_top">
<polygon fill="#ffffff" stroke="transparent" points="398,-328 398,-504 739,-504 739,-328 398,-328"/>
<polygon fill="#f5f5f5" stroke="transparent" points="400.5,-480 400.5,-502 737.5,-502 737.5,-480 400.5,-480"/>
<polygon fill="none" stroke="black" points="400.5,-480 400.5,-502 737.5,-502 737.5,-480 400.5,-480"/>
<text text-anchor="start" x="405.5" y="-489.2" font-family="Helvetica,sans-Serif" font-weight="bold" font-size="11.00">scribal_font_glyph_metrics</text>
<text text-anchor="start" x="695.5" y="-488.2" font-family="Helvetica,sans-Serif" font-size="11.00">[table]</text>
<polygon fill="none" stroke="black" points="400.5,-458 400.5,-480 618.5,-480 618.5,-458 400.5,-458"/>
<image xlink:href="../../images/primaryKeys.png" width="11px" height="12px" preserveAspectRatio="xMinYMin meet" x="405.5" y="-475"/>
<text text-anchor="start" x="420.5" y="-466.2" font-family="Helvetica,sans-Serif" font-size="11.00">scribal_font_glyph_metrics_id</text>
<polygon fill="none" stroke="black" points="618.5,-458 618.5,-480 737.5,-480 737.5,-458 618.5,-458"/>
<text text-anchor="start" x="621.5" y="-466.2" font-family="Helvetica,sans-Serif" font-size="11.00">int unsigned[10]</text>
<polygon fill="#ffffff" stroke="transparent" points="400.5,-436 400.5,-458 618.5,-458 618.5,-436 400.5,-436"/>
<polygon fill="none" stroke="black" points="400.5,-436 400.5,-458 618.5,-458 618.5,-436 400.5,-436"/>
<image xlink:href="../../images/foreignKeys.png" width="11px" height="12px" preserveAspectRatio="xMinYMin meet" x="405.5" y="-453"/>
<text text-anchor="start" x="420.5" y="-444.2" font-family="Helvetica,sans-Serif" font-size="11.00">scribal_font_id</text>
<polygon fill="none" stroke="black" points="618.5,-436 618.5,-458 737.5,-458 737.5,-436 618.5,-436"/>
<text text-anchor="start" x="621.5" y="-444.2" font-family="Helvetica,sans-Serif" font-size="11.00">int unsigned[10]</text>
<polygon fill="#ffffff" stroke="transparent" points="400.5,-414 400.5,-436 618.5,-436 618.5,-414 400.5,-414"/>
<polygon fill="none" stroke="black" points="400.5,-414 400.5,-436 618.5,-436 618.5,-414 400.5,-414"/>
<text text-anchor="start" x="420.5" y="-422.2" font-family="Helvetica,sans-Serif" font-size="11.00">unicode_char</text>
<polygon fill="none" stroke="black" points="618.5,-414 618.5,-436 737.5,-436 737.5,-414 618.5,-414"/>
<text text-anchor="start" x="621.5" y="-422.2" font-family="Helvetica,sans-Serif" font-size="11.00">varbinary[4]</text>
<polygon fill="none" stroke="black" points="400.5,-392 400.5,-414 618.5,-414 618.5,-392 400.5,-392"/>
<text text-anchor="start" x="420.5" y="-400.2" font-family="Helvetica,sans-Serif" font-size="11.00">width</text>
<polygon fill="none" stroke="black" points="618.5,-392 618.5,-414 737.5,-414 737.5,-392 618.5,-392"/>
<text text-anchor="start" x="621.5" y="-400.2" font-family="Helvetica,sans-Serif" font-size="11.00">smallint unsigned[5]</text>
<polygon fill="none" stroke="black" points="400.5,-370 400.5,-392 618.5,-392 618.5,-370 400.5,-370"/>
<text text-anchor="start" x="420.5" y="-378.2" font-family="Helvetica,sans-Serif" font-size="11.00">height</text>
<polygon fill="none" stroke="black" points="618.5,-370 618.5,-392 737.5,-392 737.5,-370 618.5,-370"/>
<text text-anchor="start" x="621.5" y="-378.2" font-family="Helvetica,sans-Serif" font-size="11.00">smallint unsigned[5]</text>
<polygon fill="none" stroke="black" points="400.5,-348 400.5,-370 618.5,-370 618.5,-348 400.5,-348"/>
<text text-anchor="start" x="420.5" y="-356.2" font-family="Helvetica,sans-Serif" font-size="11.00">y_offset</text>
<polygon fill="none" stroke="black" points="618.5,-348 618.5,-370 737.5,-370 737.5,-348 618.5,-348"/>
<text text-anchor="start" x="621.5" y="-356.2" font-family="Helvetica,sans-Serif" font-size="11.00">smallint[5]</text>
<polygon fill="#ffffff" stroke="transparent" points="400.5,-330 400.5,-348 500.5,-348 500.5,-330 400.5,-330"/>
<polygon fill="none" stroke="black" points="400.5,-330 400.5,-348 500.5,-348 500.5,-330 400.5,-330"/>
<text text-anchor="start" x="403.5" y="-336.2" font-family="Helvetica,sans-Serif" font-size="11.00">&lt; 1</text>
<polygon fill="#ffffff" stroke="transparent" points="500.5,-330 500.5,-348 618.5,-348 618.5,-330 500.5,-330"/>
<polygon fill="none" stroke="black" points="500.5,-330 500.5,-348 618.5,-348 618.5,-330 500.5,-330"/>
<text text-anchor="start" x="578.5" y="-336.2" font-family="Helvetica,sans-Serif" font-size="11.00">0 rows</text>
<polygon fill="#ffffff" stroke="transparent" points="618.5,-330 618.5,-348 737.5,-348 737.5,-330 618.5,-330"/>
<polygon fill="none" stroke="black" points="618.5,-330 618.5,-348 737.5,-348 737.5,-330 618.5,-330"/>
<text text-anchor="start" x="714.5" y="-336.2" font-family="Helvetica,sans-Serif" font-size="11.00">1 &gt;</text>
<polygon fill="none" stroke="black" stroke-width="2" points="399,-329 399,-503 738,-503 738,-329 399,-329"/>
</a>
</g>
</g>
<!-- scribal_font_glyph_metrics&#45;&gt;scribal_font -->
<g id="edge4" class="edge">
<title>scribal_font_glyph_metrics:w&#45;&gt;scribal_font:e</title>
<path fill="none" stroke="black" d="M386.23,-441.19C348.88,-401.27 407.84,-169 350.5,-169"/>
<polygon fill="black" stroke="black" points="392.17,-443.79 398.06,-450.3 395.84,-445.4 399.5,-447 399.5,-447 399.5,-447 395.84,-445.4 400.94,-443.7 392.17,-443.79 392.17,-443.79"/>
<ellipse fill="none" stroke="black" cx="389.24" cy="-442.51" rx="3.2" ry="3.2"/>
</g>
<!-- scribal_font_glyph_metrics_owner -->
<g id="node7" class="node">
<title>scribal_font_glyph_metrics_owner</title>
<g id="a_node7"><a xlink:href="../../tables/scribal_font_glyph_metrics_owner.html" xlink:title="scribal_font_glyph_metrics_owner" target="_top">
<polygon fill="#ffffff" stroke="transparent" points="788,-396 788,-502 1045,-502 1045,-396 788,-396"/>
<polygon fill="#f5f5f5" stroke="transparent" points="788.5,-480 788.5,-502 1045.5,-502 1045.5,-480 788.5,-480"/>
<polygon fill="none" stroke="black" points="788.5,-480 788.5,-502 1045.5,-502 1045.5,-480 788.5,-480"/>
<text text-anchor="start" x="793.5" y="-489.2" font-family="Helvetica,sans-Serif" font-weight="bold" font-size="11.00">scribal_font_glyph_metrics_owner</text>
<text text-anchor="start" x="1003.5" y="-488.2" font-family="Helvetica,sans-Serif" font-size="11.00">[table]</text>
<polygon fill="none" stroke="black" points="788.5,-458 788.5,-480 1045.5,-480 1045.5,-458 788.5,-458"/>
<image xlink:href="../../images/primaryKeys.png" width="11px" height="12px" preserveAspectRatio="xMinYMin meet" x="793.5" y="-475"/>
<text text-anchor="start" x="813.5" y="-466.2" font-family="Helvetica,sans-Serif" font-size="11.00">scribal_font_glyph_metrics_id</text>
<polygon fill="#ffffff" stroke="transparent" points="788.5,-436 788.5,-458 1045.5,-458 1045.5,-436 788.5,-436"/>
<polygon fill="none" stroke="black" points="788.5,-436 788.5,-458 1045.5,-458 1045.5,-436 788.5,-436"/>
<image xlink:href="../../images/foreignKeys.png" width="11px" height="12px" preserveAspectRatio="xMinYMin meet" x="793.5" y="-453"/>
<text text-anchor="start" x="813.5" y="-444.2" font-family="Helvetica,sans-Serif" font-size="11.00">edition_editor_id</text>
<polygon fill="none" stroke="black" points="788.5,-414 788.5,-436 1045.5,-436 1045.5,-414 788.5,-414"/>
<image xlink:href="../../images/primaryKeys.png" width="11px" height="12px" preserveAspectRatio="xMinYMin meet" x="793.5" y="-431"/>
<text text-anchor="start" x="813.5" y="-422.2" font-family="Helvetica,sans-Serif" font-size="11.00">edition_id</text>
<polygon fill="#ffffff" stroke="transparent" points="788.5,-396 788.5,-414 901.5,-414 901.5,-396 788.5,-396"/>
<polygon fill="none" stroke="black" points="788.5,-396 788.5,-414 901.5,-414 901.5,-396 788.5,-396"/>
<text text-anchor="start" x="791.5" y="-402.2" font-family="Helvetica,sans-Serif" font-size="11.00">&lt; 3</text>
<polygon fill="#ffffff" stroke="transparent" points="901.5,-396 901.5,-414 987.5,-414 987.5,-396 901.5,-396"/>
<polygon fill="none" stroke="black" points="901.5,-396 901.5,-414 987.5,-414 987.5,-396 901.5,-396"/>
<text text-anchor="start" x="947.5" y="-402.2" font-family="Helvetica,sans-Serif" font-size="11.00">0 rows</text>
<polygon fill="#ffffff" stroke="transparent" points="987.5,-396 987.5,-414 1045.5,-414 1045.5,-396 987.5,-396"/>
<polygon fill="none" stroke="black" points="987.5,-396 987.5,-414 1045.5,-414 1045.5,-396 987.5,-396"/>
<text text-anchor="start" x="1034.5" y="-402.2" font-family="Helvetica,sans-Serif" font-size="11.00"> &#160;</text>
</a>
</g>
</g>
<!-- scribal_font_glyph_metrics_owner&#45;&gt;edition_editor -->
<g id="edge5" class="edge">
<title>scribal_font_glyph_metrics_owner:w&#45;&gt;edition_editor:e</title>
<path fill="none" stroke="black" d="M773.14,-444.68C738.3,-430.75 784.13,-357.51 747,-318 711.3,-280.02 689.62,-276 637.5,-276"/>
<polygon fill="black" stroke="black" points="779.6,-445.72 786.93,-450.55 783.55,-446.36 787.5,-447 787.5,-447 787.5,-447 783.55,-446.36 788.07,-443.45 779.6,-445.72 779.6,-445.72"/>
<ellipse fill="none" stroke="black" cx="776.44" cy="-445.21" rx="3.2" ry="3.2"/>
</g>
<!-- scribal_font_glyph_metrics_owner&#45;&gt;edition -->
<g id="edge6" class="edge">
<title>scribal_font_glyph_metrics_owner:w&#45;&gt;edition:e</title>
<path fill="none" stroke="black" d="M773.53,-428.62C753.42,-442.78 778.65,-494.53 747,-515 613.76,-601.15 517.44,-609.52 390,-515 300.84,-448.88 428.5,-276 317.5,-276"/>
<polygon fill="black" stroke="black" points="779.76,-427.01 788.4,-428.48 783.63,-426 787.5,-425 787.5,-425 787.5,-425 783.63,-426 786.6,-421.52 779.76,-427.01 779.76,-427.01"/>
<ellipse fill="none" stroke="black" cx="776.66" cy="-427.81" rx="3.2" ry="3.2"/>
</g>
<!-- scribal_font_glyph_metrics_owner&#45;&gt;scribal_font_glyph_metrics -->
<g id="edge7" class="edge">
<title>scribal_font_glyph_metrics_owner:w&#45;&gt;scribal_font_glyph_metrics:e</title>
<path fill="none" stroke="black" d="M772.99,-469C761.68,-469 754.49,-469 738.5,-469"/>
<polygon fill="black" stroke="black" points="779.5,-469 787.5,-472.6 783.5,-469 787.5,-469 787.5,-469 787.5,-469 783.5,-469 787.5,-465.4 779.5,-469 779.5,-469"/>
<ellipse fill="none" stroke="black" cx="776.3" cy="-469" rx="3.2" ry="3.2"/>
</g>
<!-- scribal_font_kerning -->
<g id="node8" class="node">
<title>scribal_font_kerning</title>
<g id="a_node8"><a xlink:href="../../tables/scribal_font_kerning.html" xlink:title="scribal_font_kerning" target="_top">
<polygon fill="#ffffff" stroke="transparent" points="481.5,-37 481.5,-95 655.5,-95 655.5,-37 481.5,-37"/>
<polygon fill="#f5f5f5" stroke="transparent" points="481.5,-73 481.5,-95 655.5,-95 655.5,-73 481.5,-73"/>
<polygon fill="none" stroke="black" points="481.5,-73 481.5,-95 655.5,-95 655.5,-73 481.5,-73"/>
<text text-anchor="start" x="486.5" y="-82.2" font-family="Helvetica,sans-Serif" font-weight="bold" font-size="11.00">scribal_font_kerning</text>
<text text-anchor="start" x="613.5" y="-81.2" font-family="Helvetica,sans-Serif" font-size="11.00">[table]</text>
<polygon fill="none" stroke="black" points="481.5,-55 481.5,-73 655.5,-73 655.5,-55 481.5,-55"/>
<text text-anchor="start" x="484.5" y="-61.2" font-family="Helvetica,sans-Serif" font-size="11.00">...</text>
<polygon fill="#ffffff" stroke="transparent" points="481.5,-37 481.5,-55 546.5,-55 546.5,-37 481.5,-37"/>
<polygon fill="none" stroke="black" points="481.5,-37 481.5,-55 546.5,-55 546.5,-37 481.5,-37"/>
<text text-anchor="start" x="484.5" y="-43.2" font-family="Helvetica,sans-Serif" font-size="11.00">&lt; 1</text>
<polygon fill="#ffffff" stroke="transparent" points="546.5,-37 546.5,-55 609.5,-55 609.5,-37 546.5,-37"/>
<polygon fill="none" stroke="black" points="546.5,-37 546.5,-55 609.5,-55 609.5,-37 546.5,-37"/>
<text text-anchor="start" x="569.5" y="-43.2" font-family="Helvetica,sans-Serif" font-size="11.00">0 rows</text>
<polygon fill="#ffffff" stroke="transparent" points="609.5,-37 609.5,-55 655.5,-55 655.5,-37 609.5,-37"/>
<polygon fill="none" stroke="black" points="609.5,-37 609.5,-55 655.5,-55 655.5,-37 609.5,-37"/>
<text text-anchor="start" x="632.5" y="-43.2" font-family="Helvetica,sans-Serif" font-size="11.00">1 &gt;</text>
</a>
</g>
</g>
<!-- scribal_font_kerning&#45;&gt;scribal_font -->
<g id="edge8" class="edge">
<title>scribal_font_kerning:w&#45;&gt;scribal_font:e</title>
<path fill="none" stroke="black" d="M465.73,-64.53C432.86,-67.12 419.14,-79.36 390,-105 364.91,-127.08 383.93,-169 350.5,-169"/>
<polygon fill="black" stroke="black" points="472.51,-64.29 480.63,-67.6 476.5,-64.14 480.5,-64 480.5,-64 480.5,-64 476.5,-64.14 480.37,-60.4 472.51,-64.29 472.51,-64.29"/>
<ellipse fill="none" stroke="black" cx="469.31" cy="-64.4" rx="3.2" ry="3.2"/>
</g>
<!-- scribal_font_owner -->
<g id="node9" class="node">
<title>scribal_font_owner</title>
<g id="a_node9"><a xlink:href="../../tables/scribal_font_owner.html" xlink:title="scribal_font_owner" target="_top">
<polygon fill="#ffffff" stroke="transparent" points="833.5,-198 833.5,-256 999.5,-256 999.5,-198 833.5,-198"/>
<polygon fill="#f5f5f5" stroke="transparent" points="833.5,-234 833.5,-256 999.5,-256 999.5,-234 833.5,-234"/>
<polygon fill="none" stroke="black" points="833.5,-234 833.5,-256 999.5,-256 999.5,-234 833.5,-234"/>
<text text-anchor="start" x="838.5" y="-243.2" font-family="Helvetica,sans-Serif" font-weight="bold" font-size="11.00">scribal_font_owner</text>
<text text-anchor="start" x="957.5" y="-242.2" font-family="Helvetica,sans-Serif" font-size="11.00">[table]</text>
<polygon fill="none" stroke="black" points="833.5,-216 833.5,-234 999.5,-234 999.5,-216 833.5,-216"/>
<text text-anchor="start" x="836.5" y="-222.2" font-family="Helvetica,sans-Serif" font-size="11.00">...</text>
<polygon fill="#ffffff" stroke="transparent" points="833.5,-198 833.5,-216 900.5,-216 900.5,-198 833.5,-198"/>
<polygon fill="none" stroke="black" points="833.5,-198 833.5,-216 900.5,-216 900.5,-198 833.5,-198"/>
<text text-anchor="start" x="836.5" y="-204.2" font-family="Helvetica,sans-Serif" font-size="11.00">&lt; 3</text>
<polygon fill="#ffffff" stroke="transparent" points="900.5,-198 900.5,-216 964.5,-216 964.5,-198 900.5,-198"/>
<polygon fill="none" stroke="black" points="900.5,-198 900.5,-216 964.5,-216 964.5,-198 900.5,-198"/>
<text text-anchor="start" x="924.5" y="-204.2" font-family="Helvetica,sans-Serif" font-size="11.00">0 rows</text>
<polygon fill="#ffffff" stroke="transparent" points="964.5,-198 964.5,-216 999.5,-216 999.5,-198 964.5,-198"/>
<polygon fill="none" stroke="black" points="964.5,-198 964.5,-216 999.5,-216 999.5,-198 964.5,-198"/>
<text text-anchor="start" x="988.5" y="-204.2" font-family="Helvetica,sans-Serif" font-size="11.00"> &#160;</text>
</a>
</g>
</g>
<!-- scribal_font_owner&#45;&gt;edition_editor -->
<g id="edge9" class="edge">
<title>scribal_font_owner:w&#45;&gt;edition_editor:e</title>
<path fill="none" stroke="black" d="M817.96,-225.47C740.89,-230.61 722.01,-276 637.5,-276"/>
<polygon fill="black" stroke="black" points="824.5,-225.26 832.62,-228.6 828.5,-225.13 832.5,-225 832.5,-225 832.5,-225 828.5,-225.13 832.38,-221.4 824.5,-225.26 824.5,-225.26"/>
<ellipse fill="none" stroke="black" cx="821.31" cy="-225.36" rx="3.2" ry="3.2"/>
</g>
<!-- scribal_font_owner&#45;&gt;edition -->
<g id="edge10" class="edge">
<title>scribal_font_owner:w&#45;&gt;edition:e</title>
<path fill="none" stroke="black" d="M818.06,-224.93C632.91,-223.22 575.6,-189.41 390,-238 354.81,-247.21 353.88,-276 317.5,-276"/>
<polygon fill="black" stroke="black" points="824.5,-224.96 832.48,-228.6 828.5,-224.98 832.5,-225 832.5,-225 832.5,-225 828.5,-224.98 832.52,-221.4 824.5,-224.96 824.5,-224.96"/>
<ellipse fill="none" stroke="black" cx="821.3" cy="-224.95" rx="3.2" ry="3.2"/>
</g>
<!-- scribal_font_owner&#45;&gt;scribal_font -->
<g id="edge11" class="edge">
<title>scribal_font_owner:w&#45;&gt;scribal_font:e</title>
<path fill="none" stroke="black" d="M817.81,-224.39C790.86,-222 779.95,-213.22 747,-209 589.23,-188.78 545.34,-218.15 390,-184 371.66,-179.97 369.28,-169 350.5,-169"/>
<polygon fill="black" stroke="black" points="824.51,-224.67 832.35,-228.6 828.5,-224.83 832.5,-225 832.5,-225 832.5,-225 828.5,-224.83 832.65,-221.4 824.51,-224.67 824.51,-224.67"/>
<ellipse fill="none" stroke="black" cx="821.31" cy="-224.54" rx="3.2" ry="3.2"/>
</g>
</g>
</svg>
