<?xml version="1.0" encoding="UTF-8" standalone="no"?>
<!DOCTYPE svg PUBLIC "-//W3C//DTD SVG 1.1//EN"
 "http://www.w3.org/Graphics/SVG/1.1/DTD/svg11.dtd">
<!-- Generated by graphviz version 2.43.0 (0)
 -->
<!-- Title: twoDegreesRelationshipsDiagram Pages: 1 -->
<svg width="730pt" height="340pt"
 viewBox="0.00 0.00 730.00 340.00" xmlns="http://www.w3.org/2000/svg" xmlns:xlink="http://www.w3.org/1999/xlink">
<g id="graph0" class="graph" transform="scale(1 1) rotate(0) translate(4 336)">
<title>twoDegreesRelationshipsDiagram</title>
<polygon fill="#ffffff" stroke="transparent" points="-4,4 -4,-336 726,-336 726,4 -4,4"/>
<text text-anchor="middle" x="79.5" y="-7.2" font-family="Helvetica,sans-Serif" font-size="11.00">Generated by SchemaSpy</text>
<!-- char_of_writing -->
<g id="node1" class="node">
<title>char_of_writing</title>
<g id="a_node1"><a xlink:href="../../tables/char_of_writing.html" xlink:title="char_of_writing" target="_top">
<polygon fill="#ffffff" stroke="transparent" points="542,-268 542,-326 687,-326 687,-268 542,-268"/>
<polygon fill="#f5f5f5" stroke="transparent" points="542.5,-304 542.5,-326 687.5,-326 687.5,-304 542.5,-304"/>
<polygon fill="none" stroke="black" points="542.5,-304 542.5,-326 687.5,-326 687.5,-304 542.5,-304"/>
<text text-anchor="start" x="547.5" y="-313.2" font-family="Helvetica,sans-Serif" font-weight="bold" font-size="11.00">char_of_writing</text>
<text text-anchor="start" x="645.5" y="-312.2" font-family="Helvetica,sans-Serif" font-size="11.00">[table]</text>
<polygon fill="none" stroke="black" points="542.5,-286 542.5,-304 687.5,-304 687.5,-286 542.5,-286"/>
<text text-anchor="start" x="545.5" y="-292.2" font-family="Helvetica,sans-Serif" font-size="11.00">...</text>
<polygon fill="#ffffff" stroke="transparent" points="542.5,-268 542.5,-286 593.5,-286 593.5,-268 542.5,-268"/>
<polygon fill="none" stroke="black" points="542.5,-268 542.5,-286 593.5,-286 593.5,-268 542.5,-268"/>
<text text-anchor="start" x="545.5" y="-274.2" font-family="Helvetica,sans-Serif" font-size="11.00">&lt; 1</text>
<polygon fill="#ffffff" stroke="transparent" points="593.5,-268 593.5,-286 648.5,-286 648.5,-268 593.5,-268"/>
<polygon fill="none" stroke="black" points="593.5,-268 593.5,-286 648.5,-286 648.5,-268 593.5,-268"/>
<text text-anchor="start" x="608.5" y="-274.2" font-family="Helvetica,sans-Serif" font-size="11.00">0 rows</text>
<polygon fill="#ffffff" stroke="transparent" points="648.5,-268 648.5,-286 687.5,-286 687.5,-268 648.5,-268"/>
<polygon fill="none" stroke="black" points="648.5,-268 648.5,-286 687.5,-286 687.5,-268 648.5,-268"/>
<text text-anchor="start" x="664.5" y="-274.2" font-family="Helvetica,sans-Serif" font-size="11.00">2 &gt;</text>
</a>
</g>
</g>
<!-- form_of_writing -->
<g id="node2" class="node">
<title>form_of_writing</title>
<g id="a_node2"><a xlink:href="../../tables/form_of_writing.html" xlink:title="form_of_writing" target="_top">
<polygon fill="#ffffff" stroke="transparent" points="312,-204 312,-328 466,-328 466,-204 312,-204"/>
<polygon fill="#f5f5f5" stroke="transparent" points="312,-306 312,-328 466,-328 466,-306 312,-306"/>
<polygon fill="none" stroke="black" points="312,-306 312,-328 466,-328 466,-306 312,-306"/>
<text text-anchor="start" x="317" y="-315.2" font-family="Helvetica,sans-Serif" font-weight="bold" font-size="11.00">form_of_writing</text>
<text text-anchor="start" x="424" y="-314.2" font-family="Helvetica,sans-Serif" font-size="11.00">[table]</text>
<polygon fill="none" stroke="black" points="312,-284 312,-306 466,-306 466,-284 312,-284"/>
<image xlink:href="../../images/primaryKeys.png" width="11px" height="12px" preserveAspectRatio="xMinYMin meet" x="317" y="-301"/>
<text text-anchor="start" x="332" y="-292.2" font-family="Helvetica,sans-Serif" font-size="11.00">form_of_writing_id</text>
<polygon fill="#ffffff" stroke="transparent" points="312,-262 312,-284 466,-284 466,-262 312,-262"/>
<polygon fill="none" stroke="black" points="312,-262 312,-284 466,-284 466,-262 312,-262"/>
<image xlink:href="../../images/foreignKeys.png" width="11px" height="12px" preserveAspectRatio="xMinYMin meet" x="317" y="-279"/>
<text text-anchor="start" x="332" y="-270.2" font-family="Helvetica,sans-Serif" font-size="11.00">scribes_scribe_id</text>
<polygon fill="#ffffff" stroke="transparent" points="312,-240 312,-262 466,-262 466,-240 312,-240"/>
<polygon fill="none" stroke="black" points="312,-240 312,-262 466,-262 466,-240 312,-240"/>
<image xlink:href="../../images/foreignKeys.png" width="11px" height="12px" preserveAspectRatio="xMinYMin meet" x="317" y="-257"/>
<text text-anchor="start" x="332" y="-248.2" font-family="Helvetica,sans-Serif" font-size="11.00">scribal_font_type_id</text>
<polygon fill="none" stroke="black" points="312,-222 312,-240 466,-240 466,-222 312,-222"/>
<text text-anchor="start" x="315" y="-228.2" font-family="Helvetica,sans-Serif" font-size="11.00">...</text>
<polygon fill="#ffffff" stroke="transparent" points="312,-204 312,-222 367,-222 367,-204 312,-204"/>
<polygon fill="none" stroke="black" points="312,-204 312,-222 367,-222 367,-204 312,-204"/>
<text text-anchor="start" x="315" y="-210.2" font-family="Helvetica,sans-Serif" font-size="11.00">&lt; 2</text>
<polygon fill="#ffffff" stroke="transparent" points="367,-204 367,-222 425,-222 425,-204 367,-204"/>
<polygon fill="none" stroke="black" points="367,-204 367,-222 425,-222 425,-204 367,-204"/>
<text text-anchor="start" x="385" y="-210.2" font-family="Helvetica,sans-Serif" font-size="11.00">0 rows</text>
<polygon fill="#ffffff" stroke="transparent" points="425,-204 425,-222 466,-222 466,-204 425,-204"/>
<polygon fill="none" stroke="black" points="425,-204 425,-222 466,-222 466,-204 425,-204"/>
<text text-anchor="start" x="443" y="-210.2" font-family="Helvetica,sans-Serif" font-size="11.00">2 &gt;</text>
</a>
</g>
</g>
<!-- char_of_writing&#45;&gt;form_of_writing -->
<g id="edge1" class="edge">
<title>char_of_writing:w&#45;&gt;form_of_writing:e</title>
<path fill="none" stroke="black" d="M526.99,-295C505,-295 494.68,-295 467,-295"/>
<polygon fill="black" stroke="black" points="533.5,-295 541.5,-298.6 537.5,-295 541.5,-295 541.5,-295 541.5,-295 537.5,-295 541.5,-291.4 533.5,-295 533.5,-295"/>
<ellipse fill="none" stroke="black" cx="530.3" cy="-295" rx="3.2" ry="3.2"/>
</g>
<!-- scribal_font_type -->
<g id="node5" class="node">
<title>scribal_font_type</title>
<g id="a_node5"><a xlink:href="../../tables/scribal_font_type.html" xlink:title="scribal_font_type" target="_top">
<polygon fill="#ffffff" stroke="transparent" points="8,-143 8,-231 263,-231 263,-143 8,-143"/>
<polygon fill="#f5f5f5" stroke="transparent" points="10.5,-207 10.5,-229 261.5,-229 261.5,-207 10.5,-207"/>
<polygon fill="none" stroke="black" points="10.5,-207 10.5,-229 261.5,-229 261.5,-207 10.5,-207"/>
<text text-anchor="start" x="15.5" y="-216.2" font-family="Helvetica,sans-Serif" font-weight="bold" font-size="11.00">scribal_font_type</text>
<text text-anchor="start" x="219.5" y="-215.2" font-family="Helvetica,sans-Serif" font-size="11.00">[table]</text>
<polygon fill="none" stroke="black" points="10.5,-185 10.5,-207 164.5,-207 164.5,-185 10.5,-185"/>
<image xlink:href="../../images/primaryKeys.png" width="11px" height="12px" preserveAspectRatio="xMinYMin meet" x="15.5" y="-202"/>
<text text-anchor="start" x="30.5" y="-193.2" font-family="Helvetica,sans-Serif" font-size="11.00">scribal_font_type_id</text>
<polygon fill="none" stroke="black" points="164.5,-185 164.5,-207 261.5,-207 261.5,-185 164.5,-185"/>
<text text-anchor="start" x="167.5" y="-193.2" font-family="Helvetica,sans-Serif" font-size="11.00">int unsigned[10]</text>
<polygon fill="#ffffff" stroke="transparent" points="10.5,-163 10.5,-185 164.5,-185 164.5,-163 10.5,-163"/>
<polygon fill="none" stroke="black" points="10.5,-163 10.5,-185 164.5,-185 164.5,-163 10.5,-163"/>
<text text-anchor="start" x="30.5" y="-171.2" font-family="Helvetica,sans-Serif" font-size="11.00">font_name</text>
<polygon fill="none" stroke="black" points="164.5,-163 164.5,-185 261.5,-185 261.5,-163 164.5,-163"/>
<text text-anchor="start" x="167.5" y="-171.2" font-family="Helvetica,sans-Serif" font-size="11.00">varchar[255]</text>
<polygon fill="#ffffff" stroke="transparent" points="10.5,-145 10.5,-163 78.5,-163 78.5,-145 10.5,-145"/>
<polygon fill="none" stroke="black" points="10.5,-145 10.5,-163 78.5,-163 78.5,-145 10.5,-145"/>
<text text-anchor="start" x="13.5" y="-151.2" font-family="Helvetica,sans-Serif" font-size="11.00">&lt; 0</text>
<polygon fill="#ffffff" stroke="transparent" points="78.5,-145 78.5,-163 164.5,-163 164.5,-145 78.5,-145"/>
<polygon fill="none" stroke="black" points="78.5,-145 78.5,-163 164.5,-163 164.5,-145 78.5,-145"/>
<text text-anchor="start" x="124.5" y="-151.2" font-family="Helvetica,sans-Serif" font-size="11.00">0 rows</text>
<polygon fill="#ffffff" stroke="transparent" points="164.5,-145 164.5,-163 261.5,-163 261.5,-145 164.5,-145"/>
<polygon fill="none" stroke="black" points="164.5,-145 164.5,-163 261.5,-163 261.5,-145 164.5,-145"/>
<text text-anchor="start" x="238.5" y="-151.2" font-family="Helvetica,sans-Serif" font-size="11.00">2 &gt;</text>
<polygon fill="none" stroke="black" stroke-width="2" points="9,-144 9,-230 262,-230 262,-144 9,-144"/>
</a>
</g>
</g>
<!-- form_of_writing&#45;&gt;scribal_font_type -->
<g id="edge3" class="edge">
<title>form_of_writing:w&#45;&gt;scribal_font_type:e</title>
<path fill="none" stroke="black" d="M297.21,-245.92C282.93,-232.31 288.98,-196 262.5,-196"/>
<polygon fill="black" stroke="black" points="303.49,-248.24 309.76,-254.38 307.25,-249.62 311,-251 311,-251 311,-251 307.25,-249.62 312.24,-247.62 303.49,-248.24 303.49,-248.24"/>
<ellipse fill="none" stroke="black" cx="300.49" cy="-247.13" rx="3.2" ry="3.2"/>
</g>
<!-- scribe -->
<g id="node6" class="node">
<title>scribe</title>
<g id="a_node6"><a xlink:href="../../tables/scribe.html" xlink:title="scribe" target="_top">
<polygon fill="#ffffff" stroke="transparent" points="91,-252 91,-310 180,-310 180,-252 91,-252"/>
<polygon fill="#f5f5f5" stroke="transparent" points="91.5,-288 91.5,-310 180.5,-310 180.5,-288 91.5,-288"/>
<polygon fill="none" stroke="black" points="91.5,-288 91.5,-310 180.5,-310 180.5,-288 91.5,-288"/>
<text text-anchor="start" x="96.5" y="-297.2" font-family="Helvetica,sans-Serif" font-weight="bold" font-size="11.00">scribe</text>
<text text-anchor="start" x="138.5" y="-296.2" font-family="Helvetica,sans-Serif" font-size="11.00">[table]</text>
<polygon fill="none" stroke="black" points="91.5,-270 91.5,-288 180.5,-288 180.5,-270 91.5,-270"/>
<text text-anchor="start" x="94.5" y="-276.2" font-family="Helvetica,sans-Serif" font-size="11.00">...</text>
<polygon fill="#ffffff" stroke="transparent" points="91.5,-252 91.5,-270 108.5,-270 108.5,-252 91.5,-252"/>
<polygon fill="none" stroke="black" points="91.5,-252 91.5,-270 108.5,-270 108.5,-252 91.5,-252"/>
<text text-anchor="start" x="94.5" y="-258.2" font-family="Helvetica,sans-Serif" font-size="11.00"> &#160;</text>
<polygon fill="#ffffff" stroke="transparent" points="108.5,-252 108.5,-270 152.5,-270 152.5,-252 108.5,-252"/>
<polygon fill="none" stroke="black" points="108.5,-252 108.5,-270 152.5,-270 152.5,-252 108.5,-252"/>
<text text-anchor="start" x="112.5" y="-258.2" font-family="Helvetica,sans-Serif" font-size="11.00">0 rows</text>
<polygon fill="#ffffff" stroke="transparent" points="152.5,-252 152.5,-270 180.5,-270 180.5,-252 152.5,-252"/>
<polygon fill="none" stroke="black" points="152.5,-252 152.5,-270 180.5,-270 180.5,-252 152.5,-252"/>
<text text-anchor="start" x="157.5" y="-258.2" font-family="Helvetica,sans-Serif" font-size="11.00">2 &gt;</text>
</a>
</g>
</g>
<!-- form_of_writing&#45;&gt;scribe -->
<g id="edge4" class="edge">
<title>form_of_writing:w&#45;&gt;scribe:e</title>
<path fill="none" stroke="black" d="M296.46,-273.14C250.47,-274.03 233.94,-279 181.5,-279"/>
<polygon fill="black" stroke="black" points="303,-273.08 311.03,-276.6 307,-273.04 311,-273 311,-273 311,-273 307,-273.04 310.97,-269.4 303,-273.08 303,-273.08"/>
<ellipse fill="none" stroke="black" cx="299.8" cy="-273.11" rx="3.2" ry="3.2"/>
</g>
<!-- edition_editor -->
<g id="node3" class="node">
<title>edition_editor</title>
<g id="a_node3"><a xlink:href="../../tables/edition_editor.html" xlink:title="edition_editor" target="_top">
<polygon fill="#ffffff" stroke="transparent" points="321,-71 321,-129 457,-129 457,-71 321,-71"/>
<polygon fill="#f5f5f5" stroke="transparent" points="321,-107 321,-129 457,-129 457,-107 321,-107"/>
<polygon fill="none" stroke="black" points="321,-107 321,-129 457,-129 457,-107 321,-107"/>
<text text-anchor="start" x="326" y="-116.2" font-family="Helvetica,sans-Serif" font-weight="bold" font-size="11.00">edition_editor</text>
<text text-anchor="start" x="415" y="-115.2" font-family="Helvetica,sans-Serif" font-size="11.00">[table]</text>
<polygon fill="none" stroke="black" points="321,-89 321,-107 457,-107 457,-89 321,-89"/>
<text text-anchor="start" x="324" y="-95.2" font-family="Helvetica,sans-Serif" font-size="11.00">...</text>
<polygon fill="#ffffff" stroke="transparent" points="321,-71 321,-89 352,-89 352,-71 321,-71"/>
<polygon fill="none" stroke="black" points="321,-71 321,-89 352,-89 352,-71 321,-71"/>
<text text-anchor="start" x="324" y="-77.2" font-family="Helvetica,sans-Serif" font-size="11.00">&lt; 2</text>
<polygon fill="#ffffff" stroke="transparent" points="352,-71 352,-89 421,-89 421,-71 352,-71"/>
<polygon fill="none" stroke="black" points="352,-71 352,-89 421,-89 421,-71 352,-71"/>
<text text-anchor="start" x="357" y="-77.2" font-family="Helvetica,sans-Serif" font-size="11.00">1,645 rows</text>
<polygon fill="#ffffff" stroke="transparent" points="421,-71 421,-89 457,-89 457,-71 421,-71"/>
<polygon fill="none" stroke="black" points="421,-71 421,-89 457,-89 457,-71 421,-71"/>
<text text-anchor="start" x="427" y="-77.2" font-family="Helvetica,sans-Serif" font-size="11.00">29 &gt;</text>
</a>
</g>
</g>
<!-- edition -->
<g id="node4" class="node">
<title>edition</title>
<g id="a_node4"><a xlink:href="../../tables/edition.html" xlink:title="edition" target="_top">
<polygon fill="#ffffff" stroke="transparent" points="72.5,-64 72.5,-122 198.5,-122 198.5,-64 72.5,-64"/>
<polygon fill="#f5f5f5" stroke="transparent" points="72.5,-100 72.5,-122 198.5,-122 198.5,-100 72.5,-100"/>
<polygon fill="none" stroke="black" points="72.5,-100 72.5,-122 198.5,-122 198.5,-100 72.5,-100"/>
<text text-anchor="start" x="77.5" y="-109.2" font-family="Helvetica,sans-Serif" font-weight="bold" font-size="11.00">edition</text>
<text text-anchor="start" x="156.5" y="-108.2" font-family="Helvetica,sans-Serif" font-size="11.00">[table]</text>
<polygon fill="none" stroke="black" points="72.5,-82 72.5,-100 198.5,-100 198.5,-82 72.5,-82"/>
<text text-anchor="start" x="75.5" y="-88.2" font-family="Helvetica,sans-Serif" font-size="11.00">...</text>
<polygon fill="#ffffff" stroke="transparent" points="72.5,-64 72.5,-82 98.5,-82 98.5,-64 72.5,-64"/>
<polygon fill="none" stroke="black" points="72.5,-64 72.5,-82 98.5,-82 98.5,-64 72.5,-64"/>
<text text-anchor="start" x="75.5" y="-70.2" font-family="Helvetica,sans-Serif" font-size="11.00">&lt; 1</text>
<polygon fill="#ffffff" stroke="transparent" points="98.5,-64 98.5,-82 165.5,-82 165.5,-64 98.5,-64"/>
<polygon fill="none" stroke="black" points="98.5,-64 98.5,-82 165.5,-82 165.5,-64 98.5,-64"/>
<text text-anchor="start" x="101.5" y="-70.2" font-family="Helvetica,sans-Serif" font-size="11.00">1,645 rows</text>
<polygon fill="#ffffff" stroke="transparent" points="165.5,-64 165.5,-82 198.5,-82 198.5,-64 165.5,-64"/>
<polygon fill="none" stroke="black" points="165.5,-64 165.5,-82 198.5,-82 198.5,-64 165.5,-64"/>
<text text-anchor="start" x="168.5" y="-70.2" font-family="Helvetica,sans-Serif" font-size="11.00">31 &gt;</text>
</a>
</g>
</g>
<!-- edition_editor&#45;&gt;edition -->
<g id="edge2" class="edge">
<title>edition_editor:w&#45;&gt;edition:e</title>
<path fill="none" stroke="black" d="M305.37,-97.81C263.39,-96.7 247.91,-91 199.5,-91"/>
<polygon fill="black" stroke="black" points="312,-97.9 319.95,-101.6 316,-97.95 320,-98 320,-98 320,-98 316,-97.95 320.05,-94.4 312,-97.9 312,-97.9"/>
<ellipse fill="none" stroke="black" cx="308.8" cy="-97.86" rx="3.2" ry="3.2"/>
</g>
<!-- form_of_writing_owner -->
<g id="node7" class="node">
<title>form_of_writing_owner</title>
<g id="a_node7"><a xlink:href="../../tables/form_of_writing_owner.html" xlink:title="form_of_writing_owner" target="_top">
<polygon fill="#ffffff" stroke="transparent" points="519.5,-164 519.5,-222 709.5,-222 709.5,-164 519.5,-164"/>
<polygon fill="#f5f5f5" stroke="transparent" points="519.5,-200 519.5,-222 709.5,-222 709.5,-200 519.5,-200"/>
<polygon fill="none" stroke="black" points="519.5,-200 519.5,-222 709.5,-222 709.5,-200 519.5,-200"/>
<text text-anchor="start" x="524.5" y="-209.2" font-family="Helvetica,sans-Serif" font-weight="bold" font-size="11.00">form_of_writing_owner</text>
<text text-anchor="start" x="667.5" y="-208.2" font-family="Helvetica,sans-Serif" font-size="11.00">[table]</text>
<polygon fill="none" stroke="black" points="519.5,-182 519.5,-200 709.5,-200 709.5,-182 519.5,-182"/>
<text text-anchor="start" x="522.5" y="-188.2" font-family="Helvetica,sans-Serif" font-size="11.00">...</text>
<polygon fill="#ffffff" stroke="transparent" points="519.5,-164 519.5,-182 598.5,-182 598.5,-164 519.5,-164"/>
<polygon fill="none" stroke="black" points="519.5,-164 519.5,-182 598.5,-182 598.5,-164 519.5,-164"/>
<text text-anchor="start" x="522.5" y="-170.2" font-family="Helvetica,sans-Serif" font-size="11.00">&lt; 3</text>
<polygon fill="#ffffff" stroke="transparent" points="598.5,-164 598.5,-182 668.5,-182 668.5,-164 598.5,-164"/>
<polygon fill="none" stroke="black" points="598.5,-164 598.5,-182 668.5,-182 668.5,-164 598.5,-164"/>
<text text-anchor="start" x="628.5" y="-170.2" font-family="Helvetica,sans-Serif" font-size="11.00">0 rows</text>
<polygon fill="#ffffff" stroke="transparent" points="668.5,-164 668.5,-182 709.5,-182 709.5,-164 668.5,-164"/>
<polygon fill="none" stroke="black" points="668.5,-164 668.5,-182 709.5,-182 709.5,-164 668.5,-164"/>
<text text-anchor="start" x="698.5" y="-170.2" font-family="Helvetica,sans-Serif" font-size="11.00"> &#160;</text>
</a>
</g>
</g>
<!-- form_of_writing_owner&#45;&gt;form_of_writing -->
<g id="edge7" class="edge">
<title>form_of_writing_owner:w&#45;&gt;form_of_writing:e</title>
<path fill="none" stroke="black" d="M504.29,-194.95C477.61,-213.95 512.53,-295 467,-295"/>
<polygon fill="black" stroke="black" points="510.79,-193.14 519.46,-194.47 514.65,-192.07 518.5,-191 518.5,-191 518.5,-191 514.65,-192.07 517.54,-187.53 510.79,-193.14 510.79,-193.14"/>
<ellipse fill="none" stroke="black" cx="507.71" cy="-194" rx="3.2" ry="3.2"/>
</g>
<!-- form_of_writing_owner&#45;&gt;edition_editor -->
<g id="edge5" class="edge">
<title>form_of_writing_owner:w&#45;&gt;edition_editor:e</title>
<path fill="none" stroke="black" d="M504.49,-187.47C476.92,-170.48 501.53,-98 458,-98"/>
<polygon fill="black" stroke="black" points="510.74,-189.04 517.62,-194.49 514.62,-190.02 518.5,-191 518.5,-191 518.5,-191 514.62,-190.02 519.38,-187.51 510.74,-189.04 510.74,-189.04"/>
<ellipse fill="none" stroke="black" cx="507.64" cy="-188.26" rx="3.2" ry="3.2"/>
</g>
<!-- form_of_writing_owner&#45;&gt;edition -->
<g id="edge6" class="edge">
<title>form_of_writing_owner:w&#45;&gt;edition:e</title>
<path fill="none" stroke="black" d="M503.86,-190.85C417.84,-189.03 391.72,-170.63 304,-140 255.57,-123.09 250.8,-91 199.5,-91"/>
<polygon fill="black" stroke="black" points="510.5,-190.92 518.46,-194.6 514.5,-190.96 518.5,-191 518.5,-191 518.5,-191 514.5,-190.96 518.54,-187.4 510.5,-190.92 510.5,-190.92"/>
<ellipse fill="none" stroke="black" cx="507.3" cy="-190.89" rx="3.2" ry="3.2"/>
</g>
<!-- scribal_font_type_owner -->
<g id="node8" class="node">
<title>scribal_font_type_owner</title>
<g id="a_node8"><a xlink:href="../../tables/scribal_font_type_owner.html" xlink:title="scribal_font_type_owner" target="_top">
<polygon fill="#ffffff" stroke="transparent" points="515,-37 515,-143 714,-143 714,-37 515,-37"/>
<polygon fill="#f5f5f5" stroke="transparent" points="515.5,-121 515.5,-143 714.5,-143 714.5,-121 515.5,-121"/>
<polygon fill="none" stroke="black" points="515.5,-121 515.5,-143 714.5,-143 714.5,-121 515.5,-121"/>
<text text-anchor="start" x="520.5" y="-130.2" font-family="Helvetica,sans-Serif" font-weight="bold" font-size="11.00">scribal_font_type_owner</text>
<text text-anchor="start" x="672.5" y="-129.2" font-family="Helvetica,sans-Serif" font-size="11.00">[table]</text>
<polygon fill="none" stroke="black" points="515.5,-99 515.5,-121 714.5,-121 714.5,-99 515.5,-99"/>
<image xlink:href="../../images/primaryKeys.png" width="11px" height="12px" preserveAspectRatio="xMinYMin meet" x="520.5" y="-116"/>
<text text-anchor="start" x="543.5" y="-107.2" font-family="Helvetica,sans-Serif" font-size="11.00">scribal_font_type_id</text>
<polygon fill="#ffffff" stroke="transparent" points="515.5,-77 515.5,-99 714.5,-99 714.5,-77 515.5,-77"/>
<polygon fill="none" stroke="black" points="515.5,-77 515.5,-99 714.5,-99 714.5,-77 515.5,-77"/>
<image xlink:href="../../images/foreignKeys.png" width="11px" height="12px" preserveAspectRatio="xMinYMin meet" x="520.5" y="-94"/>
<text text-anchor="start" x="543.5" y="-85.2" font-family="Helvetica,sans-Serif" font-size="11.00">edition_editor_id</text>
<polygon fill="none" stroke="black" points="515.5,-55 515.5,-77 714.5,-77 714.5,-55 515.5,-55"/>
<image xlink:href="../../images/primaryKeys.png" width="11px" height="12px" preserveAspectRatio="xMinYMin meet" x="520.5" y="-72"/>
<text text-anchor="start" x="543.5" y="-63.2" font-family="Helvetica,sans-Serif" font-size="11.00">edition_id</text>
<polygon fill="#ffffff" stroke="transparent" points="515.5,-37 515.5,-55 599.5,-55 599.5,-37 515.5,-37"/>
<polygon fill="none" stroke="black" points="515.5,-37 515.5,-55 599.5,-55 599.5,-37 515.5,-37"/>
<text text-anchor="start" x="518.5" y="-43.2" font-family="Helvetica,sans-Serif" font-size="11.00">&lt; 3</text>
<polygon fill="#ffffff" stroke="transparent" points="599.5,-37 599.5,-55 671.5,-55 671.5,-37 599.5,-37"/>
<polygon fill="none" stroke="black" points="599.5,-37 599.5,-55 671.5,-55 671.5,-37 599.5,-37"/>
<text text-anchor="start" x="631.5" y="-43.2" font-family="Helvetica,sans-Serif" font-size="11.00">0 rows</text>
<polygon fill="#ffffff" stroke="transparent" points="671.5,-37 671.5,-55 714.5,-55 714.5,-37 671.5,-37"/>
<polygon fill="none" stroke="black" points="671.5,-37 671.5,-55 714.5,-55 714.5,-37 671.5,-37"/>
<text text-anchor="start" x="703.5" y="-43.2" font-family="Helvetica,sans-Serif" font-size="11.00"> &#160;</text>
</a>
</g>
</g>
<!-- scribal_font_type_owner&#45;&gt;edition_editor -->
<g id="edge8" class="edge">
<title>scribal_font_type_owner:w&#45;&gt;edition_editor:e</title>
<path fill="none" stroke="black" d="M499.78,-89.31C485.48,-92.02 477.72,-98 458,-98"/>
<polygon fill="black" stroke="black" points="506.53,-88.71 514.82,-91.59 510.52,-88.35 514.5,-88 514.5,-88 514.5,-88 510.52,-88.35 514.18,-84.41 506.53,-88.71 506.53,-88.71"/>
<ellipse fill="none" stroke="black" cx="503.34" cy="-88.99" rx="3.2" ry="3.2"/>
</g>
<!-- scribal_font_type_owner&#45;&gt;edition -->
<g id="edge9" class="edge">
<title>scribal_font_type_owner:w&#45;&gt;edition:e</title>
<path fill="none" stroke="black" d="M500.13,-64.78C492.07,-63.3 486.19,-60.9 474,-60 398.65,-54.45 378.77,-49.14 304,-60 256.06,-66.96 247.94,-91 199.5,-91"/>
<polygon fill="black" stroke="black" points="506.53,-65.32 514.19,-69.59 510.51,-65.66 514.5,-66 514.5,-66 514.5,-66 510.51,-65.66 514.81,-62.41 506.53,-65.32 506.53,-65.32"/>
<ellipse fill="none" stroke="black" cx="503.34" cy="-65.05" rx="3.2" ry="3.2"/>
</g>
<!-- scribal_font_type_owner&#45;&gt;scribal_font_type -->
<g id="edge10" class="edge">
<title>scribal_font_type_owner:w&#45;&gt;scribal_font_type:e</title>
<path fill="none" stroke="black" d="M500.37,-114.13C491.51,-120.58 488.51,-133.02 474,-140 430.18,-161.07 311.12,-196 262.5,-196"/>
<polygon fill="black" stroke="black" points="506.82,-112.24 515.51,-113.46 510.66,-111.12 514.5,-110 514.5,-110 514.5,-110 510.66,-111.12 513.49,-106.54 506.82,-112.24 506.82,-112.24"/>
<ellipse fill="none" stroke="black" cx="503.75" cy="-113.14" rx="3.2" ry="3.2"/>
</g>
</g>
</svg>
