<?xml version="1.0" encoding="UTF-8" standalone="no"?>
<!DOCTYPE svg PUBLIC "-//W3C//DTD SVG 1.1//EN"
 "http://www.w3.org/Graphics/SVG/1.1/DTD/svg11.dtd">
<!-- Generated by graphviz version 2.40.1 (20161225.0304)
 -->
<!-- Title: oneDegreeRelationshipsDiagramImplied Pages: 1 -->
<svg width="982pt" height="770pt"
 viewBox="0.00 0.00 982.00 770.00" xmlns="http://www.w3.org/2000/svg" xmlns:xlink="http://www.w3.org/1999/xlink">
<g id="graph0" class="graph" transform="scale(1 1) rotate(0) translate(4 766)">
<title>oneDegreeRelationshipsDiagramImplied</title>
<polygon fill="#ffffff" stroke="transparent" points="-4,4 -4,-766 978,-766 978,4 -4,4"/>
<text text-anchor="middle" x="71.5" y="-7.2" font-family="Helvetica,sans-Serif" font-size="11.00" fill="#000000">Generated by SchemaSpy</text>
<!-- font_file -->
<g id="node1" class="node">
<title>font_file</title>
<g id="a_node1"><a xlink:href="../../tables/font_file.html" xlink:title="font_file" target="_top">
<polygon fill="#ffffff" stroke="transparent" points="220,-324 220,-448 354,-448 354,-324 220,-324"/>
<polygon fill="#f5f5f5" stroke="transparent" points="220,-426 220,-448 354,-448 354,-426 220,-426"/>
<polygon fill="none" stroke="#000000" points="220,-426 220,-448 354,-448 354,-426 220,-426"/>
<text text-anchor="start" x="225" y="-435.2" font-family="Helvetica,sans-Serif" font-weight="bold" font-size="11.00" fill="#000000">font_file</text>
<text text-anchor="start" x="319" y="-434.2" font-family="Helvetica,sans-Serif" font-size="11.00" fill="#000000">[table]</text>
<polygon fill="none" stroke="#000000" points="220,-404 220,-426 354,-426 354,-404 220,-404"/>
<image xlink:href="../../images/primaryKeys.png" width="11px" height="12px" preserveAspectRatio="xMinYMin meet" x="225" y="-421"/>
<text text-anchor="start" x="240" y="-412.2" font-family="Helvetica,sans-Serif" font-size="11.00" fill="#000000">font_file_id</text>
<polygon fill="#ffffff" stroke="transparent" points="220,-382 220,-404 354,-404 354,-382 220,-382"/>
<polygon fill="none" stroke="#000000" points="220,-382 220,-404 354,-404 354,-382 220,-382"/>
<text text-anchor="start" x="240" y="-390.2" font-family="Helvetica,sans-Serif" font-size="11.00" fill="#000000">font_name</text>
<polygon fill="#ffffff" stroke="transparent" points="220,-360 220,-382 354,-382 354,-360 220,-360"/>
<polygon fill="none" stroke="#000000" points="220,-360 220,-382 354,-382 354,-360 220,-360"/>
<image xlink:href="../../images/foreignKeys.png" width="11px" height="12px" preserveAspectRatio="xMinYMin meet" x="225" y="-377"/>
<text text-anchor="start" x="240" y="-368.2" font-family="Helvetica,sans-Serif" font-size="11.00" fill="#000000">creator_id</text>
<polygon fill="none" stroke="#000000" points="220,-342 220,-360 354,-360 354,-342 220,-342"/>
<text text-anchor="start" x="223" y="-348.2" font-family="Helvetica,sans-Serif" font-size="11.00" fill="#000000">...</text>
<polygon fill="#ffffff" stroke="transparent" points="220,-324 220,-342 267,-342 267,-324 220,-324"/>
<polygon fill="none" stroke="#000000" points="220,-324 220,-342 267,-342 267,-324 220,-324"/>
<text text-anchor="start" x="223" y="-330.2" font-family="Helvetica,sans-Serif" font-size="11.00" fill="#000000">&lt; 1</text>
<polygon fill="#ffffff" stroke="transparent" points="267,-324 267,-342 319,-342 319,-324 267,-324"/>
<polygon fill="none" stroke="#000000" points="267,-324 267,-342 319,-342 319,-324 267,-324"/>
<text text-anchor="start" x="283" y="-330.2" font-family="Helvetica,sans-Serif" font-size="11.00" fill="#000000">0 rows</text>
<polygon fill="#ffffff" stroke="transparent" points="319,-324 319,-342 354,-342 354,-324 319,-324"/>
<polygon fill="none" stroke="#000000" points="319,-324 319,-342 354,-342 354,-324 319,-324"/>
<text text-anchor="start" x="335" y="-330.2" font-family="Helvetica,sans-Serif" font-size="11.00" fill="#000000">2 &gt;</text>
</a>
</g>
</g>
<!-- user -->
<g id="node2" class="node">
<title>user</title>
<g id="a_node2"><a xlink:href="../../tables/user.html" xlink:title="user" target="_top">
<polygon fill="#ffffff" stroke="transparent" points="8,-231 8,-333 171,-333 171,-231 8,-231"/>
<polygon fill="#f5f5f5" stroke="transparent" points="8.5,-311 8.5,-333 171.5,-333 171.5,-311 8.5,-311"/>
<polygon fill="none" stroke="#000000" points="8.5,-311 8.5,-333 171.5,-333 171.5,-311 8.5,-311"/>
<text text-anchor="start" x="13.5" y="-320.2" font-family="Helvetica,sans-Serif" font-weight="bold" font-size="11.00" fill="#000000">user</text>
<text text-anchor="start" x="136.5" y="-319.2" font-family="Helvetica,sans-Serif" font-size="11.00" fill="#000000">[table]</text>
<polygon fill="none" stroke="#000000" points="8.5,-289 8.5,-311 171.5,-311 171.5,-289 8.5,-289"/>
<image xlink:href="../../images/primaryKeys.png" width="11px" height="12px" preserveAspectRatio="xMinYMin meet" x="13.5" y="-306"/>
<text text-anchor="start" x="28.5" y="-297.2" font-family="Helvetica,sans-Serif" font-size="11.00" fill="#000000">user_id</text>
<polygon fill="#ffffff" stroke="transparent" points="8.5,-267 8.5,-289 171.5,-289 171.5,-267 8.5,-267"/>
<polygon fill="none" stroke="#000000" points="8.5,-267 8.5,-289 171.5,-289 171.5,-267 8.5,-267"/>
<text text-anchor="start" x="28.5" y="-275.2" font-family="Helvetica,sans-Serif" font-size="11.00" fill="#000000">email</text>
<polygon fill="none" stroke="#000000" points="8.5,-249 8.5,-267 171.5,-267 171.5,-249 8.5,-249"/>
<text text-anchor="start" x="11.5" y="-255.2" font-family="Helvetica,sans-Serif" font-size="11.00" fill="#000000">...</text>
<polygon fill="#ffffff" stroke="transparent" points="8.5,-231 8.5,-249 62.5,-249 62.5,-231 8.5,-231"/>
<polygon fill="none" stroke="#000000" points="8.5,-231 8.5,-249 62.5,-249 62.5,-231 8.5,-231"/>
<text text-anchor="start" x="11.5" y="-237.2" font-family="Helvetica,sans-Serif" font-size="11.00" fill="#000000"> &#160;</text>
<polygon fill="#ffffff" stroke="transparent" points="62.5,-231 62.5,-249 122.5,-249 122.5,-231 62.5,-231"/>
<polygon fill="none" stroke="#000000" points="62.5,-231 62.5,-249 122.5,-249 122.5,-231 62.5,-231"/>
<text text-anchor="start" x="86.5" y="-237.2" font-family="Helvetica,sans-Serif" font-size="11.00" fill="#000000">3 rows</text>
<polygon fill="#ffffff" stroke="transparent" points="122.5,-231 122.5,-249 171.5,-249 171.5,-231 122.5,-231"/>
<polygon fill="none" stroke="#000000" points="122.5,-231 122.5,-249 171.5,-249 171.5,-231 122.5,-231"/>
<text text-anchor="start" x="146.5" y="-237.2" font-family="Helvetica,sans-Serif" font-size="11.00" fill="#000000">40 &gt;</text>
</a>
</g>
</g>
<!-- font_file&#45;&gt;user -->
<g id="edge1" class="edge">
<title>font_file:w&#45;&gt;user:e</title>
<path fill="none" stroke="#000000" d="M205.948,-365.8939C189.1691,-349.6142 203.4454,-300 171.5,-300"/>
<polygon fill="#000000" stroke="#000000" points="212.481,-368.2678 218.7705,-374.3835 216.2405,-369.6339 220,-371 220,-371 220,-371 216.2405,-369.6339 221.2295,-367.6165 212.481,-368.2678 212.481,-368.2678"/>
<ellipse fill="none" stroke="#000000" cx="209.4734" cy="-367.1749" rx="3.2" ry="3.2"/>
</g>
<!-- manuscript_metrics -->
<g id="node3" class="node">
<title>manuscript_metrics</title>
<g id="a_node3"><a xlink:href="../../tables/manuscript_metrics.html" xlink:title="manuscript_metrics" target="_top">
<polygon fill="#ffffff" stroke="transparent" points="771,-520 771,-758 943,-758 943,-520 771,-520"/>
<polygon fill="#f5f5f5" stroke="transparent" points="771,-736 771,-758 943,-758 943,-736 771,-736"/>
<polygon fill="none" stroke="#000000" points="771,-736 771,-758 943,-758 943,-736 771,-736"/>
<text text-anchor="start" x="776" y="-745.2" font-family="Helvetica,sans-Serif" font-weight="bold" font-size="11.00" fill="#000000">manuscript_metrics</text>
<text text-anchor="start" x="908" y="-744.2" font-family="Helvetica,sans-Serif" font-size="11.00" fill="#000000">[table]</text>
<polygon fill="none" stroke="#000000" points="771,-714 771,-736 943,-736 943,-714 771,-714"/>
<image xlink:href="../../images/primaryKeys.png" width="11px" height="12px" preserveAspectRatio="xMinYMin meet" x="776" y="-731"/>
<text text-anchor="start" x="791" y="-722.2" font-family="Helvetica,sans-Serif" font-size="11.00" fill="#000000">manuscript_metrics_id</text>
<polygon fill="#ffffff" stroke="transparent" points="771,-692 771,-714 943,-714 943,-692 771,-692"/>
<polygon fill="none" stroke="#000000" points="771,-692 771,-714 943,-714 943,-692 771,-692"/>
<image xlink:href="../../images/foreignKeys.png" width="11px" height="12px" preserveAspectRatio="xMinYMin meet" x="776" y="-709"/>
<text text-anchor="start" x="791" y="-700.2" font-family="Helvetica,sans-Serif" font-size="11.00" fill="#000000">manuscript_id</text>
<polygon fill="#ffffff" stroke="transparent" points="771,-670 771,-692 943,-692 943,-670 771,-670"/>
<polygon fill="none" stroke="#000000" points="771,-670 771,-692 943,-692 943,-670 771,-670"/>
<text text-anchor="start" x="791" y="-678.2" font-family="Helvetica,sans-Serif" font-size="11.00" fill="#000000">x_origin</text>
<polygon fill="#ffffff" stroke="transparent" points="771,-648 771,-670 943,-670 943,-648 771,-648"/>
<polygon fill="none" stroke="#000000" points="771,-648 771,-670 943,-670 943,-648 771,-648"/>
<text text-anchor="start" x="791" y="-656.2" font-family="Helvetica,sans-Serif" font-size="11.00" fill="#000000">y_origin</text>
<polygon fill="#ffffff" stroke="transparent" points="771,-626 771,-648 943,-648 943,-626 771,-626"/>
<polygon fill="none" stroke="#000000" points="771,-626 771,-648 943,-648 943,-626 771,-626"/>
<text text-anchor="start" x="791" y="-634.2" font-family="Helvetica,sans-Serif" font-size="11.00" fill="#000000">width</text>
<polygon fill="#ffffff" stroke="transparent" points="771,-604 771,-626 943,-626 943,-604 771,-604"/>
<polygon fill="none" stroke="#000000" points="771,-604 771,-626 943,-626 943,-604 771,-604"/>
<text text-anchor="start" x="791" y="-612.2" font-family="Helvetica,sans-Serif" font-size="11.00" fill="#000000">height</text>
<polygon fill="#ffffff" stroke="transparent" points="771,-582 771,-604 943,-604 943,-582 771,-582"/>
<polygon fill="none" stroke="#000000" points="771,-582 771,-604 943,-604 943,-582 771,-582"/>
<text text-anchor="start" x="791" y="-590.2" font-family="Helvetica,sans-Serif" font-size="11.00" fill="#000000">pixels_per_inch</text>
<polygon fill="#ffffff" stroke="transparent" points="771,-560 771,-582 943,-582 943,-560 771,-560"/>
<polygon fill="none" stroke="#000000" points="771,-560 771,-582 943,-582 943,-560 771,-560"/>
<image xlink:href="../../images/foreignKeys.png" width="11px" height="12px" preserveAspectRatio="xMinYMin meet" x="776" y="-577"/>
<text text-anchor="start" x="791" y="-568.2" font-family="Helvetica,sans-Serif" font-size="11.00" fill="#000000">scribal_font_id</text>
<polygon fill="#ffffff" stroke="transparent" points="771,-538 771,-560 943,-560 943,-538 771,-538"/>
<polygon fill="none" stroke="#000000" points="771,-538 771,-560 943,-560 943,-538 771,-538"/>
<image xlink:href="../../images/foreignKeys.png" width="11px" height="12px" preserveAspectRatio="xMinYMin meet" x="776" y="-555"/>
<text text-anchor="start" x="791" y="-546.2" font-family="Helvetica,sans-Serif" font-size="11.00" fill="#000000">creator_id</text>
<polygon fill="#ffffff" stroke="transparent" points="771,-520 771,-538 827,-538 827,-520 771,-520"/>
<polygon fill="none" stroke="#000000" points="771,-520 771,-538 827,-538 827,-520 771,-520"/>
<text text-anchor="start" x="774" y="-526.2" font-family="Helvetica,sans-Serif" font-size="11.00" fill="#000000">&lt; 3</text>
<polygon fill="#ffffff" stroke="transparent" points="827,-520 827,-538 904,-538 904,-520 827,-520"/>
<polygon fill="none" stroke="#000000" points="827,-520 827,-538 904,-538 904,-520 827,-520"/>
<text text-anchor="start" x="847" y="-526.2" font-family="Helvetica,sans-Serif" font-size="11.00" fill="#000000">1,371 rows</text>
<polygon fill="#ffffff" stroke="transparent" points="904,-520 904,-538 943,-538 943,-520 904,-520"/>
<polygon fill="none" stroke="#000000" points="904,-520 904,-538 943,-538 943,-520 904,-520"/>
<text text-anchor="start" x="924" y="-526.2" font-family="Helvetica,sans-Serif" font-size="11.00" fill="#000000">1 &gt;</text>
</a>
</g>
</g>
<!-- manuscript_metrics&#45;&gt;user -->
<g id="edge2" class="edge">
<title>manuscript_metrics:w&#45;&gt;user:e</title>
<path fill="none" stroke="#000000" d="M756.4026,-549.0888C514.5812,-552.021 394.1171,-625.4588 212,-459 158.1735,-409.8015 244.4231,-300 171.5,-300"/>
<polygon fill="#000000" stroke="#000000" points="763.0001,-549.0487 771.0219,-552.5999 767.0001,-549.0244 771,-549 771,-549 771,-549 767.0001,-549.0244 770.9781,-545.4001 763.0001,-549.0487 763.0001,-549.0487"/>
<ellipse fill="none" stroke="#000000" cx="759.8002" cy="-549.0682" rx="3.2" ry="3.2"/>
</g>
<!-- scribal_font -->
<g id="node4" class="node">
<title>scribal_font</title>
<g id="a_node4"><a xlink:href="../../tables/scribal_font.html" xlink:title="scribal_font" target="_top">
<polygon fill="#ffffff" stroke="transparent" points="403,-307 403,-461 699,-461 699,-307 403,-307"/>
<polygon fill="#f5f5f5" stroke="transparent" points="405,-437 405,-459 697,-459 697,-437 405,-437"/>
<polygon fill="none" stroke="#000000" points="405,-437 405,-459 697,-459 697,-437 405,-437"/>
<text text-anchor="start" x="410" y="-446.2" font-family="Helvetica,sans-Serif" font-weight="bold" font-size="11.00" fill="#000000">scribal_font</text>
<text text-anchor="start" x="662" y="-445.2" font-family="Helvetica,sans-Serif" font-size="11.00" fill="#000000">[table]</text>
<polygon fill="none" stroke="#000000" points="405,-415 405,-437 596,-437 596,-415 405,-415"/>
<image xlink:href="../../images/primaryKeys.png" width="11px" height="12px" preserveAspectRatio="xMinYMin meet" x="410" y="-432"/>
<text text-anchor="start" x="425" y="-423.2" font-family="Helvetica,sans-Serif" font-size="11.00" fill="#000000">scribal_font_id</text>
<polygon fill="none" stroke="#000000" points="596,-415 596,-437 697,-437 697,-415 596,-415"/>
<text text-anchor="start" x="599" y="-423.2" font-family="Helvetica,sans-Serif" font-size="11.00" fill="#000000">int unsigned[10]</text>
<polygon fill="none" stroke="#000000" points="405,-393 405,-415 596,-415 596,-393 405,-393"/>
<image xlink:href="../../images/foreignKeys.png" width="11px" height="12px" preserveAspectRatio="xMinYMin meet" x="410" y="-410"/>
<text text-anchor="start" x="425" y="-401.2" font-family="Helvetica,sans-Serif" font-size="11.00" fill="#000000">font_file_id</text>
<polygon fill="none" stroke="#000000" points="596,-393 596,-415 697,-415 697,-393 596,-393"/>
<text text-anchor="start" x="599" y="-401.2" font-family="Helvetica,sans-Serif" font-size="11.00" fill="#000000">int unsigned[10]</text>
<polygon fill="none" stroke="#000000" points="405,-371 405,-393 596,-393 596,-371 405,-371"/>
<text text-anchor="start" x="425" y="-379.2" font-family="Helvetica,sans-Serif" font-size="11.00" fill="#000000">default_word_space</text>
<polygon fill="none" stroke="#000000" points="596,-371 596,-393 697,-393 697,-371 596,-371"/>
<text text-anchor="start" x="599" y="-379.2" font-family="Helvetica,sans-Serif" font-size="11.00" fill="#000000">smallint unsigned[5]</text>
<polygon fill="none" stroke="#000000" points="405,-349 405,-371 596,-371 596,-349 405,-349"/>
<text text-anchor="start" x="425" y="-357.2" font-family="Helvetica,sans-Serif" font-size="11.00" fill="#000000">default_interlinear_space</text>
<polygon fill="none" stroke="#000000" points="596,-349 596,-371 697,-371 697,-349 596,-349"/>
<text text-anchor="start" x="599" y="-357.2" font-family="Helvetica,sans-Serif" font-size="11.00" fill="#000000">smallint unsigned[5]</text>
<polygon fill="#ffffff" stroke="transparent" points="405,-327 405,-349 596,-349 596,-327 405,-327"/>
<polygon fill="none" stroke="#000000" points="405,-327 405,-349 596,-349 596,-327 405,-327"/>
<image xlink:href="../../images/foreignKeys.png" width="11px" height="12px" preserveAspectRatio="xMinYMin meet" x="410" y="-344"/>
<text text-anchor="start" x="425" y="-335.2" font-family="Helvetica,sans-Serif" font-size="11.00" fill="#000000">creator_id</text>
<polygon fill="none" stroke="#000000" points="596,-327 596,-349 697,-349 697,-327 596,-327"/>
<text text-anchor="start" x="599" y="-335.2" font-family="Helvetica,sans-Serif" font-size="11.00" fill="#000000">int unsigned[10]</text>
<polygon fill="#ffffff" stroke="transparent" points="405,-309 405,-327 492,-327 492,-309 405,-309"/>
<polygon fill="none" stroke="#000000" points="405,-309 405,-327 492,-327 492,-309 405,-309"/>
<text text-anchor="start" x="408" y="-315.2" font-family="Helvetica,sans-Serif" font-size="11.00" fill="#000000">&lt; 2</text>
<polygon fill="#ffffff" stroke="transparent" points="492,-309 492,-327 596,-327 596,-309 492,-309"/>
<polygon fill="none" stroke="#000000" points="492,-309 492,-327 596,-327 596,-309 492,-309"/>
<text text-anchor="start" x="560" y="-315.2" font-family="Helvetica,sans-Serif" font-size="11.00" fill="#000000">0 rows</text>
<polygon fill="#ffffff" stroke="transparent" points="596,-309 596,-327 697,-327 697,-309 596,-309"/>
<polygon fill="none" stroke="#000000" points="596,-309 596,-327 697,-327 697,-309 596,-309"/>
<text text-anchor="start" x="678" y="-315.2" font-family="Helvetica,sans-Serif" font-size="11.00" fill="#000000">4 &gt;</text>
<polygon fill="none" stroke="#000000" stroke-width="2" points="404,-308 404,-460 698,-460 698,-308 404,-308"/>
</a>
</g>
</g>
<!-- manuscript_metrics&#45;&gt;scribal_font -->
<g id="edge3" class="edge">
<title>manuscript_metrics:w&#45;&gt;scribal_font:e</title>
<path fill="none" stroke="#000000" d="M756.5256,-568.4833C708.8226,-549.2288 763.6992,-426 697,-426"/>
<polygon fill="#000000" stroke="#000000" points="763.1183,-569.6295 770.3833,-574.5468 767.0591,-570.3148 771,-571 771,-571 771,-571 767.0591,-570.3148 771.6167,-567.4532 763.1183,-569.6295 763.1183,-569.6295"/>
<ellipse fill="none" stroke="#000000" cx="759.9656" cy="-569.0813" rx="3.2" ry="3.2"/>
</g>
<!-- scribal_font&#45;&gt;font_file -->
<g id="edge5" class="edge">
<title>scribal_font:w&#45;&gt;font_file:e</title>
<path fill="none" stroke="#000000" stroke-dasharray="5,2" d="M390.5097,-405.7188C378.3398,-408.8125 371.3909,-415 354,-415"/>
<polygon fill="#000000" stroke="#000000" points="397.0557,-404.9424 405.4241,-407.5749 401.0278,-404.4712 405,-404 405,-404 405,-404 401.0278,-404.4712 404.5759,-400.4251 397.0557,-404.9424 397.0557,-404.9424"/>
<ellipse fill="none" stroke="#000000" cx="393.878" cy="-405.3193" rx="3.2" ry="3.2"/>
</g>
<!-- scribal_font&#45;&gt;user -->
<g id="edge4" class="edge">
<title>scribal_font:w&#45;&gt;user:e</title>
<path fill="none" stroke="#000000" d="M390.7451,-334.4444C381.3834,-328.939 377.0685,-318.5166 362,-314 280.6794,-289.6253 256.395,-300 171.5,-300"/>
<polygon fill="#000000" stroke="#000000" points="397.2378,-336.0638 404.1287,-341.493 401.1189,-337.0319 405,-338 405,-338 405,-338 401.1189,-337.0319 405.8713,-334.507 397.2378,-336.0638 397.2378,-336.0638"/>
<ellipse fill="none" stroke="#000000" cx="394.133" cy="-335.2893" rx="3.2" ry="3.2"/>
</g>
<!-- scribal_font_glyph_metrics -->
<g id="node5" class="node">
<title>scribal_font_glyph_metrics</title>
<g id="a_node5"><a xlink:href="../../tables/scribal_font_glyph_metrics.html" xlink:title="scribal_font_glyph_metrics" target="_top">
<polygon fill="#ffffff" stroke="transparent" points="748,-226 748,-372 966,-372 966,-226 748,-226"/>
<polygon fill="#f5f5f5" stroke="transparent" points="748,-350 748,-372 966,-372 966,-350 748,-350"/>
<polygon fill="none" stroke="#000000" points="748,-350 748,-372 966,-372 966,-350 748,-350"/>
<text text-anchor="start" x="753" y="-359.2" font-family="Helvetica,sans-Serif" font-weight="bold" font-size="11.00" fill="#000000">scribal_font_glyph_metrics</text>
<text text-anchor="start" x="931" y="-358.2" font-family="Helvetica,sans-Serif" font-size="11.00" fill="#000000">[table]</text>
<polygon fill="none" stroke="#000000" points="748,-328 748,-350 966,-350 966,-328 748,-328"/>
<image xlink:href="../../images/primaryKeys.png" width="11px" height="12px" preserveAspectRatio="xMinYMin meet" x="753" y="-345"/>
<text text-anchor="start" x="768" y="-336.2" font-family="Helvetica,sans-Serif" font-size="11.00" fill="#000000">scribal_font_glyph_metrics_id</text>
<polygon fill="#ffffff" stroke="transparent" points="748,-306 748,-328 966,-328 966,-306 748,-306"/>
<polygon fill="none" stroke="#000000" points="748,-306 748,-328 966,-328 966,-306 748,-306"/>
<image xlink:href="../../images/foreignKeys.png" width="11px" height="12px" preserveAspectRatio="xMinYMin meet" x="753" y="-323"/>
<text text-anchor="start" x="768" y="-314.2" font-family="Helvetica,sans-Serif" font-size="11.00" fill="#000000">scribal_font_id</text>
<polygon fill="#ffffff" stroke="transparent" points="748,-284 748,-306 966,-306 966,-284 748,-284"/>
<polygon fill="none" stroke="#000000" points="748,-284 748,-306 966,-306 966,-284 748,-284"/>
<text text-anchor="start" x="768" y="-292.2" font-family="Helvetica,sans-Serif" font-size="11.00" fill="#000000">unicode_char</text>
<polygon fill="#ffffff" stroke="transparent" points="748,-262 748,-284 966,-284 966,-262 748,-262"/>
<polygon fill="none" stroke="#000000" points="748,-262 748,-284 966,-284 966,-262 748,-262"/>
<image xlink:href="../../images/foreignKeys.png" width="11px" height="12px" preserveAspectRatio="xMinYMin meet" x="753" y="-279"/>
<text text-anchor="start" x="768" y="-270.2" font-family="Helvetica,sans-Serif" font-size="11.00" fill="#000000">creator_id</text>
<polygon fill="none" stroke="#000000" points="748,-244 748,-262 966,-262 966,-244 748,-244"/>
<text text-anchor="start" x="751" y="-250.2" font-family="Helvetica,sans-Serif" font-size="11.00" fill="#000000">...</text>
<polygon fill="#ffffff" stroke="transparent" points="748,-226 748,-244 837,-244 837,-226 748,-226"/>
<polygon fill="none" stroke="#000000" points="748,-226 748,-244 837,-244 837,-226 748,-226"/>
<text text-anchor="start" x="751" y="-232.2" font-family="Helvetica,sans-Serif" font-size="11.00" fill="#000000">&lt; 2</text>
<polygon fill="#ffffff" stroke="transparent" points="837,-226 837,-244 910,-244 910,-226 837,-226"/>
<polygon fill="none" stroke="#000000" points="837,-226 837,-244 910,-244 910,-226 837,-226"/>
<text text-anchor="start" x="874" y="-232.2" font-family="Helvetica,sans-Serif" font-size="11.00" fill="#000000">0 rows</text>
<polygon fill="#ffffff" stroke="transparent" points="910,-226 910,-244 966,-244 966,-226 910,-226"/>
<polygon fill="none" stroke="#000000" points="910,-226 910,-244 966,-244 966,-226 910,-226"/>
<text text-anchor="start" x="947" y="-232.2" font-family="Helvetica,sans-Serif" font-size="11.00" fill="#000000">1 &gt;</text>
</a>
</g>
</g>
<!-- scribal_font_glyph_metrics&#45;&gt;user -->
<g id="edge6" class="edge">
<title>scribal_font_glyph_metrics:w&#45;&gt;user:e</title>
<path fill="none" stroke="#000000" d="M733.5543,-272.9987C507.0504,-272.9619 444.5041,-272.2867 212,-294 193.8824,-295.692 189.6965,-300 171.5,-300"/>
<polygon fill="#000000" stroke="#000000" points="740,-272.9992 747.9997,-276.6 744,-272.9996 748,-273 748,-273 748,-273 744,-272.9996 748.0003,-269.4 740,-272.9992 740,-272.9992"/>
<ellipse fill="none" stroke="#000000" cx="736.8" cy="-272.9989" rx="3.2" ry="3.2"/>
</g>
<!-- scribal_font_glyph_metrics&#45;&gt;scribal_font -->
<g id="edge7" class="edge">
<title>scribal_font_glyph_metrics:w&#45;&gt;scribal_font:e</title>
<path fill="none" stroke="#000000" d="M733.719,-320.8794C705.7911,-340.2966 744.4261,-426 697,-426"/>
<polygon fill="#000000" stroke="#000000" points="740.2798,-319.0972 748.9437,-320.4741 744.1399,-318.0486 748,-317 748,-317 748,-317 744.1399,-318.0486 747.0563,-313.5259 740.2798,-319.0972 740.2798,-319.0972"/>
<ellipse fill="none" stroke="#000000" cx="737.1917" cy="-319.9361" rx="3.2" ry="3.2"/>
</g>
<!-- scribal_font_kerning -->
<g id="node6" class="node">
<title>scribal_font_kerning</title>
<g id="a_node6"><a xlink:href="../../tables/scribal_font_kerning.html" xlink:title="scribal_font_kerning" target="_top">
<polygon fill="#ffffff" stroke="transparent" points="769,-37 769,-205 945,-205 945,-37 769,-37"/>
<polygon fill="#f5f5f5" stroke="transparent" points="769,-183 769,-205 945,-205 945,-183 769,-183"/>
<polygon fill="none" stroke="#000000" points="769,-183 769,-205 945,-205 945,-183 769,-183"/>
<text text-anchor="start" x="774" y="-192.2" font-family="Helvetica,sans-Serif" font-weight="bold" font-size="11.00" fill="#000000">scribal_font_kerning</text>
<text text-anchor="start" x="910" y="-191.2" font-family="Helvetica,sans-Serif" font-size="11.00" fill="#000000">[table]</text>
<polygon fill="none" stroke="#000000" points="769,-161 769,-183 945,-183 945,-161 769,-161"/>
<image xlink:href="../../images/primaryKeys.png" width="11px" height="12px" preserveAspectRatio="xMinYMin meet" x="774" y="-178"/>
<text text-anchor="start" x="789" y="-169.2" font-family="Helvetica,sans-Serif" font-size="11.00" fill="#000000">scribal_font_kerning_id</text>
<polygon fill="#ffffff" stroke="transparent" points="769,-139 769,-161 945,-161 945,-139 769,-139"/>
<polygon fill="none" stroke="#000000" points="769,-139 769,-161 945,-161 945,-139 769,-139"/>
<image xlink:href="../../images/foreignKeys.png" width="11px" height="12px" preserveAspectRatio="xMinYMin meet" x="774" y="-156"/>
<text text-anchor="start" x="789" y="-147.2" font-family="Helvetica,sans-Serif" font-size="11.00" fill="#000000">scribal_font_id</text>
<polygon fill="#ffffff" stroke="transparent" points="769,-117 769,-139 945,-139 945,-117 769,-117"/>
<polygon fill="none" stroke="#000000" points="769,-117 769,-139 945,-139 945,-117 769,-117"/>
<text text-anchor="start" x="789" y="-125.2" font-family="Helvetica,sans-Serif" font-size="11.00" fill="#000000">first_unicode_char</text>
<polygon fill="#ffffff" stroke="transparent" points="769,-95 769,-117 945,-117 945,-95 769,-95"/>
<polygon fill="none" stroke="#000000" points="769,-95 769,-117 945,-117 945,-95 769,-95"/>
<text text-anchor="start" x="789" y="-103.2" font-family="Helvetica,sans-Serif" font-size="11.00" fill="#000000">second_unicode_char</text>
<polygon fill="#ffffff" stroke="transparent" points="769,-73 769,-95 945,-95 945,-73 769,-73"/>
<polygon fill="none" stroke="#000000" points="769,-73 769,-95 945,-95 945,-73 769,-73"/>
<image xlink:href="../../images/foreignKeys.png" width="11px" height="12px" preserveAspectRatio="xMinYMin meet" x="774" y="-90"/>
<text text-anchor="start" x="789" y="-81.2" font-family="Helvetica,sans-Serif" font-size="11.00" fill="#000000">creator_id</text>
<polygon fill="none" stroke="#000000" points="769,-55 769,-73 945,-73 945,-55 769,-55"/>
<text text-anchor="start" x="772" y="-61.2" font-family="Helvetica,sans-Serif" font-size="11.00" fill="#000000">...</text>
<polygon fill="#ffffff" stroke="transparent" points="769,-37 769,-55 837,-55 837,-37 769,-37"/>
<polygon fill="none" stroke="#000000" points="769,-37 769,-55 837,-55 837,-37 769,-37"/>
<text text-anchor="start" x="772" y="-43.2" font-family="Helvetica,sans-Serif" font-size="11.00" fill="#000000">&lt; 2</text>
<polygon fill="#ffffff" stroke="transparent" points="837,-37 837,-55 899,-55 899,-37 837,-37"/>
<polygon fill="none" stroke="#000000" points="837,-37 837,-55 899,-55 899,-37 837,-37"/>
<text text-anchor="start" x="863" y="-43.2" font-family="Helvetica,sans-Serif" font-size="11.00" fill="#000000">0 rows</text>
<polygon fill="#ffffff" stroke="transparent" points="899,-37 899,-55 945,-55 945,-37 899,-37"/>
<polygon fill="none" stroke="#000000" points="899,-37 899,-55 945,-55 945,-37 899,-37"/>
<text text-anchor="start" x="926" y="-43.2" font-family="Helvetica,sans-Serif" font-size="11.00" fill="#000000">1 &gt;</text>
</a>
</g>
</g>
<!-- scribal_font_kerning&#45;&gt;user -->
<g id="edge8" class="edge">
<title>scribal_font_kerning:w&#45;&gt;user:e</title>
<path fill="none" stroke="#000000" d="M754.2467,-84.0952C504.6927,-87.3572 447.1777,-173.9942 212,-278 193.266,-286.285 191.9843,-300 171.5,-300"/>
<polygon fill="#000000" stroke="#000000" points="761.0002,-84.0517 769.0233,-87.5999 765.0001,-84.0258 769,-84 769,-84 769,-84 765.0001,-84.0258 768.9767,-80.4001 761.0002,-84.0517 761.0002,-84.0517"/>
<ellipse fill="none" stroke="#000000" cx="757.8002" cy="-84.0724" rx="3.2" ry="3.2"/>
</g>
<!-- scribal_font_kerning&#45;&gt;scribal_font -->
<g id="edge9" class="edge">
<title>scribal_font_kerning:w&#45;&gt;scribal_font:e</title>
<path fill="none" stroke="#000000" d="M755.39,-155.5132C713.9806,-194.4126 755.0625,-426 697,-426"/>
<polygon fill="#000000" stroke="#000000" points="761.5853,-153.0036 770.3516,-153.3366 765.2926,-151.5018 769,-150 769,-150 769,-150 765.2926,-151.5018 767.6484,-146.6634 761.5853,-153.0036 761.5853,-153.0036"/>
<ellipse fill="none" stroke="#000000" cx="758.6194" cy="-154.2051" rx="3.2" ry="3.2"/>
</g>
<!-- scribal_font_owner -->
<g id="node7" class="node">
<title>scribal_font_owner</title>
<g id="a_node7"><a xlink:href="../../tables/scribal_font_owner.html" xlink:title="scribal_font_owner" target="_top">
<polygon fill="#ffffff" stroke="transparent" points="783.5,-393 783.5,-499 930.5,-499 930.5,-393 783.5,-393"/>
<polygon fill="#f5f5f5" stroke="transparent" points="784,-477 784,-499 931,-499 931,-477 784,-477"/>
<polygon fill="none" stroke="#000000" points="784,-477 784,-499 931,-499 931,-477 784,-477"/>
<text text-anchor="start" x="789" y="-486.2" font-family="Helvetica,sans-Serif" font-weight="bold" font-size="11.00" fill="#000000">scribal_font_owner</text>
<text text-anchor="start" x="896" y="-485.2" font-family="Helvetica,sans-Serif" font-size="11.00" fill="#000000">[table]</text>
<polygon fill="none" stroke="#000000" points="784,-455 784,-477 931,-477 931,-455 784,-455"/>
<image xlink:href="../../images/primaryKeys.png" width="11px" height="12px" preserveAspectRatio="xMinYMin meet" x="789" y="-472"/>
<text text-anchor="start" x="804" y="-463.2" font-family="Helvetica,sans-Serif" font-size="11.00" fill="#000000">scribal_font_id</text>
<polygon fill="#ffffff" stroke="transparent" points="784,-433 784,-455 931,-455 931,-433 784,-433"/>
<polygon fill="none" stroke="#000000" points="784,-433 784,-455 931,-455 931,-433 784,-433"/>
<image xlink:href="../../images/foreignKeys.png" width="11px" height="12px" preserveAspectRatio="xMinYMin meet" x="789" y="-450"/>
<text text-anchor="start" x="804" y="-441.2" font-family="Helvetica,sans-Serif" font-size="11.00" fill="#000000">edition_editor_id</text>
<polygon fill="none" stroke="#000000" points="784,-411 784,-433 931,-433 931,-411 784,-411"/>
<image xlink:href="../../images/primaryKeys.png" width="11px" height="12px" preserveAspectRatio="xMinYMin meet" x="789" y="-428"/>
<text text-anchor="start" x="804" y="-419.2" font-family="Helvetica,sans-Serif" font-size="11.00" fill="#000000">edition_id</text>
<polygon fill="#ffffff" stroke="transparent" points="784,-393 784,-411 842,-411 842,-393 784,-393"/>
<polygon fill="none" stroke="#000000" points="784,-393 784,-411 842,-411 842,-393 784,-393"/>
<text text-anchor="start" x="787" y="-399.2" font-family="Helvetica,sans-Serif" font-size="11.00" fill="#000000">&lt; 3</text>
<polygon fill="#ffffff" stroke="transparent" points="842,-393 842,-411 899,-411 899,-393 842,-393"/>
<polygon fill="none" stroke="#000000" points="842,-393 842,-411 899,-411 899,-393 842,-393"/>
<text text-anchor="start" x="863" y="-399.2" font-family="Helvetica,sans-Serif" font-size="11.00" fill="#000000">0 rows</text>
<polygon fill="#ffffff" stroke="transparent" points="899,-393 899,-411 931,-411 931,-393 899,-393"/>
<polygon fill="none" stroke="#000000" points="899,-393 899,-411 931,-411 931,-393 899,-393"/>
<text text-anchor="start" x="921" y="-399.2" font-family="Helvetica,sans-Serif" font-size="11.00" fill="#000000"> &#160;</text>
</a>
</g>
</g>
<!-- scribal_font_owner&#45;&gt;scribal_font -->
<g id="edge10" class="edge">
<title>scribal_font_owner:w&#45;&gt;scribal_font:e</title>
<path fill="none" stroke="#000000" d="M769.3955,-464.1773C740.2806,-456.3522 734.0718,-426 697,-426"/>
<polygon fill="#000000" stroke="#000000" points="776.0616,-465.0092 783.5542,-469.5723 780.0308,-465.5046 784,-466 784,-466 784,-466 780.0308,-465.5046 784.4458,-462.4277 776.0616,-465.0092 776.0616,-465.0092"/>
<ellipse fill="none" stroke="#000000" cx="772.8862" cy="-464.6129" rx="3.2" ry="3.2"/>
</g>
</g>
</svg>
