<?xml version="1.0" encoding="UTF-8" standalone="no"?>
<!DOCTYPE svg PUBLIC "-//W3C//DTD SVG 1.1//EN"
 "http://www.w3.org/Graphics/SVG/1.1/DTD/svg11.dtd">
<!-- Generated by graphviz version 2.40.1 (20161225.0304)
 -->
<!-- Title: oneDegreeRelationshipsDiagram Pages: 1 -->
<svg width="809pt" height="398pt"
 viewBox="0.00 0.00 809.00 398.00" xmlns="http://www.w3.org/2000/svg" xmlns:xlink="http://www.w3.org/1999/xlink">
<g id="graph0" class="graph" transform="scale(1 1) rotate(0) translate(4 394)">
<title>oneDegreeRelationshipsDiagram</title>
<polygon fill="#ffffff" stroke="transparent" points="-4,4 -4,-394 805,-394 805,4 -4,4"/>
<text text-anchor="middle" x="71.5" y="-7.2" font-family="Helvetica,sans-Serif" font-size="11.00" fill="#000000">Generated by SchemaSpy</text>
<!-- edition_editor -->
<g id="node1" class="node">
<title>edition_editor</title>
<g id="a_node1"><a xlink:href="../../tables/edition_editor.html" xlink:title="edition_editor" target="_top">
<polygon fill="#ffffff" stroke="transparent" points="234.5,-95 234.5,-219 367.5,-219 367.5,-95 234.5,-95"/>
<polygon fill="#f5f5f5" stroke="transparent" points="235,-197 235,-219 368,-219 368,-197 235,-197"/>
<polygon fill="none" stroke="#000000" points="235,-197 235,-219 368,-219 368,-197 235,-197"/>
<text text-anchor="start" x="240" y="-206.2" font-family="Helvetica,sans-Serif" font-weight="bold" font-size="11.00" fill="#000000">edition_editor</text>
<text text-anchor="start" x="333" y="-205.2" font-family="Helvetica,sans-Serif" font-size="11.00" fill="#000000">[table]</text>
<polygon fill="none" stroke="#000000" points="235,-175 235,-197 368,-197 368,-175 235,-175"/>
<image xlink:href="../../images/primaryKeys.png" width="11px" height="12px" preserveAspectRatio="xMinYMin meet" x="240" y="-192"/>
<text text-anchor="start" x="255" y="-183.2" font-family="Helvetica,sans-Serif" font-size="11.00" fill="#000000">edition_editor_id</text>
<polygon fill="#ffffff" stroke="transparent" points="235,-153 235,-175 368,-175 368,-153 235,-153"/>
<polygon fill="none" stroke="#000000" points="235,-153 235,-175 368,-175 368,-153 235,-153"/>
<image xlink:href="../../images/foreignKeys.png" width="11px" height="12px" preserveAspectRatio="xMinYMin meet" x="240" y="-170"/>
<text text-anchor="start" x="255" y="-161.2" font-family="Helvetica,sans-Serif" font-size="11.00" fill="#000000">user_id</text>
<polygon fill="#ffffff" stroke="transparent" points="235,-131 235,-153 368,-153 368,-131 235,-131"/>
<polygon fill="none" stroke="#000000" points="235,-131 235,-153 368,-153 368,-131 235,-131"/>
<image xlink:href="../../images/foreignKeys.png" width="11px" height="12px" preserveAspectRatio="xMinYMin meet" x="240" y="-148"/>
<text text-anchor="start" x="255" y="-139.2" font-family="Helvetica,sans-Serif" font-size="11.00" fill="#000000">edition_id</text>
<polygon fill="none" stroke="#000000" points="235,-113 235,-131 368,-131 368,-113 235,-113"/>
<text text-anchor="start" x="238" y="-119.2" font-family="Helvetica,sans-Serif" font-size="11.00" fill="#000000">...</text>
<polygon fill="#ffffff" stroke="transparent" points="235,-95 235,-113 268,-113 268,-95 235,-95"/>
<polygon fill="none" stroke="#000000" points="235,-95 235,-113 268,-113 268,-95 235,-95"/>
<text text-anchor="start" x="238" y="-101.2" font-family="Helvetica,sans-Serif" font-size="11.00" fill="#000000">&lt; 2</text>
<polygon fill="#ffffff" stroke="transparent" points="268,-95 268,-113 334,-113 334,-95 268,-95"/>
<polygon fill="none" stroke="#000000" points="268,-95 268,-113 334,-113 334,-95 268,-95"/>
<text text-anchor="start" x="277" y="-101.2" font-family="Helvetica,sans-Serif" font-size="11.00" fill="#000000">1,645 rows</text>
<polygon fill="#ffffff" stroke="transparent" points="334,-95 334,-113 368,-113 368,-95 334,-95"/>
<polygon fill="none" stroke="#000000" points="334,-95 334,-113 368,-113 368,-95 334,-95"/>
<text text-anchor="start" x="343" y="-101.2" font-family="Helvetica,sans-Serif" font-size="11.00" fill="#000000">30 &gt;</text>
</a>
</g>
</g>
<!-- edition -->
<g id="node2" class="node">
<title>edition</title>
<g id="a_node2"><a xlink:href="../../tables/edition.html" xlink:title="edition" target="_top">
<polygon fill="#ffffff" stroke="transparent" points="8,-37 8,-139 143,-139 143,-37 8,-37"/>
<polygon fill="#f5f5f5" stroke="transparent" points="8.5,-117 8.5,-139 143.5,-139 143.5,-117 8.5,-117"/>
<polygon fill="none" stroke="#000000" points="8.5,-117 8.5,-139 143.5,-139 143.5,-117 8.5,-117"/>
<text text-anchor="start" x="13.5" y="-126.2" font-family="Helvetica,sans-Serif" font-weight="bold" font-size="11.00" fill="#000000">edition</text>
<text text-anchor="start" x="108.5" y="-125.2" font-family="Helvetica,sans-Serif" font-size="11.00" fill="#000000">[table]</text>
<polygon fill="none" stroke="#000000" points="8.5,-95 8.5,-117 143.5,-117 143.5,-95 8.5,-95"/>
<image xlink:href="../../images/primaryKeys.png" width="11px" height="12px" preserveAspectRatio="xMinYMin meet" x="13.5" y="-112"/>
<text text-anchor="start" x="28.5" y="-103.2" font-family="Helvetica,sans-Serif" font-size="11.00" fill="#000000">edition_id</text>
<polygon fill="#ffffff" stroke="transparent" points="8.5,-73 8.5,-95 143.5,-95 143.5,-73 8.5,-73"/>
<polygon fill="none" stroke="#000000" points="8.5,-73 8.5,-95 143.5,-95 143.5,-73 8.5,-73"/>
<image xlink:href="../../images/foreignKeys.png" width="11px" height="12px" preserveAspectRatio="xMinYMin meet" x="13.5" y="-90"/>
<text text-anchor="start" x="28.5" y="-81.2" font-family="Helvetica,sans-Serif" font-size="11.00" fill="#000000">manuscript_id</text>
<polygon fill="none" stroke="#000000" points="8.5,-55 8.5,-73 143.5,-73 143.5,-55 8.5,-55"/>
<text text-anchor="start" x="11.5" y="-61.2" font-family="Helvetica,sans-Serif" font-size="11.00" fill="#000000">...</text>
<polygon fill="#ffffff" stroke="transparent" points="8.5,-37 8.5,-55 42.5,-55 42.5,-37 8.5,-37"/>
<polygon fill="none" stroke="#000000" points="8.5,-37 8.5,-55 42.5,-55 42.5,-37 8.5,-37"/>
<text text-anchor="start" x="11.5" y="-43.2" font-family="Helvetica,sans-Serif" font-size="11.00" fill="#000000">&lt; 1</text>
<polygon fill="#ffffff" stroke="transparent" points="42.5,-37 42.5,-55 108.5,-55 108.5,-37 42.5,-37"/>
<polygon fill="none" stroke="#000000" points="42.5,-37 42.5,-55 108.5,-55 108.5,-37 42.5,-37"/>
<text text-anchor="start" x="51.5" y="-43.2" font-family="Helvetica,sans-Serif" font-size="11.00" fill="#000000">1,645 rows</text>
<polygon fill="#ffffff" stroke="transparent" points="108.5,-37 108.5,-55 143.5,-55 143.5,-37 108.5,-37"/>
<polygon fill="none" stroke="#000000" points="108.5,-37 108.5,-55 143.5,-55 143.5,-37 108.5,-37"/>
<text text-anchor="start" x="118.5" y="-43.2" font-family="Helvetica,sans-Serif" font-size="11.00" fill="#000000">32 &gt;</text>
</a>
</g>
</g>
<!-- edition_editor&#45;&gt;edition -->
<g id="edge1" class="edge">
<title>edition_editor:w&#45;&gt;edition:e</title>
<path fill="none" stroke="#000000" d="M220.3138,-140.4531C189.6557,-133.5625 181.7384,-106 143.5,-106"/>
<polygon fill="#000000" stroke="#000000" points="227.044,-141.162 234.6229,-145.5802 231.022,-141.581 235,-142 235,-142 235,-142 231.022,-141.581 235.3771,-138.4198 227.044,-141.162 227.044,-141.162"/>
<ellipse fill="none" stroke="#000000" cx="223.8616" cy="-140.8267" rx="3.2" ry="3.2"/>
</g>
<!-- scribal_font_glyph_metrics_owner -->
<g id="node3" class="node">
<title>scribal_font_glyph_metrics_owner</title>
<g id="a_node3"><a xlink:href="../../tables/scribal_font_glyph_metrics_owner.html" xlink:title="scribal_font_glyph_metrics_owner" target="_top">
<polygon fill="#ffffff" stroke="transparent" points="459,-133 459,-243 793,-243 793,-133 459,-133"/>
<polygon fill="#f5f5f5" stroke="transparent" points="461,-219 461,-241 791,-241 791,-219 461,-219"/>
<polygon fill="none" stroke="#000000" points="461,-219 461,-241 791,-241 791,-219 461,-219"/>
<text text-anchor="start" x="466" y="-228.2" font-family="Helvetica,sans-Serif" font-weight="bold" font-size="11.00" fill="#000000">scribal_font_glyph_metrics_owner</text>
<text text-anchor="start" x="756" y="-227.2" font-family="Helvetica,sans-Serif" font-size="11.00" fill="#000000">[table]</text>
<polygon fill="none" stroke="#000000" points="461,-197 461,-219 709,-219 709,-197 461,-197"/>
<image xlink:href="../../images/primaryKeys.png" width="11px" height="12px" preserveAspectRatio="xMinYMin meet" x="466" y="-214"/>
<text text-anchor="start" x="481" y="-205.2" font-family="Helvetica,sans-Serif" font-size="11.00" fill="#000000">scribal_font_glyph_metrics_id</text>
<polygon fill="none" stroke="#000000" points="709,-197 709,-219 791,-219 791,-197 709,-197"/>
<text text-anchor="start" x="712" y="-205.2" font-family="Helvetica,sans-Serif" font-size="11.00" fill="#000000">int unsigned[10]</text>
<polygon fill="#ffffff" stroke="transparent" points="461,-175 461,-197 709,-197 709,-175 461,-175"/>
<polygon fill="none" stroke="#000000" points="461,-175 461,-197 709,-197 709,-175 461,-175"/>
<image xlink:href="../../images/foreignKeys.png" width="11px" height="12px" preserveAspectRatio="xMinYMin meet" x="466" y="-192"/>
<text text-anchor="start" x="481" y="-183.2" font-family="Helvetica,sans-Serif" font-size="11.00" fill="#000000">edition_editor_id</text>
<polygon fill="none" stroke="#000000" points="709,-175 709,-197 791,-197 791,-175 709,-175"/>
<text text-anchor="start" x="712" y="-183.2" font-family="Helvetica,sans-Serif" font-size="11.00" fill="#000000">int unsigned[10]</text>
<polygon fill="none" stroke="#000000" points="461,-153 461,-175 709,-175 709,-153 461,-153"/>
<image xlink:href="../../images/primaryKeys.png" width="11px" height="12px" preserveAspectRatio="xMinYMin meet" x="466" y="-170"/>
<text text-anchor="start" x="481" y="-161.2" font-family="Helvetica,sans-Serif" font-size="11.00" fill="#000000">edition_id</text>
<polygon fill="none" stroke="#000000" points="709,-153 709,-175 791,-175 791,-153 709,-153"/>
<text text-anchor="start" x="712" y="-161.2" font-family="Helvetica,sans-Serif" font-size="11.00" fill="#000000">int unsigned[10]</text>
<polygon fill="#ffffff" stroke="transparent" points="461,-135 461,-153 576,-153 576,-135 461,-135"/>
<polygon fill="none" stroke="#000000" points="461,-135 461,-153 576,-153 576,-135 461,-135"/>
<text text-anchor="start" x="464" y="-141.2" font-family="Helvetica,sans-Serif" font-size="11.00" fill="#000000">&lt; 3</text>
<polygon fill="#ffffff" stroke="transparent" points="576,-135 576,-153 709,-153 709,-135 576,-135"/>
<polygon fill="none" stroke="#000000" points="576,-135 576,-153 709,-153 709,-135 576,-135"/>
<text text-anchor="start" x="673" y="-141.2" font-family="Helvetica,sans-Serif" font-size="11.00" fill="#000000">0 rows</text>
<polygon fill="#ffffff" stroke="transparent" points="709,-135 709,-153 791,-153 791,-135 709,-135"/>
<polygon fill="none" stroke="#000000" points="709,-135 709,-153 791,-153 791,-135 709,-135"/>
<text text-anchor="start" x="772" y="-141.2" font-family="Helvetica,sans-Serif" font-size="11.00" fill="#000000">0 &gt;</text>
<polygon fill="none" stroke="#000000" stroke-width="2" points="460,-134 460,-242 792,-242 792,-134 460,-134"/>
</a>
</g>
</g>
<!-- scribal_font_glyph_metrics_owner&#45;&gt;edition_editor -->
<g id="edge2" class="edge">
<title>scribal_font_glyph_metrics_owner:w&#45;&gt;edition_editor:e</title>
<path fill="none" stroke="#000000" d="M446.4282,-186C416.4875,-186 404.0052,-186 368,-186"/>
<polygon fill="#000000" stroke="#000000" points="453,-186.0001 461,-189.6 457,-186 461,-186 461,-186 461,-186 457,-186 461,-182.4 453,-186.0001 453,-186.0001"/>
<ellipse fill="none" stroke="#000000" cx="449.8" cy="-186.0001" rx="3.2" ry="3.2"/>
</g>
<!-- scribal_font_glyph_metrics_owner&#45;&gt;edition -->
<g id="edge3" class="edge">
<title>scribal_font_glyph_metrics_owner:w&#45;&gt;edition:e</title>
<path fill="none" stroke="#000000" d="M447.0993,-160.218C428.8408,-146.831 447.369,-101.5568 418,-84 328.7342,-30.6369 284.7975,-58.3902 184,-84 164.1465,-89.0442 163.9843,-106 143.5,-106"/>
<polygon fill="#000000" stroke="#000000" points="453.2806,-161.8998 460.0549,-167.4737 457.1403,-162.9499 461,-164 461,-164 461,-164 457.1403,-162.9499 461.9451,-160.5263 453.2806,-161.8998 453.2806,-161.8998"/>
<ellipse fill="none" stroke="#000000" cx="450.1928" cy="-161.0597" rx="3.2" ry="3.2"/>
</g>
<!-- scribal_font_glyph_metrics -->
<g id="node4" class="node">
<title>scribal_font_glyph_metrics</title>
<g id="a_node4"><a xlink:href="../../tables/scribal_font_glyph_metrics.html" xlink:title="scribal_font_glyph_metrics" target="_top">
<polygon fill="#ffffff" stroke="transparent" points="192,-240 192,-386 410,-386 410,-240 192,-240"/>
<polygon fill="#f5f5f5" stroke="transparent" points="192,-364 192,-386 410,-386 410,-364 192,-364"/>
<polygon fill="none" stroke="#000000" points="192,-364 192,-386 410,-386 410,-364 192,-364"/>
<text text-anchor="start" x="197" y="-373.2" font-family="Helvetica,sans-Serif" font-weight="bold" font-size="11.00" fill="#000000">scribal_font_glyph_metrics</text>
<text text-anchor="start" x="375" y="-372.2" font-family="Helvetica,sans-Serif" font-size="11.00" fill="#000000">[table]</text>
<polygon fill="none" stroke="#000000" points="192,-342 192,-364 410,-364 410,-342 192,-342"/>
<image xlink:href="../../images/primaryKeys.png" width="11px" height="12px" preserveAspectRatio="xMinYMin meet" x="197" y="-359"/>
<text text-anchor="start" x="212" y="-350.2" font-family="Helvetica,sans-Serif" font-size="11.00" fill="#000000">scribal_font_glyph_metrics_id</text>
<polygon fill="#ffffff" stroke="transparent" points="192,-320 192,-342 410,-342 410,-320 192,-320"/>
<polygon fill="none" stroke="#000000" points="192,-320 192,-342 410,-342 410,-320 192,-320"/>
<image xlink:href="../../images/foreignKeys.png" width="11px" height="12px" preserveAspectRatio="xMinYMin meet" x="197" y="-337"/>
<text text-anchor="start" x="212" y="-328.2" font-family="Helvetica,sans-Serif" font-size="11.00" fill="#000000">scribal_font_id</text>
<polygon fill="#ffffff" stroke="transparent" points="192,-298 192,-320 410,-320 410,-298 192,-298"/>
<polygon fill="none" stroke="#000000" points="192,-298 192,-320 410,-320 410,-298 192,-298"/>
<text text-anchor="start" x="212" y="-306.2" font-family="Helvetica,sans-Serif" font-size="11.00" fill="#000000">unicode_char</text>
<polygon fill="#ffffff" stroke="transparent" points="192,-276 192,-298 410,-298 410,-276 192,-276"/>
<polygon fill="none" stroke="#000000" points="192,-276 192,-298 410,-298 410,-276 192,-276"/>
<image xlink:href="../../images/foreignKeys.png" width="11px" height="12px" preserveAspectRatio="xMinYMin meet" x="197" y="-293"/>
<text text-anchor="start" x="212" y="-284.2" font-family="Helvetica,sans-Serif" font-size="11.00" fill="#000000">creator_id</text>
<polygon fill="none" stroke="#000000" points="192,-258 192,-276 410,-276 410,-258 192,-258"/>
<text text-anchor="start" x="195" y="-264.2" font-family="Helvetica,sans-Serif" font-size="11.00" fill="#000000">...</text>
<polygon fill="#ffffff" stroke="transparent" points="192,-240 192,-258 281,-258 281,-240 192,-240"/>
<polygon fill="none" stroke="#000000" points="192,-240 192,-258 281,-258 281,-240 192,-240"/>
<text text-anchor="start" x="195" y="-246.2" font-family="Helvetica,sans-Serif" font-size="11.00" fill="#000000">&lt; 2</text>
<polygon fill="#ffffff" stroke="transparent" points="281,-240 281,-258 354,-258 354,-240 281,-240"/>
<polygon fill="none" stroke="#000000" points="281,-240 281,-258 354,-258 354,-240 281,-240"/>
<text text-anchor="start" x="318" y="-246.2" font-family="Helvetica,sans-Serif" font-size="11.00" fill="#000000">0 rows</text>
<polygon fill="#ffffff" stroke="transparent" points="354,-240 354,-258 410,-258 410,-240 354,-240"/>
<polygon fill="none" stroke="#000000" points="354,-240 354,-258 410,-258 410,-240 354,-240"/>
<text text-anchor="start" x="391" y="-246.2" font-family="Helvetica,sans-Serif" font-size="11.00" fill="#000000">1 &gt;</text>
</a>
</g>
</g>
<!-- scribal_font_glyph_metrics_owner&#45;&gt;scribal_font_glyph_metrics -->
<g id="edge4" class="edge">
<title>scribal_font_glyph_metrics_owner:w&#45;&gt;scribal_font_glyph_metrics:e</title>
<path fill="none" stroke="#000000" d="M446.863,-210.8964C405.9827,-231.3327 472.5771,-353 410,-353"/>
<polygon fill="#000000" stroke="#000000" points="453.1628,-209.6058 461.7226,-211.5267 457.0814,-208.8029 461,-208 461,-208 461,-208 457.0814,-208.8029 460.2774,-204.4733 453.1628,-209.6058 453.1628,-209.6058"/>
<ellipse fill="none" stroke="#000000" cx="450.0279" cy="-210.2481" rx="3.2" ry="3.2"/>
</g>
</g>
</svg>
