<?xml version="1.0" encoding="UTF-8" standalone="no"?>
<!DOCTYPE svg PUBLIC "-//W3C//DTD SVG 1.1//EN"
 "http://www.w3.org/Graphics/SVG/1.1/DTD/svg11.dtd">
<!-- Generated by graphviz version 2.43.0 (0)
 -->
<!-- Title: twoDegreesRelationshipsDiagram Pages: 1 -->
<svg width="807pt" height="551pt"
 viewBox="0.00 0.00 807.00 550.91" xmlns="http://www.w3.org/2000/svg" xmlns:xlink="http://www.w3.org/1999/xlink">
<g id="graph0" class="graph" transform="scale(1 1) rotate(0) translate(4 546.91)">
<title>twoDegreesRelationshipsDiagram</title>
<polygon fill="#ffffff" stroke="transparent" points="-4,4 -4,-546.91 803,-546.91 803,4 -4,4"/>
<text text-anchor="middle" x="79.5" y="-7.2" font-family="Helvetica,sans-Serif" font-size="11.00">Generated by SchemaSpy</text>
<!-- edition_editor -->
<g id="node1" class="node">
<title>edition_editor</title>
<g id="a_node1"><a xlink:href="../../tables/edition_editor.html" xlink:title="edition_editor" target="_top">
<polygon fill="#ffffff" stroke="transparent" points="318.5,-249 318.5,-307 454.5,-307 454.5,-249 318.5,-249"/>
<polygon fill="#f5f5f5" stroke="transparent" points="318.5,-285 318.5,-307 454.5,-307 454.5,-285 318.5,-285"/>
<polygon fill="none" stroke="black" points="318.5,-285 318.5,-307 454.5,-307 454.5,-285 318.5,-285"/>
<text text-anchor="start" x="323.5" y="-294.2" font-family="Helvetica,sans-Serif" font-weight="bold" font-size="11.00">edition_editor</text>
<text text-anchor="start" x="412.5" y="-293.2" font-family="Helvetica,sans-Serif" font-size="11.00">[table]</text>
<polygon fill="none" stroke="black" points="318.5,-267 318.5,-285 454.5,-285 454.5,-267 318.5,-267"/>
<text text-anchor="start" x="321.5" y="-273.2" font-family="Helvetica,sans-Serif" font-size="11.00">...</text>
<polygon fill="#ffffff" stroke="transparent" points="318.5,-249 318.5,-267 349.5,-267 349.5,-249 318.5,-249"/>
<polygon fill="none" stroke="black" points="318.5,-249 318.5,-267 349.5,-267 349.5,-249 318.5,-249"/>
<text text-anchor="start" x="321.5" y="-255.2" font-family="Helvetica,sans-Serif" font-size="11.00">&lt; 2</text>
<polygon fill="#ffffff" stroke="transparent" points="349.5,-249 349.5,-267 418.5,-267 418.5,-249 349.5,-249"/>
<polygon fill="none" stroke="black" points="349.5,-249 349.5,-267 418.5,-267 418.5,-249 349.5,-249"/>
<text text-anchor="start" x="354.5" y="-255.2" font-family="Helvetica,sans-Serif" font-size="11.00">1,645 rows</text>
<polygon fill="#ffffff" stroke="transparent" points="418.5,-249 418.5,-267 454.5,-267 454.5,-249 418.5,-249"/>
<polygon fill="none" stroke="black" points="418.5,-249 418.5,-267 454.5,-267 454.5,-249 418.5,-249"/>
<text text-anchor="start" x="424.5" y="-255.2" font-family="Helvetica,sans-Serif" font-size="11.00">33 &gt;</text>
</a>
</g>
</g>
<!-- edition -->
<g id="node2" class="node">
<title>edition</title>
<g id="a_node2"><a xlink:href="../../tables/edition.html" xlink:title="edition" target="_top">
<polygon fill="#ffffff" stroke="transparent" points="40.5,-249 40.5,-307 166.5,-307 166.5,-249 40.5,-249"/>
<polygon fill="#f5f5f5" stroke="transparent" points="40.5,-285 40.5,-307 166.5,-307 166.5,-285 40.5,-285"/>
<polygon fill="none" stroke="black" points="40.5,-285 40.5,-307 166.5,-307 166.5,-285 40.5,-285"/>
<text text-anchor="start" x="45.5" y="-294.2" font-family="Helvetica,sans-Serif" font-weight="bold" font-size="11.00">edition</text>
<text text-anchor="start" x="124.5" y="-293.2" font-family="Helvetica,sans-Serif" font-size="11.00">[table]</text>
<polygon fill="none" stroke="black" points="40.5,-267 40.5,-285 166.5,-285 166.5,-267 40.5,-267"/>
<text text-anchor="start" x="43.5" y="-273.2" font-family="Helvetica,sans-Serif" font-size="11.00">...</text>
<polygon fill="#ffffff" stroke="transparent" points="40.5,-249 40.5,-267 66.5,-267 66.5,-249 40.5,-249"/>
<polygon fill="none" stroke="black" points="40.5,-249 40.5,-267 66.5,-267 66.5,-249 40.5,-249"/>
<text text-anchor="start" x="43.5" y="-255.2" font-family="Helvetica,sans-Serif" font-size="11.00">&lt; 1</text>
<polygon fill="#ffffff" stroke="transparent" points="66.5,-249 66.5,-267 133.5,-267 133.5,-249 66.5,-249"/>
<polygon fill="none" stroke="black" points="66.5,-249 66.5,-267 133.5,-267 133.5,-249 66.5,-249"/>
<text text-anchor="start" x="69.5" y="-255.2" font-family="Helvetica,sans-Serif" font-size="11.00">1,645 rows</text>
<polygon fill="#ffffff" stroke="transparent" points="133.5,-249 133.5,-267 166.5,-267 166.5,-249 133.5,-249"/>
<polygon fill="none" stroke="black" points="133.5,-249 133.5,-267 166.5,-267 166.5,-249 133.5,-249"/>
<text text-anchor="start" x="136.5" y="-255.2" font-family="Helvetica,sans-Serif" font-size="11.00">35 &gt;</text>
</a>
</g>
</g>
<!-- edition_editor&#45;&gt;edition -->
<g id="edge1" class="edge">
<title>edition_editor:w&#45;&gt;edition:e</title>
<path fill="none" stroke="black" d="M303.09,-276C248,-276 229.09,-276 167.5,-276"/>
<polygon fill="black" stroke="black" points="309.5,-276 317.5,-279.6 313.5,-276 317.5,-276 317.5,-276 317.5,-276 313.5,-276 317.5,-272.4 309.5,-276 309.5,-276"/>
<ellipse fill="none" stroke="black" cx="306.3" cy="-276" rx="3.2" ry="3.2"/>
</g>
<!-- manuscript_metrics -->
<g id="node3" class="node">
<title>manuscript_metrics</title>
<g id="a_node3"><a xlink:href="../../tables/manuscript_metrics.html" xlink:title="manuscript_metrics" target="_top">
<polygon fill="#ffffff" stroke="transparent" points="300.5,-116 300.5,-174 472.5,-174 472.5,-116 300.5,-116"/>
<polygon fill="#f5f5f5" stroke="transparent" points="300.5,-152 300.5,-174 472.5,-174 472.5,-152 300.5,-152"/>
<polygon fill="none" stroke="black" points="300.5,-152 300.5,-174 472.5,-174 472.5,-152 300.5,-152"/>
<text text-anchor="start" x="305.5" y="-161.2" font-family="Helvetica,sans-Serif" font-weight="bold" font-size="11.00">manuscript_metrics</text>
<text text-anchor="start" x="430.5" y="-160.2" font-family="Helvetica,sans-Serif" font-size="11.00">[table]</text>
<polygon fill="none" stroke="black" points="300.5,-134 300.5,-152 472.5,-152 472.5,-134 300.5,-134"/>
<text text-anchor="start" x="303.5" y="-140.2" font-family="Helvetica,sans-Serif" font-size="11.00">...</text>
<polygon fill="#ffffff" stroke="transparent" points="300.5,-116 300.5,-134 352.5,-134 352.5,-116 300.5,-116"/>
<polygon fill="none" stroke="black" points="300.5,-116 300.5,-134 352.5,-134 352.5,-116 300.5,-116"/>
<text text-anchor="start" x="303.5" y="-122.2" font-family="Helvetica,sans-Serif" font-size="11.00">&lt; 2</text>
<polygon fill="#ffffff" stroke="transparent" points="352.5,-116 352.5,-134 432.5,-134 432.5,-116 352.5,-116"/>
<polygon fill="none" stroke="black" points="352.5,-116 352.5,-134 432.5,-134 432.5,-116 352.5,-116"/>
<text text-anchor="start" x="368.5" y="-122.2" font-family="Helvetica,sans-Serif" font-size="11.00">1,371 rows</text>
<polygon fill="#ffffff" stroke="transparent" points="432.5,-116 432.5,-134 472.5,-134 472.5,-116 432.5,-116"/>
<polygon fill="none" stroke="black" points="432.5,-116 432.5,-134 472.5,-134 472.5,-116 432.5,-116"/>
<text text-anchor="start" x="449.5" y="-122.2" font-family="Helvetica,sans-Serif" font-size="11.00">1 &gt;</text>
</a>
</g>
</g>
<!-- scribal_font -->
<g id="node4" class="node">
<title>scribal_font</title>
<g id="a_node4"><a xlink:href="../../tables/scribal_font.html" xlink:title="scribal_font" target="_top">
<polygon fill="#ffffff" stroke="transparent" points="8,-100 8,-202 199,-202 199,-100 8,-100"/>
<polygon fill="#f5f5f5" stroke="transparent" points="8.5,-180 8.5,-202 199.5,-202 199.5,-180 8.5,-180"/>
<polygon fill="none" stroke="black" points="8.5,-180 8.5,-202 199.5,-202 199.5,-180 8.5,-180"/>
<text text-anchor="start" x="13.5" y="-189.2" font-family="Helvetica,sans-Serif" font-weight="bold" font-size="11.00">scribal_font</text>
<text text-anchor="start" x="157.5" y="-188.2" font-family="Helvetica,sans-Serif" font-size="11.00">[table]</text>
<polygon fill="none" stroke="black" points="8.5,-158 8.5,-180 199.5,-180 199.5,-158 8.5,-158"/>
<image xlink:href="../../images/primaryKeys.png" width="11px" height="12px" preserveAspectRatio="xMinYMin meet" x="13.5" y="-175"/>
<text text-anchor="start" x="28.5" y="-166.2" font-family="Helvetica,sans-Serif" font-size="11.00">scribal_font_id</text>
<polygon fill="none" stroke="black" points="8.5,-136 8.5,-158 199.5,-158 199.5,-136 8.5,-136"/>
<image xlink:href="../../images/foreignKeys.png" width="11px" height="12px" preserveAspectRatio="xMinYMin meet" x="13.5" y="-153"/>
<text text-anchor="start" x="28.5" y="-144.2" font-family="Helvetica,sans-Serif" font-size="11.00">font_file_id</text>
<polygon fill="none" stroke="black" points="8.5,-118 8.5,-136 199.5,-136 199.5,-118 8.5,-118"/>
<text text-anchor="start" x="11.5" y="-124.2" font-family="Helvetica,sans-Serif" font-size="11.00">...</text>
<polygon fill="#ffffff" stroke="transparent" points="8.5,-100 8.5,-118 76.5,-118 76.5,-100 8.5,-100"/>
<polygon fill="none" stroke="black" points="8.5,-100 8.5,-118 76.5,-118 76.5,-100 8.5,-100"/>
<text text-anchor="start" x="11.5" y="-106.2" font-family="Helvetica,sans-Serif" font-size="11.00"> &#160;</text>
<polygon fill="#ffffff" stroke="transparent" points="76.5,-100 76.5,-118 146.5,-118 146.5,-100 76.5,-100"/>
<polygon fill="none" stroke="black" points="76.5,-100 76.5,-118 146.5,-118 146.5,-100 76.5,-100"/>
<text text-anchor="start" x="106.5" y="-106.2" font-family="Helvetica,sans-Serif" font-size="11.00">0 rows</text>
<polygon fill="#ffffff" stroke="transparent" points="146.5,-100 146.5,-118 199.5,-118 199.5,-100 146.5,-100"/>
<polygon fill="none" stroke="black" points="146.5,-100 146.5,-118 199.5,-118 199.5,-100 146.5,-100"/>
<text text-anchor="start" x="176.5" y="-106.2" font-family="Helvetica,sans-Serif" font-size="11.00">4 &gt;</text>
</a>
</g>
</g>
<!-- manuscript_metrics&#45;&gt;scribal_font -->
<g id="edge2" class="edge">
<title>manuscript_metrics:w&#45;&gt;scribal_font:e</title>
<path fill="none" stroke="black" d="M284.93,-143.99C251.61,-148.74 240.66,-169 200.5,-169"/>
<polygon fill="black" stroke="black" points="291.52,-143.54 299.74,-146.59 295.51,-143.27 299.5,-143 299.5,-143 299.5,-143 295.51,-143.27 299.26,-139.41 291.52,-143.54 291.52,-143.54"/>
<ellipse fill="none" stroke="black" cx="288.33" cy="-143.76" rx="3.2" ry="3.2"/>
</g>
<!-- scribal_font_glyph_metrics -->
<g id="node5" class="node">
<title>scribal_font_glyph_metrics</title>
<g id="a_node5"><a xlink:href="../../tables/scribal_font_glyph_metrics.html" xlink:title="scribal_font_glyph_metrics" target="_top">
<polygon fill="#ffffff" stroke="transparent" points="279.5,-37 279.5,-95 493.5,-95 493.5,-37 279.5,-37"/>
<polygon fill="#f5f5f5" stroke="transparent" points="279.5,-73 279.5,-95 493.5,-95 493.5,-73 279.5,-73"/>
<polygon fill="none" stroke="black" points="279.5,-73 279.5,-95 493.5,-95 493.5,-73 279.5,-73"/>
<text text-anchor="start" x="284.5" y="-82.2" font-family="Helvetica,sans-Serif" font-weight="bold" font-size="11.00">scribal_font_glyph_metrics</text>
<text text-anchor="start" x="451.5" y="-81.2" font-family="Helvetica,sans-Serif" font-size="11.00">[table]</text>
<polygon fill="none" stroke="black" points="279.5,-55 279.5,-73 493.5,-73 493.5,-55 279.5,-55"/>
<text text-anchor="start" x="282.5" y="-61.2" font-family="Helvetica,sans-Serif" font-size="11.00">...</text>
<polygon fill="#ffffff" stroke="transparent" points="279.5,-37 279.5,-55 364.5,-55 364.5,-37 279.5,-37"/>
<polygon fill="none" stroke="black" points="279.5,-37 279.5,-55 364.5,-55 364.5,-37 279.5,-37"/>
<text text-anchor="start" x="282.5" y="-43.2" font-family="Helvetica,sans-Serif" font-size="11.00">&lt; 1</text>
<polygon fill="#ffffff" stroke="transparent" points="364.5,-37 364.5,-55 437.5,-55 437.5,-37 364.5,-37"/>
<polygon fill="none" stroke="black" points="364.5,-37 364.5,-55 437.5,-55 437.5,-37 364.5,-37"/>
<text text-anchor="start" x="397.5" y="-43.2" font-family="Helvetica,sans-Serif" font-size="11.00">0 rows</text>
<polygon fill="#ffffff" stroke="transparent" points="437.5,-37 437.5,-55 493.5,-55 493.5,-37 437.5,-37"/>
<polygon fill="none" stroke="black" points="437.5,-37 437.5,-55 493.5,-55 493.5,-37 437.5,-37"/>
<text text-anchor="start" x="470.5" y="-43.2" font-family="Helvetica,sans-Serif" font-size="11.00">1 &gt;</text>
</a>
</g>
</g>
<!-- scribal_font_glyph_metrics&#45;&gt;scribal_font -->
<g id="edge3" class="edge">
<title>scribal_font_glyph_metrics:w&#45;&gt;scribal_font:e</title>
<path fill="none" stroke="black" d="M264.42,-67.4C253.33,-74.17 251.52,-89.96 240,-105 219.68,-131.54 233.93,-169 200.5,-169"/>
<polygon fill="black" stroke="black" points="270.72,-65.88 279.35,-67.5 274.61,-64.94 278.5,-64 278.5,-64 278.5,-64 274.61,-64.94 277.65,-60.5 270.72,-65.88 270.72,-65.88"/>
<ellipse fill="none" stroke="black" cx="267.61" cy="-66.63" rx="3.2" ry="3.2"/>
</g>
<!-- scribal_font_kerning -->
<g id="node6" class="node">
<title>scribal_font_kerning</title>
<g id="a_node6"><a xlink:href="../../tables/scribal_font_kerning.html" xlink:title="scribal_font_kerning" target="_top">
<polygon fill="#ffffff" stroke="transparent" points="248,-328 248,-504 525,-504 525,-328 248,-328"/>
<polygon fill="#f5f5f5" stroke="transparent" points="250.5,-480 250.5,-502 523.5,-502 523.5,-480 250.5,-480"/>
<polygon fill="none" stroke="black" points="250.5,-480 250.5,-502 523.5,-502 523.5,-480 250.5,-480"/>
<text text-anchor="start" x="255.5" y="-489.2" font-family="Helvetica,sans-Serif" font-weight="bold" font-size="11.00">scribal_font_kerning</text>
<text text-anchor="start" x="481.5" y="-488.2" font-family="Helvetica,sans-Serif" font-size="11.00">[table]</text>
<polygon fill="none" stroke="black" points="250.5,-458 250.5,-480 426.5,-480 426.5,-458 250.5,-458"/>
<image xlink:href="../../images/primaryKeys.png" width="11px" height="12px" preserveAspectRatio="xMinYMin meet" x="255.5" y="-475"/>
<text text-anchor="start" x="270.5" y="-466.2" font-family="Helvetica,sans-Serif" font-size="11.00">scribal_font_kerning_id</text>
<polygon fill="none" stroke="black" points="426.5,-458 426.5,-480 523.5,-480 523.5,-458 426.5,-458"/>
<text text-anchor="start" x="429.5" y="-466.2" font-family="Helvetica,sans-Serif" font-size="11.00">int unsigned[10]</text>
<polygon fill="#ffffff" stroke="transparent" points="250.5,-436 250.5,-458 426.5,-458 426.5,-436 250.5,-436"/>
<polygon fill="none" stroke="black" points="250.5,-436 250.5,-458 426.5,-458 426.5,-436 250.5,-436"/>
<image xlink:href="../../images/foreignKeys.png" width="11px" height="12px" preserveAspectRatio="xMinYMin meet" x="255.5" y="-453"/>
<text text-anchor="start" x="270.5" y="-444.2" font-family="Helvetica,sans-Serif" font-size="11.00">scribal_font_id</text>
<polygon fill="none" stroke="black" points="426.5,-436 426.5,-458 523.5,-458 523.5,-436 426.5,-436"/>
<text text-anchor="start" x="429.5" y="-444.2" font-family="Helvetica,sans-Serif" font-size="11.00">int unsigned[10]</text>
<polygon fill="#ffffff" stroke="transparent" points="250.5,-414 250.5,-436 426.5,-436 426.5,-414 250.5,-414"/>
<polygon fill="none" stroke="black" points="250.5,-414 250.5,-436 426.5,-436 426.5,-414 250.5,-414"/>
<text text-anchor="start" x="270.5" y="-422.2" font-family="Helvetica,sans-Serif" font-size="11.00">first_unicode_char</text>
<polygon fill="none" stroke="black" points="426.5,-414 426.5,-436 523.5,-436 523.5,-414 426.5,-414"/>
<text text-anchor="start" x="429.5" y="-422.2" font-family="Helvetica,sans-Serif" font-size="11.00">varbinary[4]</text>
<polygon fill="#ffffff" stroke="transparent" points="250.5,-392 250.5,-414 426.5,-414 426.5,-392 250.5,-392"/>
<polygon fill="none" stroke="black" points="250.5,-392 250.5,-414 426.5,-414 426.5,-392 250.5,-392"/>
<text text-anchor="start" x="270.5" y="-400.2" font-family="Helvetica,sans-Serif" font-size="11.00">second_unicode_char</text>
<polygon fill="none" stroke="black" points="426.5,-392 426.5,-414 523.5,-414 523.5,-392 426.5,-392"/>
<text text-anchor="start" x="429.5" y="-400.2" font-family="Helvetica,sans-Serif" font-size="11.00">varbinary[4]</text>
<polygon fill="none" stroke="black" points="250.5,-370 250.5,-392 426.5,-392 426.5,-370 250.5,-370"/>
<text text-anchor="start" x="270.5" y="-378.2" font-family="Helvetica,sans-Serif" font-size="11.00">kerning_x</text>
<polygon fill="none" stroke="black" points="426.5,-370 426.5,-392 523.5,-392 523.5,-370 426.5,-370"/>
<text text-anchor="start" x="429.5" y="-378.2" font-family="Helvetica,sans-Serif" font-size="11.00">smallint[5]</text>
<polygon fill="none" stroke="black" points="250.5,-348 250.5,-370 426.5,-370 426.5,-348 250.5,-348"/>
<text text-anchor="start" x="270.5" y="-356.2" font-family="Helvetica,sans-Serif" font-size="11.00">kerning_y</text>
<polygon fill="none" stroke="black" points="426.5,-348 426.5,-370 523.5,-370 523.5,-348 426.5,-348"/>
<text text-anchor="start" x="429.5" y="-356.2" font-family="Helvetica,sans-Serif" font-size="11.00">smallint[5]</text>
<polygon fill="#ffffff" stroke="transparent" points="250.5,-330 250.5,-348 329.5,-348 329.5,-330 250.5,-330"/>
<polygon fill="none" stroke="black" points="250.5,-330 250.5,-348 329.5,-348 329.5,-330 250.5,-330"/>
<text text-anchor="start" x="253.5" y="-336.2" font-family="Helvetica,sans-Serif" font-size="11.00">&lt; 1</text>
<polygon fill="#ffffff" stroke="transparent" points="329.5,-330 329.5,-348 426.5,-348 426.5,-330 329.5,-330"/>
<polygon fill="none" stroke="black" points="329.5,-330 329.5,-348 426.5,-348 426.5,-330 329.5,-330"/>
<text text-anchor="start" x="386.5" y="-336.2" font-family="Helvetica,sans-Serif" font-size="11.00">0 rows</text>
<polygon fill="#ffffff" stroke="transparent" points="426.5,-330 426.5,-348 523.5,-348 523.5,-330 426.5,-330"/>
<polygon fill="none" stroke="black" points="426.5,-330 426.5,-348 523.5,-348 523.5,-330 426.5,-330"/>
<text text-anchor="start" x="500.5" y="-336.2" font-family="Helvetica,sans-Serif" font-size="11.00">1 &gt;</text>
<polygon fill="none" stroke="black" stroke-width="2" points="249,-329 249,-503 524,-503 524,-329 249,-329"/>
</a>
</g>
</g>
<!-- scribal_font_kerning&#45;&gt;scribal_font -->
<g id="edge4" class="edge">
<title>scribal_font_kerning:w&#45;&gt;scribal_font:e</title>
<path fill="none" stroke="black" d="M236.23,-441.19C198.88,-401.27 257.84,-169 200.5,-169"/>
<polygon fill="black" stroke="black" points="242.17,-443.79 248.06,-450.3 245.84,-445.4 249.5,-447 249.5,-447 249.5,-447 245.84,-445.4 250.94,-443.7 242.17,-443.79 242.17,-443.79"/>
<ellipse fill="none" stroke="black" cx="239.24" cy="-442.51" rx="3.2" ry="3.2"/>
</g>
<!-- scribal_font_kerning_owner -->
<g id="node7" class="node">
<title>scribal_font_kerning_owner</title>
<g id="a_node7"><a xlink:href="../../tables/scribal_font_kerning_owner.html" xlink:title="scribal_font_kerning_owner" target="_top">
<polygon fill="#ffffff" stroke="transparent" points="574,-396 574,-502 791,-502 791,-396 574,-396"/>
<polygon fill="#f5f5f5" stroke="transparent" points="574.5,-480 574.5,-502 791.5,-502 791.5,-480 574.5,-480"/>
<polygon fill="none" stroke="black" points="574.5,-480 574.5,-502 791.5,-502 791.5,-480 574.5,-480"/>
<text text-anchor="start" x="579.5" y="-489.2" font-family="Helvetica,sans-Serif" font-weight="bold" font-size="11.00">scribal_font_kerning_owner</text>
<text text-anchor="start" x="749.5" y="-488.2" font-family="Helvetica,sans-Serif" font-size="11.00">[table]</text>
<polygon fill="none" stroke="black" points="574.5,-458 574.5,-480 791.5,-480 791.5,-458 574.5,-458"/>
<image xlink:href="../../images/primaryKeys.png" width="11px" height="12px" preserveAspectRatio="xMinYMin meet" x="579.5" y="-475"/>
<text text-anchor="start" x="600.5" y="-466.2" font-family="Helvetica,sans-Serif" font-size="11.00">scribal_font_kerning_id</text>
<polygon fill="#ffffff" stroke="transparent" points="574.5,-436 574.5,-458 791.5,-458 791.5,-436 574.5,-436"/>
<polygon fill="none" stroke="black" points="574.5,-436 574.5,-458 791.5,-458 791.5,-436 574.5,-436"/>
<image xlink:href="../../images/foreignKeys.png" width="11px" height="12px" preserveAspectRatio="xMinYMin meet" x="579.5" y="-453"/>
<text text-anchor="start" x="600.5" y="-444.2" font-family="Helvetica,sans-Serif" font-size="11.00">edition_editor_id</text>
<polygon fill="none" stroke="black" points="574.5,-414 574.5,-436 791.5,-436 791.5,-414 574.5,-414"/>
<image xlink:href="../../images/primaryKeys.png" width="11px" height="12px" preserveAspectRatio="xMinYMin meet" x="579.5" y="-431"/>
<text text-anchor="start" x="600.5" y="-422.2" font-family="Helvetica,sans-Serif" font-size="11.00">edition_id</text>
<polygon fill="#ffffff" stroke="transparent" points="574.5,-396 574.5,-414 667.5,-414 667.5,-396 574.5,-396"/>
<polygon fill="none" stroke="black" points="574.5,-396 574.5,-414 667.5,-414 667.5,-396 574.5,-396"/>
<text text-anchor="start" x="577.5" y="-402.2" font-family="Helvetica,sans-Serif" font-size="11.00">&lt; 3</text>
<polygon fill="#ffffff" stroke="transparent" points="667.5,-396 667.5,-414 743.5,-414 743.5,-396 667.5,-396"/>
<polygon fill="none" stroke="black" points="667.5,-396 667.5,-414 743.5,-414 743.5,-396 667.5,-396"/>
<text text-anchor="start" x="703.5" y="-402.2" font-family="Helvetica,sans-Serif" font-size="11.00">0 rows</text>
<polygon fill="#ffffff" stroke="transparent" points="743.5,-396 743.5,-414 791.5,-414 791.5,-396 743.5,-396"/>
<polygon fill="none" stroke="black" points="743.5,-396 743.5,-414 791.5,-414 791.5,-396 743.5,-396"/>
<text text-anchor="start" x="780.5" y="-402.2" font-family="Helvetica,sans-Serif" font-size="11.00"> &#160;</text>
</a>
</g>
</g>
<!-- scribal_font_kerning_owner&#45;&gt;edition_editor -->
<g id="edge5" class="edge">
<title>scribal_font_kerning_owner:w&#45;&gt;edition_editor:e</title>
<path fill="none" stroke="black" d="M559.07,-444.75C523.78,-431.21 567.48,-359.85 533,-318 508.09,-287.76 494.68,-276 455.5,-276"/>
<polygon fill="black" stroke="black" points="565.6,-445.77 572.94,-450.56 569.55,-446.38 573.5,-447 573.5,-447 573.5,-447 569.55,-446.38 574.06,-443.44 565.6,-445.77 565.6,-445.77"/>
<ellipse fill="none" stroke="black" cx="562.43" cy="-445.27" rx="3.2" ry="3.2"/>
</g>
<!-- scribal_font_kerning_owner&#45;&gt;edition -->
<g id="edge6" class="edge">
<title>scribal_font_kerning_owner:w&#45;&gt;edition:e</title>
<path fill="none" stroke="black" d="M559.53,-428.62C539.42,-442.78 564.65,-494.53 533,-515 478.32,-550.35 292.3,-553.79 240,-515 150.84,-448.88 278.5,-276 167.5,-276"/>
<polygon fill="black" stroke="black" points="565.76,-427.01 574.4,-428.48 569.63,-426 573.5,-425 573.5,-425 573.5,-425 569.63,-426 572.6,-421.52 565.76,-427.01 565.76,-427.01"/>
<ellipse fill="none" stroke="black" cx="562.66" cy="-427.81" rx="3.2" ry="3.2"/>
</g>
<!-- scribal_font_kerning_owner&#45;&gt;scribal_font_kerning -->
<g id="edge7" class="edge">
<title>scribal_font_kerning_owner:w&#45;&gt;scribal_font_kerning:e</title>
<path fill="none" stroke="black" d="M558.99,-469C547.68,-469 540.49,-469 524.5,-469"/>
<polygon fill="black" stroke="black" points="565.5,-469 573.5,-472.6 569.5,-469 573.5,-469 573.5,-469 573.5,-469 569.5,-469 573.5,-465.4 565.5,-469 565.5,-469"/>
<ellipse fill="none" stroke="black" cx="562.3" cy="-469" rx="3.2" ry="3.2"/>
</g>
<!-- scribal_font_owner -->
<g id="node8" class="node">
<title>scribal_font_owner</title>
<g id="a_node8"><a xlink:href="../../tables/scribal_font_owner.html" xlink:title="scribal_font_owner" target="_top">
<polygon fill="#ffffff" stroke="transparent" points="599.5,-198 599.5,-256 765.5,-256 765.5,-198 599.5,-198"/>
<polygon fill="#f5f5f5" stroke="transparent" points="599.5,-234 599.5,-256 765.5,-256 765.5,-234 599.5,-234"/>
<polygon fill="none" stroke="black" points="599.5,-234 599.5,-256 765.5,-256 765.5,-234 599.5,-234"/>
<text text-anchor="start" x="604.5" y="-243.2" font-family="Helvetica,sans-Serif" font-weight="bold" font-size="11.00">scribal_font_owner</text>
<text text-anchor="start" x="723.5" y="-242.2" font-family="Helvetica,sans-Serif" font-size="11.00">[table]</text>
<polygon fill="none" stroke="black" points="599.5,-216 599.5,-234 765.5,-234 765.5,-216 599.5,-216"/>
<text text-anchor="start" x="602.5" y="-222.2" font-family="Helvetica,sans-Serif" font-size="11.00">...</text>
<polygon fill="#ffffff" stroke="transparent" points="599.5,-198 599.5,-216 666.5,-216 666.5,-198 599.5,-198"/>
<polygon fill="none" stroke="black" points="599.5,-198 599.5,-216 666.5,-216 666.5,-198 599.5,-198"/>
<text text-anchor="start" x="602.5" y="-204.2" font-family="Helvetica,sans-Serif" font-size="11.00">&lt; 3</text>
<polygon fill="#ffffff" stroke="transparent" points="666.5,-198 666.5,-216 730.5,-216 730.5,-198 666.5,-198"/>
<polygon fill="none" stroke="black" points="666.5,-198 666.5,-216 730.5,-216 730.5,-198 666.5,-198"/>
<text text-anchor="start" x="690.5" y="-204.2" font-family="Helvetica,sans-Serif" font-size="11.00">0 rows</text>
<polygon fill="#ffffff" stroke="transparent" points="730.5,-198 730.5,-216 765.5,-216 765.5,-198 730.5,-198"/>
<polygon fill="none" stroke="black" points="730.5,-198 730.5,-216 765.5,-216 765.5,-198 730.5,-198"/>
<text text-anchor="start" x="754.5" y="-204.2" font-family="Helvetica,sans-Serif" font-size="11.00"> &#160;</text>
</a>
</g>
</g>
<!-- scribal_font_owner&#45;&gt;edition_editor -->
<g id="edge8" class="edge">
<title>scribal_font_owner:w&#45;&gt;edition_editor:e</title>
<path fill="none" stroke="black" d="M584.06,-225.84C529.45,-232.47 517.84,-276 455.5,-276"/>
<polygon fill="black" stroke="black" points="590.51,-225.47 598.71,-228.59 594.51,-225.23 598.5,-225 598.5,-225 598.5,-225 594.51,-225.23 598.29,-221.41 590.51,-225.47 590.51,-225.47"/>
<ellipse fill="none" stroke="black" cx="587.32" cy="-225.65" rx="3.2" ry="3.2"/>
</g>
<!-- scribal_font_owner&#45;&gt;edition -->
<g id="edge9" class="edge">
<title>scribal_font_owner:w&#45;&gt;edition:e</title>
<path fill="none" stroke="black" d="M583.88,-224.92C436.15,-223.32 389.28,-198.37 240,-238 204.84,-247.34 203.88,-276 167.5,-276"/>
<polygon fill="black" stroke="black" points="590.5,-224.96 598.48,-228.6 594.5,-224.98 598.5,-225 598.5,-225 598.5,-225 594.5,-224.98 598.52,-221.4 590.5,-224.96 590.5,-224.96"/>
<ellipse fill="none" stroke="black" cx="587.3" cy="-224.94" rx="3.2" ry="3.2"/>
</g>
<!-- scribal_font_owner&#45;&gt;scribal_font -->
<g id="edge10" class="edge">
<title>scribal_font_owner:w&#45;&gt;scribal_font:e</title>
<path fill="none" stroke="black" d="M583.98,-224.25C565.63,-222.18 556.81,-216.35 533,-213 403.42,-194.75 367.39,-213.93 240,-184 221.72,-179.7 219.28,-169 200.5,-169"/>
<polygon fill="black" stroke="black" points="590.51,-224.59 598.31,-228.6 594.51,-224.79 598.5,-225 598.5,-225 598.5,-225 594.51,-224.79 598.69,-221.4 590.51,-224.59 590.51,-224.59"/>
<ellipse fill="none" stroke="black" cx="587.32" cy="-224.42" rx="3.2" ry="3.2"/>
</g>
</g>
</svg>
