<?xml version="1.0" encoding="UTF-8" standalone="no"?>
<!DOCTYPE svg PUBLIC "-//W3C//DTD SVG 1.1//EN"
 "http://www.w3.org/Graphics/SVG/1.1/DTD/svg11.dtd">
<!-- Generated by graphviz version 2.43.0 (0)
 -->
<!-- Title: oneDegreeRelationshipsDiagram Pages: 1 -->
<svg width="824pt" height="376pt"
 viewBox="0.00 0.00 824.00 376.00" xmlns="http://www.w3.org/2000/svg" xmlns:xlink="http://www.w3.org/1999/xlink">
<g id="graph0" class="graph" transform="scale(1 1) rotate(0) translate(4 372)">
<title>oneDegreeRelationshipsDiagram</title>
<polygon fill="#ffffff" stroke="transparent" points="-4,4 -4,-372 820,-372 820,4 -4,4"/>
<text text-anchor="middle" x="79.5" y="-7.2" font-family="Helvetica,sans-Serif" font-size="11.00">Generated by SchemaSpy</text>
<!-- edition_editor -->
<g id="node1" class="node">
<title>edition_editor</title>
<g id="a_node1"><a xlink:href="../../tables/edition_editor.html" xlink:title="edition_editor" target="_top">
<polygon fill="#ffffff" stroke="transparent" points="233,-95 233,-219 369,-219 369,-95 233,-95"/>
<polygon fill="#f5f5f5" stroke="transparent" points="233,-197 233,-219 369,-219 369,-197 233,-197"/>
<polygon fill="none" stroke="black" points="233,-197 233,-219 369,-219 369,-197 233,-197"/>
<text text-anchor="start" x="238" y="-206.2" font-family="Helvetica,sans-Serif" font-weight="bold" font-size="11.00">edition_editor</text>
<text text-anchor="start" x="327" y="-205.2" font-family="Helvetica,sans-Serif" font-size="11.00">[table]</text>
<polygon fill="none" stroke="black" points="233,-175 233,-197 369,-197 369,-175 233,-175"/>
<image xlink:href="../../images/primaryKeys.png" width="11px" height="12px" preserveAspectRatio="xMinYMin meet" x="238" y="-192"/>
<text text-anchor="start" x="255" y="-183.2" font-family="Helvetica,sans-Serif" font-size="11.00">edition_editor_id</text>
<polygon fill="#ffffff" stroke="transparent" points="233,-153 233,-175 369,-175 369,-153 233,-153"/>
<polygon fill="none" stroke="black" points="233,-153 233,-175 369,-175 369,-153 233,-153"/>
<image xlink:href="../../images/foreignKeys.png" width="11px" height="12px" preserveAspectRatio="xMinYMin meet" x="238" y="-170"/>
<text text-anchor="start" x="255" y="-161.2" font-family="Helvetica,sans-Serif" font-size="11.00">user_id</text>
<polygon fill="#ffffff" stroke="transparent" points="233,-131 233,-153 369,-153 369,-131 233,-131"/>
<polygon fill="none" stroke="black" points="233,-131 233,-153 369,-153 369,-131 233,-131"/>
<image xlink:href="../../images/foreignKeys.png" width="11px" height="12px" preserveAspectRatio="xMinYMin meet" x="238" y="-148"/>
<text text-anchor="start" x="255" y="-139.2" font-family="Helvetica,sans-Serif" font-size="11.00">edition_id</text>
<polygon fill="none" stroke="black" points="233,-113 233,-131 369,-131 369,-113 233,-113"/>
<text text-anchor="start" x="236" y="-119.2" font-family="Helvetica,sans-Serif" font-size="11.00">...</text>
<polygon fill="#ffffff" stroke="transparent" points="233,-95 233,-113 264,-113 264,-95 233,-95"/>
<polygon fill="none" stroke="black" points="233,-95 233,-113 264,-113 264,-95 233,-95"/>
<text text-anchor="start" x="236" y="-101.2" font-family="Helvetica,sans-Serif" font-size="11.00">&lt; 2</text>
<polygon fill="#ffffff" stroke="transparent" points="264,-95 264,-113 333,-113 333,-95 264,-95"/>
<polygon fill="none" stroke="black" points="264,-95 264,-113 333,-113 333,-95 264,-95"/>
<text text-anchor="start" x="269" y="-101.2" font-family="Helvetica,sans-Serif" font-size="11.00">1,645 rows</text>
<polygon fill="#ffffff" stroke="transparent" points="333,-95 333,-113 369,-113 369,-95 333,-95"/>
<polygon fill="none" stroke="black" points="333,-95 333,-113 369,-113 369,-95 333,-95"/>
<text text-anchor="start" x="339" y="-101.2" font-family="Helvetica,sans-Serif" font-size="11.00">33 &gt;</text>
</a>
</g>
</g>
<!-- edition -->
<g id="node2" class="node">
<title>edition</title>
<g id="a_node2"><a xlink:href="../../tables/edition.html" xlink:title="edition" target="_top">
<polygon fill="#ffffff" stroke="transparent" points="8,-37 8,-139 143,-139 143,-37 8,-37"/>
<polygon fill="#f5f5f5" stroke="transparent" points="8.5,-117 8.5,-139 143.5,-139 143.5,-117 8.5,-117"/>
<polygon fill="none" stroke="black" points="8.5,-117 8.5,-139 143.5,-139 143.5,-117 8.5,-117"/>
<text text-anchor="start" x="13.5" y="-126.2" font-family="Helvetica,sans-Serif" font-weight="bold" font-size="11.00">edition</text>
<text text-anchor="start" x="101.5" y="-125.2" font-family="Helvetica,sans-Serif" font-size="11.00">[table]</text>
<polygon fill="none" stroke="black" points="8.5,-95 8.5,-117 143.5,-117 143.5,-95 8.5,-95"/>
<image xlink:href="../../images/primaryKeys.png" width="11px" height="12px" preserveAspectRatio="xMinYMin meet" x="13.5" y="-112"/>
<text text-anchor="start" x="28.5" y="-103.2" font-family="Helvetica,sans-Serif" font-size="11.00">edition_id</text>
<polygon fill="#ffffff" stroke="transparent" points="8.5,-73 8.5,-95 143.5,-95 143.5,-73 8.5,-73"/>
<polygon fill="none" stroke="black" points="8.5,-73 8.5,-95 143.5,-95 143.5,-73 8.5,-73"/>
<image xlink:href="../../images/foreignKeys.png" width="11px" height="12px" preserveAspectRatio="xMinYMin meet" x="13.5" y="-90"/>
<text text-anchor="start" x="28.5" y="-81.2" font-family="Helvetica,sans-Serif" font-size="11.00">manuscript_id</text>
<polygon fill="none" stroke="black" points="8.5,-55 8.5,-73 143.5,-73 143.5,-55 8.5,-55"/>
<text text-anchor="start" x="11.5" y="-61.2" font-family="Helvetica,sans-Serif" font-size="11.00">...</text>
<polygon fill="#ffffff" stroke="transparent" points="8.5,-37 8.5,-55 38.5,-55 38.5,-37 8.5,-37"/>
<polygon fill="none" stroke="black" points="8.5,-37 8.5,-55 38.5,-55 38.5,-37 8.5,-37"/>
<text text-anchor="start" x="11.5" y="-43.2" font-family="Helvetica,sans-Serif" font-size="11.00">&lt; 1</text>
<polygon fill="#ffffff" stroke="transparent" points="38.5,-37 38.5,-55 107.5,-55 107.5,-37 38.5,-37"/>
<polygon fill="none" stroke="black" points="38.5,-37 38.5,-55 107.5,-55 107.5,-37 38.5,-37"/>
<text text-anchor="start" x="43.5" y="-43.2" font-family="Helvetica,sans-Serif" font-size="11.00">1,645 rows</text>
<polygon fill="#ffffff" stroke="transparent" points="107.5,-37 107.5,-55 143.5,-55 143.5,-37 107.5,-37"/>
<polygon fill="none" stroke="black" points="107.5,-37 107.5,-55 143.5,-55 143.5,-37 107.5,-37"/>
<text text-anchor="start" x="113.5" y="-43.2" font-family="Helvetica,sans-Serif" font-size="11.00">35 &gt;</text>
</a>
</g>
</g>
<!-- edition_editor&#45;&gt;edition -->
<g id="edge1" class="edge">
<title>edition_editor:w&#45;&gt;edition:e</title>
<path fill="none" stroke="black" d="M217.5,-140.36C188.43,-133.32 181.13,-106 144.5,-106"/>
<polygon fill="black" stroke="black" points="224.05,-141.1 231.6,-145.58 228.03,-141.55 232,-142 232,-142 232,-142 228.03,-141.55 232.4,-138.42 224.05,-141.1 224.05,-141.1"/>
<ellipse fill="none" stroke="black" cx="220.87" cy="-140.74" rx="3.2" ry="3.2"/>
</g>
<!-- scribal_font_glyph_metrics_owner -->
<g id="node3" class="node">
<title>scribal_font_glyph_metrics_owner</title>
<g id="a_node3"><a xlink:href="../../tables/scribal_font_glyph_metrics_owner.html" xlink:title="scribal_font_glyph_metrics_owner" target="_top">
<polygon fill="#ffffff" stroke="transparent" points="459,-133 459,-243 808,-243 808,-133 459,-133"/>
<polygon fill="#f5f5f5" stroke="transparent" points="461.5,-219 461.5,-241 806.5,-241 806.5,-219 461.5,-219"/>
<polygon fill="none" stroke="black" points="461.5,-219 461.5,-241 806.5,-241 806.5,-219 461.5,-219"/>
<text text-anchor="start" x="466.5" y="-228.2" font-family="Helvetica,sans-Serif" font-weight="bold" font-size="11.00">scribal_font_glyph_metrics_owner</text>
<text text-anchor="start" x="764.5" y="-227.2" font-family="Helvetica,sans-Serif" font-size="11.00">[table]</text>
<polygon fill="none" stroke="black" points="461.5,-197 461.5,-219 709.5,-219 709.5,-197 461.5,-197"/>
<image xlink:href="../../images/primaryKeys.png" width="11px" height="12px" preserveAspectRatio="xMinYMin meet" x="466.5" y="-214"/>
<text text-anchor="start" x="481.5" y="-205.2" font-family="Helvetica,sans-Serif" font-size="11.00">scribal_font_glyph_metrics_id</text>
<polygon fill="none" stroke="black" points="709.5,-197 709.5,-219 806.5,-219 806.5,-197 709.5,-197"/>
<text text-anchor="start" x="712.5" y="-205.2" font-family="Helvetica,sans-Serif" font-size="11.00">int unsigned[10]</text>
<polygon fill="#ffffff" stroke="transparent" points="461.5,-175 461.5,-197 709.5,-197 709.5,-175 461.5,-175"/>
<polygon fill="none" stroke="black" points="461.5,-175 461.5,-197 709.5,-197 709.5,-175 461.5,-175"/>
<image xlink:href="../../images/foreignKeys.png" width="11px" height="12px" preserveAspectRatio="xMinYMin meet" x="466.5" y="-192"/>
<text text-anchor="start" x="481.5" y="-183.2" font-family="Helvetica,sans-Serif" font-size="11.00">edition_editor_id</text>
<polygon fill="none" stroke="black" points="709.5,-175 709.5,-197 806.5,-197 806.5,-175 709.5,-175"/>
<text text-anchor="start" x="712.5" y="-183.2" font-family="Helvetica,sans-Serif" font-size="11.00">int unsigned[10]</text>
<polygon fill="none" stroke="black" points="461.5,-153 461.5,-175 709.5,-175 709.5,-153 461.5,-153"/>
<image xlink:href="../../images/primaryKeys.png" width="11px" height="12px" preserveAspectRatio="xMinYMin meet" x="466.5" y="-170"/>
<text text-anchor="start" x="481.5" y="-161.2" font-family="Helvetica,sans-Serif" font-size="11.00">edition_id</text>
<polygon fill="none" stroke="black" points="709.5,-153 709.5,-175 806.5,-175 806.5,-153 709.5,-153"/>
<text text-anchor="start" x="712.5" y="-161.2" font-family="Helvetica,sans-Serif" font-size="11.00">int unsigned[10]</text>
<polygon fill="#ffffff" stroke="transparent" points="461.5,-135 461.5,-153 576.5,-153 576.5,-135 461.5,-135"/>
<polygon fill="none" stroke="black" points="461.5,-135 461.5,-153 576.5,-153 576.5,-135 461.5,-135"/>
<text text-anchor="start" x="464.5" y="-141.2" font-family="Helvetica,sans-Serif" font-size="11.00">&lt; 3</text>
<polygon fill="#ffffff" stroke="transparent" points="576.5,-135 576.5,-153 709.5,-153 709.5,-135 576.5,-135"/>
<polygon fill="none" stroke="black" points="576.5,-135 576.5,-153 709.5,-153 709.5,-135 576.5,-135"/>
<text text-anchor="start" x="669.5" y="-141.2" font-family="Helvetica,sans-Serif" font-size="11.00">0 rows</text>
<polygon fill="#ffffff" stroke="transparent" points="709.5,-135 709.5,-153 806.5,-153 806.5,-135 709.5,-135"/>
<polygon fill="none" stroke="black" points="709.5,-135 709.5,-153 806.5,-153 806.5,-135 709.5,-135"/>
<text text-anchor="start" x="783.5" y="-141.2" font-family="Helvetica,sans-Serif" font-size="11.00">0 &gt;</text>
<polygon fill="none" stroke="black" stroke-width="2" points="460,-134 460,-242 807,-242 807,-134 460,-134"/>
</a>
</g>
</g>
<!-- scribal_font_glyph_metrics_owner&#45;&gt;edition_editor -->
<g id="edge2" class="edge">
<title>scribal_font_glyph_metrics_owner:w&#45;&gt;edition_editor:e</title>
<path fill="none" stroke="black" d="M445.93,-186C417.07,-186 404.88,-186 370,-186"/>
<polygon fill="black" stroke="black" points="452.5,-186 460.5,-189.6 456.5,-186 460.5,-186 460.5,-186 460.5,-186 456.5,-186 460.5,-182.4 452.5,-186 452.5,-186"/>
<ellipse fill="none" stroke="black" cx="449.3" cy="-186" rx="3.2" ry="3.2"/>
</g>
<!-- scribal_font_glyph_metrics_owner&#45;&gt;edition -->
<g id="edge3" class="edge">
<title>scribal_font_glyph_metrics_owner:w&#45;&gt;edition:e</title>
<path fill="none" stroke="black" d="M446.41,-160.03C428.69,-146.42 447.12,-101.5 418,-84 328.86,-30.42 284.66,-57.86 184,-84 164.55,-89.05 164.59,-106 144.5,-106"/>
<polygon fill="black" stroke="black" points="452.8,-161.83 459.52,-167.47 456.65,-162.92 460.5,-164 460.5,-164 460.5,-164 456.65,-162.92 461.48,-160.53 452.8,-161.83 452.8,-161.83"/>
<ellipse fill="none" stroke="black" cx="449.72" cy="-160.96" rx="3.2" ry="3.2"/>
</g>
<!-- scribal_font_glyph_metrics -->
<g id="node4" class="node">
<title>scribal_font_glyph_metrics</title>
<g id="a_node4"><a xlink:href="../../tables/scribal_font_glyph_metrics.html" xlink:title="scribal_font_glyph_metrics" target="_top">
<polygon fill="#ffffff" stroke="transparent" points="192,-240 192,-364 410,-364 410,-240 192,-240"/>
<polygon fill="#f5f5f5" stroke="transparent" points="192,-342 192,-364 410,-364 410,-342 192,-342"/>
<polygon fill="none" stroke="black" points="192,-342 192,-364 410,-364 410,-342 192,-342"/>
<text text-anchor="start" x="197" y="-351.2" font-family="Helvetica,sans-Serif" font-weight="bold" font-size="11.00">scribal_font_glyph_metrics</text>
<text text-anchor="start" x="368" y="-350.2" font-family="Helvetica,sans-Serif" font-size="11.00">[table]</text>
<polygon fill="none" stroke="black" points="192,-320 192,-342 410,-342 410,-320 192,-320"/>
<image xlink:href="../../images/primaryKeys.png" width="11px" height="12px" preserveAspectRatio="xMinYMin meet" x="197" y="-337"/>
<text text-anchor="start" x="212" y="-328.2" font-family="Helvetica,sans-Serif" font-size="11.00">scribal_font_glyph_metrics_id</text>
<polygon fill="#ffffff" stroke="transparent" points="192,-298 192,-320 410,-320 410,-298 192,-298"/>
<polygon fill="none" stroke="black" points="192,-298 192,-320 410,-320 410,-298 192,-298"/>
<image xlink:href="../../images/foreignKeys.png" width="11px" height="12px" preserveAspectRatio="xMinYMin meet" x="197" y="-315"/>
<text text-anchor="start" x="212" y="-306.2" font-family="Helvetica,sans-Serif" font-size="11.00">scribal_font_id</text>
<polygon fill="#ffffff" stroke="transparent" points="192,-276 192,-298 410,-298 410,-276 192,-276"/>
<polygon fill="none" stroke="black" points="192,-276 192,-298 410,-298 410,-276 192,-276"/>
<text text-anchor="start" x="212" y="-284.2" font-family="Helvetica,sans-Serif" font-size="11.00">unicode_char</text>
<polygon fill="none" stroke="black" points="192,-258 192,-276 410,-276 410,-258 192,-258"/>
<text text-anchor="start" x="195" y="-264.2" font-family="Helvetica,sans-Serif" font-size="11.00">...</text>
<polygon fill="#ffffff" stroke="transparent" points="192,-240 192,-258 279,-258 279,-240 192,-240"/>
<polygon fill="none" stroke="black" points="192,-240 192,-258 279,-258 279,-240 192,-240"/>
<text text-anchor="start" x="195" y="-246.2" font-family="Helvetica,sans-Serif" font-size="11.00">&lt; 1</text>
<polygon fill="#ffffff" stroke="transparent" points="279,-240 279,-258 353,-258 353,-240 279,-240"/>
<polygon fill="none" stroke="black" points="279,-240 279,-258 353,-258 353,-240 279,-240"/>
<text text-anchor="start" x="313" y="-246.2" font-family="Helvetica,sans-Serif" font-size="11.00">0 rows</text>
<polygon fill="#ffffff" stroke="transparent" points="353,-240 353,-258 410,-258 410,-240 353,-240"/>
<polygon fill="none" stroke="black" points="353,-240 353,-258 410,-258 410,-240 353,-240"/>
<text text-anchor="start" x="387" y="-246.2" font-family="Helvetica,sans-Serif" font-size="11.00">1 &gt;</text>
</a>
</g>
</g>
<!-- scribal_font_glyph_metrics_owner&#45;&gt;scribal_font_glyph_metrics -->
<g id="edge4" class="edge">
<title>scribal_font_glyph_metrics_owner:w&#45;&gt;scribal_font_glyph_metrics:e</title>
<path fill="none" stroke="black" d="M446.22,-211.55C414.14,-231.72 463.94,-331 411,-331"/>
<polygon fill="black" stroke="black" points="452.74,-209.93 461.37,-211.49 456.62,-208.96 460.5,-208 460.5,-208 460.5,-208 456.62,-208.96 459.63,-204.51 452.74,-209.93 452.74,-209.93"/>
<ellipse fill="none" stroke="black" cx="449.63" cy="-210.7" rx="3.2" ry="3.2"/>
</g>
</g>
</svg>
