<?xml version="1.0" encoding="UTF-8" standalone="no"?>
<!DOCTYPE svg PUBLIC "-//W3C//DTD SVG 1.1//EN"
 "http://www.w3.org/Graphics/SVG/1.1/DTD/svg11.dtd">
<!-- Generated by graphviz version 2.43.0 (0)
 -->
<!-- Title: twoDegreesRelationshipsDiagram Pages: 1 -->
<svg width="618pt" height="264pt"
 viewBox="0.00 0.00 618.00 264.00" xmlns="http://www.w3.org/2000/svg" xmlns:xlink="http://www.w3.org/1999/xlink">
<g id="graph0" class="graph" transform="scale(1 1) rotate(0) translate(4 260)">
<title>twoDegreesRelationshipsDiagram</title>
<polygon fill="#ffffff" stroke="transparent" points="-4,4 -4,-260 614,-260 614,4 -4,4"/>
<text text-anchor="middle" x="79.5" y="-7.2" font-family="Helvetica,sans-Serif" font-size="11.00">Generated by SchemaSpy</text>
<!-- edition_editor -->
<g id="node1" class="node">
<title>edition_editor</title>
<g id="a_node1"><a xlink:href="../../tables/edition_editor.html" xlink:title="edition_editor" target="_top">
<polygon fill="#ffffff" stroke="transparent" points="233.5,-63 233.5,-121 369.5,-121 369.5,-63 233.5,-63"/>
<polygon fill="#f5f5f5" stroke="transparent" points="233.5,-99 233.5,-121 369.5,-121 369.5,-99 233.5,-99"/>
<polygon fill="none" stroke="black" points="233.5,-99 233.5,-121 369.5,-121 369.5,-99 233.5,-99"/>
<text text-anchor="start" x="238.5" y="-108.2" font-family="Helvetica,sans-Serif" font-weight="bold" font-size="11.00">edition_editor</text>
<text text-anchor="start" x="327.5" y="-107.2" font-family="Helvetica,sans-Serif" font-size="11.00">[table]</text>
<polygon fill="none" stroke="black" points="233.5,-81 233.5,-99 369.5,-99 369.5,-81 233.5,-81"/>
<text text-anchor="start" x="236.5" y="-87.2" font-family="Helvetica,sans-Serif" font-size="11.00">...</text>
<polygon fill="#ffffff" stroke="transparent" points="233.5,-63 233.5,-81 264.5,-81 264.5,-63 233.5,-63"/>
<polygon fill="none" stroke="black" points="233.5,-63 233.5,-81 264.5,-81 264.5,-63 233.5,-63"/>
<text text-anchor="start" x="236.5" y="-69.2" font-family="Helvetica,sans-Serif" font-size="11.00">&lt; 2</text>
<polygon fill="#ffffff" stroke="transparent" points="264.5,-63 264.5,-81 333.5,-81 333.5,-63 264.5,-63"/>
<polygon fill="none" stroke="black" points="264.5,-63 264.5,-81 333.5,-81 333.5,-63 264.5,-63"/>
<text text-anchor="start" x="269.5" y="-69.2" font-family="Helvetica,sans-Serif" font-size="11.00">1,645 rows</text>
<polygon fill="#ffffff" stroke="transparent" points="333.5,-63 333.5,-81 369.5,-81 369.5,-63 333.5,-63"/>
<polygon fill="none" stroke="black" points="333.5,-63 333.5,-81 369.5,-81 369.5,-63 333.5,-63"/>
<text text-anchor="start" x="339.5" y="-69.2" font-family="Helvetica,sans-Serif" font-size="11.00">33 &gt;</text>
</a>
</g>
</g>
<!-- edition -->
<g id="node2" class="node">
<title>edition</title>
<g id="a_node2"><a xlink:href="../../tables/edition.html" xlink:title="edition" target="_top">
<polygon fill="#ffffff" stroke="transparent" points="8,-37 8,-95 134,-95 134,-37 8,-37"/>
<polygon fill="#f5f5f5" stroke="transparent" points="8,-73 8,-95 134,-95 134,-73 8,-73"/>
<polygon fill="none" stroke="black" points="8,-73 8,-95 134,-95 134,-73 8,-73"/>
<text text-anchor="start" x="13" y="-82.2" font-family="Helvetica,sans-Serif" font-weight="bold" font-size="11.00">edition</text>
<text text-anchor="start" x="92" y="-81.2" font-family="Helvetica,sans-Serif" font-size="11.00">[table]</text>
<polygon fill="none" stroke="black" points="8,-55 8,-73 134,-73 134,-55 8,-55"/>
<text text-anchor="start" x="11" y="-61.2" font-family="Helvetica,sans-Serif" font-size="11.00">...</text>
<polygon fill="#ffffff" stroke="transparent" points="8,-37 8,-55 34,-55 34,-37 8,-37"/>
<polygon fill="none" stroke="black" points="8,-37 8,-55 34,-55 34,-37 8,-37"/>
<text text-anchor="start" x="11" y="-43.2" font-family="Helvetica,sans-Serif" font-size="11.00">&lt; 1</text>
<polygon fill="#ffffff" stroke="transparent" points="34,-37 34,-55 101,-55 101,-37 34,-37"/>
<polygon fill="none" stroke="black" points="34,-37 34,-55 101,-55 101,-37 34,-37"/>
<text text-anchor="start" x="37" y="-43.2" font-family="Helvetica,sans-Serif" font-size="11.00">1,645 rows</text>
<polygon fill="#ffffff" stroke="transparent" points="101,-37 101,-55 134,-55 134,-37 101,-37"/>
<polygon fill="none" stroke="black" points="101,-37 101,-55 134,-55 134,-37 101,-37"/>
<text text-anchor="start" x="104" y="-43.2" font-family="Helvetica,sans-Serif" font-size="11.00">35 &gt;</text>
</a>
</g>
</g>
<!-- edition_editor&#45;&gt;edition -->
<g id="edge1" class="edge">
<title>edition_editor:w&#45;&gt;edition:e</title>
<path fill="none" stroke="black" d="M217.71,-88.95C185.22,-84.08 174.42,-64 135,-64"/>
<polygon fill="black" stroke="black" points="224.52,-89.43 232.24,-93.59 228.51,-89.72 232.5,-90 232.5,-90 232.5,-90 228.51,-89.72 232.76,-86.41 224.52,-89.43 224.52,-89.43"/>
<ellipse fill="none" stroke="black" cx="221.33" cy="-89.21" rx="3.2" ry="3.2"/>
</g>
<!-- scribe_owner -->
<g id="node3" class="node">
<title>scribe_owner</title>
<g id="a_node3"><a xlink:href="../../tables/scribe_owner.html" xlink:title="scribe_owner" target="_top">
<polygon fill="#ffffff" stroke="transparent" points="469,-39 469,-145 602,-145 602,-39 469,-39"/>
<polygon fill="#f5f5f5" stroke="transparent" points="469.5,-123 469.5,-145 602.5,-145 602.5,-123 469.5,-123"/>
<polygon fill="none" stroke="black" points="469.5,-123 469.5,-145 602.5,-145 602.5,-123 469.5,-123"/>
<text text-anchor="start" x="474.5" y="-132.2" font-family="Helvetica,sans-Serif" font-weight="bold" font-size="11.00">scribe_owner</text>
<text text-anchor="start" x="560.5" y="-131.2" font-family="Helvetica,sans-Serif" font-size="11.00">[table]</text>
<polygon fill="none" stroke="black" points="469.5,-101 469.5,-123 602.5,-123 602.5,-101 469.5,-101"/>
<image xlink:href="../../images/primaryKeys.png" width="11px" height="12px" preserveAspectRatio="xMinYMin meet" x="474.5" y="-118"/>
<text text-anchor="start" x="489.5" y="-109.2" font-family="Helvetica,sans-Serif" font-size="11.00">scribe_id</text>
<polygon fill="#ffffff" stroke="transparent" points="469.5,-79 469.5,-101 602.5,-101 602.5,-79 469.5,-79"/>
<polygon fill="none" stroke="black" points="469.5,-79 469.5,-101 602.5,-101 602.5,-79 469.5,-79"/>
<image xlink:href="../../images/foreignKeys.png" width="11px" height="12px" preserveAspectRatio="xMinYMin meet" x="474.5" y="-96"/>
<text text-anchor="start" x="489.5" y="-87.2" font-family="Helvetica,sans-Serif" font-size="11.00">edition_editor_id</text>
<polygon fill="none" stroke="black" points="469.5,-57 469.5,-79 602.5,-79 602.5,-57 469.5,-57"/>
<image xlink:href="../../images/primaryKeys.png" width="11px" height="12px" preserveAspectRatio="xMinYMin meet" x="474.5" y="-74"/>
<text text-anchor="start" x="489.5" y="-65.2" font-family="Helvetica,sans-Serif" font-size="11.00">edition_id</text>
<polygon fill="#ffffff" stroke="transparent" points="469.5,-39 469.5,-57 520.5,-57 520.5,-39 469.5,-39"/>
<polygon fill="none" stroke="black" points="469.5,-39 469.5,-57 520.5,-57 520.5,-39 469.5,-39"/>
<text text-anchor="start" x="472.5" y="-45.2" font-family="Helvetica,sans-Serif" font-size="11.00">&lt; 3</text>
<polygon fill="#ffffff" stroke="transparent" points="520.5,-39 520.5,-57 575.5,-57 575.5,-39 520.5,-39"/>
<polygon fill="none" stroke="black" points="520.5,-39 520.5,-57 575.5,-57 575.5,-39 520.5,-39"/>
<text text-anchor="start" x="535.5" y="-45.2" font-family="Helvetica,sans-Serif" font-size="11.00">0 rows</text>
<polygon fill="#ffffff" stroke="transparent" points="575.5,-39 575.5,-57 602.5,-57 602.5,-39 575.5,-39"/>
<polygon fill="none" stroke="black" points="575.5,-39 575.5,-57 602.5,-57 602.5,-39 575.5,-39"/>
<text text-anchor="start" x="591.5" y="-45.2" font-family="Helvetica,sans-Serif" font-size="11.00"> &#160;</text>
</a>
</g>
</g>
<!-- scribe_owner&#45;&gt;edition_editor -->
<g id="edge2" class="edge">
<title>scribe_owner:w&#45;&gt;edition_editor:e</title>
<path fill="none" stroke="black" d="M454,-90C421.83,-90 408.78,-90 370.5,-90"/>
<polygon fill="black" stroke="black" points="460.5,-90 468.5,-93.6 464.5,-90 468.5,-90 468.5,-90 468.5,-90 464.5,-90 468.5,-86.4 460.5,-90 460.5,-90"/>
<ellipse fill="none" stroke="black" cx="457.3" cy="-90" rx="3.2" ry="3.2"/>
</g>
<!-- scribe_owner&#45;&gt;edition -->
<g id="edge3" class="edge">
<title>scribe_owner:w&#45;&gt;edition:e</title>
<path fill="none" stroke="black" d="M454.36,-65.02C446.16,-61.12 441.07,-54.49 428,-52 317.54,-30.97 286.25,-35.67 175,-52 156.64,-54.7 153.56,-64 135,-64"/>
<polygon fill="black" stroke="black" points="460.67,-66.35 467.76,-71.52 464.59,-67.17 468.5,-68 468.5,-68 468.5,-68 464.59,-67.17 469.24,-64.48 460.67,-66.35 460.67,-66.35"/>
<ellipse fill="none" stroke="black" cx="457.54" cy="-65.69" rx="3.2" ry="3.2"/>
</g>
<!-- scribe -->
<g id="node4" class="node">
<title>scribe</title>
<g id="a_node4"><a xlink:href="../../tables/scribe.html" xlink:title="scribe" target="_top">
<polygon fill="#ffffff" stroke="transparent" points="183,-142 183,-252 420,-252 420,-142 183,-142"/>
<polygon fill="#f5f5f5" stroke="transparent" points="185.5,-228 185.5,-250 418.5,-250 418.5,-228 185.5,-228"/>
<polygon fill="none" stroke="black" points="185.5,-228 185.5,-250 418.5,-250 418.5,-228 185.5,-228"/>
<text text-anchor="start" x="190.5" y="-237.2" font-family="Helvetica,sans-Serif" font-weight="bold" font-size="11.00">scribe</text>
<text text-anchor="start" x="376.5" y="-236.2" font-family="Helvetica,sans-Serif" font-size="11.00">[table]</text>
<polygon fill="none" stroke="black" points="185.5,-206 185.5,-228 282.5,-228 282.5,-206 185.5,-206"/>
<image xlink:href="../../images/primaryKeys.png" width="11px" height="12px" preserveAspectRatio="xMinYMin meet" x="190.5" y="-223"/>
<text text-anchor="start" x="205.5" y="-214.2" font-family="Helvetica,sans-Serif" font-size="11.00">scribe_id</text>
<polygon fill="none" stroke="black" points="282.5,-206 282.5,-228 418.5,-228 418.5,-206 282.5,-206"/>
<text text-anchor="start" x="285.5" y="-214.2" font-family="Helvetica,sans-Serif" font-size="11.00">int unsigned[10]</text>
<polygon fill="none" stroke="black" points="185.5,-184 185.5,-206 282.5,-206 282.5,-184 185.5,-184"/>
<text text-anchor="start" x="205.5" y="-192.2" font-family="Helvetica,sans-Serif" font-size="11.00">description</text>
<polygon fill="none" stroke="black" points="282.5,-184 282.5,-206 418.5,-206 418.5,-184 282.5,-184"/>
<text text-anchor="start" x="285.5" y="-192.2" font-family="Helvetica,sans-Serif" font-size="11.00">varchar[255]</text>
<polygon fill="none" stroke="black" points="185.5,-162 185.5,-184 282.5,-184 282.5,-162 185.5,-162"/>
<text text-anchor="start" x="205.5" y="-170.2" font-family="Helvetica,sans-Serif" font-size="11.00">commetary</text>
<polygon fill="none" stroke="black" points="282.5,-162 282.5,-184 418.5,-184 418.5,-162 282.5,-162"/>
<text text-anchor="start" x="285.5" y="-170.2" font-family="Helvetica,sans-Serif" font-size="11.00">mediumtext[16777215]</text>
<polygon fill="#ffffff" stroke="transparent" points="185.5,-144 185.5,-162 225.5,-162 225.5,-144 185.5,-144"/>
<polygon fill="none" stroke="black" points="185.5,-144 185.5,-162 225.5,-162 225.5,-144 185.5,-144"/>
<text text-anchor="start" x="188.5" y="-150.2" font-family="Helvetica,sans-Serif" font-size="11.00">&lt; 0</text>
<polygon fill="#ffffff" stroke="transparent" points="225.5,-144 225.5,-162 282.5,-162 282.5,-144 225.5,-144"/>
<polygon fill="none" stroke="black" points="225.5,-144 225.5,-162 282.5,-162 282.5,-144 225.5,-144"/>
<text text-anchor="start" x="242.5" y="-150.2" font-family="Helvetica,sans-Serif" font-size="11.00">0 rows</text>
<polygon fill="#ffffff" stroke="transparent" points="282.5,-144 282.5,-162 418.5,-162 418.5,-144 282.5,-144"/>
<polygon fill="none" stroke="black" points="282.5,-144 282.5,-162 418.5,-162 418.5,-144 282.5,-144"/>
<text text-anchor="start" x="395.5" y="-150.2" font-family="Helvetica,sans-Serif" font-size="11.00">1 &gt;</text>
<polygon fill="none" stroke="black" stroke-width="2" points="184,-143 184,-251 419,-251 419,-143 184,-143"/>
</a>
</g>
</g>
<!-- scribe_owner&#45;&gt;scribe -->
<g id="edge4" class="edge">
<title>scribe_owner:w&#45;&gt;scribe:e</title>
<path fill="none" stroke="black" d="M454.4,-115.99C428.21,-135.17 464.96,-217 419.5,-217"/>
<polygon fill="black" stroke="black" points="460.8,-114.18 469.48,-115.46 464.65,-113.09 468.5,-112 468.5,-112 468.5,-112 464.65,-113.09 467.52,-108.54 460.8,-114.18 460.8,-114.18"/>
<ellipse fill="none" stroke="black" cx="457.72" cy="-115.05" rx="3.2" ry="3.2"/>
</g>
</g>
</svg>
