<?xml version="1.0" encoding="UTF-8" standalone="no"?>
<!DOCTYPE svg PUBLIC "-//W3C//DTD SVG 1.1//EN"
 "http://www.w3.org/Graphics/SVG/1.1/DTD/svg11.dtd">
<!-- Generated by graphviz version 2.43.0 (0)
 -->
<!-- Title: twoDegreesRelationshipsDiagramImplied Pages: 1 -->
<svg width="957pt" height="579pt"
 viewBox="0.00 0.00 957.00 578.82" xmlns="http://www.w3.org/2000/svg" xmlns:xlink="http://www.w3.org/1999/xlink">
<g id="graph0" class="graph" transform="scale(1 1) rotate(0) translate(4 574.82)">
<title>twoDegreesRelationshipsDiagramImplied</title>
<polygon fill="#ffffff" stroke="transparent" points="-4,4 -4,-574.82 953,-574.82 953,4 -4,4"/>
<text text-anchor="middle" x="79.5" y="-7.2" font-family="Helvetica,sans-Serif" font-size="11.00">Generated by SchemaSpy</text>
<!-- edition_editor -->
<g id="node1" class="node">
<title>edition_editor</title>
<g id="a_node1"><a xlink:href="../../tables/edition_editor.html" xlink:title="edition_editor" target="_top">
<polygon fill="#ffffff" stroke="transparent" points="468.5,-249 468.5,-307 604.5,-307 604.5,-249 468.5,-249"/>
<polygon fill="#f5f5f5" stroke="transparent" points="468.5,-285 468.5,-307 604.5,-307 604.5,-285 468.5,-285"/>
<polygon fill="none" stroke="black" points="468.5,-285 468.5,-307 604.5,-307 604.5,-285 468.5,-285"/>
<text text-anchor="start" x="473.5" y="-294.2" font-family="Helvetica,sans-Serif" font-weight="bold" font-size="11.00">edition_editor</text>
<text text-anchor="start" x="562.5" y="-293.2" font-family="Helvetica,sans-Serif" font-size="11.00">[table]</text>
<polygon fill="none" stroke="black" points="468.5,-267 468.5,-285 604.5,-285 604.5,-267 468.5,-267"/>
<text text-anchor="start" x="471.5" y="-273.2" font-family="Helvetica,sans-Serif" font-size="11.00">...</text>
<polygon fill="#ffffff" stroke="transparent" points="468.5,-249 468.5,-267 499.5,-267 499.5,-249 468.5,-249"/>
<polygon fill="none" stroke="black" points="468.5,-249 468.5,-267 499.5,-267 499.5,-249 468.5,-249"/>
<text text-anchor="start" x="471.5" y="-255.2" font-family="Helvetica,sans-Serif" font-size="11.00">&lt; 2</text>
<polygon fill="#ffffff" stroke="transparent" points="499.5,-249 499.5,-267 568.5,-267 568.5,-249 499.5,-249"/>
<polygon fill="none" stroke="black" points="499.5,-249 499.5,-267 568.5,-267 568.5,-249 499.5,-249"/>
<text text-anchor="start" x="504.5" y="-255.2" font-family="Helvetica,sans-Serif" font-size="11.00">1,645 rows</text>
<polygon fill="#ffffff" stroke="transparent" points="568.5,-249 568.5,-267 604.5,-267 604.5,-249 568.5,-249"/>
<polygon fill="none" stroke="black" points="568.5,-249 568.5,-267 604.5,-267 604.5,-249 568.5,-249"/>
<text text-anchor="start" x="574.5" y="-255.2" font-family="Helvetica,sans-Serif" font-size="11.00">33 &gt;</text>
</a>
</g>
</g>
<!-- edition -->
<g id="node2" class="node">
<title>edition</title>
<g id="a_node2"><a xlink:href="../../tables/edition.html" xlink:title="edition" target="_top">
<polygon fill="#ffffff" stroke="transparent" points="190.5,-249 190.5,-307 316.5,-307 316.5,-249 190.5,-249"/>
<polygon fill="#f5f5f5" stroke="transparent" points="190.5,-285 190.5,-307 316.5,-307 316.5,-285 190.5,-285"/>
<polygon fill="none" stroke="black" points="190.5,-285 190.5,-307 316.5,-307 316.5,-285 190.5,-285"/>
<text text-anchor="start" x="195.5" y="-294.2" font-family="Helvetica,sans-Serif" font-weight="bold" font-size="11.00">edition</text>
<text text-anchor="start" x="274.5" y="-293.2" font-family="Helvetica,sans-Serif" font-size="11.00">[table]</text>
<polygon fill="none" stroke="black" points="190.5,-267 190.5,-285 316.5,-285 316.5,-267 190.5,-267"/>
<text text-anchor="start" x="193.5" y="-273.2" font-family="Helvetica,sans-Serif" font-size="11.00">...</text>
<polygon fill="#ffffff" stroke="transparent" points="190.5,-249 190.5,-267 216.5,-267 216.5,-249 190.5,-249"/>
<polygon fill="none" stroke="black" points="190.5,-249 190.5,-267 216.5,-267 216.5,-249 190.5,-249"/>
<text text-anchor="start" x="193.5" y="-255.2" font-family="Helvetica,sans-Serif" font-size="11.00">&lt; 1</text>
<polygon fill="#ffffff" stroke="transparent" points="216.5,-249 216.5,-267 283.5,-267 283.5,-249 216.5,-249"/>
<polygon fill="none" stroke="black" points="216.5,-249 216.5,-267 283.5,-267 283.5,-249 216.5,-249"/>
<text text-anchor="start" x="219.5" y="-255.2" font-family="Helvetica,sans-Serif" font-size="11.00">1,645 rows</text>
<polygon fill="#ffffff" stroke="transparent" points="283.5,-249 283.5,-267 316.5,-267 316.5,-249 283.5,-249"/>
<polygon fill="none" stroke="black" points="283.5,-249 283.5,-267 316.5,-267 316.5,-249 283.5,-249"/>
<text text-anchor="start" x="286.5" y="-255.2" font-family="Helvetica,sans-Serif" font-size="11.00">35 &gt;</text>
</a>
</g>
</g>
<!-- edition_editor&#45;&gt;edition -->
<g id="edge1" class="edge">
<title>edition_editor:w&#45;&gt;edition:e</title>
<path fill="none" stroke="black" d="M453.09,-276C398,-276 379.09,-276 317.5,-276"/>
<polygon fill="black" stroke="black" points="459.5,-276 467.5,-279.6 463.5,-276 467.5,-276 467.5,-276 467.5,-276 463.5,-276 467.5,-272.4 459.5,-276 459.5,-276"/>
<ellipse fill="none" stroke="black" cx="456.3" cy="-276" rx="3.2" ry="3.2"/>
</g>
<!-- manuscript_metrics -->
<g id="node3" class="node">
<title>manuscript_metrics</title>
<g id="a_node3"><a xlink:href="../../tables/manuscript_metrics.html" xlink:title="manuscript_metrics" target="_top">
<polygon fill="#ffffff" stroke="transparent" points="450.5,-116 450.5,-174 622.5,-174 622.5,-116 450.5,-116"/>
<polygon fill="#f5f5f5" stroke="transparent" points="450.5,-152 450.5,-174 622.5,-174 622.5,-152 450.5,-152"/>
<polygon fill="none" stroke="black" points="450.5,-152 450.5,-174 622.5,-174 622.5,-152 450.5,-152"/>
<text text-anchor="start" x="455.5" y="-161.2" font-family="Helvetica,sans-Serif" font-weight="bold" font-size="11.00">manuscript_metrics</text>
<text text-anchor="start" x="580.5" y="-160.2" font-family="Helvetica,sans-Serif" font-size="11.00">[table]</text>
<polygon fill="none" stroke="black" points="450.5,-134 450.5,-152 622.5,-152 622.5,-134 450.5,-134"/>
<text text-anchor="start" x="453.5" y="-140.2" font-family="Helvetica,sans-Serif" font-size="11.00">...</text>
<polygon fill="#ffffff" stroke="transparent" points="450.5,-116 450.5,-134 502.5,-134 502.5,-116 450.5,-116"/>
<polygon fill="none" stroke="black" points="450.5,-116 450.5,-134 502.5,-134 502.5,-116 450.5,-116"/>
<text text-anchor="start" x="453.5" y="-122.2" font-family="Helvetica,sans-Serif" font-size="11.00">&lt; 2</text>
<polygon fill="#ffffff" stroke="transparent" points="502.5,-116 502.5,-134 582.5,-134 582.5,-116 502.5,-116"/>
<polygon fill="none" stroke="black" points="502.5,-116 502.5,-134 582.5,-134 582.5,-116 502.5,-116"/>
<text text-anchor="start" x="518.5" y="-122.2" font-family="Helvetica,sans-Serif" font-size="11.00">1,371 rows</text>
<polygon fill="#ffffff" stroke="transparent" points="582.5,-116 582.5,-134 622.5,-134 622.5,-116 582.5,-116"/>
<polygon fill="none" stroke="black" points="582.5,-116 582.5,-134 622.5,-134 622.5,-116 582.5,-116"/>
<text text-anchor="start" x="599.5" y="-122.2" font-family="Helvetica,sans-Serif" font-size="11.00">1 &gt;</text>
</a>
</g>
</g>
<!-- scribal_font -->
<g id="node4" class="node">
<title>scribal_font</title>
<g id="a_node4"><a xlink:href="../../tables/scribal_font.html" xlink:title="scribal_font" target="_top">
<polygon fill="#ffffff" stroke="transparent" points="158,-100 158,-202 349,-202 349,-100 158,-100"/>
<polygon fill="#f5f5f5" stroke="transparent" points="158.5,-180 158.5,-202 349.5,-202 349.5,-180 158.5,-180"/>
<polygon fill="none" stroke="black" points="158.5,-180 158.5,-202 349.5,-202 349.5,-180 158.5,-180"/>
<text text-anchor="start" x="163.5" y="-189.2" font-family="Helvetica,sans-Serif" font-weight="bold" font-size="11.00">scribal_font</text>
<text text-anchor="start" x="307.5" y="-188.2" font-family="Helvetica,sans-Serif" font-size="11.00">[table]</text>
<polygon fill="none" stroke="black" points="158.5,-158 158.5,-180 349.5,-180 349.5,-158 158.5,-158"/>
<image xlink:href="../../images/primaryKeys.png" width="11px" height="12px" preserveAspectRatio="xMinYMin meet" x="163.5" y="-175"/>
<text text-anchor="start" x="178.5" y="-166.2" font-family="Helvetica,sans-Serif" font-size="11.00">scribal_font_id</text>
<polygon fill="none" stroke="black" points="158.5,-136 158.5,-158 349.5,-158 349.5,-136 158.5,-136"/>
<image xlink:href="../../images/foreignKeys.png" width="11px" height="12px" preserveAspectRatio="xMinYMin meet" x="163.5" y="-153"/>
<text text-anchor="start" x="178.5" y="-144.2" font-family="Helvetica,sans-Serif" font-size="11.00">font_file_id</text>
<polygon fill="none" stroke="black" points="158.5,-118 158.5,-136 349.5,-136 349.5,-118 158.5,-118"/>
<text text-anchor="start" x="161.5" y="-124.2" font-family="Helvetica,sans-Serif" font-size="11.00">...</text>
<polygon fill="#ffffff" stroke="transparent" points="158.5,-100 158.5,-118 232.5,-118 232.5,-100 158.5,-100"/>
<polygon fill="none" stroke="black" points="158.5,-100 158.5,-118 232.5,-118 232.5,-100 158.5,-100"/>
<text text-anchor="start" x="161.5" y="-106.2" font-family="Helvetica,sans-Serif" font-size="11.00">&lt; 1</text>
<polygon fill="#ffffff" stroke="transparent" points="232.5,-100 232.5,-118 299.5,-118 299.5,-100 232.5,-100"/>
<polygon fill="none" stroke="black" points="232.5,-100 232.5,-118 299.5,-118 299.5,-100 232.5,-100"/>
<text text-anchor="start" x="259.5" y="-106.2" font-family="Helvetica,sans-Serif" font-size="11.00">0 rows</text>
<polygon fill="#ffffff" stroke="transparent" points="299.5,-100 299.5,-118 349.5,-118 349.5,-100 299.5,-100"/>
<polygon fill="none" stroke="black" points="299.5,-100 299.5,-118 349.5,-118 349.5,-100 299.5,-100"/>
<text text-anchor="start" x="326.5" y="-106.2" font-family="Helvetica,sans-Serif" font-size="11.00">4 &gt;</text>
</a>
</g>
</g>
<!-- manuscript_metrics&#45;&gt;scribal_font -->
<g id="edge2" class="edge">
<title>manuscript_metrics:w&#45;&gt;scribal_font:e</title>
<path fill="none" stroke="black" d="M434.93,-143.99C401.61,-148.74 390.66,-169 350.5,-169"/>
<polygon fill="black" stroke="black" points="441.52,-143.54 449.74,-146.59 445.51,-143.27 449.5,-143 449.5,-143 449.5,-143 445.51,-143.27 449.26,-139.41 441.52,-143.54 441.52,-143.54"/>
<ellipse fill="none" stroke="black" cx="438.33" cy="-143.76" rx="3.2" ry="3.2"/>
</g>
<!-- font_file -->
<g id="node5" class="node">
<title>font_file</title>
<g id="a_node5"><a xlink:href="../../tables/font_file.html" xlink:title="font_file" target="_top">
<polygon fill="#ffffff" stroke="transparent" points="8,-120 8,-178 109,-178 109,-120 8,-120"/>
<polygon fill="#f5f5f5" stroke="transparent" points="8.5,-156 8.5,-178 109.5,-178 109.5,-156 8.5,-156"/>
<polygon fill="none" stroke="black" points="8.5,-156 8.5,-178 109.5,-178 109.5,-156 8.5,-156"/>
<text text-anchor="start" x="13.5" y="-165.2" font-family="Helvetica,sans-Serif" font-weight="bold" font-size="11.00">font_file</text>
<text text-anchor="start" x="67.5" y="-164.2" font-family="Helvetica,sans-Serif" font-size="11.00">[table]</text>
<polygon fill="none" stroke="black" points="8.5,-138 8.5,-156 109.5,-156 109.5,-138 8.5,-138"/>
<text text-anchor="start" x="11.5" y="-144.2" font-family="Helvetica,sans-Serif" font-size="11.00">...</text>
<polygon fill="#ffffff" stroke="transparent" points="8.5,-120 8.5,-138 31.5,-138 31.5,-120 8.5,-120"/>
<polygon fill="none" stroke="black" points="8.5,-120 8.5,-138 31.5,-138 31.5,-120 8.5,-120"/>
<text text-anchor="start" x="11.5" y="-126.2" font-family="Helvetica,sans-Serif" font-size="11.00"> &#160;</text>
<polygon fill="#ffffff" stroke="transparent" points="31.5,-120 31.5,-138 78.5,-138 78.5,-120 31.5,-120"/>
<polygon fill="none" stroke="black" points="31.5,-120 31.5,-138 78.5,-138 78.5,-120 31.5,-120"/>
<text text-anchor="start" x="38.5" y="-126.2" font-family="Helvetica,sans-Serif" font-size="11.00">0 rows</text>
<polygon fill="#ffffff" stroke="transparent" points="78.5,-120 78.5,-138 109.5,-138 109.5,-120 78.5,-120"/>
<polygon fill="none" stroke="black" points="78.5,-120 78.5,-138 109.5,-138 109.5,-120 78.5,-120"/>
<text text-anchor="start" x="86.5" y="-126.2" font-family="Helvetica,sans-Serif" font-size="11.00">2 &gt;</text>
</a>
</g>
</g>
<!-- scribal_font&#45;&gt;font_file -->
<g id="edge3" class="edge">
<title>scribal_font:w&#45;&gt;font_file:e</title>
<path fill="none" stroke="black" stroke-dasharray="5,2" d="M142.9,-147C132.43,-147 125.51,-147 110.5,-147"/>
<polygon fill="black" stroke="black" points="149.5,-147 157.5,-150.6 153.5,-147 157.5,-147 157.5,-147 157.5,-147 153.5,-147 157.5,-143.4 149.5,-147 149.5,-147"/>
<ellipse fill="none" stroke="black" cx="146.3" cy="-147" rx="3.2" ry="3.2"/>
</g>
<!-- scribal_font_glyph_metrics -->
<g id="node6" class="node">
<title>scribal_font_glyph_metrics</title>
<g id="a_node6"><a xlink:href="../../tables/scribal_font_glyph_metrics.html" xlink:title="scribal_font_glyph_metrics" target="_top">
<polygon fill="#ffffff" stroke="transparent" points="429.5,-37 429.5,-95 643.5,-95 643.5,-37 429.5,-37"/>
<polygon fill="#f5f5f5" stroke="transparent" points="429.5,-73 429.5,-95 643.5,-95 643.5,-73 429.5,-73"/>
<polygon fill="none" stroke="black" points="429.5,-73 429.5,-95 643.5,-95 643.5,-73 429.5,-73"/>
<text text-anchor="start" x="434.5" y="-82.2" font-family="Helvetica,sans-Serif" font-weight="bold" font-size="11.00">scribal_font_glyph_metrics</text>
<text text-anchor="start" x="601.5" y="-81.2" font-family="Helvetica,sans-Serif" font-size="11.00">[table]</text>
<polygon fill="none" stroke="black" points="429.5,-55 429.5,-73 643.5,-73 643.5,-55 429.5,-55"/>
<text text-anchor="start" x="432.5" y="-61.2" font-family="Helvetica,sans-Serif" font-size="11.00">...</text>
<polygon fill="#ffffff" stroke="transparent" points="429.5,-37 429.5,-55 514.5,-55 514.5,-37 429.5,-37"/>
<polygon fill="none" stroke="black" points="429.5,-37 429.5,-55 514.5,-55 514.5,-37 429.5,-37"/>
<text text-anchor="start" x="432.5" y="-43.2" font-family="Helvetica,sans-Serif" font-size="11.00">&lt; 1</text>
<polygon fill="#ffffff" stroke="transparent" points="514.5,-37 514.5,-55 587.5,-55 587.5,-37 514.5,-37"/>
<polygon fill="none" stroke="black" points="514.5,-37 514.5,-55 587.5,-55 587.5,-37 514.5,-37"/>
<text text-anchor="start" x="547.5" y="-43.2" font-family="Helvetica,sans-Serif" font-size="11.00">0 rows</text>
<polygon fill="#ffffff" stroke="transparent" points="587.5,-37 587.5,-55 643.5,-55 643.5,-37 587.5,-37"/>
<polygon fill="none" stroke="black" points="587.5,-37 587.5,-55 643.5,-55 643.5,-37 587.5,-37"/>
<text text-anchor="start" x="620.5" y="-43.2" font-family="Helvetica,sans-Serif" font-size="11.00">1 &gt;</text>
</a>
</g>
</g>
<!-- scribal_font_glyph_metrics&#45;&gt;scribal_font -->
<g id="edge4" class="edge">
<title>scribal_font_glyph_metrics:w&#45;&gt;scribal_font:e</title>
<path fill="none" stroke="black" d="M414.42,-67.4C403.33,-74.17 401.52,-89.96 390,-105 369.68,-131.54 383.93,-169 350.5,-169"/>
<polygon fill="black" stroke="black" points="420.72,-65.88 429.35,-67.5 424.61,-64.94 428.5,-64 428.5,-64 428.5,-64 424.61,-64.94 427.65,-60.5 420.72,-65.88 420.72,-65.88"/>
<ellipse fill="none" stroke="black" cx="417.61" cy="-66.63" rx="3.2" ry="3.2"/>
</g>
<!-- scribal_font_kerning -->
<g id="node7" class="node">
<title>scribal_font_kerning</title>
<g id="a_node7"><a xlink:href="../../tables/scribal_font_kerning.html" xlink:title="scribal_font_kerning" target="_top">
<polygon fill="#ffffff" stroke="transparent" points="398,-328 398,-504 675,-504 675,-328 398,-328"/>
<polygon fill="#f5f5f5" stroke="transparent" points="400.5,-480 400.5,-502 673.5,-502 673.5,-480 400.5,-480"/>
<polygon fill="none" stroke="black" points="400.5,-480 400.5,-502 673.5,-502 673.5,-480 400.5,-480"/>
<text text-anchor="start" x="405.5" y="-489.2" font-family="Helvetica,sans-Serif" font-weight="bold" font-size="11.00">scribal_font_kerning</text>
<text text-anchor="start" x="631.5" y="-488.2" font-family="Helvetica,sans-Serif" font-size="11.00">[table]</text>
<polygon fill="none" stroke="black" points="400.5,-458 400.5,-480 576.5,-480 576.5,-458 400.5,-458"/>
<image xlink:href="../../images/primaryKeys.png" width="11px" height="12px" preserveAspectRatio="xMinYMin meet" x="405.5" y="-475"/>
<text text-anchor="start" x="420.5" y="-466.2" font-family="Helvetica,sans-Serif" font-size="11.00">scribal_font_kerning_id</text>
<polygon fill="none" stroke="black" points="576.5,-458 576.5,-480 673.5,-480 673.5,-458 576.5,-458"/>
<text text-anchor="start" x="579.5" y="-466.2" font-family="Helvetica,sans-Serif" font-size="11.00">int unsigned[10]</text>
<polygon fill="#ffffff" stroke="transparent" points="400.5,-436 400.5,-458 576.5,-458 576.5,-436 400.5,-436"/>
<polygon fill="none" stroke="black" points="400.5,-436 400.5,-458 576.5,-458 576.5,-436 400.5,-436"/>
<image xlink:href="../../images/foreignKeys.png" width="11px" height="12px" preserveAspectRatio="xMinYMin meet" x="405.5" y="-453"/>
<text text-anchor="start" x="420.5" y="-444.2" font-family="Helvetica,sans-Serif" font-size="11.00">scribal_font_id</text>
<polygon fill="none" stroke="black" points="576.5,-436 576.5,-458 673.5,-458 673.5,-436 576.5,-436"/>
<text text-anchor="start" x="579.5" y="-444.2" font-family="Helvetica,sans-Serif" font-size="11.00">int unsigned[10]</text>
<polygon fill="#ffffff" stroke="transparent" points="400.5,-414 400.5,-436 576.5,-436 576.5,-414 400.5,-414"/>
<polygon fill="none" stroke="black" points="400.5,-414 400.5,-436 576.5,-436 576.5,-414 400.5,-414"/>
<text text-anchor="start" x="420.5" y="-422.2" font-family="Helvetica,sans-Serif" font-size="11.00">first_unicode_char</text>
<polygon fill="none" stroke="black" points="576.5,-414 576.5,-436 673.5,-436 673.5,-414 576.5,-414"/>
<text text-anchor="start" x="579.5" y="-422.2" font-family="Helvetica,sans-Serif" font-size="11.00">varbinary[4]</text>
<polygon fill="#ffffff" stroke="transparent" points="400.5,-392 400.5,-414 576.5,-414 576.5,-392 400.5,-392"/>
<polygon fill="none" stroke="black" points="400.5,-392 400.5,-414 576.5,-414 576.5,-392 400.5,-392"/>
<text text-anchor="start" x="420.5" y="-400.2" font-family="Helvetica,sans-Serif" font-size="11.00">second_unicode_char</text>
<polygon fill="none" stroke="black" points="576.5,-392 576.5,-414 673.5,-414 673.5,-392 576.5,-392"/>
<text text-anchor="start" x="579.5" y="-400.2" font-family="Helvetica,sans-Serif" font-size="11.00">varbinary[4]</text>
<polygon fill="none" stroke="black" points="400.5,-370 400.5,-392 576.5,-392 576.5,-370 400.5,-370"/>
<text text-anchor="start" x="420.5" y="-378.2" font-family="Helvetica,sans-Serif" font-size="11.00">kerning_x</text>
<polygon fill="none" stroke="black" points="576.5,-370 576.5,-392 673.5,-392 673.5,-370 576.5,-370"/>
<text text-anchor="start" x="579.5" y="-378.2" font-family="Helvetica,sans-Serif" font-size="11.00">smallint[5]</text>
<polygon fill="none" stroke="black" points="400.5,-348 400.5,-370 576.5,-370 576.5,-348 400.5,-348"/>
<text text-anchor="start" x="420.5" y="-356.2" font-family="Helvetica,sans-Serif" font-size="11.00">kerning_y</text>
<polygon fill="none" stroke="black" points="576.5,-348 576.5,-370 673.5,-370 673.5,-348 576.5,-348"/>
<text text-anchor="start" x="579.5" y="-356.2" font-family="Helvetica,sans-Serif" font-size="11.00">smallint[5]</text>
<polygon fill="#ffffff" stroke="transparent" points="400.5,-330 400.5,-348 479.5,-348 479.5,-330 400.5,-330"/>
<polygon fill="none" stroke="black" points="400.5,-330 400.5,-348 479.5,-348 479.5,-330 400.5,-330"/>
<text text-anchor="start" x="403.5" y="-336.2" font-family="Helvetica,sans-Serif" font-size="11.00">&lt; 1</text>
<polygon fill="#ffffff" stroke="transparent" points="479.5,-330 479.5,-348 576.5,-348 576.5,-330 479.5,-330"/>
<polygon fill="none" stroke="black" points="479.5,-330 479.5,-348 576.5,-348 576.5,-330 479.5,-330"/>
<text text-anchor="start" x="536.5" y="-336.2" font-family="Helvetica,sans-Serif" font-size="11.00">0 rows</text>
<polygon fill="#ffffff" stroke="transparent" points="576.5,-330 576.5,-348 673.5,-348 673.5,-330 576.5,-330"/>
<polygon fill="none" stroke="black" points="576.5,-330 576.5,-348 673.5,-348 673.5,-330 576.5,-330"/>
<text text-anchor="start" x="650.5" y="-336.2" font-family="Helvetica,sans-Serif" font-size="11.00">1 &gt;</text>
<polygon fill="none" stroke="black" stroke-width="2" points="399,-329 399,-503 674,-503 674,-329 399,-329"/>
</a>
</g>
</g>
<!-- scribal_font_kerning&#45;&gt;scribal_font -->
<g id="edge5" class="edge">
<title>scribal_font_kerning:w&#45;&gt;scribal_font:e</title>
<path fill="none" stroke="black" d="M386.23,-441.19C348.88,-401.27 407.84,-169 350.5,-169"/>
<polygon fill="black" stroke="black" points="392.17,-443.79 398.06,-450.3 395.84,-445.4 399.5,-447 399.5,-447 399.5,-447 395.84,-445.4 400.94,-443.7 392.17,-443.79 392.17,-443.79"/>
<ellipse fill="none" stroke="black" cx="389.24" cy="-442.51" rx="3.2" ry="3.2"/>
</g>
<!-- scribal_font_kerning_owner -->
<g id="node8" class="node">
<title>scribal_font_kerning_owner</title>
<g id="a_node8"><a xlink:href="../../tables/scribal_font_kerning_owner.html" xlink:title="scribal_font_kerning_owner" target="_top">
<polygon fill="#ffffff" stroke="transparent" points="724,-396 724,-502 941,-502 941,-396 724,-396"/>
<polygon fill="#f5f5f5" stroke="transparent" points="724.5,-480 724.5,-502 941.5,-502 941.5,-480 724.5,-480"/>
<polygon fill="none" stroke="black" points="724.5,-480 724.5,-502 941.5,-502 941.5,-480 724.5,-480"/>
<text text-anchor="start" x="729.5" y="-489.2" font-family="Helvetica,sans-Serif" font-weight="bold" font-size="11.00">scribal_font_kerning_owner</text>
<text text-anchor="start" x="899.5" y="-488.2" font-family="Helvetica,sans-Serif" font-size="11.00">[table]</text>
<polygon fill="none" stroke="black" points="724.5,-458 724.5,-480 941.5,-480 941.5,-458 724.5,-458"/>
<image xlink:href="../../images/primaryKeys.png" width="11px" height="12px" preserveAspectRatio="xMinYMin meet" x="729.5" y="-475"/>
<text text-anchor="start" x="750.5" y="-466.2" font-family="Helvetica,sans-Serif" font-size="11.00">scribal_font_kerning_id</text>
<polygon fill="#ffffff" stroke="transparent" points="724.5,-436 724.5,-458 941.5,-458 941.5,-436 724.5,-436"/>
<polygon fill="none" stroke="black" points="724.5,-436 724.5,-458 941.5,-458 941.5,-436 724.5,-436"/>
<image xlink:href="../../images/foreignKeys.png" width="11px" height="12px" preserveAspectRatio="xMinYMin meet" x="729.5" y="-453"/>
<text text-anchor="start" x="750.5" y="-444.2" font-family="Helvetica,sans-Serif" font-size="11.00">edition_editor_id</text>
<polygon fill="none" stroke="black" points="724.5,-414 724.5,-436 941.5,-436 941.5,-414 724.5,-414"/>
<image xlink:href="../../images/primaryKeys.png" width="11px" height="12px" preserveAspectRatio="xMinYMin meet" x="729.5" y="-431"/>
<text text-anchor="start" x="750.5" y="-422.2" font-family="Helvetica,sans-Serif" font-size="11.00">edition_id</text>
<polygon fill="#ffffff" stroke="transparent" points="724.5,-396 724.5,-414 817.5,-414 817.5,-396 724.5,-396"/>
<polygon fill="none" stroke="black" points="724.5,-396 724.5,-414 817.5,-414 817.5,-396 724.5,-396"/>
<text text-anchor="start" x="727.5" y="-402.2" font-family="Helvetica,sans-Serif" font-size="11.00">&lt; 3</text>
<polygon fill="#ffffff" stroke="transparent" points="817.5,-396 817.5,-414 893.5,-414 893.5,-396 817.5,-396"/>
<polygon fill="none" stroke="black" points="817.5,-396 817.5,-414 893.5,-414 893.5,-396 817.5,-396"/>
<text text-anchor="start" x="853.5" y="-402.2" font-family="Helvetica,sans-Serif" font-size="11.00">0 rows</text>
<polygon fill="#ffffff" stroke="transparent" points="893.5,-396 893.5,-414 941.5,-414 941.5,-396 893.5,-396"/>
<polygon fill="none" stroke="black" points="893.5,-396 893.5,-414 941.5,-414 941.5,-396 893.5,-396"/>
<text text-anchor="start" x="930.5" y="-402.2" font-family="Helvetica,sans-Serif" font-size="11.00"> &#160;</text>
</a>
</g>
</g>
<!-- scribal_font_kerning_owner&#45;&gt;edition_editor -->
<g id="edge6" class="edge">
<title>scribal_font_kerning_owner:w&#45;&gt;edition_editor:e</title>
<path fill="none" stroke="black" d="M709.07,-444.75C673.78,-431.21 717.48,-359.85 683,-318 658.09,-287.76 644.68,-276 605.5,-276"/>
<polygon fill="black" stroke="black" points="715.6,-445.77 722.94,-450.56 719.55,-446.38 723.5,-447 723.5,-447 723.5,-447 719.55,-446.38 724.06,-443.44 715.6,-445.77 715.6,-445.77"/>
<ellipse fill="none" stroke="black" cx="712.43" cy="-445.27" rx="3.2" ry="3.2"/>
</g>
<!-- scribal_font_kerning_owner&#45;&gt;edition -->
<g id="edge7" class="edge">
<title>scribal_font_kerning_owner:w&#45;&gt;edition:e</title>
<path fill="none" stroke="black" d="M709.53,-428.62C689.42,-442.78 714.65,-494.53 683,-515 573.65,-585.71 494.6,-592.57 390,-515 300.84,-448.88 428.5,-276 317.5,-276"/>
<polygon fill="black" stroke="black" points="715.76,-427.01 724.4,-428.48 719.63,-426 723.5,-425 723.5,-425 723.5,-425 719.63,-426 722.6,-421.52 715.76,-427.01 715.76,-427.01"/>
<ellipse fill="none" stroke="black" cx="712.66" cy="-427.81" rx="3.2" ry="3.2"/>
</g>
<!-- scribal_font_kerning_owner&#45;&gt;scribal_font_kerning -->
<g id="edge8" class="edge">
<title>scribal_font_kerning_owner:w&#45;&gt;scribal_font_kerning:e</title>
<path fill="none" stroke="black" d="M708.99,-469C697.68,-469 690.49,-469 674.5,-469"/>
<polygon fill="black" stroke="black" points="715.5,-469 723.5,-472.6 719.5,-469 723.5,-469 723.5,-469 723.5,-469 719.5,-469 723.5,-465.4 715.5,-469 715.5,-469"/>
<ellipse fill="none" stroke="black" cx="712.3" cy="-469" rx="3.2" ry="3.2"/>
</g>
<!-- scribal_font_owner -->
<g id="node9" class="node">
<title>scribal_font_owner</title>
<g id="a_node9"><a xlink:href="../../tables/scribal_font_owner.html" xlink:title="scribal_font_owner" target="_top">
<polygon fill="#ffffff" stroke="transparent" points="749.5,-198 749.5,-256 915.5,-256 915.5,-198 749.5,-198"/>
<polygon fill="#f5f5f5" stroke="transparent" points="749.5,-234 749.5,-256 915.5,-256 915.5,-234 749.5,-234"/>
<polygon fill="none" stroke="black" points="749.5,-234 749.5,-256 915.5,-256 915.5,-234 749.5,-234"/>
<text text-anchor="start" x="754.5" y="-243.2" font-family="Helvetica,sans-Serif" font-weight="bold" font-size="11.00">scribal_font_owner</text>
<text text-anchor="start" x="873.5" y="-242.2" font-family="Helvetica,sans-Serif" font-size="11.00">[table]</text>
<polygon fill="none" stroke="black" points="749.5,-216 749.5,-234 915.5,-234 915.5,-216 749.5,-216"/>
<text text-anchor="start" x="752.5" y="-222.2" font-family="Helvetica,sans-Serif" font-size="11.00">...</text>
<polygon fill="#ffffff" stroke="transparent" points="749.5,-198 749.5,-216 816.5,-216 816.5,-198 749.5,-198"/>
<polygon fill="none" stroke="black" points="749.5,-198 749.5,-216 816.5,-216 816.5,-198 749.5,-198"/>
<text text-anchor="start" x="752.5" y="-204.2" font-family="Helvetica,sans-Serif" font-size="11.00">&lt; 3</text>
<polygon fill="#ffffff" stroke="transparent" points="816.5,-198 816.5,-216 880.5,-216 880.5,-198 816.5,-198"/>
<polygon fill="none" stroke="black" points="816.5,-198 816.5,-216 880.5,-216 880.5,-198 816.5,-198"/>
<text text-anchor="start" x="840.5" y="-204.2" font-family="Helvetica,sans-Serif" font-size="11.00">0 rows</text>
<polygon fill="#ffffff" stroke="transparent" points="880.5,-198 880.5,-216 915.5,-216 915.5,-198 880.5,-198"/>
<polygon fill="none" stroke="black" points="880.5,-198 880.5,-216 915.5,-216 915.5,-198 880.5,-198"/>
<text text-anchor="start" x="904.5" y="-204.2" font-family="Helvetica,sans-Serif" font-size="11.00"> &#160;</text>
</a>
</g>
</g>
<!-- scribal_font_owner&#45;&gt;edition_editor -->
<g id="edge9" class="edge">
<title>scribal_font_owner:w&#45;&gt;edition_editor:e</title>
<path fill="none" stroke="black" d="M734.06,-225.84C679.45,-232.47 667.84,-276 605.5,-276"/>
<polygon fill="black" stroke="black" points="740.51,-225.47 748.71,-228.59 744.51,-225.23 748.5,-225 748.5,-225 748.5,-225 744.51,-225.23 748.29,-221.41 740.51,-225.47 740.51,-225.47"/>
<ellipse fill="none" stroke="black" cx="737.32" cy="-225.65" rx="3.2" ry="3.2"/>
</g>
<!-- scribal_font_owner&#45;&gt;edition -->
<g id="edge10" class="edge">
<title>scribal_font_owner:w&#45;&gt;edition:e</title>
<path fill="none" stroke="black" d="M733.88,-224.92C586.15,-223.32 539.28,-198.37 390,-238 354.84,-247.34 353.88,-276 317.5,-276"/>
<polygon fill="black" stroke="black" points="740.5,-224.96 748.48,-228.6 744.5,-224.98 748.5,-225 748.5,-225 748.5,-225 744.5,-224.98 748.52,-221.4 740.5,-224.96 740.5,-224.96"/>
<ellipse fill="none" stroke="black" cx="737.3" cy="-224.94" rx="3.2" ry="3.2"/>
</g>
<!-- scribal_font_owner&#45;&gt;scribal_font -->
<g id="edge11" class="edge">
<title>scribal_font_owner:w&#45;&gt;scribal_font:e</title>
<path fill="none" stroke="black" d="M733.98,-224.25C715.63,-222.18 706.81,-216.35 683,-213 553.42,-194.75 517.39,-213.93 390,-184 371.72,-179.7 369.28,-169 350.5,-169"/>
<polygon fill="black" stroke="black" points="740.51,-224.59 748.31,-228.6 744.51,-224.79 748.5,-225 748.5,-225 748.5,-225 744.51,-224.79 748.69,-221.4 740.51,-224.59 740.51,-224.59"/>
<ellipse fill="none" stroke="black" cx="737.32" cy="-224.42" rx="3.2" ry="3.2"/>
</g>
</g>
</svg>
