<?xml version="1.0" encoding="UTF-8" standalone="no"?>
<!DOCTYPE svg PUBLIC "-//W3C//DTD SVG 1.1//EN"
 "http://www.w3.org/Graphics/SVG/1.1/DTD/svg11.dtd">
<!-- Generated by graphviz version 2.43.0 (0)
 -->
<!-- Title: twoDegreesRelationshipsDiagramImplied Pages: 1 -->
<svg width="1094pt" height="900pt"
 viewBox="0.00 0.00 1094.00 900.00" xmlns="http://www.w3.org/2000/svg" xmlns:xlink="http://www.w3.org/1999/xlink">
<g id="graph0" class="graph" transform="scale(1 1) rotate(0) translate(4 896)">
<title>twoDegreesRelationshipsDiagramImplied</title>
<polygon fill="#ffffff" stroke="transparent" points="-4,4 -4,-896 1090,-896 1090,4 -4,4"/>
<text text-anchor="middle" x="79.5" y="-7.2" font-family="Helvetica,sans-Serif" font-size="11.00">Generated by SchemaSpy</text>
<!-- edition -->
<g id="node1" class="node">
<title>edition</title>
<g id="a_node1"><a xlink:href="../../tables/edition.html" xlink:title="edition" target="_top">
<polygon fill="#ffffff" stroke="transparent" points="285,-640 285,-698 411,-698 411,-640 285,-640"/>
<polygon fill="#f5f5f5" stroke="transparent" points="285,-676 285,-698 411,-698 411,-676 285,-676"/>
<polygon fill="none" stroke="black" points="285,-676 285,-698 411,-698 411,-676 285,-676"/>
<text text-anchor="start" x="290" y="-685.2" font-family="Helvetica,sans-Serif" font-weight="bold" font-size="11.00">edition</text>
<text text-anchor="start" x="369" y="-684.2" font-family="Helvetica,sans-Serif" font-size="11.00">[table]</text>
<polygon fill="none" stroke="black" points="285,-658 285,-676 411,-676 411,-658 285,-658"/>
<text text-anchor="start" x="288" y="-664.2" font-family="Helvetica,sans-Serif" font-size="11.00">...</text>
<polygon fill="#ffffff" stroke="transparent" points="285,-640 285,-658 311,-658 311,-640 285,-640"/>
<polygon fill="none" stroke="black" points="285,-640 285,-658 311,-658 311,-640 285,-640"/>
<text text-anchor="start" x="288" y="-646.2" font-family="Helvetica,sans-Serif" font-size="11.00">&lt; 1</text>
<polygon fill="#ffffff" stroke="transparent" points="311,-640 311,-658 378,-658 378,-640 311,-640"/>
<polygon fill="none" stroke="black" points="311,-640 311,-658 378,-658 378,-640 311,-640"/>
<text text-anchor="start" x="314" y="-646.2" font-family="Helvetica,sans-Serif" font-size="11.00">1,645 rows</text>
<polygon fill="#ffffff" stroke="transparent" points="378,-640 378,-658 411,-658 411,-640 378,-640"/>
<polygon fill="none" stroke="black" points="378,-640 378,-658 411,-658 411,-640 378,-640"/>
<text text-anchor="start" x="381" y="-646.2" font-family="Helvetica,sans-Serif" font-size="11.00">35 &gt;</text>
</a>
</g>
</g>
<!-- manuscript -->
<g id="node2" class="node">
<title>manuscript</title>
<g id="a_node2"><a xlink:href="../../tables/manuscript.html" xlink:title="manuscript" target="_top">
<polygon fill="#ffffff" stroke="transparent" points="14.5,-588 14.5,-646 135.5,-646 135.5,-588 14.5,-588"/>
<polygon fill="#f5f5f5" stroke="transparent" points="15,-624 15,-646 136,-646 136,-624 15,-624"/>
<polygon fill="none" stroke="black" points="15,-624 15,-646 136,-646 136,-624 15,-624"/>
<text text-anchor="start" x="20" y="-633.2" font-family="Helvetica,sans-Serif" font-weight="bold" font-size="11.00">manuscript</text>
<text text-anchor="start" x="94" y="-632.2" font-family="Helvetica,sans-Serif" font-size="11.00">[table]</text>
<polygon fill="none" stroke="black" points="15,-606 15,-624 136,-624 136,-606 15,-606"/>
<text text-anchor="start" x="18" y="-612.2" font-family="Helvetica,sans-Serif" font-size="11.00">...</text>
<polygon fill="#ffffff" stroke="transparent" points="15,-588 15,-606 36,-606 36,-588 15,-588"/>
<polygon fill="none" stroke="black" points="15,-588 15,-606 36,-606 36,-588 15,-588"/>
<text text-anchor="start" x="18" y="-594.2" font-family="Helvetica,sans-Serif" font-size="11.00"> &#160;</text>
<polygon fill="#ffffff" stroke="transparent" points="36,-588 36,-606 106,-606 106,-588 36,-588"/>
<polygon fill="none" stroke="black" points="36,-588 36,-606 106,-606 106,-588 36,-588"/>
<text text-anchor="start" x="42" y="-594.2" font-family="Helvetica,sans-Serif" font-size="11.00">1,645 rows</text>
<polygon fill="#ffffff" stroke="transparent" points="106,-588 106,-606 136,-606 136,-588 106,-588"/>
<polygon fill="none" stroke="black" points="106,-588 106,-606 136,-606 136,-588 106,-588"/>
<text text-anchor="start" x="113" y="-594.2" font-family="Helvetica,sans-Serif" font-size="11.00">5 &gt;</text>
</a>
</g>
</g>
<!-- edition&#45;&gt;manuscript -->
<g id="edge1" class="edge">
<title>edition:w&#45;&gt;manuscript:e</title>
<path fill="none" stroke="black" d="M269.53,-666.18C213.12,-659.57 201.16,-615 137,-615"/>
<polygon fill="black" stroke="black" points="276.01,-666.55 283.8,-670.59 280.01,-666.77 284,-667 284,-667 284,-667 280.01,-666.77 284.2,-663.41 276.01,-666.55 276.01,-666.55"/>
<ellipse fill="none" stroke="black" cx="272.82" cy="-666.37" rx="3.2" ry="3.2"/>
</g>
<!-- edition_editor -->
<g id="node3" class="node">
<title>edition_editor</title>
<g id="a_node3"><a xlink:href="../../tables/edition_editor.html" xlink:title="edition_editor" target="_top">
<polygon fill="#ffffff" stroke="transparent" points="595,-640 595,-698 731,-698 731,-640 595,-640"/>
<polygon fill="#f5f5f5" stroke="transparent" points="595,-676 595,-698 731,-698 731,-676 595,-676"/>
<polygon fill="none" stroke="black" points="595,-676 595,-698 731,-698 731,-676 595,-676"/>
<text text-anchor="start" x="600" y="-685.2" font-family="Helvetica,sans-Serif" font-weight="bold" font-size="11.00">edition_editor</text>
<text text-anchor="start" x="689" y="-684.2" font-family="Helvetica,sans-Serif" font-size="11.00">[table]</text>
<polygon fill="none" stroke="black" points="595,-658 595,-676 731,-676 731,-658 595,-658"/>
<text text-anchor="start" x="598" y="-664.2" font-family="Helvetica,sans-Serif" font-size="11.00">...</text>
<polygon fill="#ffffff" stroke="transparent" points="595,-640 595,-658 626,-658 626,-640 595,-640"/>
<polygon fill="none" stroke="black" points="595,-640 595,-658 626,-658 626,-640 595,-640"/>
<text text-anchor="start" x="598" y="-646.2" font-family="Helvetica,sans-Serif" font-size="11.00">&lt; 2</text>
<polygon fill="#ffffff" stroke="transparent" points="626,-640 626,-658 695,-658 695,-640 626,-640"/>
<polygon fill="none" stroke="black" points="626,-640 626,-658 695,-658 695,-640 626,-640"/>
<text text-anchor="start" x="631" y="-646.2" font-family="Helvetica,sans-Serif" font-size="11.00">1,645 rows</text>
<polygon fill="#ffffff" stroke="transparent" points="695,-640 695,-658 731,-658 731,-640 695,-640"/>
<polygon fill="none" stroke="black" points="695,-640 695,-658 731,-658 731,-640 695,-640"/>
<text text-anchor="start" x="701" y="-646.2" font-family="Helvetica,sans-Serif" font-size="11.00">33 &gt;</text>
</a>
</g>
</g>
<!-- edition_editor&#45;&gt;edition -->
<g id="edge2" class="edge">
<title>edition_editor:w&#45;&gt;edition:e</title>
<path fill="none" stroke="black" d="M579.51,-667C510.35,-667 487.83,-667 412,-667"/>
<polygon fill="black" stroke="black" points="586,-667 594,-670.6 590,-667 594,-667 594,-667 594,-667 590,-667 594,-663.4 586,-667 586,-667"/>
<ellipse fill="none" stroke="black" cx="582.8" cy="-667" rx="3.2" ry="3.2"/>
</g>
<!-- font_file_owner -->
<g id="node4" class="node">
<title>font_file_owner</title>
<g id="a_node4"><a xlink:href="../../tables/font_file_owner.html" xlink:title="font_file_owner" target="_top">
<polygon fill="#ffffff" stroke="transparent" points="877,-830 877,-888 1022,-888 1022,-830 877,-830"/>
<polygon fill="#f5f5f5" stroke="transparent" points="877.5,-866 877.5,-888 1022.5,-888 1022.5,-866 877.5,-866"/>
<polygon fill="none" stroke="black" points="877.5,-866 877.5,-888 1022.5,-888 1022.5,-866 877.5,-866"/>
<text text-anchor="start" x="882.5" y="-875.2" font-family="Helvetica,sans-Serif" font-weight="bold" font-size="11.00">font_file_owner</text>
<text text-anchor="start" x="980.5" y="-874.2" font-family="Helvetica,sans-Serif" font-size="11.00">[table]</text>
<polygon fill="none" stroke="black" points="877.5,-848 877.5,-866 1022.5,-866 1022.5,-848 877.5,-848"/>
<text text-anchor="start" x="880.5" y="-854.2" font-family="Helvetica,sans-Serif" font-size="11.00">...</text>
<polygon fill="#ffffff" stroke="transparent" points="877.5,-830 877.5,-848 934.5,-848 934.5,-830 877.5,-830"/>
<polygon fill="none" stroke="black" points="877.5,-830 877.5,-848 934.5,-848 934.5,-830 877.5,-830"/>
<text text-anchor="start" x="880.5" y="-836.2" font-family="Helvetica,sans-Serif" font-size="11.00">&lt; 3</text>
<polygon fill="#ffffff" stroke="transparent" points="934.5,-830 934.5,-848 992.5,-848 992.5,-830 934.5,-830"/>
<polygon fill="none" stroke="black" points="934.5,-830 934.5,-848 992.5,-848 992.5,-830 934.5,-830"/>
<text text-anchor="start" x="952.5" y="-836.2" font-family="Helvetica,sans-Serif" font-size="11.00">0 rows</text>
<polygon fill="#ffffff" stroke="transparent" points="992.5,-830 992.5,-848 1022.5,-848 1022.5,-830 992.5,-830"/>
<polygon fill="none" stroke="black" points="992.5,-830 992.5,-848 1022.5,-848 1022.5,-830 992.5,-830"/>
<text text-anchor="start" x="1011.5" y="-836.2" font-family="Helvetica,sans-Serif" font-size="11.00"> &#160;</text>
</a>
</g>
</g>
<!-- font_file_owner&#45;&gt;edition -->
<g id="edge4" class="edge">
<title>font_file_owner:w&#45;&gt;edition:e</title>
<path fill="none" stroke="black" d="M861.99,-855.05C798.6,-844.41 560.99,-793.59 546,-786 474.95,-750.01 491.65,-667 412,-667"/>
<polygon fill="black" stroke="black" points="868.57,-855.93 876.02,-860.57 872.54,-856.47 876.5,-857 876.5,-857 876.5,-857 872.54,-856.47 876.98,-853.43 868.57,-855.93 868.57,-855.93"/>
<ellipse fill="none" stroke="black" cx="865.4" cy="-855.51" rx="3.2" ry="3.2"/>
</g>
<!-- font_file_owner&#45;&gt;edition_editor -->
<g id="edge3" class="edge">
<title>font_file_owner:w&#45;&gt;edition_editor:e</title>
<path fill="none" stroke="black" d="M861.93,-855.88C840.67,-852.2 831.82,-839.6 813,-820 759.71,-764.5 808.94,-667 732,-667"/>
<polygon fill="black" stroke="black" points="868.52,-856.39 876.22,-860.59 872.51,-856.69 876.5,-857 876.5,-857 876.5,-857 872.51,-856.69 876.78,-853.41 868.52,-856.39 868.52,-856.39"/>
<ellipse fill="none" stroke="black" cx="865.33" cy="-856.14" rx="3.2" ry="3.2"/>
</g>
<!-- font_file -->
<g id="node5" class="node">
<title>font_file</title>
<g id="a_node5"><a xlink:href="../../tables/font_file.html" xlink:title="font_file" target="_top">
<polygon fill="#ffffff" stroke="transparent" points="8,-402 8,-504 142,-504 142,-402 8,-402"/>
<polygon fill="#f5f5f5" stroke="transparent" points="8,-482 8,-504 142,-504 142,-482 8,-482"/>
<polygon fill="none" stroke="black" points="8,-482 8,-504 142,-504 142,-482 8,-482"/>
<text text-anchor="start" x="13" y="-491.2" font-family="Helvetica,sans-Serif" font-weight="bold" font-size="11.00">font_file</text>
<text text-anchor="start" x="100" y="-490.2" font-family="Helvetica,sans-Serif" font-size="11.00">[table]</text>
<polygon fill="none" stroke="black" points="8,-460 8,-482 142,-482 142,-460 8,-460"/>
<image xlink:href="../../images/primaryKeys.png" width="11px" height="12px" preserveAspectRatio="xMinYMin meet" x="13" y="-477"/>
<text text-anchor="start" x="28" y="-468.2" font-family="Helvetica,sans-Serif" font-size="11.00">font_file_id</text>
<polygon fill="#ffffff" stroke="transparent" points="8,-438 8,-460 142,-460 142,-438 8,-438"/>
<polygon fill="none" stroke="black" points="8,-438 8,-460 142,-460 142,-438 8,-438"/>
<text text-anchor="start" x="28" y="-446.2" font-family="Helvetica,sans-Serif" font-size="11.00">font_name</text>
<polygon fill="none" stroke="black" points="8,-420 8,-438 142,-438 142,-420 8,-420"/>
<text text-anchor="start" x="11" y="-426.2" font-family="Helvetica,sans-Serif" font-size="11.00">...</text>
<polygon fill="#ffffff" stroke="transparent" points="8,-402 8,-420 47,-420 47,-402 8,-402"/>
<polygon fill="none" stroke="black" points="8,-402 8,-420 47,-420 47,-402 8,-402"/>
<text text-anchor="start" x="11" y="-408.2" font-family="Helvetica,sans-Serif" font-size="11.00"> &#160;</text>
<polygon fill="#ffffff" stroke="transparent" points="47,-402 47,-420 103,-420 103,-402 47,-402"/>
<polygon fill="none" stroke="black" points="47,-402 47,-420 103,-420 103,-402 47,-402"/>
<text text-anchor="start" x="63" y="-408.2" font-family="Helvetica,sans-Serif" font-size="11.00">0 rows</text>
<polygon fill="#ffffff" stroke="transparent" points="103,-402 103,-420 142,-420 142,-402 103,-402"/>
<polygon fill="none" stroke="black" points="103,-402 103,-420 142,-420 142,-402 103,-402"/>
<text text-anchor="start" x="119" y="-408.2" font-family="Helvetica,sans-Serif" font-size="11.00">2 &gt;</text>
</a>
</g>
</g>
<!-- font_file_owner&#45;&gt;font_file -->
<g id="edge5" class="edge">
<title>font_file_owner:w&#45;&gt;font_file:e</title>
<path fill="none" stroke="black" d="M861.83,-857.06C555.98,-859.71 387.04,-942.7 183,-709 147.73,-668.6 196.63,-471 143,-471"/>
<polygon fill="black" stroke="black" points="868.5,-857.03 876.52,-860.6 872.5,-857.02 876.5,-857 876.5,-857 876.5,-857 872.5,-857.02 876.48,-853.4 868.5,-857.03 868.5,-857.03"/>
<ellipse fill="none" stroke="black" cx="865.3" cy="-857.05" rx="3.2" ry="3.2"/>
</g>
<!-- manuscript_metrics -->
<g id="node6" class="node">
<title>manuscript_metrics</title>
<g id="a_node6"><a xlink:href="../../tables/manuscript_metrics.html" xlink:title="manuscript_metrics" target="_top">
<polygon fill="#ffffff" stroke="transparent" points="577,-349 577,-565 749,-565 749,-349 577,-349"/>
<polygon fill="#f5f5f5" stroke="transparent" points="577,-543 577,-565 749,-565 749,-543 577,-543"/>
<polygon fill="none" stroke="black" points="577,-543 577,-565 749,-565 749,-543 577,-543"/>
<text text-anchor="start" x="582" y="-552.2" font-family="Helvetica,sans-Serif" font-weight="bold" font-size="11.00">manuscript_metrics</text>
<text text-anchor="start" x="707" y="-551.2" font-family="Helvetica,sans-Serif" font-size="11.00">[table]</text>
<polygon fill="none" stroke="black" points="577,-521 577,-543 749,-543 749,-521 577,-521"/>
<image xlink:href="../../images/primaryKeys.png" width="11px" height="12px" preserveAspectRatio="xMinYMin meet" x="582" y="-538"/>
<text text-anchor="start" x="597" y="-529.2" font-family="Helvetica,sans-Serif" font-size="11.00">manuscript_metrics_id</text>
<polygon fill="#ffffff" stroke="transparent" points="577,-499 577,-521 749,-521 749,-499 577,-499"/>
<polygon fill="none" stroke="black" points="577,-499 577,-521 749,-521 749,-499 577,-499"/>
<image xlink:href="../../images/foreignKeys.png" width="11px" height="12px" preserveAspectRatio="xMinYMin meet" x="582" y="-516"/>
<text text-anchor="start" x="597" y="-507.2" font-family="Helvetica,sans-Serif" font-size="11.00">manuscript_id</text>
<polygon fill="#ffffff" stroke="transparent" points="577,-477 577,-499 749,-499 749,-477 577,-477"/>
<polygon fill="none" stroke="black" points="577,-477 577,-499 749,-499 749,-477 577,-477"/>
<text text-anchor="start" x="597" y="-485.2" font-family="Helvetica,sans-Serif" font-size="11.00">x_origin</text>
<polygon fill="#ffffff" stroke="transparent" points="577,-455 577,-477 749,-477 749,-455 577,-455"/>
<polygon fill="none" stroke="black" points="577,-455 577,-477 749,-477 749,-455 577,-455"/>
<text text-anchor="start" x="597" y="-463.2" font-family="Helvetica,sans-Serif" font-size="11.00">y_origin</text>
<polygon fill="#ffffff" stroke="transparent" points="577,-433 577,-455 749,-455 749,-433 577,-433"/>
<polygon fill="none" stroke="black" points="577,-433 577,-455 749,-455 749,-433 577,-433"/>
<text text-anchor="start" x="597" y="-441.2" font-family="Helvetica,sans-Serif" font-size="11.00">width</text>
<polygon fill="#ffffff" stroke="transparent" points="577,-411 577,-433 749,-433 749,-411 577,-411"/>
<polygon fill="none" stroke="black" points="577,-411 577,-433 749,-433 749,-411 577,-411"/>
<text text-anchor="start" x="597" y="-419.2" font-family="Helvetica,sans-Serif" font-size="11.00">height</text>
<polygon fill="#ffffff" stroke="transparent" points="577,-389 577,-411 749,-411 749,-389 577,-389"/>
<polygon fill="none" stroke="black" points="577,-389 577,-411 749,-411 749,-389 577,-389"/>
<text text-anchor="start" x="597" y="-397.2" font-family="Helvetica,sans-Serif" font-size="11.00">pixels_per_inch</text>
<polygon fill="#ffffff" stroke="transparent" points="577,-367 577,-389 749,-389 749,-367 577,-367"/>
<polygon fill="none" stroke="black" points="577,-367 577,-389 749,-389 749,-367 577,-367"/>
<image xlink:href="../../images/foreignKeys.png" width="11px" height="12px" preserveAspectRatio="xMinYMin meet" x="582" y="-384"/>
<text text-anchor="start" x="597" y="-375.2" font-family="Helvetica,sans-Serif" font-size="11.00">scribal_font_id</text>
<polygon fill="#ffffff" stroke="transparent" points="577,-349 577,-367 629,-367 629,-349 577,-349"/>
<polygon fill="none" stroke="black" points="577,-349 577,-367 629,-367 629,-349 577,-349"/>
<text text-anchor="start" x="580" y="-355.2" font-family="Helvetica,sans-Serif" font-size="11.00">&lt; 2</text>
<polygon fill="#ffffff" stroke="transparent" points="629,-349 629,-367 709,-367 709,-349 629,-349"/>
<polygon fill="none" stroke="black" points="629,-349 629,-367 709,-367 709,-349 629,-349"/>
<text text-anchor="start" x="645" y="-355.2" font-family="Helvetica,sans-Serif" font-size="11.00">1,371 rows</text>
<polygon fill="#ffffff" stroke="transparent" points="709,-349 709,-367 749,-367 749,-349 709,-349"/>
<polygon fill="none" stroke="black" points="709,-349 709,-367 749,-367 749,-349 709,-349"/>
<text text-anchor="start" x="726" y="-355.2" font-family="Helvetica,sans-Serif" font-size="11.00">1 &gt;</text>
</a>
</g>
</g>
<!-- manuscript_metrics&#45;&gt;manuscript -->
<g id="edge6" class="edge">
<title>manuscript_metrics:w&#45;&gt;manuscript:e</title>
<path fill="none" stroke="black" d="M561.59,-510.18C373.44,-515.06 332.72,-615 137,-615"/>
<polygon fill="black" stroke="black" points="568,-510.1 576.05,-513.6 572,-510.05 576,-510 576,-510 576,-510 572,-510.05 575.95,-506.4 568,-510.1 568,-510.1"/>
<ellipse fill="none" stroke="black" cx="564.8" cy="-510.14" rx="3.2" ry="3.2"/>
</g>
<!-- scribal_font -->
<g id="node7" class="node">
<title>scribal_font</title>
<g id="a_node7"><a xlink:href="../../tables/scribal_font.html" xlink:title="scribal_font" target="_top">
<polygon fill="#ffffff" stroke="transparent" points="191,-281 191,-413 505,-413 505,-281 191,-281"/>
<polygon fill="#f5f5f5" stroke="transparent" points="193,-389 193,-411 503,-411 503,-389 193,-389"/>
<polygon fill="none" stroke="black" points="193,-389 193,-411 503,-411 503,-389 193,-389"/>
<text text-anchor="start" x="198" y="-398.2" font-family="Helvetica,sans-Serif" font-weight="bold" font-size="11.00">scribal_font</text>
<text text-anchor="start" x="461" y="-397.2" font-family="Helvetica,sans-Serif" font-size="11.00">[table]</text>
<polygon fill="none" stroke="black" points="193,-367 193,-389 384,-389 384,-367 193,-367"/>
<image xlink:href="../../images/primaryKeys.png" width="11px" height="12px" preserveAspectRatio="xMinYMin meet" x="198" y="-384"/>
<text text-anchor="start" x="213" y="-375.2" font-family="Helvetica,sans-Serif" font-size="11.00">scribal_font_id</text>
<polygon fill="none" stroke="black" points="384,-367 384,-389 503,-389 503,-367 384,-367"/>
<text text-anchor="start" x="387" y="-375.2" font-family="Helvetica,sans-Serif" font-size="11.00">int unsigned[10]</text>
<polygon fill="none" stroke="black" points="193,-345 193,-367 384,-367 384,-345 193,-345"/>
<image xlink:href="../../images/foreignKeys.png" width="11px" height="12px" preserveAspectRatio="xMinYMin meet" x="198" y="-362"/>
<text text-anchor="start" x="213" y="-353.2" font-family="Helvetica,sans-Serif" font-size="11.00">font_file_id</text>
<polygon fill="none" stroke="black" points="384,-345 384,-367 503,-367 503,-345 384,-345"/>
<text text-anchor="start" x="387" y="-353.2" font-family="Helvetica,sans-Serif" font-size="11.00">int unsigned[10]</text>
<polygon fill="none" stroke="black" points="193,-323 193,-345 384,-345 384,-323 193,-323"/>
<text text-anchor="start" x="213" y="-331.2" font-family="Helvetica,sans-Serif" font-size="11.00">default_word_space</text>
<polygon fill="none" stroke="black" points="384,-323 384,-345 503,-345 503,-323 384,-323"/>
<text text-anchor="start" x="387" y="-331.2" font-family="Helvetica,sans-Serif" font-size="11.00">smallint unsigned[5]</text>
<polygon fill="none" stroke="black" points="193,-301 193,-323 384,-323 384,-301 193,-301"/>
<text text-anchor="start" x="213" y="-309.2" font-family="Helvetica,sans-Serif" font-size="11.00">default_interlinear_space</text>
<polygon fill="none" stroke="black" points="384,-301 384,-323 503,-323 503,-301 384,-301"/>
<text text-anchor="start" x="387" y="-309.2" font-family="Helvetica,sans-Serif" font-size="11.00">smallint unsigned[5]</text>
<polygon fill="#ffffff" stroke="transparent" points="193,-283 193,-301 280,-301 280,-283 193,-283"/>
<polygon fill="none" stroke="black" points="193,-283 193,-301 280,-301 280,-283 193,-283"/>
<text text-anchor="start" x="196" y="-289.2" font-family="Helvetica,sans-Serif" font-size="11.00">&lt; 1</text>
<polygon fill="#ffffff" stroke="transparent" points="280,-283 280,-301 384,-301 384,-283 280,-283"/>
<polygon fill="none" stroke="black" points="280,-283 280,-301 384,-301 384,-283 280,-283"/>
<text text-anchor="start" x="344" y="-289.2" font-family="Helvetica,sans-Serif" font-size="11.00">0 rows</text>
<polygon fill="#ffffff" stroke="transparent" points="384,-283 384,-301 503,-301 503,-283 384,-283"/>
<polygon fill="none" stroke="black" points="384,-283 384,-301 503,-301 503,-283 384,-283"/>
<text text-anchor="start" x="480" y="-289.2" font-family="Helvetica,sans-Serif" font-size="11.00">4 &gt;</text>
<polygon fill="none" stroke="black" stroke-width="2" points="192,-282 192,-412 504,-412 504,-282 192,-282"/>
</a>
</g>
</g>
<!-- manuscript_metrics&#45;&gt;scribal_font -->
<g id="edge7" class="edge">
<title>manuscript_metrics:w&#45;&gt;scribal_font:e</title>
<path fill="none" stroke="black" d="M561.38,-378C540.54,-378 530.5,-378 504,-378"/>
<polygon fill="black" stroke="black" points="568,-378 576,-381.6 572,-378 576,-378 576,-378 576,-378 572,-378 576,-374.4 568,-378 568,-378"/>
<ellipse fill="none" stroke="black" cx="564.8" cy="-378" rx="3.2" ry="3.2"/>
</g>
<!-- scribal_font&#45;&gt;font_file -->
<g id="edge11" class="edge">
<title>scribal_font:w&#45;&gt;font_file:e</title>
<path fill="none" stroke="black" stroke-dasharray="5,2" d="M177.69,-359.83C148.62,-379.78 192.48,-471 143,-471"/>
<polygon fill="black" stroke="black" points="184.27,-358.07 192.93,-359.48 188.14,-357.03 192,-356 192,-356 192,-356 188.14,-357.03 191.07,-352.52 184.27,-358.07 184.27,-358.07"/>
<ellipse fill="none" stroke="black" cx="181.18" cy="-358.89" rx="3.2" ry="3.2"/>
</g>
<!-- manuscript_metrics_owner -->
<g id="node8" class="node">
<title>manuscript_metrics_owner</title>
<g id="a_node8"><a xlink:href="../../tables/manuscript_metrics_owner.html" xlink:title="manuscript_metrics_owner" target="_top">
<polygon fill="#ffffff" stroke="transparent" points="841.5,-624 841.5,-682 1057.5,-682 1057.5,-624 841.5,-624"/>
<polygon fill="#f5f5f5" stroke="transparent" points="841.5,-660 841.5,-682 1057.5,-682 1057.5,-660 841.5,-660"/>
<polygon fill="none" stroke="black" points="841.5,-660 841.5,-682 1057.5,-682 1057.5,-660 841.5,-660"/>
<text text-anchor="start" x="846.5" y="-669.2" font-family="Helvetica,sans-Serif" font-weight="bold" font-size="11.00">manuscript_metrics_owner</text>
<text text-anchor="start" x="1015.5" y="-668.2" font-family="Helvetica,sans-Serif" font-size="11.00">[table]</text>
<polygon fill="none" stroke="black" points="841.5,-642 841.5,-660 1057.5,-660 1057.5,-642 841.5,-642"/>
<text text-anchor="start" x="844.5" y="-648.2" font-family="Helvetica,sans-Serif" font-size="11.00">...</text>
<polygon fill="#ffffff" stroke="transparent" points="841.5,-624 841.5,-642 921.5,-642 921.5,-624 841.5,-624"/>
<polygon fill="none" stroke="black" points="841.5,-624 841.5,-642 921.5,-642 921.5,-624 841.5,-624"/>
<text text-anchor="start" x="844.5" y="-630.2" font-family="Helvetica,sans-Serif" font-size="11.00">&lt; 3</text>
<polygon fill="#ffffff" stroke="transparent" points="921.5,-624 921.5,-642 1015.5,-642 1015.5,-624 921.5,-624"/>
<polygon fill="none" stroke="black" points="921.5,-624 921.5,-642 1015.5,-642 1015.5,-624 921.5,-624"/>
<text text-anchor="start" x="951.5" y="-630.2" font-family="Helvetica,sans-Serif" font-size="11.00">1,371 rows</text>
<polygon fill="#ffffff" stroke="transparent" points="1015.5,-624 1015.5,-642 1057.5,-642 1057.5,-624 1015.5,-624"/>
<polygon fill="none" stroke="black" points="1015.5,-624 1015.5,-642 1057.5,-642 1057.5,-624 1015.5,-624"/>
<text text-anchor="start" x="1046.5" y="-630.2" font-family="Helvetica,sans-Serif" font-size="11.00"> &#160;</text>
</a>
</g>
</g>
<!-- manuscript_metrics_owner&#45;&gt;edition -->
<g id="edge9" class="edge">
<title>manuscript_metrics_owner:w&#45;&gt;edition:e</title>
<path fill="none" stroke="black" d="M826.24,-653.95C805.67,-664.05 809.16,-697.28 780,-709 683.5,-747.78 648.8,-724.73 546,-709 484.31,-699.56 474.41,-667 412,-667"/>
<polygon fill="black" stroke="black" points="832.67,-652.62 841.23,-654.53 836.58,-651.81 840.5,-651 840.5,-651 840.5,-651 836.58,-651.81 839.77,-647.47 832.67,-652.62 832.67,-652.62"/>
<ellipse fill="none" stroke="black" cx="829.53" cy="-653.27" rx="3.2" ry="3.2"/>
</g>
<!-- manuscript_metrics_owner&#45;&gt;edition_editor -->
<g id="edge8" class="edge">
<title>manuscript_metrics_owner:w&#45;&gt;edition_editor:e</title>
<path fill="none" stroke="black" d="M825.76,-651.53C788.9,-654.31 775.41,-667 732,-667"/>
<polygon fill="black" stroke="black" points="832.51,-651.29 840.63,-654.6 836.5,-651.14 840.5,-651 840.5,-651 840.5,-651 836.5,-651.14 840.37,-647.4 832.51,-651.29 832.51,-651.29"/>
<ellipse fill="none" stroke="black" cx="829.31" cy="-651.4" rx="3.2" ry="3.2"/>
</g>
<!-- manuscript_metrics_owner&#45;&gt;manuscript_metrics -->
<g id="edge10" class="edge">
<title>manuscript_metrics_owner:w&#45;&gt;manuscript_metrics:e</title>
<path fill="none" stroke="black" d="M826.23,-648.73C780.28,-632.28 811,-532 750,-532"/>
<polygon fill="black" stroke="black" points="832.6,-649.74 839.93,-654.56 836.55,-650.37 840.5,-651 840.5,-651 840.5,-651 836.55,-650.37 841.07,-647.44 832.6,-649.74 832.6,-649.74"/>
<ellipse fill="none" stroke="black" cx="829.44" cy="-649.24" rx="3.2" ry="3.2"/>
</g>
<!-- scribal_font_glyph_metrics -->
<g id="node9" class="node">
<title>scribal_font_glyph_metrics</title>
<g id="a_node9"><a xlink:href="../../tables/scribal_font_glyph_metrics.html" xlink:title="scribal_font_glyph_metrics" target="_top">
<polygon fill="#ffffff" stroke="transparent" points="554,-37 554,-161 772,-161 772,-37 554,-37"/>
<polygon fill="#f5f5f5" stroke="transparent" points="554,-139 554,-161 772,-161 772,-139 554,-139"/>
<polygon fill="none" stroke="black" points="554,-139 554,-161 772,-161 772,-139 554,-139"/>
<text text-anchor="start" x="559" y="-148.2" font-family="Helvetica,sans-Serif" font-weight="bold" font-size="11.00">scribal_font_glyph_metrics</text>
<text text-anchor="start" x="730" y="-147.2" font-family="Helvetica,sans-Serif" font-size="11.00">[table]</text>
<polygon fill="none" stroke="black" points="554,-117 554,-139 772,-139 772,-117 554,-117"/>
<image xlink:href="../../images/primaryKeys.png" width="11px" height="12px" preserveAspectRatio="xMinYMin meet" x="559" y="-134"/>
<text text-anchor="start" x="574" y="-125.2" font-family="Helvetica,sans-Serif" font-size="11.00">scribal_font_glyph_metrics_id</text>
<polygon fill="#ffffff" stroke="transparent" points="554,-95 554,-117 772,-117 772,-95 554,-95"/>
<polygon fill="none" stroke="black" points="554,-95 554,-117 772,-117 772,-95 554,-95"/>
<image xlink:href="../../images/foreignKeys.png" width="11px" height="12px" preserveAspectRatio="xMinYMin meet" x="559" y="-112"/>
<text text-anchor="start" x="574" y="-103.2" font-family="Helvetica,sans-Serif" font-size="11.00">scribal_font_id</text>
<polygon fill="#ffffff" stroke="transparent" points="554,-73 554,-95 772,-95 772,-73 554,-73"/>
<polygon fill="none" stroke="black" points="554,-73 554,-95 772,-95 772,-73 554,-73"/>
<text text-anchor="start" x="574" y="-81.2" font-family="Helvetica,sans-Serif" font-size="11.00">unicode_char</text>
<polygon fill="none" stroke="black" points="554,-55 554,-73 772,-73 772,-55 554,-55"/>
<text text-anchor="start" x="557" y="-61.2" font-family="Helvetica,sans-Serif" font-size="11.00">...</text>
<polygon fill="#ffffff" stroke="transparent" points="554,-37 554,-55 641,-55 641,-37 554,-37"/>
<polygon fill="none" stroke="black" points="554,-37 554,-55 641,-55 641,-37 554,-37"/>
<text text-anchor="start" x="557" y="-43.2" font-family="Helvetica,sans-Serif" font-size="11.00">&lt; 1</text>
<polygon fill="#ffffff" stroke="transparent" points="641,-37 641,-55 715,-55 715,-37 641,-37"/>
<polygon fill="none" stroke="black" points="641,-37 641,-55 715,-55 715,-37 641,-37"/>
<text text-anchor="start" x="675" y="-43.2" font-family="Helvetica,sans-Serif" font-size="11.00">0 rows</text>
<polygon fill="#ffffff" stroke="transparent" points="715,-37 715,-55 772,-55 772,-37 715,-37"/>
<polygon fill="none" stroke="black" points="715,-37 715,-55 772,-55 772,-37 715,-37"/>
<text text-anchor="start" x="749" y="-43.2" font-family="Helvetica,sans-Serif" font-size="11.00">1 &gt;</text>
</a>
</g>
</g>
<!-- scribal_font_glyph_metrics&#45;&gt;scribal_font -->
<g id="edge12" class="edge">
<title>scribal_font_glyph_metrics:w&#45;&gt;scribal_font:e</title>
<path fill="none" stroke="black" d="M539.76,-111.93C503.52,-151.71 560.02,-378 504,-378"/>
<polygon fill="black" stroke="black" points="545.7,-109.27 554.47,-109.29 549.35,-107.64 553,-106 553,-106 553,-106 549.35,-107.64 551.53,-102.71 545.7,-109.27 545.7,-109.27"/>
<ellipse fill="none" stroke="black" cx="542.78" cy="-110.58" rx="3.2" ry="3.2"/>
</g>
<!-- scribal_font_glyph_metrics_owner -->
<g id="node10" class="node">
<title>scribal_font_glyph_metrics_owner</title>
<g id="a_node10"><a xlink:href="../../tables/scribal_font_glyph_metrics_owner.html" xlink:title="scribal_font_glyph_metrics_owner" target="_top">
<polygon fill="#ffffff" stroke="transparent" points="821,-466 821,-524 1078,-524 1078,-466 821,-466"/>
<polygon fill="#f5f5f5" stroke="transparent" points="821.5,-502 821.5,-524 1078.5,-524 1078.5,-502 821.5,-502"/>
<polygon fill="none" stroke="black" points="821.5,-502 821.5,-524 1078.5,-524 1078.5,-502 821.5,-502"/>
<text text-anchor="start" x="826.5" y="-511.2" font-family="Helvetica,sans-Serif" font-weight="bold" font-size="11.00">scribal_font_glyph_metrics_owner</text>
<text text-anchor="start" x="1036.5" y="-510.2" font-family="Helvetica,sans-Serif" font-size="11.00">[table]</text>
<polygon fill="none" stroke="black" points="821.5,-484 821.5,-502 1078.5,-502 1078.5,-484 821.5,-484"/>
<text text-anchor="start" x="824.5" y="-490.2" font-family="Helvetica,sans-Serif" font-size="11.00">...</text>
<polygon fill="#ffffff" stroke="transparent" points="821.5,-466 821.5,-484 934.5,-484 934.5,-466 821.5,-466"/>
<polygon fill="none" stroke="black" points="821.5,-466 821.5,-484 934.5,-484 934.5,-466 821.5,-466"/>
<text text-anchor="start" x="824.5" y="-472.2" font-family="Helvetica,sans-Serif" font-size="11.00">&lt; 3</text>
<polygon fill="#ffffff" stroke="transparent" points="934.5,-466 934.5,-484 1020.5,-484 1020.5,-466 934.5,-466"/>
<polygon fill="none" stroke="black" points="934.5,-466 934.5,-484 1020.5,-484 1020.5,-466 934.5,-466"/>
<text text-anchor="start" x="980.5" y="-472.2" font-family="Helvetica,sans-Serif" font-size="11.00">0 rows</text>
<polygon fill="#ffffff" stroke="transparent" points="1020.5,-466 1020.5,-484 1078.5,-484 1078.5,-466 1020.5,-466"/>
<polygon fill="none" stroke="black" points="1020.5,-466 1020.5,-484 1078.5,-484 1078.5,-466 1020.5,-466"/>
<text text-anchor="start" x="1067.5" y="-472.2" font-family="Helvetica,sans-Serif" font-size="11.00"> &#160;</text>
</a>
</g>
</g>
<!-- scribal_font_glyph_metrics_owner&#45;&gt;edition -->
<g id="edge14" class="edge">
<title>scribal_font_glyph_metrics_owner:w&#45;&gt;edition:e</title>
<path fill="none" stroke="black" d="M806.47,-496.81C788.3,-510.29 808.53,-556.08 780,-576 737.14,-605.92 596.19,-585.41 546,-600 482.06,-618.59 478.59,-667 412,-667"/>
<polygon fill="black" stroke="black" points="812.78,-495.09 821.44,-496.47 816.64,-494.05 820.5,-493 820.5,-493 820.5,-493 816.64,-494.05 819.56,-489.53 812.78,-495.09 812.78,-495.09"/>
<ellipse fill="none" stroke="black" cx="809.69" cy="-495.93" rx="3.2" ry="3.2"/>
</g>
<!-- scribal_font_glyph_metrics_owner&#45;&gt;edition_editor -->
<g id="edge13" class="edge">
<title>scribal_font_glyph_metrics_owner:w&#45;&gt;edition_editor:e</title>
<path fill="none" stroke="black" d="M806.01,-495.41C777.17,-507.18 800.95,-559.71 780,-599 762.6,-631.64 768.99,-667 732,-667"/>
<polygon fill="black" stroke="black" points="812.61,-494.31 821.09,-496.55 816.55,-493.66 820.5,-493 820.5,-493 820.5,-493 816.55,-493.66 819.91,-489.45 812.61,-494.31 812.61,-494.31"/>
<ellipse fill="none" stroke="black" cx="809.45" cy="-494.84" rx="3.2" ry="3.2"/>
</g>
<!-- scribal_font_glyph_metrics_owner&#45;&gt;scribal_font_glyph_metrics -->
<g id="edge15" class="edge">
<title>scribal_font_glyph_metrics_owner:w&#45;&gt;scribal_font_glyph_metrics:e</title>
<path fill="none" stroke="black" d="M806.71,-488.39C753.25,-446.13 849.36,-128 773,-128"/>
<polygon fill="black" stroke="black" points="812.91,-490.46 819.36,-496.41 816.71,-491.73 820.5,-493 820.5,-493 820.5,-493 816.71,-491.73 821.64,-489.59 812.91,-490.46 812.91,-490.46"/>
<ellipse fill="none" stroke="black" cx="809.88" cy="-489.45" rx="3.2" ry="3.2"/>
</g>
<!-- scribal_font_kerning -->
<g id="node11" class="node">
<title>scribal_font_kerning</title>
<g id="a_node11"><a xlink:href="../../tables/scribal_font_kerning.html" xlink:title="scribal_font_kerning" target="_top">
<polygon fill="#ffffff" stroke="transparent" points="575,-182 575,-328 751,-328 751,-182 575,-182"/>
<polygon fill="#f5f5f5" stroke="transparent" points="575,-306 575,-328 751,-328 751,-306 575,-306"/>
<polygon fill="none" stroke="black" points="575,-306 575,-328 751,-328 751,-306 575,-306"/>
<text text-anchor="start" x="580" y="-315.2" font-family="Helvetica,sans-Serif" font-weight="bold" font-size="11.00">scribal_font_kerning</text>
<text text-anchor="start" x="709" y="-314.2" font-family="Helvetica,sans-Serif" font-size="11.00">[table]</text>
<polygon fill="none" stroke="black" points="575,-284 575,-306 751,-306 751,-284 575,-284"/>
<image xlink:href="../../images/primaryKeys.png" width="11px" height="12px" preserveAspectRatio="xMinYMin meet" x="580" y="-301"/>
<text text-anchor="start" x="595" y="-292.2" font-family="Helvetica,sans-Serif" font-size="11.00">scribal_font_kerning_id</text>
<polygon fill="#ffffff" stroke="transparent" points="575,-262 575,-284 751,-284 751,-262 575,-262"/>
<polygon fill="none" stroke="black" points="575,-262 575,-284 751,-284 751,-262 575,-262"/>
<image xlink:href="../../images/foreignKeys.png" width="11px" height="12px" preserveAspectRatio="xMinYMin meet" x="580" y="-279"/>
<text text-anchor="start" x="595" y="-270.2" font-family="Helvetica,sans-Serif" font-size="11.00">scribal_font_id</text>
<polygon fill="#ffffff" stroke="transparent" points="575,-240 575,-262 751,-262 751,-240 575,-240"/>
<polygon fill="none" stroke="black" points="575,-240 575,-262 751,-262 751,-240 575,-240"/>
<text text-anchor="start" x="595" y="-248.2" font-family="Helvetica,sans-Serif" font-size="11.00">first_unicode_char</text>
<polygon fill="#ffffff" stroke="transparent" points="575,-218 575,-240 751,-240 751,-218 575,-218"/>
<polygon fill="none" stroke="black" points="575,-218 575,-240 751,-240 751,-218 575,-218"/>
<text text-anchor="start" x="595" y="-226.2" font-family="Helvetica,sans-Serif" font-size="11.00">second_unicode_char</text>
<polygon fill="none" stroke="black" points="575,-200 575,-218 751,-218 751,-200 575,-200"/>
<text text-anchor="start" x="578" y="-206.2" font-family="Helvetica,sans-Serif" font-size="11.00">...</text>
<polygon fill="#ffffff" stroke="transparent" points="575,-182 575,-200 641,-200 641,-182 575,-182"/>
<polygon fill="none" stroke="black" points="575,-182 575,-200 641,-200 641,-182 575,-182"/>
<text text-anchor="start" x="578" y="-188.2" font-family="Helvetica,sans-Serif" font-size="11.00">&lt; 1</text>
<polygon fill="#ffffff" stroke="transparent" points="641,-182 641,-200 704,-200 704,-182 641,-182"/>
<polygon fill="none" stroke="black" points="641,-182 641,-200 704,-200 704,-182 641,-182"/>
<text text-anchor="start" x="664" y="-188.2" font-family="Helvetica,sans-Serif" font-size="11.00">0 rows</text>
<polygon fill="#ffffff" stroke="transparent" points="704,-182 704,-200 751,-200 751,-182 704,-182"/>
<polygon fill="none" stroke="black" points="704,-182 704,-200 751,-200 751,-182 704,-182"/>
<text text-anchor="start" x="728" y="-188.2" font-family="Helvetica,sans-Serif" font-size="11.00">1 &gt;</text>
</a>
</g>
</g>
<!-- scribal_font_kerning&#45;&gt;scribal_font -->
<g id="edge16" class="edge">
<title>scribal_font_kerning:w&#45;&gt;scribal_font:e</title>
<path fill="none" stroke="black" d="M559.75,-276.03C525.47,-293.25 554.39,-378 504,-378"/>
<polygon fill="black" stroke="black" points="566.17,-274.66 574.75,-276.52 570.09,-273.83 574,-273 574,-273 574,-273 570.09,-273.83 573.25,-269.48 566.17,-274.66 566.17,-274.66"/>
<ellipse fill="none" stroke="black" cx="563.04" cy="-275.33" rx="3.2" ry="3.2"/>
</g>
<!-- scribal_font_kerning_owner -->
<g id="node12" class="node">
<title>scribal_font_kerning_owner</title>
<g id="a_node12"><a xlink:href="../../tables/scribal_font_kerning_owner.html" xlink:title="scribal_font_kerning_owner" target="_top">
<polygon fill="#ffffff" stroke="transparent" points="841,-545 841,-603 1058,-603 1058,-545 841,-545"/>
<polygon fill="#f5f5f5" stroke="transparent" points="841.5,-581 841.5,-603 1058.5,-603 1058.5,-581 841.5,-581"/>
<polygon fill="none" stroke="black" points="841.5,-581 841.5,-603 1058.5,-603 1058.5,-581 841.5,-581"/>
<text text-anchor="start" x="846.5" y="-590.2" font-family="Helvetica,sans-Serif" font-weight="bold" font-size="11.00">scribal_font_kerning_owner</text>
<text text-anchor="start" x="1016.5" y="-589.2" font-family="Helvetica,sans-Serif" font-size="11.00">[table]</text>
<polygon fill="none" stroke="black" points="841.5,-563 841.5,-581 1058.5,-581 1058.5,-563 841.5,-563"/>
<text text-anchor="start" x="844.5" y="-569.2" font-family="Helvetica,sans-Serif" font-size="11.00">...</text>
<polygon fill="#ffffff" stroke="transparent" points="841.5,-545 841.5,-563 934.5,-563 934.5,-545 841.5,-545"/>
<polygon fill="none" stroke="black" points="841.5,-545 841.5,-563 934.5,-563 934.5,-545 841.5,-545"/>
<text text-anchor="start" x="844.5" y="-551.2" font-family="Helvetica,sans-Serif" font-size="11.00">&lt; 3</text>
<polygon fill="#ffffff" stroke="transparent" points="934.5,-545 934.5,-563 1010.5,-563 1010.5,-545 934.5,-545"/>
<polygon fill="none" stroke="black" points="934.5,-545 934.5,-563 1010.5,-563 1010.5,-545 934.5,-545"/>
<text text-anchor="start" x="970.5" y="-551.2" font-family="Helvetica,sans-Serif" font-size="11.00">0 rows</text>
<polygon fill="#ffffff" stroke="transparent" points="1010.5,-545 1010.5,-563 1058.5,-563 1058.5,-545 1010.5,-545"/>
<polygon fill="none" stroke="black" points="1010.5,-545 1010.5,-563 1058.5,-563 1058.5,-545 1010.5,-545"/>
<text text-anchor="start" x="1047.5" y="-551.2" font-family="Helvetica,sans-Serif" font-size="11.00"> &#160;</text>
</a>
</g>
</g>
<!-- scribal_font_kerning_owner&#45;&gt;edition -->
<g id="edge18" class="edge">
<title>scribal_font_kerning_owner:w&#45;&gt;edition:e</title>
<path fill="none" stroke="black" d="M825.92,-573.95C809.01,-579 802.8,-592.55 780,-599 679.05,-627.56 648.81,-609.1 546,-630 485.45,-642.31 473.78,-667 412,-667"/>
<polygon fill="black" stroke="black" points="832.57,-573.06 840.98,-575.57 836.54,-572.53 840.5,-572 840.5,-572 840.5,-572 836.54,-572.53 840.02,-568.43 832.57,-573.06 832.57,-573.06"/>
<ellipse fill="none" stroke="black" cx="829.4" cy="-573.48" rx="3.2" ry="3.2"/>
</g>
<!-- scribal_font_kerning_owner&#45;&gt;edition_editor -->
<g id="edge17" class="edge">
<title>scribal_font_kerning_owner:w&#45;&gt;edition_editor:e</title>
<path fill="none" stroke="black" d="M826.02,-573.9C779.12,-587.29 790.71,-667 732,-667"/>
<polygon fill="black" stroke="black" points="832.57,-573.04 840.97,-575.57 836.53,-572.52 840.5,-572 840.5,-572 840.5,-572 836.53,-572.52 840.03,-568.43 832.57,-573.04 832.57,-573.04"/>
<ellipse fill="none" stroke="black" cx="829.4" cy="-573.46" rx="3.2" ry="3.2"/>
</g>
<!-- scribal_font_kerning_owner&#45;&gt;scribal_font_kerning -->
<g id="edge19" class="edge">
<title>scribal_font_kerning_owner:w&#45;&gt;scribal_font_kerning:e</title>
<path fill="none" stroke="black" d="M826.07,-570.64C724.7,-549.74 875.94,-295 752,-295"/>
<polygon fill="black" stroke="black" points="832.54,-571.25 840.16,-575.58 836.52,-571.62 840.5,-572 840.5,-572 840.5,-572 836.52,-571.62 840.84,-568.42 832.54,-571.25 832.54,-571.25"/>
<ellipse fill="none" stroke="black" cx="829.35" cy="-570.95" rx="3.2" ry="3.2"/>
</g>
<!-- scribal_font_owner -->
<g id="node13" class="node">
<title>scribal_font_owner</title>
<g id="a_node13"><a xlink:href="../../tables/scribal_font_owner.html" xlink:title="scribal_font_owner" target="_top">
<polygon fill="#ffffff" stroke="transparent" points="866.5,-703 866.5,-809 1032.5,-809 1032.5,-703 866.5,-703"/>
<polygon fill="#f5f5f5" stroke="transparent" points="866.5,-787 866.5,-809 1032.5,-809 1032.5,-787 866.5,-787"/>
<polygon fill="none" stroke="black" points="866.5,-787 866.5,-809 1032.5,-809 1032.5,-787 866.5,-787"/>
<text text-anchor="start" x="871.5" y="-796.2" font-family="Helvetica,sans-Serif" font-weight="bold" font-size="11.00">scribal_font_owner</text>
<text text-anchor="start" x="990.5" y="-795.2" font-family="Helvetica,sans-Serif" font-size="11.00">[table]</text>
<polygon fill="none" stroke="black" points="866.5,-765 866.5,-787 1032.5,-787 1032.5,-765 866.5,-765"/>
<image xlink:href="../../images/primaryKeys.png" width="11px" height="12px" preserveAspectRatio="xMinYMin meet" x="871.5" y="-782"/>
<text text-anchor="start" x="896.5" y="-773.2" font-family="Helvetica,sans-Serif" font-size="11.00">scribal_font_id</text>
<polygon fill="#ffffff" stroke="transparent" points="866.5,-743 866.5,-765 1032.5,-765 1032.5,-743 866.5,-743"/>
<polygon fill="none" stroke="black" points="866.5,-743 866.5,-765 1032.5,-765 1032.5,-743 866.5,-743"/>
<image xlink:href="../../images/foreignKeys.png" width="11px" height="12px" preserveAspectRatio="xMinYMin meet" x="871.5" y="-760"/>
<text text-anchor="start" x="896.5" y="-751.2" font-family="Helvetica,sans-Serif" font-size="11.00">edition_editor_id</text>
<polygon fill="none" stroke="black" points="866.5,-721 866.5,-743 1032.5,-743 1032.5,-721 866.5,-721"/>
<image xlink:href="../../images/primaryKeys.png" width="11px" height="12px" preserveAspectRatio="xMinYMin meet" x="871.5" y="-738"/>
<text text-anchor="start" x="896.5" y="-729.2" font-family="Helvetica,sans-Serif" font-size="11.00">edition_id</text>
<polygon fill="#ffffff" stroke="transparent" points="866.5,-703 866.5,-721 933.5,-721 933.5,-703 866.5,-703"/>
<polygon fill="none" stroke="black" points="866.5,-703 866.5,-721 933.5,-721 933.5,-703 866.5,-703"/>
<text text-anchor="start" x="869.5" y="-709.2" font-family="Helvetica,sans-Serif" font-size="11.00">&lt; 3</text>
<polygon fill="#ffffff" stroke="transparent" points="933.5,-703 933.5,-721 997.5,-721 997.5,-703 933.5,-703"/>
<polygon fill="none" stroke="black" points="933.5,-703 933.5,-721 997.5,-721 997.5,-703 933.5,-703"/>
<text text-anchor="start" x="957.5" y="-709.2" font-family="Helvetica,sans-Serif" font-size="11.00">0 rows</text>
<polygon fill="#ffffff" stroke="transparent" points="997.5,-703 997.5,-721 1032.5,-721 1032.5,-703 997.5,-703"/>
<polygon fill="none" stroke="black" points="997.5,-703 997.5,-721 1032.5,-721 1032.5,-703 997.5,-703"/>
<text text-anchor="start" x="1021.5" y="-709.2" font-family="Helvetica,sans-Serif" font-size="11.00"> &#160;</text>
</a>
</g>
</g>
<!-- scribal_font_owner&#45;&gt;edition -->
<g id="edge21" class="edge">
<title>scribal_font_owner:w&#45;&gt;edition:e</title>
<path fill="none" stroke="black" d="M850.9,-732.1C720.63,-733.91 679.67,-759.08 546,-729 481.98,-714.59 477.62,-667 412,-667"/>
<polygon fill="black" stroke="black" points="857.5,-732.06 865.52,-735.6 861.5,-732.03 865.5,-732 865.5,-732 865.5,-732 861.5,-732.03 865.48,-728.4 857.5,-732.06 857.5,-732.06"/>
<ellipse fill="none" stroke="black" cx="854.3" cy="-732.08" rx="3.2" ry="3.2"/>
</g>
<!-- scribal_font_owner&#45;&gt;edition_editor -->
<g id="edge20" class="edge">
<title>scribal_font_owner:w&#45;&gt;edition_editor:e</title>
<path fill="none" stroke="black" d="M850.97,-752.63C795.45,-741.57 797.56,-667 732,-667"/>
<polygon fill="black" stroke="black" points="857.54,-753.25 865.16,-757.58 861.52,-753.63 865.5,-754 865.5,-754 865.5,-754 861.52,-753.63 865.84,-750.42 857.54,-753.25 857.54,-753.25"/>
<ellipse fill="none" stroke="black" cx="854.35" cy="-752.95" rx="3.2" ry="3.2"/>
</g>
<!-- scribal_font_owner&#45;&gt;scribal_font -->
<g id="edge22" class="edge">
<title>scribal_font_owner:w&#45;&gt;scribal_font:e</title>
<path fill="none" stroke="black" d="M850.86,-776.13C715.19,-778.54 641.02,-811.99 546,-709 495.72,-654.5 578.15,-378 504,-378"/>
<polygon fill="black" stroke="black" points="857.5,-776.07 865.53,-779.6 861.5,-776.04 865.5,-776 865.5,-776 865.5,-776 861.5,-776.04 865.47,-772.4 857.5,-776.07 857.5,-776.07"/>
<ellipse fill="none" stroke="black" cx="854.3" cy="-776.1" rx="3.2" ry="3.2"/>
</g>
</g>
</svg>
