<?xml version="1.0" encoding="UTF-8" standalone="no"?>
<!DOCTYPE svg PUBLIC "-//W3C//DTD SVG 1.1//EN"
 "http://www.w3.org/Graphics/SVG/1.1/DTD/svg11.dtd">
<!-- Generated by graphviz version 2.40.1 (20161225.0304)
 -->
<!-- Title: oneDegreeRelationshipsDiagram Pages: 1 -->
<svg width="1096pt" height="252pt"
 viewBox="0.00 0.00 1096.00 252.00" xmlns="http://www.w3.org/2000/svg" xmlns:xlink="http://www.w3.org/1999/xlink">
<g id="graph0" class="graph" transform="scale(1 1) rotate(0) translate(4 248)">
<title>oneDegreeRelationshipsDiagram</title>
<polygon fill="#ffffff" stroke="transparent" points="-4,4 -4,-248 1092,-248 1092,4 -4,4"/>
<text text-anchor="middle" x="71.5" y="-7.2" font-family="Helvetica,sans-Serif" font-size="11.00" fill="#000000">Generated by SchemaSpy</text>
<!-- scribal_font -->
<g id="node1" class="node">
<title>scribal_font</title>
<g id="a_node1"><a xlink:href="../../tables/scribal_font.html" xlink:title="scribal_font" target="_top">
<polygon fill="#ffffff" stroke="transparent" points="220,-95 220,-219 411,-219 411,-95 220,-95"/>
<polygon fill="#f5f5f5" stroke="transparent" points="220.5,-197 220.5,-219 411.5,-219 411.5,-197 220.5,-197"/>
<polygon fill="none" stroke="#000000" points="220.5,-197 220.5,-219 411.5,-219 411.5,-197 220.5,-197"/>
<text text-anchor="start" x="225.5" y="-206.2" font-family="Helvetica,sans-Serif" font-weight="bold" font-size="11.00" fill="#000000">scribal_font</text>
<text text-anchor="start" x="376.5" y="-205.2" font-family="Helvetica,sans-Serif" font-size="11.00" fill="#000000">[table]</text>
<polygon fill="none" stroke="#000000" points="220.5,-175 220.5,-197 411.5,-197 411.5,-175 220.5,-175"/>
<image xlink:href="../../images/primaryKeys.png" width="11px" height="12px" preserveAspectRatio="xMinYMin meet" x="225.5" y="-192"/>
<text text-anchor="start" x="240.5" y="-183.2" font-family="Helvetica,sans-Serif" font-size="11.00" fill="#000000">scribal_font_id</text>
<polygon fill="none" stroke="#000000" points="220.5,-153 220.5,-175 411.5,-175 411.5,-153 220.5,-153"/>
<image xlink:href="../../images/foreignKeys.png" width="11px" height="12px" preserveAspectRatio="xMinYMin meet" x="225.5" y="-170"/>
<text text-anchor="start" x="240.5" y="-161.2" font-family="Helvetica,sans-Serif" font-size="11.00" fill="#000000">font_file_id</text>
<polygon fill="#ffffff" stroke="transparent" points="220.5,-131 220.5,-153 411.5,-153 411.5,-131 220.5,-131"/>
<polygon fill="none" stroke="#000000" points="220.5,-131 220.5,-153 411.5,-153 411.5,-131 220.5,-131"/>
<image xlink:href="../../images/foreignKeys.png" width="11px" height="12px" preserveAspectRatio="xMinYMin meet" x="225.5" y="-148"/>
<text text-anchor="start" x="240.5" y="-139.2" font-family="Helvetica,sans-Serif" font-size="11.00" fill="#000000">creator_id</text>
<polygon fill="none" stroke="#000000" points="220.5,-113 220.5,-131 411.5,-131 411.5,-113 220.5,-113"/>
<text text-anchor="start" x="223.5" y="-119.2" font-family="Helvetica,sans-Serif" font-size="11.00" fill="#000000">...</text>
<polygon fill="#ffffff" stroke="transparent" points="220.5,-95 220.5,-113 296.5,-113 296.5,-95 220.5,-95"/>
<polygon fill="none" stroke="#000000" points="220.5,-95 220.5,-113 296.5,-113 296.5,-95 220.5,-95"/>
<text text-anchor="start" x="223.5" y="-101.2" font-family="Helvetica,sans-Serif" font-size="11.00" fill="#000000">&lt; 1</text>
<polygon fill="#ffffff" stroke="transparent" points="296.5,-95 296.5,-113 362.5,-113 362.5,-95 296.5,-95"/>
<polygon fill="none" stroke="#000000" points="296.5,-95 296.5,-113 362.5,-113 362.5,-95 296.5,-95"/>
<text text-anchor="start" x="326.5" y="-101.2" font-family="Helvetica,sans-Serif" font-size="11.00" fill="#000000">0 rows</text>
<polygon fill="#ffffff" stroke="transparent" points="362.5,-95 362.5,-113 411.5,-113 411.5,-95 362.5,-95"/>
<polygon fill="none" stroke="#000000" points="362.5,-95 362.5,-113 411.5,-113 411.5,-95 362.5,-95"/>
<text text-anchor="start" x="392.5" y="-101.2" font-family="Helvetica,sans-Serif" font-size="11.00" fill="#000000">4 &gt;</text>
</a>
</g>
</g>
<!-- user -->
<g id="node2" class="node">
<title>user</title>
<g id="a_node2"><a xlink:href="../../tables/user.html" xlink:title="user" target="_top">
<polygon fill="#ffffff" stroke="transparent" points="8,-37 8,-139 171,-139 171,-37 8,-37"/>
<polygon fill="#f5f5f5" stroke="transparent" points="8.5,-117 8.5,-139 171.5,-139 171.5,-117 8.5,-117"/>
<polygon fill="none" stroke="#000000" points="8.5,-117 8.5,-139 171.5,-139 171.5,-117 8.5,-117"/>
<text text-anchor="start" x="13.5" y="-126.2" font-family="Helvetica,sans-Serif" font-weight="bold" font-size="11.00" fill="#000000">user</text>
<text text-anchor="start" x="136.5" y="-125.2" font-family="Helvetica,sans-Serif" font-size="11.00" fill="#000000">[table]</text>
<polygon fill="none" stroke="#000000" points="8.5,-95 8.5,-117 171.5,-117 171.5,-95 8.5,-95"/>
<image xlink:href="../../images/primaryKeys.png" width="11px" height="12px" preserveAspectRatio="xMinYMin meet" x="13.5" y="-112"/>
<text text-anchor="start" x="28.5" y="-103.2" font-family="Helvetica,sans-Serif" font-size="11.00" fill="#000000">user_id</text>
<polygon fill="#ffffff" stroke="transparent" points="8.5,-73 8.5,-95 171.5,-95 171.5,-73 8.5,-73"/>
<polygon fill="none" stroke="#000000" points="8.5,-73 8.5,-95 171.5,-95 171.5,-73 8.5,-73"/>
<text text-anchor="start" x="28.5" y="-81.2" font-family="Helvetica,sans-Serif" font-size="11.00" fill="#000000">email</text>
<polygon fill="none" stroke="#000000" points="8.5,-55 8.5,-73 171.5,-73 171.5,-55 8.5,-55"/>
<text text-anchor="start" x="11.5" y="-61.2" font-family="Helvetica,sans-Serif" font-size="11.00" fill="#000000">...</text>
<polygon fill="#ffffff" stroke="transparent" points="8.5,-37 8.5,-55 62.5,-55 62.5,-37 8.5,-37"/>
<polygon fill="none" stroke="#000000" points="8.5,-37 8.5,-55 62.5,-55 62.5,-37 8.5,-37"/>
<text text-anchor="start" x="11.5" y="-43.2" font-family="Helvetica,sans-Serif" font-size="11.00" fill="#000000"> &#160;</text>
<polygon fill="#ffffff" stroke="transparent" points="62.5,-37 62.5,-55 122.5,-55 122.5,-37 62.5,-37"/>
<polygon fill="none" stroke="#000000" points="62.5,-37 62.5,-55 122.5,-55 122.5,-37 62.5,-37"/>
<text text-anchor="start" x="86.5" y="-43.2" font-family="Helvetica,sans-Serif" font-size="11.00" fill="#000000">3 rows</text>
<polygon fill="#ffffff" stroke="transparent" points="122.5,-37 122.5,-55 171.5,-55 171.5,-37 122.5,-37"/>
<polygon fill="none" stroke="#000000" points="122.5,-37 122.5,-55 171.5,-55 171.5,-37 122.5,-37"/>
<text text-anchor="start" x="146.5" y="-43.2" font-family="Helvetica,sans-Serif" font-size="11.00" fill="#000000">40 &gt;</text>
</a>
</g>
</g>
<!-- scribal_font&#45;&gt;user -->
<g id="edge1" class="edge">
<title>scribal_font:w&#45;&gt;user:e</title>
<path fill="none" stroke="#000000" d="M206.6983,-137.5857C194.1499,-127.9727 192.6121,-106 171.5,-106"/>
<polygon fill="#000000" stroke="#000000" points="212.8802,-139.5629 219.4033,-145.4289 216.6901,-140.7814 220.5,-142 220.5,-142 220.5,-142 216.6901,-140.7814 221.5967,-138.5711 212.8802,-139.5629 212.8802,-139.5629"/>
<ellipse fill="none" stroke="#000000" cx="209.8323" cy="-138.588" rx="3.2" ry="3.2"/>
</g>
<!-- scribal_font_glyph_metrics -->
<g id="node3" class="node">
<title>scribal_font_glyph_metrics</title>
<g id="a_node3"><a xlink:href="../../tables/scribal_font_glyph_metrics.html" xlink:title="scribal_font_glyph_metrics" target="_top">
<polygon fill="#ffffff" stroke="transparent" points="460,-42 460,-240 783,-240 783,-42 460,-42"/>
<polygon fill="#f5f5f5" stroke="transparent" points="462.5,-216 462.5,-238 781.5,-238 781.5,-216 462.5,-216"/>
<polygon fill="none" stroke="#000000" points="462.5,-216 462.5,-238 781.5,-238 781.5,-216 462.5,-216"/>
<text text-anchor="start" x="467.5" y="-225.2" font-family="Helvetica,sans-Serif" font-weight="bold" font-size="11.00" fill="#000000">scribal_font_glyph_metrics</text>
<text text-anchor="start" x="746.5" y="-224.2" font-family="Helvetica,sans-Serif" font-size="11.00" fill="#000000">[table]</text>
<polygon fill="none" stroke="#000000" points="462.5,-194 462.5,-216 680.5,-216 680.5,-194 462.5,-194"/>
<image xlink:href="../../images/primaryKeys.png" width="11px" height="12px" preserveAspectRatio="xMinYMin meet" x="467.5" y="-211"/>
<text text-anchor="start" x="482.5" y="-202.2" font-family="Helvetica,sans-Serif" font-size="11.00" fill="#000000">scribal_font_glyph_metrics_id</text>
<polygon fill="none" stroke="#000000" points="680.5,-194 680.5,-216 781.5,-216 781.5,-194 680.5,-194"/>
<text text-anchor="start" x="683.5" y="-202.2" font-family="Helvetica,sans-Serif" font-size="11.00" fill="#000000">int unsigned[10]</text>
<polygon fill="#ffffff" stroke="transparent" points="462.5,-172 462.5,-194 680.5,-194 680.5,-172 462.5,-172"/>
<polygon fill="none" stroke="#000000" points="462.5,-172 462.5,-194 680.5,-194 680.5,-172 462.5,-172"/>
<image xlink:href="../../images/foreignKeys.png" width="11px" height="12px" preserveAspectRatio="xMinYMin meet" x="467.5" y="-189"/>
<text text-anchor="start" x="482.5" y="-180.2" font-family="Helvetica,sans-Serif" font-size="11.00" fill="#000000">scribal_font_id</text>
<polygon fill="none" stroke="#000000" points="680.5,-172 680.5,-194 781.5,-194 781.5,-172 680.5,-172"/>
<text text-anchor="start" x="683.5" y="-180.2" font-family="Helvetica,sans-Serif" font-size="11.00" fill="#000000">int unsigned[10]</text>
<polygon fill="#ffffff" stroke="transparent" points="462.5,-150 462.5,-172 680.5,-172 680.5,-150 462.5,-150"/>
<polygon fill="none" stroke="#000000" points="462.5,-150 462.5,-172 680.5,-172 680.5,-150 462.5,-150"/>
<text text-anchor="start" x="482.5" y="-158.2" font-family="Helvetica,sans-Serif" font-size="11.00" fill="#000000">unicode_char</text>
<polygon fill="none" stroke="#000000" points="680.5,-150 680.5,-172 781.5,-172 781.5,-150 680.5,-150"/>
<text text-anchor="start" x="683.5" y="-158.2" font-family="Helvetica,sans-Serif" font-size="11.00" fill="#000000">varbinary[4]</text>
<polygon fill="none" stroke="#000000" points="462.5,-128 462.5,-150 680.5,-150 680.5,-128 462.5,-128"/>
<text text-anchor="start" x="482.5" y="-136.2" font-family="Helvetica,sans-Serif" font-size="11.00" fill="#000000">width</text>
<polygon fill="none" stroke="#000000" points="680.5,-128 680.5,-150 781.5,-150 781.5,-128 680.5,-128"/>
<text text-anchor="start" x="683.5" y="-136.2" font-family="Helvetica,sans-Serif" font-size="11.00" fill="#000000">smallint unsigned[5]</text>
<polygon fill="none" stroke="#000000" points="462.5,-106 462.5,-128 680.5,-128 680.5,-106 462.5,-106"/>
<text text-anchor="start" x="482.5" y="-114.2" font-family="Helvetica,sans-Serif" font-size="11.00" fill="#000000">height</text>
<polygon fill="none" stroke="#000000" points="680.5,-106 680.5,-128 781.5,-128 781.5,-106 680.5,-106"/>
<text text-anchor="start" x="683.5" y="-114.2" font-family="Helvetica,sans-Serif" font-size="11.00" fill="#000000">smallint unsigned[5]</text>
<polygon fill="none" stroke="#000000" points="462.5,-84 462.5,-106 680.5,-106 680.5,-84 462.5,-84"/>
<text text-anchor="start" x="482.5" y="-92.2" font-family="Helvetica,sans-Serif" font-size="11.00" fill="#000000">y_offset</text>
<polygon fill="none" stroke="#000000" points="680.5,-84 680.5,-106 781.5,-106 781.5,-84 680.5,-84"/>
<text text-anchor="start" x="683.5" y="-92.2" font-family="Helvetica,sans-Serif" font-size="11.00" fill="#000000">smallint[5]</text>
<polygon fill="#ffffff" stroke="transparent" points="462.5,-62 462.5,-84 680.5,-84 680.5,-62 462.5,-62"/>
<polygon fill="none" stroke="#000000" points="462.5,-62 462.5,-84 680.5,-84 680.5,-62 462.5,-62"/>
<image xlink:href="../../images/foreignKeys.png" width="11px" height="12px" preserveAspectRatio="xMinYMin meet" x="467.5" y="-79"/>
<text text-anchor="start" x="482.5" y="-70.2" font-family="Helvetica,sans-Serif" font-size="11.00" fill="#000000">creator_id</text>
<polygon fill="none" stroke="#000000" points="680.5,-62 680.5,-84 781.5,-84 781.5,-62 680.5,-62"/>
<text text-anchor="start" x="683.5" y="-70.2" font-family="Helvetica,sans-Serif" font-size="11.00" fill="#000000">int unsigned[10]</text>
<polygon fill="#ffffff" stroke="transparent" points="462.5,-44 462.5,-62 562.5,-62 562.5,-44 462.5,-44"/>
<polygon fill="none" stroke="#000000" points="462.5,-44 462.5,-62 562.5,-62 562.5,-44 462.5,-44"/>
<text text-anchor="start" x="465.5" y="-50.2" font-family="Helvetica,sans-Serif" font-size="11.00" fill="#000000">&lt; 2</text>
<polygon fill="#ffffff" stroke="transparent" points="562.5,-44 562.5,-62 680.5,-62 680.5,-44 562.5,-44"/>
<polygon fill="none" stroke="#000000" points="562.5,-44 562.5,-62 680.5,-62 680.5,-44 562.5,-44"/>
<text text-anchor="start" x="644.5" y="-50.2" font-family="Helvetica,sans-Serif" font-size="11.00" fill="#000000">0 rows</text>
<polygon fill="#ffffff" stroke="transparent" points="680.5,-44 680.5,-62 781.5,-62 781.5,-44 680.5,-44"/>
<polygon fill="none" stroke="#000000" points="680.5,-44 680.5,-62 781.5,-62 781.5,-44 680.5,-44"/>
<text text-anchor="start" x="762.5" y="-50.2" font-family="Helvetica,sans-Serif" font-size="11.00" fill="#000000">1 &gt;</text>
<polygon fill="none" stroke="#000000" stroke-width="2" points="461,-43 461,-239 782,-239 782,-43 461,-43"/>
</a>
</g>
</g>
<!-- scribal_font_glyph_metrics&#45;&gt;scribal_font -->
<g id="edge3" class="edge">
<title>scribal_font_glyph_metrics:w&#45;&gt;scribal_font:e</title>
<path fill="none" stroke="#000000" d="M447.7651,-183.4954C435.7749,-184.3475 428.352,-186 411.5,-186"/>
<polygon fill="#000000" stroke="#000000" points="454.5045,-183.2689 462.621,-186.598 458.5023,-183.1344 462.5,-183 462.5,-183 462.5,-183 458.5023,-183.1344 462.379,-179.402 454.5045,-183.2689 454.5045,-183.2689"/>
<ellipse fill="none" stroke="#000000" cx="451.3063" cy="-183.3764" rx="3.2" ry="3.2"/>
</g>
<!-- scribal_font_glyph_metrics&#45;&gt;user -->
<g id="edge2" class="edge">
<title>scribal_font_glyph_metrics:w&#45;&gt;user:e</title>
<path fill="none" stroke="#000000" d="M447.9504,-72.8923C348.0605,-71.4086 314.5572,-55.5337 212,-84 192.262,-89.4786 191.9843,-106 171.5,-106"/>
<polygon fill="#000000" stroke="#000000" points="454.5002,-72.9407 462.4733,-76.5999 458.5001,-72.9704 462.5,-73 462.5,-73 462.5,-73 458.5001,-72.9704 462.5267,-69.4001 454.5002,-72.9407 454.5002,-72.9407"/>
<ellipse fill="none" stroke="#000000" cx="451.3003" cy="-72.917" rx="3.2" ry="3.2"/>
</g>
<!-- scribal_font_glyph_metrics_owner -->
<g id="node4" class="node">
<title>scribal_font_glyph_metrics_owner</title>
<g id="a_node4"><a xlink:href="../../tables/scribal_font_glyph_metrics_owner.html" xlink:title="scribal_font_glyph_metrics_owner" target="_top">
<polygon fill="#ffffff" stroke="transparent" points="832,-132 832,-238 1080,-238 1080,-132 832,-132"/>
<polygon fill="#f5f5f5" stroke="transparent" points="832,-216 832,-238 1080,-238 1080,-216 832,-216"/>
<polygon fill="none" stroke="#000000" points="832,-216 832,-238 1080,-238 1080,-216 832,-216"/>
<text text-anchor="start" x="837" y="-225.2" font-family="Helvetica,sans-Serif" font-weight="bold" font-size="11.00" fill="#000000">scribal_font_glyph_metrics_owner</text>
<text text-anchor="start" x="1045" y="-224.2" font-family="Helvetica,sans-Serif" font-size="11.00" fill="#000000">[table]</text>
<polygon fill="none" stroke="#000000" points="832,-194 832,-216 1080,-216 1080,-194 832,-194"/>
<image xlink:href="../../images/primaryKeys.png" width="11px" height="12px" preserveAspectRatio="xMinYMin meet" x="837" y="-211"/>
<text text-anchor="start" x="852" y="-202.2" font-family="Helvetica,sans-Serif" font-size="11.00" fill="#000000">scribal_font_glyph_metrics_id</text>
<polygon fill="#ffffff" stroke="transparent" points="832,-172 832,-194 1080,-194 1080,-172 832,-172"/>
<polygon fill="none" stroke="#000000" points="832,-172 832,-194 1080,-194 1080,-172 832,-172"/>
<image xlink:href="../../images/foreignKeys.png" width="11px" height="12px" preserveAspectRatio="xMinYMin meet" x="837" y="-189"/>
<text text-anchor="start" x="852" y="-180.2" font-family="Helvetica,sans-Serif" font-size="11.00" fill="#000000">edition_editor_id</text>
<polygon fill="none" stroke="#000000" points="832,-150 832,-172 1080,-172 1080,-150 832,-150"/>
<image xlink:href="../../images/primaryKeys.png" width="11px" height="12px" preserveAspectRatio="xMinYMin meet" x="837" y="-167"/>
<text text-anchor="start" x="852" y="-158.2" font-family="Helvetica,sans-Serif" font-size="11.00" fill="#000000">edition_id</text>
<polygon fill="#ffffff" stroke="transparent" points="832,-132 832,-150 941,-150 941,-132 832,-132"/>
<polygon fill="none" stroke="#000000" points="832,-132 832,-150 941,-150 941,-132 832,-132"/>
<text text-anchor="start" x="835" y="-138.2" font-family="Helvetica,sans-Serif" font-size="11.00" fill="#000000">&lt; 3</text>
<polygon fill="#ffffff" stroke="transparent" points="941,-132 941,-150 1023,-150 1023,-132 941,-132"/>
<polygon fill="none" stroke="#000000" points="941,-132 941,-150 1023,-150 1023,-132 941,-132"/>
<text text-anchor="start" x="987" y="-138.2" font-family="Helvetica,sans-Serif" font-size="11.00" fill="#000000">0 rows</text>
<polygon fill="#ffffff" stroke="transparent" points="1023,-132 1023,-150 1080,-150 1080,-132 1023,-132"/>
<polygon fill="none" stroke="#000000" points="1023,-132 1023,-150 1080,-150 1080,-132 1023,-132"/>
<text text-anchor="start" x="1070" y="-138.2" font-family="Helvetica,sans-Serif" font-size="11.00" fill="#000000"> &#160;</text>
</a>
</g>
</g>
<!-- scribal_font_glyph_metrics_owner&#45;&gt;scribal_font_glyph_metrics -->
<g id="edge4" class="edge">
<title>scribal_font_glyph_metrics_owner:w&#45;&gt;scribal_font_glyph_metrics:e</title>
<path fill="none" stroke="#000000" d="M817.4203,-205C805.5435,-205 798.158,-205 781.5,-205"/>
<polygon fill="#000000" stroke="#000000" points="824,-205.0001 832,-208.6 828,-205 832,-205 832,-205 832,-205 828,-205 832,-201.4 824,-205.0001 824,-205.0001"/>
<ellipse fill="none" stroke="#000000" cx="820.8" cy="-205.0001" rx="3.2" ry="3.2"/>
</g>
</g>
</svg>
