<?xml version="1.0" encoding="UTF-8" standalone="no"?>
<!DOCTYPE svg PUBLIC "-//W3C//DTD SVG 1.1//EN"
 "http://www.w3.org/Graphics/SVG/1.1/DTD/svg11.dtd">
<!-- Generated by graphviz version 2.40.1 (20161225.0304)
 -->
<!-- Title: oneDegreeRelationshipsDiagram Pages: 1 -->
<svg width="635pt" height="219pt"
 viewBox="0.00 0.00 635.00 219.00" xmlns="http://www.w3.org/2000/svg" xmlns:xlink="http://www.w3.org/1999/xlink">
<g id="graph0" class="graph" transform="scale(1 1) rotate(0) translate(4 215)">
<title>oneDegreeRelationshipsDiagram</title>
<polygon fill="#ffffff" stroke="transparent" points="-4,4 -4,-215 631,-215 631,4 -4,4"/>
<text text-anchor="middle" x="71.5" y="-7.2" font-family="Helvetica,sans-Serif" font-size="11.00" fill="#000000">Generated by SchemaSpy</text>
<!-- scribe -->
<g id="node1" class="node">
<title>scribe</title>
<g id="a_node1"><a xlink:href="../../tables/scribe.html" xlink:title="scribe" target="_top">
<polygon fill="#ffffff" stroke="transparent" points="220,-75 220,-207 437,-207 437,-75 220,-75"/>
<polygon fill="#f5f5f5" stroke="transparent" points="222.5,-183 222.5,-205 435.5,-205 435.5,-183 222.5,-183"/>
<polygon fill="none" stroke="#000000" points="222.5,-183 222.5,-205 435.5,-205 435.5,-183 222.5,-183"/>
<text text-anchor="start" x="227.5" y="-192.2" font-family="Helvetica,sans-Serif" font-weight="bold" font-size="11.00" fill="#000000">scribe</text>
<text text-anchor="start" x="400.5" y="-191.2" font-family="Helvetica,sans-Serif" font-size="11.00" fill="#000000">[table]</text>
<polygon fill="none" stroke="#000000" points="222.5,-161 222.5,-183 319.5,-183 319.5,-161 222.5,-161"/>
<image xlink:href="../../images/primaryKeys.png" width="11px" height="12px" preserveAspectRatio="xMinYMin meet" x="227.5" y="-178"/>
<text text-anchor="start" x="242.5" y="-169.2" font-family="Helvetica,sans-Serif" font-size="11.00" fill="#000000">scribe_id</text>
<polygon fill="none" stroke="#000000" points="319.5,-161 319.5,-183 435.5,-183 435.5,-161 319.5,-161"/>
<text text-anchor="start" x="322.5" y="-169.2" font-family="Helvetica,sans-Serif" font-size="11.00" fill="#000000">int unsigned[10]</text>
<polygon fill="none" stroke="#000000" points="222.5,-139 222.5,-161 319.5,-161 319.5,-139 222.5,-139"/>
<text text-anchor="start" x="242.5" y="-147.2" font-family="Helvetica,sans-Serif" font-size="11.00" fill="#000000">description</text>
<polygon fill="none" stroke="#000000" points="319.5,-139 319.5,-161 435.5,-161 435.5,-139 319.5,-139"/>
<text text-anchor="start" x="322.5" y="-147.2" font-family="Helvetica,sans-Serif" font-size="11.00" fill="#000000">varchar[255]</text>
<polygon fill="none" stroke="#000000" points="222.5,-117 222.5,-139 319.5,-139 319.5,-117 222.5,-117"/>
<text text-anchor="start" x="242.5" y="-125.2" font-family="Helvetica,sans-Serif" font-size="11.00" fill="#000000">commetary</text>
<polygon fill="none" stroke="#000000" points="319.5,-117 319.5,-139 435.5,-139 435.5,-117 319.5,-117"/>
<text text-anchor="start" x="322.5" y="-125.2" font-family="Helvetica,sans-Serif" font-size="11.00" fill="#000000">mediumtext[16777215]</text>
<polygon fill="#ffffff" stroke="transparent" points="222.5,-95 222.5,-117 319.5,-117 319.5,-95 222.5,-95"/>
<polygon fill="none" stroke="#000000" points="222.5,-95 222.5,-117 319.5,-117 319.5,-95 222.5,-95"/>
<image xlink:href="../../images/foreignKeys.png" width="11px" height="12px" preserveAspectRatio="xMinYMin meet" x="227.5" y="-112"/>
<text text-anchor="start" x="242.5" y="-103.2" font-family="Helvetica,sans-Serif" font-size="11.00" fill="#000000">creator_id</text>
<polygon fill="none" stroke="#000000" points="319.5,-95 319.5,-117 435.5,-117 435.5,-95 319.5,-95"/>
<text text-anchor="start" x="322.5" y="-103.2" font-family="Helvetica,sans-Serif" font-size="11.00" fill="#000000">int unsigned[10]</text>
<polygon fill="#ffffff" stroke="transparent" points="222.5,-77 222.5,-95 262.5,-95 262.5,-77 222.5,-77"/>
<polygon fill="none" stroke="#000000" points="222.5,-77 222.5,-95 262.5,-95 262.5,-77 222.5,-77"/>
<text text-anchor="start" x="225.5" y="-83.2" font-family="Helvetica,sans-Serif" font-size="11.00" fill="#000000">&lt; 1</text>
<polygon fill="#ffffff" stroke="transparent" points="262.5,-77 262.5,-95 319.5,-95 319.5,-77 262.5,-77"/>
<polygon fill="none" stroke="#000000" points="262.5,-77 262.5,-95 319.5,-95 319.5,-77 262.5,-77"/>
<text text-anchor="start" x="283.5" y="-83.2" font-family="Helvetica,sans-Serif" font-size="11.00" fill="#000000">0 rows</text>
<polygon fill="#ffffff" stroke="transparent" points="319.5,-77 319.5,-95 435.5,-95 435.5,-77 319.5,-77"/>
<polygon fill="none" stroke="#000000" points="319.5,-77 319.5,-95 435.5,-95 435.5,-77 319.5,-77"/>
<text text-anchor="start" x="416.5" y="-83.2" font-family="Helvetica,sans-Serif" font-size="11.00" fill="#000000">1 &gt;</text>
<polygon fill="none" stroke="#000000" stroke-width="2" points="221,-76 221,-206 436,-206 436,-76 221,-76"/>
</a>
</g>
</g>
<!-- user -->
<g id="node2" class="node">
<title>user</title>
<g id="a_node2"><a xlink:href="../../tables/user.html" xlink:title="user" target="_top">
<polygon fill="#ffffff" stroke="transparent" points="8,-37 8,-139 171,-139 171,-37 8,-37"/>
<polygon fill="#f5f5f5" stroke="transparent" points="8.5,-117 8.5,-139 171.5,-139 171.5,-117 8.5,-117"/>
<polygon fill="none" stroke="#000000" points="8.5,-117 8.5,-139 171.5,-139 171.5,-117 8.5,-117"/>
<text text-anchor="start" x="13.5" y="-126.2" font-family="Helvetica,sans-Serif" font-weight="bold" font-size="11.00" fill="#000000">user</text>
<text text-anchor="start" x="136.5" y="-125.2" font-family="Helvetica,sans-Serif" font-size="11.00" fill="#000000">[table]</text>
<polygon fill="none" stroke="#000000" points="8.5,-95 8.5,-117 171.5,-117 171.5,-95 8.5,-95"/>
<image xlink:href="../../images/primaryKeys.png" width="11px" height="12px" preserveAspectRatio="xMinYMin meet" x="13.5" y="-112"/>
<text text-anchor="start" x="28.5" y="-103.2" font-family="Helvetica,sans-Serif" font-size="11.00" fill="#000000">user_id</text>
<polygon fill="#ffffff" stroke="transparent" points="8.5,-73 8.5,-95 171.5,-95 171.5,-73 8.5,-73"/>
<polygon fill="none" stroke="#000000" points="8.5,-73 8.5,-95 171.5,-95 171.5,-73 8.5,-73"/>
<text text-anchor="start" x="28.5" y="-81.2" font-family="Helvetica,sans-Serif" font-size="11.00" fill="#000000">email</text>
<polygon fill="none" stroke="#000000" points="8.5,-55 8.5,-73 171.5,-73 171.5,-55 8.5,-55"/>
<text text-anchor="start" x="11.5" y="-61.2" font-family="Helvetica,sans-Serif" font-size="11.00" fill="#000000">...</text>
<polygon fill="#ffffff" stroke="transparent" points="8.5,-37 8.5,-55 62.5,-55 62.5,-37 8.5,-37"/>
<polygon fill="none" stroke="#000000" points="8.5,-37 8.5,-55 62.5,-55 62.5,-37 8.5,-37"/>
<text text-anchor="start" x="11.5" y="-43.2" font-family="Helvetica,sans-Serif" font-size="11.00" fill="#000000"> &#160;</text>
<polygon fill="#ffffff" stroke="transparent" points="62.5,-37 62.5,-55 122.5,-55 122.5,-37 62.5,-37"/>
<polygon fill="none" stroke="#000000" points="62.5,-37 62.5,-55 122.5,-55 122.5,-37 62.5,-37"/>
<text text-anchor="start" x="86.5" y="-43.2" font-family="Helvetica,sans-Serif" font-size="11.00" fill="#000000">3 rows</text>
<polygon fill="#ffffff" stroke="transparent" points="122.5,-37 122.5,-55 171.5,-55 171.5,-37 122.5,-37"/>
<polygon fill="none" stroke="#000000" points="122.5,-37 122.5,-55 171.5,-55 171.5,-37 122.5,-37"/>
<text text-anchor="start" x="146.5" y="-43.2" font-family="Helvetica,sans-Serif" font-size="11.00" fill="#000000">40 &gt;</text>
</a>
</g>
</g>
<!-- scribe&#45;&gt;user -->
<g id="edge1" class="edge">
<title>scribe:w&#45;&gt;user:e</title>
<path fill="none" stroke="#000000" d="M207.776,-106C195.7815,-106 188.3229,-106 171.5,-106"/>
<polygon fill="#000000" stroke="#000000" points="214.5,-106.0001 222.5,-109.6 218.5,-106 222.5,-106 222.5,-106 222.5,-106 218.5,-106 222.5,-102.4 214.5,-106.0001 214.5,-106.0001"/>
<ellipse fill="none" stroke="#000000" cx="211.3" cy="-106.0001" rx="3.2" ry="3.2"/>
</g>
<!-- scribe_owner -->
<g id="node3" class="node">
<title>scribe_owner</title>
<g id="a_node3"><a xlink:href="../../tables/scribe_owner.html" xlink:title="scribe_owner" target="_top">
<polygon fill="#ffffff" stroke="transparent" points="486,-99 486,-205 619,-205 619,-99 486,-99"/>
<polygon fill="#f5f5f5" stroke="transparent" points="486.5,-183 486.5,-205 619.5,-205 619.5,-183 486.5,-183"/>
<polygon fill="none" stroke="#000000" points="486.5,-183 486.5,-205 619.5,-205 619.5,-183 486.5,-183"/>
<text text-anchor="start" x="491.5" y="-192.2" font-family="Helvetica,sans-Serif" font-weight="bold" font-size="11.00" fill="#000000">scribe_owner</text>
<text text-anchor="start" x="584.5" y="-191.2" font-family="Helvetica,sans-Serif" font-size="11.00" fill="#000000">[table]</text>
<polygon fill="none" stroke="#000000" points="486.5,-161 486.5,-183 619.5,-183 619.5,-161 486.5,-161"/>
<image xlink:href="../../images/primaryKeys.png" width="11px" height="12px" preserveAspectRatio="xMinYMin meet" x="491.5" y="-178"/>
<text text-anchor="start" x="506.5" y="-169.2" font-family="Helvetica,sans-Serif" font-size="11.00" fill="#000000">scribe_id</text>
<polygon fill="#ffffff" stroke="transparent" points="486.5,-139 486.5,-161 619.5,-161 619.5,-139 486.5,-139"/>
<polygon fill="none" stroke="#000000" points="486.5,-139 486.5,-161 619.5,-161 619.5,-139 486.5,-139"/>
<image xlink:href="../../images/foreignKeys.png" width="11px" height="12px" preserveAspectRatio="xMinYMin meet" x="491.5" y="-156"/>
<text text-anchor="start" x="506.5" y="-147.2" font-family="Helvetica,sans-Serif" font-size="11.00" fill="#000000">edition_editor_id</text>
<polygon fill="none" stroke="#000000" points="486.5,-117 486.5,-139 619.5,-139 619.5,-117 486.5,-117"/>
<image xlink:href="../../images/primaryKeys.png" width="11px" height="12px" preserveAspectRatio="xMinYMin meet" x="491.5" y="-134"/>
<text text-anchor="start" x="506.5" y="-125.2" font-family="Helvetica,sans-Serif" font-size="11.00" fill="#000000">edition_id</text>
<polygon fill="#ffffff" stroke="transparent" points="486.5,-99 486.5,-117 537.5,-117 537.5,-99 486.5,-99"/>
<polygon fill="none" stroke="#000000" points="486.5,-99 486.5,-117 537.5,-117 537.5,-99 486.5,-99"/>
<text text-anchor="start" x="489.5" y="-105.2" font-family="Helvetica,sans-Serif" font-size="11.00" fill="#000000">&lt; 3</text>
<polygon fill="#ffffff" stroke="transparent" points="537.5,-99 537.5,-117 591.5,-117 591.5,-99 537.5,-99"/>
<polygon fill="none" stroke="#000000" points="537.5,-99 537.5,-117 591.5,-117 591.5,-99 537.5,-99"/>
<text text-anchor="start" x="555.5" y="-105.2" font-family="Helvetica,sans-Serif" font-size="11.00" fill="#000000">0 rows</text>
<polygon fill="#ffffff" stroke="transparent" points="591.5,-99 591.5,-117 619.5,-117 619.5,-99 591.5,-99"/>
<polygon fill="none" stroke="#000000" points="591.5,-99 591.5,-117 619.5,-117 619.5,-99 591.5,-99"/>
<text text-anchor="start" x="609.5" y="-105.2" font-family="Helvetica,sans-Serif" font-size="11.00" fill="#000000"> &#160;</text>
</a>
</g>
</g>
<!-- scribe_owner&#45;&gt;scribe -->
<g id="edge2" class="edge">
<title>scribe_owner:w&#45;&gt;scribe:e</title>
<path fill="none" stroke="#000000" d="M471.776,-172C459.7815,-172 452.3229,-172 435.5,-172"/>
<polygon fill="#000000" stroke="#000000" points="478.5,-172.0001 486.5,-175.6 482.5,-172 486.5,-172 486.5,-172 486.5,-172 482.5,-172 486.5,-168.4 478.5,-172.0001 478.5,-172.0001"/>
<ellipse fill="none" stroke="#000000" cx="475.3" cy="-172.0001" rx="3.2" ry="3.2"/>
</g>
</g>
</svg>
