<?xml version="1.0" encoding="UTF-8" standalone="no"?>
<!DOCTYPE svg PUBLIC "-//W3C//DTD SVG 1.1//EN"
 "http://www.w3.org/Graphics/SVG/1.1/DTD/svg11.dtd">
<!-- Generated by graphviz version 2.40.1 (20161225.0304)
 -->
<!-- Title: oneDegreeRelationshipsDiagram Pages: 1 -->
<svg width="892pt" height="398pt"
 viewBox="0.00 0.00 892.00 398.00" xmlns="http://www.w3.org/2000/svg" xmlns:xlink="http://www.w3.org/1999/xlink">
<g id="graph0" class="graph" transform="scale(1 1) rotate(0) translate(4 394)">
<title>oneDegreeRelationshipsDiagram</title>
<polygon fill="#ffffff" stroke="transparent" points="-4,4 -4,-394 888,-394 888,4 -4,4"/>
<text text-anchor="middle" x="71.5" y="-7.2" font-family="Helvetica,sans-Serif" font-size="11.00" fill="#000000">Generated by SchemaSpy</text>
<!-- edition_editor -->
<g id="node1" class="node">
<title>edition_editor</title>
<g id="a_node1"><a xlink:href="../../tables/edition_editor.html" xlink:title="edition_editor" target="_top">
<polygon fill="#ffffff" stroke="transparent" points="255.5,-95 255.5,-219 388.5,-219 388.5,-95 255.5,-95"/>
<polygon fill="#f5f5f5" stroke="transparent" points="256,-197 256,-219 389,-219 389,-197 256,-197"/>
<polygon fill="none" stroke="#000000" points="256,-197 256,-219 389,-219 389,-197 256,-197"/>
<text text-anchor="start" x="261" y="-206.2" font-family="Helvetica,sans-Serif" font-weight="bold" font-size="11.00" fill="#000000">edition_editor</text>
<text text-anchor="start" x="354" y="-205.2" font-family="Helvetica,sans-Serif" font-size="11.00" fill="#000000">[table]</text>
<polygon fill="none" stroke="#000000" points="256,-175 256,-197 389,-197 389,-175 256,-175"/>
<image xlink:href="../../images/primaryKeys.png" width="11px" height="12px" preserveAspectRatio="xMinYMin meet" x="261" y="-192"/>
<text text-anchor="start" x="276" y="-183.2" font-family="Helvetica,sans-Serif" font-size="11.00" fill="#000000">edition_editor_id</text>
<polygon fill="#ffffff" stroke="transparent" points="256,-153 256,-175 389,-175 389,-153 256,-153"/>
<polygon fill="none" stroke="#000000" points="256,-153 256,-175 389,-175 389,-153 256,-153"/>
<image xlink:href="../../images/foreignKeys.png" width="11px" height="12px" preserveAspectRatio="xMinYMin meet" x="261" y="-170"/>
<text text-anchor="start" x="276" y="-161.2" font-family="Helvetica,sans-Serif" font-size="11.00" fill="#000000">user_id</text>
<polygon fill="#ffffff" stroke="transparent" points="256,-131 256,-153 389,-153 389,-131 256,-131"/>
<polygon fill="none" stroke="#000000" points="256,-131 256,-153 389,-153 389,-131 256,-131"/>
<image xlink:href="../../images/foreignKeys.png" width="11px" height="12px" preserveAspectRatio="xMinYMin meet" x="261" y="-148"/>
<text text-anchor="start" x="276" y="-139.2" font-family="Helvetica,sans-Serif" font-size="11.00" fill="#000000">edition_id</text>
<polygon fill="none" stroke="#000000" points="256,-113 256,-131 389,-131 389,-113 256,-113"/>
<text text-anchor="start" x="259" y="-119.2" font-family="Helvetica,sans-Serif" font-size="11.00" fill="#000000">...</text>
<polygon fill="#ffffff" stroke="transparent" points="256,-95 256,-113 289,-113 289,-95 256,-95"/>
<polygon fill="none" stroke="#000000" points="256,-95 256,-113 289,-113 289,-95 256,-95"/>
<text text-anchor="start" x="259" y="-101.2" font-family="Helvetica,sans-Serif" font-size="11.00" fill="#000000">&lt; 2</text>
<polygon fill="#ffffff" stroke="transparent" points="289,-95 289,-113 355,-113 355,-95 289,-95"/>
<polygon fill="none" stroke="#000000" points="289,-95 289,-113 355,-113 355,-95 289,-95"/>
<text text-anchor="start" x="298" y="-101.2" font-family="Helvetica,sans-Serif" font-size="11.00" fill="#000000">1,645 rows</text>
<polygon fill="#ffffff" stroke="transparent" points="355,-95 355,-113 389,-113 389,-95 355,-95"/>
<polygon fill="none" stroke="#000000" points="355,-95 355,-113 389,-113 389,-95 355,-95"/>
<text text-anchor="start" x="364" y="-101.2" font-family="Helvetica,sans-Serif" font-size="11.00" fill="#000000">30 &gt;</text>
</a>
</g>
</g>
<!-- edition -->
<g id="node2" class="node">
<title>edition</title>
<g id="a_node2"><a xlink:href="../../tables/edition.html" xlink:title="edition" target="_top">
<polygon fill="#ffffff" stroke="transparent" points="8,-37 8,-139 143,-139 143,-37 8,-37"/>
<polygon fill="#f5f5f5" stroke="transparent" points="8.5,-117 8.5,-139 143.5,-139 143.5,-117 8.5,-117"/>
<polygon fill="none" stroke="#000000" points="8.5,-117 8.5,-139 143.5,-139 143.5,-117 8.5,-117"/>
<text text-anchor="start" x="13.5" y="-126.2" font-family="Helvetica,sans-Serif" font-weight="bold" font-size="11.00" fill="#000000">edition</text>
<text text-anchor="start" x="108.5" y="-125.2" font-family="Helvetica,sans-Serif" font-size="11.00" fill="#000000">[table]</text>
<polygon fill="none" stroke="#000000" points="8.5,-95 8.5,-117 143.5,-117 143.5,-95 8.5,-95"/>
<image xlink:href="../../images/primaryKeys.png" width="11px" height="12px" preserveAspectRatio="xMinYMin meet" x="13.5" y="-112"/>
<text text-anchor="start" x="28.5" y="-103.2" font-family="Helvetica,sans-Serif" font-size="11.00" fill="#000000">edition_id</text>
<polygon fill="#ffffff" stroke="transparent" points="8.5,-73 8.5,-95 143.5,-95 143.5,-73 8.5,-73"/>
<polygon fill="none" stroke="#000000" points="8.5,-73 8.5,-95 143.5,-95 143.5,-73 8.5,-73"/>
<image xlink:href="../../images/foreignKeys.png" width="11px" height="12px" preserveAspectRatio="xMinYMin meet" x="13.5" y="-90"/>
<text text-anchor="start" x="28.5" y="-81.2" font-family="Helvetica,sans-Serif" font-size="11.00" fill="#000000">manuscript_id</text>
<polygon fill="none" stroke="#000000" points="8.5,-55 8.5,-73 143.5,-73 143.5,-55 8.5,-55"/>
<text text-anchor="start" x="11.5" y="-61.2" font-family="Helvetica,sans-Serif" font-size="11.00" fill="#000000">...</text>
<polygon fill="#ffffff" stroke="transparent" points="8.5,-37 8.5,-55 42.5,-55 42.5,-37 8.5,-37"/>
<polygon fill="none" stroke="#000000" points="8.5,-37 8.5,-55 42.5,-55 42.5,-37 8.5,-37"/>
<text text-anchor="start" x="11.5" y="-43.2" font-family="Helvetica,sans-Serif" font-size="11.00" fill="#000000">&lt; 1</text>
<polygon fill="#ffffff" stroke="transparent" points="42.5,-37 42.5,-55 108.5,-55 108.5,-37 42.5,-37"/>
<polygon fill="none" stroke="#000000" points="42.5,-37 42.5,-55 108.5,-55 108.5,-37 42.5,-37"/>
<text text-anchor="start" x="51.5" y="-43.2" font-family="Helvetica,sans-Serif" font-size="11.00" fill="#000000">1,645 rows</text>
<polygon fill="#ffffff" stroke="transparent" points="108.5,-37 108.5,-55 143.5,-55 143.5,-37 108.5,-37"/>
<polygon fill="none" stroke="#000000" points="108.5,-37 108.5,-55 143.5,-55 143.5,-37 108.5,-37"/>
<text text-anchor="start" x="118.5" y="-43.2" font-family="Helvetica,sans-Serif" font-size="11.00" fill="#000000">32 &gt;</text>
</a>
</g>
</g>
<!-- edition_editor&#45;&gt;edition -->
<g id="edge1" class="edge">
<title>edition_editor:w&#45;&gt;edition:e</title>
<path fill="none" stroke="#000000" d="M241.5626,-140.9996C201.5609,-135.1853 190.7684,-106 143.5,-106"/>
<polygon fill="#000000" stroke="#000000" points="248.0191,-141.4469 255.7511,-145.5914 252.0096,-141.7235 256,-142 256,-142 256,-142 252.0096,-141.7235 256.2489,-138.4086 248.0191,-141.4469 248.0191,-141.4469"/>
<ellipse fill="none" stroke="#000000" cx="244.8268" cy="-141.2257" rx="3.2" ry="3.2"/>
</g>
<!-- sign_interpretation_commentary_owner -->
<g id="node3" class="node">
<title>sign_interpretation_commentary_owner</title>
<g id="a_node3"><a xlink:href="../../tables/sign_interpretation_commentary_owner.html" xlink:title="sign_interpretation_commentary_owner" target="_top">
<polygon fill="#ffffff" stroke="transparent" points="501,-133 501,-243 876,-243 876,-133 501,-133"/>
<polygon fill="#f5f5f5" stroke="transparent" points="503.5,-219 503.5,-241 874.5,-241 874.5,-219 503.5,-219"/>
<polygon fill="none" stroke="#000000" points="503.5,-219 503.5,-241 874.5,-241 874.5,-219 503.5,-219"/>
<text text-anchor="start" x="508.5" y="-228.2" font-family="Helvetica,sans-Serif" font-weight="bold" font-size="11.00" fill="#000000">sign_interpretation_commentary_owner</text>
<text text-anchor="start" x="839.5" y="-227.2" font-family="Helvetica,sans-Serif" font-size="11.00" fill="#000000">[table]</text>
<polygon fill="none" stroke="#000000" points="503.5,-197 503.5,-219 792.5,-219 792.5,-197 503.5,-197"/>
<image xlink:href="../../images/primaryKeys.png" width="11px" height="12px" preserveAspectRatio="xMinYMin meet" x="508.5" y="-214"/>
<text text-anchor="start" x="523.5" y="-205.2" font-family="Helvetica,sans-Serif" font-size="11.00" fill="#000000">sign_interpretation_commentary_id</text>
<polygon fill="none" stroke="#000000" points="792.5,-197 792.5,-219 874.5,-219 874.5,-197 792.5,-197"/>
<text text-anchor="start" x="795.5" y="-205.2" font-family="Helvetica,sans-Serif" font-size="11.00" fill="#000000">int unsigned[10]</text>
<polygon fill="#ffffff" stroke="transparent" points="503.5,-175 503.5,-197 792.5,-197 792.5,-175 503.5,-175"/>
<polygon fill="none" stroke="#000000" points="503.5,-175 503.5,-197 792.5,-197 792.5,-175 503.5,-175"/>
<image xlink:href="../../images/foreignKeys.png" width="11px" height="12px" preserveAspectRatio="xMinYMin meet" x="508.5" y="-192"/>
<text text-anchor="start" x="523.5" y="-183.2" font-family="Helvetica,sans-Serif" font-size="11.00" fill="#000000">edition_editor_id</text>
<polygon fill="none" stroke="#000000" points="792.5,-175 792.5,-197 874.5,-197 874.5,-175 792.5,-175"/>
<text text-anchor="start" x="795.5" y="-183.2" font-family="Helvetica,sans-Serif" font-size="11.00" fill="#000000">int unsigned[10]</text>
<polygon fill="none" stroke="#000000" points="503.5,-153 503.5,-175 792.5,-175 792.5,-153 503.5,-153"/>
<image xlink:href="../../images/primaryKeys.png" width="11px" height="12px" preserveAspectRatio="xMinYMin meet" x="508.5" y="-170"/>
<text text-anchor="start" x="523.5" y="-161.2" font-family="Helvetica,sans-Serif" font-size="11.00" fill="#000000">edition_id</text>
<polygon fill="none" stroke="#000000" points="792.5,-153 792.5,-175 874.5,-175 874.5,-153 792.5,-153"/>
<text text-anchor="start" x="795.5" y="-161.2" font-family="Helvetica,sans-Serif" font-size="11.00" fill="#000000">int unsigned[10]</text>
<polygon fill="#ffffff" stroke="transparent" points="503.5,-135 503.5,-153 639.5,-153 639.5,-135 503.5,-135"/>
<polygon fill="none" stroke="#000000" points="503.5,-135 503.5,-153 639.5,-153 639.5,-135 503.5,-135"/>
<text text-anchor="start" x="506.5" y="-141.2" font-family="Helvetica,sans-Serif" font-size="11.00" fill="#000000">&lt; 3</text>
<polygon fill="#ffffff" stroke="transparent" points="639.5,-135 639.5,-153 792.5,-153 792.5,-135 639.5,-135"/>
<polygon fill="none" stroke="#000000" points="639.5,-135 639.5,-153 792.5,-153 792.5,-135 639.5,-135"/>
<text text-anchor="start" x="756.5" y="-141.2" font-family="Helvetica,sans-Serif" font-size="11.00" fill="#000000">0 rows</text>
<polygon fill="#ffffff" stroke="transparent" points="792.5,-135 792.5,-153 874.5,-153 874.5,-135 792.5,-135"/>
<polygon fill="none" stroke="#000000" points="792.5,-135 792.5,-153 874.5,-153 874.5,-135 792.5,-135"/>
<text text-anchor="start" x="855.5" y="-141.2" font-family="Helvetica,sans-Serif" font-size="11.00" fill="#000000">0 &gt;</text>
<polygon fill="none" stroke="#000000" stroke-width="2" points="502,-134 502,-242 875,-242 875,-134 502,-134"/>
</a>
</g>
</g>
<!-- sign_interpretation_commentary_owner&#45;&gt;edition_editor -->
<g id="edge2" class="edge">
<title>sign_interpretation_commentary_owner:w&#45;&gt;edition_editor:e</title>
<path fill="none" stroke="#000000" d="M489.0959,-186C449.6332,-186 434.7205,-186 389,-186"/>
<polygon fill="#000000" stroke="#000000" points="495.5,-186.0001 503.5,-189.6 499.5,-186 503.5,-186 503.5,-186 503.5,-186 499.5,-186 503.5,-182.4 495.5,-186.0001 495.5,-186.0001"/>
<ellipse fill="none" stroke="#000000" cx="492.3" cy="-186.0001" rx="3.2" ry="3.2"/>
</g>
<!-- sign_interpretation_commentary_owner&#45;&gt;edition -->
<g id="edge3" class="edge">
<title>sign_interpretation_commentary_owner:w&#45;&gt;edition:e</title>
<path fill="none" stroke="#000000" d="M489.5416,-160.2163C471.1605,-146.8233 489.4884,-101.5315 460,-84 354.5603,-21.3137 302.8894,-53.7935 184,-84 164.1465,-89.0442 163.9843,-106 143.5,-106"/>
<polygon fill="#000000" stroke="#000000" points="495.7786,-161.9069 502.5581,-167.4746 499.6393,-162.9535 503.5,-164 503.5,-164 503.5,-164 499.6393,-162.9535 504.4419,-160.5254 495.7786,-161.9069 495.7786,-161.9069"/>
<ellipse fill="none" stroke="#000000" cx="492.6901" cy="-161.0697" rx="3.2" ry="3.2"/>
</g>
<!-- sign_interpretation_commentary -->
<g id="node4" class="node">
<title>sign_interpretation_commentary</title>
<g id="a_node4"><a xlink:href="../../tables/sign_interpretation_commentary.html" xlink:title="sign_interpretation_commentary" target="_top">
<polygon fill="#ffffff" stroke="transparent" points="192,-240 192,-386 452,-386 452,-240 192,-240"/>
<polygon fill="#f5f5f5" stroke="transparent" points="192,-364 192,-386 452,-386 452,-364 192,-364"/>
<polygon fill="none" stroke="#000000" points="192,-364 192,-386 452,-386 452,-364 192,-364"/>
<text text-anchor="start" x="197" y="-373.2" font-family="Helvetica,sans-Serif" font-weight="bold" font-size="11.00" fill="#000000">sign_interpretation_commentary</text>
<text text-anchor="start" x="417" y="-372.2" font-family="Helvetica,sans-Serif" font-size="11.00" fill="#000000">[table]</text>
<polygon fill="none" stroke="#000000" points="192,-342 192,-364 452,-364 452,-342 192,-342"/>
<image xlink:href="../../images/primaryKeys.png" width="11px" height="12px" preserveAspectRatio="xMinYMin meet" x="197" y="-359"/>
<text text-anchor="start" x="212" y="-350.2" font-family="Helvetica,sans-Serif" font-size="11.00" fill="#000000">sign_interpretation_commentary_id</text>
<polygon fill="#ffffff" stroke="transparent" points="192,-320 192,-342 452,-342 452,-320 192,-320"/>
<polygon fill="none" stroke="#000000" points="192,-320 192,-342 452,-342 452,-320 192,-320"/>
<image xlink:href="../../images/foreignKeys.png" width="11px" height="12px" preserveAspectRatio="xMinYMin meet" x="197" y="-337"/>
<text text-anchor="start" x="212" y="-328.2" font-family="Helvetica,sans-Serif" font-size="11.00" fill="#000000">sign_interpretation_id</text>
<polygon fill="#ffffff" stroke="transparent" points="192,-298 192,-320 452,-320 452,-298 192,-298"/>
<polygon fill="none" stroke="#000000" points="192,-298 192,-320 452,-320 452,-298 192,-298"/>
<image xlink:href="../../images/foreignKeys.png" width="11px" height="12px" preserveAspectRatio="xMinYMin meet" x="197" y="-315"/>
<text text-anchor="start" x="212" y="-306.2" font-family="Helvetica,sans-Serif" font-size="11.00" fill="#000000">attribute_id</text>
<polygon fill="#ffffff" stroke="transparent" points="192,-276 192,-298 452,-298 452,-276 192,-276"/>
<polygon fill="none" stroke="#000000" points="192,-276 192,-298 452,-298 452,-276 192,-276"/>
<image xlink:href="../../images/foreignKeys.png" width="11px" height="12px" preserveAspectRatio="xMinYMin meet" x="197" y="-293"/>
<text text-anchor="start" x="212" y="-284.2" font-family="Helvetica,sans-Serif" font-size="11.00" fill="#000000">creator_id</text>
<polygon fill="none" stroke="#000000" points="192,-258 192,-276 452,-276 452,-258 192,-258"/>
<text text-anchor="start" x="195" y="-264.2" font-family="Helvetica,sans-Serif" font-size="11.00" fill="#000000">...</text>
<polygon fill="#ffffff" stroke="transparent" points="192,-240 192,-258 302,-258 302,-240 192,-240"/>
<polygon fill="none" stroke="#000000" points="192,-240 192,-258 302,-258 302,-240 192,-240"/>
<text text-anchor="start" x="195" y="-246.2" font-family="Helvetica,sans-Serif" font-size="11.00" fill="#000000">&lt; 3</text>
<polygon fill="#ffffff" stroke="transparent" points="302,-240 302,-258 385,-258 385,-240 302,-240"/>
<polygon fill="none" stroke="#000000" points="302,-240 302,-258 385,-258 385,-240 302,-240"/>
<text text-anchor="start" x="349" y="-246.2" font-family="Helvetica,sans-Serif" font-size="11.00" fill="#000000">0 rows</text>
<polygon fill="#ffffff" stroke="transparent" points="385,-240 385,-258 452,-258 452,-240 385,-240"/>
<polygon fill="none" stroke="#000000" points="385,-240 385,-258 452,-258 452,-240 385,-240"/>
<text text-anchor="start" x="433" y="-246.2" font-family="Helvetica,sans-Serif" font-size="11.00" fill="#000000">1 &gt;</text>
</a>
</g>
</g>
<!-- sign_interpretation_commentary_owner&#45;&gt;sign_interpretation_commentary -->
<g id="edge4" class="edge">
<title>sign_interpretation_commentary_owner:w&#45;&gt;sign_interpretation_commentary:e</title>
<path fill="none" stroke="#000000" d="M489.3388,-210.8964C448.3515,-231.3327 514.6449,-353 452,-353"/>
<polygon fill="#000000" stroke="#000000" points="495.6623,-209.6031 504.2214,-211.527 499.5811,-208.8016 503.5,-208 503.5,-208 503.5,-208 499.5811,-208.8016 502.7786,-204.473 495.6623,-209.6031 495.6623,-209.6031"/>
<ellipse fill="none" stroke="#000000" cx="492.5272" cy="-210.2444" rx="3.2" ry="3.2"/>
</g>
</g>
</svg>
