<?xml version="1.0" encoding="UTF-8" standalone="no"?>
<!DOCTYPE svg PUBLIC "-//W3C//DTD SVG 1.1//EN"
 "http://www.w3.org/Graphics/SVG/1.1/DTD/svg11.dtd">
<!-- Generated by graphviz version 2.43.0 (0)
 -->
<!-- Title: oneDegreeRelationshipsDiagram Pages: 1 -->
<svg width="900pt" height="322pt"
 viewBox="0.00 0.00 900.00 322.00" xmlns="http://www.w3.org/2000/svg" xmlns:xlink="http://www.w3.org/1999/xlink">
<g id="graph0" class="graph" transform="scale(1 1) rotate(0) translate(4 318)">
<title>oneDegreeRelationshipsDiagram</title>
<polygon fill="#ffffff" stroke="transparent" points="-4,4 -4,-318 896,-318 896,4 -4,4"/>
<text text-anchor="middle" x="79.5" y="-7.2" font-family="Helvetica,sans-Serif" font-size="11.00">Generated by SchemaSpy</text>
<!-- sign_interpretation_attribute -->
<g id="node1" class="node">
<title>sign_interpretation_attribute</title>
<g id="a_node1"><a xlink:href="../../tables/sign_interpretation_attribute.html" xlink:title="sign_interpretation_attribute" target="_top">
<polygon fill="#ffffff" stroke="transparent" points="226,-116 226,-270 563,-270 563,-116 226,-116"/>
<polygon fill="#f5f5f5" stroke="transparent" points="228.5,-246 228.5,-268 561.5,-268 561.5,-246 228.5,-246"/>
<polygon fill="none" stroke="black" points="228.5,-246 228.5,-268 561.5,-268 561.5,-246 228.5,-246"/>
<text text-anchor="start" x="233.5" y="-255.2" font-family="Helvetica,sans-Serif" font-weight="bold" font-size="11.00">sign_interpretation_attribute</text>
<text text-anchor="start" x="519.5" y="-254.2" font-family="Helvetica,sans-Serif" font-size="11.00">[table]</text>
<polygon fill="none" stroke="black" points="228.5,-224 228.5,-246 464.5,-246 464.5,-224 228.5,-224"/>
<image xlink:href="../../images/primaryKeys.png" width="11px" height="12px" preserveAspectRatio="xMinYMin meet" x="233.5" y="-241"/>
<text text-anchor="start" x="248.5" y="-232.2" font-family="Helvetica,sans-Serif" font-size="11.00">sign_interpretation_attribute_id</text>
<polygon fill="none" stroke="black" points="464.5,-224 464.5,-246 561.5,-246 561.5,-224 464.5,-224"/>
<text text-anchor="start" x="467.5" y="-232.2" font-family="Helvetica,sans-Serif" font-size="11.00">int unsigned[10]</text>
<polygon fill="#ffffff" stroke="transparent" points="228.5,-202 228.5,-224 464.5,-224 464.5,-202 228.5,-202"/>
<polygon fill="none" stroke="black" points="228.5,-202 228.5,-224 464.5,-224 464.5,-202 228.5,-202"/>
<image xlink:href="../../images/foreignKeys.png" width="11px" height="12px" preserveAspectRatio="xMinYMin meet" x="233.5" y="-219"/>
<text text-anchor="start" x="248.5" y="-210.2" font-family="Helvetica,sans-Serif" font-size="11.00">sign_interpretation_id</text>
<polygon fill="none" stroke="black" points="464.5,-202 464.5,-224 561.5,-224 561.5,-202 464.5,-202"/>
<text text-anchor="start" x="467.5" y="-210.2" font-family="Helvetica,sans-Serif" font-size="11.00">int unsigned[10]</text>
<polygon fill="#ffffff" stroke="transparent" points="228.5,-180 228.5,-202 464.5,-202 464.5,-180 228.5,-180"/>
<polygon fill="none" stroke="black" points="228.5,-180 228.5,-202 464.5,-202 464.5,-180 228.5,-180"/>
<image xlink:href="../../images/foreignKeys.png" width="11px" height="12px" preserveAspectRatio="xMinYMin meet" x="233.5" y="-197"/>
<text text-anchor="start" x="248.5" y="-188.2" font-family="Helvetica,sans-Serif" font-size="11.00">attribute_value_id</text>
<polygon fill="none" stroke="black" points="464.5,-180 464.5,-202 561.5,-202 561.5,-180 464.5,-180"/>
<text text-anchor="start" x="467.5" y="-188.2" font-family="Helvetica,sans-Serif" font-size="11.00">int unsigned[10]</text>
<polygon fill="#ffffff" stroke="transparent" points="228.5,-158 228.5,-180 464.5,-180 464.5,-158 228.5,-158"/>
<polygon fill="none" stroke="black" points="228.5,-158 228.5,-180 464.5,-180 464.5,-158 228.5,-158"/>
<text text-anchor="start" x="248.5" y="-166.2" font-family="Helvetica,sans-Serif" font-size="11.00">sequence</text>
<polygon fill="none" stroke="black" points="464.5,-158 464.5,-180 561.5,-180 561.5,-158 464.5,-158"/>
<text text-anchor="start" x="467.5" y="-166.2" font-family="Helvetica,sans-Serif" font-size="11.00">tinyint[3]</text>
<polygon fill="none" stroke="black" points="228.5,-136 228.5,-158 464.5,-158 464.5,-136 228.5,-136"/>
<text text-anchor="start" x="248.5" y="-144.2" font-family="Helvetica,sans-Serif" font-size="11.00">numeric_value</text>
<polygon fill="none" stroke="black" points="464.5,-136 464.5,-158 561.5,-158 561.5,-136 464.5,-136"/>
<text text-anchor="start" x="467.5" y="-144.2" font-family="Helvetica,sans-Serif" font-size="11.00">float[12]</text>
<polygon fill="#ffffff" stroke="transparent" points="228.5,-118 228.5,-136 313.5,-136 313.5,-118 228.5,-118"/>
<polygon fill="none" stroke="black" points="228.5,-118 228.5,-136 313.5,-136 313.5,-118 228.5,-118"/>
<text text-anchor="start" x="231.5" y="-124.2" font-family="Helvetica,sans-Serif" font-size="11.00">&lt; 2</text>
<polygon fill="#ffffff" stroke="transparent" points="313.5,-118 313.5,-136 464.5,-136 464.5,-118 313.5,-118"/>
<polygon fill="none" stroke="black" points="313.5,-118 313.5,-136 464.5,-136 464.5,-118 313.5,-118"/>
<text text-anchor="start" x="376.5" y="-124.2" font-family="Helvetica,sans-Serif" font-size="11.00">2,557,225 rows</text>
<polygon fill="#ffffff" stroke="transparent" points="464.5,-118 464.5,-136 561.5,-136 561.5,-118 464.5,-118"/>
<polygon fill="none" stroke="black" points="464.5,-118 464.5,-136 561.5,-136 561.5,-118 464.5,-118"/>
<text text-anchor="start" x="538.5" y="-124.2" font-family="Helvetica,sans-Serif" font-size="11.00">1 &gt;</text>
<polygon fill="none" stroke="black" stroke-width="2" points="227,-117 227,-269 562,-269 562,-117 227,-117"/>
</a>
</g>
</g>
<!-- attribute_value -->
<g id="node2" class="node">
<title>attribute_value</title>
<g id="a_node2"><a xlink:href="../../tables/attribute_value.html" xlink:title="attribute_value" target="_top">
<polygon fill="#ffffff" stroke="transparent" points="20,-37 20,-161 165,-161 165,-37 20,-37"/>
<polygon fill="#f5f5f5" stroke="transparent" points="20.5,-139 20.5,-161 165.5,-161 165.5,-139 20.5,-139"/>
<polygon fill="none" stroke="black" points="20.5,-139 20.5,-161 165.5,-161 165.5,-139 20.5,-139"/>
<text text-anchor="start" x="25.5" y="-148.2" font-family="Helvetica,sans-Serif" font-weight="bold" font-size="11.00">attribute_value</text>
<text text-anchor="start" x="123.5" y="-147.2" font-family="Helvetica,sans-Serif" font-size="11.00">[table]</text>
<polygon fill="none" stroke="black" points="20.5,-117 20.5,-139 165.5,-139 165.5,-117 20.5,-117"/>
<image xlink:href="../../images/primaryKeys.png" width="11px" height="12px" preserveAspectRatio="xMinYMin meet" x="25.5" y="-134"/>
<text text-anchor="start" x="41.5" y="-125.2" font-family="Helvetica,sans-Serif" font-size="11.00">attribute_value_id</text>
<polygon fill="#ffffff" stroke="transparent" points="20.5,-95 20.5,-117 165.5,-117 165.5,-95 20.5,-95"/>
<polygon fill="none" stroke="black" points="20.5,-95 20.5,-117 165.5,-117 165.5,-95 20.5,-95"/>
<image xlink:href="../../images/foreignKeys.png" width="11px" height="12px" preserveAspectRatio="xMinYMin meet" x="25.5" y="-112"/>
<text text-anchor="start" x="41.5" y="-103.2" font-family="Helvetica,sans-Serif" font-size="11.00">attribute_id</text>
<polygon fill="#ffffff" stroke="transparent" points="20.5,-73 20.5,-95 165.5,-95 165.5,-73 20.5,-73"/>
<polygon fill="none" stroke="black" points="20.5,-73 20.5,-95 165.5,-95 165.5,-73 20.5,-73"/>
<text text-anchor="start" x="41.5" y="-81.2" font-family="Helvetica,sans-Serif" font-size="11.00">string_value</text>
<polygon fill="none" stroke="black" points="20.5,-55 20.5,-73 165.5,-73 165.5,-55 20.5,-55"/>
<text text-anchor="start" x="23.5" y="-61.2" font-family="Helvetica,sans-Serif" font-size="11.00">...</text>
<polygon fill="#ffffff" stroke="transparent" points="20.5,-37 20.5,-55 67.5,-55 67.5,-37 20.5,-37"/>
<polygon fill="none" stroke="black" points="20.5,-37 20.5,-55 67.5,-55 67.5,-37 20.5,-37"/>
<text text-anchor="start" x="23.5" y="-43.2" font-family="Helvetica,sans-Serif" font-size="11.00">&lt; 1</text>
<polygon fill="#ffffff" stroke="transparent" points="67.5,-37 67.5,-55 128.5,-55 128.5,-37 67.5,-37"/>
<polygon fill="none" stroke="black" points="67.5,-37 67.5,-55 128.5,-55 128.5,-37 67.5,-37"/>
<text text-anchor="start" x="81.5" y="-43.2" font-family="Helvetica,sans-Serif" font-size="11.00">44 rows</text>
<polygon fill="#ffffff" stroke="transparent" points="128.5,-37 128.5,-55 165.5,-55 165.5,-37 128.5,-37"/>
<polygon fill="none" stroke="black" points="128.5,-37 128.5,-55 165.5,-55 165.5,-37 128.5,-37"/>
<text text-anchor="start" x="142.5" y="-43.2" font-family="Helvetica,sans-Serif" font-size="11.00">3 &gt;</text>
</a>
</g>
</g>
<!-- sign_interpretation_attribute&#45;&gt;attribute_value -->
<g id="edge1" class="edge">
<title>sign_interpretation_attribute:w&#45;&gt;attribute_value:e</title>
<path fill="none" stroke="black" d="M213.47,-187.25C192.33,-173.68 199.69,-128 166.5,-128"/>
<polygon fill="black" stroke="black" points="219.77,-188.93 226.57,-194.48 223.64,-189.97 227.5,-191 227.5,-191 227.5,-191 223.64,-189.97 228.43,-187.52 219.77,-188.93 219.77,-188.93"/>
<ellipse fill="none" stroke="black" cx="216.68" cy="-188.11" rx="3.2" ry="3.2"/>
</g>
<!-- sign_interpretation -->
<g id="node3" class="node">
<title>sign_interpretation</title>
<g id="a_node3"><a xlink:href="../../tables/sign_interpretation.html" xlink:title="sign_interpretation" target="_top">
<polygon fill="#ffffff" stroke="transparent" points="8,-182 8,-310 177,-310 177,-182 8,-182"/>
<polygon fill="#f5f5f5" stroke="transparent" points="8.5,-288 8.5,-310 177.5,-310 177.5,-288 8.5,-288"/>
<polygon fill="none" stroke="black" points="8.5,-288 8.5,-310 177.5,-310 177.5,-288 8.5,-288"/>
<text text-anchor="start" x="13.5" y="-297.2" font-family="Helvetica,sans-Serif" font-weight="bold" font-size="11.00">sign_interpretation</text>
<text text-anchor="start" x="135.5" y="-296.2" font-family="Helvetica,sans-Serif" font-size="11.00">[table]</text>
<polygon fill="none" stroke="black" points="8.5,-266 8.5,-288 177.5,-288 177.5,-266 8.5,-266"/>
<image xlink:href="../../images/primaryKeys.png" width="11px" height="12px" preserveAspectRatio="xMinYMin meet" x="13.5" y="-283"/>
<text text-anchor="start" x="28.5" y="-274.2" font-family="Helvetica,sans-Serif" font-size="11.00">sign_interpretation_id</text>
<polygon fill="#ffffff" stroke="transparent" points="8.5,-244 8.5,-266 177.5,-266 177.5,-244 8.5,-244"/>
<polygon fill="none" stroke="black" points="8.5,-244 8.5,-266 177.5,-266 177.5,-244 8.5,-244"/>
<image xlink:href="../../images/foreignKeys.png" width="11px" height="12px" preserveAspectRatio="xMinYMin meet" x="13.5" y="-261"/>
<text text-anchor="start" x="28.5" y="-252.2" font-family="Helvetica,sans-Serif" font-size="11.00">sign_id</text>
<polygon fill="#ffffff" stroke="transparent" points="8.5,-222 8.5,-244 177.5,-244 177.5,-222 8.5,-222"/>
<polygon fill="none" stroke="black" points="8.5,-222 8.5,-244 177.5,-244 177.5,-222 8.5,-222"/>
<text text-anchor="start" x="28.5" y="-230.2" font-family="Helvetica,sans-Serif" font-size="11.00">is_variant</text>
<polygon fill="#ffffff" stroke="transparent" points="8.5,-200 8.5,-222 177.5,-222 177.5,-200 8.5,-200"/>
<polygon fill="none" stroke="black" points="8.5,-200 8.5,-222 177.5,-222 177.5,-200 8.5,-200"/>
<text text-anchor="start" x="28.5" y="-208.2" font-family="Helvetica,sans-Serif" font-size="11.00">character</text>
<polygon fill="#ffffff" stroke="transparent" points="8.5,-182 8.5,-200 47.5,-200 47.5,-182 8.5,-182"/>
<polygon fill="none" stroke="black" points="8.5,-182 8.5,-200 47.5,-200 47.5,-182 8.5,-182"/>
<text text-anchor="start" x="11.5" y="-188.2" font-family="Helvetica,sans-Serif" font-size="11.00">&lt; 1</text>
<polygon fill="#ffffff" stroke="transparent" points="47.5,-182 47.5,-200 144.5,-200 144.5,-182 47.5,-182"/>
<polygon fill="none" stroke="black" points="47.5,-182 47.5,-200 144.5,-200 144.5,-182 47.5,-182"/>
<text text-anchor="start" x="56.5" y="-188.2" font-family="Helvetica,sans-Serif" font-size="11.00">1,189,027 rows</text>
<polygon fill="#ffffff" stroke="transparent" points="144.5,-182 144.5,-200 177.5,-200 177.5,-182 144.5,-182"/>
<polygon fill="none" stroke="black" points="144.5,-182 144.5,-200 177.5,-200 177.5,-182 144.5,-182"/>
<text text-anchor="start" x="154.5" y="-188.2" font-family="Helvetica,sans-Serif" font-size="11.00">5 &gt;</text>
</a>
</g>
</g>
<!-- sign_interpretation_attribute&#45;&gt;sign_interpretation -->
<g id="edge2" class="edge">
<title>sign_interpretation_attribute:w&#45;&gt;sign_interpretation:e</title>
<path fill="none" stroke="black" d="M213.62,-218.02C197.73,-233.11 208.17,-277 178.5,-277"/>
<polygon fill="black" stroke="black" points="219.98,-215.72 228.72,-216.39 223.74,-214.36 227.5,-213 227.5,-213 227.5,-213 223.74,-214.36 226.28,-209.61 219.98,-215.72 219.98,-215.72"/>
<ellipse fill="none" stroke="black" cx="216.97" cy="-216.81" rx="3.2" ry="3.2"/>
</g>
<!-- sign_interpretation_attribute_owner -->
<g id="node4" class="node">
<title>sign_interpretation_attribute_owner</title>
<g id="a_node4"><a xlink:href="../../tables/sign_interpretation_attribute_owner.html" xlink:title="sign_interpretation_attribute_owner" target="_top">
<polygon fill="#ffffff" stroke="transparent" points="612,-162 612,-268 884,-268 884,-162 612,-162"/>
<polygon fill="#f5f5f5" stroke="transparent" points="612,-246 612,-268 884,-268 884,-246 612,-246"/>
<polygon fill="none" stroke="black" points="612,-246 612,-268 884,-268 884,-246 612,-246"/>
<text text-anchor="start" x="617" y="-255.2" font-family="Helvetica,sans-Serif" font-weight="bold" font-size="11.00">sign_interpretation_attribute_owner</text>
<text text-anchor="start" x="842" y="-254.2" font-family="Helvetica,sans-Serif" font-size="11.00">[table]</text>
<polygon fill="none" stroke="black" points="612,-224 612,-246 884,-246 884,-224 612,-224"/>
<image xlink:href="../../images/primaryKeys.png" width="11px" height="12px" preserveAspectRatio="xMinYMin meet" x="617" y="-241"/>
<text text-anchor="start" x="636" y="-232.2" font-family="Helvetica,sans-Serif" font-size="11.00">sign_interpretation_attribute_id</text>
<polygon fill="#ffffff" stroke="transparent" points="612,-202 612,-224 884,-224 884,-202 612,-202"/>
<polygon fill="none" stroke="black" points="612,-202 612,-224 884,-224 884,-202 612,-202"/>
<image xlink:href="../../images/foreignKeys.png" width="11px" height="12px" preserveAspectRatio="xMinYMin meet" x="617" y="-219"/>
<text text-anchor="start" x="636" y="-210.2" font-family="Helvetica,sans-Serif" font-size="11.00">edition_editor_id</text>
<polygon fill="none" stroke="black" points="612,-180 612,-202 884,-202 884,-180 612,-180"/>
<image xlink:href="../../images/primaryKeys.png" width="11px" height="12px" preserveAspectRatio="xMinYMin meet" x="617" y="-197"/>
<text text-anchor="start" x="636" y="-188.2" font-family="Helvetica,sans-Serif" font-size="11.00">edition_id</text>
<polygon fill="#ffffff" stroke="transparent" points="612,-162 612,-180 708,-180 708,-162 612,-162"/>
<polygon fill="none" stroke="black" points="612,-162 612,-180 708,-180 708,-162 612,-162"/>
<text text-anchor="start" x="615" y="-168.2" font-family="Helvetica,sans-Serif" font-size="11.00">&lt; 3</text>
<polygon fill="#ffffff" stroke="transparent" points="708,-162 708,-180 834,-180 834,-162 708,-162"/>
<polygon fill="none" stroke="black" points="708,-162 708,-180 834,-180 834,-162 708,-162"/>
<text text-anchor="start" x="746" y="-168.2" font-family="Helvetica,sans-Serif" font-size="11.00">2,622,730 rows</text>
<polygon fill="#ffffff" stroke="transparent" points="834,-162 834,-180 884,-180 884,-162 834,-162"/>
<polygon fill="none" stroke="black" points="834,-162 834,-180 884,-180 884,-162 834,-162"/>
<text text-anchor="start" x="873" y="-168.2" font-family="Helvetica,sans-Serif" font-size="11.00"> &#160;</text>
</a>
</g>
</g>
<!-- sign_interpretation_attribute_owner&#45;&gt;sign_interpretation_attribute -->
<g id="edge3" class="edge">
<title>sign_interpretation_attribute_owner:w&#45;&gt;sign_interpretation_attribute:e</title>
<path fill="none" stroke="black" d="M596.28,-235C585.29,-235 578.16,-235 562.5,-235"/>
<polygon fill="black" stroke="black" points="603,-235 611,-238.6 607,-235 611,-235 611,-235 611,-235 607,-235 611,-231.4 603,-235 603,-235"/>
<ellipse fill="none" stroke="black" cx="599.8" cy="-235" rx="3.2" ry="3.2"/>
</g>
</g>
</svg>
