<?xml version="1.0" encoding="UTF-8" standalone="no"?>
<!DOCTYPE svg PUBLIC "-//W3C//DTD SVG 1.1//EN"
 "http://www.w3.org/Graphics/SVG/1.1/DTD/svg11.dtd">
<!-- Generated by graphviz version 2.43.0 (0)
 -->
<!-- Title: twoDegreesRelationshipsDiagram Pages: 1 -->
<svg width="1141pt" height="671pt"
 viewBox="0.00 0.00 1141.00 671.00" xmlns="http://www.w3.org/2000/svg" xmlns:xlink="http://www.w3.org/1999/xlink">
<g id="graph0" class="graph" transform="scale(1 1) rotate(0) translate(4 667)">
<title>twoDegreesRelationshipsDiagram</title>
<polygon fill="#ffffff" stroke="transparent" points="-4,4 -4,-667 1137,-667 1137,4 -4,4"/>
<text text-anchor="middle" x="79.5" y="-7.2" font-family="Helvetica,sans-Serif" font-size="11.00">Generated by SchemaSpy</text>
<!-- attribute_value -->
<g id="node1" class="node">
<title>attribute_value</title>
<g id="a_node1"><a xlink:href="../../tables/attribute_value.html" xlink:title="attribute_value" target="_top">
<polygon fill="#ffffff" stroke="transparent" points="257.5,-511 257.5,-569 402.5,-569 402.5,-511 257.5,-511"/>
<polygon fill="#f5f5f5" stroke="transparent" points="258,-547 258,-569 403,-569 403,-547 258,-547"/>
<polygon fill="none" stroke="black" points="258,-547 258,-569 403,-569 403,-547 258,-547"/>
<text text-anchor="start" x="263" y="-556.2" font-family="Helvetica,sans-Serif" font-weight="bold" font-size="11.00">attribute_value</text>
<text text-anchor="start" x="361" y="-555.2" font-family="Helvetica,sans-Serif" font-size="11.00">[table]</text>
<polygon fill="none" stroke="black" points="258,-529 258,-547 403,-547 403,-529 258,-529"/>
<text text-anchor="start" x="261" y="-535.2" font-family="Helvetica,sans-Serif" font-size="11.00">...</text>
<polygon fill="#ffffff" stroke="transparent" points="258,-511 258,-529 305,-529 305,-511 258,-511"/>
<polygon fill="none" stroke="black" points="258,-511 258,-529 305,-529 305,-511 258,-511"/>
<text text-anchor="start" x="261" y="-517.2" font-family="Helvetica,sans-Serif" font-size="11.00">&lt; 1</text>
<polygon fill="#ffffff" stroke="transparent" points="305,-511 305,-529 366,-529 366,-511 305,-511"/>
<polygon fill="none" stroke="black" points="305,-511 305,-529 366,-529 366,-511 305,-511"/>
<text text-anchor="start" x="319" y="-517.2" font-family="Helvetica,sans-Serif" font-size="11.00">44 rows</text>
<polygon fill="#ffffff" stroke="transparent" points="366,-511 366,-529 403,-529 403,-511 366,-511"/>
<polygon fill="none" stroke="black" points="366,-511 366,-529 403,-529 403,-511 366,-511"/>
<text text-anchor="start" x="380" y="-517.2" font-family="Helvetica,sans-Serif" font-size="11.00">3 &gt;</text>
</a>
</g>
</g>
<!-- attribute -->
<g id="node2" class="node">
<title>attribute</title>
<g id="a_node2"><a xlink:href="../../tables/attribute.html" xlink:title="attribute" target="_top">
<polygon fill="#ffffff" stroke="transparent" points="20.5,-445 20.5,-503 126.5,-503 126.5,-445 20.5,-445"/>
<polygon fill="#f5f5f5" stroke="transparent" points="20.5,-481 20.5,-503 126.5,-503 126.5,-481 20.5,-481"/>
<polygon fill="none" stroke="black" points="20.5,-481 20.5,-503 126.5,-503 126.5,-481 20.5,-481"/>
<text text-anchor="start" x="25.5" y="-490.2" font-family="Helvetica,sans-Serif" font-weight="bold" font-size="11.00">attribute</text>
<text text-anchor="start" x="84.5" y="-489.2" font-family="Helvetica,sans-Serif" font-size="11.00">[table]</text>
<polygon fill="none" stroke="black" points="20.5,-463 20.5,-481 126.5,-481 126.5,-463 20.5,-463"/>
<text text-anchor="start" x="23.5" y="-469.2" font-family="Helvetica,sans-Serif" font-size="11.00">...</text>
<polygon fill="#ffffff" stroke="transparent" points="20.5,-445 20.5,-463 45.5,-463 45.5,-445 20.5,-445"/>
<polygon fill="none" stroke="black" points="20.5,-445 20.5,-463 45.5,-463 45.5,-445 20.5,-445"/>
<text text-anchor="start" x="23.5" y="-451.2" font-family="Helvetica,sans-Serif" font-size="11.00"> &#160;</text>
<polygon fill="#ffffff" stroke="transparent" points="45.5,-445 45.5,-463 94.5,-463 94.5,-445 45.5,-445"/>
<polygon fill="none" stroke="black" points="45.5,-445 45.5,-463 94.5,-463 94.5,-445 45.5,-445"/>
<text text-anchor="start" x="54.5" y="-451.2" font-family="Helvetica,sans-Serif" font-size="11.00">9 rows</text>
<polygon fill="#ffffff" stroke="transparent" points="94.5,-445 94.5,-463 126.5,-463 126.5,-445 94.5,-445"/>
<polygon fill="none" stroke="black" points="94.5,-445 94.5,-463 126.5,-463 126.5,-445 94.5,-445"/>
<text text-anchor="start" x="103.5" y="-451.2" font-family="Helvetica,sans-Serif" font-size="11.00">3 &gt;</text>
</a>
</g>
</g>
<!-- attribute_value&#45;&gt;attribute -->
<g id="edge1" class="edge">
<title>attribute_value:w&#45;&gt;attribute:e</title>
<path fill="none" stroke="black" d="M242.33,-536.74C191.92,-527.62 186.8,-472 127.5,-472"/>
<polygon fill="black" stroke="black" points="249.03,-537.32 256.69,-541.59 253.01,-537.66 257,-538 257,-538 257,-538 253.01,-537.66 257.31,-534.41 249.03,-537.32 249.03,-537.32"/>
<ellipse fill="none" stroke="black" cx="245.84" cy="-537.04" rx="3.2" ry="3.2"/>
</g>
<!-- line_to_sign -->
<g id="node3" class="node">
<title>line_to_sign</title>
<g id="a_node3"><a xlink:href="../../tables/line_to_sign.html" xlink:title="line_to_sign" target="_top">
<polygon fill="#ffffff" stroke="transparent" points="258.5,-348 258.5,-406 401.5,-406 401.5,-348 258.5,-348"/>
<polygon fill="#f5f5f5" stroke="transparent" points="259,-384 259,-406 402,-406 402,-384 259,-384"/>
<polygon fill="none" stroke="black" points="259,-384 259,-406 402,-406 402,-384 259,-384"/>
<text text-anchor="start" x="264" y="-393.2" font-family="Helvetica,sans-Serif" font-weight="bold" font-size="11.00">line_to_sign</text>
<text text-anchor="start" x="360" y="-392.2" font-family="Helvetica,sans-Serif" font-size="11.00">[table]</text>
<polygon fill="none" stroke="black" points="259,-366 259,-384 402,-384 402,-366 259,-366"/>
<text text-anchor="start" x="262" y="-372.2" font-family="Helvetica,sans-Serif" font-size="11.00">...</text>
<polygon fill="#ffffff" stroke="transparent" points="259,-348 259,-366 285,-366 285,-348 259,-348"/>
<polygon fill="none" stroke="black" points="259,-348 259,-366 285,-366 285,-348 259,-348"/>
<text text-anchor="start" x="262" y="-354.2" font-family="Helvetica,sans-Serif" font-size="11.00">&lt; 2</text>
<polygon fill="#ffffff" stroke="transparent" points="285,-348 285,-366 376,-366 376,-348 285,-348"/>
<polygon fill="none" stroke="black" points="285,-348 285,-366 376,-366 376,-348 285,-348"/>
<text text-anchor="start" x="288" y="-354.2" font-family="Helvetica,sans-Serif" font-size="11.00">1,730,550 rows</text>
<polygon fill="#ffffff" stroke="transparent" points="376,-348 376,-366 402,-366 402,-348 376,-348"/>
<polygon fill="none" stroke="black" points="376,-348 376,-366 402,-366 402,-348 376,-348"/>
<text text-anchor="start" x="379" y="-354.2" font-family="Helvetica,sans-Serif" font-size="11.00">1 &gt;</text>
</a>
</g>
</g>
<!-- sign -->
<g id="node4" class="node">
<title>sign</title>
<g id="a_node4"><a xlink:href="../../tables/sign.html" xlink:title="sign" target="_top">
<polygon fill="#ffffff" stroke="transparent" points="8,-316 8,-378 139,-378 139,-316 8,-316"/>
<polygon fill="#f5f5f5" stroke="transparent" points="8.5,-356 8.5,-378 139.5,-378 139.5,-356 8.5,-356"/>
<polygon fill="none" stroke="black" points="8.5,-356 8.5,-378 139.5,-378 139.5,-356 8.5,-356"/>
<text text-anchor="start" x="13.5" y="-365.2" font-family="Helvetica,sans-Serif" font-weight="bold" font-size="11.00">sign</text>
<text text-anchor="start" x="97.5" y="-364.2" font-family="Helvetica,sans-Serif" font-size="11.00">[table]</text>
<polygon fill="none" stroke="black" points="8.5,-334 8.5,-356 139.5,-356 139.5,-334 8.5,-334"/>
<image xlink:href="../../images/primaryKeys.png" width="11px" height="12px" preserveAspectRatio="xMinYMin meet" x="13.5" y="-351"/>
<text text-anchor="start" x="60.5" y="-342.2" font-family="Helvetica,sans-Serif" font-size="11.00">sign_id</text>
<polygon fill="#ffffff" stroke="transparent" points="8.5,-316 8.5,-334 22.5,-334 22.5,-316 8.5,-316"/>
<polygon fill="none" stroke="black" points="8.5,-316 8.5,-334 22.5,-334 22.5,-316 8.5,-316"/>
<text text-anchor="start" x="11.5" y="-322.2" font-family="Helvetica,sans-Serif" font-size="11.00"> &#160;</text>
<polygon fill="#ffffff" stroke="transparent" points="22.5,-316 22.5,-334 113.5,-334 113.5,-316 22.5,-316"/>
<polygon fill="none" stroke="black" points="22.5,-316 22.5,-334 113.5,-334 113.5,-316 22.5,-316"/>
<text text-anchor="start" x="25.5" y="-322.2" font-family="Helvetica,sans-Serif" font-size="11.00">1,732,050 rows</text>
<polygon fill="#ffffff" stroke="transparent" points="113.5,-316 113.5,-334 139.5,-334 139.5,-316 113.5,-316"/>
<polygon fill="none" stroke="black" points="113.5,-316 113.5,-334 139.5,-334 139.5,-316 113.5,-316"/>
<text text-anchor="start" x="116.5" y="-322.2" font-family="Helvetica,sans-Serif" font-size="11.00">2 &gt;</text>
</a>
</g>
</g>
<!-- line_to_sign&#45;&gt;sign -->
<g id="edge2" class="edge">
<title>line_to_sign:w&#45;&gt;sign:e</title>
<path fill="none" stroke="black" d="M243.39,-374.2C201.79,-369.43 189.13,-345 140.5,-345"/>
<polygon fill="black" stroke="black" points="250.01,-374.56 257.8,-378.59 254.01,-374.78 258,-375 258,-375 258,-375 254.01,-374.78 258.2,-371.41 250.01,-374.56 250.01,-374.56"/>
<ellipse fill="none" stroke="black" cx="246.82" cy="-374.39" rx="3.2" ry="3.2"/>
</g>
<!-- position_in_stream -->
<g id="node5" class="node">
<title>position_in_stream</title>
<g id="a_node5"><a xlink:href="../../tables/position_in_stream.html" xlink:title="position_in_stream" target="_top">
<polygon fill="#ffffff" stroke="transparent" points="548.5,-241 548.5,-347 753.5,-347 753.5,-241 548.5,-241"/>
<polygon fill="#f5f5f5" stroke="transparent" points="549,-325 549,-347 754,-347 754,-325 549,-325"/>
<polygon fill="none" stroke="black" points="549,-325 549,-347 754,-347 754,-325 549,-325"/>
<text text-anchor="start" x="554" y="-334.2" font-family="Helvetica,sans-Serif" font-weight="bold" font-size="11.00">position_in_stream</text>
<text text-anchor="start" x="712" y="-333.2" font-family="Helvetica,sans-Serif" font-size="11.00">[table]</text>
<polygon fill="none" stroke="black" points="549,-303 549,-325 754,-325 754,-303 549,-303"/>
<image xlink:href="../../images/primaryKeys.png" width="11px" height="12px" preserveAspectRatio="xMinYMin meet" x="554" y="-320"/>
<text text-anchor="start" x="569" y="-311.2" font-family="Helvetica,sans-Serif" font-size="11.00">position_in_stream_id</text>
<polygon fill="#ffffff" stroke="transparent" points="549,-281 549,-303 754,-303 754,-281 549,-281"/>
<polygon fill="none" stroke="black" points="549,-281 549,-303 754,-303 754,-281 549,-281"/>
<image xlink:href="../../images/foreignKeys.png" width="11px" height="12px" preserveAspectRatio="xMinYMin meet" x="554" y="-298"/>
<text text-anchor="start" x="569" y="-289.2" font-family="Helvetica,sans-Serif" font-size="11.00">sign_interpretation_id</text>
<polygon fill="#ffffff" stroke="transparent" points="549,-259 549,-281 754,-281 754,-259 549,-259"/>
<polygon fill="none" stroke="black" points="549,-259 549,-281 754,-281 754,-259 549,-259"/>
<image xlink:href="../../images/foreignKeys.png" width="11px" height="12px" preserveAspectRatio="xMinYMin meet" x="554" y="-276"/>
<text text-anchor="start" x="569" y="-267.2" font-family="Helvetica,sans-Serif" font-size="11.00">next_sign_interpretation_id</text>
<polygon fill="#ffffff" stroke="transparent" points="549,-241 549,-259 606,-259 606,-241 549,-241"/>
<polygon fill="none" stroke="black" points="549,-241 549,-259 606,-259 606,-241 549,-241"/>
<text text-anchor="start" x="552" y="-247.2" font-family="Helvetica,sans-Serif" font-size="11.00">&lt; 2</text>
<polygon fill="#ffffff" stroke="transparent" points="606,-241 606,-259 712,-259 712,-241 606,-241"/>
<polygon fill="none" stroke="black" points="606,-241 606,-259 712,-259 712,-241 606,-241"/>
<text text-anchor="start" x="624" y="-247.2" font-family="Helvetica,sans-Serif" font-size="11.00">1,719,776 rows</text>
<polygon fill="#ffffff" stroke="transparent" points="712,-241 712,-259 754,-259 754,-241 712,-241"/>
<polygon fill="none" stroke="black" points="712,-241 712,-259 754,-259 754,-241 712,-241"/>
<text text-anchor="start" x="731" y="-247.2" font-family="Helvetica,sans-Serif" font-size="11.00">2 &gt;</text>
</a>
</g>
</g>
<!-- sign_interpretation -->
<g id="node6" class="node">
<title>sign_interpretation</title>
<g id="a_node6"><a xlink:href="../../tables/sign_interpretation.html" xlink:title="sign_interpretation" target="_top">
<polygon fill="#ffffff" stroke="transparent" points="188,-195 188,-327 472,-327 472,-195 188,-195"/>
<polygon fill="#f5f5f5" stroke="transparent" points="190,-303 190,-325 470,-325 470,-303 190,-303"/>
<polygon fill="none" stroke="black" points="190,-303 190,-325 470,-325 470,-303 190,-303"/>
<text text-anchor="start" x="195" y="-312.2" font-family="Helvetica,sans-Serif" font-weight="bold" font-size="11.00">sign_interpretation</text>
<text text-anchor="start" x="428" y="-311.2" font-family="Helvetica,sans-Serif" font-size="11.00">[table]</text>
<polygon fill="none" stroke="black" points="190,-281 190,-303 359,-303 359,-281 190,-281"/>
<image xlink:href="../../images/primaryKeys.png" width="11px" height="12px" preserveAspectRatio="xMinYMin meet" x="195" y="-298"/>
<text text-anchor="start" x="210" y="-289.2" font-family="Helvetica,sans-Serif" font-size="11.00">sign_interpretation_id</text>
<polygon fill="none" stroke="black" points="359,-281 359,-303 470,-303 470,-281 359,-281"/>
<text text-anchor="start" x="362" y="-289.2" font-family="Helvetica,sans-Serif" font-size="11.00">int unsigned[10]</text>
<polygon fill="#ffffff" stroke="transparent" points="190,-259 190,-281 359,-281 359,-259 190,-259"/>
<polygon fill="none" stroke="black" points="190,-259 190,-281 359,-281 359,-259 190,-259"/>
<image xlink:href="../../images/foreignKeys.png" width="11px" height="12px" preserveAspectRatio="xMinYMin meet" x="195" y="-276"/>
<text text-anchor="start" x="210" y="-267.2" font-family="Helvetica,sans-Serif" font-size="11.00">sign_id</text>
<polygon fill="none" stroke="black" points="359,-259 359,-281 470,-281 470,-259 359,-259"/>
<text text-anchor="start" x="362" y="-267.2" font-family="Helvetica,sans-Serif" font-size="11.00">int unsigned[10]</text>
<polygon fill="#ffffff" stroke="transparent" points="190,-237 190,-259 359,-259 359,-237 190,-237"/>
<polygon fill="none" stroke="black" points="190,-237 190,-259 359,-259 359,-237 190,-237"/>
<text text-anchor="start" x="210" y="-245.2" font-family="Helvetica,sans-Serif" font-size="11.00">is_variant</text>
<polygon fill="none" stroke="black" points="359,-237 359,-259 470,-259 470,-237 359,-237"/>
<text text-anchor="start" x="362" y="-245.2" font-family="Helvetica,sans-Serif" font-size="11.00">tinyint unsigned[3]</text>
<polygon fill="#ffffff" stroke="transparent" points="190,-215 190,-237 359,-237 359,-215 190,-215"/>
<polygon fill="none" stroke="black" points="190,-215 190,-237 359,-237 359,-215 190,-215"/>
<text text-anchor="start" x="210" y="-223.2" font-family="Helvetica,sans-Serif" font-size="11.00">character</text>
<polygon fill="none" stroke="black" points="359,-215 359,-237 470,-237 470,-215 359,-215"/>
<text text-anchor="start" x="362" y="-223.2" font-family="Helvetica,sans-Serif" font-size="11.00">char[1]</text>
<polygon fill="#ffffff" stroke="transparent" points="190,-197 190,-215 242,-215 242,-197 190,-197"/>
<polygon fill="none" stroke="black" points="190,-197 190,-215 242,-215 242,-197 190,-197"/>
<text text-anchor="start" x="193" y="-203.2" font-family="Helvetica,sans-Serif" font-size="11.00">&lt; 1</text>
<polygon fill="#ffffff" stroke="transparent" points="242,-197 242,-215 359,-215 359,-197 242,-197"/>
<polygon fill="none" stroke="black" points="242,-197 242,-215 359,-215 359,-197 242,-197"/>
<text text-anchor="start" x="271" y="-203.2" font-family="Helvetica,sans-Serif" font-size="11.00">1,189,027 rows</text>
<polygon fill="#ffffff" stroke="transparent" points="359,-197 359,-215 470,-215 470,-197 359,-197"/>
<polygon fill="none" stroke="black" points="359,-197 359,-215 470,-215 470,-197 359,-197"/>
<text text-anchor="start" x="447" y="-203.2" font-family="Helvetica,sans-Serif" font-size="11.00">5 &gt;</text>
<polygon fill="none" stroke="black" stroke-width="2" points="189,-196 189,-326 471,-326 471,-196 189,-196"/>
</a>
</g>
</g>
<!-- position_in_stream&#45;&gt;sign_interpretation -->
<g id="edge3" class="edge">
<title>position_in_stream:w&#45;&gt;sign_interpretation:e</title>
<path fill="none" stroke="black" d="M533.6,-271.38C509.95,-276.19 501.17,-292 471,-292"/>
<polygon fill="black" stroke="black" points="540.04,-270.76 548.34,-273.58 544.02,-270.38 548,-270 548,-270 548,-270 544.02,-270.38 547.66,-266.42 540.04,-270.76 540.04,-270.76"/>
<ellipse fill="none" stroke="black" cx="536.85" cy="-271.07" rx="3.2" ry="3.2"/>
</g>
<!-- position_in_stream&#45;&gt;sign_interpretation -->
<g id="edge4" class="edge">
<title>position_in_stream:w&#45;&gt;sign_interpretation:e</title>
<path fill="none" stroke="black" d="M533.32,-292C510.38,-292 499.74,-292 471,-292"/>
<polygon fill="black" stroke="black" points="540,-292 548,-295.6 544,-292 548,-292 548,-292 548,-292 544,-292 548,-288.4 540,-292 540,-292"/>
<ellipse fill="none" stroke="black" cx="536.8" cy="-292" rx="3.2" ry="3.2"/>
</g>
<!-- sign_interpretation&#45;&gt;sign -->
<g id="edge7" class="edge">
<title>sign_interpretation:w&#45;&gt;sign:e</title>
<path fill="none" stroke="black" d="M175.27,-274.69C157.08,-291.11 174.15,-345 140.5,-345"/>
<polygon fill="black" stroke="black" points="181.43,-272.59 190.16,-273.41 185.21,-271.29 189,-270 189,-270 189,-270 185.21,-271.29 187.84,-266.59 181.43,-272.59 181.43,-272.59"/>
<ellipse fill="none" stroke="black" cx="178.4" cy="-273.62" rx="3.2" ry="3.2"/>
</g>
<!-- position_in_stream_owner -->
<g id="node7" class="node">
<title>position_in_stream_owner</title>
<g id="a_node7"><a xlink:href="../../tables/position_in_stream_owner.html" xlink:title="position_in_stream_owner" target="_top">
<polygon fill="#ffffff" stroke="transparent" points="872.5,-256 872.5,-314 1082.5,-314 1082.5,-256 872.5,-256"/>
<polygon fill="#f5f5f5" stroke="transparent" points="872.5,-292 872.5,-314 1082.5,-314 1082.5,-292 872.5,-292"/>
<polygon fill="none" stroke="black" points="872.5,-292 872.5,-314 1082.5,-314 1082.5,-292 872.5,-292"/>
<text text-anchor="start" x="877.5" y="-301.2" font-family="Helvetica,sans-Serif" font-weight="bold" font-size="11.00">position_in_stream_owner</text>
<text text-anchor="start" x="1040.5" y="-300.2" font-family="Helvetica,sans-Serif" font-size="11.00">[table]</text>
<polygon fill="none" stroke="black" points="872.5,-274 872.5,-292 1082.5,-292 1082.5,-274 872.5,-274"/>
<text text-anchor="start" x="875.5" y="-280.2" font-family="Helvetica,sans-Serif" font-size="11.00">...</text>
<polygon fill="#ffffff" stroke="transparent" points="872.5,-256 872.5,-274 937.5,-274 937.5,-256 872.5,-256"/>
<polygon fill="none" stroke="black" points="872.5,-256 872.5,-274 937.5,-274 937.5,-256 872.5,-256"/>
<text text-anchor="start" x="875.5" y="-262.2" font-family="Helvetica,sans-Serif" font-size="11.00">&lt; 3</text>
<polygon fill="#ffffff" stroke="transparent" points="937.5,-256 937.5,-274 1048.5,-274 1048.5,-256 937.5,-256"/>
<polygon fill="none" stroke="black" points="937.5,-256 937.5,-274 1048.5,-274 1048.5,-256 937.5,-256"/>
<text text-anchor="start" x="960.5" y="-262.2" font-family="Helvetica,sans-Serif" font-size="11.00">1,719,776 rows</text>
<polygon fill="#ffffff" stroke="transparent" points="1048.5,-256 1048.5,-274 1082.5,-274 1082.5,-256 1048.5,-256"/>
<polygon fill="none" stroke="black" points="1048.5,-256 1048.5,-274 1082.5,-274 1082.5,-256 1048.5,-256"/>
<text text-anchor="start" x="1071.5" y="-262.2" font-family="Helvetica,sans-Serif" font-size="11.00"> &#160;</text>
</a>
</g>
</g>
<!-- position_in_stream_owner&#45;&gt;position_in_stream -->
<g id="edge5" class="edge">
<title>position_in_stream_owner:w&#45;&gt;position_in_stream:e</title>
<path fill="none" stroke="black" d="M856.99,-283.83C815.67,-288.76 803.35,-314 755,-314"/>
<polygon fill="black" stroke="black" points="863.51,-283.46 871.71,-286.59 867.51,-283.23 871.5,-283 871.5,-283 871.5,-283 867.51,-283.23 871.29,-279.41 863.51,-283.46 863.51,-283.46"/>
<ellipse fill="none" stroke="black" cx="860.32" cy="-283.64" rx="3.2" ry="3.2"/>
</g>
<!-- position_in_stream_to_section_rel -->
<g id="node8" class="node">
<title>position_in_stream_to_section_rel</title>
<g id="a_node8"><a xlink:href="../../tables/position_in_stream_to_section_rel.html" xlink:title="position_in_stream_to_section_rel" target="_top">
<polygon fill="#ffffff" stroke="transparent" points="849.5,-335 849.5,-393 1105.5,-393 1105.5,-335 849.5,-335"/>
<polygon fill="#f5f5f5" stroke="transparent" points="849.5,-371 849.5,-393 1105.5,-393 1105.5,-371 849.5,-371"/>
<polygon fill="none" stroke="black" points="849.5,-371 849.5,-393 1105.5,-393 1105.5,-371 849.5,-371"/>
<text text-anchor="start" x="854.5" y="-380.2" font-family="Helvetica,sans-Serif" font-weight="bold" font-size="11.00">position_in_stream_to_section_rel</text>
<text text-anchor="start" x="1063.5" y="-379.2" font-family="Helvetica,sans-Serif" font-size="11.00">[table]</text>
<polygon fill="none" stroke="black" points="849.5,-353 849.5,-371 1105.5,-371 1105.5,-353 849.5,-353"/>
<text text-anchor="start" x="852.5" y="-359.2" font-family="Helvetica,sans-Serif" font-size="11.00">...</text>
<polygon fill="#ffffff" stroke="transparent" points="849.5,-335 849.5,-353 937.5,-353 937.5,-335 849.5,-335"/>
<polygon fill="none" stroke="black" points="849.5,-335 849.5,-353 937.5,-353 937.5,-335 849.5,-335"/>
<text text-anchor="start" x="852.5" y="-341.2" font-family="Helvetica,sans-Serif" font-size="11.00">&lt; 2</text>
<polygon fill="#ffffff" stroke="transparent" points="937.5,-335 937.5,-353 1059.5,-353 1059.5,-335 937.5,-335"/>
<polygon fill="none" stroke="black" points="937.5,-335 937.5,-353 1059.5,-353 1059.5,-335 937.5,-335"/>
<text text-anchor="start" x="971.5" y="-341.2" font-family="Helvetica,sans-Serif" font-size="11.00">1,238,253 rows</text>
<polygon fill="#ffffff" stroke="transparent" points="1059.5,-335 1059.5,-353 1105.5,-353 1105.5,-335 1059.5,-335"/>
<polygon fill="none" stroke="black" points="1059.5,-335 1059.5,-353 1105.5,-353 1105.5,-335 1059.5,-335"/>
<text text-anchor="start" x="1094.5" y="-341.2" font-family="Helvetica,sans-Serif" font-size="11.00"> &#160;</text>
</a>
</g>
</g>
<!-- position_in_stream_to_section_rel&#45;&gt;position_in_stream -->
<g id="edge6" class="edge">
<title>position_in_stream_to_section_rel:w&#45;&gt;position_in_stream:e</title>
<path fill="none" stroke="black" d="M833.85,-360.18C801.13,-351.41 796.24,-314 755,-314"/>
<polygon fill="black" stroke="black" points="840.56,-361.01 848.06,-365.57 844.53,-361.51 848.5,-362 848.5,-362 848.5,-362 844.53,-361.51 848.94,-358.43 840.56,-361.01 840.56,-361.01"/>
<ellipse fill="none" stroke="black" cx="837.39" cy="-360.62" rx="3.2" ry="3.2"/>
</g>
<!-- sign_interpretation_attribute -->
<g id="node9" class="node">
<title>sign_interpretation_attribute</title>
<g id="a_node9"><a xlink:href="../../tables/sign_interpretation_attribute.html" xlink:title="sign_interpretation_attribute" target="_top">
<polygon fill="#ffffff" stroke="transparent" points="533,-513 533,-659 769,-659 769,-513 533,-513"/>
<polygon fill="#f5f5f5" stroke="transparent" points="533,-637 533,-659 769,-659 769,-637 533,-637"/>
<polygon fill="none" stroke="black" points="533,-637 533,-659 769,-659 769,-637 533,-637"/>
<text text-anchor="start" x="538" y="-646.2" font-family="Helvetica,sans-Serif" font-weight="bold" font-size="11.00">sign_interpretation_attribute</text>
<text text-anchor="start" x="727" y="-645.2" font-family="Helvetica,sans-Serif" font-size="11.00">[table]</text>
<polygon fill="none" stroke="black" points="533,-615 533,-637 769,-637 769,-615 533,-615"/>
<image xlink:href="../../images/primaryKeys.png" width="11px" height="12px" preserveAspectRatio="xMinYMin meet" x="538" y="-632"/>
<text text-anchor="start" x="553" y="-623.2" font-family="Helvetica,sans-Serif" font-size="11.00">sign_interpretation_attribute_id</text>
<polygon fill="#ffffff" stroke="transparent" points="533,-593 533,-615 769,-615 769,-593 533,-593"/>
<polygon fill="none" stroke="black" points="533,-593 533,-615 769,-615 769,-593 533,-593"/>
<image xlink:href="../../images/foreignKeys.png" width="11px" height="12px" preserveAspectRatio="xMinYMin meet" x="538" y="-610"/>
<text text-anchor="start" x="553" y="-601.2" font-family="Helvetica,sans-Serif" font-size="11.00">sign_interpretation_id</text>
<polygon fill="#ffffff" stroke="transparent" points="533,-571 533,-593 769,-593 769,-571 533,-571"/>
<polygon fill="none" stroke="black" points="533,-571 533,-593 769,-593 769,-571 533,-571"/>
<image xlink:href="../../images/foreignKeys.png" width="11px" height="12px" preserveAspectRatio="xMinYMin meet" x="538" y="-588"/>
<text text-anchor="start" x="553" y="-579.2" font-family="Helvetica,sans-Serif" font-size="11.00">attribute_value_id</text>
<polygon fill="#ffffff" stroke="transparent" points="533,-549 533,-571 769,-571 769,-549 533,-549"/>
<polygon fill="none" stroke="black" points="533,-549 533,-571 769,-571 769,-549 533,-549"/>
<text text-anchor="start" x="553" y="-557.2" font-family="Helvetica,sans-Serif" font-size="11.00">sequence</text>
<polygon fill="none" stroke="black" points="533,-531 533,-549 769,-549 769,-531 533,-531"/>
<text text-anchor="start" x="536" y="-537.2" font-family="Helvetica,sans-Serif" font-size="11.00">...</text>
<polygon fill="#ffffff" stroke="transparent" points="533,-513 533,-531 605,-531 605,-513 533,-513"/>
<polygon fill="none" stroke="black" points="533,-513 533,-531 605,-531 605,-513 533,-513"/>
<text text-anchor="start" x="536" y="-519.2" font-family="Helvetica,sans-Serif" font-size="11.00">&lt; 2</text>
<polygon fill="#ffffff" stroke="transparent" points="605,-513 605,-531 719,-531 719,-513 605,-513"/>
<polygon fill="none" stroke="black" points="605,-513 605,-531 719,-531 719,-513 605,-513"/>
<text text-anchor="start" x="631" y="-519.2" font-family="Helvetica,sans-Serif" font-size="11.00">2,557,225 rows</text>
<polygon fill="#ffffff" stroke="transparent" points="719,-513 719,-531 769,-531 769,-513 719,-513"/>
<polygon fill="none" stroke="black" points="719,-513 719,-531 769,-531 769,-513 719,-513"/>
<text text-anchor="start" x="746" y="-519.2" font-family="Helvetica,sans-Serif" font-size="11.00">1 &gt;</text>
</a>
</g>
</g>
<!-- sign_interpretation_attribute&#45;&gt;attribute_value -->
<g id="edge8" class="edge">
<title>sign_interpretation_attribute:w&#45;&gt;attribute_value:e</title>
<path fill="none" stroke="black" d="M517.59,-581.08C470.14,-574.76 458.99,-538 404,-538"/>
<polygon fill="black" stroke="black" points="524.02,-581.49 531.77,-585.59 528.01,-581.75 532,-582 532,-582 532,-582 528.01,-581.75 532.23,-578.41 524.02,-581.49 524.02,-581.49"/>
<ellipse fill="none" stroke="black" cx="520.82" cy="-581.29" rx="3.2" ry="3.2"/>
</g>
<!-- sign_interpretation_attribute&#45;&gt;sign_interpretation -->
<g id="edge9" class="edge">
<title>sign_interpretation_attribute:w&#45;&gt;sign_interpretation:e</title>
<path fill="none" stroke="black" d="M518.35,-598.84C472.71,-558.28 536.26,-292 471,-292"/>
<polygon fill="black" stroke="black" points="524.52,-601.17 530.73,-607.37 528.26,-602.59 532,-604 532,-604 532,-604 528.26,-602.59 533.27,-600.63 524.52,-601.17 524.52,-601.17"/>
<ellipse fill="none" stroke="black" cx="521.52" cy="-600.04" rx="3.2" ry="3.2"/>
</g>
<!-- sign_interpretation_attribute_owner -->
<g id="node10" class="node">
<title>sign_interpretation_attribute_owner</title>
<g id="a_node10"><a xlink:href="../../tables/sign_interpretation_attribute_owner.html" xlink:title="sign_interpretation_attribute_owner" target="_top">
<polygon fill="#ffffff" stroke="transparent" points="841.5,-599 841.5,-657 1113.5,-657 1113.5,-599 841.5,-599"/>
<polygon fill="#f5f5f5" stroke="transparent" points="841.5,-635 841.5,-657 1113.5,-657 1113.5,-635 841.5,-635"/>
<polygon fill="none" stroke="black" points="841.5,-635 841.5,-657 1113.5,-657 1113.5,-635 841.5,-635"/>
<text text-anchor="start" x="846.5" y="-644.2" font-family="Helvetica,sans-Serif" font-weight="bold" font-size="11.00">sign_interpretation_attribute_owner</text>
<text text-anchor="start" x="1071.5" y="-643.2" font-family="Helvetica,sans-Serif" font-size="11.00">[table]</text>
<polygon fill="none" stroke="black" points="841.5,-617 841.5,-635 1113.5,-635 1113.5,-617 841.5,-617"/>
<text text-anchor="start" x="844.5" y="-623.2" font-family="Helvetica,sans-Serif" font-size="11.00">...</text>
<polygon fill="#ffffff" stroke="transparent" points="841.5,-599 841.5,-617 937.5,-617 937.5,-599 841.5,-599"/>
<polygon fill="none" stroke="black" points="841.5,-599 841.5,-617 937.5,-617 937.5,-599 841.5,-599"/>
<text text-anchor="start" x="844.5" y="-605.2" font-family="Helvetica,sans-Serif" font-size="11.00">&lt; 3</text>
<polygon fill="#ffffff" stroke="transparent" points="937.5,-599 937.5,-617 1063.5,-617 1063.5,-599 937.5,-599"/>
<polygon fill="none" stroke="black" points="937.5,-599 937.5,-617 1063.5,-617 1063.5,-599 937.5,-599"/>
<text text-anchor="start" x="975.5" y="-605.2" font-family="Helvetica,sans-Serif" font-size="11.00">2,622,730 rows</text>
<polygon fill="#ffffff" stroke="transparent" points="1063.5,-599 1063.5,-617 1113.5,-617 1113.5,-599 1063.5,-599"/>
<polygon fill="none" stroke="black" points="1063.5,-599 1063.5,-617 1113.5,-617 1113.5,-599 1063.5,-599"/>
<text text-anchor="start" x="1102.5" y="-605.2" font-family="Helvetica,sans-Serif" font-size="11.00"> &#160;</text>
</a>
</g>
</g>
<!-- sign_interpretation_attribute_owner&#45;&gt;sign_interpretation_attribute -->
<g id="edge10" class="edge">
<title>sign_interpretation_attribute_owner:w&#45;&gt;sign_interpretation_attribute:e</title>
<path fill="none" stroke="black" d="M825.9,-626C805.69,-626 795.83,-626 770,-626"/>
<polygon fill="black" stroke="black" points="832.5,-626 840.5,-629.6 836.5,-626 840.5,-626 840.5,-626 840.5,-626 836.5,-626 840.5,-622.4 832.5,-626 832.5,-626"/>
<ellipse fill="none" stroke="black" cx="829.3" cy="-626" rx="3.2" ry="3.2"/>
</g>
<!-- sign_interpretation_commentary -->
<g id="node11" class="node">
<title>sign_interpretation_commentary</title>
<g id="a_node11"><a xlink:href="../../tables/sign_interpretation_commentary.html" xlink:title="sign_interpretation_commentary" target="_top">
<polygon fill="#ffffff" stroke="transparent" points="521,-368 521,-492 781,-492 781,-368 521,-368"/>
<polygon fill="#f5f5f5" stroke="transparent" points="521,-470 521,-492 781,-492 781,-470 521,-470"/>
<polygon fill="none" stroke="black" points="521,-470 521,-492 781,-492 781,-470 521,-470"/>
<text text-anchor="start" x="526" y="-479.2" font-family="Helvetica,sans-Serif" font-weight="bold" font-size="11.00">sign_interpretation_commentary</text>
<text text-anchor="start" x="739" y="-478.2" font-family="Helvetica,sans-Serif" font-size="11.00">[table]</text>
<polygon fill="none" stroke="black" points="521,-448 521,-470 781,-470 781,-448 521,-448"/>
<image xlink:href="../../images/primaryKeys.png" width="11px" height="12px" preserveAspectRatio="xMinYMin meet" x="526" y="-465"/>
<text text-anchor="start" x="541" y="-456.2" font-family="Helvetica,sans-Serif" font-size="11.00">sign_interpretation_commentary_id</text>
<polygon fill="#ffffff" stroke="transparent" points="521,-426 521,-448 781,-448 781,-426 521,-426"/>
<polygon fill="none" stroke="black" points="521,-426 521,-448 781,-448 781,-426 521,-426"/>
<image xlink:href="../../images/foreignKeys.png" width="11px" height="12px" preserveAspectRatio="xMinYMin meet" x="526" y="-443"/>
<text text-anchor="start" x="541" y="-434.2" font-family="Helvetica,sans-Serif" font-size="11.00">sign_interpretation_id</text>
<polygon fill="#ffffff" stroke="transparent" points="521,-404 521,-426 781,-426 781,-404 521,-404"/>
<polygon fill="none" stroke="black" points="521,-404 521,-426 781,-426 781,-404 521,-404"/>
<image xlink:href="../../images/foreignKeys.png" width="11px" height="12px" preserveAspectRatio="xMinYMin meet" x="526" y="-421"/>
<text text-anchor="start" x="541" y="-412.2" font-family="Helvetica,sans-Serif" font-size="11.00">attribute_id</text>
<polygon fill="none" stroke="black" points="521,-386 521,-404 781,-404 781,-386 521,-386"/>
<text text-anchor="start" x="524" y="-392.2" font-family="Helvetica,sans-Serif" font-size="11.00">...</text>
<polygon fill="#ffffff" stroke="transparent" points="521,-368 521,-386 629,-386 629,-368 521,-368"/>
<polygon fill="none" stroke="black" points="521,-368 521,-386 629,-386 629,-368 521,-368"/>
<text text-anchor="start" x="524" y="-374.2" font-family="Helvetica,sans-Serif" font-size="11.00">&lt; 2</text>
<polygon fill="#ffffff" stroke="transparent" points="629,-368 629,-386 713,-386 713,-368 629,-368"/>
<polygon fill="none" stroke="black" points="629,-368 629,-386 713,-386 713,-368 629,-368"/>
<text text-anchor="start" x="673" y="-374.2" font-family="Helvetica,sans-Serif" font-size="11.00">0 rows</text>
<polygon fill="#ffffff" stroke="transparent" points="713,-368 713,-386 781,-386 781,-368 713,-368"/>
<polygon fill="none" stroke="black" points="713,-368 713,-386 781,-386 781,-368 713,-368"/>
<text text-anchor="start" x="758" y="-374.2" font-family="Helvetica,sans-Serif" font-size="11.00">1 &gt;</text>
</a>
</g>
</g>
<!-- sign_interpretation_commentary&#45;&gt;attribute -->
<g id="edge11" class="edge">
<title>sign_interpretation_commentary:w&#45;&gt;attribute:e</title>
<path fill="none" stroke="black" d="M505.32,-415.44C409.82,-420.75 211.08,-472 127.5,-472"/>
<polygon fill="black" stroke="black" points="512,-415.24 520.11,-418.6 516,-415.12 520,-415 520,-415 520,-415 516,-415.12 519.89,-411.4 512,-415.24 512,-415.24"/>
<ellipse fill="none" stroke="black" cx="508.81" cy="-415.34" rx="3.2" ry="3.2"/>
</g>
<!-- sign_interpretation_commentary&#45;&gt;sign_interpretation -->
<g id="edge12" class="edge">
<title>sign_interpretation_commentary:w&#45;&gt;sign_interpretation:e</title>
<path fill="none" stroke="black" d="M505.7,-433.97C465.79,-413.15 533.18,-292 471,-292"/>
<polygon fill="black" stroke="black" points="512.17,-435.34 519.25,-440.52 516.09,-436.17 520,-437 520,-437 520,-437 516.09,-436.17 520.75,-433.48 512.17,-435.34 512.17,-435.34"/>
<ellipse fill="none" stroke="black" cx="509.04" cy="-434.68" rx="3.2" ry="3.2"/>
</g>
<!-- sign_interpretation_commentary_owner -->
<g id="node12" class="node">
<title>sign_interpretation_commentary_owner</title>
<g id="a_node12"><a xlink:href="../../tables/sign_interpretation_commentary_owner.html" xlink:title="sign_interpretation_commentary_owner" target="_top">
<polygon fill="#ffffff" stroke="transparent" points="830,-432 830,-490 1125,-490 1125,-432 830,-432"/>
<polygon fill="#f5f5f5" stroke="transparent" points="830.5,-468 830.5,-490 1125.5,-490 1125.5,-468 830.5,-468"/>
<polygon fill="none" stroke="black" points="830.5,-468 830.5,-490 1125.5,-490 1125.5,-468 830.5,-468"/>
<text text-anchor="start" x="835.5" y="-477.2" font-family="Helvetica,sans-Serif" font-weight="bold" font-size="11.00">sign_interpretation_commentary_owner</text>
<text text-anchor="start" x="1083.5" y="-476.2" font-family="Helvetica,sans-Serif" font-size="11.00">[table]</text>
<polygon fill="none" stroke="black" points="830.5,-450 830.5,-468 1125.5,-468 1125.5,-450 830.5,-450"/>
<text text-anchor="start" x="833.5" y="-456.2" font-family="Helvetica,sans-Serif" font-size="11.00">...</text>
<polygon fill="#ffffff" stroke="transparent" points="830.5,-432 830.5,-450 962.5,-450 962.5,-432 830.5,-432"/>
<polygon fill="none" stroke="black" points="830.5,-432 830.5,-450 962.5,-450 962.5,-432 830.5,-432"/>
<text text-anchor="start" x="833.5" y="-438.2" font-family="Helvetica,sans-Serif" font-size="11.00">&lt; 3</text>
<polygon fill="#ffffff" stroke="transparent" points="962.5,-432 962.5,-450 1058.5,-450 1058.5,-432 962.5,-432"/>
<polygon fill="none" stroke="black" points="962.5,-432 962.5,-450 1058.5,-450 1058.5,-432 962.5,-432"/>
<text text-anchor="start" x="1018.5" y="-438.2" font-family="Helvetica,sans-Serif" font-size="11.00">0 rows</text>
<polygon fill="#ffffff" stroke="transparent" points="1058.5,-432 1058.5,-450 1125.5,-450 1125.5,-432 1058.5,-432"/>
<polygon fill="none" stroke="black" points="1058.5,-432 1058.5,-450 1125.5,-450 1125.5,-432 1058.5,-432"/>
<text text-anchor="start" x="1114.5" y="-438.2" font-family="Helvetica,sans-Serif" font-size="11.00"> &#160;</text>
</a>
</g>
</g>
<!-- sign_interpretation_commentary_owner&#45;&gt;sign_interpretation_commentary -->
<g id="edge13" class="edge">
<title>sign_interpretation_commentary_owner:w&#45;&gt;sign_interpretation_commentary:e</title>
<path fill="none" stroke="black" d="M815.09,-459C804.32,-459 797.34,-459 782,-459"/>
<polygon fill="black" stroke="black" points="821.5,-459 829.5,-462.6 825.5,-459 829.5,-459 829.5,-459 829.5,-459 825.5,-459 829.5,-455.4 821.5,-459 821.5,-459"/>
<ellipse fill="none" stroke="black" cx="818.3" cy="-459" rx="3.2" ry="3.2"/>
</g>
<!-- sign_interpretation_roi -->
<g id="node13" class="node">
<title>sign_interpretation_roi</title>
<g id="a_node13"><a xlink:href="../../tables/sign_interpretation_roi.html" xlink:title="sign_interpretation_roi" target="_top">
<polygon fill="#ffffff" stroke="transparent" points="554.5,-74 554.5,-220 747.5,-220 747.5,-74 554.5,-74"/>
<polygon fill="#f5f5f5" stroke="transparent" points="555,-198 555,-220 748,-220 748,-198 555,-198"/>
<polygon fill="none" stroke="black" points="555,-198 555,-220 748,-220 748,-198 555,-198"/>
<text text-anchor="start" x="560" y="-207.2" font-family="Helvetica,sans-Serif" font-weight="bold" font-size="11.00">sign_interpretation_roi</text>
<text text-anchor="start" x="706" y="-206.2" font-family="Helvetica,sans-Serif" font-size="11.00">[table]</text>
<polygon fill="none" stroke="black" points="555,-176 555,-198 748,-198 748,-176 555,-176"/>
<image xlink:href="../../images/primaryKeys.png" width="11px" height="12px" preserveAspectRatio="xMinYMin meet" x="560" y="-193"/>
<text text-anchor="start" x="575" y="-184.2" font-family="Helvetica,sans-Serif" font-size="11.00">sign_interpretation_roi_id</text>
<polygon fill="#ffffff" stroke="transparent" points="555,-154 555,-176 748,-176 748,-154 555,-154"/>
<polygon fill="none" stroke="black" points="555,-154 555,-176 748,-176 748,-154 555,-154"/>
<image xlink:href="../../images/foreignKeys.png" width="11px" height="12px" preserveAspectRatio="xMinYMin meet" x="560" y="-171"/>
<text text-anchor="start" x="575" y="-162.2" font-family="Helvetica,sans-Serif" font-size="11.00">sign_interpretation_id</text>
<polygon fill="#ffffff" stroke="transparent" points="555,-132 555,-154 748,-154 748,-132 555,-132"/>
<polygon fill="none" stroke="black" points="555,-132 555,-154 748,-154 748,-132 555,-132"/>
<image xlink:href="../../images/foreignKeys.png" width="11px" height="12px" preserveAspectRatio="xMinYMin meet" x="560" y="-149"/>
<text text-anchor="start" x="575" y="-140.2" font-family="Helvetica,sans-Serif" font-size="11.00">roi_shape_id</text>
<polygon fill="#ffffff" stroke="transparent" points="555,-110 555,-132 748,-132 748,-110 555,-110"/>
<polygon fill="none" stroke="black" points="555,-110 555,-132 748,-132 748,-110 555,-110"/>
<image xlink:href="../../images/foreignKeys.png" width="11px" height="12px" preserveAspectRatio="xMinYMin meet" x="560" y="-127"/>
<text text-anchor="start" x="575" y="-118.2" font-family="Helvetica,sans-Serif" font-size="11.00">roi_position_id</text>
<polygon fill="none" stroke="black" points="555,-92 555,-110 748,-110 748,-92 555,-92"/>
<text text-anchor="start" x="558" y="-98.2" font-family="Helvetica,sans-Serif" font-size="11.00">...</text>
<polygon fill="#ffffff" stroke="transparent" points="555,-74 555,-92 630,-92 630,-74 555,-74"/>
<polygon fill="none" stroke="black" points="555,-74 555,-92 630,-92 630,-74 555,-74"/>
<text text-anchor="start" x="558" y="-80.2" font-family="Helvetica,sans-Serif" font-size="11.00">&lt; 3</text>
<polygon fill="#ffffff" stroke="transparent" points="630,-74 630,-92 697,-92 697,-74 630,-74"/>
<polygon fill="none" stroke="black" points="630,-74 630,-92 697,-92 697,-74 630,-74"/>
<text text-anchor="start" x="657" y="-80.2" font-family="Helvetica,sans-Serif" font-size="11.00">0 rows</text>
<polygon fill="#ffffff" stroke="transparent" points="697,-74 697,-92 748,-92 748,-74 697,-74"/>
<polygon fill="none" stroke="black" points="697,-74 697,-92 748,-92 748,-74 697,-74"/>
<text text-anchor="start" x="725" y="-80.2" font-family="Helvetica,sans-Serif" font-size="11.00">1 &gt;</text>
</a>
</g>
</g>
<!-- sign_interpretation_roi&#45;&gt;sign_interpretation -->
<g id="edge16" class="edge">
<title>sign_interpretation_roi:w&#45;&gt;sign_interpretation:e</title>
<path fill="none" stroke="black" d="M539.68,-167.42C494.28,-184.98 532.9,-292 471,-292"/>
<polygon fill="black" stroke="black" points="546.11,-166.34 554.6,-168.55 550.06,-165.67 554,-165 554,-165 554,-165 550.06,-165.67 553.4,-161.45 546.11,-166.34 546.11,-166.34"/>
<ellipse fill="none" stroke="black" cx="542.96" cy="-166.87" rx="3.2" ry="3.2"/>
</g>
<!-- roi_position -->
<g id="node14" class="node">
<title>roi_position</title>
<g id="a_node14"><a xlink:href="../../tables/roi_position.html" xlink:title="roi_position" target="_top">
<polygon fill="#ffffff" stroke="transparent" points="268.5,-37 268.5,-95 391.5,-95 391.5,-37 268.5,-37"/>
<polygon fill="#f5f5f5" stroke="transparent" points="269,-73 269,-95 392,-95 392,-73 269,-73"/>
<polygon fill="none" stroke="black" points="269,-73 269,-95 392,-95 392,-73 269,-73"/>
<text text-anchor="start" x="274" y="-82.2" font-family="Helvetica,sans-Serif" font-weight="bold" font-size="11.00">roi_position</text>
<text text-anchor="start" x="350" y="-81.2" font-family="Helvetica,sans-Serif" font-size="11.00">[table]</text>
<polygon fill="none" stroke="black" points="269,-55 269,-73 392,-73 392,-55 269,-55"/>
<text text-anchor="start" x="272" y="-61.2" font-family="Helvetica,sans-Serif" font-size="11.00">...</text>
<polygon fill="#ffffff" stroke="transparent" points="269,-37 269,-55 309,-55 309,-37 269,-37"/>
<polygon fill="none" stroke="black" points="269,-37 269,-55 309,-55 309,-37 269,-37"/>
<text text-anchor="start" x="272" y="-43.2" font-family="Helvetica,sans-Serif" font-size="11.00">&lt; 1</text>
<polygon fill="#ffffff" stroke="transparent" points="309,-37 309,-55 359,-55 359,-37 309,-37"/>
<polygon fill="none" stroke="black" points="309,-37 309,-55 359,-55 359,-37 309,-37"/>
<text text-anchor="start" x="319" y="-43.2" font-family="Helvetica,sans-Serif" font-size="11.00">0 rows</text>
<polygon fill="#ffffff" stroke="transparent" points="359,-37 359,-55 392,-55 392,-37 359,-37"/>
<polygon fill="none" stroke="black" points="359,-37 359,-55 392,-55 392,-37 359,-37"/>
<text text-anchor="start" x="369" y="-43.2" font-family="Helvetica,sans-Serif" font-size="11.00">1 &gt;</text>
</a>
</g>
</g>
<!-- sign_interpretation_roi&#45;&gt;roi_position -->
<g id="edge14" class="edge">
<title>sign_interpretation_roi:w&#45;&gt;roi_position:e</title>
<path fill="none" stroke="black" d="M539.33,-120.24C476.52,-113.47 463.72,-64 393,-64"/>
<polygon fill="black" stroke="black" points="546.01,-120.58 553.81,-124.6 550.01,-120.79 554,-121 554,-121 554,-121 550.01,-120.79 554.19,-117.4 546.01,-120.58 546.01,-120.58"/>
<ellipse fill="none" stroke="black" cx="542.82" cy="-120.42" rx="3.2" ry="3.2"/>
</g>
<!-- roi_shape -->
<g id="node15" class="node">
<title>roi_shape</title>
<g id="a_node15"><a xlink:href="../../tables/roi_shape.html" xlink:title="roi_shape" target="_top">
<polygon fill="#ffffff" stroke="transparent" points="275,-116 275,-174 385,-174 385,-116 275,-116"/>
<polygon fill="#f5f5f5" stroke="transparent" points="275,-152 275,-174 385,-174 385,-152 275,-152"/>
<polygon fill="none" stroke="black" points="275,-152 275,-174 385,-174 385,-152 275,-152"/>
<text text-anchor="start" x="280" y="-161.2" font-family="Helvetica,sans-Serif" font-weight="bold" font-size="11.00">roi_shape</text>
<text text-anchor="start" x="343" y="-160.2" font-family="Helvetica,sans-Serif" font-size="11.00">[table]</text>
<polygon fill="none" stroke="black" points="275,-134 275,-152 385,-152 385,-134 275,-134"/>
<text text-anchor="start" x="278" y="-140.2" font-family="Helvetica,sans-Serif" font-size="11.00">...</text>
<polygon fill="#ffffff" stroke="transparent" points="275,-116 275,-134 302,-134 302,-116 275,-116"/>
<polygon fill="none" stroke="black" points="275,-116 275,-134 302,-134 302,-116 275,-116"/>
<text text-anchor="start" x="278" y="-122.2" font-family="Helvetica,sans-Serif" font-size="11.00"> &#160;</text>
<polygon fill="#ffffff" stroke="transparent" points="302,-116 302,-134 352,-134 352,-116 302,-116"/>
<polygon fill="none" stroke="black" points="302,-116 302,-134 352,-134 352,-116 302,-116"/>
<text text-anchor="start" x="312" y="-122.2" font-family="Helvetica,sans-Serif" font-size="11.00">0 rows</text>
<polygon fill="#ffffff" stroke="transparent" points="352,-116 352,-134 385,-134 385,-116 352,-116"/>
<polygon fill="none" stroke="black" points="352,-116 352,-134 385,-134 385,-116 352,-116"/>
<text text-anchor="start" x="362" y="-122.2" font-family="Helvetica,sans-Serif" font-size="11.00">1 &gt;</text>
</a>
</g>
</g>
<!-- sign_interpretation_roi&#45;&gt;roi_shape -->
<g id="edge15" class="edge">
<title>sign_interpretation_roi:w&#45;&gt;roi_shape:e</title>
<path fill="none" stroke="black" d="M539.44,-143C476.52,-143 455.56,-143 386,-143"/>
<polygon fill="black" stroke="black" points="546,-143 554,-146.6 550,-143 554,-143 554,-143 554,-143 550,-143 554,-139.4 546,-143 546,-143"/>
<ellipse fill="none" stroke="black" cx="542.8" cy="-143" rx="3.2" ry="3.2"/>
</g>
<!-- sign_interpretation_roi_owner -->
<g id="node16" class="node">
<title>sign_interpretation_roi_owner</title>
<g id="a_node16"><a xlink:href="../../tables/sign_interpretation_roi_owner.html" xlink:title="sign_interpretation_roi_owner" target="_top">
<polygon fill="#ffffff" stroke="transparent" points="860.5,-160 860.5,-218 1094.5,-218 1094.5,-160 860.5,-160"/>
<polygon fill="#f5f5f5" stroke="transparent" points="860.5,-196 860.5,-218 1094.5,-218 1094.5,-196 860.5,-196"/>
<polygon fill="none" stroke="black" points="860.5,-196 860.5,-218 1094.5,-218 1094.5,-196 860.5,-196"/>
<text text-anchor="start" x="865.5" y="-205.2" font-family="Helvetica,sans-Serif" font-weight="bold" font-size="11.00">sign_interpretation_roi_owner</text>
<text text-anchor="start" x="1052.5" y="-204.2" font-family="Helvetica,sans-Serif" font-size="11.00">[table]</text>
<polygon fill="none" stroke="black" points="860.5,-178 860.5,-196 1094.5,-196 1094.5,-178 860.5,-178"/>
<text text-anchor="start" x="863.5" y="-184.2" font-family="Helvetica,sans-Serif" font-size="11.00">...</text>
<polygon fill="#ffffff" stroke="transparent" points="860.5,-160 860.5,-178 961.5,-178 961.5,-160 860.5,-160"/>
<polygon fill="none" stroke="black" points="860.5,-160 860.5,-178 961.5,-178 961.5,-160 860.5,-160"/>
<text text-anchor="start" x="863.5" y="-166.2" font-family="Helvetica,sans-Serif" font-size="11.00">&lt; 3</text>
<polygon fill="#ffffff" stroke="transparent" points="961.5,-160 961.5,-178 1042.5,-178 1042.5,-160 961.5,-160"/>
<polygon fill="none" stroke="black" points="961.5,-160 961.5,-178 1042.5,-178 1042.5,-160 961.5,-160"/>
<text text-anchor="start" x="1002.5" y="-166.2" font-family="Helvetica,sans-Serif" font-size="11.00">0 rows</text>
<polygon fill="#ffffff" stroke="transparent" points="1042.5,-160 1042.5,-178 1094.5,-178 1094.5,-160 1042.5,-160"/>
<polygon fill="none" stroke="black" points="1042.5,-160 1042.5,-178 1094.5,-178 1094.5,-160 1042.5,-160"/>
<text text-anchor="start" x="1083.5" y="-166.2" font-family="Helvetica,sans-Serif" font-size="11.00"> &#160;</text>
</a>
</g>
</g>
<!-- sign_interpretation_roi_owner&#45;&gt;sign_interpretation_roi -->
<g id="edge17" class="edge">
<title>sign_interpretation_roi_owner:w&#45;&gt;sign_interpretation_roi:e</title>
<path fill="none" stroke="black" d="M844.61,-187C807.26,-187 792.74,-187 749,-187"/>
<polygon fill="black" stroke="black" points="851.5,-187 859.5,-190.6 855.5,-187 859.5,-187 859.5,-187 859.5,-187 855.5,-187 859.5,-183.4 851.5,-187 851.5,-187"/>
<ellipse fill="none" stroke="black" cx="848.3" cy="-187" rx="3.2" ry="3.2"/>
</g>
</g>
</svg>
