<?xml version="1.0" encoding="UTF-8" standalone="no"?>
<!DOCTYPE svg PUBLIC "-//W3C//DTD SVG 1.1//EN"
 "http://www.w3.org/Graphics/SVG/1.1/DTD/svg11.dtd">
<!-- Generated by graphviz version 2.43.0 (0)
 -->
<!-- Title: twoDegreesRelationshipsDiagram Pages: 1 -->
<svg width="1080pt" height="706pt"
 viewBox="0.00 0.00 1080.00 705.82" xmlns="http://www.w3.org/2000/svg" xmlns:xlink="http://www.w3.org/1999/xlink">
<g id="graph0" class="graph" transform="scale(1 1) rotate(0) translate(4 701.82)">
<title>twoDegreesRelationshipsDiagram</title>
<polygon fill="#ffffff" stroke="transparent" points="-4,4 -4,-701.82 1076,-701.82 1076,4 -4,4"/>
<text text-anchor="middle" x="79.5" y="-7.2" font-family="Helvetica,sans-Serif" font-size="11.00">Generated by SchemaSpy</text>
<!-- attribute_value -->
<g id="node1" class="node">
<title>attribute_value</title>
<g id="a_node1"><a xlink:href="../../tables/attribute_value.html" xlink:title="attribute_value" target="_top">
<polygon fill="#ffffff" stroke="transparent" points="200,-466 200,-590 345,-590 345,-466 200,-466"/>
<polygon fill="#f5f5f5" stroke="transparent" points="200.5,-568 200.5,-590 345.5,-590 345.5,-568 200.5,-568"/>
<polygon fill="none" stroke="black" points="200.5,-568 200.5,-590 345.5,-590 345.5,-568 200.5,-568"/>
<text text-anchor="start" x="205.5" y="-577.2" font-family="Helvetica,sans-Serif" font-weight="bold" font-size="11.00">attribute_value</text>
<text text-anchor="start" x="303.5" y="-576.2" font-family="Helvetica,sans-Serif" font-size="11.00">[table]</text>
<polygon fill="none" stroke="black" points="200.5,-546 200.5,-568 345.5,-568 345.5,-546 200.5,-546"/>
<image xlink:href="../../images/primaryKeys.png" width="11px" height="12px" preserveAspectRatio="xMinYMin meet" x="205.5" y="-563"/>
<text text-anchor="start" x="221.5" y="-554.2" font-family="Helvetica,sans-Serif" font-size="11.00">attribute_value_id</text>
<polygon fill="#ffffff" stroke="transparent" points="200.5,-524 200.5,-546 345.5,-546 345.5,-524 200.5,-524"/>
<polygon fill="none" stroke="black" points="200.5,-524 200.5,-546 345.5,-546 345.5,-524 200.5,-524"/>
<image xlink:href="../../images/foreignKeys.png" width="11px" height="12px" preserveAspectRatio="xMinYMin meet" x="205.5" y="-541"/>
<text text-anchor="start" x="221.5" y="-532.2" font-family="Helvetica,sans-Serif" font-size="11.00">attribute_id</text>
<polygon fill="#ffffff" stroke="transparent" points="200.5,-502 200.5,-524 345.5,-524 345.5,-502 200.5,-502"/>
<polygon fill="none" stroke="black" points="200.5,-502 200.5,-524 345.5,-524 345.5,-502 200.5,-502"/>
<text text-anchor="start" x="221.5" y="-510.2" font-family="Helvetica,sans-Serif" font-size="11.00">string_value</text>
<polygon fill="none" stroke="black" points="200.5,-484 200.5,-502 345.5,-502 345.5,-484 200.5,-484"/>
<text text-anchor="start" x="203.5" y="-490.2" font-family="Helvetica,sans-Serif" font-size="11.00">...</text>
<polygon fill="#ffffff" stroke="transparent" points="200.5,-466 200.5,-484 247.5,-484 247.5,-466 200.5,-466"/>
<polygon fill="none" stroke="black" points="200.5,-466 200.5,-484 247.5,-484 247.5,-466 200.5,-466"/>
<text text-anchor="start" x="203.5" y="-472.2" font-family="Helvetica,sans-Serif" font-size="11.00">&lt; 1</text>
<polygon fill="#ffffff" stroke="transparent" points="247.5,-466 247.5,-484 308.5,-484 308.5,-466 247.5,-466"/>
<polygon fill="none" stroke="black" points="247.5,-466 247.5,-484 308.5,-484 308.5,-466 247.5,-466"/>
<text text-anchor="start" x="261.5" y="-472.2" font-family="Helvetica,sans-Serif" font-size="11.00">44 rows</text>
<polygon fill="#ffffff" stroke="transparent" points="308.5,-466 308.5,-484 345.5,-484 345.5,-466 308.5,-466"/>
<polygon fill="none" stroke="black" points="308.5,-466 308.5,-484 345.5,-484 345.5,-466 308.5,-466"/>
<text text-anchor="start" x="322.5" y="-472.2" font-family="Helvetica,sans-Serif" font-size="11.00">3 &gt;</text>
</a>
</g>
</g>
<!-- attribute -->
<g id="node2" class="node">
<title>attribute</title>
<g id="a_node2"><a xlink:href="../../tables/attribute.html" xlink:title="attribute" target="_top">
<polygon fill="#ffffff" stroke="transparent" points="20.5,-427 20.5,-485 126.5,-485 126.5,-427 20.5,-427"/>
<polygon fill="#f5f5f5" stroke="transparent" points="20.5,-463 20.5,-485 126.5,-485 126.5,-463 20.5,-463"/>
<polygon fill="none" stroke="black" points="20.5,-463 20.5,-485 126.5,-485 126.5,-463 20.5,-463"/>
<text text-anchor="start" x="25.5" y="-472.2" font-family="Helvetica,sans-Serif" font-weight="bold" font-size="11.00">attribute</text>
<text text-anchor="start" x="84.5" y="-471.2" font-family="Helvetica,sans-Serif" font-size="11.00">[table]</text>
<polygon fill="none" stroke="black" points="20.5,-445 20.5,-463 126.5,-463 126.5,-445 20.5,-445"/>
<text text-anchor="start" x="23.5" y="-451.2" font-family="Helvetica,sans-Serif" font-size="11.00">...</text>
<polygon fill="#ffffff" stroke="transparent" points="20.5,-427 20.5,-445 45.5,-445 45.5,-427 20.5,-427"/>
<polygon fill="none" stroke="black" points="20.5,-427 20.5,-445 45.5,-445 45.5,-427 20.5,-427"/>
<text text-anchor="start" x="23.5" y="-433.2" font-family="Helvetica,sans-Serif" font-size="11.00"> &#160;</text>
<polygon fill="#ffffff" stroke="transparent" points="45.5,-427 45.5,-445 94.5,-445 94.5,-427 45.5,-427"/>
<polygon fill="none" stroke="black" points="45.5,-427 45.5,-445 94.5,-445 94.5,-427 45.5,-427"/>
<text text-anchor="start" x="54.5" y="-433.2" font-family="Helvetica,sans-Serif" font-size="11.00">9 rows</text>
<polygon fill="#ffffff" stroke="transparent" points="94.5,-427 94.5,-445 126.5,-445 126.5,-427 94.5,-427"/>
<polygon fill="none" stroke="black" points="94.5,-427 94.5,-445 126.5,-445 126.5,-427 94.5,-427"/>
<text text-anchor="start" x="103.5" y="-433.2" font-family="Helvetica,sans-Serif" font-size="11.00">3 &gt;</text>
</a>
</g>
</g>
<!-- attribute_value&#45;&gt;attribute -->
<g id="edge1" class="edge">
<title>attribute_value:w&#45;&gt;attribute:e</title>
<path fill="none" stroke="black" d="M185.32,-531.92C156.04,-517.13 170.02,-454 127.5,-454"/>
<polygon fill="black" stroke="black" points="191.68,-533.3 198.74,-538.52 195.59,-534.15 199.5,-535 199.5,-535 199.5,-535 195.59,-534.15 200.26,-531.48 191.68,-533.3 191.68,-533.3"/>
<ellipse fill="none" stroke="black" cx="188.55" cy="-532.63" rx="3.2" ry="3.2"/>
</g>
<!-- attribute_value_css -->
<g id="node3" class="node">
<title>attribute_value_css</title>
<g id="a_node3"><a xlink:href="../../tables/attribute_value_css.html" xlink:title="attribute_value_css" target="_top">
<polygon fill="#ffffff" stroke="transparent" points="489,-594 489,-652 660,-652 660,-594 489,-594"/>
<polygon fill="#f5f5f5" stroke="transparent" points="489.5,-630 489.5,-652 660.5,-652 660.5,-630 489.5,-630"/>
<polygon fill="none" stroke="black" points="489.5,-630 489.5,-652 660.5,-652 660.5,-630 489.5,-630"/>
<text text-anchor="start" x="494.5" y="-639.2" font-family="Helvetica,sans-Serif" font-weight="bold" font-size="11.00">attribute_value_css</text>
<text text-anchor="start" x="618.5" y="-638.2" font-family="Helvetica,sans-Serif" font-size="11.00">[table]</text>
<polygon fill="none" stroke="black" points="489.5,-612 489.5,-630 660.5,-630 660.5,-612 489.5,-612"/>
<text text-anchor="start" x="492.5" y="-618.2" font-family="Helvetica,sans-Serif" font-size="11.00">...</text>
<polygon fill="#ffffff" stroke="transparent" points="489.5,-594 489.5,-612 553.5,-612 553.5,-594 489.5,-594"/>
<polygon fill="none" stroke="black" points="489.5,-594 489.5,-612 553.5,-612 553.5,-594 489.5,-594"/>
<text text-anchor="start" x="492.5" y="-600.2" font-family="Helvetica,sans-Serif" font-size="11.00">&lt; 1</text>
<polygon fill="#ffffff" stroke="transparent" points="553.5,-594 553.5,-612 615.5,-612 615.5,-594 553.5,-594"/>
<polygon fill="none" stroke="black" points="553.5,-594 553.5,-612 615.5,-612 615.5,-594 553.5,-594"/>
<text text-anchor="start" x="575.5" y="-600.2" font-family="Helvetica,sans-Serif" font-size="11.00">0 rows</text>
<polygon fill="#ffffff" stroke="transparent" points="615.5,-594 615.5,-612 660.5,-612 660.5,-594 615.5,-594"/>
<polygon fill="none" stroke="black" points="615.5,-594 615.5,-612 660.5,-612 660.5,-594 615.5,-594"/>
<text text-anchor="start" x="637.5" y="-600.2" font-family="Helvetica,sans-Serif" font-size="11.00">1 &gt;</text>
</a>
</g>
</g>
<!-- attribute_value_css&#45;&gt;attribute_value -->
<g id="edge2" class="edge">
<title>attribute_value_css:w&#45;&gt;attribute_value:e</title>
<path fill="none" stroke="black" d="M473.75,-620.16C442.64,-616.34 432.47,-600.04 398,-584 374.57,-573.1 372.34,-557 346.5,-557"/>
<polygon fill="black" stroke="black" points="480.51,-620.55 488.3,-624.59 484.51,-620.77 488.5,-621 488.5,-621 488.5,-621 484.51,-620.77 488.7,-617.41 480.51,-620.55 480.51,-620.55"/>
<ellipse fill="none" stroke="black" cx="477.32" cy="-620.36" rx="3.2" ry="3.2"/>
</g>
<!-- attribute_value_owner -->
<g id="node4" class="node">
<title>attribute_value_owner</title>
<g id="a_node4"><a xlink:href="../../tables/attribute_value_owner.html" xlink:title="attribute_value_owner" target="_top">
<polygon fill="#ffffff" stroke="transparent" points="833.5,-164 833.5,-222 1022.5,-222 1022.5,-164 833.5,-164"/>
<polygon fill="#f5f5f5" stroke="transparent" points="834,-200 834,-222 1023,-222 1023,-200 834,-200"/>
<polygon fill="none" stroke="black" points="834,-200 834,-222 1023,-222 1023,-200 834,-200"/>
<text text-anchor="start" x="839" y="-209.2" font-family="Helvetica,sans-Serif" font-weight="bold" font-size="11.00">attribute_value_owner</text>
<text text-anchor="start" x="981" y="-208.2" font-family="Helvetica,sans-Serif" font-size="11.00">[table]</text>
<polygon fill="none" stroke="black" points="834,-182 834,-200 1023,-200 1023,-182 834,-182"/>
<text text-anchor="start" x="837" y="-188.2" font-family="Helvetica,sans-Serif" font-size="11.00">...</text>
<polygon fill="#ffffff" stroke="transparent" points="834,-164 834,-182 897,-182 897,-164 834,-164"/>
<polygon fill="none" stroke="black" points="834,-164 834,-182 897,-182 897,-164 834,-164"/>
<text text-anchor="start" x="837" y="-170.2" font-family="Helvetica,sans-Serif" font-size="11.00">&lt; 3</text>
<polygon fill="#ffffff" stroke="transparent" points="897,-164 897,-182 990,-182 990,-164 897,-164"/>
<polygon fill="none" stroke="black" points="897,-164 897,-182 990,-182 990,-164 897,-164"/>
<text text-anchor="start" x="919" y="-170.2" font-family="Helvetica,sans-Serif" font-size="11.00">81,292 rows</text>
<polygon fill="#ffffff" stroke="transparent" points="990,-164 990,-182 1023,-182 1023,-164 990,-164"/>
<polygon fill="none" stroke="black" points="990,-164 990,-182 1023,-182 1023,-164 990,-164"/>
<text text-anchor="start" x="1012" y="-170.2" font-family="Helvetica,sans-Serif" font-size="11.00"> &#160;</text>
</a>
</g>
</g>
<!-- attribute_value_owner&#45;&gt;attribute_value -->
<g id="edge3" class="edge">
<title>attribute_value_owner:w&#45;&gt;attribute_value:e</title>
<path fill="none" stroke="black" d="M818.57,-191.57C633.88,-206.91 910.04,-529.21 751,-663 690.97,-713.5 464.49,-704.62 398,-663 353.6,-635.21 398.88,-557 346.5,-557"/>
<polygon fill="black" stroke="black" points="825.01,-191.31 833.14,-194.6 829,-191.16 833,-191 833,-191 833,-191 829,-191.16 832.86,-187.4 825.01,-191.31 825.01,-191.31"/>
<ellipse fill="none" stroke="black" cx="821.81" cy="-191.44" rx="3.2" ry="3.2"/>
</g>
<!-- edition_editor -->
<g id="node5" class="node">
<title>edition_editor</title>
<g id="a_node5"><a xlink:href="../../tables/edition_editor.html" xlink:title="edition_editor" target="_top">
<polygon fill="#ffffff" stroke="transparent" points="506.5,-76 506.5,-134 642.5,-134 642.5,-76 506.5,-76"/>
<polygon fill="#f5f5f5" stroke="transparent" points="506.5,-112 506.5,-134 642.5,-134 642.5,-112 506.5,-112"/>
<polygon fill="none" stroke="black" points="506.5,-112 506.5,-134 642.5,-134 642.5,-112 506.5,-112"/>
<text text-anchor="start" x="511.5" y="-121.2" font-family="Helvetica,sans-Serif" font-weight="bold" font-size="11.00">edition_editor</text>
<text text-anchor="start" x="600.5" y="-120.2" font-family="Helvetica,sans-Serif" font-size="11.00">[table]</text>
<polygon fill="none" stroke="black" points="506.5,-94 506.5,-112 642.5,-112 642.5,-94 506.5,-94"/>
<text text-anchor="start" x="509.5" y="-100.2" font-family="Helvetica,sans-Serif" font-size="11.00">...</text>
<polygon fill="#ffffff" stroke="transparent" points="506.5,-76 506.5,-94 537.5,-94 537.5,-76 506.5,-76"/>
<polygon fill="none" stroke="black" points="506.5,-76 506.5,-94 537.5,-94 537.5,-76 506.5,-76"/>
<text text-anchor="start" x="509.5" y="-82.2" font-family="Helvetica,sans-Serif" font-size="11.00">&lt; 2</text>
<polygon fill="#ffffff" stroke="transparent" points="537.5,-76 537.5,-94 606.5,-94 606.5,-76 537.5,-76"/>
<polygon fill="none" stroke="black" points="537.5,-76 537.5,-94 606.5,-94 606.5,-76 537.5,-76"/>
<text text-anchor="start" x="542.5" y="-82.2" font-family="Helvetica,sans-Serif" font-size="11.00">1,645 rows</text>
<polygon fill="#ffffff" stroke="transparent" points="606.5,-76 606.5,-94 642.5,-94 642.5,-76 606.5,-76"/>
<polygon fill="none" stroke="black" points="606.5,-76 606.5,-94 642.5,-94 642.5,-76 606.5,-76"/>
<text text-anchor="start" x="612.5" y="-82.2" font-family="Helvetica,sans-Serif" font-size="11.00">33 &gt;</text>
</a>
</g>
</g>
<!-- attribute_value_owner&#45;&gt;edition_editor -->
<g id="edge4" class="edge">
<title>attribute_value_owner:w&#45;&gt;edition_editor:e</title>
<path fill="none" stroke="black" d="M818.42,-189.73C790.3,-184.37 783.29,-163.19 751,-148 704.13,-125.95 695.29,-103 643.5,-103"/>
<polygon fill="black" stroke="black" points="825.03,-190.31 832.69,-194.59 829.02,-190.65 833,-191 833,-191 833,-191 829.02,-190.65 833.31,-187.41 825.03,-190.31 825.03,-190.31"/>
<ellipse fill="none" stroke="black" cx="821.84" cy="-190.03" rx="3.2" ry="3.2"/>
</g>
<!-- edition -->
<g id="node6" class="node">
<title>edition</title>
<g id="a_node6"><a xlink:href="../../tables/edition.html" xlink:title="edition" target="_top">
<polygon fill="#ffffff" stroke="transparent" points="209.5,-76 209.5,-134 335.5,-134 335.5,-76 209.5,-76"/>
<polygon fill="#f5f5f5" stroke="transparent" points="209.5,-112 209.5,-134 335.5,-134 335.5,-112 209.5,-112"/>
<polygon fill="none" stroke="black" points="209.5,-112 209.5,-134 335.5,-134 335.5,-112 209.5,-112"/>
<text text-anchor="start" x="214.5" y="-121.2" font-family="Helvetica,sans-Serif" font-weight="bold" font-size="11.00">edition</text>
<text text-anchor="start" x="293.5" y="-120.2" font-family="Helvetica,sans-Serif" font-size="11.00">[table]</text>
<polygon fill="none" stroke="black" points="209.5,-94 209.5,-112 335.5,-112 335.5,-94 209.5,-94"/>
<text text-anchor="start" x="212.5" y="-100.2" font-family="Helvetica,sans-Serif" font-size="11.00">...</text>
<polygon fill="#ffffff" stroke="transparent" points="209.5,-76 209.5,-94 235.5,-94 235.5,-76 209.5,-76"/>
<polygon fill="none" stroke="black" points="209.5,-76 209.5,-94 235.5,-94 235.5,-76 209.5,-76"/>
<text text-anchor="start" x="212.5" y="-82.2" font-family="Helvetica,sans-Serif" font-size="11.00">&lt; 1</text>
<polygon fill="#ffffff" stroke="transparent" points="235.5,-76 235.5,-94 302.5,-94 302.5,-76 235.5,-76"/>
<polygon fill="none" stroke="black" points="235.5,-76 235.5,-94 302.5,-94 302.5,-76 235.5,-76"/>
<text text-anchor="start" x="238.5" y="-82.2" font-family="Helvetica,sans-Serif" font-size="11.00">1,645 rows</text>
<polygon fill="#ffffff" stroke="transparent" points="302.5,-76 302.5,-94 335.5,-94 335.5,-76 302.5,-76"/>
<polygon fill="none" stroke="black" points="302.5,-76 302.5,-94 335.5,-94 335.5,-76 302.5,-76"/>
<text text-anchor="start" x="305.5" y="-82.2" font-family="Helvetica,sans-Serif" font-size="11.00">35 &gt;</text>
</a>
</g>
</g>
<!-- attribute_value_owner&#45;&gt;edition -->
<g id="edge5" class="edge">
<title>attribute_value_owner:w&#45;&gt;edition:e</title>
<path fill="none" stroke="black" d="M818.44,-190.18C792.72,-187.09 782.69,-176.04 751,-171 595.61,-146.28 546.75,-195.31 398,-144 366.95,-133.29 369.35,-103 336.5,-103"/>
<polygon fill="black" stroke="black" points="825.01,-190.55 832.8,-194.59 829.01,-190.78 833,-191 833,-191 833,-191 829.01,-190.78 833.2,-187.41 825.01,-190.55 825.01,-190.55"/>
<ellipse fill="none" stroke="black" cx="821.82" cy="-190.37" rx="3.2" ry="3.2"/>
</g>
<!-- edition_editor&#45;&gt;edition -->
<g id="edge6" class="edge">
<title>edition_editor:w&#45;&gt;edition:e</title>
<path fill="none" stroke="black" d="M490.85,-103C427.56,-103 406.48,-103 336.5,-103"/>
<polygon fill="black" stroke="black" points="497.5,-103 505.5,-106.6 501.5,-103 505.5,-103 505.5,-103 505.5,-103 501.5,-103 505.5,-99.4 497.5,-103 497.5,-103"/>
<ellipse fill="none" stroke="black" cx="494.3" cy="-103" rx="3.2" ry="3.2"/>
</g>
<!-- position_in_stream -->
<g id="node7" class="node">
<title>position_in_stream</title>
<g id="a_node7"><a xlink:href="../../tables/position_in_stream.html" xlink:title="position_in_stream" target="_top">
<polygon fill="#ffffff" stroke="transparent" points="491.5,-182 491.5,-240 657.5,-240 657.5,-182 491.5,-182"/>
<polygon fill="#f5f5f5" stroke="transparent" points="491.5,-218 491.5,-240 657.5,-240 657.5,-218 491.5,-218"/>
<polygon fill="none" stroke="black" points="491.5,-218 491.5,-240 657.5,-240 657.5,-218 491.5,-218"/>
<text text-anchor="start" x="496.5" y="-227.2" font-family="Helvetica,sans-Serif" font-weight="bold" font-size="11.00">position_in_stream</text>
<text text-anchor="start" x="615.5" y="-226.2" font-family="Helvetica,sans-Serif" font-size="11.00">[table]</text>
<polygon fill="none" stroke="black" points="491.5,-200 491.5,-218 657.5,-218 657.5,-200 491.5,-200"/>
<text text-anchor="start" x="494.5" y="-206.2" font-family="Helvetica,sans-Serif" font-size="11.00">...</text>
<polygon fill="#ffffff" stroke="transparent" points="491.5,-182 491.5,-200 528.5,-200 528.5,-182 491.5,-182"/>
<polygon fill="none" stroke="black" points="491.5,-182 491.5,-200 528.5,-200 528.5,-182 491.5,-182"/>
<text text-anchor="start" x="494.5" y="-188.2" font-family="Helvetica,sans-Serif" font-size="11.00">&lt; 2</text>
<polygon fill="#ffffff" stroke="transparent" points="528.5,-182 528.5,-200 625.5,-200 625.5,-182 528.5,-182"/>
<polygon fill="none" stroke="black" points="528.5,-182 528.5,-200 625.5,-200 625.5,-182 528.5,-182"/>
<text text-anchor="start" x="537.5" y="-188.2" font-family="Helvetica,sans-Serif" font-size="11.00">1,719,776 rows</text>
<polygon fill="#ffffff" stroke="transparent" points="625.5,-182 625.5,-200 657.5,-200 657.5,-182 625.5,-182"/>
<polygon fill="none" stroke="black" points="625.5,-182 625.5,-200 657.5,-200 657.5,-182 625.5,-182"/>
<text text-anchor="start" x="634.5" y="-188.2" font-family="Helvetica,sans-Serif" font-size="11.00">2 &gt;</text>
</a>
</g>
</g>
<!-- sign_interpretation -->
<g id="node8" class="node">
<title>sign_interpretation</title>
<g id="a_node8"><a xlink:href="../../tables/sign_interpretation.html" xlink:title="sign_interpretation" target="_top">
<polygon fill="#ffffff" stroke="transparent" points="188,-193 188,-321 357,-321 357,-193 188,-193"/>
<polygon fill="#f5f5f5" stroke="transparent" points="188.5,-299 188.5,-321 357.5,-321 357.5,-299 188.5,-299"/>
<polygon fill="none" stroke="black" points="188.5,-299 188.5,-321 357.5,-321 357.5,-299 188.5,-299"/>
<text text-anchor="start" x="193.5" y="-308.2" font-family="Helvetica,sans-Serif" font-weight="bold" font-size="11.00">sign_interpretation</text>
<text text-anchor="start" x="315.5" y="-307.2" font-family="Helvetica,sans-Serif" font-size="11.00">[table]</text>
<polygon fill="none" stroke="black" points="188.5,-277 188.5,-299 357.5,-299 357.5,-277 188.5,-277"/>
<image xlink:href="../../images/primaryKeys.png" width="11px" height="12px" preserveAspectRatio="xMinYMin meet" x="193.5" y="-294"/>
<text text-anchor="start" x="208.5" y="-285.2" font-family="Helvetica,sans-Serif" font-size="11.00">sign_interpretation_id</text>
<polygon fill="#ffffff" stroke="transparent" points="188.5,-255 188.5,-277 357.5,-277 357.5,-255 188.5,-255"/>
<polygon fill="none" stroke="black" points="188.5,-255 188.5,-277 357.5,-277 357.5,-255 188.5,-255"/>
<image xlink:href="../../images/foreignKeys.png" width="11px" height="12px" preserveAspectRatio="xMinYMin meet" x="193.5" y="-272"/>
<text text-anchor="start" x="208.5" y="-263.2" font-family="Helvetica,sans-Serif" font-size="11.00">sign_id</text>
<polygon fill="#ffffff" stroke="transparent" points="188.5,-233 188.5,-255 357.5,-255 357.5,-233 188.5,-233"/>
<polygon fill="none" stroke="black" points="188.5,-233 188.5,-255 357.5,-255 357.5,-233 188.5,-233"/>
<text text-anchor="start" x="208.5" y="-241.2" font-family="Helvetica,sans-Serif" font-size="11.00">is_variant</text>
<polygon fill="#ffffff" stroke="transparent" points="188.5,-211 188.5,-233 357.5,-233 357.5,-211 188.5,-211"/>
<polygon fill="none" stroke="black" points="188.5,-211 188.5,-233 357.5,-233 357.5,-211 188.5,-211"/>
<text text-anchor="start" x="208.5" y="-219.2" font-family="Helvetica,sans-Serif" font-size="11.00">character</text>
<polygon fill="#ffffff" stroke="transparent" points="188.5,-193 188.5,-211 227.5,-211 227.5,-193 188.5,-193"/>
<polygon fill="none" stroke="black" points="188.5,-193 188.5,-211 227.5,-211 227.5,-193 188.5,-193"/>
<text text-anchor="start" x="191.5" y="-199.2" font-family="Helvetica,sans-Serif" font-size="11.00">&lt; 1</text>
<polygon fill="#ffffff" stroke="transparent" points="227.5,-193 227.5,-211 324.5,-211 324.5,-193 227.5,-193"/>
<polygon fill="none" stroke="black" points="227.5,-193 227.5,-211 324.5,-211 324.5,-193 227.5,-193"/>
<text text-anchor="start" x="236.5" y="-199.2" font-family="Helvetica,sans-Serif" font-size="11.00">1,189,027 rows</text>
<polygon fill="#ffffff" stroke="transparent" points="324.5,-193 324.5,-211 357.5,-211 357.5,-193 324.5,-193"/>
<polygon fill="none" stroke="black" points="324.5,-193 324.5,-211 357.5,-211 357.5,-193 324.5,-193"/>
<text text-anchor="start" x="334.5" y="-199.2" font-family="Helvetica,sans-Serif" font-size="11.00">5 &gt;</text>
</a>
</g>
</g>
<!-- position_in_stream&#45;&gt;sign_interpretation -->
<g id="edge7" class="edge">
<title>position_in_stream:w&#45;&gt;sign_interpretation:e</title>
<path fill="none" stroke="black" d="M475.98,-207.81C442.67,-207.07 431.13,-222.84 398,-245 378.01,-258.37 382.55,-282 358.5,-288"/>
<polygon fill="black" stroke="black" points="482.53,-208.35 490.21,-212.59 486.51,-208.67 490.5,-209 490.5,-209 490.5,-209 486.51,-208.67 490.79,-205.41 482.53,-208.35 482.53,-208.35"/>
<ellipse fill="none" stroke="black" cx="479.34" cy="-208.09" rx="3.2" ry="3.2"/>
</g>
<!-- position_in_stream&#45;&gt;sign_interpretation -->
<g id="edge8" class="edge">
<title>position_in_stream:w&#45;&gt;sign_interpretation:e</title>
<path fill="none" stroke="black" d="M475.98,-211.87C442.67,-220.07 431.13,-235.84 398,-258 378.01,-271.37 382.55,-295 358.5,-288"/>
<polygon fill="black" stroke="black" points="482.65,-210.55 491.2,-212.53 486.58,-209.77 490.5,-209 490.5,-209 490.5,-209 486.58,-209.77 489.8,-205.47 482.65,-210.55 482.65,-210.55"/>
<ellipse fill="none" stroke="black" cx="479.51" cy="-211.17" rx="3.2" ry="3.2"/>
</g>
<!-- sign -->
<g id="node9" class="node">
<title>sign</title>
<g id="a_node9"><a xlink:href="../../tables/sign.html" xlink:title="sign" target="_top">
<polygon fill="#ffffff" stroke="transparent" points="8,-239 8,-297 139,-297 139,-239 8,-239"/>
<polygon fill="#f5f5f5" stroke="transparent" points="8.5,-275 8.5,-297 139.5,-297 139.5,-275 8.5,-275"/>
<polygon fill="none" stroke="black" points="8.5,-275 8.5,-297 139.5,-297 139.5,-275 8.5,-275"/>
<text text-anchor="start" x="13.5" y="-284.2" font-family="Helvetica,sans-Serif" font-weight="bold" font-size="11.00">sign</text>
<text text-anchor="start" x="97.5" y="-283.2" font-family="Helvetica,sans-Serif" font-size="11.00">[table]</text>
<polygon fill="none" stroke="black" points="8.5,-257 8.5,-275 139.5,-275 139.5,-257 8.5,-257"/>
<text text-anchor="start" x="11.5" y="-263.2" font-family="Helvetica,sans-Serif" font-size="11.00">...</text>
<polygon fill="#ffffff" stroke="transparent" points="8.5,-239 8.5,-257 22.5,-257 22.5,-239 8.5,-239"/>
<polygon fill="none" stroke="black" points="8.5,-239 8.5,-257 22.5,-257 22.5,-239 8.5,-239"/>
<text text-anchor="start" x="11.5" y="-245.2" font-family="Helvetica,sans-Serif" font-size="11.00"> &#160;</text>
<polygon fill="#ffffff" stroke="transparent" points="22.5,-239 22.5,-257 113.5,-257 113.5,-239 22.5,-239"/>
<polygon fill="none" stroke="black" points="22.5,-239 22.5,-257 113.5,-257 113.5,-239 22.5,-239"/>
<text text-anchor="start" x="25.5" y="-245.2" font-family="Helvetica,sans-Serif" font-size="11.00">1,732,050 rows</text>
<polygon fill="#ffffff" stroke="transparent" points="113.5,-239 113.5,-257 139.5,-257 139.5,-239 113.5,-239"/>
<polygon fill="none" stroke="black" points="113.5,-239 113.5,-257 139.5,-257 139.5,-239 113.5,-239"/>
<text text-anchor="start" x="116.5" y="-245.2" font-family="Helvetica,sans-Serif" font-size="11.00">2 &gt;</text>
</a>
</g>
</g>
<!-- sign_interpretation&#45;&gt;sign -->
<g id="edge9" class="edge">
<title>sign_interpretation:w&#45;&gt;sign:e</title>
<path fill="none" stroke="black" d="M172.9,-266C162.43,-266 155.51,-266 140.5,-266"/>
<polygon fill="black" stroke="black" points="179.5,-266 187.5,-269.6 183.5,-266 187.5,-266 187.5,-266 187.5,-266 183.5,-266 187.5,-262.4 179.5,-266 179.5,-266"/>
<ellipse fill="none" stroke="black" cx="176.3" cy="-266" rx="3.2" ry="3.2"/>
</g>
<!-- sign_interpretation_attribute -->
<g id="node10" class="node">
<title>sign_interpretation_attribute</title>
<g id="a_node10"><a xlink:href="../../tables/sign_interpretation_attribute.html" xlink:title="sign_interpretation_attribute" target="_top">
<polygon fill="#ffffff" stroke="transparent" points="406,-419 406,-573 743,-573 743,-419 406,-419"/>
<polygon fill="#f5f5f5" stroke="transparent" points="408.5,-549 408.5,-571 741.5,-571 741.5,-549 408.5,-549"/>
<polygon fill="none" stroke="black" points="408.5,-549 408.5,-571 741.5,-571 741.5,-549 408.5,-549"/>
<text text-anchor="start" x="413.5" y="-558.2" font-family="Helvetica,sans-Serif" font-weight="bold" font-size="11.00">sign_interpretation_attribute</text>
<text text-anchor="start" x="699.5" y="-557.2" font-family="Helvetica,sans-Serif" font-size="11.00">[table]</text>
<polygon fill="none" stroke="black" points="408.5,-527 408.5,-549 644.5,-549 644.5,-527 408.5,-527"/>
<image xlink:href="../../images/primaryKeys.png" width="11px" height="12px" preserveAspectRatio="xMinYMin meet" x="413.5" y="-544"/>
<text text-anchor="start" x="428.5" y="-535.2" font-family="Helvetica,sans-Serif" font-size="11.00">sign_interpretation_attribute_id</text>
<polygon fill="none" stroke="black" points="644.5,-527 644.5,-549 741.5,-549 741.5,-527 644.5,-527"/>
<text text-anchor="start" x="647.5" y="-535.2" font-family="Helvetica,sans-Serif" font-size="11.00">int unsigned[10]</text>
<polygon fill="#ffffff" stroke="transparent" points="408.5,-505 408.5,-527 644.5,-527 644.5,-505 408.5,-505"/>
<polygon fill="none" stroke="black" points="408.5,-505 408.5,-527 644.5,-527 644.5,-505 408.5,-505"/>
<image xlink:href="../../images/foreignKeys.png" width="11px" height="12px" preserveAspectRatio="xMinYMin meet" x="413.5" y="-522"/>
<text text-anchor="start" x="428.5" y="-513.2" font-family="Helvetica,sans-Serif" font-size="11.00">sign_interpretation_id</text>
<polygon fill="none" stroke="black" points="644.5,-505 644.5,-527 741.5,-527 741.5,-505 644.5,-505"/>
<text text-anchor="start" x="647.5" y="-513.2" font-family="Helvetica,sans-Serif" font-size="11.00">int unsigned[10]</text>
<polygon fill="#ffffff" stroke="transparent" points="408.5,-483 408.5,-505 644.5,-505 644.5,-483 408.5,-483"/>
<polygon fill="none" stroke="black" points="408.5,-483 408.5,-505 644.5,-505 644.5,-483 408.5,-483"/>
<image xlink:href="../../images/foreignKeys.png" width="11px" height="12px" preserveAspectRatio="xMinYMin meet" x="413.5" y="-500"/>
<text text-anchor="start" x="428.5" y="-491.2" font-family="Helvetica,sans-Serif" font-size="11.00">attribute_value_id</text>
<polygon fill="none" stroke="black" points="644.5,-483 644.5,-505 741.5,-505 741.5,-483 644.5,-483"/>
<text text-anchor="start" x="647.5" y="-491.2" font-family="Helvetica,sans-Serif" font-size="11.00">int unsigned[10]</text>
<polygon fill="#ffffff" stroke="transparent" points="408.5,-461 408.5,-483 644.5,-483 644.5,-461 408.5,-461"/>
<polygon fill="none" stroke="black" points="408.5,-461 408.5,-483 644.5,-483 644.5,-461 408.5,-461"/>
<text text-anchor="start" x="428.5" y="-469.2" font-family="Helvetica,sans-Serif" font-size="11.00">sequence</text>
<polygon fill="none" stroke="black" points="644.5,-461 644.5,-483 741.5,-483 741.5,-461 644.5,-461"/>
<text text-anchor="start" x="647.5" y="-469.2" font-family="Helvetica,sans-Serif" font-size="11.00">tinyint[3]</text>
<polygon fill="none" stroke="black" points="408.5,-439 408.5,-461 644.5,-461 644.5,-439 408.5,-439"/>
<text text-anchor="start" x="428.5" y="-447.2" font-family="Helvetica,sans-Serif" font-size="11.00">numeric_value</text>
<polygon fill="none" stroke="black" points="644.5,-439 644.5,-461 741.5,-461 741.5,-439 644.5,-439"/>
<text text-anchor="start" x="647.5" y="-447.2" font-family="Helvetica,sans-Serif" font-size="11.00">float[12]</text>
<polygon fill="#ffffff" stroke="transparent" points="408.5,-421 408.5,-439 493.5,-439 493.5,-421 408.5,-421"/>
<polygon fill="none" stroke="black" points="408.5,-421 408.5,-439 493.5,-439 493.5,-421 408.5,-421"/>
<text text-anchor="start" x="411.5" y="-427.2" font-family="Helvetica,sans-Serif" font-size="11.00">&lt; 2</text>
<polygon fill="#ffffff" stroke="transparent" points="493.5,-421 493.5,-439 644.5,-439 644.5,-421 493.5,-421"/>
<polygon fill="none" stroke="black" points="493.5,-421 493.5,-439 644.5,-439 644.5,-421 493.5,-421"/>
<text text-anchor="start" x="556.5" y="-427.2" font-family="Helvetica,sans-Serif" font-size="11.00">2,557,225 rows</text>
<polygon fill="#ffffff" stroke="transparent" points="644.5,-421 644.5,-439 741.5,-439 741.5,-421 644.5,-421"/>
<polygon fill="none" stroke="black" points="644.5,-421 644.5,-439 741.5,-439 741.5,-421 644.5,-421"/>
<text text-anchor="start" x="718.5" y="-427.2" font-family="Helvetica,sans-Serif" font-size="11.00">1 &gt;</text>
<polygon fill="none" stroke="black" stroke-width="2" points="407,-420 407,-572 742,-572 742,-420 407,-420"/>
</a>
</g>
</g>
<!-- sign_interpretation_attribute&#45;&gt;attribute_value -->
<g id="edge10" class="edge">
<title>sign_interpretation_attribute:w&#45;&gt;attribute_value:e</title>
<path fill="none" stroke="black" d="M393.47,-497.75C372.33,-511.32 379.69,-557 346.5,-557"/>
<polygon fill="black" stroke="black" points="399.77,-496.07 408.43,-497.48 403.64,-495.03 407.5,-494 407.5,-494 407.5,-494 403.64,-495.03 406.57,-490.52 399.77,-496.07 399.77,-496.07"/>
<ellipse fill="none" stroke="black" cx="396.68" cy="-496.89" rx="3.2" ry="3.2"/>
</g>
<!-- sign_interpretation_attribute&#45;&gt;sign_interpretation -->
<g id="edge11" class="edge">
<title>sign_interpretation_attribute:w&#45;&gt;sign_interpretation:e</title>
<path fill="none" stroke="black" d="M393.21,-514.16C319.82,-492.59 456.68,-288 358.5,-288"/>
<polygon fill="black" stroke="black" points="399.57,-514.98 407.04,-519.57 403.53,-515.49 407.5,-516 407.5,-516 407.5,-516 403.53,-515.49 407.96,-512.43 399.57,-514.98 399.57,-514.98"/>
<ellipse fill="none" stroke="black" cx="396.39" cy="-514.57" rx="3.2" ry="3.2"/>
</g>
<!-- sign_interpretation_attribute_owner -->
<g id="node11" class="node">
<title>sign_interpretation_attribute_owner</title>
<g id="a_node11"><a xlink:href="../../tables/sign_interpretation_attribute_owner.html" xlink:title="sign_interpretation_attribute_owner" target="_top">
<polygon fill="#ffffff" stroke="transparent" points="792,-37 792,-143 1064,-143 1064,-37 792,-37"/>
<polygon fill="#f5f5f5" stroke="transparent" points="792,-121 792,-143 1064,-143 1064,-121 792,-121"/>
<polygon fill="none" stroke="black" points="792,-121 792,-143 1064,-143 1064,-121 792,-121"/>
<text text-anchor="start" x="797" y="-130.2" font-family="Helvetica,sans-Serif" font-weight="bold" font-size="11.00">sign_interpretation_attribute_owner</text>
<text text-anchor="start" x="1022" y="-129.2" font-family="Helvetica,sans-Serif" font-size="11.00">[table]</text>
<polygon fill="none" stroke="black" points="792,-99 792,-121 1064,-121 1064,-99 792,-99"/>
<image xlink:href="../../images/primaryKeys.png" width="11px" height="12px" preserveAspectRatio="xMinYMin meet" x="797" y="-116"/>
<text text-anchor="start" x="816" y="-107.2" font-family="Helvetica,sans-Serif" font-size="11.00">sign_interpretation_attribute_id</text>
<polygon fill="#ffffff" stroke="transparent" points="792,-77 792,-99 1064,-99 1064,-77 792,-77"/>
<polygon fill="none" stroke="black" points="792,-77 792,-99 1064,-99 1064,-77 792,-77"/>
<image xlink:href="../../images/foreignKeys.png" width="11px" height="12px" preserveAspectRatio="xMinYMin meet" x="797" y="-94"/>
<text text-anchor="start" x="816" y="-85.2" font-family="Helvetica,sans-Serif" font-size="11.00">edition_editor_id</text>
<polygon fill="none" stroke="black" points="792,-55 792,-77 1064,-77 1064,-55 792,-55"/>
<image xlink:href="../../images/primaryKeys.png" width="11px" height="12px" preserveAspectRatio="xMinYMin meet" x="797" y="-72"/>
<text text-anchor="start" x="816" y="-63.2" font-family="Helvetica,sans-Serif" font-size="11.00">edition_id</text>
<polygon fill="#ffffff" stroke="transparent" points="792,-37 792,-55 888,-55 888,-37 792,-37"/>
<polygon fill="none" stroke="black" points="792,-37 792,-55 888,-55 888,-37 792,-37"/>
<text text-anchor="start" x="795" y="-43.2" font-family="Helvetica,sans-Serif" font-size="11.00">&lt; 3</text>
<polygon fill="#ffffff" stroke="transparent" points="888,-37 888,-55 1014,-55 1014,-37 888,-37"/>
<polygon fill="none" stroke="black" points="888,-37 888,-55 1014,-55 1014,-37 888,-37"/>
<text text-anchor="start" x="926" y="-43.2" font-family="Helvetica,sans-Serif" font-size="11.00">2,622,730 rows</text>
<polygon fill="#ffffff" stroke="transparent" points="1014,-37 1014,-55 1064,-55 1064,-37 1014,-37"/>
<polygon fill="none" stroke="black" points="1014,-37 1014,-55 1064,-55 1064,-37 1014,-37"/>
<text text-anchor="start" x="1053" y="-43.2" font-family="Helvetica,sans-Serif" font-size="11.00"> &#160;</text>
</a>
</g>
</g>
<!-- sign_interpretation_attribute_owner&#45;&gt;edition_editor -->
<g id="edge12" class="edge">
<title>sign_interpretation_attribute_owner:w&#45;&gt;edition_editor:e</title>
<path fill="none" stroke="black" d="M776.43,-88.26C722.34,-90.25 704.25,-103 643.5,-103"/>
<polygon fill="black" stroke="black" points="783,-88.14 791.06,-91.6 787,-88.07 791,-88 791,-88 791,-88 787,-88.07 790.94,-84.4 783,-88.14 783,-88.14"/>
<ellipse fill="none" stroke="black" cx="779.8" cy="-88.2" rx="3.2" ry="3.2"/>
</g>
<!-- sign_interpretation_attribute_owner&#45;&gt;edition -->
<g id="edge13" class="edge">
<title>sign_interpretation_attribute_owner:w&#45;&gt;edition:e</title>
<path fill="none" stroke="black" d="M776.4,-65.81C681.09,-63.56 477.66,-42.37 398,-65 367.09,-73.78 368.63,-103 336.5,-103"/>
<polygon fill="black" stroke="black" points="783,-65.9 790.95,-69.6 787,-65.95 791,-66 791,-66 791,-66 787,-65.95 791.05,-62.4 783,-65.9 783,-65.9"/>
<ellipse fill="none" stroke="black" cx="779.8" cy="-65.85" rx="3.2" ry="3.2"/>
</g>
<!-- sign_interpretation_attribute_owner&#45;&gt;sign_interpretation_attribute -->
<g id="edge14" class="edge">
<title>sign_interpretation_attribute_owner:w&#45;&gt;sign_interpretation_attribute:e</title>
<path fill="none" stroke="black" d="M776.95,-113.96C710.71,-157.11 832.8,-538 742.5,-538"/>
<polygon fill="black" stroke="black" points="783.3,-112.17 791.98,-113.46 787.15,-111.09 791,-110 791,-110 791,-110 787.15,-111.09 790.02,-106.54 783.3,-112.17 783.3,-112.17"/>
<ellipse fill="none" stroke="black" cx="780.22" cy="-113.04" rx="3.2" ry="3.2"/>
</g>
<!-- sign_interpretation_commentary -->
<g id="node12" class="node">
<title>sign_interpretation_commentary</title>
<g id="a_node12"><a xlink:href="../../tables/sign_interpretation_commentary.html" xlink:title="sign_interpretation_commentary" target="_top">
<polygon fill="#ffffff" stroke="transparent" points="449,-340 449,-398 700,-398 700,-340 449,-340"/>
<polygon fill="#f5f5f5" stroke="transparent" points="449.5,-376 449.5,-398 700.5,-398 700.5,-376 449.5,-376"/>
<polygon fill="none" stroke="black" points="449.5,-376 449.5,-398 700.5,-398 700.5,-376 449.5,-376"/>
<text text-anchor="start" x="454.5" y="-385.2" font-family="Helvetica,sans-Serif" font-weight="bold" font-size="11.00">sign_interpretation_commentary</text>
<text text-anchor="start" x="658.5" y="-384.2" font-family="Helvetica,sans-Serif" font-size="11.00">[table]</text>
<polygon fill="none" stroke="black" points="449.5,-358 449.5,-376 700.5,-376 700.5,-358 449.5,-358"/>
<text text-anchor="start" x="452.5" y="-364.2" font-family="Helvetica,sans-Serif" font-size="11.00">...</text>
<polygon fill="#ffffff" stroke="transparent" points="449.5,-340 449.5,-358 553.5,-358 553.5,-340 449.5,-340"/>
<polygon fill="none" stroke="black" points="449.5,-340 449.5,-358 553.5,-358 553.5,-340 449.5,-340"/>
<text text-anchor="start" x="452.5" y="-346.2" font-family="Helvetica,sans-Serif" font-size="11.00">&lt; 2</text>
<polygon fill="#ffffff" stroke="transparent" points="553.5,-340 553.5,-358 635.5,-358 635.5,-340 553.5,-340"/>
<polygon fill="none" stroke="black" points="553.5,-340 553.5,-358 635.5,-358 635.5,-340 553.5,-340"/>
<text text-anchor="start" x="595.5" y="-346.2" font-family="Helvetica,sans-Serif" font-size="11.00">0 rows</text>
<polygon fill="#ffffff" stroke="transparent" points="635.5,-340 635.5,-358 700.5,-358 700.5,-340 635.5,-340"/>
<polygon fill="none" stroke="black" points="635.5,-340 635.5,-358 700.5,-358 700.5,-340 635.5,-340"/>
<text text-anchor="start" x="677.5" y="-346.2" font-family="Helvetica,sans-Serif" font-size="11.00">1 &gt;</text>
</a>
</g>
</g>
<!-- sign_interpretation_commentary&#45;&gt;attribute -->
<g id="edge15" class="edge">
<title>sign_interpretation_commentary:w&#45;&gt;attribute:e</title>
<path fill="none" stroke="black" d="M433.76,-367.3C298.81,-372.85 270.26,-454 127.5,-454"/>
<polygon fill="black" stroke="black" points="440.5,-367.16 448.57,-370.6 444.5,-367.08 448.5,-367 448.5,-367 448.5,-367 444.5,-367.08 448.43,-363.4 440.5,-367.16 440.5,-367.16"/>
<ellipse fill="none" stroke="black" cx="437.3" cy="-367.23" rx="3.2" ry="3.2"/>
</g>
<!-- sign_interpretation_commentary&#45;&gt;sign_interpretation -->
<g id="edge16" class="edge">
<title>sign_interpretation_commentary:w&#45;&gt;sign_interpretation:e</title>
<path fill="none" stroke="black" d="M433.94,-364.7C419.06,-359.17 414.44,-344.55 398,-330 378.81,-313.02 384.13,-288 358.5,-288"/>
<polygon fill="black" stroke="black" points="440.6,-365.75 447.94,-370.56 444.55,-366.38 448.5,-367 448.5,-367 448.5,-367 444.55,-366.38 449.06,-363.44 440.6,-365.75 440.6,-365.75"/>
<ellipse fill="none" stroke="black" cx="437.44" cy="-365.25" rx="3.2" ry="3.2"/>
</g>
<!-- sign_interpretation_roi -->
<g id="node13" class="node">
<title>sign_interpretation_roi</title>
<g id="a_node13"><a xlink:href="../../tables/sign_interpretation_roi.html" xlink:title="sign_interpretation_roi" target="_top">
<polygon fill="#ffffff" stroke="transparent" points="479.5,-261 479.5,-319 669.5,-319 669.5,-261 479.5,-261"/>
<polygon fill="#f5f5f5" stroke="transparent" points="479.5,-297 479.5,-319 669.5,-319 669.5,-297 479.5,-297"/>
<polygon fill="none" stroke="black" points="479.5,-297 479.5,-319 669.5,-319 669.5,-297 479.5,-297"/>
<text text-anchor="start" x="484.5" y="-306.2" font-family="Helvetica,sans-Serif" font-weight="bold" font-size="11.00">sign_interpretation_roi</text>
<text text-anchor="start" x="627.5" y="-305.2" font-family="Helvetica,sans-Serif" font-size="11.00">[table]</text>
<polygon fill="none" stroke="black" points="479.5,-279 479.5,-297 669.5,-297 669.5,-279 479.5,-279"/>
<text text-anchor="start" x="482.5" y="-285.2" font-family="Helvetica,sans-Serif" font-size="11.00">...</text>
<polygon fill="#ffffff" stroke="transparent" points="479.5,-261 479.5,-279 552.5,-279 552.5,-261 479.5,-261"/>
<polygon fill="none" stroke="black" points="479.5,-261 479.5,-279 552.5,-279 552.5,-261 479.5,-261"/>
<text text-anchor="start" x="482.5" y="-267.2" font-family="Helvetica,sans-Serif" font-size="11.00">&lt; 3</text>
<polygon fill="#ffffff" stroke="transparent" points="552.5,-261 552.5,-279 619.5,-279 619.5,-261 552.5,-261"/>
<polygon fill="none" stroke="black" points="552.5,-261 552.5,-279 619.5,-279 619.5,-261 552.5,-261"/>
<text text-anchor="start" x="579.5" y="-267.2" font-family="Helvetica,sans-Serif" font-size="11.00">0 rows</text>
<polygon fill="#ffffff" stroke="transparent" points="619.5,-261 619.5,-279 669.5,-279 669.5,-261 619.5,-261"/>
<polygon fill="none" stroke="black" points="619.5,-261 619.5,-279 669.5,-279 669.5,-261 619.5,-261"/>
<text text-anchor="start" x="646.5" y="-267.2" font-family="Helvetica,sans-Serif" font-size="11.00">1 &gt;</text>
</a>
</g>
</g>
<!-- sign_interpretation_roi&#45;&gt;sign_interpretation -->
<g id="edge17" class="edge">
<title>sign_interpretation_roi:w&#45;&gt;sign_interpretation:e</title>
<path fill="none" stroke="black" d="M463.94,-288C422.18,-288 406.62,-288 358.5,-288"/>
<polygon fill="black" stroke="black" points="470.5,-288 478.5,-291.6 474.5,-288 478.5,-288 478.5,-288 478.5,-288 474.5,-288 478.5,-284.4 470.5,-288 470.5,-288"/>
<ellipse fill="none" stroke="black" cx="467.3" cy="-288" rx="3.2" ry="3.2"/>
</g>
</g>
</svg>
