<?xml version="1.0" encoding="UTF-8" standalone="no"?>
<!DOCTYPE svg PUBLIC "-//W3C//DTD SVG 1.1//EN"
 "http://www.w3.org/Graphics/SVG/1.1/DTD/svg11.dtd">
<!-- Generated by graphviz version 2.43.0 (0)
 -->
<!-- Title: oneDegreeRelationshipsDiagram Pages: 1 -->
<svg width="602pt" height="230pt"
 viewBox="0.00 0.00 602.00 230.00" xmlns="http://www.w3.org/2000/svg" xmlns:xlink="http://www.w3.org/1999/xlink">
<g id="graph0" class="graph" transform="scale(1 1) rotate(0) translate(4 226)">
<title>oneDegreeRelationshipsDiagram</title>
<polygon fill="#ffffff" stroke="transparent" points="-4,4 -4,-226 598,-226 598,4 -4,4"/>
<text text-anchor="middle" x="79.5" y="-7.2" font-family="Helvetica,sans-Serif" font-size="11.00">Generated by SchemaSpy</text>
<!-- sign_stream_section_to_qwb_word -->
<g id="node1" class="node">
<title>sign_stream_section_to_qwb_word</title>
<g id="a_node1"><a xlink:href="../../tables/sign_stream_section_to_qwb_word.html" xlink:title="sign_stream_section_to_qwb_word" target="_top">
<polygon fill="#ffffff" stroke="transparent" points="233,-92 233,-180 586,-180 586,-92 233,-92"/>
<polygon fill="#f5f5f5" stroke="transparent" points="235.5,-156 235.5,-178 584.5,-178 584.5,-156 235.5,-156"/>
<polygon fill="none" stroke="black" points="235.5,-156 235.5,-178 584.5,-178 584.5,-156 235.5,-156"/>
<text text-anchor="start" x="240.5" y="-165.2" font-family="Helvetica,sans-Serif" font-weight="bold" font-size="11.00">sign_stream_section_to_qwb_word</text>
<text text-anchor="start" x="542.5" y="-164.2" font-family="Helvetica,sans-Serif" font-size="11.00">[table]</text>
<polygon fill="#ffffff" stroke="transparent" points="235.5,-134 235.5,-156 487.5,-156 487.5,-134 235.5,-134"/>
<polygon fill="none" stroke="black" points="235.5,-134 235.5,-156 487.5,-156 487.5,-134 235.5,-134"/>
<image xlink:href="../../images/foreignKeys.png" width="11px" height="12px" preserveAspectRatio="xMinYMin meet" x="240.5" y="-151"/>
<text text-anchor="start" x="255.5" y="-142.2" font-family="Helvetica,sans-Serif" font-size="11.00">sign_stream_section_id</text>
<polygon fill="none" stroke="black" points="487.5,-134 487.5,-156 584.5,-156 584.5,-134 487.5,-134"/>
<text text-anchor="start" x="490.5" y="-142.2" font-family="Helvetica,sans-Serif" font-size="11.00">int unsigned[10]</text>
<polygon fill="#ffffff" stroke="transparent" points="235.5,-112 235.5,-134 487.5,-134 487.5,-112 235.5,-112"/>
<polygon fill="none" stroke="black" points="235.5,-112 235.5,-134 487.5,-134 487.5,-112 235.5,-112"/>
<image xlink:href="../../images/foreignKeys.png" width="11px" height="12px" preserveAspectRatio="xMinYMin meet" x="240.5" y="-129"/>
<text text-anchor="start" x="255.5" y="-120.2" font-family="Helvetica,sans-Serif" font-size="11.00">qwb_word_id</text>
<polygon fill="none" stroke="black" points="487.5,-112 487.5,-134 584.5,-134 584.5,-112 487.5,-112"/>
<text text-anchor="start" x="490.5" y="-120.2" font-family="Helvetica,sans-Serif" font-size="11.00">int unsigned[10]</text>
<polygon fill="#ffffff" stroke="transparent" points="235.5,-94 235.5,-112 333.5,-112 333.5,-94 235.5,-94"/>
<polygon fill="none" stroke="black" points="235.5,-94 235.5,-112 333.5,-112 333.5,-94 235.5,-94"/>
<text text-anchor="start" x="238.5" y="-100.2" font-family="Helvetica,sans-Serif" font-size="11.00">&lt; 2</text>
<polygon fill="#ffffff" stroke="transparent" points="333.5,-94 333.5,-112 487.5,-112 487.5,-94 333.5,-94"/>
<polygon fill="none" stroke="black" points="333.5,-94 333.5,-112 487.5,-112 487.5,-94 333.5,-94"/>
<text text-anchor="start" x="409.5" y="-100.2" font-family="Helvetica,sans-Serif" font-size="11.00">328,329 rows</text>
<polygon fill="#ffffff" stroke="transparent" points="487.5,-94 487.5,-112 584.5,-112 584.5,-94 487.5,-94"/>
<polygon fill="none" stroke="black" points="487.5,-94 487.5,-112 584.5,-112 584.5,-94 487.5,-94"/>
<text text-anchor="start" x="561.5" y="-100.2" font-family="Helvetica,sans-Serif" font-size="11.00">0 &gt;</text>
<polygon fill="none" stroke="black" stroke-width="2" points="234,-93 234,-179 585,-179 585,-93 234,-93"/>
</a>
</g>
</g>
<!-- qwb_word -->
<g id="node2" class="node">
<title>qwb_word</title>
<g id="a_node2"><a xlink:href="../../tables/qwb_word.html" xlink:title="qwb_word" target="_top">
<polygon fill="#ffffff" stroke="transparent" points="28.5,-37 28.5,-117 163.5,-117 163.5,-37 28.5,-37"/>
<polygon fill="#f5f5f5" stroke="transparent" points="29,-95 29,-117 164,-117 164,-95 29,-95"/>
<polygon fill="none" stroke="black" points="29,-95 29,-117 164,-117 164,-95 29,-95"/>
<text text-anchor="start" x="34" y="-104.2" font-family="Helvetica,sans-Serif" font-weight="bold" font-size="11.00">qwb_word</text>
<text text-anchor="start" x="122" y="-103.2" font-family="Helvetica,sans-Serif" font-size="11.00">[table]</text>
<polygon fill="none" stroke="black" points="29,-73 29,-95 164,-95 164,-73 29,-73"/>
<image xlink:href="../../images/primaryKeys.png" width="11px" height="12px" preserveAspectRatio="xMinYMin meet" x="34" y="-90"/>
<text text-anchor="start" x="49" y="-81.2" font-family="Helvetica,sans-Serif" font-size="11.00">qwb_word_id</text>
<polygon fill="none" stroke="black" points="29,-55 29,-73 164,-73 164,-55 29,-55"/>
<text text-anchor="start" x="32" y="-61.2" font-family="Helvetica,sans-Serif" font-size="11.00">...</text>
<polygon fill="#ffffff" stroke="transparent" points="29,-37 29,-55 50,-55 50,-37 29,-37"/>
<polygon fill="none" stroke="black" points="29,-37 29,-55 50,-55 50,-37 29,-37"/>
<text text-anchor="start" x="32" y="-43.2" font-family="Helvetica,sans-Serif" font-size="11.00"> &#160;</text>
<polygon fill="#ffffff" stroke="transparent" points="50,-37 50,-55 134,-55 134,-37 50,-37"/>
<polygon fill="none" stroke="black" points="50,-37 50,-55 134,-55 134,-37 50,-37"/>
<text text-anchor="start" x="56" y="-43.2" font-family="Helvetica,sans-Serif" font-size="11.00">319,584 rows</text>
<polygon fill="#ffffff" stroke="transparent" points="134,-37 134,-55 164,-55 164,-37 134,-37"/>
<polygon fill="none" stroke="black" points="134,-37 134,-55 164,-55 164,-37 134,-37"/>
<text text-anchor="start" x="141" y="-43.2" font-family="Helvetica,sans-Serif" font-size="11.00">2 &gt;</text>
</a>
</g>
</g>
<!-- sign_stream_section_to_qwb_word&#45;&gt;qwb_word -->
<g id="edge1" class="edge">
<title>sign_stream_section_to_qwb_word:w&#45;&gt;qwb_word:e</title>
<path fill="none" stroke="black" d="M220.31,-120.44C198.6,-111.76 194.89,-84 165,-84"/>
<polygon fill="black" stroke="black" points="226.63,-121.58 233.86,-126.54 230.56,-122.29 234.5,-123 234.5,-123 234.5,-123 230.56,-122.29 235.14,-119.46 226.63,-121.58 226.63,-121.58"/>
<ellipse fill="none" stroke="black" cx="223.48" cy="-121.01" rx="3.2" ry="3.2"/>
</g>
<!-- sign_stream_section -->
<g id="node3" class="node">
<title>sign_stream_section</title>
<g id="a_node3"><a xlink:href="../../tables/sign_stream_section.html" xlink:title="sign_stream_section" target="_top">
<polygon fill="#ffffff" stroke="transparent" points="8,-138 8,-218 184,-218 184,-138 8,-138"/>
<polygon fill="#f5f5f5" stroke="transparent" points="8,-196 8,-218 184,-218 184,-196 8,-196"/>
<polygon fill="none" stroke="black" points="8,-196 8,-218 184,-218 184,-196 8,-196"/>
<text text-anchor="start" x="13" y="-205.2" font-family="Helvetica,sans-Serif" font-weight="bold" font-size="11.00">sign_stream_section</text>
<text text-anchor="start" x="142" y="-204.2" font-family="Helvetica,sans-Serif" font-size="11.00">[table]</text>
<polygon fill="none" stroke="black" points="8,-174 8,-196 184,-196 184,-174 8,-174"/>
<image xlink:href="../../images/primaryKeys.png" width="11px" height="12px" preserveAspectRatio="xMinYMin meet" x="13" y="-191"/>
<text text-anchor="start" x="28" y="-182.2" font-family="Helvetica,sans-Serif" font-size="11.00">sign_stream_section_id</text>
<polygon fill="none" stroke="black" points="8,-156 8,-174 184,-174 184,-156 8,-156"/>
<text text-anchor="start" x="11" y="-162.2" font-family="Helvetica,sans-Serif" font-size="11.00">...</text>
<polygon fill="#ffffff" stroke="transparent" points="8,-138 8,-156 68,-156 68,-138 8,-138"/>
<polygon fill="none" stroke="black" points="8,-138 8,-156 68,-156 68,-138 8,-138"/>
<text text-anchor="start" x="11" y="-144.2" font-family="Helvetica,sans-Serif" font-size="11.00"> &#160;</text>
<polygon fill="#ffffff" stroke="transparent" points="68,-138 68,-156 134,-156 134,-138 68,-138"/>
<polygon fill="none" stroke="black" points="68,-138 68,-156 134,-156 134,-138 68,-138"/>
<text text-anchor="start" x="94" y="-144.2" font-family="Helvetica,sans-Serif" font-size="11.00">2 rows</text>
<polygon fill="#ffffff" stroke="transparent" points="134,-138 134,-156 184,-156 184,-138 134,-138"/>
<polygon fill="none" stroke="black" points="134,-138 134,-156 184,-156 184,-138 134,-138"/>
<text text-anchor="start" x="161" y="-144.2" font-family="Helvetica,sans-Serif" font-size="11.00">4 &gt;</text>
</a>
</g>
</g>
<!-- sign_stream_section_to_qwb_word&#45;&gt;sign_stream_section -->
<g id="edge2" class="edge">
<title>sign_stream_section_to_qwb_word:w&#45;&gt;sign_stream_section:e</title>
<path fill="none" stroke="black" d="M220.66,-149.59C207.62,-160.1 207.32,-185 185,-185"/>
<polygon fill="black" stroke="black" points="226.91,-147.52 235.63,-148.42 230.7,-146.26 234.5,-145 234.5,-145 234.5,-145 230.7,-146.26 233.37,-141.58 226.91,-147.52 226.91,-147.52"/>
<ellipse fill="none" stroke="black" cx="223.87" cy="-148.52" rx="3.2" ry="3.2"/>
</g>
</g>
</svg>
