<?xml version="1.0" encoding="UTF-8" standalone="no"?>
<!DOCTYPE svg PUBLIC "-//W3C//DTD SVG 1.1//EN"
 "http://www.w3.org/Graphics/SVG/1.1/DTD/svg11.dtd">
<!-- Generated by graphviz version 2.40.1 (20161225.0304)
 -->
<!-- Title: oneDegreeRelationshipsDiagram Pages: 1 -->
<svg width="1090pt" height="402pt"
 viewBox="0.00 0.00 1090.00 402.00" xmlns="http://www.w3.org/2000/svg" xmlns:xlink="http://www.w3.org/1999/xlink">
<g id="graph0" class="graph" transform="scale(1 1) rotate(0) translate(4 398)">
<title>oneDegreeRelationshipsDiagram</title>
<polygon fill="#ffffff" stroke="transparent" points="-4,4 -4,-398 1086,-398 1086,4 -4,4"/>
<text text-anchor="middle" x="71.5" y="-7.2" font-family="Helvetica,sans-Serif" font-size="11.00" fill="#000000">Generated by SchemaSpy</text>
<!-- attribute_value -->
<g id="node1" class="node">
<title>attribute_value</title>
<g id="a_node1"><a xlink:href="../../tables/attribute_value.html" xlink:title="attribute_value" target="_top">
<polygon fill="#ffffff" stroke="transparent" points="233,-95 233,-241 376,-241 376,-95 233,-95"/>
<polygon fill="#f5f5f5" stroke="transparent" points="233.5,-219 233.5,-241 376.5,-241 376.5,-219 233.5,-219"/>
<polygon fill="none" stroke="#000000" points="233.5,-219 233.5,-241 376.5,-241 376.5,-219 233.5,-219"/>
<text text-anchor="start" x="238.5" y="-228.2" font-family="Helvetica,sans-Serif" font-weight="bold" font-size="11.00" fill="#000000">attribute_value</text>
<text text-anchor="start" x="341.5" y="-227.2" font-family="Helvetica,sans-Serif" font-size="11.00" fill="#000000">[table]</text>
<polygon fill="none" stroke="#000000" points="233.5,-197 233.5,-219 376.5,-219 376.5,-197 233.5,-197"/>
<image xlink:href="../../images/primaryKeys.png" width="11px" height="12px" preserveAspectRatio="xMinYMin meet" x="238.5" y="-214"/>
<text text-anchor="start" x="253.5" y="-205.2" font-family="Helvetica,sans-Serif" font-size="11.00" fill="#000000">attribute_value_id</text>
<polygon fill="#ffffff" stroke="transparent" points="233.5,-175 233.5,-197 376.5,-197 376.5,-175 233.5,-175"/>
<polygon fill="none" stroke="#000000" points="233.5,-175 233.5,-197 376.5,-197 376.5,-175 233.5,-175"/>
<image xlink:href="../../images/foreignKeys.png" width="11px" height="12px" preserveAspectRatio="xMinYMin meet" x="238.5" y="-192"/>
<text text-anchor="start" x="253.5" y="-183.2" font-family="Helvetica,sans-Serif" font-size="11.00" fill="#000000">attribute_id</text>
<polygon fill="#ffffff" stroke="transparent" points="233.5,-153 233.5,-175 376.5,-175 376.5,-153 233.5,-153"/>
<polygon fill="none" stroke="#000000" points="233.5,-153 233.5,-175 376.5,-175 376.5,-153 233.5,-153"/>
<text text-anchor="start" x="253.5" y="-161.2" font-family="Helvetica,sans-Serif" font-size="11.00" fill="#000000">string_value</text>
<polygon fill="#ffffff" stroke="transparent" points="233.5,-131 233.5,-153 376.5,-153 376.5,-131 233.5,-131"/>
<polygon fill="none" stroke="#000000" points="233.5,-131 233.5,-153 376.5,-153 376.5,-131 233.5,-131"/>
<image xlink:href="../../images/foreignKeys.png" width="11px" height="12px" preserveAspectRatio="xMinYMin meet" x="238.5" y="-148"/>
<text text-anchor="start" x="253.5" y="-139.2" font-family="Helvetica,sans-Serif" font-size="11.00" fill="#000000">creator_id</text>
<polygon fill="none" stroke="#000000" points="233.5,-113 233.5,-131 376.5,-131 376.5,-113 233.5,-113"/>
<text text-anchor="start" x="236.5" y="-119.2" font-family="Helvetica,sans-Serif" font-size="11.00" fill="#000000">...</text>
<polygon fill="#ffffff" stroke="transparent" points="233.5,-95 233.5,-113 282.5,-113 282.5,-95 233.5,-95"/>
<polygon fill="none" stroke="#000000" points="233.5,-95 233.5,-113 282.5,-113 282.5,-95 233.5,-95"/>
<text text-anchor="start" x="236.5" y="-101.2" font-family="Helvetica,sans-Serif" font-size="11.00" fill="#000000">&lt; 2</text>
<polygon fill="#ffffff" stroke="transparent" points="282.5,-95 282.5,-113 340.5,-113 340.5,-95 282.5,-95"/>
<polygon fill="none" stroke="#000000" points="282.5,-95 282.5,-113 340.5,-113 340.5,-95 282.5,-95"/>
<text text-anchor="start" x="298.5" y="-101.2" font-family="Helvetica,sans-Serif" font-size="11.00" fill="#000000">44 rows</text>
<polygon fill="#ffffff" stroke="transparent" points="340.5,-95 340.5,-113 376.5,-113 376.5,-95 340.5,-95"/>
<polygon fill="none" stroke="#000000" points="340.5,-95 340.5,-113 376.5,-113 376.5,-95 340.5,-95"/>
<text text-anchor="start" x="357.5" y="-101.2" font-family="Helvetica,sans-Serif" font-size="11.00" fill="#000000">3 &gt;</text>
</a>
</g>
</g>
<!-- user -->
<g id="node2" class="node">
<title>user</title>
<g id="a_node2"><a xlink:href="../../tables/user.html" xlink:title="user" target="_top">
<polygon fill="#ffffff" stroke="transparent" points="8,-37 8,-139 171,-139 171,-37 8,-37"/>
<polygon fill="#f5f5f5" stroke="transparent" points="8.5,-117 8.5,-139 171.5,-139 171.5,-117 8.5,-117"/>
<polygon fill="none" stroke="#000000" points="8.5,-117 8.5,-139 171.5,-139 171.5,-117 8.5,-117"/>
<text text-anchor="start" x="13.5" y="-126.2" font-family="Helvetica,sans-Serif" font-weight="bold" font-size="11.00" fill="#000000">user</text>
<text text-anchor="start" x="136.5" y="-125.2" font-family="Helvetica,sans-Serif" font-size="11.00" fill="#000000">[table]</text>
<polygon fill="none" stroke="#000000" points="8.5,-95 8.5,-117 171.5,-117 171.5,-95 8.5,-95"/>
<image xlink:href="../../images/primaryKeys.png" width="11px" height="12px" preserveAspectRatio="xMinYMin meet" x="13.5" y="-112"/>
<text text-anchor="start" x="28.5" y="-103.2" font-family="Helvetica,sans-Serif" font-size="11.00" fill="#000000">user_id</text>
<polygon fill="#ffffff" stroke="transparent" points="8.5,-73 8.5,-95 171.5,-95 171.5,-73 8.5,-73"/>
<polygon fill="none" stroke="#000000" points="8.5,-73 8.5,-95 171.5,-95 171.5,-73 8.5,-73"/>
<text text-anchor="start" x="28.5" y="-81.2" font-family="Helvetica,sans-Serif" font-size="11.00" fill="#000000">email</text>
<polygon fill="none" stroke="#000000" points="8.5,-55 8.5,-73 171.5,-73 171.5,-55 8.5,-55"/>
<text text-anchor="start" x="11.5" y="-61.2" font-family="Helvetica,sans-Serif" font-size="11.00" fill="#000000">...</text>
<polygon fill="#ffffff" stroke="transparent" points="8.5,-37 8.5,-55 62.5,-55 62.5,-37 8.5,-37"/>
<polygon fill="none" stroke="#000000" points="8.5,-37 8.5,-55 62.5,-55 62.5,-37 8.5,-37"/>
<text text-anchor="start" x="11.5" y="-43.2" font-family="Helvetica,sans-Serif" font-size="11.00" fill="#000000"> &#160;</text>
<polygon fill="#ffffff" stroke="transparent" points="62.5,-37 62.5,-55 122.5,-55 122.5,-37 62.5,-37"/>
<polygon fill="none" stroke="#000000" points="62.5,-37 62.5,-55 122.5,-55 122.5,-37 62.5,-37"/>
<text text-anchor="start" x="86.5" y="-43.2" font-family="Helvetica,sans-Serif" font-size="11.00" fill="#000000">3 rows</text>
<polygon fill="#ffffff" stroke="transparent" points="122.5,-37 122.5,-55 171.5,-55 171.5,-37 122.5,-37"/>
<polygon fill="none" stroke="#000000" points="122.5,-37 122.5,-55 171.5,-55 171.5,-37 122.5,-37"/>
<text text-anchor="start" x="146.5" y="-43.2" font-family="Helvetica,sans-Serif" font-size="11.00" fill="#000000">40 &gt;</text>
</a>
</g>
</g>
<!-- attribute_value&#45;&gt;user -->
<g id="edge1" class="edge">
<title>attribute_value:w&#45;&gt;user:e</title>
<path fill="none" stroke="#000000" d="M219.1874,-138.9307C201.1724,-130.2249 197.6384,-106 171.5,-106"/>
<polygon fill="#000000" stroke="#000000" points="225.6778,-140.3225 232.7451,-145.52 229.5889,-141.1612 233.5,-142 233.5,-142 233.5,-142 229.5889,-141.1612 234.2549,-138.48 225.6778,-140.3225 225.6778,-140.3225"/>
<ellipse fill="none" stroke="#000000" cx="222.549" cy="-139.6515" rx="3.2" ry="3.2"/>
</g>
<!-- sign_interpretation_attribute -->
<g id="node3" class="node">
<title>sign_interpretation_attribute</title>
<g id="a_node3"><a xlink:href="../../tables/sign_interpretation_attribute.html" xlink:title="sign_interpretation_attribute" target="_top">
<polygon fill="#ffffff" stroke="transparent" points="438,-111 438,-287 760,-287 760,-111 438,-111"/>
<polygon fill="#f5f5f5" stroke="transparent" points="440,-263 440,-285 758,-285 758,-263 440,-263"/>
<polygon fill="none" stroke="#000000" points="440,-263 440,-285 758,-285 758,-263 440,-263"/>
<text text-anchor="start" x="445" y="-272.2" font-family="Helvetica,sans-Serif" font-weight="bold" font-size="11.00" fill="#000000">sign_interpretation_attribute</text>
<text text-anchor="start" x="723" y="-271.2" font-family="Helvetica,sans-Serif" font-size="11.00" fill="#000000">[table]</text>
<polygon fill="none" stroke="#000000" points="440,-241 440,-263 676,-263 676,-241 440,-241"/>
<image xlink:href="../../images/primaryKeys.png" width="11px" height="12px" preserveAspectRatio="xMinYMin meet" x="445" y="-258"/>
<text text-anchor="start" x="460" y="-249.2" font-family="Helvetica,sans-Serif" font-size="11.00" fill="#000000">sign_interpretation_attribute_id</text>
<polygon fill="none" stroke="#000000" points="676,-241 676,-263 758,-263 758,-241 676,-241"/>
<text text-anchor="start" x="679" y="-249.2" font-family="Helvetica,sans-Serif" font-size="11.00" fill="#000000">int unsigned[10]</text>
<polygon fill="#ffffff" stroke="transparent" points="440,-219 440,-241 676,-241 676,-219 440,-219"/>
<polygon fill="none" stroke="#000000" points="440,-219 440,-241 676,-241 676,-219 440,-219"/>
<image xlink:href="../../images/foreignKeys.png" width="11px" height="12px" preserveAspectRatio="xMinYMin meet" x="445" y="-236"/>
<text text-anchor="start" x="460" y="-227.2" font-family="Helvetica,sans-Serif" font-size="11.00" fill="#000000">sign_interpretation_id</text>
<polygon fill="none" stroke="#000000" points="676,-219 676,-241 758,-241 758,-219 676,-219"/>
<text text-anchor="start" x="679" y="-227.2" font-family="Helvetica,sans-Serif" font-size="11.00" fill="#000000">int unsigned[10]</text>
<polygon fill="#ffffff" stroke="transparent" points="440,-197 440,-219 676,-219 676,-197 440,-197"/>
<polygon fill="none" stroke="#000000" points="440,-197 440,-219 676,-219 676,-197 440,-197"/>
<image xlink:href="../../images/foreignKeys.png" width="11px" height="12px" preserveAspectRatio="xMinYMin meet" x="445" y="-214"/>
<text text-anchor="start" x="460" y="-205.2" font-family="Helvetica,sans-Serif" font-size="11.00" fill="#000000">attribute_value_id</text>
<polygon fill="none" stroke="#000000" points="676,-197 676,-219 758,-219 758,-197 676,-197"/>
<text text-anchor="start" x="679" y="-205.2" font-family="Helvetica,sans-Serif" font-size="11.00" fill="#000000">int unsigned[10]</text>
<polygon fill="#ffffff" stroke="transparent" points="440,-175 440,-197 676,-197 676,-175 440,-175"/>
<polygon fill="none" stroke="#000000" points="440,-175 440,-197 676,-197 676,-175 440,-175"/>
<text text-anchor="start" x="460" y="-183.2" font-family="Helvetica,sans-Serif" font-size="11.00" fill="#000000">sequence</text>
<polygon fill="none" stroke="#000000" points="676,-175 676,-197 758,-197 758,-175 676,-175"/>
<text text-anchor="start" x="679" y="-183.2" font-family="Helvetica,sans-Serif" font-size="11.00" fill="#000000">tinyint[3]</text>
<polygon fill="#ffffff" stroke="transparent" points="440,-153 440,-175 676,-175 676,-153 440,-153"/>
<polygon fill="none" stroke="#000000" points="440,-153 440,-175 676,-175 676,-153 440,-153"/>
<text text-anchor="start" x="460" y="-161.2" font-family="Helvetica,sans-Serif" font-size="11.00" fill="#000000">numeric_value</text>
<polygon fill="none" stroke="#000000" points="676,-153 676,-175 758,-175 758,-153 676,-153"/>
<text text-anchor="start" x="679" y="-161.2" font-family="Helvetica,sans-Serif" font-size="11.00" fill="#000000">decimal[8,2]</text>
<polygon fill="#ffffff" stroke="transparent" points="440,-131 440,-153 676,-153 676,-131 440,-131"/>
<polygon fill="none" stroke="#000000" points="440,-131 440,-153 676,-153 676,-131 440,-131"/>
<image xlink:href="../../images/foreignKeys.png" width="11px" height="12px" preserveAspectRatio="xMinYMin meet" x="445" y="-148"/>
<text text-anchor="start" x="460" y="-139.2" font-family="Helvetica,sans-Serif" font-size="11.00" fill="#000000">creator_id</text>
<polygon fill="none" stroke="#000000" points="676,-131 676,-153 758,-153 758,-131 676,-131"/>
<text text-anchor="start" x="679" y="-139.2" font-family="Helvetica,sans-Serif" font-size="11.00" fill="#000000">int unsigned[10]</text>
<polygon fill="#ffffff" stroke="transparent" points="440,-113 440,-131 528,-131 528,-113 440,-113"/>
<polygon fill="none" stroke="#000000" points="440,-113 440,-131 528,-131 528,-113 440,-113"/>
<text text-anchor="start" x="443" y="-119.2" font-family="Helvetica,sans-Serif" font-size="11.00" fill="#000000">&lt; 3</text>
<polygon fill="#ffffff" stroke="transparent" points="528,-113 528,-131 676,-131 676,-113 528,-113"/>
<polygon fill="none" stroke="#000000" points="528,-113 528,-131 676,-131 676,-113 528,-113"/>
<text text-anchor="start" x="598" y="-119.2" font-family="Helvetica,sans-Serif" font-size="11.00" fill="#000000">2,606,879 rows</text>
<polygon fill="#ffffff" stroke="transparent" points="676,-113 676,-131 758,-131 758,-113 676,-113"/>
<polygon fill="none" stroke="#000000" points="676,-113 676,-131 758,-131 758,-113 676,-113"/>
<text text-anchor="start" x="739" y="-119.2" font-family="Helvetica,sans-Serif" font-size="11.00" fill="#000000">1 &gt;</text>
<polygon fill="none" stroke="#000000" stroke-width="2" points="439,-112 439,-286 759,-286 759,-112 439,-112"/>
</a>
</g>
</g>
<!-- sign_interpretation_attribute&#45;&gt;attribute_value -->
<g id="edge2" class="edge">
<title>sign_interpretation_attribute:w&#45;&gt;attribute_value:e</title>
<path fill="none" stroke="#000000" d="M425.5705,-208C408.2143,-208 399.2101,-208 376.5,-208"/>
<polygon fill="#000000" stroke="#000000" points="432,-208.0001 440,-211.6 436,-208 440,-208 440,-208 440,-208 436,-208 440,-204.4 432,-208.0001 432,-208.0001"/>
<ellipse fill="none" stroke="#000000" cx="428.8" cy="-208.0001" rx="3.2" ry="3.2"/>
</g>
<!-- sign_interpretation_attribute&#45;&gt;user -->
<g id="edge3" class="edge">
<title>sign_interpretation_attribute:w&#45;&gt;user:e</title>
<path fill="none" stroke="#000000" d="M426.1843,-137.5556C413.0741,-126.0922 420.0638,-95.6118 397,-84 323.5603,-47.0255 291.6903,-63.7529 212,-84 192.1465,-89.0442 191.9843,-106 171.5,-106"/>
<polygon fill="#000000" stroke="#000000" points="432.3844,-139.5501 438.8975,-145.427 436.1922,-140.775 440,-142 440,-142 440,-142 436.1922,-140.775 441.1025,-138.573 432.3844,-139.5501 432.3844,-139.5501"/>
<ellipse fill="none" stroke="#000000" cx="429.3381" cy="-138.5701" rx="3.2" ry="3.2"/>
</g>
<!-- sign_interpretation -->
<g id="node4" class="node">
<title>sign_interpretation</title>
<g id="a_node4"><a xlink:href="../../tables/sign_interpretation.html" xlink:title="sign_interpretation" target="_top">
<polygon fill="#ffffff" stroke="transparent" points="220,-262 220,-390 389,-390 389,-262 220,-262"/>
<polygon fill="#f5f5f5" stroke="transparent" points="220.5,-368 220.5,-390 389.5,-390 389.5,-368 220.5,-368"/>
<polygon fill="none" stroke="#000000" points="220.5,-368 220.5,-390 389.5,-390 389.5,-368 220.5,-368"/>
<text text-anchor="start" x="225.5" y="-377.2" font-family="Helvetica,sans-Serif" font-weight="bold" font-size="11.00" fill="#000000">sign_interpretation</text>
<text text-anchor="start" x="354.5" y="-376.2" font-family="Helvetica,sans-Serif" font-size="11.00" fill="#000000">[table]</text>
<polygon fill="none" stroke="#000000" points="220.5,-346 220.5,-368 389.5,-368 389.5,-346 220.5,-346"/>
<image xlink:href="../../images/primaryKeys.png" width="11px" height="12px" preserveAspectRatio="xMinYMin meet" x="225.5" y="-363"/>
<text text-anchor="start" x="240.5" y="-354.2" font-family="Helvetica,sans-Serif" font-size="11.00" fill="#000000">sign_interpretation_id</text>
<polygon fill="#ffffff" stroke="transparent" points="220.5,-324 220.5,-346 389.5,-346 389.5,-324 220.5,-324"/>
<polygon fill="none" stroke="#000000" points="220.5,-324 220.5,-346 389.5,-346 389.5,-324 220.5,-324"/>
<image xlink:href="../../images/foreignKeys.png" width="11px" height="12px" preserveAspectRatio="xMinYMin meet" x="225.5" y="-341"/>
<text text-anchor="start" x="240.5" y="-332.2" font-family="Helvetica,sans-Serif" font-size="11.00" fill="#000000">sign_id</text>
<polygon fill="#ffffff" stroke="transparent" points="220.5,-302 220.5,-324 389.5,-324 389.5,-302 220.5,-302"/>
<polygon fill="none" stroke="#000000" points="220.5,-302 220.5,-324 389.5,-324 389.5,-302 220.5,-302"/>
<text text-anchor="start" x="240.5" y="-310.2" font-family="Helvetica,sans-Serif" font-size="11.00" fill="#000000">is_variant</text>
<polygon fill="#ffffff" stroke="transparent" points="220.5,-280 220.5,-302 389.5,-302 389.5,-280 220.5,-280"/>
<polygon fill="none" stroke="#000000" points="220.5,-280 220.5,-302 389.5,-302 389.5,-280 220.5,-280"/>
<text text-anchor="start" x="240.5" y="-288.2" font-family="Helvetica,sans-Serif" font-size="11.00" fill="#000000">character</text>
<polygon fill="#ffffff" stroke="transparent" points="220.5,-262 220.5,-280 264.5,-280 264.5,-262 220.5,-262"/>
<polygon fill="none" stroke="#000000" points="220.5,-262 220.5,-280 264.5,-280 264.5,-262 220.5,-262"/>
<text text-anchor="start" x="223.5" y="-268.2" font-family="Helvetica,sans-Serif" font-size="11.00" fill="#000000">&lt; 1</text>
<polygon fill="#ffffff" stroke="transparent" points="264.5,-262 264.5,-280 356.5,-280 356.5,-262 264.5,-262"/>
<polygon fill="none" stroke="#000000" points="264.5,-262 264.5,-280 356.5,-280 356.5,-262 264.5,-262"/>
<text text-anchor="start" x="278.5" y="-268.2" font-family="Helvetica,sans-Serif" font-size="11.00" fill="#000000">1,586,942 rows</text>
<polygon fill="#ffffff" stroke="transparent" points="356.5,-262 356.5,-280 389.5,-280 389.5,-262 356.5,-262"/>
<polygon fill="none" stroke="#000000" points="356.5,-262 356.5,-280 389.5,-280 389.5,-262 356.5,-262"/>
<text text-anchor="start" x="370.5" y="-268.2" font-family="Helvetica,sans-Serif" font-size="11.00" fill="#000000">5 &gt;</text>
</a>
</g>
</g>
<!-- sign_interpretation_attribute&#45;&gt;sign_interpretation -->
<g id="edge4" class="edge">
<title>sign_interpretation_attribute:w&#45;&gt;sign_interpretation:e</title>
<path fill="none" stroke="#000000" d="M425.7276,-233.3969C391.8651,-253.5935 444.3112,-357 389.5,-357"/>
<polygon fill="#000000" stroke="#000000" points="432.2174,-231.8524 440.8336,-233.5022 436.1087,-230.9262 440,-230 440,-230 440,-230 436.1087,-230.9262 439.1664,-226.4978 432.2174,-231.8524 432.2174,-231.8524"/>
<ellipse fill="none" stroke="#000000" cx="429.1044" cy="-232.5933" rx="3.2" ry="3.2"/>
</g>
<!-- sign_interpretation_attribute_owner -->
<g id="node5" class="node">
<title>sign_interpretation_attribute_owner</title>
<g id="a_node5"><a xlink:href="../../tables/sign_interpretation_attribute_owner.html" xlink:title="sign_interpretation_attribute_owner" target="_top">
<polygon fill="#ffffff" stroke="transparent" points="809,-179 809,-285 1074,-285 1074,-179 809,-179"/>
<polygon fill="#f5f5f5" stroke="transparent" points="809.5,-263 809.5,-285 1074.5,-285 1074.5,-263 809.5,-263"/>
<polygon fill="none" stroke="#000000" points="809.5,-263 809.5,-285 1074.5,-285 1074.5,-263 809.5,-263"/>
<text text-anchor="start" x="814.5" y="-272.2" font-family="Helvetica,sans-Serif" font-weight="bold" font-size="11.00" fill="#000000">sign_interpretation_attribute_owner</text>
<text text-anchor="start" x="1039.5" y="-271.2" font-family="Helvetica,sans-Serif" font-size="11.00" fill="#000000">[table]</text>
<polygon fill="none" stroke="#000000" points="809.5,-241 809.5,-263 1074.5,-263 1074.5,-241 809.5,-241"/>
<image xlink:href="../../images/primaryKeys.png" width="11px" height="12px" preserveAspectRatio="xMinYMin meet" x="814.5" y="-258"/>
<text text-anchor="start" x="829.5" y="-249.2" font-family="Helvetica,sans-Serif" font-size="11.00" fill="#000000">sign_interpretation_attribute_id</text>
<polygon fill="#ffffff" stroke="transparent" points="809.5,-219 809.5,-241 1074.5,-241 1074.5,-219 809.5,-219"/>
<polygon fill="none" stroke="#000000" points="809.5,-219 809.5,-241 1074.5,-241 1074.5,-219 809.5,-219"/>
<image xlink:href="../../images/foreignKeys.png" width="11px" height="12px" preserveAspectRatio="xMinYMin meet" x="814.5" y="-236"/>
<text text-anchor="start" x="829.5" y="-227.2" font-family="Helvetica,sans-Serif" font-size="11.00" fill="#000000">edition_editor_id</text>
<polygon fill="none" stroke="#000000" points="809.5,-197 809.5,-219 1074.5,-219 1074.5,-197 809.5,-197"/>
<image xlink:href="../../images/primaryKeys.png" width="11px" height="12px" preserveAspectRatio="xMinYMin meet" x="814.5" y="-214"/>
<text text-anchor="start" x="829.5" y="-205.2" font-family="Helvetica,sans-Serif" font-size="11.00" fill="#000000">edition_id</text>
<polygon fill="#ffffff" stroke="transparent" points="809.5,-179 809.5,-197 905.5,-197 905.5,-179 809.5,-179"/>
<polygon fill="none" stroke="#000000" points="809.5,-179 809.5,-197 905.5,-197 905.5,-179 809.5,-179"/>
<text text-anchor="start" x="812.5" y="-185.2" font-family="Helvetica,sans-Serif" font-size="11.00" fill="#000000">&lt; 3</text>
<polygon fill="#ffffff" stroke="transparent" points="905.5,-179 905.5,-197 1023.5,-197 1023.5,-179 905.5,-179"/>
<polygon fill="none" stroke="#000000" points="905.5,-179 905.5,-197 1023.5,-197 1023.5,-179 905.5,-179"/>
<text text-anchor="start" x="945.5" y="-185.2" font-family="Helvetica,sans-Serif" font-size="11.00" fill="#000000">2,622,730 rows</text>
<polygon fill="#ffffff" stroke="transparent" points="1023.5,-179 1023.5,-197 1074.5,-197 1074.5,-179 1023.5,-179"/>
<polygon fill="none" stroke="#000000" points="1023.5,-179 1023.5,-197 1074.5,-197 1074.5,-179 1023.5,-179"/>
<text text-anchor="start" x="1064.5" y="-185.2" font-family="Helvetica,sans-Serif" font-size="11.00" fill="#000000"> &#160;</text>
</a>
</g>
</g>
<!-- sign_interpretation_attribute_owner&#45;&gt;sign_interpretation_attribute -->
<g id="edge5" class="edge">
<title>sign_interpretation_attribute_owner:w&#45;&gt;sign_interpretation_attribute:e</title>
<path fill="none" stroke="#000000" d="M795.0156,-252C782.6771,-252 775.1667,-252 758,-252"/>
<polygon fill="#000000" stroke="#000000" points="801.5,-252.0001 809.5,-255.6 805.5,-252 809.5,-252 809.5,-252 809.5,-252 805.5,-252 809.5,-248.4 801.5,-252.0001 801.5,-252.0001"/>
<ellipse fill="none" stroke="#000000" cx="798.3" cy="-252.0001" rx="3.2" ry="3.2"/>
</g>
</g>
</svg>
