<?xml version="1.0" encoding="UTF-8" standalone="no"?>
<!DOCTYPE svg PUBLIC "-//W3C//DTD SVG 1.1//EN"
 "http://www.w3.org/Graphics/SVG/1.1/DTD/svg11.dtd">
<!-- Generated by graphviz version 2.43.0 (0)
 -->
<!-- Title: oneDegreeRelationshipsDiagram Pages: 1 -->
<svg width="979pt" height="300pt"
 viewBox="0.00 0.00 979.00 300.00" xmlns="http://www.w3.org/2000/svg" xmlns:xlink="http://www.w3.org/1999/xlink">
<g id="graph0" class="graph" transform="scale(1 1) rotate(0) translate(4 296)">
<title>oneDegreeRelationshipsDiagram</title>
<polygon fill="#ffffff" stroke="transparent" points="-4,4 -4,-296 975,-296 975,4 -4,4"/>
<text text-anchor="middle" x="79.5" y="-7.2" font-family="Helvetica,sans-Serif" font-size="11.00">Generated by SchemaSpy</text>
<!-- sign_interpretation_commentary -->
<g id="node1" class="node">
<title>sign_interpretation_commentary</title>
<g id="a_node1"><a xlink:href="../../tables/sign_interpretation_commentary.html" xlink:title="sign_interpretation_commentary" target="_top">
<polygon fill="#ffffff" stroke="transparent" points="226,-116 226,-248 619,-248 619,-116 226,-116"/>
<polygon fill="#f5f5f5" stroke="transparent" points="228.5,-224 228.5,-246 617.5,-246 617.5,-224 228.5,-224"/>
<polygon fill="none" stroke="black" points="228.5,-224 228.5,-246 617.5,-246 617.5,-224 228.5,-224"/>
<text text-anchor="start" x="233.5" y="-233.2" font-family="Helvetica,sans-Serif" font-weight="bold" font-size="11.00">sign_interpretation_commentary</text>
<text text-anchor="start" x="575.5" y="-232.2" font-family="Helvetica,sans-Serif" font-size="11.00">[table]</text>
<polygon fill="none" stroke="black" points="228.5,-202 228.5,-224 488.5,-224 488.5,-202 228.5,-202"/>
<image xlink:href="../../images/primaryKeys.png" width="11px" height="12px" preserveAspectRatio="xMinYMin meet" x="233.5" y="-219"/>
<text text-anchor="start" x="248.5" y="-210.2" font-family="Helvetica,sans-Serif" font-size="11.00">sign_interpretation_commentary_id</text>
<polygon fill="none" stroke="black" points="488.5,-202 488.5,-224 617.5,-224 617.5,-202 488.5,-202"/>
<text text-anchor="start" x="491.5" y="-210.2" font-family="Helvetica,sans-Serif" font-size="11.00">int unsigned[10]</text>
<polygon fill="#ffffff" stroke="transparent" points="228.5,-180 228.5,-202 488.5,-202 488.5,-180 228.5,-180"/>
<polygon fill="none" stroke="black" points="228.5,-180 228.5,-202 488.5,-202 488.5,-180 228.5,-180"/>
<image xlink:href="../../images/foreignKeys.png" width="11px" height="12px" preserveAspectRatio="xMinYMin meet" x="233.5" y="-197"/>
<text text-anchor="start" x="248.5" y="-188.2" font-family="Helvetica,sans-Serif" font-size="11.00">sign_interpretation_id</text>
<polygon fill="none" stroke="black" points="488.5,-180 488.5,-202 617.5,-202 617.5,-180 488.5,-180"/>
<text text-anchor="start" x="491.5" y="-188.2" font-family="Helvetica,sans-Serif" font-size="11.00">int unsigned[10]</text>
<polygon fill="#ffffff" stroke="transparent" points="228.5,-158 228.5,-180 488.5,-180 488.5,-158 228.5,-158"/>
<polygon fill="none" stroke="black" points="228.5,-158 228.5,-180 488.5,-180 488.5,-158 228.5,-158"/>
<image xlink:href="../../images/foreignKeys.png" width="11px" height="12px" preserveAspectRatio="xMinYMin meet" x="233.5" y="-175"/>
<text text-anchor="start" x="248.5" y="-166.2" font-family="Helvetica,sans-Serif" font-size="11.00">attribute_id</text>
<polygon fill="none" stroke="black" points="488.5,-158 488.5,-180 617.5,-180 617.5,-158 488.5,-158"/>
<text text-anchor="start" x="491.5" y="-166.2" font-family="Helvetica,sans-Serif" font-size="11.00">int unsigned[10]</text>
<polygon fill="none" stroke="black" points="228.5,-136 228.5,-158 488.5,-158 488.5,-136 228.5,-136"/>
<text text-anchor="start" x="248.5" y="-144.2" font-family="Helvetica,sans-Serif" font-size="11.00">commentary</text>
<polygon fill="none" stroke="black" points="488.5,-136 488.5,-158 617.5,-158 617.5,-136 488.5,-136"/>
<text text-anchor="start" x="491.5" y="-144.2" font-family="Helvetica,sans-Serif" font-size="11.00">longtext[2147483647]</text>
<polygon fill="#ffffff" stroke="transparent" points="228.5,-118 228.5,-136 349.5,-136 349.5,-118 228.5,-118"/>
<polygon fill="none" stroke="black" points="228.5,-118 228.5,-136 349.5,-136 349.5,-118 228.5,-118"/>
<text text-anchor="start" x="231.5" y="-124.2" font-family="Helvetica,sans-Serif" font-size="11.00">&lt; 2</text>
<polygon fill="#ffffff" stroke="transparent" points="349.5,-118 349.5,-136 488.5,-136 488.5,-118 349.5,-118"/>
<polygon fill="none" stroke="black" points="349.5,-118 349.5,-136 488.5,-136 488.5,-118 349.5,-118"/>
<text text-anchor="start" x="448.5" y="-124.2" font-family="Helvetica,sans-Serif" font-size="11.00">0 rows</text>
<polygon fill="#ffffff" stroke="transparent" points="488.5,-118 488.5,-136 617.5,-136 617.5,-118 488.5,-118"/>
<polygon fill="none" stroke="black" points="488.5,-118 488.5,-136 617.5,-136 617.5,-118 488.5,-118"/>
<text text-anchor="start" x="594.5" y="-124.2" font-family="Helvetica,sans-Serif" font-size="11.00">1 &gt;</text>
<polygon fill="none" stroke="black" stroke-width="2" points="227,-117 227,-247 618,-247 618,-117 227,-117"/>
</a>
</g>
</g>
<!-- attribute -->
<g id="node2" class="node">
<title>attribute</title>
<g id="a_node2"><a xlink:href="../../tables/attribute.html" xlink:title="attribute" target="_top">
<polygon fill="#ffffff" stroke="transparent" points="39.5,-37 39.5,-139 145.5,-139 145.5,-37 39.5,-37"/>
<polygon fill="#f5f5f5" stroke="transparent" points="39.5,-117 39.5,-139 145.5,-139 145.5,-117 39.5,-117"/>
<polygon fill="none" stroke="black" points="39.5,-117 39.5,-139 145.5,-139 145.5,-117 39.5,-117"/>
<text text-anchor="start" x="44.5" y="-126.2" font-family="Helvetica,sans-Serif" font-weight="bold" font-size="11.00">attribute</text>
<text text-anchor="start" x="103.5" y="-125.2" font-family="Helvetica,sans-Serif" font-size="11.00">[table]</text>
<polygon fill="none" stroke="black" points="39.5,-95 39.5,-117 145.5,-117 145.5,-95 39.5,-95"/>
<image xlink:href="../../images/primaryKeys.png" width="11px" height="12px" preserveAspectRatio="xMinYMin meet" x="44.5" y="-112"/>
<text text-anchor="start" x="62.5" y="-103.2" font-family="Helvetica,sans-Serif" font-size="11.00">attribute_id</text>
<polygon fill="#ffffff" stroke="transparent" points="39.5,-73 39.5,-95 145.5,-95 145.5,-73 39.5,-73"/>
<polygon fill="none" stroke="black" points="39.5,-73 39.5,-95 145.5,-95 145.5,-73 39.5,-73"/>
<text text-anchor="start" x="62.5" y="-81.2" font-family="Helvetica,sans-Serif" font-size="11.00">name</text>
<polygon fill="none" stroke="black" points="39.5,-55 39.5,-73 145.5,-73 145.5,-55 39.5,-55"/>
<text text-anchor="start" x="42.5" y="-61.2" font-family="Helvetica,sans-Serif" font-size="11.00">...</text>
<polygon fill="#ffffff" stroke="transparent" points="39.5,-37 39.5,-55 64.5,-55 64.5,-37 39.5,-37"/>
<polygon fill="none" stroke="black" points="39.5,-37 39.5,-55 64.5,-55 64.5,-37 39.5,-37"/>
<text text-anchor="start" x="42.5" y="-43.2" font-family="Helvetica,sans-Serif" font-size="11.00"> &#160;</text>
<polygon fill="#ffffff" stroke="transparent" points="64.5,-37 64.5,-55 113.5,-55 113.5,-37 64.5,-37"/>
<polygon fill="none" stroke="black" points="64.5,-37 64.5,-55 113.5,-55 113.5,-37 64.5,-37"/>
<text text-anchor="start" x="73.5" y="-43.2" font-family="Helvetica,sans-Serif" font-size="11.00">9 rows</text>
<polygon fill="#ffffff" stroke="transparent" points="113.5,-37 113.5,-55 145.5,-55 145.5,-37 113.5,-37"/>
<polygon fill="none" stroke="black" points="113.5,-37 113.5,-55 145.5,-55 145.5,-37 113.5,-37"/>
<text text-anchor="start" x="122.5" y="-43.2" font-family="Helvetica,sans-Serif" font-size="11.00">3 &gt;</text>
</a>
</g>
</g>
<!-- sign_interpretation_commentary&#45;&gt;attribute -->
<g id="edge1" class="edge">
<title>sign_interpretation_commentary:w&#45;&gt;attribute:e</title>
<path fill="none" stroke="black" d="M213.19,-166.45C183.55,-154.67 186.58,-106 146.5,-106"/>
<polygon fill="black" stroke="black" points="219.62,-167.6 226.87,-172.54 223.56,-168.3 227.5,-169 227.5,-169 227.5,-169 223.56,-168.3 228.13,-165.46 219.62,-167.6 219.62,-167.6"/>
<ellipse fill="none" stroke="black" cx="216.47" cy="-167.04" rx="3.2" ry="3.2"/>
</g>
<!-- sign_interpretation -->
<g id="node3" class="node">
<title>sign_interpretation</title>
<g id="a_node3"><a xlink:href="../../tables/sign_interpretation.html" xlink:title="sign_interpretation" target="_top">
<polygon fill="#ffffff" stroke="transparent" points="8,-160 8,-288 177,-288 177,-160 8,-160"/>
<polygon fill="#f5f5f5" stroke="transparent" points="8.5,-266 8.5,-288 177.5,-288 177.5,-266 8.5,-266"/>
<polygon fill="none" stroke="black" points="8.5,-266 8.5,-288 177.5,-288 177.5,-266 8.5,-266"/>
<text text-anchor="start" x="13.5" y="-275.2" font-family="Helvetica,sans-Serif" font-weight="bold" font-size="11.00">sign_interpretation</text>
<text text-anchor="start" x="135.5" y="-274.2" font-family="Helvetica,sans-Serif" font-size="11.00">[table]</text>
<polygon fill="none" stroke="black" points="8.5,-244 8.5,-266 177.5,-266 177.5,-244 8.5,-244"/>
<image xlink:href="../../images/primaryKeys.png" width="11px" height="12px" preserveAspectRatio="xMinYMin meet" x="13.5" y="-261"/>
<text text-anchor="start" x="28.5" y="-252.2" font-family="Helvetica,sans-Serif" font-size="11.00">sign_interpretation_id</text>
<polygon fill="#ffffff" stroke="transparent" points="8.5,-222 8.5,-244 177.5,-244 177.5,-222 8.5,-222"/>
<polygon fill="none" stroke="black" points="8.5,-222 8.5,-244 177.5,-244 177.5,-222 8.5,-222"/>
<image xlink:href="../../images/foreignKeys.png" width="11px" height="12px" preserveAspectRatio="xMinYMin meet" x="13.5" y="-239"/>
<text text-anchor="start" x="28.5" y="-230.2" font-family="Helvetica,sans-Serif" font-size="11.00">sign_id</text>
<polygon fill="#ffffff" stroke="transparent" points="8.5,-200 8.5,-222 177.5,-222 177.5,-200 8.5,-200"/>
<polygon fill="none" stroke="black" points="8.5,-200 8.5,-222 177.5,-222 177.5,-200 8.5,-200"/>
<text text-anchor="start" x="28.5" y="-208.2" font-family="Helvetica,sans-Serif" font-size="11.00">is_variant</text>
<polygon fill="#ffffff" stroke="transparent" points="8.5,-178 8.5,-200 177.5,-200 177.5,-178 8.5,-178"/>
<polygon fill="none" stroke="black" points="8.5,-178 8.5,-200 177.5,-200 177.5,-178 8.5,-178"/>
<text text-anchor="start" x="28.5" y="-186.2" font-family="Helvetica,sans-Serif" font-size="11.00">character</text>
<polygon fill="#ffffff" stroke="transparent" points="8.5,-160 8.5,-178 47.5,-178 47.5,-160 8.5,-160"/>
<polygon fill="none" stroke="black" points="8.5,-160 8.5,-178 47.5,-178 47.5,-160 8.5,-160"/>
<text text-anchor="start" x="11.5" y="-166.2" font-family="Helvetica,sans-Serif" font-size="11.00">&lt; 1</text>
<polygon fill="#ffffff" stroke="transparent" points="47.5,-160 47.5,-178 144.5,-178 144.5,-160 47.5,-160"/>
<polygon fill="none" stroke="black" points="47.5,-160 47.5,-178 144.5,-178 144.5,-160 47.5,-160"/>
<text text-anchor="start" x="56.5" y="-166.2" font-family="Helvetica,sans-Serif" font-size="11.00">1,189,027 rows</text>
<polygon fill="#ffffff" stroke="transparent" points="144.5,-160 144.5,-178 177.5,-178 177.5,-160 144.5,-160"/>
<polygon fill="none" stroke="black" points="144.5,-160 144.5,-178 177.5,-178 177.5,-160 144.5,-160"/>
<text text-anchor="start" x="154.5" y="-166.2" font-family="Helvetica,sans-Serif" font-size="11.00">5 &gt;</text>
</a>
</g>
</g>
<!-- sign_interpretation_commentary&#45;&gt;sign_interpretation -->
<g id="edge2" class="edge">
<title>sign_interpretation_commentary:w&#45;&gt;sign_interpretation:e</title>
<path fill="none" stroke="black" d="M213.62,-196.02C197.73,-211.11 208.17,-255 178.5,-255"/>
<polygon fill="black" stroke="black" points="219.98,-193.72 228.72,-194.39 223.74,-192.36 227.5,-191 227.5,-191 227.5,-191 223.74,-192.36 226.28,-187.61 219.98,-193.72 219.98,-193.72"/>
<ellipse fill="none" stroke="black" cx="216.97" cy="-194.81" rx="3.2" ry="3.2"/>
</g>
<!-- sign_interpretation_commentary_owner -->
<g id="node4" class="node">
<title>sign_interpretation_commentary_owner</title>
<g id="a_node4"><a xlink:href="../../tables/sign_interpretation_commentary_owner.html" xlink:title="sign_interpretation_commentary_owner" target="_top">
<polygon fill="#ffffff" stroke="transparent" points="668,-140 668,-246 963,-246 963,-140 668,-140"/>
<polygon fill="#f5f5f5" stroke="transparent" points="668.5,-224 668.5,-246 963.5,-246 963.5,-224 668.5,-224"/>
<polygon fill="none" stroke="black" points="668.5,-224 668.5,-246 963.5,-246 963.5,-224 668.5,-224"/>
<text text-anchor="start" x="673.5" y="-233.2" font-family="Helvetica,sans-Serif" font-weight="bold" font-size="11.00">sign_interpretation_commentary_owner</text>
<text text-anchor="start" x="921.5" y="-232.2" font-family="Helvetica,sans-Serif" font-size="11.00">[table]</text>
<polygon fill="none" stroke="black" points="668.5,-202 668.5,-224 963.5,-224 963.5,-202 668.5,-202"/>
<image xlink:href="../../images/primaryKeys.png" width="11px" height="12px" preserveAspectRatio="xMinYMin meet" x="673.5" y="-219"/>
<text text-anchor="start" x="691.5" y="-210.2" font-family="Helvetica,sans-Serif" font-size="11.00">sign_interpretation_commentary_id</text>
<polygon fill="#ffffff" stroke="transparent" points="668.5,-180 668.5,-202 963.5,-202 963.5,-180 668.5,-180"/>
<polygon fill="none" stroke="black" points="668.5,-180 668.5,-202 963.5,-202 963.5,-180 668.5,-180"/>
<image xlink:href="../../images/foreignKeys.png" width="11px" height="12px" preserveAspectRatio="xMinYMin meet" x="673.5" y="-197"/>
<text text-anchor="start" x="691.5" y="-188.2" font-family="Helvetica,sans-Serif" font-size="11.00">edition_editor_id</text>
<polygon fill="none" stroke="black" points="668.5,-158 668.5,-180 963.5,-180 963.5,-158 668.5,-158"/>
<image xlink:href="../../images/primaryKeys.png" width="11px" height="12px" preserveAspectRatio="xMinYMin meet" x="673.5" y="-175"/>
<text text-anchor="start" x="691.5" y="-166.2" font-family="Helvetica,sans-Serif" font-size="11.00">edition_id</text>
<polygon fill="#ffffff" stroke="transparent" points="668.5,-140 668.5,-158 800.5,-158 800.5,-140 668.5,-140"/>
<polygon fill="none" stroke="black" points="668.5,-140 668.5,-158 800.5,-158 800.5,-140 668.5,-140"/>
<text text-anchor="start" x="671.5" y="-146.2" font-family="Helvetica,sans-Serif" font-size="11.00">&lt; 3</text>
<polygon fill="#ffffff" stroke="transparent" points="800.5,-140 800.5,-158 896.5,-158 896.5,-140 800.5,-140"/>
<polygon fill="none" stroke="black" points="800.5,-140 800.5,-158 896.5,-158 896.5,-140 800.5,-140"/>
<text text-anchor="start" x="856.5" y="-146.2" font-family="Helvetica,sans-Serif" font-size="11.00">0 rows</text>
<polygon fill="#ffffff" stroke="transparent" points="896.5,-140 896.5,-158 963.5,-158 963.5,-140 896.5,-140"/>
<polygon fill="none" stroke="black" points="896.5,-140 896.5,-158 963.5,-158 963.5,-140 896.5,-140"/>
<text text-anchor="start" x="952.5" y="-146.2" font-family="Helvetica,sans-Serif" font-size="11.00"> &#160;</text>
</a>
</g>
</g>
<!-- sign_interpretation_commentary_owner&#45;&gt;sign_interpretation_commentary -->
<g id="edge3" class="edge">
<title>sign_interpretation_commentary_owner:w&#45;&gt;sign_interpretation_commentary:e</title>
<path fill="none" stroke="black" d="M652.99,-213C641.68,-213 634.49,-213 618.5,-213"/>
<polygon fill="black" stroke="black" points="659.5,-213 667.5,-216.6 663.5,-213 667.5,-213 667.5,-213 667.5,-213 663.5,-213 667.5,-209.4 659.5,-213 659.5,-213"/>
<ellipse fill="none" stroke="black" cx="656.3" cy="-213" rx="3.2" ry="3.2"/>
</g>
</g>
</svg>
