<?xml version="1.0" encoding="UTF-8" standalone="no"?>
<!DOCTYPE svg PUBLIC "-//W3C//DTD SVG 1.1//EN"
 "http://www.w3.org/Graphics/SVG/1.1/DTD/svg11.dtd">
<!-- Generated by graphviz version 2.40.1 (20161225.0304)
 -->
<!-- Title: oneDegreeRelationshipsDiagram Pages: 1 -->
<svg width="833pt" height="536pt"
 viewBox="0.00 0.00 833.00 536.00" xmlns="http://www.w3.org/2000/svg" xmlns:xlink="http://www.w3.org/1999/xlink">
<g id="graph0" class="graph" transform="scale(1 1) rotate(0) translate(4 532)">
<title>oneDegreeRelationshipsDiagram</title>
<polygon fill="#ffffff" stroke="transparent" points="-4,4 -4,-532 829,-532 829,4 -4,4"/>
<text text-anchor="middle" x="71.5" y="-7.2" font-family="Helvetica,sans-Serif" font-size="11.00" fill="#000000">Generated by SchemaSpy</text>
<!-- parallel_word -->
<g id="node1" class="node">
<title>parallel_word</title>
<g id="a_node1"><a xlink:href="../../tables/parallel_word.html" xlink:title="parallel_word" target="_top">
<polygon fill="#ffffff" stroke="transparent" points="623,-374 623,-524 759,-524 759,-374 623,-374"/>
<polygon fill="#f5f5f5" stroke="transparent" points="623,-502 623,-524 759,-524 759,-502 623,-502"/>
<polygon fill="none" stroke="#000000" points="623,-502 623,-524 759,-524 759,-502 623,-502"/>
<text text-anchor="start" x="628" y="-511.2" font-family="Helvetica,sans-Serif" font-weight="bold" font-size="11.00" fill="#000000">parallel_word</text>
<text text-anchor="start" x="724" y="-510.2" font-family="Helvetica,sans-Serif" font-size="11.00" fill="#000000">[table]</text>
<polygon fill="none" stroke="#000000" points="623,-480 623,-502 759,-502 759,-480 623,-480"/>
<image xlink:href="../../images/primaryKeys.png" width="11px" height="12px" preserveAspectRatio="xMinYMin meet" x="628" y="-497"/>
<text text-anchor="start" x="643" y="-488.2" font-family="Helvetica,sans-Serif" font-size="11.00" fill="#000000">parallel_word_id</text>
<polygon fill="#ffffff" stroke="transparent" points="623,-458 623,-480 759,-480 759,-458 623,-458"/>
<polygon fill="none" stroke="#000000" points="623,-458 623,-480 759,-480 759,-458 623,-458"/>
<image xlink:href="../../images/foreignKeys.png" width="11px" height="12px" preserveAspectRatio="xMinYMin meet" x="628" y="-475"/>
<text text-anchor="start" x="643" y="-466.2" font-family="Helvetica,sans-Serif" font-size="11.00" fill="#000000">word_id</text>
<polygon fill="#ffffff" stroke="transparent" points="623,-436 623,-458 759,-458 759,-436 623,-436"/>
<polygon fill="none" stroke="#000000" points="623,-436 623,-458 759,-458 759,-436 623,-436"/>
<image xlink:href="../../images/foreignKeys.png" width="11px" height="12px" preserveAspectRatio="xMinYMin meet" x="628" y="-453"/>
<text text-anchor="start" x="643" y="-444.2" font-family="Helvetica,sans-Serif" font-size="11.00" fill="#000000">parallel_group_id</text>
<polygon fill="#ffffff" stroke="transparent" points="623,-414 623,-436 759,-436 759,-414 623,-414"/>
<polygon fill="none" stroke="#000000" points="623,-414 623,-436 759,-436 759,-414 623,-414"/>
<text text-anchor="start" x="643" y="-422.2" font-family="Helvetica,sans-Serif" font-size="11.00" fill="#000000">sub_group</text>
<polygon fill="#ffffff" stroke="transparent" points="623,-392 623,-414 759,-414 759,-392 623,-392"/>
<polygon fill="none" stroke="#000000" points="623,-392 623,-414 759,-414 759,-392 623,-392"/>
<image xlink:href="../../images/foreignKeys.png" width="11px" height="12px" preserveAspectRatio="xMinYMin meet" x="628" y="-409"/>
<text text-anchor="start" x="643" y="-400.2" font-family="Helvetica,sans-Serif" font-size="11.00" fill="#000000">creator_id</text>
<polygon fill="#ffffff" stroke="transparent" points="623,-374 623,-392 671,-392 671,-374 623,-374"/>
<polygon fill="none" stroke="#000000" points="623,-374 623,-392 671,-392 671,-374 623,-374"/>
<text text-anchor="start" x="626" y="-380.2" font-family="Helvetica,sans-Serif" font-size="11.00" fill="#000000">&lt; 3</text>
<polygon fill="#ffffff" stroke="transparent" points="671,-374 671,-392 723,-392 723,-374 671,-374"/>
<polygon fill="none" stroke="#000000" points="671,-374 671,-392 723,-392 723,-374 671,-374"/>
<text text-anchor="start" x="687" y="-380.2" font-family="Helvetica,sans-Serif" font-size="11.00" fill="#000000">0 rows</text>
<polygon fill="#ffffff" stroke="transparent" points="723,-374 723,-392 759,-392 759,-374 723,-374"/>
<polygon fill="none" stroke="#000000" points="723,-374 723,-392 759,-392 759,-374 723,-374"/>
<text text-anchor="start" x="740" y="-380.2" font-family="Helvetica,sans-Serif" font-size="11.00" fill="#000000">1 &gt;</text>
</a>
</g>
</g>
<!-- user -->
<g id="node2" class="node">
<title>user</title>
<g id="a_node2"><a xlink:href="../../tables/user.html" xlink:title="user" target="_top">
<polygon fill="#ffffff" stroke="transparent" points="8,-248 8,-350 171,-350 171,-248 8,-248"/>
<polygon fill="#f5f5f5" stroke="transparent" points="8.5,-328 8.5,-350 171.5,-350 171.5,-328 8.5,-328"/>
<polygon fill="none" stroke="#000000" points="8.5,-328 8.5,-350 171.5,-350 171.5,-328 8.5,-328"/>
<text text-anchor="start" x="13.5" y="-337.2" font-family="Helvetica,sans-Serif" font-weight="bold" font-size="11.00" fill="#000000">user</text>
<text text-anchor="start" x="136.5" y="-336.2" font-family="Helvetica,sans-Serif" font-size="11.00" fill="#000000">[table]</text>
<polygon fill="none" stroke="#000000" points="8.5,-306 8.5,-328 171.5,-328 171.5,-306 8.5,-306"/>
<image xlink:href="../../images/primaryKeys.png" width="11px" height="12px" preserveAspectRatio="xMinYMin meet" x="13.5" y="-323"/>
<text text-anchor="start" x="28.5" y="-314.2" font-family="Helvetica,sans-Serif" font-size="11.00" fill="#000000">user_id</text>
<polygon fill="#ffffff" stroke="transparent" points="8.5,-284 8.5,-306 171.5,-306 171.5,-284 8.5,-284"/>
<polygon fill="none" stroke="#000000" points="8.5,-284 8.5,-306 171.5,-306 171.5,-284 8.5,-284"/>
<text text-anchor="start" x="28.5" y="-292.2" font-family="Helvetica,sans-Serif" font-size="11.00" fill="#000000">email</text>
<polygon fill="none" stroke="#000000" points="8.5,-266 8.5,-284 171.5,-284 171.5,-266 8.5,-266"/>
<text text-anchor="start" x="11.5" y="-272.2" font-family="Helvetica,sans-Serif" font-size="11.00" fill="#000000">...</text>
<polygon fill="#ffffff" stroke="transparent" points="8.5,-248 8.5,-266 62.5,-266 62.5,-248 8.5,-248"/>
<polygon fill="none" stroke="#000000" points="8.5,-248 8.5,-266 62.5,-266 62.5,-248 8.5,-248"/>
<text text-anchor="start" x="11.5" y="-254.2" font-family="Helvetica,sans-Serif" font-size="11.00" fill="#000000"> &#160;</text>
<polygon fill="#ffffff" stroke="transparent" points="62.5,-248 62.5,-266 122.5,-266 122.5,-248 62.5,-248"/>
<polygon fill="none" stroke="#000000" points="62.5,-248 62.5,-266 122.5,-266 122.5,-248 62.5,-248"/>
<text text-anchor="start" x="86.5" y="-254.2" font-family="Helvetica,sans-Serif" font-size="11.00" fill="#000000">3 rows</text>
<polygon fill="#ffffff" stroke="transparent" points="122.5,-248 122.5,-266 171.5,-266 171.5,-248 122.5,-248"/>
<polygon fill="none" stroke="#000000" points="122.5,-248 122.5,-266 171.5,-266 171.5,-248 122.5,-248"/>
<text text-anchor="start" x="146.5" y="-254.2" font-family="Helvetica,sans-Serif" font-size="11.00" fill="#000000">40 &gt;</text>
</a>
</g>
</g>
<!-- parallel_word&#45;&gt;user -->
<g id="edge1" class="edge">
<title>parallel_word:w&#45;&gt;user:e</title>
<path fill="none" stroke="#000000" d="M608.4098,-403.0134C435.4699,-403.3192 379.7344,-408.1509 212,-344 191.7941,-336.2721 193.1333,-317 171.5,-317"/>
<polygon fill="#000000" stroke="#000000" points="615,-403.0074 623.0033,-406.6 619,-403.0037 623,-403 623,-403 623,-403 619,-403.0037 622.9967,-399.4 615,-403.0074 615,-403.0074"/>
<ellipse fill="none" stroke="#000000" cx="611.8" cy="-403.0104" rx="3.2" ry="3.2"/>
</g>
<!-- sign_stream_section -->
<g id="node3" class="node">
<title>sign_stream_section</title>
<g id="a_node3"><a xlink:href="../../tables/sign_stream_section.html" xlink:title="sign_stream_section" target="_top">
<polygon fill="#ffffff" stroke="transparent" points="220,-223 220,-333 516,-333 516,-223 220,-223"/>
<polygon fill="#f5f5f5" stroke="transparent" points="222,-309 222,-331 514,-331 514,-309 222,-309"/>
<polygon fill="none" stroke="#000000" points="222,-309 222,-331 514,-331 514,-309 222,-309"/>
<text text-anchor="start" x="227" y="-318.2" font-family="Helvetica,sans-Serif" font-weight="bold" font-size="11.00" fill="#000000">sign_stream_section</text>
<text text-anchor="start" x="479" y="-317.2" font-family="Helvetica,sans-Serif" font-size="11.00" fill="#000000">[table]</text>
<polygon fill="none" stroke="#000000" points="222,-287 222,-309 398,-309 398,-287 222,-287"/>
<image xlink:href="../../images/primaryKeys.png" width="11px" height="12px" preserveAspectRatio="xMinYMin meet" x="227" y="-304"/>
<text text-anchor="start" x="242" y="-295.2" font-family="Helvetica,sans-Serif" font-size="11.00" fill="#000000">sign_stream_section_id</text>
<polygon fill="none" stroke="#000000" points="398,-287 398,-309 514,-309 514,-287 398,-287"/>
<text text-anchor="start" x="401" y="-295.2" font-family="Helvetica,sans-Serif" font-size="11.00" fill="#000000">int unsigned[10]</text>
<polygon fill="none" stroke="#000000" points="222,-265 222,-287 398,-287 398,-265 222,-265"/>
<text text-anchor="start" x="242" y="-273.2" font-family="Helvetica,sans-Serif" font-size="11.00" fill="#000000">commentary</text>
<polygon fill="none" stroke="#000000" points="398,-265 398,-287 514,-287 514,-265 398,-265"/>
<text text-anchor="start" x="401" y="-273.2" font-family="Helvetica,sans-Serif" font-size="11.00" fill="#000000">mediumtext[16777215]</text>
<polygon fill="#ffffff" stroke="transparent" points="222,-243 222,-265 398,-265 398,-243 222,-243"/>
<polygon fill="none" stroke="#000000" points="222,-243 222,-265 398,-265 398,-243 222,-243"/>
<image xlink:href="../../images/foreignKeys.png" width="11px" height="12px" preserveAspectRatio="xMinYMin meet" x="227" y="-260"/>
<text text-anchor="start" x="242" y="-251.2" font-family="Helvetica,sans-Serif" font-size="11.00" fill="#000000">creator_id</text>
<polygon fill="none" stroke="#000000" points="398,-243 398,-265 514,-265 514,-243 398,-243"/>
<text text-anchor="start" x="401" y="-251.2" font-family="Helvetica,sans-Serif" font-size="11.00" fill="#000000">int unsigned[10]</text>
<polygon fill="#ffffff" stroke="transparent" points="222,-225 222,-243 285,-243 285,-225 222,-225"/>
<polygon fill="none" stroke="#000000" points="222,-225 222,-243 285,-243 285,-225 222,-225"/>
<text text-anchor="start" x="225" y="-231.2" font-family="Helvetica,sans-Serif" font-size="11.00" fill="#000000">&lt; 1</text>
<polygon fill="#ffffff" stroke="transparent" points="285,-225 285,-243 398,-243 398,-225 285,-225"/>
<polygon fill="none" stroke="#000000" points="285,-225 285,-243 398,-243 398,-225 285,-225"/>
<text text-anchor="start" x="329" y="-231.2" font-family="Helvetica,sans-Serif" font-size="11.00" fill="#000000">327,795 rows</text>
<polygon fill="#ffffff" stroke="transparent" points="398,-225 398,-243 514,-243 514,-225 398,-225"/>
<polygon fill="none" stroke="#000000" points="398,-225 398,-243 514,-243 514,-225 398,-225"/>
<text text-anchor="start" x="495" y="-231.2" font-family="Helvetica,sans-Serif" font-size="11.00" fill="#000000">4 &gt;</text>
<polygon fill="none" stroke="#000000" stroke-width="2" points="221,-224 221,-332 515,-332 515,-224 221,-224"/>
</a>
</g>
</g>
<!-- parallel_word&#45;&gt;sign_stream_section -->
<g id="edge2" class="edge">
<title>parallel_word:w&#45;&gt;sign_stream_section:e</title>
<path fill="none" stroke="#000000" d="M614.1405,-457.5147C588.7485,-419.1744 518.7418,-298 514,-298"/>
<polygon fill="#000000" stroke="#000000" points="618.1138,-462.6656 620.1495,-471.1988 620.5569,-465.8328 623,-469 623,-469 623,-469 620.5569,-465.8328 625.8505,-466.8012 618.1138,-462.6656 618.1138,-462.6656"/>
<ellipse fill="none" stroke="#000000" cx="616.1593" cy="-460.1318" rx="3.2" ry="3.2"/>
</g>
<!-- sign_stream_section&#45;&gt;user -->
<g id="edge4" class="edge">
<title>sign_stream_section:w&#45;&gt;user:e</title>
<path fill="none" stroke="#000000" d="M207.9816,-258.9435C191.738,-273.7952 201.2175,-317 171.5,-317"/>
<polygon fill="#000000" stroke="#000000" points="214.4554,-256.6606 223.1973,-257.3951 218.2277,-255.3303 222,-254 222,-254 222,-254 218.2277,-255.3303 220.8027,-250.6049 214.4554,-256.6606 214.4554,-256.6606"/>
<ellipse fill="none" stroke="#000000" cx="211.4375" cy="-257.7248" rx="3.2" ry="3.2"/>
</g>
<!-- position_in_stream_to_section_rel -->
<g id="node4" class="node">
<title>position_in_stream_to_section_rel</title>
<g id="a_node4"><a xlink:href="../../tables/position_in_stream_to_section_rel.html" xlink:title="position_in_stream_to_section_rel" target="_top">
<polygon fill="#ffffff" stroke="transparent" points="567.5,-269 567.5,-353 814.5,-353 814.5,-269 567.5,-269"/>
<polygon fill="#f5f5f5" stroke="transparent" points="568,-331 568,-353 815,-353 815,-331 568,-331"/>
<polygon fill="none" stroke="#000000" points="568,-331 568,-353 815,-353 815,-331 568,-331"/>
<text text-anchor="start" x="573" y="-340.2" font-family="Helvetica,sans-Serif" font-weight="bold" font-size="11.00" fill="#000000">position_in_stream_to_section_rel</text>
<text text-anchor="start" x="780" y="-339.2" font-family="Helvetica,sans-Serif" font-size="11.00" fill="#000000">[table]</text>
<polygon fill="none" stroke="#000000" points="568,-309 568,-331 815,-331 815,-309 568,-309"/>
<image xlink:href="../../images/primaryKeys.png" width="11px" height="12px" preserveAspectRatio="xMinYMin meet" x="573" y="-326"/>
<text text-anchor="start" x="588" y="-317.2" font-family="Helvetica,sans-Serif" font-size="11.00" fill="#000000">position_in_stream_id</text>
<polygon fill="none" stroke="#000000" points="568,-287 568,-309 815,-309 815,-287 568,-287"/>
<image xlink:href="../../images/primaryKeys.png" width="11px" height="12px" preserveAspectRatio="xMinYMin meet" x="573" y="-304"/>
<text text-anchor="start" x="588" y="-295.2" font-family="Helvetica,sans-Serif" font-size="11.00" fill="#000000">sign_stream_section_id</text>
<polygon fill="#ffffff" stroke="transparent" points="568,-269 568,-287 655,-287 655,-269 568,-269"/>
<polygon fill="none" stroke="#000000" points="568,-269 568,-287 655,-287 655,-269 568,-269"/>
<text text-anchor="start" x="571" y="-275.2" font-family="Helvetica,sans-Serif" font-size="11.00" fill="#000000">&lt; 2</text>
<polygon fill="#ffffff" stroke="transparent" points="655,-269 655,-287 769,-287 769,-269 655,-269"/>
<polygon fill="none" stroke="#000000" points="655,-269 655,-287 769,-287 769,-269 655,-269"/>
<text text-anchor="start" x="691" y="-275.2" font-family="Helvetica,sans-Serif" font-size="11.00" fill="#000000">1,238,253 rows</text>
<polygon fill="#ffffff" stroke="transparent" points="769,-269 769,-287 815,-287 815,-269 769,-269"/>
<polygon fill="none" stroke="#000000" points="769,-269 769,-287 815,-287 815,-269 769,-269"/>
<text text-anchor="start" x="805" y="-275.2" font-family="Helvetica,sans-Serif" font-size="11.00" fill="#000000"> &#160;</text>
</a>
</g>
</g>
<!-- position_in_stream_to_section_rel&#45;&gt;sign_stream_section -->
<g id="edge3" class="edge">
<title>position_in_stream_to_section_rel:w&#45;&gt;sign_stream_section:e</title>
<path fill="none" stroke="#000000" d="M553.2185,-298C540.038,-298 532.1875,-298 514,-298"/>
<polygon fill="#000000" stroke="#000000" points="560,-298.0001 568,-301.6 564,-298 568,-298 568,-298 568,-298 564,-298 568,-294.4 560,-298.0001 560,-298.0001"/>
<ellipse fill="none" stroke="#000000" cx="556.8" cy="-298.0001" rx="3.2" ry="3.2"/>
</g>
<!-- sign_stream_section_owner -->
<g id="node5" class="node">
<title>sign_stream_section_owner</title>
<g id="a_node5"><a xlink:href="../../tables/sign_stream_section_owner.html" xlink:title="sign_stream_section_owner" target="_top">
<polygon fill="#ffffff" stroke="transparent" points="588.5,-142 588.5,-248 793.5,-248 793.5,-142 588.5,-142"/>
<polygon fill="#f5f5f5" stroke="transparent" points="589,-226 589,-248 794,-248 794,-226 589,-226"/>
<polygon fill="none" stroke="#000000" points="589,-226 589,-248 794,-248 794,-226 589,-226"/>
<text text-anchor="start" x="594" y="-235.2" font-family="Helvetica,sans-Serif" font-weight="bold" font-size="11.00" fill="#000000">sign_stream_section_owner</text>
<text text-anchor="start" x="759" y="-234.2" font-family="Helvetica,sans-Serif" font-size="11.00" fill="#000000">[table]</text>
<polygon fill="none" stroke="#000000" points="589,-204 589,-226 794,-226 794,-204 589,-204"/>
<image xlink:href="../../images/primaryKeys.png" width="11px" height="12px" preserveAspectRatio="xMinYMin meet" x="594" y="-221"/>
<text text-anchor="start" x="609" y="-212.2" font-family="Helvetica,sans-Serif" font-size="11.00" fill="#000000">sign_stream_section_id</text>
<polygon fill="#ffffff" stroke="transparent" points="589,-182 589,-204 794,-204 794,-182 589,-182"/>
<polygon fill="none" stroke="#000000" points="589,-182 589,-204 794,-204 794,-182 589,-182"/>
<image xlink:href="../../images/foreignKeys.png" width="11px" height="12px" preserveAspectRatio="xMinYMin meet" x="594" y="-199"/>
<text text-anchor="start" x="609" y="-190.2" font-family="Helvetica,sans-Serif" font-size="11.00" fill="#000000">edition_editor_id</text>
<polygon fill="none" stroke="#000000" points="589,-160 589,-182 794,-182 794,-160 589,-160"/>
<image xlink:href="../../images/primaryKeys.png" width="11px" height="12px" preserveAspectRatio="xMinYMin meet" x="594" y="-177"/>
<text text-anchor="start" x="609" y="-168.2" font-family="Helvetica,sans-Serif" font-size="11.00" fill="#000000">edition_id</text>
<polygon fill="#ffffff" stroke="transparent" points="589,-142 589,-160 660,-160 660,-142 589,-142"/>
<polygon fill="none" stroke="#000000" points="589,-142 589,-160 660,-160 660,-142 589,-142"/>
<text text-anchor="start" x="592" y="-148.2" font-family="Helvetica,sans-Serif" font-size="11.00" fill="#000000">&lt; 3</text>
<polygon fill="#ffffff" stroke="transparent" points="660,-142 660,-160 756,-160 756,-142 660,-142"/>
<polygon fill="none" stroke="#000000" points="660,-142 660,-160 756,-160 756,-142 660,-142"/>
<text text-anchor="start" x="687" y="-148.2" font-family="Helvetica,sans-Serif" font-size="11.00" fill="#000000">327,684 rows</text>
<polygon fill="#ffffff" stroke="transparent" points="756,-142 756,-160 794,-160 794,-142 756,-142"/>
<polygon fill="none" stroke="#000000" points="756,-142 756,-160 794,-160 794,-142 756,-142"/>
<text text-anchor="start" x="784" y="-148.2" font-family="Helvetica,sans-Serif" font-size="11.00" fill="#000000"> &#160;</text>
</a>
</g>
</g>
<!-- sign_stream_section_owner&#45;&gt;sign_stream_section -->
<g id="edge5" class="edge">
<title>sign_stream_section_owner:w&#45;&gt;sign_stream_section:e</title>
<path fill="none" stroke="#000000" d="M574.7428,-217.954C543.8666,-232.7396 558.0861,-298 514,-298"/>
<polygon fill="#000000" stroke="#000000" points="581.1664,-216.6231 589.7304,-218.5251 585.0832,-215.8116 589,-215 589,-215 589,-215 585.0832,-215.8116 588.2696,-211.4749 581.1664,-216.6231 581.1664,-216.6231"/>
<ellipse fill="none" stroke="#000000" cx="578.0329" cy="-217.2724" rx="3.2" ry="3.2"/>
</g>
<!-- sign_stream_section_to_qwb_word -->
<g id="node6" class="node">
<title>sign_stream_section_to_qwb_word</title>
<g id="a_node6"><a xlink:href="../../tables/sign_stream_section_to_qwb_word.html" xlink:title="sign_stream_section_to_qwb_word" target="_top">
<polygon fill="#ffffff" stroke="transparent" points="565,-37 565,-121 817,-121 817,-37 565,-37"/>
<polygon fill="#f5f5f5" stroke="transparent" points="565,-99 565,-121 817,-121 817,-99 565,-99"/>
<polygon fill="none" stroke="#000000" points="565,-99 565,-121 817,-121 817,-99 565,-99"/>
<text text-anchor="start" x="570" y="-108.2" font-family="Helvetica,sans-Serif" font-weight="bold" font-size="11.00" fill="#000000">sign_stream_section_to_qwb_word</text>
<text text-anchor="start" x="782" y="-107.2" font-family="Helvetica,sans-Serif" font-size="11.00" fill="#000000">[table]</text>
<polygon fill="#ffffff" stroke="transparent" points="565,-77 565,-99 817,-99 817,-77 565,-77"/>
<polygon fill="none" stroke="#000000" points="565,-77 565,-99 817,-99 817,-77 565,-77"/>
<image xlink:href="../../images/foreignKeys.png" width="11px" height="12px" preserveAspectRatio="xMinYMin meet" x="570" y="-94"/>
<text text-anchor="start" x="585" y="-85.2" font-family="Helvetica,sans-Serif" font-size="11.00" fill="#000000">sign_stream_section_id</text>
<polygon fill="#ffffff" stroke="transparent" points="565,-55 565,-77 817,-77 817,-55 565,-55"/>
<polygon fill="none" stroke="#000000" points="565,-55 565,-77 817,-77 817,-55 565,-55"/>
<image xlink:href="../../images/foreignKeys.png" width="11px" height="12px" preserveAspectRatio="xMinYMin meet" x="570" y="-72"/>
<text text-anchor="start" x="585" y="-63.2" font-family="Helvetica,sans-Serif" font-size="11.00" fill="#000000">qwb_word_id</text>
<polygon fill="#ffffff" stroke="transparent" points="565,-37 565,-55 659,-55 659,-37 565,-37"/>
<polygon fill="none" stroke="#000000" points="565,-37 565,-55 659,-55 659,-37 565,-37"/>
<text text-anchor="start" x="568" y="-43.2" font-family="Helvetica,sans-Serif" font-size="11.00" fill="#000000">&lt; 2</text>
<polygon fill="#ffffff" stroke="transparent" points="659,-37 659,-55 767,-55 767,-37 659,-37"/>
<polygon fill="none" stroke="#000000" points="659,-37 659,-55 767,-55 767,-37 659,-37"/>
<text text-anchor="start" x="698" y="-43.2" font-family="Helvetica,sans-Serif" font-size="11.00" fill="#000000">328,329 rows</text>
<polygon fill="#ffffff" stroke="transparent" points="767,-37 767,-55 817,-55 817,-37 767,-37"/>
<polygon fill="none" stroke="#000000" points="767,-37 767,-55 817,-55 817,-37 767,-37"/>
<text text-anchor="start" x="807" y="-43.2" font-family="Helvetica,sans-Serif" font-size="11.00" fill="#000000"> &#160;</text>
</a>
</g>
</g>
<!-- sign_stream_section_to_qwb_word&#45;&gt;sign_stream_section -->
<g id="edge6" class="edge">
<title>sign_stream_section_to_qwb_word:w&#45;&gt;sign_stream_section:e</title>
<path fill="none" stroke="#000000" d="M550.4639,-90.0784C484.6738,-111.8884 604.4186,-298 514,-298"/>
<polygon fill="#000000" stroke="#000000" points="557.0805,-89.1324 565.5096,-91.5638 561.0403,-88.5662 565,-88 565,-88 565,-88 561.0403,-88.5662 564.4904,-84.4362 557.0805,-89.1324 557.0805,-89.1324"/>
<ellipse fill="none" stroke="#000000" cx="553.9128" cy="-89.5854" rx="3.2" ry="3.2"/>
</g>
</g>
</svg>
