<?xml version="1.0" encoding="UTF-8" standalone="no"?>
<!DOCTYPE svg PUBLIC "-//W3C//DTD SVG 1.1//EN"
 "http://www.w3.org/Graphics/SVG/1.1/DTD/svg11.dtd">
<!-- Generated by graphviz version 2.43.0 (0)
 -->
<!-- Title: oneDegreeRelationshipsDiagram Pages: 1 -->
<svg width="739pt" height="332pt"
 viewBox="0.00 0.00 739.00 332.00" xmlns="http://www.w3.org/2000/svg" xmlns:xlink="http://www.w3.org/1999/xlink">
<g id="graph0" class="graph" transform="scale(1 1) rotate(0) translate(4 328)">
<title>oneDegreeRelationshipsDiagram</title>
<polygon fill="#ffffff" stroke="transparent" points="-4,4 -4,-328 735,-328 735,4 -4,4"/>
<text text-anchor="middle" x="79.5" y="-7.2" font-family="Helvetica,sans-Serif" font-size="11.00">Generated by SchemaSpy</text>
<!-- edition_editor -->
<g id="node1" class="node">
<title>edition_editor</title>
<g id="a_node1"><a xlink:href="../../tables/edition_editor.html" xlink:title="edition_editor" target="_top">
<polygon fill="#ffffff" stroke="transparent" points="212,-95 212,-219 348,-219 348,-95 212,-95"/>
<polygon fill="#f5f5f5" stroke="transparent" points="212,-197 212,-219 348,-219 348,-197 212,-197"/>
<polygon fill="none" stroke="black" points="212,-197 212,-219 348,-219 348,-197 212,-197"/>
<text text-anchor="start" x="217" y="-206.2" font-family="Helvetica,sans-Serif" font-weight="bold" font-size="11.00">edition_editor</text>
<text text-anchor="start" x="306" y="-205.2" font-family="Helvetica,sans-Serif" font-size="11.00">[table]</text>
<polygon fill="none" stroke="black" points="212,-175 212,-197 348,-197 348,-175 212,-175"/>
<image xlink:href="../../images/primaryKeys.png" width="11px" height="12px" preserveAspectRatio="xMinYMin meet" x="217" y="-192"/>
<text text-anchor="start" x="234" y="-183.2" font-family="Helvetica,sans-Serif" font-size="11.00">edition_editor_id</text>
<polygon fill="#ffffff" stroke="transparent" points="212,-153 212,-175 348,-175 348,-153 212,-153"/>
<polygon fill="none" stroke="black" points="212,-153 212,-175 348,-175 348,-153 212,-153"/>
<image xlink:href="../../images/foreignKeys.png" width="11px" height="12px" preserveAspectRatio="xMinYMin meet" x="217" y="-170"/>
<text text-anchor="start" x="234" y="-161.2" font-family="Helvetica,sans-Serif" font-size="11.00">user_id</text>
<polygon fill="#ffffff" stroke="transparent" points="212,-131 212,-153 348,-153 348,-131 212,-131"/>
<polygon fill="none" stroke="black" points="212,-131 212,-153 348,-153 348,-131 212,-131"/>
<image xlink:href="../../images/foreignKeys.png" width="11px" height="12px" preserveAspectRatio="xMinYMin meet" x="217" y="-148"/>
<text text-anchor="start" x="234" y="-139.2" font-family="Helvetica,sans-Serif" font-size="11.00">edition_id</text>
<polygon fill="none" stroke="black" points="212,-113 212,-131 348,-131 348,-113 212,-113"/>
<text text-anchor="start" x="215" y="-119.2" font-family="Helvetica,sans-Serif" font-size="11.00">...</text>
<polygon fill="#ffffff" stroke="transparent" points="212,-95 212,-113 243,-113 243,-95 212,-95"/>
<polygon fill="none" stroke="black" points="212,-95 212,-113 243,-113 243,-95 212,-95"/>
<text text-anchor="start" x="215" y="-101.2" font-family="Helvetica,sans-Serif" font-size="11.00">&lt; 2</text>
<polygon fill="#ffffff" stroke="transparent" points="243,-95 243,-113 312,-113 312,-95 243,-95"/>
<polygon fill="none" stroke="black" points="243,-95 243,-113 312,-113 312,-95 243,-95"/>
<text text-anchor="start" x="248" y="-101.2" font-family="Helvetica,sans-Serif" font-size="11.00">1,645 rows</text>
<polygon fill="#ffffff" stroke="transparent" points="312,-95 312,-113 348,-113 348,-95 312,-95"/>
<polygon fill="none" stroke="black" points="312,-95 312,-113 348,-113 348,-95 312,-95"/>
<text text-anchor="start" x="318" y="-101.2" font-family="Helvetica,sans-Serif" font-size="11.00">33 &gt;</text>
</a>
</g>
</g>
<!-- edition -->
<g id="node2" class="node">
<title>edition</title>
<g id="a_node2"><a xlink:href="../../tables/edition.html" xlink:title="edition" target="_top">
<polygon fill="#ffffff" stroke="transparent" points="8,-37 8,-139 143,-139 143,-37 8,-37"/>
<polygon fill="#f5f5f5" stroke="transparent" points="8.5,-117 8.5,-139 143.5,-139 143.5,-117 8.5,-117"/>
<polygon fill="none" stroke="black" points="8.5,-117 8.5,-139 143.5,-139 143.5,-117 8.5,-117"/>
<text text-anchor="start" x="13.5" y="-126.2" font-family="Helvetica,sans-Serif" font-weight="bold" font-size="11.00">edition</text>
<text text-anchor="start" x="101.5" y="-125.2" font-family="Helvetica,sans-Serif" font-size="11.00">[table]</text>
<polygon fill="none" stroke="black" points="8.5,-95 8.5,-117 143.5,-117 143.5,-95 8.5,-95"/>
<image xlink:href="../../images/primaryKeys.png" width="11px" height="12px" preserveAspectRatio="xMinYMin meet" x="13.5" y="-112"/>
<text text-anchor="start" x="28.5" y="-103.2" font-family="Helvetica,sans-Serif" font-size="11.00">edition_id</text>
<polygon fill="#ffffff" stroke="transparent" points="8.5,-73 8.5,-95 143.5,-95 143.5,-73 8.5,-73"/>
<polygon fill="none" stroke="black" points="8.5,-73 8.5,-95 143.5,-95 143.5,-73 8.5,-73"/>
<image xlink:href="../../images/foreignKeys.png" width="11px" height="12px" preserveAspectRatio="xMinYMin meet" x="13.5" y="-90"/>
<text text-anchor="start" x="28.5" y="-81.2" font-family="Helvetica,sans-Serif" font-size="11.00">manuscript_id</text>
<polygon fill="none" stroke="black" points="8.5,-55 8.5,-73 143.5,-73 143.5,-55 8.5,-55"/>
<text text-anchor="start" x="11.5" y="-61.2" font-family="Helvetica,sans-Serif" font-size="11.00">...</text>
<polygon fill="#ffffff" stroke="transparent" points="8.5,-37 8.5,-55 38.5,-55 38.5,-37 8.5,-37"/>
<polygon fill="none" stroke="black" points="8.5,-37 8.5,-55 38.5,-55 38.5,-37 8.5,-37"/>
<text text-anchor="start" x="11.5" y="-43.2" font-family="Helvetica,sans-Serif" font-size="11.00">&lt; 1</text>
<polygon fill="#ffffff" stroke="transparent" points="38.5,-37 38.5,-55 107.5,-55 107.5,-37 38.5,-37"/>
<polygon fill="none" stroke="black" points="38.5,-37 38.5,-55 107.5,-55 107.5,-37 38.5,-37"/>
<text text-anchor="start" x="43.5" y="-43.2" font-family="Helvetica,sans-Serif" font-size="11.00">1,645 rows</text>
<polygon fill="#ffffff" stroke="transparent" points="107.5,-37 107.5,-55 143.5,-55 143.5,-37 107.5,-37"/>
<polygon fill="none" stroke="black" points="107.5,-37 107.5,-55 143.5,-55 143.5,-37 107.5,-37"/>
<text text-anchor="start" x="113.5" y="-43.2" font-family="Helvetica,sans-Serif" font-size="11.00">35 &gt;</text>
</a>
</g>
</g>
<!-- edition_editor&#45;&gt;edition -->
<g id="edge1" class="edge">
<title>edition_editor:w&#45;&gt;edition:e</title>
<path fill="none" stroke="black" d="M196.64,-139.29C176.66,-130.92 172.46,-106 144.5,-106"/>
<polygon fill="black" stroke="black" points="203.14,-140.52 210.33,-145.54 207.07,-141.26 211,-142 211,-142 211,-142 207.07,-141.26 211.67,-138.46 203.14,-140.52 203.14,-140.52"/>
<ellipse fill="none" stroke="black" cx="199.99" cy="-139.93" rx="3.2" ry="3.2"/>
</g>
<!-- sign_stream_section_owner -->
<g id="node3" class="node">
<title>sign_stream_section_owner</title>
<g id="a_node3"><a xlink:href="../../tables/sign_stream_section_owner.html" xlink:title="sign_stream_section_owner" target="_top">
<polygon fill="#ffffff" stroke="transparent" points="417,-133 417,-243 723,-243 723,-133 417,-133"/>
<polygon fill="#f5f5f5" stroke="transparent" points="419,-219 419,-241 721,-241 721,-219 419,-219"/>
<polygon fill="none" stroke="black" points="419,-219 419,-241 721,-241 721,-219 419,-219"/>
<text text-anchor="start" x="424" y="-228.2" font-family="Helvetica,sans-Serif" font-weight="bold" font-size="11.00">sign_stream_section_owner</text>
<text text-anchor="start" x="679" y="-227.2" font-family="Helvetica,sans-Serif" font-size="11.00">[table]</text>
<polygon fill="none" stroke="black" points="419,-197 419,-219 624,-219 624,-197 419,-197"/>
<image xlink:href="../../images/primaryKeys.png" width="11px" height="12px" preserveAspectRatio="xMinYMin meet" x="424" y="-214"/>
<text text-anchor="start" x="439" y="-205.2" font-family="Helvetica,sans-Serif" font-size="11.00">sign_stream_section_id</text>
<polygon fill="none" stroke="black" points="624,-197 624,-219 721,-219 721,-197 624,-197"/>
<text text-anchor="start" x="627" y="-205.2" font-family="Helvetica,sans-Serif" font-size="11.00">int unsigned[10]</text>
<polygon fill="#ffffff" stroke="transparent" points="419,-175 419,-197 624,-197 624,-175 419,-175"/>
<polygon fill="none" stroke="black" points="419,-175 419,-197 624,-197 624,-175 419,-175"/>
<image xlink:href="../../images/foreignKeys.png" width="11px" height="12px" preserveAspectRatio="xMinYMin meet" x="424" y="-192"/>
<text text-anchor="start" x="439" y="-183.2" font-family="Helvetica,sans-Serif" font-size="11.00">edition_editor_id</text>
<polygon fill="none" stroke="black" points="624,-175 624,-197 721,-197 721,-175 624,-175"/>
<text text-anchor="start" x="627" y="-183.2" font-family="Helvetica,sans-Serif" font-size="11.00">int unsigned[10]</text>
<polygon fill="none" stroke="black" points="419,-153 419,-175 624,-175 624,-153 419,-153"/>
<image xlink:href="../../images/primaryKeys.png" width="11px" height="12px" preserveAspectRatio="xMinYMin meet" x="424" y="-170"/>
<text text-anchor="start" x="439" y="-161.2" font-family="Helvetica,sans-Serif" font-size="11.00">edition_id</text>
<polygon fill="none" stroke="black" points="624,-153 624,-175 721,-175 721,-153 624,-153"/>
<text text-anchor="start" x="627" y="-161.2" font-family="Helvetica,sans-Serif" font-size="11.00">int unsigned[10]</text>
<polygon fill="#ffffff" stroke="transparent" points="419,-135 419,-153 494,-153 494,-135 419,-135"/>
<polygon fill="none" stroke="black" points="419,-135 419,-153 494,-153 494,-135 419,-135"/>
<text text-anchor="start" x="422" y="-141.2" font-family="Helvetica,sans-Serif" font-size="11.00">&lt; 3</text>
<polygon fill="#ffffff" stroke="transparent" points="494,-135 494,-153 624,-153 624,-135 494,-135"/>
<polygon fill="none" stroke="black" points="494,-135 494,-153 624,-153 624,-135 494,-135"/>
<text text-anchor="start" x="546" y="-141.2" font-family="Helvetica,sans-Serif" font-size="11.00">327,684 rows</text>
<polygon fill="#ffffff" stroke="transparent" points="624,-135 624,-153 721,-153 721,-135 624,-135"/>
<polygon fill="none" stroke="black" points="624,-135 624,-153 721,-153 721,-135 624,-135"/>
<text text-anchor="start" x="698" y="-141.2" font-family="Helvetica,sans-Serif" font-size="11.00">0 &gt;</text>
<polygon fill="none" stroke="black" stroke-width="2" points="418,-134 418,-242 722,-242 722,-134 418,-134"/>
</a>
</g>
</g>
<!-- sign_stream_section_owner&#45;&gt;edition_editor -->
<g id="edge2" class="edge">
<title>sign_stream_section_owner:w&#45;&gt;edition_editor:e</title>
<path fill="none" stroke="black" d="M403.43,-186C383.84,-186 374.16,-186 349,-186"/>
<polygon fill="black" stroke="black" points="410,-186 418,-189.6 414,-186 418,-186 418,-186 418,-186 414,-186 418,-182.4 410,-186 410,-186"/>
<ellipse fill="none" stroke="black" cx="406.8" cy="-186" rx="3.2" ry="3.2"/>
</g>
<!-- sign_stream_section_owner&#45;&gt;edition -->
<g id="edge3" class="edge">
<title>sign_stream_section_owner:w&#45;&gt;edition:e</title>
<path fill="none" stroke="black" d="M403.97,-160.03C386.37,-146.43 405,-101.53 376,-84 302.97,-39.86 266.59,-62.55 184,-84 164.55,-89.05 164.59,-106 144.5,-106"/>
<polygon fill="black" stroke="black" points="410.3,-161.82 417.02,-167.46 414.15,-162.91 418,-164 418,-164 418,-164 414.15,-162.91 418.98,-160.54 410.3,-161.82 410.3,-161.82"/>
<ellipse fill="none" stroke="black" cx="407.22" cy="-160.95" rx="3.2" ry="3.2"/>
</g>
<!-- sign_stream_section -->
<g id="node4" class="node">
<title>sign_stream_section</title>
<g id="a_node4"><a xlink:href="../../tables/sign_stream_section.html" xlink:title="sign_stream_section" target="_top">
<polygon fill="#ffffff" stroke="transparent" points="192,-240 192,-320 368,-320 368,-240 192,-240"/>
<polygon fill="#f5f5f5" stroke="transparent" points="192,-298 192,-320 368,-320 368,-298 192,-298"/>
<polygon fill="none" stroke="black" points="192,-298 192,-320 368,-320 368,-298 192,-298"/>
<text text-anchor="start" x="197" y="-307.2" font-family="Helvetica,sans-Serif" font-weight="bold" font-size="11.00">sign_stream_section</text>
<text text-anchor="start" x="326" y="-306.2" font-family="Helvetica,sans-Serif" font-size="11.00">[table]</text>
<polygon fill="none" stroke="black" points="192,-276 192,-298 368,-298 368,-276 192,-276"/>
<image xlink:href="../../images/primaryKeys.png" width="11px" height="12px" preserveAspectRatio="xMinYMin meet" x="197" y="-293"/>
<text text-anchor="start" x="212" y="-284.2" font-family="Helvetica,sans-Serif" font-size="11.00">sign_stream_section_id</text>
<polygon fill="none" stroke="black" points="192,-258 192,-276 368,-276 368,-258 192,-258"/>
<text text-anchor="start" x="195" y="-264.2" font-family="Helvetica,sans-Serif" font-size="11.00">...</text>
<polygon fill="#ffffff" stroke="transparent" points="192,-240 192,-258 252,-258 252,-240 192,-240"/>
<polygon fill="none" stroke="black" points="192,-240 192,-258 252,-258 252,-240 192,-240"/>
<text text-anchor="start" x="195" y="-246.2" font-family="Helvetica,sans-Serif" font-size="11.00"> &#160;</text>
<polygon fill="#ffffff" stroke="transparent" points="252,-240 252,-258 318,-258 318,-240 252,-240"/>
<polygon fill="none" stroke="black" points="252,-240 252,-258 318,-258 318,-240 252,-240"/>
<text text-anchor="start" x="278" y="-246.2" font-family="Helvetica,sans-Serif" font-size="11.00">2 rows</text>
<polygon fill="#ffffff" stroke="transparent" points="318,-240 318,-258 368,-258 368,-240 318,-240"/>
<polygon fill="none" stroke="black" points="318,-240 318,-258 368,-258 368,-240 318,-240"/>
<text text-anchor="start" x="345" y="-246.2" font-family="Helvetica,sans-Serif" font-size="11.00">4 &gt;</text>
</a>
</g>
</g>
<!-- sign_stream_section_owner&#45;&gt;sign_stream_section -->
<g id="edge4" class="edge">
<title>sign_stream_section_owner:w&#45;&gt;sign_stream_section:e</title>
<path fill="none" stroke="black" d="M404.07,-212.71C385.02,-229.71 404.18,-287 369,-287"/>
<polygon fill="black" stroke="black" points="410.42,-210.56 419.15,-211.41 414.21,-209.28 418,-208 418,-208 418,-208 414.21,-209.28 416.85,-204.59 410.42,-210.56 410.42,-210.56"/>
<ellipse fill="none" stroke="black" cx="407.39" cy="-211.58" rx="3.2" ry="3.2"/>
</g>
</g>
</svg>
