<?xml version="1.0" encoding="UTF-8" standalone="no"?>
<!DOCTYPE svg PUBLIC "-//W3C//DTD SVG 1.1//EN"
 "http://www.w3.org/Graphics/SVG/1.1/DTD/svg11.dtd">
<!-- Generated by graphviz version 2.43.0 (0)
 -->
<!-- Title: oneDegreeRelationshipsDiagram Pages: 1 -->
<svg width="650pt" height="492pt"
 viewBox="0.00 0.00 650.00 492.00" xmlns="http://www.w3.org/2000/svg" xmlns:xlink="http://www.w3.org/1999/xlink">
<g id="graph0" class="graph" transform="scale(1 1) rotate(0) translate(4 488)">
<title>oneDegreeRelationshipsDiagram</title>
<polygon fill="#ffffff" stroke="transparent" points="-4,4 -4,-488 646,-488 646,4 -4,4"/>
<text text-anchor="middle" x="79.5" y="-7.2" font-family="Helvetica,sans-Serif" font-size="11.00">Generated by SchemaSpy</text>
<!-- parallel_sign_stream_section -->
<g id="node1" class="node">
<title>parallel_sign_stream_section</title>
<g id="a_node1"><a xlink:href="../../tables/parallel_sign_stream_section.html" xlink:title="parallel_sign_stream_section" target="_top">
<polygon fill="#ffffff" stroke="transparent" points="387,-374 387,-480 620,-480 620,-374 387,-374"/>
<polygon fill="#f5f5f5" stroke="transparent" points="387.5,-458 387.5,-480 620.5,-480 620.5,-458 387.5,-458"/>
<polygon fill="none" stroke="black" points="387.5,-458 387.5,-480 620.5,-480 620.5,-458 387.5,-458"/>
<text text-anchor="start" x="392.5" y="-467.2" font-family="Helvetica,sans-Serif" font-weight="bold" font-size="11.00">parallel_sign_stream_section</text>
<text text-anchor="start" x="578.5" y="-466.2" font-family="Helvetica,sans-Serif" font-size="11.00">[table]</text>
<polygon fill="none" stroke="black" points="387.5,-436 387.5,-458 620.5,-458 620.5,-436 387.5,-436"/>
<image xlink:href="../../images/primaryKeys.png" width="11px" height="12px" preserveAspectRatio="xMinYMin meet" x="392.5" y="-453"/>
<text text-anchor="start" x="407.5" y="-444.2" font-family="Helvetica,sans-Serif" font-size="11.00">parallel_sign_stream_section_id</text>
<polygon fill="#ffffff" stroke="transparent" points="387.5,-414 387.5,-436 620.5,-436 620.5,-414 387.5,-414"/>
<polygon fill="none" stroke="black" points="387.5,-414 387.5,-436 620.5,-436 620.5,-414 387.5,-414"/>
<image xlink:href="../../images/foreignKeys.png" width="11px" height="12px" preserveAspectRatio="xMinYMin meet" x="392.5" y="-431"/>
<text text-anchor="start" x="407.5" y="-422.2" font-family="Helvetica,sans-Serif" font-size="11.00">sign_stream_section_id</text>
<polygon fill="#ffffff" stroke="transparent" points="387.5,-392 387.5,-414 620.5,-414 620.5,-392 387.5,-392"/>
<polygon fill="none" stroke="black" points="387.5,-392 387.5,-414 620.5,-414 620.5,-392 387.5,-392"/>
<image xlink:href="../../images/foreignKeys.png" width="11px" height="12px" preserveAspectRatio="xMinYMin meet" x="392.5" y="-409"/>
<text text-anchor="start" x="407.5" y="-400.2" font-family="Helvetica,sans-Serif" font-size="11.00">parallel_group_id</text>
<polygon fill="#ffffff" stroke="transparent" points="387.5,-374 387.5,-392 482.5,-392 482.5,-374 387.5,-374"/>
<polygon fill="none" stroke="black" points="387.5,-374 387.5,-392 482.5,-392 482.5,-374 387.5,-374"/>
<text text-anchor="start" x="390.5" y="-380.2" font-family="Helvetica,sans-Serif" font-size="11.00">&lt; 2</text>
<polygon fill="#ffffff" stroke="transparent" points="482.5,-374 482.5,-392 559.5,-392 559.5,-374 482.5,-374"/>
<polygon fill="none" stroke="black" points="482.5,-374 482.5,-392 559.5,-392 559.5,-374 482.5,-374"/>
<text text-anchor="start" x="519.5" y="-380.2" font-family="Helvetica,sans-Serif" font-size="11.00">0 rows</text>
<polygon fill="#ffffff" stroke="transparent" points="559.5,-374 559.5,-392 620.5,-392 620.5,-374 559.5,-374"/>
<polygon fill="none" stroke="black" points="559.5,-374 559.5,-392 620.5,-392 620.5,-374 559.5,-374"/>
<text text-anchor="start" x="597.5" y="-380.2" font-family="Helvetica,sans-Serif" font-size="11.00">1 &gt;</text>
</a>
</g>
</g>
<!-- sign_stream_section -->
<g id="node2" class="node">
<title>sign_stream_section</title>
<g id="a_node2"><a xlink:href="../../tables/sign_stream_section.html" xlink:title="sign_stream_section" target="_top">
<polygon fill="#ffffff" stroke="transparent" points="8,-203 8,-291 324,-291 324,-203 8,-203"/>
<polygon fill="#f5f5f5" stroke="transparent" points="10,-267 10,-289 322,-289 322,-267 10,-267"/>
<polygon fill="none" stroke="black" points="10,-267 10,-289 322,-289 322,-267 10,-267"/>
<text text-anchor="start" x="15" y="-276.2" font-family="Helvetica,sans-Serif" font-weight="bold" font-size="11.00">sign_stream_section</text>
<text text-anchor="start" x="280" y="-275.2" font-family="Helvetica,sans-Serif" font-size="11.00">[table]</text>
<polygon fill="none" stroke="black" points="10,-245 10,-267 186,-267 186,-245 10,-245"/>
<image xlink:href="../../images/primaryKeys.png" width="11px" height="12px" preserveAspectRatio="xMinYMin meet" x="15" y="-262"/>
<text text-anchor="start" x="30" y="-253.2" font-family="Helvetica,sans-Serif" font-size="11.00">sign_stream_section_id</text>
<polygon fill="none" stroke="black" points="186,-245 186,-267 322,-267 322,-245 186,-245"/>
<text text-anchor="start" x="189" y="-253.2" font-family="Helvetica,sans-Serif" font-size="11.00">int unsigned[10]</text>
<polygon fill="none" stroke="black" points="10,-223 10,-245 186,-245 186,-223 10,-223"/>
<text text-anchor="start" x="30" y="-231.2" font-family="Helvetica,sans-Serif" font-size="11.00">commentary</text>
<polygon fill="none" stroke="black" points="186,-223 186,-245 322,-245 322,-223 186,-223"/>
<text text-anchor="start" x="189" y="-231.2" font-family="Helvetica,sans-Serif" font-size="11.00">mediumtext[16777215]</text>
<polygon fill="#ffffff" stroke="transparent" points="10,-205 10,-223 89,-223 89,-205 10,-205"/>
<polygon fill="none" stroke="black" points="10,-205 10,-223 89,-223 89,-205 10,-205"/>
<text text-anchor="start" x="13" y="-211.2" font-family="Helvetica,sans-Serif" font-size="11.00">&lt; 0</text>
<polygon fill="#ffffff" stroke="transparent" points="89,-205 89,-223 186,-223 186,-205 89,-205"/>
<polygon fill="none" stroke="black" points="89,-205 89,-223 186,-223 186,-205 89,-205"/>
<text text-anchor="start" x="146" y="-211.2" font-family="Helvetica,sans-Serif" font-size="11.00">2 rows</text>
<polygon fill="#ffffff" stroke="transparent" points="186,-205 186,-223 322,-223 322,-205 186,-205"/>
<polygon fill="none" stroke="black" points="186,-205 186,-223 322,-223 322,-205 186,-205"/>
<text text-anchor="start" x="299" y="-211.2" font-family="Helvetica,sans-Serif" font-size="11.00">4 &gt;</text>
<polygon fill="none" stroke="black" stroke-width="2" points="9,-204 9,-290 323,-290 323,-204 9,-204"/>
</a>
</g>
</g>
<!-- parallel_sign_stream_section&#45;&gt;sign_stream_section -->
<g id="edge1" class="edge">
<title>parallel_sign_stream_section:w&#45;&gt;sign_stream_section:e</title>
<path fill="none" stroke="black" d="M372.08,-422.61C319.02,-402.07 397.6,-256 323,-256"/>
<polygon fill="black" stroke="black" points="378.61,-423.69 385.91,-428.55 382.55,-424.35 386.5,-425 386.5,-425 386.5,-425 382.55,-424.35 387.09,-421.45 378.61,-423.69 378.61,-423.69"/>
<ellipse fill="none" stroke="black" cx="375.45" cy="-423.17" rx="3.2" ry="3.2"/>
</g>
<!-- position_in_stream_to_section_rel -->
<g id="node3" class="node">
<title>position_in_stream_to_section_rel</title>
<g id="a_node3"><a xlink:href="../../tables/position_in_stream_to_section_rel.html" xlink:title="position_in_stream_to_section_rel" target="_top">
<polygon fill="#ffffff" stroke="transparent" points="375.5,-269 375.5,-353 631.5,-353 631.5,-269 375.5,-269"/>
<polygon fill="#f5f5f5" stroke="transparent" points="375.5,-331 375.5,-353 631.5,-353 631.5,-331 375.5,-331"/>
<polygon fill="none" stroke="black" points="375.5,-331 375.5,-353 631.5,-353 631.5,-331 375.5,-331"/>
<text text-anchor="start" x="380.5" y="-340.2" font-family="Helvetica,sans-Serif" font-weight="bold" font-size="11.00">position_in_stream_to_section_rel</text>
<text text-anchor="start" x="589.5" y="-339.2" font-family="Helvetica,sans-Serif" font-size="11.00">[table]</text>
<polygon fill="none" stroke="black" points="375.5,-309 375.5,-331 631.5,-331 631.5,-309 375.5,-309"/>
<image xlink:href="../../images/primaryKeys.png" width="11px" height="12px" preserveAspectRatio="xMinYMin meet" x="380.5" y="-326"/>
<text text-anchor="start" x="400.5" y="-317.2" font-family="Helvetica,sans-Serif" font-size="11.00">position_in_stream_id</text>
<polygon fill="none" stroke="black" points="375.5,-287 375.5,-309 631.5,-309 631.5,-287 375.5,-287"/>
<image xlink:href="../../images/primaryKeys.png" width="11px" height="12px" preserveAspectRatio="xMinYMin meet" x="380.5" y="-304"/>
<text text-anchor="start" x="400.5" y="-295.2" font-family="Helvetica,sans-Serif" font-size="11.00">sign_stream_section_id</text>
<polygon fill="#ffffff" stroke="transparent" points="375.5,-269 375.5,-287 463.5,-287 463.5,-269 375.5,-269"/>
<polygon fill="none" stroke="black" points="375.5,-269 375.5,-287 463.5,-287 463.5,-269 375.5,-269"/>
<text text-anchor="start" x="378.5" y="-275.2" font-family="Helvetica,sans-Serif" font-size="11.00">&lt; 2</text>
<polygon fill="#ffffff" stroke="transparent" points="463.5,-269 463.5,-287 585.5,-287 585.5,-269 463.5,-269"/>
<polygon fill="none" stroke="black" points="463.5,-269 463.5,-287 585.5,-287 585.5,-269 463.5,-269"/>
<text text-anchor="start" x="497.5" y="-275.2" font-family="Helvetica,sans-Serif" font-size="11.00">1,238,253 rows</text>
<polygon fill="#ffffff" stroke="transparent" points="585.5,-269 585.5,-287 631.5,-287 631.5,-269 585.5,-269"/>
<polygon fill="none" stroke="black" points="585.5,-269 585.5,-287 631.5,-287 631.5,-269 585.5,-269"/>
<text text-anchor="start" x="620.5" y="-275.2" font-family="Helvetica,sans-Serif" font-size="11.00"> &#160;</text>
</a>
</g>
</g>
<!-- position_in_stream_to_section_rel&#45;&gt;sign_stream_section -->
<g id="edge2" class="edge">
<title>position_in_stream_to_section_rel:w&#45;&gt;sign_stream_section:e</title>
<path fill="none" stroke="black" d="M360.47,-293.51C346.51,-282.67 346.54,-256 323,-256"/>
<polygon fill="black" stroke="black" points="366.88,-295.56 373.4,-301.43 370.69,-296.78 374.5,-298 374.5,-298 374.5,-298 370.69,-296.78 375.6,-294.57 366.88,-295.56 366.88,-295.56"/>
<ellipse fill="none" stroke="black" cx="363.83" cy="-294.58" rx="3.2" ry="3.2"/>
</g>
<!-- sign_stream_section_owner -->
<g id="node4" class="node">
<title>sign_stream_section_owner</title>
<g id="a_node4"><a xlink:href="../../tables/sign_stream_section_owner.html" xlink:title="sign_stream_section_owner" target="_top">
<polygon fill="#ffffff" stroke="transparent" points="393.5,-142 393.5,-248 613.5,-248 613.5,-142 393.5,-142"/>
<polygon fill="#f5f5f5" stroke="transparent" points="393.5,-226 393.5,-248 613.5,-248 613.5,-226 393.5,-226"/>
<polygon fill="none" stroke="black" points="393.5,-226 393.5,-248 613.5,-248 613.5,-226 393.5,-226"/>
<text text-anchor="start" x="398.5" y="-235.2" font-family="Helvetica,sans-Serif" font-weight="bold" font-size="11.00">sign_stream_section_owner</text>
<text text-anchor="start" x="571.5" y="-234.2" font-family="Helvetica,sans-Serif" font-size="11.00">[table]</text>
<polygon fill="none" stroke="black" points="393.5,-204 393.5,-226 613.5,-226 613.5,-204 393.5,-204"/>
<image xlink:href="../../images/primaryKeys.png" width="11px" height="12px" preserveAspectRatio="xMinYMin meet" x="398.5" y="-221"/>
<text text-anchor="start" x="421.5" y="-212.2" font-family="Helvetica,sans-Serif" font-size="11.00">sign_stream_section_id</text>
<polygon fill="#ffffff" stroke="transparent" points="393.5,-182 393.5,-204 613.5,-204 613.5,-182 393.5,-182"/>
<polygon fill="none" stroke="black" points="393.5,-182 393.5,-204 613.5,-204 613.5,-182 393.5,-182"/>
<image xlink:href="../../images/foreignKeys.png" width="11px" height="12px" preserveAspectRatio="xMinYMin meet" x="398.5" y="-199"/>
<text text-anchor="start" x="421.5" y="-190.2" font-family="Helvetica,sans-Serif" font-size="11.00">edition_editor_id</text>
<polygon fill="none" stroke="black" points="393.5,-160 393.5,-182 613.5,-182 613.5,-160 393.5,-160"/>
<image xlink:href="../../images/primaryKeys.png" width="11px" height="12px" preserveAspectRatio="xMinYMin meet" x="398.5" y="-177"/>
<text text-anchor="start" x="421.5" y="-168.2" font-family="Helvetica,sans-Serif" font-size="11.00">edition_id</text>
<polygon fill="#ffffff" stroke="transparent" points="393.5,-142 393.5,-160 468.5,-160 468.5,-142 393.5,-142"/>
<polygon fill="none" stroke="black" points="393.5,-142 393.5,-160 468.5,-160 468.5,-142 393.5,-142"/>
<text text-anchor="start" x="396.5" y="-148.2" font-family="Helvetica,sans-Serif" font-size="11.00">&lt; 3</text>
<polygon fill="#ffffff" stroke="transparent" points="468.5,-142 468.5,-160 574.5,-160 574.5,-142 468.5,-142"/>
<polygon fill="none" stroke="black" points="468.5,-142 468.5,-160 574.5,-160 574.5,-142 468.5,-142"/>
<text text-anchor="start" x="496.5" y="-148.2" font-family="Helvetica,sans-Serif" font-size="11.00">327,684 rows</text>
<polygon fill="#ffffff" stroke="transparent" points="574.5,-142 574.5,-160 613.5,-160 613.5,-142 574.5,-142"/>
<polygon fill="none" stroke="black" points="574.5,-142 574.5,-160 613.5,-160 613.5,-142 574.5,-142"/>
<text text-anchor="start" x="602.5" y="-148.2" font-family="Helvetica,sans-Serif" font-size="11.00"> &#160;</text>
</a>
</g>
</g>
<!-- sign_stream_section_owner&#45;&gt;sign_stream_section -->
<g id="edge3" class="edge">
<title>sign_stream_section_owner:w&#45;&gt;sign_stream_section:e</title>
<path fill="none" stroke="black" d="M378.19,-217.69C356.4,-226.81 353.26,-256 323,-256"/>
<polygon fill="black" stroke="black" points="384.64,-216.48 393.17,-218.54 388.57,-215.74 392.5,-215 392.5,-215 392.5,-215 388.57,-215.74 391.83,-211.46 384.64,-216.48 384.64,-216.48"/>
<ellipse fill="none" stroke="black" cx="381.49" cy="-217.07" rx="3.2" ry="3.2"/>
</g>
<!-- sign_stream_section_to_qwb_word -->
<g id="node5" class="node">
<title>sign_stream_section_to_qwb_word</title>
<g id="a_node5"><a xlink:href="../../tables/sign_stream_section_to_qwb_word.html" xlink:title="sign_stream_section_to_qwb_word" target="_top">
<polygon fill="#ffffff" stroke="transparent" points="373,-37 373,-121 634,-121 634,-37 373,-37"/>
<polygon fill="#f5f5f5" stroke="transparent" points="373.5,-99 373.5,-121 634.5,-121 634.5,-99 373.5,-99"/>
<polygon fill="none" stroke="black" points="373.5,-99 373.5,-121 634.5,-121 634.5,-99 373.5,-99"/>
<text text-anchor="start" x="378.5" y="-108.2" font-family="Helvetica,sans-Serif" font-weight="bold" font-size="11.00">sign_stream_section_to_qwb_word</text>
<text text-anchor="start" x="592.5" y="-107.2" font-family="Helvetica,sans-Serif" font-size="11.00">[table]</text>
<polygon fill="#ffffff" stroke="transparent" points="373.5,-77 373.5,-99 634.5,-99 634.5,-77 373.5,-77"/>
<polygon fill="none" stroke="black" points="373.5,-77 373.5,-99 634.5,-99 634.5,-77 373.5,-77"/>
<image xlink:href="../../images/foreignKeys.png" width="11px" height="12px" preserveAspectRatio="xMinYMin meet" x="378.5" y="-94"/>
<text text-anchor="start" x="398.5" y="-85.2" font-family="Helvetica,sans-Serif" font-size="11.00">sign_stream_section_id</text>
<polygon fill="#ffffff" stroke="transparent" points="373.5,-55 373.5,-77 634.5,-77 634.5,-55 373.5,-55"/>
<polygon fill="none" stroke="black" points="373.5,-55 373.5,-77 634.5,-77 634.5,-55 373.5,-55"/>
<image xlink:href="../../images/foreignKeys.png" width="11px" height="12px" preserveAspectRatio="xMinYMin meet" x="378.5" y="-72"/>
<text text-anchor="start" x="398.5" y="-63.2" font-family="Helvetica,sans-Serif" font-size="11.00">qwb_word_id</text>
<polygon fill="#ffffff" stroke="transparent" points="373.5,-37 373.5,-55 469.5,-55 469.5,-37 373.5,-37"/>
<polygon fill="none" stroke="black" points="373.5,-37 373.5,-55 469.5,-55 469.5,-37 373.5,-37"/>
<text text-anchor="start" x="376.5" y="-43.2" font-family="Helvetica,sans-Serif" font-size="11.00">&lt; 2</text>
<polygon fill="#ffffff" stroke="transparent" points="469.5,-37 469.5,-55 585.5,-55 585.5,-37 469.5,-37"/>
<polygon fill="none" stroke="black" points="469.5,-37 469.5,-55 585.5,-55 585.5,-37 469.5,-37"/>
<text text-anchor="start" x="507.5" y="-43.2" font-family="Helvetica,sans-Serif" font-size="11.00">328,329 rows</text>
<polygon fill="#ffffff" stroke="transparent" points="585.5,-37 585.5,-55 634.5,-55 634.5,-37 585.5,-37"/>
<polygon fill="none" stroke="black" points="585.5,-37 585.5,-55 634.5,-55 634.5,-37 585.5,-37"/>
<text text-anchor="start" x="623.5" y="-43.2" font-family="Helvetica,sans-Serif" font-size="11.00"> &#160;</text>
</a>
</g>
</g>
<!-- sign_stream_section_to_qwb_word&#45;&gt;sign_stream_section -->
<g id="edge4" class="edge">
<title>sign_stream_section_to_qwb_word:w&#45;&gt;sign_stream_section:e</title>
<path fill="none" stroke="black" d="M358.06,-90.64C309.41,-112.01 395.06,-256 323,-256"/>
<polygon fill="black" stroke="black" points="364.63,-89.44 373.15,-91.54 368.57,-88.72 372.5,-88 372.5,-88 372.5,-88 368.57,-88.72 371.85,-84.46 364.63,-89.44 364.63,-89.44"/>
<ellipse fill="none" stroke="black" cx="361.48" cy="-90.01" rx="3.2" ry="3.2"/>
</g>
</g>
</svg>
