<?xml version="1.0" encoding="UTF-8" standalone="no"?>
<!DOCTYPE svg PUBLIC "-//W3C//DTD SVG 1.1//EN"
 "http://www.w3.org/Graphics/SVG/1.1/DTD/svg11.dtd">
<!-- Generated by graphviz version 2.40.1 (20161225.0304)
 -->
<!-- Title: twoDegreesRelationshipsDiagram Pages: 1 -->
<svg width="892pt" height="493pt"
 viewBox="0.00 0.00 892.00 493.00" xmlns="http://www.w3.org/2000/svg" xmlns:xlink="http://www.w3.org/1999/xlink">
<g id="graph0" class="graph" transform="scale(1 1) rotate(0) translate(4 489)">
<title>twoDegreesRelationshipsDiagram</title>
<polygon fill="#ffffff" stroke="transparent" points="-4,4 -4,-489 888,-489 888,4 -4,4"/>
<text text-anchor="middle" x="71.5" y="-7.2" font-family="Helvetica,sans-Serif" font-size="11.00" fill="#000000">Generated by SchemaSpy</text>
<!-- line_to_sign -->
<g id="node1" class="node">
<title>line_to_sign</title>
<g id="a_node1"><a xlink:href="../../tables/line_to_sign.html" xlink:title="line_to_sign" target="_top">
<polygon fill="#ffffff" stroke="transparent" points="509.5,-353 509.5,-481 634.5,-481 634.5,-353 509.5,-353"/>
<polygon fill="#f5f5f5" stroke="transparent" points="510,-459 510,-481 635,-481 635,-459 510,-459"/>
<polygon fill="none" stroke="#000000" points="510,-459 510,-481 635,-481 635,-459 510,-459"/>
<text text-anchor="start" x="515" y="-468.2" font-family="Helvetica,sans-Serif" font-weight="bold" font-size="11.00" fill="#000000">line_to_sign</text>
<text text-anchor="start" x="600" y="-467.2" font-family="Helvetica,sans-Serif" font-size="11.00" fill="#000000">[table]</text>
<polygon fill="none" stroke="#000000" points="510,-437 510,-459 635,-459 635,-437 510,-437"/>
<image xlink:href="../../images/primaryKeys.png" width="11px" height="12px" preserveAspectRatio="xMinYMin meet" x="515" y="-454"/>
<text text-anchor="start" x="534" y="-445.2" font-family="Helvetica,sans-Serif" font-size="11.00" fill="#000000">line_to_sign_id</text>
<polygon fill="#ffffff" stroke="transparent" points="510,-415 510,-437 635,-437 635,-415 510,-415"/>
<polygon fill="none" stroke="#000000" points="510,-415 510,-437 635,-437 635,-415 510,-415"/>
<image xlink:href="../../images/foreignKeys.png" width="11px" height="12px" preserveAspectRatio="xMinYMin meet" x="515" y="-432"/>
<text text-anchor="start" x="534" y="-423.2" font-family="Helvetica,sans-Serif" font-size="11.00" fill="#000000">sign_id</text>
<polygon fill="#ffffff" stroke="transparent" points="510,-393 510,-415 635,-415 635,-393 510,-393"/>
<polygon fill="none" stroke="#000000" points="510,-393 510,-415 635,-415 635,-393 510,-393"/>
<image xlink:href="../../images/foreignKeys.png" width="11px" height="12px" preserveAspectRatio="xMinYMin meet" x="515" y="-410"/>
<text text-anchor="start" x="534" y="-401.2" font-family="Helvetica,sans-Serif" font-size="11.00" fill="#000000">line_id</text>
<polygon fill="#ffffff" stroke="transparent" points="510,-371 510,-393 635,-393 635,-371 510,-371"/>
<polygon fill="none" stroke="#000000" points="510,-371 510,-393 635,-393 635,-371 510,-371"/>
<image xlink:href="../../images/foreignKeys.png" width="11px" height="12px" preserveAspectRatio="xMinYMin meet" x="515" y="-388"/>
<text text-anchor="start" x="534" y="-379.2" font-family="Helvetica,sans-Serif" font-size="11.00" fill="#000000">creator_id</text>
<polygon fill="#ffffff" stroke="transparent" points="510,-353 510,-371 532,-371 532,-353 510,-353"/>
<polygon fill="none" stroke="#000000" points="510,-353 510,-371 532,-371 532,-353 510,-353"/>
<text text-anchor="start" x="513" y="-359.2" font-family="Helvetica,sans-Serif" font-size="11.00" fill="#000000">&lt; 3</text>
<polygon fill="#ffffff" stroke="transparent" points="532,-353 532,-371 613,-371 613,-353 532,-353"/>
<polygon fill="none" stroke="#000000" points="532,-353 532,-371 613,-371 613,-353 532,-353"/>
<text text-anchor="start" x="535" y="-359.2" font-family="Helvetica,sans-Serif" font-size="11.00" fill="#000000">1,730,080 rows</text>
<polygon fill="#ffffff" stroke="transparent" points="613,-353 613,-371 635,-371 635,-353 613,-353"/>
<polygon fill="none" stroke="#000000" points="613,-353 613,-371 635,-371 635,-353 613,-353"/>
<text text-anchor="start" x="616" y="-359.2" font-family="Helvetica,sans-Serif" font-size="11.00" fill="#000000">1 &gt;</text>
</a>
</g>
</g>
<!-- user -->
<g id="node2" class="node">
<title>user</title>
<g id="a_node2"><a xlink:href="../../tables/user.html" xlink:title="user" target="_top">
<polygon fill="#ffffff" stroke="transparent" points="290.5,-197 290.5,-255 370.5,-255 370.5,-197 290.5,-197"/>
<polygon fill="#f5f5f5" stroke="transparent" points="290.5,-233 290.5,-255 370.5,-255 370.5,-233 290.5,-233"/>
<polygon fill="none" stroke="#000000" points="290.5,-233 290.5,-255 370.5,-255 370.5,-233 290.5,-233"/>
<text text-anchor="start" x="295.5" y="-242.2" font-family="Helvetica,sans-Serif" font-weight="bold" font-size="11.00" fill="#000000">user</text>
<text text-anchor="start" x="335.5" y="-241.2" font-family="Helvetica,sans-Serif" font-size="11.00" fill="#000000">[table]</text>
<polygon fill="none" stroke="#000000" points="290.5,-215 290.5,-233 370.5,-233 370.5,-215 290.5,-215"/>
<text text-anchor="start" x="293.5" y="-221.2" font-family="Helvetica,sans-Serif" font-size="11.00" fill="#000000">...</text>
<polygon fill="#ffffff" stroke="transparent" points="290.5,-197 290.5,-215 303.5,-215 303.5,-197 290.5,-197"/>
<polygon fill="none" stroke="#000000" points="290.5,-197 290.5,-215 303.5,-215 303.5,-197 290.5,-197"/>
<text text-anchor="start" x="293.5" y="-203.2" font-family="Helvetica,sans-Serif" font-size="11.00" fill="#000000"> &#160;</text>
<polygon fill="#ffffff" stroke="transparent" points="303.5,-197 303.5,-215 342.5,-215 342.5,-197 303.5,-197"/>
<polygon fill="none" stroke="#000000" points="303.5,-197 303.5,-215 342.5,-215 342.5,-197 303.5,-197"/>
<text text-anchor="start" x="306.5" y="-203.2" font-family="Helvetica,sans-Serif" font-size="11.00" fill="#000000">3 rows</text>
<polygon fill="#ffffff" stroke="transparent" points="342.5,-197 342.5,-215 370.5,-215 370.5,-197 342.5,-197"/>
<polygon fill="none" stroke="#000000" points="342.5,-197 342.5,-215 370.5,-215 370.5,-197 342.5,-197"/>
<text text-anchor="start" x="345.5" y="-203.2" font-family="Helvetica,sans-Serif" font-size="11.00" fill="#000000">40 &gt;</text>
</a>
</g>
</g>
<!-- line_to_sign&#45;&gt;user -->
<g id="edge1" class="edge">
<title>line_to_sign:w&#45;&gt;user:e</title>
<path fill="none" stroke="#000000" d="M495.3931,-380.5368C421.2908,-364.6085 458.87,-224 370.5,-224"/>
<polygon fill="#000000" stroke="#000000" points="502.0398,-381.2025 509.6411,-385.5821 506.0199,-381.6013 510,-382 510,-382 510,-382 506.0199,-381.6013 510.3589,-378.4179 502.0398,-381.2025 502.0398,-381.2025"/>
<ellipse fill="none" stroke="#000000" cx="498.8558" cy="-380.8836" rx="3.2" ry="3.2"/>
</g>
<!-- line -->
<g id="node3" class="node">
<title>line</title>
<g id="a_node3"><a xlink:href="../../tables/line.html" xlink:title="line" target="_top">
<polygon fill="#ffffff" stroke="transparent" points="280,-344 280,-402 381,-402 381,-344 280,-344"/>
<polygon fill="#f5f5f5" stroke="transparent" points="280.5,-380 280.5,-402 381.5,-402 381.5,-380 280.5,-380"/>
<polygon fill="none" stroke="#000000" points="280.5,-380 280.5,-402 381.5,-402 381.5,-380 280.5,-380"/>
<text text-anchor="start" x="285.5" y="-389.2" font-family="Helvetica,sans-Serif" font-weight="bold" font-size="11.00" fill="#000000">line</text>
<text text-anchor="start" x="346.5" y="-388.2" font-family="Helvetica,sans-Serif" font-size="11.00" fill="#000000">[table]</text>
<polygon fill="none" stroke="#000000" points="280.5,-362 280.5,-380 381.5,-380 381.5,-362 280.5,-362"/>
<text text-anchor="start" x="283.5" y="-368.2" font-family="Helvetica,sans-Serif" font-size="11.00" fill="#000000">...</text>
<polygon fill="#ffffff" stroke="transparent" points="280.5,-344 280.5,-362 293.5,-362 293.5,-344 280.5,-344"/>
<polygon fill="none" stroke="#000000" points="280.5,-344 280.5,-362 293.5,-362 293.5,-344 280.5,-344"/>
<text text-anchor="start" x="283.5" y="-350.2" font-family="Helvetica,sans-Serif" font-size="11.00" fill="#000000"> &#160;</text>
<polygon fill="#ffffff" stroke="transparent" points="293.5,-344 293.5,-362 359.5,-362 359.5,-344 293.5,-344"/>
<polygon fill="none" stroke="#000000" points="293.5,-344 293.5,-362 359.5,-362 359.5,-344 293.5,-344"/>
<text text-anchor="start" x="296.5" y="-350.2" font-family="Helvetica,sans-Serif" font-size="11.00" fill="#000000">55,350 rows</text>
<polygon fill="#ffffff" stroke="transparent" points="359.5,-344 359.5,-362 381.5,-362 381.5,-344 359.5,-344"/>
<polygon fill="none" stroke="#000000" points="359.5,-344 359.5,-362 381.5,-362 381.5,-344 359.5,-344"/>
<text text-anchor="start" x="362.5" y="-350.2" font-family="Helvetica,sans-Serif" font-size="11.00" fill="#000000">3 &gt;</text>
</a>
</g>
</g>
<!-- line_to_sign&#45;&gt;line -->
<g id="edge2" class="edge">
<title>line_to_sign:w&#45;&gt;line:e</title>
<path fill="none" stroke="#000000" d="M495.5085,-403.2801C448.8036,-398.4541 435.2819,-371 381.5,-371"/>
<polygon fill="#000000" stroke="#000000" points="502.0099,-403.603 509.8213,-407.5956 506.0049,-403.8015 510,-404 510,-404 510,-404 506.0049,-403.8015 510.1787,-400.4044 502.0099,-403.603 502.0099,-403.603"/>
<ellipse fill="none" stroke="#000000" cx="498.8138" cy="-403.4442" rx="3.2" ry="3.2"/>
</g>
<!-- sign -->
<g id="node4" class="node">
<title>sign</title>
<g id="a_node4"><a xlink:href="../../tables/sign.html" xlink:title="sign" target="_top">
<polygon fill="#ffffff" stroke="transparent" points="8,-242 8,-308 197,-308 197,-242 8,-242"/>
<polygon fill="#f5f5f5" stroke="transparent" points="10.5,-284 10.5,-306 195.5,-306 195.5,-284 10.5,-284"/>
<polygon fill="none" stroke="#000000" points="10.5,-284 10.5,-306 195.5,-306 195.5,-284 10.5,-284"/>
<text text-anchor="start" x="15.5" y="-293.2" font-family="Helvetica,sans-Serif" font-weight="bold" font-size="11.00" fill="#000000">sign</text>
<text text-anchor="start" x="160.5" y="-292.2" font-family="Helvetica,sans-Serif" font-size="11.00" fill="#000000">[table]</text>
<polygon fill="none" stroke="#000000" points="10.5,-262 10.5,-284 113.5,-284 113.5,-262 10.5,-262"/>
<image xlink:href="../../images/primaryKeys.png" width="11px" height="12px" preserveAspectRatio="xMinYMin meet" x="15.5" y="-279"/>
<text text-anchor="start" x="48.5" y="-270.2" font-family="Helvetica,sans-Serif" font-size="11.00" fill="#000000">sign_id</text>
<polygon fill="none" stroke="#000000" points="113.5,-262 113.5,-284 195.5,-284 195.5,-262 113.5,-262"/>
<text text-anchor="start" x="116.5" y="-270.2" font-family="Helvetica,sans-Serif" font-size="11.00" fill="#000000">int unsigned[10]</text>
<polygon fill="#ffffff" stroke="transparent" points="10.5,-244 10.5,-262 32.5,-262 32.5,-244 10.5,-244"/>
<polygon fill="none" stroke="#000000" points="10.5,-244 10.5,-262 32.5,-262 32.5,-244 10.5,-244"/>
<text text-anchor="start" x="13.5" y="-250.2" font-family="Helvetica,sans-Serif" font-size="11.00" fill="#000000">&lt; 0</text>
<polygon fill="#ffffff" stroke="transparent" points="32.5,-244 32.5,-262 113.5,-262 113.5,-244 32.5,-244"/>
<polygon fill="none" stroke="#000000" points="32.5,-244 32.5,-262 113.5,-262 113.5,-244 32.5,-244"/>
<text text-anchor="start" x="35.5" y="-250.2" font-family="Helvetica,sans-Serif" font-size="11.00" fill="#000000">1,732,050 rows</text>
<polygon fill="#ffffff" stroke="transparent" points="113.5,-244 113.5,-262 195.5,-262 195.5,-244 113.5,-244"/>
<polygon fill="none" stroke="#000000" points="113.5,-244 113.5,-262 195.5,-262 195.5,-244 113.5,-244"/>
<text text-anchor="start" x="176.5" y="-250.2" font-family="Helvetica,sans-Serif" font-size="11.00" fill="#000000">2 &gt;</text>
<polygon fill="none" stroke="#000000" stroke-width="2" points="9,-243 9,-307 196,-307 196,-243 9,-243"/>
</a>
</g>
</g>
<!-- line_to_sign&#45;&gt;sign -->
<g id="edge3" class="edge">
<title>line_to_sign:w&#45;&gt;sign:e</title>
<path fill="none" stroke="#000000" d="M495.4314,-426.2962C384.3528,-430.8072 329.5526,-484.3353 238,-413 186.7062,-373.0332 260.5261,-273 195.5,-273"/>
<polygon fill="#000000" stroke="#000000" points="502.0017,-426.1627 510.0732,-429.5993 506.0008,-426.0813 510,-426 510,-426 510,-426 506.0008,-426.0813 509.9268,-422.4007 502.0017,-426.1627 502.0017,-426.1627"/>
<ellipse fill="none" stroke="#000000" cx="498.8023" cy="-426.2277" rx="3.2" ry="3.2"/>
</g>
<!-- line_to_sign_owner -->
<g id="node5" class="node">
<title>line_to_sign_owner</title>
<g id="a_node5"><a xlink:href="../../tables/line_to_sign_owner.html" xlink:title="line_to_sign_owner" target="_top">
<polygon fill="#ffffff" stroke="transparent" points="729,-421 729,-479 876,-479 876,-421 729,-421"/>
<polygon fill="#f5f5f5" stroke="transparent" points="729.5,-457 729.5,-479 876.5,-479 876.5,-457 729.5,-457"/>
<polygon fill="none" stroke="#000000" points="729.5,-457 729.5,-479 876.5,-479 876.5,-457 729.5,-457"/>
<text text-anchor="start" x="734.5" y="-466.2" font-family="Helvetica,sans-Serif" font-weight="bold" font-size="11.00" fill="#000000">line_to_sign_owner</text>
<text text-anchor="start" x="841.5" y="-465.2" font-family="Helvetica,sans-Serif" font-size="11.00" fill="#000000">[table]</text>
<polygon fill="none" stroke="#000000" points="729.5,-439 729.5,-457 876.5,-457 876.5,-439 729.5,-439"/>
<text text-anchor="start" x="732.5" y="-445.2" font-family="Helvetica,sans-Serif" font-size="11.00" fill="#000000">...</text>
<polygon fill="#ffffff" stroke="transparent" points="729.5,-421 729.5,-439 766.5,-439 766.5,-421 729.5,-421"/>
<polygon fill="none" stroke="#000000" points="729.5,-421 729.5,-439 766.5,-439 766.5,-421 729.5,-421"/>
<text text-anchor="start" x="732.5" y="-427.2" font-family="Helvetica,sans-Serif" font-size="11.00" fill="#000000">&lt; 3</text>
<polygon fill="#ffffff" stroke="transparent" points="766.5,-421 766.5,-439 855.5,-439 855.5,-421 766.5,-421"/>
<polygon fill="none" stroke="#000000" points="766.5,-421 766.5,-439 855.5,-439 855.5,-421 766.5,-421"/>
<text text-anchor="start" x="777.5" y="-427.2" font-family="Helvetica,sans-Serif" font-size="11.00" fill="#000000">1,730,550 rows</text>
<polygon fill="#ffffff" stroke="transparent" points="855.5,-421 855.5,-439 876.5,-439 876.5,-421 855.5,-421"/>
<polygon fill="none" stroke="#000000" points="855.5,-421 855.5,-439 876.5,-439 876.5,-421 855.5,-421"/>
<text text-anchor="start" x="866.5" y="-427.2" font-family="Helvetica,sans-Serif" font-size="11.00" fill="#000000"> &#160;</text>
</a>
</g>
</g>
<!-- line_to_sign_owner&#45;&gt;line_to_sign -->
<g id="edge4" class="edge">
<title>line_to_sign_owner:w&#45;&gt;line_to_sign:e</title>
<path fill="none" stroke="#000000" d="M714.6932,-448C684.2695,-448 671.5859,-448 635,-448"/>
<polygon fill="#000000" stroke="#000000" points="721.5,-448.0001 729.5,-451.6 725.5,-448 729.5,-448 729.5,-448 729.5,-448 725.5,-448 729.5,-444.4 721.5,-448.0001 721.5,-448.0001"/>
<ellipse fill="none" stroke="#000000" cx="718.3" cy="-448.0001" rx="3.2" ry="3.2"/>
</g>
<!-- position_in_stream -->
<g id="node6" class="node">
<title>position_in_stream</title>
<g id="a_node6"><a xlink:href="../../tables/position_in_stream.html" xlink:title="position_in_stream" target="_top">
<polygon fill="#ffffff" stroke="transparent" points="499.5,-37 499.5,-95 644.5,-95 644.5,-37 499.5,-37"/>
<polygon fill="#f5f5f5" stroke="transparent" points="500,-73 500,-95 645,-95 645,-73 500,-73"/>
<polygon fill="none" stroke="#000000" points="500,-73 500,-95 645,-95 645,-73 500,-73"/>
<text text-anchor="start" x="505" y="-82.2" font-family="Helvetica,sans-Serif" font-weight="bold" font-size="11.00" fill="#000000">position_in_stream</text>
<text text-anchor="start" x="610" y="-81.2" font-family="Helvetica,sans-Serif" font-size="11.00" fill="#000000">[table]</text>
<polygon fill="none" stroke="#000000" points="500,-55 500,-73 645,-73 645,-55 500,-55"/>
<text text-anchor="start" x="503" y="-61.2" font-family="Helvetica,sans-Serif" font-size="11.00" fill="#000000">...</text>
<polygon fill="#ffffff" stroke="transparent" points="500,-37 500,-55 532,-55 532,-37 500,-37"/>
<polygon fill="none" stroke="#000000" points="500,-37 500,-55 532,-55 532,-37 500,-37"/>
<text text-anchor="start" x="503" y="-43.2" font-family="Helvetica,sans-Serif" font-size="11.00" fill="#000000">&lt; 3</text>
<polygon fill="#ffffff" stroke="transparent" points="532,-37 532,-55 618,-55 618,-37 532,-37"/>
<polygon fill="none" stroke="#000000" points="532,-37 532,-55 618,-55 618,-37 532,-37"/>
<text text-anchor="start" x="540" y="-43.2" font-family="Helvetica,sans-Serif" font-size="11.00" fill="#000000">1,719,529 rows</text>
<polygon fill="#ffffff" stroke="transparent" points="618,-37 618,-55 645,-55 645,-37 618,-37"/>
<polygon fill="none" stroke="#000000" points="618,-37 618,-55 645,-55 645,-37 618,-37"/>
<text text-anchor="start" x="626" y="-43.2" font-family="Helvetica,sans-Serif" font-size="11.00" fill="#000000">2 &gt;</text>
</a>
</g>
</g>
<!-- position_in_stream&#45;&gt;user -->
<g id="edge5" class="edge">
<title>position_in_stream:w&#45;&gt;user:e</title>
<path fill="none" stroke="#000000" d="M485.6051,-65.4786C439.6696,-76.0261 459.7738,-140.7621 423,-187 405.2314,-209.3415 399.0458,-224 370.5,-224"/>
<polygon fill="#000000" stroke="#000000" points="492.0419,-64.8175 500.3679,-67.5812 496.0209,-64.4087 500,-64 500,-64 500,-64 496.0209,-64.4087 499.6321,-60.4188 492.0419,-64.8175 492.0419,-64.8175"/>
<ellipse fill="none" stroke="#000000" cx="488.8586" cy="-65.1445" rx="3.2" ry="3.2"/>
</g>
<!-- sign_interpretation -->
<g id="node7" class="node">
<title>sign_interpretation</title>
<g id="a_node7"><a xlink:href="../../tables/sign_interpretation.html" xlink:title="sign_interpretation" target="_top">
<polygon fill="#ffffff" stroke="transparent" points="246,-48 246,-176 415,-176 415,-48 246,-48"/>
<polygon fill="#f5f5f5" stroke="transparent" points="246.5,-154 246.5,-176 415.5,-176 415.5,-154 246.5,-154"/>
<polygon fill="none" stroke="#000000" points="246.5,-154 246.5,-176 415.5,-176 415.5,-154 246.5,-154"/>
<text text-anchor="start" x="251.5" y="-163.2" font-family="Helvetica,sans-Serif" font-weight="bold" font-size="11.00" fill="#000000">sign_interpretation</text>
<text text-anchor="start" x="380.5" y="-162.2" font-family="Helvetica,sans-Serif" font-size="11.00" fill="#000000">[table]</text>
<polygon fill="none" stroke="#000000" points="246.5,-132 246.5,-154 415.5,-154 415.5,-132 246.5,-132"/>
<image xlink:href="../../images/primaryKeys.png" width="11px" height="12px" preserveAspectRatio="xMinYMin meet" x="251.5" y="-149"/>
<text text-anchor="start" x="266.5" y="-140.2" font-family="Helvetica,sans-Serif" font-size="11.00" fill="#000000">sign_interpretation_id</text>
<polygon fill="#ffffff" stroke="transparent" points="246.5,-110 246.5,-132 415.5,-132 415.5,-110 246.5,-110"/>
<polygon fill="none" stroke="#000000" points="246.5,-110 246.5,-132 415.5,-132 415.5,-110 246.5,-110"/>
<image xlink:href="../../images/foreignKeys.png" width="11px" height="12px" preserveAspectRatio="xMinYMin meet" x="251.5" y="-127"/>
<text text-anchor="start" x="266.5" y="-118.2" font-family="Helvetica,sans-Serif" font-size="11.00" fill="#000000">sign_id</text>
<polygon fill="#ffffff" stroke="transparent" points="246.5,-88 246.5,-110 415.5,-110 415.5,-88 246.5,-88"/>
<polygon fill="none" stroke="#000000" points="246.5,-88 246.5,-110 415.5,-110 415.5,-88 246.5,-88"/>
<text text-anchor="start" x="266.5" y="-96.2" font-family="Helvetica,sans-Serif" font-size="11.00" fill="#000000">is_variant</text>
<polygon fill="#ffffff" stroke="transparent" points="246.5,-66 246.5,-88 415.5,-88 415.5,-66 246.5,-66"/>
<polygon fill="none" stroke="#000000" points="246.5,-66 246.5,-88 415.5,-88 415.5,-66 246.5,-66"/>
<text text-anchor="start" x="266.5" y="-74.2" font-family="Helvetica,sans-Serif" font-size="11.00" fill="#000000">character</text>
<polygon fill="#ffffff" stroke="transparent" points="246.5,-48 246.5,-66 290.5,-66 290.5,-48 246.5,-48"/>
<polygon fill="none" stroke="#000000" points="246.5,-48 246.5,-66 290.5,-66 290.5,-48 246.5,-48"/>
<text text-anchor="start" x="249.5" y="-54.2" font-family="Helvetica,sans-Serif" font-size="11.00" fill="#000000">&lt; 1</text>
<polygon fill="#ffffff" stroke="transparent" points="290.5,-48 290.5,-66 382.5,-66 382.5,-48 290.5,-48"/>
<polygon fill="none" stroke="#000000" points="290.5,-48 290.5,-66 382.5,-66 382.5,-48 290.5,-48"/>
<text text-anchor="start" x="304.5" y="-54.2" font-family="Helvetica,sans-Serif" font-size="11.00" fill="#000000">1,586,942 rows</text>
<polygon fill="#ffffff" stroke="transparent" points="382.5,-48 382.5,-66 415.5,-66 415.5,-48 382.5,-48"/>
<polygon fill="none" stroke="#000000" points="382.5,-48 382.5,-66 415.5,-66 415.5,-48 382.5,-48"/>
<text text-anchor="start" x="396.5" y="-54.2" font-family="Helvetica,sans-Serif" font-size="11.00" fill="#000000">5 &gt;</text>
</a>
</g>
</g>
<!-- position_in_stream&#45;&gt;sign_interpretation -->
<g id="edge6" class="edge">
<title>position_in_stream:w&#45;&gt;sign_interpretation:e</title>
<path fill="none" stroke="#000000" d="M485.84,-67.857C462.8896,-83.5178 436.6874,-138.0547 415.5,-143"/>
<polygon fill="#000000" stroke="#000000" points="492.2812,-66.1025 500.9461,-67.4734 496.1406,-65.0513 500,-64 500,-64 500,-64 496.1406,-65.0513 499.0539,-60.5266 492.2812,-66.1025 492.2812,-66.1025"/>
<ellipse fill="none" stroke="#000000" cx="489.1937" cy="-66.9436" rx="3.2" ry="3.2"/>
</g>
<!-- position_in_stream&#45;&gt;sign_interpretation -->
<g id="edge7" class="edge">
<title>position_in_stream:w&#45;&gt;sign_interpretation:e</title>
<path fill="none" stroke="#000000" d="M487.7898,-71.6536C464.3838,-93.0744 437.2899,-148.9336 415.5,-143"/>
<polygon fill="#000000" stroke="#000000" points="493.2216,-68.2489 501.912,-67.0503 496.6108,-66.1244 500,-64 500,-64 500,-64 496.6108,-66.1244 498.088,-60.9497 493.2216,-68.2489 493.2216,-68.2489"/>
<ellipse fill="none" stroke="#000000" cx="490.5102" cy="-69.9484" rx="3.2" ry="3.2"/>
</g>
<!-- sign_interpretation&#45;&gt;sign -->
<g id="edge8" class="edge">
<title>sign_interpretation:w&#45;&gt;sign:e</title>
<path fill="none" stroke="#000000" d="M232.3458,-123.768C188.8559,-144.369 261.0507,-273 195.5,-273"/>
<polygon fill="#000000" stroke="#000000" points="238.6487,-122.5354 247.1909,-124.5331 242.5744,-121.7677 246.5,-121 246.5,-121 246.5,-121 242.5744,-121.7677 245.8091,-117.4669 238.6487,-122.5354 238.6487,-122.5354"/>
<ellipse fill="none" stroke="#000000" cx="235.5082" cy="-123.1496" rx="3.2" ry="3.2"/>
</g>
<!-- sign_interpretation_attribute -->
<g id="node8" class="node">
<title>sign_interpretation_attribute</title>
<g id="a_node8"><a xlink:href="../../tables/sign_interpretation_attribute.html" xlink:title="sign_interpretation_attribute" target="_top">
<polygon fill="#ffffff" stroke="transparent" points="474.5,-274 474.5,-332 669.5,-332 669.5,-274 474.5,-274"/>
<polygon fill="#f5f5f5" stroke="transparent" points="475,-310 475,-332 670,-332 670,-310 475,-310"/>
<polygon fill="none" stroke="#000000" points="475,-310 475,-332 670,-332 670,-310 475,-310"/>
<text text-anchor="start" x="480" y="-319.2" font-family="Helvetica,sans-Serif" font-weight="bold" font-size="11.00" fill="#000000">sign_interpretation_attribute</text>
<text text-anchor="start" x="635" y="-318.2" font-family="Helvetica,sans-Serif" font-size="11.00" fill="#000000">[table]</text>
<polygon fill="none" stroke="#000000" points="475,-292 475,-310 670,-310 670,-292 475,-292"/>
<text text-anchor="start" x="478" y="-298.2" font-family="Helvetica,sans-Serif" font-size="11.00" fill="#000000">...</text>
<polygon fill="#ffffff" stroke="transparent" points="475,-274 475,-292 532,-292 532,-274 475,-274"/>
<polygon fill="none" stroke="#000000" points="475,-274 475,-292 532,-292 532,-274 475,-274"/>
<text text-anchor="start" x="478" y="-280.2" font-family="Helvetica,sans-Serif" font-size="11.00" fill="#000000">&lt; 3</text>
<polygon fill="#ffffff" stroke="transparent" points="532,-274 532,-292 630,-292 630,-274 532,-274"/>
<polygon fill="none" stroke="#000000" points="532,-274 532,-292 630,-292 630,-274 532,-274"/>
<text text-anchor="start" x="552" y="-280.2" font-family="Helvetica,sans-Serif" font-size="11.00" fill="#000000">2,606,879 rows</text>
<polygon fill="#ffffff" stroke="transparent" points="630,-274 630,-292 670,-292 670,-274 630,-274"/>
<polygon fill="none" stroke="#000000" points="630,-274 630,-292 670,-292 670,-274 630,-274"/>
<text text-anchor="start" x="651" y="-280.2" font-family="Helvetica,sans-Serif" font-size="11.00" fill="#000000">1 &gt;</text>
</a>
</g>
</g>
<!-- sign_interpretation_attribute&#45;&gt;user -->
<g id="edge9" class="edge">
<title>sign_interpretation_attribute:w&#45;&gt;user:e</title>
<path fill="none" stroke="#000000" d="M460.4695,-299.0966C418.7467,-287.2393 422.7824,-224 370.5,-224"/>
<polygon fill="#000000" stroke="#000000" points="467.0678,-299.9609 474.5324,-304.5695 471.0339,-300.4804 475,-301 475,-301 475,-301 471.0339,-300.4804 475.4676,-297.4305 467.0678,-299.9609 467.0678,-299.9609"/>
<ellipse fill="none" stroke="#000000" cx="463.8949" cy="-299.5453" rx="3.2" ry="3.2"/>
</g>
<!-- sign_interpretation_attribute&#45;&gt;sign_interpretation -->
<g id="edge10" class="edge">
<title>sign_interpretation_attribute:w&#45;&gt;sign_interpretation:e</title>
<path fill="none" stroke="#000000" d="M460.5893,-298.3894C412.8009,-277.8464 484.8208,-143 415.5,-143"/>
<polygon fill="#000000" stroke="#000000" points="467.1281,-299.5739 474.3583,-304.5423 471.0641,-300.287 475,-301 475,-301 475,-301 471.0641,-300.287 475.6417,-297.4577 467.1281,-299.5739 467.1281,-299.5739"/>
<ellipse fill="none" stroke="#000000" cx="463.9794" cy="-299.0035" rx="3.2" ry="3.2"/>
</g>
<!-- sign_interpretation_commentary -->
<g id="node9" class="node">
<title>sign_interpretation_commentary</title>
<g id="a_node9"><a xlink:href="../../tables/sign_interpretation_commentary.html" xlink:title="sign_interpretation_commentary" target="_top">
<polygon fill="#ffffff" stroke="transparent" points="464,-195 464,-253 680,-253 680,-195 464,-195"/>
<polygon fill="#f5f5f5" stroke="transparent" points="464,-231 464,-253 680,-253 680,-231 464,-231"/>
<polygon fill="none" stroke="#000000" points="464,-231 464,-253 680,-253 680,-231 464,-231"/>
<text text-anchor="start" x="469" y="-240.2" font-family="Helvetica,sans-Serif" font-weight="bold" font-size="11.00" fill="#000000">sign_interpretation_commentary</text>
<text text-anchor="start" x="645" y="-239.2" font-family="Helvetica,sans-Serif" font-size="11.00" fill="#000000">[table]</text>
<polygon fill="none" stroke="#000000" points="464,-213 464,-231 680,-231 680,-213 464,-213"/>
<text text-anchor="start" x="467" y="-219.2" font-family="Helvetica,sans-Serif" font-size="11.00" fill="#000000">...</text>
<polygon fill="#ffffff" stroke="transparent" points="464,-195 464,-213 552,-213 552,-195 464,-195"/>
<polygon fill="none" stroke="#000000" points="464,-195 464,-213 552,-213 552,-195 464,-195"/>
<text text-anchor="start" x="467" y="-201.2" font-family="Helvetica,sans-Serif" font-size="11.00" fill="#000000">&lt; 3</text>
<polygon fill="#ffffff" stroke="transparent" points="552,-195 552,-213 624,-213 624,-195 552,-195"/>
<polygon fill="none" stroke="#000000" points="552,-195 552,-213 624,-213 624,-195 552,-195"/>
<text text-anchor="start" x="588" y="-201.2" font-family="Helvetica,sans-Serif" font-size="11.00" fill="#000000">0 rows</text>
<polygon fill="#ffffff" stroke="transparent" points="624,-195 624,-213 680,-213 680,-195 624,-195"/>
<polygon fill="none" stroke="#000000" points="624,-195 624,-213 680,-213 680,-195 624,-195"/>
<text text-anchor="start" x="661" y="-201.2" font-family="Helvetica,sans-Serif" font-size="11.00" fill="#000000">1 &gt;</text>
</a>
</g>
</g>
<!-- sign_interpretation_commentary&#45;&gt;user -->
<g id="edge11" class="edge">
<title>sign_interpretation_commentary:w&#45;&gt;user:e</title>
<path fill="none" stroke="#000000" d="M449.3475,-222.0911C419.2431,-222.4824 406.7071,-224 370.5,-224"/>
<polygon fill="#000000" stroke="#000000" points="456.0002,-222.0498 464.0224,-225.5999 460.0001,-222.0249 464,-222 464,-222 464,-222 460.0001,-222.0249 463.9776,-218.4001 456.0002,-222.0498 456.0002,-222.0498"/>
<ellipse fill="none" stroke="#000000" cx="452.8002" cy="-222.0697" rx="3.2" ry="3.2"/>
</g>
<!-- sign_interpretation_commentary&#45;&gt;sign_interpretation -->
<g id="edge12" class="edge">
<title>sign_interpretation_commentary:w&#45;&gt;sign_interpretation:e</title>
<path fill="none" stroke="#000000" d="M450.1261,-217.2948C431.2094,-200.2875 450.5843,-143 415.5,-143"/>
<polygon fill="#000000" stroke="#000000" points="456.4238,-219.4306 462.8438,-225.4093 460.2119,-220.7153 464,-222 464,-222 464,-222 460.2119,-220.7153 465.1562,-218.5907 456.4238,-219.4306 456.4238,-219.4306"/>
<ellipse fill="none" stroke="#000000" cx="453.3934" cy="-218.4028" rx="3.2" ry="3.2"/>
</g>
<!-- sign_interpretation_roi -->
<g id="node10" class="node">
<title>sign_interpretation_roi</title>
<g id="a_node10"><a xlink:href="../../tables/sign_interpretation_roi.html" xlink:title="sign_interpretation_roi" target="_top">
<polygon fill="#ffffff" stroke="transparent" points="489.5,-116 489.5,-174 654.5,-174 654.5,-116 489.5,-116"/>
<polygon fill="#f5f5f5" stroke="transparent" points="490,-152 490,-174 655,-174 655,-152 490,-152"/>
<polygon fill="none" stroke="#000000" points="490,-152 490,-174 655,-174 655,-152 490,-152"/>
<text text-anchor="start" x="495" y="-161.2" font-family="Helvetica,sans-Serif" font-weight="bold" font-size="11.00" fill="#000000">sign_interpretation_roi</text>
<text text-anchor="start" x="620" y="-160.2" font-family="Helvetica,sans-Serif" font-size="11.00" fill="#000000">[table]</text>
<polygon fill="none" stroke="#000000" points="490,-134 490,-152 655,-152 655,-134 490,-134"/>
<text text-anchor="start" x="493" y="-140.2" font-family="Helvetica,sans-Serif" font-size="11.00" fill="#000000">...</text>
<polygon fill="#ffffff" stroke="transparent" points="490,-116 490,-134 553,-134 553,-116 490,-116"/>
<polygon fill="none" stroke="#000000" points="490,-116 490,-134 553,-134 553,-116 490,-116"/>
<text text-anchor="start" x="493" y="-122.2" font-family="Helvetica,sans-Serif" font-size="11.00" fill="#000000">&lt; 4</text>
<polygon fill="#ffffff" stroke="transparent" points="553,-116 553,-134 612,-134 612,-116 553,-116"/>
<polygon fill="none" stroke="#000000" points="553,-116 553,-134 612,-134 612,-116 553,-116"/>
<text text-anchor="start" x="576" y="-122.2" font-family="Helvetica,sans-Serif" font-size="11.00" fill="#000000">0 rows</text>
<polygon fill="#ffffff" stroke="transparent" points="612,-116 612,-134 655,-134 655,-116 612,-116"/>
<polygon fill="none" stroke="#000000" points="612,-116 612,-134 655,-134 655,-116 612,-116"/>
<text text-anchor="start" x="636" y="-122.2" font-family="Helvetica,sans-Serif" font-size="11.00" fill="#000000">1 &gt;</text>
</a>
</g>
</g>
<!-- sign_interpretation_roi&#45;&gt;user -->
<g id="edge13" class="edge">
<title>sign_interpretation_roi:w&#45;&gt;user:e</title>
<path fill="none" stroke="#000000" d="M475.6029,-144.5458C426.7944,-155.744 429.3989,-224 370.5,-224"/>
<polygon fill="#000000" stroke="#000000" points="482.0457,-143.8541 490.3843,-146.5794 486.0229,-143.427 490,-143 490,-143 490,-143 486.0229,-143.427 489.6157,-139.4206 482.0457,-143.8541 482.0457,-143.8541"/>
<ellipse fill="none" stroke="#000000" cx="478.864" cy="-144.1957" rx="3.2" ry="3.2"/>
</g>
<!-- sign_interpretation_roi&#45;&gt;sign_interpretation -->
<g id="edge14" class="edge">
<title>sign_interpretation_roi:w&#45;&gt;sign_interpretation:e</title>
<path fill="none" stroke="#000000" d="M475.4891,-143C453.5043,-143 443.1788,-143 415.5,-143"/>
<polygon fill="#000000" stroke="#000000" points="482,-143.0001 490,-146.6 486,-143 490,-143 490,-143 490,-143 486,-143 490,-139.4 482,-143.0001 482,-143.0001"/>
<ellipse fill="none" stroke="#000000" cx="478.8" cy="-143.0001" rx="3.2" ry="3.2"/>
</g>
</g>
</svg>
