<?xml version="1.0" encoding="UTF-8" standalone="no"?>
<!DOCTYPE svg PUBLIC "-//W3C//DTD SVG 1.1//EN"
 "http://www.w3.org/Graphics/SVG/1.1/DTD/svg11.dtd">
<!-- Generated by graphviz version 2.40.1 (20161225.0304)
 -->
<!-- Title: oneDegreeRelationshipsDiagram Pages: 1 -->
<svg width="1166pt" height="380pt"
 viewBox="0.00 0.00 1166.00 380.00" xmlns="http://www.w3.org/2000/svg" xmlns:xlink="http://www.w3.org/1999/xlink">
<g id="graph0" class="graph" transform="scale(1 1) rotate(0) translate(4 376)">
<title>oneDegreeRelationshipsDiagram</title>
<polygon fill="#ffffff" stroke="transparent" points="-4,4 -4,-376 1162,-376 1162,4 -4,4"/>
<text text-anchor="middle" x="71.5" y="-7.2" font-family="Helvetica,sans-Serif" font-size="11.00" fill="#000000">Generated by SchemaSpy</text>
<!-- attribute -->
<g id="node1" class="node">
<title>attribute</title>
<g id="a_node1"><a xlink:href="../../tables/attribute.html" xlink:title="attribute" target="_top">
<polygon fill="#ffffff" stroke="transparent" points="254.5,-95 254.5,-219 354.5,-219 354.5,-95 254.5,-95"/>
<polygon fill="#f5f5f5" stroke="transparent" points="254.5,-197 254.5,-219 354.5,-219 354.5,-197 254.5,-197"/>
<polygon fill="none" stroke="#000000" points="254.5,-197 254.5,-219 354.5,-219 354.5,-197 254.5,-197"/>
<text text-anchor="start" x="259.5" y="-206.2" font-family="Helvetica,sans-Serif" font-weight="bold" font-size="11.00" fill="#000000">attribute</text>
<text text-anchor="start" x="319.5" y="-205.2" font-family="Helvetica,sans-Serif" font-size="11.00" fill="#000000">[table]</text>
<polygon fill="none" stroke="#000000" points="254.5,-175 254.5,-197 354.5,-197 354.5,-175 254.5,-175"/>
<image xlink:href="../../images/primaryKeys.png" width="11px" height="12px" preserveAspectRatio="xMinYMin meet" x="259.5" y="-192"/>
<text text-anchor="start" x="274.5" y="-183.2" font-family="Helvetica,sans-Serif" font-size="11.00" fill="#000000">attribute_id</text>
<polygon fill="#ffffff" stroke="transparent" points="254.5,-153 254.5,-175 354.5,-175 354.5,-153 254.5,-153"/>
<polygon fill="none" stroke="#000000" points="254.5,-153 254.5,-175 354.5,-175 354.5,-153 254.5,-153"/>
<text text-anchor="start" x="274.5" y="-161.2" font-family="Helvetica,sans-Serif" font-size="11.00" fill="#000000">name</text>
<polygon fill="#ffffff" stroke="transparent" points="254.5,-131 254.5,-153 354.5,-153 354.5,-131 254.5,-131"/>
<polygon fill="none" stroke="#000000" points="254.5,-131 254.5,-153 354.5,-153 354.5,-131 254.5,-131"/>
<image xlink:href="../../images/foreignKeys.png" width="11px" height="12px" preserveAspectRatio="xMinYMin meet" x="259.5" y="-148"/>
<text text-anchor="start" x="274.5" y="-139.2" font-family="Helvetica,sans-Serif" font-size="11.00" fill="#000000">creator_id</text>
<polygon fill="none" stroke="#000000" points="254.5,-113 254.5,-131 354.5,-131 354.5,-113 254.5,-113"/>
<text text-anchor="start" x="257.5" y="-119.2" font-family="Helvetica,sans-Serif" font-size="11.00" fill="#000000">...</text>
<polygon fill="#ffffff" stroke="transparent" points="254.5,-95 254.5,-113 284.5,-113 284.5,-95 254.5,-95"/>
<polygon fill="none" stroke="#000000" points="254.5,-95 254.5,-113 284.5,-113 284.5,-95 254.5,-95"/>
<text text-anchor="start" x="257.5" y="-101.2" font-family="Helvetica,sans-Serif" font-size="11.00" fill="#000000">&lt; 1</text>
<polygon fill="#ffffff" stroke="transparent" points="284.5,-95 284.5,-113 327.5,-113 327.5,-95 284.5,-95"/>
<polygon fill="none" stroke="#000000" points="284.5,-95 284.5,-113 327.5,-113 327.5,-95 284.5,-95"/>
<text text-anchor="start" x="291.5" y="-101.2" font-family="Helvetica,sans-Serif" font-size="11.00" fill="#000000">9 rows</text>
<polygon fill="#ffffff" stroke="transparent" points="327.5,-95 327.5,-113 354.5,-113 354.5,-95 327.5,-95"/>
<polygon fill="none" stroke="#000000" points="327.5,-95 327.5,-113 354.5,-113 354.5,-95 327.5,-95"/>
<text text-anchor="start" x="335.5" y="-101.2" font-family="Helvetica,sans-Serif" font-size="11.00" fill="#000000">3 &gt;</text>
</a>
</g>
</g>
<!-- user -->
<g id="node2" class="node">
<title>user</title>
<g id="a_node2"><a xlink:href="../../tables/user.html" xlink:title="user" target="_top">
<polygon fill="#ffffff" stroke="transparent" points="8,-37 8,-139 171,-139 171,-37 8,-37"/>
<polygon fill="#f5f5f5" stroke="transparent" points="8.5,-117 8.5,-139 171.5,-139 171.5,-117 8.5,-117"/>
<polygon fill="none" stroke="#000000" points="8.5,-117 8.5,-139 171.5,-139 171.5,-117 8.5,-117"/>
<text text-anchor="start" x="13.5" y="-126.2" font-family="Helvetica,sans-Serif" font-weight="bold" font-size="11.00" fill="#000000">user</text>
<text text-anchor="start" x="136.5" y="-125.2" font-family="Helvetica,sans-Serif" font-size="11.00" fill="#000000">[table]</text>
<polygon fill="none" stroke="#000000" points="8.5,-95 8.5,-117 171.5,-117 171.5,-95 8.5,-95"/>
<image xlink:href="../../images/primaryKeys.png" width="11px" height="12px" preserveAspectRatio="xMinYMin meet" x="13.5" y="-112"/>
<text text-anchor="start" x="28.5" y="-103.2" font-family="Helvetica,sans-Serif" font-size="11.00" fill="#000000">user_id</text>
<polygon fill="#ffffff" stroke="transparent" points="8.5,-73 8.5,-95 171.5,-95 171.5,-73 8.5,-73"/>
<polygon fill="none" stroke="#000000" points="8.5,-73 8.5,-95 171.5,-95 171.5,-73 8.5,-73"/>
<text text-anchor="start" x="28.5" y="-81.2" font-family="Helvetica,sans-Serif" font-size="11.00" fill="#000000">email</text>
<polygon fill="none" stroke="#000000" points="8.5,-55 8.5,-73 171.5,-73 171.5,-55 8.5,-55"/>
<text text-anchor="start" x="11.5" y="-61.2" font-family="Helvetica,sans-Serif" font-size="11.00" fill="#000000">...</text>
<polygon fill="#ffffff" stroke="transparent" points="8.5,-37 8.5,-55 62.5,-55 62.5,-37 8.5,-37"/>
<polygon fill="none" stroke="#000000" points="8.5,-37 8.5,-55 62.5,-55 62.5,-37 8.5,-37"/>
<text text-anchor="start" x="11.5" y="-43.2" font-family="Helvetica,sans-Serif" font-size="11.00" fill="#000000"> &#160;</text>
<polygon fill="#ffffff" stroke="transparent" points="62.5,-37 62.5,-55 122.5,-55 122.5,-37 62.5,-37"/>
<polygon fill="none" stroke="#000000" points="62.5,-37 62.5,-55 122.5,-55 122.5,-37 62.5,-37"/>
<text text-anchor="start" x="86.5" y="-43.2" font-family="Helvetica,sans-Serif" font-size="11.00" fill="#000000">3 rows</text>
<polygon fill="#ffffff" stroke="transparent" points="122.5,-37 122.5,-55 171.5,-55 171.5,-37 122.5,-37"/>
<polygon fill="none" stroke="#000000" points="122.5,-37 122.5,-55 171.5,-55 171.5,-37 122.5,-37"/>
<text text-anchor="start" x="146.5" y="-43.2" font-family="Helvetica,sans-Serif" font-size="11.00" fill="#000000">40 &gt;</text>
</a>
</g>
</g>
<!-- attribute&#45;&gt;user -->
<g id="edge1" class="edge">
<title>attribute:w&#45;&gt;user:e</title>
<path fill="none" stroke="#000000" d="M239.9256,-140.1653C212.8815,-132.8292 206.212,-106 171.5,-106"/>
<polygon fill="#000000" stroke="#000000" points="246.5626,-141.0007 254.0503,-145.5718 250.5313,-141.5004 254.5,-142 254.5,-142 254.5,-142 250.5313,-141.5004 254.9497,-138.4282 246.5626,-141.0007 246.5626,-141.0007"/>
<ellipse fill="none" stroke="#000000" cx="243.3877" cy="-140.601" rx="3.2" ry="3.2"/>
</g>
<!-- sign_interpretation_commentary -->
<g id="node3" class="node">
<title>sign_interpretation_commentary</title>
<g id="a_node3"><a xlink:href="../../tables/sign_interpretation_commentary.html" xlink:title="sign_interpretation_commentary" target="_top">
<polygon fill="#ffffff" stroke="transparent" points="438,-111 438,-265 812,-265 812,-111 438,-111"/>
<polygon fill="#f5f5f5" stroke="transparent" points="440,-241 440,-263 810,-263 810,-241 440,-241"/>
<polygon fill="none" stroke="#000000" points="440,-241 440,-263 810,-263 810,-241 440,-241"/>
<text text-anchor="start" x="445" y="-250.2" font-family="Helvetica,sans-Serif" font-weight="bold" font-size="11.00" fill="#000000">sign_interpretation_commentary</text>
<text text-anchor="start" x="775" y="-249.2" font-family="Helvetica,sans-Serif" font-size="11.00" fill="#000000">[table]</text>
<polygon fill="none" stroke="#000000" points="440,-219 440,-241 700,-241 700,-219 440,-219"/>
<image xlink:href="../../images/primaryKeys.png" width="11px" height="12px" preserveAspectRatio="xMinYMin meet" x="445" y="-236"/>
<text text-anchor="start" x="460" y="-227.2" font-family="Helvetica,sans-Serif" font-size="11.00" fill="#000000">sign_interpretation_commentary_id</text>
<polygon fill="none" stroke="#000000" points="700,-219 700,-241 810,-241 810,-219 700,-219"/>
<text text-anchor="start" x="703" y="-227.2" font-family="Helvetica,sans-Serif" font-size="11.00" fill="#000000">int unsigned[10]</text>
<polygon fill="#ffffff" stroke="transparent" points="440,-197 440,-219 700,-219 700,-197 440,-197"/>
<polygon fill="none" stroke="#000000" points="440,-197 440,-219 700,-219 700,-197 440,-197"/>
<image xlink:href="../../images/foreignKeys.png" width="11px" height="12px" preserveAspectRatio="xMinYMin meet" x="445" y="-214"/>
<text text-anchor="start" x="460" y="-205.2" font-family="Helvetica,sans-Serif" font-size="11.00" fill="#000000">sign_interpretation_id</text>
<polygon fill="none" stroke="#000000" points="700,-197 700,-219 810,-219 810,-197 700,-197"/>
<text text-anchor="start" x="703" y="-205.2" font-family="Helvetica,sans-Serif" font-size="11.00" fill="#000000">int unsigned[10]</text>
<polygon fill="#ffffff" stroke="transparent" points="440,-175 440,-197 700,-197 700,-175 440,-175"/>
<polygon fill="none" stroke="#000000" points="440,-175 440,-197 700,-197 700,-175 440,-175"/>
<image xlink:href="../../images/foreignKeys.png" width="11px" height="12px" preserveAspectRatio="xMinYMin meet" x="445" y="-192"/>
<text text-anchor="start" x="460" y="-183.2" font-family="Helvetica,sans-Serif" font-size="11.00" fill="#000000">attribute_id</text>
<polygon fill="none" stroke="#000000" points="700,-175 700,-197 810,-197 810,-175 700,-175"/>
<text text-anchor="start" x="703" y="-183.2" font-family="Helvetica,sans-Serif" font-size="11.00" fill="#000000">int unsigned[10]</text>
<polygon fill="none" stroke="#000000" points="440,-153 440,-175 700,-175 700,-153 440,-153"/>
<text text-anchor="start" x="460" y="-161.2" font-family="Helvetica,sans-Serif" font-size="11.00" fill="#000000">commentary</text>
<polygon fill="none" stroke="#000000" points="700,-153 700,-175 810,-175 810,-153 700,-153"/>
<text text-anchor="start" x="703" y="-161.2" font-family="Helvetica,sans-Serif" font-size="11.00" fill="#000000">longtext[2147483647]</text>
<polygon fill="#ffffff" stroke="transparent" points="440,-131 440,-153 700,-153 700,-131 440,-131"/>
<polygon fill="none" stroke="#000000" points="440,-131 440,-153 700,-153 700,-131 440,-131"/>
<image xlink:href="../../images/foreignKeys.png" width="11px" height="12px" preserveAspectRatio="xMinYMin meet" x="445" y="-148"/>
<text text-anchor="start" x="460" y="-139.2" font-family="Helvetica,sans-Serif" font-size="11.00" fill="#000000">creator_id</text>
<polygon fill="none" stroke="#000000" points="700,-131 700,-153 810,-153 810,-131 700,-131"/>
<text text-anchor="start" x="703" y="-139.2" font-family="Helvetica,sans-Serif" font-size="11.00" fill="#000000">int unsigned[10]</text>
<polygon fill="#ffffff" stroke="transparent" points="440,-113 440,-131 561,-131 561,-113 440,-113"/>
<polygon fill="none" stroke="#000000" points="440,-113 440,-131 561,-131 561,-113 440,-113"/>
<text text-anchor="start" x="443" y="-119.2" font-family="Helvetica,sans-Serif" font-size="11.00" fill="#000000">&lt; 3</text>
<polygon fill="#ffffff" stroke="transparent" points="561,-113 561,-131 700,-131 700,-113 561,-113"/>
<polygon fill="none" stroke="#000000" points="561,-113 561,-131 700,-131 700,-113 561,-113"/>
<text text-anchor="start" x="664" y="-119.2" font-family="Helvetica,sans-Serif" font-size="11.00" fill="#000000">0 rows</text>
<polygon fill="#ffffff" stroke="transparent" points="700,-113 700,-131 810,-131 810,-113 700,-113"/>
<polygon fill="none" stroke="#000000" points="700,-113 700,-131 810,-131 810,-113 700,-113"/>
<text text-anchor="start" x="791" y="-119.2" font-family="Helvetica,sans-Serif" font-size="11.00" fill="#000000">1 &gt;</text>
<polygon fill="none" stroke="#000000" stroke-width="2" points="439,-112 439,-264 811,-264 811,-112 439,-112"/>
</a>
</g>
</g>
<!-- sign_interpretation_commentary&#45;&gt;attribute -->
<g id="edge2" class="edge">
<title>sign_interpretation_commentary:w&#45;&gt;attribute:e</title>
<path fill="none" stroke="#000000" d="M425.501,-186C398.7645,-186 387.1563,-186 354.5,-186"/>
<polygon fill="#000000" stroke="#000000" points="432,-186.0001 440,-189.6 436,-186 440,-186 440,-186 440,-186 436,-186 440,-182.4 432,-186.0001 432,-186.0001"/>
<ellipse fill="none" stroke="#000000" cx="428.8" cy="-186.0001" rx="3.2" ry="3.2"/>
</g>
<!-- sign_interpretation_commentary&#45;&gt;user -->
<g id="edge3" class="edge">
<title>sign_interpretation_commentary:w&#45;&gt;user:e</title>
<path fill="none" stroke="#000000" d="M426.1843,-137.5556C413.0741,-126.0922 420.0638,-95.6118 397,-84 323.5603,-47.0255 291.6903,-63.7529 212,-84 192.1465,-89.0442 191.9843,-106 171.5,-106"/>
<polygon fill="#000000" stroke="#000000" points="432.3844,-139.5501 438.8975,-145.427 436.1922,-140.775 440,-142 440,-142 440,-142 436.1922,-140.775 441.1025,-138.573 432.3844,-139.5501 432.3844,-139.5501"/>
<ellipse fill="none" stroke="#000000" cx="429.3381" cy="-138.5701" rx="3.2" ry="3.2"/>
</g>
<!-- sign_interpretation -->
<g id="node4" class="node">
<title>sign_interpretation</title>
<g id="a_node4"><a xlink:href="../../tables/sign_interpretation.html" xlink:title="sign_interpretation" target="_top">
<polygon fill="#ffffff" stroke="transparent" points="220,-240 220,-368 389,-368 389,-240 220,-240"/>
<polygon fill="#f5f5f5" stroke="transparent" points="220.5,-346 220.5,-368 389.5,-368 389.5,-346 220.5,-346"/>
<polygon fill="none" stroke="#000000" points="220.5,-346 220.5,-368 389.5,-368 389.5,-346 220.5,-346"/>
<text text-anchor="start" x="225.5" y="-355.2" font-family="Helvetica,sans-Serif" font-weight="bold" font-size="11.00" fill="#000000">sign_interpretation</text>
<text text-anchor="start" x="354.5" y="-354.2" font-family="Helvetica,sans-Serif" font-size="11.00" fill="#000000">[table]</text>
<polygon fill="none" stroke="#000000" points="220.5,-324 220.5,-346 389.5,-346 389.5,-324 220.5,-324"/>
<image xlink:href="../../images/primaryKeys.png" width="11px" height="12px" preserveAspectRatio="xMinYMin meet" x="225.5" y="-341"/>
<text text-anchor="start" x="240.5" y="-332.2" font-family="Helvetica,sans-Serif" font-size="11.00" fill="#000000">sign_interpretation_id</text>
<polygon fill="#ffffff" stroke="transparent" points="220.5,-302 220.5,-324 389.5,-324 389.5,-302 220.5,-302"/>
<polygon fill="none" stroke="#000000" points="220.5,-302 220.5,-324 389.5,-324 389.5,-302 220.5,-302"/>
<image xlink:href="../../images/foreignKeys.png" width="11px" height="12px" preserveAspectRatio="xMinYMin meet" x="225.5" y="-319"/>
<text text-anchor="start" x="240.5" y="-310.2" font-family="Helvetica,sans-Serif" font-size="11.00" fill="#000000">sign_id</text>
<polygon fill="#ffffff" stroke="transparent" points="220.5,-280 220.5,-302 389.5,-302 389.5,-280 220.5,-280"/>
<polygon fill="none" stroke="#000000" points="220.5,-280 220.5,-302 389.5,-302 389.5,-280 220.5,-280"/>
<text text-anchor="start" x="240.5" y="-288.2" font-family="Helvetica,sans-Serif" font-size="11.00" fill="#000000">is_variant</text>
<polygon fill="#ffffff" stroke="transparent" points="220.5,-258 220.5,-280 389.5,-280 389.5,-258 220.5,-258"/>
<polygon fill="none" stroke="#000000" points="220.5,-258 220.5,-280 389.5,-280 389.5,-258 220.5,-258"/>
<text text-anchor="start" x="240.5" y="-266.2" font-family="Helvetica,sans-Serif" font-size="11.00" fill="#000000">character</text>
<polygon fill="#ffffff" stroke="transparent" points="220.5,-240 220.5,-258 264.5,-258 264.5,-240 220.5,-240"/>
<polygon fill="none" stroke="#000000" points="220.5,-240 220.5,-258 264.5,-258 264.5,-240 220.5,-240"/>
<text text-anchor="start" x="223.5" y="-246.2" font-family="Helvetica,sans-Serif" font-size="11.00" fill="#000000">&lt; 1</text>
<polygon fill="#ffffff" stroke="transparent" points="264.5,-240 264.5,-258 356.5,-258 356.5,-240 264.5,-240"/>
<polygon fill="none" stroke="#000000" points="264.5,-240 264.5,-258 356.5,-258 356.5,-240 264.5,-240"/>
<text text-anchor="start" x="278.5" y="-246.2" font-family="Helvetica,sans-Serif" font-size="11.00" fill="#000000">1,586,942 rows</text>
<polygon fill="#ffffff" stroke="transparent" points="356.5,-240 356.5,-258 389.5,-258 389.5,-240 356.5,-240"/>
<polygon fill="none" stroke="#000000" points="356.5,-240 356.5,-258 389.5,-258 389.5,-240 356.5,-240"/>
<text text-anchor="start" x="370.5" y="-246.2" font-family="Helvetica,sans-Serif" font-size="11.00" fill="#000000">5 &gt;</text>
</a>
</g>
</g>
<!-- sign_interpretation_commentary&#45;&gt;sign_interpretation -->
<g id="edge4" class="edge">
<title>sign_interpretation_commentary:w&#45;&gt;sign_interpretation:e</title>
<path fill="none" stroke="#000000" d="M425.7276,-211.3969C391.8651,-231.5935 444.3112,-335 389.5,-335"/>
<polygon fill="#000000" stroke="#000000" points="432.2174,-209.8524 440.8336,-211.5022 436.1087,-208.9262 440,-208 440,-208 440,-208 436.1087,-208.9262 439.1664,-204.4978 432.2174,-209.8524 432.2174,-209.8524"/>
<ellipse fill="none" stroke="#000000" cx="429.1044" cy="-210.5933" rx="3.2" ry="3.2"/>
</g>
<!-- sign_interpretation_commentary_owner -->
<g id="node5" class="node">
<title>sign_interpretation_commentary_owner</title>
<g id="a_node5"><a xlink:href="../../tables/sign_interpretation_commentary_owner.html" xlink:title="sign_interpretation_commentary_owner" target="_top">
<polygon fill="#ffffff" stroke="transparent" points="861,-157 861,-263 1150,-263 1150,-157 861,-157"/>
<polygon fill="#f5f5f5" stroke="transparent" points="861.5,-241 861.5,-263 1150.5,-263 1150.5,-241 861.5,-241"/>
<polygon fill="none" stroke="#000000" points="861.5,-241 861.5,-263 1150.5,-263 1150.5,-241 861.5,-241"/>
<text text-anchor="start" x="866.5" y="-250.2" font-family="Helvetica,sans-Serif" font-weight="bold" font-size="11.00" fill="#000000">sign_interpretation_commentary_owner</text>
<text text-anchor="start" x="1115.5" y="-249.2" font-family="Helvetica,sans-Serif" font-size="11.00" fill="#000000">[table]</text>
<polygon fill="none" stroke="#000000" points="861.5,-219 861.5,-241 1150.5,-241 1150.5,-219 861.5,-219"/>
<image xlink:href="../../images/primaryKeys.png" width="11px" height="12px" preserveAspectRatio="xMinYMin meet" x="866.5" y="-236"/>
<text text-anchor="start" x="881.5" y="-227.2" font-family="Helvetica,sans-Serif" font-size="11.00" fill="#000000">sign_interpretation_commentary_id</text>
<polygon fill="#ffffff" stroke="transparent" points="861.5,-197 861.5,-219 1150.5,-219 1150.5,-197 861.5,-197"/>
<polygon fill="none" stroke="#000000" points="861.5,-197 861.5,-219 1150.5,-219 1150.5,-197 861.5,-197"/>
<image xlink:href="../../images/foreignKeys.png" width="11px" height="12px" preserveAspectRatio="xMinYMin meet" x="866.5" y="-214"/>
<text text-anchor="start" x="881.5" y="-205.2" font-family="Helvetica,sans-Serif" font-size="11.00" fill="#000000">edition_editor_id</text>
<polygon fill="none" stroke="#000000" points="861.5,-175 861.5,-197 1150.5,-197 1150.5,-175 861.5,-175"/>
<image xlink:href="../../images/primaryKeys.png" width="11px" height="12px" preserveAspectRatio="xMinYMin meet" x="866.5" y="-192"/>
<text text-anchor="start" x="881.5" y="-183.2" font-family="Helvetica,sans-Serif" font-size="11.00" fill="#000000">edition_id</text>
<polygon fill="#ffffff" stroke="transparent" points="861.5,-157 861.5,-175 990.5,-175 990.5,-157 861.5,-157"/>
<polygon fill="none" stroke="#000000" points="861.5,-157 861.5,-175 990.5,-175 990.5,-157 861.5,-157"/>
<text text-anchor="start" x="864.5" y="-163.2" font-family="Helvetica,sans-Serif" font-size="11.00" fill="#000000">&lt; 3</text>
<polygon fill="#ffffff" stroke="transparent" points="990.5,-157 990.5,-175 1083.5,-175 1083.5,-157 990.5,-157"/>
<polygon fill="none" stroke="#000000" points="990.5,-157 990.5,-175 1083.5,-175 1083.5,-157 990.5,-157"/>
<text text-anchor="start" x="1047.5" y="-163.2" font-family="Helvetica,sans-Serif" font-size="11.00" fill="#000000">0 rows</text>
<polygon fill="#ffffff" stroke="transparent" points="1083.5,-157 1083.5,-175 1150.5,-175 1150.5,-157 1083.5,-157"/>
<polygon fill="none" stroke="#000000" points="1083.5,-157 1083.5,-175 1150.5,-175 1150.5,-157 1083.5,-157"/>
<text text-anchor="start" x="1140.5" y="-163.2" font-family="Helvetica,sans-Serif" font-size="11.00" fill="#000000"> &#160;</text>
</a>
</g>
</g>
<!-- sign_interpretation_commentary_owner&#45;&gt;sign_interpretation_commentary -->
<g id="edge5" class="edge">
<title>sign_interpretation_commentary_owner:w&#45;&gt;sign_interpretation_commentary:e</title>
<path fill="none" stroke="#000000" d="M847.0156,-230C834.6771,-230 827.1667,-230 810,-230"/>
<polygon fill="#000000" stroke="#000000" points="853.5,-230.0001 861.5,-233.6 857.5,-230 861.5,-230 861.5,-230 861.5,-230 857.5,-230 861.5,-226.4 853.5,-230.0001 853.5,-230.0001"/>
<ellipse fill="none" stroke="#000000" cx="850.3" cy="-230.0001" rx="3.2" ry="3.2"/>
</g>
</g>
</svg>
