<?xml version="1.0" encoding="UTF-8" standalone="no"?>
<!DOCTYPE svg PUBLIC "-//W3C//DTD SVG 1.1//EN"
 "http://www.w3.org/Graphics/SVG/1.1/DTD/svg11.dtd">
<!-- Generated by graphviz version 2.40.1 (20161225.0304)
 -->
<!-- Title: oneDegreeRelationshipsDiagram Pages: 1 -->
<svg width="764pt" height="726pt"
 viewBox="0.00 0.00 764.00 726.00" xmlns="http://www.w3.org/2000/svg" xmlns:xlink="http://www.w3.org/1999/xlink">
<g id="graph0" class="graph" transform="scale(1 1) rotate(0) translate(4 722)">
<title>oneDegreeRelationshipsDiagram</title>
<polygon fill="#ffffff" stroke="transparent" points="-4,4 -4,-722 760,-722 760,4 -4,4"/>
<text text-anchor="middle" x="71.5" y="-7.2" font-family="Helvetica,sans-Serif" font-size="11.00" fill="#000000">Generated by SchemaSpy</text>
<!-- position_in_stream -->
<g id="node1" class="node">
<title>position_in_stream</title>
<g id="a_node1"><a xlink:href="../../tables/position_in_stream.html" xlink:title="position_in_stream" target="_top">
<polygon fill="#ffffff" stroke="transparent" points="515.5,-586 515.5,-714 720.5,-714 720.5,-586 515.5,-586"/>
<polygon fill="#f5f5f5" stroke="transparent" points="516,-692 516,-714 721,-714 721,-692 516,-692"/>
<polygon fill="none" stroke="#000000" points="516,-692 516,-714 721,-714 721,-692 516,-692"/>
<text text-anchor="start" x="521" y="-701.2" font-family="Helvetica,sans-Serif" font-weight="bold" font-size="11.00" fill="#000000">position_in_stream</text>
<text text-anchor="start" x="686" y="-700.2" font-family="Helvetica,sans-Serif" font-size="11.00" fill="#000000">[table]</text>
<polygon fill="none" stroke="#000000" points="516,-670 516,-692 721,-692 721,-670 516,-670"/>
<image xlink:href="../../images/primaryKeys.png" width="11px" height="12px" preserveAspectRatio="xMinYMin meet" x="521" y="-687"/>
<text text-anchor="start" x="536" y="-678.2" font-family="Helvetica,sans-Serif" font-size="11.00" fill="#000000">position_in_stream_id</text>
<polygon fill="#ffffff" stroke="transparent" points="516,-648 516,-670 721,-670 721,-648 516,-648"/>
<polygon fill="none" stroke="#000000" points="516,-648 516,-670 721,-670 721,-648 516,-648"/>
<image xlink:href="../../images/foreignKeys.png" width="11px" height="12px" preserveAspectRatio="xMinYMin meet" x="521" y="-665"/>
<text text-anchor="start" x="536" y="-656.2" font-family="Helvetica,sans-Serif" font-size="11.00" fill="#000000">sign_interpretation_id</text>
<polygon fill="#ffffff" stroke="transparent" points="516,-626 516,-648 721,-648 721,-626 516,-626"/>
<polygon fill="none" stroke="#000000" points="516,-626 516,-648 721,-648 721,-626 516,-626"/>
<image xlink:href="../../images/foreignKeys.png" width="11px" height="12px" preserveAspectRatio="xMinYMin meet" x="521" y="-643"/>
<text text-anchor="start" x="536" y="-634.2" font-family="Helvetica,sans-Serif" font-size="11.00" fill="#000000">next_sign_interpretation_id</text>
<polygon fill="#ffffff" stroke="transparent" points="516,-604 516,-626 721,-626 721,-604 516,-604"/>
<polygon fill="none" stroke="#000000" points="516,-604 516,-626 721,-626 721,-604 516,-604"/>
<image xlink:href="../../images/foreignKeys.png" width="11px" height="12px" preserveAspectRatio="xMinYMin meet" x="521" y="-621"/>
<text text-anchor="start" x="536" y="-612.2" font-family="Helvetica,sans-Serif" font-size="11.00" fill="#000000">creator_id</text>
<polygon fill="#ffffff" stroke="transparent" points="516,-586 516,-604 578,-604 578,-586 516,-586"/>
<polygon fill="none" stroke="#000000" points="516,-586 516,-604 578,-604 578,-586 516,-586"/>
<text text-anchor="start" x="519" y="-592.2" font-family="Helvetica,sans-Serif" font-size="11.00" fill="#000000">&lt; 3</text>
<polygon fill="#ffffff" stroke="transparent" points="578,-586 578,-604 679,-604 679,-586 578,-586"/>
<polygon fill="none" stroke="#000000" points="578,-586 578,-604 679,-604 679,-586 578,-586"/>
<text text-anchor="start" x="601" y="-592.2" font-family="Helvetica,sans-Serif" font-size="11.00" fill="#000000">1,719,529 rows</text>
<polygon fill="#ffffff" stroke="transparent" points="679,-586 679,-604 721,-604 721,-586 679,-586"/>
<polygon fill="none" stroke="#000000" points="679,-586 679,-604 721,-604 721,-586 679,-586"/>
<text text-anchor="start" x="702" y="-592.2" font-family="Helvetica,sans-Serif" font-size="11.00" fill="#000000">2 &gt;</text>
</a>
</g>
</g>
<!-- sign_interpretation -->
<g id="node2" class="node">
<title>sign_interpretation</title>
<g id="a_node2"><a xlink:href="../../tables/sign_interpretation.html" xlink:title="sign_interpretation" target="_top">
<polygon fill="#ffffff" stroke="transparent" points="173,-413 173,-545 439,-545 439,-413 173,-413"/>
<polygon fill="#f5f5f5" stroke="transparent" points="175,-521 175,-543 437,-543 437,-521 175,-521"/>
<polygon fill="none" stroke="#000000" points="175,-521 175,-543 437,-543 437,-521 175,-521"/>
<text text-anchor="start" x="180" y="-530.2" font-family="Helvetica,sans-Serif" font-weight="bold" font-size="11.00" fill="#000000">sign_interpretation</text>
<text text-anchor="start" x="402" y="-529.2" font-family="Helvetica,sans-Serif" font-size="11.00" fill="#000000">[table]</text>
<polygon fill="none" stroke="#000000" points="175,-499 175,-521 344,-521 344,-499 175,-499"/>
<image xlink:href="../../images/primaryKeys.png" width="11px" height="12px" preserveAspectRatio="xMinYMin meet" x="180" y="-516"/>
<text text-anchor="start" x="195" y="-507.2" font-family="Helvetica,sans-Serif" font-size="11.00" fill="#000000">sign_interpretation_id</text>
<polygon fill="none" stroke="#000000" points="344,-499 344,-521 437,-521 437,-499 344,-499"/>
<text text-anchor="start" x="347" y="-507.2" font-family="Helvetica,sans-Serif" font-size="11.00" fill="#000000">int unsigned[10]</text>
<polygon fill="#ffffff" stroke="transparent" points="175,-477 175,-499 344,-499 344,-477 175,-477"/>
<polygon fill="none" stroke="#000000" points="175,-477 175,-499 344,-499 344,-477 175,-477"/>
<image xlink:href="../../images/foreignKeys.png" width="11px" height="12px" preserveAspectRatio="xMinYMin meet" x="180" y="-494"/>
<text text-anchor="start" x="195" y="-485.2" font-family="Helvetica,sans-Serif" font-size="11.00" fill="#000000">sign_id</text>
<polygon fill="none" stroke="#000000" points="344,-477 344,-499 437,-499 437,-477 344,-477"/>
<text text-anchor="start" x="347" y="-485.2" font-family="Helvetica,sans-Serif" font-size="11.00" fill="#000000">int unsigned[10]</text>
<polygon fill="#ffffff" stroke="transparent" points="175,-455 175,-477 344,-477 344,-455 175,-455"/>
<polygon fill="none" stroke="#000000" points="175,-455 175,-477 344,-477 344,-455 175,-455"/>
<text text-anchor="start" x="195" y="-463.2" font-family="Helvetica,sans-Serif" font-size="11.00" fill="#000000">is_variant</text>
<polygon fill="none" stroke="#000000" points="344,-455 344,-477 437,-477 437,-455 344,-455"/>
<text text-anchor="start" x="347" y="-463.2" font-family="Helvetica,sans-Serif" font-size="11.00" fill="#000000">tinyint unsigned[3]</text>
<polygon fill="#ffffff" stroke="transparent" points="175,-433 175,-455 344,-455 344,-433 175,-433"/>
<polygon fill="none" stroke="#000000" points="175,-433 175,-455 344,-455 344,-433 175,-433"/>
<text text-anchor="start" x="195" y="-441.2" font-family="Helvetica,sans-Serif" font-size="11.00" fill="#000000">character</text>
<polygon fill="none" stroke="#000000" points="344,-433 344,-455 437,-455 437,-433 344,-433"/>
<text text-anchor="start" x="347" y="-441.2" font-family="Helvetica,sans-Serif" font-size="11.00" fill="#000000">char[1]</text>
<polygon fill="#ffffff" stroke="transparent" points="175,-415 175,-433 230,-433 230,-415 175,-415"/>
<polygon fill="none" stroke="#000000" points="175,-415 175,-433 230,-433 230,-415 175,-415"/>
<text text-anchor="start" x="178" y="-421.2" font-family="Helvetica,sans-Serif" font-size="11.00" fill="#000000">&lt; 1</text>
<polygon fill="#ffffff" stroke="transparent" points="230,-415 230,-433 344,-433 344,-415 230,-415"/>
<polygon fill="none" stroke="#000000" points="230,-415 230,-433 344,-433 344,-415 230,-415"/>
<text text-anchor="start" x="266" y="-421.2" font-family="Helvetica,sans-Serif" font-size="11.00" fill="#000000">1,586,942 rows</text>
<polygon fill="#ffffff" stroke="transparent" points="344,-415 344,-433 437,-433 437,-415 344,-415"/>
<polygon fill="none" stroke="#000000" points="344,-415 344,-433 437,-433 437,-415 344,-415"/>
<text text-anchor="start" x="418" y="-421.2" font-family="Helvetica,sans-Serif" font-size="11.00" fill="#000000">5 &gt;</text>
<polygon fill="none" stroke="#000000" stroke-width="2" points="174,-414 174,-544 438,-544 438,-414 174,-414"/>
</a>
</g>
</g>
<!-- position_in_stream&#45;&gt;sign_interpretation -->
<g id="edge1" class="edge">
<title>position_in_stream:w&#45;&gt;sign_interpretation:e</title>
<path fill="none" stroke="#000000" d="M501.6572,-634.4631C457.7383,-616.5637 497.891,-510 437,-510"/>
<polygon fill="#000000" stroke="#000000" points="508.1223,-635.6066 515.373,-640.545 512.0611,-636.3033 516,-637 516,-637 516,-637 512.0611,-636.3033 516.627,-633.455 508.1223,-635.6066 508.1223,-635.6066"/>
<ellipse fill="none" stroke="#000000" cx="504.9712" cy="-635.0492" rx="3.2" ry="3.2"/>
</g>
<!-- position_in_stream&#45;&gt;sign_interpretation -->
<g id="edge2" class="edge">
<title>position_in_stream:w&#45;&gt;sign_interpretation:e</title>
<path fill="none" stroke="#000000" d="M501.6021,-656.6596C450.7676,-637.7036 506.3914,-510 437,-510"/>
<polygon fill="#000000" stroke="#000000" points="508.1036,-657.7164 515.4224,-662.5534 512.0518,-658.3582 516,-659 516,-659 516,-659 512.0518,-658.3582 516.5776,-655.4466 508.1036,-657.7164 508.1036,-657.7164"/>
<ellipse fill="none" stroke="#000000" cx="504.9451" cy="-657.2029" rx="3.2" ry="3.2"/>
</g>
<!-- sign -->
<g id="node3" class="node">
<title>sign</title>
<g id="a_node3"><a xlink:href="../../tables/sign.html" xlink:title="sign" target="_top">
<polygon fill="#ffffff" stroke="transparent" points="8,-459 8,-521 124,-521 124,-459 8,-459"/>
<polygon fill="#f5f5f5" stroke="transparent" points="8,-499 8,-521 124,-521 124,-499 8,-499"/>
<polygon fill="none" stroke="#000000" points="8,-499 8,-521 124,-521 124,-499 8,-499"/>
<text text-anchor="start" x="13" y="-508.2" font-family="Helvetica,sans-Serif" font-weight="bold" font-size="11.00" fill="#000000">sign</text>
<text text-anchor="start" x="89" y="-507.2" font-family="Helvetica,sans-Serif" font-size="11.00" fill="#000000">[table]</text>
<polygon fill="none" stroke="#000000" points="8,-477 8,-499 124,-499 124,-477 8,-477"/>
<image xlink:href="../../images/primaryKeys.png" width="11px" height="12px" preserveAspectRatio="xMinYMin meet" x="13" y="-494"/>
<text text-anchor="start" x="52" y="-485.2" font-family="Helvetica,sans-Serif" font-size="11.00" fill="#000000">sign_id</text>
<polygon fill="#ffffff" stroke="transparent" points="8,-459 8,-477 21,-477 21,-459 8,-459"/>
<polygon fill="none" stroke="#000000" points="8,-459 8,-477 21,-477 21,-459 8,-459"/>
<text text-anchor="start" x="11" y="-465.2" font-family="Helvetica,sans-Serif" font-size="11.00" fill="#000000"> &#160;</text>
<polygon fill="#ffffff" stroke="transparent" points="21,-459 21,-477 102,-477 102,-459 21,-459"/>
<polygon fill="none" stroke="#000000" points="21,-459 21,-477 102,-477 102,-459 21,-459"/>
<text text-anchor="start" x="24" y="-465.2" font-family="Helvetica,sans-Serif" font-size="11.00" fill="#000000">1,732,050 rows</text>
<polygon fill="#ffffff" stroke="transparent" points="102,-459 102,-477 124,-477 124,-459 102,-459"/>
<polygon fill="none" stroke="#000000" points="102,-459 102,-477 124,-477 124,-459 102,-459"/>
<text text-anchor="start" x="105" y="-465.2" font-family="Helvetica,sans-Serif" font-size="11.00" fill="#000000">2 &gt;</text>
</a>
</g>
</g>
<!-- sign_interpretation&#45;&gt;sign -->
<g id="edge3" class="edge">
<title>sign_interpretation:w&#45;&gt;sign:e</title>
<path fill="none" stroke="#000000" d="M160.276,-488C148.2815,-488 140.8229,-488 124,-488"/>
<polygon fill="#000000" stroke="#000000" points="167,-488.0001 175,-491.6 171,-488 175,-488 175,-488 175,-488 171,-488 175,-484.4 167,-488.0001 167,-488.0001"/>
<ellipse fill="none" stroke="#000000" cx="163.8" cy="-488.0001" rx="3.2" ry="3.2"/>
</g>
<!-- sign_interpretation_attribute -->
<g id="node4" class="node">
<title>sign_interpretation_attribute</title>
<g id="a_node4"><a xlink:href="../../tables/sign_interpretation_attribute.html" xlink:title="sign_interpretation_attribute" target="_top">
<polygon fill="#ffffff" stroke="transparent" points="500,-393 500,-565 736,-565 736,-393 500,-393"/>
<polygon fill="#f5f5f5" stroke="transparent" points="500,-543 500,-565 736,-565 736,-543 500,-543"/>
<polygon fill="none" stroke="#000000" points="500,-543 500,-565 736,-565 736,-543 500,-543"/>
<text text-anchor="start" x="505" y="-552.2" font-family="Helvetica,sans-Serif" font-weight="bold" font-size="11.00" fill="#000000">sign_interpretation_attribute</text>
<text text-anchor="start" x="701" y="-551.2" font-family="Helvetica,sans-Serif" font-size="11.00" fill="#000000">[table]</text>
<polygon fill="none" stroke="#000000" points="500,-521 500,-543 736,-543 736,-521 500,-521"/>
<image xlink:href="../../images/primaryKeys.png" width="11px" height="12px" preserveAspectRatio="xMinYMin meet" x="505" y="-538"/>
<text text-anchor="start" x="520" y="-529.2" font-family="Helvetica,sans-Serif" font-size="11.00" fill="#000000">sign_interpretation_attribute_id</text>
<polygon fill="#ffffff" stroke="transparent" points="500,-499 500,-521 736,-521 736,-499 500,-499"/>
<polygon fill="none" stroke="#000000" points="500,-499 500,-521 736,-521 736,-499 500,-499"/>
<image xlink:href="../../images/foreignKeys.png" width="11px" height="12px" preserveAspectRatio="xMinYMin meet" x="505" y="-516"/>
<text text-anchor="start" x="520" y="-507.2" font-family="Helvetica,sans-Serif" font-size="11.00" fill="#000000">sign_interpretation_id</text>
<polygon fill="#ffffff" stroke="transparent" points="500,-477 500,-499 736,-499 736,-477 500,-477"/>
<polygon fill="none" stroke="#000000" points="500,-477 500,-499 736,-499 736,-477 500,-477"/>
<image xlink:href="../../images/foreignKeys.png" width="11px" height="12px" preserveAspectRatio="xMinYMin meet" x="505" y="-494"/>
<text text-anchor="start" x="520" y="-485.2" font-family="Helvetica,sans-Serif" font-size="11.00" fill="#000000">attribute_value_id</text>
<polygon fill="#ffffff" stroke="transparent" points="500,-455 500,-477 736,-477 736,-455 500,-455"/>
<polygon fill="none" stroke="#000000" points="500,-455 500,-477 736,-477 736,-455 500,-455"/>
<text text-anchor="start" x="520" y="-463.2" font-family="Helvetica,sans-Serif" font-size="11.00" fill="#000000">sequence</text>
<polygon fill="#ffffff" stroke="transparent" points="500,-433 500,-455 736,-455 736,-433 500,-433"/>
<polygon fill="none" stroke="#000000" points="500,-433 500,-455 736,-455 736,-433 500,-433"/>
<text text-anchor="start" x="520" y="-441.2" font-family="Helvetica,sans-Serif" font-size="11.00" fill="#000000">numeric_value</text>
<polygon fill="#ffffff" stroke="transparent" points="500,-411 500,-433 736,-433 736,-411 500,-411"/>
<polygon fill="none" stroke="#000000" points="500,-411 500,-433 736,-433 736,-411 500,-411"/>
<image xlink:href="../../images/foreignKeys.png" width="11px" height="12px" preserveAspectRatio="xMinYMin meet" x="505" y="-428"/>
<text text-anchor="start" x="520" y="-419.2" font-family="Helvetica,sans-Serif" font-size="11.00" fill="#000000">creator_id</text>
<polygon fill="#ffffff" stroke="transparent" points="500,-393 500,-411 577,-411 577,-393 500,-393"/>
<polygon fill="none" stroke="#000000" points="500,-393 500,-411 577,-411 577,-393 500,-393"/>
<text text-anchor="start" x="503" y="-399.2" font-family="Helvetica,sans-Serif" font-size="11.00" fill="#000000">&lt; 3</text>
<polygon fill="#ffffff" stroke="transparent" points="577,-393 577,-411 686,-411 686,-393 577,-393"/>
<polygon fill="none" stroke="#000000" points="577,-393 577,-411 686,-411 686,-393 577,-393"/>
<text text-anchor="start" x="608" y="-399.2" font-family="Helvetica,sans-Serif" font-size="11.00" fill="#000000">2,606,879 rows</text>
<polygon fill="#ffffff" stroke="transparent" points="686,-393 686,-411 736,-411 736,-393 686,-393"/>
<polygon fill="none" stroke="#000000" points="686,-393 686,-411 736,-411 736,-393 686,-393"/>
<text text-anchor="start" x="717" y="-399.2" font-family="Helvetica,sans-Serif" font-size="11.00" fill="#000000">1 &gt;</text>
</a>
</g>
</g>
<!-- sign_interpretation_attribute&#45;&gt;sign_interpretation -->
<g id="edge4" class="edge">
<title>sign_interpretation_attribute:w&#45;&gt;sign_interpretation:e</title>
<path fill="none" stroke="#000000" d="M485.1849,-510C468.2898,-510 459.3125,-510 437,-510"/>
<polygon fill="#000000" stroke="#000000" points="492,-510.0001 500,-513.6 496,-510 500,-510 500,-510 500,-510 496,-510 500,-506.4 492,-510.0001 492,-510.0001"/>
<ellipse fill="none" stroke="#000000" cx="488.8" cy="-510.0001" rx="3.2" ry="3.2"/>
</g>
<!-- sign_interpretation_commentary -->
<g id="node5" class="node">
<title>sign_interpretation_commentary</title>
<g id="a_node5"><a xlink:href="../../tables/sign_interpretation_commentary.html" xlink:title="sign_interpretation_commentary" target="_top">
<polygon fill="#ffffff" stroke="transparent" points="488,-226 488,-372 748,-372 748,-226 488,-226"/>
<polygon fill="#f5f5f5" stroke="transparent" points="488,-350 488,-372 748,-372 748,-350 488,-350"/>
<polygon fill="none" stroke="#000000" points="488,-350 488,-372 748,-372 748,-350 488,-350"/>
<text text-anchor="start" x="493" y="-359.2" font-family="Helvetica,sans-Serif" font-weight="bold" font-size="11.00" fill="#000000">sign_interpretation_commentary</text>
<text text-anchor="start" x="713" y="-358.2" font-family="Helvetica,sans-Serif" font-size="11.00" fill="#000000">[table]</text>
<polygon fill="none" stroke="#000000" points="488,-328 488,-350 748,-350 748,-328 488,-328"/>
<image xlink:href="../../images/primaryKeys.png" width="11px" height="12px" preserveAspectRatio="xMinYMin meet" x="493" y="-345"/>
<text text-anchor="start" x="508" y="-336.2" font-family="Helvetica,sans-Serif" font-size="11.00" fill="#000000">sign_interpretation_commentary_id</text>
<polygon fill="#ffffff" stroke="transparent" points="488,-306 488,-328 748,-328 748,-306 488,-306"/>
<polygon fill="none" stroke="#000000" points="488,-306 488,-328 748,-328 748,-306 488,-306"/>
<image xlink:href="../../images/foreignKeys.png" width="11px" height="12px" preserveAspectRatio="xMinYMin meet" x="493" y="-323"/>
<text text-anchor="start" x="508" y="-314.2" font-family="Helvetica,sans-Serif" font-size="11.00" fill="#000000">sign_interpretation_id</text>
<polygon fill="#ffffff" stroke="transparent" points="488,-284 488,-306 748,-306 748,-284 488,-284"/>
<polygon fill="none" stroke="#000000" points="488,-284 488,-306 748,-306 748,-284 488,-284"/>
<image xlink:href="../../images/foreignKeys.png" width="11px" height="12px" preserveAspectRatio="xMinYMin meet" x="493" y="-301"/>
<text text-anchor="start" x="508" y="-292.2" font-family="Helvetica,sans-Serif" font-size="11.00" fill="#000000">attribute_id</text>
<polygon fill="#ffffff" stroke="transparent" points="488,-262 488,-284 748,-284 748,-262 488,-262"/>
<polygon fill="none" stroke="#000000" points="488,-262 488,-284 748,-284 748,-262 488,-262"/>
<image xlink:href="../../images/foreignKeys.png" width="11px" height="12px" preserveAspectRatio="xMinYMin meet" x="493" y="-279"/>
<text text-anchor="start" x="508" y="-270.2" font-family="Helvetica,sans-Serif" font-size="11.00" fill="#000000">creator_id</text>
<polygon fill="none" stroke="#000000" points="488,-244 488,-262 748,-262 748,-244 488,-244"/>
<text text-anchor="start" x="491" y="-250.2" font-family="Helvetica,sans-Serif" font-size="11.00" fill="#000000">...</text>
<polygon fill="#ffffff" stroke="transparent" points="488,-226 488,-244 598,-244 598,-226 488,-226"/>
<polygon fill="none" stroke="#000000" points="488,-226 488,-244 598,-244 598,-226 488,-226"/>
<text text-anchor="start" x="491" y="-232.2" font-family="Helvetica,sans-Serif" font-size="11.00" fill="#000000">&lt; 3</text>
<polygon fill="#ffffff" stroke="transparent" points="598,-226 598,-244 681,-244 681,-226 598,-226"/>
<polygon fill="none" stroke="#000000" points="598,-226 598,-244 681,-244 681,-226 598,-226"/>
<text text-anchor="start" x="645" y="-232.2" font-family="Helvetica,sans-Serif" font-size="11.00" fill="#000000">0 rows</text>
<polygon fill="#ffffff" stroke="transparent" points="681,-226 681,-244 748,-244 748,-226 681,-226"/>
<polygon fill="none" stroke="#000000" points="681,-226 681,-244 748,-244 748,-226 681,-226"/>
<text text-anchor="start" x="729" y="-232.2" font-family="Helvetica,sans-Serif" font-size="11.00" fill="#000000">1 &gt;</text>
</a>
</g>
</g>
<!-- sign_interpretation_commentary&#45;&gt;sign_interpretation -->
<g id="edge5" class="edge">
<title>sign_interpretation_commentary:w&#45;&gt;sign_interpretation:e</title>
<path fill="none" stroke="#000000" d="M473.4111,-319.3019C414.6835,-341.0771 520.0037,-510 437,-510"/>
<polygon fill="#000000" stroke="#000000" points="480.0978,-318.2469 488.5611,-320.556 484.0489,-317.6235 488,-317 488,-317 488,-317 484.0489,-317.6235 487.4389,-313.444 480.0978,-318.2469 480.0978,-318.2469"/>
<ellipse fill="none" stroke="#000000" cx="476.9369" cy="-318.7457" rx="3.2" ry="3.2"/>
</g>
<!-- sign_interpretation_roi -->
<g id="node6" class="node">
<title>sign_interpretation_roi</title>
<g id="a_node6"><a xlink:href="../../tables/sign_interpretation_roi.html" xlink:title="sign_interpretation_roi" target="_top">
<polygon fill="#ffffff" stroke="transparent" points="521.5,-37 521.5,-205 714.5,-205 714.5,-37 521.5,-37"/>
<polygon fill="#f5f5f5" stroke="transparent" points="522,-183 522,-205 715,-205 715,-183 522,-183"/>
<polygon fill="none" stroke="#000000" points="522,-183 522,-205 715,-205 715,-183 522,-183"/>
<text text-anchor="start" x="527" y="-192.2" font-family="Helvetica,sans-Serif" font-weight="bold" font-size="11.00" fill="#000000">sign_interpretation_roi</text>
<text text-anchor="start" x="680" y="-191.2" font-family="Helvetica,sans-Serif" font-size="11.00" fill="#000000">[table]</text>
<polygon fill="none" stroke="#000000" points="522,-161 522,-183 715,-183 715,-161 522,-161"/>
<image xlink:href="../../images/primaryKeys.png" width="11px" height="12px" preserveAspectRatio="xMinYMin meet" x="527" y="-178"/>
<text text-anchor="start" x="542" y="-169.2" font-family="Helvetica,sans-Serif" font-size="11.00" fill="#000000">sign_interpretation_roi_id</text>
<polygon fill="#ffffff" stroke="transparent" points="522,-139 522,-161 715,-161 715,-139 522,-139"/>
<polygon fill="none" stroke="#000000" points="522,-139 522,-161 715,-161 715,-139 522,-139"/>
<image xlink:href="../../images/foreignKeys.png" width="11px" height="12px" preserveAspectRatio="xMinYMin meet" x="527" y="-156"/>
<text text-anchor="start" x="542" y="-147.2" font-family="Helvetica,sans-Serif" font-size="11.00" fill="#000000">sign_interpretation_id</text>
<polygon fill="#ffffff" stroke="transparent" points="522,-117 522,-139 715,-139 715,-117 522,-117"/>
<polygon fill="none" stroke="#000000" points="522,-117 522,-139 715,-139 715,-117 522,-117"/>
<image xlink:href="../../images/foreignKeys.png" width="11px" height="12px" preserveAspectRatio="xMinYMin meet" x="527" y="-134"/>
<text text-anchor="start" x="542" y="-125.2" font-family="Helvetica,sans-Serif" font-size="11.00" fill="#000000">roi_shape_id</text>
<polygon fill="#ffffff" stroke="transparent" points="522,-95 522,-117 715,-117 715,-95 522,-95"/>
<polygon fill="none" stroke="#000000" points="522,-95 522,-117 715,-117 715,-95 522,-95"/>
<image xlink:href="../../images/foreignKeys.png" width="11px" height="12px" preserveAspectRatio="xMinYMin meet" x="527" y="-112"/>
<text text-anchor="start" x="542" y="-103.2" font-family="Helvetica,sans-Serif" font-size="11.00" fill="#000000">roi_position_id</text>
<polygon fill="#ffffff" stroke="transparent" points="522,-73 522,-95 715,-95 715,-73 522,-73"/>
<polygon fill="none" stroke="#000000" points="522,-73 522,-95 715,-95 715,-73 522,-73"/>
<image xlink:href="../../images/foreignKeys.png" width="11px" height="12px" preserveAspectRatio="xMinYMin meet" x="527" y="-90"/>
<text text-anchor="start" x="542" y="-81.2" font-family="Helvetica,sans-Serif" font-size="11.00" fill="#000000">creator_id</text>
<polygon fill="none" stroke="#000000" points="522,-55 522,-73 715,-73 715,-55 522,-55"/>
<text text-anchor="start" x="525" y="-61.2" font-family="Helvetica,sans-Serif" font-size="11.00" fill="#000000">...</text>
<polygon fill="#ffffff" stroke="transparent" points="522,-37 522,-55 599,-55 599,-37 522,-37"/>
<polygon fill="none" stroke="#000000" points="522,-37 522,-55 599,-55 599,-37 522,-37"/>
<text text-anchor="start" x="525" y="-43.2" font-family="Helvetica,sans-Serif" font-size="11.00" fill="#000000">&lt; 4</text>
<polygon fill="#ffffff" stroke="transparent" points="599,-37 599,-55 665,-55 665,-37 599,-37"/>
<polygon fill="none" stroke="#000000" points="599,-37 599,-55 665,-55 665,-37 599,-37"/>
<text text-anchor="start" x="629" y="-43.2" font-family="Helvetica,sans-Serif" font-size="11.00" fill="#000000">0 rows</text>
<polygon fill="#ffffff" stroke="transparent" points="665,-37 665,-55 715,-55 715,-37 665,-37"/>
<polygon fill="none" stroke="#000000" points="665,-37 665,-55 715,-55 715,-37 665,-37"/>
<text text-anchor="start" x="696" y="-43.2" font-family="Helvetica,sans-Serif" font-size="11.00" fill="#000000">1 &gt;</text>
</a>
</g>
</g>
<!-- sign_interpretation_roi&#45;&gt;sign_interpretation -->
<g id="edge6" class="edge">
<title>sign_interpretation_roi:w&#45;&gt;sign_interpretation:e</title>
<path fill="none" stroke="#000000" d="M507.5676,-152.6657C488.3927,-161.2007 490.082,-188.8847 480,-216 456.9886,-277.8888 503.0284,-510 437,-510"/>
<polygon fill="#000000" stroke="#000000" points="514.1331,-151.4531 522.6539,-153.5401 518.0665,-150.7265 522,-150 522,-150 522,-150 518.0665,-150.7265 521.3461,-146.4599 514.1331,-151.4531 514.1331,-151.4531"/>
<ellipse fill="none" stroke="#000000" cx="510.9863" cy="-152.0343" rx="3.2" ry="3.2"/>
</g>
</g>
</svg>
