<?xml version="1.0" encoding="UTF-8" standalone="no"?>
<!DOCTYPE svg PUBLIC "-//W3C//DTD SVG 1.1//EN"
 "http://www.w3.org/Graphics/SVG/1.1/DTD/svg11.dtd">
<!-- Generated by graphviz version 2.40.1 (20161225.0304)
 -->
<!-- Title: oneDegreeRelationshipsDiagram Pages: 1 -->
<svg width="587pt" height="252pt"
 viewBox="0.00 0.00 587.00 252.00" xmlns="http://www.w3.org/2000/svg" xmlns:xlink="http://www.w3.org/1999/xlink">
<g id="graph0" class="graph" transform="scale(1 1) rotate(0) translate(4 248)">
<title>oneDegreeRelationshipsDiagram</title>
<polygon fill="#ffffff" stroke="transparent" points="-4,4 -4,-248 583,-248 583,4 -4,4"/>
<text text-anchor="middle" x="71.5" y="-7.2" font-family="Helvetica,sans-Serif" font-size="11.00" fill="#000000">Generated by SchemaSpy</text>
<!-- sign_stream_section_to_qwb_word -->
<g id="node1" class="node">
<title>sign_stream_section_to_qwb_word</title>
<g id="a_node1"><a xlink:href="../../tables/sign_stream_section_to_qwb_word.html" xlink:title="sign_stream_section_to_qwb_word" target="_top">
<polygon fill="#ffffff" stroke="transparent" points="233,-103 233,-191 571,-191 571,-103 233,-103"/>
<polygon fill="#f5f5f5" stroke="transparent" points="235,-167 235,-189 569,-189 569,-167 235,-167"/>
<polygon fill="none" stroke="#000000" points="235,-167 235,-189 569,-189 569,-167 235,-167"/>
<text text-anchor="start" x="240" y="-176.2" font-family="Helvetica,sans-Serif" font-weight="bold" font-size="11.00" fill="#000000">sign_stream_section_to_qwb_word</text>
<text text-anchor="start" x="534" y="-175.2" font-family="Helvetica,sans-Serif" font-size="11.00" fill="#000000">[table]</text>
<polygon fill="#ffffff" stroke="transparent" points="235,-145 235,-167 487,-167 487,-145 235,-145"/>
<polygon fill="none" stroke="#000000" points="235,-145 235,-167 487,-167 487,-145 235,-145"/>
<image xlink:href="../../images/foreignKeys.png" width="11px" height="12px" preserveAspectRatio="xMinYMin meet" x="240" y="-162"/>
<text text-anchor="start" x="255" y="-153.2" font-family="Helvetica,sans-Serif" font-size="11.00" fill="#000000">sign_stream_section_id</text>
<polygon fill="none" stroke="#000000" points="487,-145 487,-167 569,-167 569,-145 487,-145"/>
<text text-anchor="start" x="490" y="-153.2" font-family="Helvetica,sans-Serif" font-size="11.00" fill="#000000">int unsigned[10]</text>
<polygon fill="#ffffff" stroke="transparent" points="235,-123 235,-145 487,-145 487,-123 235,-123"/>
<polygon fill="none" stroke="#000000" points="235,-123 235,-145 487,-145 487,-123 235,-123"/>
<image xlink:href="../../images/foreignKeys.png" width="11px" height="12px" preserveAspectRatio="xMinYMin meet" x="240" y="-140"/>
<text text-anchor="start" x="255" y="-131.2" font-family="Helvetica,sans-Serif" font-size="11.00" fill="#000000">qwb_word_id</text>
<polygon fill="none" stroke="#000000" points="487,-123 487,-145 569,-145 569,-123 487,-123"/>
<text text-anchor="start" x="490" y="-131.2" font-family="Helvetica,sans-Serif" font-size="11.00" fill="#000000">int unsigned[10]</text>
<polygon fill="#ffffff" stroke="transparent" points="235,-105 235,-123 336,-123 336,-105 235,-105"/>
<polygon fill="none" stroke="#000000" points="235,-105 235,-123 336,-123 336,-105 235,-105"/>
<text text-anchor="start" x="238" y="-111.2" font-family="Helvetica,sans-Serif" font-size="11.00" fill="#000000">&lt; 2</text>
<polygon fill="#ffffff" stroke="transparent" points="336,-105 336,-123 487,-123 487,-105 336,-105"/>
<polygon fill="none" stroke="#000000" points="336,-105 336,-123 487,-123 487,-105 336,-105"/>
<text text-anchor="start" x="418" y="-111.2" font-family="Helvetica,sans-Serif" font-size="11.00" fill="#000000">328,329 rows</text>
<polygon fill="#ffffff" stroke="transparent" points="487,-105 487,-123 569,-123 569,-105 487,-105"/>
<polygon fill="none" stroke="#000000" points="487,-105 487,-123 569,-123 569,-105 487,-105"/>
<text text-anchor="start" x="550" y="-111.2" font-family="Helvetica,sans-Serif" font-size="11.00" fill="#000000">0 &gt;</text>
<polygon fill="none" stroke="#000000" stroke-width="2" points="234,-104 234,-190 570,-190 570,-104 234,-104"/>
</a>
</g>
</g>
<!-- qwb_word -->
<g id="node2" class="node">
<title>qwb_word</title>
<g id="a_node2"><a xlink:href="../../tables/qwb_word.html" xlink:title="qwb_word" target="_top">
<polygon fill="#ffffff" stroke="transparent" points="28.5,-37 28.5,-117 163.5,-117 163.5,-37 28.5,-37"/>
<polygon fill="#f5f5f5" stroke="transparent" points="29,-95 29,-117 164,-117 164,-95 29,-95"/>
<polygon fill="none" stroke="#000000" points="29,-95 29,-117 164,-117 164,-95 29,-95"/>
<text text-anchor="start" x="34" y="-104.2" font-family="Helvetica,sans-Serif" font-weight="bold" font-size="11.00" fill="#000000">qwb_word</text>
<text text-anchor="start" x="129" y="-103.2" font-family="Helvetica,sans-Serif" font-size="11.00" fill="#000000">[table]</text>
<polygon fill="none" stroke="#000000" points="29,-73 29,-95 164,-95 164,-73 29,-73"/>
<image xlink:href="../../images/primaryKeys.png" width="11px" height="12px" preserveAspectRatio="xMinYMin meet" x="34" y="-90"/>
<text text-anchor="start" x="49" y="-81.2" font-family="Helvetica,sans-Serif" font-size="11.00" fill="#000000">qwb_word_id</text>
<polygon fill="none" stroke="#000000" points="29,-55 29,-73 164,-73 164,-55 29,-55"/>
<text text-anchor="start" x="32" y="-61.2" font-family="Helvetica,sans-Serif" font-size="11.00" fill="#000000">...</text>
<polygon fill="#ffffff" stroke="transparent" points="29,-37 29,-55 56,-55 56,-37 29,-37"/>
<polygon fill="none" stroke="#000000" points="29,-37 29,-55 56,-55 56,-37 29,-37"/>
<text text-anchor="start" x="32" y="-43.2" font-family="Helvetica,sans-Serif" font-size="11.00" fill="#000000"> &#160;</text>
<polygon fill="#ffffff" stroke="transparent" points="56,-37 56,-55 135,-55 135,-37 56,-37"/>
<polygon fill="none" stroke="#000000" points="56,-37 56,-55 135,-55 135,-37 56,-37"/>
<text text-anchor="start" x="66" y="-43.2" font-family="Helvetica,sans-Serif" font-size="11.00" fill="#000000">327,795 rows</text>
<polygon fill="#ffffff" stroke="transparent" points="135,-37 135,-55 164,-55 164,-37 135,-37"/>
<polygon fill="none" stroke="#000000" points="135,-37 135,-55 164,-55 164,-37 135,-37"/>
<text text-anchor="start" x="145" y="-43.2" font-family="Helvetica,sans-Serif" font-size="11.00" fill="#000000">2 &gt;</text>
</a>
</g>
</g>
<!-- sign_stream_section_to_qwb_word&#45;&gt;qwb_word -->
<g id="edge1" class="edge">
<title>sign_stream_section_to_qwb_word:w&#45;&gt;qwb_word:e</title>
<path fill="none" stroke="#000000" d="M220.8016,-131.1685C197.2587,-120.5913 197.0169,-84 164,-84"/>
<polygon fill="#000000" stroke="#000000" points="227.1545,-132.4354 234.2959,-137.5305 231.0772,-133.2177 235,-134 235,-134 235,-134 231.0772,-133.2177 235.7041,-130.4695 227.1545,-132.4354 227.1545,-132.4354"/>
<ellipse fill="none" stroke="#000000" cx="224.0163" cy="-131.8095" rx="3.2" ry="3.2"/>
</g>
<!-- sign_stream_section -->
<g id="node3" class="node">
<title>sign_stream_section</title>
<g id="a_node3"><a xlink:href="../../tables/sign_stream_section.html" xlink:title="sign_stream_section" target="_top">
<polygon fill="#ffffff" stroke="transparent" points="8,-138 8,-240 184,-240 184,-138 8,-138"/>
<polygon fill="#f5f5f5" stroke="transparent" points="8,-218 8,-240 184,-240 184,-218 8,-218"/>
<polygon fill="none" stroke="#000000" points="8,-218 8,-240 184,-240 184,-218 8,-218"/>
<text text-anchor="start" x="13" y="-227.2" font-family="Helvetica,sans-Serif" font-weight="bold" font-size="11.00" fill="#000000">sign_stream_section</text>
<text text-anchor="start" x="149" y="-226.2" font-family="Helvetica,sans-Serif" font-size="11.00" fill="#000000">[table]</text>
<polygon fill="none" stroke="#000000" points="8,-196 8,-218 184,-218 184,-196 8,-196"/>
<image xlink:href="../../images/primaryKeys.png" width="11px" height="12px" preserveAspectRatio="xMinYMin meet" x="13" y="-213"/>
<text text-anchor="start" x="28" y="-204.2" font-family="Helvetica,sans-Serif" font-size="11.00" fill="#000000">sign_stream_section_id</text>
<polygon fill="#ffffff" stroke="transparent" points="8,-174 8,-196 184,-196 184,-174 8,-174"/>
<polygon fill="none" stroke="#000000" points="8,-174 8,-196 184,-196 184,-174 8,-174"/>
<image xlink:href="../../images/foreignKeys.png" width="11px" height="12px" preserveAspectRatio="xMinYMin meet" x="13" y="-191"/>
<text text-anchor="start" x="28" y="-182.2" font-family="Helvetica,sans-Serif" font-size="11.00" fill="#000000">creator_id</text>
<polygon fill="none" stroke="#000000" points="8,-156 8,-174 184,-174 184,-156 8,-156"/>
<text text-anchor="start" x="11" y="-162.2" font-family="Helvetica,sans-Serif" font-size="11.00" fill="#000000">...</text>
<polygon fill="#ffffff" stroke="transparent" points="8,-138 8,-156 60,-156 60,-138 8,-138"/>
<polygon fill="none" stroke="#000000" points="8,-138 8,-156 60,-156 60,-138 8,-138"/>
<text text-anchor="start" x="11" y="-144.2" font-family="Helvetica,sans-Serif" font-size="11.00" fill="#000000">&lt; 1</text>
<polygon fill="#ffffff" stroke="transparent" points="60,-138 60,-156 147,-156 147,-138 60,-138"/>
<polygon fill="none" stroke="#000000" points="60,-138 60,-156 147,-156 147,-138 60,-138"/>
<text text-anchor="start" x="78" y="-144.2" font-family="Helvetica,sans-Serif" font-size="11.00" fill="#000000">327,795 rows</text>
<polygon fill="#ffffff" stroke="transparent" points="147,-138 147,-156 184,-156 184,-138 147,-138"/>
<polygon fill="none" stroke="#000000" points="147,-138 147,-156 184,-156 184,-138 147,-138"/>
<text text-anchor="start" x="165" y="-144.2" font-family="Helvetica,sans-Serif" font-size="11.00" fill="#000000">4 &gt;</text>
</a>
</g>
</g>
<!-- sign_stream_section_to_qwb_word&#45;&gt;sign_stream_section -->
<g id="edge2" class="edge">
<title>sign_stream_section_to_qwb_word:w&#45;&gt;sign_stream_section:e</title>
<path fill="none" stroke="#000000" d="M221.137,-160.7065C206.2732,-173.332 210.0451,-207 184,-207"/>
<polygon fill="#000000" stroke="#000000" points="227.4247,-158.5719 236.1573,-159.4089 231.2123,-157.2859 235,-156 235,-156 235,-156 231.2123,-157.2859 233.8427,-152.5911 227.4247,-158.5719 227.4247,-158.5719"/>
<ellipse fill="none" stroke="#000000" cx="224.3945" cy="-159.6006" rx="3.2" ry="3.2"/>
</g>
</g>
</svg>
