<?xml version="1.0" encoding="UTF-8" standalone="no"?>
<!DOCTYPE svg PUBLIC "-//W3C//DTD SVG 1.1//EN"
 "http://www.w3.org/Graphics/SVG/1.1/DTD/svg11.dtd">
<!-- Generated by graphviz version 2.43.0 (0)
 -->
<!-- Title: oneDegreeRelationshipsDiagram Pages: 1 -->
<svg width="859pt" height="398pt"
 viewBox="0.00 0.00 859.00 398.00" xmlns="http://www.w3.org/2000/svg" xmlns:xlink="http://www.w3.org/1999/xlink">
<g id="graph0" class="graph" transform="scale(1 1) rotate(0) translate(4 394)">
<title>oneDegreeRelationshipsDiagram</title>
<polygon fill="#ffffff" stroke="transparent" points="-4,4 -4,-394 855,-394 855,4 -4,4"/>
<text text-anchor="middle" x="79.5" y="-7.2" font-family="Helvetica,sans-Serif" font-size="11.00">Generated by SchemaSpy</text>
<!-- edition_editor -->
<g id="node1" class="node">
<title>edition_editor</title>
<g id="a_node1"><a xlink:href="../../tables/edition_editor.html" xlink:title="edition_editor" target="_top">
<polygon fill="#ffffff" stroke="transparent" points="242,-95 242,-219 378,-219 378,-95 242,-95"/>
<polygon fill="#f5f5f5" stroke="transparent" points="242,-197 242,-219 378,-219 378,-197 242,-197"/>
<polygon fill="none" stroke="black" points="242,-197 242,-219 378,-219 378,-197 242,-197"/>
<text text-anchor="start" x="247" y="-206.2" font-family="Helvetica,sans-Serif" font-weight="bold" font-size="11.00">edition_editor</text>
<text text-anchor="start" x="336" y="-205.2" font-family="Helvetica,sans-Serif" font-size="11.00">[table]</text>
<polygon fill="none" stroke="black" points="242,-175 242,-197 378,-197 378,-175 242,-175"/>
<image xlink:href="../../images/primaryKeys.png" width="11px" height="12px" preserveAspectRatio="xMinYMin meet" x="247" y="-192"/>
<text text-anchor="start" x="264" y="-183.2" font-family="Helvetica,sans-Serif" font-size="11.00">edition_editor_id</text>
<polygon fill="#ffffff" stroke="transparent" points="242,-153 242,-175 378,-175 378,-153 242,-153"/>
<polygon fill="none" stroke="black" points="242,-153 242,-175 378,-175 378,-153 242,-153"/>
<image xlink:href="../../images/foreignKeys.png" width="11px" height="12px" preserveAspectRatio="xMinYMin meet" x="247" y="-170"/>
<text text-anchor="start" x="264" y="-161.2" font-family="Helvetica,sans-Serif" font-size="11.00">user_id</text>
<polygon fill="#ffffff" stroke="transparent" points="242,-131 242,-153 378,-153 378,-131 242,-131"/>
<polygon fill="none" stroke="black" points="242,-131 242,-153 378,-153 378,-131 242,-131"/>
<image xlink:href="../../images/foreignKeys.png" width="11px" height="12px" preserveAspectRatio="xMinYMin meet" x="247" y="-148"/>
<text text-anchor="start" x="264" y="-139.2" font-family="Helvetica,sans-Serif" font-size="11.00">edition_id</text>
<polygon fill="none" stroke="black" points="242,-113 242,-131 378,-131 378,-113 242,-113"/>
<text text-anchor="start" x="245" y="-119.2" font-family="Helvetica,sans-Serif" font-size="11.00">...</text>
<polygon fill="#ffffff" stroke="transparent" points="242,-95 242,-113 273,-113 273,-95 242,-95"/>
<polygon fill="none" stroke="black" points="242,-95 242,-113 273,-113 273,-95 242,-95"/>
<text text-anchor="start" x="245" y="-101.2" font-family="Helvetica,sans-Serif" font-size="11.00">&lt; 2</text>
<polygon fill="#ffffff" stroke="transparent" points="273,-95 273,-113 342,-113 342,-95 273,-95"/>
<polygon fill="none" stroke="black" points="273,-95 273,-113 342,-113 342,-95 273,-95"/>
<text text-anchor="start" x="278" y="-101.2" font-family="Helvetica,sans-Serif" font-size="11.00">1,645 rows</text>
<polygon fill="#ffffff" stroke="transparent" points="342,-95 342,-113 378,-113 378,-95 342,-95"/>
<polygon fill="none" stroke="black" points="342,-95 342,-113 378,-113 378,-95 342,-95"/>
<text text-anchor="start" x="348" y="-101.2" font-family="Helvetica,sans-Serif" font-size="11.00">33 &gt;</text>
</a>
</g>
</g>
<!-- edition -->
<g id="node2" class="node">
<title>edition</title>
<g id="a_node2"><a xlink:href="../../tables/edition.html" xlink:title="edition" target="_top">
<polygon fill="#ffffff" stroke="transparent" points="8,-37 8,-139 143,-139 143,-37 8,-37"/>
<polygon fill="#f5f5f5" stroke="transparent" points="8.5,-117 8.5,-139 143.5,-139 143.5,-117 8.5,-117"/>
<polygon fill="none" stroke="black" points="8.5,-117 8.5,-139 143.5,-139 143.5,-117 8.5,-117"/>
<text text-anchor="start" x="13.5" y="-126.2" font-family="Helvetica,sans-Serif" font-weight="bold" font-size="11.00">edition</text>
<text text-anchor="start" x="101.5" y="-125.2" font-family="Helvetica,sans-Serif" font-size="11.00">[table]</text>
<polygon fill="none" stroke="black" points="8.5,-95 8.5,-117 143.5,-117 143.5,-95 8.5,-95"/>
<image xlink:href="../../images/primaryKeys.png" width="11px" height="12px" preserveAspectRatio="xMinYMin meet" x="13.5" y="-112"/>
<text text-anchor="start" x="28.5" y="-103.2" font-family="Helvetica,sans-Serif" font-size="11.00">edition_id</text>
<polygon fill="#ffffff" stroke="transparent" points="8.5,-73 8.5,-95 143.5,-95 143.5,-73 8.5,-73"/>
<polygon fill="none" stroke="black" points="8.5,-73 8.5,-95 143.5,-95 143.5,-73 8.5,-73"/>
<image xlink:href="../../images/foreignKeys.png" width="11px" height="12px" preserveAspectRatio="xMinYMin meet" x="13.5" y="-90"/>
<text text-anchor="start" x="28.5" y="-81.2" font-family="Helvetica,sans-Serif" font-size="11.00">manuscript_id</text>
<polygon fill="none" stroke="black" points="8.5,-55 8.5,-73 143.5,-73 143.5,-55 8.5,-55"/>
<text text-anchor="start" x="11.5" y="-61.2" font-family="Helvetica,sans-Serif" font-size="11.00">...</text>
<polygon fill="#ffffff" stroke="transparent" points="8.5,-37 8.5,-55 38.5,-55 38.5,-37 8.5,-37"/>
<polygon fill="none" stroke="black" points="8.5,-37 8.5,-55 38.5,-55 38.5,-37 8.5,-37"/>
<text text-anchor="start" x="11.5" y="-43.2" font-family="Helvetica,sans-Serif" font-size="11.00">&lt; 1</text>
<polygon fill="#ffffff" stroke="transparent" points="38.5,-37 38.5,-55 107.5,-55 107.5,-37 38.5,-37"/>
<polygon fill="none" stroke="black" points="38.5,-37 38.5,-55 107.5,-55 107.5,-37 38.5,-37"/>
<text text-anchor="start" x="43.5" y="-43.2" font-family="Helvetica,sans-Serif" font-size="11.00">1,645 rows</text>
<polygon fill="#ffffff" stroke="transparent" points="107.5,-37 107.5,-55 143.5,-55 143.5,-37 107.5,-37"/>
<polygon fill="none" stroke="black" points="107.5,-37 107.5,-55 143.5,-55 143.5,-37 107.5,-37"/>
<text text-anchor="start" x="113.5" y="-43.2" font-family="Helvetica,sans-Serif" font-size="11.00">35 &gt;</text>
</a>
</g>
</g>
<!-- edition_editor&#45;&gt;edition -->
<g id="edge1" class="edge">
<title>edition_editor:w&#45;&gt;edition:e</title>
<path fill="none" stroke="black" d="M226.46,-140.63C193.5,-134.06 184.91,-106 144.5,-106"/>
<polygon fill="black" stroke="black" points="233.04,-141.25 240.66,-145.58 237.02,-141.63 241,-142 241,-142 241,-142 237.02,-141.63 241.34,-138.42 233.04,-141.25 233.04,-141.25"/>
<ellipse fill="none" stroke="black" cx="229.85" cy="-140.95" rx="3.2" ry="3.2"/>
</g>
<!-- sign_interpretation_attribute_owner -->
<g id="node3" class="node">
<title>sign_interpretation_attribute_owner</title>
<g id="a_node3"><a xlink:href="../../tables/sign_interpretation_attribute_owner.html" xlink:title="sign_interpretation_attribute_owner" target="_top">
<polygon fill="#ffffff" stroke="transparent" points="477,-133 477,-243 843,-243 843,-133 477,-133"/>
<polygon fill="#f5f5f5" stroke="transparent" points="479,-219 479,-241 841,-241 841,-219 479,-219"/>
<polygon fill="none" stroke="black" points="479,-219 479,-241 841,-241 841,-219 479,-219"/>
<text text-anchor="start" x="484" y="-228.2" font-family="Helvetica,sans-Serif" font-weight="bold" font-size="11.00">sign_interpretation_attribute_owner</text>
<text text-anchor="start" x="799" y="-227.2" font-family="Helvetica,sans-Serif" font-size="11.00">[table]</text>
<polygon fill="none" stroke="black" points="479,-197 479,-219 744,-219 744,-197 479,-197"/>
<image xlink:href="../../images/primaryKeys.png" width="11px" height="12px" preserveAspectRatio="xMinYMin meet" x="484" y="-214"/>
<text text-anchor="start" x="499" y="-205.2" font-family="Helvetica,sans-Serif" font-size="11.00">sign_interpretation_attribute_id</text>
<polygon fill="none" stroke="black" points="744,-197 744,-219 841,-219 841,-197 744,-197"/>
<text text-anchor="start" x="747" y="-205.2" font-family="Helvetica,sans-Serif" font-size="11.00">int unsigned[10]</text>
<polygon fill="#ffffff" stroke="transparent" points="479,-175 479,-197 744,-197 744,-175 479,-175"/>
<polygon fill="none" stroke="black" points="479,-175 479,-197 744,-197 744,-175 479,-175"/>
<image xlink:href="../../images/foreignKeys.png" width="11px" height="12px" preserveAspectRatio="xMinYMin meet" x="484" y="-192"/>
<text text-anchor="start" x="499" y="-183.2" font-family="Helvetica,sans-Serif" font-size="11.00">edition_editor_id</text>
<polygon fill="none" stroke="black" points="744,-175 744,-197 841,-197 841,-175 744,-175"/>
<text text-anchor="start" x="747" y="-183.2" font-family="Helvetica,sans-Serif" font-size="11.00">int unsigned[10]</text>
<polygon fill="none" stroke="black" points="479,-153 479,-175 744,-175 744,-153 479,-153"/>
<image xlink:href="../../images/primaryKeys.png" width="11px" height="12px" preserveAspectRatio="xMinYMin meet" x="484" y="-170"/>
<text text-anchor="start" x="499" y="-161.2" font-family="Helvetica,sans-Serif" font-size="11.00">edition_id</text>
<polygon fill="none" stroke="black" points="744,-153 744,-175 841,-175 841,-153 744,-153"/>
<text text-anchor="start" x="747" y="-161.2" font-family="Helvetica,sans-Serif" font-size="11.00">int unsigned[10]</text>
<polygon fill="#ffffff" stroke="transparent" points="479,-135 479,-153 579,-153 579,-135 479,-135"/>
<polygon fill="none" stroke="black" points="479,-135 479,-153 579,-153 579,-135 479,-135"/>
<text text-anchor="start" x="482" y="-141.2" font-family="Helvetica,sans-Serif" font-size="11.00">&lt; 3</text>
<polygon fill="#ffffff" stroke="transparent" points="579,-135 579,-153 744,-153 744,-135 579,-135"/>
<polygon fill="none" stroke="black" points="579,-135 579,-153 744,-153 744,-135 579,-135"/>
<text text-anchor="start" x="656" y="-141.2" font-family="Helvetica,sans-Serif" font-size="11.00">2,622,730 rows</text>
<polygon fill="#ffffff" stroke="transparent" points="744,-135 744,-153 841,-153 841,-135 744,-135"/>
<polygon fill="none" stroke="black" points="744,-135 744,-153 841,-153 841,-135 744,-135"/>
<text text-anchor="start" x="818" y="-141.2" font-family="Helvetica,sans-Serif" font-size="11.00">0 &gt;</text>
<polygon fill="none" stroke="black" stroke-width="2" points="478,-134 478,-242 842,-242 842,-134 478,-134"/>
</a>
</g>
</g>
<!-- sign_interpretation_attribute_owner&#45;&gt;edition_editor -->
<g id="edge2" class="edge">
<title>sign_interpretation_attribute_owner:w&#45;&gt;edition_editor:e</title>
<path fill="none" stroke="black" d="M463.35,-186C430.85,-186 417.67,-186 379,-186"/>
<polygon fill="black" stroke="black" points="470,-186 478,-189.6 474,-186 478,-186 478,-186 478,-186 474,-186 478,-182.4 470,-186 470,-186"/>
<ellipse fill="none" stroke="black" cx="466.8" cy="-186" rx="3.2" ry="3.2"/>
</g>
<!-- sign_interpretation_attribute_owner&#45;&gt;edition -->
<g id="edge3" class="edge">
<title>sign_interpretation_attribute_owner:w&#45;&gt;edition:e</title>
<path fill="none" stroke="black" d="M463.97,-160.03C446.37,-146.43 465,-101.53 436,-84 340.15,-26.06 292.4,-55.85 184,-84 164.55,-89.05 164.59,-106 144.5,-106"/>
<polygon fill="black" stroke="black" points="470.3,-161.82 477.02,-167.46 474.15,-162.91 478,-164 478,-164 478,-164 474.15,-162.91 478.98,-160.54 470.3,-161.82 470.3,-161.82"/>
<ellipse fill="none" stroke="black" cx="467.22" cy="-160.95" rx="3.2" ry="3.2"/>
</g>
<!-- sign_interpretation_attribute -->
<g id="node4" class="node">
<title>sign_interpretation_attribute</title>
<g id="a_node4"><a xlink:href="../../tables/sign_interpretation_attribute.html" xlink:title="sign_interpretation_attribute" target="_top">
<polygon fill="#ffffff" stroke="transparent" points="192,-240 192,-386 428,-386 428,-240 192,-240"/>
<polygon fill="#f5f5f5" stroke="transparent" points="192,-364 192,-386 428,-386 428,-364 192,-364"/>
<polygon fill="none" stroke="black" points="192,-364 192,-386 428,-386 428,-364 192,-364"/>
<text text-anchor="start" x="197" y="-373.2" font-family="Helvetica,sans-Serif" font-weight="bold" font-size="11.00">sign_interpretation_attribute</text>
<text text-anchor="start" x="386" y="-372.2" font-family="Helvetica,sans-Serif" font-size="11.00">[table]</text>
<polygon fill="none" stroke="black" points="192,-342 192,-364 428,-364 428,-342 192,-342"/>
<image xlink:href="../../images/primaryKeys.png" width="11px" height="12px" preserveAspectRatio="xMinYMin meet" x="197" y="-359"/>
<text text-anchor="start" x="212" y="-350.2" font-family="Helvetica,sans-Serif" font-size="11.00">sign_interpretation_attribute_id</text>
<polygon fill="#ffffff" stroke="transparent" points="192,-320 192,-342 428,-342 428,-320 192,-320"/>
<polygon fill="none" stroke="black" points="192,-320 192,-342 428,-342 428,-320 192,-320"/>
<image xlink:href="../../images/foreignKeys.png" width="11px" height="12px" preserveAspectRatio="xMinYMin meet" x="197" y="-337"/>
<text text-anchor="start" x="212" y="-328.2" font-family="Helvetica,sans-Serif" font-size="11.00">sign_interpretation_id</text>
<polygon fill="#ffffff" stroke="transparent" points="192,-298 192,-320 428,-320 428,-298 192,-298"/>
<polygon fill="none" stroke="black" points="192,-298 192,-320 428,-320 428,-298 192,-298"/>
<image xlink:href="../../images/foreignKeys.png" width="11px" height="12px" preserveAspectRatio="xMinYMin meet" x="197" y="-315"/>
<text text-anchor="start" x="212" y="-306.2" font-family="Helvetica,sans-Serif" font-size="11.00">attribute_value_id</text>
<polygon fill="#ffffff" stroke="transparent" points="192,-276 192,-298 428,-298 428,-276 192,-276"/>
<polygon fill="none" stroke="black" points="192,-276 192,-298 428,-298 428,-276 192,-276"/>
<text text-anchor="start" x="212" y="-284.2" font-family="Helvetica,sans-Serif" font-size="11.00">sequence</text>
<polygon fill="none" stroke="black" points="192,-258 192,-276 428,-276 428,-258 192,-258"/>
<text text-anchor="start" x="195" y="-264.2" font-family="Helvetica,sans-Serif" font-size="11.00">...</text>
<polygon fill="#ffffff" stroke="transparent" points="192,-240 192,-258 264,-258 264,-240 192,-240"/>
<polygon fill="none" stroke="black" points="192,-240 192,-258 264,-258 264,-240 192,-240"/>
<text text-anchor="start" x="195" y="-246.2" font-family="Helvetica,sans-Serif" font-size="11.00">&lt; 2</text>
<polygon fill="#ffffff" stroke="transparent" points="264,-240 264,-258 378,-258 378,-240 264,-240"/>
<polygon fill="none" stroke="black" points="264,-240 264,-258 378,-258 378,-240 264,-240"/>
<text text-anchor="start" x="290" y="-246.2" font-family="Helvetica,sans-Serif" font-size="11.00">2,557,225 rows</text>
<polygon fill="#ffffff" stroke="transparent" points="378,-240 378,-258 428,-258 428,-240 378,-240"/>
<polygon fill="none" stroke="black" points="378,-240 378,-258 428,-258 428,-240 378,-240"/>
<text text-anchor="start" x="405" y="-246.2" font-family="Helvetica,sans-Serif" font-size="11.00">1 &gt;</text>
</a>
</g>
</g>
<!-- sign_interpretation_attribute_owner&#45;&gt;sign_interpretation_attribute -->
<g id="edge4" class="edge">
<title>sign_interpretation_attribute_owner:w&#45;&gt;sign_interpretation_attribute:e</title>
<path fill="none" stroke="black" d="M463.7,-211.03C423.79,-231.85 491.18,-353 429,-353"/>
<polygon fill="black" stroke="black" points="470.17,-209.66 478.75,-211.52 474.09,-208.83 478,-208 478,-208 478,-208 474.09,-208.83 477.25,-204.48 470.17,-209.66 470.17,-209.66"/>
<ellipse fill="none" stroke="black" cx="467.04" cy="-210.32" rx="3.2" ry="3.2"/>
</g>
</g>
</svg>
