<?xml version="1.0" encoding="UTF-8" standalone="no"?>
<!DOCTYPE svg PUBLIC "-//W3C//DTD SVG 1.1//EN"
 "http://www.w3.org/Graphics/SVG/1.1/DTD/svg11.dtd">
<!-- Generated by graphviz version 2.43.0 (0)
 -->
<!-- Title: twoDegreesRelationshipsDiagram Pages: 1 -->
<svg width="760pt" height="425pt"
 viewBox="0.00 0.00 760.00 425.00" xmlns="http://www.w3.org/2000/svg" xmlns:xlink="http://www.w3.org/1999/xlink">
<g id="graph0" class="graph" transform="scale(1 1) rotate(0) translate(4 421)">
<title>twoDegreesRelationshipsDiagram</title>
<polygon fill="#ffffff" stroke="transparent" points="-4,4 -4,-421 756,-421 756,4 -4,4"/>
<text text-anchor="middle" x="79.5" y="-7.2" font-family="Helvetica,sans-Serif" font-size="11.00">Generated by SchemaSpy</text>
<!-- line_to_sign -->
<g id="node1" class="node">
<title>line_to_sign</title>
<g id="a_node1"><a xlink:href="../../tables/line_to_sign.html" xlink:title="line_to_sign" target="_top">
<polygon fill="#ffffff" stroke="transparent" points="288,-37 288,-143 431,-143 431,-37 288,-37"/>
<polygon fill="#f5f5f5" stroke="transparent" points="288.5,-121 288.5,-143 431.5,-143 431.5,-121 288.5,-121"/>
<polygon fill="none" stroke="black" points="288.5,-121 288.5,-143 431.5,-143 431.5,-121 288.5,-121"/>
<text text-anchor="start" x="293.5" y="-130.2" font-family="Helvetica,sans-Serif" font-weight="bold" font-size="11.00">line_to_sign</text>
<text text-anchor="start" x="389.5" y="-129.2" font-family="Helvetica,sans-Serif" font-size="11.00">[table]</text>
<polygon fill="none" stroke="black" points="288.5,-99 288.5,-121 431.5,-121 431.5,-99 288.5,-99"/>
<image xlink:href="../../images/primaryKeys.png" width="11px" height="12px" preserveAspectRatio="xMinYMin meet" x="293.5" y="-116"/>
<text text-anchor="start" x="321.5" y="-107.2" font-family="Helvetica,sans-Serif" font-size="11.00">line_to_sign_id</text>
<polygon fill="#ffffff" stroke="transparent" points="288.5,-77 288.5,-99 431.5,-99 431.5,-77 288.5,-77"/>
<polygon fill="none" stroke="black" points="288.5,-77 288.5,-99 431.5,-99 431.5,-77 288.5,-77"/>
<image xlink:href="../../images/foreignKeys.png" width="11px" height="12px" preserveAspectRatio="xMinYMin meet" x="293.5" y="-94"/>
<text text-anchor="start" x="321.5" y="-85.2" font-family="Helvetica,sans-Serif" font-size="11.00">sign_id</text>
<polygon fill="#ffffff" stroke="transparent" points="288.5,-55 288.5,-77 431.5,-77 431.5,-55 288.5,-55"/>
<polygon fill="none" stroke="black" points="288.5,-55 288.5,-77 431.5,-77 431.5,-55 288.5,-55"/>
<image xlink:href="../../images/foreignKeys.png" width="11px" height="12px" preserveAspectRatio="xMinYMin meet" x="293.5" y="-72"/>
<text text-anchor="start" x="321.5" y="-63.2" font-family="Helvetica,sans-Serif" font-size="11.00">line_id</text>
<polygon fill="#ffffff" stroke="transparent" points="288.5,-37 288.5,-55 314.5,-55 314.5,-37 288.5,-37"/>
<polygon fill="none" stroke="black" points="288.5,-37 288.5,-55 314.5,-55 314.5,-37 288.5,-37"/>
<text text-anchor="start" x="291.5" y="-43.2" font-family="Helvetica,sans-Serif" font-size="11.00">&lt; 2</text>
<polygon fill="#ffffff" stroke="transparent" points="314.5,-37 314.5,-55 405.5,-55 405.5,-37 314.5,-37"/>
<polygon fill="none" stroke="black" points="314.5,-37 314.5,-55 405.5,-55 405.5,-37 314.5,-37"/>
<text text-anchor="start" x="317.5" y="-43.2" font-family="Helvetica,sans-Serif" font-size="11.00">1,730,550 rows</text>
<polygon fill="#ffffff" stroke="transparent" points="405.5,-37 405.5,-55 431.5,-55 431.5,-37 405.5,-37"/>
<polygon fill="none" stroke="black" points="405.5,-37 405.5,-55 431.5,-55 431.5,-37 405.5,-37"/>
<text text-anchor="start" x="408.5" y="-43.2" font-family="Helvetica,sans-Serif" font-size="11.00">1 &gt;</text>
</a>
</g>
</g>
<!-- line -->
<g id="node2" class="node">
<title>line</title>
<g id="a_node2"><a xlink:href="../../tables/line.html" xlink:title="line" target="_top">
<polygon fill="#ffffff" stroke="transparent" points="60,-39 60,-97 174,-97 174,-39 60,-39"/>
<polygon fill="#f5f5f5" stroke="transparent" points="60,-75 60,-97 174,-97 174,-75 60,-75"/>
<polygon fill="none" stroke="black" points="60,-75 60,-97 174,-97 174,-75 60,-75"/>
<text text-anchor="start" x="65" y="-84.2" font-family="Helvetica,sans-Serif" font-weight="bold" font-size="11.00">line</text>
<text text-anchor="start" x="132" y="-83.2" font-family="Helvetica,sans-Serif" font-size="11.00">[table]</text>
<polygon fill="none" stroke="black" points="60,-57 60,-75 174,-75 174,-57 60,-57"/>
<text text-anchor="start" x="63" y="-63.2" font-family="Helvetica,sans-Serif" font-size="11.00">...</text>
<polygon fill="#ffffff" stroke="transparent" points="60,-39 60,-57 74,-57 74,-39 60,-39"/>
<polygon fill="none" stroke="black" points="60,-39 60,-57 74,-57 74,-39 60,-39"/>
<text text-anchor="start" x="63" y="-45.2" font-family="Helvetica,sans-Serif" font-size="11.00"> &#160;</text>
<polygon fill="#ffffff" stroke="transparent" points="74,-39 74,-57 148,-57 148,-39 74,-39"/>
<polygon fill="none" stroke="black" points="74,-39 74,-57 148,-57 148,-39 74,-39"/>
<text text-anchor="start" x="77" y="-45.2" font-family="Helvetica,sans-Serif" font-size="11.00">53,964 rows</text>
<polygon fill="#ffffff" stroke="transparent" points="148,-39 148,-57 174,-57 174,-39 148,-39"/>
<polygon fill="none" stroke="black" points="148,-39 148,-57 174,-57 174,-39 148,-39"/>
<text text-anchor="start" x="151" y="-45.2" font-family="Helvetica,sans-Serif" font-size="11.00">3 &gt;</text>
</a>
</g>
</g>
<!-- line_to_sign&#45;&gt;line -->
<g id="edge1" class="edge">
<title>line_to_sign:w&#45;&gt;line:e</title>
<path fill="none" stroke="black" d="M273.09,-66C234.51,-66 219.82,-66 175,-66"/>
<polygon fill="black" stroke="black" points="279.5,-66 287.5,-69.6 283.5,-66 287.5,-66 287.5,-66 287.5,-66 283.5,-66 287.5,-62.4 279.5,-66 279.5,-66"/>
<ellipse fill="none" stroke="black" cx="276.3" cy="-66" rx="3.2" ry="3.2"/>
</g>
<!-- sign -->
<g id="node3" class="node">
<title>sign</title>
<g id="a_node3"><a xlink:href="../../tables/sign.html" xlink:title="sign" target="_top">
<polygon fill="#ffffff" stroke="transparent" points="8,-164 8,-230 226,-230 226,-164 8,-164"/>
<polygon fill="#f5f5f5" stroke="transparent" points="10,-206 10,-228 224,-228 224,-206 10,-206"/>
<polygon fill="none" stroke="black" points="10,-206 10,-228 224,-228 224,-206 10,-206"/>
<text text-anchor="start" x="15" y="-215.2" font-family="Helvetica,sans-Serif" font-weight="bold" font-size="11.00">sign</text>
<text text-anchor="start" x="182" y="-214.2" font-family="Helvetica,sans-Serif" font-size="11.00">[table]</text>
<polygon fill="none" stroke="black" points="10,-184 10,-206 127,-206 127,-184 10,-184"/>
<image xlink:href="../../images/primaryKeys.png" width="11px" height="12px" preserveAspectRatio="xMinYMin meet" x="15" y="-201"/>
<text text-anchor="start" x="55" y="-192.2" font-family="Helvetica,sans-Serif" font-size="11.00">sign_id</text>
<polygon fill="none" stroke="black" points="127,-184 127,-206 224,-206 224,-184 127,-184"/>
<text text-anchor="start" x="130" y="-192.2" font-family="Helvetica,sans-Serif" font-size="11.00">int unsigned[10]</text>
<polygon fill="#ffffff" stroke="transparent" points="10,-166 10,-184 36,-184 36,-166 10,-166"/>
<polygon fill="none" stroke="black" points="10,-166 10,-184 36,-184 36,-166 10,-166"/>
<text text-anchor="start" x="13" y="-172.2" font-family="Helvetica,sans-Serif" font-size="11.00">&lt; 0</text>
<polygon fill="#ffffff" stroke="transparent" points="36,-166 36,-184 127,-184 127,-166 36,-166"/>
<polygon fill="none" stroke="black" points="36,-166 36,-184 127,-184 127,-166 36,-166"/>
<text text-anchor="start" x="39" y="-172.2" font-family="Helvetica,sans-Serif" font-size="11.00">1,732,050 rows</text>
<polygon fill="#ffffff" stroke="transparent" points="127,-166 127,-184 224,-184 224,-166 127,-166"/>
<polygon fill="none" stroke="black" points="127,-166 127,-184 224,-184 224,-166 127,-166"/>
<text text-anchor="start" x="201" y="-172.2" font-family="Helvetica,sans-Serif" font-size="11.00">2 &gt;</text>
<polygon fill="none" stroke="black" stroke-width="2" points="9,-165 9,-229 225,-229 225,-165 9,-165"/>
</a>
</g>
</g>
<!-- line_to_sign&#45;&gt;sign -->
<g id="edge2" class="edge">
<title>line_to_sign:w&#45;&gt;sign:e</title>
<path fill="none" stroke="black" d="M273.26,-91.32C241.33,-109.38 274.27,-195 225,-195"/>
<polygon fill="black" stroke="black" points="279.71,-89.82 288.32,-91.51 283.6,-88.91 287.5,-88 287.5,-88 287.5,-88 283.6,-88.91 286.68,-84.49 279.71,-89.82 279.71,-89.82"/>
<ellipse fill="none" stroke="black" cx="276.59" cy="-90.54" rx="3.2" ry="3.2"/>
</g>
<!-- line_to_sign_owner -->
<g id="node4" class="node">
<title>line_to_sign_owner</title>
<g id="a_node4"><a xlink:href="../../tables/line_to_sign_owner.html" xlink:title="line_to_sign_owner" target="_top">
<polygon fill="#ffffff" stroke="transparent" points="535.5,-39 535.5,-97 701.5,-97 701.5,-39 535.5,-39"/>
<polygon fill="#f5f5f5" stroke="transparent" points="535.5,-75 535.5,-97 701.5,-97 701.5,-75 535.5,-75"/>
<polygon fill="none" stroke="black" points="535.5,-75 535.5,-97 701.5,-97 701.5,-75 535.5,-75"/>
<text text-anchor="start" x="540.5" y="-84.2" font-family="Helvetica,sans-Serif" font-weight="bold" font-size="11.00">line_to_sign_owner</text>
<text text-anchor="start" x="659.5" y="-83.2" font-family="Helvetica,sans-Serif" font-size="11.00">[table]</text>
<polygon fill="none" stroke="black" points="535.5,-57 535.5,-75 701.5,-75 701.5,-57 535.5,-57"/>
<text text-anchor="start" x="538.5" y="-63.2" font-family="Helvetica,sans-Serif" font-size="11.00">...</text>
<polygon fill="#ffffff" stroke="transparent" points="535.5,-39 535.5,-57 578.5,-57 578.5,-39 535.5,-39"/>
<polygon fill="none" stroke="black" points="535.5,-39 535.5,-57 578.5,-57 578.5,-39 535.5,-39"/>
<text text-anchor="start" x="538.5" y="-45.2" font-family="Helvetica,sans-Serif" font-size="11.00">&lt; 3</text>
<polygon fill="#ffffff" stroke="transparent" points="578.5,-39 578.5,-57 678.5,-57 678.5,-39 578.5,-39"/>
<polygon fill="none" stroke="black" points="578.5,-39 578.5,-57 678.5,-57 678.5,-39 578.5,-39"/>
<text text-anchor="start" x="590.5" y="-45.2" font-family="Helvetica,sans-Serif" font-size="11.00">1,730,550 rows</text>
<polygon fill="#ffffff" stroke="transparent" points="678.5,-39 678.5,-57 701.5,-57 701.5,-39 678.5,-39"/>
<polygon fill="none" stroke="black" points="678.5,-39 678.5,-57 701.5,-57 701.5,-39 678.5,-39"/>
<text text-anchor="start" x="690.5" y="-45.2" font-family="Helvetica,sans-Serif" font-size="11.00"> &#160;</text>
</a>
</g>
</g>
<!-- line_to_sign_owner&#45;&gt;line_to_sign -->
<g id="edge3" class="edge">
<title>line_to_sign_owner:w&#45;&gt;line_to_sign:e</title>
<path fill="none" stroke="black" d="M519.83,-67.46C483.86,-75.1 476.47,-110 432.5,-110"/>
<polygon fill="black" stroke="black" points="526.54,-66.79 534.86,-69.58 530.52,-66.4 534.5,-66 534.5,-66 534.5,-66 530.52,-66.4 534.14,-62.42 526.54,-66.79 526.54,-66.79"/>
<ellipse fill="none" stroke="black" cx="523.36" cy="-67.11" rx="3.2" ry="3.2"/>
</g>
<!-- position_in_stream -->
<g id="node5" class="node">
<title>position_in_stream</title>
<g id="a_node5"><a xlink:href="../../tables/position_in_stream.html" xlink:title="position_in_stream" target="_top">
<polygon fill="#ffffff" stroke="transparent" points="535.5,-355 535.5,-413 701.5,-413 701.5,-355 535.5,-355"/>
<polygon fill="#f5f5f5" stroke="transparent" points="535.5,-391 535.5,-413 701.5,-413 701.5,-391 535.5,-391"/>
<polygon fill="none" stroke="black" points="535.5,-391 535.5,-413 701.5,-413 701.5,-391 535.5,-391"/>
<text text-anchor="start" x="540.5" y="-400.2" font-family="Helvetica,sans-Serif" font-weight="bold" font-size="11.00">position_in_stream</text>
<text text-anchor="start" x="659.5" y="-399.2" font-family="Helvetica,sans-Serif" font-size="11.00">[table]</text>
<polygon fill="none" stroke="black" points="535.5,-373 535.5,-391 701.5,-391 701.5,-373 535.5,-373"/>
<text text-anchor="start" x="538.5" y="-379.2" font-family="Helvetica,sans-Serif" font-size="11.00">...</text>
<polygon fill="#ffffff" stroke="transparent" points="535.5,-355 535.5,-373 572.5,-373 572.5,-355 535.5,-355"/>
<polygon fill="none" stroke="black" points="535.5,-355 535.5,-373 572.5,-373 572.5,-355 535.5,-355"/>
<text text-anchor="start" x="538.5" y="-361.2" font-family="Helvetica,sans-Serif" font-size="11.00">&lt; 2</text>
<polygon fill="#ffffff" stroke="transparent" points="572.5,-355 572.5,-373 669.5,-373 669.5,-355 572.5,-355"/>
<polygon fill="none" stroke="black" points="572.5,-355 572.5,-373 669.5,-373 669.5,-355 572.5,-355"/>
<text text-anchor="start" x="581.5" y="-361.2" font-family="Helvetica,sans-Serif" font-size="11.00">1,719,776 rows</text>
<polygon fill="#ffffff" stroke="transparent" points="669.5,-355 669.5,-373 701.5,-373 701.5,-355 669.5,-355"/>
<polygon fill="none" stroke="black" points="669.5,-355 669.5,-373 701.5,-373 701.5,-355 669.5,-355"/>
<text text-anchor="start" x="678.5" y="-361.2" font-family="Helvetica,sans-Serif" font-size="11.00">2 &gt;</text>
</a>
</g>
</g>
<!-- sign_interpretation -->
<g id="node6" class="node">
<title>sign_interpretation</title>
<g id="a_node6"><a xlink:href="../../tables/sign_interpretation.html" xlink:title="sign_interpretation" target="_top">
<polygon fill="#ffffff" stroke="transparent" points="275,-168 275,-296 444,-296 444,-168 275,-168"/>
<polygon fill="#f5f5f5" stroke="transparent" points="275.5,-274 275.5,-296 444.5,-296 444.5,-274 275.5,-274"/>
<polygon fill="none" stroke="black" points="275.5,-274 275.5,-296 444.5,-296 444.5,-274 275.5,-274"/>
<text text-anchor="start" x="280.5" y="-283.2" font-family="Helvetica,sans-Serif" font-weight="bold" font-size="11.00">sign_interpretation</text>
<text text-anchor="start" x="402.5" y="-282.2" font-family="Helvetica,sans-Serif" font-size="11.00">[table]</text>
<polygon fill="none" stroke="black" points="275.5,-252 275.5,-274 444.5,-274 444.5,-252 275.5,-252"/>
<image xlink:href="../../images/primaryKeys.png" width="11px" height="12px" preserveAspectRatio="xMinYMin meet" x="280.5" y="-269"/>
<text text-anchor="start" x="295.5" y="-260.2" font-family="Helvetica,sans-Serif" font-size="11.00">sign_interpretation_id</text>
<polygon fill="#ffffff" stroke="transparent" points="275.5,-230 275.5,-252 444.5,-252 444.5,-230 275.5,-230"/>
<polygon fill="none" stroke="black" points="275.5,-230 275.5,-252 444.5,-252 444.5,-230 275.5,-230"/>
<image xlink:href="../../images/foreignKeys.png" width="11px" height="12px" preserveAspectRatio="xMinYMin meet" x="280.5" y="-247"/>
<text text-anchor="start" x="295.5" y="-238.2" font-family="Helvetica,sans-Serif" font-size="11.00">sign_id</text>
<polygon fill="#ffffff" stroke="transparent" points="275.5,-208 275.5,-230 444.5,-230 444.5,-208 275.5,-208"/>
<polygon fill="none" stroke="black" points="275.5,-208 275.5,-230 444.5,-230 444.5,-208 275.5,-208"/>
<text text-anchor="start" x="295.5" y="-216.2" font-family="Helvetica,sans-Serif" font-size="11.00">is_variant</text>
<polygon fill="#ffffff" stroke="transparent" points="275.5,-186 275.5,-208 444.5,-208 444.5,-186 275.5,-186"/>
<polygon fill="none" stroke="black" points="275.5,-186 275.5,-208 444.5,-208 444.5,-186 275.5,-186"/>
<text text-anchor="start" x="295.5" y="-194.2" font-family="Helvetica,sans-Serif" font-size="11.00">character</text>
<polygon fill="#ffffff" stroke="transparent" points="275.5,-168 275.5,-186 314.5,-186 314.5,-168 275.5,-168"/>
<polygon fill="none" stroke="black" points="275.5,-168 275.5,-186 314.5,-186 314.5,-168 275.5,-168"/>
<text text-anchor="start" x="278.5" y="-174.2" font-family="Helvetica,sans-Serif" font-size="11.00">&lt; 1</text>
<polygon fill="#ffffff" stroke="transparent" points="314.5,-168 314.5,-186 411.5,-186 411.5,-168 314.5,-168"/>
<polygon fill="none" stroke="black" points="314.5,-168 314.5,-186 411.5,-186 411.5,-168 314.5,-168"/>
<text text-anchor="start" x="323.5" y="-174.2" font-family="Helvetica,sans-Serif" font-size="11.00">1,189,027 rows</text>
<polygon fill="#ffffff" stroke="transparent" points="411.5,-168 411.5,-186 444.5,-186 444.5,-168 411.5,-168"/>
<polygon fill="none" stroke="black" points="411.5,-168 411.5,-186 444.5,-186 444.5,-168 411.5,-168"/>
<text text-anchor="start" x="421.5" y="-174.2" font-family="Helvetica,sans-Serif" font-size="11.00">5 &gt;</text>
</a>
</g>
</g>
<!-- position_in_stream&#45;&gt;sign_interpretation -->
<g id="edge4" class="edge">
<title>position_in_stream:w&#45;&gt;sign_interpretation:e</title>
<path fill="none" stroke="black" d="M520.76,-377.4C504.76,-369.62 499.05,-356.06 485,-339 459.28,-307.77 485.95,-257 445.5,-263"/>
<polygon fill="black" stroke="black" points="526.91,-379.46 533.36,-385.41 530.71,-380.73 534.5,-382 534.5,-382 534.5,-382 530.71,-380.73 535.64,-378.59 526.91,-379.46 526.91,-379.46"/>
<ellipse fill="none" stroke="black" cx="523.88" cy="-378.44" rx="3.2" ry="3.2"/>
</g>
<!-- position_in_stream&#45;&gt;sign_interpretation -->
<g id="edge5" class="edge">
<title>position_in_stream:w&#45;&gt;sign_interpretation:e</title>
<path fill="none" stroke="black" d="M519.84,-383.55C504.53,-382.09 498.78,-368.73 485,-352 459.28,-320.77 485.95,-270 445.5,-263"/>
<polygon fill="black" stroke="black" points="526.54,-382.84 534.88,-385.58 530.52,-382.42 534.5,-382 534.5,-382 534.5,-382 530.52,-382.42 534.12,-378.42 526.54,-382.84 526.54,-382.84"/>
<ellipse fill="none" stroke="black" cx="523.36" cy="-383.18" rx="3.2" ry="3.2"/>
</g>
<!-- sign_interpretation&#45;&gt;sign -->
<g id="edge6" class="edge">
<title>sign_interpretation:w&#45;&gt;sign:e</title>
<path fill="none" stroke="black" d="M260.54,-236.08C247.08,-224.21 248.93,-195 225,-195"/>
<polygon fill="black" stroke="black" points="266.96,-238.34 273.3,-244.39 270.73,-239.67 274.5,-241 274.5,-241 274.5,-241 270.73,-239.67 275.7,-237.61 266.96,-238.34 266.96,-238.34"/>
<ellipse fill="none" stroke="black" cx="263.94" cy="-237.27" rx="3.2" ry="3.2"/>
</g>
<!-- sign_interpretation_attribute -->
<g id="node7" class="node">
<title>sign_interpretation_attribute</title>
<g id="a_node7"><a xlink:href="../../tables/sign_interpretation_attribute.html" xlink:title="sign_interpretation_attribute" target="_top">
<polygon fill="#ffffff" stroke="transparent" points="504,-276 504,-334 733,-334 733,-276 504,-276"/>
<polygon fill="#f5f5f5" stroke="transparent" points="504.5,-312 504.5,-334 733.5,-334 733.5,-312 504.5,-312"/>
<polygon fill="none" stroke="black" points="504.5,-312 504.5,-334 733.5,-334 733.5,-312 504.5,-312"/>
<text text-anchor="start" x="509.5" y="-321.2" font-family="Helvetica,sans-Serif" font-weight="bold" font-size="11.00">sign_interpretation_attribute</text>
<text text-anchor="start" x="691.5" y="-320.2" font-family="Helvetica,sans-Serif" font-size="11.00">[table]</text>
<polygon fill="none" stroke="black" points="504.5,-294 504.5,-312 733.5,-312 733.5,-294 504.5,-294"/>
<text text-anchor="start" x="507.5" y="-300.2" font-family="Helvetica,sans-Serif" font-size="11.00">...</text>
<polygon fill="#ffffff" stroke="transparent" points="504.5,-276 504.5,-294 573.5,-294 573.5,-276 504.5,-276"/>
<polygon fill="none" stroke="black" points="504.5,-276 504.5,-294 573.5,-294 573.5,-276 504.5,-276"/>
<text text-anchor="start" x="507.5" y="-282.2" font-family="Helvetica,sans-Serif" font-size="11.00">&lt; 2</text>
<polygon fill="#ffffff" stroke="transparent" points="573.5,-276 573.5,-294 685.5,-294 685.5,-276 573.5,-276"/>
<polygon fill="none" stroke="black" points="573.5,-276 573.5,-294 685.5,-294 685.5,-276 573.5,-276"/>
<text text-anchor="start" x="597.5" y="-282.2" font-family="Helvetica,sans-Serif" font-size="11.00">2,557,225 rows</text>
<polygon fill="#ffffff" stroke="transparent" points="685.5,-276 685.5,-294 733.5,-294 733.5,-276 685.5,-276"/>
<polygon fill="none" stroke="black" points="685.5,-276 685.5,-294 733.5,-294 733.5,-276 685.5,-276"/>
<text text-anchor="start" x="710.5" y="-282.2" font-family="Helvetica,sans-Serif" font-size="11.00">1 &gt;</text>
</a>
</g>
</g>
<!-- sign_interpretation_attribute&#45;&gt;sign_interpretation -->
<g id="edge7" class="edge">
<title>sign_interpretation_attribute:w&#45;&gt;sign_interpretation:e</title>
<path fill="none" stroke="black" d="M489.2,-299.31C472.66,-289.41 470.94,-263 445.5,-263"/>
<polygon fill="black" stroke="black" points="495.75,-301 502.6,-306.49 499.63,-302 503.5,-303 503.5,-303 503.5,-303 499.63,-302 504.4,-299.51 495.75,-301 495.75,-301"/>
<ellipse fill="none" stroke="black" cx="492.66" cy="-300.2" rx="3.2" ry="3.2"/>
</g>
<!-- sign_interpretation_commentary -->
<g id="node8" class="node">
<title>sign_interpretation_commentary</title>
<g id="a_node8"><a xlink:href="../../tables/sign_interpretation_commentary.html" xlink:title="sign_interpretation_commentary" target="_top">
<polygon fill="#ffffff" stroke="transparent" points="493,-197 493,-255 744,-255 744,-197 493,-197"/>
<polygon fill="#f5f5f5" stroke="transparent" points="493.5,-233 493.5,-255 744.5,-255 744.5,-233 493.5,-233"/>
<polygon fill="none" stroke="black" points="493.5,-233 493.5,-255 744.5,-255 744.5,-233 493.5,-233"/>
<text text-anchor="start" x="498.5" y="-242.2" font-family="Helvetica,sans-Serif" font-weight="bold" font-size="11.00">sign_interpretation_commentary</text>
<text text-anchor="start" x="702.5" y="-241.2" font-family="Helvetica,sans-Serif" font-size="11.00">[table]</text>
<polygon fill="none" stroke="black" points="493.5,-215 493.5,-233 744.5,-233 744.5,-215 493.5,-215"/>
<text text-anchor="start" x="496.5" y="-221.2" font-family="Helvetica,sans-Serif" font-size="11.00">...</text>
<polygon fill="#ffffff" stroke="transparent" points="493.5,-197 493.5,-215 597.5,-215 597.5,-197 493.5,-197"/>
<polygon fill="none" stroke="black" points="493.5,-197 493.5,-215 597.5,-215 597.5,-197 493.5,-197"/>
<text text-anchor="start" x="496.5" y="-203.2" font-family="Helvetica,sans-Serif" font-size="11.00">&lt; 2</text>
<polygon fill="#ffffff" stroke="transparent" points="597.5,-197 597.5,-215 679.5,-215 679.5,-197 597.5,-197"/>
<polygon fill="none" stroke="black" points="597.5,-197 597.5,-215 679.5,-215 679.5,-197 597.5,-197"/>
<text text-anchor="start" x="639.5" y="-203.2" font-family="Helvetica,sans-Serif" font-size="11.00">0 rows</text>
<polygon fill="#ffffff" stroke="transparent" points="679.5,-197 679.5,-215 744.5,-215 744.5,-197 679.5,-197"/>
<polygon fill="none" stroke="black" points="679.5,-197 679.5,-215 744.5,-215 744.5,-197 679.5,-197"/>
<text text-anchor="start" x="721.5" y="-203.2" font-family="Helvetica,sans-Serif" font-size="11.00">1 &gt;</text>
</a>
</g>
</g>
<!-- sign_interpretation_commentary&#45;&gt;sign_interpretation -->
<g id="edge8" class="edge">
<title>sign_interpretation_commentary:w&#45;&gt;sign_interpretation:e</title>
<path fill="none" stroke="black" d="M478.91,-228.78C466.9,-239.2 466.71,-263 445.5,-263"/>
<polygon fill="black" stroke="black" points="484.95,-226.66 493.69,-227.4 488.73,-225.33 492.5,-224 492.5,-224 492.5,-224 488.73,-225.33 491.31,-220.6 484.95,-226.66 484.95,-226.66"/>
<ellipse fill="none" stroke="black" cx="481.93" cy="-227.72" rx="3.2" ry="3.2"/>
</g>
<!-- sign_interpretation_roi -->
<g id="node9" class="node">
<title>sign_interpretation_roi</title>
<g id="a_node9"><a xlink:href="../../tables/sign_interpretation_roi.html" xlink:title="sign_interpretation_roi" target="_top">
<polygon fill="#ffffff" stroke="transparent" points="523.5,-118 523.5,-176 713.5,-176 713.5,-118 523.5,-118"/>
<polygon fill="#f5f5f5" stroke="transparent" points="523.5,-154 523.5,-176 713.5,-176 713.5,-154 523.5,-154"/>
<polygon fill="none" stroke="black" points="523.5,-154 523.5,-176 713.5,-176 713.5,-154 523.5,-154"/>
<text text-anchor="start" x="528.5" y="-163.2" font-family="Helvetica,sans-Serif" font-weight="bold" font-size="11.00">sign_interpretation_roi</text>
<text text-anchor="start" x="671.5" y="-162.2" font-family="Helvetica,sans-Serif" font-size="11.00">[table]</text>
<polygon fill="none" stroke="black" points="523.5,-136 523.5,-154 713.5,-154 713.5,-136 523.5,-136"/>
<text text-anchor="start" x="526.5" y="-142.2" font-family="Helvetica,sans-Serif" font-size="11.00">...</text>
<polygon fill="#ffffff" stroke="transparent" points="523.5,-118 523.5,-136 596.5,-136 596.5,-118 523.5,-118"/>
<polygon fill="none" stroke="black" points="523.5,-118 523.5,-136 596.5,-136 596.5,-118 523.5,-118"/>
<text text-anchor="start" x="526.5" y="-124.2" font-family="Helvetica,sans-Serif" font-size="11.00">&lt; 3</text>
<polygon fill="#ffffff" stroke="transparent" points="596.5,-118 596.5,-136 663.5,-136 663.5,-118 596.5,-118"/>
<polygon fill="none" stroke="black" points="596.5,-118 596.5,-136 663.5,-136 663.5,-118 596.5,-118"/>
<text text-anchor="start" x="623.5" y="-124.2" font-family="Helvetica,sans-Serif" font-size="11.00">0 rows</text>
<polygon fill="#ffffff" stroke="transparent" points="663.5,-118 663.5,-136 713.5,-136 713.5,-118 663.5,-118"/>
<polygon fill="none" stroke="black" points="663.5,-118 663.5,-136 713.5,-136 713.5,-118 663.5,-118"/>
<text text-anchor="start" x="690.5" y="-124.2" font-family="Helvetica,sans-Serif" font-size="11.00">1 &gt;</text>
</a>
</g>
</g>
<!-- sign_interpretation_roi&#45;&gt;sign_interpretation -->
<g id="edge9" class="edge">
<title>sign_interpretation_roi:w&#45;&gt;sign_interpretation:e</title>
<path fill="none" stroke="black" d="M508.42,-148.45C497.38,-155.32 495.77,-171.39 485,-187 463.38,-218.33 483.57,-263 445.5,-263"/>
<polygon fill="black" stroke="black" points="514.73,-146.9 523.36,-148.5 518.61,-145.95 522.5,-145 522.5,-145 522.5,-145 518.61,-145.95 521.64,-141.5 514.73,-146.9 514.73,-146.9"/>
<ellipse fill="none" stroke="black" cx="511.62" cy="-147.67" rx="3.2" ry="3.2"/>
</g>
</g>
</svg>
