<?xml version="1.0" encoding="UTF-8" standalone="no"?>
<!DOCTYPE svg PUBLIC "-//W3C//DTD SVG 1.1//EN"
 "http://www.w3.org/Graphics/SVG/1.1/DTD/svg11.dtd">
<!-- Generated by graphviz version 2.40.1 (20161225.0304)
 -->
<!-- Title: oneDegreeRelationshipsDiagramImplied Pages: 1 -->
<svg width="759pt" height="420pt"
 viewBox="0.00 0.00 759.00 420.00" xmlns="http://www.w3.org/2000/svg" xmlns:xlink="http://www.w3.org/1999/xlink">
<g id="graph0" class="graph" transform="scale(1 1) rotate(0) translate(4 416)">
<title>oneDegreeRelationshipsDiagramImplied</title>
<polygon fill="#ffffff" stroke="transparent" points="-4,4 -4,-416 755,-416 755,4 -4,4"/>
<text text-anchor="middle" x="71.5" y="-7.2" font-family="Helvetica,sans-Serif" font-size="11.00" fill="#000000">Generated by SchemaSpy</text>
<!-- edition_editor -->
<g id="node1" class="node">
<title>edition_editor</title>
<g id="a_node1"><a xlink:href="../../tables/edition_editor.html" xlink:title="edition_editor" target="_top">
<polygon fill="#ffffff" stroke="transparent" points="222,-95 222,-219 355,-219 355,-95 222,-95"/>
<polygon fill="#f5f5f5" stroke="transparent" points="222.5,-197 222.5,-219 355.5,-219 355.5,-197 222.5,-197"/>
<polygon fill="none" stroke="#000000" points="222.5,-197 222.5,-219 355.5,-219 355.5,-197 222.5,-197"/>
<text text-anchor="start" x="227.5" y="-206.2" font-family="Helvetica,sans-Serif" font-weight="bold" font-size="11.00" fill="#000000">edition_editor</text>
<text text-anchor="start" x="320.5" y="-205.2" font-family="Helvetica,sans-Serif" font-size="11.00" fill="#000000">[table]</text>
<polygon fill="none" stroke="#000000" points="222.5,-175 222.5,-197 355.5,-197 355.5,-175 222.5,-175"/>
<image xlink:href="../../images/primaryKeys.png" width="11px" height="12px" preserveAspectRatio="xMinYMin meet" x="227.5" y="-192"/>
<text text-anchor="start" x="242.5" y="-183.2" font-family="Helvetica,sans-Serif" font-size="11.00" fill="#000000">edition_editor_id</text>
<polygon fill="#ffffff" stroke="transparent" points="222.5,-153 222.5,-175 355.5,-175 355.5,-153 222.5,-153"/>
<polygon fill="none" stroke="#000000" points="222.5,-153 222.5,-175 355.5,-175 355.5,-153 222.5,-153"/>
<image xlink:href="../../images/foreignKeys.png" width="11px" height="12px" preserveAspectRatio="xMinYMin meet" x="227.5" y="-170"/>
<text text-anchor="start" x="242.5" y="-161.2" font-family="Helvetica,sans-Serif" font-size="11.00" fill="#000000">user_id</text>
<polygon fill="#ffffff" stroke="transparent" points="222.5,-131 222.5,-153 355.5,-153 355.5,-131 222.5,-131"/>
<polygon fill="none" stroke="#000000" points="222.5,-131 222.5,-153 355.5,-153 355.5,-131 222.5,-131"/>
<image xlink:href="../../images/foreignKeys.png" width="11px" height="12px" preserveAspectRatio="xMinYMin meet" x="227.5" y="-148"/>
<text text-anchor="start" x="242.5" y="-139.2" font-family="Helvetica,sans-Serif" font-size="11.00" fill="#000000">edition_id</text>
<polygon fill="none" stroke="#000000" points="222.5,-113 222.5,-131 355.5,-131 355.5,-113 222.5,-113"/>
<text text-anchor="start" x="225.5" y="-119.2" font-family="Helvetica,sans-Serif" font-size="11.00" fill="#000000">...</text>
<polygon fill="#ffffff" stroke="transparent" points="222.5,-95 222.5,-113 255.5,-113 255.5,-95 222.5,-95"/>
<polygon fill="none" stroke="#000000" points="222.5,-95 222.5,-113 255.5,-113 255.5,-95 222.5,-95"/>
<text text-anchor="start" x="225.5" y="-101.2" font-family="Helvetica,sans-Serif" font-size="11.00" fill="#000000">&lt; 2</text>
<polygon fill="#ffffff" stroke="transparent" points="255.5,-95 255.5,-113 321.5,-113 321.5,-95 255.5,-95"/>
<polygon fill="none" stroke="#000000" points="255.5,-95 255.5,-113 321.5,-113 321.5,-95 255.5,-95"/>
<text text-anchor="start" x="264.5" y="-101.2" font-family="Helvetica,sans-Serif" font-size="11.00" fill="#000000">1,645 rows</text>
<polygon fill="#ffffff" stroke="transparent" points="321.5,-95 321.5,-113 355.5,-113 355.5,-95 321.5,-95"/>
<polygon fill="none" stroke="#000000" points="321.5,-95 321.5,-113 355.5,-113 355.5,-95 321.5,-95"/>
<text text-anchor="start" x="330.5" y="-101.2" font-family="Helvetica,sans-Serif" font-size="11.00" fill="#000000">30 &gt;</text>
</a>
</g>
</g>
<!-- edition -->
<g id="node2" class="node">
<title>edition</title>
<g id="a_node2"><a xlink:href="../../tables/edition.html" xlink:title="edition" target="_top">
<polygon fill="#ffffff" stroke="transparent" points="8,-37 8,-139 143,-139 143,-37 8,-37"/>
<polygon fill="#f5f5f5" stroke="transparent" points="8.5,-117 8.5,-139 143.5,-139 143.5,-117 8.5,-117"/>
<polygon fill="none" stroke="#000000" points="8.5,-117 8.5,-139 143.5,-139 143.5,-117 8.5,-117"/>
<text text-anchor="start" x="13.5" y="-126.2" font-family="Helvetica,sans-Serif" font-weight="bold" font-size="11.00" fill="#000000">edition</text>
<text text-anchor="start" x="108.5" y="-125.2" font-family="Helvetica,sans-Serif" font-size="11.00" fill="#000000">[table]</text>
<polygon fill="none" stroke="#000000" points="8.5,-95 8.5,-117 143.5,-117 143.5,-95 8.5,-95"/>
<image xlink:href="../../images/primaryKeys.png" width="11px" height="12px" preserveAspectRatio="xMinYMin meet" x="13.5" y="-112"/>
<text text-anchor="start" x="28.5" y="-103.2" font-family="Helvetica,sans-Serif" font-size="11.00" fill="#000000">edition_id</text>
<polygon fill="#ffffff" stroke="transparent" points="8.5,-73 8.5,-95 143.5,-95 143.5,-73 8.5,-73"/>
<polygon fill="none" stroke="#000000" points="8.5,-73 8.5,-95 143.5,-95 143.5,-73 8.5,-73"/>
<image xlink:href="../../images/foreignKeys.png" width="11px" height="12px" preserveAspectRatio="xMinYMin meet" x="13.5" y="-90"/>
<text text-anchor="start" x="28.5" y="-81.2" font-family="Helvetica,sans-Serif" font-size="11.00" fill="#000000">manuscript_id</text>
<polygon fill="none" stroke="#000000" points="8.5,-55 8.5,-73 143.5,-73 143.5,-55 8.5,-55"/>
<text text-anchor="start" x="11.5" y="-61.2" font-family="Helvetica,sans-Serif" font-size="11.00" fill="#000000">...</text>
<polygon fill="#ffffff" stroke="transparent" points="8.5,-37 8.5,-55 42.5,-55 42.5,-37 8.5,-37"/>
<polygon fill="none" stroke="#000000" points="8.5,-37 8.5,-55 42.5,-55 42.5,-37 8.5,-37"/>
<text text-anchor="start" x="11.5" y="-43.2" font-family="Helvetica,sans-Serif" font-size="11.00" fill="#000000">&lt; 1</text>
<polygon fill="#ffffff" stroke="transparent" points="42.5,-37 42.5,-55 108.5,-55 108.5,-37 42.5,-37"/>
<polygon fill="none" stroke="#000000" points="42.5,-37 42.5,-55 108.5,-55 108.5,-37 42.5,-37"/>
<text text-anchor="start" x="51.5" y="-43.2" font-family="Helvetica,sans-Serif" font-size="11.00" fill="#000000">1,645 rows</text>
<polygon fill="#ffffff" stroke="transparent" points="108.5,-37 108.5,-55 143.5,-55 143.5,-37 108.5,-37"/>
<polygon fill="none" stroke="#000000" points="108.5,-37 108.5,-55 143.5,-55 143.5,-37 108.5,-37"/>
<text text-anchor="start" x="118.5" y="-43.2" font-family="Helvetica,sans-Serif" font-size="11.00" fill="#000000">32 &gt;</text>
</a>
</g>
</g>
<!-- edition_editor&#45;&gt;edition -->
<g id="edge1" class="edge">
<title>edition_editor:w&#45;&gt;edition:e</title>
<path fill="none" stroke="#000000" d="M208.1981,-140.0645C182.6735,-132.5869 176.6588,-106 143.5,-106"/>
<polygon fill="#000000" stroke="#000000" points="214.5723,-140.9271 222.0172,-145.5675 218.5361,-141.4635 222.5,-142 222.5,-142 222.5,-142 218.5361,-141.4635 222.9828,-138.4325 214.5723,-140.9271 214.5723,-140.9271"/>
<ellipse fill="none" stroke="#000000" cx="211.4012" cy="-140.4979" rx="3.2" ry="3.2"/>
</g>
<!-- sign_interpretation_roi_owner -->
<g id="node3" class="node">
<title>sign_interpretation_roi_owner</title>
<g id="a_node3"><a xlink:href="../../tables/sign_interpretation_roi_owner.html" xlink:title="sign_interpretation_roi_owner" target="_top">
<polygon fill="#ffffff" stroke="transparent" points="434,-133 434,-243 743,-243 743,-133 434,-133"/>
<polygon fill="#f5f5f5" stroke="transparent" points="436.5,-219 436.5,-241 741.5,-241 741.5,-219 436.5,-219"/>
<polygon fill="none" stroke="#000000" points="436.5,-219 436.5,-241 741.5,-241 741.5,-219 436.5,-219"/>
<text text-anchor="start" x="441.5" y="-228.2" font-family="Helvetica,sans-Serif" font-weight="bold" font-size="11.00" fill="#000000">sign_interpretation_roi_owner</text>
<text text-anchor="start" x="706.5" y="-227.2" font-family="Helvetica,sans-Serif" font-size="11.00" fill="#000000">[table]</text>
<polygon fill="none" stroke="#000000" points="436.5,-197 436.5,-219 659.5,-219 659.5,-197 436.5,-197"/>
<image xlink:href="../../images/primaryKeys.png" width="11px" height="12px" preserveAspectRatio="xMinYMin meet" x="441.5" y="-214"/>
<text text-anchor="start" x="456.5" y="-205.2" font-family="Helvetica,sans-Serif" font-size="11.00" fill="#000000">sign_interpretation_roi_id</text>
<polygon fill="none" stroke="#000000" points="659.5,-197 659.5,-219 741.5,-219 741.5,-197 659.5,-197"/>
<text text-anchor="start" x="662.5" y="-205.2" font-family="Helvetica,sans-Serif" font-size="11.00" fill="#000000">int unsigned[10]</text>
<polygon fill="#ffffff" stroke="transparent" points="436.5,-175 436.5,-197 659.5,-197 659.5,-175 436.5,-175"/>
<polygon fill="none" stroke="#000000" points="436.5,-175 436.5,-197 659.5,-197 659.5,-175 436.5,-175"/>
<image xlink:href="../../images/foreignKeys.png" width="11px" height="12px" preserveAspectRatio="xMinYMin meet" x="441.5" y="-192"/>
<text text-anchor="start" x="456.5" y="-183.2" font-family="Helvetica,sans-Serif" font-size="11.00" fill="#000000">edition_editor_id</text>
<polygon fill="none" stroke="#000000" points="659.5,-175 659.5,-197 741.5,-197 741.5,-175 659.5,-175"/>
<text text-anchor="start" x="662.5" y="-183.2" font-family="Helvetica,sans-Serif" font-size="11.00" fill="#000000">int unsigned[10]</text>
<polygon fill="none" stroke="#000000" points="436.5,-153 436.5,-175 659.5,-175 659.5,-153 436.5,-153"/>
<image xlink:href="../../images/primaryKeys.png" width="11px" height="12px" preserveAspectRatio="xMinYMin meet" x="441.5" y="-170"/>
<text text-anchor="start" x="456.5" y="-161.2" font-family="Helvetica,sans-Serif" font-size="11.00" fill="#000000">edition_id</text>
<polygon fill="none" stroke="#000000" points="659.5,-153 659.5,-175 741.5,-175 741.5,-153 659.5,-153"/>
<text text-anchor="start" x="662.5" y="-161.2" font-family="Helvetica,sans-Serif" font-size="11.00" fill="#000000">int unsigned[10]</text>
<polygon fill="#ffffff" stroke="transparent" points="436.5,-135 436.5,-153 539.5,-153 539.5,-135 436.5,-135"/>
<polygon fill="none" stroke="#000000" points="436.5,-135 436.5,-153 539.5,-153 539.5,-135 436.5,-135"/>
<text text-anchor="start" x="439.5" y="-141.2" font-family="Helvetica,sans-Serif" font-size="11.00" fill="#000000">&lt; 3</text>
<polygon fill="#ffffff" stroke="transparent" points="539.5,-135 539.5,-153 659.5,-153 659.5,-135 539.5,-135"/>
<polygon fill="none" stroke="#000000" points="539.5,-135 539.5,-153 659.5,-153 659.5,-135 539.5,-135"/>
<text text-anchor="start" x="623.5" y="-141.2" font-family="Helvetica,sans-Serif" font-size="11.00" fill="#000000">0 rows</text>
<polygon fill="#ffffff" stroke="transparent" points="659.5,-135 659.5,-153 741.5,-153 741.5,-135 659.5,-135"/>
<polygon fill="none" stroke="#000000" points="659.5,-135 659.5,-153 741.5,-153 741.5,-135 659.5,-135"/>
<text text-anchor="start" x="722.5" y="-141.2" font-family="Helvetica,sans-Serif" font-size="11.00" fill="#000000">0 &gt;</text>
<polygon fill="none" stroke="#000000" stroke-width="2" points="435,-134 435,-242 742,-242 742,-134 435,-134"/>
</a>
</g>
</g>
<!-- sign_interpretation_roi_owner&#45;&gt;edition_editor -->
<g id="edge2" class="edge">
<title>sign_interpretation_roi_owner:w&#45;&gt;edition_editor:e</title>
<path fill="none" stroke="#000000" d="M422.0769,-186C397.2332,-186 386.1563,-186 355.5,-186"/>
<polygon fill="#000000" stroke="#000000" points="428.5,-186.0001 436.5,-189.6 432.5,-186 436.5,-186 436.5,-186 436.5,-186 432.5,-186 436.5,-182.4 428.5,-186.0001 428.5,-186.0001"/>
<ellipse fill="none" stroke="#000000" cx="425.3" cy="-186.0001" rx="3.2" ry="3.2"/>
</g>
<!-- sign_interpretation_roi_owner&#45;&gt;edition -->
<g id="edge3" class="edge">
<title>sign_interpretation_roi_owner:w&#45;&gt;edition:e</title>
<path fill="none" stroke="#000000" d="M422.5416,-160.2163C404.1605,-146.8233 422.4884,-101.5315 393,-84 313.1561,-36.531 274.0285,-61.1263 184,-84 164.1465,-89.0442 163.9843,-106 143.5,-106"/>
<polygon fill="#000000" stroke="#000000" points="428.7786,-161.9069 435.5581,-167.4746 432.6393,-162.9535 436.5,-164 436.5,-164 436.5,-164 432.6393,-162.9535 437.4419,-160.5254 428.7786,-161.9069 428.7786,-161.9069"/>
<ellipse fill="none" stroke="#000000" cx="425.6901" cy="-161.0697" rx="3.2" ry="3.2"/>
</g>
<!-- sign_interpretation_roi -->
<g id="node4" class="node">
<title>sign_interpretation_roi</title>
<g id="a_node4"><a xlink:href="../../tables/sign_interpretation_roi.html" xlink:title="sign_interpretation_roi" target="_top">
<polygon fill="#ffffff" stroke="transparent" points="192,-240 192,-408 385,-408 385,-240 192,-240"/>
<polygon fill="#f5f5f5" stroke="transparent" points="192.5,-386 192.5,-408 385.5,-408 385.5,-386 192.5,-386"/>
<polygon fill="none" stroke="#000000" points="192.5,-386 192.5,-408 385.5,-408 385.5,-386 192.5,-386"/>
<text text-anchor="start" x="197.5" y="-395.2" font-family="Helvetica,sans-Serif" font-weight="bold" font-size="11.00" fill="#000000">sign_interpretation_roi</text>
<text text-anchor="start" x="350.5" y="-394.2" font-family="Helvetica,sans-Serif" font-size="11.00" fill="#000000">[table]</text>
<polygon fill="none" stroke="#000000" points="192.5,-364 192.5,-386 385.5,-386 385.5,-364 192.5,-364"/>
<image xlink:href="../../images/primaryKeys.png" width="11px" height="12px" preserveAspectRatio="xMinYMin meet" x="197.5" y="-381"/>
<text text-anchor="start" x="212.5" y="-372.2" font-family="Helvetica,sans-Serif" font-size="11.00" fill="#000000">sign_interpretation_roi_id</text>
<polygon fill="#ffffff" stroke="transparent" points="192.5,-342 192.5,-364 385.5,-364 385.5,-342 192.5,-342"/>
<polygon fill="none" stroke="#000000" points="192.5,-342 192.5,-364 385.5,-364 385.5,-342 192.5,-342"/>
<image xlink:href="../../images/foreignKeys.png" width="11px" height="12px" preserveAspectRatio="xMinYMin meet" x="197.5" y="-359"/>
<text text-anchor="start" x="212.5" y="-350.2" font-family="Helvetica,sans-Serif" font-size="11.00" fill="#000000">sign_interpretation_id</text>
<polygon fill="#ffffff" stroke="transparent" points="192.5,-320 192.5,-342 385.5,-342 385.5,-320 192.5,-320"/>
<polygon fill="none" stroke="#000000" points="192.5,-320 192.5,-342 385.5,-342 385.5,-320 192.5,-320"/>
<image xlink:href="../../images/foreignKeys.png" width="11px" height="12px" preserveAspectRatio="xMinYMin meet" x="197.5" y="-337"/>
<text text-anchor="start" x="212.5" y="-328.2" font-family="Helvetica,sans-Serif" font-size="11.00" fill="#000000">roi_shape_id</text>
<polygon fill="#ffffff" stroke="transparent" points="192.5,-298 192.5,-320 385.5,-320 385.5,-298 192.5,-298"/>
<polygon fill="none" stroke="#000000" points="192.5,-298 192.5,-320 385.5,-320 385.5,-298 192.5,-298"/>
<image xlink:href="../../images/foreignKeys.png" width="11px" height="12px" preserveAspectRatio="xMinYMin meet" x="197.5" y="-315"/>
<text text-anchor="start" x="212.5" y="-306.2" font-family="Helvetica,sans-Serif" font-size="11.00" fill="#000000">roi_position_id</text>
<polygon fill="#ffffff" stroke="transparent" points="192.5,-276 192.5,-298 385.5,-298 385.5,-276 192.5,-276"/>
<polygon fill="none" stroke="#000000" points="192.5,-276 192.5,-298 385.5,-298 385.5,-276 192.5,-276"/>
<image xlink:href="../../images/foreignKeys.png" width="11px" height="12px" preserveAspectRatio="xMinYMin meet" x="197.5" y="-293"/>
<text text-anchor="start" x="212.5" y="-284.2" font-family="Helvetica,sans-Serif" font-size="11.00" fill="#000000">creator_id</text>
<polygon fill="none" stroke="#000000" points="192.5,-258 192.5,-276 385.5,-276 385.5,-258 192.5,-258"/>
<text text-anchor="start" x="195.5" y="-264.2" font-family="Helvetica,sans-Serif" font-size="11.00" fill="#000000">...</text>
<polygon fill="#ffffff" stroke="transparent" points="192.5,-240 192.5,-258 269.5,-258 269.5,-240 192.5,-240"/>
<polygon fill="none" stroke="#000000" points="192.5,-240 192.5,-258 269.5,-258 269.5,-240 192.5,-240"/>
<text text-anchor="start" x="195.5" y="-246.2" font-family="Helvetica,sans-Serif" font-size="11.00" fill="#000000">&lt; 4</text>
<polygon fill="#ffffff" stroke="transparent" points="269.5,-240 269.5,-258 335.5,-258 335.5,-240 269.5,-240"/>
<polygon fill="none" stroke="#000000" points="269.5,-240 269.5,-258 335.5,-258 335.5,-240 269.5,-240"/>
<text text-anchor="start" x="299.5" y="-246.2" font-family="Helvetica,sans-Serif" font-size="11.00" fill="#000000">0 rows</text>
<polygon fill="#ffffff" stroke="transparent" points="335.5,-240 335.5,-258 385.5,-258 385.5,-240 335.5,-240"/>
<polygon fill="none" stroke="#000000" points="335.5,-240 335.5,-258 385.5,-258 385.5,-240 335.5,-240"/>
<text text-anchor="start" x="366.5" y="-246.2" font-family="Helvetica,sans-Serif" font-size="11.00" fill="#000000">1 &gt;</text>
</a>
</g>
</g>
<!-- sign_interpretation_roi_owner&#45;&gt;sign_interpretation_roi -->
<g id="edge4" class="edge">
<title>sign_interpretation_roi_owner:w&#45;&gt;sign_interpretation_roi:e</title>
<path fill="none" stroke="#000000" d="M422.0764,-210.6232C373.3613,-231.8692 457.3463,-375 385.5,-375"/>
<polygon fill="#000000" stroke="#000000" points="428.6291,-209.4315 437.1442,-211.5419 432.5646,-208.7158 436.5,-208 436.5,-208 436.5,-208 432.5646,-208.7158 435.8558,-204.4581 428.6291,-209.4315 428.6291,-209.4315"/>
<ellipse fill="none" stroke="#000000" cx="425.4808" cy="-210.0041" rx="3.2" ry="3.2"/>
</g>
</g>
</svg>
