<?xml version="1.0" encoding="UTF-8" standalone="no"?>
<!DOCTYPE svg PUBLIC "-//W3C//DTD SVG 1.1//EN"
 "http://www.w3.org/Graphics/SVG/1.1/DTD/svg11.dtd">
<!-- Generated by graphviz version 2.43.0 (0)
 -->
<!-- Title: oneDegreeRelationshipsDiagram Pages: 1 -->
<svg width="460pt" height="304pt"
 viewBox="0.00 0.00 460.00 304.00" xmlns="http://www.w3.org/2000/svg" xmlns:xlink="http://www.w3.org/1999/xlink">
<g id="graph0" class="graph" transform="scale(1 1) rotate(0) translate(4 300)">
<title>oneDegreeRelationshipsDiagram</title>
<polygon fill="#ffffff" stroke="transparent" points="-4,4 -4,-300 456,-300 456,4 -4,4"/>
<text text-anchor="middle" x="79.5" y="-7.2" font-family="Helvetica,sans-Serif" font-size="11.00">Generated by SchemaSpy</text>
<!-- line_to_sign -->
<g id="node1" class="node">
<title>line_to_sign</title>
<g id="a_node1"><a xlink:href="../../tables/line_to_sign.html" xlink:title="line_to_sign" target="_top">
<polygon fill="#ffffff" stroke="transparent" points="288,-186 288,-292 431,-292 431,-186 288,-186"/>
<polygon fill="#f5f5f5" stroke="transparent" points="288.5,-270 288.5,-292 431.5,-292 431.5,-270 288.5,-270"/>
<polygon fill="none" stroke="black" points="288.5,-270 288.5,-292 431.5,-292 431.5,-270 288.5,-270"/>
<text text-anchor="start" x="293.5" y="-279.2" font-family="Helvetica,sans-Serif" font-weight="bold" font-size="11.00">line_to_sign</text>
<text text-anchor="start" x="389.5" y="-278.2" font-family="Helvetica,sans-Serif" font-size="11.00">[table]</text>
<polygon fill="none" stroke="black" points="288.5,-248 288.5,-270 431.5,-270 431.5,-248 288.5,-248"/>
<image xlink:href="../../images/primaryKeys.png" width="11px" height="12px" preserveAspectRatio="xMinYMin meet" x="293.5" y="-265"/>
<text text-anchor="start" x="321.5" y="-256.2" font-family="Helvetica,sans-Serif" font-size="11.00">line_to_sign_id</text>
<polygon fill="#ffffff" stroke="transparent" points="288.5,-226 288.5,-248 431.5,-248 431.5,-226 288.5,-226"/>
<polygon fill="none" stroke="black" points="288.5,-226 288.5,-248 431.5,-248 431.5,-226 288.5,-226"/>
<image xlink:href="../../images/foreignKeys.png" width="11px" height="12px" preserveAspectRatio="xMinYMin meet" x="293.5" y="-243"/>
<text text-anchor="start" x="321.5" y="-234.2" font-family="Helvetica,sans-Serif" font-size="11.00">sign_id</text>
<polygon fill="#ffffff" stroke="transparent" points="288.5,-204 288.5,-226 431.5,-226 431.5,-204 288.5,-204"/>
<polygon fill="none" stroke="black" points="288.5,-204 288.5,-226 431.5,-226 431.5,-204 288.5,-204"/>
<image xlink:href="../../images/foreignKeys.png" width="11px" height="12px" preserveAspectRatio="xMinYMin meet" x="293.5" y="-221"/>
<text text-anchor="start" x="321.5" y="-212.2" font-family="Helvetica,sans-Serif" font-size="11.00">line_id</text>
<polygon fill="#ffffff" stroke="transparent" points="288.5,-186 288.5,-204 314.5,-204 314.5,-186 288.5,-186"/>
<polygon fill="none" stroke="black" points="288.5,-186 288.5,-204 314.5,-204 314.5,-186 288.5,-186"/>
<text text-anchor="start" x="291.5" y="-192.2" font-family="Helvetica,sans-Serif" font-size="11.00">&lt; 2</text>
<polygon fill="#ffffff" stroke="transparent" points="314.5,-186 314.5,-204 405.5,-204 405.5,-186 314.5,-186"/>
<polygon fill="none" stroke="black" points="314.5,-186 314.5,-204 405.5,-204 405.5,-186 314.5,-186"/>
<text text-anchor="start" x="317.5" y="-192.2" font-family="Helvetica,sans-Serif" font-size="11.00">1,730,550 rows</text>
<polygon fill="#ffffff" stroke="transparent" points="405.5,-186 405.5,-204 431.5,-204 431.5,-186 405.5,-186"/>
<polygon fill="none" stroke="black" points="405.5,-186 405.5,-204 431.5,-204 431.5,-186 405.5,-186"/>
<text text-anchor="start" x="408.5" y="-192.2" font-family="Helvetica,sans-Serif" font-size="11.00">1 &gt;</text>
</a>
</g>
</g>
<!-- sign -->
<g id="node2" class="node">
<title>sign</title>
<g id="a_node2"><a xlink:href="../../tables/sign.html" xlink:title="sign" target="_top">
<polygon fill="#ffffff" stroke="transparent" points="8,-142 8,-208 226,-208 226,-142 8,-142"/>
<polygon fill="#f5f5f5" stroke="transparent" points="10,-184 10,-206 224,-206 224,-184 10,-184"/>
<polygon fill="none" stroke="black" points="10,-184 10,-206 224,-206 224,-184 10,-184"/>
<text text-anchor="start" x="15" y="-193.2" font-family="Helvetica,sans-Serif" font-weight="bold" font-size="11.00">sign</text>
<text text-anchor="start" x="182" y="-192.2" font-family="Helvetica,sans-Serif" font-size="11.00">[table]</text>
<polygon fill="none" stroke="black" points="10,-162 10,-184 127,-184 127,-162 10,-162"/>
<image xlink:href="../../images/primaryKeys.png" width="11px" height="12px" preserveAspectRatio="xMinYMin meet" x="15" y="-179"/>
<text text-anchor="start" x="55" y="-170.2" font-family="Helvetica,sans-Serif" font-size="11.00">sign_id</text>
<polygon fill="none" stroke="black" points="127,-162 127,-184 224,-184 224,-162 127,-162"/>
<text text-anchor="start" x="130" y="-170.2" font-family="Helvetica,sans-Serif" font-size="11.00">int unsigned[10]</text>
<polygon fill="#ffffff" stroke="transparent" points="10,-144 10,-162 36,-162 36,-144 10,-144"/>
<polygon fill="none" stroke="black" points="10,-144 10,-162 36,-162 36,-144 10,-144"/>
<text text-anchor="start" x="13" y="-150.2" font-family="Helvetica,sans-Serif" font-size="11.00">&lt; 0</text>
<polygon fill="#ffffff" stroke="transparent" points="36,-144 36,-162 127,-162 127,-144 36,-144"/>
<polygon fill="none" stroke="black" points="36,-144 36,-162 127,-162 127,-144 36,-144"/>
<text text-anchor="start" x="39" y="-150.2" font-family="Helvetica,sans-Serif" font-size="11.00">1,732,050 rows</text>
<polygon fill="#ffffff" stroke="transparent" points="127,-144 127,-162 224,-162 224,-144 127,-144"/>
<polygon fill="none" stroke="black" points="127,-144 127,-162 224,-162 224,-144 127,-144"/>
<text text-anchor="start" x="201" y="-150.2" font-family="Helvetica,sans-Serif" font-size="11.00">2 &gt;</text>
<polygon fill="none" stroke="black" stroke-width="2" points="9,-143 9,-207 225,-207 225,-143 9,-143"/>
</a>
</g>
</g>
<!-- line_to_sign&#45;&gt;sign -->
<g id="edge1" class="edge">
<title>line_to_sign:w&#45;&gt;sign:e</title>
<path fill="none" stroke="black" d="M273.48,-233.38C251.47,-219.84 259.01,-173 225,-173"/>
<polygon fill="black" stroke="black" points="279.75,-235 286.6,-240.49 283.63,-236 287.5,-237 287.5,-237 287.5,-237 283.63,-236 288.4,-233.51 279.75,-235 279.75,-235"/>
<ellipse fill="none" stroke="black" cx="276.66" cy="-234.2" rx="3.2" ry="3.2"/>
</g>
<!-- sign_interpretation -->
<g id="node3" class="node">
<title>sign_interpretation</title>
<g id="a_node3"><a xlink:href="../../tables/sign_interpretation.html" xlink:title="sign_interpretation" target="_top">
<polygon fill="#ffffff" stroke="transparent" points="275,-37 275,-165 444,-165 444,-37 275,-37"/>
<polygon fill="#f5f5f5" stroke="transparent" points="275.5,-143 275.5,-165 444.5,-165 444.5,-143 275.5,-143"/>
<polygon fill="none" stroke="black" points="275.5,-143 275.5,-165 444.5,-165 444.5,-143 275.5,-143"/>
<text text-anchor="start" x="280.5" y="-152.2" font-family="Helvetica,sans-Serif" font-weight="bold" font-size="11.00">sign_interpretation</text>
<text text-anchor="start" x="402.5" y="-151.2" font-family="Helvetica,sans-Serif" font-size="11.00">[table]</text>
<polygon fill="none" stroke="black" points="275.5,-121 275.5,-143 444.5,-143 444.5,-121 275.5,-121"/>
<image xlink:href="../../images/primaryKeys.png" width="11px" height="12px" preserveAspectRatio="xMinYMin meet" x="280.5" y="-138"/>
<text text-anchor="start" x="295.5" y="-129.2" font-family="Helvetica,sans-Serif" font-size="11.00">sign_interpretation_id</text>
<polygon fill="#ffffff" stroke="transparent" points="275.5,-99 275.5,-121 444.5,-121 444.5,-99 275.5,-99"/>
<polygon fill="none" stroke="black" points="275.5,-99 275.5,-121 444.5,-121 444.5,-99 275.5,-99"/>
<image xlink:href="../../images/foreignKeys.png" width="11px" height="12px" preserveAspectRatio="xMinYMin meet" x="280.5" y="-116"/>
<text text-anchor="start" x="295.5" y="-107.2" font-family="Helvetica,sans-Serif" font-size="11.00">sign_id</text>
<polygon fill="#ffffff" stroke="transparent" points="275.5,-77 275.5,-99 444.5,-99 444.5,-77 275.5,-77"/>
<polygon fill="none" stroke="black" points="275.5,-77 275.5,-99 444.5,-99 444.5,-77 275.5,-77"/>
<text text-anchor="start" x="295.5" y="-85.2" font-family="Helvetica,sans-Serif" font-size="11.00">is_variant</text>
<polygon fill="#ffffff" stroke="transparent" points="275.5,-55 275.5,-77 444.5,-77 444.5,-55 275.5,-55"/>
<polygon fill="none" stroke="black" points="275.5,-55 275.5,-77 444.5,-77 444.5,-55 275.5,-55"/>
<text text-anchor="start" x="295.5" y="-63.2" font-family="Helvetica,sans-Serif" font-size="11.00">character</text>
<polygon fill="#ffffff" stroke="transparent" points="275.5,-37 275.5,-55 314.5,-55 314.5,-37 275.5,-37"/>
<polygon fill="none" stroke="black" points="275.5,-37 275.5,-55 314.5,-55 314.5,-37 275.5,-37"/>
<text text-anchor="start" x="278.5" y="-43.2" font-family="Helvetica,sans-Serif" font-size="11.00">&lt; 1</text>
<polygon fill="#ffffff" stroke="transparent" points="314.5,-37 314.5,-55 411.5,-55 411.5,-37 314.5,-37"/>
<polygon fill="none" stroke="black" points="314.5,-37 314.5,-55 411.5,-55 411.5,-37 314.5,-37"/>
<text text-anchor="start" x="323.5" y="-43.2" font-family="Helvetica,sans-Serif" font-size="11.00">1,189,027 rows</text>
<polygon fill="#ffffff" stroke="transparent" points="411.5,-37 411.5,-55 444.5,-55 444.5,-37 411.5,-37"/>
<polygon fill="none" stroke="black" points="411.5,-37 411.5,-55 444.5,-55 444.5,-37 411.5,-37"/>
<text text-anchor="start" x="421.5" y="-43.2" font-family="Helvetica,sans-Serif" font-size="11.00">5 &gt;</text>
</a>
</g>
</g>
<!-- sign_interpretation&#45;&gt;sign -->
<g id="edge2" class="edge">
<title>sign_interpretation:w&#45;&gt;sign:e</title>
<path fill="none" stroke="black" d="M260.64,-114.94C244.66,-129.8 254.49,-173 225,-173"/>
<polygon fill="black" stroke="black" points="266.96,-112.69 275.71,-113.39 270.73,-111.34 274.5,-110 274.5,-110 274.5,-110 270.73,-111.34 273.29,-106.61 266.96,-112.69 266.96,-112.69"/>
<ellipse fill="none" stroke="black" cx="263.95" cy="-113.76" rx="3.2" ry="3.2"/>
</g>
</g>
</svg>
