<?xml version="1.0" encoding="UTF-8" standalone="no"?>
<!DOCTYPE svg PUBLIC "-//W3C//DTD SVG 1.1//EN"
 "http://www.w3.org/Graphics/SVG/1.1/DTD/svg11.dtd">
<!-- Generated by graphviz version 2.40.1 (20161225.0304)
 -->
<!-- Title: oneDegreeRelationshipsDiagramImplied Pages: 1 -->
<svg width="724pt" height="354pt"
 viewBox="0.00 0.00 724.00 354.00" xmlns="http://www.w3.org/2000/svg" xmlns:xlink="http://www.w3.org/1999/xlink">
<g id="graph0" class="graph" transform="scale(1 1) rotate(0) translate(4 350)">
<title>oneDegreeRelationshipsDiagramImplied</title>
<polygon fill="#ffffff" stroke="transparent" points="-4,4 -4,-350 720,-350 720,4 -4,4"/>
<text text-anchor="middle" x="71.5" y="-7.2" font-family="Helvetica,sans-Serif" font-size="11.00" fill="#000000">Generated by SchemaSpy</text>
<!-- edition_editor -->
<g id="node1" class="node">
<title>edition_editor</title>
<g id="a_node1"><a xlink:href="../../tables/edition_editor.html" xlink:title="edition_editor" target="_top">
<polygon fill="#ffffff" stroke="transparent" points="213.5,-95 213.5,-219 346.5,-219 346.5,-95 213.5,-95"/>
<polygon fill="#f5f5f5" stroke="transparent" points="214,-197 214,-219 347,-219 347,-197 214,-197"/>
<polygon fill="none" stroke="#000000" points="214,-197 214,-219 347,-219 347,-197 214,-197"/>
<text text-anchor="start" x="219" y="-206.2" font-family="Helvetica,sans-Serif" font-weight="bold" font-size="11.00" fill="#000000">edition_editor</text>
<text text-anchor="start" x="312" y="-205.2" font-family="Helvetica,sans-Serif" font-size="11.00" fill="#000000">[table]</text>
<polygon fill="none" stroke="#000000" points="214,-175 214,-197 347,-197 347,-175 214,-175"/>
<image xlink:href="../../images/primaryKeys.png" width="11px" height="12px" preserveAspectRatio="xMinYMin meet" x="219" y="-192"/>
<text text-anchor="start" x="234" y="-183.2" font-family="Helvetica,sans-Serif" font-size="11.00" fill="#000000">edition_editor_id</text>
<polygon fill="#ffffff" stroke="transparent" points="214,-153 214,-175 347,-175 347,-153 214,-153"/>
<polygon fill="none" stroke="#000000" points="214,-153 214,-175 347,-175 347,-153 214,-153"/>
<image xlink:href="../../images/foreignKeys.png" width="11px" height="12px" preserveAspectRatio="xMinYMin meet" x="219" y="-170"/>
<text text-anchor="start" x="234" y="-161.2" font-family="Helvetica,sans-Serif" font-size="11.00" fill="#000000">user_id</text>
<polygon fill="#ffffff" stroke="transparent" points="214,-131 214,-153 347,-153 347,-131 214,-131"/>
<polygon fill="none" stroke="#000000" points="214,-131 214,-153 347,-153 347,-131 214,-131"/>
<image xlink:href="../../images/foreignKeys.png" width="11px" height="12px" preserveAspectRatio="xMinYMin meet" x="219" y="-148"/>
<text text-anchor="start" x="234" y="-139.2" font-family="Helvetica,sans-Serif" font-size="11.00" fill="#000000">edition_id</text>
<polygon fill="none" stroke="#000000" points="214,-113 214,-131 347,-131 347,-113 214,-113"/>
<text text-anchor="start" x="217" y="-119.2" font-family="Helvetica,sans-Serif" font-size="11.00" fill="#000000">...</text>
<polygon fill="#ffffff" stroke="transparent" points="214,-95 214,-113 247,-113 247,-95 214,-95"/>
<polygon fill="none" stroke="#000000" points="214,-95 214,-113 247,-113 247,-95 214,-95"/>
<text text-anchor="start" x="217" y="-101.2" font-family="Helvetica,sans-Serif" font-size="11.00" fill="#000000">&lt; 2</text>
<polygon fill="#ffffff" stroke="transparent" points="247,-95 247,-113 313,-113 313,-95 247,-95"/>
<polygon fill="none" stroke="#000000" points="247,-95 247,-113 313,-113 313,-95 247,-95"/>
<text text-anchor="start" x="256" y="-101.2" font-family="Helvetica,sans-Serif" font-size="11.00" fill="#000000">1,645 rows</text>
<polygon fill="#ffffff" stroke="transparent" points="313,-95 313,-113 347,-113 347,-95 313,-95"/>
<polygon fill="none" stroke="#000000" points="313,-95 313,-113 347,-113 347,-95 313,-95"/>
<text text-anchor="start" x="322" y="-101.2" font-family="Helvetica,sans-Serif" font-size="11.00" fill="#000000">30 &gt;</text>
</a>
</g>
</g>
<!-- edition -->
<g id="node2" class="node">
<title>edition</title>
<g id="a_node2"><a xlink:href="../../tables/edition.html" xlink:title="edition" target="_top">
<polygon fill="#ffffff" stroke="transparent" points="8,-37 8,-139 143,-139 143,-37 8,-37"/>
<polygon fill="#f5f5f5" stroke="transparent" points="8.5,-117 8.5,-139 143.5,-139 143.5,-117 8.5,-117"/>
<polygon fill="none" stroke="#000000" points="8.5,-117 8.5,-139 143.5,-139 143.5,-117 8.5,-117"/>
<text text-anchor="start" x="13.5" y="-126.2" font-family="Helvetica,sans-Serif" font-weight="bold" font-size="11.00" fill="#000000">edition</text>
<text text-anchor="start" x="108.5" y="-125.2" font-family="Helvetica,sans-Serif" font-size="11.00" fill="#000000">[table]</text>
<polygon fill="none" stroke="#000000" points="8.5,-95 8.5,-117 143.5,-117 143.5,-95 8.5,-95"/>
<image xlink:href="../../images/primaryKeys.png" width="11px" height="12px" preserveAspectRatio="xMinYMin meet" x="13.5" y="-112"/>
<text text-anchor="start" x="28.5" y="-103.2" font-family="Helvetica,sans-Serif" font-size="11.00" fill="#000000">edition_id</text>
<polygon fill="#ffffff" stroke="transparent" points="8.5,-73 8.5,-95 143.5,-95 143.5,-73 8.5,-73"/>
<polygon fill="none" stroke="#000000" points="8.5,-73 8.5,-95 143.5,-95 143.5,-73 8.5,-73"/>
<image xlink:href="../../images/foreignKeys.png" width="11px" height="12px" preserveAspectRatio="xMinYMin meet" x="13.5" y="-90"/>
<text text-anchor="start" x="28.5" y="-81.2" font-family="Helvetica,sans-Serif" font-size="11.00" fill="#000000">manuscript_id</text>
<polygon fill="none" stroke="#000000" points="8.5,-55 8.5,-73 143.5,-73 143.5,-55 8.5,-55"/>
<text text-anchor="start" x="11.5" y="-61.2" font-family="Helvetica,sans-Serif" font-size="11.00" fill="#000000">...</text>
<polygon fill="#ffffff" stroke="transparent" points="8.5,-37 8.5,-55 42.5,-55 42.5,-37 8.5,-37"/>
<polygon fill="none" stroke="#000000" points="8.5,-37 8.5,-55 42.5,-55 42.5,-37 8.5,-37"/>
<text text-anchor="start" x="11.5" y="-43.2" font-family="Helvetica,sans-Serif" font-size="11.00" fill="#000000">&lt; 1</text>
<polygon fill="#ffffff" stroke="transparent" points="42.5,-37 42.5,-55 108.5,-55 108.5,-37 42.5,-37"/>
<polygon fill="none" stroke="#000000" points="42.5,-37 42.5,-55 108.5,-55 108.5,-37 42.5,-37"/>
<text text-anchor="start" x="51.5" y="-43.2" font-family="Helvetica,sans-Serif" font-size="11.00" fill="#000000">1,645 rows</text>
<polygon fill="#ffffff" stroke="transparent" points="108.5,-37 108.5,-55 143.5,-55 143.5,-37 108.5,-37"/>
<polygon fill="none" stroke="#000000" points="108.5,-37 108.5,-55 143.5,-55 143.5,-37 108.5,-37"/>
<text text-anchor="start" x="118.5" y="-43.2" font-family="Helvetica,sans-Serif" font-size="11.00" fill="#000000">32 &gt;</text>
</a>
</g>
</g>
<!-- edition_editor&#45;&gt;edition -->
<g id="edge1" class="edge">
<title>edition_editor:w&#45;&gt;edition:e</title>
<path fill="none" stroke="#000000" d="M199.505,-139.5256C177.8755,-131.3922 173.0474,-106 143.5,-106"/>
<polygon fill="#000000" stroke="#000000" points="206.1141,-140.6538 213.3942,-145.5487 210.057,-141.3269 214,-142 214,-142 214,-142 210.057,-141.3269 214.6058,-138.4513 206.1141,-140.6538 206.1141,-140.6538"/>
<ellipse fill="none" stroke="#000000" cx="202.9597" cy="-140.1153" rx="3.2" ry="3.2"/>
</g>
<!-- sign_stream_section_owner -->
<g id="node3" class="node">
<title>sign_stream_section_owner</title>
<g id="a_node3"><a xlink:href="../../tables/sign_stream_section_owner.html" xlink:title="sign_stream_section_owner" target="_top">
<polygon fill="#ffffff" stroke="transparent" points="417,-133 417,-243 708,-243 708,-133 417,-133"/>
<polygon fill="#f5f5f5" stroke="transparent" points="419.5,-219 419.5,-241 706.5,-241 706.5,-219 419.5,-219"/>
<polygon fill="none" stroke="#000000" points="419.5,-219 419.5,-241 706.5,-241 706.5,-219 419.5,-219"/>
<text text-anchor="start" x="424.5" y="-228.2" font-family="Helvetica,sans-Serif" font-weight="bold" font-size="11.00" fill="#000000">sign_stream_section_owner</text>
<text text-anchor="start" x="671.5" y="-227.2" font-family="Helvetica,sans-Serif" font-size="11.00" fill="#000000">[table]</text>
<polygon fill="none" stroke="#000000" points="419.5,-197 419.5,-219 624.5,-219 624.5,-197 419.5,-197"/>
<image xlink:href="../../images/primaryKeys.png" width="11px" height="12px" preserveAspectRatio="xMinYMin meet" x="424.5" y="-214"/>
<text text-anchor="start" x="439.5" y="-205.2" font-family="Helvetica,sans-Serif" font-size="11.00" fill="#000000">sign_stream_section_id</text>
<polygon fill="none" stroke="#000000" points="624.5,-197 624.5,-219 706.5,-219 706.5,-197 624.5,-197"/>
<text text-anchor="start" x="627.5" y="-205.2" font-family="Helvetica,sans-Serif" font-size="11.00" fill="#000000">int unsigned[10]</text>
<polygon fill="#ffffff" stroke="transparent" points="419.5,-175 419.5,-197 624.5,-197 624.5,-175 419.5,-175"/>
<polygon fill="none" stroke="#000000" points="419.5,-175 419.5,-197 624.5,-197 624.5,-175 419.5,-175"/>
<image xlink:href="../../images/foreignKeys.png" width="11px" height="12px" preserveAspectRatio="xMinYMin meet" x="424.5" y="-192"/>
<text text-anchor="start" x="439.5" y="-183.2" font-family="Helvetica,sans-Serif" font-size="11.00" fill="#000000">edition_editor_id</text>
<polygon fill="none" stroke="#000000" points="624.5,-175 624.5,-197 706.5,-197 706.5,-175 624.5,-175"/>
<text text-anchor="start" x="627.5" y="-183.2" font-family="Helvetica,sans-Serif" font-size="11.00" fill="#000000">int unsigned[10]</text>
<polygon fill="none" stroke="#000000" points="419.5,-153 419.5,-175 624.5,-175 624.5,-153 419.5,-153"/>
<image xlink:href="../../images/primaryKeys.png" width="11px" height="12px" preserveAspectRatio="xMinYMin meet" x="424.5" y="-170"/>
<text text-anchor="start" x="439.5" y="-161.2" font-family="Helvetica,sans-Serif" font-size="11.00" fill="#000000">edition_id</text>
<polygon fill="none" stroke="#000000" points="624.5,-153 624.5,-175 706.5,-175 706.5,-153 624.5,-153"/>
<text text-anchor="start" x="627.5" y="-161.2" font-family="Helvetica,sans-Serif" font-size="11.00" fill="#000000">int unsigned[10]</text>
<polygon fill="#ffffff" stroke="transparent" points="419.5,-135 419.5,-153 496.5,-153 496.5,-135 419.5,-135"/>
<polygon fill="none" stroke="#000000" points="419.5,-135 419.5,-153 496.5,-153 496.5,-135 419.5,-135"/>
<text text-anchor="start" x="422.5" y="-141.2" font-family="Helvetica,sans-Serif" font-size="11.00" fill="#000000">&lt; 3</text>
<polygon fill="#ffffff" stroke="transparent" points="496.5,-135 496.5,-153 624.5,-153 624.5,-135 496.5,-135"/>
<polygon fill="none" stroke="#000000" points="496.5,-135 496.5,-153 624.5,-153 624.5,-135 496.5,-135"/>
<text text-anchor="start" x="555.5" y="-141.2" font-family="Helvetica,sans-Serif" font-size="11.00" fill="#000000">327,684 rows</text>
<polygon fill="#ffffff" stroke="transparent" points="624.5,-135 624.5,-153 706.5,-153 706.5,-135 624.5,-135"/>
<polygon fill="none" stroke="#000000" points="624.5,-135 624.5,-153 706.5,-153 706.5,-135 624.5,-135"/>
<text text-anchor="start" x="687.5" y="-141.2" font-family="Helvetica,sans-Serif" font-size="11.00" fill="#000000">0 &gt;</text>
<polygon fill="none" stroke="#000000" stroke-width="2" points="418,-134 418,-242 707,-242 707,-134 418,-134"/>
</a>
</g>
</g>
<!-- sign_stream_section_owner&#45;&gt;edition_editor -->
<g id="edge2" class="edge">
<title>sign_stream_section_owner:w&#45;&gt;edition_editor:e</title>
<path fill="none" stroke="#000000" d="M405.0794,-186C383.8898,-186 373.8099,-186 347,-186"/>
<polygon fill="#000000" stroke="#000000" points="411.5,-186.0001 419.5,-189.6 415.5,-186 419.5,-186 419.5,-186 419.5,-186 415.5,-186 419.5,-182.4 411.5,-186.0001 411.5,-186.0001"/>
<ellipse fill="none" stroke="#000000" cx="408.3" cy="-186.0001" rx="3.2" ry="3.2"/>
</g>
<!-- sign_stream_section_owner&#45;&gt;edition -->
<g id="edge3" class="edge">
<title>sign_stream_section_owner:w&#45;&gt;edition:e</title>
<path fill="none" stroke="#000000" d="M405.5416,-160.2163C387.1605,-146.8233 405.4884,-101.5315 376,-84 302.6506,-40.3921 266.7056,-62.9868 184,-84 164.1465,-89.0442 163.9843,-106 143.5,-106"/>
<polygon fill="#000000" stroke="#000000" points="411.7786,-161.9069 418.5581,-167.4746 415.6393,-162.9535 419.5,-164 419.5,-164 419.5,-164 415.6393,-162.9535 420.4419,-160.5254 411.7786,-161.9069 411.7786,-161.9069"/>
<ellipse fill="none" stroke="#000000" cx="408.6901" cy="-161.0697" rx="3.2" ry="3.2"/>
</g>
<!-- sign_stream_section -->
<g id="node4" class="node">
<title>sign_stream_section</title>
<g id="a_node4"><a xlink:href="../../tables/sign_stream_section.html" xlink:title="sign_stream_section" target="_top">
<polygon fill="#ffffff" stroke="transparent" points="192,-240 192,-342 368,-342 368,-240 192,-240"/>
<polygon fill="#f5f5f5" stroke="transparent" points="192,-320 192,-342 368,-342 368,-320 192,-320"/>
<polygon fill="none" stroke="#000000" points="192,-320 192,-342 368,-342 368,-320 192,-320"/>
<text text-anchor="start" x="197" y="-329.2" font-family="Helvetica,sans-Serif" font-weight="bold" font-size="11.00" fill="#000000">sign_stream_section</text>
<text text-anchor="start" x="333" y="-328.2" font-family="Helvetica,sans-Serif" font-size="11.00" fill="#000000">[table]</text>
<polygon fill="none" stroke="#000000" points="192,-298 192,-320 368,-320 368,-298 192,-298"/>
<image xlink:href="../../images/primaryKeys.png" width="11px" height="12px" preserveAspectRatio="xMinYMin meet" x="197" y="-315"/>
<text text-anchor="start" x="212" y="-306.2" font-family="Helvetica,sans-Serif" font-size="11.00" fill="#000000">sign_stream_section_id</text>
<polygon fill="#ffffff" stroke="transparent" points="192,-276 192,-298 368,-298 368,-276 192,-276"/>
<polygon fill="none" stroke="#000000" points="192,-276 192,-298 368,-298 368,-276 192,-276"/>
<image xlink:href="../../images/foreignKeys.png" width="11px" height="12px" preserveAspectRatio="xMinYMin meet" x="197" y="-293"/>
<text text-anchor="start" x="212" y="-284.2" font-family="Helvetica,sans-Serif" font-size="11.00" fill="#000000">creator_id</text>
<polygon fill="none" stroke="#000000" points="192,-258 192,-276 368,-276 368,-258 192,-258"/>
<text text-anchor="start" x="195" y="-264.2" font-family="Helvetica,sans-Serif" font-size="11.00" fill="#000000">...</text>
<polygon fill="#ffffff" stroke="transparent" points="192,-240 192,-258 244,-258 244,-240 192,-240"/>
<polygon fill="none" stroke="#000000" points="192,-240 192,-258 244,-258 244,-240 192,-240"/>
<text text-anchor="start" x="195" y="-246.2" font-family="Helvetica,sans-Serif" font-size="11.00" fill="#000000">&lt; 1</text>
<polygon fill="#ffffff" stroke="transparent" points="244,-240 244,-258 331,-258 331,-240 244,-240"/>
<polygon fill="none" stroke="#000000" points="244,-240 244,-258 331,-258 331,-240 244,-240"/>
<text text-anchor="start" x="262" y="-246.2" font-family="Helvetica,sans-Serif" font-size="11.00" fill="#000000">327,795 rows</text>
<polygon fill="#ffffff" stroke="transparent" points="331,-240 331,-258 368,-258 368,-240 331,-240"/>
<polygon fill="none" stroke="#000000" points="331,-240 331,-258 368,-258 368,-240 331,-240"/>
<text text-anchor="start" x="349" y="-246.2" font-family="Helvetica,sans-Serif" font-size="11.00" fill="#000000">4 &gt;</text>
</a>
</g>
</g>
<!-- sign_stream_section_owner&#45;&gt;sign_stream_section -->
<g id="edge4" class="edge">
<title>sign_stream_section_owner:w&#45;&gt;sign_stream_section:e</title>
<path fill="none" stroke="#000000" d="M405.5708,-211.836C379.2926,-230.2849 412.4828,-309 368,-309"/>
<polygon fill="#000000" stroke="#000000" points="411.7871,-210.1241 420.4558,-211.4708 415.6436,-209.0621 419.5,-208 419.5,-208 419.5,-208 415.6436,-209.0621 418.5442,-204.5292 411.7871,-210.1241 411.7871,-210.1241"/>
<ellipse fill="none" stroke="#000000" cx="408.702" cy="-210.9737" rx="3.2" ry="3.2"/>
</g>
</g>
</svg>
