<?xml version="1.0" encoding="UTF-8" standalone="no"?>
<!DOCTYPE svg PUBLIC "-//W3C//DTD SVG 1.1//EN"
 "http://www.w3.org/Graphics/SVG/1.1/DTD/svg11.dtd">
<!-- Generated by graphviz version 2.43.0 (0)
 -->
<!-- Title: oneDegreeRelationshipsDiagram Pages: 1 -->
<svg width="907pt" height="376pt"
 viewBox="0.00 0.00 907.00 376.00" xmlns="http://www.w3.org/2000/svg" xmlns:xlink="http://www.w3.org/1999/xlink">
<g id="graph0" class="graph" transform="scale(1 1) rotate(0) translate(4 372)">
<title>oneDegreeRelationshipsDiagram</title>
<polygon fill="#ffffff" stroke="transparent" points="-4,4 -4,-372 903,-372 903,4 -4,4"/>
<text text-anchor="middle" x="79.5" y="-7.2" font-family="Helvetica,sans-Serif" font-size="11.00">Generated by SchemaSpy</text>
<!-- edition_editor -->
<g id="node1" class="node">
<title>edition_editor</title>
<g id="a_node1"><a xlink:href="../../tables/edition_editor.html" xlink:title="edition_editor" target="_top">
<polygon fill="#ffffff" stroke="transparent" points="254,-95 254,-219 390,-219 390,-95 254,-95"/>
<polygon fill="#f5f5f5" stroke="transparent" points="254,-197 254,-219 390,-219 390,-197 254,-197"/>
<polygon fill="none" stroke="black" points="254,-197 254,-219 390,-219 390,-197 254,-197"/>
<text text-anchor="start" x="259" y="-206.2" font-family="Helvetica,sans-Serif" font-weight="bold" font-size="11.00">edition_editor</text>
<text text-anchor="start" x="348" y="-205.2" font-family="Helvetica,sans-Serif" font-size="11.00">[table]</text>
<polygon fill="none" stroke="black" points="254,-175 254,-197 390,-197 390,-175 254,-175"/>
<image xlink:href="../../images/primaryKeys.png" width="11px" height="12px" preserveAspectRatio="xMinYMin meet" x="259" y="-192"/>
<text text-anchor="start" x="276" y="-183.2" font-family="Helvetica,sans-Serif" font-size="11.00">edition_editor_id</text>
<polygon fill="#ffffff" stroke="transparent" points="254,-153 254,-175 390,-175 390,-153 254,-153"/>
<polygon fill="none" stroke="black" points="254,-153 254,-175 390,-175 390,-153 254,-153"/>
<image xlink:href="../../images/foreignKeys.png" width="11px" height="12px" preserveAspectRatio="xMinYMin meet" x="259" y="-170"/>
<text text-anchor="start" x="276" y="-161.2" font-family="Helvetica,sans-Serif" font-size="11.00">user_id</text>
<polygon fill="#ffffff" stroke="transparent" points="254,-131 254,-153 390,-153 390,-131 254,-131"/>
<polygon fill="none" stroke="black" points="254,-131 254,-153 390,-153 390,-131 254,-131"/>
<image xlink:href="../../images/foreignKeys.png" width="11px" height="12px" preserveAspectRatio="xMinYMin meet" x="259" y="-148"/>
<text text-anchor="start" x="276" y="-139.2" font-family="Helvetica,sans-Serif" font-size="11.00">edition_id</text>
<polygon fill="none" stroke="black" points="254,-113 254,-131 390,-131 390,-113 254,-113"/>
<text text-anchor="start" x="257" y="-119.2" font-family="Helvetica,sans-Serif" font-size="11.00">...</text>
<polygon fill="#ffffff" stroke="transparent" points="254,-95 254,-113 285,-113 285,-95 254,-95"/>
<polygon fill="none" stroke="black" points="254,-95 254,-113 285,-113 285,-95 254,-95"/>
<text text-anchor="start" x="257" y="-101.2" font-family="Helvetica,sans-Serif" font-size="11.00">&lt; 2</text>
<polygon fill="#ffffff" stroke="transparent" points="285,-95 285,-113 354,-113 354,-95 285,-95"/>
<polygon fill="none" stroke="black" points="285,-95 285,-113 354,-113 354,-95 285,-95"/>
<text text-anchor="start" x="290" y="-101.2" font-family="Helvetica,sans-Serif" font-size="11.00">1,645 rows</text>
<polygon fill="#ffffff" stroke="transparent" points="354,-95 354,-113 390,-113 390,-95 354,-95"/>
<polygon fill="none" stroke="black" points="354,-95 354,-113 390,-113 390,-95 354,-95"/>
<text text-anchor="start" x="360" y="-101.2" font-family="Helvetica,sans-Serif" font-size="11.00">33 &gt;</text>
</a>
</g>
</g>
<!-- edition -->
<g id="node2" class="node">
<title>edition</title>
<g id="a_node2"><a xlink:href="../../tables/edition.html" xlink:title="edition" target="_top">
<polygon fill="#ffffff" stroke="transparent" points="8,-37 8,-139 143,-139 143,-37 8,-37"/>
<polygon fill="#f5f5f5" stroke="transparent" points="8.5,-117 8.5,-139 143.5,-139 143.5,-117 8.5,-117"/>
<polygon fill="none" stroke="black" points="8.5,-117 8.5,-139 143.5,-139 143.5,-117 8.5,-117"/>
<text text-anchor="start" x="13.5" y="-126.2" font-family="Helvetica,sans-Serif" font-weight="bold" font-size="11.00">edition</text>
<text text-anchor="start" x="101.5" y="-125.2" font-family="Helvetica,sans-Serif" font-size="11.00">[table]</text>
<polygon fill="none" stroke="black" points="8.5,-95 8.5,-117 143.5,-117 143.5,-95 8.5,-95"/>
<image xlink:href="../../images/primaryKeys.png" width="11px" height="12px" preserveAspectRatio="xMinYMin meet" x="13.5" y="-112"/>
<text text-anchor="start" x="28.5" y="-103.2" font-family="Helvetica,sans-Serif" font-size="11.00">edition_id</text>
<polygon fill="#ffffff" stroke="transparent" points="8.5,-73 8.5,-95 143.5,-95 143.5,-73 8.5,-73"/>
<polygon fill="none" stroke="black" points="8.5,-73 8.5,-95 143.5,-95 143.5,-73 8.5,-73"/>
<image xlink:href="../../images/foreignKeys.png" width="11px" height="12px" preserveAspectRatio="xMinYMin meet" x="13.5" y="-90"/>
<text text-anchor="start" x="28.5" y="-81.2" font-family="Helvetica,sans-Serif" font-size="11.00">manuscript_id</text>
<polygon fill="none" stroke="black" points="8.5,-55 8.5,-73 143.5,-73 143.5,-55 8.5,-55"/>
<text text-anchor="start" x="11.5" y="-61.2" font-family="Helvetica,sans-Serif" font-size="11.00">...</text>
<polygon fill="#ffffff" stroke="transparent" points="8.5,-37 8.5,-55 38.5,-55 38.5,-37 8.5,-37"/>
<polygon fill="none" stroke="black" points="8.5,-37 8.5,-55 38.5,-55 38.5,-37 8.5,-37"/>
<text text-anchor="start" x="11.5" y="-43.2" font-family="Helvetica,sans-Serif" font-size="11.00">&lt; 1</text>
<polygon fill="#ffffff" stroke="transparent" points="38.5,-37 38.5,-55 107.5,-55 107.5,-37 38.5,-37"/>
<polygon fill="none" stroke="black" points="38.5,-37 38.5,-55 107.5,-55 107.5,-37 38.5,-37"/>
<text text-anchor="start" x="43.5" y="-43.2" font-family="Helvetica,sans-Serif" font-size="11.00">1,645 rows</text>
<polygon fill="#ffffff" stroke="transparent" points="107.5,-37 107.5,-55 143.5,-55 143.5,-37 107.5,-37"/>
<polygon fill="none" stroke="black" points="107.5,-37 107.5,-55 143.5,-55 143.5,-37 107.5,-37"/>
<text text-anchor="start" x="113.5" y="-43.2" font-family="Helvetica,sans-Serif" font-size="11.00">35 &gt;</text>
</a>
</g>
</g>
<!-- edition_editor&#45;&gt;edition -->
<g id="edge1" class="edge">
<title>edition_editor:w&#45;&gt;edition:e</title>
<path fill="none" stroke="black" d="M238.29,-140.88C200.25,-134.81 189.95,-106 144.5,-106"/>
<polygon fill="black" stroke="black" points="245.02,-141.39 252.73,-145.59 249.01,-141.7 253,-142 253,-142 253,-142 249.01,-141.7 253.27,-138.41 245.02,-141.39 245.02,-141.39"/>
<ellipse fill="none" stroke="black" cx="241.83" cy="-141.15" rx="3.2" ry="3.2"/>
</g>
<!-- sign_interpretation_commentary_owner -->
<g id="node3" class="node">
<title>sign_interpretation_commentary_owner</title>
<g id="a_node3"><a xlink:href="../../tables/sign_interpretation_commentary_owner.html" xlink:title="sign_interpretation_commentary_owner" target="_top">
<polygon fill="#ffffff" stroke="transparent" points="501,-133 501,-243 891,-243 891,-133 501,-133"/>
<polygon fill="#f5f5f5" stroke="transparent" points="503,-219 503,-241 889,-241 889,-219 503,-219"/>
<polygon fill="none" stroke="black" points="503,-219 503,-241 889,-241 889,-219 503,-219"/>
<text text-anchor="start" x="508" y="-228.2" font-family="Helvetica,sans-Serif" font-weight="bold" font-size="11.00">sign_interpretation_commentary_owner</text>
<text text-anchor="start" x="847" y="-227.2" font-family="Helvetica,sans-Serif" font-size="11.00">[table]</text>
<polygon fill="none" stroke="black" points="503,-197 503,-219 792,-219 792,-197 503,-197"/>
<image xlink:href="../../images/primaryKeys.png" width="11px" height="12px" preserveAspectRatio="xMinYMin meet" x="508" y="-214"/>
<text text-anchor="start" x="523" y="-205.2" font-family="Helvetica,sans-Serif" font-size="11.00">sign_interpretation_commentary_id</text>
<polygon fill="none" stroke="black" points="792,-197 792,-219 889,-219 889,-197 792,-197"/>
<text text-anchor="start" x="795" y="-205.2" font-family="Helvetica,sans-Serif" font-size="11.00">int unsigned[10]</text>
<polygon fill="#ffffff" stroke="transparent" points="503,-175 503,-197 792,-197 792,-175 503,-175"/>
<polygon fill="none" stroke="black" points="503,-175 503,-197 792,-197 792,-175 503,-175"/>
<image xlink:href="../../images/foreignKeys.png" width="11px" height="12px" preserveAspectRatio="xMinYMin meet" x="508" y="-192"/>
<text text-anchor="start" x="523" y="-183.2" font-family="Helvetica,sans-Serif" font-size="11.00">edition_editor_id</text>
<polygon fill="none" stroke="black" points="792,-175 792,-197 889,-197 889,-175 792,-175"/>
<text text-anchor="start" x="795" y="-183.2" font-family="Helvetica,sans-Serif" font-size="11.00">int unsigned[10]</text>
<polygon fill="none" stroke="black" points="503,-153 503,-175 792,-175 792,-153 503,-153"/>
<image xlink:href="../../images/primaryKeys.png" width="11px" height="12px" preserveAspectRatio="xMinYMin meet" x="508" y="-170"/>
<text text-anchor="start" x="523" y="-161.2" font-family="Helvetica,sans-Serif" font-size="11.00">edition_id</text>
<polygon fill="none" stroke="black" points="792,-153 792,-175 889,-175 889,-153 792,-153"/>
<text text-anchor="start" x="795" y="-161.2" font-family="Helvetica,sans-Serif" font-size="11.00">int unsigned[10]</text>
<polygon fill="#ffffff" stroke="transparent" points="503,-135 503,-153 639,-153 639,-135 503,-135"/>
<polygon fill="none" stroke="black" points="503,-135 503,-153 639,-153 639,-135 503,-135"/>
<text text-anchor="start" x="506" y="-141.2" font-family="Helvetica,sans-Serif" font-size="11.00">&lt; 3</text>
<polygon fill="#ffffff" stroke="transparent" points="639,-135 639,-153 792,-153 792,-135 639,-135"/>
<polygon fill="none" stroke="black" points="639,-135 639,-153 792,-153 792,-135 639,-135"/>
<text text-anchor="start" x="752" y="-141.2" font-family="Helvetica,sans-Serif" font-size="11.00">0 rows</text>
<polygon fill="#ffffff" stroke="transparent" points="792,-135 792,-153 889,-153 889,-135 792,-135"/>
<polygon fill="none" stroke="black" points="792,-135 792,-153 889,-153 889,-135 792,-135"/>
<text text-anchor="start" x="866" y="-141.2" font-family="Helvetica,sans-Serif" font-size="11.00">0 &gt;</text>
<polygon fill="none" stroke="black" stroke-width="2" points="502,-134 502,-242 890,-242 890,-134 502,-134"/>
</a>
</g>
</g>
<!-- sign_interpretation_commentary_owner&#45;&gt;edition_editor -->
<g id="edge2" class="edge">
<title>sign_interpretation_commentary_owner:w&#45;&gt;edition_editor:e</title>
<path fill="none" stroke="black" d="M487.54,-186C449.65,-186 435.13,-186 391,-186"/>
<polygon fill="black" stroke="black" points="494,-186 502,-189.6 498,-186 502,-186 502,-186 502,-186 498,-186 502,-182.4 494,-186 494,-186"/>
<ellipse fill="none" stroke="black" cx="490.8" cy="-186" rx="3.2" ry="3.2"/>
</g>
<!-- sign_interpretation_commentary_owner&#45;&gt;edition -->
<g id="edge3" class="edge">
<title>sign_interpretation_commentary_owner:w&#45;&gt;edition:e</title>
<path fill="none" stroke="black" d="M487.97,-160.03C470.37,-146.43 489,-101.53 460,-84 355.02,-20.55 302.73,-53.17 184,-84 164.55,-89.05 164.59,-106 144.5,-106"/>
<polygon fill="black" stroke="black" points="494.3,-161.82 501.02,-167.46 498.15,-162.91 502,-164 502,-164 502,-164 498.15,-162.91 502.98,-160.54 494.3,-161.82 494.3,-161.82"/>
<ellipse fill="none" stroke="black" cx="491.22" cy="-160.95" rx="3.2" ry="3.2"/>
</g>
<!-- sign_interpretation_commentary -->
<g id="node4" class="node">
<title>sign_interpretation_commentary</title>
<g id="a_node4"><a xlink:href="../../tables/sign_interpretation_commentary.html" xlink:title="sign_interpretation_commentary" target="_top">
<polygon fill="#ffffff" stroke="transparent" points="192,-240 192,-364 452,-364 452,-240 192,-240"/>
<polygon fill="#f5f5f5" stroke="transparent" points="192,-342 192,-364 452,-364 452,-342 192,-342"/>
<polygon fill="none" stroke="black" points="192,-342 192,-364 452,-364 452,-342 192,-342"/>
<text text-anchor="start" x="197" y="-351.2" font-family="Helvetica,sans-Serif" font-weight="bold" font-size="11.00">sign_interpretation_commentary</text>
<text text-anchor="start" x="410" y="-350.2" font-family="Helvetica,sans-Serif" font-size="11.00">[table]</text>
<polygon fill="none" stroke="black" points="192,-320 192,-342 452,-342 452,-320 192,-320"/>
<image xlink:href="../../images/primaryKeys.png" width="11px" height="12px" preserveAspectRatio="xMinYMin meet" x="197" y="-337"/>
<text text-anchor="start" x="212" y="-328.2" font-family="Helvetica,sans-Serif" font-size="11.00">sign_interpretation_commentary_id</text>
<polygon fill="#ffffff" stroke="transparent" points="192,-298 192,-320 452,-320 452,-298 192,-298"/>
<polygon fill="none" stroke="black" points="192,-298 192,-320 452,-320 452,-298 192,-298"/>
<image xlink:href="../../images/foreignKeys.png" width="11px" height="12px" preserveAspectRatio="xMinYMin meet" x="197" y="-315"/>
<text text-anchor="start" x="212" y="-306.2" font-family="Helvetica,sans-Serif" font-size="11.00">sign_interpretation_id</text>
<polygon fill="#ffffff" stroke="transparent" points="192,-276 192,-298 452,-298 452,-276 192,-276"/>
<polygon fill="none" stroke="black" points="192,-276 192,-298 452,-298 452,-276 192,-276"/>
<image xlink:href="../../images/foreignKeys.png" width="11px" height="12px" preserveAspectRatio="xMinYMin meet" x="197" y="-293"/>
<text text-anchor="start" x="212" y="-284.2" font-family="Helvetica,sans-Serif" font-size="11.00">attribute_id</text>
<polygon fill="none" stroke="black" points="192,-258 192,-276 452,-276 452,-258 192,-258"/>
<text text-anchor="start" x="195" y="-264.2" font-family="Helvetica,sans-Serif" font-size="11.00">...</text>
<polygon fill="#ffffff" stroke="transparent" points="192,-240 192,-258 300,-258 300,-240 192,-240"/>
<polygon fill="none" stroke="black" points="192,-240 192,-258 300,-258 300,-240 192,-240"/>
<text text-anchor="start" x="195" y="-246.2" font-family="Helvetica,sans-Serif" font-size="11.00">&lt; 2</text>
<polygon fill="#ffffff" stroke="transparent" points="300,-240 300,-258 384,-258 384,-240 300,-240"/>
<polygon fill="none" stroke="black" points="300,-240 300,-258 384,-258 384,-240 300,-240"/>
<text text-anchor="start" x="344" y="-246.2" font-family="Helvetica,sans-Serif" font-size="11.00">0 rows</text>
<polygon fill="#ffffff" stroke="transparent" points="384,-240 384,-258 452,-258 452,-240 384,-240"/>
<polygon fill="none" stroke="black" points="384,-240 384,-258 452,-258 452,-240 384,-240"/>
<text text-anchor="start" x="429" y="-246.2" font-family="Helvetica,sans-Serif" font-size="11.00">1 &gt;</text>
</a>
</g>
</g>
<!-- sign_interpretation_commentary_owner&#45;&gt;sign_interpretation_commentary -->
<g id="edge4" class="edge">
<title>sign_interpretation_commentary_owner:w&#45;&gt;sign_interpretation_commentary:e</title>
<path fill="none" stroke="black" d="M487.75,-211.55C455.79,-231.72 505.87,-331 453,-331"/>
<polygon fill="black" stroke="black" points="494.24,-209.93 502.87,-211.49 498.12,-208.97 502,-208 502,-208 502,-208 498.12,-208.97 501.13,-204.51 494.24,-209.93 494.24,-209.93"/>
<ellipse fill="none" stroke="black" cx="491.13" cy="-210.71" rx="3.2" ry="3.2"/>
</g>
</g>
</svg>
