<?xml version="1.0" encoding="UTF-8" standalone="no"?>
<!DOCTYPE svg PUBLIC "-//W3C//DTD SVG 1.1//EN"
 "http://www.w3.org/Graphics/SVG/1.1/DTD/svg11.dtd">
<!-- Generated by graphviz version 2.40.1 (20161225.0304)
 -->
<!-- Title: twoDegreesRelationshipsDiagram Pages: 1 -->
<svg width="760pt" height="203pt"
 viewBox="0.00 0.00 760.00 203.00" xmlns="http://www.w3.org/2000/svg" xmlns:xlink="http://www.w3.org/1999/xlink">
<g id="graph0" class="graph" transform="scale(1 1) rotate(0) translate(4 199)">
<title>twoDegreesRelationshipsDiagram</title>
<polygon fill="#ffffff" stroke="transparent" points="-4,4 -4,-199 756,-199 756,4 -4,4"/>
<text text-anchor="middle" x="71.5" y="-7.2" font-family="Helvetica,sans-Serif" font-size="11.00" fill="#000000">Generated by SchemaSpy</text>
<!-- edition_editor -->
<g id="node1" class="node">
<title>edition_editor</title>
<g id="a_node1"><a xlink:href="../../tables/edition_editor.html" xlink:title="edition_editor" target="_top">
<polygon fill="#ffffff" stroke="transparent" points="167,-100 167,-158 284,-158 284,-100 167,-100"/>
<polygon fill="#f5f5f5" stroke="transparent" points="167.5,-136 167.5,-158 284.5,-158 284.5,-136 167.5,-136"/>
<polygon fill="none" stroke="#000000" points="167.5,-136 167.5,-158 284.5,-158 284.5,-136 167.5,-136"/>
<text text-anchor="start" x="172.5" y="-145.2" font-family="Helvetica,sans-Serif" font-weight="bold" font-size="11.00" fill="#000000">edition_editor</text>
<text text-anchor="start" x="249.5" y="-144.2" font-family="Helvetica,sans-Serif" font-size="11.00" fill="#000000">[table]</text>
<polygon fill="none" stroke="#000000" points="167.5,-118 167.5,-136 284.5,-136 284.5,-118 167.5,-118"/>
<text text-anchor="start" x="170.5" y="-124.2" font-family="Helvetica,sans-Serif" font-size="11.00" fill="#000000">...</text>
<polygon fill="#ffffff" stroke="transparent" points="167.5,-100 167.5,-118 192.5,-118 192.5,-100 167.5,-100"/>
<polygon fill="none" stroke="#000000" points="167.5,-100 167.5,-118 192.5,-118 192.5,-100 167.5,-100"/>
<text text-anchor="start" x="170.5" y="-106.2" font-family="Helvetica,sans-Serif" font-size="11.00" fill="#000000">&lt; 2</text>
<polygon fill="#ffffff" stroke="transparent" points="192.5,-100 192.5,-118 254.5,-118 254.5,-100 192.5,-100"/>
<polygon fill="none" stroke="#000000" points="192.5,-100 192.5,-118 254.5,-118 254.5,-100 192.5,-100"/>
<text text-anchor="start" x="197.5" y="-106.2" font-family="Helvetica,sans-Serif" font-size="11.00" fill="#000000">1,645 rows</text>
<polygon fill="#ffffff" stroke="transparent" points="254.5,-100 254.5,-118 284.5,-118 284.5,-100 254.5,-100"/>
<polygon fill="none" stroke="#000000" points="254.5,-100 254.5,-118 284.5,-118 284.5,-100 254.5,-100"/>
<text text-anchor="start" x="259.5" y="-106.2" font-family="Helvetica,sans-Serif" font-size="11.00" fill="#000000">30 &gt;</text>
</a>
</g>
</g>
<!-- edition -->
<g id="node2" class="node">
<title>edition</title>
<g id="a_node2"><a xlink:href="../../tables/edition.html" xlink:title="edition" target="_top">
<polygon fill="#ffffff" stroke="transparent" points="8,-74 8,-132 118,-132 118,-74 8,-74"/>
<polygon fill="#f5f5f5" stroke="transparent" points="8,-110 8,-132 118,-132 118,-110 8,-110"/>
<polygon fill="none" stroke="#000000" points="8,-110 8,-132 118,-132 118,-110 8,-110"/>
<text text-anchor="start" x="13" y="-119.2" font-family="Helvetica,sans-Serif" font-weight="bold" font-size="11.00" fill="#000000">edition</text>
<text text-anchor="start" x="83" y="-118.2" font-family="Helvetica,sans-Serif" font-size="11.00" fill="#000000">[table]</text>
<polygon fill="none" stroke="#000000" points="8,-92 8,-110 118,-110 118,-92 8,-92"/>
<text text-anchor="start" x="11" y="-98.2" font-family="Helvetica,sans-Serif" font-size="11.00" fill="#000000">...</text>
<polygon fill="#ffffff" stroke="transparent" points="8,-74 8,-92 30,-92 30,-74 8,-74"/>
<polygon fill="none" stroke="#000000" points="8,-74 8,-92 30,-92 30,-74 8,-74"/>
<text text-anchor="start" x="11" y="-80.2" font-family="Helvetica,sans-Serif" font-size="11.00" fill="#000000">&lt; 1</text>
<polygon fill="#ffffff" stroke="transparent" points="30,-74 30,-92 90,-92 90,-74 30,-74"/>
<polygon fill="none" stroke="#000000" points="30,-74 30,-92 90,-92 90,-74 30,-74"/>
<text text-anchor="start" x="33" y="-80.2" font-family="Helvetica,sans-Serif" font-size="11.00" fill="#000000">1,645 rows</text>
<polygon fill="#ffffff" stroke="transparent" points="90,-74 90,-92 118,-92 118,-74 90,-74"/>
<polygon fill="none" stroke="#000000" points="90,-74 90,-92 118,-92 118,-74 90,-74"/>
<text text-anchor="start" x="93" y="-80.2" font-family="Helvetica,sans-Serif" font-size="11.00" fill="#000000">32 &gt;</text>
</a>
</g>
</g>
<!-- edition_editor&#45;&gt;edition -->
<g id="edge1" class="edge">
<title>edition_editor:w&#45;&gt;edition:e</title>
<path fill="none" stroke="#000000" d="M153.5104,-123.3848C141.3677,-116.2407 137.0259,-101 118,-101"/>
<polygon fill="#000000" stroke="#000000" points="159.7544,-124.9984 166.5993,-130.4855 163.6272,-125.9992 167.5,-127 167.5,-127 167.5,-127 163.6272,-125.9992 168.4007,-123.5145 159.7544,-124.9984 159.7544,-124.9984"/>
<ellipse fill="none" stroke="#000000" cx="156.6562" cy="-124.1977" rx="3.2" ry="3.2"/>
</g>
<!-- main_action -->
<g id="node3" class="node">
<title>main_action</title>
<g id="a_node3"><a xlink:href="../../tables/main_action.html" xlink:title="main_action" target="_top">
<polygon fill="#ffffff" stroke="transparent" points="333,-43 333,-167 466,-167 466,-43 333,-43"/>
<polygon fill="#f5f5f5" stroke="transparent" points="333.5,-145 333.5,-167 466.5,-167 466.5,-145 333.5,-145"/>
<polygon fill="none" stroke="#000000" points="333.5,-145 333.5,-167 466.5,-167 466.5,-145 333.5,-145"/>
<text text-anchor="start" x="338.5" y="-154.2" font-family="Helvetica,sans-Serif" font-weight="bold" font-size="11.00" fill="#000000">main_action</text>
<text text-anchor="start" x="431.5" y="-153.2" font-family="Helvetica,sans-Serif" font-size="11.00" fill="#000000">[table]</text>
<polygon fill="none" stroke="#000000" points="333.5,-123 333.5,-145 466.5,-145 466.5,-123 333.5,-123"/>
<image xlink:href="../../images/primaryKeys.png" width="11px" height="12px" preserveAspectRatio="xMinYMin meet" x="338.5" y="-140"/>
<text text-anchor="start" x="353.5" y="-131.2" font-family="Helvetica,sans-Serif" font-size="11.00" fill="#000000">main_action_id</text>
<polygon fill="#ffffff" stroke="transparent" points="333.5,-101 333.5,-123 466.5,-123 466.5,-101 333.5,-101"/>
<polygon fill="none" stroke="#000000" points="333.5,-101 333.5,-123 466.5,-123 466.5,-101 333.5,-101"/>
<image xlink:href="../../images/foreignKeys.png" width="11px" height="12px" preserveAspectRatio="xMinYMin meet" x="338.5" y="-118"/>
<text text-anchor="start" x="353.5" y="-109.2" font-family="Helvetica,sans-Serif" font-size="11.00" fill="#000000">edition_editor_id</text>
<polygon fill="#ffffff" stroke="transparent" points="333.5,-79 333.5,-101 466.5,-101 466.5,-79 333.5,-79"/>
<polygon fill="none" stroke="#000000" points="333.5,-79 333.5,-101 466.5,-101 466.5,-79 333.5,-79"/>
<image xlink:href="../../images/foreignKeys.png" width="11px" height="12px" preserveAspectRatio="xMinYMin meet" x="338.5" y="-96"/>
<text text-anchor="start" x="353.5" y="-87.2" font-family="Helvetica,sans-Serif" font-size="11.00" fill="#000000">edition_id</text>
<polygon fill="none" stroke="#000000" points="333.5,-61 333.5,-79 466.5,-79 466.5,-61 333.5,-61"/>
<text text-anchor="start" x="336.5" y="-67.2" font-family="Helvetica,sans-Serif" font-size="11.00" fill="#000000">...</text>
<polygon fill="#ffffff" stroke="transparent" points="333.5,-43 333.5,-61 380.5,-61 380.5,-43 333.5,-43"/>
<polygon fill="none" stroke="#000000" points="333.5,-43 333.5,-61 380.5,-61 380.5,-43 333.5,-43"/>
<text text-anchor="start" x="336.5" y="-49.2" font-family="Helvetica,sans-Serif" font-size="11.00" fill="#000000">&lt; 2</text>
<polygon fill="#ffffff" stroke="transparent" points="380.5,-43 380.5,-61 431.5,-61 431.5,-43 380.5,-43"/>
<polygon fill="none" stroke="#000000" points="380.5,-43 380.5,-61 431.5,-61 431.5,-43 380.5,-43"/>
<text text-anchor="start" x="395.5" y="-49.2" font-family="Helvetica,sans-Serif" font-size="11.00" fill="#000000">0 rows</text>
<polygon fill="#ffffff" stroke="transparent" points="431.5,-43 431.5,-61 466.5,-61 466.5,-43 431.5,-43"/>
<polygon fill="none" stroke="#000000" points="431.5,-43 431.5,-61 466.5,-61 466.5,-43 431.5,-43"/>
<text text-anchor="start" x="447.5" y="-49.2" font-family="Helvetica,sans-Serif" font-size="11.00" fill="#000000">1 &gt;</text>
</a>
</g>
</g>
<!-- main_action&#45;&gt;edition_editor -->
<g id="edge2" class="edge">
<title>main_action:w&#45;&gt;edition_editor:e</title>
<path fill="none" stroke="#000000" d="M319.076,-114.4769C307.6616,-118.7374 301.4036,-127 284.5,-127"/>
<polygon fill="#000000" stroke="#000000" points="325.6154,-113.354 334.1093,-115.5481 329.5577,-112.677 333.5,-112 333.5,-112 333.5,-112 329.5577,-112.677 332.8907,-108.4519 325.6154,-113.354 325.6154,-113.354"/>
<ellipse fill="none" stroke="#000000" cx="322.4616" cy="-113.8956" rx="3.2" ry="3.2"/>
</g>
<!-- main_action&#45;&gt;edition -->
<g id="edge3" class="edge">
<title>main_action:w&#45;&gt;edition:e</title>
<path fill="none" stroke="#000000" d="M318.775,-89.8514C253.0146,-88.5072 230.674,-78.7266 159,-89 140.2054,-91.6939 136.9867,-101 118,-101"/>
<polygon fill="#000000" stroke="#000000" points="325.5004,-89.9192 333.4637,-93.5998 329.5002,-89.9596 333.5,-90 333.5,-90 333.5,-90 329.5002,-89.9596 333.5363,-86.4002 325.5004,-89.9192 325.5004,-89.9192"/>
<ellipse fill="none" stroke="#000000" cx="322.3006" cy="-89.8869" rx="3.2" ry="3.2"/>
</g>
<!-- single_action -->
<g id="node4" class="node">
<title>single_action</title>
<g id="a_node4"><a xlink:href="../../tables/single_action.html" xlink:title="single_action" target="_top">
<polygon fill="#ffffff" stroke="transparent" points="515,-37 515,-191 744,-191 744,-37 515,-37"/>
<polygon fill="#f5f5f5" stroke="transparent" points="517.5,-167 517.5,-189 742.5,-189 742.5,-167 517.5,-167"/>
<polygon fill="none" stroke="#000000" points="517.5,-167 517.5,-189 742.5,-189 742.5,-167 517.5,-167"/>
<text text-anchor="start" x="522.5" y="-176.2" font-family="Helvetica,sans-Serif" font-weight="bold" font-size="11.00" fill="#000000">single_action</text>
<text text-anchor="start" x="707.5" y="-175.2" font-family="Helvetica,sans-Serif" font-size="11.00" fill="#000000">[table]</text>
<polygon fill="none" stroke="#000000" points="517.5,-145 517.5,-167 645.5,-167 645.5,-145 517.5,-145"/>
<image xlink:href="../../images/primaryKeys.png" width="11px" height="12px" preserveAspectRatio="xMinYMin meet" x="522.5" y="-162"/>
<text text-anchor="start" x="537.5" y="-153.2" font-family="Helvetica,sans-Serif" font-size="11.00" fill="#000000">single_action_id</text>
<polygon fill="none" stroke="#000000" points="645.5,-145 645.5,-167 742.5,-167 742.5,-145 645.5,-145"/>
<text text-anchor="start" x="648.5" y="-153.2" font-family="Helvetica,sans-Serif" font-size="11.00" fill="#000000">bigint unsigned[20]</text>
<polygon fill="#ffffff" stroke="transparent" points="517.5,-123 517.5,-145 645.5,-145 645.5,-123 517.5,-123"/>
<polygon fill="none" stroke="#000000" points="517.5,-123 517.5,-145 645.5,-145 645.5,-123 517.5,-123"/>
<image xlink:href="../../images/foreignKeys.png" width="11px" height="12px" preserveAspectRatio="xMinYMin meet" x="522.5" y="-140"/>
<text text-anchor="start" x="537.5" y="-131.2" font-family="Helvetica,sans-Serif" font-size="11.00" fill="#000000">main_action_id</text>
<polygon fill="none" stroke="#000000" points="645.5,-123 645.5,-145 742.5,-145 742.5,-123 645.5,-123"/>
<text text-anchor="start" x="648.5" y="-131.2" font-family="Helvetica,sans-Serif" font-size="11.00" fill="#000000">int unsigned[10]</text>
<polygon fill="none" stroke="#000000" points="517.5,-101 517.5,-123 645.5,-123 645.5,-101 517.5,-101"/>
<text text-anchor="start" x="537.5" y="-109.2" font-family="Helvetica,sans-Serif" font-size="11.00" fill="#000000">action</text>
<polygon fill="none" stroke="#000000" points="645.5,-101 645.5,-123 742.5,-123 742.5,-101 645.5,-101"/>
<text text-anchor="start" x="648.5" y="-109.2" font-family="Helvetica,sans-Serif" font-size="11.00" fill="#000000">enum[6]</text>
<polygon fill="none" stroke="#000000" points="517.5,-79 517.5,-101 645.5,-101 645.5,-79 517.5,-79"/>
<text text-anchor="start" x="537.5" y="-87.2" font-family="Helvetica,sans-Serif" font-size="11.00" fill="#000000">table</text>
<polygon fill="none" stroke="#000000" points="645.5,-79 645.5,-101 742.5,-101 742.5,-79 645.5,-79"/>
<text text-anchor="start" x="648.5" y="-87.2" font-family="Helvetica,sans-Serif" font-size="11.00" fill="#000000">varchar[255]</text>
<polygon fill="none" stroke="#000000" points="517.5,-57 517.5,-79 645.5,-79 645.5,-57 517.5,-57"/>
<text text-anchor="start" x="537.5" y="-65.2" font-family="Helvetica,sans-Serif" font-size="11.00" fill="#000000">id_in_table</text>
<polygon fill="none" stroke="#000000" points="645.5,-57 645.5,-79 742.5,-79 742.5,-57 645.5,-57"/>
<text text-anchor="start" x="648.5" y="-65.2" font-family="Helvetica,sans-Serif" font-size="11.00" fill="#000000">int unsigned[10]</text>
<polygon fill="#ffffff" stroke="transparent" points="517.5,-39 517.5,-57 572.5,-57 572.5,-39 517.5,-39"/>
<polygon fill="none" stroke="#000000" points="517.5,-39 517.5,-57 572.5,-57 572.5,-39 517.5,-39"/>
<text text-anchor="start" x="520.5" y="-45.2" font-family="Helvetica,sans-Serif" font-size="11.00" fill="#000000">&lt; 1</text>
<polygon fill="#ffffff" stroke="transparent" points="572.5,-39 572.5,-57 645.5,-57 645.5,-39 572.5,-39"/>
<polygon fill="none" stroke="#000000" points="572.5,-39 572.5,-57 645.5,-57 645.5,-39 572.5,-39"/>
<text text-anchor="start" x="609.5" y="-45.2" font-family="Helvetica,sans-Serif" font-size="11.00" fill="#000000">0 rows</text>
<polygon fill="#ffffff" stroke="transparent" points="645.5,-39 645.5,-57 742.5,-57 742.5,-39 645.5,-39"/>
<polygon fill="none" stroke="#000000" points="645.5,-39 645.5,-57 742.5,-57 742.5,-39 645.5,-39"/>
<text text-anchor="start" x="723.5" y="-45.2" font-family="Helvetica,sans-Serif" font-size="11.00" fill="#000000">0 &gt;</text>
<polygon fill="none" stroke="#000000" stroke-width="2" points="516,-38 516,-190 743,-190 743,-38 516,-38"/>
</a>
</g>
</g>
<!-- single_action&#45;&gt;main_action -->
<g id="edge4" class="edge">
<title>single_action:w&#45;&gt;main_action:e</title>
<path fill="none" stroke="#000000" d="M502.776,-134C490.7815,-134 483.3229,-134 466.5,-134"/>
<polygon fill="#000000" stroke="#000000" points="509.5,-134.0001 517.5,-137.6 513.5,-134 517.5,-134 517.5,-134 517.5,-134 513.5,-134 517.5,-130.4 509.5,-134.0001 509.5,-134.0001"/>
<ellipse fill="none" stroke="#000000" cx="506.3" cy="-134.0001" rx="3.2" ry="3.2"/>
</g>
</g>
</svg>
