<?xml version="1.0" encoding="UTF-8" standalone="no"?>
<!DOCTYPE svg PUBLIC "-//W3C//DTD SVG 1.1//EN"
 "http://www.w3.org/Graphics/SVG/1.1/DTD/svg11.dtd">
<!-- Generated by graphviz version 2.43.0 (0)
 -->
<!-- Title: oneDegreeRelationshipsDiagramImplied Pages: 1 -->
<svg width="562pt" height="225pt"
 viewBox="0.00 0.00 562.00 225.00" xmlns="http://www.w3.org/2000/svg" xmlns:xlink="http://www.w3.org/1999/xlink">
<g id="graph0" class="graph" transform="scale(1 1) rotate(0) translate(4 221)">
<title>oneDegreeRelationshipsDiagramImplied</title>
<polygon fill="#ffffff" stroke="transparent" points="-4,4 -4,-221 558,-221 558,4 -4,4"/>
<text text-anchor="middle" x="79.5" y="-7.2" font-family="Helvetica,sans-Serif" font-size="11.00">Generated by SchemaSpy</text>
<!-- sqe_session -->
<g id="node1" class="node">
<title>sqe_session</title>
<g id="a_node1"><a xlink:href="../../tables/sqe_session.html" xlink:title="sqe_session" target="_top">
<polygon fill="#ffffff" stroke="transparent" points="220,-37 220,-213 546,-213 546,-37 220,-37"/>
<polygon fill="#f5f5f5" stroke="transparent" points="222,-189 222,-211 544,-211 544,-189 222,-189"/>
<polygon fill="none" stroke="black" points="222,-189 222,-211 544,-211 544,-189 222,-189"/>
<text text-anchor="start" x="227" y="-198.2" font-family="Helvetica,sans-Serif" font-weight="bold" font-size="11.00">sqe_session</text>
<text text-anchor="start" x="502" y="-197.2" font-family="Helvetica,sans-Serif" font-size="11.00">[table]</text>
<polygon fill="none" stroke="black" points="222,-167 222,-189 415,-189 415,-167 222,-167"/>
<image xlink:href="../../images/primaryKeys.png" width="11px" height="12px" preserveAspectRatio="xMinYMin meet" x="227" y="-184"/>
<text text-anchor="start" x="242" y="-175.2" font-family="Helvetica,sans-Serif" font-size="11.00">sqe_session_id</text>
<polygon fill="none" stroke="black" points="415,-167 415,-189 544,-189 544,-167 415,-167"/>
<text text-anchor="start" x="418" y="-175.2" font-family="Helvetica,sans-Serif" font-size="11.00">char[36]</text>
<polygon fill="#ffffff" stroke="transparent" points="222,-145 222,-167 415,-167 415,-145 222,-145"/>
<polygon fill="none" stroke="black" points="222,-145 222,-167 415,-167 415,-145 222,-145"/>
<image xlink:href="../../images/foreignKeys.png" width="11px" height="12px" preserveAspectRatio="xMinYMin meet" x="227" y="-162"/>
<text text-anchor="start" x="242" y="-153.2" font-family="Helvetica,sans-Serif" font-size="11.00">user_id</text>
<polygon fill="none" stroke="black" points="415,-145 415,-167 544,-167 544,-145 415,-145"/>
<text text-anchor="start" x="418" y="-153.2" font-family="Helvetica,sans-Serif" font-size="11.00">int unsigned[10]</text>
<polygon fill="none" stroke="black" points="222,-123 222,-145 415,-145 415,-123 222,-123"/>
<text text-anchor="start" x="242" y="-131.2" font-family="Helvetica,sans-Serif" font-size="11.00">scroll_version_id</text>
<polygon fill="none" stroke="black" points="415,-123 415,-145 544,-145 544,-123 415,-123"/>
<text text-anchor="start" x="418" y="-131.2" font-family="Helvetica,sans-Serif" font-size="11.00">int unsigned[10]</text>
<polygon fill="none" stroke="black" points="222,-101 222,-123 415,-123 415,-101 222,-101"/>
<text text-anchor="start" x="242" y="-109.2" font-family="Helvetica,sans-Serif" font-size="11.00">session_start</text>
<polygon fill="none" stroke="black" points="415,-101 415,-123 544,-123 544,-101 415,-101"/>
<text text-anchor="start" x="418" y="-109.2" font-family="Helvetica,sans-Serif" font-size="11.00">timestamp[26]</text>
<polygon fill="none" stroke="black" points="222,-79 222,-101 415,-101 415,-79 222,-79"/>
<text text-anchor="start" x="242" y="-87.2" font-family="Helvetica,sans-Serif" font-size="11.00">last_internal_session_end</text>
<polygon fill="none" stroke="black" points="415,-79 415,-101 544,-101 544,-79 415,-79"/>
<text text-anchor="start" x="418" y="-87.2" font-family="Helvetica,sans-Serif" font-size="11.00">timestamp[26]</text>
<polygon fill="none" stroke="black" points="222,-57 222,-79 415,-79 415,-57 222,-57"/>
<text text-anchor="start" x="242" y="-65.2" font-family="Helvetica,sans-Serif" font-size="11.00">attributes</text>
<polygon fill="none" stroke="black" points="415,-57 415,-79 544,-79 544,-57 415,-57"/>
<text text-anchor="start" x="418" y="-65.2" font-family="Helvetica,sans-Serif" font-size="11.00">longtext[2147483647]</text>
<polygon fill="#ffffff" stroke="transparent" points="222,-39 222,-57 310,-57 310,-39 222,-39"/>
<polygon fill="none" stroke="black" points="222,-39 222,-57 310,-57 310,-39 222,-39"/>
<text text-anchor="start" x="225" y="-45.2" font-family="Helvetica,sans-Serif" font-size="11.00">&lt; 1</text>
<polygon fill="#ffffff" stroke="transparent" points="310,-39 310,-57 415,-57 415,-39 310,-39"/>
<polygon fill="none" stroke="black" points="310,-39 310,-57 415,-57 415,-39 310,-39"/>
<text text-anchor="start" x="375" y="-45.2" font-family="Helvetica,sans-Serif" font-size="11.00">0 rows</text>
<polygon fill="#ffffff" stroke="transparent" points="415,-39 415,-57 544,-57 544,-39 415,-39"/>
<polygon fill="none" stroke="black" points="415,-39 415,-57 544,-57 544,-39 415,-39"/>
<text text-anchor="start" x="521" y="-45.2" font-family="Helvetica,sans-Serif" font-size="11.00">0 &gt;</text>
<polygon fill="none" stroke="black" stroke-width="2" points="221,-38 221,-212 545,-212 545,-38 221,-38"/>
</a>
</g>
</g>
<!-- user -->
<g id="node2" class="node">
<title>user</title>
<g id="a_node2"><a xlink:href="../../tables/user.html" xlink:title="user" target="_top">
<polygon fill="#ffffff" stroke="transparent" points="8,-87 8,-189 171,-189 171,-87 8,-87"/>
<polygon fill="#f5f5f5" stroke="transparent" points="8.5,-167 8.5,-189 171.5,-189 171.5,-167 8.5,-167"/>
<polygon fill="none" stroke="black" points="8.5,-167 8.5,-189 171.5,-189 171.5,-167 8.5,-167"/>
<text text-anchor="start" x="13.5" y="-176.2" font-family="Helvetica,sans-Serif" font-weight="bold" font-size="11.00">user</text>
<text text-anchor="start" x="129.5" y="-175.2" font-family="Helvetica,sans-Serif" font-size="11.00">[table]</text>
<polygon fill="none" stroke="black" points="8.5,-145 8.5,-167 171.5,-167 171.5,-145 8.5,-145"/>
<image xlink:href="../../images/primaryKeys.png" width="11px" height="12px" preserveAspectRatio="xMinYMin meet" x="13.5" y="-162"/>
<text text-anchor="start" x="28.5" y="-153.2" font-family="Helvetica,sans-Serif" font-size="11.00">user_id</text>
<polygon fill="#ffffff" stroke="transparent" points="8.5,-123 8.5,-145 171.5,-145 171.5,-123 8.5,-123"/>
<polygon fill="none" stroke="black" points="8.5,-123 8.5,-145 171.5,-145 171.5,-123 8.5,-123"/>
<text text-anchor="start" x="28.5" y="-131.2" font-family="Helvetica,sans-Serif" font-size="11.00">email</text>
<polygon fill="none" stroke="black" points="8.5,-105 8.5,-123 171.5,-123 171.5,-105 8.5,-105"/>
<text text-anchor="start" x="11.5" y="-111.2" font-family="Helvetica,sans-Serif" font-size="11.00">...</text>
<polygon fill="#ffffff" stroke="transparent" points="8.5,-87 8.5,-105 58.5,-105 58.5,-87 8.5,-87"/>
<polygon fill="none" stroke="black" points="8.5,-87 8.5,-105 58.5,-105 58.5,-87 8.5,-87"/>
<text text-anchor="start" x="11.5" y="-93.2" font-family="Helvetica,sans-Serif" font-size="11.00"> &#160;</text>
<polygon fill="#ffffff" stroke="transparent" points="58.5,-87 58.5,-105 119.5,-105 119.5,-87 58.5,-87"/>
<polygon fill="none" stroke="black" points="58.5,-87 58.5,-105 119.5,-105 119.5,-87 58.5,-87"/>
<text text-anchor="start" x="79.5" y="-93.2" font-family="Helvetica,sans-Serif" font-size="11.00">3 rows</text>
<polygon fill="#ffffff" stroke="transparent" points="119.5,-87 119.5,-105 171.5,-105 171.5,-87 119.5,-87"/>
<polygon fill="none" stroke="black" points="119.5,-87 119.5,-105 171.5,-105 171.5,-87 119.5,-87"/>
<text text-anchor="start" x="141.5" y="-93.2" font-family="Helvetica,sans-Serif" font-size="11.00">12 &gt;</text>
</a>
</g>
</g>
<!-- sqe_session&#45;&gt;user -->
<g id="edge1" class="edge">
<title>sqe_session:w&#45;&gt;user:e</title>
<path fill="none" stroke="black" d="M206.28,-156C195.29,-156 188.16,-156 172.5,-156"/>
<polygon fill="black" stroke="black" points="213,-156 221,-159.6 217,-156 221,-156 221,-156 221,-156 217,-156 221,-152.4 213,-156 213,-156"/>
<ellipse fill="none" stroke="black" cx="209.8" cy="-156" rx="3.2" ry="3.2"/>
</g>
</g>
</svg>
