<?xml version="1.0" encoding="UTF-8" standalone="no"?>
<!DOCTYPE svg PUBLIC "-//W3C//DTD SVG 1.1//EN"
 "http://www.w3.org/Graphics/SVG/1.1/DTD/svg11.dtd">
<!-- Generated by graphviz version 2.43.0 (0)
 -->
<!-- Title: twoDegreesRelationshipsDiagram Pages: 1 -->
<svg width="1000pt" height="802pt"
 viewBox="0.00 0.00 1000.00 802.00" xmlns="http://www.w3.org/2000/svg" xmlns:xlink="http://www.w3.org/1999/xlink">
<g id="graph0" class="graph" transform="scale(1 1) rotate(0) translate(4 798)">
<title>twoDegreesRelationshipsDiagram</title>
<polygon fill="#ffffff" stroke="transparent" points="-4,4 -4,-798 996,-798 996,4 -4,4"/>
<text text-anchor="middle" x="79.5" y="-7.2" font-family="Helvetica,sans-Serif" font-size="11.00">Generated by SchemaSpy</text>
<!-- artefact_shape -->
<g id="node1" class="node">
<title>artefact_shape</title>
<g id="a_node1"><a xlink:href="../../tables/artefact_shape.html" xlink:title="artefact_shape" target="_top">
<polygon fill="#ffffff" stroke="transparent" points="510,-644 510,-790 708,-790 708,-644 510,-644"/>
<polygon fill="#f5f5f5" stroke="transparent" points="510,-768 510,-790 708,-790 708,-768 510,-768"/>
<polygon fill="none" stroke="black" points="510,-768 510,-790 708,-790 708,-768 510,-768"/>
<text text-anchor="start" x="515" y="-777.2" font-family="Helvetica,sans-Serif" font-weight="bold" font-size="11.00">artefact_shape</text>
<text text-anchor="start" x="666" y="-776.2" font-family="Helvetica,sans-Serif" font-size="11.00">[table]</text>
<polygon fill="none" stroke="black" points="510,-746 510,-768 708,-768 708,-746 510,-746"/>
<image xlink:href="../../images/primaryKeys.png" width="11px" height="12px" preserveAspectRatio="xMinYMin meet" x="515" y="-763"/>
<text text-anchor="start" x="530" y="-754.2" font-family="Helvetica,sans-Serif" font-size="11.00">artefact_shape_id</text>
<polygon fill="#ffffff" stroke="transparent" points="510,-724 510,-746 708,-746 708,-724 510,-724"/>
<polygon fill="none" stroke="black" points="510,-724 510,-746 708,-746 708,-724 510,-724"/>
<image xlink:href="../../images/foreignKeys.png" width="11px" height="12px" preserveAspectRatio="xMinYMin meet" x="515" y="-741"/>
<text text-anchor="start" x="530" y="-732.2" font-family="Helvetica,sans-Serif" font-size="11.00">artefact_id</text>
<polygon fill="#ffffff" stroke="transparent" points="510,-702 510,-724 708,-724 708,-702 510,-702"/>
<polygon fill="none" stroke="black" points="510,-702 510,-724 708,-724 708,-702 510,-702"/>
<image xlink:href="../../images/foreignKeys.png" width="11px" height="12px" preserveAspectRatio="xMinYMin meet" x="515" y="-719"/>
<text text-anchor="start" x="530" y="-710.2" font-family="Helvetica,sans-Serif" font-size="11.00">sqe_image_id</text>
<polygon fill="#ffffff" stroke="transparent" points="510,-680 510,-702 708,-702 708,-680 510,-680"/>
<polygon fill="none" stroke="black" points="510,-680 510,-702 708,-702 708,-680 510,-680"/>
<text text-anchor="start" x="530" y="-688.2" font-family="Helvetica,sans-Serif" font-size="11.00">region_in_sqe_image_hash</text>
<polygon fill="none" stroke="black" points="510,-662 510,-680 708,-680 708,-662 510,-662"/>
<text text-anchor="start" x="513" y="-668.2" font-family="Helvetica,sans-Serif" font-size="11.00">...</text>
<polygon fill="#ffffff" stroke="transparent" points="510,-644 510,-662 572,-662 572,-644 510,-644"/>
<polygon fill="none" stroke="black" points="510,-644 510,-662 572,-662 572,-644 510,-644"/>
<text text-anchor="start" x="513" y="-650.2" font-family="Helvetica,sans-Serif" font-size="11.00">&lt; 2</text>
<polygon fill="#ffffff" stroke="transparent" points="572,-644 572,-662 664,-662 664,-644 572,-644"/>
<polygon fill="none" stroke="black" points="572,-644 572,-662 664,-662 664,-644 572,-644"/>
<text text-anchor="start" x="593" y="-650.2" font-family="Helvetica,sans-Serif" font-size="11.00">27,685 rows</text>
<polygon fill="#ffffff" stroke="transparent" points="664,-644 664,-662 708,-662 708,-644 664,-644"/>
<polygon fill="none" stroke="black" points="664,-644 664,-662 708,-662 708,-644 664,-644"/>
<text text-anchor="start" x="685" y="-650.2" font-family="Helvetica,sans-Serif" font-size="11.00">1 &gt;</text>
</a>
</g>
</g>
<!-- artefact -->
<g id="node2" class="node">
<title>artefact</title>
<g id="a_node2"><a xlink:href="../../tables/artefact.html" xlink:title="artefact" target="_top">
<polygon fill="#ffffff" stroke="transparent" points="273.5,-708 273.5,-766 387.5,-766 387.5,-708 273.5,-708"/>
<polygon fill="#f5f5f5" stroke="transparent" points="273.5,-744 273.5,-766 387.5,-766 387.5,-744 273.5,-744"/>
<polygon fill="none" stroke="black" points="273.5,-744 273.5,-766 387.5,-766 387.5,-744 273.5,-744"/>
<text text-anchor="start" x="278.5" y="-753.2" font-family="Helvetica,sans-Serif" font-weight="bold" font-size="11.00">artefact</text>
<text text-anchor="start" x="345.5" y="-752.2" font-family="Helvetica,sans-Serif" font-size="11.00">[table]</text>
<polygon fill="none" stroke="black" points="273.5,-726 273.5,-744 387.5,-744 387.5,-726 273.5,-726"/>
<text text-anchor="start" x="276.5" y="-732.2" font-family="Helvetica,sans-Serif" font-size="11.00">...</text>
<polygon fill="#ffffff" stroke="transparent" points="273.5,-708 273.5,-726 287.5,-726 287.5,-708 273.5,-708"/>
<polygon fill="none" stroke="black" points="273.5,-708 273.5,-726 287.5,-726 287.5,-708 273.5,-708"/>
<text text-anchor="start" x="276.5" y="-714.2" font-family="Helvetica,sans-Serif" font-size="11.00"> &#160;</text>
<polygon fill="#ffffff" stroke="transparent" points="287.5,-708 287.5,-726 361.5,-726 361.5,-708 287.5,-708"/>
<polygon fill="none" stroke="black" points="287.5,-708 287.5,-726 361.5,-726 361.5,-708 287.5,-708"/>
<text text-anchor="start" x="290.5" y="-714.2" font-family="Helvetica,sans-Serif" font-size="11.00">26,982 rows</text>
<polygon fill="#ffffff" stroke="transparent" points="361.5,-708 361.5,-726 387.5,-726 387.5,-708 361.5,-708"/>
<polygon fill="none" stroke="black" points="361.5,-708 361.5,-726 387.5,-726 387.5,-708 361.5,-708"/>
<text text-anchor="start" x="364.5" y="-714.2" font-family="Helvetica,sans-Serif" font-size="11.00">8 &gt;</text>
</a>
</g>
</g>
<!-- artefact_shape&#45;&gt;artefact -->
<g id="edge1" class="edge">
<title>artefact_shape:w&#45;&gt;artefact:e</title>
<path fill="none" stroke="black" d="M494.38,-735C452.45,-735 436.83,-735 388.5,-735"/>
<polygon fill="black" stroke="black" points="501,-735 509,-738.6 505,-735 509,-735 509,-735 509,-735 505,-735 509,-731.4 501,-735 501,-735"/>
<ellipse fill="none" stroke="black" cx="497.8" cy="-735" rx="3.2" ry="3.2"/>
</g>
<!-- SQE_image -->
<g id="node3" class="node">
<title>SQE_image</title>
<g id="a_node3"><a xlink:href="../../tables/SQE_image.html" xlink:title="SQE_image" target="_top">
<polygon fill="#ffffff" stroke="transparent" points="200,-303 200,-611 461,-611 461,-303 200,-303"/>
<polygon fill="#f5f5f5" stroke="transparent" points="202.5,-587 202.5,-609 459.5,-609 459.5,-587 202.5,-587"/>
<polygon fill="none" stroke="black" points="202.5,-587 202.5,-609 459.5,-609 459.5,-587 202.5,-587"/>
<text text-anchor="start" x="207.5" y="-596.2" font-family="Helvetica,sans-Serif" font-weight="bold" font-size="11.00">SQE_image</text>
<text text-anchor="start" x="417.5" y="-595.2" font-family="Helvetica,sans-Serif" font-size="11.00">[table]</text>
<polygon fill="none" stroke="black" points="202.5,-565 202.5,-587 340.5,-587 340.5,-565 202.5,-565"/>
<image xlink:href="../../images/primaryKeys.png" width="11px" height="12px" preserveAspectRatio="xMinYMin meet" x="207.5" y="-582"/>
<text text-anchor="start" x="222.5" y="-573.2" font-family="Helvetica,sans-Serif" font-size="11.00">sqe_image_id</text>
<polygon fill="none" stroke="black" points="340.5,-565 340.5,-587 459.5,-587 459.5,-565 340.5,-565"/>
<text text-anchor="start" x="343.5" y="-573.2" font-family="Helvetica,sans-Serif" font-size="11.00">int unsigned[10]</text>
<polygon fill="#ffffff" stroke="transparent" points="202.5,-543 202.5,-565 340.5,-565 340.5,-543 202.5,-543"/>
<polygon fill="none" stroke="black" points="202.5,-543 202.5,-565 340.5,-565 340.5,-543 202.5,-543"/>
<image xlink:href="../../images/foreignKeys.png" width="11px" height="12px" preserveAspectRatio="xMinYMin meet" x="207.5" y="-560"/>
<text text-anchor="start" x="222.5" y="-551.2" font-family="Helvetica,sans-Serif" font-size="11.00">image_urls_id</text>
<polygon fill="none" stroke="black" points="340.5,-543 340.5,-565 459.5,-565 459.5,-543 340.5,-543"/>
<text text-anchor="start" x="343.5" y="-551.2" font-family="Helvetica,sans-Serif" font-size="11.00">int unsigned[10]</text>
<polygon fill="#ffffff" stroke="transparent" points="202.5,-521 202.5,-543 340.5,-543 340.5,-521 202.5,-521"/>
<polygon fill="none" stroke="black" points="202.5,-521 202.5,-543 340.5,-543 340.5,-521 202.5,-521"/>
<text text-anchor="start" x="222.5" y="-529.2" font-family="Helvetica,sans-Serif" font-size="11.00">filename</text>
<polygon fill="none" stroke="black" points="340.5,-521 340.5,-543 459.5,-543 459.5,-521 340.5,-521"/>
<text text-anchor="start" x="343.5" y="-529.2" font-family="Helvetica,sans-Serif" font-size="11.00">varchar[255]</text>
<polygon fill="none" stroke="black" points="202.5,-499 202.5,-521 340.5,-521 340.5,-499 202.5,-499"/>
<text text-anchor="start" x="222.5" y="-507.2" font-family="Helvetica,sans-Serif" font-size="11.00">native_width</text>
<polygon fill="none" stroke="black" points="340.5,-499 340.5,-521 459.5,-521 459.5,-499 340.5,-499"/>
<text text-anchor="start" x="343.5" y="-507.2" font-family="Helvetica,sans-Serif" font-size="11.00">int unsigned[10]</text>
<polygon fill="none" stroke="black" points="202.5,-477 202.5,-499 340.5,-499 340.5,-477 202.5,-477"/>
<text text-anchor="start" x="222.5" y="-485.2" font-family="Helvetica,sans-Serif" font-size="11.00">native_height</text>
<polygon fill="none" stroke="black" points="340.5,-477 340.5,-499 459.5,-499 459.5,-477 340.5,-477"/>
<text text-anchor="start" x="343.5" y="-485.2" font-family="Helvetica,sans-Serif" font-size="11.00">int unsigned[10]</text>
<polygon fill="none" stroke="black" points="202.5,-455 202.5,-477 340.5,-477 340.5,-455 202.5,-455"/>
<text text-anchor="start" x="222.5" y="-463.2" font-family="Helvetica,sans-Serif" font-size="11.00">dpi</text>
<polygon fill="none" stroke="black" points="340.5,-455 340.5,-477 459.5,-477 459.5,-455 340.5,-455"/>
<text text-anchor="start" x="343.5" y="-463.2" font-family="Helvetica,sans-Serif" font-size="11.00">int unsigned[10]</text>
<polygon fill="none" stroke="black" points="202.5,-433 202.5,-455 340.5,-455 340.5,-433 202.5,-433"/>
<text text-anchor="start" x="222.5" y="-441.2" font-family="Helvetica,sans-Serif" font-size="11.00">type</text>
<polygon fill="none" stroke="black" points="340.5,-433 340.5,-455 459.5,-455 459.5,-433 340.5,-433"/>
<text text-anchor="start" x="343.5" y="-441.2" font-family="Helvetica,sans-Serif" font-size="11.00">bit[3]</text>
<polygon fill="none" stroke="black" points="202.5,-411 202.5,-433 340.5,-433 340.5,-411 202.5,-411"/>
<text text-anchor="start" x="222.5" y="-419.2" font-family="Helvetica,sans-Serif" font-size="11.00">wavelength_start</text>
<polygon fill="none" stroke="black" points="340.5,-411 340.5,-433 459.5,-433 459.5,-411 340.5,-411"/>
<text text-anchor="start" x="343.5" y="-419.2" font-family="Helvetica,sans-Serif" font-size="11.00">smallint unsigned[5]</text>
<polygon fill="none" stroke="black" points="202.5,-389 202.5,-411 340.5,-411 340.5,-389 202.5,-389"/>
<text text-anchor="start" x="222.5" y="-397.2" font-family="Helvetica,sans-Serif" font-size="11.00">wavelength_end</text>
<polygon fill="none" stroke="black" points="340.5,-389 340.5,-411 459.5,-411 459.5,-389 340.5,-389"/>
<text text-anchor="start" x="343.5" y="-397.2" font-family="Helvetica,sans-Serif" font-size="11.00">smallint unsigned[5]</text>
<polygon fill="none" stroke="black" points="202.5,-367 202.5,-389 340.5,-389 340.5,-367 202.5,-367"/>
<text text-anchor="start" x="222.5" y="-375.2" font-family="Helvetica,sans-Serif" font-size="11.00">is_master</text>
<polygon fill="none" stroke="black" points="340.5,-367 340.5,-389 459.5,-389 459.5,-367 340.5,-367"/>
<text text-anchor="start" x="343.5" y="-375.2" font-family="Helvetica,sans-Serif" font-size="11.00">bit[3]</text>
<polygon fill="#ffffff" stroke="transparent" points="202.5,-345 202.5,-367 340.5,-367 340.5,-345 202.5,-345"/>
<polygon fill="none" stroke="black" points="202.5,-345 202.5,-367 340.5,-367 340.5,-345 202.5,-345"/>
<image xlink:href="../../images/foreignKeys.png" width="11px" height="12px" preserveAspectRatio="xMinYMin meet" x="207.5" y="-362"/>
<text text-anchor="start" x="222.5" y="-353.2" font-family="Helvetica,sans-Serif" font-size="11.00">image_catalog_id</text>
<polygon fill="none" stroke="black" points="340.5,-345 340.5,-367 459.5,-367 459.5,-345 340.5,-345"/>
<text text-anchor="start" x="343.5" y="-353.2" font-family="Helvetica,sans-Serif" font-size="11.00">int unsigned[10]</text>
<polygon fill="none" stroke="black" points="202.5,-323 202.5,-345 340.5,-345 340.5,-323 202.5,-323"/>
<text text-anchor="start" x="222.5" y="-331.2" font-family="Helvetica,sans-Serif" font-size="11.00">is_recto</text>
<polygon fill="none" stroke="black" points="340.5,-323 340.5,-345 459.5,-345 459.5,-323 340.5,-323"/>
<text text-anchor="start" x="343.5" y="-331.2" font-family="Helvetica,sans-Serif" font-size="11.00">bit[3]</text>
<polygon fill="#ffffff" stroke="transparent" points="202.5,-305 202.5,-323 243.5,-323 243.5,-305 202.5,-305"/>
<polygon fill="none" stroke="black" points="202.5,-305 202.5,-323 243.5,-323 243.5,-305 202.5,-305"/>
<text text-anchor="start" x="205.5" y="-311.2" font-family="Helvetica,sans-Serif" font-size="11.00">&lt; 2</text>
<polygon fill="#ffffff" stroke="transparent" points="243.5,-305 243.5,-323 340.5,-323 340.5,-305 243.5,-305"/>
<polygon fill="none" stroke="black" points="243.5,-305 243.5,-323 340.5,-323 340.5,-305 243.5,-305"/>
<text text-anchor="start" x="262.5" y="-311.2" font-family="Helvetica,sans-Serif" font-size="11.00">101,504 rows</text>
<polygon fill="#ffffff" stroke="transparent" points="340.5,-305 340.5,-323 459.5,-323 459.5,-305 340.5,-305"/>
<polygon fill="none" stroke="black" points="340.5,-305 340.5,-323 459.5,-323 459.5,-305 340.5,-305"/>
<text text-anchor="start" x="436.5" y="-311.2" font-family="Helvetica,sans-Serif" font-size="11.00">4 &gt;</text>
<polygon fill="none" stroke="black" stroke-width="2" points="201,-304 201,-610 460,-610 460,-304 201,-304"/>
</a>
</g>
</g>
<!-- artefact_shape&#45;&gt;SQE_image -->
<g id="edge2" class="edge">
<title>artefact_shape:w&#45;&gt;SQE_image:e</title>
<path fill="none" stroke="black" d="M494.9,-709.88C457.73,-689.49 519.29,-576 460.5,-576"/>
<polygon fill="black" stroke="black" points="501.19,-711.27 508.22,-716.52 505.09,-712.14 509,-713 509,-713 509,-713 505.09,-712.14 509.78,-709.48 501.19,-711.27 501.19,-711.27"/>
<ellipse fill="none" stroke="black" cx="498.06" cy="-710.58" rx="3.2" ry="3.2"/>
</g>
<!-- image_catalog -->
<g id="node6" class="node">
<title>image_catalog</title>
<g id="a_node6"><a xlink:href="../../tables/image_catalog.html" xlink:title="image_catalog" target="_top">
<polygon fill="#ffffff" stroke="transparent" points="8,-37 8,-205 151,-205 151,-37 8,-37"/>
<polygon fill="#f5f5f5" stroke="transparent" points="8.5,-183 8.5,-205 151.5,-205 151.5,-183 8.5,-183"/>
<polygon fill="none" stroke="black" points="8.5,-183 8.5,-205 151.5,-205 151.5,-183 8.5,-183"/>
<text text-anchor="start" x="13.5" y="-192.2" font-family="Helvetica,sans-Serif" font-weight="bold" font-size="11.00">image_catalog</text>
<text text-anchor="start" x="109.5" y="-191.2" font-family="Helvetica,sans-Serif" font-size="11.00">[table]</text>
<polygon fill="none" stroke="black" points="8.5,-161 8.5,-183 151.5,-183 151.5,-161 8.5,-161"/>
<image xlink:href="../../images/primaryKeys.png" width="11px" height="12px" preserveAspectRatio="xMinYMin meet" x="13.5" y="-178"/>
<text text-anchor="start" x="28.5" y="-169.2" font-family="Helvetica,sans-Serif" font-size="11.00">image_catalog_id</text>
<polygon fill="#ffffff" stroke="transparent" points="8.5,-139 8.5,-161 151.5,-161 151.5,-139 8.5,-139"/>
<polygon fill="none" stroke="black" points="8.5,-139 8.5,-161 151.5,-161 151.5,-139 8.5,-139"/>
<text text-anchor="start" x="28.5" y="-147.2" font-family="Helvetica,sans-Serif" font-size="11.00">institution</text>
<polygon fill="#ffffff" stroke="transparent" points="8.5,-117 8.5,-139 151.5,-139 151.5,-117 8.5,-117"/>
<polygon fill="none" stroke="black" points="8.5,-117 8.5,-139 151.5,-139 151.5,-117 8.5,-117"/>
<text text-anchor="start" x="28.5" y="-125.2" font-family="Helvetica,sans-Serif" font-size="11.00">catalog_number_1</text>
<polygon fill="#ffffff" stroke="transparent" points="8.5,-95 8.5,-117 151.5,-117 151.5,-95 8.5,-95"/>
<polygon fill="none" stroke="black" points="8.5,-95 8.5,-117 151.5,-117 151.5,-95 8.5,-95"/>
<text text-anchor="start" x="28.5" y="-103.2" font-family="Helvetica,sans-Serif" font-size="11.00">catalog_number_2</text>
<polygon fill="#ffffff" stroke="transparent" points="8.5,-73 8.5,-95 151.5,-95 151.5,-73 8.5,-73"/>
<polygon fill="none" stroke="black" points="8.5,-73 8.5,-95 151.5,-95 151.5,-73 8.5,-73"/>
<text text-anchor="start" x="28.5" y="-81.2" font-family="Helvetica,sans-Serif" font-size="11.00">catalog_side</text>
<polygon fill="none" stroke="black" points="8.5,-55 8.5,-73 151.5,-73 151.5,-55 8.5,-55"/>
<text text-anchor="start" x="11.5" y="-61.2" font-family="Helvetica,sans-Serif" font-size="11.00">...</text>
<polygon fill="#ffffff" stroke="transparent" points="8.5,-37 8.5,-55 36.5,-55 36.5,-37 8.5,-37"/>
<polygon fill="none" stroke="black" points="8.5,-37 8.5,-55 36.5,-55 36.5,-37 8.5,-37"/>
<text text-anchor="start" x="11.5" y="-43.2" font-family="Helvetica,sans-Serif" font-size="11.00"> &#160;</text>
<polygon fill="#ffffff" stroke="transparent" points="36.5,-37 36.5,-55 117.5,-55 117.5,-37 36.5,-37"/>
<polygon fill="none" stroke="black" points="36.5,-37 36.5,-55 117.5,-55 117.5,-37 36.5,-37"/>
<text text-anchor="start" x="46.5" y="-43.2" font-family="Helvetica,sans-Serif" font-size="11.00">41,950 rows</text>
<polygon fill="#ffffff" stroke="transparent" points="117.5,-37 117.5,-55 151.5,-55 151.5,-37 117.5,-37"/>
<polygon fill="none" stroke="black" points="117.5,-37 117.5,-55 151.5,-55 151.5,-37 117.5,-37"/>
<text text-anchor="start" x="128.5" y="-43.2" font-family="Helvetica,sans-Serif" font-size="11.00">3 &gt;</text>
</a>
</g>
</g>
<!-- SQE_image&#45;&gt;image_catalog -->
<g id="edge12" class="edge">
<title>SQE_image:w&#45;&gt;image_catalog:e</title>
<path fill="none" stroke="black" d="M187.23,-353.67C131.94,-332.37 231.51,-172 152.5,-172"/>
<polygon fill="black" stroke="black" points="193.6,-354.71 200.92,-359.55 197.55,-355.36 201.5,-356 201.5,-356 201.5,-356 197.55,-355.36 202.08,-352.45 193.6,-354.71 193.6,-354.71"/>
<ellipse fill="none" stroke="black" cx="190.45" cy="-354.2" rx="3.2" ry="3.2"/>
</g>
<!-- image_urls -->
<g id="node12" class="node">
<title>image_urls</title>
<g id="a_node12"><a xlink:href="../../tables/image_urls.html" xlink:title="image_urls" target="_top">
<polygon fill="#ffffff" stroke="transparent" points="20.5,-485 20.5,-587 138.5,-587 138.5,-485 20.5,-485"/>
<polygon fill="#f5f5f5" stroke="transparent" points="20.5,-565 20.5,-587 138.5,-587 138.5,-565 20.5,-565"/>
<polygon fill="none" stroke="black" points="20.5,-565 20.5,-587 138.5,-587 138.5,-565 20.5,-565"/>
<text text-anchor="start" x="25.5" y="-574.2" font-family="Helvetica,sans-Serif" font-weight="bold" font-size="11.00">image_urls</text>
<text text-anchor="start" x="96.5" y="-573.2" font-family="Helvetica,sans-Serif" font-size="11.00">[table]</text>
<polygon fill="none" stroke="black" points="20.5,-543 20.5,-565 138.5,-565 138.5,-543 20.5,-543"/>
<image xlink:href="../../images/primaryKeys.png" width="11px" height="12px" preserveAspectRatio="xMinYMin meet" x="25.5" y="-560"/>
<text text-anchor="start" x="43.5" y="-551.2" font-family="Helvetica,sans-Serif" font-size="11.00">image_urls_id</text>
<polygon fill="none" stroke="black" points="20.5,-521 20.5,-543 138.5,-543 138.5,-521 20.5,-521"/>
<image xlink:href="../../images/primaryKeys.png" width="11px" height="12px" preserveAspectRatio="xMinYMin meet" x="25.5" y="-538"/>
<text text-anchor="start" x="43.5" y="-529.2" font-family="Helvetica,sans-Serif" font-size="11.00">url</text>
<polygon fill="none" stroke="black" points="20.5,-503 20.5,-521 138.5,-521 138.5,-503 20.5,-503"/>
<text text-anchor="start" x="23.5" y="-509.2" font-family="Helvetica,sans-Serif" font-size="11.00">...</text>
<polygon fill="#ffffff" stroke="transparent" points="20.5,-485 20.5,-503 51.5,-503 51.5,-485 20.5,-485"/>
<polygon fill="none" stroke="black" points="20.5,-485 20.5,-503 51.5,-503 51.5,-485 20.5,-485"/>
<text text-anchor="start" x="23.5" y="-491.2" font-family="Helvetica,sans-Serif" font-size="11.00"> &#160;</text>
<polygon fill="#ffffff" stroke="transparent" points="51.5,-485 51.5,-503 103.5,-503 103.5,-485 51.5,-485"/>
<polygon fill="none" stroke="black" points="51.5,-485 51.5,-503 103.5,-503 103.5,-485 51.5,-485"/>
<text text-anchor="start" x="63.5" y="-491.2" font-family="Helvetica,sans-Serif" font-size="11.00">3 rows</text>
<polygon fill="#ffffff" stroke="transparent" points="103.5,-485 103.5,-503 138.5,-503 138.5,-485 103.5,-485"/>
<polygon fill="none" stroke="black" points="103.5,-485 103.5,-503 138.5,-503 138.5,-485 103.5,-485"/>
<text text-anchor="start" x="115.5" y="-491.2" font-family="Helvetica,sans-Serif" font-size="11.00">1 &gt;</text>
</a>
</g>
</g>
<!-- SQE_image&#45;&gt;image_urls -->
<g id="edge13" class="edge">
<title>SQE_image:w&#45;&gt;image_urls:e</title>
<path fill="none" stroke="black" d="M186.92,-554C170.29,-554 161.46,-554 139.5,-554"/>
<polygon fill="black" stroke="black" points="193.5,-554 201.5,-557.6 197.5,-554 201.5,-554 201.5,-554 201.5,-554 197.5,-554 201.5,-550.4 193.5,-554 193.5,-554"/>
<ellipse fill="none" stroke="black" cx="190.3" cy="-554" rx="3.2" ry="3.2"/>
</g>
<!-- artefact_shape_owner -->
<g id="node4" class="node">
<title>artefact_shape_owner</title>
<g id="a_node4"><a xlink:href="../../tables/artefact_shape_owner.html" xlink:title="artefact_shape_owner" target="_top">
<polygon fill="#ffffff" stroke="transparent" points="777,-730 777,-788 964,-788 964,-730 777,-730"/>
<polygon fill="#f5f5f5" stroke="transparent" points="777.5,-766 777.5,-788 964.5,-788 964.5,-766 777.5,-766"/>
<polygon fill="none" stroke="black" points="777.5,-766 777.5,-788 964.5,-788 964.5,-766 777.5,-766"/>
<text text-anchor="start" x="782.5" y="-775.2" font-family="Helvetica,sans-Serif" font-weight="bold" font-size="11.00">artefact_shape_owner</text>
<text text-anchor="start" x="922.5" y="-774.2" font-family="Helvetica,sans-Serif" font-size="11.00">[table]</text>
<polygon fill="none" stroke="black" points="777.5,-748 777.5,-766 964.5,-766 964.5,-748 777.5,-748"/>
<text text-anchor="start" x="780.5" y="-754.2" font-family="Helvetica,sans-Serif" font-size="11.00">...</text>
<polygon fill="#ffffff" stroke="transparent" points="777.5,-730 777.5,-748 839.5,-748 839.5,-730 777.5,-730"/>
<polygon fill="none" stroke="black" points="777.5,-730 777.5,-748 839.5,-748 839.5,-730 777.5,-730"/>
<text text-anchor="start" x="780.5" y="-736.2" font-family="Helvetica,sans-Serif" font-size="11.00">&lt; 3</text>
<polygon fill="#ffffff" stroke="transparent" points="839.5,-730 839.5,-748 931.5,-748 931.5,-730 839.5,-730"/>
<polygon fill="none" stroke="black" points="839.5,-730 839.5,-748 931.5,-748 931.5,-730 839.5,-730"/>
<text text-anchor="start" x="860.5" y="-736.2" font-family="Helvetica,sans-Serif" font-size="11.00">27,810 rows</text>
<polygon fill="#ffffff" stroke="transparent" points="931.5,-730 931.5,-748 964.5,-748 964.5,-730 931.5,-730"/>
<polygon fill="none" stroke="black" points="931.5,-730 931.5,-748 964.5,-748 964.5,-730 931.5,-730"/>
<text text-anchor="start" x="953.5" y="-736.2" font-family="Helvetica,sans-Serif" font-size="11.00"> &#160;</text>
</a>
</g>
</g>
<!-- artefact_shape_owner&#45;&gt;artefact_shape -->
<g id="edge3" class="edge">
<title>artefact_shape_owner:w&#45;&gt;artefact_shape:e</title>
<path fill="none" stroke="black" d="M761.97,-757C742.99,-757 733.49,-757 709,-757"/>
<polygon fill="black" stroke="black" points="768.5,-757 776.5,-760.6 772.5,-757 776.5,-757 776.5,-757 776.5,-757 772.5,-757 776.5,-753.4 768.5,-757 768.5,-757"/>
<ellipse fill="none" stroke="black" cx="765.3" cy="-757" rx="3.2" ry="3.2"/>
</g>
<!-- image_catalog_author -->
<g id="node5" class="node">
<title>image_catalog_author</title>
<g id="a_node5"><a xlink:href="../../tables/image_catalog_author.html" xlink:title="image_catalog_author" target="_top">
<polygon fill="#ffffff" stroke="transparent" points="516,-131 516,-189 702,-189 702,-131 516,-131"/>
<polygon fill="#f5f5f5" stroke="transparent" points="516,-167 516,-189 702,-189 702,-167 516,-167"/>
<polygon fill="none" stroke="black" points="516,-167 516,-189 702,-189 702,-167 516,-167"/>
<text text-anchor="start" x="521" y="-176.2" font-family="Helvetica,sans-Serif" font-weight="bold" font-size="11.00">image_catalog_author</text>
<text text-anchor="start" x="660" y="-175.2" font-family="Helvetica,sans-Serif" font-size="11.00">[table]</text>
<polygon fill="none" stroke="black" points="516,-149 516,-167 702,-167 702,-149 516,-149"/>
<text text-anchor="start" x="519" y="-155.2" font-family="Helvetica,sans-Serif" font-size="11.00">...</text>
<polygon fill="#ffffff" stroke="transparent" points="516,-131 516,-149 578,-149 578,-131 516,-131"/>
<polygon fill="none" stroke="black" points="516,-131 516,-149 578,-149 578,-131 516,-131"/>
<text text-anchor="start" x="519" y="-137.2" font-family="Helvetica,sans-Serif" font-size="11.00">&lt; 2</text>
<polygon fill="#ffffff" stroke="transparent" points="578,-131 578,-149 670,-149 670,-131 578,-131"/>
<polygon fill="none" stroke="black" points="578,-131 578,-149 670,-149 670,-131 578,-131"/>
<text text-anchor="start" x="599" y="-137.2" font-family="Helvetica,sans-Serif" font-size="11.00">41,829 rows</text>
<polygon fill="#ffffff" stroke="transparent" points="670,-131 670,-149 702,-149 702,-131 670,-131"/>
<polygon fill="none" stroke="black" points="670,-131 670,-149 702,-149 702,-131 670,-131"/>
<text text-anchor="start" x="691" y="-137.2" font-family="Helvetica,sans-Serif" font-size="11.00"> &#160;</text>
</a>
</g>
</g>
<!-- image_catalog_author&#45;&gt;image_catalog -->
<g id="edge4" class="edge">
<title>image_catalog_author:w&#45;&gt;image_catalog:e</title>
<path fill="none" stroke="black" d="M504.49,-156.39C491.04,-151.77 487.37,-138.5 469,-134 349.43,-104.68 306.19,-87.99 192,-134 169.4,-143.1 176.86,-172 152.5,-172"/>
<polygon fill="black" stroke="black" points="514.82,-153.92 513.6,-161.83 512.02,-161.59 513.23,-153.68 514.82,-153.92"/>
<polyline fill="none" stroke="black" points="515,-158 511.05,-157.39 "/>
<ellipse fill="none" stroke="black" cx="507.88" cy="-156.91" rx="3.2" ry="3.2"/>
</g>
<!-- user -->
<g id="node7" class="node">
<title>user</title>
<g id="a_node7"><a xlink:href="../../tables/user.html" xlink:title="user" target="_top">
<polygon fill="#ffffff" stroke="transparent" points="285.5,-224 285.5,-282 375.5,-282 375.5,-224 285.5,-224"/>
<polygon fill="#f5f5f5" stroke="transparent" points="285.5,-260 285.5,-282 375.5,-282 375.5,-260 285.5,-260"/>
<polygon fill="none" stroke="black" points="285.5,-260 285.5,-282 375.5,-282 375.5,-260 285.5,-260"/>
<text text-anchor="start" x="290.5" y="-269.2" font-family="Helvetica,sans-Serif" font-weight="bold" font-size="11.00">user</text>
<text text-anchor="start" x="333.5" y="-268.2" font-family="Helvetica,sans-Serif" font-size="11.00">[table]</text>
<polygon fill="none" stroke="black" points="285.5,-242 285.5,-260 375.5,-260 375.5,-242 285.5,-242"/>
<text text-anchor="start" x="288.5" y="-248.2" font-family="Helvetica,sans-Serif" font-size="11.00">...</text>
<polygon fill="#ffffff" stroke="transparent" points="285.5,-224 285.5,-242 299.5,-242 299.5,-224 285.5,-224"/>
<polygon fill="none" stroke="black" points="285.5,-224 285.5,-242 299.5,-242 299.5,-224 285.5,-224"/>
<text text-anchor="start" x="288.5" y="-230.2" font-family="Helvetica,sans-Serif" font-size="11.00"> &#160;</text>
<polygon fill="#ffffff" stroke="transparent" points="299.5,-224 299.5,-242 342.5,-242 342.5,-224 299.5,-224"/>
<polygon fill="none" stroke="black" points="299.5,-224 299.5,-242 342.5,-242 342.5,-224 299.5,-224"/>
<text text-anchor="start" x="302.5" y="-230.2" font-family="Helvetica,sans-Serif" font-size="11.00">0 rows</text>
<polygon fill="#ffffff" stroke="transparent" points="342.5,-224 342.5,-242 375.5,-242 375.5,-224 342.5,-224"/>
<polygon fill="none" stroke="black" points="342.5,-224 342.5,-242 375.5,-242 375.5,-224 342.5,-224"/>
<text text-anchor="start" x="345.5" y="-230.2" font-family="Helvetica,sans-Serif" font-size="11.00">10 &gt;</text>
</a>
</g>
</g>
<!-- image_catalog_author&#45;&gt;user -->
<g id="edge5" class="edge">
<title>image_catalog_author:w&#45;&gt;user:e</title>
<path fill="none" stroke="black" d="M500.7,-161.74C486.23,-171.47 489.69,-197.85 469,-213 433.14,-239.26 420.94,-251 376.5,-251"/>
<polygon fill="black" stroke="black" points="507.26,-160.02 515.91,-161.48 511.13,-159.01 515,-158 515,-158 515,-158 511.13,-159.01 514.09,-154.52 507.26,-160.02 507.26,-160.02"/>
<ellipse fill="none" stroke="black" cx="504.16" cy="-160.83" rx="3.2" ry="3.2"/>
</g>
<!-- image_to_iaa_edition_catalog -->
<g id="node8" class="node">
<title>image_to_iaa_edition_catalog</title>
<g id="a_node8"><a xlink:href="../../tables/image_to_iaa_edition_catalog.html" xlink:title="image_to_iaa_edition_catalog" target="_top">
<polygon fill="#ffffff" stroke="transparent" points="215.5,-145 215.5,-203 445.5,-203 445.5,-145 215.5,-145"/>
<polygon fill="#f5f5f5" stroke="transparent" points="215.5,-181 215.5,-203 445.5,-203 445.5,-181 215.5,-181"/>
<polygon fill="none" stroke="black" points="215.5,-181 215.5,-203 445.5,-203 445.5,-181 215.5,-181"/>
<text text-anchor="start" x="220.5" y="-190.2" font-family="Helvetica,sans-Serif" font-weight="bold" font-size="11.00">image_to_iaa_edition_catalog</text>
<text text-anchor="start" x="403.5" y="-189.2" font-family="Helvetica,sans-Serif" font-size="11.00">[table]</text>
<polygon fill="none" stroke="black" points="215.5,-163 215.5,-181 445.5,-181 445.5,-163 215.5,-163"/>
<text text-anchor="start" x="218.5" y="-169.2" font-family="Helvetica,sans-Serif" font-size="11.00">...</text>
<polygon fill="#ffffff" stroke="transparent" points="215.5,-145 215.5,-163 299.5,-163 299.5,-145 215.5,-145"/>
<polygon fill="none" stroke="black" points="215.5,-145 215.5,-163 299.5,-163 299.5,-145 215.5,-145"/>
<text text-anchor="start" x="218.5" y="-151.2" font-family="Helvetica,sans-Serif" font-size="11.00">&lt; 2</text>
<polygon fill="#ffffff" stroke="transparent" points="299.5,-145 299.5,-163 402.5,-163 402.5,-145 299.5,-145"/>
<polygon fill="none" stroke="black" points="299.5,-145 299.5,-163 402.5,-163 402.5,-145 299.5,-145"/>
<text text-anchor="start" x="331.5" y="-151.2" font-family="Helvetica,sans-Serif" font-size="11.00">39,105 rows</text>
<polygon fill="#ffffff" stroke="transparent" points="402.5,-145 402.5,-163 445.5,-163 445.5,-145 402.5,-145"/>
<polygon fill="none" stroke="black" points="402.5,-145 402.5,-163 445.5,-163 445.5,-145 402.5,-145"/>
<text text-anchor="start" x="434.5" y="-151.2" font-family="Helvetica,sans-Serif" font-size="11.00"> &#160;</text>
</a>
</g>
</g>
<!-- image_to_iaa_edition_catalog&#45;&gt;image_catalog -->
<g id="edge6" class="edge">
<title>image_to_iaa_edition_catalog:w&#45;&gt;image_catalog:e</title>
<path fill="none" stroke="black" d="M199.92,-172C183.29,-172 174.46,-172 152.5,-172"/>
<polygon fill="black" stroke="black" points="206.5,-172 214.5,-175.6 210.5,-172 214.5,-172 214.5,-172 214.5,-172 210.5,-172 214.5,-168.4 206.5,-172 206.5,-172"/>
<ellipse fill="none" stroke="black" cx="203.3" cy="-172" rx="3.2" ry="3.2"/>
</g>
<!-- image_to_image_map -->
<g id="node9" class="node">
<title>image_to_image_map</title>
<g id="a_node9"><a xlink:href="../../tables/image_to_image_map.html" xlink:title="image_to_image_map" target="_top">
<polygon fill="#ffffff" stroke="transparent" points="517.5,-433 517.5,-623 700.5,-623 700.5,-433 517.5,-433"/>
<polygon fill="#f5f5f5" stroke="transparent" points="518,-601 518,-623 701,-623 701,-601 518,-601"/>
<polygon fill="none" stroke="black" points="518,-601 518,-623 701,-623 701,-601 518,-601"/>
<text text-anchor="start" x="523" y="-610.2" font-family="Helvetica,sans-Serif" font-weight="bold" font-size="11.00">image_to_image_map</text>
<text text-anchor="start" x="659" y="-609.2" font-family="Helvetica,sans-Serif" font-size="11.00">[table]</text>
<polygon fill="none" stroke="black" points="518,-579 518,-601 701,-601 701,-579 518,-579"/>
<image xlink:href="../../images/primaryKeys.png" width="11px" height="12px" preserveAspectRatio="xMinYMin meet" x="523" y="-596"/>
<text text-anchor="start" x="538" y="-587.2" font-family="Helvetica,sans-Serif" font-size="11.00">image_to_image_map_id</text>
<polygon fill="#ffffff" stroke="transparent" points="518,-557 518,-579 701,-579 701,-557 518,-557"/>
<polygon fill="none" stroke="black" points="518,-557 518,-579 701,-579 701,-557 518,-557"/>
<image xlink:href="../../images/foreignKeys.png" width="11px" height="12px" preserveAspectRatio="xMinYMin meet" x="523" y="-574"/>
<text text-anchor="start" x="538" y="-565.2" font-family="Helvetica,sans-Serif" font-size="11.00">image1_id</text>
<polygon fill="#ffffff" stroke="transparent" points="518,-535 518,-557 701,-557 701,-535 518,-535"/>
<polygon fill="none" stroke="black" points="518,-535 518,-557 701,-557 701,-535 518,-535"/>
<image xlink:href="../../images/foreignKeys.png" width="11px" height="12px" preserveAspectRatio="xMinYMin meet" x="523" y="-552"/>
<text text-anchor="start" x="538" y="-543.2" font-family="Helvetica,sans-Serif" font-size="11.00">image2_id</text>
<polygon fill="#ffffff" stroke="transparent" points="518,-513 518,-535 701,-535 701,-513 518,-513"/>
<polygon fill="none" stroke="black" points="518,-513 518,-535 701,-535 701,-513 518,-513"/>
<text text-anchor="start" x="538" y="-521.2" font-family="Helvetica,sans-Serif" font-size="11.00">transform_matrix</text>
<polygon fill="#ffffff" stroke="transparent" points="518,-491 518,-513 701,-513 701,-491 518,-491"/>
<polygon fill="none" stroke="black" points="518,-491 518,-513 701,-513 701,-491 518,-491"/>
<text text-anchor="start" x="538" y="-499.2" font-family="Helvetica,sans-Serif" font-size="11.00">region1_hash</text>
<polygon fill="#ffffff" stroke="transparent" points="518,-469 518,-491 701,-491 701,-469 518,-469"/>
<polygon fill="none" stroke="black" points="518,-469 518,-491 701,-491 701,-469 518,-469"/>
<text text-anchor="start" x="538" y="-477.2" font-family="Helvetica,sans-Serif" font-size="11.00">region2_hash</text>
<polygon fill="none" stroke="black" points="518,-451 518,-469 701,-469 701,-451 518,-451"/>
<text text-anchor="start" x="521" y="-457.2" font-family="Helvetica,sans-Serif" font-size="11.00">...</text>
<polygon fill="#ffffff" stroke="transparent" points="518,-433 518,-451 572,-451 572,-433 518,-433"/>
<polygon fill="none" stroke="black" points="518,-433 518,-451 572,-451 572,-433 518,-433"/>
<text text-anchor="start" x="521" y="-439.2" font-family="Helvetica,sans-Serif" font-size="11.00">&lt; 2</text>
<polygon fill="#ffffff" stroke="transparent" points="572,-433 572,-451 660,-451 660,-433 572,-433"/>
<polygon fill="none" stroke="black" points="572,-433 572,-451 660,-451 660,-433 572,-433"/>
<text text-anchor="start" x="589" y="-439.2" font-family="Helvetica,sans-Serif" font-size="11.00">69,272 rows</text>
<polygon fill="#ffffff" stroke="transparent" points="660,-433 660,-451 701,-451 701,-433 660,-433"/>
<polygon fill="none" stroke="black" points="660,-433 660,-451 701,-451 701,-433 660,-433"/>
<text text-anchor="start" x="678" y="-439.2" font-family="Helvetica,sans-Serif" font-size="11.00">2 &gt;</text>
</a>
</g>
</g>
<!-- image_to_image_map&#45;&gt;SQE_image -->
<g id="edge7" class="edge">
<title>image_to_image_map:w&#45;&gt;SQE_image:e</title>
<path fill="none" stroke="black" d="M502.32,-569.05C488.02,-571.21 480.12,-576 460.5,-576"/>
<polygon fill="black" stroke="black" points="509.02,-568.57 517.26,-571.59 513.01,-568.28 517,-568 517,-568 517,-568 513.01,-568.28 516.74,-564.41 509.02,-568.57 509.02,-568.57"/>
<ellipse fill="none" stroke="black" cx="505.83" cy="-568.8" rx="3.2" ry="3.2"/>
</g>
<!-- image_to_image_map&#45;&gt;SQE_image -->
<g id="edge8" class="edge">
<title>image_to_image_map:w&#45;&gt;SQE_image:e</title>
<path fill="none" stroke="black" d="M502.76,-549.21C487.53,-556.95 483.16,-576 460.5,-576"/>
<polygon fill="black" stroke="black" points="509.2,-547.76 517.79,-549.51 513.1,-546.88 517,-546 517,-546 517,-546 513.1,-546.88 516.21,-542.49 509.2,-547.76 509.2,-547.76"/>
<ellipse fill="none" stroke="black" cx="506.07" cy="-548.46" rx="3.2" ry="3.2"/>
</g>
<!-- image_to_image_map_author -->
<g id="node10" class="node">
<title>image_to_image_map_author</title>
<g id="a_node10"><a xlink:href="../../tables/image_to_image_map_author.html" xlink:title="image_to_image_map_author" target="_top">
<polygon fill="#ffffff" stroke="transparent" points="757,-342 757,-400 984,-400 984,-342 757,-342"/>
<polygon fill="#f5f5f5" stroke="transparent" points="757.5,-378 757.5,-400 984.5,-400 984.5,-378 757.5,-378"/>
<polygon fill="none" stroke="black" points="757.5,-378 757.5,-400 984.5,-400 984.5,-378 757.5,-378"/>
<text text-anchor="start" x="762.5" y="-387.2" font-family="Helvetica,sans-Serif" font-weight="bold" font-size="11.00">image_to_image_map_author</text>
<text text-anchor="start" x="942.5" y="-386.2" font-family="Helvetica,sans-Serif" font-size="11.00">[table]</text>
<polygon fill="none" stroke="black" points="757.5,-360 757.5,-378 984.5,-378 984.5,-360 757.5,-360"/>
<text text-anchor="start" x="760.5" y="-366.2" font-family="Helvetica,sans-Serif" font-size="11.00">...</text>
<polygon fill="#ffffff" stroke="transparent" points="757.5,-342 757.5,-360 839.5,-360 839.5,-342 757.5,-342"/>
<polygon fill="none" stroke="black" points="757.5,-342 757.5,-360 839.5,-360 839.5,-342 757.5,-342"/>
<text text-anchor="start" x="760.5" y="-348.2" font-family="Helvetica,sans-Serif" font-size="11.00">&lt; 2</text>
<polygon fill="#ffffff" stroke="transparent" points="839.5,-342 839.5,-360 941.5,-360 941.5,-342 839.5,-342"/>
<polygon fill="none" stroke="black" points="839.5,-342 839.5,-360 941.5,-360 941.5,-342 839.5,-342"/>
<text text-anchor="start" x="870.5" y="-348.2" font-family="Helvetica,sans-Serif" font-size="11.00">72,198 rows</text>
<polygon fill="#ffffff" stroke="transparent" points="941.5,-342 941.5,-360 984.5,-360 984.5,-342 941.5,-342"/>
<polygon fill="none" stroke="black" points="941.5,-342 941.5,-360 984.5,-360 984.5,-342 941.5,-342"/>
<text text-anchor="start" x="973.5" y="-348.2" font-family="Helvetica,sans-Serif" font-size="11.00"> &#160;</text>
</a>
</g>
</g>
<!-- image_to_image_map_author&#45;&gt;user -->
<g id="edge10" class="edge">
<title>image_to_image_map_author:w&#45;&gt;user:e</title>
<path fill="none" stroke="black" d="M742.75,-364.63C729.89,-353.34 737.75,-323.04 716,-309 587.38,-225.99 529.57,-251 376.5,-251"/>
<polygon fill="black" stroke="black" points="748.88,-366.58 755.41,-372.43 752.69,-367.79 756.5,-369 756.5,-369 756.5,-369 752.69,-367.79 757.59,-365.57 748.88,-366.58 748.88,-366.58"/>
<ellipse fill="none" stroke="black" cx="745.83" cy="-365.61" rx="3.2" ry="3.2"/>
</g>
<!-- image_to_image_map_author&#45;&gt;image_to_image_map -->
<g id="edge9" class="edge">
<title>image_to_image_map_author:w&#45;&gt;image_to_image_map:e</title>
<path fill="none" stroke="black" d="M742.06,-370.91C670.76,-392.51 797.63,-590 702,-590"/>
<polygon fill="black" stroke="black" points="748.57,-370.05 756.97,-372.57 752.53,-369.52 756.5,-369 756.5,-369 756.5,-369 752.53,-369.52 756.03,-365.43 748.57,-370.05 748.57,-370.05"/>
<ellipse fill="none" stroke="black" cx="745.4" cy="-370.47" rx="3.2" ry="3.2"/>
</g>
<!-- point_to_point_map -->
<g id="node11" class="node">
<title>point_to_point_map</title>
<g id="a_node11"><a xlink:href="../../tables/point_to_point_map.html" xlink:title="point_to_point_map" target="_top">
<polygon fill="#ffffff" stroke="transparent" points="786,-563 786,-621 955,-621 955,-563 786,-563"/>
<polygon fill="#f5f5f5" stroke="transparent" points="786.5,-599 786.5,-621 955.5,-621 955.5,-599 786.5,-599"/>
<polygon fill="none" stroke="black" points="786.5,-599 786.5,-621 955.5,-621 955.5,-599 786.5,-599"/>
<text text-anchor="start" x="791.5" y="-608.2" font-family="Helvetica,sans-Serif" font-weight="bold" font-size="11.00">point_to_point_map</text>
<text text-anchor="start" x="913.5" y="-607.2" font-family="Helvetica,sans-Serif" font-size="11.00">[table]</text>
<polygon fill="none" stroke="black" points="786.5,-581 786.5,-599 955.5,-599 955.5,-581 786.5,-581"/>
<text text-anchor="start" x="789.5" y="-587.2" font-family="Helvetica,sans-Serif" font-size="11.00">...</text>
<polygon fill="#ffffff" stroke="transparent" points="786.5,-563 786.5,-581 855.5,-581 855.5,-563 786.5,-563"/>
<polygon fill="none" stroke="black" points="786.5,-563 786.5,-581 855.5,-581 855.5,-563 786.5,-563"/>
<text text-anchor="start" x="789.5" y="-569.2" font-family="Helvetica,sans-Serif" font-size="11.00">&lt; 1</text>
<polygon fill="#ffffff" stroke="transparent" points="855.5,-563 855.5,-581 919.5,-581 919.5,-563 855.5,-563"/>
<polygon fill="none" stroke="black" points="855.5,-563 855.5,-581 919.5,-581 919.5,-563 855.5,-563"/>
<text text-anchor="start" x="879.5" y="-569.2" font-family="Helvetica,sans-Serif" font-size="11.00">0 rows</text>
<polygon fill="#ffffff" stroke="transparent" points="919.5,-563 919.5,-581 955.5,-581 955.5,-563 919.5,-563"/>
<polygon fill="none" stroke="black" points="919.5,-563 919.5,-581 955.5,-581 955.5,-563 919.5,-563"/>
<text text-anchor="start" x="944.5" y="-569.2" font-family="Helvetica,sans-Serif" font-size="11.00"> &#160;</text>
</a>
</g>
</g>
<!-- point_to_point_map&#45;&gt;image_to_image_map -->
<g id="edge11" class="edge">
<title>point_to_point_map:w&#45;&gt;image_to_image_map:e</title>
<path fill="none" stroke="black" d="M770.99,-590C745.13,-590 733.75,-590 702,-590"/>
<polygon fill="black" stroke="black" points="777.5,-590 785.5,-593.6 781.5,-590 785.5,-590 785.5,-590 785.5,-590 781.5,-590 785.5,-586.4 777.5,-590 777.5,-590"/>
<ellipse fill="none" stroke="black" cx="774.3" cy="-590" rx="3.2" ry="3.2"/>
</g>
<!-- SQE_image_author -->
<g id="node13" class="node">
<title>SQE_image_author</title>
<g id="a_node13"><a xlink:href="../../tables/SQE_image_author.html" xlink:title="SQE_image_author" target="_top">
<polygon fill="#ffffff" stroke="transparent" points="526.5,-320 526.5,-404 691.5,-404 691.5,-320 526.5,-320"/>
<polygon fill="#f5f5f5" stroke="transparent" points="527,-382 527,-404 692,-404 692,-382 527,-382"/>
<polygon fill="none" stroke="black" points="527,-382 527,-404 692,-404 692,-382 527,-382"/>
<text text-anchor="start" x="532" y="-391.2" font-family="Helvetica,sans-Serif" font-weight="bold" font-size="11.00">SQE_image_author</text>
<text text-anchor="start" x="650" y="-390.2" font-family="Helvetica,sans-Serif" font-size="11.00">[table]</text>
<polygon fill="none" stroke="black" points="527,-360 527,-382 692,-382 692,-360 527,-360"/>
<image xlink:href="../../images/primaryKeys.png" width="11px" height="12px" preserveAspectRatio="xMinYMin meet" x="532" y="-377"/>
<text text-anchor="start" x="557" y="-368.2" font-family="Helvetica,sans-Serif" font-size="11.00">sqe_image_id</text>
<polygon fill="#ffffff" stroke="transparent" points="527,-338 527,-360 692,-360 692,-338 527,-338"/>
<polygon fill="none" stroke="black" points="527,-338 527,-360 692,-360 692,-338 527,-338"/>
<image xlink:href="../../images/foreignKeys.png" width="11px" height="12px" preserveAspectRatio="xMinYMin meet" x="532" y="-355"/>
<text text-anchor="start" x="557" y="-346.2" font-family="Helvetica,sans-Serif" font-size="11.00">user_id</text>
<polygon fill="#ffffff" stroke="transparent" points="527,-320 527,-338 578,-338 578,-320 527,-320"/>
<polygon fill="none" stroke="black" points="527,-320 527,-338 578,-338 578,-320 527,-320"/>
<text text-anchor="start" x="530" y="-326.2" font-family="Helvetica,sans-Serif" font-size="11.00">&lt; 2</text>
<polygon fill="#ffffff" stroke="transparent" points="578,-320 578,-338 665,-338 665,-320 578,-320"/>
<polygon fill="none" stroke="black" points="578,-320 578,-338 665,-338 665,-320 578,-320"/>
<text text-anchor="start" x="594" y="-326.2" font-family="Helvetica,sans-Serif" font-size="11.00">97,205 rows</text>
<polygon fill="#ffffff" stroke="transparent" points="665,-320 665,-338 692,-338 692,-320 665,-320"/>
<polygon fill="none" stroke="black" points="665,-320 665,-338 692,-338 692,-320 665,-320"/>
<text text-anchor="start" x="681" y="-326.2" font-family="Helvetica,sans-Serif" font-size="11.00"> &#160;</text>
</a>
</g>
</g>
<!-- SQE_image_author&#45;&gt;SQE_image -->
<g id="edge14" class="edge">
<title>SQE_image_author:w&#45;&gt;SQE_image:e</title>
<path fill="none" stroke="black" d="M515.32,-372.01C440.3,-387.47 552.23,-576 460.5,-576"/>
<polygon fill="black" stroke="black" points="524.83,-367.09 525.58,-375.06 523.99,-375.21 523.24,-367.24 524.83,-367.09"/>
<polyline fill="none" stroke="black" points="526,-371 522.02,-371.38 "/>
<ellipse fill="none" stroke="black" cx="518.83" cy="-371.68" rx="3.2" ry="3.2"/>
</g>
<!-- SQE_image_author&#45;&gt;user -->
<g id="edge15" class="edge">
<title>SQE_image_author:w&#45;&gt;user:e</title>
<path fill="none" stroke="black" d="M511.66,-346.33C492.05,-337.64 493.48,-309.8 469,-293 431.77,-267.45 421.65,-251 376.5,-251"/>
<polygon fill="black" stroke="black" points="518.14,-347.53 525.34,-352.54 522.07,-348.27 526,-349 526,-349 526,-349 522.07,-348.27 526.66,-345.46 518.14,-347.53 518.14,-347.53"/>
<ellipse fill="none" stroke="black" cx="514.99" cy="-346.95" rx="3.2" ry="3.2"/>
</g>
</g>
</svg>
