<?xml version="1.0" encoding="UTF-8" standalone="no"?>
<!DOCTYPE svg PUBLIC "-//W3C//DTD SVG 1.1//EN"
 "http://www.w3.org/Graphics/SVG/1.1/DTD/svg11.dtd">
<!-- Generated by graphviz version 2.43.0 (0)
 -->
<!-- Title: oneDegreeRelationshipsDiagramImplied Pages: 1 -->
<svg width="483pt" height="318pt"
 viewBox="0.00 0.00 483.00 318.00" xmlns="http://www.w3.org/2000/svg" xmlns:xlink="http://www.w3.org/1999/xlink">
<g id="graph0" class="graph" transform="scale(1 1) rotate(0) translate(4 314)">
<title>oneDegreeRelationshipsDiagramImplied</title>
<polygon fill="#ffffff" stroke="transparent" points="-4,4 -4,-314 479,-314 479,4 -4,4"/>
<text text-anchor="middle" x="79.5" y="-7.2" font-family="Helvetica,sans-Serif" font-size="11.00">Generated by SchemaSpy</text>
<!-- SQE_image_author -->
<g id="node1" class="node">
<title>SQE_image_author</title>
<g id="a_node1"><a xlink:href="../../tables/SQE_image_author.html" xlink:title="SQE_image_author" target="_top">
<polygon fill="#ffffff" stroke="transparent" points="220,-147 220,-235 467,-235 467,-147 220,-147"/>
<polygon fill="#f5f5f5" stroke="transparent" points="222.5,-211 222.5,-233 465.5,-233 465.5,-211 222.5,-211"/>
<polygon fill="none" stroke="black" points="222.5,-211 222.5,-233 465.5,-233 465.5,-211 222.5,-211"/>
<text text-anchor="start" x="227.5" y="-220.2" font-family="Helvetica,sans-Serif" font-weight="bold" font-size="11.00">SQE_image_author</text>
<text text-anchor="start" x="423.5" y="-219.2" font-family="Helvetica,sans-Serif" font-size="11.00">[table]</text>
<polygon fill="none" stroke="black" points="222.5,-189 222.5,-211 368.5,-211 368.5,-189 222.5,-189"/>
<image xlink:href="../../images/primaryKeys.png" width="11px" height="12px" preserveAspectRatio="xMinYMin meet" x="227.5" y="-206"/>
<text text-anchor="start" x="242.5" y="-197.2" font-family="Helvetica,sans-Serif" font-size="11.00">sqe_image_id</text>
<polygon fill="none" stroke="black" points="368.5,-189 368.5,-211 465.5,-211 465.5,-189 368.5,-189"/>
<text text-anchor="start" x="371.5" y="-197.2" font-family="Helvetica,sans-Serif" font-size="11.00">int unsigned[10]</text>
<polygon fill="#ffffff" stroke="transparent" points="222.5,-167 222.5,-189 368.5,-189 368.5,-167 222.5,-167"/>
<polygon fill="none" stroke="black" points="222.5,-167 222.5,-189 368.5,-189 368.5,-167 222.5,-167"/>
<image xlink:href="../../images/foreignKeys.png" width="11px" height="12px" preserveAspectRatio="xMinYMin meet" x="227.5" y="-184"/>
<text text-anchor="start" x="242.5" y="-175.2" font-family="Helvetica,sans-Serif" font-size="11.00">user_id</text>
<polygon fill="none" stroke="black" points="368.5,-167 368.5,-189 465.5,-189 465.5,-167 368.5,-167"/>
<text text-anchor="start" x="371.5" y="-175.2" font-family="Helvetica,sans-Serif" font-size="11.00">int unsigned[10]</text>
<polygon fill="#ffffff" stroke="transparent" points="222.5,-149 222.5,-167 271.5,-167 271.5,-149 222.5,-149"/>
<polygon fill="none" stroke="black" points="222.5,-149 222.5,-167 271.5,-167 271.5,-149 222.5,-149"/>
<text text-anchor="start" x="225.5" y="-155.2" font-family="Helvetica,sans-Serif" font-size="11.00">&lt; 2</text>
<polygon fill="#ffffff" stroke="transparent" points="271.5,-149 271.5,-167 368.5,-167 368.5,-149 271.5,-149"/>
<polygon fill="none" stroke="black" points="271.5,-149 271.5,-167 368.5,-167 368.5,-149 271.5,-149"/>
<text text-anchor="start" x="297.5" y="-155.2" font-family="Helvetica,sans-Serif" font-size="11.00">97,205 rows</text>
<polygon fill="#ffffff" stroke="transparent" points="368.5,-149 368.5,-167 465.5,-167 465.5,-149 368.5,-149"/>
<polygon fill="none" stroke="black" points="368.5,-149 368.5,-167 465.5,-167 465.5,-149 368.5,-149"/>
<text text-anchor="start" x="442.5" y="-155.2" font-family="Helvetica,sans-Serif" font-size="11.00">0 &gt;</text>
<polygon fill="none" stroke="black" stroke-width="2" points="221,-148 221,-234 466,-234 466,-148 221,-148"/>
</a>
</g>
</g>
<!-- SQE_image -->
<g id="node2" class="node">
<title>SQE_image</title>
<g id="a_node2"><a xlink:href="../../tables/SQE_image.html" xlink:title="SQE_image" target="_top">
<polygon fill="#ffffff" stroke="transparent" points="20.5,-160 20.5,-306 158.5,-306 158.5,-160 20.5,-160"/>
<polygon fill="#f5f5f5" stroke="transparent" points="20.5,-284 20.5,-306 158.5,-306 158.5,-284 20.5,-284"/>
<polygon fill="none" stroke="black" points="20.5,-284 20.5,-306 158.5,-306 158.5,-284 20.5,-284"/>
<text text-anchor="start" x="25.5" y="-293.2" font-family="Helvetica,sans-Serif" font-weight="bold" font-size="11.00">SQE_image</text>
<text text-anchor="start" x="116.5" y="-292.2" font-family="Helvetica,sans-Serif" font-size="11.00">[table]</text>
<polygon fill="none" stroke="black" points="20.5,-262 20.5,-284 158.5,-284 158.5,-262 20.5,-262"/>
<image xlink:href="../../images/primaryKeys.png" width="11px" height="12px" preserveAspectRatio="xMinYMin meet" x="25.5" y="-279"/>
<text text-anchor="start" x="40.5" y="-270.2" font-family="Helvetica,sans-Serif" font-size="11.00">sqe_image_id</text>
<polygon fill="#ffffff" stroke="transparent" points="20.5,-240 20.5,-262 158.5,-262 158.5,-240 20.5,-240"/>
<polygon fill="none" stroke="black" points="20.5,-240 20.5,-262 158.5,-262 158.5,-240 20.5,-240"/>
<image xlink:href="../../images/foreignKeys.png" width="11px" height="12px" preserveAspectRatio="xMinYMin meet" x="25.5" y="-257"/>
<text text-anchor="start" x="40.5" y="-248.2" font-family="Helvetica,sans-Serif" font-size="11.00">image_urls_id</text>
<polygon fill="#ffffff" stroke="transparent" points="20.5,-218 20.5,-240 158.5,-240 158.5,-218 20.5,-218"/>
<polygon fill="none" stroke="black" points="20.5,-218 20.5,-240 158.5,-240 158.5,-218 20.5,-218"/>
<text text-anchor="start" x="40.5" y="-226.2" font-family="Helvetica,sans-Serif" font-size="11.00">filename</text>
<polygon fill="#ffffff" stroke="transparent" points="20.5,-196 20.5,-218 158.5,-218 158.5,-196 20.5,-196"/>
<polygon fill="none" stroke="black" points="20.5,-196 20.5,-218 158.5,-218 158.5,-196 20.5,-196"/>
<image xlink:href="../../images/foreignKeys.png" width="11px" height="12px" preserveAspectRatio="xMinYMin meet" x="25.5" y="-213"/>
<text text-anchor="start" x="40.5" y="-204.2" font-family="Helvetica,sans-Serif" font-size="11.00">image_catalog_id</text>
<polygon fill="none" stroke="black" points="20.5,-178 20.5,-196 158.5,-196 158.5,-178 20.5,-178"/>
<text text-anchor="start" x="23.5" y="-184.2" font-family="Helvetica,sans-Serif" font-size="11.00">...</text>
<polygon fill="#ffffff" stroke="transparent" points="20.5,-160 20.5,-178 48.5,-178 48.5,-160 20.5,-160"/>
<polygon fill="none" stroke="black" points="20.5,-160 20.5,-178 48.5,-178 48.5,-160 20.5,-160"/>
<text text-anchor="start" x="23.5" y="-166.2" font-family="Helvetica,sans-Serif" font-size="11.00">&lt; 2</text>
<polygon fill="#ffffff" stroke="transparent" points="48.5,-160 48.5,-178 130.5,-178 130.5,-160 48.5,-160"/>
<polygon fill="none" stroke="black" points="48.5,-160 48.5,-178 130.5,-178 130.5,-160 48.5,-160"/>
<text text-anchor="start" x="52.5" y="-166.2" font-family="Helvetica,sans-Serif" font-size="11.00">101,504 rows</text>
<polygon fill="#ffffff" stroke="transparent" points="130.5,-160 130.5,-178 158.5,-178 158.5,-160 130.5,-160"/>
<polygon fill="none" stroke="black" points="130.5,-160 130.5,-178 158.5,-178 158.5,-160 130.5,-160"/>
<text text-anchor="start" x="135.5" y="-166.2" font-family="Helvetica,sans-Serif" font-size="11.00">4 &gt;</text>
</a>
</g>
</g>
<!-- SQE_image_author&#45;&gt;SQE_image -->
<g id="edge1" class="edge">
<title>SQE_image_author:w&#45;&gt;SQE_image:e</title>
<path fill="none" stroke="black" d="M211.15,-201.8C182.69,-213.05 198.08,-273 159.5,-273"/>
<polygon fill="black" stroke="black" points="220.02,-196.2 221.4,-204.08 219.82,-204.35 218.45,-196.47 220.02,-196.2"/>
<polyline fill="none" stroke="black" points="221.5,-200 217.56,-200.69 "/>
<ellipse fill="none" stroke="black" cx="214.41" cy="-201.24" rx="3.2" ry="3.2"/>
</g>
<!-- user -->
<g id="node3" class="node">
<title>user</title>
<g id="a_node3"><a xlink:href="../../tables/user.html" xlink:title="user" target="_top">
<polygon fill="#ffffff" stroke="transparent" points="8,-37 8,-139 171,-139 171,-37 8,-37"/>
<polygon fill="#f5f5f5" stroke="transparent" points="8.5,-117 8.5,-139 171.5,-139 171.5,-117 8.5,-117"/>
<polygon fill="none" stroke="black" points="8.5,-117 8.5,-139 171.5,-139 171.5,-117 8.5,-117"/>
<text text-anchor="start" x="13.5" y="-126.2" font-family="Helvetica,sans-Serif" font-weight="bold" font-size="11.00">user</text>
<text text-anchor="start" x="129.5" y="-125.2" font-family="Helvetica,sans-Serif" font-size="11.00">[table]</text>
<polygon fill="none" stroke="black" points="8.5,-95 8.5,-117 171.5,-117 171.5,-95 8.5,-95"/>
<image xlink:href="../../images/primaryKeys.png" width="11px" height="12px" preserveAspectRatio="xMinYMin meet" x="13.5" y="-112"/>
<text text-anchor="start" x="28.5" y="-103.2" font-family="Helvetica,sans-Serif" font-size="11.00">user_id</text>
<polygon fill="#ffffff" stroke="transparent" points="8.5,-73 8.5,-95 171.5,-95 171.5,-73 8.5,-73"/>
<polygon fill="none" stroke="black" points="8.5,-73 8.5,-95 171.5,-95 171.5,-73 8.5,-73"/>
<text text-anchor="start" x="28.5" y="-81.2" font-family="Helvetica,sans-Serif" font-size="11.00">email</text>
<polygon fill="none" stroke="black" points="8.5,-55 8.5,-73 171.5,-73 171.5,-55 8.5,-55"/>
<text text-anchor="start" x="11.5" y="-61.2" font-family="Helvetica,sans-Serif" font-size="11.00">...</text>
<polygon fill="#ffffff" stroke="transparent" points="8.5,-37 8.5,-55 58.5,-55 58.5,-37 8.5,-37"/>
<polygon fill="none" stroke="black" points="8.5,-37 8.5,-55 58.5,-55 58.5,-37 8.5,-37"/>
<text text-anchor="start" x="11.5" y="-43.2" font-family="Helvetica,sans-Serif" font-size="11.00"> &#160;</text>
<polygon fill="#ffffff" stroke="transparent" points="58.5,-37 58.5,-55 119.5,-55 119.5,-37 58.5,-37"/>
<polygon fill="none" stroke="black" points="58.5,-37 58.5,-55 119.5,-55 119.5,-37 58.5,-37"/>
<text text-anchor="start" x="79.5" y="-43.2" font-family="Helvetica,sans-Serif" font-size="11.00">0 rows</text>
<polygon fill="#ffffff" stroke="transparent" points="119.5,-37 119.5,-55 171.5,-55 171.5,-37 119.5,-37"/>
<polygon fill="none" stroke="black" points="119.5,-37 119.5,-55 171.5,-55 171.5,-37 119.5,-37"/>
<text text-anchor="start" x="141.5" y="-43.2" font-family="Helvetica,sans-Serif" font-size="11.00">10 &gt;</text>
</a>
</g>
</g>
<!-- SQE_image_author&#45;&gt;user -->
<g id="edge2" class="edge">
<title>SQE_image_author:w&#45;&gt;user:e</title>
<path fill="none" stroke="black" d="M207.76,-173.28C190.03,-157.26 205.16,-106 172.5,-106"/>
<polygon fill="black" stroke="black" points="213.93,-175.4 220.33,-181.4 217.72,-176.7 221.5,-178 221.5,-178 221.5,-178 217.72,-176.7 222.67,-174.6 213.93,-175.4 213.93,-175.4"/>
<ellipse fill="none" stroke="black" cx="210.91" cy="-174.36" rx="3.2" ry="3.2"/>
</g>
</g>
</svg>
