<?xml version="1.0" encoding="UTF-8" standalone="no"?>
<!DOCTYPE svg PUBLIC "-//W3C//DTD SVG 1.1//EN"
 "http://www.w3.org/Graphics/SVG/1.1/DTD/svg11.dtd">
<!-- Generated by graphviz version 2.43.0 (0)
 -->
<!-- Title: twoDegreesRelationshipsDiagram Pages: 1 -->
<svg width="1063pt" height="835pt"
 viewBox="0.00 0.00 1063.00 835.00" xmlns="http://www.w3.org/2000/svg" xmlns:xlink="http://www.w3.org/1999/xlink">
<g id="graph0" class="graph" transform="scale(1 1) rotate(0) translate(4 831)">
<title>twoDegreesRelationshipsDiagram</title>
<polygon fill="#ffffff" stroke="transparent" points="-4,4 -4,-831 1059,-831 1059,4 -4,4"/>
<text text-anchor="middle" x="79.5" y="-7.2" font-family="Helvetica,sans-Serif" font-size="11.00">Generated by SchemaSpy</text>
<!-- artefact_shape -->
<g id="node1" class="node">
<title>artefact_shape</title>
<g id="a_node1"><a xlink:href="../../tables/artefact_shape.html" xlink:title="artefact_shape" target="_top">
<polygon fill="#ffffff" stroke="transparent" points="518.5,-686 518.5,-744 661.5,-744 661.5,-686 518.5,-686"/>
<polygon fill="#f5f5f5" stroke="transparent" points="519,-722 519,-744 662,-744 662,-722 519,-722"/>
<polygon fill="none" stroke="black" points="519,-722 519,-744 662,-744 662,-722 519,-722"/>
<text text-anchor="start" x="524" y="-731.2" font-family="Helvetica,sans-Serif" font-weight="bold" font-size="11.00">artefact_shape</text>
<text text-anchor="start" x="620" y="-730.2" font-family="Helvetica,sans-Serif" font-size="11.00">[table]</text>
<polygon fill="none" stroke="black" points="519,-704 519,-722 662,-722 662,-704 519,-704"/>
<text text-anchor="start" x="522" y="-710.2" font-family="Helvetica,sans-Serif" font-size="11.00">...</text>
<polygon fill="#ffffff" stroke="transparent" points="519,-686 519,-704 553,-704 553,-686 519,-686"/>
<polygon fill="none" stroke="black" points="519,-686 519,-704 553,-704 553,-686 519,-686"/>
<text text-anchor="start" x="522" y="-692.2" font-family="Helvetica,sans-Serif" font-size="11.00">&lt; 2</text>
<polygon fill="#ffffff" stroke="transparent" points="553,-686 553,-704 631,-704 631,-686 553,-686"/>
<polygon fill="none" stroke="black" points="553,-686 553,-704 631,-704 631,-686 553,-686"/>
<text text-anchor="start" x="560" y="-692.2" font-family="Helvetica,sans-Serif" font-size="11.00">27,685 rows</text>
<polygon fill="#ffffff" stroke="transparent" points="631,-686 631,-704 662,-704 662,-686 631,-686"/>
<polygon fill="none" stroke="black" points="631,-686 631,-704 662,-704 662,-686 631,-686"/>
<text text-anchor="start" x="639" y="-692.2" font-family="Helvetica,sans-Serif" font-size="11.00">1 &gt;</text>
</a>
</g>
</g>
<!-- SQE_image -->
<g id="node2" class="node">
<title>SQE_image</title>
<g id="a_node2"><a xlink:href="../../tables/SQE_image.html" xlink:title="SQE_image" target="_top">
<polygon fill="#ffffff" stroke="transparent" points="209.5,-600 209.5,-746 347.5,-746 347.5,-600 209.5,-600"/>
<polygon fill="#f5f5f5" stroke="transparent" points="209.5,-724 209.5,-746 347.5,-746 347.5,-724 209.5,-724"/>
<polygon fill="none" stroke="black" points="209.5,-724 209.5,-746 347.5,-746 347.5,-724 209.5,-724"/>
<text text-anchor="start" x="214.5" y="-733.2" font-family="Helvetica,sans-Serif" font-weight="bold" font-size="11.00">SQE_image</text>
<text text-anchor="start" x="305.5" y="-732.2" font-family="Helvetica,sans-Serif" font-size="11.00">[table]</text>
<polygon fill="none" stroke="black" points="209.5,-702 209.5,-724 347.5,-724 347.5,-702 209.5,-702"/>
<image xlink:href="../../images/primaryKeys.png" width="11px" height="12px" preserveAspectRatio="xMinYMin meet" x="214.5" y="-719"/>
<text text-anchor="start" x="229.5" y="-710.2" font-family="Helvetica,sans-Serif" font-size="11.00">sqe_image_id</text>
<polygon fill="#ffffff" stroke="transparent" points="209.5,-680 209.5,-702 347.5,-702 347.5,-680 209.5,-680"/>
<polygon fill="none" stroke="black" points="209.5,-680 209.5,-702 347.5,-702 347.5,-680 209.5,-680"/>
<image xlink:href="../../images/foreignKeys.png" width="11px" height="12px" preserveAspectRatio="xMinYMin meet" x="214.5" y="-697"/>
<text text-anchor="start" x="229.5" y="-688.2" font-family="Helvetica,sans-Serif" font-size="11.00">image_urls_id</text>
<polygon fill="#ffffff" stroke="transparent" points="209.5,-658 209.5,-680 347.5,-680 347.5,-658 209.5,-658"/>
<polygon fill="none" stroke="black" points="209.5,-658 209.5,-680 347.5,-680 347.5,-658 209.5,-658"/>
<text text-anchor="start" x="229.5" y="-666.2" font-family="Helvetica,sans-Serif" font-size="11.00">filename</text>
<polygon fill="#ffffff" stroke="transparent" points="209.5,-636 209.5,-658 347.5,-658 347.5,-636 209.5,-636"/>
<polygon fill="none" stroke="black" points="209.5,-636 209.5,-658 347.5,-658 347.5,-636 209.5,-636"/>
<image xlink:href="../../images/foreignKeys.png" width="11px" height="12px" preserveAspectRatio="xMinYMin meet" x="214.5" y="-653"/>
<text text-anchor="start" x="229.5" y="-644.2" font-family="Helvetica,sans-Serif" font-size="11.00">image_catalog_id</text>
<polygon fill="none" stroke="black" points="209.5,-618 209.5,-636 347.5,-636 347.5,-618 209.5,-618"/>
<text text-anchor="start" x="212.5" y="-624.2" font-family="Helvetica,sans-Serif" font-size="11.00">...</text>
<polygon fill="#ffffff" stroke="transparent" points="209.5,-600 209.5,-618 237.5,-618 237.5,-600 209.5,-600"/>
<polygon fill="none" stroke="black" points="209.5,-600 209.5,-618 237.5,-618 237.5,-600 209.5,-600"/>
<text text-anchor="start" x="212.5" y="-606.2" font-family="Helvetica,sans-Serif" font-size="11.00">&lt; 2</text>
<polygon fill="#ffffff" stroke="transparent" points="237.5,-600 237.5,-618 319.5,-618 319.5,-600 237.5,-600"/>
<polygon fill="none" stroke="black" points="237.5,-600 237.5,-618 319.5,-618 319.5,-600 237.5,-600"/>
<text text-anchor="start" x="241.5" y="-606.2" font-family="Helvetica,sans-Serif" font-size="11.00">101,504 rows</text>
<polygon fill="#ffffff" stroke="transparent" points="319.5,-600 319.5,-618 347.5,-618 347.5,-600 319.5,-600"/>
<polygon fill="none" stroke="black" points="319.5,-600 319.5,-618 347.5,-618 347.5,-600 319.5,-600"/>
<text text-anchor="start" x="324.5" y="-606.2" font-family="Helvetica,sans-Serif" font-size="11.00">4 &gt;</text>
</a>
</g>
</g>
<!-- artefact_shape&#45;&gt;SQE_image -->
<g id="edge1" class="edge">
<title>artefact_shape:w&#45;&gt;SQE_image:e</title>
<path fill="none" stroke="black" d="M503.31,-713C439.83,-713 418.68,-713 348.5,-713"/>
<polygon fill="black" stroke="black" points="510,-713 518,-716.6 514,-713 518,-713 518,-713 518,-713 514,-713 518,-709.4 510,-713 510,-713"/>
<ellipse fill="none" stroke="black" cx="506.8" cy="-713" rx="3.2" ry="3.2"/>
</g>
<!-- image_catalog -->
<g id="node10" class="node">
<title>image_catalog</title>
<g id="a_node10"><a xlink:href="../../tables/image_catalog.html" xlink:title="image_catalog" target="_top">
<polygon fill="#ffffff" stroke="transparent" points="8,-555 8,-613 148,-613 148,-555 8,-555"/>
<polygon fill="#f5f5f5" stroke="transparent" points="8,-591 8,-613 148,-613 148,-591 8,-591"/>
<polygon fill="none" stroke="black" points="8,-591 8,-613 148,-613 148,-591 8,-591"/>
<text text-anchor="start" x="13" y="-600.2" font-family="Helvetica,sans-Serif" font-weight="bold" font-size="11.00">image_catalog</text>
<text text-anchor="start" x="106" y="-599.2" font-family="Helvetica,sans-Serif" font-size="11.00">[table]</text>
<polygon fill="none" stroke="black" points="8,-573 8,-591 148,-591 148,-573 8,-573"/>
<text text-anchor="start" x="11" y="-579.2" font-family="Helvetica,sans-Serif" font-size="11.00">...</text>
<polygon fill="#ffffff" stroke="transparent" points="8,-555 8,-573 35,-573 35,-555 8,-555"/>
<polygon fill="none" stroke="black" points="8,-555 8,-573 35,-573 35,-555 8,-555"/>
<text text-anchor="start" x="11" y="-561.2" font-family="Helvetica,sans-Serif" font-size="11.00"> &#160;</text>
<polygon fill="#ffffff" stroke="transparent" points="35,-555 35,-573 115,-573 115,-555 35,-555"/>
<polygon fill="none" stroke="black" points="35,-555 35,-573 115,-573 115,-555 35,-555"/>
<text text-anchor="start" x="44" y="-561.2" font-family="Helvetica,sans-Serif" font-size="11.00">41,950 rows</text>
<polygon fill="#ffffff" stroke="transparent" points="115,-555 115,-573 148,-573 148,-555 115,-555"/>
<polygon fill="none" stroke="black" points="115,-555 115,-573 148,-573 148,-555 115,-555"/>
<text text-anchor="start" x="125" y="-561.2" font-family="Helvetica,sans-Serif" font-size="11.00">3 &gt;</text>
</a>
</g>
</g>
<!-- SQE_image&#45;&gt;image_catalog -->
<g id="edge14" class="edge">
<title>SQE_image:w&#45;&gt;image_catalog:e</title>
<path fill="none" stroke="black" d="M194.51,-643.13C173.65,-629.14 182.35,-582 149,-582"/>
<polygon fill="black" stroke="black" points="200.79,-644.87 207.54,-650.47 204.64,-645.93 208.5,-647 208.5,-647 208.5,-647 204.64,-645.93 209.46,-643.53 200.79,-644.87 200.79,-644.87"/>
<ellipse fill="none" stroke="black" cx="197.71" cy="-644.01" rx="3.2" ry="3.2"/>
</g>
<!-- image_urls -->
<g id="node13" class="node">
<title>image_urls</title>
<g id="a_node13"><a xlink:href="../../tables/image_urls.html" xlink:title="image_urls" target="_top">
<polygon fill="#ffffff" stroke="transparent" points="19,-664 19,-722 137,-722 137,-664 19,-664"/>
<polygon fill="#f5f5f5" stroke="transparent" points="19,-700 19,-722 137,-722 137,-700 19,-700"/>
<polygon fill="none" stroke="black" points="19,-700 19,-722 137,-722 137,-700 19,-700"/>
<text text-anchor="start" x="24" y="-709.2" font-family="Helvetica,sans-Serif" font-weight="bold" font-size="11.00">image_urls</text>
<text text-anchor="start" x="95" y="-708.2" font-family="Helvetica,sans-Serif" font-size="11.00">[table]</text>
<polygon fill="none" stroke="black" points="19,-682 19,-700 137,-700 137,-682 19,-682"/>
<text text-anchor="start" x="22" y="-688.2" font-family="Helvetica,sans-Serif" font-size="11.00">...</text>
<polygon fill="#ffffff" stroke="transparent" points="19,-664 19,-682 50,-682 50,-664 19,-664"/>
<polygon fill="none" stroke="black" points="19,-664 19,-682 50,-682 50,-664 19,-664"/>
<text text-anchor="start" x="22" y="-670.2" font-family="Helvetica,sans-Serif" font-size="11.00"> &#160;</text>
<polygon fill="#ffffff" stroke="transparent" points="50,-664 50,-682 102,-682 102,-664 50,-664"/>
<polygon fill="none" stroke="black" points="50,-664 50,-682 102,-682 102,-664 50,-664"/>
<text text-anchor="start" x="62" y="-670.2" font-family="Helvetica,sans-Serif" font-size="11.00">3 rows</text>
<polygon fill="#ffffff" stroke="transparent" points="102,-664 102,-682 137,-682 137,-664 102,-664"/>
<polygon fill="none" stroke="black" points="102,-664 102,-682 137,-682 137,-664 102,-664"/>
<text text-anchor="start" x="114" y="-670.2" font-family="Helvetica,sans-Serif" font-size="11.00">1 &gt;</text>
</a>
</g>
</g>
<!-- SQE_image&#45;&gt;image_urls -->
<g id="edge15" class="edge">
<title>SQE_image:w&#45;&gt;image_urls:e</title>
<path fill="none" stroke="black" d="M193.9,-691C173.69,-691 163.83,-691 138,-691"/>
<polygon fill="black" stroke="black" points="200.5,-691 208.5,-694.6 204.5,-691 208.5,-691 208.5,-691 208.5,-691 204.5,-691 208.5,-687.4 200.5,-691 200.5,-691"/>
<ellipse fill="none" stroke="black" cx="197.3" cy="-691" rx="3.2" ry="3.2"/>
</g>
<!-- edition_editor -->
<g id="node3" class="node">
<title>edition_editor</title>
<g id="a_node3"><a xlink:href="../../tables/edition_editor.html" xlink:title="edition_editor" target="_top">
<polygon fill="#ffffff" stroke="transparent" points="522,-37 522,-95 658,-95 658,-37 522,-37"/>
<polygon fill="#f5f5f5" stroke="transparent" points="522,-73 522,-95 658,-95 658,-73 522,-73"/>
<polygon fill="none" stroke="black" points="522,-73 522,-95 658,-95 658,-73 522,-73"/>
<text text-anchor="start" x="527" y="-82.2" font-family="Helvetica,sans-Serif" font-weight="bold" font-size="11.00">edition_editor</text>
<text text-anchor="start" x="616" y="-81.2" font-family="Helvetica,sans-Serif" font-size="11.00">[table]</text>
<polygon fill="none" stroke="black" points="522,-55 522,-73 658,-73 658,-55 522,-55"/>
<text text-anchor="start" x="525" y="-61.2" font-family="Helvetica,sans-Serif" font-size="11.00">...</text>
<polygon fill="#ffffff" stroke="transparent" points="522,-37 522,-55 553,-55 553,-37 522,-37"/>
<polygon fill="none" stroke="black" points="522,-37 522,-55 553,-55 553,-37 522,-37"/>
<text text-anchor="start" x="525" y="-43.2" font-family="Helvetica,sans-Serif" font-size="11.00">&lt; 2</text>
<polygon fill="#ffffff" stroke="transparent" points="553,-37 553,-55 622,-55 622,-37 553,-37"/>
<polygon fill="none" stroke="black" points="553,-37 553,-55 622,-55 622,-37 553,-37"/>
<text text-anchor="start" x="558" y="-43.2" font-family="Helvetica,sans-Serif" font-size="11.00">1,645 rows</text>
<polygon fill="#ffffff" stroke="transparent" points="622,-37 622,-55 658,-55 658,-37 622,-37"/>
<polygon fill="none" stroke="black" points="622,-37 622,-55 658,-55 658,-37 622,-37"/>
<text text-anchor="start" x="628" y="-43.2" font-family="Helvetica,sans-Serif" font-size="11.00">33 &gt;</text>
</a>
</g>
</g>
<!-- user -->
<g id="node4" class="node">
<title>user</title>
<g id="a_node4"><a xlink:href="../../tables/user.html" xlink:title="user" target="_top">
<polygon fill="#ffffff" stroke="transparent" points="197,-232 197,-334 360,-334 360,-232 197,-232"/>
<polygon fill="#f5f5f5" stroke="transparent" points="197.5,-312 197.5,-334 360.5,-334 360.5,-312 197.5,-312"/>
<polygon fill="none" stroke="black" points="197.5,-312 197.5,-334 360.5,-334 360.5,-312 197.5,-312"/>
<text text-anchor="start" x="202.5" y="-321.2" font-family="Helvetica,sans-Serif" font-weight="bold" font-size="11.00">user</text>
<text text-anchor="start" x="318.5" y="-320.2" font-family="Helvetica,sans-Serif" font-size="11.00">[table]</text>
<polygon fill="none" stroke="black" points="197.5,-290 197.5,-312 360.5,-312 360.5,-290 197.5,-290"/>
<image xlink:href="../../images/primaryKeys.png" width="11px" height="12px" preserveAspectRatio="xMinYMin meet" x="202.5" y="-307"/>
<text text-anchor="start" x="217.5" y="-298.2" font-family="Helvetica,sans-Serif" font-size="11.00">user_id</text>
<polygon fill="#ffffff" stroke="transparent" points="197.5,-268 197.5,-290 360.5,-290 360.5,-268 197.5,-268"/>
<polygon fill="none" stroke="black" points="197.5,-268 197.5,-290 360.5,-290 360.5,-268 197.5,-268"/>
<text text-anchor="start" x="217.5" y="-276.2" font-family="Helvetica,sans-Serif" font-size="11.00">email</text>
<polygon fill="none" stroke="black" points="197.5,-250 197.5,-268 360.5,-268 360.5,-250 197.5,-250"/>
<text text-anchor="start" x="200.5" y="-256.2" font-family="Helvetica,sans-Serif" font-size="11.00">...</text>
<polygon fill="#ffffff" stroke="transparent" points="197.5,-232 197.5,-250 247.5,-250 247.5,-232 197.5,-232"/>
<polygon fill="none" stroke="black" points="197.5,-232 197.5,-250 247.5,-250 247.5,-232 197.5,-232"/>
<text text-anchor="start" x="200.5" y="-238.2" font-family="Helvetica,sans-Serif" font-size="11.00"> &#160;</text>
<polygon fill="#ffffff" stroke="transparent" points="247.5,-232 247.5,-250 308.5,-250 308.5,-232 247.5,-232"/>
<polygon fill="none" stroke="black" points="247.5,-232 247.5,-250 308.5,-250 308.5,-232 247.5,-232"/>
<text text-anchor="start" x="268.5" y="-238.2" font-family="Helvetica,sans-Serif" font-size="11.00">0 rows</text>
<polygon fill="#ffffff" stroke="transparent" points="308.5,-232 308.5,-250 360.5,-250 360.5,-232 308.5,-232"/>
<polygon fill="none" stroke="black" points="308.5,-232 308.5,-250 360.5,-250 360.5,-232 308.5,-232"/>
<text text-anchor="start" x="330.5" y="-238.2" font-family="Helvetica,sans-Serif" font-size="11.00">10 &gt;</text>
</a>
</g>
</g>
<!-- edition_editor&#45;&gt;user -->
<g id="edge2" class="edge">
<title>edition_editor:w&#45;&gt;user:e</title>
<path fill="none" stroke="black" d="M506.5,-64C459.8,-64.11 434.83,-66.44 401,-105 342.39,-171.79 450.36,-301 361.5,-301"/>
<polygon fill="black" stroke="black" points="513,-64 521,-67.6 517,-64 521,-64 521,-64 521,-64 517,-64 521,-60.4 513,-64 513,-64"/>
<ellipse fill="none" stroke="black" cx="509.8" cy="-64" rx="3.2" ry="3.2"/>
</g>
<!-- edition_editor_request -->
<g id="node5" class="node">
<title>edition_editor_request</title>
<g id="a_node5"><a xlink:href="../../tables/edition_editor_request.html" xlink:title="edition_editor_request" target="_top">
<polygon fill="#ffffff" stroke="transparent" points="839,-177 839,-235 1028,-235 1028,-177 839,-177"/>
<polygon fill="#f5f5f5" stroke="transparent" points="839.5,-213 839.5,-235 1028.5,-235 1028.5,-213 839.5,-213"/>
<polygon fill="none" stroke="black" points="839.5,-213 839.5,-235 1028.5,-235 1028.5,-213 839.5,-213"/>
<text text-anchor="start" x="844.5" y="-222.2" font-family="Helvetica,sans-Serif" font-weight="bold" font-size="11.00">edition_editor_request</text>
<text text-anchor="start" x="986.5" y="-221.2" font-family="Helvetica,sans-Serif" font-size="11.00">[table]</text>
<polygon fill="none" stroke="black" points="839.5,-195 839.5,-213 1028.5,-213 1028.5,-195 839.5,-195"/>
<text text-anchor="start" x="842.5" y="-201.2" font-family="Helvetica,sans-Serif" font-size="11.00">...</text>
<polygon fill="#ffffff" stroke="transparent" points="839.5,-177 839.5,-195 918.5,-195 918.5,-177 839.5,-177"/>
<polygon fill="none" stroke="black" points="839.5,-177 839.5,-195 918.5,-195 918.5,-177 839.5,-177"/>
<text text-anchor="start" x="842.5" y="-183.2" font-family="Helvetica,sans-Serif" font-size="11.00">&lt; 4</text>
<polygon fill="#ffffff" stroke="transparent" points="918.5,-177 918.5,-195 987.5,-195 987.5,-177 918.5,-177"/>
<polygon fill="none" stroke="black" points="918.5,-177 918.5,-195 987.5,-195 987.5,-177 918.5,-177"/>
<text text-anchor="start" x="947.5" y="-183.2" font-family="Helvetica,sans-Serif" font-size="11.00">0 rows</text>
<polygon fill="#ffffff" stroke="transparent" points="987.5,-177 987.5,-195 1028.5,-195 1028.5,-177 987.5,-177"/>
<polygon fill="none" stroke="black" points="987.5,-177 987.5,-195 1028.5,-195 1028.5,-177 987.5,-177"/>
<text text-anchor="start" x="1017.5" y="-183.2" font-family="Helvetica,sans-Serif" font-size="11.00"> &#160;</text>
</a>
</g>
</g>
<!-- edition_editor_request&#45;&gt;user -->
<g id="edge3" class="edge">
<title>edition_editor_request:w&#45;&gt;user:e</title>
<path fill="none" stroke="black" d="M823.79,-203.79C717.35,-201.03 478.95,-172.74 401,-223 368.34,-244.06 400.36,-301 361.5,-301"/>
<polygon fill="black" stroke="black" points="830.5,-203.89 838.45,-207.6 834.5,-203.94 838.5,-204 838.5,-204 838.5,-204 834.5,-203.94 838.55,-200.4 830.5,-203.89 830.5,-203.89"/>
<ellipse fill="none" stroke="black" cx="827.3" cy="-203.84" rx="3.2" ry="3.2"/>
</g>
<!-- edition_editor_request&#45;&gt;user -->
<g id="edge4" class="edge">
<title>edition_editor_request:w&#45;&gt;user:e</title>
<path fill="none" stroke="black" d="M823.78,-203.82C717.34,-201.44 479.3,-177.2 401,-227 369.54,-247.01 398.78,-301 361.5,-301"/>
<polygon fill="black" stroke="black" points="830.5,-203.9 838.46,-207.6 834.5,-203.95 838.5,-204 838.5,-204 838.5,-204 834.5,-203.95 838.54,-200.4 830.5,-203.9 830.5,-203.9"/>
<ellipse fill="none" stroke="black" cx="827.3" cy="-203.86" rx="3.2" ry="3.2"/>
</g>
<!-- user_email_token -->
<g id="node6" class="node">
<title>user_email_token</title>
<g id="a_node6"><a xlink:href="../../tables/user_email_token.html" xlink:title="user_email_token" target="_top">
<polygon fill="#ffffff" stroke="transparent" points="511.5,-392 511.5,-450 668.5,-450 668.5,-392 511.5,-392"/>
<polygon fill="#f5f5f5" stroke="transparent" points="512,-428 512,-450 669,-450 669,-428 512,-428"/>
<polygon fill="none" stroke="black" points="512,-428 512,-450 669,-450 669,-428 512,-428"/>
<text text-anchor="start" x="517" y="-437.2" font-family="Helvetica,sans-Serif" font-weight="bold" font-size="11.00">user_email_token</text>
<text text-anchor="start" x="627" y="-436.2" font-family="Helvetica,sans-Serif" font-size="11.00">[table]</text>
<polygon fill="none" stroke="black" points="512,-410 512,-428 669,-428 669,-410 512,-410"/>
<text text-anchor="start" x="515" y="-416.2" font-family="Helvetica,sans-Serif" font-size="11.00">...</text>
<polygon fill="#ffffff" stroke="transparent" points="512,-392 512,-410 569,-410 569,-392 512,-392"/>
<polygon fill="none" stroke="black" points="512,-392 512,-410 569,-410 569,-392 512,-392"/>
<text text-anchor="start" x="515" y="-398.2" font-family="Helvetica,sans-Serif" font-size="11.00">&lt; 1</text>
<polygon fill="#ffffff" stroke="transparent" points="569,-392 569,-410 627,-410 627,-392 569,-392"/>
<polygon fill="none" stroke="black" points="569,-392 569,-410 627,-410 627,-392 569,-392"/>
<text text-anchor="start" x="587" y="-398.2" font-family="Helvetica,sans-Serif" font-size="11.00">0 rows</text>
<polygon fill="#ffffff" stroke="transparent" points="627,-392 627,-410 669,-410 669,-392 627,-392"/>
<polygon fill="none" stroke="black" points="627,-392 627,-410 669,-410 669,-392 627,-392"/>
<text text-anchor="start" x="646" y="-398.2" font-family="Helvetica,sans-Serif" font-size="11.00">1 &gt;</text>
</a>
</g>
</g>
<!-- edition_editor_request&#45;&gt;user_email_token -->
<g id="edge5" class="edge">
<title>edition_editor_request:w&#45;&gt;user_email_token:e</title>
<path fill="none" stroke="black" d="M823.99,-205.52C765.45,-219.53 833.94,-326.81 779,-382 742.91,-418.26 721.16,-419 670,-419"/>
<polygon fill="black" stroke="black" points="830.54,-204.83 838.88,-207.58 834.52,-204.42 838.5,-204 838.5,-204 838.5,-204 834.52,-204.42 838.12,-200.42 830.54,-204.83 830.54,-204.83"/>
<ellipse fill="none" stroke="black" cx="827.36" cy="-205.17" rx="3.2" ry="3.2"/>
</g>
<!-- user_email_token&#45;&gt;user -->
<g id="edge19" class="edge">
<title>user_email_token:w&#45;&gt;user:e</title>
<path fill="none" stroke="black" d="M496.49,-418.88C455.31,-418.1 435.89,-412.65 401,-382 370.91,-355.57 401.55,-301 361.5,-301"/>
<polygon fill="black" stroke="black" points="503,-418.94 510.97,-422.6 507,-418.97 511,-419 511,-419 511,-419 507,-418.97 511.03,-415.4 503,-418.94 503,-418.94"/>
<ellipse fill="none" stroke="black" cx="499.8" cy="-418.91" rx="3.2" ry="3.2"/>
</g>
<!-- iaa_edition_catalog_author -->
<g id="node7" class="node">
<title>iaa_edition_catalog_author</title>
<g id="a_node7"><a xlink:href="../../tables/iaa_edition_catalog_author.html" xlink:title="iaa_edition_catalog_author" target="_top">
<polygon fill="#ffffff" stroke="transparent" points="482.5,-313 482.5,-371 697.5,-371 697.5,-313 482.5,-313"/>
<polygon fill="#f5f5f5" stroke="transparent" points="483,-349 483,-371 698,-371 698,-349 483,-349"/>
<polygon fill="none" stroke="black" points="483,-349 483,-371 698,-371 698,-349 483,-349"/>
<text text-anchor="start" x="488" y="-358.2" font-family="Helvetica,sans-Serif" font-weight="bold" font-size="11.00">iaa_edition_catalog_author</text>
<text text-anchor="start" x="656" y="-357.2" font-family="Helvetica,sans-Serif" font-size="11.00">[table]</text>
<polygon fill="none" stroke="black" points="483,-331 483,-349 698,-349 698,-331 483,-331"/>
<text text-anchor="start" x="486" y="-337.2" font-family="Helvetica,sans-Serif" font-size="11.00">...</text>
<polygon fill="#ffffff" stroke="transparent" points="483,-313 483,-331 559,-331 559,-313 483,-313"/>
<polygon fill="none" stroke="black" points="483,-313 483,-331 559,-331 559,-313 483,-313"/>
<text text-anchor="start" x="486" y="-319.2" font-family="Helvetica,sans-Serif" font-size="11.00">&lt; 2</text>
<polygon fill="#ffffff" stroke="transparent" points="559,-313 559,-331 658,-331 658,-313 559,-313"/>
<polygon fill="none" stroke="black" points="559,-313 559,-331 658,-331 658,-313 559,-313"/>
<text text-anchor="start" x="587" y="-319.2" font-family="Helvetica,sans-Serif" font-size="11.00">39,537 rows</text>
<polygon fill="#ffffff" stroke="transparent" points="658,-313 658,-331 698,-331 698,-313 658,-313"/>
<polygon fill="none" stroke="black" points="658,-313 658,-331 698,-331 698,-313 658,-313"/>
<text text-anchor="start" x="687" y="-319.2" font-family="Helvetica,sans-Serif" font-size="11.00"> &#160;</text>
</a>
</g>
</g>
<!-- iaa_edition_catalog_author&#45;&gt;user -->
<g id="edge6" class="edge">
<title>iaa_edition_catalog_author:w&#45;&gt;user:e</title>
<path fill="none" stroke="black" d="M467.36,-339.04C423.8,-333.03 412.51,-301 361.5,-301"/>
<polygon fill="black" stroke="black" points="474.02,-339.47 481.76,-343.59 478.01,-339.74 482,-340 482,-340 482,-340 478.01,-339.74 482.24,-336.41 474.02,-339.47 474.02,-339.47"/>
<ellipse fill="none" stroke="black" cx="470.82" cy="-339.26" rx="3.2" ry="3.2"/>
</g>
<!-- iaa_edition_catalog_to_text_fragment_confirmation -->
<g id="node8" class="node">
<title>iaa_edition_catalog_to_text_fragment_confirmation</title>
<g id="a_node8"><a xlink:href="../../tables/iaa_edition_catalog_to_text_fragment_confirmation.html" xlink:title="iaa_edition_catalog_to_text_fragment_confirmation" target="_top">
<polygon fill="#ffffff" stroke="transparent" points="409,-234 409,-292 771,-292 771,-234 409,-234"/>
<polygon fill="#f5f5f5" stroke="transparent" points="409,-270 409,-292 771,-292 771,-270 409,-270"/>
<polygon fill="none" stroke="black" points="409,-270 409,-292 771,-292 771,-270 409,-270"/>
<text text-anchor="start" x="414" y="-279.2" font-family="Helvetica,sans-Serif" font-weight="bold" font-size="11.00">iaa_edition_catalog_to_text_fragment_confirmation</text>
<text text-anchor="start" x="729" y="-278.2" font-family="Helvetica,sans-Serif" font-size="11.00">[table]</text>
<polygon fill="none" stroke="black" points="409,-252 409,-270 771,-270 771,-252 409,-252"/>
<text text-anchor="start" x="412" y="-258.2" font-family="Helvetica,sans-Serif" font-size="11.00">...</text>
<polygon fill="#ffffff" stroke="transparent" points="409,-234 409,-252 559,-252 559,-234 409,-234"/>
<polygon fill="none" stroke="black" points="409,-234 409,-252 559,-252 559,-234 409,-234"/>
<text text-anchor="start" x="412" y="-240.2" font-family="Helvetica,sans-Serif" font-size="11.00">&lt; 2</text>
<polygon fill="#ffffff" stroke="transparent" points="559,-234 559,-252 695,-252 695,-234 559,-234"/>
<polygon fill="none" stroke="black" points="559,-234 559,-252 695,-252 695,-234 559,-234"/>
<text text-anchor="start" x="624" y="-240.2" font-family="Helvetica,sans-Serif" font-size="11.00">15,403 rows</text>
<polygon fill="#ffffff" stroke="transparent" points="695,-234 695,-252 771,-252 771,-234 695,-234"/>
<polygon fill="none" stroke="black" points="695,-234 695,-252 771,-252 771,-234 695,-234"/>
<text text-anchor="start" x="760" y="-240.2" font-family="Helvetica,sans-Serif" font-size="11.00"> &#160;</text>
</a>
</g>
</g>
<!-- iaa_edition_catalog_to_text_fragment_confirmation&#45;&gt;user -->
<g id="edge7" class="edge">
<title>iaa_edition_catalog_to_text_fragment_confirmation:w&#45;&gt;user:e</title>
<path fill="none" stroke="black" d="M394.44,-265.9C382.56,-276.59 382.8,-301 361.5,-301"/>
<polygon fill="black" stroke="black" points="400.48,-263.72 409.22,-264.39 404.24,-262.36 408,-261 408,-261 408,-261 404.24,-262.36 406.78,-257.61 400.48,-263.72 400.48,-263.72"/>
<ellipse fill="none" stroke="black" cx="397.47" cy="-264.81" rx="3.2" ry="3.2"/>
</g>
<!-- image_catalog_author -->
<g id="node9" class="node">
<title>image_catalog_author</title>
<g id="a_node9"><a xlink:href="../../tables/image_catalog_author.html" xlink:title="image_catalog_author" target="_top">
<polygon fill="#ffffff" stroke="transparent" points="497,-498 497,-556 683,-556 683,-498 497,-498"/>
<polygon fill="#f5f5f5" stroke="transparent" points="497,-534 497,-556 683,-556 683,-534 497,-534"/>
<polygon fill="none" stroke="black" points="497,-534 497,-556 683,-556 683,-534 497,-534"/>
<text text-anchor="start" x="502" y="-543.2" font-family="Helvetica,sans-Serif" font-weight="bold" font-size="11.00">image_catalog_author</text>
<text text-anchor="start" x="641" y="-542.2" font-family="Helvetica,sans-Serif" font-size="11.00">[table]</text>
<polygon fill="none" stroke="black" points="497,-516 497,-534 683,-534 683,-516 497,-516"/>
<text text-anchor="start" x="500" y="-522.2" font-family="Helvetica,sans-Serif" font-size="11.00">...</text>
<polygon fill="#ffffff" stroke="transparent" points="497,-498 497,-516 559,-516 559,-498 497,-498"/>
<polygon fill="none" stroke="black" points="497,-498 497,-516 559,-516 559,-498 497,-498"/>
<text text-anchor="start" x="500" y="-504.2" font-family="Helvetica,sans-Serif" font-size="11.00">&lt; 2</text>
<polygon fill="#ffffff" stroke="transparent" points="559,-498 559,-516 651,-516 651,-498 559,-498"/>
<polygon fill="none" stroke="black" points="559,-498 559,-516 651,-516 651,-498 559,-498"/>
<text text-anchor="start" x="580" y="-504.2" font-family="Helvetica,sans-Serif" font-size="11.00">41,829 rows</text>
<polygon fill="#ffffff" stroke="transparent" points="651,-498 651,-516 683,-516 683,-498 651,-498"/>
<polygon fill="none" stroke="black" points="651,-498 651,-516 683,-516 683,-498 651,-498"/>
<text text-anchor="start" x="672" y="-504.2" font-family="Helvetica,sans-Serif" font-size="11.00"> &#160;</text>
</a>
</g>
</g>
<!-- image_catalog_author&#45;&gt;user -->
<g id="edge9" class="edge">
<title>image_catalog_author:w&#45;&gt;user:e</title>
<path fill="none" stroke="black" d="M481.33,-524.75C445.4,-523.37 426.89,-515.5 401,-484 348.17,-419.72 444.71,-301 361.5,-301"/>
<polygon fill="black" stroke="black" points="488,-524.87 495.94,-528.6 492,-524.93 496,-525 496,-525 496,-525 492,-524.93 496.06,-521.4 488,-524.87 488,-524.87"/>
<ellipse fill="none" stroke="black" cx="484.8" cy="-524.81" rx="3.2" ry="3.2"/>
</g>
<!-- image_catalog_author&#45;&gt;image_catalog -->
<g id="edge8" class="edge">
<title>image_catalog_author:w&#45;&gt;image_catalog:e</title>
<path fill="none" stroke="black" d="M485.21,-525.09C338.03,-527.64 301.63,-582 149,-582"/>
<polygon fill="black" stroke="black" points="495.17,-521.01 495.23,-529.01 493.63,-529.02 493.57,-521.02 495.17,-521.01"/>
<polyline fill="none" stroke="black" points="496,-525 492,-525.03 "/>
<ellipse fill="none" stroke="black" cx="488.8" cy="-525.06" rx="3.2" ry="3.2"/>
</g>
<!-- image_to_image_map -->
<g id="node11" class="node">
<title>image_to_image_map</title>
<g id="a_node11"><a xlink:href="../../tables/image_to_image_map.html" xlink:title="image_to_image_map" target="_top">
<polygon fill="#ffffff" stroke="transparent" points="499.5,-765 499.5,-823 680.5,-823 680.5,-765 499.5,-765"/>
<polygon fill="#f5f5f5" stroke="transparent" points="500,-801 500,-823 681,-823 681,-801 500,-801"/>
<polygon fill="none" stroke="black" points="500,-801 500,-823 681,-823 681,-801 500,-801"/>
<text text-anchor="start" x="505" y="-810.2" font-family="Helvetica,sans-Serif" font-weight="bold" font-size="11.00">image_to_image_map</text>
<text text-anchor="start" x="639" y="-809.2" font-family="Helvetica,sans-Serif" font-size="11.00">[table]</text>
<polygon fill="none" stroke="black" points="500,-783 500,-801 681,-801 681,-783 500,-783"/>
<text text-anchor="start" x="503" y="-789.2" font-family="Helvetica,sans-Serif" font-size="11.00">...</text>
<polygon fill="#ffffff" stroke="transparent" points="500,-765 500,-783 553,-783 553,-765 500,-765"/>
<polygon fill="none" stroke="black" points="500,-765 500,-783 553,-783 553,-765 500,-765"/>
<text text-anchor="start" x="503" y="-771.2" font-family="Helvetica,sans-Serif" font-size="11.00">&lt; 2</text>
<polygon fill="#ffffff" stroke="transparent" points="553,-765 553,-783 641,-783 641,-765 553,-765"/>
<polygon fill="none" stroke="black" points="553,-765 553,-783 641,-783 641,-765 553,-765"/>
<text text-anchor="start" x="570" y="-771.2" font-family="Helvetica,sans-Serif" font-size="11.00">69,272 rows</text>
<polygon fill="#ffffff" stroke="transparent" points="641,-765 641,-783 681,-783 681,-765 641,-765"/>
<polygon fill="none" stroke="black" points="641,-765 641,-783 681,-783 681,-765 641,-765"/>
<text text-anchor="start" x="658" y="-771.2" font-family="Helvetica,sans-Serif" font-size="11.00">2 &gt;</text>
</a>
</g>
</g>
<!-- image_to_image_map&#45;&gt;SQE_image -->
<g id="edge10" class="edge">
<title>image_to_image_map:w&#45;&gt;SQE_image:e</title>
<path fill="none" stroke="black" d="M484.45,-789.65C449.58,-782.72 436.87,-769.44 401,-749 375.04,-734.21 378.38,-707 348.5,-713"/>
<polygon fill="black" stroke="black" points="491.1,-790.73 498.43,-795.55 495.05,-791.36 499,-792 499,-792 499,-792 495.05,-791.36 499.57,-788.45 491.1,-790.73 491.1,-790.73"/>
<ellipse fill="none" stroke="black" cx="487.94" cy="-790.22" rx="3.2" ry="3.2"/>
</g>
<!-- image_to_image_map&#45;&gt;SQE_image -->
<g id="edge11" class="edge">
<title>image_to_image_map:w&#45;&gt;SQE_image:e</title>
<path fill="none" stroke="black" d="M484.45,-793.59C449.58,-795.72 436.87,-782.44 401,-762 375.04,-747.21 378.38,-720 348.5,-713"/>
<polygon fill="black" stroke="black" points="491.05,-792.87 499.39,-795.58 495.02,-792.43 499,-792 499,-792 499,-792 495.02,-792.43 498.61,-788.42 491.05,-792.87 491.05,-792.87"/>
<ellipse fill="none" stroke="black" cx="487.87" cy="-793.22" rx="3.2" ry="3.2"/>
</g>
<!-- image_to_image_map_author -->
<g id="node12" class="node">
<title>image_to_image_map_author</title>
<g id="a_node12"><a xlink:href="../../tables/image_to_image_map_author.html" xlink:title="image_to_image_map_author" target="_top">
<polygon fill="#ffffff" stroke="transparent" points="820,-606 820,-664 1047,-664 1047,-606 820,-606"/>
<polygon fill="#f5f5f5" stroke="transparent" points="820.5,-642 820.5,-664 1047.5,-664 1047.5,-642 820.5,-642"/>
<polygon fill="none" stroke="black" points="820.5,-642 820.5,-664 1047.5,-664 1047.5,-642 820.5,-642"/>
<text text-anchor="start" x="825.5" y="-651.2" font-family="Helvetica,sans-Serif" font-weight="bold" font-size="11.00">image_to_image_map_author</text>
<text text-anchor="start" x="1005.5" y="-650.2" font-family="Helvetica,sans-Serif" font-size="11.00">[table]</text>
<polygon fill="none" stroke="black" points="820.5,-624 820.5,-642 1047.5,-642 1047.5,-624 820.5,-624"/>
<text text-anchor="start" x="823.5" y="-630.2" font-family="Helvetica,sans-Serif" font-size="11.00">...</text>
<polygon fill="#ffffff" stroke="transparent" points="820.5,-606 820.5,-624 902.5,-624 902.5,-606 820.5,-606"/>
<polygon fill="none" stroke="black" points="820.5,-606 820.5,-624 902.5,-624 902.5,-606 820.5,-606"/>
<text text-anchor="start" x="823.5" y="-612.2" font-family="Helvetica,sans-Serif" font-size="11.00">&lt; 2</text>
<polygon fill="#ffffff" stroke="transparent" points="902.5,-606 902.5,-624 1004.5,-624 1004.5,-606 902.5,-606"/>
<polygon fill="none" stroke="black" points="902.5,-606 902.5,-624 1004.5,-624 1004.5,-606 902.5,-606"/>
<text text-anchor="start" x="933.5" y="-612.2" font-family="Helvetica,sans-Serif" font-size="11.00">72,198 rows</text>
<polygon fill="#ffffff" stroke="transparent" points="1004.5,-606 1004.5,-624 1047.5,-624 1047.5,-606 1004.5,-606"/>
<polygon fill="none" stroke="black" points="1004.5,-606 1004.5,-624 1047.5,-624 1047.5,-606 1004.5,-606"/>
<text text-anchor="start" x="1036.5" y="-612.2" font-family="Helvetica,sans-Serif" font-size="11.00"> &#160;</text>
</a>
</g>
</g>
<!-- image_to_image_map_author&#45;&gt;user -->
<g id="edge13" class="edge">
<title>image_to_image_map_author:w&#45;&gt;user:e</title>
<path fill="none" stroke="black" d="M805.03,-630.73C765.34,-615.42 826.27,-526.61 779,-488 713.78,-434.73 465.41,-515.25 401,-461 344.98,-413.81 434.75,-301 361.5,-301"/>
<polygon fill="black" stroke="black" points="811.6,-631.76 818.94,-636.56 815.55,-632.38 819.5,-633 819.5,-633 819.5,-633 815.55,-632.38 820.06,-629.44 811.6,-631.76 811.6,-631.76"/>
<ellipse fill="none" stroke="black" cx="808.44" cy="-631.26" rx="3.2" ry="3.2"/>
</g>
<!-- image_to_image_map_author&#45;&gt;image_to_image_map -->
<g id="edge12" class="edge">
<title>image_to_image_map_author:w&#45;&gt;image_to_image_map:e</title>
<path fill="none" stroke="black" d="M804.96,-635.55C773.15,-649.59 814.34,-718.08 779,-755 747.1,-788.33 728.14,-792 682,-792"/>
<polygon fill="black" stroke="black" points="811.62,-634.38 820.12,-636.55 815.56,-633.69 819.5,-633 819.5,-633 819.5,-633 815.56,-633.69 818.88,-629.45 811.62,-634.38 811.62,-634.38"/>
<ellipse fill="none" stroke="black" cx="808.47" cy="-634.94" rx="3.2" ry="3.2"/>
</g>
<!-- SQE_image_author -->
<g id="node14" class="node">
<title>SQE_image_author</title>
<g id="a_node14"><a xlink:href="../../tables/SQE_image_author.html" xlink:title="SQE_image_author" target="_top">
<polygon fill="#ffffff" stroke="transparent" points="466.5,-577 466.5,-665 713.5,-665 713.5,-577 466.5,-577"/>
<polygon fill="#f5f5f5" stroke="transparent" points="469,-641 469,-663 712,-663 712,-641 469,-641"/>
<polygon fill="none" stroke="black" points="469,-641 469,-663 712,-663 712,-641 469,-641"/>
<text text-anchor="start" x="474" y="-650.2" font-family="Helvetica,sans-Serif" font-weight="bold" font-size="11.00">SQE_image_author</text>
<text text-anchor="start" x="670" y="-649.2" font-family="Helvetica,sans-Serif" font-size="11.00">[table]</text>
<polygon fill="none" stroke="black" points="469,-619 469,-641 615,-641 615,-619 469,-619"/>
<image xlink:href="../../images/primaryKeys.png" width="11px" height="12px" preserveAspectRatio="xMinYMin meet" x="474" y="-636"/>
<text text-anchor="start" x="489" y="-627.2" font-family="Helvetica,sans-Serif" font-size="11.00">sqe_image_id</text>
<polygon fill="none" stroke="black" points="615,-619 615,-641 712,-641 712,-619 615,-619"/>
<text text-anchor="start" x="618" y="-627.2" font-family="Helvetica,sans-Serif" font-size="11.00">int unsigned[10]</text>
<polygon fill="#ffffff" stroke="transparent" points="469,-597 469,-619 615,-619 615,-597 469,-597"/>
<polygon fill="none" stroke="black" points="469,-597 469,-619 615,-619 615,-597 469,-597"/>
<image xlink:href="../../images/foreignKeys.png" width="11px" height="12px" preserveAspectRatio="xMinYMin meet" x="474" y="-614"/>
<text text-anchor="start" x="489" y="-605.2" font-family="Helvetica,sans-Serif" font-size="11.00">user_id</text>
<polygon fill="none" stroke="black" points="615,-597 615,-619 712,-619 712,-597 615,-597"/>
<text text-anchor="start" x="618" y="-605.2" font-family="Helvetica,sans-Serif" font-size="11.00">int unsigned[10]</text>
<polygon fill="#ffffff" stroke="transparent" points="469,-579 469,-597 518,-597 518,-579 469,-579"/>
<polygon fill="none" stroke="black" points="469,-579 469,-597 518,-597 518,-579 469,-579"/>
<text text-anchor="start" x="472" y="-585.2" font-family="Helvetica,sans-Serif" font-size="11.00">&lt; 2</text>
<polygon fill="#ffffff" stroke="transparent" points="518,-579 518,-597 615,-597 615,-579 518,-579"/>
<polygon fill="none" stroke="black" points="518,-579 518,-597 615,-597 615,-579 518,-579"/>
<text text-anchor="start" x="544" y="-585.2" font-family="Helvetica,sans-Serif" font-size="11.00">97,205 rows</text>
<polygon fill="#ffffff" stroke="transparent" points="615,-579 615,-597 712,-597 712,-579 615,-579"/>
<polygon fill="none" stroke="black" points="615,-579 615,-597 712,-597 712,-579 615,-579"/>
<text text-anchor="start" x="689" y="-585.2" font-family="Helvetica,sans-Serif" font-size="11.00">0 &gt;</text>
<polygon fill="none" stroke="black" stroke-width="2" points="467.5,-578 467.5,-664 712.5,-664 712.5,-578 467.5,-578"/>
</a>
</g>
</g>
<!-- SQE_image_author&#45;&gt;SQE_image -->
<g id="edge16" class="edge">
<title>SQE_image_author:w&#45;&gt;SQE_image:e</title>
<path fill="none" stroke="black" d="M457.32,-630.87C431.27,-635.49 427.41,-657.63 401,-676 377.57,-692.3 377.05,-713 348.5,-713"/>
<polygon fill="black" stroke="black" points="466.88,-626.08 467.53,-634.05 465.93,-634.18 465.28,-626.21 466.88,-626.08"/>
<polyline fill="none" stroke="black" points="468,-630 464.01,-630.33 "/>
<ellipse fill="none" stroke="black" cx="460.82" cy="-630.59" rx="3.2" ry="3.2"/>
</g>
<!-- SQE_image_author&#45;&gt;user -->
<g id="edge17" class="edge">
<title>SQE_image_author:w&#45;&gt;user:e</title>
<path fill="none" stroke="black" d="M453.48,-607.15C429.03,-603.98 417.33,-591.68 401,-567 368.02,-517.16 421.26,-301 361.5,-301"/>
<polygon fill="black" stroke="black" points="460.01,-607.53 467.79,-611.59 464.01,-607.77 468,-608 468,-608 468,-608 464.01,-607.77 468.21,-604.41 460.01,-607.53 460.01,-607.53"/>
<ellipse fill="none" stroke="black" cx="456.82" cy="-607.35" rx="3.2" ry="3.2"/>
</g>
<!-- user_contributions -->
<g id="node15" class="node">
<title>user_contributions</title>
<g id="a_node15"><a xlink:href="../../tables/user_contributions.html" xlink:title="user_contributions" target="_top">
<polygon fill="#ffffff" stroke="transparent" points="507,-116 507,-174 673,-174 673,-116 507,-116"/>
<polygon fill="#f5f5f5" stroke="transparent" points="507,-152 507,-174 673,-174 673,-152 507,-152"/>
<polygon fill="none" stroke="black" points="507,-152 507,-174 673,-174 673,-152 507,-152"/>
<text text-anchor="start" x="512" y="-161.2" font-family="Helvetica,sans-Serif" font-weight="bold" font-size="11.00">user_contributions</text>
<text text-anchor="start" x="631" y="-160.2" font-family="Helvetica,sans-Serif" font-size="11.00">[table]</text>
<polygon fill="none" stroke="black" points="507,-134 507,-152 673,-152 673,-134 507,-134"/>
<text text-anchor="start" x="510" y="-140.2" font-family="Helvetica,sans-Serif" font-size="11.00">...</text>
<polygon fill="#ffffff" stroke="transparent" points="507,-116 507,-134 574,-134 574,-116 507,-116"/>
<polygon fill="none" stroke="black" points="507,-116 507,-134 574,-134 574,-116 507,-116"/>
<text text-anchor="start" x="510" y="-122.2" font-family="Helvetica,sans-Serif" font-size="11.00">&lt; 1</text>
<polygon fill="#ffffff" stroke="transparent" points="574,-116 574,-134 638,-134 638,-116 574,-116"/>
<polygon fill="none" stroke="black" points="574,-116 574,-134 638,-134 638,-116 574,-116"/>
<text text-anchor="start" x="598" y="-122.2" font-family="Helvetica,sans-Serif" font-size="11.00">0 rows</text>
<polygon fill="#ffffff" stroke="transparent" points="638,-116 638,-134 673,-134 673,-116 638,-116"/>
<polygon fill="none" stroke="black" points="638,-116 638,-134 673,-134 673,-116 638,-116"/>
<text text-anchor="start" x="662" y="-122.2" font-family="Helvetica,sans-Serif" font-size="11.00"> &#160;</text>
</a>
</g>
</g>
<!-- user_contributions&#45;&gt;user -->
<g id="edge18" class="edge">
<title>user_contributions:w&#45;&gt;user:e</title>
<path fill="none" stroke="black" d="M491.45,-143.27C451.1,-144.9 432.13,-154.66 401,-188 364.69,-226.89 414.7,-301 361.5,-301"/>
<polygon fill="black" stroke="black" points="498,-143.15 506.07,-146.6 502,-143.07 506,-143 506,-143 506,-143 502,-143.07 505.93,-139.4 498,-143.15 498,-143.15"/>
<ellipse fill="none" stroke="black" cx="494.8" cy="-143.21" rx="3.2" ry="3.2"/>
</g>
</g>
</svg>
