<?xml version="1.0" encoding="UTF-8" standalone="no"?>
<!DOCTYPE svg PUBLIC "-//W3C//DTD SVG 1.1//EN"
 "http://www.w3.org/Graphics/SVG/1.1/DTD/svg11.dtd">
<!-- Generated by graphviz version 2.40.1 (20161225.0304)
 -->
<!-- Title: oneDegreeRelationshipsDiagram Pages: 1 -->
<svg width="706pt" height="659pt"
 viewBox="0.00 0.00 706.00 659.00" xmlns="http://www.w3.org/2000/svg" xmlns:xlink="http://www.w3.org/1999/xlink">
<g id="graph0" class="graph" transform="scale(1 1) rotate(0) translate(4 655)">
<title>oneDegreeRelationshipsDiagram</title>
<polygon fill="#ffffff" stroke="transparent" points="-4,4 -4,-655 702,-655 702,4 -4,4"/>
<text text-anchor="middle" x="71.5" y="-7.2" font-family="Helvetica,sans-Serif" font-size="11.00" fill="#000000">Generated by SchemaSpy</text>
<!-- artefact_shape -->
<g id="node1" class="node">
<title>artefact_shape</title>
<g id="a_node1"><a xlink:href="../../tables/artefact_shape.html" xlink:title="artefact_shape" target="_top">
<polygon fill="#ffffff" stroke="transparent" points="492,-479 492,-647 690,-647 690,-479 492,-479"/>
<polygon fill="#f5f5f5" stroke="transparent" points="492,-625 492,-647 690,-647 690,-625 492,-625"/>
<polygon fill="none" stroke="#000000" points="492,-625 492,-647 690,-647 690,-625 492,-625"/>
<text text-anchor="start" x="497" y="-634.2" font-family="Helvetica,sans-Serif" font-weight="bold" font-size="11.00" fill="#000000">artefact_shape</text>
<text text-anchor="start" x="655" y="-633.2" font-family="Helvetica,sans-Serif" font-size="11.00" fill="#000000">[table]</text>
<polygon fill="none" stroke="#000000" points="492,-603 492,-625 690,-625 690,-603 492,-603"/>
<image xlink:href="../../images/primaryKeys.png" width="11px" height="12px" preserveAspectRatio="xMinYMin meet" x="497" y="-620"/>
<text text-anchor="start" x="512" y="-611.2" font-family="Helvetica,sans-Serif" font-size="11.00" fill="#000000">artefact_shape_id</text>
<polygon fill="#ffffff" stroke="transparent" points="492,-581 492,-603 690,-603 690,-581 492,-581"/>
<polygon fill="none" stroke="#000000" points="492,-581 492,-603 690,-603 690,-581 492,-581"/>
<image xlink:href="../../images/foreignKeys.png" width="11px" height="12px" preserveAspectRatio="xMinYMin meet" x="497" y="-598"/>
<text text-anchor="start" x="512" y="-589.2" font-family="Helvetica,sans-Serif" font-size="11.00" fill="#000000">artefact_id</text>
<polygon fill="#ffffff" stroke="transparent" points="492,-559 492,-581 690,-581 690,-559 492,-559"/>
<polygon fill="none" stroke="#000000" points="492,-559 492,-581 690,-581 690,-559 492,-559"/>
<image xlink:href="../../images/foreignKeys.png" width="11px" height="12px" preserveAspectRatio="xMinYMin meet" x="497" y="-576"/>
<text text-anchor="start" x="512" y="-567.2" font-family="Helvetica,sans-Serif" font-size="11.00" fill="#000000">sqe_image_id</text>
<polygon fill="#ffffff" stroke="transparent" points="492,-537 492,-559 690,-559 690,-537 492,-537"/>
<polygon fill="none" stroke="#000000" points="492,-537 492,-559 690,-559 690,-537 492,-537"/>
<text text-anchor="start" x="512" y="-545.2" font-family="Helvetica,sans-Serif" font-size="11.00" fill="#000000">region_in_sqe_image_hash</text>
<polygon fill="#ffffff" stroke="transparent" points="492,-515 492,-537 690,-537 690,-515 492,-515"/>
<polygon fill="none" stroke="#000000" points="492,-515 492,-537 690,-537 690,-515 492,-515"/>
<image xlink:href="../../images/foreignKeys.png" width="11px" height="12px" preserveAspectRatio="xMinYMin meet" x="497" y="-532"/>
<text text-anchor="start" x="512" y="-523.2" font-family="Helvetica,sans-Serif" font-size="11.00" fill="#000000">creator_id</text>
<polygon fill="none" stroke="#000000" points="492,-497 492,-515 690,-515 690,-497 492,-497"/>
<text text-anchor="start" x="495" y="-503.2" font-family="Helvetica,sans-Serif" font-size="11.00" fill="#000000">...</text>
<polygon fill="#ffffff" stroke="transparent" points="492,-479 492,-497 558,-497 558,-479 492,-479"/>
<polygon fill="none" stroke="#000000" points="492,-479 492,-497 558,-497 558,-479 492,-479"/>
<text text-anchor="start" x="495" y="-485.2" font-family="Helvetica,sans-Serif" font-size="11.00" fill="#000000">&lt; 3</text>
<polygon fill="#ffffff" stroke="transparent" points="558,-479 558,-497 646,-497 646,-479 558,-479"/>
<polygon fill="none" stroke="#000000" points="558,-479 558,-497 646,-497 646,-479 558,-479"/>
<text text-anchor="start" x="583" y="-485.2" font-family="Helvetica,sans-Serif" font-size="11.00" fill="#000000">23,787 rows</text>
<polygon fill="#ffffff" stroke="transparent" points="646,-479 646,-497 690,-497 690,-479 646,-479"/>
<polygon fill="none" stroke="#000000" points="646,-479 646,-497 690,-497 690,-479 646,-479"/>
<text text-anchor="start" x="671" y="-485.2" font-family="Helvetica,sans-Serif" font-size="11.00" fill="#000000">1 &gt;</text>
</a>
</g>
</g>
<!-- SQE_image -->
<g id="node2" class="node">
<title>SQE_image</title>
<g id="a_node2"><a xlink:href="../../tables/SQE_image.html" xlink:title="SQE_image" target="_top">
<polygon fill="#ffffff" stroke="transparent" points="200,-119 200,-427 443,-427 443,-119 200,-119"/>
<polygon fill="#f5f5f5" stroke="transparent" points="202.5,-403 202.5,-425 441.5,-425 441.5,-403 202.5,-403"/>
<polygon fill="none" stroke="#000000" points="202.5,-403 202.5,-425 441.5,-425 441.5,-403 202.5,-403"/>
<text text-anchor="start" x="207.5" y="-412.2" font-family="Helvetica,sans-Serif" font-weight="bold" font-size="11.00" fill="#000000">SQE_image</text>
<text text-anchor="start" x="406.5" y="-411.2" font-family="Helvetica,sans-Serif" font-size="11.00" fill="#000000">[table]</text>
<polygon fill="none" stroke="#000000" points="202.5,-381 202.5,-403 340.5,-403 340.5,-381 202.5,-381"/>
<image xlink:href="../../images/primaryKeys.png" width="11px" height="12px" preserveAspectRatio="xMinYMin meet" x="207.5" y="-398"/>
<text text-anchor="start" x="222.5" y="-389.2" font-family="Helvetica,sans-Serif" font-size="11.00" fill="#000000">sqe_image_id</text>
<polygon fill="none" stroke="#000000" points="340.5,-381 340.5,-403 441.5,-403 441.5,-381 340.5,-381"/>
<text text-anchor="start" x="343.5" y="-389.2" font-family="Helvetica,sans-Serif" font-size="11.00" fill="#000000">int unsigned[10]</text>
<polygon fill="#ffffff" stroke="transparent" points="202.5,-359 202.5,-381 340.5,-381 340.5,-359 202.5,-359"/>
<polygon fill="none" stroke="#000000" points="202.5,-359 202.5,-381 340.5,-381 340.5,-359 202.5,-359"/>
<image xlink:href="../../images/foreignKeys.png" width="11px" height="12px" preserveAspectRatio="xMinYMin meet" x="207.5" y="-376"/>
<text text-anchor="start" x="222.5" y="-367.2" font-family="Helvetica,sans-Serif" font-size="11.00" fill="#000000">image_urls_id</text>
<polygon fill="none" stroke="#000000" points="340.5,-359 340.5,-381 441.5,-381 441.5,-359 340.5,-359"/>
<text text-anchor="start" x="343.5" y="-367.2" font-family="Helvetica,sans-Serif" font-size="11.00" fill="#000000">int unsigned[10]</text>
<polygon fill="#ffffff" stroke="transparent" points="202.5,-337 202.5,-359 340.5,-359 340.5,-337 202.5,-337"/>
<polygon fill="none" stroke="#000000" points="202.5,-337 202.5,-359 340.5,-359 340.5,-337 202.5,-337"/>
<text text-anchor="start" x="222.5" y="-345.2" font-family="Helvetica,sans-Serif" font-size="11.00" fill="#000000">filename</text>
<polygon fill="none" stroke="#000000" points="340.5,-337 340.5,-359 441.5,-359 441.5,-337 340.5,-337"/>
<text text-anchor="start" x="343.5" y="-345.2" font-family="Helvetica,sans-Serif" font-size="11.00" fill="#000000">varchar[255]</text>
<polygon fill="none" stroke="#000000" points="202.5,-315 202.5,-337 340.5,-337 340.5,-315 202.5,-315"/>
<text text-anchor="start" x="222.5" y="-323.2" font-family="Helvetica,sans-Serif" font-size="11.00" fill="#000000">native_width</text>
<polygon fill="none" stroke="#000000" points="340.5,-315 340.5,-337 441.5,-337 441.5,-315 340.5,-315"/>
<text text-anchor="start" x="343.5" y="-323.2" font-family="Helvetica,sans-Serif" font-size="11.00" fill="#000000">int unsigned[10]</text>
<polygon fill="none" stroke="#000000" points="202.5,-293 202.5,-315 340.5,-315 340.5,-293 202.5,-293"/>
<text text-anchor="start" x="222.5" y="-301.2" font-family="Helvetica,sans-Serif" font-size="11.00" fill="#000000">native_height</text>
<polygon fill="none" stroke="#000000" points="340.5,-293 340.5,-315 441.5,-315 441.5,-293 340.5,-293"/>
<text text-anchor="start" x="343.5" y="-301.2" font-family="Helvetica,sans-Serif" font-size="11.00" fill="#000000">int unsigned[10]</text>
<polygon fill="none" stroke="#000000" points="202.5,-271 202.5,-293 340.5,-293 340.5,-271 202.5,-271"/>
<text text-anchor="start" x="222.5" y="-279.2" font-family="Helvetica,sans-Serif" font-size="11.00" fill="#000000">dpi</text>
<polygon fill="none" stroke="#000000" points="340.5,-271 340.5,-293 441.5,-293 441.5,-271 340.5,-271"/>
<text text-anchor="start" x="343.5" y="-279.2" font-family="Helvetica,sans-Serif" font-size="11.00" fill="#000000">int unsigned[10]</text>
<polygon fill="none" stroke="#000000" points="202.5,-249 202.5,-271 340.5,-271 340.5,-249 202.5,-249"/>
<text text-anchor="start" x="222.5" y="-257.2" font-family="Helvetica,sans-Serif" font-size="11.00" fill="#000000">type</text>
<polygon fill="none" stroke="#000000" points="340.5,-249 340.5,-271 441.5,-271 441.5,-249 340.5,-249"/>
<text text-anchor="start" x="343.5" y="-257.2" font-family="Helvetica,sans-Serif" font-size="11.00" fill="#000000">bit[3]</text>
<polygon fill="none" stroke="#000000" points="202.5,-227 202.5,-249 340.5,-249 340.5,-227 202.5,-227"/>
<text text-anchor="start" x="222.5" y="-235.2" font-family="Helvetica,sans-Serif" font-size="11.00" fill="#000000">wavelength_start</text>
<polygon fill="none" stroke="#000000" points="340.5,-227 340.5,-249 441.5,-249 441.5,-227 340.5,-227"/>
<text text-anchor="start" x="343.5" y="-235.2" font-family="Helvetica,sans-Serif" font-size="11.00" fill="#000000">smallint unsigned[5]</text>
<polygon fill="none" stroke="#000000" points="202.5,-205 202.5,-227 340.5,-227 340.5,-205 202.5,-205"/>
<text text-anchor="start" x="222.5" y="-213.2" font-family="Helvetica,sans-Serif" font-size="11.00" fill="#000000">wavelength_end</text>
<polygon fill="none" stroke="#000000" points="340.5,-205 340.5,-227 441.5,-227 441.5,-205 340.5,-205"/>
<text text-anchor="start" x="343.5" y="-213.2" font-family="Helvetica,sans-Serif" font-size="11.00" fill="#000000">smallint unsigned[5]</text>
<polygon fill="none" stroke="#000000" points="202.5,-183 202.5,-205 340.5,-205 340.5,-183 202.5,-183"/>
<text text-anchor="start" x="222.5" y="-191.2" font-family="Helvetica,sans-Serif" font-size="11.00" fill="#000000">is_master</text>
<polygon fill="none" stroke="#000000" points="340.5,-183 340.5,-205 441.5,-205 441.5,-183 340.5,-183"/>
<text text-anchor="start" x="343.5" y="-191.2" font-family="Helvetica,sans-Serif" font-size="11.00" fill="#000000">bit[3]</text>
<polygon fill="#ffffff" stroke="transparent" points="202.5,-161 202.5,-183 340.5,-183 340.5,-161 202.5,-161"/>
<polygon fill="none" stroke="#000000" points="202.5,-161 202.5,-183 340.5,-183 340.5,-161 202.5,-161"/>
<image xlink:href="../../images/foreignKeys.png" width="11px" height="12px" preserveAspectRatio="xMinYMin meet" x="207.5" y="-178"/>
<text text-anchor="start" x="222.5" y="-169.2" font-family="Helvetica,sans-Serif" font-size="11.00" fill="#000000">image_catalog_id</text>
<polygon fill="none" stroke="#000000" points="340.5,-161 340.5,-183 441.5,-183 441.5,-161 340.5,-161"/>
<text text-anchor="start" x="343.5" y="-169.2" font-family="Helvetica,sans-Serif" font-size="11.00" fill="#000000">int unsigned[10]</text>
<polygon fill="none" stroke="#000000" points="202.5,-139 202.5,-161 340.5,-161 340.5,-139 202.5,-139"/>
<text text-anchor="start" x="222.5" y="-147.2" font-family="Helvetica,sans-Serif" font-size="11.00" fill="#000000">is_recto</text>
<polygon fill="none" stroke="#000000" points="340.5,-139 340.5,-161 441.5,-161 441.5,-139 340.5,-139"/>
<text text-anchor="start" x="343.5" y="-147.2" font-family="Helvetica,sans-Serif" font-size="11.00" fill="#000000">bit[3]</text>
<polygon fill="#ffffff" stroke="transparent" points="202.5,-121 202.5,-139 249.5,-139 249.5,-121 202.5,-121"/>
<polygon fill="none" stroke="#000000" points="202.5,-121 202.5,-139 249.5,-139 249.5,-121 202.5,-121"/>
<text text-anchor="start" x="205.5" y="-127.2" font-family="Helvetica,sans-Serif" font-size="11.00" fill="#000000">&lt; 2</text>
<polygon fill="#ffffff" stroke="transparent" points="249.5,-121 249.5,-139 340.5,-139 340.5,-121 249.5,-121"/>
<polygon fill="none" stroke="#000000" points="249.5,-121 249.5,-139 340.5,-139 340.5,-121 249.5,-121"/>
<text text-anchor="start" x="277.5" y="-127.2" font-family="Helvetica,sans-Serif" font-size="11.00" fill="#000000">97,684 rows</text>
<polygon fill="#ffffff" stroke="transparent" points="340.5,-121 340.5,-139 441.5,-139 441.5,-121 340.5,-121"/>
<polygon fill="none" stroke="#000000" points="340.5,-121 340.5,-139 441.5,-139 441.5,-121 340.5,-121"/>
<text text-anchor="start" x="422.5" y="-127.2" font-family="Helvetica,sans-Serif" font-size="11.00" fill="#000000">4 &gt;</text>
<polygon fill="none" stroke="#000000" stroke-width="2" points="201,-120 201,-426 442,-426 442,-120 201,-120"/>
</a>
</g>
</g>
<!-- artefact_shape&#45;&gt;SQE_image -->
<g id="edge1" class="edge">
<title>artefact_shape:w&#45;&gt;SQE_image:e</title>
<path fill="none" stroke="#000000" d="M477.7609,-567.6183C424.4312,-546.4959 518.1119,-392 441.5,-392"/>
<polygon fill="#000000" stroke="#000000" points="484.1096,-568.6802 491.4061,-573.5507 488.0548,-569.3401 492,-570 492,-570 492,-570 488.0548,-569.3401 492.5939,-566.4493 484.1096,-568.6802 484.1096,-568.6802"/>
<ellipse fill="none" stroke="#000000" cx="480.9535" cy="-568.1523" rx="3.2" ry="3.2"/>
</g>
<!-- image_catalog -->
<g id="node4" class="node">
<title>image_catalog</title>
<g id="a_node4"><a xlink:href="../../tables/image_catalog.html" xlink:title="image_catalog" target="_top">
<polygon fill="#ffffff" stroke="transparent" points="8,-37 8,-205 151,-205 151,-37 8,-37"/>
<polygon fill="#f5f5f5" stroke="transparent" points="8.5,-183 8.5,-205 151.5,-205 151.5,-183 8.5,-183"/>
<polygon fill="none" stroke="#000000" points="8.5,-183 8.5,-205 151.5,-205 151.5,-183 8.5,-183"/>
<text text-anchor="start" x="13.5" y="-192.2" font-family="Helvetica,sans-Serif" font-weight="bold" font-size="11.00" fill="#000000">image_catalog</text>
<text text-anchor="start" x="116.5" y="-191.2" font-family="Helvetica,sans-Serif" font-size="11.00" fill="#000000">[table]</text>
<polygon fill="none" stroke="#000000" points="8.5,-161 8.5,-183 151.5,-183 151.5,-161 8.5,-161"/>
<image xlink:href="../../images/primaryKeys.png" width="11px" height="12px" preserveAspectRatio="xMinYMin meet" x="13.5" y="-178"/>
<text text-anchor="start" x="28.5" y="-169.2" font-family="Helvetica,sans-Serif" font-size="11.00" fill="#000000">image_catalog_id</text>
<polygon fill="#ffffff" stroke="transparent" points="8.5,-139 8.5,-161 151.5,-161 151.5,-139 8.5,-139"/>
<polygon fill="none" stroke="#000000" points="8.5,-139 8.5,-161 151.5,-161 151.5,-139 8.5,-139"/>
<text text-anchor="start" x="28.5" y="-147.2" font-family="Helvetica,sans-Serif" font-size="11.00" fill="#000000">institution</text>
<polygon fill="#ffffff" stroke="transparent" points="8.5,-117 8.5,-139 151.5,-139 151.5,-117 8.5,-117"/>
<polygon fill="none" stroke="#000000" points="8.5,-117 8.5,-139 151.5,-139 151.5,-117 8.5,-117"/>
<text text-anchor="start" x="28.5" y="-125.2" font-family="Helvetica,sans-Serif" font-size="11.00" fill="#000000">catalog_number_1</text>
<polygon fill="#ffffff" stroke="transparent" points="8.5,-95 8.5,-117 151.5,-117 151.5,-95 8.5,-95"/>
<polygon fill="none" stroke="#000000" points="8.5,-95 8.5,-117 151.5,-117 151.5,-95 8.5,-95"/>
<text text-anchor="start" x="28.5" y="-103.2" font-family="Helvetica,sans-Serif" font-size="11.00" fill="#000000">catalog_number_2</text>
<polygon fill="#ffffff" stroke="transparent" points="8.5,-73 8.5,-95 151.5,-95 151.5,-73 8.5,-73"/>
<polygon fill="none" stroke="#000000" points="8.5,-73 8.5,-95 151.5,-95 151.5,-73 8.5,-73"/>
<text text-anchor="start" x="28.5" y="-81.2" font-family="Helvetica,sans-Serif" font-size="11.00" fill="#000000">catalog_side</text>
<polygon fill="none" stroke="#000000" points="8.5,-55 8.5,-73 151.5,-73 151.5,-55 8.5,-55"/>
<text text-anchor="start" x="11.5" y="-61.2" font-family="Helvetica,sans-Serif" font-size="11.00" fill="#000000">...</text>
<polygon fill="#ffffff" stroke="transparent" points="8.5,-37 8.5,-55 42.5,-55 42.5,-37 8.5,-37"/>
<polygon fill="none" stroke="#000000" points="8.5,-37 8.5,-55 42.5,-55 42.5,-37 8.5,-37"/>
<text text-anchor="start" x="11.5" y="-43.2" font-family="Helvetica,sans-Serif" font-size="11.00" fill="#000000"> &#160;</text>
<polygon fill="#ffffff" stroke="transparent" points="42.5,-37 42.5,-55 118.5,-55 118.5,-37 42.5,-37"/>
<polygon fill="none" stroke="#000000" points="42.5,-37 42.5,-55 118.5,-55 118.5,-37 42.5,-37"/>
<text text-anchor="start" x="55.5" y="-43.2" font-family="Helvetica,sans-Serif" font-size="11.00" fill="#000000">41,712 rows</text>
<polygon fill="#ffffff" stroke="transparent" points="118.5,-37 118.5,-55 151.5,-55 151.5,-37 118.5,-37"/>
<polygon fill="none" stroke="#000000" points="118.5,-37 118.5,-55 151.5,-55 151.5,-37 118.5,-37"/>
<text text-anchor="start" x="132.5" y="-43.2" font-family="Helvetica,sans-Serif" font-size="11.00" fill="#000000">3 &gt;</text>
</a>
</g>
</g>
<!-- SQE_image&#45;&gt;image_catalog -->
<g id="edge4" class="edge">
<title>SQE_image:w&#45;&gt;image_catalog:e</title>
<path fill="none" stroke="#000000" d="M187.776,-172C175.7815,-172 168.3229,-172 151.5,-172"/>
<polygon fill="#000000" stroke="#000000" points="194.5,-172.0001 202.5,-175.6 198.5,-172 202.5,-172 202.5,-172 202.5,-172 198.5,-172 202.5,-168.4 194.5,-172.0001 194.5,-172.0001"/>
<ellipse fill="none" stroke="#000000" cx="191.3" cy="-172.0001" rx="3.2" ry="3.2"/>
</g>
<!-- image_urls -->
<g id="node5" class="node">
<title>image_urls</title>
<g id="a_node5"><a xlink:href="../../tables/image_urls.html" xlink:title="image_urls" target="_top">
<polygon fill="#ffffff" stroke="transparent" points="23.5,-301 23.5,-403 135.5,-403 135.5,-301 23.5,-301"/>
<polygon fill="#f5f5f5" stroke="transparent" points="23.5,-381 23.5,-403 135.5,-403 135.5,-381 23.5,-381"/>
<polygon fill="none" stroke="#000000" points="23.5,-381 23.5,-403 135.5,-403 135.5,-381 23.5,-381"/>
<text text-anchor="start" x="28.5" y="-390.2" font-family="Helvetica,sans-Serif" font-weight="bold" font-size="11.00" fill="#000000">image_urls</text>
<text text-anchor="start" x="100.5" y="-389.2" font-family="Helvetica,sans-Serif" font-size="11.00" fill="#000000">[table]</text>
<polygon fill="none" stroke="#000000" points="23.5,-359 23.5,-381 135.5,-381 135.5,-359 23.5,-359"/>
<image xlink:href="../../images/primaryKeys.png" width="11px" height="12px" preserveAspectRatio="xMinYMin meet" x="28.5" y="-376"/>
<text text-anchor="start" x="43.5" y="-367.2" font-family="Helvetica,sans-Serif" font-size="11.00" fill="#000000">image_urls_id</text>
<polygon fill="none" stroke="#000000" points="23.5,-337 23.5,-359 135.5,-359 135.5,-337 23.5,-337"/>
<image xlink:href="../../images/primaryKeys.png" width="11px" height="12px" preserveAspectRatio="xMinYMin meet" x="28.5" y="-354"/>
<text text-anchor="start" x="43.5" y="-345.2" font-family="Helvetica,sans-Serif" font-size="11.00" fill="#000000">url</text>
<polygon fill="none" stroke="#000000" points="23.5,-319 23.5,-337 135.5,-337 135.5,-319 23.5,-319"/>
<text text-anchor="start" x="26.5" y="-325.2" font-family="Helvetica,sans-Serif" font-size="11.00" fill="#000000">...</text>
<polygon fill="#ffffff" stroke="transparent" points="23.5,-301 23.5,-319 55.5,-319 55.5,-301 23.5,-301"/>
<polygon fill="none" stroke="#000000" points="23.5,-301 23.5,-319 55.5,-319 55.5,-301 23.5,-301"/>
<text text-anchor="start" x="26.5" y="-307.2" font-family="Helvetica,sans-Serif" font-size="11.00" fill="#000000"> &#160;</text>
<polygon fill="#ffffff" stroke="transparent" points="55.5,-301 55.5,-319 103.5,-319 103.5,-301 55.5,-301"/>
<polygon fill="none" stroke="#000000" points="55.5,-301 55.5,-319 103.5,-319 103.5,-301 55.5,-301"/>
<text text-anchor="start" x="67.5" y="-307.2" font-family="Helvetica,sans-Serif" font-size="11.00" fill="#000000">3 rows</text>
<polygon fill="#ffffff" stroke="transparent" points="103.5,-301 103.5,-319 135.5,-319 135.5,-301 103.5,-301"/>
<polygon fill="none" stroke="#000000" points="103.5,-301 103.5,-319 135.5,-319 135.5,-301 103.5,-301"/>
<text text-anchor="start" x="116.5" y="-307.2" font-family="Helvetica,sans-Serif" font-size="11.00" fill="#000000">1 &gt;</text>
</a>
</g>
</g>
<!-- SQE_image&#45;&gt;image_urls -->
<g id="edge5" class="edge">
<title>SQE_image:w&#45;&gt;image_urls:e</title>
<path fill="none" stroke="#000000" d="M188.0809,-370C169.2359,-370 159.8108,-370 135.5,-370"/>
<polygon fill="#000000" stroke="#000000" points="194.5,-370.0001 202.5,-373.6 198.5,-370 202.5,-370 202.5,-370 202.5,-370 198.5,-370 202.5,-366.4 194.5,-370.0001 194.5,-370.0001"/>
<ellipse fill="none" stroke="#000000" cx="191.3" cy="-370.0001" rx="3.2" ry="3.2"/>
</g>
<!-- image_to_image_map -->
<g id="node3" class="node">
<title>image_to_image_map</title>
<g id="a_node3"><a xlink:href="../../tables/image_to_image_map.html" xlink:title="image_to_image_map" target="_top">
<polygon fill="#ffffff" stroke="transparent" points="499.5,-268 499.5,-458 682.5,-458 682.5,-268 499.5,-268"/>
<polygon fill="#f5f5f5" stroke="transparent" points="500,-436 500,-458 683,-458 683,-436 500,-436"/>
<polygon fill="none" stroke="#000000" points="500,-436 500,-458 683,-458 683,-436 500,-436"/>
<text text-anchor="start" x="505" y="-445.2" font-family="Helvetica,sans-Serif" font-weight="bold" font-size="11.00" fill="#000000">image_to_image_map</text>
<text text-anchor="start" x="648" y="-444.2" font-family="Helvetica,sans-Serif" font-size="11.00" fill="#000000">[table]</text>
<polygon fill="none" stroke="#000000" points="500,-414 500,-436 683,-436 683,-414 500,-414"/>
<image xlink:href="../../images/primaryKeys.png" width="11px" height="12px" preserveAspectRatio="xMinYMin meet" x="505" y="-431"/>
<text text-anchor="start" x="520" y="-422.2" font-family="Helvetica,sans-Serif" font-size="11.00" fill="#000000">image_to_image_map_id</text>
<polygon fill="#ffffff" stroke="transparent" points="500,-392 500,-414 683,-414 683,-392 500,-392"/>
<polygon fill="none" stroke="#000000" points="500,-392 500,-414 683,-414 683,-392 500,-392"/>
<image xlink:href="../../images/foreignKeys.png" width="11px" height="12px" preserveAspectRatio="xMinYMin meet" x="505" y="-409"/>
<text text-anchor="start" x="520" y="-400.2" font-family="Helvetica,sans-Serif" font-size="11.00" fill="#000000">image1_id</text>
<polygon fill="#ffffff" stroke="transparent" points="500,-370 500,-392 683,-392 683,-370 500,-370"/>
<polygon fill="none" stroke="#000000" points="500,-370 500,-392 683,-392 683,-370 500,-370"/>
<image xlink:href="../../images/foreignKeys.png" width="11px" height="12px" preserveAspectRatio="xMinYMin meet" x="505" y="-387"/>
<text text-anchor="start" x="520" y="-378.2" font-family="Helvetica,sans-Serif" font-size="11.00" fill="#000000">image2_id</text>
<polygon fill="#ffffff" stroke="transparent" points="500,-348 500,-370 683,-370 683,-348 500,-348"/>
<polygon fill="none" stroke="#000000" points="500,-348 500,-370 683,-370 683,-348 500,-348"/>
<text text-anchor="start" x="520" y="-356.2" font-family="Helvetica,sans-Serif" font-size="11.00" fill="#000000">transform_matrix</text>
<polygon fill="#ffffff" stroke="transparent" points="500,-326 500,-348 683,-348 683,-326 500,-326"/>
<polygon fill="none" stroke="#000000" points="500,-326 500,-348 683,-348 683,-326 500,-326"/>
<text text-anchor="start" x="520" y="-334.2" font-family="Helvetica,sans-Serif" font-size="11.00" fill="#000000">region1_hash</text>
<polygon fill="#ffffff" stroke="transparent" points="500,-304 500,-326 683,-326 683,-304 500,-304"/>
<polygon fill="none" stroke="#000000" points="500,-304 500,-326 683,-326 683,-304 500,-304"/>
<text text-anchor="start" x="520" y="-312.2" font-family="Helvetica,sans-Serif" font-size="11.00" fill="#000000">region2_hash</text>
<polygon fill="none" stroke="#000000" points="500,-286 500,-304 683,-304 683,-286 500,-286"/>
<text text-anchor="start" x="503" y="-292.2" font-family="Helvetica,sans-Serif" font-size="11.00" fill="#000000">...</text>
<polygon fill="#ffffff" stroke="transparent" points="500,-268 500,-286 558,-286 558,-268 500,-268"/>
<polygon fill="none" stroke="#000000" points="500,-268 500,-286 558,-286 558,-268 500,-268"/>
<text text-anchor="start" x="503" y="-274.2" font-family="Helvetica,sans-Serif" font-size="11.00" fill="#000000">&lt; 2</text>
<polygon fill="#ffffff" stroke="transparent" points="558,-268 558,-286 642,-286 642,-268 558,-268"/>
<polygon fill="none" stroke="#000000" points="558,-268 558,-286 642,-286 642,-268 558,-268"/>
<text text-anchor="start" x="579" y="-274.2" font-family="Helvetica,sans-Serif" font-size="11.00" fill="#000000">69,272 rows</text>
<polygon fill="#ffffff" stroke="transparent" points="642,-268 642,-286 683,-286 683,-268 642,-268"/>
<polygon fill="none" stroke="#000000" points="642,-268 642,-286 683,-286 683,-268 642,-268"/>
<text text-anchor="start" x="664" y="-274.2" font-family="Helvetica,sans-Serif" font-size="11.00" fill="#000000">2 &gt;</text>
</a>
</g>
</g>
<!-- image_to_image_map&#45;&gt;SQE_image -->
<g id="edge2" class="edge">
<title>image_to_image_map:w&#45;&gt;SQE_image:e</title>
<path fill="none" stroke="#000000" d="M485.6522,-401.7382C470.2582,-398.8488 462.3752,-392 441.5,-392"/>
<polygon fill="#000000" stroke="#000000" points="492.0308,-402.2991 499.6846,-406.5862 496.0154,-402.6495 500,-403 500,-403 500,-403 496.0154,-402.6495 500.3154,-399.4138 492.0308,-402.2991 492.0308,-402.2991"/>
<ellipse fill="none" stroke="#000000" cx="488.8431" cy="-402.0187" rx="3.2" ry="3.2"/>
</g>
<!-- image_to_image_map&#45;&gt;SQE_image -->
<g id="edge3" class="edge">
<title>image_to_image_map:w&#45;&gt;SQE_image:e</title>
<path fill="none" stroke="#000000" d="M485.6522,-382.2618C470.2582,-385.1512 462.3752,-392 441.5,-392"/>
<polygon fill="#000000" stroke="#000000" points="492.0308,-381.7009 500.3154,-384.5862 496.0154,-381.3505 500,-381 500,-381 500,-381 496.0154,-381.3505 499.6846,-377.4138 492.0308,-381.7009 492.0308,-381.7009"/>
<ellipse fill="none" stroke="#000000" cx="488.8431" cy="-381.9813" rx="3.2" ry="3.2"/>
</g>
<!-- SQE_image_author -->
<g id="node6" class="node">
<title>SQE_image_author</title>
<g id="a_node6"><a xlink:href="../../tables/SQE_image_author.html" xlink:title="SQE_image_author" target="_top">
<polygon fill="#ffffff" stroke="transparent" points="518,-163 518,-247 664,-247 664,-163 518,-163"/>
<polygon fill="#f5f5f5" stroke="transparent" points="518,-225 518,-247 664,-247 664,-225 518,-225"/>
<polygon fill="none" stroke="#000000" points="518,-225 518,-247 664,-247 664,-225 518,-225"/>
<text text-anchor="start" x="523" y="-234.2" font-family="Helvetica,sans-Serif" font-weight="bold" font-size="11.00" fill="#000000">SQE_image_author</text>
<text text-anchor="start" x="629" y="-233.2" font-family="Helvetica,sans-Serif" font-size="11.00" fill="#000000">[table]</text>
<polygon fill="none" stroke="#000000" points="518,-203 518,-225 664,-225 664,-203 518,-203"/>
<image xlink:href="../../images/primaryKeys.png" width="11px" height="12px" preserveAspectRatio="xMinYMin meet" x="523" y="-220"/>
<text text-anchor="start" x="538" y="-211.2" font-family="Helvetica,sans-Serif" font-size="11.00" fill="#000000">sqe_image_id</text>
<polygon fill="#ffffff" stroke="transparent" points="518,-181 518,-203 664,-203 664,-181 518,-181"/>
<polygon fill="none" stroke="#000000" points="518,-181 518,-203 664,-203 664,-181 518,-181"/>
<image xlink:href="../../images/foreignKeys.png" width="11px" height="12px" preserveAspectRatio="xMinYMin meet" x="523" y="-198"/>
<text text-anchor="start" x="538" y="-189.2" font-family="Helvetica,sans-Serif" font-size="11.00" fill="#000000">user_id</text>
<polygon fill="#ffffff" stroke="transparent" points="518,-163 518,-181 562,-181 562,-163 518,-163"/>
<polygon fill="none" stroke="#000000" points="518,-163 518,-181 562,-181 562,-163 518,-163"/>
<text text-anchor="start" x="521" y="-169.2" font-family="Helvetica,sans-Serif" font-size="11.00" fill="#000000">&lt; 2</text>
<polygon fill="#ffffff" stroke="transparent" points="562,-163 562,-181 639,-181 639,-163 562,-163"/>
<polygon fill="none" stroke="#000000" points="562,-163 562,-181 639,-181 639,-163 562,-163"/>
<text text-anchor="start" x="576" y="-169.2" font-family="Helvetica,sans-Serif" font-size="11.00" fill="#000000">99,702 rows</text>
<polygon fill="#ffffff" stroke="transparent" points="639,-163 639,-181 664,-181 664,-163 639,-163"/>
<polygon fill="none" stroke="#000000" points="639,-163 639,-181 664,-181 664,-163 639,-163"/>
<text text-anchor="start" x="654" y="-169.2" font-family="Helvetica,sans-Serif" font-size="11.00" fill="#000000"> &#160;</text>
</a>
</g>
</g>
<!-- SQE_image_author&#45;&gt;SQE_image -->
<g id="edge6" class="edge">
<title>SQE_image_author:w&#45;&gt;SQE_image:e</title>
<path fill="none" stroke="#000000" d="M507.4634,-215.0453C440.1247,-229.633 523.7398,-392 441.5,-392"/>
<polygon fill="#000000" stroke="#000000" points="516.809,-210.0985 517.5988,-218.0594 516.0067,-218.2174 515.2168,-210.2565 516.809,-210.0985"/>
<polyline fill="none" stroke="#000000" points="518,-214 514.0195,-214.3949 "/>
<ellipse fill="none" stroke="#000000" cx="510.8352" cy="-214.7109" rx="3.2" ry="3.2"/>
</g>
</g>
</svg>
