<?xml version="1.0" encoding="UTF-8" standalone="no"?>
<!DOCTYPE svg PUBLIC "-//W3C//DTD SVG 1.1//EN"
 "http://www.w3.org/Graphics/SVG/1.1/DTD/svg11.dtd">
<!-- Generated by graphviz version 2.40.1 (20161225.0304)
 -->
<!-- Title: twoDegreesRelationshipsDiagram Pages: 1 -->
<svg width="954pt" height="644pt"
 viewBox="0.00 0.00 954.00 644.00" xmlns="http://www.w3.org/2000/svg" xmlns:xlink="http://www.w3.org/1999/xlink">
<g id="graph0" class="graph" transform="scale(1 1) rotate(0) translate(4 640)">
<title>twoDegreesRelationshipsDiagram</title>
<polygon fill="#ffffff" stroke="transparent" points="-4,4 -4,-640 950,-640 950,4 -4,4"/>
<text text-anchor="middle" x="71.5" y="-7.2" font-family="Helvetica,sans-Serif" font-size="11.00" fill="#000000">Generated by SchemaSpy</text>
<!-- artefact_shape -->
<g id="node1" class="node">
<title>artefact_shape</title>
<g id="a_node1"><a xlink:href="../../tables/artefact_shape.html" xlink:title="artefact_shape" target="_top">
<polygon fill="#ffffff" stroke="transparent" points="492,-37 492,-205 690,-205 690,-37 492,-37"/>
<polygon fill="#f5f5f5" stroke="transparent" points="492,-183 492,-205 690,-205 690,-183 492,-183"/>
<polygon fill="none" stroke="#000000" points="492,-183 492,-205 690,-205 690,-183 492,-183"/>
<text text-anchor="start" x="497" y="-192.2" font-family="Helvetica,sans-Serif" font-weight="bold" font-size="11.00" fill="#000000">artefact_shape</text>
<text text-anchor="start" x="655" y="-191.2" font-family="Helvetica,sans-Serif" font-size="11.00" fill="#000000">[table]</text>
<polygon fill="none" stroke="#000000" points="492,-161 492,-183 690,-183 690,-161 492,-161"/>
<image xlink:href="../../images/primaryKeys.png" width="11px" height="12px" preserveAspectRatio="xMinYMin meet" x="497" y="-178"/>
<text text-anchor="start" x="512" y="-169.2" font-family="Helvetica,sans-Serif" font-size="11.00" fill="#000000">artefact_shape_id</text>
<polygon fill="#ffffff" stroke="transparent" points="492,-139 492,-161 690,-161 690,-139 492,-139"/>
<polygon fill="none" stroke="#000000" points="492,-139 492,-161 690,-161 690,-139 492,-139"/>
<image xlink:href="../../images/foreignKeys.png" width="11px" height="12px" preserveAspectRatio="xMinYMin meet" x="497" y="-156"/>
<text text-anchor="start" x="512" y="-147.2" font-family="Helvetica,sans-Serif" font-size="11.00" fill="#000000">artefact_id</text>
<polygon fill="#ffffff" stroke="transparent" points="492,-117 492,-139 690,-139 690,-117 492,-117"/>
<polygon fill="none" stroke="#000000" points="492,-117 492,-139 690,-139 690,-117 492,-117"/>
<image xlink:href="../../images/foreignKeys.png" width="11px" height="12px" preserveAspectRatio="xMinYMin meet" x="497" y="-134"/>
<text text-anchor="start" x="512" y="-125.2" font-family="Helvetica,sans-Serif" font-size="11.00" fill="#000000">sqe_image_id</text>
<polygon fill="#ffffff" stroke="transparent" points="492,-95 492,-117 690,-117 690,-95 492,-95"/>
<polygon fill="none" stroke="#000000" points="492,-95 492,-117 690,-117 690,-95 492,-95"/>
<text text-anchor="start" x="512" y="-103.2" font-family="Helvetica,sans-Serif" font-size="11.00" fill="#000000">region_in_sqe_image_hash</text>
<polygon fill="#ffffff" stroke="transparent" points="492,-73 492,-95 690,-95 690,-73 492,-73"/>
<polygon fill="none" stroke="#000000" points="492,-73 492,-95 690,-95 690,-73 492,-73"/>
<image xlink:href="../../images/foreignKeys.png" width="11px" height="12px" preserveAspectRatio="xMinYMin meet" x="497" y="-90"/>
<text text-anchor="start" x="512" y="-81.2" font-family="Helvetica,sans-Serif" font-size="11.00" fill="#000000">creator_id</text>
<polygon fill="none" stroke="#000000" points="492,-55 492,-73 690,-73 690,-55 492,-55"/>
<text text-anchor="start" x="495" y="-61.2" font-family="Helvetica,sans-Serif" font-size="11.00" fill="#000000">...</text>
<polygon fill="#ffffff" stroke="transparent" points="492,-37 492,-55 558,-55 558,-37 492,-37"/>
<polygon fill="none" stroke="#000000" points="492,-37 492,-55 558,-55 558,-37 492,-37"/>
<text text-anchor="start" x="495" y="-43.2" font-family="Helvetica,sans-Serif" font-size="11.00" fill="#000000">&lt; 3</text>
<polygon fill="#ffffff" stroke="transparent" points="558,-37 558,-55 646,-55 646,-37 558,-37"/>
<polygon fill="none" stroke="#000000" points="558,-37 558,-55 646,-55 646,-37 558,-37"/>
<text text-anchor="start" x="583" y="-43.2" font-family="Helvetica,sans-Serif" font-size="11.00" fill="#000000">23,787 rows</text>
<polygon fill="#ffffff" stroke="transparent" points="646,-37 646,-55 690,-55 690,-37 646,-37"/>
<polygon fill="none" stroke="#000000" points="646,-37 646,-55 690,-55 690,-37 646,-37"/>
<text text-anchor="start" x="671" y="-43.2" font-family="Helvetica,sans-Serif" font-size="11.00" fill="#000000">1 &gt;</text>
</a>
</g>
</g>
<!-- artefact -->
<g id="node2" class="node">
<title>artefact</title>
<g id="a_node2"><a xlink:href="../../tables/artefact.html" xlink:title="artefact" target="_top">
<polygon fill="#ffffff" stroke="transparent" points="271,-40 271,-98 372,-98 372,-40 271,-40"/>
<polygon fill="#f5f5f5" stroke="transparent" points="271.5,-76 271.5,-98 372.5,-98 372.5,-76 271.5,-76"/>
<polygon fill="none" stroke="#000000" points="271.5,-76 271.5,-98 372.5,-98 372.5,-76 271.5,-76"/>
<text text-anchor="start" x="276.5" y="-85.2" font-family="Helvetica,sans-Serif" font-weight="bold" font-size="11.00" fill="#000000">artefact</text>
<text text-anchor="start" x="337.5" y="-84.2" font-family="Helvetica,sans-Serif" font-size="11.00" fill="#000000">[table]</text>
<polygon fill="none" stroke="#000000" points="271.5,-58 271.5,-76 372.5,-76 372.5,-58 271.5,-58"/>
<text text-anchor="start" x="274.5" y="-64.2" font-family="Helvetica,sans-Serif" font-size="11.00" fill="#000000">...</text>
<polygon fill="#ffffff" stroke="transparent" points="271.5,-40 271.5,-58 284.5,-58 284.5,-40 271.5,-40"/>
<polygon fill="none" stroke="#000000" points="271.5,-40 271.5,-58 284.5,-58 284.5,-40 271.5,-40"/>
<text text-anchor="start" x="274.5" y="-46.2" font-family="Helvetica,sans-Serif" font-size="11.00" fill="#000000"> &#160;</text>
<polygon fill="#ffffff" stroke="transparent" points="284.5,-40 284.5,-58 350.5,-58 350.5,-40 284.5,-40"/>
<polygon fill="none" stroke="#000000" points="284.5,-40 284.5,-58 350.5,-58 350.5,-40 284.5,-40"/>
<text text-anchor="start" x="287.5" y="-46.2" font-family="Helvetica,sans-Serif" font-size="11.00" fill="#000000">26,982 rows</text>
<polygon fill="#ffffff" stroke="transparent" points="350.5,-40 350.5,-58 372.5,-58 372.5,-40 350.5,-40"/>
<polygon fill="none" stroke="#000000" points="350.5,-40 350.5,-58 372.5,-58 372.5,-40 350.5,-40"/>
<text text-anchor="start" x="353.5" y="-46.2" font-family="Helvetica,sans-Serif" font-size="11.00" fill="#000000">8 &gt;</text>
</a>
</g>
</g>
<!-- artefact_shape&#45;&gt;artefact -->
<g id="edge1" class="edge">
<title>artefact_shape:w&#45;&gt;artefact:e</title>
<path fill="none" stroke="#000000" d="M477.8572,-145.8784C467.2485,-137.8334 466.8635,-119.7959 451,-108 419.4143,-84.5133 411.8609,-67 372.5,-67"/>
<polygon fill="#000000" stroke="#000000" points="484.3195,-147.7617 490.9927,-153.4562 488.1598,-148.8808 492,-150 492,-150 492,-150 488.1598,-148.8808 493.0073,-146.5438 484.3195,-147.7617 484.3195,-147.7617"/>
<ellipse fill="none" stroke="#000000" cx="481.2473" cy="-146.8663" rx="3.2" ry="3.2"/>
</g>
<!-- user -->
<g id="node3" class="node">
<title>user</title>
<g id="a_node3"><a xlink:href="../../tables/user.html" xlink:title="user" target="_top">
<polygon fill="#ffffff" stroke="transparent" points="281.5,-119 281.5,-177 361.5,-177 361.5,-119 281.5,-119"/>
<polygon fill="#f5f5f5" stroke="transparent" points="281.5,-155 281.5,-177 361.5,-177 361.5,-155 281.5,-155"/>
<polygon fill="none" stroke="#000000" points="281.5,-155 281.5,-177 361.5,-177 361.5,-155 281.5,-155"/>
<text text-anchor="start" x="286.5" y="-164.2" font-family="Helvetica,sans-Serif" font-weight="bold" font-size="11.00" fill="#000000">user</text>
<text text-anchor="start" x="326.5" y="-163.2" font-family="Helvetica,sans-Serif" font-size="11.00" fill="#000000">[table]</text>
<polygon fill="none" stroke="#000000" points="281.5,-137 281.5,-155 361.5,-155 361.5,-137 281.5,-137"/>
<text text-anchor="start" x="284.5" y="-143.2" font-family="Helvetica,sans-Serif" font-size="11.00" fill="#000000">...</text>
<polygon fill="#ffffff" stroke="transparent" points="281.5,-119 281.5,-137 294.5,-137 294.5,-119 281.5,-119"/>
<polygon fill="none" stroke="#000000" points="281.5,-119 281.5,-137 294.5,-137 294.5,-119 281.5,-119"/>
<text text-anchor="start" x="284.5" y="-125.2" font-family="Helvetica,sans-Serif" font-size="11.00" fill="#000000"> &#160;</text>
<polygon fill="#ffffff" stroke="transparent" points="294.5,-119 294.5,-137 333.5,-137 333.5,-119 294.5,-119"/>
<polygon fill="none" stroke="#000000" points="294.5,-119 294.5,-137 333.5,-137 333.5,-119 294.5,-119"/>
<text text-anchor="start" x="297.5" y="-125.2" font-family="Helvetica,sans-Serif" font-size="11.00" fill="#000000">3 rows</text>
<polygon fill="#ffffff" stroke="transparent" points="333.5,-119 333.5,-137 361.5,-137 361.5,-119 333.5,-119"/>
<polygon fill="none" stroke="#000000" points="333.5,-119 333.5,-137 361.5,-137 361.5,-119 333.5,-119"/>
<text text-anchor="start" x="336.5" y="-125.2" font-family="Helvetica,sans-Serif" font-size="11.00" fill="#000000">40 &gt;</text>
</a>
</g>
</g>
<!-- artefact_shape&#45;&gt;user -->
<g id="edge2" class="edge">
<title>artefact_shape:w&#45;&gt;user:e</title>
<path fill="none" stroke="#000000" d="M477.8108,-87.1675C468.8054,-91.9738 464.4136,-101.2612 451,-108 412.3845,-127.3998 404.7147,-146 361.5,-146"/>
<polygon fill="#000000" stroke="#000000" points="484.1922,-85.743 492.7844,-87.5135 488.0961,-84.8715 492,-84 492,-84 492,-84 488.0961,-84.8715 491.2156,-80.4865 484.1922,-85.743 484.1922,-85.743"/>
<ellipse fill="none" stroke="#000000" cx="481.0691" cy="-86.4402" rx="3.2" ry="3.2"/>
</g>
<!-- SQE_image -->
<g id="node4" class="node">
<title>SQE_image</title>
<g id="a_node4"><a xlink:href="../../tables/SQE_image.html" xlink:title="SQE_image" target="_top">
<polygon fill="#ffffff" stroke="transparent" points="200,-304 200,-612 443,-612 443,-304 200,-304"/>
<polygon fill="#f5f5f5" stroke="transparent" points="202.5,-588 202.5,-610 441.5,-610 441.5,-588 202.5,-588"/>
<polygon fill="none" stroke="#000000" points="202.5,-588 202.5,-610 441.5,-610 441.5,-588 202.5,-588"/>
<text text-anchor="start" x="207.5" y="-597.2" font-family="Helvetica,sans-Serif" font-weight="bold" font-size="11.00" fill="#000000">SQE_image</text>
<text text-anchor="start" x="406.5" y="-596.2" font-family="Helvetica,sans-Serif" font-size="11.00" fill="#000000">[table]</text>
<polygon fill="none" stroke="#000000" points="202.5,-566 202.5,-588 340.5,-588 340.5,-566 202.5,-566"/>
<image xlink:href="../../images/primaryKeys.png" width="11px" height="12px" preserveAspectRatio="xMinYMin meet" x="207.5" y="-583"/>
<text text-anchor="start" x="222.5" y="-574.2" font-family="Helvetica,sans-Serif" font-size="11.00" fill="#000000">sqe_image_id</text>
<polygon fill="none" stroke="#000000" points="340.5,-566 340.5,-588 441.5,-588 441.5,-566 340.5,-566"/>
<text text-anchor="start" x="343.5" y="-574.2" font-family="Helvetica,sans-Serif" font-size="11.00" fill="#000000">int unsigned[10]</text>
<polygon fill="#ffffff" stroke="transparent" points="202.5,-544 202.5,-566 340.5,-566 340.5,-544 202.5,-544"/>
<polygon fill="none" stroke="#000000" points="202.5,-544 202.5,-566 340.5,-566 340.5,-544 202.5,-544"/>
<image xlink:href="../../images/foreignKeys.png" width="11px" height="12px" preserveAspectRatio="xMinYMin meet" x="207.5" y="-561"/>
<text text-anchor="start" x="222.5" y="-552.2" font-family="Helvetica,sans-Serif" font-size="11.00" fill="#000000">image_urls_id</text>
<polygon fill="none" stroke="#000000" points="340.5,-544 340.5,-566 441.5,-566 441.5,-544 340.5,-544"/>
<text text-anchor="start" x="343.5" y="-552.2" font-family="Helvetica,sans-Serif" font-size="11.00" fill="#000000">int unsigned[10]</text>
<polygon fill="#ffffff" stroke="transparent" points="202.5,-522 202.5,-544 340.5,-544 340.5,-522 202.5,-522"/>
<polygon fill="none" stroke="#000000" points="202.5,-522 202.5,-544 340.5,-544 340.5,-522 202.5,-522"/>
<text text-anchor="start" x="222.5" y="-530.2" font-family="Helvetica,sans-Serif" font-size="11.00" fill="#000000">filename</text>
<polygon fill="none" stroke="#000000" points="340.5,-522 340.5,-544 441.5,-544 441.5,-522 340.5,-522"/>
<text text-anchor="start" x="343.5" y="-530.2" font-family="Helvetica,sans-Serif" font-size="11.00" fill="#000000">varchar[255]</text>
<polygon fill="none" stroke="#000000" points="202.5,-500 202.5,-522 340.5,-522 340.5,-500 202.5,-500"/>
<text text-anchor="start" x="222.5" y="-508.2" font-family="Helvetica,sans-Serif" font-size="11.00" fill="#000000">native_width</text>
<polygon fill="none" stroke="#000000" points="340.5,-500 340.5,-522 441.5,-522 441.5,-500 340.5,-500"/>
<text text-anchor="start" x="343.5" y="-508.2" font-family="Helvetica,sans-Serif" font-size="11.00" fill="#000000">int unsigned[10]</text>
<polygon fill="none" stroke="#000000" points="202.5,-478 202.5,-500 340.5,-500 340.5,-478 202.5,-478"/>
<text text-anchor="start" x="222.5" y="-486.2" font-family="Helvetica,sans-Serif" font-size="11.00" fill="#000000">native_height</text>
<polygon fill="none" stroke="#000000" points="340.5,-478 340.5,-500 441.5,-500 441.5,-478 340.5,-478"/>
<text text-anchor="start" x="343.5" y="-486.2" font-family="Helvetica,sans-Serif" font-size="11.00" fill="#000000">int unsigned[10]</text>
<polygon fill="none" stroke="#000000" points="202.5,-456 202.5,-478 340.5,-478 340.5,-456 202.5,-456"/>
<text text-anchor="start" x="222.5" y="-464.2" font-family="Helvetica,sans-Serif" font-size="11.00" fill="#000000">dpi</text>
<polygon fill="none" stroke="#000000" points="340.5,-456 340.5,-478 441.5,-478 441.5,-456 340.5,-456"/>
<text text-anchor="start" x="343.5" y="-464.2" font-family="Helvetica,sans-Serif" font-size="11.00" fill="#000000">int unsigned[10]</text>
<polygon fill="none" stroke="#000000" points="202.5,-434 202.5,-456 340.5,-456 340.5,-434 202.5,-434"/>
<text text-anchor="start" x="222.5" y="-442.2" font-family="Helvetica,sans-Serif" font-size="11.00" fill="#000000">type</text>
<polygon fill="none" stroke="#000000" points="340.5,-434 340.5,-456 441.5,-456 441.5,-434 340.5,-434"/>
<text text-anchor="start" x="343.5" y="-442.2" font-family="Helvetica,sans-Serif" font-size="11.00" fill="#000000">bit[3]</text>
<polygon fill="none" stroke="#000000" points="202.5,-412 202.5,-434 340.5,-434 340.5,-412 202.5,-412"/>
<text text-anchor="start" x="222.5" y="-420.2" font-family="Helvetica,sans-Serif" font-size="11.00" fill="#000000">wavelength_start</text>
<polygon fill="none" stroke="#000000" points="340.5,-412 340.5,-434 441.5,-434 441.5,-412 340.5,-412"/>
<text text-anchor="start" x="343.5" y="-420.2" font-family="Helvetica,sans-Serif" font-size="11.00" fill="#000000">smallint unsigned[5]</text>
<polygon fill="none" stroke="#000000" points="202.5,-390 202.5,-412 340.5,-412 340.5,-390 202.5,-390"/>
<text text-anchor="start" x="222.5" y="-398.2" font-family="Helvetica,sans-Serif" font-size="11.00" fill="#000000">wavelength_end</text>
<polygon fill="none" stroke="#000000" points="340.5,-390 340.5,-412 441.5,-412 441.5,-390 340.5,-390"/>
<text text-anchor="start" x="343.5" y="-398.2" font-family="Helvetica,sans-Serif" font-size="11.00" fill="#000000">smallint unsigned[5]</text>
<polygon fill="none" stroke="#000000" points="202.5,-368 202.5,-390 340.5,-390 340.5,-368 202.5,-368"/>
<text text-anchor="start" x="222.5" y="-376.2" font-family="Helvetica,sans-Serif" font-size="11.00" fill="#000000">is_master</text>
<polygon fill="none" stroke="#000000" points="340.5,-368 340.5,-390 441.5,-390 441.5,-368 340.5,-368"/>
<text text-anchor="start" x="343.5" y="-376.2" font-family="Helvetica,sans-Serif" font-size="11.00" fill="#000000">bit[3]</text>
<polygon fill="#ffffff" stroke="transparent" points="202.5,-346 202.5,-368 340.5,-368 340.5,-346 202.5,-346"/>
<polygon fill="none" stroke="#000000" points="202.5,-346 202.5,-368 340.5,-368 340.5,-346 202.5,-346"/>
<image xlink:href="../../images/foreignKeys.png" width="11px" height="12px" preserveAspectRatio="xMinYMin meet" x="207.5" y="-363"/>
<text text-anchor="start" x="222.5" y="-354.2" font-family="Helvetica,sans-Serif" font-size="11.00" fill="#000000">image_catalog_id</text>
<polygon fill="none" stroke="#000000" points="340.5,-346 340.5,-368 441.5,-368 441.5,-346 340.5,-346"/>
<text text-anchor="start" x="343.5" y="-354.2" font-family="Helvetica,sans-Serif" font-size="11.00" fill="#000000">int unsigned[10]</text>
<polygon fill="none" stroke="#000000" points="202.5,-324 202.5,-346 340.5,-346 340.5,-324 202.5,-324"/>
<text text-anchor="start" x="222.5" y="-332.2" font-family="Helvetica,sans-Serif" font-size="11.00" fill="#000000">is_recto</text>
<polygon fill="none" stroke="#000000" points="340.5,-324 340.5,-346 441.5,-346 441.5,-324 340.5,-324"/>
<text text-anchor="start" x="343.5" y="-332.2" font-family="Helvetica,sans-Serif" font-size="11.00" fill="#000000">bit[3]</text>
<polygon fill="#ffffff" stroke="transparent" points="202.5,-306 202.5,-324 249.5,-324 249.5,-306 202.5,-306"/>
<polygon fill="none" stroke="#000000" points="202.5,-306 202.5,-324 249.5,-324 249.5,-306 202.5,-306"/>
<text text-anchor="start" x="205.5" y="-312.2" font-family="Helvetica,sans-Serif" font-size="11.00" fill="#000000">&lt; 2</text>
<polygon fill="#ffffff" stroke="transparent" points="249.5,-306 249.5,-324 340.5,-324 340.5,-306 249.5,-306"/>
<polygon fill="none" stroke="#000000" points="249.5,-306 249.5,-324 340.5,-324 340.5,-306 249.5,-306"/>
<text text-anchor="start" x="277.5" y="-312.2" font-family="Helvetica,sans-Serif" font-size="11.00" fill="#000000">97,684 rows</text>
<polygon fill="#ffffff" stroke="transparent" points="340.5,-306 340.5,-324 441.5,-324 441.5,-306 340.5,-306"/>
<polygon fill="none" stroke="#000000" points="340.5,-306 340.5,-324 441.5,-324 441.5,-306 340.5,-306"/>
<text text-anchor="start" x="422.5" y="-312.2" font-family="Helvetica,sans-Serif" font-size="11.00" fill="#000000">4 &gt;</text>
<polygon fill="none" stroke="#000000" stroke-width="2" points="201,-305 201,-611 442,-611 442,-305 201,-305"/>
</a>
</g>
</g>
<!-- artefact_shape&#45;&gt;SQE_image -->
<g id="edge3" class="edge">
<title>artefact_shape:w&#45;&gt;SQE_image:e</title>
<path fill="none" stroke="#000000" d="M477.6945,-131.8816C407.2838,-175.7665 536.4159,-577 441.5,-577"/>
<polygon fill="#000000" stroke="#000000" points="484.2792,-130.095 492.9427,-131.4744 488.1396,-129.0475 492,-128 492,-128 492,-128 488.1396,-129.0475 491.0573,-124.5256 484.2792,-130.095 484.2792,-130.095"/>
<ellipse fill="none" stroke="#000000" cx="481.1908" cy="-130.933" rx="3.2" ry="3.2"/>
</g>
<!-- image_catalog -->
<g id="node7" class="node">
<title>image_catalog</title>
<g id="a_node7"><a xlink:href="../../tables/image_catalog.html" xlink:title="image_catalog" target="_top">
<polygon fill="#ffffff" stroke="transparent" points="8,-145 8,-313 151,-313 151,-145 8,-145"/>
<polygon fill="#f5f5f5" stroke="transparent" points="8.5,-291 8.5,-313 151.5,-313 151.5,-291 8.5,-291"/>
<polygon fill="none" stroke="#000000" points="8.5,-291 8.5,-313 151.5,-313 151.5,-291 8.5,-291"/>
<text text-anchor="start" x="13.5" y="-300.2" font-family="Helvetica,sans-Serif" font-weight="bold" font-size="11.00" fill="#000000">image_catalog</text>
<text text-anchor="start" x="116.5" y="-299.2" font-family="Helvetica,sans-Serif" font-size="11.00" fill="#000000">[table]</text>
<polygon fill="none" stroke="#000000" points="8.5,-269 8.5,-291 151.5,-291 151.5,-269 8.5,-269"/>
<image xlink:href="../../images/primaryKeys.png" width="11px" height="12px" preserveAspectRatio="xMinYMin meet" x="13.5" y="-286"/>
<text text-anchor="start" x="28.5" y="-277.2" font-family="Helvetica,sans-Serif" font-size="11.00" fill="#000000">image_catalog_id</text>
<polygon fill="#ffffff" stroke="transparent" points="8.5,-247 8.5,-269 151.5,-269 151.5,-247 8.5,-247"/>
<polygon fill="none" stroke="#000000" points="8.5,-247 8.5,-269 151.5,-269 151.5,-247 8.5,-247"/>
<text text-anchor="start" x="28.5" y="-255.2" font-family="Helvetica,sans-Serif" font-size="11.00" fill="#000000">institution</text>
<polygon fill="#ffffff" stroke="transparent" points="8.5,-225 8.5,-247 151.5,-247 151.5,-225 8.5,-225"/>
<polygon fill="none" stroke="#000000" points="8.5,-225 8.5,-247 151.5,-247 151.5,-225 8.5,-225"/>
<text text-anchor="start" x="28.5" y="-233.2" font-family="Helvetica,sans-Serif" font-size="11.00" fill="#000000">catalog_number_1</text>
<polygon fill="#ffffff" stroke="transparent" points="8.5,-203 8.5,-225 151.5,-225 151.5,-203 8.5,-203"/>
<polygon fill="none" stroke="#000000" points="8.5,-203 8.5,-225 151.5,-225 151.5,-203 8.5,-203"/>
<text text-anchor="start" x="28.5" y="-211.2" font-family="Helvetica,sans-Serif" font-size="11.00" fill="#000000">catalog_number_2</text>
<polygon fill="#ffffff" stroke="transparent" points="8.5,-181 8.5,-203 151.5,-203 151.5,-181 8.5,-181"/>
<polygon fill="none" stroke="#000000" points="8.5,-181 8.5,-203 151.5,-203 151.5,-181 8.5,-181"/>
<text text-anchor="start" x="28.5" y="-189.2" font-family="Helvetica,sans-Serif" font-size="11.00" fill="#000000">catalog_side</text>
<polygon fill="none" stroke="#000000" points="8.5,-163 8.5,-181 151.5,-181 151.5,-163 8.5,-163"/>
<text text-anchor="start" x="11.5" y="-169.2" font-family="Helvetica,sans-Serif" font-size="11.00" fill="#000000">...</text>
<polygon fill="#ffffff" stroke="transparent" points="8.5,-145 8.5,-163 42.5,-163 42.5,-145 8.5,-145"/>
<polygon fill="none" stroke="#000000" points="8.5,-145 8.5,-163 42.5,-163 42.5,-145 8.5,-145"/>
<text text-anchor="start" x="11.5" y="-151.2" font-family="Helvetica,sans-Serif" font-size="11.00" fill="#000000"> &#160;</text>
<polygon fill="#ffffff" stroke="transparent" points="42.5,-145 42.5,-163 118.5,-163 118.5,-145 42.5,-145"/>
<polygon fill="none" stroke="#000000" points="42.5,-145 42.5,-163 118.5,-163 118.5,-145 42.5,-145"/>
<text text-anchor="start" x="55.5" y="-151.2" font-family="Helvetica,sans-Serif" font-size="11.00" fill="#000000">41,712 rows</text>
<polygon fill="#ffffff" stroke="transparent" points="118.5,-145 118.5,-163 151.5,-163 151.5,-145 118.5,-145"/>
<polygon fill="none" stroke="#000000" points="118.5,-145 118.5,-163 151.5,-163 151.5,-145 118.5,-145"/>
<text text-anchor="start" x="132.5" y="-151.2" font-family="Helvetica,sans-Serif" font-size="11.00" fill="#000000">3 &gt;</text>
</a>
</g>
</g>
<!-- SQE_image&#45;&gt;image_catalog -->
<g id="edge13" class="edge">
<title>SQE_image:w&#45;&gt;image_catalog:e</title>
<path fill="none" stroke="#000000" d="M188.5177,-352.4139C169.094,-335.8372 186.4549,-280 151.5,-280"/>
<polygon fill="#000000" stroke="#000000" points="194.8984,-354.5067 201.378,-360.4207 198.6992,-355.7534 202.5,-357 202.5,-357 202.5,-357 198.6992,-355.7534 203.622,-353.5793 194.8984,-354.5067 194.8984,-354.5067"/>
<ellipse fill="none" stroke="#000000" cx="191.8578" cy="-353.5094" rx="3.2" ry="3.2"/>
</g>
<!-- image_urls -->
<g id="node12" class="node">
<title>image_urls</title>
<g id="a_node12"><a xlink:href="../../tables/image_urls.html" xlink:title="image_urls" target="_top">
<polygon fill="#ffffff" stroke="transparent" points="23.5,-486 23.5,-588 135.5,-588 135.5,-486 23.5,-486"/>
<polygon fill="#f5f5f5" stroke="transparent" points="23.5,-566 23.5,-588 135.5,-588 135.5,-566 23.5,-566"/>
<polygon fill="none" stroke="#000000" points="23.5,-566 23.5,-588 135.5,-588 135.5,-566 23.5,-566"/>
<text text-anchor="start" x="28.5" y="-575.2" font-family="Helvetica,sans-Serif" font-weight="bold" font-size="11.00" fill="#000000">image_urls</text>
<text text-anchor="start" x="100.5" y="-574.2" font-family="Helvetica,sans-Serif" font-size="11.00" fill="#000000">[table]</text>
<polygon fill="none" stroke="#000000" points="23.5,-544 23.5,-566 135.5,-566 135.5,-544 23.5,-544"/>
<image xlink:href="../../images/primaryKeys.png" width="11px" height="12px" preserveAspectRatio="xMinYMin meet" x="28.5" y="-561"/>
<text text-anchor="start" x="43.5" y="-552.2" font-family="Helvetica,sans-Serif" font-size="11.00" fill="#000000">image_urls_id</text>
<polygon fill="none" stroke="#000000" points="23.5,-522 23.5,-544 135.5,-544 135.5,-522 23.5,-522"/>
<image xlink:href="../../images/primaryKeys.png" width="11px" height="12px" preserveAspectRatio="xMinYMin meet" x="28.5" y="-539"/>
<text text-anchor="start" x="43.5" y="-530.2" font-family="Helvetica,sans-Serif" font-size="11.00" fill="#000000">url</text>
<polygon fill="none" stroke="#000000" points="23.5,-504 23.5,-522 135.5,-522 135.5,-504 23.5,-504"/>
<text text-anchor="start" x="26.5" y="-510.2" font-family="Helvetica,sans-Serif" font-size="11.00" fill="#000000">...</text>
<polygon fill="#ffffff" stroke="transparent" points="23.5,-486 23.5,-504 55.5,-504 55.5,-486 23.5,-486"/>
<polygon fill="none" stroke="#000000" points="23.5,-486 23.5,-504 55.5,-504 55.5,-486 23.5,-486"/>
<text text-anchor="start" x="26.5" y="-492.2" font-family="Helvetica,sans-Serif" font-size="11.00" fill="#000000"> &#160;</text>
<polygon fill="#ffffff" stroke="transparent" points="55.5,-486 55.5,-504 103.5,-504 103.5,-486 55.5,-486"/>
<polygon fill="none" stroke="#000000" points="55.5,-486 55.5,-504 103.5,-504 103.5,-486 55.5,-486"/>
<text text-anchor="start" x="67.5" y="-492.2" font-family="Helvetica,sans-Serif" font-size="11.00" fill="#000000">3 rows</text>
<polygon fill="#ffffff" stroke="transparent" points="103.5,-486 103.5,-504 135.5,-504 135.5,-486 103.5,-486"/>
<polygon fill="none" stroke="#000000" points="103.5,-486 103.5,-504 135.5,-504 135.5,-486 103.5,-486"/>
<text text-anchor="start" x="116.5" y="-492.2" font-family="Helvetica,sans-Serif" font-size="11.00" fill="#000000">1 &gt;</text>
</a>
</g>
</g>
<!-- SQE_image&#45;&gt;image_urls -->
<g id="edge14" class="edge">
<title>SQE_image:w&#45;&gt;image_urls:e</title>
<path fill="none" stroke="#000000" d="M188.0809,-555C169.2359,-555 159.8108,-555 135.5,-555"/>
<polygon fill="#000000" stroke="#000000" points="194.5,-555.0001 202.5,-558.6 198.5,-555 202.5,-555 202.5,-555 202.5,-555 198.5,-555 202.5,-551.4 194.5,-555.0001 194.5,-555.0001"/>
<ellipse fill="none" stroke="#000000" cx="191.3" cy="-555.0001" rx="3.2" ry="3.2"/>
</g>
<!-- artefact_shape_owner -->
<g id="node5" class="node">
<title>artefact_shape_owner</title>
<g id="a_node5"><a xlink:href="../../tables/artefact_shape_owner.html" xlink:title="artefact_shape_owner" target="_top">
<polygon fill="#ffffff" stroke="transparent" points="758.5,-145 758.5,-203 918.5,-203 918.5,-145 758.5,-145"/>
<polygon fill="#f5f5f5" stroke="transparent" points="758.5,-181 758.5,-203 918.5,-203 918.5,-181 758.5,-181"/>
<polygon fill="none" stroke="#000000" points="758.5,-181 758.5,-203 918.5,-203 918.5,-181 758.5,-181"/>
<text text-anchor="start" x="763.5" y="-190.2" font-family="Helvetica,sans-Serif" font-weight="bold" font-size="11.00" fill="#000000">artefact_shape_owner</text>
<text text-anchor="start" x="883.5" y="-189.2" font-family="Helvetica,sans-Serif" font-size="11.00" fill="#000000">[table]</text>
<polygon fill="none" stroke="#000000" points="758.5,-163 758.5,-181 918.5,-181 918.5,-163 758.5,-163"/>
<text text-anchor="start" x="761.5" y="-169.2" font-family="Helvetica,sans-Serif" font-size="11.00" fill="#000000">...</text>
<polygon fill="#ffffff" stroke="transparent" points="758.5,-145 758.5,-163 809.5,-163 809.5,-145 758.5,-145"/>
<polygon fill="none" stroke="#000000" points="758.5,-145 758.5,-163 809.5,-163 809.5,-145 758.5,-145"/>
<text text-anchor="start" x="761.5" y="-151.2" font-family="Helvetica,sans-Serif" font-size="11.00" fill="#000000">&lt; 3</text>
<polygon fill="#ffffff" stroke="transparent" points="809.5,-145 809.5,-163 890.5,-163 890.5,-145 809.5,-145"/>
<polygon fill="none" stroke="#000000" points="809.5,-145 809.5,-163 890.5,-163 890.5,-145 809.5,-145"/>
<text text-anchor="start" x="827.5" y="-151.2" font-family="Helvetica,sans-Serif" font-size="11.00" fill="#000000">27,067 rows</text>
<polygon fill="#ffffff" stroke="transparent" points="890.5,-145 890.5,-163 918.5,-163 918.5,-145 890.5,-145"/>
<polygon fill="none" stroke="#000000" points="890.5,-145 890.5,-163 918.5,-163 918.5,-145 890.5,-145"/>
<text text-anchor="start" x="908.5" y="-151.2" font-family="Helvetica,sans-Serif" font-size="11.00" fill="#000000"> &#160;</text>
</a>
</g>
</g>
<!-- artefact_shape_owner&#45;&gt;artefact_shape -->
<g id="edge4" class="edge">
<title>artefact_shape_owner:w&#45;&gt;artefact_shape:e</title>
<path fill="none" stroke="#000000" d="M744.0353,-172C724.5831,-172 714.974,-172 690,-172"/>
<polygon fill="#000000" stroke="#000000" points="750.5,-172.0001 758.5,-175.6 754.5,-172 758.5,-172 758.5,-172 758.5,-172 754.5,-172 758.5,-168.4 750.5,-172.0001 750.5,-172.0001"/>
<ellipse fill="none" stroke="#000000" cx="747.3" cy="-172.0001" rx="3.2" ry="3.2"/>
</g>
<!-- image_catalog_author -->
<g id="node6" class="node">
<title>image_catalog_author</title>
<g id="a_node6"><a xlink:href="../../tables/image_catalog_author.html" xlink:title="image_catalog_author" target="_top">
<polygon fill="#ffffff" stroke="transparent" points="510.5,-253 510.5,-311 671.5,-311 671.5,-253 510.5,-253"/>
<polygon fill="#f5f5f5" stroke="transparent" points="511,-289 511,-311 672,-311 672,-289 511,-289"/>
<polygon fill="none" stroke="#000000" points="511,-289 511,-311 672,-311 672,-289 511,-289"/>
<text text-anchor="start" x="516" y="-298.2" font-family="Helvetica,sans-Serif" font-weight="bold" font-size="11.00" fill="#000000">image_catalog_author</text>
<text text-anchor="start" x="637" y="-297.2" font-family="Helvetica,sans-Serif" font-size="11.00" fill="#000000">[table]</text>
<polygon fill="none" stroke="#000000" points="511,-271 511,-289 672,-289 672,-271 511,-271"/>
<text text-anchor="start" x="514" y="-277.2" font-family="Helvetica,sans-Serif" font-size="11.00" fill="#000000">...</text>
<polygon fill="#ffffff" stroke="transparent" points="511,-253 511,-271 563,-271 563,-253 511,-253"/>
<polygon fill="none" stroke="#000000" points="511,-253 511,-271 563,-271 563,-253 511,-253"/>
<text text-anchor="start" x="514" y="-259.2" font-family="Helvetica,sans-Serif" font-size="11.00" fill="#000000">&lt; 2</text>
<polygon fill="#ffffff" stroke="transparent" points="563,-253 563,-271 644,-271 644,-253 563,-253"/>
<polygon fill="none" stroke="#000000" points="563,-253 563,-271 644,-271 644,-253 563,-253"/>
<text text-anchor="start" x="581" y="-259.2" font-family="Helvetica,sans-Serif" font-size="11.00" fill="#000000">40,781 rows</text>
<polygon fill="#ffffff" stroke="transparent" points="644,-253 644,-271 672,-271 672,-253 644,-253"/>
<polygon fill="none" stroke="#000000" points="644,-253 644,-271 672,-271 672,-253 644,-253"/>
<text text-anchor="start" x="662" y="-259.2" font-family="Helvetica,sans-Serif" font-size="11.00" fill="#000000"> &#160;</text>
</a>
</g>
</g>
<!-- image_catalog_author&#45;&gt;user -->
<g id="edge6" class="edge">
<title>image_catalog_author:w&#45;&gt;user:e</title>
<path fill="none" stroke="#000000" d="M496.6835,-277.6734C467.3256,-266.343 483.4667,-216.3396 451,-188 417.8971,-159.1051 405.4399,-146 361.5,-146"/>
<polygon fill="#000000" stroke="#000000" points="503.1036,-278.7167 510.4225,-283.5534 507.0518,-279.3583 511,-280 511,-280 511,-280 507.0518,-279.3583 511.5775,-276.4466 503.1036,-278.7167 503.1036,-278.7167"/>
<ellipse fill="none" stroke="#000000" cx="499.945" cy="-278.2034" rx="3.2" ry="3.2"/>
</g>
<!-- image_catalog_author&#45;&gt;image_catalog -->
<g id="edge5" class="edge">
<title>image_catalog_author:w&#45;&gt;image_catalog:e</title>
<path fill="none" stroke="#000000" d="M500.4124,-280C349.3674,-280 307.689,-280 151.5,-280"/>
<polygon fill="#000000" stroke="#000000" points="510.2,-276 510.2,-284 508.6,-284 508.6,-276 510.2,-276"/>
<polyline fill="none" stroke="#000000" points="511,-280 507,-280 "/>
<ellipse fill="none" stroke="#000000" cx="503.8" cy="-280.0001" rx="3.2" ry="3.2"/>
</g>
<!-- image_to_iaa_edition_catalog -->
<g id="node8" class="node">
<title>image_to_iaa_edition_catalog</title>
<g id="a_node8"><a xlink:href="../../tables/image_to_iaa_edition_catalog.html" xlink:title="image_to_iaa_edition_catalog" target="_top">
<polygon fill="#ffffff" stroke="transparent" points="221.5,-198 221.5,-256 421.5,-256 421.5,-198 221.5,-198"/>
<polygon fill="#f5f5f5" stroke="transparent" points="221.5,-234 221.5,-256 421.5,-256 421.5,-234 221.5,-234"/>
<polygon fill="none" stroke="#000000" points="221.5,-234 221.5,-256 421.5,-256 421.5,-234 221.5,-234"/>
<text text-anchor="start" x="226.5" y="-243.2" font-family="Helvetica,sans-Serif" font-weight="bold" font-size="11.00" fill="#000000">image_to_iaa_edition_catalog</text>
<text text-anchor="start" x="386.5" y="-242.2" font-family="Helvetica,sans-Serif" font-size="11.00" fill="#000000">[table]</text>
<polygon fill="none" stroke="#000000" points="221.5,-216 221.5,-234 421.5,-234 421.5,-216 221.5,-216"/>
<text text-anchor="start" x="224.5" y="-222.2" font-family="Helvetica,sans-Serif" font-size="11.00" fill="#000000">...</text>
<polygon fill="#ffffff" stroke="transparent" points="221.5,-198 221.5,-216 292.5,-216 292.5,-198 221.5,-198"/>
<polygon fill="none" stroke="#000000" points="221.5,-198 221.5,-216 292.5,-216 292.5,-198 221.5,-198"/>
<text text-anchor="start" x="224.5" y="-204.2" font-family="Helvetica,sans-Serif" font-size="11.00" fill="#000000">&lt; 2</text>
<polygon fill="#ffffff" stroke="transparent" points="292.5,-198 292.5,-216 383.5,-216 383.5,-198 292.5,-198"/>
<polygon fill="none" stroke="#000000" points="292.5,-198 292.5,-216 383.5,-216 383.5,-198 292.5,-198"/>
<text text-anchor="start" x="320.5" y="-204.2" font-family="Helvetica,sans-Serif" font-size="11.00" fill="#000000">39,105 rows</text>
<polygon fill="#ffffff" stroke="transparent" points="383.5,-198 383.5,-216 421.5,-216 421.5,-198 383.5,-198"/>
<polygon fill="none" stroke="#000000" points="383.5,-198 383.5,-216 421.5,-216 421.5,-198 383.5,-198"/>
<text text-anchor="start" x="411.5" y="-204.2" font-family="Helvetica,sans-Serif" font-size="11.00" fill="#000000"> &#160;</text>
</a>
</g>
</g>
<!-- image_to_iaa_edition_catalog&#45;&gt;image_catalog -->
<g id="edge7" class="edge">
<title>image_to_iaa_edition_catalog:w&#45;&gt;image_catalog:e</title>
<path fill="none" stroke="#000000" d="M207.1023,-228.1146C183.5567,-239.7495 185.3471,-280 151.5,-280"/>
<polygon fill="#000000" stroke="#000000" points="213.6809,-226.6915 222.2612,-228.5186 217.5904,-225.8458 221.5,-225 221.5,-225 221.5,-225 217.5904,-225.8458 220.7388,-221.4814 213.6809,-226.6915 213.6809,-226.6915"/>
<ellipse fill="none" stroke="#000000" cx="210.5532" cy="-227.3682" rx="3.2" ry="3.2"/>
</g>
<!-- image_to_image_map -->
<g id="node9" class="node">
<title>image_to_image_map</title>
<g id="a_node9"><a xlink:href="../../tables/image_to_image_map.html" xlink:title="image_to_image_map" target="_top">
<polygon fill="#ffffff" stroke="transparent" points="499.5,-442 499.5,-632 682.5,-632 682.5,-442 499.5,-442"/>
<polygon fill="#f5f5f5" stroke="transparent" points="500,-610 500,-632 683,-632 683,-610 500,-610"/>
<polygon fill="none" stroke="#000000" points="500,-610 500,-632 683,-632 683,-610 500,-610"/>
<text text-anchor="start" x="505" y="-619.2" font-family="Helvetica,sans-Serif" font-weight="bold" font-size="11.00" fill="#000000">image_to_image_map</text>
<text text-anchor="start" x="648" y="-618.2" font-family="Helvetica,sans-Serif" font-size="11.00" fill="#000000">[table]</text>
<polygon fill="none" stroke="#000000" points="500,-588 500,-610 683,-610 683,-588 500,-588"/>
<image xlink:href="../../images/primaryKeys.png" width="11px" height="12px" preserveAspectRatio="xMinYMin meet" x="505" y="-605"/>
<text text-anchor="start" x="520" y="-596.2" font-family="Helvetica,sans-Serif" font-size="11.00" fill="#000000">image_to_image_map_id</text>
<polygon fill="#ffffff" stroke="transparent" points="500,-566 500,-588 683,-588 683,-566 500,-566"/>
<polygon fill="none" stroke="#000000" points="500,-566 500,-588 683,-588 683,-566 500,-566"/>
<image xlink:href="../../images/foreignKeys.png" width="11px" height="12px" preserveAspectRatio="xMinYMin meet" x="505" y="-583"/>
<text text-anchor="start" x="520" y="-574.2" font-family="Helvetica,sans-Serif" font-size="11.00" fill="#000000">image1_id</text>
<polygon fill="#ffffff" stroke="transparent" points="500,-544 500,-566 683,-566 683,-544 500,-544"/>
<polygon fill="none" stroke="#000000" points="500,-544 500,-566 683,-566 683,-544 500,-544"/>
<image xlink:href="../../images/foreignKeys.png" width="11px" height="12px" preserveAspectRatio="xMinYMin meet" x="505" y="-561"/>
<text text-anchor="start" x="520" y="-552.2" font-family="Helvetica,sans-Serif" font-size="11.00" fill="#000000">image2_id</text>
<polygon fill="#ffffff" stroke="transparent" points="500,-522 500,-544 683,-544 683,-522 500,-522"/>
<polygon fill="none" stroke="#000000" points="500,-522 500,-544 683,-544 683,-522 500,-522"/>
<text text-anchor="start" x="520" y="-530.2" font-family="Helvetica,sans-Serif" font-size="11.00" fill="#000000">transform_matrix</text>
<polygon fill="#ffffff" stroke="transparent" points="500,-500 500,-522 683,-522 683,-500 500,-500"/>
<polygon fill="none" stroke="#000000" points="500,-500 500,-522 683,-522 683,-500 500,-500"/>
<text text-anchor="start" x="520" y="-508.2" font-family="Helvetica,sans-Serif" font-size="11.00" fill="#000000">region1_hash</text>
<polygon fill="#ffffff" stroke="transparent" points="500,-478 500,-500 683,-500 683,-478 500,-478"/>
<polygon fill="none" stroke="#000000" points="500,-478 500,-500 683,-500 683,-478 500,-478"/>
<text text-anchor="start" x="520" y="-486.2" font-family="Helvetica,sans-Serif" font-size="11.00" fill="#000000">region2_hash</text>
<polygon fill="none" stroke="#000000" points="500,-460 500,-478 683,-478 683,-460 500,-460"/>
<text text-anchor="start" x="503" y="-466.2" font-family="Helvetica,sans-Serif" font-size="11.00" fill="#000000">...</text>
<polygon fill="#ffffff" stroke="transparent" points="500,-442 500,-460 558,-460 558,-442 500,-442"/>
<polygon fill="none" stroke="#000000" points="500,-442 500,-460 558,-460 558,-442 500,-442"/>
<text text-anchor="start" x="503" y="-448.2" font-family="Helvetica,sans-Serif" font-size="11.00" fill="#000000">&lt; 2</text>
<polygon fill="#ffffff" stroke="transparent" points="558,-442 558,-460 642,-460 642,-442 558,-442"/>
<polygon fill="none" stroke="#000000" points="558,-442 558,-460 642,-460 642,-442 558,-442"/>
<text text-anchor="start" x="579" y="-448.2" font-family="Helvetica,sans-Serif" font-size="11.00" fill="#000000">69,272 rows</text>
<polygon fill="#ffffff" stroke="transparent" points="642,-442 642,-460 683,-460 683,-442 642,-442"/>
<polygon fill="none" stroke="#000000" points="642,-442 642,-460 683,-460 683,-442 642,-442"/>
<text text-anchor="start" x="664" y="-448.2" font-family="Helvetica,sans-Serif" font-size="11.00" fill="#000000">2 &gt;</text>
</a>
</g>
</g>
<!-- image_to_image_map&#45;&gt;SQE_image -->
<g id="edge8" class="edge">
<title>image_to_image_map:w&#45;&gt;SQE_image:e</title>
<path fill="none" stroke="#000000" d="M485.3286,-577C470.2231,-577 461.8125,-577 441.5,-577"/>
<polygon fill="#000000" stroke="#000000" points="492,-577.0001 500,-580.6 496,-577 500,-577 500,-577 500,-577 496,-577 500,-573.4 492,-577.0001 492,-577.0001"/>
<ellipse fill="none" stroke="#000000" cx="488.8" cy="-577.0001" rx="3.2" ry="3.2"/>
</g>
<!-- image_to_image_map&#45;&gt;SQE_image -->
<g id="edge9" class="edge">
<title>image_to_image_map:w&#45;&gt;SQE_image:e</title>
<path fill="none" stroke="#000000" d="M485.7305,-557.3544C470.0014,-563.0298 463.6354,-577 441.5,-577"/>
<polygon fill="#000000" stroke="#000000" points="492.1067,-556.3024 500.5861,-558.552 496.0534,-555.6512 500,-555 500,-555 500,-555 496.0534,-555.6512 499.4139,-551.448 492.1067,-556.3024 492.1067,-556.3024"/>
<ellipse fill="none" stroke="#000000" cx="488.9494" cy="-556.8234" rx="3.2" ry="3.2"/>
</g>
<!-- image_to_image_map_author -->
<g id="node10" class="node">
<title>image_to_image_map_author</title>
<g id="a_node10"><a xlink:href="../../tables/image_to_image_map_author.html" xlink:title="image_to_image_map_author" target="_top">
<polygon fill="#ffffff" stroke="transparent" points="739,-359 739,-417 938,-417 938,-359 739,-359"/>
<polygon fill="#f5f5f5" stroke="transparent" points="739.5,-395 739.5,-417 938.5,-417 938.5,-395 739.5,-395"/>
<polygon fill="none" stroke="#000000" points="739.5,-395 739.5,-417 938.5,-417 938.5,-395 739.5,-395"/>
<text text-anchor="start" x="744.5" y="-404.2" font-family="Helvetica,sans-Serif" font-weight="bold" font-size="11.00" fill="#000000">image_to_image_map_author</text>
<text text-anchor="start" x="903.5" y="-403.2" font-family="Helvetica,sans-Serif" font-size="11.00" fill="#000000">[table]</text>
<polygon fill="none" stroke="#000000" points="739.5,-377 739.5,-395 938.5,-395 938.5,-377 739.5,-377"/>
<text text-anchor="start" x="742.5" y="-383.2" font-family="Helvetica,sans-Serif" font-size="11.00" fill="#000000">...</text>
<polygon fill="#ffffff" stroke="transparent" points="739.5,-359 739.5,-377 810.5,-377 810.5,-359 739.5,-359"/>
<polygon fill="none" stroke="#000000" points="739.5,-359 739.5,-377 810.5,-377 810.5,-359 739.5,-359"/>
<text text-anchor="start" x="742.5" y="-365.2" font-family="Helvetica,sans-Serif" font-size="11.00" fill="#000000">&lt; 2</text>
<polygon fill="#ffffff" stroke="transparent" points="810.5,-359 810.5,-377 900.5,-377 900.5,-359 810.5,-359"/>
<polygon fill="none" stroke="#000000" points="810.5,-359 810.5,-377 900.5,-377 900.5,-359 810.5,-359"/>
<text text-anchor="start" x="837.5" y="-365.2" font-family="Helvetica,sans-Serif" font-size="11.00" fill="#000000">72,198 rows</text>
<polygon fill="#ffffff" stroke="transparent" points="900.5,-359 900.5,-377 938.5,-377 938.5,-359 900.5,-359"/>
<polygon fill="none" stroke="#000000" points="900.5,-359 900.5,-377 938.5,-377 938.5,-359 900.5,-359"/>
<text text-anchor="start" x="928.5" y="-365.2" font-family="Helvetica,sans-Serif" font-size="11.00" fill="#000000"> &#160;</text>
</a>
</g>
</g>
<!-- image_to_image_map_author&#45;&gt;user -->
<g id="edge11" class="edge">
<title>image_to_image_map_author:w&#45;&gt;user:e</title>
<path fill="none" stroke="#000000" d="M725.1394,-383.7912C685.5213,-368.8779 743.8063,-282.3101 698,-243 625.2081,-180.5314 572.0514,-253.0519 484,-215 466.6046,-207.4825 467.033,-198.1022 451,-188 413.8242,-164.5761 405.4399,-146 361.5,-146"/>
<polygon fill="#000000" stroke="#000000" points="731.593,-384.7838 738.9527,-389.5582 735.5465,-385.3919 739.5,-386 739.5,-386 739.5,-386 735.5465,-385.3919 740.0473,-382.4418 731.593,-384.7838 731.593,-384.7838"/>
<ellipse fill="none" stroke="#000000" cx="728.4302" cy="-384.2973" rx="3.2" ry="3.2"/>
</g>
<!-- image_to_image_map_author&#45;&gt;image_to_image_map -->
<g id="edge10" class="edge">
<title>image_to_image_map_author:w&#45;&gt;image_to_image_map:e</title>
<path fill="none" stroke="#000000" d="M725.0556,-387.9726C656.5874,-409.4456 775.3931,-599 683,-599"/>
<polygon fill="#000000" stroke="#000000" points="731.5736,-387.0825 739.9871,-389.5669 735.5368,-386.5413 739.5,-386 739.5,-386 739.5,-386 735.5368,-386.5413 739.0129,-382.4331 731.5736,-387.0825 731.5736,-387.0825"/>
<ellipse fill="none" stroke="#000000" cx="728.403" cy="-387.5155" rx="3.2" ry="3.2"/>
</g>
<!-- point_to_point_map -->
<g id="node11" class="node">
<title>point_to_point_map</title>
<g id="a_node11"><a xlink:href="../../tables/point_to_point_map.html" xlink:title="point_to_point_map" target="_top">
<polygon fill="#ffffff" stroke="transparent" points="763.5,-572 763.5,-630 913.5,-630 913.5,-572 763.5,-572"/>
<polygon fill="#f5f5f5" stroke="transparent" points="763.5,-608 763.5,-630 913.5,-630 913.5,-608 763.5,-608"/>
<polygon fill="none" stroke="#000000" points="763.5,-608 763.5,-630 913.5,-630 913.5,-608 763.5,-608"/>
<text text-anchor="start" x="768.5" y="-617.2" font-family="Helvetica,sans-Serif" font-weight="bold" font-size="11.00" fill="#000000">point_to_point_map</text>
<text text-anchor="start" x="878.5" y="-616.2" font-family="Helvetica,sans-Serif" font-size="11.00" fill="#000000">[table]</text>
<polygon fill="none" stroke="#000000" points="763.5,-590 763.5,-608 913.5,-608 913.5,-590 763.5,-590"/>
<text text-anchor="start" x="766.5" y="-596.2" font-family="Helvetica,sans-Serif" font-size="11.00" fill="#000000">...</text>
<polygon fill="#ffffff" stroke="transparent" points="763.5,-572 763.5,-590 823.5,-590 823.5,-572 763.5,-572"/>
<polygon fill="none" stroke="#000000" points="763.5,-572 763.5,-590 823.5,-590 823.5,-572 763.5,-572"/>
<text text-anchor="start" x="766.5" y="-578.2" font-family="Helvetica,sans-Serif" font-size="11.00" fill="#000000">&lt; 1</text>
<polygon fill="#ffffff" stroke="transparent" points="823.5,-572 823.5,-590 881.5,-590 881.5,-572 823.5,-572"/>
<polygon fill="none" stroke="#000000" points="823.5,-572 823.5,-590 881.5,-590 881.5,-572 823.5,-572"/>
<text text-anchor="start" x="845.5" y="-578.2" font-family="Helvetica,sans-Serif" font-size="11.00" fill="#000000">0 rows</text>
<polygon fill="#ffffff" stroke="transparent" points="881.5,-572 881.5,-590 913.5,-590 913.5,-572 881.5,-572"/>
<polygon fill="none" stroke="#000000" points="881.5,-572 881.5,-590 913.5,-590 913.5,-572 881.5,-572"/>
<text text-anchor="start" x="903.5" y="-578.2" font-family="Helvetica,sans-Serif" font-size="11.00" fill="#000000"> &#160;</text>
</a>
</g>
</g>
<!-- point_to_point_map&#45;&gt;image_to_image_map -->
<g id="edge12" class="edge">
<title>point_to_point_map:w&#45;&gt;image_to_image_map:e</title>
<path fill="none" stroke="#000000" d="M748.827,-599C724.3742,-599 713.3273,-599 683,-599"/>
<polygon fill="#000000" stroke="#000000" points="755.5,-599.0001 763.5,-602.6 759.5,-599 763.5,-599 763.5,-599 763.5,-599 759.5,-599 763.5,-595.4 755.5,-599.0001 755.5,-599.0001"/>
<ellipse fill="none" stroke="#000000" cx="752.3" cy="-599.0001" rx="3.2" ry="3.2"/>
</g>
<!-- SQE_image_author -->
<g id="node13" class="node">
<title>SQE_image_author</title>
<g id="a_node13"><a xlink:href="../../tables/SQE_image_author.html" xlink:title="SQE_image_author" target="_top">
<polygon fill="#ffffff" stroke="transparent" points="518,-335 518,-419 664,-419 664,-335 518,-335"/>
<polygon fill="#f5f5f5" stroke="transparent" points="518,-397 518,-419 664,-419 664,-397 518,-397"/>
<polygon fill="none" stroke="#000000" points="518,-397 518,-419 664,-419 664,-397 518,-397"/>
<text text-anchor="start" x="523" y="-406.2" font-family="Helvetica,sans-Serif" font-weight="bold" font-size="11.00" fill="#000000">SQE_image_author</text>
<text text-anchor="start" x="629" y="-405.2" font-family="Helvetica,sans-Serif" font-size="11.00" fill="#000000">[table]</text>
<polygon fill="none" stroke="#000000" points="518,-375 518,-397 664,-397 664,-375 518,-375"/>
<image xlink:href="../../images/primaryKeys.png" width="11px" height="12px" preserveAspectRatio="xMinYMin meet" x="523" y="-392"/>
<text text-anchor="start" x="538" y="-383.2" font-family="Helvetica,sans-Serif" font-size="11.00" fill="#000000">sqe_image_id</text>
<polygon fill="#ffffff" stroke="transparent" points="518,-353 518,-375 664,-375 664,-353 518,-353"/>
<polygon fill="none" stroke="#000000" points="518,-353 518,-375 664,-375 664,-353 518,-353"/>
<image xlink:href="../../images/foreignKeys.png" width="11px" height="12px" preserveAspectRatio="xMinYMin meet" x="523" y="-370"/>
<text text-anchor="start" x="538" y="-361.2" font-family="Helvetica,sans-Serif" font-size="11.00" fill="#000000">user_id</text>
<polygon fill="#ffffff" stroke="transparent" points="518,-335 518,-353 562,-353 562,-335 518,-335"/>
<polygon fill="none" stroke="#000000" points="518,-335 518,-353 562,-353 562,-335 518,-335"/>
<text text-anchor="start" x="521" y="-341.2" font-family="Helvetica,sans-Serif" font-size="11.00" fill="#000000">&lt; 2</text>
<polygon fill="#ffffff" stroke="transparent" points="562,-335 562,-353 639,-353 639,-335 562,-335"/>
<polygon fill="none" stroke="#000000" points="562,-335 562,-353 639,-353 639,-335 562,-335"/>
<text text-anchor="start" x="576" y="-341.2" font-family="Helvetica,sans-Serif" font-size="11.00" fill="#000000">99,702 rows</text>
<polygon fill="#ffffff" stroke="transparent" points="639,-335 639,-353 664,-353 664,-335 639,-335"/>
<polygon fill="none" stroke="#000000" points="639,-335 639,-353 664,-353 664,-335 639,-335"/>
<text text-anchor="start" x="654" y="-341.2" font-family="Helvetica,sans-Serif" font-size="11.00" fill="#000000"> &#160;</text>
</a>
</g>
</g>
<!-- SQE_image_author&#45;&gt;user -->
<g id="edge16" class="edge">
<title>SQE_image_author:w&#45;&gt;user:e</title>
<path fill="none" stroke="#000000" d="M503.7346,-360.2478C493.5878,-353.3668 491.9291,-337.964 484,-322 456.7159,-267.0677 489.8879,-235.4311 451,-188 423.141,-154.0207 405.4399,-146 361.5,-146"/>
<polygon fill="#000000" stroke="#000000" points="510.2632,-361.965 517.0842,-367.4816 514.1316,-362.9825 518,-364 518,-364 518,-364 514.1316,-362.9825 518.9158,-360.5184 510.2632,-361.965 510.2632,-361.965"/>
<ellipse fill="none" stroke="#000000" cx="507.1684" cy="-361.1509" rx="3.2" ry="3.2"/>
</g>
<!-- SQE_image_author&#45;&gt;SQE_image -->
<g id="edge15" class="edge">
<title>SQE_image_author:w&#45;&gt;SQE_image:e</title>
<path fill="none" stroke="#000000" d="M507.2766,-387.0276C435.3329,-402.0614 529.0154,-577 441.5,-577"/>
<polygon fill="#000000" stroke="#000000" points="516.822,-382.0946 517.5853,-390.0581 515.9926,-390.2107 515.2293,-382.2472 516.822,-382.0946"/>
<polyline fill="none" stroke="#000000" points="518,-386 514.0182,-386.3816 "/>
<ellipse fill="none" stroke="#000000" cx="510.8328" cy="-386.6869" rx="3.2" ry="3.2"/>
</g>
</g>
</svg>
