<?xml version="1.0" encoding="UTF-8" standalone="no"?>
<!DOCTYPE svg PUBLIC "-//W3C//DTD SVG 1.1//EN"
 "http://www.w3.org/Graphics/SVG/1.1/DTD/svg11.dtd">
<!-- Generated by graphviz version 2.40.1 (20161225.0304)
 -->
<!-- Title: oneDegreeRelationshipsDiagram Pages: 1 -->
<svg width="439pt" height="179pt"
 viewBox="0.00 0.00 439.00 179.00" xmlns="http://www.w3.org/2000/svg" xmlns:xlink="http://www.w3.org/1999/xlink">
<g id="graph0" class="graph" transform="scale(1 1) rotate(0) translate(4 175)">
<title>oneDegreeRelationshipsDiagram</title>
<polygon fill="#ffffff" stroke="transparent" points="-4,4 -4,-175 435,-175 435,4 -4,4"/>
<text text-anchor="middle" x="71.5" y="-7.2" font-family="Helvetica,sans-Serif" font-size="11.00" fill="#000000">Generated by SchemaSpy</text>
<!-- users_system_roles -->
<g id="node1" class="node">
<title>users_system_roles</title>
<g id="a_node1"><a xlink:href="../../tables/users_system_roles.html" xlink:title="users_system_roles" target="_top">
<polygon fill="#ffffff" stroke="transparent" points="272,-83 272,-167 423,-167 423,-83 272,-83"/>
<polygon fill="#f5f5f5" stroke="transparent" points="272.5,-145 272.5,-167 423.5,-167 423.5,-145 272.5,-145"/>
<polygon fill="none" stroke="#000000" points="272.5,-145 272.5,-167 423.5,-167 423.5,-145 272.5,-145"/>
<text text-anchor="start" x="277.5" y="-154.2" font-family="Helvetica,sans-Serif" font-weight="bold" font-size="11.00" fill="#000000">users_system_roles</text>
<text text-anchor="start" x="388.5" y="-153.2" font-family="Helvetica,sans-Serif" font-size="11.00" fill="#000000">[table]</text>
<polygon fill="none" stroke="#000000" points="272.5,-123 272.5,-145 423.5,-145 423.5,-123 272.5,-123"/>
<image xlink:href="../../images/primaryKeys.png" width="11px" height="12px" preserveAspectRatio="xMinYMin meet" x="277.5" y="-140"/>
<text text-anchor="start" x="292.5" y="-131.2" font-family="Helvetica,sans-Serif" font-size="11.00" fill="#000000">user_id</text>
<polygon fill="none" stroke="#000000" points="272.5,-101 272.5,-123 423.5,-123 423.5,-101 272.5,-101"/>
<image xlink:href="../../images/primaryKeys.png" width="11px" height="12px" preserveAspectRatio="xMinYMin meet" x="277.5" y="-118"/>
<text text-anchor="start" x="292.5" y="-109.2" font-family="Helvetica,sans-Serif" font-size="11.00" fill="#000000">system_roles_id</text>
<polygon fill="#ffffff" stroke="transparent" points="272.5,-83 272.5,-101 332.5,-101 332.5,-83 272.5,-83"/>
<polygon fill="none" stroke="#000000" points="272.5,-83 272.5,-101 332.5,-101 332.5,-83 272.5,-83"/>
<text text-anchor="start" x="275.5" y="-89.2" font-family="Helvetica,sans-Serif" font-size="11.00" fill="#000000">&lt; 2</text>
<polygon fill="#ffffff" stroke="transparent" points="332.5,-83 332.5,-101 390.5,-101 390.5,-83 332.5,-83"/>
<polygon fill="none" stroke="#000000" points="332.5,-83 332.5,-101 390.5,-101 390.5,-83 332.5,-83"/>
<text text-anchor="start" x="354.5" y="-89.2" font-family="Helvetica,sans-Serif" font-size="11.00" fill="#000000">0 rows</text>
<polygon fill="#ffffff" stroke="transparent" points="390.5,-83 390.5,-101 423.5,-101 423.5,-83 390.5,-83"/>
<polygon fill="none" stroke="#000000" points="390.5,-83 390.5,-101 423.5,-101 423.5,-83 390.5,-83"/>
<text text-anchor="start" x="413.5" y="-89.2" font-family="Helvetica,sans-Serif" font-size="11.00" fill="#000000"> &#160;</text>
</a>
</g>
</g>
<!-- system_roles -->
<g id="node2" class="node">
<title>system_roles</title>
<g id="a_node2"><a xlink:href="../../tables/system_roles.html" xlink:title="system_roles" target="_top">
<polygon fill="#ffffff" stroke="transparent" points="8,-37 8,-147 223,-147 223,-37 8,-37"/>
<polygon fill="#f5f5f5" stroke="transparent" points="10.5,-123 10.5,-145 221.5,-145 221.5,-123 10.5,-123"/>
<polygon fill="none" stroke="#000000" points="10.5,-123 10.5,-145 221.5,-145 221.5,-123 10.5,-123"/>
<text text-anchor="start" x="15.5" y="-132.2" font-family="Helvetica,sans-Serif" font-weight="bold" font-size="11.00" fill="#000000">system_roles</text>
<text text-anchor="start" x="186.5" y="-131.2" font-family="Helvetica,sans-Serif" font-size="11.00" fill="#000000">[table]</text>
<polygon fill="none" stroke="#000000" points="10.5,-101 10.5,-123 139.5,-123 139.5,-101 10.5,-101"/>
<image xlink:href="../../images/primaryKeys.png" width="11px" height="12px" preserveAspectRatio="xMinYMin meet" x="15.5" y="-118"/>
<text text-anchor="start" x="30.5" y="-109.2" font-family="Helvetica,sans-Serif" font-size="11.00" fill="#000000">system_roles_id</text>
<polygon fill="none" stroke="#000000" points="139.5,-101 139.5,-123 221.5,-123 221.5,-101 139.5,-101"/>
<text text-anchor="start" x="142.5" y="-109.2" font-family="Helvetica,sans-Serif" font-size="11.00" fill="#000000">int unsigned[10]</text>
<polygon fill="#ffffff" stroke="transparent" points="10.5,-79 10.5,-101 139.5,-101 139.5,-79 10.5,-79"/>
<polygon fill="none" stroke="#000000" points="10.5,-79 10.5,-101 139.5,-101 139.5,-79 10.5,-79"/>
<text text-anchor="start" x="30.5" y="-87.2" font-family="Helvetica,sans-Serif" font-size="11.00" fill="#000000">role_title</text>
<polygon fill="none" stroke="#000000" points="139.5,-79 139.5,-101 221.5,-101 221.5,-79 139.5,-79"/>
<text text-anchor="start" x="142.5" y="-87.2" font-family="Helvetica,sans-Serif" font-size="11.00" fill="#000000">varchar[128]</text>
<polygon fill="none" stroke="#000000" points="10.5,-57 10.5,-79 139.5,-79 139.5,-57 10.5,-57"/>
<text text-anchor="start" x="30.5" y="-65.2" font-family="Helvetica,sans-Serif" font-size="11.00" fill="#000000">role_description</text>
<polygon fill="none" stroke="#000000" points="139.5,-57 139.5,-79 221.5,-79 221.5,-57 139.5,-57"/>
<text text-anchor="start" x="142.5" y="-65.2" font-family="Helvetica,sans-Serif" font-size="11.00" fill="#000000">text[65535]</text>
<polygon fill="#ffffff" stroke="transparent" points="10.5,-39 10.5,-57 66.5,-57 66.5,-39 10.5,-39"/>
<polygon fill="none" stroke="#000000" points="10.5,-39 10.5,-57 66.5,-57 66.5,-39 10.5,-39"/>
<text text-anchor="start" x="13.5" y="-45.2" font-family="Helvetica,sans-Serif" font-size="11.00" fill="#000000">&lt; 0</text>
<polygon fill="#ffffff" stroke="transparent" points="66.5,-39 66.5,-57 139.5,-57 139.5,-39 66.5,-39"/>
<polygon fill="none" stroke="#000000" points="66.5,-39 66.5,-57 139.5,-57 139.5,-39 66.5,-39"/>
<text text-anchor="start" x="103.5" y="-45.2" font-family="Helvetica,sans-Serif" font-size="11.00" fill="#000000">4 rows</text>
<polygon fill="#ffffff" stroke="transparent" points="139.5,-39 139.5,-57 221.5,-57 221.5,-39 139.5,-39"/>
<polygon fill="none" stroke="#000000" points="139.5,-39 139.5,-57 221.5,-57 221.5,-39 139.5,-39"/>
<text text-anchor="start" x="202.5" y="-45.2" font-family="Helvetica,sans-Serif" font-size="11.00" fill="#000000">1 &gt;</text>
<polygon fill="none" stroke="#000000" stroke-width="2" points="9,-38 9,-146 222,-146 222,-38 9,-38"/>
</a>
</g>
</g>
<!-- users_system_roles&#45;&gt;system_roles -->
<g id="edge1" class="edge">
<title>users_system_roles:w&#45;&gt;system_roles:e</title>
<path fill="none" stroke="#000000" d="M257.776,-112C245.7815,-112 238.3229,-112 221.5,-112"/>
<polygon fill="#000000" stroke="#000000" points="264.5,-112.0001 272.5,-115.6 268.5,-112 272.5,-112 272.5,-112 272.5,-112 268.5,-112 272.5,-108.4 264.5,-112.0001 264.5,-112.0001"/>
<ellipse fill="none" stroke="#000000" cx="261.3" cy="-112.0001" rx="3.2" ry="3.2"/>
</g>
</g>
</svg>
