<?xml version="1.0" encoding="UTF-8" standalone="no"?>
<!DOCTYPE svg PUBLIC "-//W3C//DTD SVG 1.1//EN"
 "http://www.w3.org/Graphics/SVG/1.1/DTD/svg11.dtd">
<!-- Generated by graphviz version 2.43.0 (0)
 -->
<!-- Title: twoDegreesRelationshipsDiagramImplied Pages: 1 -->
<svg width="774pt" height="818pt"
 viewBox="0.00 0.00 774.00 818.00" xmlns="http://www.w3.org/2000/svg" xmlns:xlink="http://www.w3.org/1999/xlink">
<g id="graph0" class="graph" transform="scale(1 1) rotate(0) translate(4 814)">
<title>twoDegreesRelationshipsDiagramImplied</title>
<polygon fill="#ffffff" stroke="transparent" points="-4,4 -4,-814 770,-814 770,4 -4,4"/>
<text text-anchor="middle" x="79.5" y="-7.2" font-family="Helvetica,sans-Serif" font-size="11.00">Generated by SchemaSpy</text>
<!-- edition_editor -->
<g id="node1" class="node">
<title>edition_editor</title>
<g id="a_node1"><a xlink:href="../../tables/edition_editor.html" xlink:title="edition_editor" target="_top">
<polygon fill="#ffffff" stroke="transparent" points="270.5,-301 270.5,-359 406.5,-359 406.5,-301 270.5,-301"/>
<polygon fill="#f5f5f5" stroke="transparent" points="270.5,-337 270.5,-359 406.5,-359 406.5,-337 270.5,-337"/>
<polygon fill="none" stroke="black" points="270.5,-337 270.5,-359 406.5,-359 406.5,-337 270.5,-337"/>
<text text-anchor="start" x="275.5" y="-346.2" font-family="Helvetica,sans-Serif" font-weight="bold" font-size="11.00">edition_editor</text>
<text text-anchor="start" x="364.5" y="-345.2" font-family="Helvetica,sans-Serif" font-size="11.00">[table]</text>
<polygon fill="none" stroke="black" points="270.5,-319 270.5,-337 406.5,-337 406.5,-319 270.5,-319"/>
<text text-anchor="start" x="273.5" y="-325.2" font-family="Helvetica,sans-Serif" font-size="11.00">...</text>
<polygon fill="#ffffff" stroke="transparent" points="270.5,-301 270.5,-319 301.5,-319 301.5,-301 270.5,-301"/>
<polygon fill="none" stroke="black" points="270.5,-301 270.5,-319 301.5,-319 301.5,-301 270.5,-301"/>
<text text-anchor="start" x="273.5" y="-307.2" font-family="Helvetica,sans-Serif" font-size="11.00">&lt; 2</text>
<polygon fill="#ffffff" stroke="transparent" points="301.5,-301 301.5,-319 370.5,-319 370.5,-301 301.5,-301"/>
<polygon fill="none" stroke="black" points="301.5,-301 301.5,-319 370.5,-319 370.5,-301 301.5,-301"/>
<text text-anchor="start" x="306.5" y="-307.2" font-family="Helvetica,sans-Serif" font-size="11.00">1,645 rows</text>
<polygon fill="#ffffff" stroke="transparent" points="370.5,-301 370.5,-319 406.5,-319 406.5,-301 370.5,-301"/>
<polygon fill="none" stroke="black" points="370.5,-301 370.5,-319 406.5,-319 406.5,-301 370.5,-301"/>
<text text-anchor="start" x="376.5" y="-307.2" font-family="Helvetica,sans-Serif" font-size="11.00">33 &gt;</text>
</a>
</g>
</g>
<!-- edition -->
<g id="node2" class="node">
<title>edition</title>
<g id="a_node2"><a xlink:href="../../tables/edition.html" xlink:title="edition" target="_top">
<polygon fill="#ffffff" stroke="transparent" points="14,-289 14,-347 140,-347 140,-289 14,-289"/>
<polygon fill="#f5f5f5" stroke="transparent" points="14,-325 14,-347 140,-347 140,-325 14,-325"/>
<polygon fill="none" stroke="black" points="14,-325 14,-347 140,-347 140,-325 14,-325"/>
<text text-anchor="start" x="19" y="-334.2" font-family="Helvetica,sans-Serif" font-weight="bold" font-size="11.00">edition</text>
<text text-anchor="start" x="98" y="-333.2" font-family="Helvetica,sans-Serif" font-size="11.00">[table]</text>
<polygon fill="none" stroke="black" points="14,-307 14,-325 140,-325 140,-307 14,-307"/>
<text text-anchor="start" x="17" y="-313.2" font-family="Helvetica,sans-Serif" font-size="11.00">...</text>
<polygon fill="#ffffff" stroke="transparent" points="14,-289 14,-307 40,-307 40,-289 14,-289"/>
<polygon fill="none" stroke="black" points="14,-289 14,-307 40,-307 40,-289 14,-289"/>
<text text-anchor="start" x="17" y="-295.2" font-family="Helvetica,sans-Serif" font-size="11.00">&lt; 1</text>
<polygon fill="#ffffff" stroke="transparent" points="40,-289 40,-307 107,-307 107,-289 40,-289"/>
<polygon fill="none" stroke="black" points="40,-289 40,-307 107,-307 107,-289 40,-289"/>
<text text-anchor="start" x="43" y="-295.2" font-family="Helvetica,sans-Serif" font-size="11.00">1,645 rows</text>
<polygon fill="#ffffff" stroke="transparent" points="107,-289 107,-307 140,-307 140,-289 107,-289"/>
<polygon fill="none" stroke="black" points="107,-289 107,-307 140,-307 140,-289 107,-289"/>
<text text-anchor="start" x="110" y="-295.2" font-family="Helvetica,sans-Serif" font-size="11.00">35 &gt;</text>
</a>
</g>
</g>
<!-- edition_editor&#45;&gt;edition -->
<g id="edge1" class="edge">
<title>edition_editor:w&#45;&gt;edition:e</title>
<path fill="none" stroke="black" d="M255.03,-327.73C209.31,-325.94 193.21,-316 141,-316"/>
<polygon fill="black" stroke="black" points="261.5,-327.85 269.43,-331.6 265.5,-327.92 269.5,-328 269.5,-328 269.5,-328 265.5,-327.92 269.57,-324.4 261.5,-327.85 261.5,-327.85"/>
<ellipse fill="none" stroke="black" cx="258.3" cy="-327.79" rx="3.2" ry="3.2"/>
</g>
<!-- iaa_edition_catalog_to_text_fragment -->
<g id="node3" class="node">
<title>iaa_edition_catalog_to_text_fragment</title>
<g id="a_node3"><a xlink:href="../../tables/iaa_edition_catalog_to_text_fragment.html" xlink:title="iaa_edition_catalog_to_text_fragment" target="_top">
<polygon fill="#ffffff" stroke="transparent" points="199,-590 199,-648 478,-648 478,-590 199,-590"/>
<polygon fill="#f5f5f5" stroke="transparent" points="199.5,-626 199.5,-648 478.5,-648 478.5,-626 199.5,-626"/>
<polygon fill="none" stroke="black" points="199.5,-626 199.5,-648 478.5,-648 478.5,-626 199.5,-626"/>
<text text-anchor="start" x="204.5" y="-635.2" font-family="Helvetica,sans-Serif" font-weight="bold" font-size="11.00">iaa_edition_catalog_to_text_fragment</text>
<text text-anchor="start" x="436.5" y="-634.2" font-family="Helvetica,sans-Serif" font-size="11.00">[table]</text>
<polygon fill="none" stroke="black" points="199.5,-608 199.5,-626 478.5,-626 478.5,-608 199.5,-608"/>
<text text-anchor="start" x="202.5" y="-614.2" font-family="Helvetica,sans-Serif" font-size="11.00">...</text>
<polygon fill="#ffffff" stroke="transparent" points="199.5,-590 199.5,-608 301.5,-608 301.5,-590 199.5,-590"/>
<polygon fill="none" stroke="black" points="199.5,-590 199.5,-608 301.5,-608 301.5,-590 199.5,-590"/>
<text text-anchor="start" x="202.5" y="-596.2" font-family="Helvetica,sans-Serif" font-size="11.00">&lt; 2</text>
<polygon fill="#ffffff" stroke="transparent" points="301.5,-590 301.5,-608 413.5,-608 413.5,-590 301.5,-590"/>
<polygon fill="none" stroke="black" points="301.5,-590 301.5,-608 413.5,-608 413.5,-590 301.5,-590"/>
<text text-anchor="start" x="342.5" y="-596.2" font-family="Helvetica,sans-Serif" font-size="11.00">15,236 rows</text>
<polygon fill="#ffffff" stroke="transparent" points="413.5,-590 413.5,-608 478.5,-608 478.5,-590 413.5,-590"/>
<polygon fill="none" stroke="black" points="413.5,-590 413.5,-608 478.5,-608 478.5,-590 413.5,-590"/>
<text text-anchor="start" x="455.5" y="-596.2" font-family="Helvetica,sans-Serif" font-size="11.00">1 &gt;</text>
</a>
</g>
</g>
<!-- text_fragment -->
<g id="node4" class="node">
<title>text_fragment</title>
<g id="a_node4"><a xlink:href="../../tables/text_fragment.html" xlink:title="text_fragment" target="_top">
<polygon fill="#ffffff" stroke="transparent" points="8,-627 8,-689 146,-689 146,-627 8,-627"/>
<polygon fill="#f5f5f5" stroke="transparent" points="8,-667 8,-689 146,-689 146,-667 8,-667"/>
<polygon fill="none" stroke="black" points="8,-667 8,-689 146,-689 146,-667 8,-667"/>
<text text-anchor="start" x="13" y="-676.2" font-family="Helvetica,sans-Serif" font-weight="bold" font-size="11.00">text_fragment</text>
<text text-anchor="start" x="104" y="-675.2" font-family="Helvetica,sans-Serif" font-size="11.00">[table]</text>
<polygon fill="none" stroke="black" points="8,-645 8,-667 146,-667 146,-645 8,-645"/>
<image xlink:href="../../images/primaryKeys.png" width="11px" height="12px" preserveAspectRatio="xMinYMin meet" x="13" y="-662"/>
<text text-anchor="start" x="30" y="-653.2" font-family="Helvetica,sans-Serif" font-size="11.00">text_fragment_id</text>
<polygon fill="#ffffff" stroke="transparent" points="8,-627 8,-645 34,-645 34,-627 8,-627"/>
<polygon fill="none" stroke="black" points="8,-627 8,-645 34,-645 34,-627 8,-627"/>
<text text-anchor="start" x="11" y="-633.2" font-family="Helvetica,sans-Serif" font-size="11.00"> &#160;</text>
<polygon fill="#ffffff" stroke="transparent" points="34,-627 34,-645 114,-645 114,-627 34,-627"/>
<polygon fill="none" stroke="black" points="34,-627 34,-645 114,-645 114,-627 34,-627"/>
<text text-anchor="start" x="43" y="-633.2" font-family="Helvetica,sans-Serif" font-size="11.00">11,176 rows</text>
<polygon fill="#ffffff" stroke="transparent" points="114,-627 114,-645 146,-645 146,-627 114,-627"/>
<polygon fill="none" stroke="black" points="114,-627 114,-645 146,-645 146,-627 114,-627"/>
<text text-anchor="start" x="123" y="-633.2" font-family="Helvetica,sans-Serif" font-size="11.00">6 &gt;</text>
</a>
</g>
</g>
<!-- iaa_edition_catalog_to_text_fragment&#45;&gt;text_fragment -->
<g id="edge2" class="edge">
<title>iaa_edition_catalog_to_text_fragment:w&#45;&gt;text_fragment:e</title>
<path fill="none" stroke="black" d="M184.71,-621.17C170.77,-631.23 169.88,-656 147,-656"/>
<polygon fill="black" stroke="black" points="190.84,-619.32 199.54,-620.45 194.67,-618.16 198.5,-617 198.5,-617 198.5,-617 194.67,-618.16 197.46,-613.55 190.84,-619.32 190.84,-619.32"/>
<ellipse fill="none" stroke="black" cx="187.78" cy="-620.24" rx="3.2" ry="3.2"/>
</g>
<!-- line_data -->
<g id="node5" class="node">
<title>line_data</title>
<g id="a_node5"><a xlink:href="../../tables/line_data.html" xlink:title="line_data" target="_top">
<polygon fill="#ffffff" stroke="transparent" points="275.5,-195 275.5,-253 401.5,-253 401.5,-195 275.5,-195"/>
<polygon fill="#f5f5f5" stroke="transparent" points="275.5,-231 275.5,-253 401.5,-253 401.5,-231 275.5,-231"/>
<polygon fill="none" stroke="black" points="275.5,-231 275.5,-253 401.5,-253 401.5,-231 275.5,-231"/>
<text text-anchor="start" x="280.5" y="-240.2" font-family="Helvetica,sans-Serif" font-weight="bold" font-size="11.00">line_data</text>
<text text-anchor="start" x="359.5" y="-239.2" font-family="Helvetica,sans-Serif" font-size="11.00">[table]</text>
<polygon fill="none" stroke="black" points="275.5,-213 275.5,-231 401.5,-231 401.5,-213 275.5,-213"/>
<text text-anchor="start" x="278.5" y="-219.2" font-family="Helvetica,sans-Serif" font-size="11.00">...</text>
<polygon fill="#ffffff" stroke="transparent" points="275.5,-195 275.5,-213 301.5,-213 301.5,-195 275.5,-195"/>
<polygon fill="none" stroke="black" points="275.5,-195 275.5,-213 301.5,-213 301.5,-195 275.5,-195"/>
<text text-anchor="start" x="278.5" y="-201.2" font-family="Helvetica,sans-Serif" font-size="11.00">&lt; 1</text>
<polygon fill="#ffffff" stroke="transparent" points="301.5,-195 301.5,-213 375.5,-213 375.5,-195 301.5,-195"/>
<polygon fill="none" stroke="black" points="301.5,-195 301.5,-213 375.5,-213 375.5,-195 301.5,-195"/>
<text text-anchor="start" x="304.5" y="-201.2" font-family="Helvetica,sans-Serif" font-size="11.00">55,080 rows</text>
<polygon fill="#ffffff" stroke="transparent" points="375.5,-195 375.5,-213 401.5,-213 401.5,-195 375.5,-195"/>
<polygon fill="none" stroke="black" points="375.5,-195 375.5,-213 401.5,-213 401.5,-195 375.5,-195"/>
<text text-anchor="start" x="378.5" y="-201.2" font-family="Helvetica,sans-Serif" font-size="11.00">1 &gt;</text>
</a>
</g>
</g>
<!-- line -->
<g id="node6" class="node">
<title>line</title>
<g id="a_node6"><a xlink:href="../../tables/line.html" xlink:title="line" target="_top">
<polygon fill="#ffffff" stroke="transparent" points="20,-154 20,-216 134,-216 134,-154 20,-154"/>
<polygon fill="#f5f5f5" stroke="transparent" points="20,-194 20,-216 134,-216 134,-194 20,-194"/>
<polygon fill="none" stroke="black" points="20,-194 20,-216 134,-216 134,-194 20,-194"/>
<text text-anchor="start" x="25" y="-203.2" font-family="Helvetica,sans-Serif" font-weight="bold" font-size="11.00">line</text>
<text text-anchor="start" x="92" y="-202.2" font-family="Helvetica,sans-Serif" font-size="11.00">[table]</text>
<polygon fill="none" stroke="black" points="20,-172 20,-194 134,-194 134,-172 20,-172"/>
<image xlink:href="../../images/primaryKeys.png" width="11px" height="12px" preserveAspectRatio="xMinYMin meet" x="25" y="-189"/>
<text text-anchor="start" x="65" y="-180.2" font-family="Helvetica,sans-Serif" font-size="11.00">line_id</text>
<polygon fill="#ffffff" stroke="transparent" points="20,-154 20,-172 34,-172 34,-154 20,-154"/>
<polygon fill="none" stroke="black" points="20,-154 20,-172 34,-172 34,-154 20,-154"/>
<text text-anchor="start" x="23" y="-160.2" font-family="Helvetica,sans-Serif" font-size="11.00"> &#160;</text>
<polygon fill="#ffffff" stroke="transparent" points="34,-154 34,-172 108,-172 108,-154 34,-154"/>
<polygon fill="none" stroke="black" points="34,-154 34,-172 108,-172 108,-154 34,-154"/>
<text text-anchor="start" x="37" y="-160.2" font-family="Helvetica,sans-Serif" font-size="11.00">53,964 rows</text>
<polygon fill="#ffffff" stroke="transparent" points="108,-154 108,-172 134,-172 134,-154 108,-154"/>
<polygon fill="none" stroke="black" points="108,-154 108,-172 134,-172 134,-154 108,-154"/>
<text text-anchor="start" x="111" y="-160.2" font-family="Helvetica,sans-Serif" font-size="11.00">4 &gt;</text>
</a>
</g>
</g>
<!-- line_data&#45;&gt;line -->
<g id="edge3" class="edge">
<title>line_data:w&#45;&gt;line:e</title>
<path fill="none" stroke="black" d="M260.01,-221.29C208.06,-216 194.22,-183 135,-183"/>
<polygon fill="black" stroke="black" points="266.51,-221.61 274.32,-225.6 270.5,-221.8 274.5,-222 274.5,-222 274.5,-222 270.5,-221.8 274.68,-218.4 266.51,-221.61 266.51,-221.61"/>
<ellipse fill="none" stroke="black" cx="263.31" cy="-221.45" rx="3.2" ry="3.2"/>
</g>
<!-- line_to_sign -->
<g id="node7" class="node">
<title>line_to_sign</title>
<g id="a_node7"><a xlink:href="../../tables/line_to_sign.html" xlink:title="line_to_sign" target="_top">
<polygon fill="#ffffff" stroke="transparent" points="267,-116 267,-174 410,-174 410,-116 267,-116"/>
<polygon fill="#f5f5f5" stroke="transparent" points="267.5,-152 267.5,-174 410.5,-174 410.5,-152 267.5,-152"/>
<polygon fill="none" stroke="black" points="267.5,-152 267.5,-174 410.5,-174 410.5,-152 267.5,-152"/>
<text text-anchor="start" x="272.5" y="-161.2" font-family="Helvetica,sans-Serif" font-weight="bold" font-size="11.00">line_to_sign</text>
<text text-anchor="start" x="368.5" y="-160.2" font-family="Helvetica,sans-Serif" font-size="11.00">[table]</text>
<polygon fill="none" stroke="black" points="267.5,-134 267.5,-152 410.5,-152 410.5,-134 267.5,-134"/>
<text text-anchor="start" x="270.5" y="-140.2" font-family="Helvetica,sans-Serif" font-size="11.00">...</text>
<polygon fill="#ffffff" stroke="transparent" points="267.5,-116 267.5,-134 293.5,-134 293.5,-116 267.5,-116"/>
<polygon fill="none" stroke="black" points="267.5,-116 267.5,-134 293.5,-134 293.5,-116 267.5,-116"/>
<text text-anchor="start" x="270.5" y="-122.2" font-family="Helvetica,sans-Serif" font-size="11.00">&lt; 2</text>
<polygon fill="#ffffff" stroke="transparent" points="293.5,-116 293.5,-134 384.5,-134 384.5,-116 293.5,-116"/>
<polygon fill="none" stroke="black" points="293.5,-116 293.5,-134 384.5,-134 384.5,-116 293.5,-116"/>
<text text-anchor="start" x="296.5" y="-122.2" font-family="Helvetica,sans-Serif" font-size="11.00">1,730,550 rows</text>
<polygon fill="#ffffff" stroke="transparent" points="384.5,-116 384.5,-134 410.5,-134 410.5,-116 384.5,-116"/>
<polygon fill="none" stroke="black" points="384.5,-116 384.5,-134 410.5,-134 410.5,-116 384.5,-116"/>
<text text-anchor="start" x="387.5" y="-122.2" font-family="Helvetica,sans-Serif" font-size="11.00">1 &gt;</text>
</a>
</g>
</g>
<!-- line_to_sign&#45;&gt;line -->
<g id="edge4" class="edge">
<title>line_to_sign:w&#45;&gt;line:e</title>
<path fill="none" stroke="black" d="M251.83,-143.84C203.43,-149.58 190.84,-183 135,-183"/>
<polygon fill="black" stroke="black" points="258.51,-143.45 266.7,-146.59 262.51,-143.23 266.5,-143 266.5,-143 266.5,-143 262.51,-143.23 266.3,-139.41 258.51,-143.45 258.51,-143.45"/>
<ellipse fill="none" stroke="black" cx="255.32" cy="-143.64" rx="3.2" ry="3.2"/>
</g>
<!-- manuscript_to_text_fragment -->
<g id="node8" class="node">
<title>manuscript_to_text_fragment</title>
<g id="a_node8"><a xlink:href="../../tables/manuscript_to_text_fragment.html" xlink:title="manuscript_to_text_fragment" target="_top">
<polygon fill="#ffffff" stroke="transparent" points="223.5,-511 223.5,-569 453.5,-569 453.5,-511 223.5,-511"/>
<polygon fill="#f5f5f5" stroke="transparent" points="223.5,-547 223.5,-569 453.5,-569 453.5,-547 223.5,-547"/>
<polygon fill="none" stroke="black" points="223.5,-547 223.5,-569 453.5,-569 453.5,-547 223.5,-547"/>
<text text-anchor="start" x="228.5" y="-556.2" font-family="Helvetica,sans-Serif" font-weight="bold" font-size="11.00">manuscript_to_text_fragment</text>
<text text-anchor="start" x="411.5" y="-555.2" font-family="Helvetica,sans-Serif" font-size="11.00">[table]</text>
<polygon fill="none" stroke="black" points="223.5,-529 223.5,-547 453.5,-547 453.5,-529 223.5,-529"/>
<text text-anchor="start" x="226.5" y="-535.2" font-family="Helvetica,sans-Serif" font-size="11.00">...</text>
<polygon fill="#ffffff" stroke="transparent" points="223.5,-511 223.5,-529 301.5,-529 301.5,-511 223.5,-511"/>
<polygon fill="none" stroke="black" points="223.5,-511 223.5,-529 301.5,-529 301.5,-511 223.5,-511"/>
<text text-anchor="start" x="226.5" y="-517.2" font-family="Helvetica,sans-Serif" font-size="11.00">&lt; 2</text>
<polygon fill="#ffffff" stroke="transparent" points="301.5,-511 301.5,-529 401.5,-529 401.5,-511 301.5,-511"/>
<polygon fill="none" stroke="black" points="301.5,-511 301.5,-529 401.5,-529 401.5,-511 301.5,-511"/>
<text text-anchor="start" x="330.5" y="-517.2" font-family="Helvetica,sans-Serif" font-size="11.00">11,166 rows</text>
<polygon fill="#ffffff" stroke="transparent" points="401.5,-511 401.5,-529 453.5,-529 453.5,-511 401.5,-511"/>
<polygon fill="none" stroke="black" points="401.5,-511 401.5,-529 453.5,-529 453.5,-511 401.5,-511"/>
<text text-anchor="start" x="430.5" y="-517.2" font-family="Helvetica,sans-Serif" font-size="11.00">1 &gt;</text>
</a>
</g>
</g>
<!-- manuscript_to_text_fragment&#45;&gt;text_fragment -->
<g id="edge5" class="edge">
<title>manuscript_to_text_fragment:w&#45;&gt;text_fragment:e</title>
<path fill="none" stroke="black" d="M208.25,-540.69C168.15,-558.25 203.67,-656 147,-656"/>
<polygon fill="black" stroke="black" points="214.64,-539.48 223.17,-541.54 218.57,-538.74 222.5,-538 222.5,-538 222.5,-538 218.57,-538.74 221.83,-534.46 214.64,-539.48 214.64,-539.48"/>
<ellipse fill="none" stroke="black" cx="211.49" cy="-540.08" rx="3.2" ry="3.2"/>
</g>
<!-- position_in_text_fragment_stream -->
<g id="node9" class="node">
<title>position_in_text_fragment_stream</title>
<g id="a_node9"><a xlink:href="../../tables/position_in_text_fragment_stream.html" xlink:title="position_in_text_fragment_stream" target="_top">
<polygon fill="#ffffff" stroke="transparent" points="209.5,-748 209.5,-806 467.5,-806 467.5,-748 209.5,-748"/>
<polygon fill="#f5f5f5" stroke="transparent" points="209.5,-784 209.5,-806 467.5,-806 467.5,-784 209.5,-784"/>
<polygon fill="none" stroke="black" points="209.5,-784 209.5,-806 467.5,-806 467.5,-784 209.5,-784"/>
<text text-anchor="start" x="214.5" y="-793.2" font-family="Helvetica,sans-Serif" font-weight="bold" font-size="11.00">position_in_text_fragment_stream</text>
<text text-anchor="start" x="425.5" y="-792.2" font-family="Helvetica,sans-Serif" font-size="11.00">[table]</text>
<polygon fill="none" stroke="black" points="209.5,-766 209.5,-784 467.5,-784 467.5,-766 209.5,-766"/>
<text text-anchor="start" x="212.5" y="-772.2" font-family="Helvetica,sans-Serif" font-size="11.00">...</text>
<polygon fill="#ffffff" stroke="transparent" points="209.5,-748 209.5,-766 301.5,-766 301.5,-748 209.5,-748"/>
<polygon fill="none" stroke="black" points="209.5,-748 209.5,-766 301.5,-766 301.5,-748 209.5,-748"/>
<text text-anchor="start" x="212.5" y="-754.2" font-family="Helvetica,sans-Serif" font-size="11.00">&lt; 2</text>
<polygon fill="#ffffff" stroke="transparent" points="301.5,-748 301.5,-766 408.5,-766 408.5,-748 301.5,-748"/>
<polygon fill="none" stroke="black" points="301.5,-748 301.5,-766 408.5,-766 408.5,-748 301.5,-748"/>
<text text-anchor="start" x="337.5" y="-754.2" font-family="Helvetica,sans-Serif" font-size="11.00">10,852 rows</text>
<polygon fill="#ffffff" stroke="transparent" points="408.5,-748 408.5,-766 467.5,-766 467.5,-748 408.5,-748"/>
<polygon fill="none" stroke="black" points="408.5,-748 408.5,-766 467.5,-766 467.5,-748 408.5,-748"/>
<text text-anchor="start" x="444.5" y="-754.2" font-family="Helvetica,sans-Serif" font-size="11.00">1 &gt;</text>
</a>
</g>
</g>
<!-- position_in_text_fragment_stream&#45;&gt;text_fragment -->
<g id="edge6" class="edge">
<title>position_in_text_fragment_stream:w&#45;&gt;text_fragment:e</title>
<path fill="none" stroke="black" d="M194.65,-770.53C158.73,-747.79 200.95,-650.56 147,-656"/>
<polygon fill="black" stroke="black" points="200.89,-772.54 207.39,-778.43 204.69,-773.77 208.5,-775 208.5,-775 208.5,-775 204.69,-773.77 209.61,-771.57 200.89,-772.54 200.89,-772.54"/>
<ellipse fill="none" stroke="black" cx="197.84" cy="-771.56" rx="3.2" ry="3.2"/>
</g>
<!-- position_in_text_fragment_stream&#45;&gt;text_fragment -->
<g id="edge7" class="edge">
<title>position_in_text_fragment_stream:w&#45;&gt;text_fragment:e</title>
<path fill="none" stroke="black" d="M193.74,-773.48C159.45,-758.98 200.49,-662.29 147,-656"/>
<polygon fill="black" stroke="black" points="200.54,-774.18 208.13,-778.58 204.52,-774.59 208.5,-775 208.5,-775 208.5,-775 204.52,-774.59 208.87,-771.42 200.54,-774.18 200.54,-774.18"/>
<ellipse fill="none" stroke="black" cx="197.36" cy="-773.86" rx="3.2" ry="3.2"/>
</g>
<!-- qwb_ref -->
<g id="node10" class="node">
<title>qwb_ref</title>
<g id="a_node10"><a xlink:href="../../tables/qwb_ref.html" xlink:title="qwb_ref" target="_top">
<polygon fill="#ffffff" stroke="transparent" points="281.5,-37 281.5,-95 395.5,-95 395.5,-37 281.5,-37"/>
<polygon fill="#f5f5f5" stroke="transparent" points="281.5,-73 281.5,-95 395.5,-95 395.5,-73 281.5,-73"/>
<polygon fill="none" stroke="black" points="281.5,-73 281.5,-95 395.5,-95 395.5,-73 281.5,-73"/>
<text text-anchor="start" x="286.5" y="-82.2" font-family="Helvetica,sans-Serif" font-weight="bold" font-size="11.00">qwb_ref</text>
<text text-anchor="start" x="353.5" y="-81.2" font-family="Helvetica,sans-Serif" font-size="11.00">[table]</text>
<polygon fill="none" stroke="black" points="281.5,-55 281.5,-73 395.5,-73 395.5,-55 281.5,-55"/>
<text text-anchor="start" x="284.5" y="-61.2" font-family="Helvetica,sans-Serif" font-size="11.00">...</text>
<polygon fill="#ffffff" stroke="transparent" points="281.5,-37 281.5,-55 307.5,-55 307.5,-37 281.5,-37"/>
<polygon fill="none" stroke="black" points="281.5,-37 281.5,-55 307.5,-55 307.5,-37 281.5,-37"/>
<text text-anchor="start" x="284.5" y="-43.2" font-family="Helvetica,sans-Serif" font-size="11.00">&lt; 1</text>
<polygon fill="#ffffff" stroke="transparent" points="307.5,-37 307.5,-55 381.5,-55 381.5,-37 307.5,-37"/>
<polygon fill="none" stroke="black" points="307.5,-37 307.5,-55 381.5,-55 381.5,-37 307.5,-37"/>
<text text-anchor="start" x="310.5" y="-43.2" font-family="Helvetica,sans-Serif" font-size="11.00">54,165 rows</text>
<polygon fill="#ffffff" stroke="transparent" points="381.5,-37 381.5,-55 395.5,-55 395.5,-37 381.5,-37"/>
<polygon fill="none" stroke="black" points="381.5,-37 381.5,-55 395.5,-55 395.5,-37 381.5,-37"/>
<text text-anchor="start" x="384.5" y="-43.2" font-family="Helvetica,sans-Serif" font-size="11.00"> &#160;</text>
</a>
</g>
</g>
<!-- qwb_ref&#45;&gt;line -->
<g id="edge8" class="edge">
<title>qwb_ref:w&#45;&gt;line:e</title>
<path fill="none" stroke="black" stroke-dasharray="5,2" d="M265.78,-64.5C231.7,-67.01 217.69,-79.25 187,-105 155.08,-131.78 176.66,-183 135,-183"/>
<polygon fill="black" stroke="black" points="272.5,-64.27 280.62,-67.6 276.5,-64.13 280.5,-64 280.5,-64 280.5,-64 276.5,-64.13 280.38,-60.4 272.5,-64.27 272.5,-64.27"/>
<ellipse fill="none" stroke="black" cx="269.31" cy="-64.38" rx="3.2" ry="3.2"/>
</g>
<!-- text_fragment_data -->
<g id="node11" class="node">
<title>text_fragment_data</title>
<g id="a_node11"><a xlink:href="../../tables/text_fragment_data.html" xlink:title="text_fragment_data" target="_top">
<polygon fill="#ffffff" stroke="transparent" points="253,-669 253,-727 424,-727 424,-669 253,-669"/>
<polygon fill="#f5f5f5" stroke="transparent" points="253.5,-705 253.5,-727 424.5,-727 424.5,-705 253.5,-705"/>
<polygon fill="none" stroke="black" points="253.5,-705 253.5,-727 424.5,-727 424.5,-705 253.5,-705"/>
<text text-anchor="start" x="258.5" y="-714.2" font-family="Helvetica,sans-Serif" font-weight="bold" font-size="11.00">text_fragment_data</text>
<text text-anchor="start" x="382.5" y="-713.2" font-family="Helvetica,sans-Serif" font-size="11.00">[table]</text>
<polygon fill="none" stroke="black" points="253.5,-687 253.5,-705 424.5,-705 424.5,-687 253.5,-687"/>
<text text-anchor="start" x="256.5" y="-693.2" font-family="Helvetica,sans-Serif" font-size="11.00">...</text>
<polygon fill="#ffffff" stroke="transparent" points="253.5,-669 253.5,-687 301.5,-687 301.5,-669 253.5,-669"/>
<polygon fill="none" stroke="black" points="253.5,-669 253.5,-687 301.5,-687 301.5,-669 253.5,-669"/>
<text text-anchor="start" x="256.5" y="-675.2" font-family="Helvetica,sans-Serif" font-size="11.00">&lt; 1</text>
<polygon fill="#ffffff" stroke="transparent" points="301.5,-669 301.5,-687 386.5,-687 386.5,-669 301.5,-669"/>
<polygon fill="none" stroke="black" points="301.5,-669 301.5,-687 386.5,-687 386.5,-669 301.5,-669"/>
<text text-anchor="start" x="315.5" y="-675.2" font-family="Helvetica,sans-Serif" font-size="11.00">11,172 rows</text>
<polygon fill="#ffffff" stroke="transparent" points="386.5,-669 386.5,-687 424.5,-687 424.5,-669 386.5,-669"/>
<polygon fill="none" stroke="black" points="386.5,-669 386.5,-687 424.5,-687 424.5,-669 386.5,-669"/>
<text text-anchor="start" x="401.5" y="-675.2" font-family="Helvetica,sans-Serif" font-size="11.00">1 &gt;</text>
</a>
</g>
</g>
<!-- text_fragment_data&#45;&gt;text_fragment -->
<g id="edge9" class="edge">
<title>text_fragment_data:w&#45;&gt;text_fragment:e</title>
<path fill="none" stroke="black" d="M238.03,-694.76C200.76,-688.01 191.86,-656 147,-656"/>
<polygon fill="black" stroke="black" points="244.53,-695.32 252.19,-699.59 248.51,-695.66 252.5,-696 252.5,-696 252.5,-696 248.51,-695.66 252.81,-692.41 244.53,-695.32 244.53,-695.32"/>
<ellipse fill="none" stroke="black" cx="241.34" cy="-695.04" rx="3.2" ry="3.2"/>
</g>
<!-- text_fragment_to_line -->
<g id="node12" class="node">
<title>text_fragment_to_line</title>
<g id="a_node12"><a xlink:href="../../tables/text_fragment_to_line.html" xlink:title="text_fragment_to_line" target="_top">
<polygon fill="#ffffff" stroke="transparent" points="195,-380 195,-490 482,-490 482,-380 195,-380"/>
<polygon fill="#f5f5f5" stroke="transparent" points="197.5,-466 197.5,-488 480.5,-488 480.5,-466 197.5,-466"/>
<polygon fill="none" stroke="black" points="197.5,-466 197.5,-488 480.5,-488 480.5,-466 197.5,-466"/>
<text text-anchor="start" x="202.5" y="-475.2" font-family="Helvetica,sans-Serif" font-weight="bold" font-size="11.00">text_fragment_to_line</text>
<text text-anchor="start" x="438.5" y="-474.2" font-family="Helvetica,sans-Serif" font-size="11.00">[table]</text>
<polygon fill="none" stroke="black" points="197.5,-444 197.5,-466 383.5,-466 383.5,-444 197.5,-444"/>
<image xlink:href="../../images/primaryKeys.png" width="11px" height="12px" preserveAspectRatio="xMinYMin meet" x="202.5" y="-461"/>
<text text-anchor="start" x="217.5" y="-452.2" font-family="Helvetica,sans-Serif" font-size="11.00">text_fragment_to_line_id</text>
<polygon fill="none" stroke="black" points="383.5,-444 383.5,-466 480.5,-466 480.5,-444 383.5,-444"/>
<text text-anchor="start" x="386.5" y="-452.2" font-family="Helvetica,sans-Serif" font-size="11.00">int unsigned[10]</text>
<polygon fill="#ffffff" stroke="transparent" points="197.5,-422 197.5,-444 383.5,-444 383.5,-422 197.5,-422"/>
<polygon fill="none" stroke="black" points="197.5,-422 197.5,-444 383.5,-444 383.5,-422 197.5,-422"/>
<image xlink:href="../../images/foreignKeys.png" width="11px" height="12px" preserveAspectRatio="xMinYMin meet" x="202.5" y="-439"/>
<text text-anchor="start" x="217.5" y="-430.2" font-family="Helvetica,sans-Serif" font-size="11.00">text_fragment_id</text>
<polygon fill="none" stroke="black" points="383.5,-422 383.5,-444 480.5,-444 480.5,-422 383.5,-422"/>
<text text-anchor="start" x="386.5" y="-430.2" font-family="Helvetica,sans-Serif" font-size="11.00">int unsigned[10]</text>
<polygon fill="#ffffff" stroke="transparent" points="197.5,-400 197.5,-422 383.5,-422 383.5,-400 197.5,-400"/>
<polygon fill="none" stroke="black" points="197.5,-400 197.5,-422 383.5,-422 383.5,-400 197.5,-400"/>
<image xlink:href="../../images/foreignKeys.png" width="11px" height="12px" preserveAspectRatio="xMinYMin meet" x="202.5" y="-417"/>
<text text-anchor="start" x="217.5" y="-408.2" font-family="Helvetica,sans-Serif" font-size="11.00">line_id</text>
<polygon fill="none" stroke="black" points="383.5,-400 383.5,-422 480.5,-422 480.5,-400 383.5,-400"/>
<text text-anchor="start" x="386.5" y="-408.2" font-family="Helvetica,sans-Serif" font-size="11.00">int unsigned[10]</text>
<polygon fill="#ffffff" stroke="transparent" points="197.5,-382 197.5,-400 266.5,-400 266.5,-382 197.5,-382"/>
<polygon fill="none" stroke="black" points="197.5,-382 197.5,-400 266.5,-400 266.5,-382 197.5,-382"/>
<text text-anchor="start" x="200.5" y="-388.2" font-family="Helvetica,sans-Serif" font-size="11.00">&lt; 2</text>
<polygon fill="#ffffff" stroke="transparent" points="266.5,-382 266.5,-400 383.5,-400 383.5,-382 266.5,-382"/>
<polygon fill="none" stroke="black" points="266.5,-382 266.5,-400 383.5,-400 383.5,-382 266.5,-382"/>
<text text-anchor="start" x="312.5" y="-388.2" font-family="Helvetica,sans-Serif" font-size="11.00">53,405 rows</text>
<polygon fill="#ffffff" stroke="transparent" points="383.5,-382 383.5,-400 480.5,-400 480.5,-382 383.5,-382"/>
<polygon fill="none" stroke="black" points="383.5,-382 383.5,-400 480.5,-400 480.5,-382 383.5,-382"/>
<text text-anchor="start" x="457.5" y="-388.2" font-family="Helvetica,sans-Serif" font-size="11.00">1 &gt;</text>
<polygon fill="none" stroke="black" stroke-width="2" points="196,-381 196,-489 481,-489 481,-381 196,-381"/>
</a>
</g>
</g>
<!-- text_fragment_to_line&#45;&gt;text_fragment -->
<g id="edge11" class="edge">
<title>text_fragment_to_line:w&#45;&gt;text_fragment:e</title>
<path fill="none" stroke="black" d="M182.05,-434.93C111.01,-456.72 242.97,-656 147,-656"/>
<polygon fill="black" stroke="black" points="188.57,-434.06 196.98,-436.57 192.54,-433.53 196.5,-433 196.5,-433 196.5,-433 192.54,-433.53 196.02,-429.43 188.57,-434.06 188.57,-434.06"/>
<ellipse fill="none" stroke="black" cx="185.4" cy="-434.48" rx="3.2" ry="3.2"/>
</g>
<!-- text_fragment_to_line&#45;&gt;line -->
<g id="edge10" class="edge">
<title>text_fragment_to_line:w&#45;&gt;line:e</title>
<path fill="none" stroke="black" d="M181.94,-409.16C106.49,-387.59 234.42,-183 135,-183"/>
<polygon fill="black" stroke="black" points="188.56,-410 196.05,-414.57 192.53,-410.5 196.5,-411 196.5,-411 196.5,-411 192.53,-410.5 196.95,-407.43 188.56,-410 188.56,-410"/>
<ellipse fill="none" stroke="black" cx="185.39" cy="-409.6" rx="3.2" ry="3.2"/>
</g>
<!-- text_fragment_to_line_owner -->
<g id="node13" class="node">
<title>text_fragment_to_line_owner</title>
<g id="a_node13"><a xlink:href="../../tables/text_fragment_to_line_owner.html" xlink:title="text_fragment_to_line_owner" target="_top">
<polygon fill="#ffffff" stroke="transparent" points="531,-277 531,-383 758,-383 758,-277 531,-277"/>
<polygon fill="#f5f5f5" stroke="transparent" points="531.5,-361 531.5,-383 758.5,-383 758.5,-361 531.5,-361"/>
<polygon fill="none" stroke="black" points="531.5,-361 531.5,-383 758.5,-383 758.5,-361 531.5,-361"/>
<text text-anchor="start" x="536.5" y="-370.2" font-family="Helvetica,sans-Serif" font-weight="bold" font-size="11.00">text_fragment_to_line_owner</text>
<text text-anchor="start" x="716.5" y="-369.2" font-family="Helvetica,sans-Serif" font-size="11.00">[table]</text>
<polygon fill="none" stroke="black" points="531.5,-339 531.5,-361 758.5,-361 758.5,-339 531.5,-339"/>
<image xlink:href="../../images/primaryKeys.png" width="11px" height="12px" preserveAspectRatio="xMinYMin meet" x="536.5" y="-356"/>
<text text-anchor="start" x="557.5" y="-347.2" font-family="Helvetica,sans-Serif" font-size="11.00">text_fragment_to_line_id</text>
<polygon fill="#ffffff" stroke="transparent" points="531.5,-317 531.5,-339 758.5,-339 758.5,-317 531.5,-317"/>
<polygon fill="none" stroke="black" points="531.5,-317 531.5,-339 758.5,-339 758.5,-317 531.5,-317"/>
<image xlink:href="../../images/foreignKeys.png" width="11px" height="12px" preserveAspectRatio="xMinYMin meet" x="536.5" y="-334"/>
<text text-anchor="start" x="557.5" y="-325.2" font-family="Helvetica,sans-Serif" font-size="11.00">edition_editor_id</text>
<polygon fill="none" stroke="black" points="531.5,-295 531.5,-317 758.5,-317 758.5,-295 531.5,-295"/>
<image xlink:href="../../images/primaryKeys.png" width="11px" height="12px" preserveAspectRatio="xMinYMin meet" x="536.5" y="-312"/>
<text text-anchor="start" x="557.5" y="-303.2" font-family="Helvetica,sans-Serif" font-size="11.00">edition_id</text>
<polygon fill="#ffffff" stroke="transparent" points="531.5,-277 531.5,-295 629.5,-295 629.5,-277 531.5,-277"/>
<polygon fill="none" stroke="black" points="531.5,-277 531.5,-295 629.5,-295 629.5,-277 531.5,-277"/>
<text text-anchor="start" x="534.5" y="-283.2" font-family="Helvetica,sans-Serif" font-size="11.00">&lt; 3</text>
<polygon fill="#ffffff" stroke="transparent" points="629.5,-277 629.5,-295 708.5,-295 708.5,-277 629.5,-277"/>
<polygon fill="none" stroke="black" points="629.5,-277 629.5,-295 708.5,-295 708.5,-277 629.5,-277"/>
<text text-anchor="start" x="668.5" y="-283.2" font-family="Helvetica,sans-Serif" font-size="11.00">0 rows</text>
<polygon fill="#ffffff" stroke="transparent" points="708.5,-277 708.5,-295 758.5,-295 758.5,-277 708.5,-277"/>
<polygon fill="none" stroke="black" points="708.5,-277 708.5,-295 758.5,-295 758.5,-277 708.5,-277"/>
<text text-anchor="start" x="747.5" y="-283.2" font-family="Helvetica,sans-Serif" font-size="11.00"> &#160;</text>
</a>
</g>
</g>
<!-- text_fragment_to_line_owner&#45;&gt;edition_editor -->
<g id="edge12" class="edge">
<title>text_fragment_to_line_owner:w&#45;&gt;edition_editor:e</title>
<path fill="none" stroke="black" d="M515.86,-328C472.84,-328 456.93,-328 407.5,-328"/>
<polygon fill="black" stroke="black" points="522.5,-328 530.5,-331.6 526.5,-328 530.5,-328 530.5,-328 530.5,-328 526.5,-328 530.5,-324.4 522.5,-328 522.5,-328"/>
<ellipse fill="none" stroke="black" cx="519.3" cy="-328" rx="3.2" ry="3.2"/>
</g>
<!-- text_fragment_to_line_owner&#45;&gt;edition -->
<g id="edge13" class="edge">
<title>text_fragment_to_line_owner:w&#45;&gt;edition:e</title>
<path fill="none" stroke="black" d="M516.36,-303.02C508.16,-299.12 503.07,-292.49 490,-290 357.71,-264.82 317.24,-255.74 187,-290 164.29,-295.97 164.48,-316 141,-316"/>
<polygon fill="black" stroke="black" points="522.67,-304.35 529.76,-309.52 526.59,-305.17 530.5,-306 530.5,-306 530.5,-306 526.59,-305.17 531.24,-302.48 522.67,-304.35 522.67,-304.35"/>
<ellipse fill="none" stroke="black" cx="519.54" cy="-303.69" rx="3.2" ry="3.2"/>
</g>
<!-- text_fragment_to_line_owner&#45;&gt;text_fragment_to_line -->
<g id="edge14" class="edge">
<title>text_fragment_to_line_owner:w&#45;&gt;text_fragment_to_line:e</title>
<path fill="none" stroke="black" d="M516.4,-353.99C490.21,-373.17 526.96,-455 481.5,-455"/>
<polygon fill="black" stroke="black" points="522.8,-352.18 531.48,-353.46 526.65,-351.09 530.5,-350 530.5,-350 530.5,-350 526.65,-351.09 529.52,-346.54 522.8,-352.18 522.8,-352.18"/>
<ellipse fill="none" stroke="black" cx="519.72" cy="-353.05" rx="3.2" ry="3.2"/>
</g>
</g>
</svg>
