<?xml version="1.0" encoding="UTF-8" standalone="no"?>
<!DOCTYPE svg PUBLIC "-//W3C//DTD SVG 1.1//EN"
 "http://www.w3.org/Graphics/SVG/1.1/DTD/svg11.dtd">
<!-- Generated by graphviz version 2.43.0 (0)
 -->
<!-- Title: twoDegreesRelationshipsDiagram Pages: 1 -->
<svg width="753pt" height="580pt"
 viewBox="0.00 0.00 753.00 580.00" xmlns="http://www.w3.org/2000/svg" xmlns:xlink="http://www.w3.org/1999/xlink">
<g id="graph0" class="graph" transform="scale(1 1) rotate(0) translate(4 576)">
<title>twoDegreesRelationshipsDiagram</title>
<polygon fill="#ffffff" stroke="transparent" points="-4,4 -4,-576 749,-576 749,4 -4,4"/>
<text text-anchor="middle" x="79.5" y="-7.2" font-family="Helvetica,sans-Serif" font-size="11.00">Generated by SchemaSpy</text>
<!-- edition_editor -->
<g id="node1" class="node">
<title>edition_editor</title>
<g id="a_node1"><a xlink:href="../../tables/edition_editor.html" xlink:title="edition_editor" target="_top">
<polygon fill="#ffffff" stroke="transparent" points="266.5,-63 266.5,-121 402.5,-121 402.5,-63 266.5,-63"/>
<polygon fill="#f5f5f5" stroke="transparent" points="266.5,-99 266.5,-121 402.5,-121 402.5,-99 266.5,-99"/>
<polygon fill="none" stroke="black" points="266.5,-99 266.5,-121 402.5,-121 402.5,-99 266.5,-99"/>
<text text-anchor="start" x="271.5" y="-108.2" font-family="Helvetica,sans-Serif" font-weight="bold" font-size="11.00">edition_editor</text>
<text text-anchor="start" x="360.5" y="-107.2" font-family="Helvetica,sans-Serif" font-size="11.00">[table]</text>
<polygon fill="none" stroke="black" points="266.5,-81 266.5,-99 402.5,-99 402.5,-81 266.5,-81"/>
<text text-anchor="start" x="269.5" y="-87.2" font-family="Helvetica,sans-Serif" font-size="11.00">...</text>
<polygon fill="#ffffff" stroke="transparent" points="266.5,-63 266.5,-81 297.5,-81 297.5,-63 266.5,-63"/>
<polygon fill="none" stroke="black" points="266.5,-63 266.5,-81 297.5,-81 297.5,-63 266.5,-63"/>
<text text-anchor="start" x="269.5" y="-69.2" font-family="Helvetica,sans-Serif" font-size="11.00">&lt; 2</text>
<polygon fill="#ffffff" stroke="transparent" points="297.5,-63 297.5,-81 366.5,-81 366.5,-63 297.5,-63"/>
<polygon fill="none" stroke="black" points="297.5,-63 297.5,-81 366.5,-81 366.5,-63 297.5,-63"/>
<text text-anchor="start" x="302.5" y="-69.2" font-family="Helvetica,sans-Serif" font-size="11.00">1,645 rows</text>
<polygon fill="#ffffff" stroke="transparent" points="366.5,-63 366.5,-81 402.5,-81 402.5,-63 366.5,-63"/>
<polygon fill="none" stroke="black" points="366.5,-63 366.5,-81 402.5,-81 402.5,-63 366.5,-63"/>
<text text-anchor="start" x="372.5" y="-69.2" font-family="Helvetica,sans-Serif" font-size="11.00">33 &gt;</text>
</a>
</g>
</g>
<!-- edition -->
<g id="node2" class="node">
<title>edition</title>
<g id="a_node2"><a xlink:href="../../tables/edition.html" xlink:title="edition" target="_top">
<polygon fill="#ffffff" stroke="transparent" points="14,-37 14,-95 140,-95 140,-37 14,-37"/>
<polygon fill="#f5f5f5" stroke="transparent" points="14,-73 14,-95 140,-95 140,-73 14,-73"/>
<polygon fill="none" stroke="black" points="14,-73 14,-95 140,-95 140,-73 14,-73"/>
<text text-anchor="start" x="19" y="-82.2" font-family="Helvetica,sans-Serif" font-weight="bold" font-size="11.00">edition</text>
<text text-anchor="start" x="98" y="-81.2" font-family="Helvetica,sans-Serif" font-size="11.00">[table]</text>
<polygon fill="none" stroke="black" points="14,-55 14,-73 140,-73 140,-55 14,-55"/>
<text text-anchor="start" x="17" y="-61.2" font-family="Helvetica,sans-Serif" font-size="11.00">...</text>
<polygon fill="#ffffff" stroke="transparent" points="14,-37 14,-55 40,-55 40,-37 14,-37"/>
<polygon fill="none" stroke="black" points="14,-37 14,-55 40,-55 40,-37 14,-37"/>
<text text-anchor="start" x="17" y="-43.2" font-family="Helvetica,sans-Serif" font-size="11.00">&lt; 1</text>
<polygon fill="#ffffff" stroke="transparent" points="40,-37 40,-55 107,-55 107,-37 40,-37"/>
<polygon fill="none" stroke="black" points="40,-37 40,-55 107,-55 107,-37 40,-37"/>
<text text-anchor="start" x="43" y="-43.2" font-family="Helvetica,sans-Serif" font-size="11.00">1,645 rows</text>
<polygon fill="#ffffff" stroke="transparent" points="107,-37 107,-55 140,-55 140,-37 107,-37"/>
<polygon fill="none" stroke="black" points="107,-37 107,-55 140,-55 140,-37 107,-37"/>
<text text-anchor="start" x="110" y="-43.2" font-family="Helvetica,sans-Serif" font-size="11.00">35 &gt;</text>
</a>
</g>
</g>
<!-- edition_editor&#45;&gt;edition -->
<g id="edge1" class="edge">
<title>edition_editor:w&#45;&gt;edition:e</title>
<path fill="none" stroke="black" d="M251,-89.38C206.49,-85.45 192.34,-64 141,-64"/>
<polygon fill="black" stroke="black" points="257.51,-89.66 265.35,-93.6 261.5,-89.83 265.5,-90 265.5,-90 265.5,-90 261.5,-89.83 265.65,-86.4 257.51,-89.66 257.51,-89.66"/>
<ellipse fill="none" stroke="black" cx="254.31" cy="-89.52" rx="3.2" ry="3.2"/>
</g>
<!-- iaa_edition_catalog_to_text_fragment -->
<g id="node3" class="node">
<title>iaa_edition_catalog_to_text_fragment</title>
<g id="a_node3"><a xlink:href="../../tables/iaa_edition_catalog_to_text_fragment.html" xlink:title="iaa_edition_catalog_to_text_fragment" target="_top">
<polygon fill="#ffffff" stroke="transparent" points="195,-379 195,-437 474,-437 474,-379 195,-379"/>
<polygon fill="#f5f5f5" stroke="transparent" points="195.5,-415 195.5,-437 474.5,-437 474.5,-415 195.5,-415"/>
<polygon fill="none" stroke="black" points="195.5,-415 195.5,-437 474.5,-437 474.5,-415 195.5,-415"/>
<text text-anchor="start" x="200.5" y="-424.2" font-family="Helvetica,sans-Serif" font-weight="bold" font-size="11.00">iaa_edition_catalog_to_text_fragment</text>
<text text-anchor="start" x="432.5" y="-423.2" font-family="Helvetica,sans-Serif" font-size="11.00">[table]</text>
<polygon fill="none" stroke="black" points="195.5,-397 195.5,-415 474.5,-415 474.5,-397 195.5,-397"/>
<text text-anchor="start" x="198.5" y="-403.2" font-family="Helvetica,sans-Serif" font-size="11.00">...</text>
<polygon fill="#ffffff" stroke="transparent" points="195.5,-379 195.5,-397 297.5,-397 297.5,-379 195.5,-379"/>
<polygon fill="none" stroke="black" points="195.5,-379 195.5,-397 297.5,-397 297.5,-379 195.5,-379"/>
<text text-anchor="start" x="198.5" y="-385.2" font-family="Helvetica,sans-Serif" font-size="11.00">&lt; 2</text>
<polygon fill="#ffffff" stroke="transparent" points="297.5,-379 297.5,-397 409.5,-397 409.5,-379 297.5,-379"/>
<polygon fill="none" stroke="black" points="297.5,-379 297.5,-397 409.5,-397 409.5,-379 297.5,-379"/>
<text text-anchor="start" x="338.5" y="-385.2" font-family="Helvetica,sans-Serif" font-size="11.00">15,236 rows</text>
<polygon fill="#ffffff" stroke="transparent" points="409.5,-379 409.5,-397 474.5,-397 474.5,-379 409.5,-379"/>
<polygon fill="none" stroke="black" points="409.5,-379 409.5,-397 474.5,-397 474.5,-379 409.5,-379"/>
<text text-anchor="start" x="451.5" y="-385.2" font-family="Helvetica,sans-Serif" font-size="11.00">1 &gt;</text>
</a>
</g>
</g>
<!-- text_fragment -->
<g id="node4" class="node">
<title>text_fragment</title>
<g id="a_node4"><a xlink:href="../../tables/text_fragment.html" xlink:title="text_fragment" target="_top">
<polygon fill="#ffffff" stroke="transparent" points="8,-258 8,-320 146,-320 146,-258 8,-258"/>
<polygon fill="#f5f5f5" stroke="transparent" points="8,-298 8,-320 146,-320 146,-298 8,-298"/>
<polygon fill="none" stroke="black" points="8,-298 8,-320 146,-320 146,-298 8,-298"/>
<text text-anchor="start" x="13" y="-307.2" font-family="Helvetica,sans-Serif" font-weight="bold" font-size="11.00">text_fragment</text>
<text text-anchor="start" x="104" y="-306.2" font-family="Helvetica,sans-Serif" font-size="11.00">[table]</text>
<polygon fill="none" stroke="black" points="8,-276 8,-298 146,-298 146,-276 8,-276"/>
<image xlink:href="../../images/primaryKeys.png" width="11px" height="12px" preserveAspectRatio="xMinYMin meet" x="13" y="-293"/>
<text text-anchor="start" x="30" y="-284.2" font-family="Helvetica,sans-Serif" font-size="11.00">text_fragment_id</text>
<polygon fill="#ffffff" stroke="transparent" points="8,-258 8,-276 34,-276 34,-258 8,-258"/>
<polygon fill="none" stroke="black" points="8,-258 8,-276 34,-276 34,-258 8,-258"/>
<text text-anchor="start" x="11" y="-264.2" font-family="Helvetica,sans-Serif" font-size="11.00"> &#160;</text>
<polygon fill="#ffffff" stroke="transparent" points="34,-258 34,-276 114,-276 114,-258 34,-258"/>
<polygon fill="none" stroke="black" points="34,-258 34,-276 114,-276 114,-258 34,-258"/>
<text text-anchor="start" x="43" y="-264.2" font-family="Helvetica,sans-Serif" font-size="11.00">11,176 rows</text>
<polygon fill="#ffffff" stroke="transparent" points="114,-258 114,-276 146,-276 146,-258 114,-258"/>
<polygon fill="none" stroke="black" points="114,-258 114,-276 146,-276 146,-258 114,-258"/>
<text text-anchor="start" x="123" y="-264.2" font-family="Helvetica,sans-Serif" font-size="11.00">6 &gt;</text>
</a>
</g>
</g>
<!-- iaa_edition_catalog_to_text_fragment&#45;&gt;text_fragment -->
<g id="edge2" class="edge">
<title>iaa_edition_catalog_to_text_fragment:w&#45;&gt;text_fragment:e</title>
<path fill="none" stroke="black" d="M180.31,-402.31C150.19,-382.22 197.94,-287 147,-287"/>
<polygon fill="black" stroke="black" points="186.76,-403.99 193.59,-409.48 190.63,-404.99 194.5,-406 194.5,-406 194.5,-406 190.63,-404.99 195.41,-402.52 186.76,-403.99 186.76,-403.99"/>
<ellipse fill="none" stroke="black" cx="183.66" cy="-403.18" rx="3.2" ry="3.2"/>
</g>
<!-- manuscript_to_text_fragment -->
<g id="node5" class="node">
<title>manuscript_to_text_fragment</title>
<g id="a_node5"><a xlink:href="../../tables/manuscript_to_text_fragment.html" xlink:title="manuscript_to_text_fragment" target="_top">
<polygon fill="#ffffff" stroke="transparent" points="219.5,-300 219.5,-358 449.5,-358 449.5,-300 219.5,-300"/>
<polygon fill="#f5f5f5" stroke="transparent" points="219.5,-336 219.5,-358 449.5,-358 449.5,-336 219.5,-336"/>
<polygon fill="none" stroke="black" points="219.5,-336 219.5,-358 449.5,-358 449.5,-336 219.5,-336"/>
<text text-anchor="start" x="224.5" y="-345.2" font-family="Helvetica,sans-Serif" font-weight="bold" font-size="11.00">manuscript_to_text_fragment</text>
<text text-anchor="start" x="407.5" y="-344.2" font-family="Helvetica,sans-Serif" font-size="11.00">[table]</text>
<polygon fill="none" stroke="black" points="219.5,-318 219.5,-336 449.5,-336 449.5,-318 219.5,-318"/>
<text text-anchor="start" x="222.5" y="-324.2" font-family="Helvetica,sans-Serif" font-size="11.00">...</text>
<polygon fill="#ffffff" stroke="transparent" points="219.5,-300 219.5,-318 297.5,-318 297.5,-300 219.5,-300"/>
<polygon fill="none" stroke="black" points="219.5,-300 219.5,-318 297.5,-318 297.5,-300 219.5,-300"/>
<text text-anchor="start" x="222.5" y="-306.2" font-family="Helvetica,sans-Serif" font-size="11.00">&lt; 2</text>
<polygon fill="#ffffff" stroke="transparent" points="297.5,-300 297.5,-318 397.5,-318 397.5,-300 297.5,-300"/>
<polygon fill="none" stroke="black" points="297.5,-300 297.5,-318 397.5,-318 397.5,-300 297.5,-300"/>
<text text-anchor="start" x="326.5" y="-306.2" font-family="Helvetica,sans-Serif" font-size="11.00">11,166 rows</text>
<polygon fill="#ffffff" stroke="transparent" points="397.5,-300 397.5,-318 449.5,-318 449.5,-300 397.5,-300"/>
<polygon fill="none" stroke="black" points="397.5,-300 397.5,-318 449.5,-318 449.5,-300 397.5,-300"/>
<text text-anchor="start" x="426.5" y="-306.2" font-family="Helvetica,sans-Serif" font-size="11.00">1 &gt;</text>
</a>
</g>
</g>
<!-- manuscript_to_text_fragment&#45;&gt;text_fragment -->
<g id="edge3" class="edge">
<title>manuscript_to_text_fragment:w&#45;&gt;text_fragment:e</title>
<path fill="none" stroke="black" d="M204.22,-324.5C181.62,-315.74 177.87,-287 147,-287"/>
<polygon fill="black" stroke="black" points="210.62,-325.62 217.88,-330.55 214.56,-326.31 218.5,-327 218.5,-327 218.5,-327 214.56,-326.31 219.12,-323.45 210.62,-325.62 210.62,-325.62"/>
<ellipse fill="none" stroke="black" cx="207.47" cy="-325.07" rx="3.2" ry="3.2"/>
</g>
<!-- position_in_text_fragment_stream -->
<g id="node6" class="node">
<title>position_in_text_fragment_stream</title>
<g id="a_node6"><a xlink:href="../../tables/position_in_text_fragment_stream.html" xlink:title="position_in_text_fragment_stream" target="_top">
<polygon fill="#ffffff" stroke="transparent" points="205.5,-221 205.5,-279 463.5,-279 463.5,-221 205.5,-221"/>
<polygon fill="#f5f5f5" stroke="transparent" points="205.5,-257 205.5,-279 463.5,-279 463.5,-257 205.5,-257"/>
<polygon fill="none" stroke="black" points="205.5,-257 205.5,-279 463.5,-279 463.5,-257 205.5,-257"/>
<text text-anchor="start" x="210.5" y="-266.2" font-family="Helvetica,sans-Serif" font-weight="bold" font-size="11.00">position_in_text_fragment_stream</text>
<text text-anchor="start" x="421.5" y="-265.2" font-family="Helvetica,sans-Serif" font-size="11.00">[table]</text>
<polygon fill="none" stroke="black" points="205.5,-239 205.5,-257 463.5,-257 463.5,-239 205.5,-239"/>
<text text-anchor="start" x="208.5" y="-245.2" font-family="Helvetica,sans-Serif" font-size="11.00">...</text>
<polygon fill="#ffffff" stroke="transparent" points="205.5,-221 205.5,-239 297.5,-239 297.5,-221 205.5,-221"/>
<polygon fill="none" stroke="black" points="205.5,-221 205.5,-239 297.5,-239 297.5,-221 205.5,-221"/>
<text text-anchor="start" x="208.5" y="-227.2" font-family="Helvetica,sans-Serif" font-size="11.00">&lt; 2</text>
<polygon fill="#ffffff" stroke="transparent" points="297.5,-221 297.5,-239 404.5,-239 404.5,-221 297.5,-221"/>
<polygon fill="none" stroke="black" points="297.5,-221 297.5,-239 404.5,-239 404.5,-221 297.5,-221"/>
<text text-anchor="start" x="333.5" y="-227.2" font-family="Helvetica,sans-Serif" font-size="11.00">10,852 rows</text>
<polygon fill="#ffffff" stroke="transparent" points="404.5,-221 404.5,-239 463.5,-239 463.5,-221 404.5,-221"/>
<polygon fill="none" stroke="black" points="404.5,-221 404.5,-239 463.5,-239 463.5,-221 404.5,-221"/>
<text text-anchor="start" x="440.5" y="-227.2" font-family="Helvetica,sans-Serif" font-size="11.00">1 &gt;</text>
</a>
</g>
</g>
<!-- position_in_text_fragment_stream&#45;&gt;text_fragment -->
<g id="edge4" class="edge">
<title>position_in_text_fragment_stream:w&#45;&gt;text_fragment:e</title>
<path fill="none" stroke="black" d="M189.9,-249.05C173.94,-255.98 171.85,-282.17 147,-287"/>
<polygon fill="black" stroke="black" points="196.52,-248.58 204.76,-251.59 200.51,-248.29 204.5,-248 204.5,-248 204.5,-248 200.51,-248.29 204.24,-244.41 196.52,-248.58 196.52,-248.58"/>
<ellipse fill="none" stroke="black" cx="193.33" cy="-248.81" rx="3.2" ry="3.2"/>
</g>
<!-- position_in_text_fragment_stream&#45;&gt;text_fragment -->
<g id="edge5" class="edge">
<title>position_in_text_fragment_stream:w&#45;&gt;text_fragment:e</title>
<path fill="none" stroke="black" d="M191.34,-254.05C174.05,-267.05 172.57,-292.8 147,-287"/>
<polygon fill="black" stroke="black" points="197.23,-251.34 206,-251.27 200.87,-249.67 204.5,-248 204.5,-248 204.5,-248 200.87,-249.67 203,-244.73 197.23,-251.34 197.23,-251.34"/>
<ellipse fill="none" stroke="black" cx="194.32" cy="-252.68" rx="3.2" ry="3.2"/>
</g>
<!-- text_fragment_data -->
<g id="node7" class="node">
<title>text_fragment_data</title>
<g id="a_node7"><a xlink:href="../../tables/text_fragment_data.html" xlink:title="text_fragment_data" target="_top">
<polygon fill="#ffffff" stroke="transparent" points="198,-458 198,-568 471,-568 471,-458 198,-458"/>
<polygon fill="#f5f5f5" stroke="transparent" points="200.5,-544 200.5,-566 469.5,-566 469.5,-544 200.5,-544"/>
<polygon fill="none" stroke="black" points="200.5,-544 200.5,-566 469.5,-566 469.5,-544 200.5,-544"/>
<text text-anchor="start" x="205.5" y="-553.2" font-family="Helvetica,sans-Serif" font-weight="bold" font-size="11.00">text_fragment_data</text>
<text text-anchor="start" x="427.5" y="-552.2" font-family="Helvetica,sans-Serif" font-size="11.00">[table]</text>
<polygon fill="none" stroke="black" points="200.5,-522 200.5,-544 372.5,-544 372.5,-522 200.5,-522"/>
<image xlink:href="../../images/primaryKeys.png" width="11px" height="12px" preserveAspectRatio="xMinYMin meet" x="205.5" y="-539"/>
<text text-anchor="start" x="220.5" y="-530.2" font-family="Helvetica,sans-Serif" font-size="11.00">text_fragment_data_id</text>
<polygon fill="none" stroke="black" points="372.5,-522 372.5,-544 469.5,-544 469.5,-522 372.5,-522"/>
<text text-anchor="start" x="375.5" y="-530.2" font-family="Helvetica,sans-Serif" font-size="11.00">int unsigned[10]</text>
<polygon fill="#ffffff" stroke="transparent" points="200.5,-500 200.5,-522 372.5,-522 372.5,-500 200.5,-500"/>
<polygon fill="none" stroke="black" points="200.5,-500 200.5,-522 372.5,-522 372.5,-500 200.5,-500"/>
<image xlink:href="../../images/foreignKeys.png" width="11px" height="12px" preserveAspectRatio="xMinYMin meet" x="205.5" y="-517"/>
<text text-anchor="start" x="220.5" y="-508.2" font-family="Helvetica,sans-Serif" font-size="11.00">text_fragment_id</text>
<polygon fill="none" stroke="black" points="372.5,-500 372.5,-522 469.5,-522 469.5,-500 372.5,-500"/>
<text text-anchor="start" x="375.5" y="-508.2" font-family="Helvetica,sans-Serif" font-size="11.00">int unsigned[10]</text>
<polygon fill="#ffffff" stroke="transparent" points="200.5,-478 200.5,-500 372.5,-500 372.5,-478 200.5,-478"/>
<polygon fill="none" stroke="black" points="200.5,-478 200.5,-500 372.5,-500 372.5,-478 200.5,-478"/>
<text text-anchor="start" x="220.5" y="-486.2" font-family="Helvetica,sans-Serif" font-size="11.00">name</text>
<polygon fill="none" stroke="black" points="372.5,-478 372.5,-500 469.5,-500 469.5,-478 372.5,-478"/>
<text text-anchor="start" x="375.5" y="-486.2" font-family="Helvetica,sans-Serif" font-size="11.00">varchar[255]</text>
<polygon fill="#ffffff" stroke="transparent" points="200.5,-460 200.5,-478 262.5,-478 262.5,-460 200.5,-460"/>
<polygon fill="none" stroke="black" points="200.5,-460 200.5,-478 262.5,-478 262.5,-460 200.5,-460"/>
<text text-anchor="start" x="203.5" y="-466.2" font-family="Helvetica,sans-Serif" font-size="11.00">&lt; 1</text>
<polygon fill="#ffffff" stroke="transparent" points="262.5,-460 262.5,-478 372.5,-478 372.5,-460 262.5,-460"/>
<polygon fill="none" stroke="black" points="262.5,-460 262.5,-478 372.5,-478 372.5,-460 262.5,-460"/>
<text text-anchor="start" x="301.5" y="-466.2" font-family="Helvetica,sans-Serif" font-size="11.00">11,172 rows</text>
<polygon fill="#ffffff" stroke="transparent" points="372.5,-460 372.5,-478 469.5,-478 469.5,-460 372.5,-460"/>
<polygon fill="none" stroke="black" points="372.5,-460 372.5,-478 469.5,-478 469.5,-460 372.5,-460"/>
<text text-anchor="start" x="446.5" y="-466.2" font-family="Helvetica,sans-Serif" font-size="11.00">1 &gt;</text>
<polygon fill="none" stroke="black" stroke-width="2" points="199,-459 199,-567 470,-567 470,-459 199,-459"/>
</a>
</g>
</g>
<!-- text_fragment_data&#45;&gt;text_fragment -->
<g id="edge6" class="edge">
<title>text_fragment_data:w&#45;&gt;text_fragment:e</title>
<path fill="none" stroke="black" d="M184.92,-509.06C113.11,-487.17 243.66,-287 147,-287"/>
<polygon fill="black" stroke="black" points="191.57,-509.95 199.03,-514.57 195.53,-510.47 199.5,-511 199.5,-511 199.5,-511 195.53,-510.47 199.97,-507.43 191.57,-509.95 191.57,-509.95"/>
<ellipse fill="none" stroke="black" cx="188.4" cy="-509.53" rx="3.2" ry="3.2"/>
</g>
<!-- text_fragment_data_owner -->
<g id="node8" class="node">
<title>text_fragment_data_owner</title>
<g id="a_node8"><a xlink:href="../../tables/text_fragment_data_owner.html" xlink:title="text_fragment_data_owner" target="_top">
<polygon fill="#ffffff" stroke="transparent" points="523,-39 523,-145 737,-145 737,-39 523,-39"/>
<polygon fill="#f5f5f5" stroke="transparent" points="523,-123 523,-145 737,-145 737,-123 523,-123"/>
<polygon fill="none" stroke="black" points="523,-123 523,-145 737,-145 737,-123 523,-123"/>
<text text-anchor="start" x="528" y="-132.2" font-family="Helvetica,sans-Serif" font-weight="bold" font-size="11.00">text_fragment_data_owner</text>
<text text-anchor="start" x="695" y="-131.2" font-family="Helvetica,sans-Serif" font-size="11.00">[table]</text>
<polygon fill="none" stroke="black" points="523,-101 523,-123 737,-123 737,-101 523,-101"/>
<image xlink:href="../../images/primaryKeys.png" width="11px" height="12px" preserveAspectRatio="xMinYMin meet" x="528" y="-118"/>
<text text-anchor="start" x="550" y="-109.2" font-family="Helvetica,sans-Serif" font-size="11.00">text_fragment_data_id</text>
<polygon fill="#ffffff" stroke="transparent" points="523,-79 523,-101 737,-101 737,-79 523,-79"/>
<polygon fill="none" stroke="black" points="523,-79 523,-101 737,-101 737,-79 523,-79"/>
<image xlink:href="../../images/foreignKeys.png" width="11px" height="12px" preserveAspectRatio="xMinYMin meet" x="528" y="-96"/>
<text text-anchor="start" x="550" y="-87.2" font-family="Helvetica,sans-Serif" font-size="11.00">edition_editor_id</text>
<polygon fill="none" stroke="black" points="523,-57 523,-79 737,-79 737,-57 523,-57"/>
<image xlink:href="../../images/primaryKeys.png" width="11px" height="12px" preserveAspectRatio="xMinYMin meet" x="528" y="-74"/>
<text text-anchor="start" x="550" y="-65.2" font-family="Helvetica,sans-Serif" font-size="11.00">edition_id</text>
<polygon fill="#ffffff" stroke="transparent" points="523,-39 523,-57 599,-57 599,-39 523,-39"/>
<polygon fill="none" stroke="black" points="523,-39 523,-57 599,-57 599,-39 523,-39"/>
<text text-anchor="start" x="526" y="-45.2" font-family="Helvetica,sans-Serif" font-size="11.00">&lt; 3</text>
<polygon fill="#ffffff" stroke="transparent" points="599,-39 599,-57 698,-57 698,-39 599,-39"/>
<polygon fill="none" stroke="black" points="599,-39 599,-57 698,-57 698,-39 599,-39"/>
<text text-anchor="start" x="627" y="-45.2" font-family="Helvetica,sans-Serif" font-size="11.00">11,176 rows</text>
<polygon fill="#ffffff" stroke="transparent" points="698,-39 698,-57 737,-57 737,-39 698,-39"/>
<polygon fill="none" stroke="black" points="698,-39 698,-57 737,-57 737,-39 698,-39"/>
<text text-anchor="start" x="726" y="-45.2" font-family="Helvetica,sans-Serif" font-size="11.00"> &#160;</text>
</a>
</g>
</g>
<!-- text_fragment_data_owner&#45;&gt;edition_editor -->
<g id="edge7" class="edge">
<title>text_fragment_data_owner:w&#45;&gt;edition_editor:e</title>
<path fill="none" stroke="black" d="M507.36,-90C466.32,-90 450.92,-90 403.5,-90"/>
<polygon fill="black" stroke="black" points="514,-90 522,-93.6 518,-90 522,-90 522,-90 522,-90 518,-90 522,-86.4 514,-90 514,-90"/>
<ellipse fill="none" stroke="black" cx="510.8" cy="-90" rx="3.2" ry="3.2"/>
</g>
<!-- text_fragment_data_owner&#45;&gt;edition -->
<g id="edge8" class="edge">
<title>text_fragment_data_owner:w&#45;&gt;edition:e</title>
<path fill="none" stroke="black" d="M507.75,-64.88C499.82,-60.97 494.78,-54.46 482,-52 353.25,-27.21 317.05,-35.32 187,-52 166.04,-54.69 162.13,-64 141,-64"/>
<polygon fill="black" stroke="black" points="514.18,-66.29 521.23,-71.52 518.09,-67.15 522,-68 522,-68 522,-68 518.09,-67.15 522.77,-64.48 514.18,-66.29 514.18,-66.29"/>
<ellipse fill="none" stroke="black" cx="511.06" cy="-65.61" rx="3.2" ry="3.2"/>
</g>
<!-- text_fragment_data_owner&#45;&gt;text_fragment_data -->
<g id="edge9" class="edge">
<title>text_fragment_data_owner:w&#45;&gt;text_fragment_data:e</title>
<path fill="none" stroke="black" d="M508.13,-115.9C442.53,-158.34 559.41,-533 470.5,-533"/>
<polygon fill="black" stroke="black" points="514.3,-114.16 522.97,-115.47 518.15,-113.08 522,-112 522,-112 522,-112 518.15,-113.08 521.03,-108.53 514.3,-114.16 514.3,-114.16"/>
<ellipse fill="none" stroke="black" cx="511.22" cy="-115.03" rx="3.2" ry="3.2"/>
</g>
<!-- text_fragment_to_line -->
<g id="node9" class="node">
<title>text_fragment_to_line</title>
<g id="a_node9"><a xlink:href="../../tables/text_fragment_to_line.html" xlink:title="text_fragment_to_line" target="_top">
<polygon fill="#ffffff" stroke="transparent" points="242.5,-142 242.5,-200 426.5,-200 426.5,-142 242.5,-142"/>
<polygon fill="#f5f5f5" stroke="transparent" points="242.5,-178 242.5,-200 426.5,-200 426.5,-178 242.5,-178"/>
<polygon fill="none" stroke="black" points="242.5,-178 242.5,-200 426.5,-200 426.5,-178 242.5,-178"/>
<text text-anchor="start" x="247.5" y="-187.2" font-family="Helvetica,sans-Serif" font-weight="bold" font-size="11.00">text_fragment_to_line</text>
<text text-anchor="start" x="384.5" y="-186.2" font-family="Helvetica,sans-Serif" font-size="11.00">[table]</text>
<polygon fill="none" stroke="black" points="242.5,-160 242.5,-178 426.5,-178 426.5,-160 242.5,-160"/>
<text text-anchor="start" x="245.5" y="-166.2" font-family="Helvetica,sans-Serif" font-size="11.00">...</text>
<polygon fill="#ffffff" stroke="transparent" points="242.5,-142 242.5,-160 297.5,-160 297.5,-142 242.5,-142"/>
<polygon fill="none" stroke="black" points="242.5,-142 242.5,-160 297.5,-160 297.5,-142 242.5,-142"/>
<text text-anchor="start" x="245.5" y="-148.2" font-family="Helvetica,sans-Serif" font-size="11.00">&lt; 2</text>
<polygon fill="#ffffff" stroke="transparent" points="297.5,-142 297.5,-160 385.5,-160 385.5,-142 297.5,-142"/>
<polygon fill="none" stroke="black" points="297.5,-142 297.5,-160 385.5,-160 385.5,-142 297.5,-142"/>
<text text-anchor="start" x="314.5" y="-148.2" font-family="Helvetica,sans-Serif" font-size="11.00">53,405 rows</text>
<polygon fill="#ffffff" stroke="transparent" points="385.5,-142 385.5,-160 426.5,-160 426.5,-142 385.5,-142"/>
<polygon fill="none" stroke="black" points="385.5,-142 385.5,-160 426.5,-160 426.5,-142 385.5,-142"/>
<text text-anchor="start" x="403.5" y="-148.2" font-family="Helvetica,sans-Serif" font-size="11.00">1 &gt;</text>
</a>
</g>
</g>
<!-- text_fragment_to_line&#45;&gt;text_fragment -->
<g id="edge10" class="edge">
<title>text_fragment_to_line:w&#45;&gt;text_fragment:e</title>
<path fill="none" stroke="black" d="M227.06,-170.8C208.84,-175.99 203.07,-191.89 187,-211 162.43,-240.21 185.17,-287 147,-287"/>
<polygon fill="black" stroke="black" points="233.56,-169.99 241.94,-172.57 237.53,-169.49 241.5,-169 241.5,-169 241.5,-169 237.53,-169.49 241.06,-165.43 233.56,-169.99 233.56,-169.99"/>
<ellipse fill="none" stroke="black" cx="230.39" cy="-170.38" rx="3.2" ry="3.2"/>
</g>
</g>
</svg>
