<?xml version="1.0" encoding="UTF-8" standalone="no"?>
<!DOCTYPE svg PUBLIC "-//W3C//DTD SVG 1.1//EN"
 "http://www.w3.org/Graphics/SVG/1.1/DTD/svg11.dtd">
<!-- Generated by graphviz version 2.43.0 (0)
 -->
<!-- Title: oneDegreeRelationshipsDiagram Pages: 1 -->
<svg width="747pt" height="159pt"
 viewBox="0.00 0.00 747.00 159.00" xmlns="http://www.w3.org/2000/svg" xmlns:xlink="http://www.w3.org/1999/xlink">
<g id="graph0" class="graph" transform="scale(1 1) rotate(0) translate(4 155)">
<title>oneDegreeRelationshipsDiagram</title>
<polygon fill="#ffffff" stroke="transparent" points="-4,4 -4,-155 743,-155 743,4 -4,4"/>
<text text-anchor="middle" x="79.5" y="-7.2" font-family="Helvetica,sans-Serif" font-size="11.00">Generated by SchemaSpy</text>
<!-- text_fragment_data -->
<g id="node1" class="node">
<title>text_fragment_data</title>
<g id="a_node1"><a xlink:href="../../tables/text_fragment_data.html" xlink:title="text_fragment_data" target="_top">
<polygon fill="#ffffff" stroke="transparent" points="195,-37 195,-147 468,-147 468,-37 195,-37"/>
<polygon fill="#f5f5f5" stroke="transparent" points="197.5,-123 197.5,-145 466.5,-145 466.5,-123 197.5,-123"/>
<polygon fill="none" stroke="black" points="197.5,-123 197.5,-145 466.5,-145 466.5,-123 197.5,-123"/>
<text text-anchor="start" x="202.5" y="-132.2" font-family="Helvetica,sans-Serif" font-weight="bold" font-size="11.00">text_fragment_data</text>
<text text-anchor="start" x="424.5" y="-131.2" font-family="Helvetica,sans-Serif" font-size="11.00">[table]</text>
<polygon fill="none" stroke="black" points="197.5,-101 197.5,-123 369.5,-123 369.5,-101 197.5,-101"/>
<image xlink:href="../../images/primaryKeys.png" width="11px" height="12px" preserveAspectRatio="xMinYMin meet" x="202.5" y="-118"/>
<text text-anchor="start" x="217.5" y="-109.2" font-family="Helvetica,sans-Serif" font-size="11.00">text_fragment_data_id</text>
<polygon fill="none" stroke="black" points="369.5,-101 369.5,-123 466.5,-123 466.5,-101 369.5,-101"/>
<text text-anchor="start" x="372.5" y="-109.2" font-family="Helvetica,sans-Serif" font-size="11.00">int unsigned[10]</text>
<polygon fill="#ffffff" stroke="transparent" points="197.5,-79 197.5,-101 369.5,-101 369.5,-79 197.5,-79"/>
<polygon fill="none" stroke="black" points="197.5,-79 197.5,-101 369.5,-101 369.5,-79 197.5,-79"/>
<image xlink:href="../../images/foreignKeys.png" width="11px" height="12px" preserveAspectRatio="xMinYMin meet" x="202.5" y="-96"/>
<text text-anchor="start" x="217.5" y="-87.2" font-family="Helvetica,sans-Serif" font-size="11.00">text_fragment_id</text>
<polygon fill="none" stroke="black" points="369.5,-79 369.5,-101 466.5,-101 466.5,-79 369.5,-79"/>
<text text-anchor="start" x="372.5" y="-87.2" font-family="Helvetica,sans-Serif" font-size="11.00">int unsigned[10]</text>
<polygon fill="#ffffff" stroke="transparent" points="197.5,-57 197.5,-79 369.5,-79 369.5,-57 197.5,-57"/>
<polygon fill="none" stroke="black" points="197.5,-57 197.5,-79 369.5,-79 369.5,-57 197.5,-57"/>
<text text-anchor="start" x="217.5" y="-65.2" font-family="Helvetica,sans-Serif" font-size="11.00">name</text>
<polygon fill="none" stroke="black" points="369.5,-57 369.5,-79 466.5,-79 466.5,-57 369.5,-57"/>
<text text-anchor="start" x="372.5" y="-65.2" font-family="Helvetica,sans-Serif" font-size="11.00">varchar[255]</text>
<polygon fill="#ffffff" stroke="transparent" points="197.5,-39 197.5,-57 259.5,-57 259.5,-39 197.5,-39"/>
<polygon fill="none" stroke="black" points="197.5,-39 197.5,-57 259.5,-57 259.5,-39 197.5,-39"/>
<text text-anchor="start" x="200.5" y="-45.2" font-family="Helvetica,sans-Serif" font-size="11.00">&lt; 1</text>
<polygon fill="#ffffff" stroke="transparent" points="259.5,-39 259.5,-57 369.5,-57 369.5,-39 259.5,-39"/>
<polygon fill="none" stroke="black" points="259.5,-39 259.5,-57 369.5,-57 369.5,-39 259.5,-39"/>
<text text-anchor="start" x="298.5" y="-45.2" font-family="Helvetica,sans-Serif" font-size="11.00">11,172 rows</text>
<polygon fill="#ffffff" stroke="transparent" points="369.5,-39 369.5,-57 466.5,-57 466.5,-39 369.5,-39"/>
<polygon fill="none" stroke="black" points="369.5,-39 369.5,-57 466.5,-57 466.5,-39 369.5,-39"/>
<text text-anchor="start" x="443.5" y="-45.2" font-family="Helvetica,sans-Serif" font-size="11.00">1 &gt;</text>
<polygon fill="none" stroke="black" stroke-width="2" points="196,-38 196,-146 467,-146 467,-38 196,-38"/>
</a>
</g>
</g>
<!-- text_fragment -->
<g id="node2" class="node">
<title>text_fragment</title>
<g id="a_node2"><a xlink:href="../../tables/text_fragment.html" xlink:title="text_fragment" target="_top">
<polygon fill="#ffffff" stroke="transparent" points="8,-61 8,-123 146,-123 146,-61 8,-61"/>
<polygon fill="#f5f5f5" stroke="transparent" points="8,-101 8,-123 146,-123 146,-101 8,-101"/>
<polygon fill="none" stroke="black" points="8,-101 8,-123 146,-123 146,-101 8,-101"/>
<text text-anchor="start" x="13" y="-110.2" font-family="Helvetica,sans-Serif" font-weight="bold" font-size="11.00">text_fragment</text>
<text text-anchor="start" x="104" y="-109.2" font-family="Helvetica,sans-Serif" font-size="11.00">[table]</text>
<polygon fill="none" stroke="black" points="8,-79 8,-101 146,-101 146,-79 8,-79"/>
<image xlink:href="../../images/primaryKeys.png" width="11px" height="12px" preserveAspectRatio="xMinYMin meet" x="13" y="-96"/>
<text text-anchor="start" x="30" y="-87.2" font-family="Helvetica,sans-Serif" font-size="11.00">text_fragment_id</text>
<polygon fill="#ffffff" stroke="transparent" points="8,-61 8,-79 34,-79 34,-61 8,-61"/>
<polygon fill="none" stroke="black" points="8,-61 8,-79 34,-79 34,-61 8,-61"/>
<text text-anchor="start" x="11" y="-67.2" font-family="Helvetica,sans-Serif" font-size="11.00"> &#160;</text>
<polygon fill="#ffffff" stroke="transparent" points="34,-61 34,-79 114,-79 114,-61 34,-61"/>
<polygon fill="none" stroke="black" points="34,-61 34,-79 114,-79 114,-61 34,-61"/>
<text text-anchor="start" x="43" y="-67.2" font-family="Helvetica,sans-Serif" font-size="11.00">11,176 rows</text>
<polygon fill="#ffffff" stroke="transparent" points="114,-61 114,-79 146,-79 146,-61 114,-61"/>
<polygon fill="none" stroke="black" points="114,-61 114,-79 146,-79 146,-61 114,-61"/>
<text text-anchor="start" x="123" y="-67.2" font-family="Helvetica,sans-Serif" font-size="11.00">6 &gt;</text>
</a>
</g>
</g>
<!-- text_fragment_data&#45;&gt;text_fragment -->
<g id="edge1" class="edge">
<title>text_fragment_data:w&#45;&gt;text_fragment:e</title>
<path fill="none" stroke="black" d="M181.84,-90C170.41,-90 163.16,-90 147,-90"/>
<polygon fill="black" stroke="black" points="188.5,-90 196.5,-93.6 192.5,-90 196.5,-90 196.5,-90 196.5,-90 192.5,-90 196.5,-86.4 188.5,-90 188.5,-90"/>
<ellipse fill="none" stroke="black" cx="185.3" cy="-90" rx="3.2" ry="3.2"/>
</g>
<!-- text_fragment_data_owner -->
<g id="node3" class="node">
<title>text_fragment_data_owner</title>
<g id="a_node3"><a xlink:href="../../tables/text_fragment_data_owner.html" xlink:title="text_fragment_data_owner" target="_top">
<polygon fill="#ffffff" stroke="transparent" points="517,-39 517,-145 731,-145 731,-39 517,-39"/>
<polygon fill="#f5f5f5" stroke="transparent" points="517,-123 517,-145 731,-145 731,-123 517,-123"/>
<polygon fill="none" stroke="black" points="517,-123 517,-145 731,-145 731,-123 517,-123"/>
<text text-anchor="start" x="522" y="-132.2" font-family="Helvetica,sans-Serif" font-weight="bold" font-size="11.00">text_fragment_data_owner</text>
<text text-anchor="start" x="689" y="-131.2" font-family="Helvetica,sans-Serif" font-size="11.00">[table]</text>
<polygon fill="none" stroke="black" points="517,-101 517,-123 731,-123 731,-101 517,-101"/>
<image xlink:href="../../images/primaryKeys.png" width="11px" height="12px" preserveAspectRatio="xMinYMin meet" x="522" y="-118"/>
<text text-anchor="start" x="544" y="-109.2" font-family="Helvetica,sans-Serif" font-size="11.00">text_fragment_data_id</text>
<polygon fill="#ffffff" stroke="transparent" points="517,-79 517,-101 731,-101 731,-79 517,-79"/>
<polygon fill="none" stroke="black" points="517,-79 517,-101 731,-101 731,-79 517,-79"/>
<image xlink:href="../../images/foreignKeys.png" width="11px" height="12px" preserveAspectRatio="xMinYMin meet" x="522" y="-96"/>
<text text-anchor="start" x="544" y="-87.2" font-family="Helvetica,sans-Serif" font-size="11.00">edition_editor_id</text>
<polygon fill="none" stroke="black" points="517,-57 517,-79 731,-79 731,-57 517,-57"/>
<image xlink:href="../../images/primaryKeys.png" width="11px" height="12px" preserveAspectRatio="xMinYMin meet" x="522" y="-74"/>
<text text-anchor="start" x="544" y="-65.2" font-family="Helvetica,sans-Serif" font-size="11.00">edition_id</text>
<polygon fill="#ffffff" stroke="transparent" points="517,-39 517,-57 593,-57 593,-39 517,-39"/>
<polygon fill="none" stroke="black" points="517,-39 517,-57 593,-57 593,-39 517,-39"/>
<text text-anchor="start" x="520" y="-45.2" font-family="Helvetica,sans-Serif" font-size="11.00">&lt; 3</text>
<polygon fill="#ffffff" stroke="transparent" points="593,-39 593,-57 692,-57 692,-39 593,-39"/>
<polygon fill="none" stroke="black" points="593,-39 593,-57 692,-57 692,-39 593,-39"/>
<text text-anchor="start" x="621" y="-45.2" font-family="Helvetica,sans-Serif" font-size="11.00">11,176 rows</text>
<polygon fill="#ffffff" stroke="transparent" points="692,-39 692,-57 731,-57 731,-39 692,-39"/>
<polygon fill="none" stroke="black" points="692,-39 692,-57 731,-57 731,-39 692,-39"/>
<text text-anchor="start" x="720" y="-45.2" font-family="Helvetica,sans-Serif" font-size="11.00"> &#160;</text>
</a>
</g>
</g>
<!-- text_fragment_data_owner&#45;&gt;text_fragment_data -->
<g id="edge2" class="edge">
<title>text_fragment_data_owner:w&#45;&gt;text_fragment_data:e</title>
<path fill="none" stroke="black" d="M501.28,-112C490.29,-112 483.16,-112 467.5,-112"/>
<polygon fill="black" stroke="black" points="508,-112 516,-115.6 512,-112 516,-112 516,-112 516,-112 512,-112 516,-108.4 508,-112 508,-112"/>
<ellipse fill="none" stroke="black" cx="504.8" cy="-112" rx="3.2" ry="3.2"/>
</g>
</g>
</svg>
