<?xml version="1.0" encoding="UTF-8" standalone="no"?>
<!DOCTYPE svg PUBLIC "-//W3C//DTD SVG 1.1//EN"
 "http://www.w3.org/Graphics/SVG/1.1/DTD/svg11.dtd">
<!-- Generated by graphviz version 2.43.0 (0)
 -->
<!-- Title: oneDegreeRelationshipsDiagramImplied Pages: 1 -->
<svg width="774pt" height="194pt"
 viewBox="0.00 0.00 774.00 194.00" xmlns="http://www.w3.org/2000/svg" xmlns:xlink="http://www.w3.org/1999/xlink">
<g id="graph0" class="graph" transform="scale(1 1) rotate(0) translate(4 190)">
<title>oneDegreeRelationshipsDiagramImplied</title>
<polygon fill="#ffffff" stroke="transparent" points="-4,4 -4,-190 770,-190 770,4 -4,4"/>
<text text-anchor="middle" x="79.5" y="-7.2" font-family="Helvetica,sans-Serif" font-size="11.00">Generated by SchemaSpy</text>
<!-- text_fragment_to_line -->
<g id="node1" class="node">
<title>text_fragment_to_line</title>
<g id="a_node1"><a xlink:href="../../tables/text_fragment_to_line.html" xlink:title="text_fragment_to_line" target="_top">
<polygon fill="#ffffff" stroke="transparent" points="195,-65 195,-175 482,-175 482,-65 195,-65"/>
<polygon fill="#f5f5f5" stroke="transparent" points="197.5,-151 197.5,-173 480.5,-173 480.5,-151 197.5,-151"/>
<polygon fill="none" stroke="black" points="197.5,-151 197.5,-173 480.5,-173 480.5,-151 197.5,-151"/>
<text text-anchor="start" x="202.5" y="-160.2" font-family="Helvetica,sans-Serif" font-weight="bold" font-size="11.00">text_fragment_to_line</text>
<text text-anchor="start" x="438.5" y="-159.2" font-family="Helvetica,sans-Serif" font-size="11.00">[table]</text>
<polygon fill="none" stroke="black" points="197.5,-129 197.5,-151 383.5,-151 383.5,-129 197.5,-129"/>
<image xlink:href="../../images/primaryKeys.png" width="11px" height="12px" preserveAspectRatio="xMinYMin meet" x="202.5" y="-146"/>
<text text-anchor="start" x="217.5" y="-137.2" font-family="Helvetica,sans-Serif" font-size="11.00">text_fragment_to_line_id</text>
<polygon fill="none" stroke="black" points="383.5,-129 383.5,-151 480.5,-151 480.5,-129 383.5,-129"/>
<text text-anchor="start" x="386.5" y="-137.2" font-family="Helvetica,sans-Serif" font-size="11.00">int unsigned[10]</text>
<polygon fill="#ffffff" stroke="transparent" points="197.5,-107 197.5,-129 383.5,-129 383.5,-107 197.5,-107"/>
<polygon fill="none" stroke="black" points="197.5,-107 197.5,-129 383.5,-129 383.5,-107 197.5,-107"/>
<image xlink:href="../../images/foreignKeys.png" width="11px" height="12px" preserveAspectRatio="xMinYMin meet" x="202.5" y="-124"/>
<text text-anchor="start" x="217.5" y="-115.2" font-family="Helvetica,sans-Serif" font-size="11.00">text_fragment_id</text>
<polygon fill="none" stroke="black" points="383.5,-107 383.5,-129 480.5,-129 480.5,-107 383.5,-107"/>
<text text-anchor="start" x="386.5" y="-115.2" font-family="Helvetica,sans-Serif" font-size="11.00">int unsigned[10]</text>
<polygon fill="#ffffff" stroke="transparent" points="197.5,-85 197.5,-107 383.5,-107 383.5,-85 197.5,-85"/>
<polygon fill="none" stroke="black" points="197.5,-85 197.5,-107 383.5,-107 383.5,-85 197.5,-85"/>
<image xlink:href="../../images/foreignKeys.png" width="11px" height="12px" preserveAspectRatio="xMinYMin meet" x="202.5" y="-102"/>
<text text-anchor="start" x="217.5" y="-93.2" font-family="Helvetica,sans-Serif" font-size="11.00">line_id</text>
<polygon fill="none" stroke="black" points="383.5,-85 383.5,-107 480.5,-107 480.5,-85 383.5,-85"/>
<text text-anchor="start" x="386.5" y="-93.2" font-family="Helvetica,sans-Serif" font-size="11.00">int unsigned[10]</text>
<polygon fill="#ffffff" stroke="transparent" points="197.5,-67 197.5,-85 266.5,-85 266.5,-67 197.5,-67"/>
<polygon fill="none" stroke="black" points="197.5,-67 197.5,-85 266.5,-85 266.5,-67 197.5,-67"/>
<text text-anchor="start" x="200.5" y="-73.2" font-family="Helvetica,sans-Serif" font-size="11.00">&lt; 2</text>
<polygon fill="#ffffff" stroke="transparent" points="266.5,-67 266.5,-85 383.5,-85 383.5,-67 266.5,-67"/>
<polygon fill="none" stroke="black" points="266.5,-67 266.5,-85 383.5,-85 383.5,-67 266.5,-67"/>
<text text-anchor="start" x="312.5" y="-73.2" font-family="Helvetica,sans-Serif" font-size="11.00">53,405 rows</text>
<polygon fill="#ffffff" stroke="transparent" points="383.5,-67 383.5,-85 480.5,-85 480.5,-67 383.5,-67"/>
<polygon fill="none" stroke="black" points="383.5,-67 383.5,-85 480.5,-85 480.5,-67 383.5,-67"/>
<text text-anchor="start" x="457.5" y="-73.2" font-family="Helvetica,sans-Serif" font-size="11.00">1 &gt;</text>
<polygon fill="none" stroke="black" stroke-width="2" points="196,-66 196,-174 481,-174 481,-66 196,-66"/>
</a>
</g>
</g>
<!-- line -->
<g id="node2" class="node">
<title>line</title>
<g id="a_node2"><a xlink:href="../../tables/line.html" xlink:title="line" target="_top">
<polygon fill="#ffffff" stroke="transparent" points="20,-37 20,-99 134,-99 134,-37 20,-37"/>
<polygon fill="#f5f5f5" stroke="transparent" points="20,-77 20,-99 134,-99 134,-77 20,-77"/>
<polygon fill="none" stroke="black" points="20,-77 20,-99 134,-99 134,-77 20,-77"/>
<text text-anchor="start" x="25" y="-86.2" font-family="Helvetica,sans-Serif" font-weight="bold" font-size="11.00">line</text>
<text text-anchor="start" x="92" y="-85.2" font-family="Helvetica,sans-Serif" font-size="11.00">[table]</text>
<polygon fill="none" stroke="black" points="20,-55 20,-77 134,-77 134,-55 20,-55"/>
<image xlink:href="../../images/primaryKeys.png" width="11px" height="12px" preserveAspectRatio="xMinYMin meet" x="25" y="-72"/>
<text text-anchor="start" x="65" y="-63.2" font-family="Helvetica,sans-Serif" font-size="11.00">line_id</text>
<polygon fill="#ffffff" stroke="transparent" points="20,-37 20,-55 34,-55 34,-37 20,-37"/>
<polygon fill="none" stroke="black" points="20,-37 20,-55 34,-55 34,-37 20,-37"/>
<text text-anchor="start" x="23" y="-43.2" font-family="Helvetica,sans-Serif" font-size="11.00"> &#160;</text>
<polygon fill="#ffffff" stroke="transparent" points="34,-37 34,-55 108,-55 108,-37 34,-37"/>
<polygon fill="none" stroke="black" points="34,-37 34,-55 108,-55 108,-37 34,-37"/>
<text text-anchor="start" x="37" y="-43.2" font-family="Helvetica,sans-Serif" font-size="11.00">53,964 rows</text>
<polygon fill="#ffffff" stroke="transparent" points="108,-37 108,-55 134,-55 134,-37 108,-37"/>
<polygon fill="none" stroke="black" points="108,-37 108,-55 134,-55 134,-37 108,-37"/>
<text text-anchor="start" x="111" y="-43.2" font-family="Helvetica,sans-Serif" font-size="11.00">3 &gt;</text>
</a>
</g>
</g>
<!-- text_fragment_to_line&#45;&gt;line -->
<g id="edge1" class="edge">
<title>text_fragment_to_line:w&#45;&gt;line:e</title>
<path fill="none" stroke="black" d="M182.14,-93.23C164.79,-85.8 159.71,-66 135,-66"/>
<polygon fill="black" stroke="black" points="188.64,-94.49 195.82,-99.53 192.57,-95.24 196.5,-96 196.5,-96 196.5,-96 192.57,-95.24 197.18,-92.47 188.64,-94.49 188.64,-94.49"/>
<ellipse fill="none" stroke="black" cx="185.5" cy="-93.88" rx="3.2" ry="3.2"/>
</g>
<!-- text_fragment -->
<g id="node3" class="node">
<title>text_fragment</title>
<g id="a_node3"><a xlink:href="../../tables/text_fragment.html" xlink:title="text_fragment" target="_top">
<polygon fill="#ffffff" stroke="transparent" points="8,-120 8,-182 146,-182 146,-120 8,-120"/>
<polygon fill="#f5f5f5" stroke="transparent" points="8,-160 8,-182 146,-182 146,-160 8,-160"/>
<polygon fill="none" stroke="black" points="8,-160 8,-182 146,-182 146,-160 8,-160"/>
<text text-anchor="start" x="13" y="-169.2" font-family="Helvetica,sans-Serif" font-weight="bold" font-size="11.00">text_fragment</text>
<text text-anchor="start" x="104" y="-168.2" font-family="Helvetica,sans-Serif" font-size="11.00">[table]</text>
<polygon fill="none" stroke="black" points="8,-138 8,-160 146,-160 146,-138 8,-138"/>
<image xlink:href="../../images/primaryKeys.png" width="11px" height="12px" preserveAspectRatio="xMinYMin meet" x="13" y="-155"/>
<text text-anchor="start" x="30" y="-146.2" font-family="Helvetica,sans-Serif" font-size="11.00">text_fragment_id</text>
<polygon fill="#ffffff" stroke="transparent" points="8,-120 8,-138 34,-138 34,-120 8,-120"/>
<polygon fill="none" stroke="black" points="8,-120 8,-138 34,-138 34,-120 8,-120"/>
<text text-anchor="start" x="11" y="-126.2" font-family="Helvetica,sans-Serif" font-size="11.00"> &#160;</text>
<polygon fill="#ffffff" stroke="transparent" points="34,-120 34,-138 114,-138 114,-120 34,-120"/>
<polygon fill="none" stroke="black" points="34,-120 34,-138 114,-138 114,-120 34,-120"/>
<text text-anchor="start" x="43" y="-126.2" font-family="Helvetica,sans-Serif" font-size="11.00">11,176 rows</text>
<polygon fill="#ffffff" stroke="transparent" points="114,-120 114,-138 146,-138 146,-120 114,-120"/>
<polygon fill="none" stroke="black" points="114,-120 114,-138 146,-138 146,-120 114,-120"/>
<text text-anchor="start" x="123" y="-126.2" font-family="Helvetica,sans-Serif" font-size="11.00">6 &gt;</text>
</a>
</g>
</g>
<!-- text_fragment_to_line&#45;&gt;text_fragment -->
<g id="edge2" class="edge">
<title>text_fragment_to_line:w&#45;&gt;text_fragment:e</title>
<path fill="none" stroke="black" d="M182.57,-122.05C170.18,-130.46 167.08,-149 147,-149"/>
<polygon fill="black" stroke="black" points="188.82,-120.23 197.51,-121.46 192.66,-119.12 196.5,-118 196.5,-118 196.5,-118 192.66,-119.12 195.49,-114.54 188.82,-120.23 188.82,-120.23"/>
<ellipse fill="none" stroke="black" cx="185.75" cy="-121.13" rx="3.2" ry="3.2"/>
</g>
<!-- text_fragment_to_line_owner -->
<g id="node4" class="node">
<title>text_fragment_to_line_owner</title>
<g id="a_node4"><a xlink:href="../../tables/text_fragment_to_line_owner.html" xlink:title="text_fragment_to_line_owner" target="_top">
<polygon fill="#ffffff" stroke="transparent" points="531,-67 531,-173 758,-173 758,-67 531,-67"/>
<polygon fill="#f5f5f5" stroke="transparent" points="531.5,-151 531.5,-173 758.5,-173 758.5,-151 531.5,-151"/>
<polygon fill="none" stroke="black" points="531.5,-151 531.5,-173 758.5,-173 758.5,-151 531.5,-151"/>
<text text-anchor="start" x="536.5" y="-160.2" font-family="Helvetica,sans-Serif" font-weight="bold" font-size="11.00">text_fragment_to_line_owner</text>
<text text-anchor="start" x="716.5" y="-159.2" font-family="Helvetica,sans-Serif" font-size="11.00">[table]</text>
<polygon fill="none" stroke="black" points="531.5,-129 531.5,-151 758.5,-151 758.5,-129 531.5,-129"/>
<image xlink:href="../../images/primaryKeys.png" width="11px" height="12px" preserveAspectRatio="xMinYMin meet" x="536.5" y="-146"/>
<text text-anchor="start" x="557.5" y="-137.2" font-family="Helvetica,sans-Serif" font-size="11.00">text_fragment_to_line_id</text>
<polygon fill="#ffffff" stroke="transparent" points="531.5,-107 531.5,-129 758.5,-129 758.5,-107 531.5,-107"/>
<polygon fill="none" stroke="black" points="531.5,-107 531.5,-129 758.5,-129 758.5,-107 531.5,-107"/>
<image xlink:href="../../images/foreignKeys.png" width="11px" height="12px" preserveAspectRatio="xMinYMin meet" x="536.5" y="-124"/>
<text text-anchor="start" x="557.5" y="-115.2" font-family="Helvetica,sans-Serif" font-size="11.00">edition_editor_id</text>
<polygon fill="none" stroke="black" points="531.5,-85 531.5,-107 758.5,-107 758.5,-85 531.5,-85"/>
<image xlink:href="../../images/primaryKeys.png" width="11px" height="12px" preserveAspectRatio="xMinYMin meet" x="536.5" y="-102"/>
<text text-anchor="start" x="557.5" y="-93.2" font-family="Helvetica,sans-Serif" font-size="11.00">edition_id</text>
<polygon fill="#ffffff" stroke="transparent" points="531.5,-67 531.5,-85 629.5,-85 629.5,-67 531.5,-67"/>
<polygon fill="none" stroke="black" points="531.5,-67 531.5,-85 629.5,-85 629.5,-67 531.5,-67"/>
<text text-anchor="start" x="534.5" y="-73.2" font-family="Helvetica,sans-Serif" font-size="11.00">&lt; 3</text>
<polygon fill="#ffffff" stroke="transparent" points="629.5,-67 629.5,-85 708.5,-85 708.5,-67 629.5,-67"/>
<polygon fill="none" stroke="black" points="629.5,-67 629.5,-85 708.5,-85 708.5,-67 629.5,-67"/>
<text text-anchor="start" x="668.5" y="-73.2" font-family="Helvetica,sans-Serif" font-size="11.00">0 rows</text>
<polygon fill="#ffffff" stroke="transparent" points="708.5,-67 708.5,-85 758.5,-85 758.5,-67 708.5,-67"/>
<polygon fill="none" stroke="black" points="708.5,-67 708.5,-85 758.5,-85 758.5,-67 708.5,-67"/>
<text text-anchor="start" x="747.5" y="-73.2" font-family="Helvetica,sans-Serif" font-size="11.00"> &#160;</text>
</a>
</g>
</g>
<!-- text_fragment_to_line_owner&#45;&gt;text_fragment_to_line -->
<g id="edge3" class="edge">
<title>text_fragment_to_line_owner:w&#45;&gt;text_fragment_to_line:e</title>
<path fill="none" stroke="black" d="M515.99,-140C504.68,-140 497.49,-140 481.5,-140"/>
<polygon fill="black" stroke="black" points="522.5,-140 530.5,-143.6 526.5,-140 530.5,-140 530.5,-140 530.5,-140 526.5,-140 530.5,-136.4 522.5,-140 522.5,-140"/>
<ellipse fill="none" stroke="black" cx="519.3" cy="-140" rx="3.2" ry="3.2"/>
</g>
</g>
</svg>
