<?xml version="1.0" encoding="UTF-8" standalone="no"?>
<!DOCTYPE svg PUBLIC "-//W3C//DTD SVG 1.1//EN"
 "http://www.w3.org/Graphics/SVG/1.1/DTD/svg11.dtd">
<!-- Generated by graphviz version 2.40.1 (20161225.0304)
 -->
<!-- Title: oneDegreeRelationshipsDiagramImplied Pages: 1 -->
<svg width="744pt" height="380pt"
 viewBox="0.00 0.00 744.00 380.00" xmlns="http://www.w3.org/2000/svg" xmlns:xlink="http://www.w3.org/1999/xlink">
<g id="graph0" class="graph" transform="scale(1 1) rotate(0) translate(4 376)">
<title>oneDegreeRelationshipsDiagramImplied</title>
<polygon fill="#ffffff" stroke="transparent" points="-4,4 -4,-376 740,-376 740,4 -4,4"/>
<text text-anchor="middle" x="71.5" y="-7.2" font-family="Helvetica,sans-Serif" font-size="11.00" fill="#000000">Generated by SchemaSpy</text>
<!-- edition_editor -->
<g id="node1" class="node">
<title>edition_editor</title>
<g id="a_node1"><a xlink:href="../../tables/edition_editor.html" xlink:title="edition_editor" target="_top">
<polygon fill="#ffffff" stroke="transparent" points="218.5,-95 218.5,-219 351.5,-219 351.5,-95 218.5,-95"/>
<polygon fill="#f5f5f5" stroke="transparent" points="219,-197 219,-219 352,-219 352,-197 219,-197"/>
<polygon fill="none" stroke="#000000" points="219,-197 219,-219 352,-219 352,-197 219,-197"/>
<text text-anchor="start" x="224" y="-206.2" font-family="Helvetica,sans-Serif" font-weight="bold" font-size="11.00" fill="#000000">edition_editor</text>
<text text-anchor="start" x="317" y="-205.2" font-family="Helvetica,sans-Serif" font-size="11.00" fill="#000000">[table]</text>
<polygon fill="none" stroke="#000000" points="219,-175 219,-197 352,-197 352,-175 219,-175"/>
<image xlink:href="../../images/primaryKeys.png" width="11px" height="12px" preserveAspectRatio="xMinYMin meet" x="224" y="-192"/>
<text text-anchor="start" x="239" y="-183.2" font-family="Helvetica,sans-Serif" font-size="11.00" fill="#000000">edition_editor_id</text>
<polygon fill="#ffffff" stroke="transparent" points="219,-153 219,-175 352,-175 352,-153 219,-153"/>
<polygon fill="none" stroke="#000000" points="219,-153 219,-175 352,-175 352,-153 219,-153"/>
<image xlink:href="../../images/foreignKeys.png" width="11px" height="12px" preserveAspectRatio="xMinYMin meet" x="224" y="-170"/>
<text text-anchor="start" x="239" y="-161.2" font-family="Helvetica,sans-Serif" font-size="11.00" fill="#000000">user_id</text>
<polygon fill="#ffffff" stroke="transparent" points="219,-131 219,-153 352,-153 352,-131 219,-131"/>
<polygon fill="none" stroke="#000000" points="219,-131 219,-153 352,-153 352,-131 219,-131"/>
<image xlink:href="../../images/foreignKeys.png" width="11px" height="12px" preserveAspectRatio="xMinYMin meet" x="224" y="-148"/>
<text text-anchor="start" x="239" y="-139.2" font-family="Helvetica,sans-Serif" font-size="11.00" fill="#000000">edition_id</text>
<polygon fill="none" stroke="#000000" points="219,-113 219,-131 352,-131 352,-113 219,-113"/>
<text text-anchor="start" x="222" y="-119.2" font-family="Helvetica,sans-Serif" font-size="11.00" fill="#000000">...</text>
<polygon fill="#ffffff" stroke="transparent" points="219,-95 219,-113 252,-113 252,-95 219,-95"/>
<polygon fill="none" stroke="#000000" points="219,-95 219,-113 252,-113 252,-95 219,-95"/>
<text text-anchor="start" x="222" y="-101.2" font-family="Helvetica,sans-Serif" font-size="11.00" fill="#000000">&lt; 2</text>
<polygon fill="#ffffff" stroke="transparent" points="252,-95 252,-113 318,-113 318,-95 252,-95"/>
<polygon fill="none" stroke="#000000" points="252,-95 252,-113 318,-113 318,-95 252,-95"/>
<text text-anchor="start" x="261" y="-101.2" font-family="Helvetica,sans-Serif" font-size="11.00" fill="#000000">1,645 rows</text>
<polygon fill="#ffffff" stroke="transparent" points="318,-95 318,-113 352,-113 352,-95 318,-95"/>
<polygon fill="none" stroke="#000000" points="318,-95 318,-113 352,-113 352,-95 318,-95"/>
<text text-anchor="start" x="327" y="-101.2" font-family="Helvetica,sans-Serif" font-size="11.00" fill="#000000">30 &gt;</text>
</a>
</g>
</g>
<!-- edition -->
<g id="node2" class="node">
<title>edition</title>
<g id="a_node2"><a xlink:href="../../tables/edition.html" xlink:title="edition" target="_top">
<polygon fill="#ffffff" stroke="transparent" points="8,-37 8,-139 143,-139 143,-37 8,-37"/>
<polygon fill="#f5f5f5" stroke="transparent" points="8.5,-117 8.5,-139 143.5,-139 143.5,-117 8.5,-117"/>
<polygon fill="none" stroke="#000000" points="8.5,-117 8.5,-139 143.5,-139 143.5,-117 8.5,-117"/>
<text text-anchor="start" x="13.5" y="-126.2" font-family="Helvetica,sans-Serif" font-weight="bold" font-size="11.00" fill="#000000">edition</text>
<text text-anchor="start" x="108.5" y="-125.2" font-family="Helvetica,sans-Serif" font-size="11.00" fill="#000000">[table]</text>
<polygon fill="none" stroke="#000000" points="8.5,-95 8.5,-117 143.5,-117 143.5,-95 8.5,-95"/>
<image xlink:href="../../images/primaryKeys.png" width="11px" height="12px" preserveAspectRatio="xMinYMin meet" x="13.5" y="-112"/>
<text text-anchor="start" x="28.5" y="-103.2" font-family="Helvetica,sans-Serif" font-size="11.00" fill="#000000">edition_id</text>
<polygon fill="#ffffff" stroke="transparent" points="8.5,-73 8.5,-95 143.5,-95 143.5,-73 8.5,-73"/>
<polygon fill="none" stroke="#000000" points="8.5,-73 8.5,-95 143.5,-95 143.5,-73 8.5,-73"/>
<image xlink:href="../../images/foreignKeys.png" width="11px" height="12px" preserveAspectRatio="xMinYMin meet" x="13.5" y="-90"/>
<text text-anchor="start" x="28.5" y="-81.2" font-family="Helvetica,sans-Serif" font-size="11.00" fill="#000000">manuscript_id</text>
<polygon fill="none" stroke="#000000" points="8.5,-55 8.5,-73 143.5,-73 143.5,-55 8.5,-55"/>
<text text-anchor="start" x="11.5" y="-61.2" font-family="Helvetica,sans-Serif" font-size="11.00" fill="#000000">...</text>
<polygon fill="#ffffff" stroke="transparent" points="8.5,-37 8.5,-55 42.5,-55 42.5,-37 8.5,-37"/>
<polygon fill="none" stroke="#000000" points="8.5,-37 8.5,-55 42.5,-55 42.5,-37 8.5,-37"/>
<text text-anchor="start" x="11.5" y="-43.2" font-family="Helvetica,sans-Serif" font-size="11.00" fill="#000000">&lt; 1</text>
<polygon fill="#ffffff" stroke="transparent" points="42.5,-37 42.5,-55 108.5,-55 108.5,-37 42.5,-37"/>
<polygon fill="none" stroke="#000000" points="42.5,-37 42.5,-55 108.5,-55 108.5,-37 42.5,-37"/>
<text text-anchor="start" x="51.5" y="-43.2" font-family="Helvetica,sans-Serif" font-size="11.00" fill="#000000">1,645 rows</text>
<polygon fill="#ffffff" stroke="transparent" points="108.5,-37 108.5,-55 143.5,-55 143.5,-37 108.5,-37"/>
<polygon fill="none" stroke="#000000" points="108.5,-37 108.5,-55 143.5,-55 143.5,-37 108.5,-37"/>
<text text-anchor="start" x="118.5" y="-43.2" font-family="Helvetica,sans-Serif" font-size="11.00" fill="#000000">32 &gt;</text>
</a>
</g>
</g>
<!-- edition_editor&#45;&gt;edition -->
<g id="edge1" class="edge">
<title>edition_editor:w&#45;&gt;edition:e</title>
<path fill="none" stroke="#000000" d="M204.5912,-139.8558C180.6899,-132.1057 175.1568,-106 143.5,-106"/>
<polygon fill="#000000" stroke="#000000" points="211.0871,-140.8225 218.4701,-145.5608 215.0436,-141.4112 219,-142 219,-142 219,-142 215.0436,-141.4112 219.5299,-138.4392 211.0871,-140.8225 211.0871,-140.8225"/>
<ellipse fill="none" stroke="#000000" cx="207.922" cy="-140.3514" rx="3.2" ry="3.2"/>
</g>
<!-- text_fragment_to_line_owner -->
<g id="node3" class="node">
<title>text_fragment_to_line_owner</title>
<g id="a_node3"><a xlink:href="../../tables/text_fragment_to_line_owner.html" xlink:title="text_fragment_to_line_owner" target="_top">
<polygon fill="#ffffff" stroke="transparent" points="427,-133 427,-243 728,-243 728,-133 427,-133"/>
<polygon fill="#f5f5f5" stroke="transparent" points="429.5,-219 429.5,-241 726.5,-241 726.5,-219 429.5,-219"/>
<polygon fill="none" stroke="#000000" points="429.5,-219 429.5,-241 726.5,-241 726.5,-219 429.5,-219"/>
<text text-anchor="start" x="434.5" y="-228.2" font-family="Helvetica,sans-Serif" font-weight="bold" font-size="11.00" fill="#000000">text_fragment_to_line_owner</text>
<text text-anchor="start" x="691.5" y="-227.2" font-family="Helvetica,sans-Serif" font-size="11.00" fill="#000000">[table]</text>
<polygon fill="none" stroke="#000000" points="429.5,-197 429.5,-219 644.5,-219 644.5,-197 429.5,-197"/>
<image xlink:href="../../images/primaryKeys.png" width="11px" height="12px" preserveAspectRatio="xMinYMin meet" x="434.5" y="-214"/>
<text text-anchor="start" x="449.5" y="-205.2" font-family="Helvetica,sans-Serif" font-size="11.00" fill="#000000">text_fragment_to_line_id</text>
<polygon fill="none" stroke="#000000" points="644.5,-197 644.5,-219 726.5,-219 726.5,-197 644.5,-197"/>
<text text-anchor="start" x="647.5" y="-205.2" font-family="Helvetica,sans-Serif" font-size="11.00" fill="#000000">int unsigned[10]</text>
<polygon fill="#ffffff" stroke="transparent" points="429.5,-175 429.5,-197 644.5,-197 644.5,-175 429.5,-175"/>
<polygon fill="none" stroke="#000000" points="429.5,-175 429.5,-197 644.5,-197 644.5,-175 429.5,-175"/>
<image xlink:href="../../images/foreignKeys.png" width="11px" height="12px" preserveAspectRatio="xMinYMin meet" x="434.5" y="-192"/>
<text text-anchor="start" x="449.5" y="-183.2" font-family="Helvetica,sans-Serif" font-size="11.00" fill="#000000">edition_editor_id</text>
<polygon fill="none" stroke="#000000" points="644.5,-175 644.5,-197 726.5,-197 726.5,-175 644.5,-175"/>
<text text-anchor="start" x="647.5" y="-183.2" font-family="Helvetica,sans-Serif" font-size="11.00" fill="#000000">int unsigned[10]</text>
<polygon fill="none" stroke="#000000" points="429.5,-153 429.5,-175 644.5,-175 644.5,-153 429.5,-153"/>
<image xlink:href="../../images/primaryKeys.png" width="11px" height="12px" preserveAspectRatio="xMinYMin meet" x="434.5" y="-170"/>
<text text-anchor="start" x="449.5" y="-161.2" font-family="Helvetica,sans-Serif" font-size="11.00" fill="#000000">edition_id</text>
<polygon fill="none" stroke="#000000" points="644.5,-153 644.5,-175 726.5,-175 726.5,-153 644.5,-153"/>
<text text-anchor="start" x="647.5" y="-161.2" font-family="Helvetica,sans-Serif" font-size="11.00" fill="#000000">int unsigned[10]</text>
<polygon fill="#ffffff" stroke="transparent" points="429.5,-135 429.5,-153 514.5,-153 514.5,-135 429.5,-135"/>
<polygon fill="none" stroke="#000000" points="429.5,-135 429.5,-153 514.5,-153 514.5,-135 429.5,-135"/>
<text text-anchor="start" x="432.5" y="-141.2" font-family="Helvetica,sans-Serif" font-size="11.00" fill="#000000">&lt; 3</text>
<polygon fill="#ffffff" stroke="transparent" points="514.5,-135 514.5,-153 644.5,-153 644.5,-135 514.5,-135"/>
<polygon fill="none" stroke="#000000" points="514.5,-135 514.5,-153 644.5,-153 644.5,-135 514.5,-135"/>
<text text-anchor="start" x="581.5" y="-141.2" font-family="Helvetica,sans-Serif" font-size="11.00" fill="#000000">53,405 rows</text>
<polygon fill="#ffffff" stroke="transparent" points="644.5,-135 644.5,-153 726.5,-153 726.5,-135 644.5,-135"/>
<polygon fill="none" stroke="#000000" points="644.5,-135 644.5,-153 726.5,-153 726.5,-135 644.5,-135"/>
<text text-anchor="start" x="707.5" y="-141.2" font-family="Helvetica,sans-Serif" font-size="11.00" fill="#000000">0 &gt;</text>
<polygon fill="none" stroke="#000000" stroke-width="2" points="428,-134 428,-242 727,-242 727,-134 428,-134"/>
</a>
</g>
</g>
<!-- text_fragment_to_line_owner&#45;&gt;edition_editor -->
<g id="edge2" class="edge">
<title>text_fragment_to_line_owner:w&#45;&gt;edition_editor:e</title>
<path fill="none" stroke="#000000" d="M415.0492,-186C391.7339,-186 381.0625,-186 352,-186"/>
<polygon fill="#000000" stroke="#000000" points="421.5,-186.0001 429.5,-189.6 425.5,-186 429.5,-186 429.5,-186 429.5,-186 425.5,-186 429.5,-182.4 421.5,-186.0001 421.5,-186.0001"/>
<ellipse fill="none" stroke="#000000" cx="418.3" cy="-186.0001" rx="3.2" ry="3.2"/>
</g>
<!-- text_fragment_to_line_owner&#45;&gt;edition -->
<g id="edge3" class="edge">
<title>text_fragment_to_line_owner:w&#45;&gt;edition:e</title>
<path fill="none" stroke="#000000" d="M415.5416,-160.2163C397.1605,-146.8233 415.4884,-101.5315 386,-84 308.8303,-38.1209 271.0132,-61.8924 184,-84 164.1465,-89.0442 163.9843,-106 143.5,-106"/>
<polygon fill="#000000" stroke="#000000" points="421.7786,-161.9069 428.5581,-167.4746 425.6393,-162.9535 429.5,-164 429.5,-164 429.5,-164 425.6393,-162.9535 430.4419,-160.5254 421.7786,-161.9069 421.7786,-161.9069"/>
<ellipse fill="none" stroke="#000000" cx="418.6901" cy="-161.0697" rx="3.2" ry="3.2"/>
</g>
<!-- text_fragment_to_line -->
<g id="node4" class="node">
<title>text_fragment_to_line</title>
<g id="a_node4"><a xlink:href="../../tables/text_fragment_to_line.html" xlink:title="text_fragment_to_line" target="_top">
<polygon fill="#ffffff" stroke="transparent" points="192,-240 192,-368 378,-368 378,-240 192,-240"/>
<polygon fill="#f5f5f5" stroke="transparent" points="192,-346 192,-368 378,-368 378,-346 192,-346"/>
<polygon fill="none" stroke="#000000" points="192,-346 192,-368 378,-368 378,-346 192,-346"/>
<text text-anchor="start" x="197" y="-355.2" font-family="Helvetica,sans-Serif" font-weight="bold" font-size="11.00" fill="#000000">text_fragment_to_line</text>
<text text-anchor="start" x="343" y="-354.2" font-family="Helvetica,sans-Serif" font-size="11.00" fill="#000000">[table]</text>
<polygon fill="none" stroke="#000000" points="192,-324 192,-346 378,-346 378,-324 192,-324"/>
<image xlink:href="../../images/primaryKeys.png" width="11px" height="12px" preserveAspectRatio="xMinYMin meet" x="197" y="-341"/>
<text text-anchor="start" x="212" y="-332.2" font-family="Helvetica,sans-Serif" font-size="11.00" fill="#000000">text_fragment_to_line_id</text>
<polygon fill="#ffffff" stroke="transparent" points="192,-302 192,-324 378,-324 378,-302 192,-302"/>
<polygon fill="none" stroke="#000000" points="192,-302 192,-324 378,-324 378,-302 192,-302"/>
<image xlink:href="../../images/foreignKeys.png" width="11px" height="12px" preserveAspectRatio="xMinYMin meet" x="197" y="-319"/>
<text text-anchor="start" x="212" y="-310.2" font-family="Helvetica,sans-Serif" font-size="11.00" fill="#000000">text_fragment_id</text>
<polygon fill="#ffffff" stroke="transparent" points="192,-280 192,-302 378,-302 378,-280 192,-280"/>
<polygon fill="none" stroke="#000000" points="192,-280 192,-302 378,-302 378,-280 192,-280"/>
<image xlink:href="../../images/foreignKeys.png" width="11px" height="12px" preserveAspectRatio="xMinYMin meet" x="197" y="-297"/>
<text text-anchor="start" x="212" y="-288.2" font-family="Helvetica,sans-Serif" font-size="11.00" fill="#000000">line_id</text>
<polygon fill="#ffffff" stroke="transparent" points="192,-258 192,-280 378,-280 378,-258 192,-258"/>
<polygon fill="none" stroke="#000000" points="192,-258 192,-280 378,-280 378,-258 192,-258"/>
<image xlink:href="../../images/foreignKeys.png" width="11px" height="12px" preserveAspectRatio="xMinYMin meet" x="197" y="-275"/>
<text text-anchor="start" x="212" y="-266.2" font-family="Helvetica,sans-Serif" font-size="11.00" fill="#000000">creator_id</text>
<polygon fill="#ffffff" stroke="transparent" points="192,-240 192,-258 252,-258 252,-240 192,-240"/>
<polygon fill="none" stroke="#000000" points="192,-240 192,-258 252,-258 252,-240 192,-240"/>
<text text-anchor="start" x="195" y="-246.2" font-family="Helvetica,sans-Serif" font-size="11.00" fill="#000000">&lt; 3</text>
<polygon fill="#ffffff" stroke="transparent" points="252,-240 252,-258 337,-258 337,-240 252,-240"/>
<polygon fill="none" stroke="#000000" points="252,-240 252,-258 337,-258 337,-240 252,-240"/>
<text text-anchor="start" x="274" y="-246.2" font-family="Helvetica,sans-Serif" font-size="11.00" fill="#000000">54,560 rows</text>
<polygon fill="#ffffff" stroke="transparent" points="337,-240 337,-258 378,-258 378,-240 337,-240"/>
<polygon fill="none" stroke="#000000" points="337,-240 337,-258 378,-258 378,-240 337,-240"/>
<text text-anchor="start" x="359" y="-246.2" font-family="Helvetica,sans-Serif" font-size="11.00" fill="#000000">1 &gt;</text>
</a>
</g>
</g>
<!-- text_fragment_to_line_owner&#45;&gt;text_fragment_to_line -->
<g id="edge4" class="edge">
<title>text_fragment_to_line_owner:w&#45;&gt;text_fragment_to_line:e</title>
<path fill="none" stroke="#000000" d="M415.1656,-211.3969C381.0737,-231.5935 432.9606,-335 378,-335"/>
<polygon fill="#000000" stroke="#000000" points="421.7156,-209.8448 430.3302,-211.503 425.6078,-208.9224 429.5,-208 429.5,-208 429.5,-208 425.6078,-208.9224 428.6698,-204.497 421.7156,-209.8448 421.7156,-209.8448"/>
<ellipse fill="none" stroke="#000000" cx="418.6018" cy="-210.5827" rx="3.2" ry="3.2"/>
</g>
</g>
</svg>
