<?xml version="1.0" encoding="UTF-8" standalone="no"?>
<!DOCTYPE svg PUBLIC "-//W3C//DTD SVG 1.1//EN"
 "http://www.w3.org/Graphics/SVG/1.1/DTD/svg11.dtd">
<!-- Generated by graphviz version 2.40.1 (20161225.0304)
 -->
<!-- Title: oneDegreeRelationshipsDiagramImplied Pages: 1 -->
<svg width="585pt" height="878pt"
 viewBox="0.00 0.00 585.00 878.00" xmlns="http://www.w3.org/2000/svg" xmlns:xlink="http://www.w3.org/1999/xlink">
<g id="graph0" class="graph" transform="scale(1 1) rotate(0) translate(4 874)">
<title>oneDegreeRelationshipsDiagramImplied</title>
<polygon fill="#ffffff" stroke="transparent" points="-4,4 -4,-874 581,-874 581,4 -4,4"/>
<text text-anchor="middle" x="71.5" y="-7.2" font-family="Helvetica,sans-Serif" font-size="11.00" fill="#000000">Generated by SchemaSpy</text>
<!-- iaa_edition_catalog_to_text_fragment -->
<g id="node1" class="node">
<title>iaa_edition_catalog_to_text_fragment</title>
<g id="a_node1"><a xlink:href="../../tables/iaa_edition_catalog_to_text_fragment.html" xlink:title="iaa_edition_catalog_to_text_fragment" target="_top">
<polygon fill="#ffffff" stroke="transparent" points="278,-760 278,-866 569,-866 569,-760 278,-760"/>
<polygon fill="#f5f5f5" stroke="transparent" points="278.5,-844 278.5,-866 569.5,-866 569.5,-844 278.5,-844"/>
<polygon fill="none" stroke="#000000" points="278.5,-844 278.5,-866 569.5,-866 569.5,-844 278.5,-844"/>
<text text-anchor="start" x="283.5" y="-853.2" font-family="Helvetica,sans-Serif" font-weight="bold" font-size="11.00" fill="#000000">iaa_edition_catalog_to_text_fragment</text>
<text text-anchor="start" x="534.5" y="-852.2" font-family="Helvetica,sans-Serif" font-size="11.00" fill="#000000">[table]</text>
<polygon fill="none" stroke="#000000" points="278.5,-822 278.5,-844 569.5,-844 569.5,-822 278.5,-822"/>
<image xlink:href="../../images/primaryKeys.png" width="11px" height="12px" preserveAspectRatio="xMinYMin meet" x="283.5" y="-839"/>
<text text-anchor="start" x="298.5" y="-830.2" font-family="Helvetica,sans-Serif" font-size="11.00" fill="#000000">iaa_edition_catalog_to_text_fragment_id</text>
<polygon fill="#ffffff" stroke="transparent" points="278.5,-800 278.5,-822 569.5,-822 569.5,-800 278.5,-800"/>
<polygon fill="none" stroke="#000000" points="278.5,-800 278.5,-822 569.5,-822 569.5,-800 278.5,-800"/>
<image xlink:href="../../images/foreignKeys.png" width="11px" height="12px" preserveAspectRatio="xMinYMin meet" x="283.5" y="-817"/>
<text text-anchor="start" x="298.5" y="-808.2" font-family="Helvetica,sans-Serif" font-size="11.00" fill="#000000">iaa_edition_catalog_id</text>
<polygon fill="#ffffff" stroke="transparent" points="278.5,-778 278.5,-800 569.5,-800 569.5,-778 278.5,-778"/>
<polygon fill="none" stroke="#000000" points="278.5,-778 278.5,-800 569.5,-800 569.5,-778 278.5,-778"/>
<image xlink:href="../../images/foreignKeys.png" width="11px" height="12px" preserveAspectRatio="xMinYMin meet" x="283.5" y="-795"/>
<text text-anchor="start" x="298.5" y="-786.2" font-family="Helvetica,sans-Serif" font-size="11.00" fill="#000000">text_fragment_id</text>
<polygon fill="#ffffff" stroke="transparent" points="278.5,-760 278.5,-778 390.5,-778 390.5,-760 278.5,-760"/>
<polygon fill="none" stroke="#000000" points="278.5,-760 278.5,-778 390.5,-778 390.5,-760 278.5,-760"/>
<text text-anchor="start" x="281.5" y="-766.2" font-family="Helvetica,sans-Serif" font-size="11.00" fill="#000000">&lt; 2</text>
<polygon fill="#ffffff" stroke="transparent" points="390.5,-760 390.5,-778 501.5,-778 501.5,-760 390.5,-760"/>
<polygon fill="none" stroke="#000000" points="390.5,-760 390.5,-778 501.5,-778 501.5,-760 390.5,-760"/>
<text text-anchor="start" x="438.5" y="-766.2" font-family="Helvetica,sans-Serif" font-size="11.00" fill="#000000">15,236 rows</text>
<polygon fill="#ffffff" stroke="transparent" points="501.5,-760 501.5,-778 569.5,-778 569.5,-760 501.5,-760"/>
<polygon fill="none" stroke="#000000" points="501.5,-760 501.5,-778 569.5,-778 569.5,-760 501.5,-760"/>
<text text-anchor="start" x="550.5" y="-766.2" font-family="Helvetica,sans-Serif" font-size="11.00" fill="#000000">1 &gt;</text>
</a>
</g>
</g>
<!-- text_fragment -->
<g id="node2" class="node">
<title>text_fragment</title>
<g id="a_node2"><a xlink:href="../../tables/text_fragment.html" xlink:title="text_fragment" target="_top">
<polygon fill="#ffffff" stroke="transparent" points="8,-377 8,-443 229,-443 229,-377 8,-377"/>
<polygon fill="#f5f5f5" stroke="transparent" points="10.5,-419 10.5,-441 227.5,-441 227.5,-419 10.5,-419"/>
<polygon fill="none" stroke="#000000" points="10.5,-419 10.5,-441 227.5,-441 227.5,-419 10.5,-419"/>
<text text-anchor="start" x="15.5" y="-428.2" font-family="Helvetica,sans-Serif" font-weight="bold" font-size="11.00" fill="#000000">text_fragment</text>
<text text-anchor="start" x="192.5" y="-427.2" font-family="Helvetica,sans-Serif" font-size="11.00" fill="#000000">[table]</text>
<polygon fill="none" stroke="#000000" points="10.5,-397 10.5,-419 145.5,-419 145.5,-397 10.5,-397"/>
<image xlink:href="../../images/primaryKeys.png" width="11px" height="12px" preserveAspectRatio="xMinYMin meet" x="15.5" y="-414"/>
<text text-anchor="start" x="30.5" y="-405.2" font-family="Helvetica,sans-Serif" font-size="11.00" fill="#000000">text_fragment_id</text>
<polygon fill="none" stroke="#000000" points="145.5,-397 145.5,-419 227.5,-419 227.5,-397 145.5,-397"/>
<text text-anchor="start" x="148.5" y="-405.2" font-family="Helvetica,sans-Serif" font-size="11.00" fill="#000000">int unsigned[10]</text>
<polygon fill="#ffffff" stroke="transparent" points="10.5,-379 10.5,-397 55.5,-397 55.5,-379 10.5,-379"/>
<polygon fill="none" stroke="#000000" points="10.5,-379 10.5,-397 55.5,-397 55.5,-379 10.5,-379"/>
<text text-anchor="start" x="13.5" y="-385.2" font-family="Helvetica,sans-Serif" font-size="11.00" fill="#000000">&lt; 0</text>
<polygon fill="#ffffff" stroke="transparent" points="55.5,-379 55.5,-397 145.5,-397 145.5,-379 55.5,-379"/>
<polygon fill="none" stroke="#000000" points="55.5,-379 55.5,-397 145.5,-397 145.5,-379 55.5,-379"/>
<text text-anchor="start" x="82.5" y="-385.2" font-family="Helvetica,sans-Serif" font-size="11.00" fill="#000000">11,176 rows</text>
<polygon fill="#ffffff" stroke="transparent" points="145.5,-379 145.5,-397 227.5,-397 227.5,-379 145.5,-379"/>
<polygon fill="none" stroke="#000000" points="145.5,-379 145.5,-397 227.5,-397 227.5,-379 145.5,-379"/>
<text text-anchor="start" x="208.5" y="-385.2" font-family="Helvetica,sans-Serif" font-size="11.00" fill="#000000">7 &gt;</text>
<polygon fill="none" stroke="#000000" stroke-width="2" points="9,-378 9,-442 228,-442 228,-378 9,-378"/>
</a>
</g>
</g>
<!-- iaa_edition_catalog_to_text_fragment&#45;&gt;text_fragment -->
<g id="edge1" class="edge">
<title>iaa_edition_catalog_to_text_fragment:w&#45;&gt;text_fragment:e</title>
<path fill="none" stroke="#000000" d="M264.4311,-784.4558C207.6741,-741.4695 307.4161,-408 227.5,-408"/>
<polygon fill="#000000" stroke="#000000" points="270.8873,-786.5411 277.3935,-792.4257 274.6936,-787.7705 278.5,-789 278.5,-789 278.5,-789 274.6936,-787.7705 279.6065,-785.5743 270.8873,-786.5411 270.8873,-786.5411"/>
<ellipse fill="none" stroke="#000000" cx="267.8422" cy="-785.5575" rx="3.2" ry="3.2"/>
</g>
<!-- image_text_fragment_match_catalogue -->
<g id="node3" class="node">
<title>image_text_fragment_match_catalogue</title>
<g id="a_node3"><a xlink:href="../../tables/image_text_fragment_match_catalogue.html" xlink:title="image_text_fragment_match_catalogue" target="_top">
<polygon fill="#ffffff" stroke="transparent" points="278,-633 278,-739 569,-739 569,-633 278,-633"/>
<polygon fill="#f5f5f5" stroke="transparent" points="278.5,-717 278.5,-739 569.5,-739 569.5,-717 278.5,-717"/>
<polygon fill="none" stroke="#000000" points="278.5,-717 278.5,-739 569.5,-739 569.5,-717 278.5,-717"/>
<text text-anchor="start" x="283.5" y="-726.2" font-family="Helvetica,sans-Serif" font-weight="bold" font-size="11.00" fill="#000000">image_text_fragment_match_catalogue</text>
<text text-anchor="start" x="536.5" y="-725.2" font-family="Helvetica,sans-Serif" font-size="11.00" fill="#000000">[view]</text>
<polygon fill="none" stroke="#000000" points="278.5,-695 278.5,-717 569.5,-717 569.5,-695 278.5,-695"/>
<image xlink:href="../../images/foreignKeys.png" width="11px" height="12px" preserveAspectRatio="xMinYMin meet" x="283.5" y="-712"/>
<text text-anchor="start" x="298.5" y="-703.2" font-family="Helvetica,sans-Serif" font-size="11.00" fill="#000000">manuscript_id</text>
<polygon fill="none" stroke="#000000" points="278.5,-673 278.5,-695 569.5,-695 569.5,-673 278.5,-673"/>
<image xlink:href="../../images/foreignKeys.png" width="11px" height="12px" preserveAspectRatio="xMinYMin meet" x="283.5" y="-690"/>
<text text-anchor="start" x="298.5" y="-681.2" font-family="Helvetica,sans-Serif" font-size="11.00" fill="#000000">text_fragment_id</text>
<polygon fill="none" stroke="#000000" points="278.5,-651 278.5,-673 569.5,-673 569.5,-651 278.5,-651"/>
<image xlink:href="../../images/foreignKeys.png" width="11px" height="12px" preserveAspectRatio="xMinYMin meet" x="283.5" y="-668"/>
<text text-anchor="start" x="298.5" y="-659.2" font-family="Helvetica,sans-Serif" font-size="11.00" fill="#000000">edition_id</text>
<polygon fill="none" stroke="#000000" points="278.5,-633 278.5,-651 569.5,-651 569.5,-633 278.5,-633"/>
<text text-anchor="start" x="281.5" y="-639.2" font-family="Helvetica,sans-Serif" font-size="11.00" fill="#000000">...</text>
</a>
</g>
</g>
<!-- image_text_fragment_match_catalogue&#45;&gt;text_fragment -->
<g id="edge2" class="edge">
<title>image_text_fragment_match_catalogue:w&#45;&gt;text_fragment:e</title>
<path fill="none" stroke="#000000" stroke-dasharray="5,2" d="M265.2628,-678.2353C227.7977,-638.6008 284.5116,-408 227.5,-408"/>
<polygon fill="#000000" stroke="#000000" points="271.1653,-680.8058 277.0626,-687.3006 274.8327,-682.4029 278.5,-684 278.5,-684 278.5,-684 274.8327,-682.4029 279.9374,-680.6994 271.1653,-680.8058 271.1653,-680.8058"/>
<ellipse fill="none" stroke="#000000" cx="268.2315" cy="-679.5281" rx="3.2" ry="3.2"/>
</g>
<!-- manuscript_to_text_fragment -->
<g id="node4" class="node">
<title>manuscript_to_text_fragment</title>
<g id="a_node4"><a xlink:href="../../tables/manuscript_to_text_fragment.html" xlink:title="manuscript_to_text_fragment" target="_top">
<polygon fill="#ffffff" stroke="transparent" points="304.5,-484 304.5,-612 542.5,-612 542.5,-484 304.5,-484"/>
<polygon fill="#f5f5f5" stroke="transparent" points="304.5,-590 304.5,-612 542.5,-612 542.5,-590 304.5,-590"/>
<polygon fill="none" stroke="#000000" points="304.5,-590 304.5,-612 542.5,-612 542.5,-590 304.5,-590"/>
<text text-anchor="start" x="309.5" y="-599.2" font-family="Helvetica,sans-Serif" font-weight="bold" font-size="11.00" fill="#000000">manuscript_to_text_fragment</text>
<text text-anchor="start" x="507.5" y="-598.2" font-family="Helvetica,sans-Serif" font-size="11.00" fill="#000000">[table]</text>
<polygon fill="none" stroke="#000000" points="304.5,-568 304.5,-590 542.5,-590 542.5,-568 304.5,-568"/>
<image xlink:href="../../images/primaryKeys.png" width="11px" height="12px" preserveAspectRatio="xMinYMin meet" x="309.5" y="-585"/>
<text text-anchor="start" x="324.5" y="-576.2" font-family="Helvetica,sans-Serif" font-size="11.00" fill="#000000">manuscript_to_text_fragment_id</text>
<polygon fill="#ffffff" stroke="transparent" points="304.5,-546 304.5,-568 542.5,-568 542.5,-546 304.5,-546"/>
<polygon fill="none" stroke="#000000" points="304.5,-546 304.5,-568 542.5,-568 542.5,-546 304.5,-546"/>
<image xlink:href="../../images/foreignKeys.png" width="11px" height="12px" preserveAspectRatio="xMinYMin meet" x="309.5" y="-563"/>
<text text-anchor="start" x="324.5" y="-554.2" font-family="Helvetica,sans-Serif" font-size="11.00" fill="#000000">manuscript_id</text>
<polygon fill="#ffffff" stroke="transparent" points="304.5,-524 304.5,-546 542.5,-546 542.5,-524 304.5,-524"/>
<polygon fill="none" stroke="#000000" points="304.5,-524 304.5,-546 542.5,-546 542.5,-524 304.5,-524"/>
<image xlink:href="../../images/foreignKeys.png" width="11px" height="12px" preserveAspectRatio="xMinYMin meet" x="309.5" y="-541"/>
<text text-anchor="start" x="324.5" y="-532.2" font-family="Helvetica,sans-Serif" font-size="11.00" fill="#000000">text_fragment_id</text>
<polygon fill="#ffffff" stroke="transparent" points="304.5,-502 304.5,-524 542.5,-524 542.5,-502 304.5,-502"/>
<polygon fill="none" stroke="#000000" points="304.5,-502 304.5,-524 542.5,-524 542.5,-502 304.5,-502"/>
<image xlink:href="../../images/foreignKeys.png" width="11px" height="12px" preserveAspectRatio="xMinYMin meet" x="309.5" y="-519"/>
<text text-anchor="start" x="324.5" y="-510.2" font-family="Helvetica,sans-Serif" font-size="11.00" fill="#000000">creator_id</text>
<polygon fill="#ffffff" stroke="transparent" points="304.5,-484 304.5,-502 390.5,-502 390.5,-484 304.5,-484"/>
<polygon fill="none" stroke="#000000" points="304.5,-484 304.5,-502 390.5,-502 390.5,-484 304.5,-484"/>
<text text-anchor="start" x="307.5" y="-490.2" font-family="Helvetica,sans-Serif" font-size="11.00" fill="#000000">&lt; 3</text>
<polygon fill="#ffffff" stroke="transparent" points="390.5,-484 390.5,-502 488.5,-502 488.5,-484 390.5,-484"/>
<polygon fill="none" stroke="#000000" points="390.5,-484 390.5,-502 488.5,-502 488.5,-484 390.5,-484"/>
<text text-anchor="start" x="425.5" y="-490.2" font-family="Helvetica,sans-Serif" font-size="11.00" fill="#000000">11,152 rows</text>
<polygon fill="#ffffff" stroke="transparent" points="488.5,-484 488.5,-502 542.5,-502 542.5,-484 488.5,-484"/>
<polygon fill="none" stroke="#000000" points="488.5,-484 488.5,-502 542.5,-502 542.5,-484 488.5,-484"/>
<text text-anchor="start" x="523.5" y="-490.2" font-family="Helvetica,sans-Serif" font-size="11.00" fill="#000000">1 &gt;</text>
</a>
</g>
</g>
<!-- manuscript_to_text_fragment&#45;&gt;text_fragment -->
<g id="edge3" class="edge">
<title>manuscript_to_text_fragment:w&#45;&gt;text_fragment:e</title>
<path fill="none" stroke="#000000" d="M290.2865,-532.4631C246.8789,-514.5637 287.9649,-408 227.5,-408"/>
<polygon fill="#000000" stroke="#000000" points="296.6245,-533.5943 303.8674,-538.544 300.5622,-534.2972 304.5,-535 304.5,-535 304.5,-535 300.5622,-534.2972 305.1326,-531.456 296.6245,-533.5943 296.6245,-533.5943"/>
<ellipse fill="none" stroke="#000000" cx="293.4742" cy="-533.032" rx="3.2" ry="3.2"/>
</g>
<!-- position_in_text_fragment_stream -->
<g id="node5" class="node">
<title>position_in_text_fragment_stream</title>
<g id="a_node5"><a xlink:href="../../tables/position_in_text_fragment_stream.html" xlink:title="position_in_text_fragment_stream" target="_top">
<polygon fill="#ffffff" stroke="transparent" points="289.5,-335 289.5,-463 557.5,-463 557.5,-335 289.5,-335"/>
<polygon fill="#f5f5f5" stroke="transparent" points="289.5,-441 289.5,-463 557.5,-463 557.5,-441 289.5,-441"/>
<polygon fill="none" stroke="#000000" points="289.5,-441 289.5,-463 557.5,-463 557.5,-441 289.5,-441"/>
<text text-anchor="start" x="294.5" y="-450.2" font-family="Helvetica,sans-Serif" font-weight="bold" font-size="11.00" fill="#000000">position_in_text_fragment_stream</text>
<text text-anchor="start" x="522.5" y="-449.2" font-family="Helvetica,sans-Serif" font-size="11.00" fill="#000000">[table]</text>
<polygon fill="none" stroke="#000000" points="289.5,-419 289.5,-441 557.5,-441 557.5,-419 289.5,-419"/>
<image xlink:href="../../images/primaryKeys.png" width="11px" height="12px" preserveAspectRatio="xMinYMin meet" x="294.5" y="-436"/>
<text text-anchor="start" x="309.5" y="-427.2" font-family="Helvetica,sans-Serif" font-size="11.00" fill="#000000">position_in_text_fragment_stream_id</text>
<polygon fill="#ffffff" stroke="transparent" points="289.5,-397 289.5,-419 557.5,-419 557.5,-397 289.5,-397"/>
<polygon fill="none" stroke="#000000" points="289.5,-397 289.5,-419 557.5,-419 557.5,-397 289.5,-397"/>
<image xlink:href="../../images/foreignKeys.png" width="11px" height="12px" preserveAspectRatio="xMinYMin meet" x="294.5" y="-414"/>
<text text-anchor="start" x="309.5" y="-405.2" font-family="Helvetica,sans-Serif" font-size="11.00" fill="#000000">text_fragment_id</text>
<polygon fill="#ffffff" stroke="transparent" points="289.5,-375 289.5,-397 557.5,-397 557.5,-375 289.5,-375"/>
<polygon fill="none" stroke="#000000" points="289.5,-375 289.5,-397 557.5,-397 557.5,-375 289.5,-375"/>
<image xlink:href="../../images/foreignKeys.png" width="11px" height="12px" preserveAspectRatio="xMinYMin meet" x="294.5" y="-392"/>
<text text-anchor="start" x="309.5" y="-383.2" font-family="Helvetica,sans-Serif" font-size="11.00" fill="#000000">next_text_fragment_id</text>
<polygon fill="#ffffff" stroke="transparent" points="289.5,-353 289.5,-375 557.5,-375 557.5,-353 289.5,-353"/>
<polygon fill="none" stroke="#000000" points="289.5,-353 289.5,-375 557.5,-375 557.5,-353 289.5,-353"/>
<image xlink:href="../../images/foreignKeys.png" width="11px" height="12px" preserveAspectRatio="xMinYMin meet" x="294.5" y="-370"/>
<text text-anchor="start" x="309.5" y="-361.2" font-family="Helvetica,sans-Serif" font-size="11.00" fill="#000000">creator_id</text>
<polygon fill="#ffffff" stroke="transparent" points="289.5,-335 289.5,-353 390.5,-353 390.5,-335 289.5,-335"/>
<polygon fill="none" stroke="#000000" points="289.5,-335 289.5,-353 390.5,-353 390.5,-335 289.5,-335"/>
<text text-anchor="start" x="292.5" y="-341.2" font-family="Helvetica,sans-Serif" font-size="11.00" fill="#000000">&lt; 3</text>
<polygon fill="#ffffff" stroke="transparent" points="390.5,-335 390.5,-353 495.5,-353 495.5,-335 390.5,-335"/>
<polygon fill="none" stroke="#000000" points="390.5,-335 390.5,-353 495.5,-353 495.5,-335 390.5,-335"/>
<text text-anchor="start" x="432.5" y="-341.2" font-family="Helvetica,sans-Serif" font-size="11.00" fill="#000000">10,407 rows</text>
<polygon fill="#ffffff" stroke="transparent" points="495.5,-335 495.5,-353 557.5,-353 557.5,-335 495.5,-335"/>
<polygon fill="none" stroke="#000000" points="495.5,-335 495.5,-353 557.5,-353 557.5,-335 495.5,-335"/>
<text text-anchor="start" x="538.5" y="-341.2" font-family="Helvetica,sans-Serif" font-size="11.00" fill="#000000">1 &gt;</text>
</a>
</g>
</g>
<!-- position_in_text_fragment_stream&#45;&gt;text_fragment -->
<g id="edge4" class="edge">
<title>position_in_text_fragment_stream:w&#45;&gt;text_fragment:e</title>
<path fill="none" stroke="#000000" d="M274.9277,-388.1899C257.9042,-393.7545 251.0282,-408 227.5,-408"/>
<polygon fill="#000000" stroke="#000000" points="281.5888,-387.1889 290.035,-389.56 285.5444,-386.5945 289.5,-386 289.5,-386 289.5,-386 285.5444,-386.5945 288.965,-382.44 281.5888,-387.1889 281.5888,-387.1889"/>
<ellipse fill="none" stroke="#000000" cx="278.4244" cy="-387.6645" rx="3.2" ry="3.2"/>
</g>
<!-- position_in_text_fragment_stream&#45;&gt;text_fragment -->
<g id="edge5" class="edge">
<title>position_in_text_fragment_stream:w&#45;&gt;text_fragment:e</title>
<path fill="none" stroke="#000000" d="M274.92,-408C258.2931,-408 249.4583,-408 227.5,-408"/>
<polygon fill="#000000" stroke="#000000" points="281.5,-408.0001 289.5,-411.6 285.5,-408 289.5,-408 289.5,-408 289.5,-408 285.5,-408 289.5,-404.4 281.5,-408.0001 281.5,-408.0001"/>
<ellipse fill="none" stroke="#000000" cx="278.3" cy="-408.0001" rx="3.2" ry="3.2"/>
</g>
<!-- text_fragment_data -->
<g id="node6" class="node">
<title>text_fragment_data</title>
<g id="a_node6"><a xlink:href="../../tables/text_fragment_data.html" xlink:title="text_fragment_data" target="_top">
<polygon fill="#ffffff" stroke="transparent" points="337.5,-186 337.5,-314 509.5,-314 509.5,-186 337.5,-186"/>
<polygon fill="#f5f5f5" stroke="transparent" points="337.5,-292 337.5,-314 509.5,-314 509.5,-292 337.5,-292"/>
<polygon fill="none" stroke="#000000" points="337.5,-292 337.5,-314 509.5,-314 509.5,-292 337.5,-292"/>
<text text-anchor="start" x="342.5" y="-301.2" font-family="Helvetica,sans-Serif" font-weight="bold" font-size="11.00" fill="#000000">text_fragment_data</text>
<text text-anchor="start" x="474.5" y="-300.2" font-family="Helvetica,sans-Serif" font-size="11.00" fill="#000000">[table]</text>
<polygon fill="none" stroke="#000000" points="337.5,-270 337.5,-292 509.5,-292 509.5,-270 337.5,-270"/>
<image xlink:href="../../images/primaryKeys.png" width="11px" height="12px" preserveAspectRatio="xMinYMin meet" x="342.5" y="-287"/>
<text text-anchor="start" x="357.5" y="-278.2" font-family="Helvetica,sans-Serif" font-size="11.00" fill="#000000">text_fragment_data_id</text>
<polygon fill="#ffffff" stroke="transparent" points="337.5,-248 337.5,-270 509.5,-270 509.5,-248 337.5,-248"/>
<polygon fill="none" stroke="#000000" points="337.5,-248 337.5,-270 509.5,-270 509.5,-248 337.5,-248"/>
<image xlink:href="../../images/foreignKeys.png" width="11px" height="12px" preserveAspectRatio="xMinYMin meet" x="342.5" y="-265"/>
<text text-anchor="start" x="357.5" y="-256.2" font-family="Helvetica,sans-Serif" font-size="11.00" fill="#000000">text_fragment_id</text>
<polygon fill="#ffffff" stroke="transparent" points="337.5,-226 337.5,-248 509.5,-248 509.5,-226 337.5,-226"/>
<polygon fill="none" stroke="#000000" points="337.5,-226 337.5,-248 509.5,-248 509.5,-226 337.5,-226"/>
<text text-anchor="start" x="357.5" y="-234.2" font-family="Helvetica,sans-Serif" font-size="11.00" fill="#000000">name</text>
<polygon fill="#ffffff" stroke="transparent" points="337.5,-204 337.5,-226 509.5,-226 509.5,-204 337.5,-204"/>
<polygon fill="none" stroke="#000000" points="337.5,-204 337.5,-226 509.5,-226 509.5,-204 337.5,-204"/>
<image xlink:href="../../images/foreignKeys.png" width="11px" height="12px" preserveAspectRatio="xMinYMin meet" x="342.5" y="-221"/>
<text text-anchor="start" x="357.5" y="-212.2" font-family="Helvetica,sans-Serif" font-size="11.00" fill="#000000">creator_id</text>
<polygon fill="#ffffff" stroke="transparent" points="337.5,-186 337.5,-204 390.5,-204 390.5,-186 337.5,-186"/>
<polygon fill="none" stroke="#000000" points="337.5,-186 337.5,-204 390.5,-204 390.5,-186 337.5,-186"/>
<text text-anchor="start" x="340.5" y="-192.2" font-family="Helvetica,sans-Serif" font-size="11.00" fill="#000000">&lt; 2</text>
<polygon fill="#ffffff" stroke="transparent" points="390.5,-186 390.5,-204 471.5,-204 471.5,-186 390.5,-186"/>
<polygon fill="none" stroke="#000000" points="390.5,-186 390.5,-204 471.5,-204 471.5,-186 390.5,-186"/>
<text text-anchor="start" x="408.5" y="-192.2" font-family="Helvetica,sans-Serif" font-size="11.00" fill="#000000">11,169 rows</text>
<polygon fill="#ffffff" stroke="transparent" points="471.5,-186 471.5,-204 509.5,-204 509.5,-186 471.5,-186"/>
<polygon fill="none" stroke="#000000" points="471.5,-186 471.5,-204 509.5,-204 509.5,-186 471.5,-186"/>
<text text-anchor="start" x="490.5" y="-192.2" font-family="Helvetica,sans-Serif" font-size="11.00" fill="#000000">1 &gt;</text>
</a>
</g>
</g>
<!-- text_fragment_data&#45;&gt;text_fragment -->
<g id="edge6" class="edge">
<title>text_fragment_data:w&#45;&gt;text_fragment:e</title>
<path fill="none" stroke="#000000" d="M322.8145,-260.6332C294.9407,-267.5858 291.581,-295.706 270,-325 245.4186,-358.3667 268.9437,-408 227.5,-408"/>
<polygon fill="#000000" stroke="#000000" points="329.549,-259.8843 337.8979,-262.5779 333.5245,-259.4421 337.5,-259 337.5,-259 337.5,-259 333.5245,-259.4421 337.1021,-255.4221 329.549,-259.8843 329.549,-259.8843"/>
<ellipse fill="none" stroke="#000000" cx="326.3686" cy="-260.238" rx="3.2" ry="3.2"/>
</g>
<!-- text_fragment_to_line -->
<g id="node7" class="node">
<title>text_fragment_to_line</title>
<g id="a_node7"><a xlink:href="../../tables/text_fragment_to_line.html" xlink:title="text_fragment_to_line" target="_top">
<polygon fill="#ffffff" stroke="transparent" points="330.5,-37 330.5,-165 516.5,-165 516.5,-37 330.5,-37"/>
<polygon fill="#f5f5f5" stroke="transparent" points="330.5,-143 330.5,-165 516.5,-165 516.5,-143 330.5,-143"/>
<polygon fill="none" stroke="#000000" points="330.5,-143 330.5,-165 516.5,-165 516.5,-143 330.5,-143"/>
<text text-anchor="start" x="335.5" y="-152.2" font-family="Helvetica,sans-Serif" font-weight="bold" font-size="11.00" fill="#000000">text_fragment_to_line</text>
<text text-anchor="start" x="481.5" y="-151.2" font-family="Helvetica,sans-Serif" font-size="11.00" fill="#000000">[table]</text>
<polygon fill="none" stroke="#000000" points="330.5,-121 330.5,-143 516.5,-143 516.5,-121 330.5,-121"/>
<image xlink:href="../../images/primaryKeys.png" width="11px" height="12px" preserveAspectRatio="xMinYMin meet" x="335.5" y="-138"/>
<text text-anchor="start" x="350.5" y="-129.2" font-family="Helvetica,sans-Serif" font-size="11.00" fill="#000000">text_fragment_to_line_id</text>
<polygon fill="#ffffff" stroke="transparent" points="330.5,-99 330.5,-121 516.5,-121 516.5,-99 330.5,-99"/>
<polygon fill="none" stroke="#000000" points="330.5,-99 330.5,-121 516.5,-121 516.5,-99 330.5,-99"/>
<image xlink:href="../../images/foreignKeys.png" width="11px" height="12px" preserveAspectRatio="xMinYMin meet" x="335.5" y="-116"/>
<text text-anchor="start" x="350.5" y="-107.2" font-family="Helvetica,sans-Serif" font-size="11.00" fill="#000000">text_fragment_id</text>
<polygon fill="#ffffff" stroke="transparent" points="330.5,-77 330.5,-99 516.5,-99 516.5,-77 330.5,-77"/>
<polygon fill="none" stroke="#000000" points="330.5,-77 330.5,-99 516.5,-99 516.5,-77 330.5,-77"/>
<image xlink:href="../../images/foreignKeys.png" width="11px" height="12px" preserveAspectRatio="xMinYMin meet" x="335.5" y="-94"/>
<text text-anchor="start" x="350.5" y="-85.2" font-family="Helvetica,sans-Serif" font-size="11.00" fill="#000000">line_id</text>
<polygon fill="#ffffff" stroke="transparent" points="330.5,-55 330.5,-77 516.5,-77 516.5,-55 330.5,-55"/>
<polygon fill="none" stroke="#000000" points="330.5,-55 330.5,-77 516.5,-77 516.5,-55 330.5,-55"/>
<image xlink:href="../../images/foreignKeys.png" width="11px" height="12px" preserveAspectRatio="xMinYMin meet" x="335.5" y="-72"/>
<text text-anchor="start" x="350.5" y="-63.2" font-family="Helvetica,sans-Serif" font-size="11.00" fill="#000000">creator_id</text>
<polygon fill="#ffffff" stroke="transparent" points="330.5,-37 330.5,-55 390.5,-55 390.5,-37 330.5,-37"/>
<polygon fill="none" stroke="#000000" points="330.5,-37 330.5,-55 390.5,-55 390.5,-37 330.5,-37"/>
<text text-anchor="start" x="333.5" y="-43.2" font-family="Helvetica,sans-Serif" font-size="11.00" fill="#000000">&lt; 3</text>
<polygon fill="#ffffff" stroke="transparent" points="390.5,-37 390.5,-55 475.5,-55 475.5,-37 390.5,-37"/>
<polygon fill="none" stroke="#000000" points="390.5,-37 390.5,-55 475.5,-55 475.5,-37 390.5,-37"/>
<text text-anchor="start" x="412.5" y="-43.2" font-family="Helvetica,sans-Serif" font-size="11.00" fill="#000000">54,560 rows</text>
<polygon fill="#ffffff" stroke="transparent" points="475.5,-37 475.5,-55 516.5,-55 516.5,-37 475.5,-37"/>
<polygon fill="none" stroke="#000000" points="475.5,-37 475.5,-55 516.5,-55 516.5,-37 475.5,-37"/>
<text text-anchor="start" x="497.5" y="-43.2" font-family="Helvetica,sans-Serif" font-size="11.00" fill="#000000">1 &gt;</text>
</a>
</g>
</g>
<!-- text_fragment_to_line&#45;&gt;text_fragment -->
<g id="edge7" class="edge">
<title>text_fragment_to_line:w&#45;&gt;text_fragment:e</title>
<path fill="none" stroke="#000000" d="M316.1111,-111.6389C289.6155,-118.4029 285.2987,-145.2425 270,-176 246.6577,-222.9288 279.9135,-408 227.5,-408"/>
<polygon fill="#000000" stroke="#000000" points="322.5514,-110.9054 330.9074,-113.5769 326.5257,-110.4527 330.5,-110 330.5,-110 330.5,-110 326.5257,-110.4527 330.0926,-106.4231 322.5514,-110.9054 322.5514,-110.9054"/>
<ellipse fill="none" stroke="#000000" cx="319.372" cy="-111.2676" rx="3.2" ry="3.2"/>
</g>
</g>
</svg>
