<?xml version="1.0" encoding="UTF-8" standalone="no"?>
<!DOCTYPE svg PUBLIC "-//W3C//DTD SVG 1.1//EN"
 "http://www.w3.org/Graphics/SVG/1.1/DTD/svg11.dtd">
<!-- Generated by graphviz version 2.40.1 (20161225.0304)
 -->
<!-- Title: oneDegreeRelationshipsDiagram Pages: 1 -->
<svg width="585pt" height="751pt"
 viewBox="0.00 0.00 585.00 751.00" xmlns="http://www.w3.org/2000/svg" xmlns:xlink="http://www.w3.org/1999/xlink">
<g id="graph0" class="graph" transform="scale(1 1) rotate(0) translate(4 747)">
<title>oneDegreeRelationshipsDiagram</title>
<polygon fill="#ffffff" stroke="transparent" points="-4,4 -4,-747 581,-747 581,4 -4,4"/>
<text text-anchor="middle" x="71.5" y="-7.2" font-family="Helvetica,sans-Serif" font-size="11.00" fill="#000000">Generated by SchemaSpy</text>
<!-- iaa_edition_catalog_to_text_fragment -->
<g id="node1" class="node">
<title>iaa_edition_catalog_to_text_fragment</title>
<g id="a_node1"><a xlink:href="../../tables/iaa_edition_catalog_to_text_fragment.html" xlink:title="iaa_edition_catalog_to_text_fragment" target="_top">
<polygon fill="#ffffff" stroke="transparent" points="278,-633 278,-739 569,-739 569,-633 278,-633"/>
<polygon fill="#f5f5f5" stroke="transparent" points="278.5,-717 278.5,-739 569.5,-739 569.5,-717 278.5,-717"/>
<polygon fill="none" stroke="#000000" points="278.5,-717 278.5,-739 569.5,-739 569.5,-717 278.5,-717"/>
<text text-anchor="start" x="283.5" y="-726.2" font-family="Helvetica,sans-Serif" font-weight="bold" font-size="11.00" fill="#000000">iaa_edition_catalog_to_text_fragment</text>
<text text-anchor="start" x="534.5" y="-725.2" font-family="Helvetica,sans-Serif" font-size="11.00" fill="#000000">[table]</text>
<polygon fill="none" stroke="#000000" points="278.5,-695 278.5,-717 569.5,-717 569.5,-695 278.5,-695"/>
<image xlink:href="../../images/primaryKeys.png" width="11px" height="12px" preserveAspectRatio="xMinYMin meet" x="283.5" y="-712"/>
<text text-anchor="start" x="298.5" y="-703.2" font-family="Helvetica,sans-Serif" font-size="11.00" fill="#000000">iaa_edition_catalog_to_text_fragment_id</text>
<polygon fill="#ffffff" stroke="transparent" points="278.5,-673 278.5,-695 569.5,-695 569.5,-673 278.5,-673"/>
<polygon fill="none" stroke="#000000" points="278.5,-673 278.5,-695 569.5,-695 569.5,-673 278.5,-673"/>
<image xlink:href="../../images/foreignKeys.png" width="11px" height="12px" preserveAspectRatio="xMinYMin meet" x="283.5" y="-690"/>
<text text-anchor="start" x="298.5" y="-681.2" font-family="Helvetica,sans-Serif" font-size="11.00" fill="#000000">iaa_edition_catalog_id</text>
<polygon fill="#ffffff" stroke="transparent" points="278.5,-651 278.5,-673 569.5,-673 569.5,-651 278.5,-651"/>
<polygon fill="none" stroke="#000000" points="278.5,-651 278.5,-673 569.5,-673 569.5,-651 278.5,-651"/>
<image xlink:href="../../images/foreignKeys.png" width="11px" height="12px" preserveAspectRatio="xMinYMin meet" x="283.5" y="-668"/>
<text text-anchor="start" x="298.5" y="-659.2" font-family="Helvetica,sans-Serif" font-size="11.00" fill="#000000">text_fragment_id</text>
<polygon fill="#ffffff" stroke="transparent" points="278.5,-633 278.5,-651 390.5,-651 390.5,-633 278.5,-633"/>
<polygon fill="none" stroke="#000000" points="278.5,-633 278.5,-651 390.5,-651 390.5,-633 278.5,-633"/>
<text text-anchor="start" x="281.5" y="-639.2" font-family="Helvetica,sans-Serif" font-size="11.00" fill="#000000">&lt; 2</text>
<polygon fill="#ffffff" stroke="transparent" points="390.5,-633 390.5,-651 501.5,-651 501.5,-633 390.5,-633"/>
<polygon fill="none" stroke="#000000" points="390.5,-633 390.5,-651 501.5,-651 501.5,-633 390.5,-633"/>
<text text-anchor="start" x="438.5" y="-639.2" font-family="Helvetica,sans-Serif" font-size="11.00" fill="#000000">15,236 rows</text>
<polygon fill="#ffffff" stroke="transparent" points="501.5,-633 501.5,-651 569.5,-651 569.5,-633 501.5,-633"/>
<polygon fill="none" stroke="#000000" points="501.5,-633 501.5,-651 569.5,-651 569.5,-633 501.5,-633"/>
<text text-anchor="start" x="550.5" y="-639.2" font-family="Helvetica,sans-Serif" font-size="11.00" fill="#000000">1 &gt;</text>
</a>
</g>
</g>
<!-- text_fragment -->
<g id="node2" class="node">
<title>text_fragment</title>
<g id="a_node2"><a xlink:href="../../tables/text_fragment.html" xlink:title="text_fragment" target="_top">
<polygon fill="#ffffff" stroke="transparent" points="8,-366 8,-432 229,-432 229,-366 8,-366"/>
<polygon fill="#f5f5f5" stroke="transparent" points="10.5,-408 10.5,-430 227.5,-430 227.5,-408 10.5,-408"/>
<polygon fill="none" stroke="#000000" points="10.5,-408 10.5,-430 227.5,-430 227.5,-408 10.5,-408"/>
<text text-anchor="start" x="15.5" y="-417.2" font-family="Helvetica,sans-Serif" font-weight="bold" font-size="11.00" fill="#000000">text_fragment</text>
<text text-anchor="start" x="192.5" y="-416.2" font-family="Helvetica,sans-Serif" font-size="11.00" fill="#000000">[table]</text>
<polygon fill="none" stroke="#000000" points="10.5,-386 10.5,-408 145.5,-408 145.5,-386 10.5,-386"/>
<image xlink:href="../../images/primaryKeys.png" width="11px" height="12px" preserveAspectRatio="xMinYMin meet" x="15.5" y="-403"/>
<text text-anchor="start" x="30.5" y="-394.2" font-family="Helvetica,sans-Serif" font-size="11.00" fill="#000000">text_fragment_id</text>
<polygon fill="none" stroke="#000000" points="145.5,-386 145.5,-408 227.5,-408 227.5,-386 145.5,-386"/>
<text text-anchor="start" x="148.5" y="-394.2" font-family="Helvetica,sans-Serif" font-size="11.00" fill="#000000">int unsigned[10]</text>
<polygon fill="#ffffff" stroke="transparent" points="10.5,-368 10.5,-386 55.5,-386 55.5,-368 10.5,-368"/>
<polygon fill="none" stroke="#000000" points="10.5,-368 10.5,-386 55.5,-386 55.5,-368 10.5,-368"/>
<text text-anchor="start" x="13.5" y="-374.2" font-family="Helvetica,sans-Serif" font-size="11.00" fill="#000000">&lt; 0</text>
<polygon fill="#ffffff" stroke="transparent" points="55.5,-368 55.5,-386 145.5,-386 145.5,-368 55.5,-368"/>
<polygon fill="none" stroke="#000000" points="55.5,-368 55.5,-386 145.5,-386 145.5,-368 55.5,-368"/>
<text text-anchor="start" x="82.5" y="-374.2" font-family="Helvetica,sans-Serif" font-size="11.00" fill="#000000">11,176 rows</text>
<polygon fill="#ffffff" stroke="transparent" points="145.5,-368 145.5,-386 227.5,-386 227.5,-368 145.5,-368"/>
<polygon fill="none" stroke="#000000" points="145.5,-368 145.5,-386 227.5,-386 227.5,-368 145.5,-368"/>
<text text-anchor="start" x="208.5" y="-374.2" font-family="Helvetica,sans-Serif" font-size="11.00" fill="#000000">6 &gt;</text>
<polygon fill="none" stroke="#000000" stroke-width="2" points="9,-367 9,-431 228,-431 228,-367 9,-367"/>
</a>
</g>
</g>
<!-- iaa_edition_catalog_to_text_fragment&#45;&gt;text_fragment -->
<g id="edge1" class="edge">
<title>iaa_edition_catalog_to_text_fragment:w&#45;&gt;text_fragment:e</title>
<path fill="none" stroke="#000000" d="M264.1499,-660.4438C174.9073,-638.7262 342.0512,-397 227.5,-397"/>
<polygon fill="#000000" stroke="#000000" points="270.5466,-661.1374 278.1118,-665.579 274.5233,-661.5687 278.5,-662 278.5,-662 278.5,-662 274.5233,-661.5687 278.8882,-658.421 270.5466,-661.1374 270.5466,-661.1374"/>
<ellipse fill="none" stroke="#000000" cx="267.3653" cy="-660.7924" rx="3.2" ry="3.2"/>
</g>
<!-- manuscript_to_text_fragment -->
<g id="node3" class="node">
<title>manuscript_to_text_fragment</title>
<g id="a_node3"><a xlink:href="../../tables/manuscript_to_text_fragment.html" xlink:title="manuscript_to_text_fragment" target="_top">
<polygon fill="#ffffff" stroke="transparent" points="304.5,-484 304.5,-612 542.5,-612 542.5,-484 304.5,-484"/>
<polygon fill="#f5f5f5" stroke="transparent" points="304.5,-590 304.5,-612 542.5,-612 542.5,-590 304.5,-590"/>
<polygon fill="none" stroke="#000000" points="304.5,-590 304.5,-612 542.5,-612 542.5,-590 304.5,-590"/>
<text text-anchor="start" x="309.5" y="-599.2" font-family="Helvetica,sans-Serif" font-weight="bold" font-size="11.00" fill="#000000">manuscript_to_text_fragment</text>
<text text-anchor="start" x="507.5" y="-598.2" font-family="Helvetica,sans-Serif" font-size="11.00" fill="#000000">[table]</text>
<polygon fill="none" stroke="#000000" points="304.5,-568 304.5,-590 542.5,-590 542.5,-568 304.5,-568"/>
<image xlink:href="../../images/primaryKeys.png" width="11px" height="12px" preserveAspectRatio="xMinYMin meet" x="309.5" y="-585"/>
<text text-anchor="start" x="324.5" y="-576.2" font-family="Helvetica,sans-Serif" font-size="11.00" fill="#000000">manuscript_to_text_fragment_id</text>
<polygon fill="#ffffff" stroke="transparent" points="304.5,-546 304.5,-568 542.5,-568 542.5,-546 304.5,-546"/>
<polygon fill="none" stroke="#000000" points="304.5,-546 304.5,-568 542.5,-568 542.5,-546 304.5,-546"/>
<image xlink:href="../../images/foreignKeys.png" width="11px" height="12px" preserveAspectRatio="xMinYMin meet" x="309.5" y="-563"/>
<text text-anchor="start" x="324.5" y="-554.2" font-family="Helvetica,sans-Serif" font-size="11.00" fill="#000000">manuscript_id</text>
<polygon fill="#ffffff" stroke="transparent" points="304.5,-524 304.5,-546 542.5,-546 542.5,-524 304.5,-524"/>
<polygon fill="none" stroke="#000000" points="304.5,-524 304.5,-546 542.5,-546 542.5,-524 304.5,-524"/>
<image xlink:href="../../images/foreignKeys.png" width="11px" height="12px" preserveAspectRatio="xMinYMin meet" x="309.5" y="-541"/>
<text text-anchor="start" x="324.5" y="-532.2" font-family="Helvetica,sans-Serif" font-size="11.00" fill="#000000">text_fragment_id</text>
<polygon fill="#ffffff" stroke="transparent" points="304.5,-502 304.5,-524 542.5,-524 542.5,-502 304.5,-502"/>
<polygon fill="none" stroke="#000000" points="304.5,-502 304.5,-524 542.5,-524 542.5,-502 304.5,-502"/>
<image xlink:href="../../images/foreignKeys.png" width="11px" height="12px" preserveAspectRatio="xMinYMin meet" x="309.5" y="-519"/>
<text text-anchor="start" x="324.5" y="-510.2" font-family="Helvetica,sans-Serif" font-size="11.00" fill="#000000">creator_id</text>
<polygon fill="#ffffff" stroke="transparent" points="304.5,-484 304.5,-502 390.5,-502 390.5,-484 304.5,-484"/>
<polygon fill="none" stroke="#000000" points="304.5,-484 304.5,-502 390.5,-502 390.5,-484 304.5,-484"/>
<text text-anchor="start" x="307.5" y="-490.2" font-family="Helvetica,sans-Serif" font-size="11.00" fill="#000000">&lt; 3</text>
<polygon fill="#ffffff" stroke="transparent" points="390.5,-484 390.5,-502 488.5,-502 488.5,-484 390.5,-484"/>
<polygon fill="none" stroke="#000000" points="390.5,-484 390.5,-502 488.5,-502 488.5,-484 390.5,-484"/>
<text text-anchor="start" x="425.5" y="-490.2" font-family="Helvetica,sans-Serif" font-size="11.00" fill="#000000">11,152 rows</text>
<polygon fill="#ffffff" stroke="transparent" points="488.5,-484 488.5,-502 542.5,-502 542.5,-484 488.5,-484"/>
<polygon fill="none" stroke="#000000" points="488.5,-484 488.5,-502 542.5,-502 542.5,-484 488.5,-484"/>
<text text-anchor="start" x="523.5" y="-490.2" font-family="Helvetica,sans-Serif" font-size="11.00" fill="#000000">1 &gt;</text>
</a>
</g>
</g>
<!-- manuscript_to_text_fragment&#45;&gt;text_fragment -->
<g id="edge2" class="edge">
<title>manuscript_to_text_fragment:w&#45;&gt;text_fragment:e</title>
<path fill="none" stroke="#000000" d="M290.062,-532.4869C243.5728,-513.7834 292.1106,-397 227.5,-397"/>
<polygon fill="#000000" stroke="#000000" points="296.6185,-533.6281 303.8827,-538.5467 300.5592,-534.3141 304.5,-535 304.5,-535 304.5,-535 300.5592,-534.3141 305.1173,-531.4533 296.6185,-533.6281 296.6185,-533.6281"/>
<ellipse fill="none" stroke="#000000" cx="293.4659" cy="-533.0794" rx="3.2" ry="3.2"/>
</g>
<!-- position_in_text_fragment_stream -->
<g id="node4" class="node">
<title>position_in_text_fragment_stream</title>
<g id="a_node4"><a xlink:href="../../tables/position_in_text_fragment_stream.html" xlink:title="position_in_text_fragment_stream" target="_top">
<polygon fill="#ffffff" stroke="transparent" points="289.5,-335 289.5,-463 557.5,-463 557.5,-335 289.5,-335"/>
<polygon fill="#f5f5f5" stroke="transparent" points="289.5,-441 289.5,-463 557.5,-463 557.5,-441 289.5,-441"/>
<polygon fill="none" stroke="#000000" points="289.5,-441 289.5,-463 557.5,-463 557.5,-441 289.5,-441"/>
<text text-anchor="start" x="294.5" y="-450.2" font-family="Helvetica,sans-Serif" font-weight="bold" font-size="11.00" fill="#000000">position_in_text_fragment_stream</text>
<text text-anchor="start" x="522.5" y="-449.2" font-family="Helvetica,sans-Serif" font-size="11.00" fill="#000000">[table]</text>
<polygon fill="none" stroke="#000000" points="289.5,-419 289.5,-441 557.5,-441 557.5,-419 289.5,-419"/>
<image xlink:href="../../images/primaryKeys.png" width="11px" height="12px" preserveAspectRatio="xMinYMin meet" x="294.5" y="-436"/>
<text text-anchor="start" x="309.5" y="-427.2" font-family="Helvetica,sans-Serif" font-size="11.00" fill="#000000">position_in_text_fragment_stream_id</text>
<polygon fill="#ffffff" stroke="transparent" points="289.5,-397 289.5,-419 557.5,-419 557.5,-397 289.5,-397"/>
<polygon fill="none" stroke="#000000" points="289.5,-397 289.5,-419 557.5,-419 557.5,-397 289.5,-397"/>
<image xlink:href="../../images/foreignKeys.png" width="11px" height="12px" preserveAspectRatio="xMinYMin meet" x="294.5" y="-414"/>
<text text-anchor="start" x="309.5" y="-405.2" font-family="Helvetica,sans-Serif" font-size="11.00" fill="#000000">text_fragment_id</text>
<polygon fill="#ffffff" stroke="transparent" points="289.5,-375 289.5,-397 557.5,-397 557.5,-375 289.5,-375"/>
<polygon fill="none" stroke="#000000" points="289.5,-375 289.5,-397 557.5,-397 557.5,-375 289.5,-375"/>
<image xlink:href="../../images/foreignKeys.png" width="11px" height="12px" preserveAspectRatio="xMinYMin meet" x="294.5" y="-392"/>
<text text-anchor="start" x="309.5" y="-383.2" font-family="Helvetica,sans-Serif" font-size="11.00" fill="#000000">next_text_fragment_id</text>
<polygon fill="#ffffff" stroke="transparent" points="289.5,-353 289.5,-375 557.5,-375 557.5,-353 289.5,-353"/>
<polygon fill="none" stroke="#000000" points="289.5,-353 289.5,-375 557.5,-375 557.5,-353 289.5,-353"/>
<image xlink:href="../../images/foreignKeys.png" width="11px" height="12px" preserveAspectRatio="xMinYMin meet" x="294.5" y="-370"/>
<text text-anchor="start" x="309.5" y="-361.2" font-family="Helvetica,sans-Serif" font-size="11.00" fill="#000000">creator_id</text>
<polygon fill="#ffffff" stroke="transparent" points="289.5,-335 289.5,-353 390.5,-353 390.5,-335 289.5,-335"/>
<polygon fill="none" stroke="#000000" points="289.5,-335 289.5,-353 390.5,-353 390.5,-335 289.5,-335"/>
<text text-anchor="start" x="292.5" y="-341.2" font-family="Helvetica,sans-Serif" font-size="11.00" fill="#000000">&lt; 3</text>
<polygon fill="#ffffff" stroke="transparent" points="390.5,-335 390.5,-353 495.5,-353 495.5,-335 390.5,-335"/>
<polygon fill="none" stroke="#000000" points="390.5,-335 390.5,-353 495.5,-353 495.5,-335 390.5,-335"/>
<text text-anchor="start" x="432.5" y="-341.2" font-family="Helvetica,sans-Serif" font-size="11.00" fill="#000000">10,407 rows</text>
<polygon fill="#ffffff" stroke="transparent" points="495.5,-335 495.5,-353 557.5,-353 557.5,-335 495.5,-335"/>
<polygon fill="none" stroke="#000000" points="495.5,-335 495.5,-353 557.5,-353 557.5,-335 495.5,-335"/>
<text text-anchor="start" x="538.5" y="-341.2" font-family="Helvetica,sans-Serif" font-size="11.00" fill="#000000">1 &gt;</text>
</a>
</g>
</g>
<!-- position_in_text_fragment_stream&#45;&gt;text_fragment -->
<g id="edge3" class="edge">
<title>position_in_text_fragment_stream:w&#45;&gt;text_fragment:e</title>
<path fill="none" stroke="#000000" d="M274.796,-387.1772C258.1592,-390.0149 249.8013,-397 227.5,-397"/>
<polygon fill="#000000" stroke="#000000" points="281.5255,-386.6385 289.7873,-389.5885 285.5128,-386.3192 289.5,-386 289.5,-386 289.5,-386 285.5128,-386.3192 289.2127,-382.4115 281.5255,-386.6385 281.5255,-386.6385"/>
<ellipse fill="none" stroke="#000000" cx="278.3357" cy="-386.8939" rx="3.2" ry="3.2"/>
</g>
<!-- position_in_text_fragment_stream&#45;&gt;text_fragment -->
<g id="edge4" class="edge">
<title>position_in_text_fragment_stream:w&#45;&gt;text_fragment:e</title>
<path fill="none" stroke="#000000" d="M274.796,-406.8228C258.1592,-403.9851 249.8013,-397 227.5,-397"/>
<polygon fill="#000000" stroke="#000000" points="281.5255,-407.3615 289.2127,-411.5885 285.5128,-407.6808 289.5,-408 289.5,-408 289.5,-408 285.5128,-407.6808 289.7873,-404.4115 281.5255,-407.3615 281.5255,-407.3615"/>
<ellipse fill="none" stroke="#000000" cx="278.3357" cy="-407.1061" rx="3.2" ry="3.2"/>
</g>
<!-- text_fragment_data -->
<g id="node5" class="node">
<title>text_fragment_data</title>
<g id="a_node5"><a xlink:href="../../tables/text_fragment_data.html" xlink:title="text_fragment_data" target="_top">
<polygon fill="#ffffff" stroke="transparent" points="337.5,-186 337.5,-314 509.5,-314 509.5,-186 337.5,-186"/>
<polygon fill="#f5f5f5" stroke="transparent" points="337.5,-292 337.5,-314 509.5,-314 509.5,-292 337.5,-292"/>
<polygon fill="none" stroke="#000000" points="337.5,-292 337.5,-314 509.5,-314 509.5,-292 337.5,-292"/>
<text text-anchor="start" x="342.5" y="-301.2" font-family="Helvetica,sans-Serif" font-weight="bold" font-size="11.00" fill="#000000">text_fragment_data</text>
<text text-anchor="start" x="474.5" y="-300.2" font-family="Helvetica,sans-Serif" font-size="11.00" fill="#000000">[table]</text>
<polygon fill="none" stroke="#000000" points="337.5,-270 337.5,-292 509.5,-292 509.5,-270 337.5,-270"/>
<image xlink:href="../../images/primaryKeys.png" width="11px" height="12px" preserveAspectRatio="xMinYMin meet" x="342.5" y="-287"/>
<text text-anchor="start" x="357.5" y="-278.2" font-family="Helvetica,sans-Serif" font-size="11.00" fill="#000000">text_fragment_data_id</text>
<polygon fill="#ffffff" stroke="transparent" points="337.5,-248 337.5,-270 509.5,-270 509.5,-248 337.5,-248"/>
<polygon fill="none" stroke="#000000" points="337.5,-248 337.5,-270 509.5,-270 509.5,-248 337.5,-248"/>
<image xlink:href="../../images/foreignKeys.png" width="11px" height="12px" preserveAspectRatio="xMinYMin meet" x="342.5" y="-265"/>
<text text-anchor="start" x="357.5" y="-256.2" font-family="Helvetica,sans-Serif" font-size="11.00" fill="#000000">text_fragment_id</text>
<polygon fill="#ffffff" stroke="transparent" points="337.5,-226 337.5,-248 509.5,-248 509.5,-226 337.5,-226"/>
<polygon fill="none" stroke="#000000" points="337.5,-226 337.5,-248 509.5,-248 509.5,-226 337.5,-226"/>
<text text-anchor="start" x="357.5" y="-234.2" font-family="Helvetica,sans-Serif" font-size="11.00" fill="#000000">name</text>
<polygon fill="#ffffff" stroke="transparent" points="337.5,-204 337.5,-226 509.5,-226 509.5,-204 337.5,-204"/>
<polygon fill="none" stroke="#000000" points="337.5,-204 337.5,-226 509.5,-226 509.5,-204 337.5,-204"/>
<image xlink:href="../../images/foreignKeys.png" width="11px" height="12px" preserveAspectRatio="xMinYMin meet" x="342.5" y="-221"/>
<text text-anchor="start" x="357.5" y="-212.2" font-family="Helvetica,sans-Serif" font-size="11.00" fill="#000000">creator_id</text>
<polygon fill="#ffffff" stroke="transparent" points="337.5,-186 337.5,-204 390.5,-204 390.5,-186 337.5,-186"/>
<polygon fill="none" stroke="#000000" points="337.5,-186 337.5,-204 390.5,-204 390.5,-186 337.5,-186"/>
<text text-anchor="start" x="340.5" y="-192.2" font-family="Helvetica,sans-Serif" font-size="11.00" fill="#000000">&lt; 2</text>
<polygon fill="#ffffff" stroke="transparent" points="390.5,-186 390.5,-204 471.5,-204 471.5,-186 390.5,-186"/>
<polygon fill="none" stroke="#000000" points="390.5,-186 390.5,-204 471.5,-204 471.5,-186 390.5,-186"/>
<text text-anchor="start" x="408.5" y="-192.2" font-family="Helvetica,sans-Serif" font-size="11.00" fill="#000000">11,169 rows</text>
<polygon fill="#ffffff" stroke="transparent" points="471.5,-186 471.5,-204 509.5,-204 509.5,-186 471.5,-186"/>
<polygon fill="none" stroke="#000000" points="471.5,-186 471.5,-204 509.5,-204 509.5,-186 471.5,-186"/>
<text text-anchor="start" x="490.5" y="-192.2" font-family="Helvetica,sans-Serif" font-size="11.00" fill="#000000">1 &gt;</text>
</a>
</g>
</g>
<!-- text_fragment_data&#45;&gt;text_fragment -->
<g id="edge5" class="edge">
<title>text_fragment_data:w&#45;&gt;text_fragment:e</title>
<path fill="none" stroke="#000000" d="M322.8605,-260.6681C295.1715,-267.7613 292.45,-296.3665 270,-325 247.0726,-354.2425 264.659,-397 227.5,-397"/>
<polygon fill="#000000" stroke="#000000" points="329.5514,-259.9058 337.9076,-262.5769 333.5257,-259.4529 337.5,-259 337.5,-259 337.5,-259 333.5257,-259.4529 337.0924,-255.4231 329.5514,-259.9058 329.5514,-259.9058"/>
<ellipse fill="none" stroke="#000000" cx="326.372" cy="-260.2681" rx="3.2" ry="3.2"/>
</g>
<!-- text_fragment_to_line -->
<g id="node6" class="node">
<title>text_fragment_to_line</title>
<g id="a_node6"><a xlink:href="../../tables/text_fragment_to_line.html" xlink:title="text_fragment_to_line" target="_top">
<polygon fill="#ffffff" stroke="transparent" points="330.5,-37 330.5,-165 516.5,-165 516.5,-37 330.5,-37"/>
<polygon fill="#f5f5f5" stroke="transparent" points="330.5,-143 330.5,-165 516.5,-165 516.5,-143 330.5,-143"/>
<polygon fill="none" stroke="#000000" points="330.5,-143 330.5,-165 516.5,-165 516.5,-143 330.5,-143"/>
<text text-anchor="start" x="335.5" y="-152.2" font-family="Helvetica,sans-Serif" font-weight="bold" font-size="11.00" fill="#000000">text_fragment_to_line</text>
<text text-anchor="start" x="481.5" y="-151.2" font-family="Helvetica,sans-Serif" font-size="11.00" fill="#000000">[table]</text>
<polygon fill="none" stroke="#000000" points="330.5,-121 330.5,-143 516.5,-143 516.5,-121 330.5,-121"/>
<image xlink:href="../../images/primaryKeys.png" width="11px" height="12px" preserveAspectRatio="xMinYMin meet" x="335.5" y="-138"/>
<text text-anchor="start" x="350.5" y="-129.2" font-family="Helvetica,sans-Serif" font-size="11.00" fill="#000000">text_fragment_to_line_id</text>
<polygon fill="#ffffff" stroke="transparent" points="330.5,-99 330.5,-121 516.5,-121 516.5,-99 330.5,-99"/>
<polygon fill="none" stroke="#000000" points="330.5,-99 330.5,-121 516.5,-121 516.5,-99 330.5,-99"/>
<image xlink:href="../../images/foreignKeys.png" width="11px" height="12px" preserveAspectRatio="xMinYMin meet" x="335.5" y="-116"/>
<text text-anchor="start" x="350.5" y="-107.2" font-family="Helvetica,sans-Serif" font-size="11.00" fill="#000000">text_fragment_id</text>
<polygon fill="#ffffff" stroke="transparent" points="330.5,-77 330.5,-99 516.5,-99 516.5,-77 330.5,-77"/>
<polygon fill="none" stroke="#000000" points="330.5,-77 330.5,-99 516.5,-99 516.5,-77 330.5,-77"/>
<image xlink:href="../../images/foreignKeys.png" width="11px" height="12px" preserveAspectRatio="xMinYMin meet" x="335.5" y="-94"/>
<text text-anchor="start" x="350.5" y="-85.2" font-family="Helvetica,sans-Serif" font-size="11.00" fill="#000000">line_id</text>
<polygon fill="#ffffff" stroke="transparent" points="330.5,-55 330.5,-77 516.5,-77 516.5,-55 330.5,-55"/>
<polygon fill="none" stroke="#000000" points="330.5,-55 330.5,-77 516.5,-77 516.5,-55 330.5,-55"/>
<image xlink:href="../../images/foreignKeys.png" width="11px" height="12px" preserveAspectRatio="xMinYMin meet" x="335.5" y="-72"/>
<text text-anchor="start" x="350.5" y="-63.2" font-family="Helvetica,sans-Serif" font-size="11.00" fill="#000000">creator_id</text>
<polygon fill="#ffffff" stroke="transparent" points="330.5,-37 330.5,-55 390.5,-55 390.5,-37 330.5,-37"/>
<polygon fill="none" stroke="#000000" points="330.5,-37 330.5,-55 390.5,-55 390.5,-37 330.5,-37"/>
<text text-anchor="start" x="333.5" y="-43.2" font-family="Helvetica,sans-Serif" font-size="11.00" fill="#000000">&lt; 3</text>
<polygon fill="#ffffff" stroke="transparent" points="390.5,-37 390.5,-55 475.5,-55 475.5,-37 390.5,-37"/>
<polygon fill="none" stroke="#000000" points="390.5,-37 390.5,-55 475.5,-55 475.5,-37 390.5,-37"/>
<text text-anchor="start" x="412.5" y="-43.2" font-family="Helvetica,sans-Serif" font-size="11.00" fill="#000000">54,560 rows</text>
<polygon fill="#ffffff" stroke="transparent" points="475.5,-37 475.5,-55 516.5,-55 516.5,-37 475.5,-37"/>
<polygon fill="none" stroke="#000000" points="475.5,-37 475.5,-55 516.5,-55 516.5,-37 475.5,-37"/>
<text text-anchor="start" x="497.5" y="-43.2" font-family="Helvetica,sans-Serif" font-size="11.00" fill="#000000">1 &gt;</text>
</a>
</g>
</g>
<!-- text_fragment_to_line&#45;&gt;text_fragment -->
<g id="edge6" class="edge">
<title>text_fragment_to_line:w&#45;&gt;text_fragment:e</title>
<path fill="none" stroke="#000000" d="M316.1186,-111.6427C289.6525,-118.4214 285.434,-145.3101 270,-176 247.5307,-220.6792 277.511,-397 227.5,-397"/>
<polygon fill="#000000" stroke="#000000" points="322.5517,-110.908 330.9086,-113.5767 326.5258,-110.454 330.5,-110 330.5,-110 330.5,-110 326.5258,-110.454 330.0914,-106.4233 322.5517,-110.908 322.5517,-110.908"/>
<ellipse fill="none" stroke="#000000" cx="319.3724" cy="-111.2711" rx="3.2" ry="3.2"/>
</g>
</g>
</svg>
