<?xml version="1.0" encoding="UTF-8" standalone="no"?>
<!DOCTYPE svg PUBLIC "-//W3C//DTD SVG 1.1//EN"
 "http://www.w3.org/Graphics/SVG/1.1/DTD/svg11.dtd">
<!-- Generated by graphviz version 2.43.0 (0)
 -->
<!-- Title: oneDegreeRelationshipsDiagram Pages: 1 -->
<svg width="759pt" height="358pt"
 viewBox="0.00 0.00 759.00 358.00" xmlns="http://www.w3.org/2000/svg" xmlns:xlink="http://www.w3.org/1999/xlink">
<g id="graph0" class="graph" transform="scale(1 1) rotate(0) translate(4 354)">
<title>oneDegreeRelationshipsDiagram</title>
<polygon fill="#ffffff" stroke="transparent" points="-4,4 -4,-354 755,-354 755,4 -4,4"/>
<text text-anchor="middle" x="79.5" y="-7.2" font-family="Helvetica,sans-Serif" font-size="11.00">Generated by SchemaSpy</text>
<!-- edition_editor -->
<g id="node1" class="node">
<title>edition_editor</title>
<g id="a_node1"><a xlink:href="../../tables/edition_editor.html" xlink:title="edition_editor" target="_top">
<polygon fill="#ffffff" stroke="transparent" points="217,-95 217,-219 353,-219 353,-95 217,-95"/>
<polygon fill="#f5f5f5" stroke="transparent" points="217,-197 217,-219 353,-219 353,-197 217,-197"/>
<polygon fill="none" stroke="black" points="217,-197 217,-219 353,-219 353,-197 217,-197"/>
<text text-anchor="start" x="222" y="-206.2" font-family="Helvetica,sans-Serif" font-weight="bold" font-size="11.00">edition_editor</text>
<text text-anchor="start" x="311" y="-205.2" font-family="Helvetica,sans-Serif" font-size="11.00">[table]</text>
<polygon fill="none" stroke="black" points="217,-175 217,-197 353,-197 353,-175 217,-175"/>
<image xlink:href="../../images/primaryKeys.png" width="11px" height="12px" preserveAspectRatio="xMinYMin meet" x="222" y="-192"/>
<text text-anchor="start" x="239" y="-183.2" font-family="Helvetica,sans-Serif" font-size="11.00">edition_editor_id</text>
<polygon fill="#ffffff" stroke="transparent" points="217,-153 217,-175 353,-175 353,-153 217,-153"/>
<polygon fill="none" stroke="black" points="217,-153 217,-175 353,-175 353,-153 217,-153"/>
<image xlink:href="../../images/foreignKeys.png" width="11px" height="12px" preserveAspectRatio="xMinYMin meet" x="222" y="-170"/>
<text text-anchor="start" x="239" y="-161.2" font-family="Helvetica,sans-Serif" font-size="11.00">user_id</text>
<polygon fill="#ffffff" stroke="transparent" points="217,-131 217,-153 353,-153 353,-131 217,-131"/>
<polygon fill="none" stroke="black" points="217,-131 217,-153 353,-153 353,-131 217,-131"/>
<image xlink:href="../../images/foreignKeys.png" width="11px" height="12px" preserveAspectRatio="xMinYMin meet" x="222" y="-148"/>
<text text-anchor="start" x="239" y="-139.2" font-family="Helvetica,sans-Serif" font-size="11.00">edition_id</text>
<polygon fill="none" stroke="black" points="217,-113 217,-131 353,-131 353,-113 217,-113"/>
<text text-anchor="start" x="220" y="-119.2" font-family="Helvetica,sans-Serif" font-size="11.00">...</text>
<polygon fill="#ffffff" stroke="transparent" points="217,-95 217,-113 248,-113 248,-95 217,-95"/>
<polygon fill="none" stroke="black" points="217,-95 217,-113 248,-113 248,-95 217,-95"/>
<text text-anchor="start" x="220" y="-101.2" font-family="Helvetica,sans-Serif" font-size="11.00">&lt; 2</text>
<polygon fill="#ffffff" stroke="transparent" points="248,-95 248,-113 317,-113 317,-95 248,-95"/>
<polygon fill="none" stroke="black" points="248,-95 248,-113 317,-113 317,-95 248,-95"/>
<text text-anchor="start" x="253" y="-101.2" font-family="Helvetica,sans-Serif" font-size="11.00">1,645 rows</text>
<polygon fill="#ffffff" stroke="transparent" points="317,-95 317,-113 353,-113 353,-95 317,-95"/>
<polygon fill="none" stroke="black" points="317,-95 317,-113 353,-113 353,-95 317,-95"/>
<text text-anchor="start" x="323" y="-101.2" font-family="Helvetica,sans-Serif" font-size="11.00">33 &gt;</text>
</a>
</g>
</g>
<!-- edition -->
<g id="node2" class="node">
<title>edition</title>
<g id="a_node2"><a xlink:href="../../tables/edition.html" xlink:title="edition" target="_top">
<polygon fill="#ffffff" stroke="transparent" points="8,-37 8,-139 143,-139 143,-37 8,-37"/>
<polygon fill="#f5f5f5" stroke="transparent" points="8.5,-117 8.5,-139 143.5,-139 143.5,-117 8.5,-117"/>
<polygon fill="none" stroke="black" points="8.5,-117 8.5,-139 143.5,-139 143.5,-117 8.5,-117"/>
<text text-anchor="start" x="13.5" y="-126.2" font-family="Helvetica,sans-Serif" font-weight="bold" font-size="11.00">edition</text>
<text text-anchor="start" x="101.5" y="-125.2" font-family="Helvetica,sans-Serif" font-size="11.00">[table]</text>
<polygon fill="none" stroke="black" points="8.5,-95 8.5,-117 143.5,-117 143.5,-95 8.5,-95"/>
<image xlink:href="../../images/primaryKeys.png" width="11px" height="12px" preserveAspectRatio="xMinYMin meet" x="13.5" y="-112"/>
<text text-anchor="start" x="28.5" y="-103.2" font-family="Helvetica,sans-Serif" font-size="11.00">edition_id</text>
<polygon fill="#ffffff" stroke="transparent" points="8.5,-73 8.5,-95 143.5,-95 143.5,-73 8.5,-73"/>
<polygon fill="none" stroke="black" points="8.5,-73 8.5,-95 143.5,-95 143.5,-73 8.5,-73"/>
<image xlink:href="../../images/foreignKeys.png" width="11px" height="12px" preserveAspectRatio="xMinYMin meet" x="13.5" y="-90"/>
<text text-anchor="start" x="28.5" y="-81.2" font-family="Helvetica,sans-Serif" font-size="11.00">manuscript_id</text>
<polygon fill="none" stroke="black" points="8.5,-55 8.5,-73 143.5,-73 143.5,-55 8.5,-55"/>
<text text-anchor="start" x="11.5" y="-61.2" font-family="Helvetica,sans-Serif" font-size="11.00">...</text>
<polygon fill="#ffffff" stroke="transparent" points="8.5,-37 8.5,-55 38.5,-55 38.5,-37 8.5,-37"/>
<polygon fill="none" stroke="black" points="8.5,-37 8.5,-55 38.5,-55 38.5,-37 8.5,-37"/>
<text text-anchor="start" x="11.5" y="-43.2" font-family="Helvetica,sans-Serif" font-size="11.00">&lt; 1</text>
<polygon fill="#ffffff" stroke="transparent" points="38.5,-37 38.5,-55 107.5,-55 107.5,-37 38.5,-37"/>
<polygon fill="none" stroke="black" points="38.5,-37 38.5,-55 107.5,-55 107.5,-37 38.5,-37"/>
<text text-anchor="start" x="43.5" y="-43.2" font-family="Helvetica,sans-Serif" font-size="11.00">1,645 rows</text>
<polygon fill="#ffffff" stroke="transparent" points="107.5,-37 107.5,-55 143.5,-55 143.5,-37 107.5,-37"/>
<polygon fill="none" stroke="black" points="107.5,-37 107.5,-55 143.5,-55 143.5,-37 107.5,-37"/>
<text text-anchor="start" x="113.5" y="-43.2" font-family="Helvetica,sans-Serif" font-size="11.00">35 &gt;</text>
</a>
</g>
</g>
<!-- edition_editor&#45;&gt;edition -->
<g id="edge1" class="edge">
<title>edition_editor:w&#45;&gt;edition:e</title>
<path fill="none" stroke="black" d="M201.63,-139.64C179.45,-131.63 174.52,-106 144.5,-106"/>
<polygon fill="black" stroke="black" points="208.11,-140.7 215.42,-145.55 212.05,-141.35 216,-142 216,-142 216,-142 212.05,-141.35 216.58,-138.45 208.11,-140.7 208.11,-140.7"/>
<ellipse fill="none" stroke="black" cx="204.95" cy="-140.18" rx="3.2" ry="3.2"/>
</g>
<!-- text_fragment_to_line_owner -->
<g id="node3" class="node">
<title>text_fragment_to_line_owner</title>
<g id="a_node3"><a xlink:href="../../tables/text_fragment_to_line_owner.html" xlink:title="text_fragment_to_line_owner" target="_top">
<polygon fill="#ffffff" stroke="transparent" points="427,-133 427,-243 743,-243 743,-133 427,-133"/>
<polygon fill="#f5f5f5" stroke="transparent" points="429,-219 429,-241 741,-241 741,-219 429,-219"/>
<polygon fill="none" stroke="black" points="429,-219 429,-241 741,-241 741,-219 429,-219"/>
<text text-anchor="start" x="434" y="-228.2" font-family="Helvetica,sans-Serif" font-weight="bold" font-size="11.00">text_fragment_to_line_owner</text>
<text text-anchor="start" x="699" y="-227.2" font-family="Helvetica,sans-Serif" font-size="11.00">[table]</text>
<polygon fill="none" stroke="black" points="429,-197 429,-219 644,-219 644,-197 429,-197"/>
<image xlink:href="../../images/primaryKeys.png" width="11px" height="12px" preserveAspectRatio="xMinYMin meet" x="434" y="-214"/>
<text text-anchor="start" x="449" y="-205.2" font-family="Helvetica,sans-Serif" font-size="11.00">text_fragment_to_line_id</text>
<polygon fill="none" stroke="black" points="644,-197 644,-219 741,-219 741,-197 644,-197"/>
<text text-anchor="start" x="647" y="-205.2" font-family="Helvetica,sans-Serif" font-size="11.00">int unsigned[10]</text>
<polygon fill="#ffffff" stroke="transparent" points="429,-175 429,-197 644,-197 644,-175 429,-175"/>
<polygon fill="none" stroke="black" points="429,-175 429,-197 644,-197 644,-175 429,-175"/>
<image xlink:href="../../images/foreignKeys.png" width="11px" height="12px" preserveAspectRatio="xMinYMin meet" x="434" y="-192"/>
<text text-anchor="start" x="449" y="-183.2" font-family="Helvetica,sans-Serif" font-size="11.00">edition_editor_id</text>
<polygon fill="none" stroke="black" points="644,-175 644,-197 741,-197 741,-175 644,-175"/>
<text text-anchor="start" x="647" y="-183.2" font-family="Helvetica,sans-Serif" font-size="11.00">int unsigned[10]</text>
<polygon fill="none" stroke="black" points="429,-153 429,-175 644,-175 644,-153 429,-153"/>
<image xlink:href="../../images/primaryKeys.png" width="11px" height="12px" preserveAspectRatio="xMinYMin meet" x="434" y="-170"/>
<text text-anchor="start" x="449" y="-161.2" font-family="Helvetica,sans-Serif" font-size="11.00">edition_id</text>
<polygon fill="none" stroke="black" points="644,-153 644,-175 741,-175 741,-153 644,-153"/>
<text text-anchor="start" x="647" y="-161.2" font-family="Helvetica,sans-Serif" font-size="11.00">int unsigned[10]</text>
<polygon fill="#ffffff" stroke="transparent" points="429,-135 429,-153 528,-153 528,-135 429,-135"/>
<polygon fill="none" stroke="black" points="429,-135 429,-153 528,-153 528,-135 429,-135"/>
<text text-anchor="start" x="432" y="-141.2" font-family="Helvetica,sans-Serif" font-size="11.00">&lt; 3</text>
<polygon fill="#ffffff" stroke="transparent" points="528,-135 528,-153 644,-153 644,-135 528,-135"/>
<polygon fill="none" stroke="black" points="528,-135 528,-153 644,-153 644,-135 528,-135"/>
<text text-anchor="start" x="604" y="-141.2" font-family="Helvetica,sans-Serif" font-size="11.00">0 rows</text>
<polygon fill="#ffffff" stroke="transparent" points="644,-135 644,-153 741,-153 741,-135 644,-135"/>
<polygon fill="none" stroke="black" points="644,-135 644,-153 741,-153 741,-135 644,-135"/>
<text text-anchor="start" x="718" y="-141.2" font-family="Helvetica,sans-Serif" font-size="11.00">0 &gt;</text>
<polygon fill="none" stroke="black" stroke-width="2" points="428,-134 428,-242 742,-242 742,-134 428,-134"/>
</a>
</g>
</g>
<!-- text_fragment_to_line_owner&#45;&gt;edition_editor -->
<g id="edge2" class="edge">
<title>text_fragment_to_line_owner:w&#45;&gt;edition_editor:e</title>
<path fill="none" stroke="black" d="M413.59,-186C391.75,-186 381.49,-186 354,-186"/>
<polygon fill="black" stroke="black" points="420,-186 428,-189.6 424,-186 428,-186 428,-186 428,-186 424,-186 428,-182.4 420,-186 420,-186"/>
<ellipse fill="none" stroke="black" cx="416.8" cy="-186" rx="3.2" ry="3.2"/>
</g>
<!-- text_fragment_to_line_owner&#45;&gt;edition -->
<g id="edge3" class="edge">
<title>text_fragment_to_line_owner:w&#45;&gt;edition:e</title>
<path fill="none" stroke="black" d="M413.97,-160.03C396.37,-146.43 415,-101.53 386,-84 309.17,-37.56 270.9,-61.43 184,-84 164.55,-89.05 164.59,-106 144.5,-106"/>
<polygon fill="black" stroke="black" points="420.3,-161.82 427.02,-167.46 424.15,-162.91 428,-164 428,-164 428,-164 424.15,-162.91 428.98,-160.54 420.3,-161.82 420.3,-161.82"/>
<ellipse fill="none" stroke="black" cx="417.22" cy="-160.95" rx="3.2" ry="3.2"/>
</g>
<!-- text_fragment_to_line -->
<g id="node4" class="node">
<title>text_fragment_to_line</title>
<g id="a_node4"><a xlink:href="../../tables/text_fragment_to_line.html" xlink:title="text_fragment_to_line" target="_top">
<polygon fill="#ffffff" stroke="transparent" points="192,-240 192,-346 378,-346 378,-240 192,-240"/>
<polygon fill="#f5f5f5" stroke="transparent" points="192,-324 192,-346 378,-346 378,-324 192,-324"/>
<polygon fill="none" stroke="black" points="192,-324 192,-346 378,-346 378,-324 192,-324"/>
<text text-anchor="start" x="197" y="-333.2" font-family="Helvetica,sans-Serif" font-weight="bold" font-size="11.00">text_fragment_to_line</text>
<text text-anchor="start" x="336" y="-332.2" font-family="Helvetica,sans-Serif" font-size="11.00">[table]</text>
<polygon fill="none" stroke="black" points="192,-302 192,-324 378,-324 378,-302 192,-302"/>
<image xlink:href="../../images/primaryKeys.png" width="11px" height="12px" preserveAspectRatio="xMinYMin meet" x="197" y="-319"/>
<text text-anchor="start" x="212" y="-310.2" font-family="Helvetica,sans-Serif" font-size="11.00">text_fragment_to_line_id</text>
<polygon fill="#ffffff" stroke="transparent" points="192,-280 192,-302 378,-302 378,-280 192,-280"/>
<polygon fill="none" stroke="black" points="192,-280 192,-302 378,-302 378,-280 192,-280"/>
<image xlink:href="../../images/foreignKeys.png" width="11px" height="12px" preserveAspectRatio="xMinYMin meet" x="197" y="-297"/>
<text text-anchor="start" x="212" y="-288.2" font-family="Helvetica,sans-Serif" font-size="11.00">text_fragment_id</text>
<polygon fill="#ffffff" stroke="transparent" points="192,-258 192,-280 378,-280 378,-258 192,-258"/>
<polygon fill="none" stroke="black" points="192,-258 192,-280 378,-280 378,-258 192,-258"/>
<image xlink:href="../../images/foreignKeys.png" width="11px" height="12px" preserveAspectRatio="xMinYMin meet" x="197" y="-275"/>
<text text-anchor="start" x="212" y="-266.2" font-family="Helvetica,sans-Serif" font-size="11.00">line_id</text>
<polygon fill="#ffffff" stroke="transparent" points="192,-240 192,-258 248,-258 248,-240 192,-240"/>
<polygon fill="none" stroke="black" points="192,-240 192,-258 248,-258 248,-240 192,-240"/>
<text text-anchor="start" x="195" y="-246.2" font-family="Helvetica,sans-Serif" font-size="11.00">&lt; 2</text>
<polygon fill="#ffffff" stroke="transparent" points="248,-240 248,-258 337,-258 337,-240 248,-240"/>
<polygon fill="none" stroke="black" points="248,-240 248,-258 337,-258 337,-240 248,-240"/>
<text text-anchor="start" x="266" y="-246.2" font-family="Helvetica,sans-Serif" font-size="11.00">53,405 rows</text>
<polygon fill="#ffffff" stroke="transparent" points="337,-240 337,-258 378,-258 378,-240 337,-240"/>
<polygon fill="none" stroke="black" points="337,-240 337,-258 378,-258 378,-240 337,-240"/>
<text text-anchor="start" x="355" y="-246.2" font-family="Helvetica,sans-Serif" font-size="11.00">1 &gt;</text>
</a>
</g>
</g>
<!-- text_fragment_to_line_owner&#45;&gt;text_fragment_to_line -->
<g id="edge4" class="edge">
<title>text_fragment_to_line_owner:w&#45;&gt;text_fragment_to_line:e</title>
<path fill="none" stroke="black" d="M413.9,-211.99C387.71,-231.17 424.46,-313 379,-313"/>
<polygon fill="black" stroke="black" points="420.3,-210.18 428.98,-211.46 424.15,-209.09 428,-208 428,-208 428,-208 424.15,-209.09 427.02,-204.54 420.3,-210.18 420.3,-210.18"/>
<ellipse fill="none" stroke="black" cx="417.22" cy="-211.05" rx="3.2" ry="3.2"/>
</g>
</g>
</svg>
