<?xml version="1.0" encoding="UTF-8" standalone="no"?>
<!DOCTYPE svg PUBLIC "-//W3C//DTD SVG 1.1//EN"
 "http://www.w3.org/Graphics/SVG/1.1/DTD/svg11.dtd">
<!-- Generated by graphviz version 2.43.0 (0)
 -->
<!-- Title: twoDegreesRelationshipsDiagram Pages: 1 -->
<svg width="774pt" height="739pt"
 viewBox="0.00 0.00 774.00 739.00" xmlns="http://www.w3.org/2000/svg" xmlns:xlink="http://www.w3.org/1999/xlink">
<g id="graph0" class="graph" transform="scale(1 1) rotate(0) translate(4 735)">
<title>twoDegreesRelationshipsDiagram</title>
<polygon fill="#ffffff" stroke="transparent" points="-4,4 -4,-735 770,-735 770,4 -4,4"/>
<text text-anchor="middle" x="79.5" y="-7.2" font-family="Helvetica,sans-Serif" font-size="11.00">Generated by SchemaSpy</text>
<!-- edition_editor -->
<g id="node1" class="node">
<title>edition_editor</title>
<g id="a_node1"><a xlink:href="../../tables/edition_editor.html" xlink:title="edition_editor" target="_top">
<polygon fill="#ffffff" stroke="transparent" points="270.5,-222 270.5,-280 406.5,-280 406.5,-222 270.5,-222"/>
<polygon fill="#f5f5f5" stroke="transparent" points="270.5,-258 270.5,-280 406.5,-280 406.5,-258 270.5,-258"/>
<polygon fill="none" stroke="black" points="270.5,-258 270.5,-280 406.5,-280 406.5,-258 270.5,-258"/>
<text text-anchor="start" x="275.5" y="-267.2" font-family="Helvetica,sans-Serif" font-weight="bold" font-size="11.00">edition_editor</text>
<text text-anchor="start" x="364.5" y="-266.2" font-family="Helvetica,sans-Serif" font-size="11.00">[table]</text>
<polygon fill="none" stroke="black" points="270.5,-240 270.5,-258 406.5,-258 406.5,-240 270.5,-240"/>
<text text-anchor="start" x="273.5" y="-246.2" font-family="Helvetica,sans-Serif" font-size="11.00">...</text>
<polygon fill="#ffffff" stroke="transparent" points="270.5,-222 270.5,-240 301.5,-240 301.5,-222 270.5,-222"/>
<polygon fill="none" stroke="black" points="270.5,-222 270.5,-240 301.5,-240 301.5,-222 270.5,-222"/>
<text text-anchor="start" x="273.5" y="-228.2" font-family="Helvetica,sans-Serif" font-size="11.00">&lt; 2</text>
<polygon fill="#ffffff" stroke="transparent" points="301.5,-222 301.5,-240 370.5,-240 370.5,-222 301.5,-222"/>
<polygon fill="none" stroke="black" points="301.5,-222 301.5,-240 370.5,-240 370.5,-222 301.5,-222"/>
<text text-anchor="start" x="306.5" y="-228.2" font-family="Helvetica,sans-Serif" font-size="11.00">1,645 rows</text>
<polygon fill="#ffffff" stroke="transparent" points="370.5,-222 370.5,-240 406.5,-240 406.5,-222 370.5,-222"/>
<polygon fill="none" stroke="black" points="370.5,-222 370.5,-240 406.5,-240 406.5,-222 370.5,-222"/>
<text text-anchor="start" x="376.5" y="-228.2" font-family="Helvetica,sans-Serif" font-size="11.00">33 &gt;</text>
</a>
</g>
</g>
<!-- edition -->
<g id="node2" class="node">
<title>edition</title>
<g id="a_node2"><a xlink:href="../../tables/edition.html" xlink:title="edition" target="_top">
<polygon fill="#ffffff" stroke="transparent" points="14,-210 14,-268 140,-268 140,-210 14,-210"/>
<polygon fill="#f5f5f5" stroke="transparent" points="14,-246 14,-268 140,-268 140,-246 14,-246"/>
<polygon fill="none" stroke="black" points="14,-246 14,-268 140,-268 140,-246 14,-246"/>
<text text-anchor="start" x="19" y="-255.2" font-family="Helvetica,sans-Serif" font-weight="bold" font-size="11.00">edition</text>
<text text-anchor="start" x="98" y="-254.2" font-family="Helvetica,sans-Serif" font-size="11.00">[table]</text>
<polygon fill="none" stroke="black" points="14,-228 14,-246 140,-246 140,-228 14,-228"/>
<text text-anchor="start" x="17" y="-234.2" font-family="Helvetica,sans-Serif" font-size="11.00">...</text>
<polygon fill="#ffffff" stroke="transparent" points="14,-210 14,-228 40,-228 40,-210 14,-210"/>
<polygon fill="none" stroke="black" points="14,-210 14,-228 40,-228 40,-210 14,-210"/>
<text text-anchor="start" x="17" y="-216.2" font-family="Helvetica,sans-Serif" font-size="11.00">&lt; 1</text>
<polygon fill="#ffffff" stroke="transparent" points="40,-210 40,-228 107,-228 107,-210 40,-210"/>
<polygon fill="none" stroke="black" points="40,-210 40,-228 107,-228 107,-210 40,-210"/>
<text text-anchor="start" x="43" y="-216.2" font-family="Helvetica,sans-Serif" font-size="11.00">1,645 rows</text>
<polygon fill="#ffffff" stroke="transparent" points="107,-210 107,-228 140,-228 140,-210 107,-210"/>
<polygon fill="none" stroke="black" points="107,-210 107,-228 140,-228 140,-210 107,-210"/>
<text text-anchor="start" x="110" y="-216.2" font-family="Helvetica,sans-Serif" font-size="11.00">35 &gt;</text>
</a>
</g>
</g>
<!-- edition_editor&#45;&gt;edition -->
<g id="edge1" class="edge">
<title>edition_editor:w&#45;&gt;edition:e</title>
<path fill="none" stroke="black" d="M255.03,-248.73C209.31,-246.94 193.21,-237 141,-237"/>
<polygon fill="black" stroke="black" points="261.5,-248.85 269.43,-252.6 265.5,-248.92 269.5,-249 269.5,-249 269.5,-249 265.5,-248.92 269.57,-245.4 261.5,-248.85 261.5,-248.85"/>
<ellipse fill="none" stroke="black" cx="258.3" cy="-248.79" rx="3.2" ry="3.2"/>
</g>
<!-- iaa_edition_catalog_to_text_fragment -->
<g id="node3" class="node">
<title>iaa_edition_catalog_to_text_fragment</title>
<g id="a_node3"><a xlink:href="../../tables/iaa_edition_catalog_to_text_fragment.html" xlink:title="iaa_edition_catalog_to_text_fragment" target="_top">
<polygon fill="#ffffff" stroke="transparent" points="199,-432 199,-490 478,-490 478,-432 199,-432"/>
<polygon fill="#f5f5f5" stroke="transparent" points="199.5,-468 199.5,-490 478.5,-490 478.5,-468 199.5,-468"/>
<polygon fill="none" stroke="black" points="199.5,-468 199.5,-490 478.5,-490 478.5,-468 199.5,-468"/>
<text text-anchor="start" x="204.5" y="-477.2" font-family="Helvetica,sans-Serif" font-weight="bold" font-size="11.00">iaa_edition_catalog_to_text_fragment</text>
<text text-anchor="start" x="436.5" y="-476.2" font-family="Helvetica,sans-Serif" font-size="11.00">[table]</text>
<polygon fill="none" stroke="black" points="199.5,-450 199.5,-468 478.5,-468 478.5,-450 199.5,-450"/>
<text text-anchor="start" x="202.5" y="-456.2" font-family="Helvetica,sans-Serif" font-size="11.00">...</text>
<polygon fill="#ffffff" stroke="transparent" points="199.5,-432 199.5,-450 301.5,-450 301.5,-432 199.5,-432"/>
<polygon fill="none" stroke="black" points="199.5,-432 199.5,-450 301.5,-450 301.5,-432 199.5,-432"/>
<text text-anchor="start" x="202.5" y="-438.2" font-family="Helvetica,sans-Serif" font-size="11.00">&lt; 2</text>
<polygon fill="#ffffff" stroke="transparent" points="301.5,-432 301.5,-450 413.5,-450 413.5,-432 301.5,-432"/>
<polygon fill="none" stroke="black" points="301.5,-432 301.5,-450 413.5,-450 413.5,-432 301.5,-432"/>
<text text-anchor="start" x="342.5" y="-438.2" font-family="Helvetica,sans-Serif" font-size="11.00">15,236 rows</text>
<polygon fill="#ffffff" stroke="transparent" points="413.5,-432 413.5,-450 478.5,-450 478.5,-432 413.5,-432"/>
<polygon fill="none" stroke="black" points="413.5,-432 413.5,-450 478.5,-450 478.5,-432 413.5,-432"/>
<text text-anchor="start" x="455.5" y="-438.2" font-family="Helvetica,sans-Serif" font-size="11.00">1 &gt;</text>
</a>
</g>
</g>
<!-- text_fragment -->
<g id="node4" class="node">
<title>text_fragment</title>
<g id="a_node4"><a xlink:href="../../tables/text_fragment.html" xlink:title="text_fragment" target="_top">
<polygon fill="#ffffff" stroke="transparent" points="8,-548 8,-610 146,-610 146,-548 8,-548"/>
<polygon fill="#f5f5f5" stroke="transparent" points="8,-588 8,-610 146,-610 146,-588 8,-588"/>
<polygon fill="none" stroke="black" points="8,-588 8,-610 146,-610 146,-588 8,-588"/>
<text text-anchor="start" x="13" y="-597.2" font-family="Helvetica,sans-Serif" font-weight="bold" font-size="11.00">text_fragment</text>
<text text-anchor="start" x="104" y="-596.2" font-family="Helvetica,sans-Serif" font-size="11.00">[table]</text>
<polygon fill="none" stroke="black" points="8,-566 8,-588 146,-588 146,-566 8,-566"/>
<image xlink:href="../../images/primaryKeys.png" width="11px" height="12px" preserveAspectRatio="xMinYMin meet" x="13" y="-583"/>
<text text-anchor="start" x="30" y="-574.2" font-family="Helvetica,sans-Serif" font-size="11.00">text_fragment_id</text>
<polygon fill="#ffffff" stroke="transparent" points="8,-548 8,-566 34,-566 34,-548 8,-548"/>
<polygon fill="none" stroke="black" points="8,-548 8,-566 34,-566 34,-548 8,-548"/>
<text text-anchor="start" x="11" y="-554.2" font-family="Helvetica,sans-Serif" font-size="11.00"> &#160;</text>
<polygon fill="#ffffff" stroke="transparent" points="34,-548 34,-566 114,-566 114,-548 34,-548"/>
<polygon fill="none" stroke="black" points="34,-548 34,-566 114,-566 114,-548 34,-548"/>
<text text-anchor="start" x="43" y="-554.2" font-family="Helvetica,sans-Serif" font-size="11.00">11,176 rows</text>
<polygon fill="#ffffff" stroke="transparent" points="114,-548 114,-566 146,-566 146,-548 114,-548"/>
<polygon fill="none" stroke="black" points="114,-548 114,-566 146,-566 146,-548 114,-548"/>
<text text-anchor="start" x="123" y="-554.2" font-family="Helvetica,sans-Serif" font-size="11.00">6 &gt;</text>
</a>
</g>
</g>
<!-- iaa_edition_catalog_to_text_fragment&#45;&gt;text_fragment -->
<g id="edge2" class="edge">
<title>iaa_edition_catalog_to_text_fragment:w&#45;&gt;text_fragment:e</title>
<path fill="none" stroke="black" d="M184.12,-462.66C153.22,-482.58 198.19,-577 147,-577"/>
<polygon fill="black" stroke="black" points="190.75,-460.97 199.39,-462.49 194.62,-459.99 198.5,-459 198.5,-459 198.5,-459 194.62,-459.99 197.61,-455.51 190.75,-460.97 190.75,-460.97"/>
<ellipse fill="none" stroke="black" cx="187.65" cy="-461.76" rx="3.2" ry="3.2"/>
</g>
<!-- line_data -->
<g id="node5" class="node">
<title>line_data</title>
<g id="a_node5"><a xlink:href="../../tables/line_data.html" xlink:title="line_data" target="_top">
<polygon fill="#ffffff" stroke="transparent" points="275.5,-37 275.5,-95 401.5,-95 401.5,-37 275.5,-37"/>
<polygon fill="#f5f5f5" stroke="transparent" points="275.5,-73 275.5,-95 401.5,-95 401.5,-73 275.5,-73"/>
<polygon fill="none" stroke="black" points="275.5,-73 275.5,-95 401.5,-95 401.5,-73 275.5,-73"/>
<text text-anchor="start" x="280.5" y="-82.2" font-family="Helvetica,sans-Serif" font-weight="bold" font-size="11.00">line_data</text>
<text text-anchor="start" x="359.5" y="-81.2" font-family="Helvetica,sans-Serif" font-size="11.00">[table]</text>
<polygon fill="none" stroke="black" points="275.5,-55 275.5,-73 401.5,-73 401.5,-55 275.5,-55"/>
<text text-anchor="start" x="278.5" y="-61.2" font-family="Helvetica,sans-Serif" font-size="11.00">...</text>
<polygon fill="#ffffff" stroke="transparent" points="275.5,-37 275.5,-55 301.5,-55 301.5,-37 275.5,-37"/>
<polygon fill="none" stroke="black" points="275.5,-37 275.5,-55 301.5,-55 301.5,-37 275.5,-37"/>
<text text-anchor="start" x="278.5" y="-43.2" font-family="Helvetica,sans-Serif" font-size="11.00">&lt; 1</text>
<polygon fill="#ffffff" stroke="transparent" points="301.5,-37 301.5,-55 375.5,-55 375.5,-37 301.5,-37"/>
<polygon fill="none" stroke="black" points="301.5,-37 301.5,-55 375.5,-55 375.5,-37 301.5,-37"/>
<text text-anchor="start" x="304.5" y="-43.2" font-family="Helvetica,sans-Serif" font-size="11.00">55,080 rows</text>
<polygon fill="#ffffff" stroke="transparent" points="375.5,-37 375.5,-55 401.5,-55 401.5,-37 375.5,-37"/>
<polygon fill="none" stroke="black" points="375.5,-37 375.5,-55 401.5,-55 401.5,-37 375.5,-37"/>
<text text-anchor="start" x="378.5" y="-43.2" font-family="Helvetica,sans-Serif" font-size="11.00">1 &gt;</text>
</a>
</g>
</g>
<!-- line -->
<g id="node6" class="node">
<title>line</title>
<g id="a_node6"><a xlink:href="../../tables/line.html" xlink:title="line" target="_top">
<polygon fill="#ffffff" stroke="transparent" points="20,-114 20,-176 134,-176 134,-114 20,-114"/>
<polygon fill="#f5f5f5" stroke="transparent" points="20,-154 20,-176 134,-176 134,-154 20,-154"/>
<polygon fill="none" stroke="black" points="20,-154 20,-176 134,-176 134,-154 20,-154"/>
<text text-anchor="start" x="25" y="-163.2" font-family="Helvetica,sans-Serif" font-weight="bold" font-size="11.00">line</text>
<text text-anchor="start" x="92" y="-162.2" font-family="Helvetica,sans-Serif" font-size="11.00">[table]</text>
<polygon fill="none" stroke="black" points="20,-132 20,-154 134,-154 134,-132 20,-132"/>
<image xlink:href="../../images/primaryKeys.png" width="11px" height="12px" preserveAspectRatio="xMinYMin meet" x="25" y="-149"/>
<text text-anchor="start" x="65" y="-140.2" font-family="Helvetica,sans-Serif" font-size="11.00">line_id</text>
<polygon fill="#ffffff" stroke="transparent" points="20,-114 20,-132 34,-132 34,-114 20,-114"/>
<polygon fill="none" stroke="black" points="20,-114 20,-132 34,-132 34,-114 20,-114"/>
<text text-anchor="start" x="23" y="-120.2" font-family="Helvetica,sans-Serif" font-size="11.00"> &#160;</text>
<polygon fill="#ffffff" stroke="transparent" points="34,-114 34,-132 108,-132 108,-114 34,-114"/>
<polygon fill="none" stroke="black" points="34,-114 34,-132 108,-132 108,-114 34,-114"/>
<text text-anchor="start" x="37" y="-120.2" font-family="Helvetica,sans-Serif" font-size="11.00">53,964 rows</text>
<polygon fill="#ffffff" stroke="transparent" points="108,-114 108,-132 134,-132 134,-114 108,-114"/>
<polygon fill="none" stroke="black" points="108,-114 108,-132 134,-132 134,-114 108,-114"/>
<text text-anchor="start" x="111" y="-120.2" font-family="Helvetica,sans-Serif" font-size="11.00">3 &gt;</text>
</a>
</g>
</g>
<!-- line_data&#45;&gt;line -->
<g id="edge3" class="edge">
<title>line_data:w&#45;&gt;line:e</title>
<path fill="none" stroke="black" d="M259.93,-64.86C229.19,-68.82 219.33,-85.85 187,-105 162.37,-119.58 163.62,-143 135,-143"/>
<polygon fill="black" stroke="black" points="266.51,-64.47 274.71,-67.59 270.51,-64.24 274.5,-64 274.5,-64 274.5,-64 270.51,-64.24 274.29,-60.41 266.51,-64.47 266.51,-64.47"/>
<ellipse fill="none" stroke="black" cx="263.32" cy="-64.66" rx="3.2" ry="3.2"/>
</g>
<!-- line_to_sign -->
<g id="node7" class="node">
<title>line_to_sign</title>
<g id="a_node7"><a xlink:href="../../tables/line_to_sign.html" xlink:title="line_to_sign" target="_top">
<polygon fill="#ffffff" stroke="transparent" points="267,-116 267,-174 410,-174 410,-116 267,-116"/>
<polygon fill="#f5f5f5" stroke="transparent" points="267.5,-152 267.5,-174 410.5,-174 410.5,-152 267.5,-152"/>
<polygon fill="none" stroke="black" points="267.5,-152 267.5,-174 410.5,-174 410.5,-152 267.5,-152"/>
<text text-anchor="start" x="272.5" y="-161.2" font-family="Helvetica,sans-Serif" font-weight="bold" font-size="11.00">line_to_sign</text>
<text text-anchor="start" x="368.5" y="-160.2" font-family="Helvetica,sans-Serif" font-size="11.00">[table]</text>
<polygon fill="none" stroke="black" points="267.5,-134 267.5,-152 410.5,-152 410.5,-134 267.5,-134"/>
<text text-anchor="start" x="270.5" y="-140.2" font-family="Helvetica,sans-Serif" font-size="11.00">...</text>
<polygon fill="#ffffff" stroke="transparent" points="267.5,-116 267.5,-134 293.5,-134 293.5,-116 267.5,-116"/>
<polygon fill="none" stroke="black" points="267.5,-116 267.5,-134 293.5,-134 293.5,-116 267.5,-116"/>
<text text-anchor="start" x="270.5" y="-122.2" font-family="Helvetica,sans-Serif" font-size="11.00">&lt; 2</text>
<polygon fill="#ffffff" stroke="transparent" points="293.5,-116 293.5,-134 384.5,-134 384.5,-116 293.5,-116"/>
<polygon fill="none" stroke="black" points="293.5,-116 293.5,-134 384.5,-134 384.5,-116 293.5,-116"/>
<text text-anchor="start" x="296.5" y="-122.2" font-family="Helvetica,sans-Serif" font-size="11.00">1,730,550 rows</text>
<polygon fill="#ffffff" stroke="transparent" points="384.5,-116 384.5,-134 410.5,-134 410.5,-116 384.5,-116"/>
<polygon fill="none" stroke="black" points="384.5,-116 384.5,-134 410.5,-134 410.5,-116 384.5,-116"/>
<text text-anchor="start" x="387.5" y="-122.2" font-family="Helvetica,sans-Serif" font-size="11.00">1 &gt;</text>
</a>
</g>
</g>
<!-- line_to_sign&#45;&gt;line -->
<g id="edge4" class="edge">
<title>line_to_sign:w&#45;&gt;line:e</title>
<path fill="none" stroke="black" d="M252.05,-143C205.15,-143 188.31,-143 135,-143"/>
<polygon fill="black" stroke="black" points="258.5,-143 266.5,-146.6 262.5,-143 266.5,-143 266.5,-143 266.5,-143 262.5,-143 266.5,-139.4 258.5,-143 258.5,-143"/>
<ellipse fill="none" stroke="black" cx="255.3" cy="-143" rx="3.2" ry="3.2"/>
</g>
<!-- manuscript_to_text_fragment -->
<g id="node8" class="node">
<title>manuscript_to_text_fragment</title>
<g id="a_node8"><a xlink:href="../../tables/manuscript_to_text_fragment.html" xlink:title="manuscript_to_text_fragment" target="_top">
<polygon fill="#ffffff" stroke="transparent" points="223.5,-669 223.5,-727 453.5,-727 453.5,-669 223.5,-669"/>
<polygon fill="#f5f5f5" stroke="transparent" points="223.5,-705 223.5,-727 453.5,-727 453.5,-705 223.5,-705"/>
<polygon fill="none" stroke="black" points="223.5,-705 223.5,-727 453.5,-727 453.5,-705 223.5,-705"/>
<text text-anchor="start" x="228.5" y="-714.2" font-family="Helvetica,sans-Serif" font-weight="bold" font-size="11.00">manuscript_to_text_fragment</text>
<text text-anchor="start" x="411.5" y="-713.2" font-family="Helvetica,sans-Serif" font-size="11.00">[table]</text>
<polygon fill="none" stroke="black" points="223.5,-687 223.5,-705 453.5,-705 453.5,-687 223.5,-687"/>
<text text-anchor="start" x="226.5" y="-693.2" font-family="Helvetica,sans-Serif" font-size="11.00">...</text>
<polygon fill="#ffffff" stroke="transparent" points="223.5,-669 223.5,-687 301.5,-687 301.5,-669 223.5,-669"/>
<polygon fill="none" stroke="black" points="223.5,-669 223.5,-687 301.5,-687 301.5,-669 223.5,-669"/>
<text text-anchor="start" x="226.5" y="-675.2" font-family="Helvetica,sans-Serif" font-size="11.00">&lt; 2</text>
<polygon fill="#ffffff" stroke="transparent" points="301.5,-669 301.5,-687 401.5,-687 401.5,-669 301.5,-669"/>
<polygon fill="none" stroke="black" points="301.5,-669 301.5,-687 401.5,-687 401.5,-669 301.5,-669"/>
<text text-anchor="start" x="330.5" y="-675.2" font-family="Helvetica,sans-Serif" font-size="11.00">11,166 rows</text>
<polygon fill="#ffffff" stroke="transparent" points="401.5,-669 401.5,-687 453.5,-687 453.5,-669 401.5,-669"/>
<polygon fill="none" stroke="black" points="401.5,-669 401.5,-687 453.5,-687 453.5,-669 401.5,-669"/>
<text text-anchor="start" x="430.5" y="-675.2" font-family="Helvetica,sans-Serif" font-size="11.00">1 &gt;</text>
</a>
</g>
</g>
<!-- manuscript_to_text_fragment&#45;&gt;text_fragment -->
<g id="edge5" class="edge">
<title>manuscript_to_text_fragment:w&#45;&gt;text_fragment:e</title>
<path fill="none" stroke="black" d="M208.25,-692.26C198.89,-685.96 196.48,-672.58 187,-659 163.79,-625.75 187.55,-577 147,-577"/>
<polygon fill="black" stroke="black" points="214.76,-693.97 221.59,-699.48 218.63,-694.98 222.5,-696 222.5,-696 222.5,-696 218.63,-694.98 223.41,-692.52 214.76,-693.97 214.76,-693.97"/>
<ellipse fill="none" stroke="black" cx="211.67" cy="-693.16" rx="3.2" ry="3.2"/>
</g>
<!-- position_in_text_fragment_stream -->
<g id="node9" class="node">
<title>position_in_text_fragment_stream</title>
<g id="a_node9"><a xlink:href="../../tables/position_in_text_fragment_stream.html" xlink:title="position_in_text_fragment_stream" target="_top">
<polygon fill="#ffffff" stroke="transparent" points="209.5,-590 209.5,-648 467.5,-648 467.5,-590 209.5,-590"/>
<polygon fill="#f5f5f5" stroke="transparent" points="209.5,-626 209.5,-648 467.5,-648 467.5,-626 209.5,-626"/>
<polygon fill="none" stroke="black" points="209.5,-626 209.5,-648 467.5,-648 467.5,-626 209.5,-626"/>
<text text-anchor="start" x="214.5" y="-635.2" font-family="Helvetica,sans-Serif" font-weight="bold" font-size="11.00">position_in_text_fragment_stream</text>
<text text-anchor="start" x="425.5" y="-634.2" font-family="Helvetica,sans-Serif" font-size="11.00">[table]</text>
<polygon fill="none" stroke="black" points="209.5,-608 209.5,-626 467.5,-626 467.5,-608 209.5,-608"/>
<text text-anchor="start" x="212.5" y="-614.2" font-family="Helvetica,sans-Serif" font-size="11.00">...</text>
<polygon fill="#ffffff" stroke="transparent" points="209.5,-590 209.5,-608 301.5,-608 301.5,-590 209.5,-590"/>
<polygon fill="none" stroke="black" points="209.5,-590 209.5,-608 301.5,-608 301.5,-590 209.5,-590"/>
<text text-anchor="start" x="212.5" y="-596.2" font-family="Helvetica,sans-Serif" font-size="11.00">&lt; 2</text>
<polygon fill="#ffffff" stroke="transparent" points="301.5,-590 301.5,-608 408.5,-608 408.5,-590 301.5,-590"/>
<polygon fill="none" stroke="black" points="301.5,-590 301.5,-608 408.5,-608 408.5,-590 301.5,-590"/>
<text text-anchor="start" x="337.5" y="-596.2" font-family="Helvetica,sans-Serif" font-size="11.00">10,852 rows</text>
<polygon fill="#ffffff" stroke="transparent" points="408.5,-590 408.5,-608 467.5,-608 467.5,-590 408.5,-590"/>
<polygon fill="none" stroke="black" points="408.5,-590 408.5,-608 467.5,-608 467.5,-590 408.5,-590"/>
<text text-anchor="start" x="444.5" y="-596.2" font-family="Helvetica,sans-Serif" font-size="11.00">1 &gt;</text>
</a>
</g>
</g>
<!-- position_in_text_fragment_stream&#45;&gt;text_fragment -->
<g id="edge6" class="edge">
<title>position_in_text_fragment_stream:w&#45;&gt;text_fragment:e</title>
<path fill="none" stroke="black" d="M195.06,-611.65C176.13,-599.11 174.26,-571.98 147,-577"/>
<polygon fill="black" stroke="black" points="201.07,-614.04 207.17,-620.35 204.78,-615.52 208.5,-617 208.5,-617 208.5,-617 204.78,-615.52 209.83,-613.65 201.07,-614.04 201.07,-614.04"/>
<ellipse fill="none" stroke="black" cx="198.09" cy="-612.86" rx="3.2" ry="3.2"/>
</g>
<!-- position_in_text_fragment_stream&#45;&gt;text_fragment -->
<g id="edge7" class="edge">
<title>position_in_text_fragment_stream:w&#45;&gt;text_fragment:e</title>
<path fill="none" stroke="black" d="M194.02,-616.69C176.06,-610.69 173.75,-582.74 147,-577"/>
<polygon fill="black" stroke="black" points="200.5,-616.83 208.42,-620.6 204.5,-616.91 208.5,-617 208.5,-617 208.5,-617 204.5,-616.91 208.58,-613.4 200.5,-616.83 200.5,-616.83"/>
<ellipse fill="none" stroke="black" cx="197.3" cy="-616.76" rx="3.2" ry="3.2"/>
</g>
<!-- text_fragment_data -->
<g id="node10" class="node">
<title>text_fragment_data</title>
<g id="a_node10"><a xlink:href="../../tables/text_fragment_data.html" xlink:title="text_fragment_data" target="_top">
<polygon fill="#ffffff" stroke="transparent" points="253,-511 253,-569 424,-569 424,-511 253,-511"/>
<polygon fill="#f5f5f5" stroke="transparent" points="253.5,-547 253.5,-569 424.5,-569 424.5,-547 253.5,-547"/>
<polygon fill="none" stroke="black" points="253.5,-547 253.5,-569 424.5,-569 424.5,-547 253.5,-547"/>
<text text-anchor="start" x="258.5" y="-556.2" font-family="Helvetica,sans-Serif" font-weight="bold" font-size="11.00">text_fragment_data</text>
<text text-anchor="start" x="382.5" y="-555.2" font-family="Helvetica,sans-Serif" font-size="11.00">[table]</text>
<polygon fill="none" stroke="black" points="253.5,-529 253.5,-547 424.5,-547 424.5,-529 253.5,-529"/>
<text text-anchor="start" x="256.5" y="-535.2" font-family="Helvetica,sans-Serif" font-size="11.00">...</text>
<polygon fill="#ffffff" stroke="transparent" points="253.5,-511 253.5,-529 301.5,-529 301.5,-511 253.5,-511"/>
<polygon fill="none" stroke="black" points="253.5,-511 253.5,-529 301.5,-529 301.5,-511 253.5,-511"/>
<text text-anchor="start" x="256.5" y="-517.2" font-family="Helvetica,sans-Serif" font-size="11.00">&lt; 1</text>
<polygon fill="#ffffff" stroke="transparent" points="301.5,-511 301.5,-529 386.5,-529 386.5,-511 301.5,-511"/>
<polygon fill="none" stroke="black" points="301.5,-511 301.5,-529 386.5,-529 386.5,-511 301.5,-511"/>
<text text-anchor="start" x="315.5" y="-517.2" font-family="Helvetica,sans-Serif" font-size="11.00">11,172 rows</text>
<polygon fill="#ffffff" stroke="transparent" points="386.5,-511 386.5,-529 424.5,-529 424.5,-511 386.5,-511"/>
<polygon fill="none" stroke="black" points="386.5,-511 386.5,-529 424.5,-529 424.5,-511 386.5,-511"/>
<text text-anchor="start" x="401.5" y="-517.2" font-family="Helvetica,sans-Serif" font-size="11.00">1 &gt;</text>
</a>
</g>
</g>
<!-- text_fragment_data&#45;&gt;text_fragment -->
<g id="edge8" class="edge">
<title>text_fragment_data:w&#45;&gt;text_fragment:e</title>
<path fill="none" stroke="black" d="M238.06,-539.21C200.85,-545.79 191.72,-577 147,-577"/>
<polygon fill="black" stroke="black" points="244.53,-538.67 252.8,-541.59 248.51,-538.33 252.5,-538 252.5,-538 252.5,-538 248.51,-538.33 252.2,-534.41 244.53,-538.67 244.53,-538.67"/>
<ellipse fill="none" stroke="black" cx="241.34" cy="-538.94" rx="3.2" ry="3.2"/>
</g>
<!-- text_fragment_to_line -->
<g id="node11" class="node">
<title>text_fragment_to_line</title>
<g id="a_node11"><a xlink:href="../../tables/text_fragment_to_line.html" xlink:title="text_fragment_to_line" target="_top">
<polygon fill="#ffffff" stroke="transparent" points="195,-301 195,-411 482,-411 482,-301 195,-301"/>
<polygon fill="#f5f5f5" stroke="transparent" points="197.5,-387 197.5,-409 480.5,-409 480.5,-387 197.5,-387"/>
<polygon fill="none" stroke="black" points="197.5,-387 197.5,-409 480.5,-409 480.5,-387 197.5,-387"/>
<text text-anchor="start" x="202.5" y="-396.2" font-family="Helvetica,sans-Serif" font-weight="bold" font-size="11.00">text_fragment_to_line</text>
<text text-anchor="start" x="438.5" y="-395.2" font-family="Helvetica,sans-Serif" font-size="11.00">[table]</text>
<polygon fill="none" stroke="black" points="197.5,-365 197.5,-387 383.5,-387 383.5,-365 197.5,-365"/>
<image xlink:href="../../images/primaryKeys.png" width="11px" height="12px" preserveAspectRatio="xMinYMin meet" x="202.5" y="-382"/>
<text text-anchor="start" x="217.5" y="-373.2" font-family="Helvetica,sans-Serif" font-size="11.00">text_fragment_to_line_id</text>
<polygon fill="none" stroke="black" points="383.5,-365 383.5,-387 480.5,-387 480.5,-365 383.5,-365"/>
<text text-anchor="start" x="386.5" y="-373.2" font-family="Helvetica,sans-Serif" font-size="11.00">int unsigned[10]</text>
<polygon fill="#ffffff" stroke="transparent" points="197.5,-343 197.5,-365 383.5,-365 383.5,-343 197.5,-343"/>
<polygon fill="none" stroke="black" points="197.5,-343 197.5,-365 383.5,-365 383.5,-343 197.5,-343"/>
<image xlink:href="../../images/foreignKeys.png" width="11px" height="12px" preserveAspectRatio="xMinYMin meet" x="202.5" y="-360"/>
<text text-anchor="start" x="217.5" y="-351.2" font-family="Helvetica,sans-Serif" font-size="11.00">text_fragment_id</text>
<polygon fill="none" stroke="black" points="383.5,-343 383.5,-365 480.5,-365 480.5,-343 383.5,-343"/>
<text text-anchor="start" x="386.5" y="-351.2" font-family="Helvetica,sans-Serif" font-size="11.00">int unsigned[10]</text>
<polygon fill="#ffffff" stroke="transparent" points="197.5,-321 197.5,-343 383.5,-343 383.5,-321 197.5,-321"/>
<polygon fill="none" stroke="black" points="197.5,-321 197.5,-343 383.5,-343 383.5,-321 197.5,-321"/>
<image xlink:href="../../images/foreignKeys.png" width="11px" height="12px" preserveAspectRatio="xMinYMin meet" x="202.5" y="-338"/>
<text text-anchor="start" x="217.5" y="-329.2" font-family="Helvetica,sans-Serif" font-size="11.00">line_id</text>
<polygon fill="none" stroke="black" points="383.5,-321 383.5,-343 480.5,-343 480.5,-321 383.5,-321"/>
<text text-anchor="start" x="386.5" y="-329.2" font-family="Helvetica,sans-Serif" font-size="11.00">int unsigned[10]</text>
<polygon fill="#ffffff" stroke="transparent" points="197.5,-303 197.5,-321 266.5,-321 266.5,-303 197.5,-303"/>
<polygon fill="none" stroke="black" points="197.5,-303 197.5,-321 266.5,-321 266.5,-303 197.5,-303"/>
<text text-anchor="start" x="200.5" y="-309.2" font-family="Helvetica,sans-Serif" font-size="11.00">&lt; 2</text>
<polygon fill="#ffffff" stroke="transparent" points="266.5,-303 266.5,-321 383.5,-321 383.5,-303 266.5,-303"/>
<polygon fill="none" stroke="black" points="266.5,-303 266.5,-321 383.5,-321 383.5,-303 266.5,-303"/>
<text text-anchor="start" x="312.5" y="-309.2" font-family="Helvetica,sans-Serif" font-size="11.00">53,405 rows</text>
<polygon fill="#ffffff" stroke="transparent" points="383.5,-303 383.5,-321 480.5,-321 480.5,-303 383.5,-303"/>
<polygon fill="none" stroke="black" points="383.5,-303 383.5,-321 480.5,-321 480.5,-303 383.5,-303"/>
<text text-anchor="start" x="457.5" y="-309.2" font-family="Helvetica,sans-Serif" font-size="11.00">1 &gt;</text>
<polygon fill="none" stroke="black" stroke-width="2" points="196,-302 196,-410 481,-410 481,-302 196,-302"/>
</a>
</g>
</g>
<!-- text_fragment_to_line&#45;&gt;text_fragment -->
<g id="edge10" class="edge">
<title>text_fragment_to_line:w&#45;&gt;text_fragment:e</title>
<path fill="none" stroke="black" d="M182.05,-355.93C111.01,-377.72 242.97,-577 147,-577"/>
<polygon fill="black" stroke="black" points="188.57,-355.06 196.98,-357.57 192.54,-354.53 196.5,-354 196.5,-354 196.5,-354 192.54,-354.53 196.02,-350.43 188.57,-355.06 188.57,-355.06"/>
<ellipse fill="none" stroke="black" cx="185.4" cy="-355.48" rx="3.2" ry="3.2"/>
</g>
<!-- text_fragment_to_line&#45;&gt;line -->
<g id="edge9" class="edge">
<title>text_fragment_to_line:w&#45;&gt;line:e</title>
<path fill="none" stroke="black" d="M182.22,-329.88C121.77,-309.11 217.81,-143 135,-143"/>
<polygon fill="black" stroke="black" points="188.59,-330.82 195.97,-335.56 192.54,-331.41 196.5,-332 196.5,-332 196.5,-332 192.54,-331.41 197.03,-328.44 188.59,-330.82 188.59,-330.82"/>
<ellipse fill="none" stroke="black" cx="185.42" cy="-330.35" rx="3.2" ry="3.2"/>
</g>
<!-- text_fragment_to_line_owner -->
<g id="node12" class="node">
<title>text_fragment_to_line_owner</title>
<g id="a_node12"><a xlink:href="../../tables/text_fragment_to_line_owner.html" xlink:title="text_fragment_to_line_owner" target="_top">
<polygon fill="#ffffff" stroke="transparent" points="531,-198 531,-304 758,-304 758,-198 531,-198"/>
<polygon fill="#f5f5f5" stroke="transparent" points="531.5,-282 531.5,-304 758.5,-304 758.5,-282 531.5,-282"/>
<polygon fill="none" stroke="black" points="531.5,-282 531.5,-304 758.5,-304 758.5,-282 531.5,-282"/>
<text text-anchor="start" x="536.5" y="-291.2" font-family="Helvetica,sans-Serif" font-weight="bold" font-size="11.00">text_fragment_to_line_owner</text>
<text text-anchor="start" x="716.5" y="-290.2" font-family="Helvetica,sans-Serif" font-size="11.00">[table]</text>
<polygon fill="none" stroke="black" points="531.5,-260 531.5,-282 758.5,-282 758.5,-260 531.5,-260"/>
<image xlink:href="../../images/primaryKeys.png" width="11px" height="12px" preserveAspectRatio="xMinYMin meet" x="536.5" y="-277"/>
<text text-anchor="start" x="557.5" y="-268.2" font-family="Helvetica,sans-Serif" font-size="11.00">text_fragment_to_line_id</text>
<polygon fill="#ffffff" stroke="transparent" points="531.5,-238 531.5,-260 758.5,-260 758.5,-238 531.5,-238"/>
<polygon fill="none" stroke="black" points="531.5,-238 531.5,-260 758.5,-260 758.5,-238 531.5,-238"/>
<image xlink:href="../../images/foreignKeys.png" width="11px" height="12px" preserveAspectRatio="xMinYMin meet" x="536.5" y="-255"/>
<text text-anchor="start" x="557.5" y="-246.2" font-family="Helvetica,sans-Serif" font-size="11.00">edition_editor_id</text>
<polygon fill="none" stroke="black" points="531.5,-216 531.5,-238 758.5,-238 758.5,-216 531.5,-216"/>
<image xlink:href="../../images/primaryKeys.png" width="11px" height="12px" preserveAspectRatio="xMinYMin meet" x="536.5" y="-233"/>
<text text-anchor="start" x="557.5" y="-224.2" font-family="Helvetica,sans-Serif" font-size="11.00">edition_id</text>
<polygon fill="#ffffff" stroke="transparent" points="531.5,-198 531.5,-216 629.5,-216 629.5,-198 531.5,-198"/>
<polygon fill="none" stroke="black" points="531.5,-198 531.5,-216 629.5,-216 629.5,-198 531.5,-198"/>
<text text-anchor="start" x="534.5" y="-204.2" font-family="Helvetica,sans-Serif" font-size="11.00">&lt; 3</text>
<polygon fill="#ffffff" stroke="transparent" points="629.5,-198 629.5,-216 708.5,-216 708.5,-198 629.5,-198"/>
<polygon fill="none" stroke="black" points="629.5,-198 629.5,-216 708.5,-216 708.5,-198 629.5,-198"/>
<text text-anchor="start" x="668.5" y="-204.2" font-family="Helvetica,sans-Serif" font-size="11.00">0 rows</text>
<polygon fill="#ffffff" stroke="transparent" points="708.5,-198 708.5,-216 758.5,-216 758.5,-198 708.5,-198"/>
<polygon fill="none" stroke="black" points="708.5,-198 708.5,-216 758.5,-216 758.5,-198 708.5,-198"/>
<text text-anchor="start" x="747.5" y="-204.2" font-family="Helvetica,sans-Serif" font-size="11.00"> &#160;</text>
</a>
</g>
</g>
<!-- text_fragment_to_line_owner&#45;&gt;edition_editor -->
<g id="edge11" class="edge">
<title>text_fragment_to_line_owner:w&#45;&gt;edition_editor:e</title>
<path fill="none" stroke="black" d="M515.86,-249C472.84,-249 456.93,-249 407.5,-249"/>
<polygon fill="black" stroke="black" points="522.5,-249 530.5,-252.6 526.5,-249 530.5,-249 530.5,-249 530.5,-249 526.5,-249 530.5,-245.4 522.5,-249 522.5,-249"/>
<ellipse fill="none" stroke="black" cx="519.3" cy="-249" rx="3.2" ry="3.2"/>
</g>
<!-- text_fragment_to_line_owner&#45;&gt;edition -->
<g id="edge12" class="edge">
<title>text_fragment_to_line_owner:w&#45;&gt;edition:e</title>
<path fill="none" stroke="black" d="M516.36,-224.02C508.16,-220.12 503.07,-213.49 490,-211 357.71,-185.82 317.24,-176.74 187,-211 164.29,-216.97 164.48,-237 141,-237"/>
<polygon fill="black" stroke="black" points="522.67,-225.35 529.76,-230.52 526.59,-226.17 530.5,-227 530.5,-227 530.5,-227 526.59,-226.17 531.24,-223.48 522.67,-225.35 522.67,-225.35"/>
<ellipse fill="none" stroke="black" cx="519.54" cy="-224.69" rx="3.2" ry="3.2"/>
</g>
<!-- text_fragment_to_line_owner&#45;&gt;text_fragment_to_line -->
<g id="edge13" class="edge">
<title>text_fragment_to_line_owner:w&#45;&gt;text_fragment_to_line:e</title>
<path fill="none" stroke="black" d="M516.4,-274.99C490.21,-294.17 526.96,-376 481.5,-376"/>
<polygon fill="black" stroke="black" points="522.8,-273.18 531.48,-274.46 526.65,-272.09 530.5,-271 530.5,-271 530.5,-271 526.65,-272.09 529.52,-267.54 522.8,-273.18 522.8,-273.18"/>
<ellipse fill="none" stroke="black" cx="519.72" cy="-274.05" rx="3.2" ry="3.2"/>
</g>
</g>
</svg>
