<?xml version="1.0" encoding="UTF-8" standalone="no"?>
<!DOCTYPE svg PUBLIC "-//W3C//DTD SVG 1.1//EN"
 "http://www.w3.org/Graphics/SVG/1.1/DTD/svg11.dtd">
<!-- Generated by graphviz version 2.40.1 (20161225.0304)
 -->
<!-- Title: oneDegreeRelationshipsDiagram Pages: 1 -->
<svg width="744pt" height="238pt"
 viewBox="0.00 0.00 744.00 238.00" xmlns="http://www.w3.org/2000/svg" xmlns:xlink="http://www.w3.org/1999/xlink">
<g id="graph0" class="graph" transform="scale(1 1) rotate(0) translate(4 234)">
<title>oneDegreeRelationshipsDiagram</title>
<polygon fill="#ffffff" stroke="transparent" points="-4,4 -4,-234 740,-234 740,4 -4,4"/>
<text text-anchor="middle" x="71.5" y="-7.2" font-family="Helvetica,sans-Serif" font-size="11.00" fill="#000000">Generated by SchemaSpy</text>
<!-- text_fragment_data -->
<g id="node1" class="node">
<title>text_fragment_data</title>
<g id="a_node1"><a xlink:href="../../tables/text_fragment_data.html" xlink:title="text_fragment_data" target="_top">
<polygon fill="#ffffff" stroke="transparent" points="220,-94 220,-226 478,-226 478,-94 220,-94"/>
<polygon fill="#f5f5f5" stroke="transparent" points="222,-202 222,-224 476,-224 476,-202 222,-202"/>
<polygon fill="none" stroke="#000000" points="222,-202 222,-224 476,-224 476,-202 222,-202"/>
<text text-anchor="start" x="227" y="-211.2" font-family="Helvetica,sans-Serif" font-weight="bold" font-size="11.00" fill="#000000">text_fragment_data</text>
<text text-anchor="start" x="441" y="-210.2" font-family="Helvetica,sans-Serif" font-size="11.00" fill="#000000">[table]</text>
<polygon fill="none" stroke="#000000" points="222,-180 222,-202 394,-202 394,-180 222,-180"/>
<image xlink:href="../../images/primaryKeys.png" width="11px" height="12px" preserveAspectRatio="xMinYMin meet" x="227" y="-197"/>
<text text-anchor="start" x="242" y="-188.2" font-family="Helvetica,sans-Serif" font-size="11.00" fill="#000000">text_fragment_data_id</text>
<polygon fill="none" stroke="#000000" points="394,-180 394,-202 476,-202 476,-180 394,-180"/>
<text text-anchor="start" x="397" y="-188.2" font-family="Helvetica,sans-Serif" font-size="11.00" fill="#000000">int unsigned[10]</text>
<polygon fill="#ffffff" stroke="transparent" points="222,-158 222,-180 394,-180 394,-158 222,-158"/>
<polygon fill="none" stroke="#000000" points="222,-158 222,-180 394,-180 394,-158 222,-158"/>
<image xlink:href="../../images/foreignKeys.png" width="11px" height="12px" preserveAspectRatio="xMinYMin meet" x="227" y="-175"/>
<text text-anchor="start" x="242" y="-166.2" font-family="Helvetica,sans-Serif" font-size="11.00" fill="#000000">text_fragment_id</text>
<polygon fill="none" stroke="#000000" points="394,-158 394,-180 476,-180 476,-158 394,-158"/>
<text text-anchor="start" x="397" y="-166.2" font-family="Helvetica,sans-Serif" font-size="11.00" fill="#000000">int unsigned[10]</text>
<polygon fill="#ffffff" stroke="transparent" points="222,-136 222,-158 394,-158 394,-136 222,-136"/>
<polygon fill="none" stroke="#000000" points="222,-136 222,-158 394,-158 394,-136 222,-136"/>
<text text-anchor="start" x="242" y="-144.2" font-family="Helvetica,sans-Serif" font-size="11.00" fill="#000000">name</text>
<polygon fill="none" stroke="#000000" points="394,-136 394,-158 476,-158 476,-136 394,-136"/>
<text text-anchor="start" x="397" y="-144.2" font-family="Helvetica,sans-Serif" font-size="11.00" fill="#000000">varchar[255]</text>
<polygon fill="#ffffff" stroke="transparent" points="222,-114 222,-136 394,-136 394,-114 222,-114"/>
<polygon fill="none" stroke="#000000" points="222,-114 222,-136 394,-136 394,-114 222,-114"/>
<image xlink:href="../../images/foreignKeys.png" width="11px" height="12px" preserveAspectRatio="xMinYMin meet" x="227" y="-131"/>
<text text-anchor="start" x="242" y="-122.2" font-family="Helvetica,sans-Serif" font-size="11.00" fill="#000000">creator_id</text>
<polygon fill="none" stroke="#000000" points="394,-114 394,-136 476,-136 476,-114 394,-114"/>
<text text-anchor="start" x="397" y="-122.2" font-family="Helvetica,sans-Serif" font-size="11.00" fill="#000000">int unsigned[10]</text>
<polygon fill="#ffffff" stroke="transparent" points="222,-96 222,-114 286,-114 286,-96 222,-96"/>
<polygon fill="none" stroke="#000000" points="222,-96 222,-114 286,-114 286,-96 222,-96"/>
<text text-anchor="start" x="225" y="-102.2" font-family="Helvetica,sans-Serif" font-size="11.00" fill="#000000">&lt; 2</text>
<polygon fill="#ffffff" stroke="transparent" points="286,-96 286,-114 394,-114 394,-96 286,-96"/>
<polygon fill="none" stroke="#000000" points="286,-96 286,-114 394,-114 394,-96 286,-96"/>
<text text-anchor="start" x="331" y="-102.2" font-family="Helvetica,sans-Serif" font-size="11.00" fill="#000000">11,169 rows</text>
<polygon fill="#ffffff" stroke="transparent" points="394,-96 394,-114 476,-114 476,-96 394,-96"/>
<polygon fill="none" stroke="#000000" points="394,-96 394,-114 476,-114 476,-96 394,-96"/>
<text text-anchor="start" x="457" y="-102.2" font-family="Helvetica,sans-Serif" font-size="11.00" fill="#000000">1 &gt;</text>
<polygon fill="none" stroke="#000000" stroke-width="2" points="221,-95 221,-225 477,-225 477,-95 221,-95"/>
</a>
</g>
</g>
<!-- user -->
<g id="node2" class="node">
<title>user</title>
<g id="a_node2"><a xlink:href="../../tables/user.html" xlink:title="user" target="_top">
<polygon fill="#ffffff" stroke="transparent" points="8,-37 8,-139 171,-139 171,-37 8,-37"/>
<polygon fill="#f5f5f5" stroke="transparent" points="8.5,-117 8.5,-139 171.5,-139 171.5,-117 8.5,-117"/>
<polygon fill="none" stroke="#000000" points="8.5,-117 8.5,-139 171.5,-139 171.5,-117 8.5,-117"/>
<text text-anchor="start" x="13.5" y="-126.2" font-family="Helvetica,sans-Serif" font-weight="bold" font-size="11.00" fill="#000000">user</text>
<text text-anchor="start" x="136.5" y="-125.2" font-family="Helvetica,sans-Serif" font-size="11.00" fill="#000000">[table]</text>
<polygon fill="none" stroke="#000000" points="8.5,-95 8.5,-117 171.5,-117 171.5,-95 8.5,-95"/>
<image xlink:href="../../images/primaryKeys.png" width="11px" height="12px" preserveAspectRatio="xMinYMin meet" x="13.5" y="-112"/>
<text text-anchor="start" x="28.5" y="-103.2" font-family="Helvetica,sans-Serif" font-size="11.00" fill="#000000">user_id</text>
<polygon fill="#ffffff" stroke="transparent" points="8.5,-73 8.5,-95 171.5,-95 171.5,-73 8.5,-73"/>
<polygon fill="none" stroke="#000000" points="8.5,-73 8.5,-95 171.5,-95 171.5,-73 8.5,-73"/>
<text text-anchor="start" x="28.5" y="-81.2" font-family="Helvetica,sans-Serif" font-size="11.00" fill="#000000">email</text>
<polygon fill="none" stroke="#000000" points="8.5,-55 8.5,-73 171.5,-73 171.5,-55 8.5,-55"/>
<text text-anchor="start" x="11.5" y="-61.2" font-family="Helvetica,sans-Serif" font-size="11.00" fill="#000000">...</text>
<polygon fill="#ffffff" stroke="transparent" points="8.5,-37 8.5,-55 62.5,-55 62.5,-37 8.5,-37"/>
<polygon fill="none" stroke="#000000" points="8.5,-37 8.5,-55 62.5,-55 62.5,-37 8.5,-37"/>
<text text-anchor="start" x="11.5" y="-43.2" font-family="Helvetica,sans-Serif" font-size="11.00" fill="#000000"> &#160;</text>
<polygon fill="#ffffff" stroke="transparent" points="62.5,-37 62.5,-55 122.5,-55 122.5,-37 62.5,-37"/>
<polygon fill="none" stroke="#000000" points="62.5,-37 62.5,-55 122.5,-55 122.5,-37 62.5,-37"/>
<text text-anchor="start" x="86.5" y="-43.2" font-family="Helvetica,sans-Serif" font-size="11.00" fill="#000000">3 rows</text>
<polygon fill="#ffffff" stroke="transparent" points="122.5,-37 122.5,-55 171.5,-55 171.5,-37 122.5,-37"/>
<polygon fill="none" stroke="#000000" points="122.5,-37 122.5,-55 171.5,-55 171.5,-37 122.5,-37"/>
<text text-anchor="start" x="146.5" y="-43.2" font-family="Helvetica,sans-Serif" font-size="11.00" fill="#000000">40 &gt;</text>
</a>
</g>
</g>
<!-- text_fragment_data&#45;&gt;user -->
<g id="edge1" class="edge">
<title>text_fragment_data:w&#45;&gt;user:e</title>
<path fill="none" stroke="#000000" d="M207.7405,-122.1965C195.532,-116.9113 189.6727,-106 171.5,-106"/>
<polygon fill="#000000" stroke="#000000" points="214.1503,-123.4567 221.3055,-128.5324 218.0751,-124.2283 222,-125 222,-125 222,-125 218.0751,-124.2283 222.6945,-121.4676 214.1503,-123.4567 214.1503,-123.4567"/>
<ellipse fill="none" stroke="#000000" cx="211.0104" cy="-122.8393" rx="3.2" ry="3.2"/>
</g>
<!-- text_fragment -->
<g id="node3" class="node">
<title>text_fragment</title>
<g id="a_node3"><a xlink:href="../../tables/text_fragment.html" xlink:title="text_fragment" target="_top">
<polygon fill="#ffffff" stroke="transparent" points="22,-160 22,-222 157,-222 157,-160 22,-160"/>
<polygon fill="#f5f5f5" stroke="transparent" points="22.5,-200 22.5,-222 157.5,-222 157.5,-200 22.5,-200"/>
<polygon fill="none" stroke="#000000" points="22.5,-200 22.5,-222 157.5,-222 157.5,-200 22.5,-200"/>
<text text-anchor="start" x="27.5" y="-209.2" font-family="Helvetica,sans-Serif" font-weight="bold" font-size="11.00" fill="#000000">text_fragment</text>
<text text-anchor="start" x="122.5" y="-208.2" font-family="Helvetica,sans-Serif" font-size="11.00" fill="#000000">[table]</text>
<polygon fill="none" stroke="#000000" points="22.5,-178 22.5,-200 157.5,-200 157.5,-178 22.5,-178"/>
<image xlink:href="../../images/primaryKeys.png" width="11px" height="12px" preserveAspectRatio="xMinYMin meet" x="27.5" y="-195"/>
<text text-anchor="start" x="42.5" y="-186.2" font-family="Helvetica,sans-Serif" font-size="11.00" fill="#000000">text_fragment_id</text>
<polygon fill="#ffffff" stroke="transparent" points="22.5,-160 22.5,-178 52.5,-178 52.5,-160 22.5,-160"/>
<polygon fill="none" stroke="#000000" points="22.5,-160 22.5,-178 52.5,-178 52.5,-160 22.5,-160"/>
<text text-anchor="start" x="25.5" y="-166.2" font-family="Helvetica,sans-Serif" font-size="11.00" fill="#000000"> &#160;</text>
<polygon fill="#ffffff" stroke="transparent" points="52.5,-160 52.5,-178 126.5,-178 126.5,-160 52.5,-160"/>
<polygon fill="none" stroke="#000000" points="52.5,-160 52.5,-178 126.5,-178 126.5,-160 52.5,-160"/>
<text text-anchor="start" x="63.5" y="-166.2" font-family="Helvetica,sans-Serif" font-size="11.00" fill="#000000">11,176 rows</text>
<polygon fill="#ffffff" stroke="transparent" points="126.5,-160 126.5,-178 157.5,-178 157.5,-160 126.5,-160"/>
<polygon fill="none" stroke="#000000" points="126.5,-160 126.5,-178 157.5,-178 157.5,-160 126.5,-160"/>
<text text-anchor="start" x="138.5" y="-166.2" font-family="Helvetica,sans-Serif" font-size="11.00" fill="#000000">6 &gt;</text>
</a>
</g>
</g>
<!-- text_fragment_data&#45;&gt;text_fragment -->
<g id="edge2" class="edge">
<title>text_fragment_data:w&#45;&gt;text_fragment:e</title>
<path fill="none" stroke="#000000" d="M207.4745,-170.8457C189.4113,-175.7969 181.8857,-189 157.5,-189"/>
<polygon fill="#000000" stroke="#000000" points="214.0638,-170.0085 222.4538,-172.5713 218.0319,-169.5042 222,-169 222,-169 222,-169 218.0319,-169.5042 221.5462,-165.4287 214.0638,-170.0085 214.0638,-170.0085"/>
<ellipse fill="none" stroke="#000000" cx="210.8893" cy="-170.4119" rx="3.2" ry="3.2"/>
</g>
<!-- text_fragment_data_owner -->
<g id="node4" class="node">
<title>text_fragment_data_owner</title>
<g id="a_node4"><a xlink:href="../../tables/text_fragment_data_owner.html" xlink:title="text_fragment_data_owner" target="_top">
<polygon fill="#ffffff" stroke="transparent" points="527,-118 527,-224 728,-224 728,-118 527,-118"/>
<polygon fill="#f5f5f5" stroke="transparent" points="527.5,-202 527.5,-224 728.5,-224 728.5,-202 527.5,-202"/>
<polygon fill="none" stroke="#000000" points="527.5,-202 527.5,-224 728.5,-224 728.5,-202 527.5,-202"/>
<text text-anchor="start" x="532.5" y="-211.2" font-family="Helvetica,sans-Serif" font-weight="bold" font-size="11.00" fill="#000000">text_fragment_data_owner</text>
<text text-anchor="start" x="693.5" y="-210.2" font-family="Helvetica,sans-Serif" font-size="11.00" fill="#000000">[table]</text>
<polygon fill="none" stroke="#000000" points="527.5,-180 527.5,-202 728.5,-202 728.5,-180 527.5,-180"/>
<image xlink:href="../../images/primaryKeys.png" width="11px" height="12px" preserveAspectRatio="xMinYMin meet" x="532.5" y="-197"/>
<text text-anchor="start" x="547.5" y="-188.2" font-family="Helvetica,sans-Serif" font-size="11.00" fill="#000000">text_fragment_data_id</text>
<polygon fill="#ffffff" stroke="transparent" points="527.5,-158 527.5,-180 728.5,-180 728.5,-158 527.5,-158"/>
<polygon fill="none" stroke="#000000" points="527.5,-158 527.5,-180 728.5,-180 728.5,-158 527.5,-158"/>
<image xlink:href="../../images/foreignKeys.png" width="11px" height="12px" preserveAspectRatio="xMinYMin meet" x="532.5" y="-175"/>
<text text-anchor="start" x="547.5" y="-166.2" font-family="Helvetica,sans-Serif" font-size="11.00" fill="#000000">edition_editor_id</text>
<polygon fill="none" stroke="#000000" points="527.5,-136 527.5,-158 728.5,-158 728.5,-136 527.5,-136"/>
<image xlink:href="../../images/primaryKeys.png" width="11px" height="12px" preserveAspectRatio="xMinYMin meet" x="532.5" y="-153"/>
<text text-anchor="start" x="547.5" y="-144.2" font-family="Helvetica,sans-Serif" font-size="11.00" fill="#000000">edition_id</text>
<polygon fill="#ffffff" stroke="transparent" points="527.5,-118 527.5,-136 599.5,-136 599.5,-118 527.5,-118"/>
<polygon fill="none" stroke="#000000" points="527.5,-118 527.5,-136 599.5,-136 599.5,-118 527.5,-118"/>
<text text-anchor="start" x="530.5" y="-124.2" font-family="Helvetica,sans-Serif" font-size="11.00" fill="#000000">&lt; 3</text>
<polygon fill="#ffffff" stroke="transparent" points="599.5,-118 599.5,-136 690.5,-136 690.5,-118 599.5,-118"/>
<polygon fill="none" stroke="#000000" points="599.5,-118 599.5,-136 690.5,-136 690.5,-118 599.5,-118"/>
<text text-anchor="start" x="627.5" y="-124.2" font-family="Helvetica,sans-Serif" font-size="11.00" fill="#000000">11,176 rows</text>
<polygon fill="#ffffff" stroke="transparent" points="690.5,-118 690.5,-136 728.5,-136 728.5,-118 690.5,-118"/>
<polygon fill="none" stroke="#000000" points="690.5,-118 690.5,-136 728.5,-136 728.5,-118 690.5,-118"/>
<text text-anchor="start" x="718.5" y="-124.2" font-family="Helvetica,sans-Serif" font-size="11.00" fill="#000000"> &#160;</text>
</a>
</g>
</g>
<!-- text_fragment_data_owner&#45;&gt;text_fragment_data -->
<g id="edge3" class="edge">
<title>text_fragment_data_owner:w&#45;&gt;text_fragment_data:e</title>
<path fill="none" stroke="#000000" d="M513.0156,-191C500.6771,-191 493.1667,-191 476,-191"/>
<polygon fill="#000000" stroke="#000000" points="519.5,-191.0001 527.5,-194.6 523.5,-191 527.5,-191 527.5,-191 527.5,-191 523.5,-191 527.5,-187.4 519.5,-191.0001 519.5,-191.0001"/>
<ellipse fill="none" stroke="#000000" cx="516.3" cy="-191.0001" rx="3.2" ry="3.2"/>
</g>
</g>
</svg>
