<?xml version="1.0" encoding="UTF-8" standalone="no"?>
<!DOCTYPE svg PUBLIC "-//W3C//DTD SVG 1.1//EN"
 "http://www.w3.org/Graphics/SVG/1.1/DTD/svg11.dtd">
<!-- Generated by graphviz version 2.43.0 (0)
 -->
<!-- Title: oneDegreeRelationshipsDiagram Pages: 1 -->
<svg width="600pt" height="663pt"
 viewBox="0.00 0.00 600.00 663.00" xmlns="http://www.w3.org/2000/svg" xmlns:xlink="http://www.w3.org/1999/xlink">
<g id="graph0" class="graph" transform="scale(1 1) rotate(0) translate(4 659)">
<title>oneDegreeRelationshipsDiagram</title>
<polygon fill="#ffffff" stroke="transparent" points="-4,4 -4,-659 596,-659 596,4 -4,4"/>
<text text-anchor="middle" x="79.5" y="-7.2" font-family="Helvetica,sans-Serif" font-size="11.00">Generated by SchemaSpy</text>
<!-- iaa_edition_catalog_to_text_fragment -->
<g id="node1" class="node">
<title>iaa_edition_catalog_to_text_fragment</title>
<g id="a_node1"><a xlink:href="../../tables/iaa_edition_catalog_to_text_fragment.html" xlink:title="iaa_edition_catalog_to_text_fragment" target="_top">
<polygon fill="#ffffff" stroke="transparent" points="293,-545 293,-651 584,-651 584,-545 293,-545"/>
<polygon fill="#f5f5f5" stroke="transparent" points="293.5,-629 293.5,-651 584.5,-651 584.5,-629 293.5,-629"/>
<polygon fill="none" stroke="black" points="293.5,-629 293.5,-651 584.5,-651 584.5,-629 293.5,-629"/>
<text text-anchor="start" x="298.5" y="-638.2" font-family="Helvetica,sans-Serif" font-weight="bold" font-size="11.00">iaa_edition_catalog_to_text_fragment</text>
<text text-anchor="start" x="542.5" y="-637.2" font-family="Helvetica,sans-Serif" font-size="11.00">[table]</text>
<polygon fill="none" stroke="black" points="293.5,-607 293.5,-629 584.5,-629 584.5,-607 293.5,-607"/>
<image xlink:href="../../images/primaryKeys.png" width="11px" height="12px" preserveAspectRatio="xMinYMin meet" x="298.5" y="-624"/>
<text text-anchor="start" x="313.5" y="-615.2" font-family="Helvetica,sans-Serif" font-size="11.00">iaa_edition_catalog_to_text_fragment_id</text>
<polygon fill="#ffffff" stroke="transparent" points="293.5,-585 293.5,-607 584.5,-607 584.5,-585 293.5,-585"/>
<polygon fill="none" stroke="black" points="293.5,-585 293.5,-607 584.5,-607 584.5,-585 293.5,-585"/>
<image xlink:href="../../images/foreignKeys.png" width="11px" height="12px" preserveAspectRatio="xMinYMin meet" x="298.5" y="-602"/>
<text text-anchor="start" x="313.5" y="-593.2" font-family="Helvetica,sans-Serif" font-size="11.00">iaa_edition_catalog_id</text>
<polygon fill="#ffffff" stroke="transparent" points="293.5,-563 293.5,-585 584.5,-585 584.5,-563 293.5,-563"/>
<polygon fill="none" stroke="black" points="293.5,-563 293.5,-585 584.5,-585 584.5,-563 293.5,-563"/>
<image xlink:href="../../images/foreignKeys.png" width="11px" height="12px" preserveAspectRatio="xMinYMin meet" x="298.5" y="-580"/>
<text text-anchor="start" x="313.5" y="-571.2" font-family="Helvetica,sans-Serif" font-size="11.00">text_fragment_id</text>
<polygon fill="#ffffff" stroke="transparent" points="293.5,-545 293.5,-563 401.5,-563 401.5,-545 293.5,-545"/>
<polygon fill="none" stroke="black" points="293.5,-545 293.5,-563 401.5,-563 401.5,-545 293.5,-545"/>
<text text-anchor="start" x="296.5" y="-551.2" font-family="Helvetica,sans-Serif" font-size="11.00">&lt; 2</text>
<polygon fill="#ffffff" stroke="transparent" points="401.5,-545 401.5,-563 516.5,-563 516.5,-545 401.5,-545"/>
<polygon fill="none" stroke="black" points="401.5,-545 401.5,-563 516.5,-563 516.5,-545 401.5,-545"/>
<text text-anchor="start" x="445.5" y="-551.2" font-family="Helvetica,sans-Serif" font-size="11.00">15,236 rows</text>
<polygon fill="#ffffff" stroke="transparent" points="516.5,-545 516.5,-563 584.5,-563 584.5,-545 516.5,-545"/>
<polygon fill="none" stroke="black" points="516.5,-545 516.5,-563 584.5,-563 584.5,-545 516.5,-545"/>
<text text-anchor="start" x="561.5" y="-551.2" font-family="Helvetica,sans-Serif" font-size="11.00">1 &gt;</text>
</a>
</g>
</g>
<!-- text_fragment -->
<g id="node2" class="node">
<title>text_fragment</title>
<g id="a_node2"><a xlink:href="../../tables/text_fragment.html" xlink:title="text_fragment" target="_top">
<polygon fill="#ffffff" stroke="transparent" points="8,-300 8,-366 244,-366 244,-300 8,-300"/>
<polygon fill="#f5f5f5" stroke="transparent" points="10,-342 10,-364 242,-364 242,-342 10,-342"/>
<polygon fill="none" stroke="black" points="10,-342 10,-364 242,-364 242,-342 10,-342"/>
<text text-anchor="start" x="15" y="-351.2" font-family="Helvetica,sans-Serif" font-weight="bold" font-size="11.00">text_fragment</text>
<text text-anchor="start" x="200" y="-350.2" font-family="Helvetica,sans-Serif" font-size="11.00">[table]</text>
<polygon fill="none" stroke="black" points="10,-320 10,-342 145,-342 145,-320 10,-320"/>
<image xlink:href="../../images/primaryKeys.png" width="11px" height="12px" preserveAspectRatio="xMinYMin meet" x="15" y="-337"/>
<text text-anchor="start" x="30" y="-328.2" font-family="Helvetica,sans-Serif" font-size="11.00">text_fragment_id</text>
<polygon fill="none" stroke="black" points="145,-320 145,-342 242,-342 242,-320 145,-320"/>
<text text-anchor="start" x="148" y="-328.2" font-family="Helvetica,sans-Serif" font-size="11.00">int unsigned[10]</text>
<polygon fill="#ffffff" stroke="transparent" points="10,-302 10,-320 53,-320 53,-302 10,-302"/>
<polygon fill="none" stroke="black" points="10,-302 10,-320 53,-320 53,-302 10,-302"/>
<text text-anchor="start" x="13" y="-308.2" font-family="Helvetica,sans-Serif" font-size="11.00">&lt; 0</text>
<polygon fill="#ffffff" stroke="transparent" points="53,-302 53,-320 145,-320 145,-302 53,-302"/>
<polygon fill="none" stroke="black" points="53,-302 53,-320 145,-320 145,-302 53,-302"/>
<text text-anchor="start" x="74" y="-308.2" font-family="Helvetica,sans-Serif" font-size="11.00">11,176 rows</text>
<polygon fill="#ffffff" stroke="transparent" points="145,-302 145,-320 242,-320 242,-302 145,-302"/>
<polygon fill="none" stroke="black" points="145,-302 145,-320 242,-320 242,-302 145,-302"/>
<text text-anchor="start" x="219" y="-308.2" font-family="Helvetica,sans-Serif" font-size="11.00">6 &gt;</text>
<polygon fill="none" stroke="black" stroke-width="2" points="9,-301 9,-365 243,-365 243,-301 9,-301"/>
</a>
</g>
</g>
<!-- iaa_edition_catalog_to_text_fragment&#45;&gt;text_fragment -->
<g id="edge1" class="edge">
<title>iaa_edition_catalog_to_text_fragment:w&#45;&gt;text_fragment:e</title>
<path fill="none" stroke="black" d="M277.81,-572.18C198.92,-549.95 347.62,-331 243,-331"/>
<polygon fill="black" stroke="black" points="284.56,-573.02 292.06,-577.57 288.53,-573.51 292.5,-574 292.5,-574 292.5,-574 288.53,-573.51 292.94,-570.43 284.56,-573.02 284.56,-573.02"/>
<ellipse fill="none" stroke="black" cx="281.38" cy="-572.63" rx="3.2" ry="3.2"/>
</g>
<!-- manuscript_to_text_fragment -->
<g id="node3" class="node">
<title>manuscript_to_text_fragment</title>
<g id="a_node3"><a xlink:href="../../tables/manuscript_to_text_fragment.html" xlink:title="manuscript_to_text_fragment" target="_top">
<polygon fill="#ffffff" stroke="transparent" points="319.5,-418 319.5,-524 557.5,-524 557.5,-418 319.5,-418"/>
<polygon fill="#f5f5f5" stroke="transparent" points="319.5,-502 319.5,-524 557.5,-524 557.5,-502 319.5,-502"/>
<polygon fill="none" stroke="black" points="319.5,-502 319.5,-524 557.5,-524 557.5,-502 319.5,-502"/>
<text text-anchor="start" x="324.5" y="-511.2" font-family="Helvetica,sans-Serif" font-weight="bold" font-size="11.00">manuscript_to_text_fragment</text>
<text text-anchor="start" x="515.5" y="-510.2" font-family="Helvetica,sans-Serif" font-size="11.00">[table]</text>
<polygon fill="none" stroke="black" points="319.5,-480 319.5,-502 557.5,-502 557.5,-480 319.5,-480"/>
<image xlink:href="../../images/primaryKeys.png" width="11px" height="12px" preserveAspectRatio="xMinYMin meet" x="324.5" y="-497"/>
<text text-anchor="start" x="339.5" y="-488.2" font-family="Helvetica,sans-Serif" font-size="11.00">manuscript_to_text_fragment_id</text>
<polygon fill="#ffffff" stroke="transparent" points="319.5,-458 319.5,-480 557.5,-480 557.5,-458 319.5,-458"/>
<polygon fill="none" stroke="black" points="319.5,-458 319.5,-480 557.5,-480 557.5,-458 319.5,-458"/>
<image xlink:href="../../images/foreignKeys.png" width="11px" height="12px" preserveAspectRatio="xMinYMin meet" x="324.5" y="-475"/>
<text text-anchor="start" x="339.5" y="-466.2" font-family="Helvetica,sans-Serif" font-size="11.00">manuscript_id</text>
<polygon fill="#ffffff" stroke="transparent" points="319.5,-436 319.5,-458 557.5,-458 557.5,-436 319.5,-436"/>
<polygon fill="none" stroke="black" points="319.5,-436 319.5,-458 557.5,-458 557.5,-436 319.5,-436"/>
<image xlink:href="../../images/foreignKeys.png" width="11px" height="12px" preserveAspectRatio="xMinYMin meet" x="324.5" y="-453"/>
<text text-anchor="start" x="339.5" y="-444.2" font-family="Helvetica,sans-Serif" font-size="11.00">text_fragment_id</text>
<polygon fill="#ffffff" stroke="transparent" points="319.5,-418 319.5,-436 401.5,-436 401.5,-418 319.5,-418"/>
<polygon fill="none" stroke="black" points="319.5,-418 319.5,-436 401.5,-436 401.5,-418 319.5,-418"/>
<text text-anchor="start" x="322.5" y="-424.2" font-family="Helvetica,sans-Serif" font-size="11.00">&lt; 2</text>
<polygon fill="#ffffff" stroke="transparent" points="401.5,-418 401.5,-436 503.5,-436 503.5,-418 401.5,-418"/>
<polygon fill="none" stroke="black" points="401.5,-418 401.5,-436 503.5,-436 503.5,-418 401.5,-418"/>
<text text-anchor="start" x="432.5" y="-424.2" font-family="Helvetica,sans-Serif" font-size="11.00">11,166 rows</text>
<polygon fill="#ffffff" stroke="transparent" points="503.5,-418 503.5,-436 557.5,-436 557.5,-418 503.5,-418"/>
<polygon fill="none" stroke="black" points="503.5,-418 503.5,-436 557.5,-436 557.5,-418 503.5,-418"/>
<text text-anchor="start" x="534.5" y="-424.2" font-family="Helvetica,sans-Serif" font-size="11.00">1 &gt;</text>
</a>
</g>
</g>
<!-- manuscript_to_text_fragment&#45;&gt;text_fragment -->
<g id="edge2" class="edge">
<title>manuscript_to_text_fragment:w&#45;&gt;text_fragment:e</title>
<path fill="none" stroke="black" d="M304.15,-444.25C264.79,-426.68 298.87,-331 243,-331"/>
<polygon fill="black" stroke="black" points="310.64,-445.49 317.82,-450.54 314.57,-446.25 318.5,-447 318.5,-447 318.5,-447 314.57,-446.25 319.18,-443.46 310.64,-445.49 310.64,-445.49"/>
<ellipse fill="none" stroke="black" cx="307.5" cy="-444.89" rx="3.2" ry="3.2"/>
</g>
<!-- position_in_text_fragment_stream -->
<g id="node4" class="node">
<title>position_in_text_fragment_stream</title>
<g id="a_node4"><a xlink:href="../../tables/position_in_text_fragment_stream.html" xlink:title="position_in_text_fragment_stream" target="_top">
<polygon fill="#ffffff" stroke="transparent" points="304.5,-291 304.5,-397 572.5,-397 572.5,-291 304.5,-291"/>
<polygon fill="#f5f5f5" stroke="transparent" points="304.5,-375 304.5,-397 572.5,-397 572.5,-375 304.5,-375"/>
<polygon fill="none" stroke="black" points="304.5,-375 304.5,-397 572.5,-397 572.5,-375 304.5,-375"/>
<text text-anchor="start" x="309.5" y="-384.2" font-family="Helvetica,sans-Serif" font-weight="bold" font-size="11.00">position_in_text_fragment_stream</text>
<text text-anchor="start" x="530.5" y="-383.2" font-family="Helvetica,sans-Serif" font-size="11.00">[table]</text>
<polygon fill="none" stroke="black" points="304.5,-353 304.5,-375 572.5,-375 572.5,-353 304.5,-353"/>
<image xlink:href="../../images/primaryKeys.png" width="11px" height="12px" preserveAspectRatio="xMinYMin meet" x="309.5" y="-370"/>
<text text-anchor="start" x="324.5" y="-361.2" font-family="Helvetica,sans-Serif" font-size="11.00">position_in_text_fragment_stream_id</text>
<polygon fill="#ffffff" stroke="transparent" points="304.5,-331 304.5,-353 572.5,-353 572.5,-331 304.5,-331"/>
<polygon fill="none" stroke="black" points="304.5,-331 304.5,-353 572.5,-353 572.5,-331 304.5,-331"/>
<image xlink:href="../../images/foreignKeys.png" width="11px" height="12px" preserveAspectRatio="xMinYMin meet" x="309.5" y="-348"/>
<text text-anchor="start" x="324.5" y="-339.2" font-family="Helvetica,sans-Serif" font-size="11.00">text_fragment_id</text>
<polygon fill="#ffffff" stroke="transparent" points="304.5,-309 304.5,-331 572.5,-331 572.5,-309 304.5,-309"/>
<polygon fill="none" stroke="black" points="304.5,-309 304.5,-331 572.5,-331 572.5,-309 304.5,-309"/>
<image xlink:href="../../images/foreignKeys.png" width="11px" height="12px" preserveAspectRatio="xMinYMin meet" x="309.5" y="-326"/>
<text text-anchor="start" x="324.5" y="-317.2" font-family="Helvetica,sans-Serif" font-size="11.00">next_text_fragment_id</text>
<polygon fill="#ffffff" stroke="transparent" points="304.5,-291 304.5,-309 401.5,-309 401.5,-291 304.5,-291"/>
<polygon fill="none" stroke="black" points="304.5,-291 304.5,-309 401.5,-309 401.5,-291 304.5,-291"/>
<text text-anchor="start" x="307.5" y="-297.2" font-family="Helvetica,sans-Serif" font-size="11.00">&lt; 2</text>
<polygon fill="#ffffff" stroke="transparent" points="401.5,-291 401.5,-309 510.5,-309 510.5,-291 401.5,-291"/>
<polygon fill="none" stroke="black" points="401.5,-291 401.5,-309 510.5,-309 510.5,-291 401.5,-291"/>
<text text-anchor="start" x="439.5" y="-297.2" font-family="Helvetica,sans-Serif" font-size="11.00">10,852 rows</text>
<polygon fill="#ffffff" stroke="transparent" points="510.5,-291 510.5,-309 572.5,-309 572.5,-291 510.5,-291"/>
<polygon fill="none" stroke="black" points="510.5,-291 510.5,-309 572.5,-309 572.5,-291 510.5,-291"/>
<text text-anchor="start" x="549.5" y="-297.2" font-family="Helvetica,sans-Serif" font-size="11.00">1 &gt;</text>
</a>
</g>
</g>
<!-- position_in_text_fragment_stream&#45;&gt;text_fragment -->
<g id="edge3" class="edge">
<title>position_in_text_fragment_stream:w&#45;&gt;text_fragment:e</title>
<path fill="none" stroke="black" d="M289.15,-321.18C272.91,-324.01 264.78,-331 243,-331"/>
<polygon fill="black" stroke="black" points="295.53,-320.65 303.79,-323.59 299.51,-320.33 303.5,-320 303.5,-320 303.5,-320 299.51,-320.33 303.21,-316.41 295.53,-320.65 295.53,-320.65"/>
<ellipse fill="none" stroke="black" cx="292.34" cy="-320.92" rx="3.2" ry="3.2"/>
</g>
<!-- position_in_text_fragment_stream&#45;&gt;text_fragment -->
<g id="edge4" class="edge">
<title>position_in_text_fragment_stream:w&#45;&gt;text_fragment:e</title>
<path fill="none" stroke="black" d="M289.15,-340.82C272.91,-337.99 264.78,-331 243,-331"/>
<polygon fill="black" stroke="black" points="295.53,-341.35 303.21,-345.59 299.51,-341.67 303.5,-342 303.5,-342 303.5,-342 299.51,-341.67 303.79,-338.41 295.53,-341.35 295.53,-341.35"/>
<ellipse fill="none" stroke="black" cx="292.34" cy="-341.08" rx="3.2" ry="3.2"/>
</g>
<!-- text_fragment_data -->
<g id="node5" class="node">
<title>text_fragment_data</title>
<g id="a_node5"><a xlink:href="../../tables/text_fragment_data.html" xlink:title="text_fragment_data" target="_top">
<polygon fill="#ffffff" stroke="transparent" points="352.5,-164 352.5,-270 524.5,-270 524.5,-164 352.5,-164"/>
<polygon fill="#f5f5f5" stroke="transparent" points="352.5,-248 352.5,-270 524.5,-270 524.5,-248 352.5,-248"/>
<polygon fill="none" stroke="black" points="352.5,-248 352.5,-270 524.5,-270 524.5,-248 352.5,-248"/>
<text text-anchor="start" x="357.5" y="-257.2" font-family="Helvetica,sans-Serif" font-weight="bold" font-size="11.00">text_fragment_data</text>
<text text-anchor="start" x="482.5" y="-256.2" font-family="Helvetica,sans-Serif" font-size="11.00">[table]</text>
<polygon fill="none" stroke="black" points="352.5,-226 352.5,-248 524.5,-248 524.5,-226 352.5,-226"/>
<image xlink:href="../../images/primaryKeys.png" width="11px" height="12px" preserveAspectRatio="xMinYMin meet" x="357.5" y="-243"/>
<text text-anchor="start" x="372.5" y="-234.2" font-family="Helvetica,sans-Serif" font-size="11.00">text_fragment_data_id</text>
<polygon fill="#ffffff" stroke="transparent" points="352.5,-204 352.5,-226 524.5,-226 524.5,-204 352.5,-204"/>
<polygon fill="none" stroke="black" points="352.5,-204 352.5,-226 524.5,-226 524.5,-204 352.5,-204"/>
<image xlink:href="../../images/foreignKeys.png" width="11px" height="12px" preserveAspectRatio="xMinYMin meet" x="357.5" y="-221"/>
<text text-anchor="start" x="372.5" y="-212.2" font-family="Helvetica,sans-Serif" font-size="11.00">text_fragment_id</text>
<polygon fill="#ffffff" stroke="transparent" points="352.5,-182 352.5,-204 524.5,-204 524.5,-182 352.5,-182"/>
<polygon fill="none" stroke="black" points="352.5,-182 352.5,-204 524.5,-204 524.5,-182 352.5,-182"/>
<text text-anchor="start" x="372.5" y="-190.2" font-family="Helvetica,sans-Serif" font-size="11.00">name</text>
<polygon fill="#ffffff" stroke="transparent" points="352.5,-164 352.5,-182 401.5,-182 401.5,-164 352.5,-164"/>
<polygon fill="none" stroke="black" points="352.5,-164 352.5,-182 401.5,-182 401.5,-164 352.5,-164"/>
<text text-anchor="start" x="355.5" y="-170.2" font-family="Helvetica,sans-Serif" font-size="11.00">&lt; 1</text>
<polygon fill="#ffffff" stroke="transparent" points="401.5,-164 401.5,-182 486.5,-182 486.5,-164 401.5,-164"/>
<polygon fill="none" stroke="black" points="401.5,-164 401.5,-182 486.5,-182 486.5,-164 401.5,-164"/>
<text text-anchor="start" x="415.5" y="-170.2" font-family="Helvetica,sans-Serif" font-size="11.00">11,172 rows</text>
<polygon fill="#ffffff" stroke="transparent" points="486.5,-164 486.5,-182 524.5,-182 524.5,-164 486.5,-164"/>
<polygon fill="none" stroke="black" points="486.5,-164 486.5,-182 524.5,-182 524.5,-164 486.5,-164"/>
<text text-anchor="start" x="501.5" y="-170.2" font-family="Helvetica,sans-Serif" font-size="11.00">1 &gt;</text>
</a>
</g>
</g>
<!-- text_fragment_data&#45;&gt;text_fragment -->
<g id="edge5" class="edge">
<title>text_fragment_data:w&#45;&gt;text_fragment:e</title>
<path fill="none" stroke="black" d="M337.11,-216.78C310.19,-224.31 309.45,-254.43 285,-281 265.35,-302.35 272.02,-331 243,-331"/>
<polygon fill="black" stroke="black" points="343.56,-215.98 351.94,-218.57 347.53,-215.49 351.5,-215 351.5,-215 351.5,-215 347.53,-215.49 351.06,-211.43 343.56,-215.98 343.56,-215.98"/>
<ellipse fill="none" stroke="black" cx="340.38" cy="-216.37" rx="3.2" ry="3.2"/>
</g>
<!-- text_fragment_to_line -->
<g id="node6" class="node">
<title>text_fragment_to_line</title>
<g id="a_node6"><a xlink:href="../../tables/text_fragment_to_line.html" xlink:title="text_fragment_to_line" target="_top">
<polygon fill="#ffffff" stroke="transparent" points="345.5,-37 345.5,-143 531.5,-143 531.5,-37 345.5,-37"/>
<polygon fill="#f5f5f5" stroke="transparent" points="345.5,-121 345.5,-143 531.5,-143 531.5,-121 345.5,-121"/>
<polygon fill="none" stroke="black" points="345.5,-121 345.5,-143 531.5,-143 531.5,-121 345.5,-121"/>
<text text-anchor="start" x="350.5" y="-130.2" font-family="Helvetica,sans-Serif" font-weight="bold" font-size="11.00">text_fragment_to_line</text>
<text text-anchor="start" x="489.5" y="-129.2" font-family="Helvetica,sans-Serif" font-size="11.00">[table]</text>
<polygon fill="none" stroke="black" points="345.5,-99 345.5,-121 531.5,-121 531.5,-99 345.5,-99"/>
<image xlink:href="../../images/primaryKeys.png" width="11px" height="12px" preserveAspectRatio="xMinYMin meet" x="350.5" y="-116"/>
<text text-anchor="start" x="365.5" y="-107.2" font-family="Helvetica,sans-Serif" font-size="11.00">text_fragment_to_line_id</text>
<polygon fill="#ffffff" stroke="transparent" points="345.5,-77 345.5,-99 531.5,-99 531.5,-77 345.5,-77"/>
<polygon fill="none" stroke="black" points="345.5,-77 345.5,-99 531.5,-99 531.5,-77 345.5,-77"/>
<image xlink:href="../../images/foreignKeys.png" width="11px" height="12px" preserveAspectRatio="xMinYMin meet" x="350.5" y="-94"/>
<text text-anchor="start" x="365.5" y="-85.2" font-family="Helvetica,sans-Serif" font-size="11.00">text_fragment_id</text>
<polygon fill="#ffffff" stroke="transparent" points="345.5,-55 345.5,-77 531.5,-77 531.5,-55 345.5,-55"/>
<polygon fill="none" stroke="black" points="345.5,-55 345.5,-77 531.5,-77 531.5,-55 345.5,-55"/>
<image xlink:href="../../images/foreignKeys.png" width="11px" height="12px" preserveAspectRatio="xMinYMin meet" x="350.5" y="-72"/>
<text text-anchor="start" x="365.5" y="-63.2" font-family="Helvetica,sans-Serif" font-size="11.00">line_id</text>
<polygon fill="#ffffff" stroke="transparent" points="345.5,-37 345.5,-55 401.5,-55 401.5,-37 345.5,-37"/>
<polygon fill="none" stroke="black" points="345.5,-37 345.5,-55 401.5,-55 401.5,-37 345.5,-37"/>
<text text-anchor="start" x="348.5" y="-43.2" font-family="Helvetica,sans-Serif" font-size="11.00">&lt; 2</text>
<polygon fill="#ffffff" stroke="transparent" points="401.5,-37 401.5,-55 490.5,-55 490.5,-37 401.5,-37"/>
<polygon fill="none" stroke="black" points="401.5,-37 401.5,-55 490.5,-55 490.5,-37 401.5,-37"/>
<text text-anchor="start" x="419.5" y="-43.2" font-family="Helvetica,sans-Serif" font-size="11.00">53,405 rows</text>
<polygon fill="#ffffff" stroke="transparent" points="490.5,-37 490.5,-55 531.5,-55 531.5,-37 490.5,-37"/>
<polygon fill="none" stroke="black" points="490.5,-37 490.5,-55 531.5,-55 531.5,-37 490.5,-37"/>
<text text-anchor="start" x="508.5" y="-43.2" font-family="Helvetica,sans-Serif" font-size="11.00">1 &gt;</text>
</a>
</g>
</g>
<!-- text_fragment_to_line&#45;&gt;text_fragment -->
<g id="edge6" class="edge">
<title>text_fragment_to_line:w&#45;&gt;text_fragment:e</title>
<path fill="none" stroke="black" d="M329.93,-89.77C304.21,-96.81 300.77,-123.95 285,-154 247.43,-225.59 323.85,-331 243,-331"/>
<polygon fill="black" stroke="black" points="336.56,-88.96 344.93,-91.57 340.53,-88.48 344.5,-88 344.5,-88 344.5,-88 340.53,-88.48 344.07,-84.43 336.56,-88.96 336.56,-88.96"/>
<ellipse fill="none" stroke="black" cx="333.38" cy="-89.35" rx="3.2" ry="3.2"/>
</g>
</g>
</svg>
