<?xml version="1.0" encoding="UTF-8" standalone="no"?>
<!DOCTYPE svg PUBLIC "-//W3C//DTD SVG 1.1//EN"
 "http://www.w3.org/Graphics/SVG/1.1/DTD/svg11.dtd">
<!-- Generated by graphviz version 2.40.1 (20161225.0304)
 -->
<!-- Title: oneDegreeRelationshipsDiagram Pages: 1 -->
<svg width="716pt" height="380pt"
 viewBox="0.00 0.00 716.00 380.00" xmlns="http://www.w3.org/2000/svg" xmlns:xlink="http://www.w3.org/1999/xlink">
<g id="graph0" class="graph" transform="scale(1 1) rotate(0) translate(4 376)">
<title>oneDegreeRelationshipsDiagram</title>
<polygon fill="#ffffff" stroke="transparent" points="-4,4 -4,-376 712,-376 712,4 -4,4"/>
<text text-anchor="middle" x="71.5" y="-7.2" font-family="Helvetica,sans-Serif" font-size="11.00" fill="#000000">Generated by SchemaSpy</text>
<!-- edition_editor -->
<g id="node1" class="node">
<title>edition_editor</title>
<g id="a_node1"><a xlink:href="../../tables/edition_editor.html" xlink:title="edition_editor" target="_top">
<polygon fill="#ffffff" stroke="transparent" points="211.5,-95 211.5,-219 344.5,-219 344.5,-95 211.5,-95"/>
<polygon fill="#f5f5f5" stroke="transparent" points="212,-197 212,-219 345,-219 345,-197 212,-197"/>
<polygon fill="none" stroke="#000000" points="212,-197 212,-219 345,-219 345,-197 212,-197"/>
<text text-anchor="start" x="217" y="-206.2" font-family="Helvetica,sans-Serif" font-weight="bold" font-size="11.00" fill="#000000">edition_editor</text>
<text text-anchor="start" x="310" y="-205.2" font-family="Helvetica,sans-Serif" font-size="11.00" fill="#000000">[table]</text>
<polygon fill="none" stroke="#000000" points="212,-175 212,-197 345,-197 345,-175 212,-175"/>
<image xlink:href="../../images/primaryKeys.png" width="11px" height="12px" preserveAspectRatio="xMinYMin meet" x="217" y="-192"/>
<text text-anchor="start" x="232" y="-183.2" font-family="Helvetica,sans-Serif" font-size="11.00" fill="#000000">edition_editor_id</text>
<polygon fill="#ffffff" stroke="transparent" points="212,-153 212,-175 345,-175 345,-153 212,-153"/>
<polygon fill="none" stroke="#000000" points="212,-153 212,-175 345,-175 345,-153 212,-153"/>
<image xlink:href="../../images/foreignKeys.png" width="11px" height="12px" preserveAspectRatio="xMinYMin meet" x="217" y="-170"/>
<text text-anchor="start" x="232" y="-161.2" font-family="Helvetica,sans-Serif" font-size="11.00" fill="#000000">user_id</text>
<polygon fill="#ffffff" stroke="transparent" points="212,-131 212,-153 345,-153 345,-131 212,-131"/>
<polygon fill="none" stroke="#000000" points="212,-131 212,-153 345,-153 345,-131 212,-131"/>
<image xlink:href="../../images/foreignKeys.png" width="11px" height="12px" preserveAspectRatio="xMinYMin meet" x="217" y="-148"/>
<text text-anchor="start" x="232" y="-139.2" font-family="Helvetica,sans-Serif" font-size="11.00" fill="#000000">edition_id</text>
<polygon fill="none" stroke="#000000" points="212,-113 212,-131 345,-131 345,-113 212,-113"/>
<text text-anchor="start" x="215" y="-119.2" font-family="Helvetica,sans-Serif" font-size="11.00" fill="#000000">...</text>
<polygon fill="#ffffff" stroke="transparent" points="212,-95 212,-113 245,-113 245,-95 212,-95"/>
<polygon fill="none" stroke="#000000" points="212,-95 212,-113 245,-113 245,-95 212,-95"/>
<text text-anchor="start" x="215" y="-101.2" font-family="Helvetica,sans-Serif" font-size="11.00" fill="#000000">&lt; 2</text>
<polygon fill="#ffffff" stroke="transparent" points="245,-95 245,-113 311,-113 311,-95 245,-95"/>
<polygon fill="none" stroke="#000000" points="245,-95 245,-113 311,-113 311,-95 245,-95"/>
<text text-anchor="start" x="254" y="-101.2" font-family="Helvetica,sans-Serif" font-size="11.00" fill="#000000">1,645 rows</text>
<polygon fill="#ffffff" stroke="transparent" points="311,-95 311,-113 345,-113 345,-95 311,-95"/>
<polygon fill="none" stroke="#000000" points="311,-95 311,-113 345,-113 345,-95 311,-95"/>
<text text-anchor="start" x="320" y="-101.2" font-family="Helvetica,sans-Serif" font-size="11.00" fill="#000000">30 &gt;</text>
</a>
</g>
</g>
<!-- edition -->
<g id="node2" class="node">
<title>edition</title>
<g id="a_node2"><a xlink:href="../../tables/edition.html" xlink:title="edition" target="_top">
<polygon fill="#ffffff" stroke="transparent" points="8,-37 8,-139 143,-139 143,-37 8,-37"/>
<polygon fill="#f5f5f5" stroke="transparent" points="8.5,-117 8.5,-139 143.5,-139 143.5,-117 8.5,-117"/>
<polygon fill="none" stroke="#000000" points="8.5,-117 8.5,-139 143.5,-139 143.5,-117 8.5,-117"/>
<text text-anchor="start" x="13.5" y="-126.2" font-family="Helvetica,sans-Serif" font-weight="bold" font-size="11.00" fill="#000000">edition</text>
<text text-anchor="start" x="108.5" y="-125.2" font-family="Helvetica,sans-Serif" font-size="11.00" fill="#000000">[table]</text>
<polygon fill="none" stroke="#000000" points="8.5,-95 8.5,-117 143.5,-117 143.5,-95 8.5,-95"/>
<image xlink:href="../../images/primaryKeys.png" width="11px" height="12px" preserveAspectRatio="xMinYMin meet" x="13.5" y="-112"/>
<text text-anchor="start" x="28.5" y="-103.2" font-family="Helvetica,sans-Serif" font-size="11.00" fill="#000000">edition_id</text>
<polygon fill="#ffffff" stroke="transparent" points="8.5,-73 8.5,-95 143.5,-95 143.5,-73 8.5,-73"/>
<polygon fill="none" stroke="#000000" points="8.5,-73 8.5,-95 143.5,-95 143.5,-73 8.5,-73"/>
<image xlink:href="../../images/foreignKeys.png" width="11px" height="12px" preserveAspectRatio="xMinYMin meet" x="13.5" y="-90"/>
<text text-anchor="start" x="28.5" y="-81.2" font-family="Helvetica,sans-Serif" font-size="11.00" fill="#000000">manuscript_id</text>
<polygon fill="none" stroke="#000000" points="8.5,-55 8.5,-73 143.5,-73 143.5,-55 8.5,-55"/>
<text text-anchor="start" x="11.5" y="-61.2" font-family="Helvetica,sans-Serif" font-size="11.00" fill="#000000">...</text>
<polygon fill="#ffffff" stroke="transparent" points="8.5,-37 8.5,-55 42.5,-55 42.5,-37 8.5,-37"/>
<polygon fill="none" stroke="#000000" points="8.5,-37 8.5,-55 42.5,-55 42.5,-37 8.5,-37"/>
<text text-anchor="start" x="11.5" y="-43.2" font-family="Helvetica,sans-Serif" font-size="11.00" fill="#000000">&lt; 1</text>
<polygon fill="#ffffff" stroke="transparent" points="42.5,-37 42.5,-55 108.5,-55 108.5,-37 42.5,-37"/>
<polygon fill="none" stroke="#000000" points="42.5,-37 42.5,-55 108.5,-55 108.5,-37 42.5,-37"/>
<text text-anchor="start" x="51.5" y="-43.2" font-family="Helvetica,sans-Serif" font-size="11.00" fill="#000000">1,645 rows</text>
<polygon fill="#ffffff" stroke="transparent" points="108.5,-37 108.5,-55 143.5,-55 143.5,-37 108.5,-37"/>
<polygon fill="none" stroke="#000000" points="108.5,-37 108.5,-55 143.5,-55 143.5,-37 108.5,-37"/>
<text text-anchor="start" x="118.5" y="-43.2" font-family="Helvetica,sans-Serif" font-size="11.00" fill="#000000">32 &gt;</text>
</a>
</g>
</g>
<!-- edition_editor&#45;&gt;edition -->
<g id="edge1" class="edge">
<title>edition_editor:w&#45;&gt;edition:e</title>
<path fill="none" stroke="#000000" d="M197.5663,-139.411C176.7675,-131.1565 172.2502,-106 143.5,-106"/>
<polygon fill="#000000" stroke="#000000" points="204.1257,-140.5875 211.3644,-145.5434 208.0628,-141.2938 212,-142 212,-142 212,-142 208.0628,-141.2938 212.6356,-138.4566 204.1257,-140.5875 204.1257,-140.5875"/>
<ellipse fill="none" stroke="#000000" cx="200.9759" cy="-140.0225" rx="3.2" ry="3.2"/>
</g>
<!-- text_fragment_data_owner -->
<g id="node3" class="node">
<title>text_fragment_data_owner</title>
<g id="a_node3"><a xlink:href="../../tables/text_fragment_data_owner.html" xlink:title="text_fragment_data_owner" target="_top">
<polygon fill="#ffffff" stroke="transparent" points="413,-133 413,-243 700,-243 700,-133 413,-133"/>
<polygon fill="#f5f5f5" stroke="transparent" points="415.5,-219 415.5,-241 698.5,-241 698.5,-219 415.5,-219"/>
<polygon fill="none" stroke="#000000" points="415.5,-219 415.5,-241 698.5,-241 698.5,-219 415.5,-219"/>
<text text-anchor="start" x="420.5" y="-228.2" font-family="Helvetica,sans-Serif" font-weight="bold" font-size="11.00" fill="#000000">text_fragment_data_owner</text>
<text text-anchor="start" x="663.5" y="-227.2" font-family="Helvetica,sans-Serif" font-size="11.00" fill="#000000">[table]</text>
<polygon fill="none" stroke="#000000" points="415.5,-197 415.5,-219 616.5,-219 616.5,-197 415.5,-197"/>
<image xlink:href="../../images/primaryKeys.png" width="11px" height="12px" preserveAspectRatio="xMinYMin meet" x="420.5" y="-214"/>
<text text-anchor="start" x="435.5" y="-205.2" font-family="Helvetica,sans-Serif" font-size="11.00" fill="#000000">text_fragment_data_id</text>
<polygon fill="none" stroke="#000000" points="616.5,-197 616.5,-219 698.5,-219 698.5,-197 616.5,-197"/>
<text text-anchor="start" x="619.5" y="-205.2" font-family="Helvetica,sans-Serif" font-size="11.00" fill="#000000">int unsigned[10]</text>
<polygon fill="#ffffff" stroke="transparent" points="415.5,-175 415.5,-197 616.5,-197 616.5,-175 415.5,-175"/>
<polygon fill="none" stroke="#000000" points="415.5,-175 415.5,-197 616.5,-197 616.5,-175 415.5,-175"/>
<image xlink:href="../../images/foreignKeys.png" width="11px" height="12px" preserveAspectRatio="xMinYMin meet" x="420.5" y="-192"/>
<text text-anchor="start" x="435.5" y="-183.2" font-family="Helvetica,sans-Serif" font-size="11.00" fill="#000000">edition_editor_id</text>
<polygon fill="none" stroke="#000000" points="616.5,-175 616.5,-197 698.5,-197 698.5,-175 616.5,-175"/>
<text text-anchor="start" x="619.5" y="-183.2" font-family="Helvetica,sans-Serif" font-size="11.00" fill="#000000">int unsigned[10]</text>
<polygon fill="none" stroke="#000000" points="415.5,-153 415.5,-175 616.5,-175 616.5,-153 415.5,-153"/>
<image xlink:href="../../images/primaryKeys.png" width="11px" height="12px" preserveAspectRatio="xMinYMin meet" x="420.5" y="-170"/>
<text text-anchor="start" x="435.5" y="-161.2" font-family="Helvetica,sans-Serif" font-size="11.00" fill="#000000">edition_id</text>
<polygon fill="none" stroke="#000000" points="616.5,-153 616.5,-175 698.5,-175 698.5,-153 616.5,-153"/>
<text text-anchor="start" x="619.5" y="-161.2" font-family="Helvetica,sans-Serif" font-size="11.00" fill="#000000">int unsigned[10]</text>
<polygon fill="#ffffff" stroke="transparent" points="415.5,-135 415.5,-153 493.5,-153 493.5,-135 415.5,-135"/>
<polygon fill="none" stroke="#000000" points="415.5,-135 415.5,-153 493.5,-153 493.5,-135 415.5,-135"/>
<text text-anchor="start" x="418.5" y="-141.2" font-family="Helvetica,sans-Serif" font-size="11.00" fill="#000000">&lt; 3</text>
<polygon fill="#ffffff" stroke="transparent" points="493.5,-135 493.5,-153 616.5,-153 616.5,-135 493.5,-135"/>
<polygon fill="none" stroke="#000000" points="493.5,-135 493.5,-153 616.5,-153 616.5,-135 493.5,-135"/>
<text text-anchor="start" x="553.5" y="-141.2" font-family="Helvetica,sans-Serif" font-size="11.00" fill="#000000">11,176 rows</text>
<polygon fill="#ffffff" stroke="transparent" points="616.5,-135 616.5,-153 698.5,-153 698.5,-135 616.5,-135"/>
<polygon fill="none" stroke="#000000" points="616.5,-135 616.5,-153 698.5,-153 698.5,-135 616.5,-135"/>
<text text-anchor="start" x="679.5" y="-141.2" font-family="Helvetica,sans-Serif" font-size="11.00" fill="#000000">0 &gt;</text>
<polygon fill="none" stroke="#000000" stroke-width="2" points="414,-134 414,-242 699,-242 699,-134 414,-134"/>
</a>
</g>
</g>
<!-- text_fragment_data_owner&#45;&gt;edition_editor -->
<g id="edge2" class="edge">
<title>text_fragment_data_owner:w&#45;&gt;edition_editor:e</title>
<path fill="none" stroke="#000000" d="M400.8997,-186C380.6866,-186 370.8255,-186 345,-186"/>
<polygon fill="#000000" stroke="#000000" points="407.5,-186.0001 415.5,-189.6 411.5,-186 415.5,-186 415.5,-186 415.5,-186 411.5,-186 415.5,-182.4 407.5,-186.0001 407.5,-186.0001"/>
<ellipse fill="none" stroke="#000000" cx="404.3" cy="-186.0001" rx="3.2" ry="3.2"/>
</g>
<!-- text_fragment_data_owner&#45;&gt;edition -->
<g id="edge3" class="edge">
<title>text_fragment_data_owner:w&#45;&gt;edition:e</title>
<path fill="none" stroke="#000000" d="M401.5416,-160.2163C383.1605,-146.8233 401.4884,-101.5315 372,-84 300.1787,-41.3006 264.9826,-63.4246 184,-84 164.1465,-89.0442 163.9843,-106 143.5,-106"/>
<polygon fill="#000000" stroke="#000000" points="407.7786,-161.9069 414.5581,-167.4746 411.6393,-162.9535 415.5,-164 415.5,-164 415.5,-164 411.6393,-162.9535 416.4419,-160.5254 407.7786,-161.9069 407.7786,-161.9069"/>
<ellipse fill="none" stroke="#000000" cx="404.6901" cy="-161.0697" rx="3.2" ry="3.2"/>
</g>
<!-- text_fragment_data -->
<g id="node4" class="node">
<title>text_fragment_data</title>
<g id="a_node4"><a xlink:href="../../tables/text_fragment_data.html" xlink:title="text_fragment_data" target="_top">
<polygon fill="#ffffff" stroke="transparent" points="192,-240 192,-368 364,-368 364,-240 192,-240"/>
<polygon fill="#f5f5f5" stroke="transparent" points="192,-346 192,-368 364,-368 364,-346 192,-346"/>
<polygon fill="none" stroke="#000000" points="192,-346 192,-368 364,-368 364,-346 192,-346"/>
<text text-anchor="start" x="197" y="-355.2" font-family="Helvetica,sans-Serif" font-weight="bold" font-size="11.00" fill="#000000">text_fragment_data</text>
<text text-anchor="start" x="329" y="-354.2" font-family="Helvetica,sans-Serif" font-size="11.00" fill="#000000">[table]</text>
<polygon fill="none" stroke="#000000" points="192,-324 192,-346 364,-346 364,-324 192,-324"/>
<image xlink:href="../../images/primaryKeys.png" width="11px" height="12px" preserveAspectRatio="xMinYMin meet" x="197" y="-341"/>
<text text-anchor="start" x="212" y="-332.2" font-family="Helvetica,sans-Serif" font-size="11.00" fill="#000000">text_fragment_data_id</text>
<polygon fill="#ffffff" stroke="transparent" points="192,-302 192,-324 364,-324 364,-302 192,-302"/>
<polygon fill="none" stroke="#000000" points="192,-302 192,-324 364,-324 364,-302 192,-302"/>
<image xlink:href="../../images/foreignKeys.png" width="11px" height="12px" preserveAspectRatio="xMinYMin meet" x="197" y="-319"/>
<text text-anchor="start" x="212" y="-310.2" font-family="Helvetica,sans-Serif" font-size="11.00" fill="#000000">text_fragment_id</text>
<polygon fill="#ffffff" stroke="transparent" points="192,-280 192,-302 364,-302 364,-280 192,-280"/>
<polygon fill="none" stroke="#000000" points="192,-280 192,-302 364,-302 364,-280 192,-280"/>
<text text-anchor="start" x="212" y="-288.2" font-family="Helvetica,sans-Serif" font-size="11.00" fill="#000000">name</text>
<polygon fill="#ffffff" stroke="transparent" points="192,-258 192,-280 364,-280 364,-258 192,-258"/>
<polygon fill="none" stroke="#000000" points="192,-258 192,-280 364,-280 364,-258 192,-258"/>
<image xlink:href="../../images/foreignKeys.png" width="11px" height="12px" preserveAspectRatio="xMinYMin meet" x="197" y="-275"/>
<text text-anchor="start" x="212" y="-266.2" font-family="Helvetica,sans-Serif" font-size="11.00" fill="#000000">creator_id</text>
<polygon fill="#ffffff" stroke="transparent" points="192,-240 192,-258 245,-258 245,-240 192,-240"/>
<polygon fill="none" stroke="#000000" points="192,-240 192,-258 245,-258 245,-240 192,-240"/>
<text text-anchor="start" x="195" y="-246.2" font-family="Helvetica,sans-Serif" font-size="11.00" fill="#000000">&lt; 2</text>
<polygon fill="#ffffff" stroke="transparent" points="245,-240 245,-258 326,-258 326,-240 245,-240"/>
<polygon fill="none" stroke="#000000" points="245,-240 245,-258 326,-258 326,-240 245,-240"/>
<text text-anchor="start" x="263" y="-246.2" font-family="Helvetica,sans-Serif" font-size="11.00" fill="#000000">11,169 rows</text>
<polygon fill="#ffffff" stroke="transparent" points="326,-240 326,-258 364,-258 364,-240 326,-240"/>
<polygon fill="none" stroke="#000000" points="326,-240 326,-258 364,-258 364,-240 326,-240"/>
<text text-anchor="start" x="345" y="-246.2" font-family="Helvetica,sans-Serif" font-size="11.00" fill="#000000">1 &gt;</text>
</a>
</g>
</g>
<!-- text_fragment_data_owner&#45;&gt;text_fragment_data -->
<g id="edge4" class="edge">
<title>text_fragment_data_owner:w&#45;&gt;text_fragment_data:e</title>
<path fill="none" stroke="#000000" d="M401.1656,-211.3969C367.0737,-231.5935 418.9606,-335 364,-335"/>
<polygon fill="#000000" stroke="#000000" points="407.7156,-209.8448 416.3302,-211.503 411.6078,-208.9224 415.5,-208 415.5,-208 415.5,-208 411.6078,-208.9224 414.6698,-204.497 407.7156,-209.8448 407.7156,-209.8448"/>
<ellipse fill="none" stroke="#000000" cx="404.6018" cy="-210.5827" rx="3.2" ry="3.2"/>
</g>
</g>
</svg>
