<?xml version="1.0" encoding="UTF-8" standalone="no"?>
<!DOCTYPE svg PUBLIC "-//W3C//DTD SVG 1.1//EN"
 "http://www.w3.org/Graphics/SVG/1.1/DTD/svg11.dtd">
<!-- Generated by graphviz version 2.43.0 (0)
 -->
<!-- Title: oneDegreeRelationshipsDiagram Pages: 1 -->
<svg width="713pt" height="296pt"
 viewBox="0.00 0.00 713.00 296.00" xmlns="http://www.w3.org/2000/svg" xmlns:xlink="http://www.w3.org/1999/xlink">
<g id="graph0" class="graph" transform="scale(1 1) rotate(0) translate(4 292)">
<title>oneDegreeRelationshipsDiagram</title>
<polygon fill="#ffffff" stroke="transparent" points="-4,4 -4,-292 709,-292 709,4 -4,4"/>
<text text-anchor="middle" x="79.5" y="-7.2" font-family="Helvetica,sans-Serif" font-size="11.00">Generated by SchemaSpy</text>
<!-- edition_editor_request -->
<g id="node1" class="node">
<title>edition_editor_request</title>
<g id="a_node1"><a xlink:href="../../tables/edition_editor_request.html" xlink:title="edition_editor_request" target="_top">
<polygon fill="#ffffff" stroke="transparent" points="508,-37 508,-183 697,-183 697,-37 508,-37"/>
<polygon fill="#f5f5f5" stroke="transparent" points="508.5,-161 508.5,-183 697.5,-183 697.5,-161 508.5,-161"/>
<polygon fill="none" stroke="black" points="508.5,-161 508.5,-183 697.5,-183 697.5,-161 508.5,-161"/>
<text text-anchor="start" x="513.5" y="-170.2" font-family="Helvetica,sans-Serif" font-weight="bold" font-size="11.00">edition_editor_request</text>
<text text-anchor="start" x="655.5" y="-169.2" font-family="Helvetica,sans-Serif" font-size="11.00">[table]</text>
<polygon fill="#ffffff" stroke="transparent" points="508.5,-139 508.5,-161 697.5,-161 697.5,-139 508.5,-139"/>
<polygon fill="none" stroke="black" points="508.5,-139 508.5,-161 697.5,-161 697.5,-139 508.5,-139"/>
<image xlink:href="../../images/foreignKeys.png" width="11px" height="12px" preserveAspectRatio="xMinYMin meet" x="513.5" y="-156"/>
<text text-anchor="start" x="536.5" y="-147.2" font-family="Helvetica,sans-Serif" font-size="11.00">token</text>
<polygon fill="#ffffff" stroke="transparent" points="508.5,-117 508.5,-139 697.5,-139 697.5,-117 508.5,-117"/>
<polygon fill="none" stroke="black" points="508.5,-117 508.5,-139 697.5,-139 697.5,-117 508.5,-117"/>
<image xlink:href="../../images/foreignKeys.png" width="11px" height="12px" preserveAspectRatio="xMinYMin meet" x="513.5" y="-134"/>
<text text-anchor="start" x="536.5" y="-125.2" font-family="Helvetica,sans-Serif" font-size="11.00">admin_user_id</text>
<polygon fill="none" stroke="black" points="508.5,-95 508.5,-117 697.5,-117 697.5,-95 508.5,-95"/>
<image xlink:href="../../images/primaryKeys.png" width="11px" height="12px" preserveAspectRatio="xMinYMin meet" x="513.5" y="-112"/>
<text text-anchor="start" x="536.5" y="-103.2" font-family="Helvetica,sans-Serif" font-size="11.00">editor_user_id</text>
<polygon fill="none" stroke="black" points="508.5,-73 508.5,-95 697.5,-95 697.5,-73 508.5,-73"/>
<image xlink:href="../../images/primaryKeys.png" width="11px" height="12px" preserveAspectRatio="xMinYMin meet" x="513.5" y="-90"/>
<text text-anchor="start" x="536.5" y="-81.2" font-family="Helvetica,sans-Serif" font-size="11.00">edition_id</text>
<polygon fill="none" stroke="black" points="508.5,-55 508.5,-73 697.5,-73 697.5,-55 508.5,-55"/>
<text text-anchor="start" x="511.5" y="-61.2" font-family="Helvetica,sans-Serif" font-size="11.00">...</text>
<polygon fill="#ffffff" stroke="transparent" points="508.5,-37 508.5,-55 587.5,-55 587.5,-37 508.5,-37"/>
<polygon fill="none" stroke="black" points="508.5,-37 508.5,-55 587.5,-55 587.5,-37 508.5,-37"/>
<text text-anchor="start" x="511.5" y="-43.2" font-family="Helvetica,sans-Serif" font-size="11.00">&lt; 4</text>
<polygon fill="#ffffff" stroke="transparent" points="587.5,-37 587.5,-55 656.5,-55 656.5,-37 587.5,-37"/>
<polygon fill="none" stroke="black" points="587.5,-37 587.5,-55 656.5,-55 656.5,-37 587.5,-37"/>
<text text-anchor="start" x="616.5" y="-43.2" font-family="Helvetica,sans-Serif" font-size="11.00">0 rows</text>
<polygon fill="#ffffff" stroke="transparent" points="656.5,-37 656.5,-55 697.5,-55 697.5,-37 656.5,-37"/>
<polygon fill="none" stroke="black" points="656.5,-37 656.5,-55 697.5,-55 697.5,-37 656.5,-37"/>
<text text-anchor="start" x="686.5" y="-43.2" font-family="Helvetica,sans-Serif" font-size="11.00"> &#160;</text>
</a>
</g>
</g>
<!-- user -->
<g id="node2" class="node">
<title>user</title>
<g id="a_node2"><a xlink:href="../../tables/user.html" xlink:title="user" target="_top">
<polygon fill="#ffffff" stroke="transparent" points="8,-59 8,-161 171,-161 171,-59 8,-59"/>
<polygon fill="#f5f5f5" stroke="transparent" points="8.5,-139 8.5,-161 171.5,-161 171.5,-139 8.5,-139"/>
<polygon fill="none" stroke="black" points="8.5,-139 8.5,-161 171.5,-161 171.5,-139 8.5,-139"/>
<text text-anchor="start" x="13.5" y="-148.2" font-family="Helvetica,sans-Serif" font-weight="bold" font-size="11.00">user</text>
<text text-anchor="start" x="129.5" y="-147.2" font-family="Helvetica,sans-Serif" font-size="11.00">[table]</text>
<polygon fill="none" stroke="black" points="8.5,-117 8.5,-139 171.5,-139 171.5,-117 8.5,-117"/>
<image xlink:href="../../images/primaryKeys.png" width="11px" height="12px" preserveAspectRatio="xMinYMin meet" x="13.5" y="-134"/>
<text text-anchor="start" x="28.5" y="-125.2" font-family="Helvetica,sans-Serif" font-size="11.00">user_id</text>
<polygon fill="#ffffff" stroke="transparent" points="8.5,-95 8.5,-117 171.5,-117 171.5,-95 8.5,-95"/>
<polygon fill="none" stroke="black" points="8.5,-95 8.5,-117 171.5,-117 171.5,-95 8.5,-95"/>
<text text-anchor="start" x="28.5" y="-103.2" font-family="Helvetica,sans-Serif" font-size="11.00">email</text>
<polygon fill="none" stroke="black" points="8.5,-77 8.5,-95 171.5,-95 171.5,-77 8.5,-77"/>
<text text-anchor="start" x="11.5" y="-83.2" font-family="Helvetica,sans-Serif" font-size="11.00">...</text>
<polygon fill="#ffffff" stroke="transparent" points="8.5,-59 8.5,-77 58.5,-77 58.5,-59 8.5,-59"/>
<polygon fill="none" stroke="black" points="8.5,-59 8.5,-77 58.5,-77 58.5,-59 8.5,-59"/>
<text text-anchor="start" x="11.5" y="-65.2" font-family="Helvetica,sans-Serif" font-size="11.00"> &#160;</text>
<polygon fill="#ffffff" stroke="transparent" points="58.5,-59 58.5,-77 119.5,-77 119.5,-59 58.5,-59"/>
<polygon fill="none" stroke="black" points="58.5,-59 58.5,-77 119.5,-77 119.5,-59 58.5,-59"/>
<text text-anchor="start" x="79.5" y="-65.2" font-family="Helvetica,sans-Serif" font-size="11.00">0 rows</text>
<polygon fill="#ffffff" stroke="transparent" points="119.5,-59 119.5,-77 171.5,-77 171.5,-59 119.5,-59"/>
<polygon fill="none" stroke="black" points="119.5,-59 119.5,-77 171.5,-77 171.5,-59 119.5,-59"/>
<text text-anchor="start" x="141.5" y="-65.2" font-family="Helvetica,sans-Serif" font-size="11.00">10 &gt;</text>
</a>
</g>
</g>
<!-- edition_editor_request&#45;&gt;user -->
<g id="edge1" class="edge">
<title>edition_editor_request:w&#45;&gt;user:e</title>
<path fill="none" stroke="black" d="M493.03,-128C356.02,-128 316.45,-128 172.5,-128"/>
<polygon fill="black" stroke="black" points="499.5,-128 507.5,-131.6 503.5,-128 507.5,-128 507.5,-128 507.5,-128 503.5,-128 507.5,-124.4 499.5,-128 499.5,-128"/>
<ellipse fill="none" stroke="black" cx="496.3" cy="-128" rx="3.2" ry="3.2"/>
</g>
<!-- edition_editor_request&#45;&gt;user -->
<g id="edge2" class="edge">
<title>edition_editor_request:w&#45;&gt;user:e</title>
<path fill="none" stroke="black" d="M492.88,-106.04C373.27,-106.75 338.28,-116.14 212,-125 194.44,-126.23 190.11,-128 172.5,-128"/>
<polygon fill="black" stroke="black" points="499.5,-106.02 507.51,-109.6 503.5,-106.01 507.5,-106 507.5,-106 507.5,-106 503.5,-106.01 507.49,-102.4 499.5,-106.02 499.5,-106.02"/>
<ellipse fill="none" stroke="black" cx="496.3" cy="-106.03" rx="3.2" ry="3.2"/>
</g>
<!-- user_email_token -->
<g id="node3" class="node">
<title>user_email_token</title>
<g id="a_node3"><a xlink:href="../../tables/user_email_token.html" xlink:title="user_email_token" target="_top">
<polygon fill="#ffffff" stroke="transparent" points="220,-152 220,-284 459,-284 459,-152 220,-152"/>
<polygon fill="#f5f5f5" stroke="transparent" points="222.5,-260 222.5,-282 457.5,-282 457.5,-260 222.5,-260"/>
<polygon fill="none" stroke="black" points="222.5,-260 222.5,-282 457.5,-282 457.5,-260 222.5,-260"/>
<text text-anchor="start" x="227.5" y="-269.2" font-family="Helvetica,sans-Serif" font-weight="bold" font-size="11.00">user_email_token</text>
<text text-anchor="start" x="415.5" y="-268.2" font-family="Helvetica,sans-Serif" font-size="11.00">[table]</text>
<polygon fill="#ffffff" stroke="transparent" points="222.5,-238 222.5,-260 360.5,-260 360.5,-238 222.5,-238"/>
<polygon fill="none" stroke="black" points="222.5,-238 222.5,-260 360.5,-260 360.5,-238 222.5,-238"/>
<image xlink:href="../../images/foreignKeys.png" width="11px" height="12px" preserveAspectRatio="xMinYMin meet" x="227.5" y="-255"/>
<text text-anchor="start" x="242.5" y="-246.2" font-family="Helvetica,sans-Serif" font-size="11.00">user_id</text>
<polygon fill="none" stroke="black" points="360.5,-238 360.5,-260 457.5,-260 457.5,-238 360.5,-238"/>
<text text-anchor="start" x="363.5" y="-246.2" font-family="Helvetica,sans-Serif" font-size="11.00">int unsigned[10]</text>
<polygon fill="none" stroke="black" points="222.5,-216 222.5,-238 360.5,-238 360.5,-216 222.5,-216"/>
<image xlink:href="../../images/primaryKeys.png" width="11px" height="12px" preserveAspectRatio="xMinYMin meet" x="227.5" y="-233"/>
<text text-anchor="start" x="242.5" y="-224.2" font-family="Helvetica,sans-Serif" font-size="11.00">token</text>
<polygon fill="none" stroke="black" points="360.5,-216 360.5,-238 457.5,-238 457.5,-216 360.5,-216"/>
<text text-anchor="start" x="363.5" y="-224.2" font-family="Helvetica,sans-Serif" font-size="11.00">char[36]</text>
<polygon fill="none" stroke="black" points="222.5,-194 222.5,-216 360.5,-216 360.5,-194 222.5,-194"/>
<text text-anchor="start" x="242.5" y="-202.2" font-family="Helvetica,sans-Serif" font-size="11.00">type</text>
<polygon fill="none" stroke="black" points="360.5,-194 360.5,-216 457.5,-216 457.5,-194 360.5,-194"/>
<text text-anchor="start" x="363.5" y="-202.2" font-family="Helvetica,sans-Serif" font-size="11.00">enum[16]</text>
<polygon fill="#ffffff" stroke="transparent" points="222.5,-172 222.5,-194 360.5,-194 360.5,-172 222.5,-172"/>
<polygon fill="none" stroke="black" points="222.5,-172 222.5,-194 360.5,-194 360.5,-172 222.5,-172"/>
<text text-anchor="start" x="242.5" y="-180.2" font-family="Helvetica,sans-Serif" font-size="11.00">date_created</text>
<polygon fill="none" stroke="black" points="360.5,-172 360.5,-194 457.5,-194 457.5,-172 360.5,-172"/>
<text text-anchor="start" x="363.5" y="-180.2" font-family="Helvetica,sans-Serif" font-size="11.00">datetime[19]</text>
<polygon fill="#ffffff" stroke="transparent" points="222.5,-154 222.5,-172 282.5,-172 282.5,-154 222.5,-154"/>
<polygon fill="none" stroke="black" points="222.5,-154 222.5,-172 282.5,-172 282.5,-154 222.5,-154"/>
<text text-anchor="start" x="225.5" y="-160.2" font-family="Helvetica,sans-Serif" font-size="11.00">&lt; 1</text>
<polygon fill="#ffffff" stroke="transparent" points="282.5,-154 282.5,-172 360.5,-172 360.5,-154 282.5,-154"/>
<polygon fill="none" stroke="black" points="282.5,-154 282.5,-172 360.5,-172 360.5,-154 282.5,-154"/>
<text text-anchor="start" x="320.5" y="-160.2" font-family="Helvetica,sans-Serif" font-size="11.00">0 rows</text>
<polygon fill="#ffffff" stroke="transparent" points="360.5,-154 360.5,-172 457.5,-172 457.5,-154 360.5,-154"/>
<polygon fill="none" stroke="black" points="360.5,-154 360.5,-172 457.5,-172 457.5,-154 360.5,-154"/>
<text text-anchor="start" x="434.5" y="-160.2" font-family="Helvetica,sans-Serif" font-size="11.00">1 &gt;</text>
<polygon fill="none" stroke="black" stroke-width="2" points="221,-153 221,-283 458,-283 458,-153 221,-153"/>
</a>
</g>
</g>
<!-- edition_editor_request&#45;&gt;user_email_token -->
<g id="edge3" class="edge">
<title>edition_editor_request:w&#45;&gt;user_email_token:e</title>
<path fill="none" stroke="black" d="M493.77,-154.59C474.87,-171.16 493.04,-227 458.5,-227"/>
<polygon fill="black" stroke="black" points="499.91,-152.53 508.64,-153.41 503.71,-151.27 507.5,-150 507.5,-150 507.5,-150 503.71,-151.27 506.36,-146.59 499.91,-152.53 499.91,-152.53"/>
<ellipse fill="none" stroke="black" cx="496.88" cy="-153.55" rx="3.2" ry="3.2"/>
</g>
<!-- user_email_token&#45;&gt;user -->
<g id="edge4" class="edge">
<title>user_email_token:w&#45;&gt;user:e</title>
<path fill="none" stroke="black" d="M207.43,-245.51C175.81,-225.67 224.63,-128 172.5,-128"/>
<polygon fill="black" stroke="black" points="213.74,-247.07 220.63,-252.49 217.62,-248.04 221.5,-249 221.5,-249 221.5,-249 217.62,-248.04 222.37,-245.51 213.74,-247.07 213.74,-247.07"/>
<ellipse fill="none" stroke="black" cx="210.63" cy="-246.3" rx="3.2" ry="3.2"/>
</g>
</g>
</svg>
