<?xml version="1.0" encoding="UTF-8" standalone="no"?>
<!DOCTYPE svg PUBLIC "-//W3C//DTD SVG 1.1//EN"
 "http://www.w3.org/Graphics/SVG/1.1/DTD/svg11.dtd">
<!-- Generated by graphviz version 2.43.0 (0)
 -->
<!-- Title: twoDegreesRelationshipsDiagramImplied Pages: 1 -->
<svg width="836pt" height="992pt"
 viewBox="0.00 0.00 836.00 992.00" xmlns="http://www.w3.org/2000/svg" xmlns:xlink="http://www.w3.org/1999/xlink">
<g id="graph0" class="graph" transform="scale(1 1) rotate(0) translate(4 988)">
<title>twoDegreesRelationshipsDiagramImplied</title>
<polygon fill="#ffffff" stroke="transparent" points="-4,4 -4,-988 832,-988 832,4 -4,4"/>
<text text-anchor="middle" x="79.5" y="-7.2" font-family="Helvetica,sans-Serif" font-size="11.00">Generated by SchemaSpy</text>
<!-- edition_editor -->
<g id="node1" class="node">
<title>edition_editor</title>
<g id="a_node1"><a xlink:href="../../tables/edition_editor.html" xlink:title="edition_editor" target="_top">
<polygon fill="#ffffff" stroke="transparent" points="333,-922 333,-980 469,-980 469,-922 333,-922"/>
<polygon fill="#f5f5f5" stroke="transparent" points="333,-958 333,-980 469,-980 469,-958 333,-958"/>
<polygon fill="none" stroke="black" points="333,-958 333,-980 469,-980 469,-958 333,-958"/>
<text text-anchor="start" x="338" y="-967.2" font-family="Helvetica,sans-Serif" font-weight="bold" font-size="11.00">edition_editor</text>
<text text-anchor="start" x="427" y="-966.2" font-family="Helvetica,sans-Serif" font-size="11.00">[table]</text>
<polygon fill="none" stroke="black" points="333,-940 333,-958 469,-958 469,-940 333,-940"/>
<text text-anchor="start" x="336" y="-946.2" font-family="Helvetica,sans-Serif" font-size="11.00">...</text>
<polygon fill="#ffffff" stroke="transparent" points="333,-922 333,-940 364,-940 364,-922 333,-922"/>
<polygon fill="none" stroke="black" points="333,-922 333,-940 364,-940 364,-922 333,-922"/>
<text text-anchor="start" x="336" y="-928.2" font-family="Helvetica,sans-Serif" font-size="11.00">&lt; 2</text>
<polygon fill="#ffffff" stroke="transparent" points="364,-922 364,-940 433,-940 433,-922 364,-922"/>
<polygon fill="none" stroke="black" points="364,-922 364,-940 433,-940 433,-922 364,-922"/>
<text text-anchor="start" x="369" y="-928.2" font-family="Helvetica,sans-Serif" font-size="11.00">1,645 rows</text>
<polygon fill="#ffffff" stroke="transparent" points="433,-922 433,-940 469,-940 469,-922 433,-922"/>
<polygon fill="none" stroke="black" points="433,-922 433,-940 469,-940 469,-922 433,-922"/>
<text text-anchor="start" x="439" y="-928.2" font-family="Helvetica,sans-Serif" font-size="11.00">29 &gt;</text>
</a>
</g>
</g>
<!-- user -->
<g id="node2" class="node">
<title>user</title>
<g id="a_node2"><a xlink:href="../../tables/user.html" xlink:title="user" target="_top">
<polygon fill="#ffffff" stroke="transparent" points="8,-525 8,-627 171,-627 171,-525 8,-525"/>
<polygon fill="#f5f5f5" stroke="transparent" points="8.5,-605 8.5,-627 171.5,-627 171.5,-605 8.5,-605"/>
<polygon fill="none" stroke="black" points="8.5,-605 8.5,-627 171.5,-627 171.5,-605 8.5,-605"/>
<text text-anchor="start" x="13.5" y="-614.2" font-family="Helvetica,sans-Serif" font-weight="bold" font-size="11.00">user</text>
<text text-anchor="start" x="129.5" y="-613.2" font-family="Helvetica,sans-Serif" font-size="11.00">[table]</text>
<polygon fill="none" stroke="black" points="8.5,-583 8.5,-605 171.5,-605 171.5,-583 8.5,-583"/>
<image xlink:href="../../images/primaryKeys.png" width="11px" height="12px" preserveAspectRatio="xMinYMin meet" x="13.5" y="-600"/>
<text text-anchor="start" x="28.5" y="-591.2" font-family="Helvetica,sans-Serif" font-size="11.00">user_id</text>
<polygon fill="#ffffff" stroke="transparent" points="8.5,-561 8.5,-583 171.5,-583 171.5,-561 8.5,-561"/>
<polygon fill="none" stroke="black" points="8.5,-561 8.5,-583 171.5,-583 171.5,-561 8.5,-561"/>
<text text-anchor="start" x="28.5" y="-569.2" font-family="Helvetica,sans-Serif" font-size="11.00">email</text>
<polygon fill="none" stroke="black" points="8.5,-543 8.5,-561 171.5,-561 171.5,-543 8.5,-543"/>
<text text-anchor="start" x="11.5" y="-549.2" font-family="Helvetica,sans-Serif" font-size="11.00">...</text>
<polygon fill="#ffffff" stroke="transparent" points="8.5,-525 8.5,-543 58.5,-543 58.5,-525 8.5,-525"/>
<polygon fill="none" stroke="black" points="8.5,-525 8.5,-543 58.5,-543 58.5,-525 8.5,-525"/>
<text text-anchor="start" x="11.5" y="-531.2" font-family="Helvetica,sans-Serif" font-size="11.00"> &#160;</text>
<polygon fill="#ffffff" stroke="transparent" points="58.5,-525 58.5,-543 119.5,-543 119.5,-525 58.5,-525"/>
<polygon fill="none" stroke="black" points="58.5,-525 58.5,-543 119.5,-543 119.5,-525 58.5,-525"/>
<text text-anchor="start" x="79.5" y="-531.2" font-family="Helvetica,sans-Serif" font-size="11.00">3 rows</text>
<polygon fill="#ffffff" stroke="transparent" points="119.5,-525 119.5,-543 171.5,-543 171.5,-525 119.5,-525"/>
<polygon fill="none" stroke="black" points="119.5,-525 119.5,-543 171.5,-543 171.5,-525 119.5,-525"/>
<text text-anchor="start" x="141.5" y="-531.2" font-family="Helvetica,sans-Serif" font-size="11.00">13 &gt;</text>
</a>
</g>
</g>
<!-- edition_editor&#45;&gt;user -->
<g id="edge1" class="edge">
<title>edition_editor:w&#45;&gt;user:e</title>
<path fill="none" stroke="black" d="M317.47,-949.03C270.54,-949.11 244.39,-947.78 212,-908 167.6,-853.46 242.83,-594 172.5,-594"/>
<polygon fill="black" stroke="black" points="324,-949.02 332.01,-952.6 328,-949.01 332,-949 332,-949 332,-949 328,-949.01 331.99,-945.4 324,-949.02 324,-949.02"/>
<ellipse fill="none" stroke="black" cx="320.8" cy="-949.02" rx="3.2" ry="3.2"/>
</g>
<!-- edition_editor_request -->
<g id="node3" class="node">
<title>edition_editor_request</title>
<g id="a_node3"><a xlink:href="../../tables/edition_editor_request.html" xlink:title="edition_editor_request" target="_top">
<polygon fill="#ffffff" stroke="transparent" points="631,-865 631,-923 820,-923 820,-865 631,-865"/>
<polygon fill="#f5f5f5" stroke="transparent" points="631.5,-901 631.5,-923 820.5,-923 820.5,-901 631.5,-901"/>
<polygon fill="none" stroke="black" points="631.5,-901 631.5,-923 820.5,-923 820.5,-901 631.5,-901"/>
<text text-anchor="start" x="636.5" y="-910.2" font-family="Helvetica,sans-Serif" font-weight="bold" font-size="11.00">edition_editor_request</text>
<text text-anchor="start" x="778.5" y="-909.2" font-family="Helvetica,sans-Serif" font-size="11.00">[table]</text>
<polygon fill="none" stroke="black" points="631.5,-883 631.5,-901 820.5,-901 820.5,-883 631.5,-883"/>
<text text-anchor="start" x="634.5" y="-889.2" font-family="Helvetica,sans-Serif" font-size="11.00">...</text>
<polygon fill="#ffffff" stroke="transparent" points="631.5,-865 631.5,-883 710.5,-883 710.5,-865 631.5,-865"/>
<polygon fill="none" stroke="black" points="631.5,-865 631.5,-883 710.5,-883 710.5,-865 631.5,-865"/>
<text text-anchor="start" x="634.5" y="-871.2" font-family="Helvetica,sans-Serif" font-size="11.00">&lt; 4</text>
<polygon fill="#ffffff" stroke="transparent" points="710.5,-865 710.5,-883 779.5,-883 779.5,-865 710.5,-865"/>
<polygon fill="none" stroke="black" points="710.5,-865 710.5,-883 779.5,-883 779.5,-865 710.5,-865"/>
<text text-anchor="start" x="739.5" y="-871.2" font-family="Helvetica,sans-Serif" font-size="11.00">0 rows</text>
<polygon fill="#ffffff" stroke="transparent" points="779.5,-865 779.5,-883 820.5,-883 820.5,-865 779.5,-865"/>
<polygon fill="none" stroke="black" points="779.5,-865 779.5,-883 820.5,-883 820.5,-865 779.5,-865"/>
<text text-anchor="start" x="809.5" y="-871.2" font-family="Helvetica,sans-Serif" font-size="11.00"> &#160;</text>
</a>
</g>
</g>
<!-- edition_editor_request&#45;&gt;user -->
<g id="edge2" class="edge">
<title>edition_editor_request:w&#45;&gt;user:e</title>
<path fill="none" stroke="black" d="M616.05,-892.28C513.28,-895.93 277.59,-932.62 212,-873 165.66,-830.88 235.12,-594 172.5,-594"/>
<polygon fill="black" stroke="black" points="622.5,-892.16 630.57,-895.6 626.5,-892.08 630.5,-892 630.5,-892 630.5,-892 626.5,-892.08 630.43,-888.4 622.5,-892.16 622.5,-892.16"/>
<ellipse fill="none" stroke="black" cx="619.3" cy="-892.22" rx="3.2" ry="3.2"/>
</g>
<!-- edition_editor_request&#45;&gt;user -->
<g id="edge3" class="edge">
<title>edition_editor_request:w&#45;&gt;user:e</title>
<path fill="none" stroke="black" d="M616.04,-892.26C513.23,-895.58 277.4,-928.9 212,-869 166.47,-827.3 234.24,-594 172.5,-594"/>
<polygon fill="black" stroke="black" points="622.5,-892.14 630.56,-895.6 626.5,-892.07 630.5,-892 630.5,-892 630.5,-892 626.5,-892.07 630.44,-888.4 622.5,-892.14 622.5,-892.14"/>
<ellipse fill="none" stroke="black" cx="619.3" cy="-892.2" rx="3.2" ry="3.2"/>
</g>
<!-- user_email_token -->
<g id="node4" class="node">
<title>user_email_token</title>
<g id="a_node4"><a xlink:href="../../tables/user_email_token.html" xlink:title="user_email_token" target="_top">
<polygon fill="#ffffff" stroke="transparent" points="322.5,-804 322.5,-862 479.5,-862 479.5,-804 322.5,-804"/>
<polygon fill="#f5f5f5" stroke="transparent" points="323,-840 323,-862 480,-862 480,-840 323,-840"/>
<polygon fill="none" stroke="black" points="323,-840 323,-862 480,-862 480,-840 323,-840"/>
<text text-anchor="start" x="328" y="-849.2" font-family="Helvetica,sans-Serif" font-weight="bold" font-size="11.00">user_email_token</text>
<text text-anchor="start" x="438" y="-848.2" font-family="Helvetica,sans-Serif" font-size="11.00">[table]</text>
<polygon fill="none" stroke="black" points="323,-822 323,-840 480,-840 480,-822 323,-822"/>
<text text-anchor="start" x="326" y="-828.2" font-family="Helvetica,sans-Serif" font-size="11.00">...</text>
<polygon fill="#ffffff" stroke="transparent" points="323,-804 323,-822 380,-822 380,-804 323,-804"/>
<polygon fill="none" stroke="black" points="323,-804 323,-822 380,-822 380,-804 323,-804"/>
<text text-anchor="start" x="326" y="-810.2" font-family="Helvetica,sans-Serif" font-size="11.00">&lt; 1</text>
<polygon fill="#ffffff" stroke="transparent" points="380,-804 380,-822 438,-822 438,-804 380,-804"/>
<polygon fill="none" stroke="black" points="380,-804 380,-822 438,-822 438,-804 380,-804"/>
<text text-anchor="start" x="398" y="-810.2" font-family="Helvetica,sans-Serif" font-size="11.00">0 rows</text>
<polygon fill="#ffffff" stroke="transparent" points="438,-804 438,-822 480,-822 480,-804 438,-804"/>
<polygon fill="none" stroke="black" points="438,-804 438,-822 480,-822 480,-804 438,-804"/>
<text text-anchor="start" x="457" y="-810.2" font-family="Helvetica,sans-Serif" font-size="11.00">1 &gt;</text>
</a>
</g>
</g>
<!-- edition_editor_request&#45;&gt;user_email_token -->
<g id="edge4" class="edge">
<title>edition_editor_request:w&#45;&gt;user_email_token:e</title>
<path fill="none" stroke="black" d="M616.74,-886.9C580.36,-872.24 484.69,-831 481,-831"/>
<polygon fill="black" stroke="black" points="623,-889.22 629.25,-895.38 626.75,-890.61 630.5,-892 630.5,-892 630.5,-892 626.75,-890.61 631.75,-888.62 623,-889.22 623,-889.22"/>
<ellipse fill="none" stroke="black" cx="620" cy="-888.11" rx="3.2" ry="3.2"/>
</g>
<!-- user_email_token&#45;&gt;user -->
<g id="edge14" class="edge">
<title>user_email_token:w&#45;&gt;user:e</title>
<path fill="none" stroke="black" d="M307.36,-831.01C265.47,-830.95 242.65,-828.9 212,-794 152.21,-725.92 263.11,-594 172.5,-594"/>
<polygon fill="black" stroke="black" points="314,-831.01 322,-834.6 318,-831 322,-831 322,-831 322,-831 318,-831 322,-827.4 314,-831.01 314,-831.01"/>
<ellipse fill="none" stroke="black" cx="310.8" cy="-831.01" rx="3.2" ry="3.2"/>
</g>
<!-- iaa_edition_catalog_author -->
<g id="node5" class="node">
<title>iaa_edition_catalog_author</title>
<g id="a_node5"><a xlink:href="../../tables/iaa_edition_catalog_author.html" xlink:title="iaa_edition_catalog_author" target="_top">
<polygon fill="#ffffff" stroke="transparent" points="293.5,-725 293.5,-783 508.5,-783 508.5,-725 293.5,-725"/>
<polygon fill="#f5f5f5" stroke="transparent" points="294,-761 294,-783 509,-783 509,-761 294,-761"/>
<polygon fill="none" stroke="black" points="294,-761 294,-783 509,-783 509,-761 294,-761"/>
<text text-anchor="start" x="299" y="-770.2" font-family="Helvetica,sans-Serif" font-weight="bold" font-size="11.00">iaa_edition_catalog_author</text>
<text text-anchor="start" x="467" y="-769.2" font-family="Helvetica,sans-Serif" font-size="11.00">[table]</text>
<polygon fill="none" stroke="black" points="294,-743 294,-761 509,-761 509,-743 294,-743"/>
<text text-anchor="start" x="297" y="-749.2" font-family="Helvetica,sans-Serif" font-size="11.00">...</text>
<polygon fill="#ffffff" stroke="transparent" points="294,-725 294,-743 370,-743 370,-725 294,-725"/>
<polygon fill="none" stroke="black" points="294,-725 294,-743 370,-743 370,-725 294,-725"/>
<text text-anchor="start" x="297" y="-731.2" font-family="Helvetica,sans-Serif" font-size="11.00">&lt; 2</text>
<polygon fill="#ffffff" stroke="transparent" points="370,-725 370,-743 469,-743 469,-725 370,-725"/>
<polygon fill="none" stroke="black" points="370,-725 370,-743 469,-743 469,-725 370,-725"/>
<text text-anchor="start" x="398" y="-731.2" font-family="Helvetica,sans-Serif" font-size="11.00">39,537 rows</text>
<polygon fill="#ffffff" stroke="transparent" points="469,-725 469,-743 509,-743 509,-725 469,-725"/>
<polygon fill="none" stroke="black" points="469,-725 469,-743 509,-743 509,-725 469,-725"/>
<text text-anchor="start" x="498" y="-731.2" font-family="Helvetica,sans-Serif" font-size="11.00"> &#160;</text>
</a>
</g>
</g>
<!-- iaa_edition_catalog_author&#45;&gt;user -->
<g id="edge5" class="edge">
<title>iaa_edition_catalog_author:w&#45;&gt;user:e</title>
<path fill="none" stroke="black" d="M278.44,-751.57C249.22,-749.62 234.86,-740.6 212,-715 174.32,-672.8 229.07,-594 172.5,-594"/>
<polygon fill="black" stroke="black" points="285,-751.76 292.89,-755.6 289,-751.88 293,-752 293,-752 293,-752 289,-751.88 293.11,-748.4 285,-751.76 285,-751.76"/>
<ellipse fill="none" stroke="black" cx="281.8" cy="-751.67" rx="3.2" ry="3.2"/>
</g>
<!-- iaa_edition_catalog_to_text_fragment_confirmation -->
<g id="node6" class="node">
<title>iaa_edition_catalog_to_text_fragment_confirmation</title>
<g id="a_node6"><a xlink:href="../../tables/iaa_edition_catalog_to_text_fragment_confirmation.html" xlink:title="iaa_edition_catalog_to_text_fragment_confirmation" target="_top">
<polygon fill="#ffffff" stroke="transparent" points="220,-646 220,-704 582,-704 582,-646 220,-646"/>
<polygon fill="#f5f5f5" stroke="transparent" points="220,-682 220,-704 582,-704 582,-682 220,-682"/>
<polygon fill="none" stroke="black" points="220,-682 220,-704 582,-704 582,-682 220,-682"/>
<text text-anchor="start" x="225" y="-691.2" font-family="Helvetica,sans-Serif" font-weight="bold" font-size="11.00">iaa_edition_catalog_to_text_fragment_confirmation</text>
<text text-anchor="start" x="540" y="-690.2" font-family="Helvetica,sans-Serif" font-size="11.00">[table]</text>
<polygon fill="none" stroke="black" points="220,-664 220,-682 582,-682 582,-664 220,-664"/>
<text text-anchor="start" x="223" y="-670.2" font-family="Helvetica,sans-Serif" font-size="11.00">...</text>
<polygon fill="#ffffff" stroke="transparent" points="220,-646 220,-664 370,-664 370,-646 220,-646"/>
<polygon fill="none" stroke="black" points="220,-646 220,-664 370,-664 370,-646 220,-646"/>
<text text-anchor="start" x="223" y="-652.2" font-family="Helvetica,sans-Serif" font-size="11.00">&lt; 2</text>
<polygon fill="#ffffff" stroke="transparent" points="370,-646 370,-664 506,-664 506,-646 370,-646"/>
<polygon fill="none" stroke="black" points="370,-646 370,-664 506,-664 506,-646 370,-646"/>
<text text-anchor="start" x="435" y="-652.2" font-family="Helvetica,sans-Serif" font-size="11.00">15,403 rows</text>
<polygon fill="#ffffff" stroke="transparent" points="506,-646 506,-664 582,-664 582,-646 506,-646"/>
<polygon fill="none" stroke="black" points="506,-646 506,-664 582,-664 582,-646 506,-646"/>
<text text-anchor="start" x="571" y="-652.2" font-family="Helvetica,sans-Serif" font-size="11.00"> &#160;</text>
</a>
</g>
</g>
<!-- iaa_edition_catalog_to_text_fragment_confirmation&#45;&gt;user -->
<g id="edge6" class="edge">
<title>iaa_edition_catalog_to_text_fragment_confirmation:w&#45;&gt;user:e</title>
<path fill="none" stroke="black" d="M205.37,-668.29C186.98,-651.29 207.19,-594 172.5,-594"/>
<polygon fill="black" stroke="black" points="211.44,-670.39 217.83,-676.4 215.22,-671.69 219,-673 219,-673 219,-673 215.22,-671.69 220.17,-669.6 211.44,-670.39 211.44,-670.39"/>
<ellipse fill="none" stroke="black" cx="208.41" cy="-669.35" rx="3.2" ry="3.2"/>
</g>
<!-- image_catalog_author -->
<g id="node7" class="node">
<title>image_catalog_author</title>
<g id="a_node7"><a xlink:href="../../tables/image_catalog_author.html" xlink:title="image_catalog_author" target="_top">
<polygon fill="#ffffff" stroke="transparent" points="308,-567 308,-625 494,-625 494,-567 308,-567"/>
<polygon fill="#f5f5f5" stroke="transparent" points="308,-603 308,-625 494,-625 494,-603 308,-603"/>
<polygon fill="none" stroke="black" points="308,-603 308,-625 494,-625 494,-603 308,-603"/>
<text text-anchor="start" x="313" y="-612.2" font-family="Helvetica,sans-Serif" font-weight="bold" font-size="11.00">image_catalog_author</text>
<text text-anchor="start" x="452" y="-611.2" font-family="Helvetica,sans-Serif" font-size="11.00">[table]</text>
<polygon fill="none" stroke="black" points="308,-585 308,-603 494,-603 494,-585 308,-585"/>
<text text-anchor="start" x="311" y="-591.2" font-family="Helvetica,sans-Serif" font-size="11.00">...</text>
<polygon fill="#ffffff" stroke="transparent" points="308,-567 308,-585 370,-585 370,-567 308,-567"/>
<polygon fill="none" stroke="black" points="308,-567 308,-585 370,-585 370,-567 308,-567"/>
<text text-anchor="start" x="311" y="-573.2" font-family="Helvetica,sans-Serif" font-size="11.00">&lt; 2</text>
<polygon fill="#ffffff" stroke="transparent" points="370,-567 370,-585 462,-585 462,-567 370,-567"/>
<polygon fill="none" stroke="black" points="370,-567 370,-585 462,-585 462,-567 370,-567"/>
<text text-anchor="start" x="391" y="-573.2" font-family="Helvetica,sans-Serif" font-size="11.00">41,829 rows</text>
<polygon fill="#ffffff" stroke="transparent" points="462,-567 462,-585 494,-585 494,-567 462,-567"/>
<polygon fill="none" stroke="black" points="462,-567 462,-585 494,-585 494,-567 462,-567"/>
<text text-anchor="start" x="483" y="-573.2" font-family="Helvetica,sans-Serif" font-size="11.00"> &#160;</text>
</a>
</g>
</g>
<!-- image_catalog_author&#45;&gt;user -->
<g id="edge7" class="edge">
<title>image_catalog_author:w&#45;&gt;user:e</title>
<path fill="none" stroke="black" d="M292.52,-594C244.32,-594 227.14,-594 172.5,-594"/>
<polygon fill="black" stroke="black" points="299,-594 307,-597.6 303,-594 307,-594 307,-594 307,-594 303,-594 307,-590.4 299,-594 299,-594"/>
<ellipse fill="none" stroke="black" cx="295.8" cy="-594" rx="3.2" ry="3.2"/>
</g>
<!-- image_to_image_map_author -->
<g id="node8" class="node">
<title>image_to_image_map_author</title>
<g id="a_node8"><a xlink:href="../../tables/image_to_image_map_author.html" xlink:title="image_to_image_map_author" target="_top">
<polygon fill="#ffffff" stroke="transparent" points="287.5,-488 287.5,-546 514.5,-546 514.5,-488 287.5,-488"/>
<polygon fill="#f5f5f5" stroke="transparent" points="288,-524 288,-546 515,-546 515,-524 288,-524"/>
<polygon fill="none" stroke="black" points="288,-524 288,-546 515,-546 515,-524 288,-524"/>
<text text-anchor="start" x="293" y="-533.2" font-family="Helvetica,sans-Serif" font-weight="bold" font-size="11.00">image_to_image_map_author</text>
<text text-anchor="start" x="473" y="-532.2" font-family="Helvetica,sans-Serif" font-size="11.00">[table]</text>
<polygon fill="none" stroke="black" points="288,-506 288,-524 515,-524 515,-506 288,-506"/>
<text text-anchor="start" x="291" y="-512.2" font-family="Helvetica,sans-Serif" font-size="11.00">...</text>
<polygon fill="#ffffff" stroke="transparent" points="288,-488 288,-506 370,-506 370,-488 288,-488"/>
<polygon fill="none" stroke="black" points="288,-488 288,-506 370,-506 370,-488 288,-488"/>
<text text-anchor="start" x="291" y="-494.2" font-family="Helvetica,sans-Serif" font-size="11.00">&lt; 2</text>
<polygon fill="#ffffff" stroke="transparent" points="370,-488 370,-506 472,-506 472,-488 370,-488"/>
<polygon fill="none" stroke="black" points="370,-488 370,-506 472,-506 472,-488 370,-488"/>
<text text-anchor="start" x="401" y="-494.2" font-family="Helvetica,sans-Serif" font-size="11.00">72,198 rows</text>
<polygon fill="#ffffff" stroke="transparent" points="472,-488 472,-506 515,-506 515,-488 472,-488"/>
<polygon fill="none" stroke="black" points="472,-488 472,-506 515,-506 515,-488 472,-488"/>
<text text-anchor="start" x="504" y="-494.2" font-family="Helvetica,sans-Serif" font-size="11.00"> &#160;</text>
</a>
</g>
</g>
<!-- image_to_image_map_author&#45;&gt;user -->
<g id="edge8" class="edge">
<title>image_to_image_map_author:w&#45;&gt;user:e</title>
<path fill="none" stroke="black" d="M272.64,-516.11C246.63,-520.53 238.5,-537.61 212,-557 192.59,-571.2 196.55,-594 172.5,-594"/>
<polygon fill="black" stroke="black" points="279.02,-515.62 287.28,-518.59 283.01,-515.31 287,-515 287,-515 287,-515 283.01,-515.31 286.72,-511.41 279.02,-515.62 279.02,-515.62"/>
<ellipse fill="none" stroke="black" cx="275.83" cy="-515.86" rx="3.2" ry="3.2"/>
</g>
<!-- recent_edition_catalog_to_col_confirmation -->
<g id="node9" class="node">
<title>recent_edition_catalog_to_col_confirmation</title>
<g id="a_node9"><a xlink:href="../../tables/recent_edition_catalog_to_col_confirmation.html" xlink:title="recent_edition_catalog_to_col_confirmation" target="_top">
<polygon fill="#ffffff" stroke="transparent" points="244.5,-427 244.5,-467 557.5,-467 557.5,-427 244.5,-427"/>
<polygon fill="#f5f5f5" stroke="transparent" points="245,-445 245,-467 558,-467 558,-445 245,-445"/>
<polygon fill="none" stroke="black" points="245,-445 245,-467 558,-467 558,-445 245,-445"/>
<text text-anchor="start" x="250" y="-454.2" font-family="Helvetica,sans-Serif" font-weight="bold" font-size="11.00">recent_edition_catalog_to_col_confirmation</text>
<text text-anchor="start" x="518" y="-453.2" font-family="Helvetica,sans-Serif" font-size="11.00">[view]</text>
<polygon fill="none" stroke="black" points="245,-427 245,-445 558,-445 558,-427 245,-427"/>
<text text-anchor="start" x="248" y="-433.2" font-family="Helvetica,sans-Serif" font-size="11.00">...</text>
</a>
</g>
</g>
<!-- recent_edition_catalog_to_col_confirmation&#45;&gt;user -->
<g id="edge9" class="edge">
<title>recent_edition_catalog_to_col_confirmation:w&#45;&gt;user:e</title>
<path fill="none" stroke="black" stroke-dasharray="5,2" d="M229.67,-438.36C178.03,-458.01 244.01,-594 172.5,-594"/>
<polygon fill="black" stroke="black" points="236.11,-437.3 244.58,-439.55 240.05,-436.65 244,-436 244,-436 244,-436 240.05,-436.65 243.42,-432.45 236.11,-437.3 236.11,-437.3"/>
<ellipse fill="none" stroke="black" cx="232.95" cy="-437.82" rx="3.2" ry="3.2"/>
</g>
<!-- SQE_image_author -->
<g id="node10" class="node">
<title>SQE_image_author</title>
<g id="a_node10"><a xlink:href="../../tables/SQE_image_author.html" xlink:title="SQE_image_author" target="_top">
<polygon fill="#ffffff" stroke="transparent" points="318.5,-348 318.5,-406 483.5,-406 483.5,-348 318.5,-348"/>
<polygon fill="#f5f5f5" stroke="transparent" points="319,-384 319,-406 484,-406 484,-384 319,-384"/>
<polygon fill="none" stroke="black" points="319,-384 319,-406 484,-406 484,-384 319,-384"/>
<text text-anchor="start" x="324" y="-393.2" font-family="Helvetica,sans-Serif" font-weight="bold" font-size="11.00">SQE_image_author</text>
<text text-anchor="start" x="442" y="-392.2" font-family="Helvetica,sans-Serif" font-size="11.00">[table]</text>
<polygon fill="none" stroke="black" points="319,-366 319,-384 484,-384 484,-366 319,-366"/>
<text text-anchor="start" x="322" y="-372.2" font-family="Helvetica,sans-Serif" font-size="11.00">...</text>
<polygon fill="#ffffff" stroke="transparent" points="319,-348 319,-366 370,-366 370,-348 319,-348"/>
<polygon fill="none" stroke="black" points="319,-348 319,-366 370,-366 370,-348 319,-348"/>
<text text-anchor="start" x="322" y="-354.2" font-family="Helvetica,sans-Serif" font-size="11.00">&lt; 2</text>
<polygon fill="#ffffff" stroke="transparent" points="370,-348 370,-366 457,-366 457,-348 370,-348"/>
<polygon fill="none" stroke="black" points="370,-348 370,-366 457,-366 457,-348 370,-348"/>
<text text-anchor="start" x="386" y="-354.2" font-family="Helvetica,sans-Serif" font-size="11.00">99,702 rows</text>
<polygon fill="#ffffff" stroke="transparent" points="457,-348 457,-366 484,-366 484,-348 457,-348"/>
<polygon fill="none" stroke="black" points="457,-348 457,-366 484,-366 484,-348 457,-348"/>
<text text-anchor="start" x="473" y="-354.2" font-family="Helvetica,sans-Serif" font-size="11.00"> &#160;</text>
</a>
</g>
</g>
<!-- SQE_image_author&#45;&gt;user -->
<g id="edge10" class="edge">
<title>SQE_image_author:w&#45;&gt;user:e</title>
<path fill="none" stroke="black" d="M303.39,-375.14C262.66,-376.06 241.56,-382.37 212,-417 159.67,-478.31 253.1,-594 172.5,-594"/>
<polygon fill="black" stroke="black" points="310,-375.08 318.03,-378.6 314,-375.04 318,-375 318,-375 318,-375 314,-375.04 317.97,-371.4 310,-375.08 310,-375.08"/>
<ellipse fill="none" stroke="black" cx="306.8" cy="-375.11" rx="3.2" ry="3.2"/>
</g>
<!-- sqe_session -->
<g id="node11" class="node">
<title>sqe_session</title>
<g id="a_node11"><a xlink:href="../../tables/sqe_session.html" xlink:title="sqe_session" target="_top">
<polygon fill="#ffffff" stroke="transparent" points="338.5,-269 338.5,-327 463.5,-327 463.5,-269 338.5,-269"/>
<polygon fill="#f5f5f5" stroke="transparent" points="339,-305 339,-327 464,-327 464,-305 339,-305"/>
<polygon fill="none" stroke="black" points="339,-305 339,-327 464,-327 464,-305 339,-305"/>
<text text-anchor="start" x="344" y="-314.2" font-family="Helvetica,sans-Serif" font-weight="bold" font-size="11.00">sqe_session</text>
<text text-anchor="start" x="422" y="-313.2" font-family="Helvetica,sans-Serif" font-size="11.00">[table]</text>
<polygon fill="none" stroke="black" points="339,-287 339,-305 464,-305 464,-287 339,-287"/>
<text text-anchor="start" x="342" y="-293.2" font-family="Helvetica,sans-Serif" font-size="11.00">...</text>
<polygon fill="#ffffff" stroke="transparent" points="339,-269 339,-287 386,-287 386,-269 339,-269"/>
<polygon fill="none" stroke="black" points="339,-269 339,-287 386,-287 386,-269 339,-269"/>
<text text-anchor="start" x="342" y="-275.2" font-family="Helvetica,sans-Serif" font-size="11.00">&lt; 1</text>
<polygon fill="#ffffff" stroke="transparent" points="386,-269 386,-287 439,-287 439,-269 386,-269"/>
<polygon fill="none" stroke="black" points="386,-269 386,-287 439,-287 439,-269 386,-269"/>
<text text-anchor="start" x="399" y="-275.2" font-family="Helvetica,sans-Serif" font-size="11.00">0 rows</text>
<polygon fill="#ffffff" stroke="transparent" points="439,-269 439,-287 464,-287 464,-269 439,-269"/>
<polygon fill="none" stroke="black" points="439,-269 439,-287 464,-287 464,-269 439,-269"/>
<text text-anchor="start" x="453" y="-275.2" font-family="Helvetica,sans-Serif" font-size="11.00"> &#160;</text>
</a>
</g>
</g>
<!-- sqe_session&#45;&gt;user -->
<g id="edge11" class="edge">
<title>sqe_session:w&#45;&gt;user:e</title>
<path fill="none" stroke="black" d="M323.42,-295.96C273.94,-295.82 246.8,-296.77 212,-338 174.87,-381.99 230.06,-594 172.5,-594"/>
<polygon fill="black" stroke="black" points="330,-295.98 337.99,-299.6 334,-295.99 338,-296 338,-296 338,-296 334,-295.99 338.01,-292.4 330,-295.98 330,-295.98"/>
<ellipse fill="none" stroke="black" cx="326.8" cy="-295.97" rx="3.2" ry="3.2"/>
</g>
<!-- user_comment -->
<g id="node12" class="node">
<title>user_comment</title>
<g id="a_node12"><a xlink:href="../../tables/user_comment.html" xlink:title="user_comment" target="_top">
<polygon fill="#ffffff" stroke="transparent" points="291,-116 291,-248 511,-248 511,-116 291,-116"/>
<polygon fill="#f5f5f5" stroke="transparent" points="293,-224 293,-246 509,-246 509,-224 293,-224"/>
<polygon fill="none" stroke="black" points="293,-224 293,-246 509,-246 509,-224 293,-224"/>
<text text-anchor="start" x="298" y="-233.2" font-family="Helvetica,sans-Serif" font-weight="bold" font-size="11.00">user_comment</text>
<text text-anchor="start" x="467" y="-232.2" font-family="Helvetica,sans-Serif" font-size="11.00">[table]</text>
<polygon fill="none" stroke="black" points="293,-202 293,-224 412,-224 412,-202 293,-202"/>
<image xlink:href="../../images/primaryKeys.png" width="11px" height="12px" preserveAspectRatio="xMinYMin meet" x="298" y="-219"/>
<text text-anchor="start" x="313" y="-210.2" font-family="Helvetica,sans-Serif" font-size="11.00">comment_id</text>
<polygon fill="none" stroke="black" points="412,-202 412,-224 509,-224 509,-202 412,-202"/>
<text text-anchor="start" x="415" y="-210.2" font-family="Helvetica,sans-Serif" font-size="11.00">int[10]</text>
<polygon fill="none" stroke="black" points="293,-180 293,-202 412,-202 412,-180 293,-180"/>
<image xlink:href="../../images/primaryKeys.png" width="11px" height="12px" preserveAspectRatio="xMinYMin meet" x="298" y="-197"/>
<text text-anchor="start" x="313" y="-188.2" font-family="Helvetica,sans-Serif" font-size="11.00">user_id</text>
<polygon fill="none" stroke="black" points="412,-180 412,-202 509,-202 509,-180 412,-180"/>
<text text-anchor="start" x="415" y="-188.2" font-family="Helvetica,sans-Serif" font-size="11.00">int unsigned[10]</text>
<polygon fill="none" stroke="black" points="293,-158 293,-180 412,-180 412,-158 293,-158"/>
<text text-anchor="start" x="313" y="-166.2" font-family="Helvetica,sans-Serif" font-size="11.00">comment_text</text>
<polygon fill="none" stroke="black" points="412,-158 412,-180 509,-180 509,-158 412,-158"/>
<text text-anchor="start" x="415" y="-166.2" font-family="Helvetica,sans-Serif" font-size="11.00">varchar[5000]</text>
<polygon fill="none" stroke="black" points="293,-136 293,-158 412,-158 412,-136 293,-136"/>
<text text-anchor="start" x="313" y="-144.2" font-family="Helvetica,sans-Serif" font-size="11.00">entry_time</text>
<polygon fill="none" stroke="black" points="412,-136 412,-158 509,-158 509,-136 412,-136"/>
<text text-anchor="start" x="415" y="-144.2" font-family="Helvetica,sans-Serif" font-size="11.00">datetime[19]</text>
<polygon fill="#ffffff" stroke="transparent" points="293,-118 293,-136 344,-136 344,-118 293,-118"/>
<polygon fill="none" stroke="black" points="293,-118 293,-136 344,-136 344,-118 293,-118"/>
<text text-anchor="start" x="296" y="-124.2" font-family="Helvetica,sans-Serif" font-size="11.00">&lt; 1</text>
<polygon fill="#ffffff" stroke="transparent" points="344,-118 344,-136 412,-136 412,-118 344,-118"/>
<polygon fill="none" stroke="black" points="344,-118 344,-136 412,-136 412,-118 344,-118"/>
<text text-anchor="start" x="372" y="-124.2" font-family="Helvetica,sans-Serif" font-size="11.00">0 rows</text>
<polygon fill="#ffffff" stroke="transparent" points="412,-118 412,-136 509,-136 509,-118 412,-118"/>
<polygon fill="none" stroke="black" points="412,-118 412,-136 509,-136 509,-118 412,-118"/>
<text text-anchor="start" x="486" y="-124.2" font-family="Helvetica,sans-Serif" font-size="11.00">0 &gt;</text>
<polygon fill="none" stroke="black" stroke-width="2" points="292,-117 292,-247 510,-247 510,-117 292,-117"/>
</a>
</g>
</g>
<!-- user_comment&#45;&gt;user -->
<g id="edge12" class="edge">
<title>user_comment:w&#45;&gt;user:e</title>
<path fill="none" stroke="black" d="M277.44,-192.02C242.64,-197.27 231.54,-222.53 212,-259 176.6,-325.07 247.46,-594 172.5,-594"/>
<polygon fill="black" stroke="black" points="284.02,-191.56 292.25,-194.59 288.01,-191.28 292,-191 292,-191 292,-191 288.01,-191.28 291.75,-187.41 284.02,-191.56 284.02,-191.56"/>
<ellipse fill="none" stroke="black" cx="280.83" cy="-191.78" rx="3.2" ry="3.2"/>
</g>
<!-- user_contributions -->
<g id="node13" class="node">
<title>user_contributions</title>
<g id="a_node13"><a xlink:href="../../tables/user_contributions.html" xlink:title="user_contributions" target="_top">
<polygon fill="#ffffff" stroke="transparent" points="318,-37 318,-95 484,-95 484,-37 318,-37"/>
<polygon fill="#f5f5f5" stroke="transparent" points="318,-73 318,-95 484,-95 484,-73 318,-73"/>
<polygon fill="none" stroke="black" points="318,-73 318,-95 484,-95 484,-73 318,-73"/>
<text text-anchor="start" x="323" y="-82.2" font-family="Helvetica,sans-Serif" font-weight="bold" font-size="11.00">user_contributions</text>
<text text-anchor="start" x="442" y="-81.2" font-family="Helvetica,sans-Serif" font-size="11.00">[table]</text>
<polygon fill="none" stroke="black" points="318,-55 318,-73 484,-73 484,-55 318,-55"/>
<text text-anchor="start" x="321" y="-61.2" font-family="Helvetica,sans-Serif" font-size="11.00">...</text>
<polygon fill="#ffffff" stroke="transparent" points="318,-37 318,-55 385,-55 385,-37 318,-37"/>
<polygon fill="none" stroke="black" points="318,-37 318,-55 385,-55 385,-37 318,-37"/>
<text text-anchor="start" x="321" y="-43.2" font-family="Helvetica,sans-Serif" font-size="11.00">&lt; 1</text>
<polygon fill="#ffffff" stroke="transparent" points="385,-37 385,-55 449,-55 449,-37 385,-37"/>
<polygon fill="none" stroke="black" points="385,-37 385,-55 449,-55 449,-37 385,-37"/>
<text text-anchor="start" x="409" y="-43.2" font-family="Helvetica,sans-Serif" font-size="11.00">0 rows</text>
<polygon fill="#ffffff" stroke="transparent" points="449,-37 449,-55 484,-55 484,-37 449,-37"/>
<polygon fill="none" stroke="black" points="449,-37 449,-55 484,-55 484,-37 449,-37"/>
<text text-anchor="start" x="473" y="-43.2" font-family="Helvetica,sans-Serif" font-size="11.00"> &#160;</text>
</a>
</g>
</g>
<!-- user_contributions&#45;&gt;user -->
<g id="edge13" class="edge">
<title>user_contributions:w&#45;&gt;user:e</title>
<path fill="none" stroke="black" d="M302.44,-64.09C261.63,-64.72 238.81,-69.66 212,-106 179.71,-149.78 226.9,-594 172.5,-594"/>
<polygon fill="black" stroke="black" points="309,-64.05 317.02,-67.6 313,-64.02 317,-64 317,-64 317,-64 313,-64.02 316.98,-60.4 309,-64.05 309,-64.05"/>
<ellipse fill="none" stroke="black" cx="305.8" cy="-64.07" rx="3.2" ry="3.2"/>
</g>
</g>
</svg>
