<?xml version="1.0" encoding="UTF-8" standalone="no"?>
<!DOCTYPE svg PUBLIC "-//W3C//DTD SVG 1.1//EN"
 "http://www.w3.org/Graphics/SVG/1.1/DTD/svg11.dtd">
<!-- Generated by graphviz version 2.43.0 (0)
 -->
<!-- Title: oneDegreeRelationshipsDiagramImplied Pages: 1 -->
<svg width="972pt" height="1147pt"
 viewBox="0.00 0.00 972.00 1147.00" xmlns="http://www.w3.org/2000/svg" xmlns:xlink="http://www.w3.org/1999/xlink">
<g id="graph0" class="graph" transform="scale(1 1) rotate(0) translate(4 1143)">
<title>oneDegreeRelationshipsDiagramImplied</title>
<polygon fill="#ffffff" stroke="transparent" points="-4,4 -4,-1143 968,-1143 968,4 -4,4"/>
<text text-anchor="middle" x="79.5" y="-7.2" font-family="Helvetica,sans-Serif" font-size="11.00">Generated by SchemaSpy</text>
<!-- edition_editor -->
<g id="node1" class="node">
<title>edition_editor</title>
<g id="a_node1"><a xlink:href="../../tables/edition_editor.html" xlink:title="edition_editor" target="_top">
<polygon fill="#ffffff" stroke="transparent" points="467.5,-1011 467.5,-1135 603.5,-1135 603.5,-1011 467.5,-1011"/>
<polygon fill="#f5f5f5" stroke="transparent" points="467.5,-1113 467.5,-1135 603.5,-1135 603.5,-1113 467.5,-1113"/>
<polygon fill="none" stroke="black" points="467.5,-1113 467.5,-1135 603.5,-1135 603.5,-1113 467.5,-1113"/>
<text text-anchor="start" x="472.5" y="-1122.2" font-family="Helvetica,sans-Serif" font-weight="bold" font-size="11.00">edition_editor</text>
<text text-anchor="start" x="561.5" y="-1121.2" font-family="Helvetica,sans-Serif" font-size="11.00">[table]</text>
<polygon fill="none" stroke="black" points="467.5,-1091 467.5,-1113 603.5,-1113 603.5,-1091 467.5,-1091"/>
<image xlink:href="../../images/primaryKeys.png" width="11px" height="12px" preserveAspectRatio="xMinYMin meet" x="472.5" y="-1108"/>
<text text-anchor="start" x="489.5" y="-1099.2" font-family="Helvetica,sans-Serif" font-size="11.00">edition_editor_id</text>
<polygon fill="#ffffff" stroke="transparent" points="467.5,-1069 467.5,-1091 603.5,-1091 603.5,-1069 467.5,-1069"/>
<polygon fill="none" stroke="black" points="467.5,-1069 467.5,-1091 603.5,-1091 603.5,-1069 467.5,-1069"/>
<image xlink:href="../../images/foreignKeys.png" width="11px" height="12px" preserveAspectRatio="xMinYMin meet" x="472.5" y="-1086"/>
<text text-anchor="start" x="489.5" y="-1077.2" font-family="Helvetica,sans-Serif" font-size="11.00">user_id</text>
<polygon fill="#ffffff" stroke="transparent" points="467.5,-1047 467.5,-1069 603.5,-1069 603.5,-1047 467.5,-1047"/>
<polygon fill="none" stroke="black" points="467.5,-1047 467.5,-1069 603.5,-1069 603.5,-1047 467.5,-1047"/>
<image xlink:href="../../images/foreignKeys.png" width="11px" height="12px" preserveAspectRatio="xMinYMin meet" x="472.5" y="-1064"/>
<text text-anchor="start" x="489.5" y="-1055.2" font-family="Helvetica,sans-Serif" font-size="11.00">edition_id</text>
<polygon fill="none" stroke="black" points="467.5,-1029 467.5,-1047 603.5,-1047 603.5,-1029 467.5,-1029"/>
<text text-anchor="start" x="470.5" y="-1035.2" font-family="Helvetica,sans-Serif" font-size="11.00">...</text>
<polygon fill="#ffffff" stroke="transparent" points="467.5,-1011 467.5,-1029 498.5,-1029 498.5,-1011 467.5,-1011"/>
<polygon fill="none" stroke="black" points="467.5,-1011 467.5,-1029 498.5,-1029 498.5,-1011 467.5,-1011"/>
<text text-anchor="start" x="470.5" y="-1017.2" font-family="Helvetica,sans-Serif" font-size="11.00">&lt; 2</text>
<polygon fill="#ffffff" stroke="transparent" points="498.5,-1011 498.5,-1029 567.5,-1029 567.5,-1011 498.5,-1011"/>
<polygon fill="none" stroke="black" points="498.5,-1011 498.5,-1029 567.5,-1029 567.5,-1011 498.5,-1011"/>
<text text-anchor="start" x="503.5" y="-1017.2" font-family="Helvetica,sans-Serif" font-size="11.00">1,645 rows</text>
<polygon fill="#ffffff" stroke="transparent" points="567.5,-1011 567.5,-1029 603.5,-1029 603.5,-1011 567.5,-1011"/>
<polygon fill="none" stroke="black" points="567.5,-1011 567.5,-1029 603.5,-1029 603.5,-1011 567.5,-1011"/>
<text text-anchor="start" x="573.5" y="-1017.2" font-family="Helvetica,sans-Serif" font-size="11.00">33 &gt;</text>
</a>
</g>
</g>
<!-- user -->
<g id="node2" class="node">
<title>user</title>
<g id="a_node2"><a xlink:href="../../tables/user.html" xlink:title="user" target="_top">
<polygon fill="#ffffff" stroke="transparent" points="8,-380 8,-644 304,-644 304,-380 8,-380"/>
<polygon fill="#f5f5f5" stroke="transparent" points="10,-620 10,-642 302,-642 302,-620 10,-620"/>
<polygon fill="none" stroke="black" points="10,-620 10,-642 302,-642 302,-620 10,-620"/>
<text text-anchor="start" x="15" y="-629.2" font-family="Helvetica,sans-Serif" font-weight="bold" font-size="11.00">user</text>
<text text-anchor="start" x="260" y="-628.2" font-family="Helvetica,sans-Serif" font-size="11.00">[table]</text>
<polygon fill="none" stroke="black" points="10,-598 10,-620 173,-620 173,-598 10,-598"/>
<image xlink:href="../../images/primaryKeys.png" width="11px" height="12px" preserveAspectRatio="xMinYMin meet" x="15" y="-615"/>
<text text-anchor="start" x="30" y="-606.2" font-family="Helvetica,sans-Serif" font-size="11.00">user_id</text>
<polygon fill="none" stroke="black" points="173,-598 173,-620 302,-620 302,-598 173,-598"/>
<text text-anchor="start" x="176" y="-606.2" font-family="Helvetica,sans-Serif" font-size="11.00">int unsigned[10]</text>
<polygon fill="#ffffff" stroke="transparent" points="10,-576 10,-598 173,-598 173,-576 10,-576"/>
<polygon fill="none" stroke="black" points="10,-576 10,-598 173,-598 173,-576 10,-576"/>
<text text-anchor="start" x="30" y="-584.2" font-family="Helvetica,sans-Serif" font-size="11.00">email</text>
<polygon fill="none" stroke="black" points="173,-576 173,-598 302,-598 302,-576 173,-576"/>
<text text-anchor="start" x="176" y="-584.2" font-family="Helvetica,sans-Serif" font-size="11.00">varchar[255]</text>
<polygon fill="none" stroke="black" points="10,-554 10,-576 173,-576 173,-554 10,-554"/>
<text text-anchor="start" x="30" y="-562.2" font-family="Helvetica,sans-Serif" font-size="11.00">pw</text>
<polygon fill="none" stroke="black" points="173,-554 173,-576 302,-576 302,-554 173,-554"/>
<text text-anchor="start" x="176" y="-562.2" font-family="Helvetica,sans-Serif" font-size="11.00">char[56]</text>
<polygon fill="none" stroke="black" points="10,-532 10,-554 173,-554 173,-532 10,-532"/>
<text text-anchor="start" x="30" y="-540.2" font-family="Helvetica,sans-Serif" font-size="11.00">forename</text>
<polygon fill="none" stroke="black" points="173,-532 173,-554 302,-554 302,-532 173,-532"/>
<text text-anchor="start" x="176" y="-540.2" font-family="Helvetica,sans-Serif" font-size="11.00">varchar[255]</text>
<polygon fill="none" stroke="black" points="10,-510 10,-532 173,-532 173,-510 10,-510"/>
<text text-anchor="start" x="30" y="-518.2" font-family="Helvetica,sans-Serif" font-size="11.00">surname</text>
<polygon fill="none" stroke="black" points="173,-510 173,-532 302,-532 302,-510 173,-510"/>
<text text-anchor="start" x="176" y="-518.2" font-family="Helvetica,sans-Serif" font-size="11.00">varchar[255]</text>
<polygon fill="none" stroke="black" points="10,-488 10,-510 173,-510 173,-488 10,-488"/>
<text text-anchor="start" x="30" y="-496.2" font-family="Helvetica,sans-Serif" font-size="11.00">organization</text>
<polygon fill="none" stroke="black" points="173,-488 173,-510 302,-510 302,-488 173,-488"/>
<text text-anchor="start" x="176" y="-496.2" font-family="Helvetica,sans-Serif" font-size="11.00">varchar[255]</text>
<polygon fill="none" stroke="black" points="10,-466 10,-488 173,-488 173,-466 10,-466"/>
<text text-anchor="start" x="30" y="-474.2" font-family="Helvetica,sans-Serif" font-size="11.00">registration_date</text>
<polygon fill="none" stroke="black" points="173,-466 173,-488 302,-488 302,-466 173,-466"/>
<text text-anchor="start" x="176" y="-474.2" font-family="Helvetica,sans-Serif" font-size="11.00">timestamp[19]</text>
<polygon fill="none" stroke="black" points="10,-444 10,-466 173,-466 173,-444 10,-444"/>
<text text-anchor="start" x="30" y="-452.2" font-family="Helvetica,sans-Serif" font-size="11.00">settings</text>
<polygon fill="none" stroke="black" points="173,-444 173,-466 302,-466 302,-444 173,-444"/>
<text text-anchor="start" x="176" y="-452.2" font-family="Helvetica,sans-Serif" font-size="11.00">longtext[2147483647]</text>
<polygon fill="none" stroke="black" points="10,-422 10,-444 173,-444 173,-422 10,-422"/>
<text text-anchor="start" x="30" y="-430.2" font-family="Helvetica,sans-Serif" font-size="11.00">last_scroll_version_id</text>
<polygon fill="none" stroke="black" points="173,-422 173,-444 302,-444 302,-422 173,-422"/>
<text text-anchor="start" x="176" y="-430.2" font-family="Helvetica,sans-Serif" font-size="11.00">int unsigned[10]</text>
<polygon fill="none" stroke="black" points="10,-400 10,-422 173,-422 173,-400 10,-400"/>
<text text-anchor="start" x="30" y="-408.2" font-family="Helvetica,sans-Serif" font-size="11.00">activated</text>
<polygon fill="none" stroke="black" points="173,-400 173,-422 302,-422 302,-400 173,-400"/>
<text text-anchor="start" x="176" y="-408.2" font-family="Helvetica,sans-Serif" font-size="11.00">tinyint unsigned[3]</text>
<polygon fill="#ffffff" stroke="transparent" points="10,-382 10,-400 83,-400 83,-382 10,-382"/>
<polygon fill="none" stroke="black" points="10,-382 10,-400 83,-400 83,-382 10,-382"/>
<text text-anchor="start" x="13" y="-388.2" font-family="Helvetica,sans-Serif" font-size="11.00">&lt; 0</text>
<polygon fill="#ffffff" stroke="transparent" points="83,-382 83,-400 173,-400 173,-382 83,-382"/>
<polygon fill="none" stroke="black" points="83,-382 83,-400 173,-400 173,-382 83,-382"/>
<text text-anchor="start" x="133" y="-388.2" font-family="Helvetica,sans-Serif" font-size="11.00">0 rows</text>
<polygon fill="#ffffff" stroke="transparent" points="173,-382 173,-400 302,-400 302,-382 173,-382"/>
<polygon fill="none" stroke="black" points="173,-382 173,-400 302,-400 302,-382 173,-382"/>
<text text-anchor="start" x="272" y="-388.2" font-family="Helvetica,sans-Serif" font-size="11.00">11 &gt;</text>
<polygon fill="none" stroke="black" stroke-width="2" points="9,-381 9,-643 303,-643 303,-381 9,-381"/>
</a>
</g>
</g>
<!-- edition_editor&#45;&gt;user -->
<g id="edge1" class="edge">
<title>edition_editor:w&#45;&gt;user:e</title>
<path fill="none" stroke="black" d="M451.79,-1079.53C398.28,-1075.94 376,-1051.5 345,-1001 299.17,-926.33 390.61,-609 303,-609"/>
<polygon fill="black" stroke="black" points="458.5,-1079.75 466.39,-1083.6 462.5,-1079.87 466.5,-1080 466.5,-1080 466.5,-1080 462.5,-1079.87 466.61,-1076.4 458.5,-1079.75 458.5,-1079.75"/>
<ellipse fill="none" stroke="black" cx="455.31" cy="-1079.64" rx="3.2" ry="3.2"/>
</g>
<!-- edition_editor_request -->
<g id="node3" class="node">
<title>edition_editor_request</title>
<g id="a_node3"><a xlink:href="../../tables/edition_editor_request.html" xlink:title="edition_editor_request" target="_top">
<polygon fill="#ffffff" stroke="transparent" points="767,-751 767,-897 956,-897 956,-751 767,-751"/>
<polygon fill="#f5f5f5" stroke="transparent" points="767.5,-875 767.5,-897 956.5,-897 956.5,-875 767.5,-875"/>
<polygon fill="none" stroke="black" points="767.5,-875 767.5,-897 956.5,-897 956.5,-875 767.5,-875"/>
<text text-anchor="start" x="772.5" y="-884.2" font-family="Helvetica,sans-Serif" font-weight="bold" font-size="11.00">edition_editor_request</text>
<text text-anchor="start" x="914.5" y="-883.2" font-family="Helvetica,sans-Serif" font-size="11.00">[table]</text>
<polygon fill="#ffffff" stroke="transparent" points="767.5,-853 767.5,-875 956.5,-875 956.5,-853 767.5,-853"/>
<polygon fill="none" stroke="black" points="767.5,-853 767.5,-875 956.5,-875 956.5,-853 767.5,-853"/>
<image xlink:href="../../images/foreignKeys.png" width="11px" height="12px" preserveAspectRatio="xMinYMin meet" x="772.5" y="-870"/>
<text text-anchor="start" x="795.5" y="-861.2" font-family="Helvetica,sans-Serif" font-size="11.00">token</text>
<polygon fill="#ffffff" stroke="transparent" points="767.5,-831 767.5,-853 956.5,-853 956.5,-831 767.5,-831"/>
<polygon fill="none" stroke="black" points="767.5,-831 767.5,-853 956.5,-853 956.5,-831 767.5,-831"/>
<image xlink:href="../../images/foreignKeys.png" width="11px" height="12px" preserveAspectRatio="xMinYMin meet" x="772.5" y="-848"/>
<text text-anchor="start" x="795.5" y="-839.2" font-family="Helvetica,sans-Serif" font-size="11.00">admin_user_id</text>
<polygon fill="none" stroke="black" points="767.5,-809 767.5,-831 956.5,-831 956.5,-809 767.5,-809"/>
<image xlink:href="../../images/primaryKeys.png" width="11px" height="12px" preserveAspectRatio="xMinYMin meet" x="772.5" y="-826"/>
<text text-anchor="start" x="795.5" y="-817.2" font-family="Helvetica,sans-Serif" font-size="11.00">editor_user_id</text>
<polygon fill="none" stroke="black" points="767.5,-787 767.5,-809 956.5,-809 956.5,-787 767.5,-787"/>
<image xlink:href="../../images/primaryKeys.png" width="11px" height="12px" preserveAspectRatio="xMinYMin meet" x="772.5" y="-804"/>
<text text-anchor="start" x="795.5" y="-795.2" font-family="Helvetica,sans-Serif" font-size="11.00">edition_id</text>
<polygon fill="none" stroke="black" points="767.5,-769 767.5,-787 956.5,-787 956.5,-769 767.5,-769"/>
<text text-anchor="start" x="770.5" y="-775.2" font-family="Helvetica,sans-Serif" font-size="11.00">...</text>
<polygon fill="#ffffff" stroke="transparent" points="767.5,-751 767.5,-769 846.5,-769 846.5,-751 767.5,-751"/>
<polygon fill="none" stroke="black" points="767.5,-751 767.5,-769 846.5,-769 846.5,-751 767.5,-751"/>
<text text-anchor="start" x="770.5" y="-757.2" font-family="Helvetica,sans-Serif" font-size="11.00">&lt; 4</text>
<polygon fill="#ffffff" stroke="transparent" points="846.5,-751 846.5,-769 915.5,-769 915.5,-751 846.5,-751"/>
<polygon fill="none" stroke="black" points="846.5,-751 846.5,-769 915.5,-769 915.5,-751 846.5,-751"/>
<text text-anchor="start" x="875.5" y="-757.2" font-family="Helvetica,sans-Serif" font-size="11.00">0 rows</text>
<polygon fill="#ffffff" stroke="transparent" points="915.5,-751 915.5,-769 956.5,-769 956.5,-751 915.5,-751"/>
<polygon fill="none" stroke="black" points="915.5,-751 915.5,-769 956.5,-769 956.5,-751 915.5,-751"/>
<text text-anchor="start" x="945.5" y="-757.2" font-family="Helvetica,sans-Serif" font-size="11.00"> &#160;</text>
</a>
</g>
</g>
<!-- edition_editor_request&#45;&gt;user -->
<g id="edge2" class="edge">
<title>edition_editor_request:w&#45;&gt;user:e</title>
<path fill="none" stroke="black" d="M751.99,-842.19C672.21,-843.73 377.99,-853.33 345,-825 270.8,-761.29 400.8,-609 303,-609"/>
<polygon fill="black" stroke="black" points="758.5,-842.1 766.55,-845.6 762.5,-842.05 766.5,-842 766.5,-842 766.5,-842 762.5,-842.05 766.45,-838.4 758.5,-842.1 758.5,-842.1"/>
<ellipse fill="none" stroke="black" cx="755.3" cy="-842.15" rx="3.2" ry="3.2"/>
</g>
<!-- edition_editor_request&#45;&gt;user -->
<g id="edge3" class="edge">
<title>edition_editor_request:w&#45;&gt;user:e</title>
<path fill="none" stroke="black" d="M751.99,-820.17C672.24,-821.54 378.27,-830 345,-802 277.84,-745.47 390.79,-609 303,-609"/>
<polygon fill="black" stroke="black" points="758.5,-820.09 766.54,-823.6 762.5,-820.05 766.5,-820 766.5,-820 766.5,-820 762.5,-820.05 766.46,-816.4 758.5,-820.09 758.5,-820.09"/>
<ellipse fill="none" stroke="black" cx="755.3" cy="-820.13" rx="3.2" ry="3.2"/>
</g>
<!-- user_email_token -->
<g id="node4" class="node">
<title>user_email_token</title>
<g id="a_node4"><a xlink:href="../../tables/user_email_token.html" xlink:title="user_email_token" target="_top">
<polygon fill="#ffffff" stroke="transparent" points="457,-866 457,-990 614,-990 614,-866 457,-866"/>
<polygon fill="#f5f5f5" stroke="transparent" points="457.5,-968 457.5,-990 614.5,-990 614.5,-968 457.5,-968"/>
<polygon fill="none" stroke="black" points="457.5,-968 457.5,-990 614.5,-990 614.5,-968 457.5,-968"/>
<text text-anchor="start" x="462.5" y="-977.2" font-family="Helvetica,sans-Serif" font-weight="bold" font-size="11.00">user_email_token</text>
<text text-anchor="start" x="572.5" y="-976.2" font-family="Helvetica,sans-Serif" font-size="11.00">[table]</text>
<polygon fill="#ffffff" stroke="transparent" points="457.5,-946 457.5,-968 614.5,-968 614.5,-946 457.5,-946"/>
<polygon fill="none" stroke="black" points="457.5,-946 457.5,-968 614.5,-968 614.5,-946 457.5,-946"/>
<image xlink:href="../../images/foreignKeys.png" width="11px" height="12px" preserveAspectRatio="xMinYMin meet" x="462.5" y="-963"/>
<text text-anchor="start" x="487.5" y="-954.2" font-family="Helvetica,sans-Serif" font-size="11.00">user_id</text>
<polygon fill="none" stroke="black" points="457.5,-924 457.5,-946 614.5,-946 614.5,-924 457.5,-924"/>
<image xlink:href="../../images/primaryKeys.png" width="11px" height="12px" preserveAspectRatio="xMinYMin meet" x="462.5" y="-941"/>
<text text-anchor="start" x="487.5" y="-932.2" font-family="Helvetica,sans-Serif" font-size="11.00">token</text>
<polygon fill="#ffffff" stroke="transparent" points="457.5,-902 457.5,-924 614.5,-924 614.5,-902 457.5,-902"/>
<polygon fill="none" stroke="black" points="457.5,-902 457.5,-924 614.5,-924 614.5,-902 457.5,-902"/>
<text text-anchor="start" x="487.5" y="-910.2" font-family="Helvetica,sans-Serif" font-size="11.00">date_created</text>
<polygon fill="none" stroke="black" points="457.5,-884 457.5,-902 614.5,-902 614.5,-884 457.5,-884"/>
<text text-anchor="start" x="460.5" y="-890.2" font-family="Helvetica,sans-Serif" font-size="11.00">...</text>
<polygon fill="#ffffff" stroke="transparent" points="457.5,-866 457.5,-884 514.5,-884 514.5,-866 457.5,-866"/>
<polygon fill="none" stroke="black" points="457.5,-866 457.5,-884 514.5,-884 514.5,-866 457.5,-866"/>
<text text-anchor="start" x="460.5" y="-872.2" font-family="Helvetica,sans-Serif" font-size="11.00">&lt; 1</text>
<polygon fill="#ffffff" stroke="transparent" points="514.5,-866 514.5,-884 572.5,-884 572.5,-866 514.5,-866"/>
<polygon fill="none" stroke="black" points="514.5,-866 514.5,-884 572.5,-884 572.5,-866 514.5,-866"/>
<text text-anchor="start" x="532.5" y="-872.2" font-family="Helvetica,sans-Serif" font-size="11.00">0 rows</text>
<polygon fill="#ffffff" stroke="transparent" points="572.5,-866 572.5,-884 614.5,-884 614.5,-866 572.5,-866"/>
<polygon fill="none" stroke="black" points="572.5,-866 572.5,-884 614.5,-884 614.5,-866 572.5,-866"/>
<text text-anchor="start" x="591.5" y="-872.2" font-family="Helvetica,sans-Serif" font-size="11.00">1 &gt;</text>
</a>
</g>
</g>
<!-- edition_editor_request&#45;&gt;user_email_token -->
<g id="edge4" class="edge">
<title>edition_editor_request:w&#45;&gt;user_email_token:e</title>
<path fill="none" stroke="black" d="M751.87,-865C691.61,-873.63 684.45,-935 615.5,-935"/>
<polygon fill="black" stroke="black" points="758.52,-864.55 766.75,-867.59 762.51,-864.27 766.5,-864 766.5,-864 766.5,-864 762.51,-864.27 766.25,-860.41 758.52,-864.55 758.52,-864.55"/>
<ellipse fill="none" stroke="black" cx="755.33" cy="-864.77" rx="3.2" ry="3.2"/>
</g>
<!-- user_email_token&#45;&gt;user -->
<g id="edge12" class="edge">
<title>user_email_token:w&#45;&gt;user:e</title>
<path fill="none" stroke="black" d="M441.9,-956.23C386.6,-950.05 374.78,-907.39 345,-852 319.05,-803.73 357.8,-609 303,-609"/>
<polygon fill="black" stroke="black" points="448.51,-956.58 456.31,-960.59 452.51,-956.79 456.5,-957 456.5,-957 456.5,-957 452.51,-956.79 456.69,-953.41 448.51,-956.58 448.51,-956.58"/>
<ellipse fill="none" stroke="black" cx="445.32" cy="-956.41" rx="3.2" ry="3.2"/>
</g>
<!-- iaa_edition_catalog_author -->
<g id="node5" class="node">
<title>iaa_edition_catalog_author</title>
<g id="a_node5"><a xlink:href="../../tables/iaa_edition_catalog_author.html" xlink:title="iaa_edition_catalog_author" target="_top">
<polygon fill="#ffffff" stroke="transparent" points="428,-707 428,-791 643,-791 643,-707 428,-707"/>
<polygon fill="#f5f5f5" stroke="transparent" points="428.5,-769 428.5,-791 643.5,-791 643.5,-769 428.5,-769"/>
<polygon fill="none" stroke="black" points="428.5,-769 428.5,-791 643.5,-791 643.5,-769 428.5,-769"/>
<text text-anchor="start" x="433.5" y="-778.2" font-family="Helvetica,sans-Serif" font-weight="bold" font-size="11.00">iaa_edition_catalog_author</text>
<text text-anchor="start" x="601.5" y="-777.2" font-family="Helvetica,sans-Serif" font-size="11.00">[table]</text>
<polygon fill="none" stroke="black" points="428.5,-747 428.5,-769 643.5,-769 643.5,-747 428.5,-747"/>
<image xlink:href="../../images/primaryKeys.png" width="11px" height="12px" preserveAspectRatio="xMinYMin meet" x="433.5" y="-764"/>
<text text-anchor="start" x="455.5" y="-755.2" font-family="Helvetica,sans-Serif" font-size="11.00">iaa_edition_catalog_id</text>
<polygon fill="#ffffff" stroke="transparent" points="428.5,-725 428.5,-747 643.5,-747 643.5,-725 428.5,-725"/>
<polygon fill="none" stroke="black" points="428.5,-725 428.5,-747 643.5,-747 643.5,-725 428.5,-725"/>
<image xlink:href="../../images/foreignKeys.png" width="11px" height="12px" preserveAspectRatio="xMinYMin meet" x="433.5" y="-742"/>
<text text-anchor="start" x="455.5" y="-733.2" font-family="Helvetica,sans-Serif" font-size="11.00">user_id</text>
<polygon fill="#ffffff" stroke="transparent" points="428.5,-707 428.5,-725 504.5,-725 504.5,-707 428.5,-707"/>
<polygon fill="none" stroke="black" points="428.5,-707 428.5,-725 504.5,-725 504.5,-707 428.5,-707"/>
<text text-anchor="start" x="431.5" y="-713.2" font-family="Helvetica,sans-Serif" font-size="11.00">&lt; 2</text>
<polygon fill="#ffffff" stroke="transparent" points="504.5,-707 504.5,-725 603.5,-725 603.5,-707 504.5,-707"/>
<polygon fill="none" stroke="black" points="504.5,-707 504.5,-725 603.5,-725 603.5,-707 504.5,-707"/>
<text text-anchor="start" x="532.5" y="-713.2" font-family="Helvetica,sans-Serif" font-size="11.00">39,537 rows</text>
<polygon fill="#ffffff" stroke="transparent" points="603.5,-707 603.5,-725 643.5,-725 643.5,-707 603.5,-707"/>
<polygon fill="none" stroke="black" points="603.5,-707 603.5,-725 643.5,-725 643.5,-707 603.5,-707"/>
<text text-anchor="start" x="632.5" y="-713.2" font-family="Helvetica,sans-Serif" font-size="11.00"> &#160;</text>
</a>
</g>
</g>
<!-- iaa_edition_catalog_author&#45;&gt;user -->
<g id="edge5" class="edge">
<title>iaa_edition_catalog_author:w&#45;&gt;user:e</title>
<path fill="none" stroke="black" d="M413.09,-735.47C383.28,-733.02 370.03,-721.94 345,-697 314.3,-666.41 346.34,-609 303,-609"/>
<polygon fill="black" stroke="black" points="419.51,-735.7 427.37,-739.6 423.5,-735.85 427.5,-736 427.5,-736 427.5,-736 423.5,-735.85 427.63,-732.4 419.51,-735.7 419.51,-735.7"/>
<ellipse fill="none" stroke="black" cx="416.31" cy="-735.59" rx="3.2" ry="3.2"/>
</g>
<!-- iaa_edition_catalog_to_text_fragment_confirmation -->
<g id="node6" class="node">
<title>iaa_edition_catalog_to_text_fragment_confirmation</title>
<g id="a_node6"><a xlink:href="../../tables/iaa_edition_catalog_to_text_fragment_confirmation.html" xlink:title="iaa_edition_catalog_to_text_fragment_confirmation" target="_top">
<polygon fill="#ffffff" stroke="transparent" points="353,-558 353,-686 718,-686 718,-558 353,-558"/>
<polygon fill="#f5f5f5" stroke="transparent" points="353.5,-664 353.5,-686 718.5,-686 718.5,-664 353.5,-664"/>
<polygon fill="none" stroke="black" points="353.5,-664 353.5,-686 718.5,-686 718.5,-664 353.5,-664"/>
<text text-anchor="start" x="358.5" y="-673.2" font-family="Helvetica,sans-Serif" font-weight="bold" font-size="11.00">iaa_edition_catalog_to_text_fragment_confirmation</text>
<text text-anchor="start" x="676.5" y="-672.2" font-family="Helvetica,sans-Serif" font-size="11.00">[table]</text>
<polygon fill="#ffffff" stroke="transparent" points="353.5,-642 353.5,-664 718.5,-664 718.5,-642 353.5,-642"/>
<polygon fill="none" stroke="black" points="353.5,-642 353.5,-664 718.5,-664 718.5,-642 353.5,-642"/>
<image xlink:href="../../images/foreignKeys.png" width="11px" height="12px" preserveAspectRatio="xMinYMin meet" x="358.5" y="-659"/>
<text text-anchor="start" x="373.5" y="-650.2" font-family="Helvetica,sans-Serif" font-size="11.00">iaa_edition_catalog_to_text_fragment_id</text>
<polygon fill="#ffffff" stroke="transparent" points="353.5,-620 353.5,-642 718.5,-642 718.5,-620 353.5,-620"/>
<polygon fill="none" stroke="black" points="353.5,-620 353.5,-642 718.5,-642 718.5,-620 353.5,-620"/>
<text text-anchor="start" x="373.5" y="-628.2" font-family="Helvetica,sans-Serif" font-size="11.00">confirmed</text>
<polygon fill="#ffffff" stroke="transparent" points="353.5,-598 353.5,-620 718.5,-620 718.5,-598 353.5,-598"/>
<polygon fill="none" stroke="black" points="353.5,-598 353.5,-620 718.5,-620 718.5,-598 353.5,-598"/>
<image xlink:href="../../images/foreignKeys.png" width="11px" height="12px" preserveAspectRatio="xMinYMin meet" x="358.5" y="-615"/>
<text text-anchor="start" x="373.5" y="-606.2" font-family="Helvetica,sans-Serif" font-size="11.00">user_id</text>
<polygon fill="#ffffff" stroke="transparent" points="353.5,-576 353.5,-598 718.5,-598 718.5,-576 353.5,-576"/>
<polygon fill="none" stroke="black" points="353.5,-576 353.5,-598 718.5,-598 718.5,-576 353.5,-576"/>
<text text-anchor="start" x="373.5" y="-584.2" font-family="Helvetica,sans-Serif" font-size="11.00">time</text>
<polygon fill="#ffffff" stroke="transparent" points="353.5,-558 353.5,-576 504.5,-576 504.5,-558 353.5,-558"/>
<polygon fill="none" stroke="black" points="353.5,-558 353.5,-576 504.5,-576 504.5,-558 353.5,-558"/>
<text text-anchor="start" x="356.5" y="-564.2" font-family="Helvetica,sans-Serif" font-size="11.00">&lt; 2</text>
<polygon fill="#ffffff" stroke="transparent" points="504.5,-558 504.5,-576 641.5,-576 641.5,-558 504.5,-558"/>
<polygon fill="none" stroke="black" points="504.5,-558 504.5,-576 641.5,-576 641.5,-558 504.5,-558"/>
<text text-anchor="start" x="570.5" y="-564.2" font-family="Helvetica,sans-Serif" font-size="11.00">15,403 rows</text>
<polygon fill="#ffffff" stroke="transparent" points="641.5,-558 641.5,-576 718.5,-576 718.5,-558 641.5,-558"/>
<polygon fill="none" stroke="black" points="641.5,-558 641.5,-576 718.5,-576 718.5,-558 641.5,-558"/>
<text text-anchor="start" x="707.5" y="-564.2" font-family="Helvetica,sans-Serif" font-size="11.00"> &#160;</text>
</a>
</g>
</g>
<!-- iaa_edition_catalog_to_text_fragment_confirmation&#45;&gt;user -->
<g id="edge6" class="edge">
<title>iaa_edition_catalog_to_text_fragment_confirmation:w&#45;&gt;user:e</title>
<path fill="none" stroke="black" d="M337.84,-609C326.41,-609 319.16,-609 303,-609"/>
<polygon fill="black" stroke="black" points="344.5,-609 352.5,-612.6 348.5,-609 352.5,-609 352.5,-609 352.5,-609 348.5,-609 352.5,-605.4 344.5,-609 344.5,-609"/>
<ellipse fill="none" stroke="black" cx="341.3" cy="-609" rx="3.2" ry="3.2"/>
</g>
<!-- image_catalog_author -->
<g id="node7" class="node">
<title>image_catalog_author</title>
<g id="a_node7"><a xlink:href="../../tables/image_catalog_author.html" xlink:title="image_catalog_author" target="_top">
<polygon fill="#ffffff" stroke="transparent" points="442.5,-453 442.5,-537 628.5,-537 628.5,-453 442.5,-453"/>
<polygon fill="#f5f5f5" stroke="transparent" points="442.5,-515 442.5,-537 628.5,-537 628.5,-515 442.5,-515"/>
<polygon fill="none" stroke="black" points="442.5,-515 442.5,-537 628.5,-537 628.5,-515 442.5,-515"/>
<text text-anchor="start" x="447.5" y="-524.2" font-family="Helvetica,sans-Serif" font-weight="bold" font-size="11.00">image_catalog_author</text>
<text text-anchor="start" x="586.5" y="-523.2" font-family="Helvetica,sans-Serif" font-size="11.00">[table]</text>
<polygon fill="none" stroke="black" points="442.5,-493 442.5,-515 628.5,-515 628.5,-493 442.5,-493"/>
<image xlink:href="../../images/primaryKeys.png" width="11px" height="12px" preserveAspectRatio="xMinYMin meet" x="447.5" y="-510"/>
<text text-anchor="start" x="471.5" y="-501.2" font-family="Helvetica,sans-Serif" font-size="11.00">image_catalog_id</text>
<polygon fill="#ffffff" stroke="transparent" points="442.5,-471 442.5,-493 628.5,-493 628.5,-471 442.5,-471"/>
<polygon fill="none" stroke="black" points="442.5,-471 442.5,-493 628.5,-493 628.5,-471 442.5,-471"/>
<image xlink:href="../../images/foreignKeys.png" width="11px" height="12px" preserveAspectRatio="xMinYMin meet" x="447.5" y="-488"/>
<text text-anchor="start" x="471.5" y="-479.2" font-family="Helvetica,sans-Serif" font-size="11.00">user_id</text>
<polygon fill="#ffffff" stroke="transparent" points="442.5,-453 442.5,-471 504.5,-471 504.5,-453 442.5,-453"/>
<polygon fill="none" stroke="black" points="442.5,-453 442.5,-471 504.5,-471 504.5,-453 442.5,-453"/>
<text text-anchor="start" x="445.5" y="-459.2" font-family="Helvetica,sans-Serif" font-size="11.00">&lt; 2</text>
<polygon fill="#ffffff" stroke="transparent" points="504.5,-453 504.5,-471 596.5,-471 596.5,-453 504.5,-453"/>
<polygon fill="none" stroke="black" points="504.5,-453 504.5,-471 596.5,-471 596.5,-453 504.5,-453"/>
<text text-anchor="start" x="525.5" y="-459.2" font-family="Helvetica,sans-Serif" font-size="11.00">41,829 rows</text>
<polygon fill="#ffffff" stroke="transparent" points="596.5,-453 596.5,-471 628.5,-471 628.5,-453 596.5,-453"/>
<polygon fill="none" stroke="black" points="596.5,-453 596.5,-471 628.5,-471 628.5,-453 596.5,-453"/>
<text text-anchor="start" x="617.5" y="-459.2" font-family="Helvetica,sans-Serif" font-size="11.00"> &#160;</text>
</a>
</g>
</g>
<!-- image_catalog_author&#45;&gt;user -->
<g id="edge7" class="edge">
<title>image_catalog_author:w&#45;&gt;user:e</title>
<path fill="none" stroke="black" d="M426.96,-482.88C387.67,-488.03 378.06,-515.04 345,-548 321.69,-571.24 335.92,-609 303,-609"/>
<polygon fill="black" stroke="black" points="433.51,-482.49 441.72,-485.59 437.51,-482.24 441.5,-482 441.5,-482 441.5,-482 437.51,-482.24 441.28,-478.41 433.51,-482.49 433.51,-482.49"/>
<ellipse fill="none" stroke="black" cx="430.32" cy="-482.68" rx="3.2" ry="3.2"/>
</g>
<!-- image_to_image_map_author -->
<g id="node8" class="node">
<title>image_to_image_map_author</title>
<g id="a_node8"><a xlink:href="../../tables/image_to_image_map_author.html" xlink:title="image_to_image_map_author" target="_top">
<polygon fill="#ffffff" stroke="transparent" points="422,-348 422,-432 649,-432 649,-348 422,-348"/>
<polygon fill="#f5f5f5" stroke="transparent" points="422.5,-410 422.5,-432 649.5,-432 649.5,-410 422.5,-410"/>
<polygon fill="none" stroke="black" points="422.5,-410 422.5,-432 649.5,-432 649.5,-410 422.5,-410"/>
<text text-anchor="start" x="427.5" y="-419.2" font-family="Helvetica,sans-Serif" font-weight="bold" font-size="11.00">image_to_image_map_author</text>
<text text-anchor="start" x="607.5" y="-418.2" font-family="Helvetica,sans-Serif" font-size="11.00">[table]</text>
<polygon fill="none" stroke="black" points="422.5,-388 422.5,-410 649.5,-410 649.5,-388 422.5,-388"/>
<image xlink:href="../../images/primaryKeys.png" width="11px" height="12px" preserveAspectRatio="xMinYMin meet" x="427.5" y="-405"/>
<text text-anchor="start" x="448.5" y="-396.2" font-family="Helvetica,sans-Serif" font-size="11.00">image_to_image_map_id</text>
<polygon fill="none" stroke="black" points="422.5,-366 422.5,-388 649.5,-388 649.5,-366 422.5,-366"/>
<image xlink:href="../../images/primaryKeys.png" width="11px" height="12px" preserveAspectRatio="xMinYMin meet" x="427.5" y="-383"/>
<text text-anchor="start" x="448.5" y="-374.2" font-family="Helvetica,sans-Serif" font-size="11.00">user_id</text>
<polygon fill="#ffffff" stroke="transparent" points="422.5,-348 422.5,-366 504.5,-366 504.5,-348 422.5,-348"/>
<polygon fill="none" stroke="black" points="422.5,-348 422.5,-366 504.5,-366 504.5,-348 422.5,-348"/>
<text text-anchor="start" x="425.5" y="-354.2" font-family="Helvetica,sans-Serif" font-size="11.00">&lt; 2</text>
<polygon fill="#ffffff" stroke="transparent" points="504.5,-348 504.5,-366 606.5,-366 606.5,-348 504.5,-348"/>
<polygon fill="none" stroke="black" points="504.5,-348 504.5,-366 606.5,-366 606.5,-348 504.5,-348"/>
<text text-anchor="start" x="535.5" y="-354.2" font-family="Helvetica,sans-Serif" font-size="11.00">72,198 rows</text>
<polygon fill="#ffffff" stroke="transparent" points="606.5,-348 606.5,-366 649.5,-366 649.5,-348 606.5,-348"/>
<polygon fill="none" stroke="black" points="606.5,-348 606.5,-366 649.5,-366 649.5,-348 606.5,-348"/>
<text text-anchor="start" x="638.5" y="-354.2" font-family="Helvetica,sans-Serif" font-size="11.00"> &#160;</text>
</a>
</g>
</g>
<!-- image_to_image_map_author&#45;&gt;user -->
<g id="edge8" class="edge">
<title>image_to_image_map_author:w&#45;&gt;user:e</title>
<path fill="none" stroke="black" d="M406.72,-378.19C374.43,-383.88 365.74,-409.42 345,-443 305,-507.74 379.1,-609 303,-609"/>
<polygon fill="black" stroke="black" points="413.53,-377.64 421.79,-380.59 417.51,-377.32 421.5,-377 421.5,-377 421.5,-377 417.51,-377.32 421.21,-373.41 413.53,-377.64 413.53,-377.64"/>
<ellipse fill="none" stroke="black" cx="410.34" cy="-377.9" rx="3.2" ry="3.2"/>
</g>
<!-- recent_edition_catalog_to_col_confirmation -->
<g id="node9" class="node">
<title>recent_edition_catalog_to_col_confirmation</title>
<g id="a_node9"><a xlink:href="../../tables/recent_edition_catalog_to_col_confirmation.html" xlink:title="recent_edition_catalog_to_col_confirmation" target="_top">
<polygon fill="#ffffff" stroke="transparent" points="379,-265 379,-327 692,-327 692,-265 379,-265"/>
<polygon fill="#f5f5f5" stroke="transparent" points="379.5,-305 379.5,-327 692.5,-327 692.5,-305 379.5,-305"/>
<polygon fill="none" stroke="black" points="379.5,-305 379.5,-327 692.5,-327 692.5,-305 379.5,-305"/>
<text text-anchor="start" x="384.5" y="-314.2" font-family="Helvetica,sans-Serif" font-weight="bold" font-size="11.00">recent_edition_catalog_to_col_confirmation</text>
<text text-anchor="start" x="652.5" y="-313.2" font-family="Helvetica,sans-Serif" font-size="11.00">[view]</text>
<polygon fill="none" stroke="black" points="379.5,-283 379.5,-305 692.5,-305 692.5,-283 379.5,-283"/>
<image xlink:href="../../images/foreignKeys.png" width="11px" height="12px" preserveAspectRatio="xMinYMin meet" x="384.5" y="-300"/>
<text text-anchor="start" x="400.5" y="-291.2" font-family="Helvetica,sans-Serif" font-size="11.00">user_id</text>
<polygon fill="none" stroke="black" points="379.5,-265 379.5,-283 692.5,-283 692.5,-265 379.5,-265"/>
<text text-anchor="start" x="382.5" y="-271.2" font-family="Helvetica,sans-Serif" font-size="11.00">...</text>
</a>
</g>
</g>
<!-- recent_edition_catalog_to_col_confirmation&#45;&gt;user -->
<g id="edge9" class="edge">
<title>recent_edition_catalog_to_col_confirmation:w&#45;&gt;user:e</title>
<path fill="none" stroke="black" stroke-dasharray="5,2" d="M364.25,-297.69C353.63,-304.77 352.22,-321.04 345,-338 321.14,-394.08 363.94,-609 303,-609"/>
<polygon fill="black" stroke="black" points="370.76,-296.01 379.4,-297.48 374.63,-295 378.5,-294 378.5,-294 378.5,-294 374.63,-295 377.6,-290.52 370.76,-296.01 370.76,-296.01"/>
<ellipse fill="none" stroke="black" cx="367.66" cy="-296.81" rx="3.2" ry="3.2"/>
</g>
<!-- SQE_image_author -->
<g id="node10" class="node">
<title>SQE_image_author</title>
<g id="a_node10"><a xlink:href="../../tables/SQE_image_author.html" xlink:title="SQE_image_author" target="_top">
<polygon fill="#ffffff" stroke="transparent" points="453,-160 453,-244 618,-244 618,-160 453,-160"/>
<polygon fill="#f5f5f5" stroke="transparent" points="453.5,-222 453.5,-244 618.5,-244 618.5,-222 453.5,-222"/>
<polygon fill="none" stroke="black" points="453.5,-222 453.5,-244 618.5,-244 618.5,-222 453.5,-222"/>
<text text-anchor="start" x="458.5" y="-231.2" font-family="Helvetica,sans-Serif" font-weight="bold" font-size="11.00">SQE_image_author</text>
<text text-anchor="start" x="576.5" y="-230.2" font-family="Helvetica,sans-Serif" font-size="11.00">[table]</text>
<polygon fill="none" stroke="black" points="453.5,-200 453.5,-222 618.5,-222 618.5,-200 453.5,-200"/>
<image xlink:href="../../images/primaryKeys.png" width="11px" height="12px" preserveAspectRatio="xMinYMin meet" x="458.5" y="-217"/>
<text text-anchor="start" x="483.5" y="-208.2" font-family="Helvetica,sans-Serif" font-size="11.00">sqe_image_id</text>
<polygon fill="#ffffff" stroke="transparent" points="453.5,-178 453.5,-200 618.5,-200 618.5,-178 453.5,-178"/>
<polygon fill="none" stroke="black" points="453.5,-178 453.5,-200 618.5,-200 618.5,-178 453.5,-178"/>
<image xlink:href="../../images/foreignKeys.png" width="11px" height="12px" preserveAspectRatio="xMinYMin meet" x="458.5" y="-195"/>
<text text-anchor="start" x="483.5" y="-186.2" font-family="Helvetica,sans-Serif" font-size="11.00">user_id</text>
<polygon fill="#ffffff" stroke="transparent" points="453.5,-160 453.5,-178 504.5,-178 504.5,-160 453.5,-160"/>
<polygon fill="none" stroke="black" points="453.5,-160 453.5,-178 504.5,-178 504.5,-160 453.5,-160"/>
<text text-anchor="start" x="456.5" y="-166.2" font-family="Helvetica,sans-Serif" font-size="11.00">&lt; 2</text>
<polygon fill="#ffffff" stroke="transparent" points="504.5,-160 504.5,-178 591.5,-178 591.5,-160 504.5,-160"/>
<polygon fill="none" stroke="black" points="504.5,-160 504.5,-178 591.5,-178 591.5,-160 504.5,-160"/>
<text text-anchor="start" x="520.5" y="-166.2" font-family="Helvetica,sans-Serif" font-size="11.00">97,205 rows</text>
<polygon fill="#ffffff" stroke="transparent" points="591.5,-160 591.5,-178 618.5,-178 618.5,-160 591.5,-160"/>
<polygon fill="none" stroke="black" points="591.5,-160 591.5,-178 618.5,-178 618.5,-160 591.5,-160"/>
<text text-anchor="start" x="607.5" y="-166.2" font-family="Helvetica,sans-Serif" font-size="11.00"> &#160;</text>
</a>
</g>
</g>
<!-- SQE_image_author&#45;&gt;user -->
<g id="edge10" class="edge">
<title>SQE_image_author:w&#45;&gt;user:e</title>
<path fill="none" stroke="black" d="M437.91,-189.48C392.46,-192.69 372.44,-212.11 345,-255 302.31,-321.73 382.22,-609 303,-609"/>
<polygon fill="black" stroke="black" points="444.5,-189.26 452.62,-192.6 448.5,-189.13 452.5,-189 452.5,-189 452.5,-189 448.5,-189.13 452.38,-185.4 444.5,-189.26 444.5,-189.26"/>
<ellipse fill="none" stroke="black" cx="441.31" cy="-189.37" rx="3.2" ry="3.2"/>
</g>
<!-- user_contributions -->
<g id="node11" class="node">
<title>user_contributions</title>
<g id="a_node11"><a xlink:href="../../tables/user_contributions.html" xlink:title="user_contributions" target="_top">
<polygon fill="#ffffff" stroke="transparent" points="452.5,-37 452.5,-139 618.5,-139 618.5,-37 452.5,-37"/>
<polygon fill="#f5f5f5" stroke="transparent" points="452.5,-117 452.5,-139 618.5,-139 618.5,-117 452.5,-117"/>
<polygon fill="none" stroke="black" points="452.5,-117 452.5,-139 618.5,-139 618.5,-117 452.5,-117"/>
<text text-anchor="start" x="457.5" y="-126.2" font-family="Helvetica,sans-Serif" font-weight="bold" font-size="11.00">user_contributions</text>
<text text-anchor="start" x="576.5" y="-125.2" font-family="Helvetica,sans-Serif" font-size="11.00">[table]</text>
<polygon fill="none" stroke="black" points="452.5,-95 452.5,-117 618.5,-117 618.5,-95 452.5,-95"/>
<image xlink:href="../../images/primaryKeys.png" width="11px" height="12px" preserveAspectRatio="xMinYMin meet" x="457.5" y="-112"/>
<text text-anchor="start" x="482.5" y="-103.2" font-family="Helvetica,sans-Serif" font-size="11.00">contribution_id</text>
<polygon fill="#ffffff" stroke="transparent" points="452.5,-73 452.5,-95 618.5,-95 618.5,-73 452.5,-73"/>
<polygon fill="none" stroke="black" points="452.5,-73 452.5,-95 618.5,-95 618.5,-73 452.5,-73"/>
<image xlink:href="../../images/foreignKeys.png" width="11px" height="12px" preserveAspectRatio="xMinYMin meet" x="457.5" y="-90"/>
<text text-anchor="start" x="482.5" y="-81.2" font-family="Helvetica,sans-Serif" font-size="11.00">user_id</text>
<polygon fill="none" stroke="black" points="452.5,-55 452.5,-73 618.5,-73 618.5,-55 452.5,-55"/>
<text text-anchor="start" x="455.5" y="-61.2" font-family="Helvetica,sans-Serif" font-size="11.00">...</text>
<polygon fill="#ffffff" stroke="transparent" points="452.5,-37 452.5,-55 519.5,-55 519.5,-37 452.5,-37"/>
<polygon fill="none" stroke="black" points="452.5,-37 452.5,-55 519.5,-55 519.5,-37 452.5,-37"/>
<text text-anchor="start" x="455.5" y="-43.2" font-family="Helvetica,sans-Serif" font-size="11.00">&lt; 1</text>
<polygon fill="#ffffff" stroke="transparent" points="519.5,-37 519.5,-55 583.5,-55 583.5,-37 519.5,-37"/>
<polygon fill="none" stroke="black" points="519.5,-37 519.5,-55 583.5,-55 583.5,-37 519.5,-37"/>
<text text-anchor="start" x="543.5" y="-43.2" font-family="Helvetica,sans-Serif" font-size="11.00">0 rows</text>
<polygon fill="#ffffff" stroke="transparent" points="583.5,-37 583.5,-55 618.5,-55 618.5,-37 583.5,-37"/>
<polygon fill="none" stroke="black" points="583.5,-37 583.5,-55 618.5,-55 618.5,-37 583.5,-37"/>
<text text-anchor="start" x="607.5" y="-43.2" font-family="Helvetica,sans-Serif" font-size="11.00"> &#160;</text>
</a>
</g>
</g>
<!-- user_contributions&#45;&gt;user -->
<g id="edge11" class="edge">
<title>user_contributions:w&#45;&gt;user:e</title>
<path fill="none" stroke="black" d="M437,-84.48C391.8,-87.66 371.59,-106.98 345,-150 318.07,-193.56 354.21,-609 303,-609"/>
<polygon fill="black" stroke="black" points="443.5,-84.26 451.62,-87.6 447.5,-84.13 451.5,-84 451.5,-84 451.5,-84 447.5,-84.13 451.38,-80.4 443.5,-84.26 443.5,-84.26"/>
<ellipse fill="none" stroke="black" cx="440.31" cy="-84.37" rx="3.2" ry="3.2"/>
</g>
</g>
</svg>
