<?xml version="1.0" encoding="UTF-8" standalone="no"?>
<!DOCTYPE svg PUBLIC "-//W3C//DTD SVG 1.1//EN"
 "http://www.w3.org/Graphics/SVG/1.1/DTD/svg11.dtd">
<!-- Generated by graphviz version 2.43.0 (0)
 -->
<!-- Title: oneDegreeRelationshipsDiagram Pages: 1 -->
<svg width="562pt" height="550pt"
 viewBox="0.00 0.00 562.00 550.00" xmlns="http://www.w3.org/2000/svg" xmlns:xlink="http://www.w3.org/1999/xlink">
<g id="graph0" class="graph" transform="scale(1 1) rotate(0) translate(4 546)">
<title>oneDegreeRelationshipsDiagram</title>
<polygon fill="#ffffff" stroke="transparent" points="-4,4 -4,-546 558,-546 558,4 -4,4"/>
<text text-anchor="middle" x="79.5" y="-7.2" font-family="Helvetica,sans-Serif" font-size="11.00">Generated by SchemaSpy</text>
<!-- parallel_word -->
<g id="node1" class="node">
<title>parallel_word</title>
<g id="a_node1"><a xlink:href="../../tables/parallel_word.html" xlink:title="parallel_word" target="_top">
<polygon fill="#ffffff" stroke="transparent" points="357,-410 357,-538 493,-538 493,-410 357,-410"/>
<polygon fill="#f5f5f5" stroke="transparent" points="357,-516 357,-538 493,-538 493,-516 357,-516"/>
<polygon fill="none" stroke="black" points="357,-516 357,-538 493,-538 493,-516 357,-516"/>
<text text-anchor="start" x="362" y="-525.2" font-family="Helvetica,sans-Serif" font-weight="bold" font-size="11.00">parallel_word</text>
<text text-anchor="start" x="451" y="-524.2" font-family="Helvetica,sans-Serif" font-size="11.00">[table]</text>
<polygon fill="none" stroke="black" points="357,-494 357,-516 493,-516 493,-494 357,-494"/>
<image xlink:href="../../images/primaryKeys.png" width="11px" height="12px" preserveAspectRatio="xMinYMin meet" x="362" y="-511"/>
<text text-anchor="start" x="377" y="-502.2" font-family="Helvetica,sans-Serif" font-size="11.00">parallel_word_id</text>
<polygon fill="#ffffff" stroke="transparent" points="357,-472 357,-494 493,-494 493,-472 357,-472"/>
<polygon fill="none" stroke="black" points="357,-472 357,-494 493,-494 493,-472 357,-472"/>
<image xlink:href="../../images/foreignKeys.png" width="11px" height="12px" preserveAspectRatio="xMinYMin meet" x="362" y="-489"/>
<text text-anchor="start" x="377" y="-480.2" font-family="Helvetica,sans-Serif" font-size="11.00">word_id</text>
<polygon fill="#ffffff" stroke="transparent" points="357,-450 357,-472 493,-472 493,-450 357,-450"/>
<polygon fill="none" stroke="black" points="357,-450 357,-472 493,-472 493,-450 357,-450"/>
<image xlink:href="../../images/foreignKeys.png" width="11px" height="12px" preserveAspectRatio="xMinYMin meet" x="362" y="-467"/>
<text text-anchor="start" x="377" y="-458.2" font-family="Helvetica,sans-Serif" font-size="11.00">parallel_group_id</text>
<polygon fill="#ffffff" stroke="transparent" points="357,-428 357,-450 493,-450 493,-428 357,-428"/>
<polygon fill="none" stroke="black" points="357,-428 357,-450 493,-450 493,-428 357,-428"/>
<text text-anchor="start" x="377" y="-436.2" font-family="Helvetica,sans-Serif" font-size="11.00">sub_group</text>
<polygon fill="#ffffff" stroke="transparent" points="357,-410 357,-428 403,-428 403,-410 357,-410"/>
<polygon fill="none" stroke="black" points="357,-410 357,-428 403,-428 403,-410 357,-410"/>
<text text-anchor="start" x="360" y="-416.2" font-family="Helvetica,sans-Serif" font-size="11.00">&lt; 2</text>
<polygon fill="#ffffff" stroke="transparent" points="403,-410 403,-428 456,-428 456,-410 403,-410"/>
<polygon fill="none" stroke="black" points="403,-410 403,-428 456,-428 456,-410 403,-410"/>
<text text-anchor="start" x="416" y="-416.2" font-family="Helvetica,sans-Serif" font-size="11.00">0 rows</text>
<polygon fill="#ffffff" stroke="transparent" points="456,-410 456,-428 493,-428 493,-410 456,-410"/>
<polygon fill="none" stroke="black" points="456,-410 456,-428 493,-428 493,-410 456,-410"/>
<text text-anchor="start" x="470" y="-416.2" font-family="Helvetica,sans-Serif" font-size="11.00">1 &gt;</text>
</a>
</g>
</g>
<!-- word -->
<g id="node2" class="node">
<title>word</title>
<g id="a_node2"><a xlink:href="../../tables/word.html" xlink:title="word" target="_top">
<polygon fill="#ffffff" stroke="transparent" points="8,-208 8,-318 255,-318 255,-208 8,-208"/>
<polygon fill="#f5f5f5" stroke="transparent" points="10.5,-294 10.5,-316 253.5,-316 253.5,-294 10.5,-294"/>
<polygon fill="none" stroke="black" points="10.5,-294 10.5,-316 253.5,-316 253.5,-294 10.5,-294"/>
<text text-anchor="start" x="15.5" y="-303.2" font-family="Helvetica,sans-Serif" font-weight="bold" font-size="11.00">word</text>
<text text-anchor="start" x="211.5" y="-302.2" font-family="Helvetica,sans-Serif" font-size="11.00">[table]</text>
<polygon fill="none" stroke="black" points="10.5,-272 10.5,-294 117.5,-294 117.5,-272 10.5,-272"/>
<image xlink:href="../../images/primaryKeys.png" width="11px" height="12px" preserveAspectRatio="xMinYMin meet" x="15.5" y="-289"/>
<text text-anchor="start" x="30.5" y="-280.2" font-family="Helvetica,sans-Serif" font-size="11.00">word_id</text>
<polygon fill="none" stroke="black" points="117.5,-272 117.5,-294 253.5,-294 253.5,-272 117.5,-272"/>
<text text-anchor="start" x="120.5" y="-280.2" font-family="Helvetica,sans-Serif" font-size="11.00">int unsigned[10]</text>
<polygon fill="#ffffff" stroke="transparent" points="10.5,-250 10.5,-272 117.5,-272 117.5,-250 10.5,-250"/>
<polygon fill="none" stroke="black" points="10.5,-250 10.5,-272 117.5,-272 117.5,-250 10.5,-250"/>
<text text-anchor="start" x="30.5" y="-258.2" font-family="Helvetica,sans-Serif" font-size="11.00">qwb_word_id</text>
<polygon fill="none" stroke="black" points="117.5,-250 117.5,-272 253.5,-272 253.5,-250 117.5,-250"/>
<text text-anchor="start" x="120.5" y="-258.2" font-family="Helvetica,sans-Serif" font-size="11.00">int unsigned[10]</text>
<polygon fill="none" stroke="black" points="10.5,-228 10.5,-250 117.5,-250 117.5,-228 10.5,-228"/>
<text text-anchor="start" x="30.5" y="-236.2" font-family="Helvetica,sans-Serif" font-size="11.00">commentary</text>
<polygon fill="none" stroke="black" points="117.5,-228 117.5,-250 253.5,-250 253.5,-228 117.5,-228"/>
<text text-anchor="start" x="120.5" y="-236.2" font-family="Helvetica,sans-Serif" font-size="11.00">mediumtext[16777215]</text>
<polygon fill="#ffffff" stroke="transparent" points="10.5,-210 10.5,-228 36.5,-228 36.5,-210 10.5,-210"/>
<polygon fill="none" stroke="black" points="10.5,-210 10.5,-228 36.5,-228 36.5,-210 10.5,-210"/>
<text text-anchor="start" x="13.5" y="-216.2" font-family="Helvetica,sans-Serif" font-size="11.00">&lt; 0</text>
<polygon fill="#ffffff" stroke="transparent" points="36.5,-210 36.5,-228 117.5,-228 117.5,-210 36.5,-210"/>
<polygon fill="none" stroke="black" points="36.5,-210 36.5,-228 117.5,-228 117.5,-210 36.5,-210"/>
<text text-anchor="start" x="39.5" y="-216.2" font-family="Helvetica,sans-Serif" font-size="11.00">327,795 rows</text>
<polygon fill="#ffffff" stroke="transparent" points="117.5,-210 117.5,-228 253.5,-228 253.5,-210 117.5,-210"/>
<polygon fill="none" stroke="black" points="117.5,-210 117.5,-228 253.5,-228 253.5,-210 117.5,-210"/>
<text text-anchor="start" x="230.5" y="-216.2" font-family="Helvetica,sans-Serif" font-size="11.00">4 &gt;</text>
<polygon fill="none" stroke="black" stroke-width="2" points="9,-209 9,-317 254,-317 254,-209 9,-209"/>
</a>
</g>
</g>
<!-- parallel_word&#45;&gt;word -->
<g id="edge1" class="edge">
<title>parallel_word:w&#45;&gt;word:e</title>
<path fill="none" stroke="black" d="M341.62,-481.2C311.69,-472.69 314.59,-435.42 296,-400 270.36,-351.15 309.67,-283 254.5,-283"/>
<polygon fill="black" stroke="black" points="348.06,-482.01 355.55,-486.57 352.03,-482.5 356,-483 356,-483 356,-483 352.03,-482.5 356.45,-479.43 348.06,-482.01 348.06,-482.01"/>
<ellipse fill="none" stroke="black" cx="344.89" cy="-481.61" rx="3.2" ry="3.2"/>
</g>
<!-- position_in_stream_to_word_rel -->
<g id="node3" class="node">
<title>position_in_stream_to_word_rel</title>
<g id="a_node3"><a xlink:href="../../tables/position_in_stream_to_word_rel.html" xlink:title="position_in_stream_to_word_rel" target="_top">
<polygon fill="#ffffff" stroke="transparent" points="304,-287 304,-389 546,-389 546,-287 304,-287"/>
<polygon fill="#f5f5f5" stroke="transparent" points="304,-367 304,-389 546,-389 546,-367 304,-367"/>
<polygon fill="none" stroke="black" points="304,-367 304,-389 546,-389 546,-367 304,-367"/>
<text text-anchor="start" x="309" y="-376.2" font-family="Helvetica,sans-Serif" font-weight="bold" font-size="11.00">position_in_stream_to_word_rel</text>
<text text-anchor="start" x="504" y="-375.2" font-family="Helvetica,sans-Serif" font-size="11.00">[table]</text>
<polygon fill="none" stroke="black" points="304,-345 304,-367 546,-367 546,-345 304,-345"/>
<image xlink:href="../../images/primaryKeys.png" width="11px" height="12px" preserveAspectRatio="xMinYMin meet" x="309" y="-362"/>
<text text-anchor="start" x="330" y="-353.2" font-family="Helvetica,sans-Serif" font-size="11.00">position_in_stream_id</text>
<polygon fill="none" stroke="black" points="304,-323 304,-345 546,-345 546,-323 304,-323"/>
<image xlink:href="../../images/primaryKeys.png" width="11px" height="12px" preserveAspectRatio="xMinYMin meet" x="309" y="-340"/>
<text text-anchor="start" x="330" y="-331.2" font-family="Helvetica,sans-Serif" font-size="11.00">word_id</text>
<polygon fill="none" stroke="black" points="304,-305 304,-323 546,-323 546,-305 304,-305"/>
<text text-anchor="start" x="307" y="-311.2" font-family="Helvetica,sans-Serif" font-size="11.00">...</text>
<polygon fill="#ffffff" stroke="transparent" points="304,-287 304,-305 385,-305 385,-287 304,-287"/>
<polygon fill="none" stroke="black" points="304,-287 304,-305 385,-305 385,-287 304,-287"/>
<text text-anchor="start" x="307" y="-293.2" font-family="Helvetica,sans-Serif" font-size="11.00">&lt; 2</text>
<polygon fill="#ffffff" stroke="transparent" points="385,-287 385,-305 504,-305 504,-287 385,-287"/>
<polygon fill="none" stroke="black" points="385,-287 385,-305 504,-305 504,-287 385,-287"/>
<text text-anchor="start" x="416" y="-293.2" font-family="Helvetica,sans-Serif" font-size="11.00">1,238,159 rows</text>
<polygon fill="#ffffff" stroke="transparent" points="504,-287 504,-305 546,-305 546,-287 504,-287"/>
<polygon fill="none" stroke="black" points="504,-287 504,-305 546,-305 546,-287 504,-287"/>
<text text-anchor="start" x="535" y="-293.2" font-family="Helvetica,sans-Serif" font-size="11.00"> &#160;</text>
</a>
</g>
</g>
<!-- position_in_stream_to_word_rel&#45;&gt;word -->
<g id="edge2" class="edge">
<title>position_in_stream_to_word_rel:w&#45;&gt;word:e</title>
<path fill="none" stroke="black" d="M289.19,-328.92C275.48,-316.02 279.67,-283 254.5,-283"/>
<polygon fill="black" stroke="black" points="295.49,-331.24 301.76,-337.38 299.25,-332.62 303,-334 303,-334 303,-334 299.25,-332.62 304.24,-330.62 295.49,-331.24 295.49,-331.24"/>
<ellipse fill="none" stroke="black" cx="292.49" cy="-330.14" rx="3.2" ry="3.2"/>
</g>
<!-- qwb_word -->
<g id="node4" class="node">
<title>qwb_word</title>
<g id="a_node4"><a xlink:href="../../tables/qwb_word.html" xlink:title="qwb_word" target="_top">
<polygon fill="#ffffff" stroke="transparent" points="357.5,-164 357.5,-266 492.5,-266 492.5,-164 357.5,-164"/>
<polygon fill="#f5f5f5" stroke="transparent" points="358,-244 358,-266 493,-266 493,-244 358,-244"/>
<polygon fill="none" stroke="black" points="358,-244 358,-266 493,-266 493,-244 358,-244"/>
<text text-anchor="start" x="363" y="-253.2" font-family="Helvetica,sans-Serif" font-weight="bold" font-size="11.00">qwb_word</text>
<text text-anchor="start" x="451" y="-252.2" font-family="Helvetica,sans-Serif" font-size="11.00">[table]</text>
<polygon fill="none" stroke="black" points="358,-222 358,-244 493,-244 493,-222 358,-222"/>
<image xlink:href="../../images/primaryKeys.png" width="11px" height="12px" preserveAspectRatio="xMinYMin meet" x="363" y="-239"/>
<text text-anchor="start" x="378" y="-230.2" font-family="Helvetica,sans-Serif" font-size="11.00">word_id</text>
<polygon fill="none" stroke="black" points="358,-200 358,-222 493,-222 493,-200 358,-200"/>
<image xlink:href="../../images/primaryKeys.png" width="11px" height="12px" preserveAspectRatio="xMinYMin meet" x="363" y="-217"/>
<text text-anchor="start" x="378" y="-208.2" font-family="Helvetica,sans-Serif" font-size="11.00">qwb_word_id</text>
<polygon fill="none" stroke="black" points="358,-182 358,-200 493,-200 493,-182 358,-182"/>
<text text-anchor="start" x="361" y="-188.2" font-family="Helvetica,sans-Serif" font-size="11.00">...</text>
<polygon fill="#ffffff" stroke="transparent" points="358,-164 358,-182 385,-182 385,-164 358,-164"/>
<polygon fill="none" stroke="black" points="358,-164 358,-182 385,-182 385,-164 358,-164"/>
<text text-anchor="start" x="361" y="-170.2" font-family="Helvetica,sans-Serif" font-size="11.00">&lt; 1</text>
<polygon fill="#ffffff" stroke="transparent" points="385,-164 385,-182 466,-182 466,-164 385,-164"/>
<polygon fill="none" stroke="black" points="385,-164 385,-182 466,-182 466,-164 385,-164"/>
<text text-anchor="start" x="388" y="-170.2" font-family="Helvetica,sans-Serif" font-size="11.00">327,834 rows</text>
<polygon fill="#ffffff" stroke="transparent" points="466,-164 466,-182 493,-182 493,-164 466,-164"/>
<polygon fill="none" stroke="black" points="466,-164 466,-182 493,-182 493,-164 466,-164"/>
<text text-anchor="start" x="470" y="-170.2" font-family="Helvetica,sans-Serif" font-size="11.00">1 &gt;</text>
</a>
</g>
</g>
<!-- qwb_word&#45;&gt;word -->
<g id="edge3" class="edge">
<title>qwb_word:w&#45;&gt;word:e</title>
<path fill="none" stroke="black" d="M342.5,-234.55C305.52,-242.99 299.84,-283 254.5,-283"/>
<polygon fill="black" stroke="black" points="349.05,-233.85 357.38,-236.58 353.02,-233.43 357,-233 357,-233 357,-233 353.02,-233.43 356.62,-229.42 349.05,-233.85 349.05,-233.85"/>
<ellipse fill="none" stroke="black" cx="345.86" cy="-234.19" rx="3.2" ry="3.2"/>
</g>
<!-- word_owner -->
<g id="node5" class="node">
<title>word_owner</title>
<g id="a_node5"><a xlink:href="../../tables/word_owner.html" xlink:title="word_owner" target="_top">
<polygon fill="#ffffff" stroke="transparent" points="358.5,-37 358.5,-143 491.5,-143 491.5,-37 358.5,-37"/>
<polygon fill="#f5f5f5" stroke="transparent" points="359,-121 359,-143 492,-143 492,-121 359,-121"/>
<polygon fill="none" stroke="black" points="359,-121 359,-143 492,-143 492,-121 359,-121"/>
<text text-anchor="start" x="364" y="-130.2" font-family="Helvetica,sans-Serif" font-weight="bold" font-size="11.00">word_owner</text>
<text text-anchor="start" x="450" y="-129.2" font-family="Helvetica,sans-Serif" font-size="11.00">[table]</text>
<polygon fill="none" stroke="black" points="359,-99 359,-121 492,-121 492,-99 359,-99"/>
<image xlink:href="../../images/primaryKeys.png" width="11px" height="12px" preserveAspectRatio="xMinYMin meet" x="364" y="-116"/>
<text text-anchor="start" x="379" y="-107.2" font-family="Helvetica,sans-Serif" font-size="11.00">word_id</text>
<polygon fill="#ffffff" stroke="transparent" points="359,-77 359,-99 492,-99 492,-77 359,-77"/>
<polygon fill="none" stroke="black" points="359,-77 359,-99 492,-99 492,-77 359,-77"/>
<image xlink:href="../../images/foreignKeys.png" width="11px" height="12px" preserveAspectRatio="xMinYMin meet" x="364" y="-94"/>
<text text-anchor="start" x="379" y="-85.2" font-family="Helvetica,sans-Serif" font-size="11.00">edition_editor_id</text>
<polygon fill="none" stroke="black" points="359,-55 359,-77 492,-77 492,-55 359,-55"/>
<image xlink:href="../../images/primaryKeys.png" width="11px" height="12px" preserveAspectRatio="xMinYMin meet" x="364" y="-72"/>
<text text-anchor="start" x="379" y="-63.2" font-family="Helvetica,sans-Serif" font-size="11.00">edition_id</text>
<polygon fill="#ffffff" stroke="transparent" points="359,-37 359,-55 391,-55 391,-37 359,-37"/>
<polygon fill="none" stroke="black" points="359,-37 359,-55 391,-55 391,-37 359,-37"/>
<text text-anchor="start" x="362" y="-43.2" font-family="Helvetica,sans-Serif" font-size="11.00">&lt; 3</text>
<polygon fill="#ffffff" stroke="transparent" points="391,-37 391,-55 475,-55 475,-37 391,-37"/>
<polygon fill="none" stroke="black" points="391,-37 391,-55 475,-55 475,-37 391,-37"/>
<text text-anchor="start" x="397" y="-43.2" font-family="Helvetica,sans-Serif" font-size="11.00">327,684 rows</text>
<polygon fill="#ffffff" stroke="transparent" points="475,-37 475,-55 492,-55 492,-37 475,-37"/>
<polygon fill="none" stroke="black" points="475,-37 475,-55 492,-55 492,-37 475,-37"/>
<text text-anchor="start" x="481" y="-43.2" font-family="Helvetica,sans-Serif" font-size="11.00"> &#160;</text>
</a>
</g>
</g>
<!-- word_owner&#45;&gt;word -->
<g id="edge4" class="edge">
<title>word_owner:w&#45;&gt;word:e</title>
<path fill="none" stroke="black" d="M343.58,-111.26C321.27,-115.63 312.77,-131.11 296,-154 260.4,-202.58 314.73,-283 254.5,-283"/>
<polygon fill="black" stroke="black" points="350.03,-110.7 358.31,-113.59 354.02,-110.35 358,-110 358,-110 358,-110 354.02,-110.35 357.69,-106.41 350.03,-110.7 350.03,-110.7"/>
<ellipse fill="none" stroke="black" cx="346.84" cy="-110.98" rx="3.2" ry="3.2"/>
</g>
</g>
</svg>
