<?xml version="1.0" encoding="UTF-8" standalone="no"?>
<!DOCTYPE svg PUBLIC "-//W3C//DTD SVG 1.1//EN"
 "http://www.w3.org/Graphics/SVG/1.1/DTD/svg11.dtd">
<!-- Generated by graphviz version 2.43.0 (0)
 -->
<!-- Title: twoDegreesRelationshipsDiagram Pages: 1 -->
<svg width="789pt" height="583pt"
 viewBox="0.00 0.00 789.00 583.00" xmlns="http://www.w3.org/2000/svg" xmlns:xlink="http://www.w3.org/1999/xlink">
<g id="graph0" class="graph" transform="scale(1 1) rotate(0) translate(4 579)">
<title>twoDegreesRelationshipsDiagram</title>
<polygon fill="#ffffff" stroke="transparent" points="-4,4 -4,-579 785,-579 785,4 -4,4"/>
<text text-anchor="middle" x="79.5" y="-7.2" font-family="Helvetica,sans-Serif" font-size="11.00">Generated by SchemaSpy</text>
<!-- edition_editor -->
<g id="node1" class="node">
<title>edition_editor</title>
<g id="a_node1"><a xlink:href="../../tables/edition_editor.html" xlink:title="edition_editor" target="_top">
<polygon fill="#ffffff" stroke="transparent" points="357,-486 357,-544 493,-544 493,-486 357,-486"/>
<polygon fill="#f5f5f5" stroke="transparent" points="357,-522 357,-544 493,-544 493,-522 357,-522"/>
<polygon fill="none" stroke="black" points="357,-522 357,-544 493,-544 493,-522 357,-522"/>
<text text-anchor="start" x="362" y="-531.2" font-family="Helvetica,sans-Serif" font-weight="bold" font-size="11.00">edition_editor</text>
<text text-anchor="start" x="451" y="-530.2" font-family="Helvetica,sans-Serif" font-size="11.00">[table]</text>
<polygon fill="none" stroke="black" points="357,-504 357,-522 493,-522 493,-504 357,-504"/>
<text text-anchor="start" x="360" y="-510.2" font-family="Helvetica,sans-Serif" font-size="11.00">...</text>
<polygon fill="#ffffff" stroke="transparent" points="357,-486 357,-504 388,-504 388,-486 357,-486"/>
<polygon fill="none" stroke="black" points="357,-486 357,-504 388,-504 388,-486 357,-486"/>
<text text-anchor="start" x="360" y="-492.2" font-family="Helvetica,sans-Serif" font-size="11.00">&lt; 2</text>
<polygon fill="#ffffff" stroke="transparent" points="388,-486 388,-504 457,-504 457,-486 388,-486"/>
<polygon fill="none" stroke="black" points="388,-486 388,-504 457,-504 457,-486 388,-486"/>
<text text-anchor="start" x="393" y="-492.2" font-family="Helvetica,sans-Serif" font-size="11.00">1,645 rows</text>
<polygon fill="#ffffff" stroke="transparent" points="457,-486 457,-504 493,-504 493,-486 457,-486"/>
<polygon fill="none" stroke="black" points="457,-486 457,-504 493,-504 493,-486 457,-486"/>
<text text-anchor="start" x="463" y="-492.2" font-family="Helvetica,sans-Serif" font-size="11.00">29 &gt;</text>
</a>
</g>
</g>
<!-- edition -->
<g id="node2" class="node">
<title>edition</title>
<g id="a_node2"><a xlink:href="../../tables/edition.html" xlink:title="edition" target="_top">
<polygon fill="#ffffff" stroke="transparent" points="68.5,-486 68.5,-544 194.5,-544 194.5,-486 68.5,-486"/>
<polygon fill="#f5f5f5" stroke="transparent" points="68.5,-522 68.5,-544 194.5,-544 194.5,-522 68.5,-522"/>
<polygon fill="none" stroke="black" points="68.5,-522 68.5,-544 194.5,-544 194.5,-522 68.5,-522"/>
<text text-anchor="start" x="73.5" y="-531.2" font-family="Helvetica,sans-Serif" font-weight="bold" font-size="11.00">edition</text>
<text text-anchor="start" x="152.5" y="-530.2" font-family="Helvetica,sans-Serif" font-size="11.00">[table]</text>
<polygon fill="none" stroke="black" points="68.5,-504 68.5,-522 194.5,-522 194.5,-504 68.5,-504"/>
<text text-anchor="start" x="71.5" y="-510.2" font-family="Helvetica,sans-Serif" font-size="11.00">...</text>
<polygon fill="#ffffff" stroke="transparent" points="68.5,-486 68.5,-504 94.5,-504 94.5,-486 68.5,-486"/>
<polygon fill="none" stroke="black" points="68.5,-486 68.5,-504 94.5,-504 94.5,-486 68.5,-486"/>
<text text-anchor="start" x="71.5" y="-492.2" font-family="Helvetica,sans-Serif" font-size="11.00">&lt; 1</text>
<polygon fill="#ffffff" stroke="transparent" points="94.5,-486 94.5,-504 161.5,-504 161.5,-486 94.5,-486"/>
<polygon fill="none" stroke="black" points="94.5,-486 94.5,-504 161.5,-504 161.5,-486 94.5,-486"/>
<text text-anchor="start" x="97.5" y="-492.2" font-family="Helvetica,sans-Serif" font-size="11.00">1,645 rows</text>
<polygon fill="#ffffff" stroke="transparent" points="161.5,-486 161.5,-504 194.5,-504 194.5,-486 161.5,-486"/>
<polygon fill="none" stroke="black" points="161.5,-486 161.5,-504 194.5,-504 194.5,-486 161.5,-486"/>
<text text-anchor="start" x="164.5" y="-492.2" font-family="Helvetica,sans-Serif" font-size="11.00">31 &gt;</text>
</a>
</g>
</g>
<!-- edition_editor&#45;&gt;edition -->
<g id="edge1" class="edge">
<title>edition_editor:w&#45;&gt;edition:e</title>
<path fill="none" stroke="black" d="M341.33,-513C281.81,-513 261.68,-513 195.5,-513"/>
<polygon fill="black" stroke="black" points="348,-513 356,-516.6 352,-513 356,-513 356,-513 356,-513 352,-513 356,-509.4 348,-513 348,-513"/>
<ellipse fill="none" stroke="black" cx="344.8" cy="-513" rx="3.2" ry="3.2"/>
</g>
<!-- parallel_word -->
<g id="node3" class="node">
<title>parallel_word</title>
<g id="a_node3"><a xlink:href="../../tables/parallel_word.html" xlink:title="parallel_word" target="_top">
<polygon fill="#ffffff" stroke="transparent" points="357,-310 357,-438 493,-438 493,-310 357,-310"/>
<polygon fill="#f5f5f5" stroke="transparent" points="357,-416 357,-438 493,-438 493,-416 357,-416"/>
<polygon fill="none" stroke="black" points="357,-416 357,-438 493,-438 493,-416 357,-416"/>
<text text-anchor="start" x="362" y="-425.2" font-family="Helvetica,sans-Serif" font-weight="bold" font-size="11.00">parallel_word</text>
<text text-anchor="start" x="451" y="-424.2" font-family="Helvetica,sans-Serif" font-size="11.00">[table]</text>
<polygon fill="none" stroke="black" points="357,-394 357,-416 493,-416 493,-394 357,-394"/>
<image xlink:href="../../images/primaryKeys.png" width="11px" height="12px" preserveAspectRatio="xMinYMin meet" x="362" y="-411"/>
<text text-anchor="start" x="377" y="-402.2" font-family="Helvetica,sans-Serif" font-size="11.00">parallel_word_id</text>
<polygon fill="#ffffff" stroke="transparent" points="357,-372 357,-394 493,-394 493,-372 357,-372"/>
<polygon fill="none" stroke="black" points="357,-372 357,-394 493,-394 493,-372 357,-372"/>
<image xlink:href="../../images/foreignKeys.png" width="11px" height="12px" preserveAspectRatio="xMinYMin meet" x="362" y="-389"/>
<text text-anchor="start" x="377" y="-380.2" font-family="Helvetica,sans-Serif" font-size="11.00">word_id</text>
<polygon fill="#ffffff" stroke="transparent" points="357,-350 357,-372 493,-372 493,-350 357,-350"/>
<polygon fill="none" stroke="black" points="357,-350 357,-372 493,-372 493,-350 357,-350"/>
<image xlink:href="../../images/foreignKeys.png" width="11px" height="12px" preserveAspectRatio="xMinYMin meet" x="362" y="-367"/>
<text text-anchor="start" x="377" y="-358.2" font-family="Helvetica,sans-Serif" font-size="11.00">parallel_group_id</text>
<polygon fill="#ffffff" stroke="transparent" points="357,-328 357,-350 493,-350 493,-328 357,-328"/>
<polygon fill="none" stroke="black" points="357,-328 357,-350 493,-350 493,-328 357,-328"/>
<text text-anchor="start" x="377" y="-336.2" font-family="Helvetica,sans-Serif" font-size="11.00">sub_group</text>
<polygon fill="#ffffff" stroke="transparent" points="357,-310 357,-328 403,-328 403,-310 357,-310"/>
<polygon fill="none" stroke="black" points="357,-310 357,-328 403,-328 403,-310 357,-310"/>
<text text-anchor="start" x="360" y="-316.2" font-family="Helvetica,sans-Serif" font-size="11.00">&lt; 2</text>
<polygon fill="#ffffff" stroke="transparent" points="403,-310 403,-328 456,-328 456,-310 403,-310"/>
<polygon fill="none" stroke="black" points="403,-310 403,-328 456,-328 456,-310 403,-310"/>
<text text-anchor="start" x="416" y="-316.2" font-family="Helvetica,sans-Serif" font-size="11.00">0 rows</text>
<polygon fill="#ffffff" stroke="transparent" points="456,-310 456,-328 493,-328 493,-310 456,-310"/>
<polygon fill="none" stroke="black" points="456,-310 456,-328 493,-328 493,-310 456,-310"/>
<text text-anchor="start" x="470" y="-316.2" font-family="Helvetica,sans-Serif" font-size="11.00">1 &gt;</text>
</a>
</g>
</g>
<!-- parallel_group -->
<g id="node4" class="node">
<title>parallel_group</title>
<g id="a_node4"><a xlink:href="../../tables/parallel_group.html" xlink:title="parallel_group" target="_top">
<polygon fill="#ffffff" stroke="transparent" points="62,-334 62,-392 201,-392 201,-334 62,-334"/>
<polygon fill="#f5f5f5" stroke="transparent" points="62.5,-370 62.5,-392 201.5,-392 201.5,-370 62.5,-370"/>
<polygon fill="none" stroke="black" points="62.5,-370 62.5,-392 201.5,-392 201.5,-370 62.5,-370"/>
<text text-anchor="start" x="67.5" y="-379.2" font-family="Helvetica,sans-Serif" font-weight="bold" font-size="11.00">parallel_group</text>
<text text-anchor="start" x="159.5" y="-378.2" font-family="Helvetica,sans-Serif" font-size="11.00">[table]</text>
<polygon fill="none" stroke="black" points="62.5,-352 62.5,-370 201.5,-370 201.5,-352 62.5,-352"/>
<text text-anchor="start" x="65.5" y="-358.2" font-family="Helvetica,sans-Serif" font-size="11.00">...</text>
<polygon fill="#ffffff" stroke="transparent" points="62.5,-334 62.5,-352 104.5,-352 104.5,-334 62.5,-334"/>
<polygon fill="none" stroke="black" points="62.5,-334 62.5,-352 104.5,-352 104.5,-334 62.5,-334"/>
<text text-anchor="start" x="65.5" y="-340.2" font-family="Helvetica,sans-Serif" font-size="11.00"> &#160;</text>
<polygon fill="#ffffff" stroke="transparent" points="104.5,-334 104.5,-352 161.5,-352 161.5,-334 104.5,-334"/>
<polygon fill="none" stroke="black" points="104.5,-334 104.5,-352 161.5,-352 161.5,-334 104.5,-334"/>
<text text-anchor="start" x="121.5" y="-340.2" font-family="Helvetica,sans-Serif" font-size="11.00">0 rows</text>
<polygon fill="#ffffff" stroke="transparent" points="161.5,-334 161.5,-352 201.5,-352 201.5,-334 161.5,-334"/>
<polygon fill="none" stroke="black" points="161.5,-334 161.5,-352 201.5,-352 201.5,-334 161.5,-334"/>
<text text-anchor="start" x="178.5" y="-340.2" font-family="Helvetica,sans-Serif" font-size="11.00">1 &gt;</text>
</a>
</g>
</g>
<!-- parallel_word&#45;&gt;parallel_group -->
<g id="edge2" class="edge">
<title>parallel_word:w&#45;&gt;parallel_group:e</title>
<path fill="none" stroke="black" d="M341.26,-361C284.88,-361 265.53,-361 202.5,-361"/>
<polygon fill="black" stroke="black" points="348,-361 356,-364.6 352,-361 356,-361 356,-361 356,-361 352,-361 356,-357.4 348,-361 348,-361"/>
<ellipse fill="none" stroke="black" cx="344.8" cy="-361" rx="3.2" ry="3.2"/>
</g>
<!-- word -->
<g id="node5" class="node">
<title>word</title>
<g id="a_node5"><a xlink:href="../../tables/word.html" xlink:title="word" target="_top">
<polygon fill="#ffffff" stroke="transparent" points="8,-180 8,-290 255,-290 255,-180 8,-180"/>
<polygon fill="#f5f5f5" stroke="transparent" points="10.5,-266 10.5,-288 253.5,-288 253.5,-266 10.5,-266"/>
<polygon fill="none" stroke="black" points="10.5,-266 10.5,-288 253.5,-288 253.5,-266 10.5,-266"/>
<text text-anchor="start" x="15.5" y="-275.2" font-family="Helvetica,sans-Serif" font-weight="bold" font-size="11.00">word</text>
<text text-anchor="start" x="211.5" y="-274.2" font-family="Helvetica,sans-Serif" font-size="11.00">[table]</text>
<polygon fill="none" stroke="black" points="10.5,-244 10.5,-266 117.5,-266 117.5,-244 10.5,-244"/>
<image xlink:href="../../images/primaryKeys.png" width="11px" height="12px" preserveAspectRatio="xMinYMin meet" x="15.5" y="-261"/>
<text text-anchor="start" x="30.5" y="-252.2" font-family="Helvetica,sans-Serif" font-size="11.00">word_id</text>
<polygon fill="none" stroke="black" points="117.5,-244 117.5,-266 253.5,-266 253.5,-244 117.5,-244"/>
<text text-anchor="start" x="120.5" y="-252.2" font-family="Helvetica,sans-Serif" font-size="11.00">int unsigned[10]</text>
<polygon fill="#ffffff" stroke="transparent" points="10.5,-222 10.5,-244 117.5,-244 117.5,-222 10.5,-222"/>
<polygon fill="none" stroke="black" points="10.5,-222 10.5,-244 117.5,-244 117.5,-222 10.5,-222"/>
<text text-anchor="start" x="30.5" y="-230.2" font-family="Helvetica,sans-Serif" font-size="11.00">qwb_word_id</text>
<polygon fill="none" stroke="black" points="117.5,-222 117.5,-244 253.5,-244 253.5,-222 117.5,-222"/>
<text text-anchor="start" x="120.5" y="-230.2" font-family="Helvetica,sans-Serif" font-size="11.00">int unsigned[10]</text>
<polygon fill="none" stroke="black" points="10.5,-200 10.5,-222 117.5,-222 117.5,-200 10.5,-200"/>
<text text-anchor="start" x="30.5" y="-208.2" font-family="Helvetica,sans-Serif" font-size="11.00">commentary</text>
<polygon fill="none" stroke="black" points="117.5,-200 117.5,-222 253.5,-222 253.5,-200 117.5,-200"/>
<text text-anchor="start" x="120.5" y="-208.2" font-family="Helvetica,sans-Serif" font-size="11.00">mediumtext[16777215]</text>
<polygon fill="#ffffff" stroke="transparent" points="10.5,-182 10.5,-200 36.5,-200 36.5,-182 10.5,-182"/>
<polygon fill="none" stroke="black" points="10.5,-182 10.5,-200 36.5,-200 36.5,-182 10.5,-182"/>
<text text-anchor="start" x="13.5" y="-188.2" font-family="Helvetica,sans-Serif" font-size="11.00">&lt; 0</text>
<polygon fill="#ffffff" stroke="transparent" points="36.5,-182 36.5,-200 117.5,-200 117.5,-182 36.5,-182"/>
<polygon fill="none" stroke="black" points="36.5,-182 36.5,-200 117.5,-200 117.5,-182 36.5,-182"/>
<text text-anchor="start" x="39.5" y="-188.2" font-family="Helvetica,sans-Serif" font-size="11.00">327,795 rows</text>
<polygon fill="#ffffff" stroke="transparent" points="117.5,-182 117.5,-200 253.5,-200 253.5,-182 117.5,-182"/>
<polygon fill="none" stroke="black" points="117.5,-182 117.5,-200 253.5,-200 253.5,-182 117.5,-182"/>
<text text-anchor="start" x="230.5" y="-188.2" font-family="Helvetica,sans-Serif" font-size="11.00">4 &gt;</text>
<polygon fill="none" stroke="black" stroke-width="2" points="9,-181 9,-289 254,-289 254,-181 9,-181"/>
</a>
</g>
</g>
<!-- parallel_word&#45;&gt;word -->
<g id="edge3" class="edge">
<title>parallel_word:w&#45;&gt;word:e</title>
<path fill="none" stroke="black" d="M342.3,-377.17C312.13,-352.13 286.12,-255 254.5,-255"/>
<polygon fill="black" stroke="black" points="348.64,-379.87 354.59,-386.31 352.32,-381.43 356,-383 356,-383 356,-383 352.32,-381.43 357.41,-379.69 348.64,-379.87 348.64,-379.87"/>
<ellipse fill="none" stroke="black" cx="345.69" cy="-378.61" rx="3.2" ry="3.2"/>
</g>
<!-- parallel_word_owner -->
<g id="node6" class="node">
<title>parallel_word_owner</title>
<g id="a_node6"><a xlink:href="../../tables/parallel_word_owner.html" xlink:title="parallel_word_owner" target="_top">
<polygon fill="#ffffff" stroke="transparent" points="595,-513 595,-571 773,-571 773,-513 595,-513"/>
<polygon fill="#f5f5f5" stroke="transparent" points="595,-549 595,-571 773,-571 773,-549 595,-549"/>
<polygon fill="none" stroke="black" points="595,-549 595,-571 773,-571 773,-549 595,-549"/>
<text text-anchor="start" x="600" y="-558.2" font-family="Helvetica,sans-Serif" font-weight="bold" font-size="11.00">parallel_word_owner</text>
<text text-anchor="start" x="731" y="-557.2" font-family="Helvetica,sans-Serif" font-size="11.00">[table]</text>
<polygon fill="none" stroke="black" points="595,-531 595,-549 773,-549 773,-531 595,-531"/>
<text text-anchor="start" x="598" y="-537.2" font-family="Helvetica,sans-Serif" font-size="11.00">...</text>
<polygon fill="#ffffff" stroke="transparent" points="595,-513 595,-531 668,-531 668,-513 595,-513"/>
<polygon fill="none" stroke="black" points="595,-513 595,-531 668,-531 668,-513 595,-513"/>
<text text-anchor="start" x="598" y="-519.2" font-family="Helvetica,sans-Serif" font-size="11.00">&lt; 3</text>
<polygon fill="#ffffff" stroke="transparent" points="668,-513 668,-531 735,-531 735,-513 668,-513"/>
<polygon fill="none" stroke="black" points="668,-513 668,-531 735,-531 735,-513 668,-513"/>
<text text-anchor="start" x="695" y="-519.2" font-family="Helvetica,sans-Serif" font-size="11.00">0 rows</text>
<polygon fill="#ffffff" stroke="transparent" points="735,-513 735,-531 773,-531 773,-513 735,-513"/>
<polygon fill="none" stroke="black" points="735,-513 735,-531 773,-531 773,-513 735,-513"/>
<text text-anchor="start" x="762" y="-519.2" font-family="Helvetica,sans-Serif" font-size="11.00"> &#160;</text>
</a>
</g>
</g>
<!-- parallel_word_owner&#45;&gt;edition_editor -->
<g id="edge4" class="edge">
<title>parallel_word_owner:w&#45;&gt;edition_editor:e</title>
<path fill="none" stroke="black" d="M579.26,-538.97C545.58,-534.04 534.64,-513 494,-513"/>
<polygon fill="black" stroke="black" points="586.02,-539.44 593.75,-543.59 590.01,-539.72 594,-540 594,-540 594,-540 590.01,-539.72 594.25,-536.41 586.02,-539.44 586.02,-539.44"/>
<ellipse fill="none" stroke="black" cx="582.83" cy="-539.22" rx="3.2" ry="3.2"/>
</g>
<!-- parallel_word_owner&#45;&gt;edition -->
<g id="edge5" class="edge">
<title>parallel_word_owner:w&#45;&gt;edition:e</title>
<path fill="none" stroke="black" d="M579.8,-542.92C571.84,-546.6 566.7,-552.7 554,-555 441.17,-575.46 408.43,-577.55 296,-555 248.53,-545.48 243.91,-513 195.5,-513"/>
<polygon fill="black" stroke="black" points="586.16,-541.61 594.73,-543.53 590.08,-540.81 594,-540 594,-540 594,-540 590.08,-540.81 593.27,-536.47 586.16,-541.61 586.16,-541.61"/>
<ellipse fill="none" stroke="black" cx="583.03" cy="-542.26" rx="3.2" ry="3.2"/>
</g>
<!-- parallel_word_owner&#45;&gt;parallel_word -->
<g id="edge6" class="edge">
<title>parallel_word_owner:w&#45;&gt;parallel_word:e</title>
<path fill="none" stroke="black" d="M579.55,-536.42C564.28,-526.51 570.06,-498.02 554,-476 529.66,-442.62 535.31,-405 494,-405"/>
<polygon fill="black" stroke="black" points="586.24,-538.07 593.13,-543.49 590.12,-539.04 594,-540 594,-540 594,-540 590.12,-539.04 594.87,-536.51 586.24,-538.07 586.24,-538.07"/>
<ellipse fill="none" stroke="black" cx="583.13" cy="-537.3" rx="3.2" ry="3.2"/>
</g>
<!-- position_in_stream_to_word_rel -->
<g id="node7" class="node">
<title>position_in_stream_to_word_rel</title>
<g id="a_node7"><a xlink:href="../../tables/position_in_stream_to_word_rel.html" xlink:title="position_in_stream_to_word_rel" target="_top">
<polygon fill="#ffffff" stroke="transparent" points="304,-37 304,-139 546,-139 546,-37 304,-37"/>
<polygon fill="#f5f5f5" stroke="transparent" points="304,-117 304,-139 546,-139 546,-117 304,-117"/>
<polygon fill="none" stroke="black" points="304,-117 304,-139 546,-139 546,-117 304,-117"/>
<text text-anchor="start" x="309" y="-126.2" font-family="Helvetica,sans-Serif" font-weight="bold" font-size="11.00">position_in_stream_to_word_rel</text>
<text text-anchor="start" x="504" y="-125.2" font-family="Helvetica,sans-Serif" font-size="11.00">[table]</text>
<polygon fill="none" stroke="black" points="304,-95 304,-117 546,-117 546,-95 304,-95"/>
<image xlink:href="../../images/primaryKeys.png" width="11px" height="12px" preserveAspectRatio="xMinYMin meet" x="309" y="-112"/>
<text text-anchor="start" x="330" y="-103.2" font-family="Helvetica,sans-Serif" font-size="11.00">position_in_stream_id</text>
<polygon fill="none" stroke="black" points="304,-73 304,-95 546,-95 546,-73 304,-73"/>
<image xlink:href="../../images/primaryKeys.png" width="11px" height="12px" preserveAspectRatio="xMinYMin meet" x="309" y="-90"/>
<text text-anchor="start" x="330" y="-81.2" font-family="Helvetica,sans-Serif" font-size="11.00">word_id</text>
<polygon fill="none" stroke="black" points="304,-55 304,-73 546,-73 546,-55 304,-55"/>
<text text-anchor="start" x="307" y="-61.2" font-family="Helvetica,sans-Serif" font-size="11.00">...</text>
<polygon fill="#ffffff" stroke="transparent" points="304,-37 304,-55 385,-55 385,-37 304,-37"/>
<polygon fill="none" stroke="black" points="304,-37 304,-55 385,-55 385,-37 304,-37"/>
<text text-anchor="start" x="307" y="-43.2" font-family="Helvetica,sans-Serif" font-size="11.00">&lt; 2</text>
<polygon fill="#ffffff" stroke="transparent" points="385,-37 385,-55 504,-55 504,-37 385,-37"/>
<polygon fill="none" stroke="black" points="385,-37 385,-55 504,-55 504,-37 385,-37"/>
<text text-anchor="start" x="416" y="-43.2" font-family="Helvetica,sans-Serif" font-size="11.00">1,238,159 rows</text>
<polygon fill="#ffffff" stroke="transparent" points="504,-37 504,-55 546,-55 546,-37 504,-37"/>
<polygon fill="none" stroke="black" points="504,-37 504,-55 546,-55 546,-37 504,-37"/>
<text text-anchor="start" x="535" y="-43.2" font-family="Helvetica,sans-Serif" font-size="11.00"> &#160;</text>
</a>
</g>
</g>
<!-- position_in_stream_to_word_rel&#45;&gt;word -->
<g id="edge8" class="edge">
<title>position_in_stream_to_word_rel:w&#45;&gt;word:e</title>
<path fill="none" stroke="black" d="M288.68,-86.55C238.84,-107.82 327.79,-255 254.5,-255"/>
<polygon fill="black" stroke="black" points="295.12,-85.4 303.63,-87.54 299.06,-84.7 303,-84 303,-84 303,-84 299.06,-84.7 302.37,-80.46 295.12,-85.4 295.12,-85.4"/>
<ellipse fill="none" stroke="black" cx="291.97" cy="-85.96" rx="3.2" ry="3.2"/>
</g>
<!-- position_in_stream -->
<g id="node8" class="node">
<title>position_in_stream</title>
<g id="a_node8"><a xlink:href="../../tables/position_in_stream.html" xlink:title="position_in_stream" target="_top">
<polygon fill="#ffffff" stroke="transparent" points="48.5,-79 48.5,-137 214.5,-137 214.5,-79 48.5,-79"/>
<polygon fill="#f5f5f5" stroke="transparent" points="48.5,-115 48.5,-137 214.5,-137 214.5,-115 48.5,-115"/>
<polygon fill="none" stroke="black" points="48.5,-115 48.5,-137 214.5,-137 214.5,-115 48.5,-115"/>
<text text-anchor="start" x="53.5" y="-124.2" font-family="Helvetica,sans-Serif" font-weight="bold" font-size="11.00">position_in_stream</text>
<text text-anchor="start" x="172.5" y="-123.2" font-family="Helvetica,sans-Serif" font-size="11.00">[table]</text>
<polygon fill="none" stroke="black" points="48.5,-97 48.5,-115 214.5,-115 214.5,-97 48.5,-97"/>
<text text-anchor="start" x="51.5" y="-103.2" font-family="Helvetica,sans-Serif" font-size="11.00">...</text>
<polygon fill="#ffffff" stroke="transparent" points="48.5,-79 48.5,-97 85.5,-97 85.5,-79 48.5,-79"/>
<polygon fill="none" stroke="black" points="48.5,-79 48.5,-97 85.5,-97 85.5,-79 48.5,-79"/>
<text text-anchor="start" x="51.5" y="-85.2" font-family="Helvetica,sans-Serif" font-size="11.00">&lt; 2</text>
<polygon fill="#ffffff" stroke="transparent" points="85.5,-79 85.5,-97 182.5,-97 182.5,-79 85.5,-79"/>
<polygon fill="none" stroke="black" points="85.5,-79 85.5,-97 182.5,-97 182.5,-79 85.5,-79"/>
<text text-anchor="start" x="94.5" y="-85.2" font-family="Helvetica,sans-Serif" font-size="11.00">1,719,776 rows</text>
<polygon fill="#ffffff" stroke="transparent" points="182.5,-79 182.5,-97 214.5,-97 214.5,-79 182.5,-79"/>
<polygon fill="none" stroke="black" points="182.5,-79 182.5,-97 214.5,-97 214.5,-79 182.5,-79"/>
<text text-anchor="start" x="191.5" y="-85.2" font-family="Helvetica,sans-Serif" font-size="11.00">2 &gt;</text>
</a>
</g>
</g>
<!-- position_in_stream_to_word_rel&#45;&gt;position_in_stream -->
<g id="edge7" class="edge">
<title>position_in_stream_to_word_rel:w&#45;&gt;position_in_stream:e</title>
<path fill="none" stroke="black" d="M288.54,-106C260.91,-106 249.07,-106 215.5,-106"/>
<polygon fill="black" stroke="black" points="295,-106 303,-109.6 299,-106 303,-106 303,-106 303,-106 299,-106 303,-102.4 295,-106 295,-106"/>
<ellipse fill="none" stroke="black" cx="291.8" cy="-106" rx="3.2" ry="3.2"/>
</g>
<!-- qwb_variant -->
<g id="node9" class="node">
<title>qwb_variant</title>
<g id="a_node9"><a xlink:href="../../tables/qwb_variant.html" xlink:title="qwb_variant" target="_top">
<polygon fill="#ffffff" stroke="transparent" points="620.5,-180 620.5,-238 747.5,-238 747.5,-180 620.5,-180"/>
<polygon fill="#f5f5f5" stroke="transparent" points="621,-216 621,-238 748,-238 748,-216 621,-216"/>
<polygon fill="none" stroke="black" points="621,-216 621,-238 748,-238 748,-216 621,-216"/>
<text text-anchor="start" x="626" y="-225.2" font-family="Helvetica,sans-Serif" font-weight="bold" font-size="11.00">qwb_variant</text>
<text text-anchor="start" x="706" y="-224.2" font-family="Helvetica,sans-Serif" font-size="11.00">[table]</text>
<polygon fill="none" stroke="black" points="621,-198 621,-216 748,-216 748,-198 621,-198"/>
<text text-anchor="start" x="624" y="-204.2" font-family="Helvetica,sans-Serif" font-size="11.00">...</text>
<polygon fill="#ffffff" stroke="transparent" points="621,-180 621,-198 669,-198 669,-180 621,-180"/>
<polygon fill="none" stroke="black" points="621,-180 621,-198 669,-198 669,-180 621,-180"/>
<text text-anchor="start" x="624" y="-186.2" font-family="Helvetica,sans-Serif" font-size="11.00">&lt; 2</text>
<polygon fill="#ffffff" stroke="transparent" points="669,-180 669,-198 723,-198 723,-180 669,-180"/>
<polygon fill="none" stroke="black" points="669,-180 669,-198 723,-198 723,-180 669,-180"/>
<text text-anchor="start" x="683" y="-186.2" font-family="Helvetica,sans-Serif" font-size="11.00">0 rows</text>
<polygon fill="#ffffff" stroke="transparent" points="723,-180 723,-198 748,-198 748,-180 723,-180"/>
<polygon fill="none" stroke="black" points="723,-180 723,-198 748,-198 748,-180 723,-180"/>
<text text-anchor="start" x="737" y="-186.2" font-family="Helvetica,sans-Serif" font-size="11.00"> &#160;</text>
</a>
</g>
</g>
<!-- qwb_word -->
<g id="node10" class="node">
<title>qwb_word</title>
<g id="a_node10"><a xlink:href="../../tables/qwb_word.html" xlink:title="qwb_word" target="_top">
<polygon fill="#ffffff" stroke="transparent" points="357.5,-160 357.5,-262 492.5,-262 492.5,-160 357.5,-160"/>
<polygon fill="#f5f5f5" stroke="transparent" points="358,-240 358,-262 493,-262 493,-240 358,-240"/>
<polygon fill="none" stroke="black" points="358,-240 358,-262 493,-262 493,-240 358,-240"/>
<text text-anchor="start" x="363" y="-249.2" font-family="Helvetica,sans-Serif" font-weight="bold" font-size="11.00">qwb_word</text>
<text text-anchor="start" x="451" y="-248.2" font-family="Helvetica,sans-Serif" font-size="11.00">[table]</text>
<polygon fill="none" stroke="black" points="358,-218 358,-240 493,-240 493,-218 358,-218"/>
<image xlink:href="../../images/primaryKeys.png" width="11px" height="12px" preserveAspectRatio="xMinYMin meet" x="363" y="-235"/>
<text text-anchor="start" x="378" y="-226.2" font-family="Helvetica,sans-Serif" font-size="11.00">word_id</text>
<polygon fill="none" stroke="black" points="358,-196 358,-218 493,-218 493,-196 358,-196"/>
<image xlink:href="../../images/primaryKeys.png" width="11px" height="12px" preserveAspectRatio="xMinYMin meet" x="363" y="-213"/>
<text text-anchor="start" x="378" y="-204.2" font-family="Helvetica,sans-Serif" font-size="11.00">qwb_word_id</text>
<polygon fill="none" stroke="black" points="358,-178 358,-196 493,-196 493,-178 358,-178"/>
<text text-anchor="start" x="361" y="-184.2" font-family="Helvetica,sans-Serif" font-size="11.00">...</text>
<polygon fill="#ffffff" stroke="transparent" points="358,-160 358,-178 385,-178 385,-160 358,-160"/>
<polygon fill="none" stroke="black" points="358,-160 358,-178 385,-178 385,-160 358,-160"/>
<text text-anchor="start" x="361" y="-166.2" font-family="Helvetica,sans-Serif" font-size="11.00">&lt; 1</text>
<polygon fill="#ffffff" stroke="transparent" points="385,-160 385,-178 466,-178 466,-160 385,-160"/>
<polygon fill="none" stroke="black" points="385,-160 385,-178 466,-178 466,-160 385,-160"/>
<text text-anchor="start" x="388" y="-166.2" font-family="Helvetica,sans-Serif" font-size="11.00">327,834 rows</text>
<polygon fill="#ffffff" stroke="transparent" points="466,-160 466,-178 493,-178 493,-160 466,-160"/>
<polygon fill="none" stroke="black" points="466,-160 466,-178 493,-178 493,-160 466,-160"/>
<text text-anchor="start" x="470" y="-166.2" font-family="Helvetica,sans-Serif" font-size="11.00">1 &gt;</text>
</a>
</g>
</g>
<!-- qwb_variant&#45;&gt;qwb_word -->
<g id="edge9" class="edge">
<title>qwb_variant:w&#45;&gt;qwb_word:e</title>
<path fill="none" stroke="black" d="M605.57,-207C561.08,-207 544.86,-207 494,-207"/>
<polygon fill="black" stroke="black" points="612,-207 620,-210.6 616,-207 620,-207 620,-207 620,-207 616,-207 620,-203.4 612,-207 612,-207"/>
<ellipse fill="none" stroke="black" cx="608.8" cy="-207" rx="3.2" ry="3.2"/>
</g>
<!-- qwb_word&#45;&gt;word -->
<g id="edge10" class="edge">
<title>qwb_word:w&#45;&gt;word:e</title>
<path fill="none" stroke="black" d="M342.4,-229.93C307.58,-234.56 296.17,-255 254.5,-255"/>
<polygon fill="black" stroke="black" points="349.02,-229.51 357.23,-232.59 353.01,-229.25 357,-229 357,-229 357,-229 353.01,-229.25 356.77,-225.41 349.02,-229.51 349.02,-229.51"/>
<ellipse fill="none" stroke="black" cx="345.82" cy="-229.71" rx="3.2" ry="3.2"/>
</g>
<!-- word_owner -->
<g id="node11" class="node">
<title>word_owner</title>
<g id="a_node11"><a xlink:href="../../tables/word_owner.html" xlink:title="word_owner" target="_top">
<polygon fill="#ffffff" stroke="transparent" points="617.5,-386 617.5,-492 750.5,-492 750.5,-386 617.5,-386"/>
<polygon fill="#f5f5f5" stroke="transparent" points="618,-470 618,-492 751,-492 751,-470 618,-470"/>
<polygon fill="none" stroke="black" points="618,-470 618,-492 751,-492 751,-470 618,-470"/>
<text text-anchor="start" x="623" y="-479.2" font-family="Helvetica,sans-Serif" font-weight="bold" font-size="11.00">word_owner</text>
<text text-anchor="start" x="709" y="-478.2" font-family="Helvetica,sans-Serif" font-size="11.00">[table]</text>
<polygon fill="none" stroke="black" points="618,-448 618,-470 751,-470 751,-448 618,-448"/>
<image xlink:href="../../images/primaryKeys.png" width="11px" height="12px" preserveAspectRatio="xMinYMin meet" x="623" y="-465"/>
<text text-anchor="start" x="638" y="-456.2" font-family="Helvetica,sans-Serif" font-size="11.00">word_id</text>
<polygon fill="#ffffff" stroke="transparent" points="618,-426 618,-448 751,-448 751,-426 618,-426"/>
<polygon fill="none" stroke="black" points="618,-426 618,-448 751,-448 751,-426 618,-426"/>
<image xlink:href="../../images/foreignKeys.png" width="11px" height="12px" preserveAspectRatio="xMinYMin meet" x="623" y="-443"/>
<text text-anchor="start" x="638" y="-434.2" font-family="Helvetica,sans-Serif" font-size="11.00">edition_editor_id</text>
<polygon fill="none" stroke="black" points="618,-404 618,-426 751,-426 751,-404 618,-404"/>
<image xlink:href="../../images/primaryKeys.png" width="11px" height="12px" preserveAspectRatio="xMinYMin meet" x="623" y="-421"/>
<text text-anchor="start" x="638" y="-412.2" font-family="Helvetica,sans-Serif" font-size="11.00">edition_id</text>
<polygon fill="#ffffff" stroke="transparent" points="618,-386 618,-404 650,-404 650,-386 618,-386"/>
<polygon fill="none" stroke="black" points="618,-386 618,-404 650,-404 650,-386 618,-386"/>
<text text-anchor="start" x="621" y="-392.2" font-family="Helvetica,sans-Serif" font-size="11.00">&lt; 3</text>
<polygon fill="#ffffff" stroke="transparent" points="650,-386 650,-404 734,-404 734,-386 650,-386"/>
<polygon fill="none" stroke="black" points="650,-386 650,-404 734,-404 734,-386 650,-386"/>
<text text-anchor="start" x="656" y="-392.2" font-family="Helvetica,sans-Serif" font-size="11.00">327,684 rows</text>
<polygon fill="#ffffff" stroke="transparent" points="734,-386 734,-404 751,-404 751,-386 734,-386"/>
<polygon fill="none" stroke="black" points="734,-386 734,-404 751,-404 751,-386 734,-386"/>
<text text-anchor="start" x="740" y="-392.2" font-family="Helvetica,sans-Serif" font-size="11.00"> &#160;</text>
</a>
</g>
</g>
<!-- word_owner&#45;&gt;edition_editor -->
<g id="edge11" class="edge">
<title>word_owner:w&#45;&gt;edition_editor:e</title>
<path fill="none" stroke="black" d="M602.52,-438.45C553.18,-448.96 552.99,-513 494,-513"/>
<polygon fill="black" stroke="black" points="609.04,-437.8 617.36,-440.58 613.02,-437.4 617,-437 617,-437 617,-437 613.02,-437.4 616.64,-433.42 609.04,-437.8 609.04,-437.8"/>
<ellipse fill="none" stroke="black" cx="605.86" cy="-438.12" rx="3.2" ry="3.2"/>
</g>
<!-- word_owner&#45;&gt;edition -->
<g id="edge12" class="edge">
<title>word_owner:w&#45;&gt;edition:e</title>
<path fill="none" stroke="black" d="M602.5,-417.15C583.95,-423.35 578.94,-441.3 554,-449 443.84,-483.03 408.3,-449.88 296,-476 249.64,-486.78 243.1,-513 195.5,-513"/>
<polygon fill="black" stroke="black" points="609.09,-416.18 617.53,-418.56 613.04,-415.59 617,-415 617,-415 617,-415 613.04,-415.59 616.47,-411.44 609.09,-416.18 609.09,-416.18"/>
<ellipse fill="none" stroke="black" cx="605.92" cy="-416.65" rx="3.2" ry="3.2"/>
</g>
<!-- word_owner&#45;&gt;word -->
<g id="edge13" class="edge">
<title>word_owner:w&#45;&gt;word:e</title>
<path fill="none" stroke="black" d="M602.43,-457.21C551.17,-442.59 610.07,-342.53 554,-300 508.07,-265.16 351.76,-287.64 296,-273 276.55,-267.89 274.6,-255 254.5,-255"/>
<polygon fill="black" stroke="black" points="609.06,-458.02 616.56,-462.57 613.03,-458.51 617,-459 617,-459 617,-459 613.03,-458.51 617.44,-455.43 609.06,-458.02 609.06,-458.02"/>
<ellipse fill="none" stroke="black" cx="605.88" cy="-457.63" rx="3.2" ry="3.2"/>
</g>
</g>
</svg>
