<?xml version="1.0" encoding="UTF-8" standalone="no"?>
<!DOCTYPE svg PUBLIC "-//W3C//DTD SVG 1.1//EN"
 "http://www.w3.org/Graphics/SVG/1.1/DTD/svg11.dtd">
<!-- Generated by graphviz version 2.40.1 (20161225.0304)
 -->
<!-- Title: oneDegreeRelationshipsDiagram Pages: 1 -->
<svg width="469pt" height="177pt"
 viewBox="0.00 0.00 469.00 177.00" xmlns="http://www.w3.org/2000/svg" xmlns:xlink="http://www.w3.org/1999/xlink">
<g id="graph0" class="graph" transform="scale(1 1) rotate(0) translate(4 173)">
<title>oneDegreeRelationshipsDiagram</title>
<polygon fill="#ffffff" stroke="transparent" points="-4,4 -4,-173 465,-173 465,4 -4,4"/>
<text text-anchor="middle" x="71.5" y="-7.2" font-family="Helvetica,sans-Serif" font-size="11.00" fill="#000000">Generated by SchemaSpy</text>
<!-- artefact_status -->
<g id="node1" class="node">
<title>artefact_status</title>
<g id="a_node1"><a xlink:href="../../tables/artefact_status.html" xlink:title="artefact_status" target="_top">
<polygon fill="#ffffff" stroke="transparent" points="311,-37 311,-165 453,-165 453,-37 311,-37"/>
<polygon fill="#f5f5f5" stroke="transparent" points="311,-143 311,-165 453,-165 453,-143 311,-143"/>
<polygon fill="none" stroke="#000000" points="311,-143 311,-165 453,-165 453,-143 311,-143"/>
<text text-anchor="start" x="316" y="-152.2" font-family="Helvetica,sans-Serif" font-weight="bold" font-size="11.00" fill="#000000">artefact_status</text>
<text text-anchor="start" x="418" y="-151.2" font-family="Helvetica,sans-Serif" font-size="11.00" fill="#000000">[table]</text>
<polygon fill="none" stroke="#000000" points="311,-121 311,-143 453,-143 453,-121 311,-121"/>
<image xlink:href="../../images/primaryKeys.png" width="11px" height="12px" preserveAspectRatio="xMinYMin meet" x="316" y="-138"/>
<text text-anchor="start" x="331" y="-129.2" font-family="Helvetica,sans-Serif" font-size="11.00" fill="#000000">artefact_status_id</text>
<polygon fill="#ffffff" stroke="transparent" points="311,-99 311,-121 453,-121 453,-99 311,-99"/>
<polygon fill="none" stroke="#000000" points="311,-99 311,-121 453,-121 453,-99 311,-99"/>
<image xlink:href="../../images/foreignKeys.png" width="11px" height="12px" preserveAspectRatio="xMinYMin meet" x="316" y="-116"/>
<text text-anchor="start" x="331" y="-107.2" font-family="Helvetica,sans-Serif" font-size="11.00" fill="#000000">work_status_id</text>
<polygon fill="#ffffff" stroke="transparent" points="311,-77 311,-99 453,-99 453,-77 311,-77"/>
<polygon fill="none" stroke="#000000" points="311,-77 311,-99 453,-99 453,-77 311,-77"/>
<image xlink:href="../../images/foreignKeys.png" width="11px" height="12px" preserveAspectRatio="xMinYMin meet" x="316" y="-94"/>
<text text-anchor="start" x="331" y="-85.2" font-family="Helvetica,sans-Serif" font-size="11.00" fill="#000000">artefact_id</text>
<polygon fill="#ffffff" stroke="transparent" points="311,-55 311,-77 453,-77 453,-55 311,-55"/>
<polygon fill="none" stroke="#000000" points="311,-55 311,-77 453,-77 453,-55 311,-55"/>
<image xlink:href="../../images/foreignKeys.png" width="11px" height="12px" preserveAspectRatio="xMinYMin meet" x="316" y="-72"/>
<text text-anchor="start" x="331" y="-63.2" font-family="Helvetica,sans-Serif" font-size="11.00" fill="#000000">creator_id</text>
<polygon fill="#ffffff" stroke="transparent" points="311,-37 311,-55 362,-55 362,-37 311,-37"/>
<polygon fill="none" stroke="#000000" points="311,-37 311,-55 362,-55 362,-37 311,-37"/>
<text text-anchor="start" x="314" y="-43.2" font-family="Helvetica,sans-Serif" font-size="11.00" fill="#000000">&lt; 3</text>
<polygon fill="#ffffff" stroke="transparent" points="362,-37 362,-55 416,-55 416,-37 362,-37"/>
<polygon fill="none" stroke="#000000" points="362,-37 362,-55 416,-55 416,-37 362,-37"/>
<text text-anchor="start" x="380" y="-43.2" font-family="Helvetica,sans-Serif" font-size="11.00" fill="#000000">0 rows</text>
<polygon fill="#ffffff" stroke="transparent" points="416,-37 416,-55 453,-55 453,-37 416,-37"/>
<polygon fill="none" stroke="#000000" points="416,-37 416,-55 453,-55 453,-37 416,-37"/>
<text text-anchor="start" x="434" y="-43.2" font-family="Helvetica,sans-Serif" font-size="11.00" fill="#000000">1 &gt;</text>
</a>
</g>
</g>
<!-- work_status -->
<g id="node2" class="node">
<title>work_status</title>
<g id="a_node2"><a xlink:href="../../tables/work_status.html" xlink:title="work_status" target="_top">
<polygon fill="#ffffff" stroke="transparent" points="8,-57 8,-145 262,-145 262,-57 8,-57"/>
<polygon fill="#f5f5f5" stroke="transparent" points="10,-121 10,-143 260,-143 260,-121 10,-121"/>
<polygon fill="none" stroke="#000000" points="10,-121 10,-143 260,-143 260,-121 10,-121"/>
<text text-anchor="start" x="15" y="-130.2" font-family="Helvetica,sans-Serif" font-weight="bold" font-size="11.00" fill="#000000">work_status</text>
<text text-anchor="start" x="225" y="-129.2" font-family="Helvetica,sans-Serif" font-size="11.00" fill="#000000">[table]</text>
<polygon fill="none" stroke="#000000" points="10,-99 10,-121 178,-121 178,-99 10,-99"/>
<image xlink:href="../../images/primaryKeys.png" width="11px" height="12px" preserveAspectRatio="xMinYMin meet" x="15" y="-116"/>
<text text-anchor="start" x="30" y="-107.2" font-family="Helvetica,sans-Serif" font-size="11.00" fill="#000000">work_status_id</text>
<polygon fill="none" stroke="#000000" points="178,-99 178,-121 260,-121 260,-99 178,-99"/>
<text text-anchor="start" x="181" y="-107.2" font-family="Helvetica,sans-Serif" font-size="11.00" fill="#000000">int unsigned[10]</text>
<polygon fill="#ffffff" stroke="transparent" points="10,-77 10,-99 178,-99 178,-77 10,-77"/>
<polygon fill="none" stroke="#000000" points="10,-77 10,-99 178,-99 178,-77 10,-77"/>
<text text-anchor="start" x="30" y="-85.2" font-family="Helvetica,sans-Serif" font-size="11.00" fill="#000000">work_status_message</text>
<polygon fill="none" stroke="#000000" points="178,-77 178,-99 260,-99 260,-77 178,-77"/>
<text text-anchor="start" x="181" y="-85.2" font-family="Helvetica,sans-Serif" font-size="11.00" fill="#000000">varchar[255]</text>
<polygon fill="#ffffff" stroke="transparent" points="10,-59 10,-77 85,-77 85,-59 10,-59"/>
<polygon fill="none" stroke="#000000" points="10,-59 10,-77 85,-77 85,-59 10,-59"/>
<text text-anchor="start" x="13" y="-65.2" font-family="Helvetica,sans-Serif" font-size="11.00" fill="#000000">&lt; 0</text>
<polygon fill="#ffffff" stroke="transparent" points="85,-59 85,-77 178,-77 178,-59 85,-59"/>
<polygon fill="none" stroke="#000000" points="85,-59 85,-77 178,-77 178,-59 85,-59"/>
<text text-anchor="start" x="142" y="-65.2" font-family="Helvetica,sans-Serif" font-size="11.00" fill="#000000">0 rows</text>
<polygon fill="#ffffff" stroke="transparent" points="178,-59 178,-77 260,-77 260,-59 178,-59"/>
<polygon fill="none" stroke="#000000" points="178,-59 178,-77 260,-77 260,-59 178,-59"/>
<text text-anchor="start" x="241" y="-65.2" font-family="Helvetica,sans-Serif" font-size="11.00" fill="#000000">1 &gt;</text>
<polygon fill="none" stroke="#000000" stroke-width="2" points="9,-58 9,-144 261,-144 261,-58 9,-58"/>
</a>
</g>
</g>
<!-- artefact_status&#45;&gt;work_status -->
<g id="edge1" class="edge">
<title>artefact_status:w&#45;&gt;work_status:e</title>
<path fill="none" stroke="#000000" d="M296.276,-110C284.2815,-110 276.8229,-110 260,-110"/>
<polygon fill="#000000" stroke="#000000" points="303,-110.0001 311,-113.6 307,-110 311,-110 311,-110 311,-110 307,-110 311,-106.4 303,-110.0001 303,-110.0001"/>
<ellipse fill="none" stroke="#000000" cx="299.8" cy="-110.0001" rx="3.2" ry="3.2"/>
</g>
</g>
</svg>
