<?xml version="1.0" encoding="UTF-8" standalone="no"?>
<!DOCTYPE svg PUBLIC "-//W3C//DTD SVG 1.1//EN"
 "http://www.w3.org/Graphics/SVG/1.1/DTD/svg11.dtd">
<!-- Generated by graphviz version 2.43.0 (0)
 -->
<!-- Title: oneDegreeRelationshipsDiagram Pages: 1 -->
<svg width="487pt" height="157pt"
 viewBox="0.00 0.00 487.00 157.00" xmlns="http://www.w3.org/2000/svg" xmlns:xlink="http://www.w3.org/1999/xlink">
<g id="graph0" class="graph" transform="scale(1 1) rotate(0) translate(4 153)">
<title>oneDegreeRelationshipsDiagram</title>
<polygon fill="#ffffff" stroke="transparent" points="-4,4 -4,-153 483,-153 483,4 -4,4"/>
<text text-anchor="middle" x="79.5" y="-7.2" font-family="Helvetica,sans-Serif" font-size="11.00">Generated by SchemaSpy</text>
<!-- artefact_status -->
<g id="node1" class="node">
<title>artefact_status</title>
<g id="a_node1"><a xlink:href="../../tables/artefact_status.html" xlink:title="artefact_status" target="_top">
<polygon fill="#ffffff" stroke="transparent" points="326,-39 326,-145 471,-145 471,-39 326,-39"/>
<polygon fill="#f5f5f5" stroke="transparent" points="326.5,-123 326.5,-145 471.5,-145 471.5,-123 326.5,-123"/>
<polygon fill="none" stroke="black" points="326.5,-123 326.5,-145 471.5,-145 471.5,-123 326.5,-123"/>
<text text-anchor="start" x="331.5" y="-132.2" font-family="Helvetica,sans-Serif" font-weight="bold" font-size="11.00">artefact_status</text>
<text text-anchor="start" x="429.5" y="-131.2" font-family="Helvetica,sans-Serif" font-size="11.00">[table]</text>
<polygon fill="none" stroke="black" points="326.5,-101 326.5,-123 471.5,-123 471.5,-101 326.5,-101"/>
<image xlink:href="../../images/primaryKeys.png" width="11px" height="12px" preserveAspectRatio="xMinYMin meet" x="331.5" y="-118"/>
<text text-anchor="start" x="348.5" y="-109.2" font-family="Helvetica,sans-Serif" font-size="11.00">artefact_status_id</text>
<polygon fill="#ffffff" stroke="transparent" points="326.5,-79 326.5,-101 471.5,-101 471.5,-79 326.5,-79"/>
<polygon fill="none" stroke="black" points="326.5,-79 326.5,-101 471.5,-101 471.5,-79 326.5,-79"/>
<image xlink:href="../../images/foreignKeys.png" width="11px" height="12px" preserveAspectRatio="xMinYMin meet" x="331.5" y="-96"/>
<text text-anchor="start" x="348.5" y="-87.2" font-family="Helvetica,sans-Serif" font-size="11.00">work_status_id</text>
<polygon fill="#ffffff" stroke="transparent" points="326.5,-57 326.5,-79 471.5,-79 471.5,-57 326.5,-57"/>
<polygon fill="none" stroke="black" points="326.5,-57 326.5,-79 471.5,-79 471.5,-57 326.5,-57"/>
<image xlink:href="../../images/foreignKeys.png" width="11px" height="12px" preserveAspectRatio="xMinYMin meet" x="331.5" y="-74"/>
<text text-anchor="start" x="348.5" y="-65.2" font-family="Helvetica,sans-Serif" font-size="11.00">artefact_id</text>
<polygon fill="#ffffff" stroke="transparent" points="326.5,-39 326.5,-57 377.5,-57 377.5,-39 326.5,-39"/>
<polygon fill="none" stroke="black" points="326.5,-39 326.5,-57 377.5,-57 377.5,-39 326.5,-39"/>
<text text-anchor="start" x="329.5" y="-45.2" font-family="Helvetica,sans-Serif" font-size="11.00">&lt; 2</text>
<polygon fill="#ffffff" stroke="transparent" points="377.5,-39 377.5,-57 432.5,-57 432.5,-39 377.5,-39"/>
<polygon fill="none" stroke="black" points="377.5,-39 377.5,-57 432.5,-57 432.5,-39 377.5,-39"/>
<text text-anchor="start" x="392.5" y="-45.2" font-family="Helvetica,sans-Serif" font-size="11.00">0 rows</text>
<polygon fill="#ffffff" stroke="transparent" points="432.5,-39 432.5,-57 471.5,-57 471.5,-39 432.5,-39"/>
<polygon fill="none" stroke="black" points="432.5,-39 432.5,-57 471.5,-57 471.5,-39 432.5,-39"/>
<text text-anchor="start" x="448.5" y="-45.2" font-family="Helvetica,sans-Serif" font-size="11.00">1 &gt;</text>
</a>
</g>
</g>
<!-- work_status -->
<g id="node2" class="node">
<title>work_status</title>
<g id="a_node2"><a xlink:href="../../tables/work_status.html" xlink:title="work_status" target="_top">
<polygon fill="#ffffff" stroke="transparent" points="8,-37 8,-125 277,-125 277,-37 8,-37"/>
<polygon fill="#f5f5f5" stroke="transparent" points="10.5,-101 10.5,-123 275.5,-123 275.5,-101 10.5,-101"/>
<polygon fill="none" stroke="black" points="10.5,-101 10.5,-123 275.5,-123 275.5,-101 10.5,-101"/>
<text text-anchor="start" x="15.5" y="-110.2" font-family="Helvetica,sans-Serif" font-weight="bold" font-size="11.00">work_status</text>
<text text-anchor="start" x="233.5" y="-109.2" font-family="Helvetica,sans-Serif" font-size="11.00">[table]</text>
<polygon fill="none" stroke="black" points="10.5,-79 10.5,-101 178.5,-101 178.5,-79 10.5,-79"/>
<image xlink:href="../../images/primaryKeys.png" width="11px" height="12px" preserveAspectRatio="xMinYMin meet" x="15.5" y="-96"/>
<text text-anchor="start" x="30.5" y="-87.2" font-family="Helvetica,sans-Serif" font-size="11.00">work_status_id</text>
<polygon fill="none" stroke="black" points="178.5,-79 178.5,-101 275.5,-101 275.5,-79 178.5,-79"/>
<text text-anchor="start" x="181.5" y="-87.2" font-family="Helvetica,sans-Serif" font-size="11.00">int unsigned[10]</text>
<polygon fill="#ffffff" stroke="transparent" points="10.5,-57 10.5,-79 178.5,-79 178.5,-57 10.5,-57"/>
<polygon fill="none" stroke="black" points="10.5,-57 10.5,-79 178.5,-79 178.5,-57 10.5,-57"/>
<text text-anchor="start" x="30.5" y="-65.2" font-family="Helvetica,sans-Serif" font-size="11.00">work_status_message</text>
<polygon fill="none" stroke="black" points="178.5,-57 178.5,-79 275.5,-79 275.5,-57 178.5,-57"/>
<text text-anchor="start" x="181.5" y="-65.2" font-family="Helvetica,sans-Serif" font-size="11.00">varchar[255]</text>
<polygon fill="#ffffff" stroke="transparent" points="10.5,-39 10.5,-57 85.5,-57 85.5,-39 10.5,-39"/>
<polygon fill="none" stroke="black" points="10.5,-39 10.5,-57 85.5,-57 85.5,-39 10.5,-39"/>
<text text-anchor="start" x="13.5" y="-45.2" font-family="Helvetica,sans-Serif" font-size="11.00">&lt; 0</text>
<polygon fill="#ffffff" stroke="transparent" points="85.5,-39 85.5,-57 178.5,-57 178.5,-39 85.5,-39"/>
<polygon fill="none" stroke="black" points="85.5,-39 85.5,-57 178.5,-57 178.5,-39 85.5,-39"/>
<text text-anchor="start" x="138.5" y="-45.2" font-family="Helvetica,sans-Serif" font-size="11.00">0 rows</text>
<polygon fill="#ffffff" stroke="transparent" points="178.5,-39 178.5,-57 275.5,-57 275.5,-39 178.5,-39"/>
<polygon fill="none" stroke="black" points="178.5,-39 178.5,-57 275.5,-57 275.5,-39 178.5,-39"/>
<text text-anchor="start" x="252.5" y="-45.2" font-family="Helvetica,sans-Serif" font-size="11.00">1 &gt;</text>
<polygon fill="none" stroke="black" stroke-width="2" points="9,-38 9,-124 276,-124 276,-38 9,-38"/>
</a>
</g>
</g>
<!-- artefact_status&#45;&gt;work_status -->
<g id="edge1" class="edge">
<title>artefact_status:w&#45;&gt;work_status:e</title>
<path fill="none" stroke="black" d="M310.99,-90C299.68,-90 292.49,-90 276.5,-90"/>
<polygon fill="black" stroke="black" points="317.5,-90 325.5,-93.6 321.5,-90 325.5,-90 325.5,-90 325.5,-90 321.5,-90 325.5,-86.4 317.5,-90 317.5,-90"/>
<ellipse fill="none" stroke="black" cx="314.3" cy="-90" rx="3.2" ry="3.2"/>
</g>
</g>
</svg>
