<?xml version="1.0" encoding="UTF-8" standalone="no"?>
<!DOCTYPE svg PUBLIC "-//W3C//DTD SVG 1.1//EN"
 "http://www.w3.org/Graphics/SVG/1.1/DTD/svg11.dtd">
<!-- Generated by graphviz version 2.43.0 (0)
 -->
<!-- Title: twoDegreesRelationshipsDiagram Pages: 1 -->
<svg width="725pt" height="216pt"
 viewBox="0.00 0.00 725.00 216.00" xmlns="http://www.w3.org/2000/svg" xmlns:xlink="http://www.w3.org/1999/xlink">
<g id="graph0" class="graph" transform="scale(1 1) rotate(0) translate(4 212)">
<title>twoDegreesRelationshipsDiagram</title>
<polygon fill="#ffffff" stroke="transparent" points="-4,4 -4,-212 721,-212 721,4 -4,4"/>
<text text-anchor="middle" x="79.5" y="-7.2" font-family="Helvetica,sans-Serif" font-size="11.00">Generated by SchemaSpy</text>
<!-- artefact_status -->
<g id="node1" class="node">
<title>artefact_status</title>
<g id="a_node1"><a xlink:href="../../tables/artefact_status.html" xlink:title="artefact_status" target="_top">
<polygon fill="#ffffff" stroke="transparent" points="326,-76 326,-182 471,-182 471,-76 326,-76"/>
<polygon fill="#f5f5f5" stroke="transparent" points="326.5,-160 326.5,-182 471.5,-182 471.5,-160 326.5,-160"/>
<polygon fill="none" stroke="black" points="326.5,-160 326.5,-182 471.5,-182 471.5,-160 326.5,-160"/>
<text text-anchor="start" x="331.5" y="-169.2" font-family="Helvetica,sans-Serif" font-weight="bold" font-size="11.00">artefact_status</text>
<text text-anchor="start" x="429.5" y="-168.2" font-family="Helvetica,sans-Serif" font-size="11.00">[table]</text>
<polygon fill="none" stroke="black" points="326.5,-138 326.5,-160 471.5,-160 471.5,-138 326.5,-138"/>
<image xlink:href="../../images/primaryKeys.png" width="11px" height="12px" preserveAspectRatio="xMinYMin meet" x="331.5" y="-155"/>
<text text-anchor="start" x="348.5" y="-146.2" font-family="Helvetica,sans-Serif" font-size="11.00">artefact_status_id</text>
<polygon fill="#ffffff" stroke="transparent" points="326.5,-116 326.5,-138 471.5,-138 471.5,-116 326.5,-116"/>
<polygon fill="none" stroke="black" points="326.5,-116 326.5,-138 471.5,-138 471.5,-116 326.5,-116"/>
<image xlink:href="../../images/foreignKeys.png" width="11px" height="12px" preserveAspectRatio="xMinYMin meet" x="331.5" y="-133"/>
<text text-anchor="start" x="348.5" y="-124.2" font-family="Helvetica,sans-Serif" font-size="11.00">work_status_id</text>
<polygon fill="#ffffff" stroke="transparent" points="326.5,-94 326.5,-116 471.5,-116 471.5,-94 326.5,-94"/>
<polygon fill="none" stroke="black" points="326.5,-94 326.5,-116 471.5,-116 471.5,-94 326.5,-94"/>
<image xlink:href="../../images/foreignKeys.png" width="11px" height="12px" preserveAspectRatio="xMinYMin meet" x="331.5" y="-111"/>
<text text-anchor="start" x="348.5" y="-102.2" font-family="Helvetica,sans-Serif" font-size="11.00">artefact_id</text>
<polygon fill="#ffffff" stroke="transparent" points="326.5,-76 326.5,-94 377.5,-94 377.5,-76 326.5,-76"/>
<polygon fill="none" stroke="black" points="326.5,-76 326.5,-94 377.5,-94 377.5,-76 326.5,-76"/>
<text text-anchor="start" x="329.5" y="-82.2" font-family="Helvetica,sans-Serif" font-size="11.00">&lt; 2</text>
<polygon fill="#ffffff" stroke="transparent" points="377.5,-76 377.5,-94 432.5,-94 432.5,-76 377.5,-76"/>
<polygon fill="none" stroke="black" points="377.5,-76 377.5,-94 432.5,-94 432.5,-76 377.5,-76"/>
<text text-anchor="start" x="392.5" y="-82.2" font-family="Helvetica,sans-Serif" font-size="11.00">0 rows</text>
<polygon fill="#ffffff" stroke="transparent" points="432.5,-76 432.5,-94 471.5,-94 471.5,-76 432.5,-76"/>
<polygon fill="none" stroke="black" points="432.5,-76 432.5,-94 471.5,-94 471.5,-76 432.5,-76"/>
<text text-anchor="start" x="448.5" y="-82.2" font-family="Helvetica,sans-Serif" font-size="11.00">1 &gt;</text>
</a>
</g>
</g>
<!-- artefact -->
<g id="node2" class="node">
<title>artefact</title>
<g id="a_node2"><a xlink:href="../../tables/artefact.html" xlink:title="artefact" target="_top">
<polygon fill="#ffffff" stroke="transparent" points="85.5,-37 85.5,-95 199.5,-95 199.5,-37 85.5,-37"/>
<polygon fill="#f5f5f5" stroke="transparent" points="85.5,-73 85.5,-95 199.5,-95 199.5,-73 85.5,-73"/>
<polygon fill="none" stroke="black" points="85.5,-73 85.5,-95 199.5,-95 199.5,-73 85.5,-73"/>
<text text-anchor="start" x="90.5" y="-82.2" font-family="Helvetica,sans-Serif" font-weight="bold" font-size="11.00">artefact</text>
<text text-anchor="start" x="157.5" y="-81.2" font-family="Helvetica,sans-Serif" font-size="11.00">[table]</text>
<polygon fill="none" stroke="black" points="85.5,-55 85.5,-73 199.5,-73 199.5,-55 85.5,-55"/>
<text text-anchor="start" x="88.5" y="-61.2" font-family="Helvetica,sans-Serif" font-size="11.00">...</text>
<polygon fill="#ffffff" stroke="transparent" points="85.5,-37 85.5,-55 99.5,-55 99.5,-37 85.5,-37"/>
<polygon fill="none" stroke="black" points="85.5,-37 85.5,-55 99.5,-55 99.5,-37 85.5,-37"/>
<text text-anchor="start" x="88.5" y="-43.2" font-family="Helvetica,sans-Serif" font-size="11.00"> &#160;</text>
<polygon fill="#ffffff" stroke="transparent" points="99.5,-37 99.5,-55 173.5,-55 173.5,-37 99.5,-37"/>
<polygon fill="none" stroke="black" points="99.5,-37 99.5,-55 173.5,-55 173.5,-37 99.5,-37"/>
<text text-anchor="start" x="102.5" y="-43.2" font-family="Helvetica,sans-Serif" font-size="11.00">26,982 rows</text>
<polygon fill="#ffffff" stroke="transparent" points="173.5,-37 173.5,-55 199.5,-55 199.5,-37 173.5,-37"/>
<polygon fill="none" stroke="black" points="173.5,-37 173.5,-55 199.5,-55 199.5,-37 173.5,-37"/>
<text text-anchor="start" x="176.5" y="-43.2" font-family="Helvetica,sans-Serif" font-size="11.00">8 &gt;</text>
</a>
</g>
</g>
<!-- artefact_status&#45;&gt;artefact -->
<g id="edge1" class="edge">
<title>artefact_status:w&#45;&gt;artefact:e</title>
<path fill="none" stroke="black" d="M310.89,-104.07C265.18,-97.96 253.71,-64 200.5,-64"/>
<polygon fill="black" stroke="black" points="317.52,-104.49 325.27,-108.59 321.51,-104.74 325.5,-105 325.5,-105 325.5,-105 321.51,-104.74 325.73,-101.41 317.52,-104.49 317.52,-104.49"/>
<ellipse fill="none" stroke="black" cx="314.32" cy="-104.29" rx="3.2" ry="3.2"/>
</g>
<!-- work_status -->
<g id="node3" class="node">
<title>work_status</title>
<g id="a_node3"><a xlink:href="../../tables/work_status.html" xlink:title="work_status" target="_top">
<polygon fill="#ffffff" stroke="transparent" points="8,-116 8,-204 277,-204 277,-116 8,-116"/>
<polygon fill="#f5f5f5" stroke="transparent" points="10.5,-180 10.5,-202 275.5,-202 275.5,-180 10.5,-180"/>
<polygon fill="none" stroke="black" points="10.5,-180 10.5,-202 275.5,-202 275.5,-180 10.5,-180"/>
<text text-anchor="start" x="15.5" y="-189.2" font-family="Helvetica,sans-Serif" font-weight="bold" font-size="11.00">work_status</text>
<text text-anchor="start" x="233.5" y="-188.2" font-family="Helvetica,sans-Serif" font-size="11.00">[table]</text>
<polygon fill="none" stroke="black" points="10.5,-158 10.5,-180 178.5,-180 178.5,-158 10.5,-158"/>
<image xlink:href="../../images/primaryKeys.png" width="11px" height="12px" preserveAspectRatio="xMinYMin meet" x="15.5" y="-175"/>
<text text-anchor="start" x="30.5" y="-166.2" font-family="Helvetica,sans-Serif" font-size="11.00">work_status_id</text>
<polygon fill="none" stroke="black" points="178.5,-158 178.5,-180 275.5,-180 275.5,-158 178.5,-158"/>
<text text-anchor="start" x="181.5" y="-166.2" font-family="Helvetica,sans-Serif" font-size="11.00">int unsigned[10]</text>
<polygon fill="#ffffff" stroke="transparent" points="10.5,-136 10.5,-158 178.5,-158 178.5,-136 10.5,-136"/>
<polygon fill="none" stroke="black" points="10.5,-136 10.5,-158 178.5,-158 178.5,-136 10.5,-136"/>
<text text-anchor="start" x="30.5" y="-144.2" font-family="Helvetica,sans-Serif" font-size="11.00">work_status_message</text>
<polygon fill="none" stroke="black" points="178.5,-136 178.5,-158 275.5,-158 275.5,-136 178.5,-136"/>
<text text-anchor="start" x="181.5" y="-144.2" font-family="Helvetica,sans-Serif" font-size="11.00">varchar[255]</text>
<polygon fill="#ffffff" stroke="transparent" points="10.5,-118 10.5,-136 85.5,-136 85.5,-118 10.5,-118"/>
<polygon fill="none" stroke="black" points="10.5,-118 10.5,-136 85.5,-136 85.5,-118 10.5,-118"/>
<text text-anchor="start" x="13.5" y="-124.2" font-family="Helvetica,sans-Serif" font-size="11.00">&lt; 0</text>
<polygon fill="#ffffff" stroke="transparent" points="85.5,-118 85.5,-136 178.5,-136 178.5,-118 85.5,-118"/>
<polygon fill="none" stroke="black" points="85.5,-118 85.5,-136 178.5,-136 178.5,-118 85.5,-118"/>
<text text-anchor="start" x="138.5" y="-124.2" font-family="Helvetica,sans-Serif" font-size="11.00">0 rows</text>
<polygon fill="#ffffff" stroke="transparent" points="178.5,-118 178.5,-136 275.5,-136 275.5,-118 178.5,-118"/>
<polygon fill="none" stroke="black" points="178.5,-118 178.5,-136 275.5,-136 275.5,-118 178.5,-118"/>
<text text-anchor="start" x="252.5" y="-124.2" font-family="Helvetica,sans-Serif" font-size="11.00">1 &gt;</text>
<polygon fill="none" stroke="black" stroke-width="2" points="9,-117 9,-203 276,-203 276,-117 9,-117"/>
</a>
</g>
</g>
<!-- artefact_status&#45;&gt;work_status -->
<g id="edge2" class="edge">
<title>artefact_status:w&#45;&gt;work_status:e</title>
<path fill="none" stroke="black" d="M311.6,-131.82C298.7,-142.85 299.13,-169 276.5,-169"/>
<polygon fill="black" stroke="black" points="317.94,-129.62 326.68,-130.4 321.72,-128.31 325.5,-127 325.5,-127 325.5,-127 321.72,-128.31 324.32,-123.6 317.94,-129.62 317.94,-129.62"/>
<ellipse fill="none" stroke="black" cx="314.92" cy="-130.67" rx="3.2" ry="3.2"/>
</g>
<!-- artefact_status_owner -->
<g id="node4" class="node">
<title>artefact_status_owner</title>
<g id="a_node4"><a xlink:href="../../tables/artefact_status_owner.html" xlink:title="artefact_status_owner" target="_top">
<polygon fill="#ffffff" stroke="transparent" points="520,-122 520,-180 709,-180 709,-122 520,-122"/>
<polygon fill="#f5f5f5" stroke="transparent" points="520.5,-158 520.5,-180 709.5,-180 709.5,-158 520.5,-158"/>
<polygon fill="none" stroke="black" points="520.5,-158 520.5,-180 709.5,-180 709.5,-158 520.5,-158"/>
<text text-anchor="start" x="525.5" y="-167.2" font-family="Helvetica,sans-Serif" font-weight="bold" font-size="11.00">artefact_status_owner</text>
<text text-anchor="start" x="667.5" y="-166.2" font-family="Helvetica,sans-Serif" font-size="11.00">[table]</text>
<polygon fill="none" stroke="black" points="520.5,-140 520.5,-158 709.5,-158 709.5,-140 520.5,-140"/>
<text text-anchor="start" x="523.5" y="-146.2" font-family="Helvetica,sans-Serif" font-size="11.00">...</text>
<polygon fill="#ffffff" stroke="transparent" points="520.5,-122 520.5,-140 599.5,-140 599.5,-122 520.5,-122"/>
<polygon fill="none" stroke="black" points="520.5,-122 520.5,-140 599.5,-140 599.5,-122 520.5,-122"/>
<text text-anchor="start" x="523.5" y="-128.2" font-family="Helvetica,sans-Serif" font-size="11.00">&lt; 3</text>
<polygon fill="#ffffff" stroke="transparent" points="599.5,-122 599.5,-140 668.5,-140 668.5,-122 599.5,-122"/>
<polygon fill="none" stroke="black" points="599.5,-122 599.5,-140 668.5,-140 668.5,-122 599.5,-122"/>
<text text-anchor="start" x="628.5" y="-128.2" font-family="Helvetica,sans-Serif" font-size="11.00">0 rows</text>
<polygon fill="#ffffff" stroke="transparent" points="668.5,-122 668.5,-140 709.5,-140 709.5,-122 668.5,-122"/>
<polygon fill="none" stroke="black" points="668.5,-122 668.5,-140 709.5,-140 709.5,-122 668.5,-122"/>
<text text-anchor="start" x="698.5" y="-128.2" font-family="Helvetica,sans-Serif" font-size="11.00"> &#160;</text>
</a>
</g>
</g>
<!-- artefact_status_owner&#45;&gt;artefact_status -->
<g id="edge3" class="edge">
<title>artefact_status_owner:w&#45;&gt;artefact_status:e</title>
<path fill="none" stroke="black" d="M504.9,-149C494.43,-149 487.51,-149 472.5,-149"/>
<polygon fill="black" stroke="black" points="511.5,-149 519.5,-152.6 515.5,-149 519.5,-149 519.5,-149 519.5,-149 515.5,-149 519.5,-145.4 511.5,-149 511.5,-149"/>
<ellipse fill="none" stroke="black" cx="508.3" cy="-149" rx="3.2" ry="3.2"/>
</g>
</g>
</svg>
