<?xml version="1.0" encoding="UTF-8" standalone="no"?>
<!DOCTYPE svg PUBLIC "-//W3C//DTD SVG 1.1//EN"
 "http://www.w3.org/Graphics/SVG/1.1/DTD/svg11.dtd">
<!-- Generated by graphviz version 2.40.1 (20161225.0304)
 -->
<!-- Title: qwb_ref Pages: 1 -->
<svg width="271pt" height="192pt"
 viewBox="0.00 0.00 271.00 192.00" xmlns="http://www.w3.org/2000/svg" xmlns:xlink="http://www.w3.org/1999/xlink">
<g id="graph0" class="graph" transform="scale(1 1) rotate(0) translate(4 188)">
<title>qwb_ref</title>
<polygon fill="#ffffff" stroke="transparent" points="-4,4 -4,-188 267,-188 267,4 -4,4"/>
<!-- qwb_ref -->
<g id="node1" class="node">
<title>qwb_ref</title>
<g id="a_node1"><a xlink:href="../../tables/qwb_ref.html" xlink:title="qwb_ref" target="_top">
<polygon fill="#ffffff" stroke="transparent" points="8,-4 8,-180 255,-180 255,-4 8,-4"/>
<polygon fill="#f5f5f5" stroke="transparent" points="10.5,-156 10.5,-178 253.5,-178 253.5,-156 10.5,-156"/>
<polygon fill="none" stroke="#000000" points="10.5,-156 10.5,-178 253.5,-178 253.5,-156 10.5,-156"/>
<text text-anchor="start" x="15.5" y="-165.2" font-family="Helvetica,sans-Serif" font-weight="bold" font-size="11.00" fill="#000000">qwb_ref</text>
<text text-anchor="start" x="218.5" y="-164.2" font-family="Helvetica,sans-Serif" font-size="11.00" fill="#000000">[table]</text>
<polygon fill="none" stroke="#000000" points="10.5,-134 10.5,-156 171.5,-156 171.5,-134 10.5,-134"/>
<image xlink:href="../../images/primaryKeys.png" width="11px" height="12px" preserveAspectRatio="xMinYMin meet" x="15.5" y="-151"/>
<text text-anchor="start" x="30.5" y="-142.2" font-family="Helvetica,sans-Serif" font-size="11.00" fill="#000000">qwb_ref_id</text>
<polygon fill="none" stroke="#000000" points="171.5,-134 171.5,-156 253.5,-156 253.5,-134 171.5,-134"/>
<text text-anchor="start" x="174.5" y="-142.2" font-family="Helvetica,sans-Serif" font-size="11.00" fill="#000000">int unsigned[10]</text>
<polygon fill="none" stroke="#000000" points="10.5,-112 10.5,-134 171.5,-134 171.5,-112 10.5,-112"/>
<image xlink:href="../../images/foreignKeys.png" width="11px" height="12px" preserveAspectRatio="xMinYMin meet" x="15.5" y="-129"/>
<text text-anchor="start" x="30.5" y="-120.2" font-family="Helvetica,sans-Serif" font-size="11.00" fill="#000000">line_id</text>
<polygon fill="none" stroke="#000000" points="171.5,-112 171.5,-134 253.5,-134 253.5,-112 171.5,-112"/>
<text text-anchor="start" x="174.5" y="-120.2" font-family="Helvetica,sans-Serif" font-size="11.00" fill="#000000">int unsigned[10]</text>
<polygon fill="none" stroke="#000000" points="10.5,-90 10.5,-112 171.5,-112 171.5,-90 10.5,-90"/>
<text text-anchor="start" x="30.5" y="-98.2" font-family="Helvetica,sans-Serif" font-size="11.00" fill="#000000">qwb_scroll_name</text>
<polygon fill="none" stroke="#000000" points="171.5,-90 171.5,-112 253.5,-112 253.5,-90 171.5,-90"/>
<text text-anchor="start" x="174.5" y="-98.2" font-family="Helvetica,sans-Serif" font-size="11.00" fill="#000000">varchar[16]</text>
<polygon fill="none" stroke="#000000" points="10.5,-68 10.5,-90 171.5,-90 171.5,-68 10.5,-68"/>
<text text-anchor="start" x="30.5" y="-76.2" font-family="Helvetica,sans-Serif" font-size="11.00" fill="#000000">qwb_fragment_name</text>
<polygon fill="none" stroke="#000000" points="171.5,-68 171.5,-90 253.5,-90 253.5,-68 171.5,-68"/>
<text text-anchor="start" x="174.5" y="-76.2" font-family="Helvetica,sans-Serif" font-size="11.00" fill="#000000">varchar[40]</text>
<polygon fill="none" stroke="#000000" points="10.5,-46 10.5,-68 171.5,-68 171.5,-46 10.5,-46"/>
<text text-anchor="start" x="30.5" y="-54.2" font-family="Helvetica,sans-Serif" font-size="11.00" fill="#000000">qwb_line_name</text>
<polygon fill="none" stroke="#000000" points="171.5,-46 171.5,-68 253.5,-68 253.5,-46 171.5,-46"/>
<text text-anchor="start" x="174.5" y="-54.2" font-family="Helvetica,sans-Serif" font-size="11.00" fill="#000000">varchar[20]</text>
<polygon fill="#ffffff" stroke="transparent" points="10.5,-24 10.5,-46 171.5,-46 171.5,-24 10.5,-24"/>
<polygon fill="none" stroke="#000000" points="10.5,-24 10.5,-46 171.5,-46 171.5,-24 10.5,-24"/>
<text text-anchor="start" x="30.5" y="-32.2" font-family="Helvetica,sans-Serif" font-size="11.00" fill="#000000">text</text>
<polygon fill="none" stroke="#000000" points="171.5,-24 171.5,-46 253.5,-46 253.5,-24 171.5,-24"/>
<text text-anchor="start" x="174.5" y="-32.2" font-family="Helvetica,sans-Serif" font-size="11.00" fill="#000000">varchar[255]</text>
<polygon fill="#ffffff" stroke="transparent" points="10.5,-6 10.5,-24 68.5,-24 68.5,-6 10.5,-6"/>
<polygon fill="none" stroke="#000000" points="10.5,-6 10.5,-24 68.5,-24 68.5,-6 10.5,-6"/>
<text text-anchor="start" x="13.5" y="-12.2" font-family="Helvetica,sans-Serif" font-size="11.00" fill="#000000">&lt; 0</text>
<polygon fill="#ffffff" stroke="transparent" points="68.5,-6 68.5,-24 171.5,-24 171.5,-6 68.5,-6"/>
<polygon fill="none" stroke="#000000" points="68.5,-6 68.5,-24 171.5,-24 171.5,-6 68.5,-6"/>
<text text-anchor="start" x="108.5" y="-12.2" font-family="Helvetica,sans-Serif" font-size="11.00" fill="#000000">54,197 rows</text>
<polygon fill="#ffffff" stroke="transparent" points="171.5,-6 171.5,-24 253.5,-24 253.5,-6 171.5,-6"/>
<polygon fill="none" stroke="#000000" points="171.5,-6 171.5,-24 253.5,-24 253.5,-6 171.5,-6"/>
<text text-anchor="start" x="234.5" y="-12.2" font-family="Helvetica,sans-Serif" font-size="11.00" fill="#000000">0 &gt;</text>
<polygon fill="none" stroke="#000000" stroke-width="2" points="9,-5 9,-179 254,-179 254,-5 9,-5"/>
</a>
</g>
</g>
</g>
</svg>
