<?xml version="1.0" encoding="UTF-8" standalone="no"?>
<!DOCTYPE svg PUBLIC "-//W3C//DTD SVG 1.1//EN"
 "http://www.w3.org/Graphics/SVG/1.1/DTD/svg11.dtd">
<!-- Generated by graphviz version 2.43.0 (0)
 -->
<!-- Title: user_sessions Pages: 1 -->
<svg width="261pt" height="192pt"
 viewBox="0.00 0.00 261.00 192.00" xmlns="http://www.w3.org/2000/svg" xmlns:xlink="http://www.w3.org/1999/xlink">
<g id="graph0" class="graph" transform="scale(1 1) rotate(0) translate(4 188)">
<title>user_sessions</title>
<polygon fill="#ffffff" stroke="transparent" points="-4,4 -4,-188 257,-188 257,4 -4,4"/>
<!-- user_sessions -->
<g id="node1" class="node">
<title>user_sessions</title>
<g id="a_node1"><a xlink:href="../../tables/user_sessions.html" xlink:title="user_sessions" target="_top">
<polygon fill="#ffffff" stroke="transparent" points="8,-4 8,-180 245,-180 245,-4 8,-4"/>
<polygon fill="#f5f5f5" stroke="transparent" points="10.5,-156 10.5,-178 243.5,-178 243.5,-156 10.5,-156"/>
<polygon fill="none" stroke="black" points="10.5,-156 10.5,-178 243.5,-178 243.5,-156 10.5,-156"/>
<text text-anchor="start" x="15.5" y="-165.2" font-family="Helvetica,sans-Serif" font-weight="bold" font-size="11.00">user_sessions</text>
<text text-anchor="start" x="201.5" y="-164.2" font-family="Helvetica,sans-Serif" font-size="11.00">[table]</text>
<polygon fill="none" stroke="black" points="10.5,-134 10.5,-156 124.5,-156 124.5,-134 10.5,-134"/>
<image xlink:href="../../images/primaryKeys.png" width="11px" height="12px" preserveAspectRatio="xMinYMin meet" x="15.5" y="-151"/>
<text text-anchor="start" x="30.5" y="-142.2" font-family="Helvetica,sans-Serif" font-size="11.00">session_id</text>
<polygon fill="none" stroke="black" points="124.5,-134 124.5,-156 243.5,-156 243.5,-134 124.5,-134"/>
<text text-anchor="start" x="127.5" y="-142.2" font-family="Helvetica,sans-Serif" font-size="11.00">int[10]</text>
<polygon fill="none" stroke="black" points="10.5,-112 10.5,-134 124.5,-134 124.5,-112 10.5,-112"/>
<image xlink:href="../../images/primaryKeys.png" width="11px" height="12px" preserveAspectRatio="xMinYMin meet" x="15.5" y="-129"/>
<text text-anchor="start" x="30.5" y="-120.2" font-family="Helvetica,sans-Serif" font-size="11.00">user_id</text>
<polygon fill="none" stroke="black" points="124.5,-112 124.5,-134 243.5,-134 243.5,-112 124.5,-112"/>
<text text-anchor="start" x="127.5" y="-120.2" font-family="Helvetica,sans-Serif" font-size="11.00">smallint unsigned[5]</text>
<polygon fill="none" stroke="black" points="10.5,-90 10.5,-112 124.5,-112 124.5,-90 10.5,-90"/>
<text text-anchor="start" x="30.5" y="-98.2" font-family="Helvetica,sans-Serif" font-size="11.00">session_key</text>
<polygon fill="none" stroke="black" points="124.5,-90 124.5,-112 243.5,-112 243.5,-90 124.5,-90"/>
<text text-anchor="start" x="127.5" y="-98.2" font-family="Helvetica,sans-Serif" font-size="11.00">char[56]</text>
<polygon fill="none" stroke="black" points="10.5,-68 10.5,-90 124.5,-90 124.5,-68 10.5,-68"/>
<text text-anchor="start" x="30.5" y="-76.2" font-family="Helvetica,sans-Serif" font-size="11.00">session_start</text>
<polygon fill="none" stroke="black" points="124.5,-68 124.5,-90 243.5,-90 243.5,-68 124.5,-68"/>
<text text-anchor="start" x="127.5" y="-76.2" font-family="Helvetica,sans-Serif" font-size="11.00">datetime[19]</text>
<polygon fill="none" stroke="black" points="10.5,-46 10.5,-68 124.5,-68 124.5,-46 10.5,-46"/>
<text text-anchor="start" x="30.5" y="-54.2" font-family="Helvetica,sans-Serif" font-size="11.00">session_end</text>
<polygon fill="none" stroke="black" points="124.5,-46 124.5,-68 243.5,-68 243.5,-46 124.5,-46"/>
<text text-anchor="start" x="127.5" y="-54.2" font-family="Helvetica,sans-Serif" font-size="11.00">datetime[19]</text>
<polygon fill="none" stroke="black" points="10.5,-24 10.5,-46 124.5,-46 124.5,-24 10.5,-24"/>
<text text-anchor="start" x="30.5" y="-32.2" font-family="Helvetica,sans-Serif" font-size="11.00">current</text>
<polygon fill="none" stroke="black" points="124.5,-24 124.5,-46 243.5,-46 243.5,-24 124.5,-24"/>
<text text-anchor="start" x="127.5" y="-32.2" font-family="Helvetica,sans-Serif" font-size="11.00">bit[3]</text>
<polygon fill="#ffffff" stroke="transparent" points="10.5,-6 10.5,-24 58.5,-24 58.5,-6 10.5,-6"/>
<polygon fill="none" stroke="black" points="10.5,-6 10.5,-24 58.5,-24 58.5,-6 10.5,-6"/>
<text text-anchor="start" x="13.5" y="-12.2" font-family="Helvetica,sans-Serif" font-size="11.00">&lt; 0</text>
<polygon fill="#ffffff" stroke="transparent" points="58.5,-6 58.5,-24 124.5,-24 124.5,-6 58.5,-6"/>
<polygon fill="none" stroke="black" points="58.5,-6 58.5,-24 124.5,-24 124.5,-6 58.5,-6"/>
<text text-anchor="start" x="84.5" y="-12.2" font-family="Helvetica,sans-Serif" font-size="11.00">0 rows</text>
<polygon fill="#ffffff" stroke="transparent" points="124.5,-6 124.5,-24 243.5,-24 243.5,-6 124.5,-6"/>
<polygon fill="none" stroke="black" points="124.5,-6 124.5,-24 243.5,-24 243.5,-6 124.5,-6"/>
<text text-anchor="start" x="220.5" y="-12.2" font-family="Helvetica,sans-Serif" font-size="11.00">0 &gt;</text>
<polygon fill="none" stroke="black" stroke-width="2" points="9,-5 9,-179 244,-179 244,-5 9,-5"/>
</a>
</g>
</g>
</g>
</svg>
